<?xml version="1.0" encoding="utf-8" standalone="no"?>
<!DOCTYPE svg PUBLIC "-//W3C//DTD SVG 1.1//EN"
  "http://www.w3.org/Graphics/SVG/1.1/DTD/svg11.dtd">
<svg xmlns:xlink="http://www.w3.org/1999/xlink" width="854.454937pt" height="351.034375pt" viewBox="0 0 854.454937 351.034375" xmlns="http://www.w3.org/2000/svg" version="1.1">
 <metadata>
  <rdf:RDF xmlns:dc="http://purl.org/dc/elements/1.1/" xmlns:cc="http://creativecommons.org/ns#" xmlns:rdf="http://www.w3.org/1999/02/22-rdf-syntax-ns#">
   <cc:Work>
    <dc:type rdf:resource="http://purl.org/dc/dcmitype/StillImage"/>
    <dc:date>2025-07-24T14:39:28.917783</dc:date>
    <dc:format>image/svg+xml</dc:format>
    <dc:creator>
     <cc:Agent>
      <dc:title>Matplotlib v3.10.3, https://matplotlib.org/</dc:title>
     </cc:Agent>
    </dc:creator>
   </cc:Work>
  </rdf:RDF>
 </metadata>
 <defs>
  <style type="text/css">*{stroke-linejoin: round; stroke-linecap: butt}</style>
 </defs>
 <g id="figure_1">
  <g id="patch_1">
   <path d="M 0 351.034375 
L 854.454937 351.034375 
L 854.454937 0 
L 0 0 
z
" style="fill: #ffffff"/>
  </g>
  <g id="axes_1">
   <g id="patch_2">
    <path d="M 52.160938 313.478125 
L 847.254938 313.478125 
L 847.254938 22.318125 
L 52.160938 22.318125 
z
" style="fill: #ffffff"/>
   </g>
   <g id="matplotlib.axis_1">
    <g id="xtick_1">
     <g id="line2d_1">
      <path d="M 63.597382 313.478125 
L 63.597382 22.318125 
" clip-path="url(#p8764160b21)" style="fill: none; stroke: #b0b0b0; stroke-width: 0.8; stroke-linecap: square"/>
     </g>
     <g id="line2d_2">
      <defs>
       <path id="mdc3a9036cd" d="M 0 0 
L 0 3.5 
" style="stroke: #000000; stroke-width: 0.8"/>
      </defs>
      <g>
       <use xlink:href="#mdc3a9036cd" x="63.597382" y="313.478125" style="stroke: #000000; stroke-width: 0.8"/>
      </g>
     </g>
     <g id="text_1">
      <!-- −14000 -->
      <g transform="translate(43.501288 328.076563) scale(0.1 -0.1)">
       <defs>
        <path id="DejaVuSans-2212" d="M 678 2272 
L 4684 2272 
L 4684 1741 
L 678 1741 
L 678 2272 
z
" transform="scale(0.015625)"/>
        <path id="DejaVuSans-31" d="M 794 531 
L 1825 531 
L 1825 4091 
L 703 3866 
L 703 4441 
L 1819 4666 
L 2450 4666 
L 2450 531 
L 3481 531 
L 3481 0 
L 794 0 
L 794 531 
z
" transform="scale(0.015625)"/>
        <path id="DejaVuSans-34" d="M 2419 4116 
L 825 1625 
L 2419 1625 
L 2419 4116 
z
M 2253 4666 
L 3047 4666 
L 3047 1625 
L 3713 1625 
L 3713 1100 
L 3047 1100 
L 3047 0 
L 2419 0 
L 2419 1100 
L 313 1100 
L 313 1709 
L 2253 4666 
z
" transform="scale(0.015625)"/>
        <path id="DejaVuSans-30" d="M 2034 4250 
Q 1547 4250 1301 3770 
Q 1056 3291 1056 2328 
Q 1056 1369 1301 889 
Q 1547 409 2034 409 
Q 2525 409 2770 889 
Q 3016 1369 3016 2328 
Q 3016 3291 2770 3770 
Q 2525 4250 2034 4250 
z
M 2034 4750 
Q 2819 4750 3233 4129 
Q 3647 3509 3647 2328 
Q 3647 1150 3233 529 
Q 2819 -91 2034 -91 
Q 1250 -91 836 529 
Q 422 1150 422 2328 
Q 422 3509 836 4129 
Q 1250 4750 2034 4750 
z
" transform="scale(0.015625)"/>
       </defs>
       <use xlink:href="#DejaVuSans-2212"/>
       <use xlink:href="#DejaVuSans-31" transform="translate(83.789062 0)"/>
       <use xlink:href="#DejaVuSans-34" transform="translate(147.412109 0)"/>
       <use xlink:href="#DejaVuSans-30" transform="translate(211.035156 0)"/>
       <use xlink:href="#DejaVuSans-30" transform="translate(274.658203 0)"/>
       <use xlink:href="#DejaVuSans-30" transform="translate(338.28125 0)"/>
      </g>
     </g>
    </g>
    <g id="xtick_2">
     <g id="line2d_3">
      <path d="M 169.858777 313.478125 
L 169.858777 22.318125 
" clip-path="url(#p8764160b21)" style="fill: none; stroke: #b0b0b0; stroke-width: 0.8; stroke-linecap: square"/>
     </g>
     <g id="line2d_4">
      <g>
       <use xlink:href="#mdc3a9036cd" x="169.858777" y="313.478125" style="stroke: #000000; stroke-width: 0.8"/>
      </g>
     </g>
     <g id="text_2">
      <!-- −12000 -->
      <g transform="translate(149.762683 328.076563) scale(0.1 -0.1)">
       <defs>
        <path id="DejaVuSans-32" d="M 1228 531 
L 3431 531 
L 3431 0 
L 469 0 
L 469 531 
Q 828 903 1448 1529 
Q 2069 2156 2228 2338 
Q 2531 2678 2651 2914 
Q 2772 3150 2772 3378 
Q 2772 3750 2511 3984 
Q 2250 4219 1831 4219 
Q 1534 4219 1204 4116 
Q 875 4013 500 3803 
L 500 4441 
Q 881 4594 1212 4672 
Q 1544 4750 1819 4750 
Q 2544 4750 2975 4387 
Q 3406 4025 3406 3419 
Q 3406 3131 3298 2873 
Q 3191 2616 2906 2266 
Q 2828 2175 2409 1742 
Q 1991 1309 1228 531 
z
" transform="scale(0.015625)"/>
       </defs>
       <use xlink:href="#DejaVuSans-2212"/>
       <use xlink:href="#DejaVuSans-31" transform="translate(83.789062 0)"/>
       <use xlink:href="#DejaVuSans-32" transform="translate(147.412109 0)"/>
       <use xlink:href="#DejaVuSans-30" transform="translate(211.035156 0)"/>
       <use xlink:href="#DejaVuSans-30" transform="translate(274.658203 0)"/>
       <use xlink:href="#DejaVuSans-30" transform="translate(338.28125 0)"/>
      </g>
     </g>
    </g>
    <g id="xtick_3">
     <g id="line2d_5">
      <path d="M 276.120172 313.478125 
L 276.120172 22.318125 
" clip-path="url(#p8764160b21)" style="fill: none; stroke: #b0b0b0; stroke-width: 0.8; stroke-linecap: square"/>
     </g>
     <g id="line2d_6">
      <g>
       <use xlink:href="#mdc3a9036cd" x="276.120172" y="313.478125" style="stroke: #000000; stroke-width: 0.8"/>
      </g>
     </g>
     <g id="text_3">
      <!-- −10000 -->
      <g transform="translate(256.024078 328.076563) scale(0.1 -0.1)">
       <use xlink:href="#DejaVuSans-2212"/>
       <use xlink:href="#DejaVuSans-31" transform="translate(83.789062 0)"/>
       <use xlink:href="#DejaVuSans-30" transform="translate(147.412109 0)"/>
       <use xlink:href="#DejaVuSans-30" transform="translate(211.035156 0)"/>
       <use xlink:href="#DejaVuSans-30" transform="translate(274.658203 0)"/>
       <use xlink:href="#DejaVuSans-30" transform="translate(338.28125 0)"/>
      </g>
     </g>
    </g>
    <g id="xtick_4">
     <g id="line2d_7">
      <path d="M 382.381567 313.478125 
L 382.381567 22.318125 
" clip-path="url(#p8764160b21)" style="fill: none; stroke: #b0b0b0; stroke-width: 0.8; stroke-linecap: square"/>
     </g>
     <g id="line2d_8">
      <g>
       <use xlink:href="#mdc3a9036cd" x="382.381567" y="313.478125" style="stroke: #000000; stroke-width: 0.8"/>
      </g>
     </g>
     <g id="text_4">
      <!-- −8000 -->
      <g transform="translate(365.466723 328.076563) scale(0.1 -0.1)">
       <defs>
        <path id="DejaVuSans-38" d="M 2034 2216 
Q 1584 2216 1326 1975 
Q 1069 1734 1069 1313 
Q 1069 891 1326 650 
Q 1584 409 2034 409 
Q 2484 409 2743 651 
Q 3003 894 3003 1313 
Q 3003 1734 2745 1975 
Q 2488 2216 2034 2216 
z
M 1403 2484 
Q 997 2584 770 2862 
Q 544 3141 544 3541 
Q 544 4100 942 4425 
Q 1341 4750 2034 4750 
Q 2731 4750 3128 4425 
Q 3525 4100 3525 3541 
Q 3525 3141 3298 2862 
Q 3072 2584 2669 2484 
Q 3125 2378 3379 2068 
Q 3634 1759 3634 1313 
Q 3634 634 3220 271 
Q 2806 -91 2034 -91 
Q 1263 -91 848 271 
Q 434 634 434 1313 
Q 434 1759 690 2068 
Q 947 2378 1403 2484 
z
M 1172 3481 
Q 1172 3119 1398 2916 
Q 1625 2713 2034 2713 
Q 2441 2713 2670 2916 
Q 2900 3119 2900 3481 
Q 2900 3844 2670 4047 
Q 2441 4250 2034 4250 
Q 1625 4250 1398 4047 
Q 1172 3844 1172 3481 
z
" transform="scale(0.015625)"/>
       </defs>
       <use xlink:href="#DejaVuSans-2212"/>
       <use xlink:href="#DejaVuSans-38" transform="translate(83.789062 0)"/>
       <use xlink:href="#DejaVuSans-30" transform="translate(147.412109 0)"/>
       <use xlink:href="#DejaVuSans-30" transform="translate(211.035156 0)"/>
       <use xlink:href="#DejaVuSans-30" transform="translate(274.658203 0)"/>
      </g>
     </g>
    </g>
    <g id="xtick_5">
     <g id="line2d_9">
      <path d="M 488.642962 313.478125 
L 488.642962 22.318125 
" clip-path="url(#p8764160b21)" style="fill: none; stroke: #b0b0b0; stroke-width: 0.8; stroke-linecap: square"/>
     </g>
     <g id="line2d_10">
      <g>
       <use xlink:href="#mdc3a9036cd" x="488.642962" y="313.478125" style="stroke: #000000; stroke-width: 0.8"/>
      </g>
     </g>
     <g id="text_5">
      <!-- −6000 -->
      <g transform="translate(471.728118 328.076563) scale(0.1 -0.1)">
       <defs>
        <path id="DejaVuSans-36" d="M 2113 2584 
Q 1688 2584 1439 2293 
Q 1191 2003 1191 1497 
Q 1191 994 1439 701 
Q 1688 409 2113 409 
Q 2538 409 2786 701 
Q 3034 994 3034 1497 
Q 3034 2003 2786 2293 
Q 2538 2584 2113 2584 
z
M 3366 4563 
L 3366 3988 
Q 3128 4100 2886 4159 
Q 2644 4219 2406 4219 
Q 1781 4219 1451 3797 
Q 1122 3375 1075 2522 
Q 1259 2794 1537 2939 
Q 1816 3084 2150 3084 
Q 2853 3084 3261 2657 
Q 3669 2231 3669 1497 
Q 3669 778 3244 343 
Q 2819 -91 2113 -91 
Q 1303 -91 875 529 
Q 447 1150 447 2328 
Q 447 3434 972 4092 
Q 1497 4750 2381 4750 
Q 2619 4750 2861 4703 
Q 3103 4656 3366 4563 
z
" transform="scale(0.015625)"/>
       </defs>
       <use xlink:href="#DejaVuSans-2212"/>
       <use xlink:href="#DejaVuSans-36" transform="translate(83.789062 0)"/>
       <use xlink:href="#DejaVuSans-30" transform="translate(147.412109 0)"/>
       <use xlink:href="#DejaVuSans-30" transform="translate(211.035156 0)"/>
       <use xlink:href="#DejaVuSans-30" transform="translate(274.658203 0)"/>
      </g>
     </g>
    </g>
    <g id="xtick_6">
     <g id="line2d_11">
      <path d="M 594.904357 313.478125 
L 594.904357 22.318125 
" clip-path="url(#p8764160b21)" style="fill: none; stroke: #b0b0b0; stroke-width: 0.8; stroke-linecap: square"/>
     </g>
     <g id="line2d_12">
      <g>
       <use xlink:href="#mdc3a9036cd" x="594.904357" y="313.478125" style="stroke: #000000; stroke-width: 0.8"/>
      </g>
     </g>
     <g id="text_6">
      <!-- −4000 -->
      <g transform="translate(577.989513 328.076563) scale(0.1 -0.1)">
       <use xlink:href="#DejaVuSans-2212"/>
       <use xlink:href="#DejaVuSans-34" transform="translate(83.789062 0)"/>
       <use xlink:href="#DejaVuSans-30" transform="translate(147.412109 0)"/>
       <use xlink:href="#DejaVuSans-30" transform="translate(211.035156 0)"/>
       <use xlink:href="#DejaVuSans-30" transform="translate(274.658203 0)"/>
      </g>
     </g>
    </g>
    <g id="xtick_7">
     <g id="line2d_13">
      <path d="M 701.165752 313.478125 
L 701.165752 22.318125 
" clip-path="url(#p8764160b21)" style="fill: none; stroke: #b0b0b0; stroke-width: 0.8; stroke-linecap: square"/>
     </g>
     <g id="line2d_14">
      <g>
       <use xlink:href="#mdc3a9036cd" x="701.165752" y="313.478125" style="stroke: #000000; stroke-width: 0.8"/>
      </g>
     </g>
     <g id="text_7">
      <!-- −2000 -->
      <g transform="translate(684.250909 328.076563) scale(0.1 -0.1)">
       <use xlink:href="#DejaVuSans-2212"/>
       <use xlink:href="#DejaVuSans-32" transform="translate(83.789062 0)"/>
       <use xlink:href="#DejaVuSans-30" transform="translate(147.412109 0)"/>
       <use xlink:href="#DejaVuSans-30" transform="translate(211.035156 0)"/>
       <use xlink:href="#DejaVuSans-30" transform="translate(274.658203 0)"/>
      </g>
     </g>
    </g>
    <g id="xtick_8">
     <g id="line2d_15">
      <path d="M 807.427147 313.478125 
L 807.427147 22.318125 
" clip-path="url(#p8764160b21)" style="fill: none; stroke: #b0b0b0; stroke-width: 0.8; stroke-linecap: square"/>
     </g>
     <g id="line2d_16">
      <g>
       <use xlink:href="#mdc3a9036cd" x="807.427147" y="313.478125" style="stroke: #000000; stroke-width: 0.8"/>
      </g>
     </g>
     <g id="text_8">
      <!-- 0 -->
      <g transform="translate(804.245897 328.076563) scale(0.1 -0.1)">
       <use xlink:href="#DejaVuSans-30"/>
      </g>
     </g>
    </g>
    <g id="text_9">
     <!-- t [s] -->
     <g transform="translate(439.652469 341.754687) scale(0.1 -0.1)">
      <defs>
       <path id="DejaVuSans-74" d="M 1172 4494 
L 1172 3500 
L 2356 3500 
L 2356 3053 
L 1172 3053 
L 1172 1153 
Q 1172 725 1289 603 
Q 1406 481 1766 481 
L 2356 481 
L 2356 0 
L 1766 0 
Q 1100 0 847 248 
Q 594 497 594 1153 
L 594 3053 
L 172 3053 
L 172 3500 
L 594 3500 
L 594 4494 
L 1172 4494 
z
" transform="scale(0.015625)"/>
       <path id="DejaVuSans-20" transform="scale(0.015625)"/>
       <path id="DejaVuSans-5b" d="M 550 4863 
L 1875 4863 
L 1875 4416 
L 1125 4416 
L 1125 -397 
L 1875 -397 
L 1875 -844 
L 550 -844 
L 550 4863 
z
" transform="scale(0.015625)"/>
       <path id="DejaVuSans-73" d="M 2834 3397 
L 2834 2853 
Q 2591 2978 2328 3040 
Q 2066 3103 1784 3103 
Q 1356 3103 1142 2972 
Q 928 2841 928 2578 
Q 928 2378 1081 2264 
Q 1234 2150 1697 2047 
L 1894 2003 
Q 2506 1872 2764 1633 
Q 3022 1394 3022 966 
Q 3022 478 2636 193 
Q 2250 -91 1575 -91 
Q 1294 -91 989 -36 
Q 684 19 347 128 
L 347 722 
Q 666 556 975 473 
Q 1284 391 1588 391 
Q 1994 391 2212 530 
Q 2431 669 2431 922 
Q 2431 1156 2273 1281 
Q 2116 1406 1581 1522 
L 1381 1569 
Q 847 1681 609 1914 
Q 372 2147 372 2553 
Q 372 3047 722 3315 
Q 1072 3584 1716 3584 
Q 2034 3584 2315 3537 
Q 2597 3491 2834 3397 
z
" transform="scale(0.015625)"/>
       <path id="DejaVuSans-5d" d="M 1947 4863 
L 1947 -844 
L 622 -844 
L 622 -397 
L 1369 -397 
L 1369 4416 
L 622 4416 
L 622 4863 
L 1947 4863 
z
" transform="scale(0.015625)"/>
      </defs>
      <use xlink:href="#DejaVuSans-74"/>
      <use xlink:href="#DejaVuSans-20" transform="translate(39.208984 0)"/>
      <use xlink:href="#DejaVuSans-5b" transform="translate(70.996094 0)"/>
      <use xlink:href="#DejaVuSans-73" transform="translate(110.009766 0)"/>
      <use xlink:href="#DejaVuSans-5d" transform="translate(162.109375 0)"/>
     </g>
    </g>
   </g>
   <g id="matplotlib.axis_2">
    <g id="ytick_1">
     <g id="line2d_17">
      <path d="M 52.160938 277.705426 
L 847.254938 277.705426 
" clip-path="url(#p8764160b21)" style="fill: none; stroke: #b0b0b0; stroke-width: 0.8; stroke-linecap: square"/>
     </g>
     <g id="line2d_18">
      <defs>
       <path id="mc26a9d1a56" d="M 0 0 
L -3.5 0 
" style="stroke: #000000; stroke-width: 0.8"/>
      </defs>
      <g>
       <use xlink:href="#mc26a9d1a56" x="52.160938" y="277.705426" style="stroke: #000000; stroke-width: 0.8"/>
      </g>
     </g>
     <g id="text_10">
      <!-- −0.2 -->
      <g transform="translate(20.878125 281.504645) scale(0.1 -0.1)">
       <defs>
        <path id="DejaVuSans-2e" d="M 684 794 
L 1344 794 
L 1344 0 
L 684 0 
L 684 794 
z
" transform="scale(0.015625)"/>
       </defs>
       <use xlink:href="#DejaVuSans-2212"/>
       <use xlink:href="#DejaVuSans-30" transform="translate(83.789062 0)"/>
       <use xlink:href="#DejaVuSans-2e" transform="translate(147.412109 0)"/>
       <use xlink:href="#DejaVuSans-32" transform="translate(179.199219 0)"/>
      </g>
     </g>
    </g>
    <g id="ytick_2">
     <g id="line2d_19">
      <path d="M 52.160938 222.354104 
L 847.254938 222.354104 
" clip-path="url(#p8764160b21)" style="fill: none; stroke: #b0b0b0; stroke-width: 0.8; stroke-linecap: square"/>
     </g>
     <g id="line2d_20">
      <g>
       <use xlink:href="#mc26a9d1a56" x="52.160938" y="222.354104" style="stroke: #000000; stroke-width: 0.8"/>
      </g>
     </g>
     <g id="text_11">
      <!-- −0.1 -->
      <g transform="translate(20.878125 226.153323) scale(0.1 -0.1)">
       <use xlink:href="#DejaVuSans-2212"/>
       <use xlink:href="#DejaVuSans-30" transform="translate(83.789062 0)"/>
       <use xlink:href="#DejaVuSans-2e" transform="translate(147.412109 0)"/>
       <use xlink:href="#DejaVuSans-31" transform="translate(179.199219 0)"/>
      </g>
     </g>
    </g>
    <g id="ytick_3">
     <g id="line2d_21">
      <path d="M 52.160938 167.002782 
L 847.254938 167.002782 
" clip-path="url(#p8764160b21)" style="fill: none; stroke: #b0b0b0; stroke-width: 0.8; stroke-linecap: square"/>
     </g>
     <g id="line2d_22">
      <g>
       <use xlink:href="#mc26a9d1a56" x="52.160938" y="167.002782" style="stroke: #000000; stroke-width: 0.8"/>
      </g>
     </g>
     <g id="text_12">
      <!-- 0.0 -->
      <g transform="translate(29.257812 170.802) scale(0.1 -0.1)">
       <use xlink:href="#DejaVuSans-30"/>
       <use xlink:href="#DejaVuSans-2e" transform="translate(63.623047 0)"/>
       <use xlink:href="#DejaVuSans-30" transform="translate(95.410156 0)"/>
      </g>
     </g>
    </g>
    <g id="ytick_4">
     <g id="line2d_23">
      <path d="M 52.160938 111.651459 
L 847.254938 111.651459 
" clip-path="url(#p8764160b21)" style="fill: none; stroke: #b0b0b0; stroke-width: 0.8; stroke-linecap: square"/>
     </g>
     <g id="line2d_24">
      <g>
       <use xlink:href="#mc26a9d1a56" x="52.160938" y="111.651459" style="stroke: #000000; stroke-width: 0.8"/>
      </g>
     </g>
     <g id="text_13">
      <!-- 0.1 -->
      <g transform="translate(29.257812 115.450678) scale(0.1 -0.1)">
       <use xlink:href="#DejaVuSans-30"/>
       <use xlink:href="#DejaVuSans-2e" transform="translate(63.623047 0)"/>
       <use xlink:href="#DejaVuSans-31" transform="translate(95.410156 0)"/>
      </g>
     </g>
    </g>
    <g id="ytick_5">
     <g id="line2d_25">
      <path d="M 52.160938 56.300137 
L 847.254938 56.300137 
" clip-path="url(#p8764160b21)" style="fill: none; stroke: #b0b0b0; stroke-width: 0.8; stroke-linecap: square"/>
     </g>
     <g id="line2d_26">
      <g>
       <use xlink:href="#mc26a9d1a56" x="52.160938" y="56.300137" style="stroke: #000000; stroke-width: 0.8"/>
      </g>
     </g>
     <g id="text_14">
      <!-- 0.2 -->
      <g transform="translate(29.257812 60.099356) scale(0.1 -0.1)">
       <use xlink:href="#DejaVuSans-30"/>
       <use xlink:href="#DejaVuSans-2e" transform="translate(63.623047 0)"/>
       <use xlink:href="#DejaVuSans-32" transform="translate(95.410156 0)"/>
      </g>
     </g>
    </g>
    <g id="text_15">
     <!-- $h_{22}]$ -->
     <g transform="translate(14.798438 177.648125) rotate(-90) scale(0.1 -0.1)">
      <defs>
       <path id="DejaVuSans-Oblique-68" d="M 3566 2113 
L 3156 0 
L 2578 0 
L 2988 2091 
Q 3016 2238 3031 2350 
Q 3047 2463 3047 2528 
Q 3047 2791 2881 2937 
Q 2716 3084 2419 3084 
Q 1956 3084 1617 2771 
Q 1278 2459 1178 1941 
L 800 0 
L 225 0 
L 1172 4863 
L 1747 4863 
L 1375 2950 
Q 1594 3244 1934 3414 
Q 2275 3584 2650 3584 
Q 3113 3584 3367 3334 
Q 3622 3084 3622 2631 
Q 3622 2519 3608 2391 
Q 3594 2263 3566 2113 
z
" transform="scale(0.015625)"/>
      </defs>
      <use xlink:href="#DejaVuSans-Oblique-68" transform="translate(0 0.015625)"/>
      <use xlink:href="#DejaVuSans-32" transform="translate(63.378906 -16.390625) scale(0.7)"/>
      <use xlink:href="#DejaVuSans-32" transform="translate(107.915039 -16.390625) scale(0.7)"/>
      <use xlink:href="#DejaVuSans-5d" transform="translate(155.185547 0.015625)"/>
     </g>
    </g>
   </g>
   <g id="line2d_27">
    <path d="M 88.301574 165.959878 
L 91.037495 146.16532 
L 91.655284 143.266959 
L 92.096561 141.952556 
L 92.449583 141.445419 
L 92.71435 141.418948 
L 92.979117 141.718488 
L 93.332139 142.65366 
L 93.773416 144.721035 
L 94.302949 148.537836 
L 94.920738 154.737074 
L 95.803293 166.171154 
L 97.656659 191.243507 
L 98.274448 196.477756 
L 98.715725 198.432015 
L 98.980492 198.802774 
L 99.157003 198.704273 
L 99.42177 198.037107 
L 99.774792 196.201823 
L 100.216069 192.500897 
L 100.833858 185.159296 
L 101.98118 167.983454 
L 103.128502 151.959717 
L 103.834546 144.964816 
L 104.364079 141.620151 
L 104.805357 140.123576 
L 105.070123 139.771816 
L 105.246634 139.754307 
L 105.511401 140.036581 
L 105.864423 140.946914 
L 106.3057 142.841634 
L 106.923489 146.632646 
L 107.8943 154.329322 
L 110.45371 175.423851 
L 111.336265 180.721392 
L 112.042309 183.829602 
L 112.660098 185.678707 
L 113.189631 186.615641 
L 113.630909 186.949932 
L 113.983931 186.93504 
L 114.336953 186.679172 
L 114.778231 186.037104 
L 115.307764 184.826077 
L 116.013808 182.541015 
L 116.896363 178.780947 
L 118.043685 172.799435 
L 121.838672 152.01777 
L 122.632972 149.068636 
L 123.250761 147.4605 
L 123.780294 146.6446 
L 124.133316 146.420056 
L 124.486338 146.469256 
L 124.83936 146.805743 
L 125.280638 147.647197 
L 125.810171 149.293792 
L 126.427959 152.10401 
L 127.134004 156.456301 
L 128.016559 163.417115 
L 129.428647 176.757428 
L 130.75248 188.620878 
L 131.458524 193.06536 
L 131.899802 194.713937 
L 132.252824 195.262734 
L 132.429335 195.253939 
L 132.605846 195.04584 
L 132.870613 194.346895 
L 133.223635 192.673377 
L 133.664912 189.385374 
L 134.282701 182.685181 
L 135.077001 171.253045 
L 136.930367 143.303702 
L 137.548155 137.59695 
L 137.989433 135.474311 
L 138.254199 135.046566 
L 138.430711 135.116732 
L 138.695477 135.744766 
L 139.048499 137.511772 
L 139.489777 141.060945 
L 140.107565 148.00661 
L 141.343143 165.212721 
L 142.490465 179.852582 
L 143.196509 186.387607 
L 143.814297 190.138938 
L 144.255575 191.666801 
L 144.608597 192.223721 
L 144.873364 192.27472 
L 145.13813 192.031045 
L 145.491152 191.282909 
L 145.93243 189.741776 
L 146.550219 186.648743 
L 147.432774 180.886018 
L 151.139506 154.970043 
L 151.933805 151.362808 
L 152.63985 149.095621 
L 153.169383 148.007103 
L 153.61066 147.507708 
L 153.963682 147.374867 
L 154.316705 147.476674 
L 154.669727 147.809168 
L 155.111004 148.540605 
L 155.640537 149.86238 
L 156.346582 152.325435 
L 157.229137 156.393815 
L 158.376459 162.953873 
L 162.08319 185.336314 
L 162.789235 187.943107 
L 163.318768 189.152643 
L 163.67179 189.543759 
L 163.936556 189.597951 
L 164.201323 189.434555 
L 164.554345 188.861086 
L 164.995623 187.546289 
L 165.525156 185.061631 
L 166.142944 180.911435 
L 166.937244 173.742267 
L 167.99631 161.833697 
L 169.58491 143.941766 
L 170.202699 139.142299 
L 170.643976 137.106758 
L 170.908743 136.553775 
L 171.085254 136.487808 
L 171.261765 136.674006 
L 171.526531 137.438325 
L 171.879553 139.372558 
L 172.320831 143.223649 
L 172.93862 150.989535 
L 173.90943 166.836733 
L 175.145008 186.700363 
L 175.762796 193.67841 
L 176.204074 196.800304 
L 176.557096 198.074456 
L 176.821863 198.311282 
L 176.998374 198.135245 
L 177.26314 197.391903 
L 177.616162 195.57022 
L 178.145696 191.313017 
L 178.939995 182.502231 
L 181.322894 154.257691 
L 182.028938 148.714669 
L 182.646727 145.475972 
L 183.088005 144.092848 
L 183.441027 143.524862 
L 183.705793 143.398073 
L 183.97056 143.514344 
L 184.323582 144.0236 
L 184.76486 145.178905 
L 185.294393 147.226927 
L 186.000437 150.859251 
L 187.059503 157.596983 
L 190.148447 177.983476 
L 191.031002 182.214109 
L 191.737046 184.709716 
L 192.354835 186.162053 
L 192.796112 186.753951 
L 193.149134 186.950978 
L 193.502156 186.898078 
L 193.855178 186.593427 
L 194.296456 185.858979 
L 194.825989 184.465931 
L 195.443778 182.159445 
L 196.238078 178.195811 
L 197.208888 172.060325 
L 198.709232 160.859412 
L 200.297832 149.368164 
L 201.092131 145.055601 
L 201.621664 143.127096 
L 202.062942 142.25429 
L 202.327709 142.095494 
L 202.592475 142.233856 
L 202.857242 142.685925 
L 203.210264 143.79961 
L 203.651541 146.041141 
L 204.181075 149.984589 
L 204.887119 157.2352 
L 205.85793 170.002967 
L 207.446529 191.208918 
L 208.064318 196.632573 
L 208.505595 198.716186 
L 208.770362 199.13274 
L 208.946873 199.042649 
L 209.211639 198.344757 
L 209.564661 196.369175 
L 210.005939 192.305933 
L 210.623728 184.097229 
L 211.682794 166.171444 
L 212.830116 148.048535 
L 213.447904 141.358295 
L 213.889182 138.383507 
L 214.242204 137.143091 
L 214.506971 136.867218 
L 214.683482 136.983243 
L 214.948248 137.583835 
L 215.30127 139.11865 
L 215.830804 142.764061 
L 216.536848 149.463241 
L 219.625791 181.251543 
L 220.331835 185.584445 
L 220.949624 188.035606 
L 221.390901 189.023302 
L 221.743924 189.371245 
L 222.00869 189.38499 
L 222.273457 189.196264 
L 222.626479 188.646393 
L 223.067756 187.515358 
L 223.685545 185.200158 
L 224.479845 181.20092 
L 225.627166 174.052018 
L 228.71611 154.092375 
L 229.598665 150.003455 
L 230.304709 147.695641 
L 230.834242 146.61983 
L 231.27552 146.192204 
L 231.628542 146.173668 
L 231.981564 146.452646 
L 232.334586 147.035521 
L 232.775864 148.19645 
L 233.305397 150.221886 
L 234.011441 153.960955 
L 234.805741 159.456175 
L 235.953063 169.212665 
L 238.071195 187.745006 
L 238.777239 191.977213 
L 239.218517 193.607967 
L 239.571539 194.221194 
L 239.74805 194.272417 
L 239.924561 194.14289 
L 240.189328 193.595405 
L 240.54235 192.180528 
L 240.983627 189.285005 
L 241.51316 184.191077 
L 242.219205 174.988911 
L 243.719549 151.147404 
L 244.513848 140.537244 
L 245.043381 135.938416 
L 245.396403 134.317566 
L 245.66117 133.935534 
L 245.837681 134.088817 
L 246.102448 134.929633 
L 246.45547 137.155432 
L 246.896747 141.557384 
L 247.514536 150.125813 
L 250.073946 189.065995 
L 250.603479 193.257794 
L 251.044757 195.19446 
L 251.309523 195.686753 
L 251.486035 195.746876 
L 251.662546 195.601497 
L 251.927312 195.018478 
L 252.280334 193.616223 
L 252.809867 190.370218 
L 253.515912 184.456192 
L 255.016255 169.329969 
L 256.251833 157.855655 
L 257.134388 151.589167 
L 257.840432 148.067809 
L 258.369965 146.355789 
L 258.811243 145.540302 
L 259.164265 145.28026 
L 259.429032 145.307668 
L 259.782054 145.630293 
L 260.223331 146.470944 
L 260.752864 148.073115 
L 261.458909 151.097037 
L 262.341464 156.029485 
L 263.665297 164.954049 
L 265.95994 180.54311 
L 266.842495 185.096688 
L 267.54854 187.660712 
L 268.078073 188.808619 
L 268.431095 189.158446 
L 268.695861 189.187445 
L 268.960628 189.007831 
L 269.31365 188.432929 
L 269.754928 187.160177 
L 270.284461 184.80819 
L 270.902249 180.945568 
L 271.696549 174.356469 
L 272.755615 163.445428 
L 274.608981 144.141236 
L 275.22677 139.829939 
L 275.668048 138.027485 
L 275.932814 137.560855 
L 276.109325 137.530286 
L 276.285836 137.735174 
L 276.550603 138.49967 
L 276.903625 140.394324 
L 277.344903 144.16686 
L 277.962691 151.871768 
L 278.845246 166.451918 
L 280.34559 191.400515 
L 280.875123 197.096617 
L 281.316401 199.759732 
L 281.581168 200.357396 
L 281.757679 200.330435 
L 281.93419 199.966239 
L 282.198956 198.805417 
L 282.551978 196.182603 
L 283.081511 190.273995 
L 283.875811 178.408242 
L 285.552666 152.578113 
L 286.25871 145.128702 
L 286.788243 141.576171 
L 287.229521 139.99166 
L 287.494288 139.622482 
L 287.670799 139.607397 
L 287.935565 139.913462 
L 288.288587 140.891131 
L 288.729865 142.922666 
L 289.347654 146.990774 
L 290.230209 154.460635 
L 292.877874 177.947155 
L 293.76043 183.446082 
L 294.466474 186.471433 
L 294.996007 187.8764 
L 295.437285 188.470173 
L 295.790307 188.569319 
L 296.055073 188.427804 
L 296.408095 187.957971 
L 296.849373 186.934724 
L 297.378906 185.104611 
L 298.08495 181.743149 
L 298.967505 176.314267 
L 300.291338 166.516882 
L 302.321215 151.461263 
L 303.203771 146.583596 
L 303.821559 144.309178 
L 304.262837 143.402667 
L 304.615859 143.164759 
L 304.880625 143.292122 
L 305.145392 143.694561 
L 305.498414 144.67481 
L 305.939692 146.632377 
L 306.469225 150.060636 
L 307.175269 156.372082 
L 308.057824 166.551115 
L 310.264212 193.177109 
L 310.793745 196.859244 
L 311.146768 198.144434 
L 311.411534 198.403861 
L 311.588045 198.219175 
L 311.852812 197.38654 
L 312.205834 195.224665 
L 312.647111 190.872909 
L 313.2649 182.063911 
L 314.235711 164.237425 
L 315.383033 144.175834 
L 316.000821 137.089348 
L 316.442099 134.392003 
L 316.706865 133.794855 
L 316.883377 133.82277 
L 317.059888 134.183993 
L 317.324654 135.325587 
L 317.677676 137.880935 
L 318.207209 143.57352 
L 319.089765 156.237795 
L 320.678364 179.470678 
L 321.384408 186.833876 
L 322.002197 191.035575 
L 322.443474 192.704019 
L 322.796496 193.262581 
L 323.061263 193.251946 
L 323.32603 192.895296 
L 323.679052 191.922138 
L 324.120329 189.993282 
L 324.738118 186.1974 
L 325.620673 179.229011 
L 328.709616 153.511343 
L 329.503916 149.124443 
L 330.121705 146.779781 
L 330.651238 145.578882 
L 331.00426 145.207964 
L 331.269027 145.158035 
L 331.533793 145.303805 
L 331.886815 145.800346 
L 332.328093 146.897573 
L 332.857626 148.885967 
L 333.56367 152.589314 
L 334.446225 158.654915 
L 335.681803 168.937286 
L 337.623424 185.050623 
L 338.417724 189.774123 
L 338.947257 191.775723 
L 339.300279 192.479814 
L 339.565046 192.637974 
L 339.741557 192.555949 
L 340.006323 192.138812 
L 340.359345 191.012275 
L 340.800623 188.659239 
L 341.330156 184.448871 
L 342.0362 176.652745 
L 343.007011 162.950159 
L 344.507355 141.785997 
L 345.125144 136.212847 
L 345.478166 134.509251 
L 345.742932 134.056655 
L 345.919443 134.172331 
L 346.18421 134.990042 
L 346.537232 137.286209 
L 346.97851 142.008855 
L 347.596298 151.550309 
L 348.831876 175.588922 
L 349.714431 190.500695 
L 350.243964 196.425166 
L 350.685242 199.148553 
L 350.950008 199.771978 
L 351.126519 199.771874 
L 351.30303 199.449335 
L 351.567797 198.389769 
L 351.920819 195.993273 
L 352.450352 190.642223 
L 353.244652 180.007512 
L 355.098018 154.42477 
L 355.804062 147.62541 
L 356.42185 143.71091 
L 356.863128 142.120656 
L 357.21615 141.554269 
L 357.480917 141.52309 
L 357.745683 141.811754 
L 358.098705 142.66165 
L 358.539983 144.400448 
L 359.157772 147.903432 
L 360.040327 154.497673 
L 363.658803 183.60133 
L 364.364847 186.95324 
L 364.894381 188.585808 
L 365.335658 189.319951 
L 365.68868 189.479976 
L 365.953447 189.345776 
L 366.306469 188.825369 
L 366.747747 187.628214 
L 367.27728 185.408137 
L 367.895068 181.798955 
L 368.689368 175.744118 
L 369.83669 165.005646 
L 371.778311 146.688542 
L 372.484356 142.096396 
L 372.925633 140.312035 
L 373.278655 139.620682 
L 373.455166 139.546171 
L 373.631677 139.66326 
L 373.896444 140.212869 
L 374.249466 141.670138 
L 374.690744 144.683007 
L 375.220277 150.010686 
L 375.926321 159.665998 
L 378.485731 198.026694 
L 378.927009 200.637524 
L 379.191775 201.131724 
L 379.368286 200.987809 
L 379.633053 200.05051 
L 379.986075 197.473496 
L 380.427353 192.27046 
L 381.045141 182.008897 
L 383.251529 141.756653 
L 383.781062 136.799621 
L 384.134084 135.122401 
L 384.398851 134.722811 
L 384.575362 134.85245 
L 384.840129 135.611284 
L 385.193151 137.592277 
L 385.722684 142.316757 
L 386.516984 152.114526 
L 388.723372 180.882417 
L 389.429416 186.95994 
L 389.958949 189.98876 
L 390.400227 191.480024 
L 390.753249 192.009178 
L 391.018015 192.032836 
L 391.282782 191.75073 
L 391.635804 190.925817 
L 392.077081 189.233335 
L 392.69487 185.797627 
L 393.48917 179.96783 
L 394.901258 167.528943 
L 396.489858 154.06012 
L 397.372413 148.372481 
L 397.990201 145.591081 
L 398.519735 144.141193 
L 398.872757 143.697193 
L 399.137523 143.651777 
L 399.40229 143.859081 
L 399.755312 144.534539 
L 400.19659 146.023162 
L 400.726123 148.739383 
L 401.343911 153.118992 
L 402.138211 160.402922 
L 403.462044 175.066389 
L 404.785877 188.954557 
L 405.403665 193.513293 
L 405.844943 195.507434 
L 406.197965 196.177614 
L 406.374476 196.1714 
L 406.550987 195.92456 
L 406.815754 195.086764 
L 407.168776 193.072552 
L 407.610053 189.108495 
L 408.227842 181.038566 
L 409.110397 165.731169 
L 410.522486 140.907538 
L 411.052019 134.904528 
L 411.405041 132.656031 
L 411.669807 132.013848 
L 411.846318 132.104558 
L 412.022829 132.613998 
L 412.287596 134.152813 
L 412.640618 137.580007 
L 413.170151 145.27128 
L 414.052707 162.394653 
L 415.288284 185.986239 
L 415.906072 193.954065 
L 416.34735 197.356312 
L 416.700372 198.633266 
L 416.876883 198.798719 
L 417.053394 198.660502 
L 417.318161 197.91172 
L 417.671183 195.986645 
L 418.200716 191.425901 
L 418.995016 181.982064 
L 421.289659 152.952618 
L 421.995704 147.052036 
L 422.525237 144.095838 
L 422.966514 142.634596 
L 423.319536 142.116507 
L 423.584303 142.097305 
L 423.849069 142.383296 
L 424.202092 143.216605 
L 424.643369 144.932011 
L 425.261158 148.43784 
L 426.055458 154.443531 
L 427.37929 166.580181 
L 429.056145 181.551428 
L 429.850445 186.892587 
L 430.468234 189.754117 
L 430.909511 190.968183 
L 431.262533 191.390243 
L 431.5273 191.368745 
L 431.792066 191.048006 
L 432.145089 190.145303 
L 432.586366 188.247154 
L 433.115899 184.859237 
L 433.821943 178.594872 
L 434.704499 168.519494 
L 436.910887 142.006968 
L 437.44042 138.132207 
L 437.793442 136.65126 
L 438.058209 136.215789 
L 438.23472 136.273244 
L 438.411231 136.621785 
L 438.675997 137.70736 
L 439.029019 140.223863 
L 439.470297 145.057753 
L 440.088086 154.635602 
L 441.147152 175.625498 
L 442.117963 193.444039 
L 442.647496 199.800264 
L 443.000518 202.087765 
L 443.265284 202.661351 
L 443.441795 202.484025 
L 443.706562 201.38366 
L 444.059584 198.424964 
L 444.500862 192.598188 
L 445.206906 179.714153 
L 446.883761 147.261726 
L 447.501549 139.728003 
L 447.942827 136.652243 
L 448.295849 135.614277 
L 448.47236 135.555549 
L 448.648871 135.790179 
L 448.913638 136.66241 
L 449.26666 138.710633 
L 449.796193 143.370158 
L 450.590493 152.807544 
L 452.885136 181.496132 
L 453.59118 187.316524 
L 454.120714 190.213673 
L 454.561991 191.616373 
L 454.915013 192.075782 
L 455.17978 192.04149 
L 455.444546 191.692232 
L 455.797569 190.757229 
L 456.238846 188.883867 
L 456.856635 185.096309 
L 457.650935 178.63286 
L 458.974767 165.613974 
L 460.475111 151.319844 
L 461.269411 145.646153 
L 461.8872 142.749122 
L 462.328477 141.668987 
L 462.593244 141.458203 
L 462.769755 141.509158 
L 463.034521 141.881406 
L 463.387543 142.942342 
L 463.828821 145.186413 
L 464.358354 149.201109 
L 465.064398 156.604135 
L 466.035209 169.610413 
L 467.623809 191.272961 
L 468.241597 196.831285 
L 468.594619 198.632136 
L 468.859386 199.196512 
L 469.035897 199.166784 
L 469.212408 198.797402 
L 469.477174 197.588407 
L 469.830197 194.740509 
L 470.271474 189.258216 
L 470.889263 178.495771 
L 473.183906 134.586047 
L 473.536929 131.769506 
L 473.801695 130.868139 
L 473.978206 130.862264 
L 474.154717 131.331303 
L 474.419484 132.902099 
L 474.772506 136.507062 
L 475.302039 144.624741 
L 476.184594 162.408452 
L 477.331916 184.72786 
L 477.949705 192.982597 
L 478.390982 196.601413 
L 478.744004 198.063982 
L 479.008771 198.343718 
L 479.185282 198.15803 
L 479.450049 197.353542 
L 479.803071 195.382992 
L 480.332604 190.806773 
L 481.126903 181.404962 
L 483.509803 151.440116 
L 484.215847 145.742012 
L 484.74538 143.00345 
L 485.186657 141.783094 
L 485.451424 141.516721 
L 485.627935 141.53092 
L 485.892702 141.834367 
L 486.245724 142.749148 
L 486.687001 144.66598 
L 487.216534 147.991071 
L 487.922579 153.871254 
L 488.981645 164.747471 
L 490.923266 184.837873 
L 491.629311 190.02916 
L 492.158844 192.55612 
L 492.511866 193.462294 
L 492.776632 193.692811 
L 492.953143 193.621778 
L 493.21791 193.166887 
L 493.570932 191.894228 
L 494.01221 189.221261 
L 494.541743 184.466935 
L 495.247787 175.788312 
L 496.395109 158.075963 
L 497.542431 141.327846 
L 498.071964 136.140863 
L 498.424986 134.144719 
L 498.689752 133.555495 
L 498.866263 133.630556 
L 499.042774 134.095601 
L 499.307541 135.540762 
L 499.660563 138.863326 
L 500.190096 146.655484 
L 500.89614 161.12335 
L 502.48474 195.187996 
L 503.014273 201.593716 
L 503.367295 203.507419 
L 503.543806 203.708321 
L 503.720317 203.403553 
L 503.985084 202.021152 
L 504.338106 198.563258 
L 504.867639 190.472201 
L 505.750194 172.389448 
L 506.897516 149.507622 
L 507.515305 141.027153 
L 507.956582 137.308495 
L 508.309604 135.806572 
L 508.574371 135.521062 
L 508.750882 135.713928 
L 509.015648 136.545043 
L 509.368671 138.578699 
L 509.898204 143.300626 
L 510.692503 153.001315 
L 512.987147 182.859223 
L 513.693191 188.821425 
L 514.222724 191.655849 
L 514.664002 192.872082 
L 514.928768 193.095799 
L 515.105279 193.035839 
L 515.370046 192.637552 
L 515.723068 191.547925 
L 516.164346 189.338358 
L 516.782134 184.830489 
L 517.576434 177.099522 
L 519.076778 159.594815 
L 520.2241 147.414081 
L 520.930144 142.122846 
L 521.371422 140.090566 
L 521.724444 139.301406 
L 521.900955 139.208946 
L 522.077466 139.327032 
L 522.342232 139.910386 
L 522.695254 141.464165 
L 523.136532 144.660621 
L 523.666065 150.264748 
L 524.372109 160.315524 
L 526.843264 198.432715 
L 527.284542 201.116871 
L 527.549308 201.544853 
L 527.725819 201.295582 
L 527.990586 200.091155 
L 528.343608 196.92474 
L 528.784885 190.576216 
L 529.402674 178.012744 
L 531.344296 135.42217 
L 531.785573 130.948061 
L 532.05034 129.834359 
L 532.226851 129.76899 
L 532.403362 130.241061 
L 532.668128 131.923446 
L 533.021151 135.843599 
L 533.550684 144.663819 
L 534.60975 167.632976 
L 535.580561 186.695798 
L 536.198349 194.688378 
L 536.639627 197.874599 
L 536.904393 198.749927 
L 537.080905 198.912251 
L 537.257416 198.749569 
L 537.522182 197.926499 
L 537.875204 195.837975 
L 538.404737 190.912211 
L 539.199037 180.718052 
L 541.405425 150.523637 
L 542.111469 144.279889 
L 542.641002 141.402214 
L 542.994025 140.406464 
L 543.258791 140.151729 
L 543.435302 140.215145 
L 543.700069 140.655032 
L 544.053091 141.867099 
L 544.494368 144.331669 
L 545.112157 149.361033 
L 545.906457 157.95379 
L 548.730633 190.995261 
L 549.260167 194.308925 
L 549.613189 195.511191 
L 549.877955 195.821667 
L 550.054466 195.730625 
L 550.319233 195.130522 
L 550.672255 193.444015 
L 551.113533 189.905664 
L 551.643066 183.65964 
L 552.34911 172.490625 
L 554.467242 136.344672 
L 554.90852 132.621472 
L 555.173287 131.635458 
L 555.349798 131.553332 
L 555.526309 131.952189 
L 555.791075 133.472341 
L 556.144097 137.211589 
L 556.585375 144.452514 
L 557.291419 160.572735 
L 558.791763 196.246148 
L 559.233041 202.273548 
L 559.586063 204.639665 
L 559.762574 204.951087 
L 559.850829 204.887623 
L 560.02734 204.32817 
L 560.292107 202.4445 
L 560.645129 198.148042 
L 561.174662 188.6245 
L 562.498495 158.436839 
L 563.292795 143.681469 
L 563.822328 137.455905 
L 564.17535 135.164285 
L 564.440116 134.429752 
L 564.616627 134.395543 
L 564.793139 134.711364 
L 565.057905 135.805677 
L 565.410927 138.318572 
L 565.94046 143.964264 
L 566.73476 155.250068 
L 568.676382 183.72585 
L 569.382426 190.509697 
L 569.911959 193.571211 
L 570.264981 194.569191 
L 570.529747 194.760673 
L 570.706259 194.624499 
L 570.971025 194.030967 
L 571.324047 192.535745 
L 571.765325 189.606209 
L 572.383113 183.769807 
L 573.265669 172.834831 
L 575.472057 144.209274 
L 576.089845 139.37889 
L 576.531123 137.574637 
L 576.79589 137.250414 
L 576.972401 137.371555 
L 577.237167 138.077299 
L 577.590189 140.017268 
L 578.031467 144.042383 
L 578.561 151.074325 
L 579.3553 165.169537 
L 581.032155 196.327053 
L 581.561688 201.805122 
L 581.826454 203.060726 
L 582.002965 203.275375 
L 582.179476 202.967169 
L 582.444243 201.499471 
L 582.797265 197.670537 
L 583.238543 190.078056 
L 583.944587 173.015861 
L 585.356675 137.509982 
L 585.797953 131.043718 
L 586.150975 128.537486 
L 586.327486 128.23511 
L 586.415741 128.32318 
L 586.592253 128.971259 
L 586.857019 131.08111 
L 587.210041 135.828723 
L 587.739574 146.238311 
L 589.945962 194.367353 
L 590.38724 198.817703 
L 590.740262 200.48164 
L 590.916773 200.688882 
L 591.093284 200.494438 
L 591.358051 199.486968 
L 591.711073 196.922689 
L 592.240606 190.896582 
L 593.034906 178.60498 
L 594.800016 150.237467 
L 595.50606 142.684305 
L 596.035593 139.344281 
L 596.388615 138.321019 
L 596.565127 138.176431 
L 596.741638 138.275294 
L 597.006404 138.873205 
L 597.359426 140.482243 
L 597.800704 143.711038 
L 598.418493 150.198747 
L 599.301048 162.306113 
L 601.154414 188.739111 
L 601.772202 194.541246 
L 602.21348 196.928799 
L 602.478247 197.537992 
L 602.654758 197.575 
L 602.831269 197.30581 
L 603.096035 196.314219 
L 603.449057 193.88223 
L 603.890335 189.093851 
L 604.508124 179.453397 
L 605.478934 159.761227 
L 606.538001 139.09766 
L 607.067534 132.467177 
L 607.420556 130.328752 
L 607.597067 130.056889 
L 607.773578 130.350346 
L 608.038344 131.879245 
L 608.391367 135.945434 
L 608.832644 144.058153 
L 609.538688 162.255474 
L 610.862521 197.303652 
L 611.303799 204.066708 
L 611.656821 206.535098 
L 611.833332 206.718048 
L 612.009843 206.198004 
L 612.274609 204.140365 
L 612.627632 199.20703 
L 613.157165 188.061121 
L 615.275297 138.148941 
L 615.716575 133.512349 
L 615.981341 132.191931 
L 616.157852 131.915956 
L 616.334364 132.108895 
L 616.59913 133.234385 
L 616.952152 136.157498 
L 617.481685 143.053228 
L 618.275985 156.98946 
L 619.776329 183.810349 
L 620.394118 191.490955 
L 620.923651 195.564353 
L 621.276673 196.869448 
L 621.453184 197.09009 
L 621.629695 197.024281 
L 621.806206 196.675865 
L 622.070972 195.636867 
L 622.423995 193.334235 
L 622.953528 188.113885 
L 623.659572 178.545953 
L 626.218982 140.590407 
L 626.748515 136.767763 
L 627.101537 135.700373 
L 627.278048 135.654136 
L 627.454559 135.946208 
L 627.719326 137.031658 
L 628.072348 139.694476 
L 628.513626 144.918737 
L 629.131414 155.351827 
L 630.190481 178.218784 
L 631.073036 195.755865 
L 631.602569 202.408335 
L 631.955591 204.346202 
L 632.132102 204.447829 
L 632.308613 203.937607 
L 632.57338 202.000388 
L 632.926402 197.254584 
L 633.455935 185.962258 
L 634.33849 160.27028 
L 635.221045 136.379621 
L 635.662323 129.027391 
L 636.015345 126.376417 
L 636.191856 126.220158 
L 636.368367 126.850194 
L 636.633134 129.227307 
L 636.986156 134.848216 
L 637.515689 147.417322 
L 639.369055 196.174244 
L 639.810332 201.823039 
L 640.163355 203.745731 
L 640.339866 203.843289 
L 640.516377 203.386202 
L 640.781143 201.719444 
L 641.134165 197.853544 
L 641.663698 189.257554 
L 642.722765 167.065156 
L 643.693575 148.314983 
L 644.311364 140.11021 
L 644.752642 136.652384 
L 645.105664 135.439943 
L 645.282175 135.355729 
L 645.458686 135.614445 
L 645.723452 136.628116 
L 646.076475 139.08569 
L 646.606008 144.875204 
L 647.312052 155.601478 
L 649.606695 193.165112 
L 650.136229 197.644707 
L 650.489251 199.004632 
L 650.665762 199.149285 
L 650.842273 198.923032 
L 651.107039 197.875597 
L 651.460061 195.154814 
L 651.901339 189.703314 
L 652.519128 178.741667 
L 653.666449 152.838684 
L 654.460749 137.004127 
L 654.902027 131.392209 
L 655.255049 129.304868 
L 655.43156 129.178395 
L 655.608071 129.70066 
L 655.872837 131.728443 
L 656.22586 136.730561 
L 656.667137 146.35234 
L 657.461437 170.025183 
L 658.432248 198.252581 
L 658.873525 206.091453 
L 659.138292 208.447033 
L 659.314803 208.938416 
L 659.403058 208.85277 
L 659.579569 208.019607 
L 659.844336 205.15834 
L 660.197358 198.592194 
L 660.726891 184.189739 
L 662.315491 137.208859 
L 662.756768 130.40002 
L 663.021535 128.404635 
L 663.198046 127.964842 
L 663.286301 128.00821 
L 663.462812 128.606757 
L 663.727579 130.717904 
L 664.080601 135.547083 
L 664.610134 146.108432 
L 666.728267 193.165079 
L 667.169544 198.16197 
L 667.522566 200.235138 
L 667.787333 200.645468 
L 667.963844 200.382853 
L 668.228611 199.213757 
L 668.581633 196.301258 
L 669.111166 189.42657 
L 669.905466 175.165339 
L 671.58232 143.735366 
L 672.111854 137.414378 
L 672.553131 134.51849 
L 672.817898 133.953637 
L 672.994409 134.091609 
L 673.17092 134.648554 
L 673.435686 136.271065 
L 673.788709 139.87255 
L 674.318242 148.104916 
L 675.024286 163.132316 
L 676.612885 198.113176 
L 677.054163 203.412632 
L 677.318929 204.881822 
L 677.49544 205.058726 
L 677.671951 204.559574 
L 677.936718 202.51077 
L 678.28974 197.369347 
L 678.731018 187.393954 
L 679.437062 165.688557 
L 680.496128 133.680089 
L 680.937406 126.10596 
L 681.202172 124.201646 
L 681.290428 124.048883 
L 681.378683 124.142641 
L 681.555194 125.071766 
L 681.819961 128.284013 
L 682.172983 135.692638 
L 682.702516 151.961702 
L 684.114605 198.698201 
L 684.555882 206.327498 
L 684.820649 208.319675 
L 684.99716 208.538455 
L 685.173671 207.888871 
L 685.438437 205.374221 
L 685.79146 199.473439 
L 686.320993 186.536689 
L 688.086103 139.71858 
L 688.527381 133.543404 
L 688.880403 131.129422 
L 689.056914 130.781431 
L 689.145169 130.819186 
L 689.32168 131.308379 
L 689.586447 133.033628 
L 689.939469 137.024018 
L 690.469002 145.978771 
L 691.439813 167.568085 
L 692.498879 189.798491 
L 693.028412 197.241709 
L 693.46969 200.638491 
L 693.734457 201.302213 
L 693.822712 201.285475 
L 693.999223 200.891727 
L 694.26399 199.404138 
L 694.617012 195.794984 
L 695.058289 188.891419 
L 695.764334 173.576787 
L 697.352933 136.693434 
L 697.794211 130.869268 
L 698.058977 129.129519 
L 698.235488 128.796143 
L 698.323744 128.889746 
L 698.500255 129.61115 
L 698.765021 132.045887 
L 699.118043 137.773102 
L 699.647577 151.076736 
L 700.794898 189.028137 
L 701.412687 204.964706 
L 701.765709 209.742848 
L 701.94222 210.637591 
L 702.030476 210.686026 
L 702.206987 209.968063 
L 702.471753 206.859458 
L 702.824775 199.14157 
L 703.354308 181.498044 
L 704.766397 130.671284 
L 705.119419 124.545106 
L 705.384185 122.791074 
L 705.472441 122.764261 
L 705.648952 123.536612 
L 705.913719 126.670087 
L 706.266741 134.110299 
L 706.884529 153.397434 
L 708.120107 193.783141 
L 708.561384 202.447838 
L 708.914406 205.977981 
L 709.090917 206.561228 
L 709.179173 206.560421 
L 709.355684 205.988617 
L 709.620451 203.773965 
L 709.973473 198.553724 
L 710.503006 186.950228 
L 712.532883 137.174171 
L 712.97416 132.19458 
L 713.238927 130.897726 
L 713.415438 130.766063 
L 713.591949 131.222258 
L 713.856716 132.989362 
L 714.209738 137.262588 
L 714.739271 147.227592 
L 715.533571 167.378475 
L 716.680892 195.726109 
L 717.210425 203.424023 
L 717.475192 205.179735 
L 717.651703 205.470988 
L 717.828214 205.025743 
L 718.092981 202.949048 
L 718.446003 197.58494 
L 718.88728 187.08606 
L 719.68158 161.12595 
L 720.564135 133.227411 
L 721.005413 125.036031 
L 721.270179 123.087264 
L 721.358435 122.993881 
L 721.446691 123.188865 
L 721.623202 124.455029 
L 721.887968 128.531195 
L 722.24099 137.760236 
L 722.858779 161.639292 
L 723.917845 203.633176 
L 724.270867 211.298693 
L 724.535634 213.669224 
L 724.623889 213.772531 
L 724.712145 213.529418 
L 724.888656 212.016838 
L 725.153422 207.303343 
L 725.5947 193.927211 
L 726.653766 149.982824 
L 727.271555 130.515992 
L 727.624577 124.701415 
L 727.889344 123.260612 
L 727.977599 123.338999 
L 728.15411 124.308856 
L 728.418877 127.678975 
L 728.860154 137.635993 
L 729.566199 160.541787 
L 730.625265 193.918206 
L 731.066542 202.432356 
L 731.419565 205.872972 
L 731.596076 206.39895 
L 731.684331 206.362081 
L 731.860842 205.697066 
L 732.125609 203.272457 
L 732.478631 197.602076 
L 733.008164 184.908166 
L 734.949785 132.624719 
L 735.302808 128.623108 
L 735.567574 127.63098 
L 735.65583 127.704462 
L 735.832341 128.468589 
L 736.097107 131.152439 
L 736.450129 137.479967 
L 736.979662 151.978525 
L 738.744773 207.000862 
L 739.097795 210.730952 
L 739.18605 210.961666 
L 739.274306 210.895186 
L 739.450817 209.852703 
L 739.715584 206.003392 
L 740.068606 196.811387 
L 740.598139 176.121012 
L 741.833716 125.404697 
L 742.186738 119.194856 
L 742.363249 118.419423 
L 742.451505 118.647445 
L 742.628016 120.340899 
L 742.892782 125.875736 
L 743.33406 141.956915 
L 744.922659 210.97965 
L 745.187426 214.792353 
L 745.363937 215.334059 
L 745.540448 214.280422 
L 745.805215 209.869674 
L 746.158237 199.44048 
L 746.864281 169.326325 
L 747.658581 136.965651 
L 748.099858 126.213049 
L 748.364625 123.234176 
L 748.541136 122.770502 
L 748.717647 123.508096 
L 748.982413 126.752375 
L 749.335436 134.603359 
L 749.953224 155.148994 
L 751.188802 198.013898 
L 751.630079 206.399084 
L 751.894846 208.59125 
L 752.071357 208.783091 
L 752.247868 207.949372 
L 752.512634 204.818914 
L 752.865656 197.398121 
L 753.39519 180.747709 
L 754.895533 129.198911 
L 755.248556 123.808924 
L 755.425067 122.853514 
L 755.513322 122.843229 
L 755.689833 123.782178 
L 755.9546 127.597896 
L 756.307622 136.954792 
L 756.837155 158.248071 
L 757.984477 207.820072 
L 758.337499 215.143679 
L 758.51401 216.307896 
L 758.602265 216.210756 
L 758.778776 214.625499 
L 759.043543 208.810545 
L 759.396565 195.259139 
L 760.102609 156.332068 
L 760.720398 125.611165 
L 761.07342 116.262763 
L 761.249931 114.682048 
L 761.338187 114.715593 
L 761.514698 116.433122 
L 761.779464 122.955492 
L 762.220742 142.495592 
L 763.544575 210.812 
L 763.897597 217.273131 
L 763.985852 217.662238 
L 764.074108 217.556667 
L 764.250619 215.892972 
L 764.515385 210.003773 
L 764.956663 192.89816 
L 766.457007 125.718501 
L 766.810029 120.324935 
L 766.898284 119.95476 
L 766.98654 119.980249 
L 767.163051 121.201835 
L 767.427818 125.821521 
L 767.78084 136.512098 
L 768.398628 163.278899 
L 769.281184 200.904804 
L 769.722461 211.285271 
L 769.987228 213.303555 
L 770.075483 213.213754 
L 770.251994 211.875426 
L 770.516761 207.034275 
L 770.869783 195.782795 
L 771.487572 167.039153 
L 772.370127 126.900901 
L 772.723149 118.73232 
L 772.89966 117.340267 
L 772.987916 117.380975 
L 773.164427 118.977163 
L 773.429193 125.131206 
L 773.782215 139.713262 
L 774.488259 181.759971 
L 775.106048 213.559455 
L 775.370815 220.312459 
L 775.547326 221.638362 
L 775.635581 221.280922 
L 775.812092 218.498224 
L 776.076859 209.35178 
L 776.518136 183.407798 
L 777.488947 119.778716 
L 777.841969 110.374383 
L 777.930225 109.905735 
L 778.01848 110.221984 
L 778.194991 113.182321 
L 778.459758 123.049049 
L 778.901036 150.414511 
L 779.871846 213.532901 
L 780.136613 221.129112 
L 780.313124 222.658559 
L 780.401379 222.336858 
L 780.57789 219.573194 
L 780.842657 210.551736 
L 781.283935 185.749095 
L 782.343001 122.64642 
L 782.696023 114.491394 
L 782.784278 113.995398 
L 782.872534 114.132915 
L 783.049045 116.283552 
L 783.313812 123.922989 
L 783.755089 146.062247 
L 784.902411 211.792773 
L 785.255433 219.525626 
L 785.343689 219.904369 
L 785.431944 219.631025 
L 785.608455 217.126724 
L 785.873222 208.674166 
L 786.314499 184.333848 
L 787.373566 118.185567 
L 787.638332 111.480398 
L 787.726588 110.782913 
L 787.814843 110.904348 
L 787.991354 113.645995 
L 788.256121 123.838852 
L 788.697398 153.969108 
L 789.579954 219.949535 
L 789.84472 227.714875 
L 789.932976 228.226238 
L 790.021231 227.635261 
L 790.197742 223.131176 
L 790.462509 208.56929 
L 790.992042 160.62059 
L 791.609831 109.968498 
L 791.874597 102.317206 
L 791.962853 102.347102 
L 792.139364 106.38114 
L 792.40413 121.678851 
L 792.933664 173.612369 
L 793.463197 221.322311 
L 793.727963 231.837315 
L 793.816219 232.65816 
L 793.904474 232.083601 
L 794.080985 226.829331 
L 794.345752 209.74343 
L 794.963541 147.071596 
L 795.404818 110.860858 
L 795.669585 102.300153 
L 795.75784 102.156377 
L 795.934351 106.00069 
L 796.199118 121.304068 
L 796.728651 173.743627 
L 797.258184 221.759859 
L 797.522951 231.82393 
L 797.611206 232.328026 
L 797.699462 231.337429 
L 797.875973 224.935534 
L 798.140739 205.395434 
L 799.288061 99.408068 
L 799.376317 98.618779 
L 799.464572 99.664685 
L 799.641083 107.276074 
L 799.90585 131.182161 
L 800.876661 239.264653 
L 800.964916 240.73638 
L 801.053172 239.749597 
L 801.229683 230.307848 
L 801.494449 199.458775 
L 802.288749 89.475527 
L 802.377004 86.829217 
L 802.46526 87.530923 
L 802.641771 99.206783 
L 802.906538 138.992595 
L 803.524326 247.911307 
L 803.700837 254.486596 
L 803.789093 250.848835 
L 803.965604 229.790019 
L 804.406881 127.266079 
L 804.759904 71.787318 
L 804.848159 71.618141 
L 805.02467 91.282778 
L 805.377692 190.460153 
L 805.730714 271.754651 
L 805.81897 273.010219 
L 805.995481 244.590483 
L 806.61327 46.751061 
L 806.701525 60.887591 
L 806.966292 201.800281 
L 807.231058 300.24358 
L 807.407569 201.589951 
L 807.672336 35.55267 
L 807.848847 162.112839 
L 808.025358 269.99702 
L 808.201869 164.960911 
L 808.37838 100.851624 
L 808.643147 210.5048 
L 808.731402 200.288113 
L 808.996169 140.893276 
L 809.260935 183.931691 
L 809.349191 178.726423 
L 809.613957 157.534008 
L 809.878724 173.443 
L 810.14349 163.247805 
L 810.231746 163.687644 
L 810.496512 169.395168 
L 810.761279 165.519234 
L 810.849535 165.876955 
L 811.114301 167.870739 
L 811.114301 167.870739 
" clip-path="url(#p8764160b21)" style="fill: none; stroke: #1f77b4; stroke-width: 0.6; stroke-linecap: square"/>
   </g>
   <g id="line2d_28">
    <path d="M 88.301574 188.545112 
L 88.56634 188.55755 
L 88.831107 188.384227 
L 89.184129 187.850215 
L 89.625407 186.673715 
L 90.15494 184.488185 
L 90.772728 180.861626 
L 91.478773 175.364604 
L 92.449583 165.880149 
L 94.744227 142.510181 
L 95.362016 138.785572 
L 95.715038 137.644946 
L 95.979804 137.335225 
L 96.156315 137.406201 
L 96.421082 137.945512 
L 96.774104 139.490766 
L 97.215382 142.741422 
L 97.744915 148.43839 
L 98.539214 159.83011 
L 100.480836 189.23442 
L 101.098625 194.932579 
L 101.539902 197.179174 
L 101.804669 197.759209 
L 101.98118 197.828165 
L 102.157691 197.64894 
L 102.422457 196.932722 
L 102.77548 195.201105 
L 103.305013 191.171845 
L 104.011057 183.845699 
L 106.746978 153.322481 
L 107.453022 148.424456 
L 108.070811 145.636839 
L 108.512088 144.49373 
L 108.865111 144.064747 
L 109.129877 144.01102 
L 109.394644 144.17406 
L 109.747666 144.70623 
L 110.188943 145.830871 
L 110.806732 148.141339 
L 111.601032 152.094962 
L 112.836609 159.584903 
L 115.396019 175.383787 
L 116.455085 180.454952 
L 117.249385 183.304115 
L 117.955429 185.04202 
L 118.484962 185.816757 
L 118.92624 186.102153 
L 119.279262 186.090178 
L 119.632284 185.862927 
L 120.073562 185.276213 
L 120.603095 184.132974 
L 121.220884 182.210662 
L 121.926928 179.281852 
L 122.809483 174.644492 
L 124.04506 166.766132 
L 126.780982 148.674022 
L 127.575281 145.085588 
L 128.104814 143.584146 
L 128.457836 143.069398 
L 128.722603 142.968973 
L 128.98737 143.131521 
L 129.252136 143.571405 
L 129.605158 144.609696 
L 130.046436 146.660342 
L 130.575969 150.239132 
L 131.282013 156.816411 
L 132.164568 167.368782 
L 134.194445 192.441832 
L 134.723979 196.427373 
L 135.077001 197.96289 
L 135.341767 198.447195 
L 135.518278 198.4348 
L 135.694789 198.147837 
L 135.959556 197.199108 
L 136.312578 194.981849 
L 136.842111 189.762795 
L 137.548155 179.989104 
L 139.842799 145.358446 
L 140.372332 140.71628 
L 140.81361 138.416268 
L 141.166632 137.618202 
L 141.343143 137.556628 
L 141.519654 137.710925 
L 141.78442 138.327177 
L 142.137442 139.809579 
L 142.666976 143.240991 
L 143.37302 149.475189 
L 146.638474 180.686737 
L 147.344518 184.704698 
L 147.962307 187.040681 
L 148.403585 188.039322 
L 148.756607 188.449739 
L 149.109629 188.529845 
L 149.462651 188.296738 
L 149.815673 187.769918 
L 150.345206 186.476087 
L 150.962995 184.296269 
L 151.757294 180.634101 
L 152.904616 174.17502 
L 156.258326 154.552287 
L 157.140881 150.829374 
L 157.846925 148.666162 
L 158.376459 147.596619 
L 158.817736 147.101677 
L 159.170758 146.980114 
L 159.52378 147.111936 
L 159.876802 147.503962 
L 160.31808 148.36695 
L 160.847613 149.954198 
L 161.465402 152.558163 
L 162.259702 157.03443 
L 163.230512 163.986351 
L 164.907367 178.101519 
L 166.142944 187.632614 
L 166.848989 191.505934 
L 167.290266 193.002998 
L 167.643288 193.573488 
L 167.908055 193.592952 
L 168.172822 193.236461 
L 168.525844 192.145053 
L 168.967121 189.754362 
L 169.496654 185.37953 
L 170.202699 177.21046 
L 171.261765 161.592748 
L 172.497342 143.823121 
L 173.115131 137.735364 
L 173.556408 135.262389 
L 173.821175 134.636633 
L 173.997686 134.592561 
L 174.174197 134.849381 
L 174.438964 135.793133 
L 174.791986 138.054022 
L 175.321519 143.365867 
L 176.027563 153.137607 
L 178.233951 185.574179 
L 178.85174 191.042913 
L 179.293017 193.456132 
L 179.646039 194.484965 
L 179.910806 194.749343 
L 180.087317 194.695304 
L 180.352084 194.287981 
L 180.705106 193.18288 
L 181.146383 191.011036 
L 181.764172 186.797845 
L 182.734983 178.44755 
L 184.941371 158.991444 
L 185.823926 153.141585 
L 186.52997 149.701271 
L 187.147759 147.663873 
L 187.677292 146.64852 
L 188.030314 146.340461 
L 188.383336 146.319154 
L 188.736358 146.574754 
L 189.177636 147.265314 
L 189.707169 148.601765 
L 190.324958 150.792072 
L 191.119257 154.45645 
L 192.178324 160.453871 
L 196.061567 183.604466 
L 196.855866 186.538395 
L 197.385399 187.80637 
L 197.826677 188.377527 
L 198.179699 188.488122 
L 198.444466 188.357346 
L 198.797488 187.885959 
L 199.238765 186.803071 
L 199.768298 184.761878 
L 200.386087 181.358838 
L 201.092131 176.192877 
L 202.062942 167.247975 
L 204.622352 142.413523 
L 205.151885 139.42602 
L 205.504907 138.290103 
L 205.769674 137.95667 
L 205.946185 138.000372 
L 206.210952 138.484918 
L 206.563974 139.940994 
L 207.005251 143.080549 
L 207.534784 148.700515 
L 208.240829 158.810039 
L 210.535472 194.119904 
L 211.065005 198.196145 
L 211.418027 199.433835 
L 211.594538 199.590312 
L 211.771049 199.439426 
L 212.035816 198.649619 
L 212.388838 196.600868 
L 212.830116 192.620517 
L 213.53616 183.774432 
L 216.007315 149.919465 
L 216.625103 144.856865 
L 217.154636 142.172355 
L 217.507658 141.225857 
L 217.772425 140.939956 
L 218.037192 140.998405 
L 218.301958 141.380278 
L 218.65498 142.351476 
L 219.184513 144.672672 
L 219.890558 149.038068 
L 220.949624 157.2567 
L 223.244267 175.479233 
L 224.215078 181.315944 
L 224.921122 184.430124 
L 225.538911 186.287101 
L 226.068444 187.208102 
L 226.421466 187.474904 
L 226.774488 187.465599 
L 227.12751 187.184202 
L 227.568788 186.459485 
L 228.098321 185.065533 
L 228.71611 182.765759 
L 229.510409 178.865709 
L 230.569476 172.362069 
L 234.364463 147.494919 
L 234.982252 145.155764 
L 235.511785 143.968078 
L 235.864807 143.659862 
L 236.129574 143.705896 
L 236.39434 144.002933 
L 236.747362 144.806756 
L 237.18864 146.491095 
L 237.718173 149.52803 
L 238.335962 154.438645 
L 239.130261 162.660195 
L 240.630605 181.294892 
L 241.601416 191.947508 
L 242.219205 196.399535 
L 242.572227 197.752624 
L 242.836993 198.106029 
L 243.013504 198.005606 
L 243.278271 197.332407 
L 243.631293 195.443875 
L 244.072571 191.522888 
L 244.690359 183.436466 
L 245.66117 166.744937 
L 246.896747 145.965083 
L 247.514536 138.915376 
L 247.955814 135.959822 
L 248.308836 134.948957 
L 248.485347 134.895228 
L 248.661858 135.135069 
L 248.926624 136.02309 
L 249.279646 138.119769 
L 249.80918 142.925837 
L 250.603479 152.706607 
L 252.721612 180.048895 
L 253.427656 186.177281 
L 254.045445 189.684378 
L 254.486722 191.11102 
L 254.839744 191.628065 
L 255.104511 191.669987 
L 255.369277 191.432106 
L 255.7223 190.709528 
L 256.163577 189.218196 
L 256.781366 186.201875 
L 257.663921 180.500836 
L 259.25252 168.316828 
L 260.752864 157.419837 
L 261.723675 151.870114 
L 262.429719 148.902664 
L 263.047508 147.158198 
L 263.488786 146.433754 
L 263.841808 146.178162 
L 264.19483 146.215045 
L 264.547852 146.545815 
L 264.989129 147.370419 
L 265.518663 148.950953 
L 266.136451 151.573133 
L 266.930751 156.062634 
L 267.901562 162.939713 
L 271.343527 188.881501 
L 271.961316 191.378725 
L 272.402593 192.291277 
L 272.66736 192.438479 
L 272.932126 192.260429 
L 273.196893 191.73991 
L 273.549915 190.49016 
L 273.991193 188.009306 
L 274.520726 183.689471 
L 275.22677 175.834982 
L 276.285836 160.928217 
L 277.609669 142.63166 
L 278.227458 136.920894 
L 278.668735 134.754195 
L 278.933502 134.350533 
L 279.110013 134.478005 
L 279.37478 135.276766 
L 279.727802 137.470229 
L 280.169079 141.929374 
L 280.786868 150.862557 
L 282.022445 173.323408 
L 282.905 187.605653 
L 283.522789 194.428444 
L 283.964067 197.2442 
L 284.317089 198.204355 
L 284.4936 198.261566 
L 284.670111 198.047245 
L 284.934877 197.241399 
L 285.2879 195.337404 
L 285.817433 190.982395 
L 286.611732 182.116171 
L 288.906376 154.877925 
L 289.700676 148.5533 
L 290.318464 145.333628 
L 290.759742 143.966673 
L 291.112764 143.418994 
L 291.377531 143.314394 
L 291.642297 143.46064 
L 291.995319 144.024548 
L 292.436597 145.275923 
L 292.96613 147.48532 
L 293.672174 151.415392 
L 294.73124 158.758934 
L 297.731928 180.458248 
L 298.614483 184.91375 
L 299.232272 187.079695 
L 299.761805 188.218332 
L 300.114827 188.581389 
L 300.379594 188.637056 
L 300.64436 188.502744 
L 300.997382 188.023585 
L 301.43866 186.938399 
L 301.968193 184.927372 
L 302.585982 181.637398 
L 303.380282 176.050247 
L 304.439348 166.761869 
L 306.822247 145.129614 
L 307.440036 141.506524 
L 307.881313 139.95659 
L 308.14608 139.521004 
L 308.322591 139.456163 
L 308.499102 139.581285 
L 308.763868 140.140124 
L 309.116891 141.604754 
L 309.558168 144.618543 
L 310.087701 149.931972 
L 310.793745 159.529666 
L 313.353156 197.397588 
L 313.794433 200.067006 
L 314.0592 200.662202 
L 314.235711 200.618196 
L 314.412222 200.217645 
L 314.676988 198.954312 
L 315.030011 196.082856 
L 315.559544 189.526275 
L 316.353843 176.150139 
L 317.942443 148.605582 
L 318.560231 141.499106 
L 319.001509 138.346815 
L 319.354531 137.030888 
L 319.619298 136.732687 
L 319.795809 136.848306 
L 320.060575 137.467449 
L 320.413597 139.057498 
L 320.943131 142.835973 
L 321.649175 149.772459 
L 324.649862 181.817238 
L 325.355907 186.357075 
L 325.88544 188.604146 
L 326.326717 189.706893 
L 326.679739 190.094321 
L 326.944506 190.105112 
L 327.209273 189.884716 
L 327.562295 189.247511 
L 328.003572 187.935606 
L 328.621361 185.240321 
L 329.415661 180.564578 
L 330.562982 172.194376 
L 333.122393 152.89649 
L 334.004948 148.058982 
L 334.622736 145.727366 
L 335.064014 144.695823 
L 335.417036 144.288916 
L 335.681803 144.241711 
L 335.946569 144.423799 
L 336.299591 145.032966 
L 336.740869 146.394824 
L 337.270402 148.912684 
L 337.888191 153.030441 
L 338.682491 159.99668 
L 339.829812 172.371911 
L 341.418412 189.300394 
L 342.0362 193.878915 
L 342.477478 195.872424 
L 342.742245 196.448443 
L 342.918756 196.547933 
L 343.095267 196.407608 
L 343.360033 195.729459 
L 343.713055 193.924434 
L 344.154333 190.210178 
L 344.683866 183.731696 
L 345.478166 170.748524 
L 347.243276 140.449696 
L 347.772809 135.069057 
L 348.125831 133.179345 
L 348.390598 132.73608 
L 348.567109 132.913623 
L 348.831876 133.881692 
L 349.184898 136.424696 
L 349.626175 141.398119 
L 350.332219 152.439923 
L 352.362096 186.45558 
L 352.979885 192.651032 
L 353.421163 195.238722 
L 353.774185 196.197653 
L 353.950696 196.319396 
L 354.127207 196.213002 
L 354.391973 195.64736 
L 354.744996 194.19624 
L 355.274529 190.741983 
L 355.980573 184.360323 
L 357.480917 167.970027 
L 358.716494 155.715011 
L 359.510794 149.80935 
L 360.128582 146.589093 
L 360.658116 144.855565 
L 361.099393 144.144464 
L 361.36416 144.03404 
L 361.628926 144.155555 
L 361.981948 144.667641 
L 362.423226 145.843912 
L 362.952759 147.982035 
L 363.658803 151.910285 
L 364.541359 158.17758 
L 366.218213 172.14783 
L 367.542046 182.477573 
L 368.336346 187.233292 
L 368.954135 189.763546 
L 369.395412 190.805273 
L 369.748434 191.123474 
L 370.013201 191.04096 
L 370.277967 190.67114 
L 370.63099 189.717203 
L 371.072267 187.76905 
L 371.6018 184.325981 
L 372.307844 177.968313 
L 373.1904 167.718303 
L 375.396788 140.9346 
L 375.926321 137.223636 
L 376.279343 135.929905 
L 376.54411 135.674325 
L 376.720621 135.86841 
L 376.985387 136.728329 
L 377.338409 138.957599 
L 377.779687 143.456132 
L 378.397476 152.606536 
L 379.368286 171.230843 
L 380.427353 190.734478 
L 381.045141 198.284401 
L 381.398163 200.677704 
L 381.66293 201.458757 
L 381.839441 201.488029 
L 382.015952 201.127974 
L 382.280718 199.880093 
L 382.633741 196.984663 
L 383.163274 190.409145 
L 384.045829 175.697783 
L 385.457917 152.108434 
L 386.163961 143.98327 
L 386.693495 140.236201 
L 387.046517 138.898541 
L 387.311283 138.488285 
L 387.487794 138.485652 
L 387.664305 138.690269 
L 387.929072 139.364887 
L 388.282094 140.893947 
L 388.811627 144.341188 
L 389.517671 150.549869 
L 391.018015 166.395383 
L 392.253593 178.395571 
L 393.047892 184.278261 
L 393.665681 187.531543 
L 394.195214 189.305343 
L 394.636492 190.042939 
L 394.901258 190.16087 
L 395.166025 190.037592 
L 395.519047 189.50488 
L 395.960324 188.266978 
L 396.489858 185.993182 
L 397.195902 181.768888 
L 398.078457 174.953566 
L 399.667056 160.471852 
L 400.990889 149.254144 
L 401.785189 144.354964 
L 402.314722 142.294589 
L 402.667744 141.571534 
L 402.932511 141.40683 
L 403.109022 141.487048 
L 403.373788 141.903771 
L 403.72681 143.030823 
L 404.168088 145.379784 
L 404.697621 149.568973 
L 405.403665 157.300027 
L 406.374476 170.868136 
L 407.87482 191.95987 
L 408.492609 197.608696 
L 408.845631 199.369118 
L 409.110397 199.859755 
L 409.286908 199.76274 
L 409.463419 199.314236 
L 409.728186 197.971132 
L 410.081208 194.935877 
L 410.610741 187.892396 
L 411.316785 174.872035 
L 413.081896 140.63987 
L 413.611429 134.814097 
L 413.964451 132.84201 
L 414.229218 132.418813 
L 414.405729 132.635636 
L 414.670495 133.683027 
L 415.023517 136.332865 
L 415.55305 142.576225 
L 416.34735 155.293186 
L 417.935949 181.414493 
L 418.641994 189.372006 
L 419.171527 193.106434 
L 419.612804 194.701501 
L 419.877571 195.015735 
L 420.054082 194.969398 
L 420.318849 194.535475 
L 420.671871 193.324679 
L 421.113148 190.911916 
L 421.730937 186.175938 
L 422.701748 176.666454 
L 424.908136 154.438221 
L 425.702435 148.675598 
L 426.320224 145.560596 
L 426.849757 143.955303 
L 427.202779 143.456471 
L 427.467546 143.386706 
L 427.732312 143.577721 
L 428.085335 144.233893 
L 428.526612 145.683069 
L 429.056145 148.296719 
L 429.762189 153.113849 
L 430.644745 160.842725 
L 433.733688 189.811952 
L 434.263221 192.572855 
L 434.704499 193.838467 
L 434.969265 194.083471 
L 435.145776 194.016537 
L 435.410543 193.555098 
L 435.763565 192.241572 
L 436.204843 189.450973 
L 436.734376 184.442143 
L 437.44042 175.242874 
L 438.587742 156.544627 
L 439.646808 140.550054 
L 440.176341 135.277985 
L 440.529363 133.342094 
L 440.79413 132.852892 
L 440.970641 133.015147 
L 441.235407 134.012305 
L 441.588429 136.748732 
L 442.029707 142.310065 
L 442.647496 153.387859 
L 444.765628 195.282997 
L 445.206906 199.668338 
L 445.559928 201.362645 
L 445.736439 201.59246 
L 445.91295 201.417753 
L 446.177717 200.425464 
L 446.530739 197.841962 
L 447.060272 191.700074 
L 447.854572 179.155147 
L 449.531426 152.084132 
L 450.237471 144.457903 
L 450.767004 140.930552 
L 451.120026 139.657442 
L 451.384792 139.255588 
L 451.561303 139.241627 
L 451.737815 139.423082 
L 452.002581 140.044444 
L 452.355603 141.477519 
L 452.885136 144.75786 
L 453.59118 150.774381 
L 454.826758 163.744738 
L 456.327102 179.09316 
L 457.209657 185.898805 
L 457.827446 189.148335 
L 458.268723 190.589931 
L 458.621745 191.182625 
L 458.886512 191.29155 
L 459.151278 191.110031 
L 459.416045 190.638212 
L 459.769067 189.562479 
L 460.210345 187.52018 
L 460.828133 183.443519 
L 461.622433 176.411697 
L 462.769755 163.919405 
L 464.358354 146.819403 
L 465.064398 141.452674 
L 465.505676 139.371978 
L 465.858698 138.573694 
L 466.035209 138.493279 
L 466.21172 138.637564 
L 466.476487 139.291249 
L 466.829509 141.005428 
L 467.270786 144.520249 
L 467.80032 150.674673 
L 468.506364 161.652743 
L 470.624496 197.188124 
L 471.065774 200.949529 
L 471.33054 202.038234 
L 471.507051 202.231641 
L 471.683563 201.983541 
L 471.948329 200.772143 
L 472.301351 197.613548 
L 472.742629 191.376415 
L 473.448673 177.355948 
L 475.125528 141.893359 
L 475.655061 135.346265 
L 476.008083 133.010127 
L 476.27285 132.36717 
L 476.449361 132.458771 
L 476.625872 132.952325 
L 476.890638 134.405707 
L 477.331916 138.522447 
L 477.949705 147.027492 
L 480.59737 187.690322 
L 481.126903 191.983532 
L 481.568181 194.07195 
L 481.921203 194.774941 
L 482.097714 194.814462 
L 482.274225 194.653886 
L 482.538992 194.05396 
L 482.892014 192.628836 
L 483.421547 189.311702 
L 484.127591 183.152595 
L 485.274913 170.729324 
L 486.863512 153.765205 
L 487.657812 147.373376 
L 488.275601 143.963503 
L 488.716878 142.502835 
L 489.0699 141.963017 
L 489.334667 141.93708 
L 489.599434 142.240485 
L 489.952456 143.1581 
L 490.393733 145.117494 
L 490.923266 148.606222 
L 491.629311 154.979883 
L 492.600121 166.133474 
L 494.629998 190.084997 
L 495.247787 194.696559 
L 495.689065 196.478519 
L 495.953831 196.830957 
L 496.130342 196.74169 
L 496.395109 196.097815 
L 496.748131 194.254954 
L 497.189408 190.351875 
L 497.718942 183.43553 
L 498.513241 169.416476 
L 500.190096 138.197659 
L 500.719629 132.591293 
L 501.072651 130.969899 
L 501.249162 130.867245 
L 501.425674 131.253016 
L 501.69044 132.75072 
L 502.043462 136.411275 
L 502.572995 145.057053 
L 503.367295 162.744715 
L 504.602872 189.9871 
L 505.132405 197.574692 
L 505.573683 201.047643 
L 505.83845 201.816532 
L 506.014961 201.7885 
L 506.191472 201.342778 
L 506.456238 199.933327 
L 506.897516 195.824048 
L 507.515305 187.22267 
L 510.16297 145.869142 
L 510.692503 141.560284 
L 511.133781 139.516976 
L 511.398548 138.964641 
L 511.575059 138.869862 
L 511.75157 138.987358 
L 512.016336 139.546207 
L 512.369358 140.961195 
L 512.810636 143.695046 
L 513.428425 149.00571 
L 514.399235 159.656662 
L 516.429112 182.54878 
L 517.223412 188.814265 
L 517.752945 191.516992 
L 518.194223 192.730689 
L 518.458989 192.976666 
L 518.6355 192.934025 
L 518.900267 192.556379 
L 519.253289 191.465773 
L 519.694567 189.172481 
L 520.2241 185.123238 
L 520.930144 177.790094 
L 521.98921 163.9511 
L 523.489554 144.407354 
L 524.107343 138.880409 
L 524.54862 136.596529 
L 524.813387 136.031538 
L 524.989898 136.022466 
L 525.166409 136.321635 
L 525.431176 137.367607 
L 525.784198 139.900515 
L 526.225475 144.873885 
L 526.843264 154.872086 
L 527.814075 175.105145 
L 528.784885 194.296993 
L 529.314419 201.17396 
L 529.667441 203.540716 
L 529.843952 203.965815 
L 529.932207 203.980706 
L 530.108718 203.609785 
L 530.373485 202.053004 
L 530.726507 198.176276 
L 531.25604 188.989086 
L 532.138595 168.133365 
L 533.197662 144.065533 
L 533.727195 136.133015 
L 534.168472 132.538392 
L 534.433239 131.771247 
L 534.60975 131.829839 
L 534.786261 132.327828 
L 535.051028 133.851961 
L 535.492305 138.22908 
L 536.110094 147.295914 
L 538.669504 188.732118 
L 539.199037 193.149866 
L 539.640315 195.171216 
L 539.905081 195.659988 
L 540.081592 195.691846 
L 540.258103 195.495555 
L 540.52287 194.790256 
L 540.875892 193.131937 
L 541.405425 189.286869 
L 542.111469 182.16968 
L 543.347047 166.825634 
L 544.670879 151.159825 
L 545.376924 144.977094 
L 545.906457 141.861366 
L 546.347734 140.427361 
L 546.612501 140.112397 
L 546.789012 140.137364 
L 547.053779 140.532537 
L 547.406801 141.730226 
L 547.848078 144.290315 
L 548.377611 148.839293 
L 549.083656 157.073025 
L 550.230977 173.745135 
L 551.466555 190.878208 
L 552.084343 196.598401 
L 552.437365 198.444592 
L 552.702132 199.018999 
L 552.878643 198.983739 
L 553.055154 198.598342 
L 553.319921 197.343958 
L 553.672943 194.390771 
L 554.11422 188.693701 
L 554.732009 177.45665 
L 556.938397 132.83864 
L 557.291419 129.955922 
L 557.556186 129.231109 
L 557.644441 129.276849 
L 557.820952 129.805077 
L 558.085719 131.68085 
L 558.438741 136.108926 
L 558.968274 146.269583 
L 559.939085 170.839809 
L 560.82164 191.192461 
L 561.351173 199.118006 
L 561.704195 202.018819 
L 561.968962 202.881333 
L 562.145473 202.840013 
L 562.321984 202.323235 
L 562.58675 200.707373 
L 563.028028 196.031766 
L 563.645817 186.341783 
L 566.028716 145.200812 
L 566.558249 140.31091 
L 566.999527 138.066118 
L 567.264293 137.523471 
L 567.440804 137.489242 
L 567.617315 137.709446 
L 567.882082 138.498001 
L 568.235104 140.349188 
L 568.764637 144.631327 
L 569.470681 152.515973 
L 570.88277 171.668663 
L 571.941836 184.700466 
L 572.64788 190.938889 
L 573.177413 193.796738 
L 573.530435 194.708227 
L 573.795202 194.83789 
L 573.971713 194.654057 
L 574.236479 193.969018 
L 574.589501 192.294165 
L 575.030779 189.010635 
L 575.648568 182.378824 
L 576.442867 171.104602 
L 578.561 139.592826 
L 579.090533 135.374893 
L 579.443555 134.167548 
L 579.620066 134.110111 
L 579.796577 134.438341 
L 580.061344 135.677027 
L 580.414366 138.743044 
L 580.855644 144.786083 
L 581.473432 156.803819 
L 583.591565 201.976139 
L 583.944587 204.913685 
L 584.209353 205.544249 
L 584.385864 205.17887 
L 584.650631 203.447872 
L 585.003653 199.021297 
L 585.533186 188.485575 
L 586.503997 162.566604 
L 587.386552 141.286434 
L 587.916085 133.336337 
L 588.269107 130.688538 
L 588.533874 130.150104 
L 588.710385 130.464508 
L 588.975152 131.893109 
L 589.328174 135.417345 
L 589.857707 143.498286 
L 590.828518 162.991693 
L 591.887584 183.256029 
L 592.505373 191.634005 
L 593.034906 196.006224 
L 593.387928 197.388193 
L 593.564439 197.62197 
L 593.74095 197.558421 
L 593.917461 197.206112 
L 594.182227 196.160085 
L 594.623505 193.149869 
L 595.153038 187.764369 
L 595.947338 177.144195 
L 598.06547 147.3552 
L 598.683259 141.740994 
L 599.124537 139.257699 
L 599.477559 138.301169 
L 599.65407 138.183789 
L 599.830581 138.312204 
L 600.095347 138.969363 
L 600.44837 140.709218 
L 600.889647 144.229221 
L 601.507436 151.435792 
L 602.301735 163.695168 
L 604.155101 193.597776 
L 604.684635 198.669021 
L 605.037657 200.366454 
L 605.214168 200.63338 
L 605.390679 200.486244 
L 605.56719 199.910831 
L 605.831956 198.226191 
L 606.184978 194.444276 
L 606.714512 185.67624 
L 607.420556 169.518301 
L 608.832644 136.081017 
L 609.273922 129.998415 
L 609.626944 127.835446 
L 609.803455 127.755354 
L 609.979966 128.364166 
L 610.244732 130.561768 
L 610.597755 135.767285 
L 611.127288 147.653685 
L 613.157165 199.682903 
L 613.598442 204.215951 
L 613.863209 205.0751 
L 613.951464 205.052412 
L 614.127975 204.556148 
L 614.392742 202.737443 
L 614.745764 198.510974 
L 615.275297 189.13655 
L 617.746452 140.314348 
L 618.187729 136.525916 
L 618.540752 135.122796 
L 618.717263 134.958924 
L 618.893774 135.143345 
L 619.15854 136.046938 
L 619.511562 138.340163 
L 620.041095 143.792868 
L 620.74714 153.826387 
L 623.041783 188.961431 
L 623.659572 194.414595 
L 624.100849 196.446335 
L 624.365616 196.850904 
L 624.542127 196.770562 
L 624.806894 196.120488 
L 625.159916 194.272768 
L 625.601193 190.44686 
L 626.218982 182.564078 
L 627.101537 167.627701 
L 628.601881 141.640614 
L 629.131414 135.664914 
L 629.484436 133.41298 
L 629.749203 132.798754 
L 629.837458 132.813915 
L 630.013969 133.186825 
L 630.278736 134.622874 
L 630.631758 138.189205 
L 631.073036 145.193213 
L 631.690824 158.953045 
L 633.455935 201.448698 
L 633.897212 206.21874 
L 634.161979 207.010643 
L 634.250235 206.905011 
L 634.426746 206.13022 
L 634.691512 203.5709 
L 635.044534 197.693275 
L 635.574067 184.524852 
L 637.427433 133.264123 
L 637.780455 128.919077 
L 638.045222 127.522659 
L 638.133478 127.416652 
L 638.221733 127.488316 
L 638.398244 128.153516 
L 638.663011 130.393029 
L 639.016033 135.446781 
L 639.545566 146.425153 
L 641.575443 192.844023 
L 642.01672 198.087932 
L 642.369743 200.320178 
L 642.634509 200.840031 
L 642.81102 200.651545 
L 643.075787 199.603432 
L 643.428809 196.886551 
L 643.958342 190.417092 
L 644.752642 177.050382 
L 646.517752 146.267595 
L 647.135541 139.465151 
L 647.576818 136.736631 
L 647.841585 136.039743 
L 648.018096 135.979842 
L 648.194607 136.246188 
L 648.459374 137.254505 
L 648.812396 139.708062 
L 649.253673 144.443354 
L 649.871462 153.716455 
L 650.930528 173.824809 
L 651.989595 192.661491 
L 652.519128 198.880467 
L 652.87215 201.143274 
L 653.136916 201.679174 
L 653.313427 201.441446 
L 653.578194 200.156836 
L 653.931216 196.688833 
L 654.372494 189.634217 
L 654.990282 175.508036 
L 656.755393 131.626211 
L 657.108415 127.544938 
L 657.373181 126.408147 
L 657.461437 126.42333 
L 657.637948 127.060811 
L 657.902715 129.536752 
L 658.255737 135.555598 
L 658.78527 149.464046 
L 660.638636 203.684559 
L 660.991658 207.57642 
L 661.168169 208.273774 
L 661.256424 208.307036 
L 661.432935 207.751766 
L 661.697702 205.425618 
L 662.050724 199.814466 
L 662.580257 187.26814 
L 664.433623 138.955577 
L 664.874901 133.217641 
L 665.227923 131.118679 
L 665.404434 130.901387 
L 665.580945 131.221482 
L 665.845712 132.659228 
L 666.198734 136.201195 
L 666.728267 144.356309 
L 667.610822 162.410368 
L 668.846399 187.025159 
L 669.464188 195.236316 
L 669.905466 198.551619 
L 670.170232 199.414588 
L 670.346743 199.507737 
L 670.523254 199.214542 
L 670.788021 198.059475 
L 671.141043 195.232793 
L 671.58232 189.806588 
L 672.200109 179.337469 
L 674.583008 135.42937 
L 674.93603 132.726897 
L 675.200797 131.92537 
L 675.289052 131.907984 
L 675.465563 132.260925 
L 675.73033 133.778192 
L 676.083352 137.648229 
L 676.52463 145.297466 
L 677.142418 160.261907 
L 678.731018 201.473435 
L 679.172295 207.016941 
L 679.437062 208.032913 
L 679.525317 207.95026 
L 679.701828 207.134519 
L 679.966595 204.280557 
L 680.319617 197.56023 
L 680.84915 182.289117 
L 682.526005 129.139478 
L 682.879027 124.673482 
L 683.055538 123.89674 
L 683.143794 123.88143 
L 683.320305 124.591276 
L 683.585071 127.442554 
L 683.938094 134.245288 
L 684.467627 149.272687 
L 685.967971 195.347596 
L 686.409248 202.807902 
L 686.76227 205.590883 
L 686.938781 205.898402 
L 687.115292 205.502821 
L 687.380059 203.659686 
L 687.733081 199.106116 
L 688.262614 188.744803 
L 690.557258 137.803892 
L 690.998535 133.666109 
L 691.263302 132.60794 
L 691.439813 132.507826 
L 691.616324 132.88831 
L 691.881091 134.337933 
L 692.234113 137.819776 
L 692.763646 145.930704 
L 693.557945 162.57748 
L 694.970034 192.746175 
L 695.499567 199.789372 
L 695.852589 202.208418 
L 696.0291 202.640087 
L 696.117356 202.651771 
L 696.293867 202.257806 
L 696.558633 200.610648 
L 696.911655 196.460986 
L 697.352933 188.349324 
L 698.058977 170.188486 
L 699.38281 134.449611 
L 699.824088 127.714077 
L 700.088854 125.960891 
L 700.17711 125.804942 
L 700.265365 125.872111 
L 700.441876 126.688825 
L 700.706643 129.634021 
L 701.059665 136.661916 
L 701.589198 152.781733 
L 703.177797 206.419778 
L 703.53082 211.159069 
L 703.707331 211.843817 
L 703.795586 211.749381 
L 703.972097 210.688604 
L 704.236864 206.987002 
L 704.589886 198.518537 
L 705.207674 176.920478 
L 706.354996 136.228967 
L 706.796274 127.565928 
L 707.06104 125.17047 
L 707.237551 124.781514 
L 707.414062 125.339527 
L 707.678829 127.857049 
L 708.031851 133.992364 
L 708.561384 147.637257 
L 710.238239 194.899539 
L 710.679517 201.558408 
L 711.032539 204.061339 
L 711.20905 204.34081 
L 711.385561 203.980093 
L 711.650328 202.280368 
L 712.00335 198.01351 
L 712.532883 188.051696 
L 713.415438 165.937894 
L 714.474504 140.938376 
L 715.004037 133.184895 
L 715.357059 130.688158 
L 715.533571 130.33403 
L 715.621826 130.38838 
L 715.798337 130.964975 
L 716.063104 132.997377 
L 716.416126 137.816687 
L 716.945659 149.044305 
L 717.828214 174.401685 
L 718.710769 198.333625 
L 719.152047 205.720326 
L 719.416814 207.850243 
L 719.593325 208.171448 
L 719.769836 207.56395 
L 720.034602 204.872702 
L 720.387624 198.033068 
L 720.917157 181.781871 
L 722.505757 125.980692 
L 722.858779 121.33813 
L 723.03529 120.923859 
L 723.211801 121.842097 
L 723.476568 125.691335 
L 723.82959 135.061105 
L 724.447378 159.748162 
L 725.418189 199.778183 
L 725.859467 210.132635 
L 726.124233 212.661297 
L 726.212489 212.855396 
L 726.300744 212.726121 
L 726.477255 211.517134 
L 726.742022 207.461037 
L 727.183299 195.670386 
L 727.977599 165.834877 
L 728.771899 138.624291 
L 729.213176 129.370487 
L 729.566199 126.00292 
L 729.74271 125.719476 
L 729.919221 126.350831 
L 730.183987 128.925966 
L 730.537009 135.074344 
L 731.066542 148.734279 
L 732.831653 198.554422 
L 733.272931 204.328821 
L 733.537697 205.630867 
L 733.625953 205.687603 
L 733.802464 205.231536 
L 734.06723 203.142033 
L 734.420252 197.869114 
L 734.949785 185.432042 
L 735.920596 155.181277 
L 736.714896 133.716677 
L 737.156173 127.113919 
L 737.42094 125.728151 
L 737.509196 125.738945 
L 737.685707 126.494008 
L 737.950473 129.476062 
L 738.303495 136.793458 
L 738.833028 153.818555 
L 740.333372 208.160206 
L 740.686394 213.172941 
L 740.862905 213.635968 
L 741.039416 212.643895 
L 741.304183 208.415717 
L 741.657205 198.004927 
L 742.274994 170.362669 
L 743.157549 130.083198 
L 743.510571 120.791641 
L 743.775338 117.932988 
L 743.863593 117.82384 
L 743.951849 118.140679 
L 744.12836 120.033808 
L 744.393126 125.849903 
L 744.834404 142.07486 
L 746.423003 208.611301 
L 746.776025 213.18927 
L 746.864281 213.447341 
L 746.952536 213.3523 
L 747.129048 212.127627 
L 747.393814 207.861393 
L 747.835092 195.350695 
L 748.717647 160.232527 
L 749.423691 135.779902 
L 749.864969 126.945833 
L 750.129735 124.712776 
L 750.217991 124.503887 
L 750.306246 124.562839 
L 750.482757 125.473771 
L 750.747524 128.745005 
L 751.100546 136.302974 
L 751.718335 155.969143 
L 753.042167 200.429054 
L 753.483445 207.917108 
L 753.748212 209.416962 
L 753.836467 209.377772 
L 754.012978 208.474811 
L 754.277745 205.073877 
L 754.630767 196.938894 
L 755.1603 178.530023 
L 756.572388 125.825915 
L 756.92541 120.738193 
L 757.101922 120.348323 
L 757.278433 121.498716 
L 757.543199 126.13644 
L 757.896221 137.416356 
L 758.51401 167.192482 
L 759.396565 209.102473 
L 759.749587 217.227968 
L 759.926098 218.391644 
L 760.014354 218.194866 
L 760.190865 216.2285 
L 760.455631 209.474916 
L 760.896909 189.685462 
L 762.220742 120.808569 
L 762.485508 115.708726 
L 762.662019 114.964972 
L 762.83853 116.366694 
L 763.103297 122.274556 
L 763.456319 136.135832 
L 765.133174 213.066748 
L 765.397941 215.730294 
L 765.486196 215.738034 
L 765.662707 214.457505 
L 765.927474 209.480755 
L 766.280496 197.986849 
L 766.98654 165.44777 
L 767.78084 131.95592 
L 768.133862 123.576805 
L 768.398628 120.974561 
L 768.486884 120.851452 
L 768.575139 121.103514 
L 768.75165 122.720807 
L 769.016417 127.811463 
L 769.457695 142.403398 
L 770.34025 183.097081 
L 770.958039 206.648757 
L 771.311061 213.508445 
L 771.487572 214.568956 
L 771.575827 214.463702 
L 771.752338 212.95851 
L 772.017105 207.504757 
L 772.370127 194.791501 
L 772.987916 162.559415 
L 773.782215 123.566771 
L 774.135237 115.538901 
L 774.311748 114.801256 
L 774.488259 116.435338 
L 774.753026 123.322935 
L 775.106048 139.917773 
L 776.606392 222.285868 
L 776.782903 223.338868 
L 776.959414 221.373147 
L 777.224181 212.947553 
L 777.665458 187.081029 
L 778.724524 117.795698 
L 778.989291 111.056727 
L 779.077547 110.311218 
L 779.165802 110.336046 
L 779.342313 112.668039 
L 779.60708 121.49054 
L 780.048357 147.057136 
L 781.107424 212.944676 
L 781.37219 219.88863 
L 781.548701 221.229599 
L 781.636957 220.893528 
L 781.813468 218.256282 
L 782.078234 209.759467 
L 782.519512 186.318038 
L 783.578578 124.432581 
L 783.9316 115.427979 
L 784.108111 114.511001 
L 784.196367 114.987651 
L 784.372878 117.78896 
L 784.637644 126.338106 
L 785.078922 149.80165 
L 786.137988 212.570513 
L 786.402755 219.766085 
L 786.579266 221.221441 
L 786.667521 220.876709 
L 786.844033 218.013112 
L 787.108799 208.478988 
L 787.550077 181.250439 
L 788.520887 115.53905 
L 788.785654 108.72802 
L 788.87391 108.263641 
L 788.962165 108.757677 
L 789.138676 112.647995 
L 789.403443 125.405819 
L 789.84472 160.619806 
L 790.550764 218.961846 
L 790.815531 229.137965 
L 790.903787 230.249932 
L 790.992042 230.138105 
L 791.168553 226.208958 
L 791.43332 211.589144 
L 791.874597 170.714901 
L 792.492386 113.905756 
L 792.757153 102.643505 
L 792.845408 101.500134 
L 792.933664 101.735869 
L 793.110175 106.314767 
L 793.374941 122.566437 
L 793.904474 175.58883 
L 794.434007 222.307332 
L 794.698774 231.842709 
L 794.78703 232.322971 
L 794.875285 231.414681 
L 795.051796 225.542362 
L 795.316563 207.741483 
L 796.55214 103.342991 
L 796.640395 102.202671 
L 796.728651 102.475246 
L 796.905162 107.236242 
L 797.169929 124.053 
L 797.699462 178.995351 
L 798.228995 226.006921 
L 798.493761 233.491173 
L 798.582017 232.837369 
L 798.758528 226.654285 
L 799.023295 206.171148 
L 800.170616 96.219296 
L 800.258872 96.694215 
L 800.435383 104.052416 
L 800.70015 129.813 
L 801.582705 241.01277 
L 801.67096 243.660885 
L 801.759216 243.461957 
L 801.935727 234.300623 
L 802.200493 200.803747 
L 802.994793 84.128037 
L 803.083049 83.265804 
L 803.171304 86.397152 
L 803.347815 104.42996 
L 803.700837 174.96323 
L 804.142115 253.91865 
L 804.23037 258.391282 
L 804.318626 257.456776 
L 804.495137 238.952688 
L 804.848159 152.06549 
L 805.201181 72.503877 
L 805.289437 66.268793 
L 805.377692 67.915156 
L 805.554203 95.663808 
L 806.171992 278.763919 
L 806.260247 278.332019 
L 806.436758 236.330683 
L 806.878036 41.415198 
L 806.966292 41.823636 
L 807.142803 123.687232 
L 807.407569 300.051585 
L 807.495825 295.703362 
L 807.848847 47.048578 
L 807.937102 83.086333 
L 808.201869 251.581075 
L 808.466635 115.605453 
L 808.554891 118.283376 
L 808.819658 201.785885 
L 809.084424 146.695716 
L 809.17268 148.739251 
L 809.437446 180.12223 
L 809.702213 158.963092 
L 809.790468 160.687392 
L 810.055235 171.799528 
L 810.320001 163.889592 
L 810.496512 167.142396 
L 810.584768 168.726974 
L 810.673024 168.712045 
L 810.93779 165.825899 
L 811.114301 167.188256 
L 811.114301 167.188256 
" clip-path="url(#p8764160b21)" style="fill: none; stroke: #ff7f0e; stroke-width: 0.6; stroke-linecap: square"/>
   </g>
   <g id="patch_3">
    <path d="M 52.160938 313.478125 
L 52.160938 22.318125 
" style="fill: none; stroke: #000000; stroke-width: 0.8; stroke-linejoin: miter; stroke-linecap: square"/>
   </g>
   <g id="patch_4">
    <path d="M 847.254938 313.478125 
L 847.254938 22.318125 
" style="fill: none; stroke: #000000; stroke-width: 0.8; stroke-linejoin: miter; stroke-linecap: square"/>
   </g>
   <g id="patch_5">
    <path d="M 52.160938 313.478125 
L 847.254937 313.478125 
" style="fill: none; stroke: #000000; stroke-width: 0.8; stroke-linejoin: miter; stroke-linecap: square"/>
   </g>
   <g id="patch_6">
    <path d="M 52.160938 22.318125 
L 847.254937 22.318125 
" style="fill: none; stroke: #000000; stroke-width: 0.8; stroke-linejoin: miter; stroke-linecap: square"/>
   </g>
   <g id="text_16">
    <!-- M=60, e=0.1, f_min=10 Hz -->
    <g transform="translate(367.322313 16.318125) scale(0.12 -0.12)">
     <defs>
      <path id="DejaVuSans-4d" d="M 628 4666 
L 1569 4666 
L 2759 1491 
L 3956 4666 
L 4897 4666 
L 4897 0 
L 4281 0 
L 4281 4097 
L 3078 897 
L 2444 897 
L 1241 4097 
L 1241 0 
L 628 0 
L 628 4666 
z
" transform="scale(0.015625)"/>
      <path id="DejaVuSans-3d" d="M 678 2906 
L 4684 2906 
L 4684 2381 
L 678 2381 
L 678 2906 
z
M 678 1631 
L 4684 1631 
L 4684 1100 
L 678 1100 
L 678 1631 
z
" transform="scale(0.015625)"/>
      <path id="DejaVuSans-2c" d="M 750 794 
L 1409 794 
L 1409 256 
L 897 -744 
L 494 -744 
L 750 256 
L 750 794 
z
" transform="scale(0.015625)"/>
      <path id="DejaVuSans-65" d="M 3597 1894 
L 3597 1613 
L 953 1613 
Q 991 1019 1311 708 
Q 1631 397 2203 397 
Q 2534 397 2845 478 
Q 3156 559 3463 722 
L 3463 178 
Q 3153 47 2828 -22 
Q 2503 -91 2169 -91 
Q 1331 -91 842 396 
Q 353 884 353 1716 
Q 353 2575 817 3079 
Q 1281 3584 2069 3584 
Q 2775 3584 3186 3129 
Q 3597 2675 3597 1894 
z
M 3022 2063 
Q 3016 2534 2758 2815 
Q 2500 3097 2075 3097 
Q 1594 3097 1305 2825 
Q 1016 2553 972 2059 
L 3022 2063 
z
" transform="scale(0.015625)"/>
      <path id="DejaVuSans-66" d="M 2375 4863 
L 2375 4384 
L 1825 4384 
Q 1516 4384 1395 4259 
Q 1275 4134 1275 3809 
L 1275 3500 
L 2222 3500 
L 2222 3053 
L 1275 3053 
L 1275 0 
L 697 0 
L 697 3053 
L 147 3053 
L 147 3500 
L 697 3500 
L 697 3744 
Q 697 4328 969 4595 
Q 1241 4863 1831 4863 
L 2375 4863 
z
" transform="scale(0.015625)"/>
      <path id="DejaVuSans-5f" d="M 3263 -1063 
L 3263 -1509 
L -63 -1509 
L -63 -1063 
L 3263 -1063 
z
" transform="scale(0.015625)"/>
      <path id="DejaVuSans-6d" d="M 3328 2828 
Q 3544 3216 3844 3400 
Q 4144 3584 4550 3584 
Q 5097 3584 5394 3201 
Q 5691 2819 5691 2113 
L 5691 0 
L 5113 0 
L 5113 2094 
Q 5113 2597 4934 2840 
Q 4756 3084 4391 3084 
Q 3944 3084 3684 2787 
Q 3425 2491 3425 1978 
L 3425 0 
L 2847 0 
L 2847 2094 
Q 2847 2600 2669 2842 
Q 2491 3084 2119 3084 
Q 1678 3084 1418 2786 
Q 1159 2488 1159 1978 
L 1159 0 
L 581 0 
L 581 3500 
L 1159 3500 
L 1159 2956 
Q 1356 3278 1631 3431 
Q 1906 3584 2284 3584 
Q 2666 3584 2933 3390 
Q 3200 3197 3328 2828 
z
" transform="scale(0.015625)"/>
      <path id="DejaVuSans-69" d="M 603 3500 
L 1178 3500 
L 1178 0 
L 603 0 
L 603 3500 
z
M 603 4863 
L 1178 4863 
L 1178 4134 
L 603 4134 
L 603 4863 
z
" transform="scale(0.015625)"/>
      <path id="DejaVuSans-6e" d="M 3513 2113 
L 3513 0 
L 2938 0 
L 2938 2094 
Q 2938 2591 2744 2837 
Q 2550 3084 2163 3084 
Q 1697 3084 1428 2787 
Q 1159 2491 1159 1978 
L 1159 0 
L 581 0 
L 581 3500 
L 1159 3500 
L 1159 2956 
Q 1366 3272 1645 3428 
Q 1925 3584 2291 3584 
Q 2894 3584 3203 3211 
Q 3513 2838 3513 2113 
z
" transform="scale(0.015625)"/>
      <path id="DejaVuSans-48" d="M 628 4666 
L 1259 4666 
L 1259 2753 
L 3553 2753 
L 3553 4666 
L 4184 4666 
L 4184 0 
L 3553 0 
L 3553 2222 
L 1259 2222 
L 1259 0 
L 628 0 
L 628 4666 
z
" transform="scale(0.015625)"/>
      <path id="DejaVuSans-7a" d="M 353 3500 
L 3084 3500 
L 3084 2975 
L 922 459 
L 3084 459 
L 3084 0 
L 275 0 
L 275 525 
L 2438 3041 
L 353 3041 
L 353 3500 
z
" transform="scale(0.015625)"/>
     </defs>
     <use xlink:href="#DejaVuSans-4d"/>
     <use xlink:href="#DejaVuSans-3d" transform="translate(86.279297 0)"/>
     <use xlink:href="#DejaVuSans-36" transform="translate(170.068359 0)"/>
     <use xlink:href="#DejaVuSans-30" transform="translate(233.691406 0)"/>
     <use xlink:href="#DejaVuSans-2c" transform="translate(297.314453 0)"/>
     <use xlink:href="#DejaVuSans-20" transform="translate(329.101562 0)"/>
     <use xlink:href="#DejaVuSans-65" transform="translate(360.888672 0)"/>
     <use xlink:href="#DejaVuSans-3d" transform="translate(422.412109 0)"/>
     <use xlink:href="#DejaVuSans-30" transform="translate(506.201172 0)"/>
     <use xlink:href="#DejaVuSans-2e" transform="translate(569.824219 0)"/>
     <use xlink:href="#DejaVuSans-31" transform="translate(601.611328 0)"/>
     <use xlink:href="#DejaVuSans-2c" transform="translate(665.234375 0)"/>
     <use xlink:href="#DejaVuSans-20" transform="translate(697.021484 0)"/>
     <use xlink:href="#DejaVuSans-66" transform="translate(728.808594 0)"/>
     <use xlink:href="#DejaVuSans-5f" transform="translate(764.013672 0)"/>
     <use xlink:href="#DejaVuSans-6d" transform="translate(814.013672 0)"/>
     <use xlink:href="#DejaVuSans-69" transform="translate(911.425781 0)"/>
     <use xlink:href="#DejaVuSans-6e" transform="translate(939.208984 0)"/>
     <use xlink:href="#DejaVuSans-3d" transform="translate(1002.587891 0)"/>
     <use xlink:href="#DejaVuSans-31" transform="translate(1086.376953 0)"/>
     <use xlink:href="#DejaVuSans-30" transform="translate(1150 0)"/>
     <use xlink:href="#DejaVuSans-20" transform="translate(1213.623047 0)"/>
     <use xlink:href="#DejaVuSans-48" transform="translate(1245.410156 0)"/>
     <use xlink:href="#DejaVuSans-7a" transform="translate(1320.605469 0)"/>
    </g>
   </g>
   <g id="legend_1">
    <g id="patch_7">
     <path d="M 59.160938 59.674375 
L 123.960938 59.674375 
Q 125.960938 59.674375 125.960938 57.674375 
L 125.960938 29.318125 
Q 125.960938 27.318125 123.960938 27.318125 
L 59.160938 27.318125 
Q 57.160938 27.318125 57.160938 29.318125 
L 57.160938 57.674375 
Q 57.160938 59.674375 59.160938 59.674375 
z
" style="fill: #ffffff; opacity: 0.8; stroke: #cccccc; stroke-linejoin: miter"/>
    </g>
    <g id="line2d_29">
     <path d="M 61.160938 35.416562 
L 71.160938 35.416562 
L 81.160938 35.416562 
" style="fill: none; stroke: #1f77b4; stroke-width: 0.6; stroke-linecap: square"/>
    </g>
    <g id="text_17">
     <!-- $h_+$ -->
     <g transform="translate(89.160938 38.916562) scale(0.1 -0.1)">
      <defs>
       <path id="DejaVuSans-2b" d="M 2944 4013 
L 2944 2272 
L 4684 2272 
L 4684 1741 
L 2944 1741 
L 2944 0 
L 2419 0 
L 2419 1741 
L 678 1741 
L 678 2272 
L 2419 2272 
L 2419 4013 
L 2944 4013 
z
" transform="scale(0.015625)"/>
      </defs>
      <use xlink:href="#DejaVuSans-Oblique-68" transform="translate(0 0.015625)"/>
      <use xlink:href="#DejaVuSans-2b" transform="translate(77.016602 -16.390625) scale(0.7)"/>
     </g>
    </g>
    <g id="line2d_30">
     <path d="M 61.160938 50.094688 
L 71.160938 50.094688 
L 81.160938 50.094688 
" style="fill: none; stroke: #ff7f0e; stroke-width: 0.6; stroke-linecap: square"/>
    </g>
    <g id="text_18">
     <!-- $h_	imes$ -->
     <g transform="translate(89.160938 53.594688) scale(0.1 -0.1)">
      <defs>
       <path id="DejaVuSans-Oblique-69" d="M 1172 4863 
L 1747 4863 
L 1606 4134 
L 1031 4134 
L 1172 4863 
z
M 909 3500 
L 1484 3500 
L 800 0 
L 225 0 
L 909 3500 
z
" transform="scale(0.015625)"/>
       <path id="DejaVuSans-Oblique-6d" d="M 5747 2113 
L 5338 0 
L 4763 0 
L 5166 2094 
Q 5191 2228 5203 2325 
Q 5216 2422 5216 2491 
Q 5216 2772 5059 2928 
Q 4903 3084 4622 3084 
Q 4203 3084 3875 2770 
Q 3547 2456 3450 1953 
L 3066 0 
L 2491 0 
L 2900 2094 
Q 2925 2209 2937 2307 
Q 2950 2406 2950 2484 
Q 2950 2769 2794 2926 
Q 2638 3084 2363 3084 
Q 1938 3084 1609 2770 
Q 1281 2456 1184 1953 
L 800 0 
L 225 0 
L 909 3500 
L 1484 3500 
L 1375 2956 
Q 1609 3263 1923 3423 
Q 2238 3584 2597 3584 
Q 2978 3584 3223 3384 
Q 3469 3184 3519 2828 
Q 3781 3197 4126 3390 
Q 4472 3584 4856 3584 
Q 5306 3584 5551 3325 
Q 5797 3066 5797 2591 
Q 5797 2488 5784 2364 
Q 5772 2241 5747 2113 
z
" transform="scale(0.015625)"/>
       <path id="DejaVuSans-Oblique-65" d="M 3078 2063 
Q 3088 2113 3092 2166 
Q 3097 2219 3097 2272 
Q 3097 2653 2873 2875 
Q 2650 3097 2266 3097 
Q 1838 3097 1509 2826 
Q 1181 2556 1013 2059 
L 3078 2063 
z
M 3578 1613 
L 903 1613 
Q 884 1494 878 1425 
Q 872 1356 872 1306 
Q 872 872 1139 634 
Q 1406 397 1894 397 
Q 2269 397 2603 481 
Q 2938 566 3225 728 
L 3116 159 
Q 2806 34 2476 -28 
Q 2147 -91 1806 -91 
Q 1078 -91 686 257 
Q 294 606 294 1247 
Q 294 1794 489 2264 
Q 684 2734 1063 3103 
Q 1306 3334 1642 3459 
Q 1978 3584 2356 3584 
Q 2950 3584 3301 3228 
Q 3653 2872 3653 2272 
Q 3653 2128 3634 1964 
Q 3616 1800 3578 1613 
z
" transform="scale(0.015625)"/>
       <path id="DejaVuSans-Oblique-73" d="M 3200 3397 
L 3091 2853 
Q 2863 2978 2609 3040 
Q 2356 3103 2088 3103 
Q 1634 3103 1373 2948 
Q 1113 2794 1113 2528 
Q 1113 2219 1719 2053 
Q 1766 2041 1788 2034 
L 1972 1978 
Q 2547 1819 2739 1644 
Q 2931 1469 2931 1166 
Q 2931 609 2489 259 
Q 2047 -91 1331 -91 
Q 1053 -91 747 -37 
Q 441 16 72 128 
L 184 722 
Q 500 559 806 475 
Q 1113 391 1394 391 
Q 1816 391 2080 572 
Q 2344 753 2344 1031 
Q 2344 1331 1650 1516 
L 1591 1531 
L 1394 1581 
Q 956 1697 753 1886 
Q 550 2075 550 2369 
Q 550 2928 970 3256 
Q 1391 3584 2113 3584 
Q 2397 3584 2667 3537 
Q 2938 3491 3200 3397 
z
" transform="scale(0.015625)"/>
      </defs>
      <use xlink:href="#DejaVuSans-Oblique-68" transform="translate(0 0.015625)"/>
      <use xlink:href="#DejaVuSans-20" transform="translate(63.378906 -16.390625) scale(0.7)"/>
      <use xlink:href="#DejaVuSans-Oblique-69" transform="translate(88.364258 0.015625)"/>
      <use xlink:href="#DejaVuSans-Oblique-6d" transform="translate(116.147461 0.015625)"/>
      <use xlink:href="#DejaVuSans-Oblique-65" transform="translate(213.55957 0.015625)"/>
      <use xlink:href="#DejaVuSans-Oblique-73" transform="translate(275.083008 0.015625)"/>
     </g>
    </g>
   </g>
  </g>
 </g>
 <defs>
  <clipPath id="p8764160b21">
   <rect x="52.160938" y="22.318125" width="795.094" height="291.16"/>
  </clipPath>
 </defs>
</svg>
