<?xml version="1.0" encoding="utf-8" standalone="no"?>
<!DOCTYPE svg PUBLIC "-//W3C//DTD SVG 1.1//EN"
  "http://www.w3.org/Graphics/SVG/1.1/DTD/svg11.dtd">
<svg xmlns:xlink="http://www.w3.org/1999/xlink" width="854.454937pt" height="351.034375pt" viewBox="0 0 854.454937 351.034375" xmlns="http://www.w3.org/2000/svg" version="1.1">
 <metadata>
  <rdf:RDF xmlns:dc="http://purl.org/dc/elements/1.1/" xmlns:cc="http://creativecommons.org/ns#" xmlns:rdf="http://www.w3.org/1999/02/22-rdf-syntax-ns#">
   <cc:Work>
    <dc:type rdf:resource="http://purl.org/dc/dcmitype/StillImage"/>
    <dc:date>2025-07-24T14:39:29.084871</dc:date>
    <dc:format>image/svg+xml</dc:format>
    <dc:creator>
     <cc:Agent>
      <dc:title>Matplotlib v3.10.3, https://matplotlib.org/</dc:title>
     </cc:Agent>
    </dc:creator>
   </cc:Work>
  </rdf:RDF>
 </metadata>
 <defs>
  <style type="text/css">*{stroke-linejoin: round; stroke-linecap: butt}</style>
 </defs>
 <g id="figure_1">
  <g id="patch_1">
   <path d="M 0 351.034375 
L 854.454937 351.034375 
L 854.454937 0 
L 0 0 
z
" style="fill: #ffffff"/>
  </g>
  <g id="axes_1">
   <g id="patch_2">
    <path d="M 52.160938 313.478125 
L 847.254938 313.478125 
L 847.254938 22.318125 
L 52.160938 22.318125 
z
" style="fill: #ffffff"/>
   </g>
   <g id="matplotlib.axis_1">
    <g id="xtick_1">
     <g id="line2d_1">
      <path d="M 63.594365 313.478125 
L 63.594365 22.318125 
" clip-path="url(#p3d5bb2123f)" style="fill: none; stroke: #b0b0b0; stroke-width: 0.8; stroke-linecap: square"/>
     </g>
     <g id="line2d_2">
      <defs>
       <path id="m77054f9b42" d="M 0 0 
L 0 3.5 
" style="stroke: #000000; stroke-width: 0.8"/>
      </defs>
      <g>
       <use xlink:href="#m77054f9b42" x="63.594365" y="313.478125" style="stroke: #000000; stroke-width: 0.8"/>
      </g>
     </g>
     <g id="text_1">
      <!-- −14000 -->
      <g transform="translate(43.498271 328.076563) scale(0.1 -0.1)">
       <defs>
        <path id="DejaVuSans-2212" d="M 678 2272 
L 4684 2272 
L 4684 1741 
L 678 1741 
L 678 2272 
z
" transform="scale(0.015625)"/>
        <path id="DejaVuSans-31" d="M 794 531 
L 1825 531 
L 1825 4091 
L 703 3866 
L 703 4441 
L 1819 4666 
L 2450 4666 
L 2450 531 
L 3481 531 
L 3481 0 
L 794 0 
L 794 531 
z
" transform="scale(0.015625)"/>
        <path id="DejaVuSans-34" d="M 2419 4116 
L 825 1625 
L 2419 1625 
L 2419 4116 
z
M 2253 4666 
L 3047 4666 
L 3047 1625 
L 3713 1625 
L 3713 1100 
L 3047 1100 
L 3047 0 
L 2419 0 
L 2419 1100 
L 313 1100 
L 313 1709 
L 2253 4666 
z
" transform="scale(0.015625)"/>
        <path id="DejaVuSans-30" d="M 2034 4250 
Q 1547 4250 1301 3770 
Q 1056 3291 1056 2328 
Q 1056 1369 1301 889 
Q 1547 409 2034 409 
Q 2525 409 2770 889 
Q 3016 1369 3016 2328 
Q 3016 3291 2770 3770 
Q 2525 4250 2034 4250 
z
M 2034 4750 
Q 2819 4750 3233 4129 
Q 3647 3509 3647 2328 
Q 3647 1150 3233 529 
Q 2819 -91 2034 -91 
Q 1250 -91 836 529 
Q 422 1150 422 2328 
Q 422 3509 836 4129 
Q 1250 4750 2034 4750 
z
" transform="scale(0.015625)"/>
       </defs>
       <use xlink:href="#DejaVuSans-2212"/>
       <use xlink:href="#DejaVuSans-31" transform="translate(83.789062 0)"/>
       <use xlink:href="#DejaVuSans-34" transform="translate(147.412109 0)"/>
       <use xlink:href="#DejaVuSans-30" transform="translate(211.035156 0)"/>
       <use xlink:href="#DejaVuSans-30" transform="translate(274.658203 0)"/>
       <use xlink:href="#DejaVuSans-30" transform="translate(338.28125 0)"/>
      </g>
     </g>
    </g>
    <g id="xtick_2">
     <g id="line2d_3">
      <path d="M 169.868736 313.478125 
L 169.868736 22.318125 
" clip-path="url(#p3d5bb2123f)" style="fill: none; stroke: #b0b0b0; stroke-width: 0.8; stroke-linecap: square"/>
     </g>
     <g id="line2d_4">
      <g>
       <use xlink:href="#m77054f9b42" x="169.868736" y="313.478125" style="stroke: #000000; stroke-width: 0.8"/>
      </g>
     </g>
     <g id="text_2">
      <!-- −12000 -->
      <g transform="translate(149.772643 328.076563) scale(0.1 -0.1)">
       <defs>
        <path id="DejaVuSans-32" d="M 1228 531 
L 3431 531 
L 3431 0 
L 469 0 
L 469 531 
Q 828 903 1448 1529 
Q 2069 2156 2228 2338 
Q 2531 2678 2651 2914 
Q 2772 3150 2772 3378 
Q 2772 3750 2511 3984 
Q 2250 4219 1831 4219 
Q 1534 4219 1204 4116 
Q 875 4013 500 3803 
L 500 4441 
Q 881 4594 1212 4672 
Q 1544 4750 1819 4750 
Q 2544 4750 2975 4387 
Q 3406 4025 3406 3419 
Q 3406 3131 3298 2873 
Q 3191 2616 2906 2266 
Q 2828 2175 2409 1742 
Q 1991 1309 1228 531 
z
" transform="scale(0.015625)"/>
       </defs>
       <use xlink:href="#DejaVuSans-2212"/>
       <use xlink:href="#DejaVuSans-31" transform="translate(83.789062 0)"/>
       <use xlink:href="#DejaVuSans-32" transform="translate(147.412109 0)"/>
       <use xlink:href="#DejaVuSans-30" transform="translate(211.035156 0)"/>
       <use xlink:href="#DejaVuSans-30" transform="translate(274.658203 0)"/>
       <use xlink:href="#DejaVuSans-30" transform="translate(338.28125 0)"/>
      </g>
     </g>
    </g>
    <g id="xtick_3">
     <g id="line2d_5">
      <path d="M 276.143107 313.478125 
L 276.143107 22.318125 
" clip-path="url(#p3d5bb2123f)" style="fill: none; stroke: #b0b0b0; stroke-width: 0.8; stroke-linecap: square"/>
     </g>
     <g id="line2d_6">
      <g>
       <use xlink:href="#m77054f9b42" x="276.143107" y="313.478125" style="stroke: #000000; stroke-width: 0.8"/>
      </g>
     </g>
     <g id="text_3">
      <!-- −10000 -->
      <g transform="translate(256.047014 328.076563) scale(0.1 -0.1)">
       <use xlink:href="#DejaVuSans-2212"/>
       <use xlink:href="#DejaVuSans-31" transform="translate(83.789062 0)"/>
       <use xlink:href="#DejaVuSans-30" transform="translate(147.412109 0)"/>
       <use xlink:href="#DejaVuSans-30" transform="translate(211.035156 0)"/>
       <use xlink:href="#DejaVuSans-30" transform="translate(274.658203 0)"/>
       <use xlink:href="#DejaVuSans-30" transform="translate(338.28125 0)"/>
      </g>
     </g>
    </g>
    <g id="xtick_4">
     <g id="line2d_7">
      <path d="M 382.417479 313.478125 
L 382.417479 22.318125 
" clip-path="url(#p3d5bb2123f)" style="fill: none; stroke: #b0b0b0; stroke-width: 0.8; stroke-linecap: square"/>
     </g>
     <g id="line2d_8">
      <g>
       <use xlink:href="#m77054f9b42" x="382.417479" y="313.478125" style="stroke: #000000; stroke-width: 0.8"/>
      </g>
     </g>
     <g id="text_4">
      <!-- −8000 -->
      <g transform="translate(365.502635 328.076563) scale(0.1 -0.1)">
       <defs>
        <path id="DejaVuSans-38" d="M 2034 2216 
Q 1584 2216 1326 1975 
Q 1069 1734 1069 1313 
Q 1069 891 1326 650 
Q 1584 409 2034 409 
Q 2484 409 2743 651 
Q 3003 894 3003 1313 
Q 3003 1734 2745 1975 
Q 2488 2216 2034 2216 
z
M 1403 2484 
Q 997 2584 770 2862 
Q 544 3141 544 3541 
Q 544 4100 942 4425 
Q 1341 4750 2034 4750 
Q 2731 4750 3128 4425 
Q 3525 4100 3525 3541 
Q 3525 3141 3298 2862 
Q 3072 2584 2669 2484 
Q 3125 2378 3379 2068 
Q 3634 1759 3634 1313 
Q 3634 634 3220 271 
Q 2806 -91 2034 -91 
Q 1263 -91 848 271 
Q 434 634 434 1313 
Q 434 1759 690 2068 
Q 947 2378 1403 2484 
z
M 1172 3481 
Q 1172 3119 1398 2916 
Q 1625 2713 2034 2713 
Q 2441 2713 2670 2916 
Q 2900 3119 2900 3481 
Q 2900 3844 2670 4047 
Q 2441 4250 2034 4250 
Q 1625 4250 1398 4047 
Q 1172 3844 1172 3481 
z
" transform="scale(0.015625)"/>
       </defs>
       <use xlink:href="#DejaVuSans-2212"/>
       <use xlink:href="#DejaVuSans-38" transform="translate(83.789062 0)"/>
       <use xlink:href="#DejaVuSans-30" transform="translate(147.412109 0)"/>
       <use xlink:href="#DejaVuSans-30" transform="translate(211.035156 0)"/>
       <use xlink:href="#DejaVuSans-30" transform="translate(274.658203 0)"/>
      </g>
     </g>
    </g>
    <g id="xtick_5">
     <g id="line2d_9">
      <path d="M 488.69185 313.478125 
L 488.69185 22.318125 
" clip-path="url(#p3d5bb2123f)" style="fill: none; stroke: #b0b0b0; stroke-width: 0.8; stroke-linecap: square"/>
     </g>
     <g id="line2d_10">
      <g>
       <use xlink:href="#m77054f9b42" x="488.69185" y="313.478125" style="stroke: #000000; stroke-width: 0.8"/>
      </g>
     </g>
     <g id="text_5">
      <!-- −6000 -->
      <g transform="translate(471.777006 328.076563) scale(0.1 -0.1)">
       <defs>
        <path id="DejaVuSans-36" d="M 2113 2584 
Q 1688 2584 1439 2293 
Q 1191 2003 1191 1497 
Q 1191 994 1439 701 
Q 1688 409 2113 409 
Q 2538 409 2786 701 
Q 3034 994 3034 1497 
Q 3034 2003 2786 2293 
Q 2538 2584 2113 2584 
z
M 3366 4563 
L 3366 3988 
Q 3128 4100 2886 4159 
Q 2644 4219 2406 4219 
Q 1781 4219 1451 3797 
Q 1122 3375 1075 2522 
Q 1259 2794 1537 2939 
Q 1816 3084 2150 3084 
Q 2853 3084 3261 2657 
Q 3669 2231 3669 1497 
Q 3669 778 3244 343 
Q 2819 -91 2113 -91 
Q 1303 -91 875 529 
Q 447 1150 447 2328 
Q 447 3434 972 4092 
Q 1497 4750 2381 4750 
Q 2619 4750 2861 4703 
Q 3103 4656 3366 4563 
z
" transform="scale(0.015625)"/>
       </defs>
       <use xlink:href="#DejaVuSans-2212"/>
       <use xlink:href="#DejaVuSans-36" transform="translate(83.789062 0)"/>
       <use xlink:href="#DejaVuSans-30" transform="translate(147.412109 0)"/>
       <use xlink:href="#DejaVuSans-30" transform="translate(211.035156 0)"/>
       <use xlink:href="#DejaVuSans-30" transform="translate(274.658203 0)"/>
      </g>
     </g>
    </g>
    <g id="xtick_6">
     <g id="line2d_11">
      <path d="M 594.966221 313.478125 
L 594.966221 22.318125 
" clip-path="url(#p3d5bb2123f)" style="fill: none; stroke: #b0b0b0; stroke-width: 0.8; stroke-linecap: square"/>
     </g>
     <g id="line2d_12">
      <g>
       <use xlink:href="#m77054f9b42" x="594.966221" y="313.478125" style="stroke: #000000; stroke-width: 0.8"/>
      </g>
     </g>
     <g id="text_6">
      <!-- −4000 -->
      <g transform="translate(578.051377 328.076563) scale(0.1 -0.1)">
       <use xlink:href="#DejaVuSans-2212"/>
       <use xlink:href="#DejaVuSans-34" transform="translate(83.789062 0)"/>
       <use xlink:href="#DejaVuSans-30" transform="translate(147.412109 0)"/>
       <use xlink:href="#DejaVuSans-30" transform="translate(211.035156 0)"/>
       <use xlink:href="#DejaVuSans-30" transform="translate(274.658203 0)"/>
      </g>
     </g>
    </g>
    <g id="xtick_7">
     <g id="line2d_13">
      <path d="M 701.240592 313.478125 
L 701.240592 22.318125 
" clip-path="url(#p3d5bb2123f)" style="fill: none; stroke: #b0b0b0; stroke-width: 0.8; stroke-linecap: square"/>
     </g>
     <g id="line2d_14">
      <g>
       <use xlink:href="#m77054f9b42" x="701.240592" y="313.478125" style="stroke: #000000; stroke-width: 0.8"/>
      </g>
     </g>
     <g id="text_7">
      <!-- −2000 -->
      <g transform="translate(684.325748 328.076563) scale(0.1 -0.1)">
       <use xlink:href="#DejaVuSans-2212"/>
       <use xlink:href="#DejaVuSans-32" transform="translate(83.789062 0)"/>
       <use xlink:href="#DejaVuSans-30" transform="translate(147.412109 0)"/>
       <use xlink:href="#DejaVuSans-30" transform="translate(211.035156 0)"/>
       <use xlink:href="#DejaVuSans-30" transform="translate(274.658203 0)"/>
      </g>
     </g>
    </g>
    <g id="xtick_8">
     <g id="line2d_15">
      <path d="M 807.514963 313.478125 
L 807.514963 22.318125 
" clip-path="url(#p3d5bb2123f)" style="fill: none; stroke: #b0b0b0; stroke-width: 0.8; stroke-linecap: square"/>
     </g>
     <g id="line2d_16">
      <g>
       <use xlink:href="#m77054f9b42" x="807.514963" y="313.478125" style="stroke: #000000; stroke-width: 0.8"/>
      </g>
     </g>
     <g id="text_8">
      <!-- 0 -->
      <g transform="translate(804.333713 328.076563) scale(0.1 -0.1)">
       <use xlink:href="#DejaVuSans-30"/>
      </g>
     </g>
    </g>
    <g id="text_9">
     <!-- t [s] -->
     <g transform="translate(439.652469 341.754687) scale(0.1 -0.1)">
      <defs>
       <path id="DejaVuSans-74" d="M 1172 4494 
L 1172 3500 
L 2356 3500 
L 2356 3053 
L 1172 3053 
L 1172 1153 
Q 1172 725 1289 603 
Q 1406 481 1766 481 
L 2356 481 
L 2356 0 
L 1766 0 
Q 1100 0 847 248 
Q 594 497 594 1153 
L 594 3053 
L 172 3053 
L 172 3500 
L 594 3500 
L 594 4494 
L 1172 4494 
z
" transform="scale(0.015625)"/>
       <path id="DejaVuSans-20" transform="scale(0.015625)"/>
       <path id="DejaVuSans-5b" d="M 550 4863 
L 1875 4863 
L 1875 4416 
L 1125 4416 
L 1125 -397 
L 1875 -397 
L 1875 -844 
L 550 -844 
L 550 4863 
z
" transform="scale(0.015625)"/>
       <path id="DejaVuSans-73" d="M 2834 3397 
L 2834 2853 
Q 2591 2978 2328 3040 
Q 2066 3103 1784 3103 
Q 1356 3103 1142 2972 
Q 928 2841 928 2578 
Q 928 2378 1081 2264 
Q 1234 2150 1697 2047 
L 1894 2003 
Q 2506 1872 2764 1633 
Q 3022 1394 3022 966 
Q 3022 478 2636 193 
Q 2250 -91 1575 -91 
Q 1294 -91 989 -36 
Q 684 19 347 128 
L 347 722 
Q 666 556 975 473 
Q 1284 391 1588 391 
Q 1994 391 2212 530 
Q 2431 669 2431 922 
Q 2431 1156 2273 1281 
Q 2116 1406 1581 1522 
L 1381 1569 
Q 847 1681 609 1914 
Q 372 2147 372 2553 
Q 372 3047 722 3315 
Q 1072 3584 1716 3584 
Q 2034 3584 2315 3537 
Q 2597 3491 2834 3397 
z
" transform="scale(0.015625)"/>
       <path id="DejaVuSans-5d" d="M 1947 4863 
L 1947 -844 
L 622 -844 
L 622 -397 
L 1369 -397 
L 1369 4416 
L 622 4416 
L 622 4863 
L 1947 4863 
z
" transform="scale(0.015625)"/>
      </defs>
      <use xlink:href="#DejaVuSans-74"/>
      <use xlink:href="#DejaVuSans-20" transform="translate(39.208984 0)"/>
      <use xlink:href="#DejaVuSans-5b" transform="translate(70.996094 0)"/>
      <use xlink:href="#DejaVuSans-73" transform="translate(110.009766 0)"/>
      <use xlink:href="#DejaVuSans-5d" transform="translate(162.109375 0)"/>
     </g>
    </g>
   </g>
   <g id="matplotlib.axis_2">
    <g id="ytick_1">
     <g id="line2d_17">
      <path d="M 52.160938 280.206086 
L 847.254938 280.206086 
" clip-path="url(#p3d5bb2123f)" style="fill: none; stroke: #b0b0b0; stroke-width: 0.8; stroke-linecap: square"/>
     </g>
     <g id="line2d_18">
      <defs>
       <path id="mc829c167b3" d="M 0 0 
L -3.5 0 
" style="stroke: #000000; stroke-width: 0.8"/>
      </defs>
      <g>
       <use xlink:href="#mc829c167b3" x="52.160938" y="280.206086" style="stroke: #000000; stroke-width: 0.8"/>
      </g>
     </g>
     <g id="text_10">
      <!-- −0.2 -->
      <g transform="translate(20.878125 284.005305) scale(0.1 -0.1)">
       <defs>
        <path id="DejaVuSans-2e" d="M 684 794 
L 1344 794 
L 1344 0 
L 684 0 
L 684 794 
z
" transform="scale(0.015625)"/>
       </defs>
       <use xlink:href="#DejaVuSans-2212"/>
       <use xlink:href="#DejaVuSans-30" transform="translate(83.789062 0)"/>
       <use xlink:href="#DejaVuSans-2e" transform="translate(147.412109 0)"/>
       <use xlink:href="#DejaVuSans-32" transform="translate(179.199219 0)"/>
      </g>
     </g>
    </g>
    <g id="ytick_2">
     <g id="line2d_19">
      <path d="M 52.160938 225.566856 
L 847.254938 225.566856 
" clip-path="url(#p3d5bb2123f)" style="fill: none; stroke: #b0b0b0; stroke-width: 0.8; stroke-linecap: square"/>
     </g>
     <g id="line2d_20">
      <g>
       <use xlink:href="#mc829c167b3" x="52.160938" y="225.566856" style="stroke: #000000; stroke-width: 0.8"/>
      </g>
     </g>
     <g id="text_11">
      <!-- −0.1 -->
      <g transform="translate(20.878125 229.366075) scale(0.1 -0.1)">
       <use xlink:href="#DejaVuSans-2212"/>
       <use xlink:href="#DejaVuSans-30" transform="translate(83.789062 0)"/>
       <use xlink:href="#DejaVuSans-2e" transform="translate(147.412109 0)"/>
       <use xlink:href="#DejaVuSans-31" transform="translate(179.199219 0)"/>
      </g>
     </g>
    </g>
    <g id="ytick_3">
     <g id="line2d_21">
      <path d="M 52.160938 170.927627 
L 847.254938 170.927627 
" clip-path="url(#p3d5bb2123f)" style="fill: none; stroke: #b0b0b0; stroke-width: 0.8; stroke-linecap: square"/>
     </g>
     <g id="line2d_22">
      <g>
       <use xlink:href="#mc829c167b3" x="52.160938" y="170.927627" style="stroke: #000000; stroke-width: 0.8"/>
      </g>
     </g>
     <g id="text_12">
      <!-- 0.0 -->
      <g transform="translate(29.257812 174.726845) scale(0.1 -0.1)">
       <use xlink:href="#DejaVuSans-30"/>
       <use xlink:href="#DejaVuSans-2e" transform="translate(63.623047 0)"/>
       <use xlink:href="#DejaVuSans-30" transform="translate(95.410156 0)"/>
      </g>
     </g>
    </g>
    <g id="ytick_4">
     <g id="line2d_23">
      <path d="M 52.160938 116.288397 
L 847.254938 116.288397 
" clip-path="url(#p3d5bb2123f)" style="fill: none; stroke: #b0b0b0; stroke-width: 0.8; stroke-linecap: square"/>
     </g>
     <g id="line2d_24">
      <g>
       <use xlink:href="#mc829c167b3" x="52.160938" y="116.288397" style="stroke: #000000; stroke-width: 0.8"/>
      </g>
     </g>
     <g id="text_13">
      <!-- 0.1 -->
      <g transform="translate(29.257812 120.087616) scale(0.1 -0.1)">
       <use xlink:href="#DejaVuSans-30"/>
       <use xlink:href="#DejaVuSans-2e" transform="translate(63.623047 0)"/>
       <use xlink:href="#DejaVuSans-31" transform="translate(95.410156 0)"/>
      </g>
     </g>
    </g>
    <g id="ytick_5">
     <g id="line2d_25">
      <path d="M 52.160938 61.649167 
L 847.254938 61.649167 
" clip-path="url(#p3d5bb2123f)" style="fill: none; stroke: #b0b0b0; stroke-width: 0.8; stroke-linecap: square"/>
     </g>
     <g id="line2d_26">
      <g>
       <use xlink:href="#mc829c167b3" x="52.160938" y="61.649167" style="stroke: #000000; stroke-width: 0.8"/>
      </g>
     </g>
     <g id="text_14">
      <!-- 0.2 -->
      <g transform="translate(29.257812 65.448386) scale(0.1 -0.1)">
       <use xlink:href="#DejaVuSans-30"/>
       <use xlink:href="#DejaVuSans-2e" transform="translate(63.623047 0)"/>
       <use xlink:href="#DejaVuSans-32" transform="translate(95.410156 0)"/>
      </g>
     </g>
    </g>
    <g id="text_15">
     <!-- $h_{22}]$ -->
     <g transform="translate(14.798438 177.648125) rotate(-90) scale(0.1 -0.1)">
      <defs>
       <path id="DejaVuSans-Oblique-68" d="M 3566 2113 
L 3156 0 
L 2578 0 
L 2988 2091 
Q 3016 2238 3031 2350 
Q 3047 2463 3047 2528 
Q 3047 2791 2881 2937 
Q 2716 3084 2419 3084 
Q 1956 3084 1617 2771 
Q 1278 2459 1178 1941 
L 800 0 
L 225 0 
L 1172 4863 
L 1747 4863 
L 1375 2950 
Q 1594 3244 1934 3414 
Q 2275 3584 2650 3584 
Q 3113 3584 3367 3334 
Q 3622 3084 3622 2631 
Q 3622 2519 3608 2391 
Q 3594 2263 3566 2113 
z
" transform="scale(0.015625)"/>
      </defs>
      <use xlink:href="#DejaVuSans-Oblique-68" transform="translate(0 0.015625)"/>
      <use xlink:href="#DejaVuSans-32" transform="translate(63.378906 -16.390625) scale(0.7)"/>
      <use xlink:href="#DejaVuSans-32" transform="translate(107.915039 -16.390625) scale(0.7)"/>
      <use xlink:href="#DejaVuSans-5d" transform="translate(155.185547 0.015625)"/>
     </g>
    </g>
   </g>
   <g id="line2d_27">
    <path d="M 88.301574 152.74154 
L 88.919438 159.310632 
L 89.713835 170.339136 
L 91.567427 197.337304 
L 92.097025 201.938965 
L 92.45009 203.568329 
L 92.714889 203.952798 
L 92.891421 203.798209 
L 93.15622 202.951426 
L 93.509286 200.714712 
L 93.950617 196.311683 
L 94.656747 186.451559 
L 96.775139 154.267076 
L 97.393003 148.481392 
L 97.922601 145.480565 
L 98.275666 144.464655 
L 98.540465 144.18761 
L 98.716997 144.218937 
L 98.981796 144.566901 
L 99.334861 145.539749 
L 99.776193 147.45422 
L 100.482323 151.736954 
L 101.629785 160.443553 
L 103.483377 174.45913 
L 104.542573 180.744949 
L 105.33697 184.293073 
L 106.0431 186.55796 
L 106.660964 187.857149 
L 107.190562 188.479737 
L 107.631893 188.667338 
L 107.984959 188.610657 
L 108.42629 188.294576 
L 108.955888 187.578164 
L 109.573752 186.317206 
L 110.368149 184.103738 
L 111.339078 180.650573 
L 112.663073 174.992733 
L 116.635056 157.31016 
L 117.517719 154.560703 
L 118.223849 153.020343 
L 118.753447 152.332993 
L 119.194779 152.109328 
L 119.547844 152.180184 
L 119.900909 152.488502 
L 120.342241 153.227595 
L 120.871838 154.661794 
L 121.489703 157.123532 
L 122.195833 160.994301 
L 122.99023 166.638402 
L 124.049425 175.878257 
L 126.167816 194.747568 
L 126.78568 198.157494 
L 127.138746 199.225216 
L 127.403545 199.519637 
L 127.580077 199.451541 
L 127.844876 198.926821 
L 128.197941 197.397913 
L 128.639273 194.112518 
L 129.168871 188.209977 
L 129.875001 177.556452 
L 131.993392 143.515474 
L 132.434724 139.766825 
L 132.787789 138.20639 
L 133.052588 137.909917 
L 133.22912 138.124878 
L 133.493919 139.044253 
L 133.846984 141.305828 
L 134.376582 146.573843 
L 135.170979 157.266779 
L 136.936305 181.73347 
L 137.642435 188.549867 
L 138.260299 192.503145 
L 138.701631 194.180807 
L 139.054696 194.875615 
L 139.319495 195.045895 
L 139.584294 194.938007 
L 139.849093 194.573958 
L 140.290424 193.460504 
L 140.820022 191.421485 
L 141.614419 187.302268 
L 142.938413 178.939997 
L 144.968538 166.251405 
L 146.027734 160.940536 
L 146.910397 157.531991 
L 147.616527 155.543617 
L 148.234391 154.364226 
L 148.763989 153.774282 
L 149.205321 153.578513 
L 149.646652 153.648537 
L 150.087984 153.979516 
L 150.617581 154.711771 
L 151.235445 156.009173 
L 151.941576 158.039415 
L 152.824239 161.315647 
L 153.883434 166.1463 
L 155.472228 174.575367 
L 157.590619 185.701309 
L 158.473282 189.280736 
L 159.091146 191.065908 
L 159.620744 191.97893 
L 159.973809 192.214974 
L 160.238608 192.174208 
L 160.503407 191.93278 
L 160.856472 191.278535 
L 161.297804 189.892463 
L 161.827401 187.348515 
L 162.445266 183.133095 
L 163.151396 176.735603 
L 164.122325 165.759337 
L 165.887651 145.463239 
L 166.417249 141.550037 
L 166.770314 140.039122 
L 167.035113 139.589459 
L 167.211646 139.643242 
L 167.388178 139.992827 
L 167.652977 141.086842 
L 168.006042 143.616756 
L 168.447374 148.432907 
L 169.065238 157.79445 
L 171.448428 197.661173 
L 171.88976 201.201078 
L 172.242825 202.625804 
L 172.507624 202.877374 
L 172.684156 202.670869 
L 172.948955 201.83259 
L 173.30202 199.819045 
L 173.831618 195.218756 
L 174.626015 186.007547 
L 176.567873 162.659327 
L 177.36227 155.881641 
L 177.980134 152.221645 
L 178.509732 150.209654 
L 178.951064 149.284565 
L 179.304129 149.000939 
L 179.568928 149.034756 
L 179.921993 149.382342 
L 180.363324 150.255048 
L 180.892922 151.856012 
L 181.599053 154.742562 
L 182.658248 160.169248 
L 186.541965 181.158106 
L 187.512895 184.80806 
L 188.307291 186.965438 
L 188.925155 188.06831 
L 189.454753 188.587204 
L 189.896085 188.70768 
L 190.24915 188.595451 
L 190.690481 188.191109 
L 191.220079 187.31658 
L 191.837943 185.762373 
L 192.544074 183.299359 
L 193.33847 179.704066 
L 194.397666 173.733229 
L 195.898193 163.775318 
L 197.575253 152.941476 
L 198.369649 149.133495 
L 198.899247 147.487669 
L 199.252312 146.90205 
L 199.517111 146.772339 
L 199.78191 146.933548 
L 200.046709 147.40689 
L 200.399774 148.555429 
L 200.841106 150.869106 
L 201.370704 154.97278 
L 201.988568 161.530744 
L 202.871231 173.560665 
L 204.54829 197.270266 
L 205.077888 202.003199 
L 205.430953 203.744236 
L 205.695752 204.192092 
L 205.872285 204.057757 
L 206.137084 203.192143 
L 206.490149 200.808426 
L 206.931481 195.980533 
L 207.549345 186.426459 
L 209.844268 147.509447 
L 210.373866 142.921232 
L 210.726931 141.263229 
L 210.99173 140.740946 
L 211.168263 140.720622 
L 211.344795 140.948914 
L 211.609594 141.726512 
L 211.96266 143.490843 
L 212.492257 147.407691 
L 213.286654 155.164501 
L 215.581578 178.639175 
L 216.375975 184.439343 
L 217.082105 188.112238 
L 217.699969 190.169038 
L 218.141301 191.003293 
L 218.494366 191.310995 
L 218.847431 191.317853 
L 219.200496 191.043238 
L 219.641828 190.335676 
L 220.171425 189.008026 
L 220.877556 186.548304 
L 221.760219 182.614046 
L 223.17248 175.115693 
L 225.820469 160.935668 
L 226.879664 156.527454 
L 227.674061 154.080444 
L 228.291925 152.797897 
L 228.821523 152.186392 
L 229.174588 152.048809 
L 229.527653 152.139008 
L 229.880718 152.465735 
L 230.32205 153.217782 
L 230.851648 154.637546 
L 231.469512 157.016373 
L 232.175642 160.672139 
L 233.058305 166.537304 
L 234.205767 175.807956 
L 236.235892 192.438311 
L 236.853756 195.917919 
L 237.295088 197.458711 
L 237.648153 197.981455 
L 237.824685 197.975427 
L 238.001218 197.77766 
L 238.266017 197.102365 
L 238.619082 195.45881 
L 239.060414 192.165697 
L 239.590011 186.41778 
L 240.296142 176.101166 
L 242.502799 141.169754 
L 242.944131 137.784734 
L 243.20893 136.823814 
L 243.385462 136.657104 
L 243.561995 136.875156 
L 243.826794 137.917762 
L 244.179859 140.586452 
L 244.62119 145.746485 
L 245.327321 157.063496 
L 247.180913 188.342936 
L 247.798777 194.836214 
L 248.240109 197.68112 
L 248.593174 198.887002 
L 248.857973 199.199416 
L 249.034505 199.143126 
L 249.299304 198.689873 
L 249.652369 197.463033 
L 250.181967 194.508406 
L 250.888098 189.067351 
L 252.476891 174.381667 
L 253.712619 163.980577 
L 254.595282 158.218225 
L 255.301413 154.836256 
L 255.919277 152.813438 
L 256.448875 151.769511 
L 256.890206 151.370751 
L 257.243271 151.347568 
L 257.596336 151.575416 
L 258.037668 152.194105 
L 258.567266 153.390494 
L 259.18513 155.348124 
L 259.979527 158.621286 
L 261.038722 163.993505 
L 263.068847 175.799303 
L 264.569374 183.942837 
L 265.540303 188.057258 
L 266.246434 190.152197 
L 266.776032 191.10142 
L 267.129097 191.396373 
L 267.482162 191.39672 
L 267.835227 191.083408 
L 268.188292 190.439592 
L 268.629624 189.149098 
L 269.159222 186.86439 
L 269.777086 183.174561 
L 270.571482 176.887493 
L 271.630678 166.351567 
L 273.572537 146.572528 
L 274.190401 142.641694 
L 274.543466 141.440932 
L 274.808265 141.142839 
L 274.984797 141.258287 
L 275.249596 141.932181 
L 275.602662 143.807954 
L 276.043993 147.753783 
L 276.573591 154.719841 
L 277.367988 168.694522 
L 278.868515 196.168743 
L 279.398112 202.321886 
L 279.751178 204.640711 
L 280.015977 205.355639 
L 280.192509 205.337508 
L 280.369042 204.929293 
L 280.633841 203.612605 
L 280.986906 200.645785 
L 281.516504 194.052392 
L 282.399167 179.68472 
L 283.723161 158.608326 
L 284.429292 150.720274 
L 284.958889 146.898575 
L 285.400221 145.099068 
L 285.753286 144.516594 
L 285.929819 144.491678 
L 286.194618 144.763095 
L 286.547683 145.651491 
L 286.989014 147.494808 
L 287.606878 151.155028 
L 288.577808 158.519461 
L 291.13753 178.698151 
L 292.10846 184.318773 
L 292.81459 187.30036 
L 293.432454 189.086032 
L 293.962052 189.992738 
L 294.403383 190.310199 
L 294.756449 190.282001 
L 295.109514 190.008675 
L 295.550845 189.332915 
L 296.080443 188.054317 
L 296.698307 185.962795 
L 297.492704 182.430383 
L 298.551899 176.533596 
L 300.228959 165.644816 
L 301.817753 155.75352 
L 302.700416 151.529342 
L 303.31828 149.512573 
L 303.759611 148.67902 
L 304.112676 148.433253 
L 304.377475 148.518105 
L 304.642274 148.84919 
L 304.995339 149.695022 
L 305.436671 151.435515 
L 305.966269 154.56361 
L 306.584133 159.64321 
L 307.378529 168.219199 
L 308.879057 187.760546 
L 309.76172 197.718659 
L 310.291317 201.570192 
L 310.644383 202.841245 
L 310.820915 203.024707 
L 310.997448 202.884766 
L 311.262247 202.042833 
L 311.615312 199.709643 
L 312.056643 194.878302 
L 312.674507 184.9784 
L 313.821969 161.50939 
L 314.704632 145.683162 
L 315.23423 139.634637 
L 315.587295 137.470938 
L 315.852094 136.876445 
L 316.028627 136.963338 
L 316.205159 137.423561 
L 316.469958 138.775176 
L 316.91129 142.592117 
L 317.529154 150.436152 
L 320.177143 187.687231 
L 320.795007 192.4613 
L 321.324605 194.883721 
L 321.67767 195.679252 
L 321.942469 195.873883 
L 322.207268 195.747372 
L 322.472067 195.323236 
L 322.825132 194.338087 
L 323.35473 192.086432 
L 324.06086 187.963588 
L 325.208322 179.642967 
L 327.503246 162.758223 
L 328.474175 157.282612 
L 329.268572 154.000634 
L 329.886436 152.292285 
L 330.416034 151.451793 
L 330.769099 151.219715 
L 331.122164 151.252725 
L 331.475229 151.550753 
L 331.916561 152.292666 
L 332.446159 153.712939 
L 333.064023 156.068858 
L 333.858419 160.111266 
L 334.829349 166.347078 
L 336.418142 178.349554 
L 337.918669 189.112663 
L 338.713066 193.252808 
L 339.242664 194.967963 
L 339.595729 195.52424 
L 339.860528 195.590803 
L 340.125327 195.331022 
L 340.390125 194.724211 
L 340.743191 193.345668 
L 341.184522 190.668437 
L 341.71412 186.039053 
L 342.42025 177.621576 
L 343.479446 161.667095 
L 344.626908 144.898257 
L 345.156506 139.632818 
L 345.509571 137.611449 
L 345.77437 137.025833 
L 345.950902 137.113823 
L 346.127435 137.598436 
L 346.392234 139.079122 
L 346.745299 142.438352 
L 347.274897 150.172819 
L 348.069294 166.031894 
L 349.393288 192.748839 
L 349.922886 199.793322 
L 350.364217 203.192129 
L 350.629016 204.097022 
L 350.805549 204.235612 
L 350.982081 204.016053 
L 351.24688 203.052669 
L 351.599946 200.699987 
L 352.129543 195.313375 
L 353.012206 183.337758 
L 354.601 161.591345 
L 355.395396 153.828587 
L 356.01326 149.817408 
L 356.542858 147.812606 
L 356.895923 147.177797 
L 357.160722 147.047702 
L 357.425521 147.196079 
L 357.778586 147.795772 
L 358.219918 149.12654 
L 358.837782 151.906418 
L 359.632179 156.67133 
L 360.956173 166.254547 
L 362.898032 180.174174 
L 363.868961 185.641906 
L 364.663358 188.903922 
L 365.281222 190.546793 
L 365.722553 191.195961 
L 366.075619 191.385006 
L 366.340418 191.329014 
L 366.693483 190.986354 
L 367.134814 190.123429 
L 367.664412 188.451655 
L 368.282276 185.644657 
L 368.988407 181.378598 
L 369.959336 173.951433 
L 371.724662 158.096831 
L 372.783857 149.611566 
L 373.401722 146.086472 
L 373.843053 144.557618 
L 374.196118 144.06635 
L 374.372651 144.094215 
L 374.63745 144.504803 
L 374.990515 145.782288 
L 375.431846 148.614184 
L 375.961444 153.851028 
L 376.579308 162.311934 
L 377.550238 179.093674 
L 378.697699 198.172851 
L 379.227297 203.846053 
L 379.580362 205.804308 
L 379.756895 206.156262 
L 379.933428 206.068258 
L 380.10996 205.532612 
L 380.374759 203.891556 
L 380.727824 200.200333 
L 381.257422 191.859071 
L 382.140085 173.353706 
L 383.287547 150.335061 
L 383.905411 142.374243 
L 384.346743 139.322613 
L 384.611542 138.569008 
L 384.788074 138.499369 
L 384.964607 138.759553 
L 385.229406 139.72834 
L 385.582471 141.985761 
L 386.112069 147.038453 
L 386.994732 158.162628 
L 388.671791 179.645403 
L 389.466188 187.051014 
L 390.084052 191.023501 
L 390.61365 193.140141 
L 391.054981 194.021992 
L 391.31978 194.185047 
L 391.584579 194.088146 
L 391.849378 193.745006 
L 392.202443 192.93034 
L 392.732041 191.02054 
L 393.438172 187.401779 
L 394.409101 180.98788 
L 398.028019 155.422216 
L 398.822416 151.915813 
L 399.352014 150.374943 
L 399.793345 149.640815 
L 400.14641 149.439489 
L 400.411209 149.523753 
L 400.764274 149.959571 
L 401.205606 151.036124 
L 401.735204 153.117144 
L 402.353068 156.617712 
L 403.059198 161.941068 
L 404.030127 171.139242 
L 406.501584 195.626398 
L 407.031182 198.620546 
L 407.384247 199.672145 
L 407.649046 199.876927 
L 407.825578 199.70973 
L 408.090377 198.974718 
L 408.443442 197.046573 
L 408.884774 193.06911 
L 409.414372 186.070557 
L 410.208768 171.902651 
L 411.797562 142.170397 
L 412.32716 136.50143 
L 412.680225 134.873616 
L 412.856757 134.772394 
L 413.03329 135.157649 
L 413.298089 136.640254 
L 413.651154 140.225272 
L 414.180752 148.55465 
L 415.063415 167.141607 
L 416.122611 188.720318 
L 416.740475 197.33787 
L 417.181806 200.998885 
L 417.534871 202.382506 
L 417.711404 202.57726 
L 417.887937 202.457547 
L 418.152735 201.724933 
L 418.505801 199.819288 
L 419.035398 195.332939 
L 419.829795 186.19701 
L 421.948186 160.581086 
L 422.742583 153.912397 
L 423.360447 150.406503 
L 423.890045 148.61061 
L 424.24311 148.020964 
L 424.507909 147.886139 
L 424.772708 148.004397 
L 425.125773 148.53651 
L 425.567105 149.76118 
L 426.096702 151.965177 
L 426.802833 155.94728 
L 427.773762 162.837104 
L 431.127881 187.917011 
L 431.834012 191.236795 
L 432.36361 192.849696 
L 432.804941 193.532171 
L 433.06974 193.628353 
L 433.334539 193.477145 
L 433.687604 192.876381 
L 434.128936 191.463867 
L 434.658533 188.782023 
L 435.276398 184.315942 
L 436.070794 176.655812 
L 437.218256 162.970663 
L 438.542251 147.486043 
L 439.160115 142.472242 
L 439.601446 140.49141 
L 439.866245 140.09958 
L 440.042778 140.207735 
L 440.307577 140.959846 
L 440.660642 143.114886 
L 441.101973 147.693587 
L 441.631571 155.792585 
L 442.425968 171.902838 
L 443.749962 198.960718 
L 444.27956 205.473639 
L 444.632625 207.497614 
L 444.809158 207.745188 
L 444.98569 207.473904 
L 445.250489 206.107983 
L 445.603555 202.597483 
L 446.133152 194.27634 
L 447.015815 175.659412 
L 448.075011 154.117144 
L 448.692875 145.456268 
L 449.134207 141.688059 
L 449.487272 140.165923 
L 449.752071 139.859744 
L 449.928603 140.029993 
L 450.193402 140.806228 
L 450.546467 142.713933 
L 451.076065 147.105014 
L 451.870462 155.971174 
L 454.077119 181.928434 
L 454.871516 188.3878 
L 455.48938 191.771563 
L 456.018978 193.475891 
L 456.372043 194.003506 
L 456.636842 194.088112 
L 456.901641 193.914475 
L 457.254706 193.297672 
L 457.696038 191.945057 
L 458.225635 189.548843 
L 458.931766 185.238707 
L 459.902695 177.776983 
L 462.992016 152.708267 
L 463.698146 149.119774 
L 464.227744 147.488445 
L 464.580809 146.98958 
L 464.845608 146.952527 
L 465.110407 147.220244 
L 465.463472 148.071289 
L 465.904803 149.955847 
L 466.434401 153.437416 
L 467.052265 159.125304 
L 467.846662 168.649813 
L 470.318118 200.20757 
L 470.75945 202.765593 
L 471.024249 203.367087 
L 471.200781 203.332783 
L 471.377314 202.929723 
L 471.642113 201.606465 
L 471.995178 198.471237 
L 472.43651 192.402104 
L 473.054374 180.470957 
L 474.996232 139.158381 
L 475.437564 134.762807 
L 475.702363 133.701698 
L 475.878895 133.678773 
L 476.055428 134.200506 
L 476.320227 135.970619 
L 476.673292 140.024723 
L 477.20289 149.035546 
L 478.438618 175.798864 
L 479.233015 190.444225 
L 479.762613 197.088005 
L 480.203944 200.390995 
L 480.557009 201.573361 
L 480.733542 201.700529 
L 480.910074 201.535719 
L 481.174873 200.776247 
L 481.527938 198.903501 
L 482.057536 194.578851 
L 482.851933 185.800199 
L 485.235123 158.065171 
L 485.941253 152.546297 
L 486.559118 149.306011 
L 487.000449 147.945804 
L 487.353514 147.431809 
L 487.618313 147.375833 
L 487.883112 147.595418 
L 488.236177 148.302217 
L 488.677509 149.815608 
L 489.207107 152.47611 
L 489.913237 157.250854 
L 490.884166 165.504307 
L 493.620422 189.94561 
L 494.326552 193.972506 
L 494.767883 195.524574 
L 495.120949 196.135603 
L 495.385748 196.19086 
L 495.650546 195.87908 
L 496.003612 194.865496 
L 496.444943 192.603206 
L 496.974541 188.41424 
L 497.592405 181.596091 
L 498.475068 168.979818 
L 500.240394 142.931252 
L 500.769992 138.443961 
L 501.123057 137.147716 
L 501.29959 137.091936 
L 501.476122 137.459146 
L 501.740921 138.833181 
L 502.093986 142.227433 
L 502.535318 148.88799 
L 503.153182 161.944865 
L 504.918508 202.134848 
L 505.359839 207.155232 
L 505.624638 208.504275 
L 505.801171 208.680199 
L 505.977703 208.280564 
L 506.242502 206.638479 
L 506.595568 202.663553 
L 507.125165 193.621563 
L 508.272627 168.387684 
L 509.15529 151.5931 
L 509.773154 143.992729 
L 510.214486 141.042147 
L 510.479285 140.254906 
L 510.655817 140.12094 
L 510.83235 140.284137 
L 511.097149 141.050962 
L 511.450214 142.951667 
L 511.979812 147.355775 
L 512.774209 156.326527 
L 515.157399 184.743343 
L 515.863529 190.320936 
L 516.481393 193.498225 
L 516.922725 194.736561 
L 517.27579 195.103449 
L 517.540589 195.019453 
L 517.805388 194.63451 
L 518.158453 193.668586 
L 518.599784 191.772626 
L 519.217648 187.956472 
L 520.012045 181.40855 
L 521.247773 168.9643 
L 522.836567 153.225395 
L 523.542697 148.070739 
L 524.072295 145.540391 
L 524.42536 144.63963 
L 524.690159 144.427808 
L 524.866692 144.522098 
L 525.13149 145.033299 
L 525.484556 146.431774 
L 525.925887 149.36424 
L 526.455485 154.606445 
L 527.161615 164.236447 
L 528.309077 183.796812 
L 529.280007 198.962226 
L 529.809604 204.203573 
L 530.16267 205.810227 
L 530.339202 205.949174 
L 530.515735 205.613105 
L 530.780534 204.185649 
L 531.133599 200.538075 
L 531.57493 193.310498 
L 532.192794 179.19831 
L 533.781588 140.58699 
L 534.222919 134.773609 
L 534.575985 132.762631 
L 534.752517 132.679652 
L 534.92905 133.204722 
L 535.193849 135.084629 
L 535.546914 139.438549 
L 536.076512 149.082333 
L 538.371435 195.488302 
L 538.812767 199.762966 
L 539.165832 201.611253 
L 539.430631 202.10913 
L 539.607164 202.039748 
L 539.783696 201.667282 
L 540.048495 200.579807 
L 540.489827 197.526704 
L 541.107691 191.227455 
L 542.166886 177.474917 
L 543.579147 159.583523 
L 544.373544 152.136873 
L 544.991408 148.262563 
L 545.432739 146.627814 
L 545.785805 146.018084 
L 546.050603 145.967229 
L 546.315402 146.259611 
L 546.668468 147.169131 
L 547.109799 149.101621 
L 547.639397 152.489727 
L 548.345527 158.546718 
L 549.404723 169.889285 
L 551.258315 190.088115 
L 551.964446 195.461143 
L 552.405777 197.570794 
L 552.758842 198.413359 
L 552.935375 198.52365 
L 553.111907 198.41432 
L 553.376706 197.821768 
L 553.729772 196.201551 
L 554.171103 192.810955 
L 554.700701 186.780599 
L 555.406831 175.835976 
L 557.613489 138.469761 
L 557.966554 135.768466 
L 558.231353 134.957701 
L 558.319619 134.940498 
L 558.496152 135.303509 
L 558.760951 136.868475 
L 559.114016 140.87167 
L 559.555347 148.768557 
L 560.261478 166.439428 
L 561.585472 200.50279 
L 562.026804 207.121621 
L 562.379869 209.617968 
L 562.556402 209.875659 
L 562.732934 209.476216 
L 562.997733 207.691511 
L 563.350798 203.298681 
L 563.880396 193.305167 
L 566.087053 146.169245 
L 566.528385 141.522838 
L 566.88145 139.516181 
L 567.146249 138.983288 
L 567.322782 139.068053 
L 567.499314 139.485307 
L 567.764113 140.690963 
L 568.205445 144.057213 
L 568.823309 150.964999 
L 569.970771 167.16976 
L 571.206499 183.710316 
L 571.912629 190.709731 
L 572.530493 194.770789 
L 572.971825 196.374181 
L 573.236624 196.803218 
L 573.413156 196.867289 
L 573.589689 196.755363 
L 573.854488 196.26263 
L 574.207553 195.017244 
L 574.648885 192.567917 
L 575.266749 187.651172 
L 576.061145 179.308822 
L 578.973933 146.363255 
L 579.503531 143.401637 
L 579.856596 142.482644 
L 580.033129 142.377158 
L 580.209661 142.521634 
L 580.47446 143.225472 
L 580.827526 145.104382 
L 581.268857 148.987983 
L 581.798455 155.817681 
L 582.504585 168.007255 
L 584.358178 202.298675 
L 584.799509 206.532201 
L 585.064308 207.611249 
L 585.240841 207.643753 
L 585.417373 207.096696 
L 585.682172 205.159872 
L 586.035237 200.504985 
L 586.564835 189.500457 
L 587.447498 164.537578 
L 588.330161 141.371139 
L 588.771492 134.171533 
L 589.124558 131.431867 
L 589.30109 131.139965 
L 589.477623 131.56556 
L 589.742422 133.499545 
L 590.095487 138.274871 
L 590.625085 149.118419 
L 592.743476 197.192161 
L 593.184807 201.900412 
L 593.537873 203.738588 
L 593.714405 204.031392 
L 593.890938 203.925842 
L 594.06747 203.441484 
L 594.332269 202.055507 
L 594.773601 198.210832 
L 595.391465 190.387554 
L 596.803726 168.254377 
L 597.774655 154.92492 
L 598.480785 148.140143 
L 599.010383 145.077193 
L 599.363448 144.065239 
L 599.628247 143.852577 
L 599.80478 143.968604 
L 600.069579 144.522063 
L 600.422644 145.944729 
L 600.863976 148.753717 
L 601.48184 154.375728 
L 602.364503 164.964725 
L 604.659426 193.994864 
L 605.189024 198.052237 
L 605.630356 199.926796 
L 605.895155 200.290095 
L 606.071687 200.189445 
L 606.336486 199.500486 
L 606.689551 197.544762 
L 607.130883 193.414234 
L 607.660481 186.096767 
L 608.454877 171.246328 
L 610.043671 140.097777 
L 610.485002 135.209219 
L 610.749801 133.794378 
L 610.926334 133.574525 
L 611.102866 133.969872 
L 611.367665 135.756121 
L 611.72073 140.3711 
L 612.162062 149.468033 
L 612.868192 169.537053 
L 614.015654 201.994983 
L 614.456986 209.208003 
L 614.721785 211.314598 
L 614.898317 211.727667 
L 614.986583 211.634892 
L 615.163116 210.85956 
L 615.427915 208.282892 
L 615.78098 202.486092 
L 616.398844 187.599933 
L 617.987638 146.862316 
L 618.517235 139.338874 
L 618.870301 136.815536 
L 619.1351 136.223455 
L 619.311632 136.419383 
L 619.576431 137.539408 
L 619.929496 140.414951 
L 620.459094 147.108301 
L 621.341757 162.01378 
L 622.754018 185.749523 
L 623.460148 193.984372 
L 623.989746 197.768379 
L 624.342811 199.0575 
L 624.60761 199.368928 
L 624.784143 199.267855 
L 625.048942 198.663618 
L 625.402007 197.04633 
L 625.843338 193.817779 
L 626.461202 187.36696 
L 627.343865 175.398984 
L 629.197458 149.415081 
L 629.815322 143.74411 
L 630.256653 141.444463 
L 630.521452 140.890605 
L 630.697985 140.893621 
L 630.874517 141.206714 
L 631.139316 142.274238 
L 631.492381 144.833161 
L 631.933713 149.834794 
L 632.551577 159.893058 
L 633.522506 180.414791 
L 634.493436 200.003194 
L 635.023033 206.715159 
L 635.287832 208.336692 
L 635.464365 208.662916 
L 635.552631 208.585726 
L 635.729164 207.934194 
L 635.993963 205.687409 
L 636.347028 200.339197 
L 636.876626 187.801378 
L 637.847555 157.160454 
L 638.553685 137.841534 
L 638.995017 130.835668 
L 639.259816 129.128375 
L 639.348082 129.002209 
L 639.436348 129.099043 
L 639.612881 129.955259 
L 639.87768 132.834969 
L 640.230745 139.346521 
L 640.848609 156.048152 
L 642.26087 196.262658 
L 642.790468 204.680818 
L 643.143533 207.284144 
L 643.320066 207.680238 
L 643.408332 207.659184 
L 643.584865 207.195657 
L 643.849663 205.511191 
L 644.202729 201.637729 
L 644.732326 193.136729 
L 645.968055 168.047458 
L 646.850718 152.415481 
L 647.468582 145.004556 
L 647.909913 141.925471 
L 648.262978 140.856938 
L 648.439511 140.7855 
L 648.616044 141.016221 
L 648.880843 141.91161 
L 649.233908 144.074838 
L 649.763506 149.169075 
L 650.469636 158.659708 
L 653.117625 197.398595 
L 653.558956 200.467364 
L 653.912022 201.592758 
L 654.088554 201.672306 
L 654.265087 201.415447 
L 654.529886 200.384208 
L 654.882951 197.789866 
L 655.324282 192.629068 
L 655.942146 182.202722 
L 656.913076 161.05206 
L 657.884005 141.214102 
L 658.325337 135.445032 
L 658.678402 133.235203 
L 658.854934 133.072313 
L 659.031467 133.586961 
L 659.296266 135.675675 
L 659.649331 140.927466 
L 660.090663 151.155883 
L 660.885059 176.424031 
L 661.767722 203.465791 
L 662.209054 211.545562 
L 662.473853 213.715726 
L 662.650385 213.936716 
L 662.826918 213.161714 
L 663.091717 210.178736 
L 663.444782 203.107863 
L 663.97438 187.498374 
L 665.386641 142.616202 
L 665.827972 134.806513 
L 666.181037 131.934379 
L 666.35757 131.637854 
L 666.534102 132.072279 
L 666.798901 134.006008 
L 667.151967 138.688254 
L 667.681564 149.108381 
L 669.799956 195.44161 
L 670.329553 201.173836 
L 670.682619 202.993273 
L 670.859151 203.299387 
L 671.035684 203.211827 
L 671.212216 202.741871 
L 671.477015 201.352863 
L 671.918347 197.375361 
L 672.536211 188.954955 
L 673.50714 171.794817 
L 674.742868 150.568001 
L 675.360732 143.261049 
L 675.802064 140.236118 
L 676.066863 139.441799 
L 676.243395 139.365583 
L 676.419928 139.662352 
L 676.684727 140.816802 
L 677.037792 143.67678 
L 677.479124 149.28621 
L 678.096988 160.419331 
L 680.391911 206.344792 
L 680.744977 208.536645 
L 680.921509 208.6711 
L 681.098042 208.115383 
L 681.362841 205.94144 
L 681.715906 200.530735 
L 682.157237 190.027652 
L 682.951634 164.093003 
L 683.834297 136.555676 
L 684.275629 128.742064 
L 684.540428 127.012606 
L 684.628694 126.97809 
L 684.805226 127.739947 
L 685.070025 130.935496 
L 685.423091 138.742585 
L 685.952688 156.255971 
L 687.276683 203.027151 
L 687.718014 211.033464 
L 687.982813 212.979038 
L 688.07108 213.142133 
L 688.159346 213.06672 
L 688.335878 212.220664 
L 688.600677 209.323162 
L 689.042009 200.828329 
L 689.748139 181.303638 
L 690.895601 149.746596 
L 691.425199 140.43858 
L 691.778264 136.899361 
L 692.043063 135.703957 
L 692.219596 135.591 
L 692.396128 136.006609 
L 692.660927 137.568793 
L 693.013992 141.240397 
L 693.54359 149.522212 
L 694.426253 167.679019 
L 695.661981 192.274366 
L 696.279845 200.253425 
L 696.721177 203.203986 
L 696.985976 203.740564 
L 697.162508 203.564721 
L 697.427307 202.494859 
L 697.780372 199.587608 
L 698.221704 193.718822 
L 698.839568 182.018336 
L 700.957959 137.271703 
L 701.311024 134.133704 
L 701.575823 133.405638 
L 701.66409 133.500046 
L 701.840622 134.216261 
L 702.105421 136.638369 
L 702.458486 142.374437 
L 702.988084 155.835476 
L 703.959013 188.823177 
L 704.665144 208.897548 
L 705.018209 214.215493 
L 705.194742 215.27059 
L 705.283008 215.363576 
L 705.371274 215.159318 
L 705.547807 213.849723 
L 705.812606 209.659335 
L 706.165671 200.245472 
L 706.783535 176.274782 
L 707.754464 137.954099 
L 708.195796 128.147972 
L 708.460595 125.806557 
L 708.548861 125.647459 
L 708.637127 125.797238 
L 708.81366 127.002368 
L 709.078459 130.93776 
L 709.51979 142.229527 
L 710.402453 173.765696 
L 711.19685 198.617881 
L 711.638182 206.870489 
L 711.991247 209.909946 
L 712.167779 210.228106 
L 712.344312 209.773772 
L 712.609111 207.731578 
L 712.962176 202.757215 
L 713.491774 191.597313 
L 715.610165 141.964449 
L 716.051496 137.359704 
L 716.316295 136.154959 
L 716.492828 136.021938 
L 716.669361 136.424821 
L 716.934159 138.015266 
L 717.287225 141.88481 
L 717.816822 150.964628 
L 718.611219 169.589192 
L 719.846947 198.625112 
L 720.376545 206.120854 
L 720.72961 208.227045 
L 720.906143 208.279319 
L 721.082676 207.625979 
L 721.347474 205.293771 
L 721.70054 199.684882 
L 722.230137 186.446987 
L 723.201067 153.759472 
L 723.907197 133.491129 
L 724.260262 127.957195 
L 724.525061 126.658514 
L 724.613328 126.825127 
L 724.78986 128.091515 
L 725.054659 132.330244 
L 725.407724 142.096372 
L 726.025588 167.553133 
L 726.996518 208.361305 
L 727.349583 216.50357 
L 727.614382 218.823696 
L 727.702648 218.826268 
L 727.879181 217.672661 
L 728.14398 213.159093 
L 728.497045 202.607025 
L 729.203175 172.226035 
L 729.997572 140.026861 
L 730.438903 129.703982 
L 730.703702 127.028688 
L 730.880235 126.750356 
L 731.056767 127.636633 
L 731.321566 130.993687 
L 731.674632 138.708809 
L 732.292496 158.098331 
L 733.439958 195.236036 
L 733.969555 205.659912 
L 734.322621 208.963376 
L 734.499153 209.460141 
L 734.587419 209.421042 
L 734.763952 208.779005 
L 735.028751 206.462577 
L 735.381816 201.077186 
L 735.911414 189.069293 
L 737.941539 137.387175 
L 738.294604 133.705698 
L 738.559403 132.812323 
L 738.647669 132.890374 
L 738.824202 133.621472 
L 739.089001 136.155722 
L 739.442066 142.125418 
L 739.971664 155.888826 
L 741.825256 211.445972 
L 742.090055 214.116689 
L 742.266587 214.477256 
L 742.44312 213.623389 
L 742.707919 210.005834 
L 743.060984 200.948516 
L 743.590582 179.950397 
L 744.82631 127.731045 
L 745.179375 121.879916 
L 745.267642 121.484042 
L 745.355908 121.539405 
L 745.532441 123.017269 
L 745.797239 128.577751 
L 746.150305 141.530322 
L 746.856435 178.351953 
L 747.562565 210.691849 
L 747.915631 218.860463 
L 748.092163 220.328765 
L 748.18043 220.389758 
L 748.356962 219.188883 
L 748.621761 214.275614 
L 748.974826 202.833063 
L 749.769223 166.584268 
L 750.475353 138.35958 
L 750.916685 128.755739 
L 751.181484 126.720533 
L 751.26975 126.672927 
L 751.446283 127.497055 
L 751.711082 130.899645 
L 752.064147 138.943533 
L 752.682011 159.553836 
L 753.829473 199.18275 
L 754.270804 208.26305 
L 754.623869 211.515265 
L 754.800402 211.694401 
L 754.976935 210.89901 
L 755.241734 207.923138 
L 755.594799 200.876175 
L 756.124396 185.036267 
L 757.71319 133.037647 
L 758.066255 128.34117 
L 758.242788 127.692389 
L 758.331054 127.823558 
L 758.507587 129.020409 
L 758.772385 133.159733 
L 759.125451 142.835935 
L 759.655048 164.39416 
L 760.80251 213.305029 
L 761.155576 219.76809 
L 761.332108 220.335028 
L 761.508641 218.967686 
L 761.77344 213.258986 
L 762.126505 199.368384 
L 762.832635 158.567701 
L 763.450499 126.872907 
L 763.803565 118.195358 
L 763.980097 117.369298 
L 764.15663 119.003332 
L 764.421429 125.888823 
L 764.774494 142.068815 
L 766.186755 217.973856 
L 766.451554 222.353503 
L 766.53982 222.716837 
L 766.628086 222.533043 
L 766.804619 220.568939 
L 767.069418 213.941321 
L 767.510749 195.254731 
L 768.834744 132.094624 
L 769.187809 125.004784 
L 769.364341 123.87813 
L 769.452608 123.927204 
L 769.62914 125.223726 
L 769.893939 129.993564 
L 770.335271 144.237155 
L 771.3062 187.875789 
L 771.924064 209.501089 
L 772.277129 215.501814 
L 772.453662 216.362526 
L 772.541928 216.233004 
L 772.718461 214.848921 
L 772.98326 210.02859 
L 773.336325 198.9663 
L 773.954189 170.84751 
L 774.836852 131.465424 
L 775.189917 123.37458 
L 775.36645 121.979536 
L 775.454716 122.01247 
L 775.631249 123.588397 
L 775.896048 129.725672 
L 776.249113 144.374354 
L 776.955243 186.923107 
L 777.573107 218.78575 
L 777.837906 225.068682 
L 778.014439 225.839099 
L 778.190971 223.67451 
L 778.45577 214.990176 
L 778.808835 194.671848 
L 779.956297 117.981819 
L 780.221096 112.554526 
L 780.309363 112.478987 
L 780.485895 114.972889 
L 780.750694 124.955935 
L 781.192026 154.247382 
L 782.074689 217.060076 
L 782.427754 227.43975 
L 782.51602 228.037505 
L 782.604286 227.818516 
L 782.780819 224.990861 
L 783.045618 215.290076 
L 783.486949 188.481708 
L 784.457879 127.046455 
L 784.810944 118.013121 
L 784.89921 117.410277 
L 784.987476 117.485174 
L 785.164009 119.634094 
L 785.428808 127.525799 
L 785.870139 150.438762 
L 787.017601 216.454917 
L 787.2824 222.533166 
L 787.458933 223.404706 
L 787.635465 221.626513 
L 787.900264 214.130222 
L 788.25333 196.355151 
L 789.577324 118.032113 
L 789.753857 115.343109 
L 789.842123 115.226178 
L 790.018656 117.542126 
L 790.283454 127.298376 
L 790.63652 150.360136 
L 791.695715 228.246222 
L 791.872248 232.144612 
L 791.960514 232.382397 
L 792.137047 229.278923 
L 792.401846 215.916049 
L 792.843177 175.991713 
L 793.549308 112.269671 
L 793.814106 104.599166 
L 793.902373 104.9936 
L 794.078905 110.320119 
L 794.343704 128.708211 
L 795.049835 206.531732 
L 795.4029 233.640689 
L 795.579432 238.740197 
L 795.667699 238.849134 
L 795.844231 234.162236 
L 796.10903 215.999208 
L 796.726894 146.605425 
L 797.168226 109.348381 
L 797.344758 103.898544 
L 797.433025 103.605326 
L 797.609557 107.91647 
L 797.874356 125.555388 
L 798.403954 184.366715 
L 798.845285 227.146576 
L 799.110084 237.857336 
L 799.198351 238.104894 
L 799.374883 233.425118 
L 799.639682 214.43509 
L 800.257546 140.363688 
L 800.610611 107.894763 
L 800.787144 101.409426 
L 800.87541 101.209717 
L 801.051943 107.160358 
L 801.316742 130.840628 
L 802.287671 245.592261 
L 802.375937 246.239094 
L 802.464204 243.99253 
L 802.640736 230.812901 
L 802.993802 176.679045 
L 803.523399 93.76727 
L 803.699932 87.651765 
L 803.788198 90.848622 
L 803.964731 109.905349 
L 804.317796 185.028631 
L 804.670861 255.023188 
L 804.847394 263.885856 
L 804.93566 258.873266 
L 805.112193 229.835275 
L 805.818323 66.74234 
L 805.906589 74.144671 
L 806.083122 118.606277 
L 806.61272 288.609127 
L 806.700986 278.747412 
L 806.877519 207.016574 
L 807.230584 38.573122 
L 807.31885 54.406935 
L 807.671915 300.24358 
L 807.760182 290.164548 
L 808.113247 72.759566 
L 808.378046 240.504201 
L 808.466312 229.229969 
L 808.731111 125.803291 
L 808.99591 198.350609 
L 809.084176 193.976623 
L 809.348975 153.822615 
L 809.613774 181.673419 
L 809.70204 178.888205 
L 809.966839 164.71354 
L 810.231638 175.051322 
L 810.408171 170.568486 
L 810.496437 168.585091 
L 810.584703 168.732776 
L 810.849502 172.473157 
L 811.114301 169.991763 
L 811.114301 169.991763 
" clip-path="url(#p3d5bb2123f)" style="fill: none; stroke: #1f77b4; stroke-width: 0.6; stroke-linecap: square"/>
   </g>
   <g id="line2d_28">
    <path d="M 88.301574 149.531274 
L 89.007704 143.698487 
L 89.449036 141.411033 
L 89.802101 140.562345 
L 89.978634 140.506584 
L 90.155166 140.712369 
L 90.419965 141.529669 
L 90.77303 143.590277 
L 91.214362 147.702818 
L 91.832226 156.013113 
L 92.803155 172.83521 
L 93.950617 191.821812 
L 94.568481 198.682805 
L 95.009813 201.494321 
L 95.362878 202.415046 
L 95.53941 202.440453 
L 95.715943 202.187522 
L 95.980742 201.314536 
L 96.333807 199.314835 
L 96.863405 194.842427 
L 97.746068 184.906027 
L 99.59966 163.497618 
L 100.394057 156.865064 
L 101.100187 152.788218 
L 101.629785 150.853823 
L 102.071117 149.934736 
L 102.424182 149.619421 
L 102.688981 149.609566 
L 103.042046 149.874448 
L 103.483377 150.608532 
L 104.012975 151.999615 
L 104.719106 154.550947 
L 105.690035 158.97318 
L 107.72016 169.600224 
L 109.397219 177.783546 
L 110.544681 182.301403 
L 111.427344 184.954874 
L 112.133475 186.486473 
L 112.751339 187.360677 
L 113.280937 187.747125 
L 113.722268 187.805764 
L 114.1636 187.620755 
L 114.604931 187.189842 
L 115.134529 186.347446 
L 115.752393 184.919565 
L 116.458523 182.714991 
L 117.341186 179.148624 
L 118.400382 173.827522 
L 119.900909 164.96079 
L 121.842768 153.609822 
L 122.637164 150.135136 
L 123.166762 148.565694 
L 123.608094 147.853186 
L 123.872893 147.728324 
L 124.137691 147.854836 
L 124.40249 148.251384 
L 124.755556 149.22906 
L 125.196887 151.217582 
L 125.726485 154.776608 
L 126.344349 160.531961 
L 127.138746 170.136486 
L 129.433669 199.536834 
L 129.875001 202.422658 
L 130.228066 203.45713 
L 130.404599 203.507534 
L 130.581131 203.234448 
L 130.84593 202.211201 
L 131.198995 199.718265 
L 131.640327 194.918162 
L 132.346457 184.176574 
L 134.464849 149.426534 
L 134.994446 144.494053 
L 135.435778 142.150936 
L 135.700577 141.509892 
L 135.877109 141.387451 
L 136.053642 141.497235 
L 136.318441 142.070456 
L 136.671506 143.523183 
L 137.201104 146.922527 
L 137.995501 153.89499 
L 140.731756 179.511413 
L 141.526153 184.532338 
L 142.232283 187.681732 
L 142.850147 189.434943 
L 143.291479 190.142739 
L 143.644544 190.401849 
L 143.997609 190.404472 
L 144.350674 190.1671 
L 144.792006 189.559263 
L 145.321603 188.41953 
L 146.027734 186.303653 
L 146.910397 182.901753 
L 148.234391 176.773183 
L 151.588511 160.762831 
L 152.647706 156.928994 
L 153.442103 154.789135 
L 154.059967 153.649528 
L 154.589565 153.083486 
L 155.030896 152.925622 
L 155.383962 153.016798 
L 155.825293 153.415054 
L 156.266625 154.14084 
L 156.796222 155.457306 
L 157.414086 157.617897 
L 158.120217 160.904496 
L 159.00288 166.164303 
L 160.150342 174.545224 
L 162.533532 192.564412 
L 163.151396 195.640895 
L 163.592727 196.952998 
L 163.857526 197.305918 
L 164.034059 197.339091 
L 164.210592 197.199678 
L 164.47539 196.648679 
L 164.828456 195.239586 
L 165.269787 192.343953 
L 165.799385 187.197571 
L 166.505515 177.779895 
L 167.917776 154.595806 
L 168.712173 143.595155 
L 169.241771 138.981599 
L 169.594836 137.505719 
L 169.771368 137.289946 
L 169.947901 137.429397 
L 170.2127 138.300328 
L 170.565765 140.648626 
L 171.007097 145.292636 
L 171.713227 155.663044 
L 173.743352 187.729797 
L 174.361216 193.758533 
L 174.890814 196.850477 
L 175.243879 197.867037 
L 175.508678 198.115158 
L 175.68521 198.05163 
L 175.950009 197.637723 
L 176.303075 196.548079 
L 176.832672 193.947462 
L 177.538803 189.160155 
L 178.951064 177.533139 
L 180.451591 165.820133 
L 181.42252 159.881762 
L 182.216917 156.274627 
L 182.923047 154.067603 
L 183.452645 153.026983 
L 183.893976 152.551064 
L 184.247042 152.417452 
L 184.600107 152.494986 
L 185.041438 152.875125 
L 185.571036 153.721064 
L 186.1889 155.199382 
L 186.983297 157.782038 
L 187.954226 161.789034 
L 189.278221 168.287235 
L 192.455807 184.286036 
L 193.426737 187.863905 
L 194.132867 189.666771 
L 194.662465 190.467582 
L 195.01553 190.701969 
L 195.368595 190.674802 
L 195.72166 190.368508 
L 196.162992 189.569 
L 196.604323 188.282354 
L 197.133921 186.069523 
L 197.751785 182.551847 
L 198.546182 176.604555 
L 199.605378 166.638873 
L 201.635503 146.838998 
L 202.253367 143.037695 
L 202.606432 141.841947 
L 202.871231 141.508492 
L 203.047763 141.580335 
L 203.312562 142.157621 
L 203.665627 143.845826 
L 204.106959 147.467494 
L 204.636557 153.938016 
L 205.430953 167.08546 
L 207.108013 196.268923 
L 207.637611 201.86068 
L 207.990676 203.922729 
L 208.255475 204.530678 
L 208.432008 204.487145 
L 208.60854 204.09196 
L 208.873339 202.867326 
L 209.226404 200.15253 
L 209.756002 194.168366 
L 210.638665 181.127059 
L 212.050926 160.438238 
L 212.757056 152.984826 
L 213.37492 148.666731 
L 213.816252 146.855762 
L 214.169317 146.130057 
L 214.434116 145.97824 
L 214.698915 146.137534 
L 215.05198 146.790484 
L 215.493312 148.226484 
L 216.111176 151.170987 
L 216.993839 156.674278 
L 220.612757 180.780538 
L 221.49542 184.729577 
L 222.20155 187.023483 
L 222.819414 188.36615 
L 223.349012 189.015482 
L 223.790344 189.203687 
L 224.143409 189.125904 
L 224.58474 188.748531 
L 225.114338 187.896439 
L 225.732202 186.377083 
L 226.438333 183.997782 
L 227.320996 180.172082 
L 228.468458 174.080601 
L 232.352175 152.294832 
L 233.058305 150.005213 
L 233.499637 149.157851 
L 233.852702 148.861545 
L 234.117501 148.88521 
L 234.3823 149.135392 
L 234.735365 149.843723 
L 235.176696 151.368261 
L 235.706294 154.182796 
L 236.324158 158.846901 
L 237.118555 166.880953 
L 238.266017 181.252223 
L 239.501745 196.094787 
L 240.119609 200.986853 
L 240.472674 202.476974 
L 240.737473 202.846283 
L 240.914006 202.706791 
L 241.178805 201.892354 
L 241.53187 199.652735 
L 241.973201 195.039295 
L 242.591066 185.628548 
L 243.738527 163.332834 
L 244.62119 148.002593 
L 245.150788 141.802454 
L 245.59212 138.896804 
L 245.856919 138.189157 
L 246.033451 138.142118 
L 246.209984 138.42294 
L 246.474783 139.425703 
L 246.827848 141.745137 
L 247.357446 146.940227 
L 248.240109 158.389059 
L 249.828902 179.239691 
L 250.623299 186.808518 
L 251.241163 190.830604 
L 251.770761 192.961335 
L 252.212092 193.85623 
L 252.476891 194.035402 
L 252.74169 193.965191 
L 253.006489 193.662555 
L 253.359554 192.928236 
L 253.889152 191.205822 
L 254.595282 187.97674 
L 255.566212 182.354597 
L 259.18513 160.200981 
L 260.067793 156.434268 
L 260.773923 154.223596 
L 261.391787 152.938449 
L 261.833119 152.413225 
L 262.27445 152.226331 
L 262.627516 152.324738 
L 262.980581 152.645464 
L 263.421912 153.359356 
L 263.95151 154.671149 
L 264.569374 156.81322 
L 265.363771 160.479285 
L 266.3347 166.179515 
L 267.658695 175.461027 
L 269.600553 189.084163 
L 270.39495 193.149105 
L 270.924548 194.87384 
L 271.277613 195.461308 
L 271.542412 195.562941 
L 271.807211 195.347043 
L 272.07201 194.791668 
L 272.425075 193.491009 
L 272.866406 190.920983 
L 273.396004 186.424956 
L 274.102134 178.172955 
L 275.16133 162.387479 
L 276.397058 144.545524 
L 276.926656 139.529109 
L 277.279721 137.672041 
L 277.54452 137.190226 
L 277.721053 137.331179 
L 277.985852 138.254383 
L 278.338917 140.807499 
L 278.780248 145.990927 
L 279.398112 156.251487 
L 281.516504 194.887084 
L 282.046101 200.018785 
L 282.399167 201.853061 
L 282.663966 202.401303 
L 282.840498 202.388733 
L 283.017031 202.08894 
L 283.28183 201.136498 
L 283.723161 198.369059 
L 284.341025 192.584757 
L 285.400221 179.988535 
L 286.812482 163.763573 
L 287.606878 156.875724 
L 288.313009 152.566014 
L 288.842607 150.486278 
L 289.283938 149.482636 
L 289.637003 149.131597 
L 289.901802 149.116738 
L 290.166601 149.302591 
L 290.519666 149.842169 
L 290.960998 150.944141 
L 291.578862 153.17828 
L 292.373258 156.993449 
L 293.52072 163.728251 
L 296.521775 181.950474 
L 297.492704 186.329949 
L 298.198834 188.649976 
L 298.816698 189.972136 
L 299.25803 190.470197 
L 299.611095 190.583612 
L 299.96416 190.433213 
L 300.317225 190.011178 
L 300.758557 189.092963 
L 301.288155 187.410656 
L 301.906019 184.652046 
L 302.700416 179.903704 
L 303.671345 172.517792 
L 306.848932 146.504012 
L 307.378529 144.374813 
L 307.731595 143.750737 
L 307.908127 143.712332 
L 308.08466 143.870425 
L 308.349459 144.496157 
L 308.702524 146.094693 
L 309.143855 149.370677 
L 309.673453 155.16405 
L 310.379584 165.663155 
L 312.586241 201.502421 
L 313.027573 204.857527 
L 313.292371 205.716646 
L 313.468904 205.776145 
L 313.645437 205.418074 
L 313.910236 204.103613 
L 314.263301 200.962776 
L 314.792899 193.665657 
L 315.587295 178.905385 
L 316.91129 154.222775 
L 317.529154 146.359948 
L 317.970485 142.836108 
L 318.323551 141.311342 
L 318.588349 140.895433 
L 318.764882 140.945711 
L 319.029681 141.479136 
L 319.382746 142.963165 
L 319.912344 146.5623 
L 320.618474 153.160206 
L 323.531262 182.48322 
L 324.325659 187.517446 
L 324.943523 190.137345 
L 325.473121 191.480373 
L 325.826186 191.927517 
L 326.179251 192.031648 
L 326.44405 191.894586 
L 326.797115 191.440013 
L 327.238447 190.464006 
L 327.856311 188.41468 
L 328.650708 184.797378 
L 329.709903 178.715965 
L 333.59362 154.972902 
L 334.388017 151.955045 
L 334.917615 150.643112 
L 335.358946 150.044152 
L 335.712012 149.91832 
L 335.97681 150.042523 
L 336.329876 150.512772 
L 336.771207 151.608861 
L 337.300805 153.692232 
L 337.918669 157.189289 
L 338.624799 162.533009 
L 339.595729 171.849181 
L 341.978919 196.11069 
L 342.508517 199.252058 
L 342.861582 200.355502 
L 343.126381 200.567714 
L 343.302913 200.388968 
L 343.567712 199.611108 
L 343.920777 197.579826 
L 344.362109 193.412331 
L 344.891707 186.142062 
L 345.686103 171.662563 
L 347.186631 143.657482 
L 347.716228 137.767876 
L 348.069294 135.833462 
L 348.245826 135.517252 
L 348.422359 135.641942 
L 348.598891 136.20337 
L 348.86369 137.837371 
L 349.305022 142.485804 
L 349.922886 152.148159 
L 352.21781 191.660926 
L 352.747407 196.549108 
L 353.188739 198.849864 
L 353.453538 199.480944 
L 353.63007 199.606177 
L 353.806603 199.507441 
L 354.071402 198.966238 
L 354.424467 197.581971 
L 354.954065 194.322081 
L 355.660195 188.390045 
L 359.014315 157.834221 
L 359.720445 153.928444 
L 360.338309 151.608783 
L 360.867907 150.449535 
L 361.220972 150.096069 
L 361.485771 150.045807 
L 361.75057 150.174828 
L 362.103635 150.616575 
L 362.544967 151.581631 
L 363.074564 153.301794 
L 363.780695 156.442103 
L 364.663358 161.479859 
L 365.987352 170.533505 
L 368.19401 185.69626 
L 369.076673 190.216996 
L 369.694537 192.36897 
L 370.135868 193.266232 
L 370.488934 193.546713 
L 370.753733 193.480484 
L 371.018531 193.163404 
L 371.371597 192.332032 
L 371.812928 190.608827 
L 372.342526 187.510916 
L 372.96039 182.493595 
L 373.754787 174.050936 
L 375.167048 155.929603 
L 376.137977 144.837935 
L 376.667575 140.853614 
L 377.02064 139.438056 
L 377.285439 139.151561 
L 377.461971 139.362849 
L 377.72677 140.315606 
L 378.079835 142.809305 
L 378.521167 147.875714 
L 379.139031 158.196904 
L 380.286493 182.640255 
L 381.08089 197.534836 
L 381.610487 203.904587 
L 381.963553 206.043838 
L 382.140085 206.437597 
L 382.316618 206.379642 
L 382.49315 205.878703 
L 382.757949 204.333342 
L 383.199281 199.857794 
L 383.817145 190.544092 
L 386.112069 152.286473 
L 386.729933 146.608865 
L 387.171264 144.29801 
L 387.524329 143.459223 
L 387.700862 143.356941 
L 387.877395 143.453768 
L 388.142194 143.949286 
L 388.495259 145.203688 
L 389.024857 148.159659 
L 389.730987 153.585785 
L 391.054981 165.943259 
L 392.555509 179.290415 
L 393.438172 185.360154 
L 394.144302 188.889066 
L 394.762166 190.908683 
L 395.203498 191.720126 
L 395.556563 191.988956 
L 395.821362 191.970584 
L 396.174427 191.657482 
L 396.527492 191.022423 
L 397.05709 189.491387 
L 397.674954 186.888466 
L 398.469351 182.408714 
L 399.528546 174.909819 
L 402.706133 151.144547 
L 403.323997 148.316588 
L 403.765329 147.061592 
L 404.118394 146.598756 
L 404.383193 146.600796 
L 404.647992 146.923703 
L 405.001057 147.882074 
L 405.442388 149.970047 
L 405.971986 153.817327 
L 406.58985 160.107521 
L 407.384247 170.610578 
L 409.502638 200.117154 
L 409.94397 203.351305 
L 410.208768 204.316659 
L 410.385301 204.502779 
L 410.561834 204.301076 
L 410.826633 203.24386 
L 411.179698 200.401634 
L 411.621029 194.625425 
L 412.238893 183.05557 
L 414.269018 141.326998 
L 414.71035 137.004812 
L 414.975149 135.763106 
L 415.151681 135.508144 
L 415.328214 135.703116 
L 415.593013 136.80402 
L 415.946078 139.652147 
L 416.475676 146.340534 
L 417.358339 161.249988 
L 418.682333 183.213875 
L 419.388464 191.407613 
L 419.918061 195.348211 
L 420.359393 197.167022 
L 420.624192 197.647218 
L 420.800724 197.726679 
L 420.977257 197.623165 
L 421.242056 197.144786 
L 421.595121 195.955653 
L 422.124719 193.161108 
L 422.830849 187.999926 
L 424.066577 176.859107 
L 425.743637 161.988598 
L 426.6263 155.898142 
L 427.332431 152.342881 
L 427.950295 150.328343 
L 428.391626 149.553805 
L 428.744691 149.342367 
L 429.00949 149.423172 
L 429.362555 149.848687 
L 429.803887 150.883653 
L 430.333485 152.838623 
L 430.951349 156.038979 
L 431.745746 161.430074 
L 432.804941 170.283798 
L 435.188131 190.87913 
L 435.894262 194.929201 
L 436.335593 196.461104 
L 436.688658 197.007976 
L 436.865191 197.030123 
L 437.041724 196.873721 
L 437.306522 196.288457 
L 437.659588 194.822348 
L 438.100919 191.844951 
L 438.630517 186.588825 
L 439.336647 176.980662 
L 440.572375 156.026982 
L 441.455038 142.63481 
L 441.984636 137.557009 
L 442.337701 136.024186 
L 442.514234 135.898206 
L 442.690767 136.224128 
L 442.955566 137.580656 
L 443.308631 141.001434 
L 443.749962 147.687532 
L 444.456093 162.611206 
L 445.95662 195.990699 
L 446.486218 203.033441 
L 446.839283 205.50903 
L 447.104082 206.153504 
L 447.280614 206.018515 
L 447.457147 205.451044 
L 447.721946 203.841484 
L 448.163277 199.395714 
L 448.781141 190.451034 
L 451.076065 154.33481 
L 451.693929 148.619757 
L 452.223527 145.703461 
L 452.576592 144.75439 
L 452.841391 144.537048 
L 453.017924 144.614859 
L 453.282723 145.045845 
L 453.635788 146.161284 
L 454.165386 148.8406 
L 454.871516 153.878838 
L 455.930712 163.317941 
L 457.960837 181.628894 
L 458.8435 187.63193 
L 459.54963 190.99976 
L 460.079228 192.558908 
L 460.432293 193.105809 
L 460.697092 193.249299 
L 460.961891 193.160971 
L 461.22669 192.83951 
L 461.579755 192.048823 
L 462.021086 190.486295 
L 462.550684 187.798754 
L 463.256814 182.946132 
L 464.139477 175.194249 
L 467.228798 146.254483 
L 467.758396 143.875831 
L 468.111461 143.199068 
L 468.287994 143.1703 
L 468.464526 143.362446 
L 468.729325 144.085149 
L 469.08239 145.897351 
L 469.523722 149.568487 
L 470.05332 155.997128 
L 470.75945 167.51559 
L 472.789575 202.862199 
L 473.230906 206.390902 
L 473.495705 207.138194 
L 473.583972 207.139679 
L 473.760504 206.759976 
L 474.025303 205.224431 
L 474.378368 201.410734 
L 474.907966 192.316786 
L 475.702363 173.707314 
L 476.849825 147.49244 
L 477.379422 139.760585 
L 477.732488 136.846242 
L 477.997287 135.89085 
L 478.173819 135.828898 
L 478.350352 136.208593 
L 478.615151 137.555229 
L 478.968216 140.644171 
L 479.497814 147.463837 
L 480.468743 163.566804 
L 481.704471 183.051069 
L 482.410601 190.931393 
L 482.940199 194.788791 
L 483.381531 196.62575 
L 483.734596 197.225712 
L 483.911129 197.250329 
L 484.175927 196.962148 
L 484.528993 196.012238 
L 484.970324 194.013202 
L 485.588188 189.961293 
L 486.470851 182.391191 
L 489.471905 155.120021 
L 490.178036 151.007434 
L 490.707634 148.949195 
L 491.148965 147.980798 
L 491.50203 147.723147 
L 491.766829 147.840605 
L 492.031628 148.228236 
L 492.384693 149.16727 
L 492.826025 151.014205 
L 493.355623 154.186057 
L 494.061753 159.90117 
L 495.032682 169.951408 
L 497.327606 194.886053 
L 497.857204 198.403055 
L 498.210269 199.768661 
L 498.475068 200.184511 
L 498.651601 200.144242 
L 498.828133 199.834958 
L 499.092932 198.843645 
L 499.445997 196.49947 
L 499.887329 191.903216 
L 500.505193 182.549394 
L 501.387856 164.958366 
L 502.535318 142.440546 
L 503.064916 135.930211 
L 503.417981 133.923282 
L 503.594513 133.721397 
L 503.771046 134.078508 
L 504.035845 135.671418 
L 504.38891 139.71041 
L 504.918508 149.35598 
L 505.801171 171.138678 
L 506.7721 193.785537 
L 507.301698 201.877408 
L 507.743029 205.432977 
L 508.007828 206.124745 
L 508.096095 206.121408 
L 508.272627 205.777591 
L 508.537426 204.46595 
L 508.890491 201.393776 
L 509.420089 194.549948 
L 510.391018 178.307407 
L 511.626747 158.591272 
L 512.332877 150.614294 
L 512.862475 146.727352 
L 513.303806 144.903924 
L 513.568605 144.411204 
L 513.745138 144.323305 
L 513.92167 144.420575 
L 514.186469 144.89782 
L 514.539535 146.10996 
L 514.980866 148.449422 
L 515.59873 152.990202 
L 516.569659 162.139536 
L 518.95285 185.616459 
L 519.747246 191.068845 
L 520.36511 193.816618 
L 520.806442 194.855008 
L 521.071241 195.081609 
L 521.33604 195.000302 
L 521.600839 194.605307 
L 521.953904 193.585747 
L 522.395235 191.521919 
L 522.924833 187.922809 
L 523.630963 181.389043 
L 524.601893 169.935543 
L 526.543751 146.423941 
L 527.073349 142.381723 
L 527.426414 140.821601 
L 527.691213 140.362604 
L 527.867746 140.428528 
L 528.044278 140.809462 
L 528.309077 141.997015 
L 528.662142 144.767912 
L 529.103474 150.139948 
L 529.721338 160.892197 
L 530.8688 186.432337 
L 531.663197 201.845687 
L 532.104528 207.107016 
L 532.369327 208.679278 
L 532.54586 208.994664 
L 532.634126 208.924909 
L 532.810659 208.325263 
L 533.075457 206.283335 
L 533.428523 201.534083 
L 533.95812 190.763548 
L 536.164778 140.038597 
L 536.606109 136.192629 
L 536.870908 135.398422 
L 536.959175 135.379597 
L 537.135707 135.696513 
L 537.400506 137.009055 
L 537.753571 140.15073 
L 538.283169 147.211262 
L 539.254098 164.011815 
L 540.40156 183.050983 
L 541.107691 191.496015 
L 541.637289 195.614401 
L 542.07862 197.530889 
L 542.343419 198.032881 
L 542.519952 198.107426 
L 542.696484 197.98139 
L 542.961283 197.432914 
L 543.314348 196.076316 
L 543.843946 192.861022 
L 544.550076 186.826792 
L 545.697538 174.531642 
L 547.374598 156.710548 
L 548.168995 150.487382 
L 548.786859 147.302301 
L 549.22819 146.076499 
L 549.492989 145.796022 
L 549.669522 145.805917 
L 549.934321 146.122262 
L 550.287386 147.114373 
L 550.728717 149.272154 
L 551.258315 153.16973 
L 551.964446 160.381253 
L 552.935375 173.089325 
L 554.612435 195.472775 
L 555.230299 200.701881 
L 555.583364 202.256746 
L 555.848163 202.594868 
L 556.024695 202.389077 
L 556.289494 201.395289 
L 556.642559 198.741126 
L 557.083891 193.27445 
L 557.701755 181.970903 
L 558.760951 156.877705 
L 559.555347 140.107014 
L 559.996679 134.272543 
L 560.349744 132.197038 
L 560.526277 132.123365 
L 560.702809 132.713658 
L 560.967608 134.836483 
L 561.320673 139.853961 
L 561.850271 151.27285 
L 563.880396 201.096357 
L 564.321728 205.804282 
L 564.586526 206.999078 
L 564.763059 207.127944 
L 564.939592 206.744845 
L 565.204391 205.27209 
L 565.557456 201.82207 
L 566.087053 194.166616 
L 567.146249 174.556543 
L 568.205445 156.50303 
L 568.911575 148.188641 
L 569.441173 144.454747 
L 569.794238 143.190789 
L 570.059037 142.868786 
L 570.23557 142.940839 
L 570.500368 143.458959 
L 570.853434 144.864733 
L 571.294765 147.646391 
L 571.912629 153.103547 
L 572.883559 164.078068 
L 574.825417 186.610683 
L 575.531548 192.476428 
L 576.061145 195.424823 
L 576.502477 196.769884 
L 576.767276 197.052344 
L 576.943808 197.013499 
L 577.208607 196.607612 
L 577.561672 195.410316 
L 578.003004 192.86367 
L 578.532602 188.328032 
L 579.238732 180.062233 
L 580.297928 164.505614 
L 581.533656 146.753704 
L 582.15152 140.768109 
L 582.504585 138.894258 
L 582.769384 138.393278 
L 582.945917 138.532483 
L 583.122449 139.071314 
L 583.387248 140.656612 
L 583.740313 144.249454 
L 584.181645 151.054751 
L 584.799509 164.252359 
L 586.564835 205.12897 
L 587.006166 209.75253 
L 587.270965 210.531387 
L 587.359232 210.435309 
L 587.535764 209.70207 
L 587.800563 207.265185 
L 588.153628 201.672386 
L 588.683226 189.198203 
L 590.536818 140.632616 
L 590.97815 135.302491 
L 591.242949 133.90105 
L 591.419481 133.709476 
L 591.596014 134.089645 
L 591.860813 135.664861 
L 592.213878 139.428035 
L 592.743476 147.829418 
L 593.979204 172.741511 
L 594.861867 188.176215 
L 595.479731 195.531661 
L 595.921063 198.70217 
L 596.274128 199.963649 
L 596.538927 200.187013 
L 596.715459 200.006024 
L 596.980258 199.265056 
L 597.333324 197.464805 
L 597.862921 193.254052 
L 598.569052 185.492289 
L 600.069579 165.547324 
L 601.128774 153.056069 
L 601.834905 147.209111 
L 602.364503 144.621886 
L 602.717568 143.871594 
L 602.8941 143.805392 
L 603.070633 143.950065 
L 603.335432 144.567063 
L 603.688497 146.138495 
L 604.129829 149.284401 
L 604.747693 155.742571 
L 605.542089 166.903208 
L 607.660481 198.835286 
L 608.101812 202.54235 
L 608.454877 203.976875 
L 608.63141 204.107528 
L 608.807942 203.817068 
L 609.072741 202.555651 
L 609.425807 199.285566 
L 609.867138 192.677467 
L 610.485002 179.335678 
L 612.338594 135.071264 
L 612.69166 131.440216 
L 612.956459 130.616134 
L 613.044725 130.725964 
L 613.221257 131.531946 
L 613.486056 134.191389 
L 613.839122 140.27791 
L 614.368719 153.796808 
L 616.134045 202.893272 
L 616.575377 208.271811 
L 616.840176 209.45984 
L 616.928442 209.517983 
L 617.104975 209.143614 
L 617.369774 207.420549 
L 617.722839 203.199893 
L 618.252437 193.708736 
L 620.54736 147.440074 
L 621.076958 142.262646 
L 621.430023 140.516176 
L 621.694822 140.086407 
L 621.871355 140.202888 
L 622.136154 140.951042 
L 622.489219 142.937535 
L 622.93055 146.804421 
L 623.636681 155.420594 
L 626.461202 193.60896 
L 626.9908 197.296029 
L 627.343865 198.667146 
L 627.608664 199.083451 
L 627.785197 199.060716 
L 627.96173 198.794616 
L 628.226528 197.93747 
L 628.579594 195.947336 
L 629.020925 192.14811 
L 629.638789 184.627381 
L 630.521452 170.609238 
L 632.110246 144.858827 
L 632.639843 139.493388 
L 632.992909 137.635383 
L 633.169441 137.314535 
L 633.257707 137.317413 
L 633.43424 137.662863 
L 633.699039 139.059732 
L 634.052104 142.604084 
L 634.493436 149.680939 
L 635.1113 163.803867 
L 636.876626 207.395252 
L 637.229691 211.104552 
L 637.406224 211.805359 
L 637.49449 211.84812 
L 637.671022 211.303958 
L 637.935821 208.908708 
L 638.288887 202.894995 
L 638.818484 188.865039 
L 640.58381 136.556827 
L 640.936876 132.02258 
L 641.201674 130.692148 
L 641.289941 130.643745 
L 641.466473 131.123348 
L 641.731272 133.209421 
L 642.084337 138.246695 
L 642.613935 149.434567 
L 644.555794 194.717313 
L 645.085392 201.144756 
L 645.438457 203.301715 
L 645.703256 203.812747 
L 645.879788 203.647419 
L 646.144587 202.683401 
L 646.497652 200.176715 
L 647.02725 194.226558 
L 647.821647 181.971552 
L 649.675239 152.071731 
L 650.293103 145.559778 
L 650.734435 142.7177 
L 651.0875 141.652975 
L 651.264033 141.540038 
L 651.440565 141.710378 
L 651.705364 142.496877 
L 652.058429 144.521178 
L 652.499761 148.543993 
L 653.117625 156.627972 
L 654.000288 171.649027 
L 655.412549 195.930227 
L 655.942146 201.945953 
L 656.295212 204.21176 
L 656.560011 204.813228 
L 656.648277 204.787158 
L 656.824809 204.379764 
L 657.089608 202.853519 
L 657.442674 199.077293 
L 657.884005 191.639287 
L 658.501869 176.95731 
L 660.178929 134.35317 
L 660.531994 130.394408 
L 660.708527 129.626801 
L 660.796793 129.569086 
L 660.973326 130.125102 
L 661.238124 132.653789 
L 661.59119 139.077116 
L 662.120787 154.171617 
L 663.797847 207.468735 
L 664.150912 212.112574 
L 664.415711 213.161343 
L 664.503978 213.044375 
L 664.68051 212.129987 
L 664.945309 209.151704 
L 665.386641 200.529234 
L 666.092771 180.753633 
L 667.240233 149.043816 
L 667.769831 139.913946 
L 668.122896 136.552132 
L 668.387695 135.495067 
L 668.564227 135.467042 
L 668.74076 135.955602 
L 669.005559 137.593985 
L 669.358624 141.283202 
L 669.888222 149.367471 
L 670.947417 170.213268 
L 672.006613 189.607252 
L 672.624477 197.365658 
L 673.065809 200.655621 
L 673.418874 201.799303 
L 673.595406 201.861704 
L 673.771939 201.584278 
L 674.036738 200.539208 
L 674.389803 198.011799 
L 674.831135 193.169809 
L 675.448999 183.773396 
L 676.596461 161.942422 
L 677.56739 145.163879 
L 678.096988 139.231982 
L 678.450053 137.202133 
L 678.626585 136.857623 
L 678.714852 136.863756 
L 678.891384 137.244699 
L 679.156183 138.762474 
L 679.509248 142.577219 
L 679.95058 150.12164 
L 680.568444 165.003539 
L 682.157237 206.461413 
L 682.510303 211.080739 
L 682.775102 212.405558 
L 682.863368 212.397913 
L 683.0399 211.679864 
L 683.304699 208.822016 
L 683.657765 201.788267 
L 684.187362 185.458104 
L 685.687889 133.619273 
L 686.040955 128.03804 
L 686.305754 126.692462 
L 686.39402 126.801632 
L 686.570552 127.844027 
L 686.835351 131.369645 
L 687.276683 141.726448 
L 687.982813 165.33122 
L 688.953743 196.330686 
L 689.48334 206.351577 
L 689.836406 209.344649 
L 690.012938 209.718353 
L 690.101204 209.633015 
L 690.277737 208.939236 
L 690.542536 206.674871 
L 690.983867 200.107515 
L 691.601732 186.82016 
L 693.278791 148.711993 
L 693.808389 141.503616 
L 694.161454 138.765675 
L 694.426253 137.860047 
L 694.602786 137.805666 
L 694.779318 138.1849 
L 695.044117 139.543553 
L 695.397182 142.743653 
L 695.92678 150.13941 
L 696.721177 165.357933 
L 698.30997 196.705965 
L 698.839568 202.960772 
L 699.192633 205.024041 
L 699.369166 205.335953 
L 699.457432 205.302568 
L 699.633965 204.847684 
L 699.898764 203.178894 
L 700.251829 199.114353 
L 700.69316 191.239856 
L 701.399291 173.54463 
L 702.811552 136.457752 
L 703.252883 130.669492 
L 703.517682 129.667767 
L 703.605948 129.794197 
L 703.782481 130.766812 
L 704.04728 134.049864 
L 704.400345 141.730434 
L 704.929943 159.157107 
L 706.342204 210.257409 
L 706.695269 215.898355 
L 706.871801 216.856148 
L 706.960068 216.846473 
L 707.1366 215.847299 
L 707.401399 211.97231 
L 707.754464 202.844947 
L 708.372328 179.508879 
L 709.343258 142.345845 
L 709.784589 132.148221 
L 710.137654 128.514996 
L 710.314187 128.257984 
L 710.49072 129.004726 
L 710.755519 131.876298 
L 711.108584 138.526767 
L 711.726448 155.473934 
L 713.050442 193.821515 
L 713.58004 203.19011 
L 713.933105 206.474882 
L 714.197904 207.311276 
L 714.28617 207.283209 
L 714.462703 206.778587 
L 714.727502 204.946779 
L 715.080567 200.673501 
L 715.610165 191.059013 
L 716.581094 167.999858 
L 717.552024 146.560108 
L 718.081621 138.944305 
L 718.434687 136.242457 
L 718.699485 135.628592 
L 718.876018 135.924003 
L 719.140817 137.439597 
L 719.493882 141.432448 
L 719.935214 149.361437 
L 720.641344 167.260629 
L 722.053605 204.599993 
L 722.494936 210.518369 
L 722.759735 211.64077 
L 722.848002 211.561588 
L 723.024534 210.692077 
L 723.289333 207.576198 
L 723.642398 200.104797 
L 724.171996 182.815333 
L 725.672523 128.589523 
L 726.025588 124.181629 
L 726.113855 123.953412 
L 726.202121 124.091749 
L 726.378654 125.477087 
L 726.643452 130.272712 
L 726.996518 141.236811 
L 727.614382 168.718688 
L 728.497045 206.460963 
L 728.85011 214.90852 
L 729.114909 217.615217 
L 729.203175 217.796762 
L 729.291441 217.620683 
L 729.467974 216.223219 
L 729.732773 211.68828 
L 730.174104 198.811596 
L 732.027697 134.906396 
L 732.380762 130.615156 
L 732.557295 129.900502 
L 732.645561 129.896205 
L 732.822093 130.572723 
L 733.086892 133.204544 
L 733.439958 139.367933 
L 734.057822 155.423279 
L 735.558349 197.758951 
L 735.99968 205.033206 
L 736.352745 207.960519 
L 736.529278 208.386131 
L 736.617544 208.334834 
L 736.794077 207.705284 
L 737.058876 205.468084 
L 737.411941 200.212083 
L 737.941539 188.210551 
L 739.000734 156.774179 
L 739.706865 138.762926 
L 740.148196 132.185953 
L 740.412995 130.655166 
L 740.501261 130.593886 
L 740.677794 131.174796 
L 740.942593 133.839219 
L 741.295658 140.690768 
L 741.825256 157.141292 
L 743.414049 213.897359 
L 743.678848 217.352892 
L 743.855381 217.846625 
L 744.031913 216.795054 
L 744.296712 212.281758 
L 744.649778 201.118681 
L 745.267642 171.544608 
L 746.150305 130.164845 
L 746.50337 121.967653 
L 746.679902 120.571533 
L 746.768169 120.586635 
L 746.944701 122.040255 
L 747.2095 127.620383 
L 747.650832 144.454174 
L 749.151359 212.168473 
L 749.504424 217.613327 
L 749.680957 218.027399 
L 749.857489 216.938886 
L 750.122288 212.6925 
L 750.56362 199.887994 
L 751.446283 164.080739 
L 752.152413 139.729461 
L 752.593745 131.200435 
L 752.858543 129.162349 
L 752.94681 129.012144 
L 753.035076 129.12447 
L 753.211609 130.121603 
L 753.476408 133.456527 
L 753.829473 140.952087 
L 754.447337 160.109159 
L 755.771331 203.077862 
L 756.212663 210.509366 
L 756.477462 212.160587 
L 756.565728 212.203204 
L 756.742261 211.508396 
L 757.007059 208.51855 
L 757.360125 201.062885 
L 757.889722 183.721611 
L 759.39025 129.40819 
L 759.743315 124.948245 
L 759.831581 124.732103 
L 759.919847 124.899962 
L 760.09638 126.413479 
L 760.361179 131.637392 
L 760.714244 143.757627 
L 761.332108 174.874123 
L 762.126505 213.532309 
L 762.47957 221.984996 
L 762.656103 223.078229 
L 762.744369 222.775934 
L 762.920902 220.451622 
L 763.1857 212.809507 
L 763.627032 190.893341 
L 764.774494 125.681459 
L 765.127559 117.975237 
L 765.215825 117.529015 
L 765.304092 117.688554 
L 765.480624 119.792269 
L 765.745423 127.103127 
L 766.186755 147.926596 
L 767.422483 212.317441 
L 767.775548 219.533606 
L 767.952081 220.314082 
L 768.040347 219.998676 
L 768.21688 218.008242 
L 768.481678 211.894671 
L 768.92301 195.135306 
L 770.423537 131.197757 
L 770.776602 125.827077 
L 770.953135 125.33865 
L 771.129667 126.332354 
L 771.394466 130.500588 
L 771.747532 140.520697 
L 772.365396 166.482403 
L 773.336325 207.36441 
L 773.68939 215.426896 
L 773.954189 217.561946 
L 774.042455 217.455931 
L 774.218988 215.982163 
L 774.483787 210.647293 
L 774.836852 198.179181 
L 775.454716 166.360471 
L 776.249113 127.535571 
L 776.602178 119.615632 
L 776.778711 119.009967 
L 776.955243 120.853208 
L 777.220042 128.222777 
L 777.573107 145.754101 
L 778.985368 226.952187 
L 779.161901 228.240767 
L 779.250167 227.638995 
L 779.4267 223.938803 
L 779.691498 212.531183 
L 780.13283 181.874057 
L 780.927227 124.498438 
L 781.280292 113.280255 
L 781.368558 112.580154 
L 781.456824 112.755033 
L 781.633357 115.684874 
L 781.898156 126.017073 
L 782.339487 154.788491 
L 783.22215 214.865761 
L 783.575216 225.305764 
L 783.751748 226.163991 
L 783.928281 224.094366 
L 784.19308 215.923769 
L 784.634411 191.954332 
L 785.693607 128.020583 
L 786.046672 119.152762 
L 786.223205 118.482342 
L 786.399737 120.390675 
L 786.664536 127.848925 
L 787.105868 150.259297 
L 788.25333 217.61234 
L 788.518128 223.79757 
L 788.606395 224.49305 
L 788.694661 224.46623 
L 788.871194 222.21356 
L 789.135993 213.468578 
L 789.577324 186.98114 
L 790.548253 120.179194 
L 790.813052 112.950485 
L 790.901319 112.404935 
L 790.989585 112.858005 
L 791.166117 116.806973 
L 791.430916 130.038245 
L 791.872248 166.833779 
L 792.578378 226.192234 
L 792.843177 234.831898 
L 792.931443 235.121983 
L 793.01971 234.039391 
L 793.196242 227.7767 
L 793.461041 209.040087 
L 794.696769 103.460562 
L 794.785036 103.499372 
L 794.961568 108.380852 
L 795.226367 126.675765 
L 795.844231 196.134628 
L 796.285563 233.192489 
L 796.462095 238.480993 
L 796.550362 238.682923 
L 796.726894 234.184145 
L 796.991693 216.302574 
L 797.609557 147.255669 
L 798.050889 109.813838 
L 798.227421 104.246453 
L 798.315688 103.898731 
L 798.49222 108.128899 
L 798.757019 125.817119 
L 799.286617 185.890643 
L 799.727948 229.305448 
L 799.992747 239.063456 
L 800.081014 238.704566 
L 800.257546 232.376514 
L 800.522345 210.045463 
L 801.581541 98.837918 
L 801.669807 99.038013 
L 801.84634 106.807341 
L 802.111139 135.35081 
L 802.993802 249.645585 
L 803.082068 249.651816 
L 803.2586 239.155007 
L 803.523399 199.696601 
L 804.141263 88.352266 
L 804.22953 83.436444 
L 804.317796 83.511209 
L 804.494329 99.374377 
L 804.759128 156.714022 
L 805.200459 261.121903 
L 805.288725 268.62556 
L 805.376992 268.529787 
L 805.553524 244.128035 
L 806.259655 61.30557 
L 806.436187 98.235327 
L 806.965785 295.769748 
L 807.054051 277.178635 
L 807.495383 35.55267 
L 807.583649 65.378014 
L 807.936714 284.714163 
L 808.201513 89.02718 
L 808.28978 92.423343 
L 808.554578 228.313706 
L 808.642845 210.674504 
L 808.907644 137.504305 
L 809.172443 193.346457 
L 809.348975 169.369281 
L 809.437241 158.317092 
L 809.525508 158.770857 
L 809.790307 179.398603 
L 810.055106 165.869118 
L 810.143372 166.705027 
L 810.408171 174.048831 
L 810.67297 168.948853 
L 810.761236 169.50982 
L 811.026035 172.05018 
L 811.114301 171.306684 
L 811.114301 171.306684 
" clip-path="url(#p3d5bb2123f)" style="fill: none; stroke: #ff7f0e; stroke-width: 0.6; stroke-linecap: square"/>
   </g>
   <g id="patch_3">
    <path d="M 52.160938 313.478125 
L 52.160938 22.318125 
" style="fill: none; stroke: #000000; stroke-width: 0.8; stroke-linejoin: miter; stroke-linecap: square"/>
   </g>
   <g id="patch_4">
    <path d="M 847.254938 313.478125 
L 847.254938 22.318125 
" style="fill: none; stroke: #000000; stroke-width: 0.8; stroke-linejoin: miter; stroke-linecap: square"/>
   </g>
   <g id="patch_5">
    <path d="M 52.160938 313.478125 
L 847.254937 313.478125 
" style="fill: none; stroke: #000000; stroke-width: 0.8; stroke-linejoin: miter; stroke-linecap: square"/>
   </g>
   <g id="patch_6">
    <path d="M 52.160938 22.318125 
L 847.254937 22.318125 
" style="fill: none; stroke: #000000; stroke-width: 0.8; stroke-linejoin: miter; stroke-linecap: square"/>
   </g>
   <g id="text_16">
    <!-- M=60, e=0.13, f_min=10 Hz -->
    <g transform="translate(363.504813 16.318125) scale(0.12 -0.12)">
     <defs>
      <path id="DejaVuSans-4d" d="M 628 4666 
L 1569 4666 
L 2759 1491 
L 3956 4666 
L 4897 4666 
L 4897 0 
L 4281 0 
L 4281 4097 
L 3078 897 
L 2444 897 
L 1241 4097 
L 1241 0 
L 628 0 
L 628 4666 
z
" transform="scale(0.015625)"/>
      <path id="DejaVuSans-3d" d="M 678 2906 
L 4684 2906 
L 4684 2381 
L 678 2381 
L 678 2906 
z
M 678 1631 
L 4684 1631 
L 4684 1100 
L 678 1100 
L 678 1631 
z
" transform="scale(0.015625)"/>
      <path id="DejaVuSans-2c" d="M 750 794 
L 1409 794 
L 1409 256 
L 897 -744 
L 494 -744 
L 750 256 
L 750 794 
z
" transform="scale(0.015625)"/>
      <path id="DejaVuSans-65" d="M 3597 1894 
L 3597 1613 
L 953 1613 
Q 991 1019 1311 708 
Q 1631 397 2203 397 
Q 2534 397 2845 478 
Q 3156 559 3463 722 
L 3463 178 
Q 3153 47 2828 -22 
Q 2503 -91 2169 -91 
Q 1331 -91 842 396 
Q 353 884 353 1716 
Q 353 2575 817 3079 
Q 1281 3584 2069 3584 
Q 2775 3584 3186 3129 
Q 3597 2675 3597 1894 
z
M 3022 2063 
Q 3016 2534 2758 2815 
Q 2500 3097 2075 3097 
Q 1594 3097 1305 2825 
Q 1016 2553 972 2059 
L 3022 2063 
z
" transform="scale(0.015625)"/>
      <path id="DejaVuSans-33" d="M 2597 2516 
Q 3050 2419 3304 2112 
Q 3559 1806 3559 1356 
Q 3559 666 3084 287 
Q 2609 -91 1734 -91 
Q 1441 -91 1130 -33 
Q 819 25 488 141 
L 488 750 
Q 750 597 1062 519 
Q 1375 441 1716 441 
Q 2309 441 2620 675 
Q 2931 909 2931 1356 
Q 2931 1769 2642 2001 
Q 2353 2234 1838 2234 
L 1294 2234 
L 1294 2753 
L 1863 2753 
Q 2328 2753 2575 2939 
Q 2822 3125 2822 3475 
Q 2822 3834 2567 4026 
Q 2313 4219 1838 4219 
Q 1578 4219 1281 4162 
Q 984 4106 628 3988 
L 628 4550 
Q 988 4650 1302 4700 
Q 1616 4750 1894 4750 
Q 2613 4750 3031 4423 
Q 3450 4097 3450 3541 
Q 3450 3153 3228 2886 
Q 3006 2619 2597 2516 
z
" transform="scale(0.015625)"/>
      <path id="DejaVuSans-66" d="M 2375 4863 
L 2375 4384 
L 1825 4384 
Q 1516 4384 1395 4259 
Q 1275 4134 1275 3809 
L 1275 3500 
L 2222 3500 
L 2222 3053 
L 1275 3053 
L 1275 0 
L 697 0 
L 697 3053 
L 147 3053 
L 147 3500 
L 697 3500 
L 697 3744 
Q 697 4328 969 4595 
Q 1241 4863 1831 4863 
L 2375 4863 
z
" transform="scale(0.015625)"/>
      <path id="DejaVuSans-5f" d="M 3263 -1063 
L 3263 -1509 
L -63 -1509 
L -63 -1063 
L 3263 -1063 
z
" transform="scale(0.015625)"/>
      <path id="DejaVuSans-6d" d="M 3328 2828 
Q 3544 3216 3844 3400 
Q 4144 3584 4550 3584 
Q 5097 3584 5394 3201 
Q 5691 2819 5691 2113 
L 5691 0 
L 5113 0 
L 5113 2094 
Q 5113 2597 4934 2840 
Q 4756 3084 4391 3084 
Q 3944 3084 3684 2787 
Q 3425 2491 3425 1978 
L 3425 0 
L 2847 0 
L 2847 2094 
Q 2847 2600 2669 2842 
Q 2491 3084 2119 3084 
Q 1678 3084 1418 2786 
Q 1159 2488 1159 1978 
L 1159 0 
L 581 0 
L 581 3500 
L 1159 3500 
L 1159 2956 
Q 1356 3278 1631 3431 
Q 1906 3584 2284 3584 
Q 2666 3584 2933 3390 
Q 3200 3197 3328 2828 
z
" transform="scale(0.015625)"/>
      <path id="DejaVuSans-69" d="M 603 3500 
L 1178 3500 
L 1178 0 
L 603 0 
L 603 3500 
z
M 603 4863 
L 1178 4863 
L 1178 4134 
L 603 4134 
L 603 4863 
z
" transform="scale(0.015625)"/>
      <path id="DejaVuSans-6e" d="M 3513 2113 
L 3513 0 
L 2938 0 
L 2938 2094 
Q 2938 2591 2744 2837 
Q 2550 3084 2163 3084 
Q 1697 3084 1428 2787 
Q 1159 2491 1159 1978 
L 1159 0 
L 581 0 
L 581 3500 
L 1159 3500 
L 1159 2956 
Q 1366 3272 1645 3428 
Q 1925 3584 2291 3584 
Q 2894 3584 3203 3211 
Q 3513 2838 3513 2113 
z
" transform="scale(0.015625)"/>
      <path id="DejaVuSans-48" d="M 628 4666 
L 1259 4666 
L 1259 2753 
L 3553 2753 
L 3553 4666 
L 4184 4666 
L 4184 0 
L 3553 0 
L 3553 2222 
L 1259 2222 
L 1259 0 
L 628 0 
L 628 4666 
z
" transform="scale(0.015625)"/>
      <path id="DejaVuSans-7a" d="M 353 3500 
L 3084 3500 
L 3084 2975 
L 922 459 
L 3084 459 
L 3084 0 
L 275 0 
L 275 525 
L 2438 3041 
L 353 3041 
L 353 3500 
z
" transform="scale(0.015625)"/>
     </defs>
     <use xlink:href="#DejaVuSans-4d"/>
     <use xlink:href="#DejaVuSans-3d" transform="translate(86.279297 0)"/>
     <use xlink:href="#DejaVuSans-36" transform="translate(170.068359 0)"/>
     <use xlink:href="#DejaVuSans-30" transform="translate(233.691406 0)"/>
     <use xlink:href="#DejaVuSans-2c" transform="translate(297.314453 0)"/>
     <use xlink:href="#DejaVuSans-20" transform="translate(329.101562 0)"/>
     <use xlink:href="#DejaVuSans-65" transform="translate(360.888672 0)"/>
     <use xlink:href="#DejaVuSans-3d" transform="translate(422.412109 0)"/>
     <use xlink:href="#DejaVuSans-30" transform="translate(506.201172 0)"/>
     <use xlink:href="#DejaVuSans-2e" transform="translate(569.824219 0)"/>
     <use xlink:href="#DejaVuSans-31" transform="translate(601.611328 0)"/>
     <use xlink:href="#DejaVuSans-33" transform="translate(665.234375 0)"/>
     <use xlink:href="#DejaVuSans-2c" transform="translate(728.857422 0)"/>
     <use xlink:href="#DejaVuSans-20" transform="translate(760.644531 0)"/>
     <use xlink:href="#DejaVuSans-66" transform="translate(792.431641 0)"/>
     <use xlink:href="#DejaVuSans-5f" transform="translate(827.636719 0)"/>
     <use xlink:href="#DejaVuSans-6d" transform="translate(877.636719 0)"/>
     <use xlink:href="#DejaVuSans-69" transform="translate(975.048828 0)"/>
     <use xlink:href="#DejaVuSans-6e" transform="translate(1002.832031 0)"/>
     <use xlink:href="#DejaVuSans-3d" transform="translate(1066.210938 0)"/>
     <use xlink:href="#DejaVuSans-31" transform="translate(1150 0)"/>
     <use xlink:href="#DejaVuSans-30" transform="translate(1213.623047 0)"/>
     <use xlink:href="#DejaVuSans-20" transform="translate(1277.246094 0)"/>
     <use xlink:href="#DejaVuSans-48" transform="translate(1309.033203 0)"/>
     <use xlink:href="#DejaVuSans-7a" transform="translate(1384.228516 0)"/>
    </g>
   </g>
   <g id="legend_1">
    <g id="patch_7">
     <path d="M 59.160938 59.674375 
L 123.960938 59.674375 
Q 125.960938 59.674375 125.960938 57.674375 
L 125.960938 29.318125 
Q 125.960938 27.318125 123.960938 27.318125 
L 59.160938 27.318125 
Q 57.160938 27.318125 57.160938 29.318125 
L 57.160938 57.674375 
Q 57.160938 59.674375 59.160938 59.674375 
z
" style="fill: #ffffff; opacity: 0.8; stroke: #cccccc; stroke-linejoin: miter"/>
    </g>
    <g id="line2d_29">
     <path d="M 61.160938 35.416562 
L 71.160938 35.416562 
L 81.160938 35.416562 
" style="fill: none; stroke: #1f77b4; stroke-width: 0.6; stroke-linecap: square"/>
    </g>
    <g id="text_17">
     <!-- $h_+$ -->
     <g transform="translate(89.160938 38.916562) scale(0.1 -0.1)">
      <defs>
       <path id="DejaVuSans-2b" d="M 2944 4013 
L 2944 2272 
L 4684 2272 
L 4684 1741 
L 2944 1741 
L 2944 0 
L 2419 0 
L 2419 1741 
L 678 1741 
L 678 2272 
L 2419 2272 
L 2419 4013 
L 2944 4013 
z
" transform="scale(0.015625)"/>
      </defs>
      <use xlink:href="#DejaVuSans-Oblique-68" transform="translate(0 0.015625)"/>
      <use xlink:href="#DejaVuSans-2b" transform="translate(77.016602 -16.390625) scale(0.7)"/>
     </g>
    </g>
    <g id="line2d_30">
     <path d="M 61.160938 50.094688 
L 71.160938 50.094688 
L 81.160938 50.094688 
" style="fill: none; stroke: #ff7f0e; stroke-width: 0.6; stroke-linecap: square"/>
    </g>
    <g id="text_18">
     <!-- $h_	imes$ -->
     <g transform="translate(89.160938 53.594688) scale(0.1 -0.1)">
      <defs>
       <path id="DejaVuSans-Oblique-69" d="M 1172 4863 
L 1747 4863 
L 1606 4134 
L 1031 4134 
L 1172 4863 
z
M 909 3500 
L 1484 3500 
L 800 0 
L 225 0 
L 909 3500 
z
" transform="scale(0.015625)"/>
       <path id="DejaVuSans-Oblique-6d" d="M 5747 2113 
L 5338 0 
L 4763 0 
L 5166 2094 
Q 5191 2228 5203 2325 
Q 5216 2422 5216 2491 
Q 5216 2772 5059 2928 
Q 4903 3084 4622 3084 
Q 4203 3084 3875 2770 
Q 3547 2456 3450 1953 
L 3066 0 
L 2491 0 
L 2900 2094 
Q 2925 2209 2937 2307 
Q 2950 2406 2950 2484 
Q 2950 2769 2794 2926 
Q 2638 3084 2363 3084 
Q 1938 3084 1609 2770 
Q 1281 2456 1184 1953 
L 800 0 
L 225 0 
L 909 3500 
L 1484 3500 
L 1375 2956 
Q 1609 3263 1923 3423 
Q 2238 3584 2597 3584 
Q 2978 3584 3223 3384 
Q 3469 3184 3519 2828 
Q 3781 3197 4126 3390 
Q 4472 3584 4856 3584 
Q 5306 3584 5551 3325 
Q 5797 3066 5797 2591 
Q 5797 2488 5784 2364 
Q 5772 2241 5747 2113 
z
" transform="scale(0.015625)"/>
       <path id="DejaVuSans-Oblique-65" d="M 3078 2063 
Q 3088 2113 3092 2166 
Q 3097 2219 3097 2272 
Q 3097 2653 2873 2875 
Q 2650 3097 2266 3097 
Q 1838 3097 1509 2826 
Q 1181 2556 1013 2059 
L 3078 2063 
z
M 3578 1613 
L 903 1613 
Q 884 1494 878 1425 
Q 872 1356 872 1306 
Q 872 872 1139 634 
Q 1406 397 1894 397 
Q 2269 397 2603 481 
Q 2938 566 3225 728 
L 3116 159 
Q 2806 34 2476 -28 
Q 2147 -91 1806 -91 
Q 1078 -91 686 257 
Q 294 606 294 1247 
Q 294 1794 489 2264 
Q 684 2734 1063 3103 
Q 1306 3334 1642 3459 
Q 1978 3584 2356 3584 
Q 2950 3584 3301 3228 
Q 3653 2872 3653 2272 
Q 3653 2128 3634 1964 
Q 3616 1800 3578 1613 
z
" transform="scale(0.015625)"/>
       <path id="DejaVuSans-Oblique-73" d="M 3200 3397 
L 3091 2853 
Q 2863 2978 2609 3040 
Q 2356 3103 2088 3103 
Q 1634 3103 1373 2948 
Q 1113 2794 1113 2528 
Q 1113 2219 1719 2053 
Q 1766 2041 1788 2034 
L 1972 1978 
Q 2547 1819 2739 1644 
Q 2931 1469 2931 1166 
Q 2931 609 2489 259 
Q 2047 -91 1331 -91 
Q 1053 -91 747 -37 
Q 441 16 72 128 
L 184 722 
Q 500 559 806 475 
Q 1113 391 1394 391 
Q 1816 391 2080 572 
Q 2344 753 2344 1031 
Q 2344 1331 1650 1516 
L 1591 1531 
L 1394 1581 
Q 956 1697 753 1886 
Q 550 2075 550 2369 
Q 550 2928 970 3256 
Q 1391 3584 2113 3584 
Q 2397 3584 2667 3537 
Q 2938 3491 3200 3397 
z
" transform="scale(0.015625)"/>
      </defs>
      <use xlink:href="#DejaVuSans-Oblique-68" transform="translate(0 0.015625)"/>
      <use xlink:href="#DejaVuSans-20" transform="translate(63.378906 -16.390625) scale(0.7)"/>
      <use xlink:href="#DejaVuSans-Oblique-69" transform="translate(88.364258 0.015625)"/>
      <use xlink:href="#DejaVuSans-Oblique-6d" transform="translate(116.147461 0.015625)"/>
      <use xlink:href="#DejaVuSans-Oblique-65" transform="translate(213.55957 0.015625)"/>
      <use xlink:href="#DejaVuSans-Oblique-73" transform="translate(275.083008 0.015625)"/>
     </g>
    </g>
   </g>
  </g>
 </g>
 <defs>
  <clipPath id="p3d5bb2123f">
   <rect x="52.160938" y="22.318125" width="795.094" height="291.16"/>
  </clipPath>
 </defs>
</svg>
