<?xml version="1.0" encoding="utf-8" standalone="no"?>
<!DOCTYPE svg PUBLIC "-//W3C//DTD SVG 1.1//EN"
  "http://www.w3.org/Graphics/SVG/1.1/DTD/svg11.dtd">
<svg xmlns:xlink="http://www.w3.org/1999/xlink" width="854.454938pt" height="351.034375pt" viewBox="0 0 854.454938 351.034375" xmlns="http://www.w3.org/2000/svg" version="1.1">
 <metadata>
  <rdf:RDF xmlns:dc="http://purl.org/dc/elements/1.1/" xmlns:cc="http://creativecommons.org/ns#" xmlns:rdf="http://www.w3.org/1999/02/22-rdf-syntax-ns#">
   <cc:Work>
    <dc:type rdf:resource="http://purl.org/dc/dcmitype/StillImage"/>
    <dc:date>2025-07-24T14:39:29.248293</dc:date>
    <dc:format>image/svg+xml</dc:format>
    <dc:creator>
     <cc:Agent>
      <dc:title>Matplotlib v3.10.3, https://matplotlib.org/</dc:title>
     </cc:Agent>
    </dc:creator>
   </cc:Work>
  </rdf:RDF>
 </metadata>
 <defs>
  <style type="text/css">*{stroke-linejoin: round; stroke-linecap: butt}</style>
 </defs>
 <g id="figure_1">
  <g id="patch_1">
   <path d="M 0 351.034375 
L 854.454938 351.034375 
L 854.454938 0 
L 0 0 
z
" style="fill: #ffffff"/>
  </g>
  <g id="axes_1">
   <g id="patch_2">
    <path d="M 52.160938 313.478125 
L 847.254938 313.478125 
L 847.254938 22.318125 
L 52.160938 22.318125 
z
" style="fill: #ffffff"/>
   </g>
   <g id="matplotlib.axis_1">
    <g id="xtick_1">
     <g id="line2d_1">
      <path d="M 63.591348 313.478125 
L 63.591348 22.318125 
" clip-path="url(#p90c8efa70a)" style="fill: none; stroke: #b0b0b0; stroke-width: 0.8; stroke-linecap: square"/>
     </g>
     <g id="line2d_2">
      <defs>
       <path id="m6214886b22" d="M 0 0 
L 0 3.5 
" style="stroke: #000000; stroke-width: 0.8"/>
      </defs>
      <g>
       <use xlink:href="#m6214886b22" x="63.591348" y="313.478125" style="stroke: #000000; stroke-width: 0.8"/>
      </g>
     </g>
     <g id="text_1">
      <!-- −14000 -->
      <g transform="translate(43.495254 328.076563) scale(0.1 -0.1)">
       <defs>
        <path id="DejaVuSans-2212" d="M 678 2272 
L 4684 2272 
L 4684 1741 
L 678 1741 
L 678 2272 
z
" transform="scale(0.015625)"/>
        <path id="DejaVuSans-31" d="M 794 531 
L 1825 531 
L 1825 4091 
L 703 3866 
L 703 4441 
L 1819 4666 
L 2450 4666 
L 2450 531 
L 3481 531 
L 3481 0 
L 794 0 
L 794 531 
z
" transform="scale(0.015625)"/>
        <path id="DejaVuSans-34" d="M 2419 4116 
L 825 1625 
L 2419 1625 
L 2419 4116 
z
M 2253 4666 
L 3047 4666 
L 3047 1625 
L 3713 1625 
L 3713 1100 
L 3047 1100 
L 3047 0 
L 2419 0 
L 2419 1100 
L 313 1100 
L 313 1709 
L 2253 4666 
z
" transform="scale(0.015625)"/>
        <path id="DejaVuSans-30" d="M 2034 4250 
Q 1547 4250 1301 3770 
Q 1056 3291 1056 2328 
Q 1056 1369 1301 889 
Q 1547 409 2034 409 
Q 2525 409 2770 889 
Q 3016 1369 3016 2328 
Q 3016 3291 2770 3770 
Q 2525 4250 2034 4250 
z
M 2034 4750 
Q 2819 4750 3233 4129 
Q 3647 3509 3647 2328 
Q 3647 1150 3233 529 
Q 2819 -91 2034 -91 
Q 1250 -91 836 529 
Q 422 1150 422 2328 
Q 422 3509 836 4129 
Q 1250 4750 2034 4750 
z
" transform="scale(0.015625)"/>
       </defs>
       <use xlink:href="#DejaVuSans-2212"/>
       <use xlink:href="#DejaVuSans-31" transform="translate(83.789062 0)"/>
       <use xlink:href="#DejaVuSans-34" transform="translate(147.412109 0)"/>
       <use xlink:href="#DejaVuSans-30" transform="translate(211.035156 0)"/>
       <use xlink:href="#DejaVuSans-30" transform="translate(274.658203 0)"/>
       <use xlink:href="#DejaVuSans-30" transform="translate(338.28125 0)"/>
      </g>
     </g>
    </g>
    <g id="xtick_2">
     <g id="line2d_3">
      <path d="M 169.878698 313.478125 
L 169.878698 22.318125 
" clip-path="url(#p90c8efa70a)" style="fill: none; stroke: #b0b0b0; stroke-width: 0.8; stroke-linecap: square"/>
     </g>
     <g id="line2d_4">
      <g>
       <use xlink:href="#m6214886b22" x="169.878698" y="313.478125" style="stroke: #000000; stroke-width: 0.8"/>
      </g>
     </g>
     <g id="text_2">
      <!-- −12000 -->
      <g transform="translate(149.782604 328.076563) scale(0.1 -0.1)">
       <defs>
        <path id="DejaVuSans-32" d="M 1228 531 
L 3431 531 
L 3431 0 
L 469 0 
L 469 531 
Q 828 903 1448 1529 
Q 2069 2156 2228 2338 
Q 2531 2678 2651 2914 
Q 2772 3150 2772 3378 
Q 2772 3750 2511 3984 
Q 2250 4219 1831 4219 
Q 1534 4219 1204 4116 
Q 875 4013 500 3803 
L 500 4441 
Q 881 4594 1212 4672 
Q 1544 4750 1819 4750 
Q 2544 4750 2975 4387 
Q 3406 4025 3406 3419 
Q 3406 3131 3298 2873 
Q 3191 2616 2906 2266 
Q 2828 2175 2409 1742 
Q 1991 1309 1228 531 
z
" transform="scale(0.015625)"/>
       </defs>
       <use xlink:href="#DejaVuSans-2212"/>
       <use xlink:href="#DejaVuSans-31" transform="translate(83.789062 0)"/>
       <use xlink:href="#DejaVuSans-32" transform="translate(147.412109 0)"/>
       <use xlink:href="#DejaVuSans-30" transform="translate(211.035156 0)"/>
       <use xlink:href="#DejaVuSans-30" transform="translate(274.658203 0)"/>
       <use xlink:href="#DejaVuSans-30" transform="translate(338.28125 0)"/>
      </g>
     </g>
    </g>
    <g id="xtick_3">
     <g id="line2d_5">
      <path d="M 276.166049 313.478125 
L 276.166049 22.318125 
" clip-path="url(#p90c8efa70a)" style="fill: none; stroke: #b0b0b0; stroke-width: 0.8; stroke-linecap: square"/>
     </g>
     <g id="line2d_6">
      <g>
       <use xlink:href="#m6214886b22" x="276.166049" y="313.478125" style="stroke: #000000; stroke-width: 0.8"/>
      </g>
     </g>
     <g id="text_3">
      <!-- −10000 -->
      <g transform="translate(256.069955 328.076563) scale(0.1 -0.1)">
       <use xlink:href="#DejaVuSans-2212"/>
       <use xlink:href="#DejaVuSans-31" transform="translate(83.789062 0)"/>
       <use xlink:href="#DejaVuSans-30" transform="translate(147.412109 0)"/>
       <use xlink:href="#DejaVuSans-30" transform="translate(211.035156 0)"/>
       <use xlink:href="#DejaVuSans-30" transform="translate(274.658203 0)"/>
       <use xlink:href="#DejaVuSans-30" transform="translate(338.28125 0)"/>
      </g>
     </g>
    </g>
    <g id="xtick_4">
     <g id="line2d_7">
      <path d="M 382.453399 313.478125 
L 382.453399 22.318125 
" clip-path="url(#p90c8efa70a)" style="fill: none; stroke: #b0b0b0; stroke-width: 0.8; stroke-linecap: square"/>
     </g>
     <g id="line2d_8">
      <g>
       <use xlink:href="#m6214886b22" x="382.453399" y="313.478125" style="stroke: #000000; stroke-width: 0.8"/>
      </g>
     </g>
     <g id="text_4">
      <!-- −8000 -->
      <g transform="translate(365.538555 328.076563) scale(0.1 -0.1)">
       <defs>
        <path id="DejaVuSans-38" d="M 2034 2216 
Q 1584 2216 1326 1975 
Q 1069 1734 1069 1313 
Q 1069 891 1326 650 
Q 1584 409 2034 409 
Q 2484 409 2743 651 
Q 3003 894 3003 1313 
Q 3003 1734 2745 1975 
Q 2488 2216 2034 2216 
z
M 1403 2484 
Q 997 2584 770 2862 
Q 544 3141 544 3541 
Q 544 4100 942 4425 
Q 1341 4750 2034 4750 
Q 2731 4750 3128 4425 
Q 3525 4100 3525 3541 
Q 3525 3141 3298 2862 
Q 3072 2584 2669 2484 
Q 3125 2378 3379 2068 
Q 3634 1759 3634 1313 
Q 3634 634 3220 271 
Q 2806 -91 2034 -91 
Q 1263 -91 848 271 
Q 434 634 434 1313 
Q 434 1759 690 2068 
Q 947 2378 1403 2484 
z
M 1172 3481 
Q 1172 3119 1398 2916 
Q 1625 2713 2034 2713 
Q 2441 2713 2670 2916 
Q 2900 3119 2900 3481 
Q 2900 3844 2670 4047 
Q 2441 4250 2034 4250 
Q 1625 4250 1398 4047 
Q 1172 3844 1172 3481 
z
" transform="scale(0.015625)"/>
       </defs>
       <use xlink:href="#DejaVuSans-2212"/>
       <use xlink:href="#DejaVuSans-38" transform="translate(83.789062 0)"/>
       <use xlink:href="#DejaVuSans-30" transform="translate(147.412109 0)"/>
       <use xlink:href="#DejaVuSans-30" transform="translate(211.035156 0)"/>
       <use xlink:href="#DejaVuSans-30" transform="translate(274.658203 0)"/>
      </g>
     </g>
    </g>
    <g id="xtick_5">
     <g id="line2d_9">
      <path d="M 488.74075 313.478125 
L 488.74075 22.318125 
" clip-path="url(#p90c8efa70a)" style="fill: none; stroke: #b0b0b0; stroke-width: 0.8; stroke-linecap: square"/>
     </g>
     <g id="line2d_10">
      <g>
       <use xlink:href="#m6214886b22" x="488.74075" y="313.478125" style="stroke: #000000; stroke-width: 0.8"/>
      </g>
     </g>
     <g id="text_5">
      <!-- −6000 -->
      <g transform="translate(471.825906 328.076563) scale(0.1 -0.1)">
       <defs>
        <path id="DejaVuSans-36" d="M 2113 2584 
Q 1688 2584 1439 2293 
Q 1191 2003 1191 1497 
Q 1191 994 1439 701 
Q 1688 409 2113 409 
Q 2538 409 2786 701 
Q 3034 994 3034 1497 
Q 3034 2003 2786 2293 
Q 2538 2584 2113 2584 
z
M 3366 4563 
L 3366 3988 
Q 3128 4100 2886 4159 
Q 2644 4219 2406 4219 
Q 1781 4219 1451 3797 
Q 1122 3375 1075 2522 
Q 1259 2794 1537 2939 
Q 1816 3084 2150 3084 
Q 2853 3084 3261 2657 
Q 3669 2231 3669 1497 
Q 3669 778 3244 343 
Q 2819 -91 2113 -91 
Q 1303 -91 875 529 
Q 447 1150 447 2328 
Q 447 3434 972 4092 
Q 1497 4750 2381 4750 
Q 2619 4750 2861 4703 
Q 3103 4656 3366 4563 
z
" transform="scale(0.015625)"/>
       </defs>
       <use xlink:href="#DejaVuSans-2212"/>
       <use xlink:href="#DejaVuSans-36" transform="translate(83.789062 0)"/>
       <use xlink:href="#DejaVuSans-30" transform="translate(147.412109 0)"/>
       <use xlink:href="#DejaVuSans-30" transform="translate(211.035156 0)"/>
       <use xlink:href="#DejaVuSans-30" transform="translate(274.658203 0)"/>
      </g>
     </g>
    </g>
    <g id="xtick_6">
     <g id="line2d_11">
      <path d="M 595.0281 313.478125 
L 595.0281 22.318125 
" clip-path="url(#p90c8efa70a)" style="fill: none; stroke: #b0b0b0; stroke-width: 0.8; stroke-linecap: square"/>
     </g>
     <g id="line2d_12">
      <g>
       <use xlink:href="#m6214886b22" x="595.0281" y="313.478125" style="stroke: #000000; stroke-width: 0.8"/>
      </g>
     </g>
     <g id="text_6">
      <!-- −4000 -->
      <g transform="translate(578.113256 328.076563) scale(0.1 -0.1)">
       <use xlink:href="#DejaVuSans-2212"/>
       <use xlink:href="#DejaVuSans-34" transform="translate(83.789062 0)"/>
       <use xlink:href="#DejaVuSans-30" transform="translate(147.412109 0)"/>
       <use xlink:href="#DejaVuSans-30" transform="translate(211.035156 0)"/>
       <use xlink:href="#DejaVuSans-30" transform="translate(274.658203 0)"/>
      </g>
     </g>
    </g>
    <g id="xtick_7">
     <g id="line2d_13">
      <path d="M 701.31545 313.478125 
L 701.31545 22.318125 
" clip-path="url(#p90c8efa70a)" style="fill: none; stroke: #b0b0b0; stroke-width: 0.8; stroke-linecap: square"/>
     </g>
     <g id="line2d_14">
      <g>
       <use xlink:href="#m6214886b22" x="701.31545" y="313.478125" style="stroke: #000000; stroke-width: 0.8"/>
      </g>
     </g>
     <g id="text_7">
      <!-- −2000 -->
      <g transform="translate(684.400607 328.076563) scale(0.1 -0.1)">
       <use xlink:href="#DejaVuSans-2212"/>
       <use xlink:href="#DejaVuSans-32" transform="translate(83.789062 0)"/>
       <use xlink:href="#DejaVuSans-30" transform="translate(147.412109 0)"/>
       <use xlink:href="#DejaVuSans-30" transform="translate(211.035156 0)"/>
       <use xlink:href="#DejaVuSans-30" transform="translate(274.658203 0)"/>
      </g>
     </g>
    </g>
    <g id="xtick_8">
     <g id="line2d_15">
      <path d="M 807.602801 313.478125 
L 807.602801 22.318125 
" clip-path="url(#p90c8efa70a)" style="fill: none; stroke: #b0b0b0; stroke-width: 0.8; stroke-linecap: square"/>
     </g>
     <g id="line2d_16">
      <g>
       <use xlink:href="#m6214886b22" x="807.602801" y="313.478125" style="stroke: #000000; stroke-width: 0.8"/>
      </g>
     </g>
     <g id="text_8">
      <!-- 0 -->
      <g transform="translate(804.421551 328.076563) scale(0.1 -0.1)">
       <use xlink:href="#DejaVuSans-30"/>
      </g>
     </g>
    </g>
    <g id="text_9">
     <!-- t [s] -->
     <g transform="translate(439.652469 341.754687) scale(0.1 -0.1)">
      <defs>
       <path id="DejaVuSans-74" d="M 1172 4494 
L 1172 3500 
L 2356 3500 
L 2356 3053 
L 1172 3053 
L 1172 1153 
Q 1172 725 1289 603 
Q 1406 481 1766 481 
L 2356 481 
L 2356 0 
L 1766 0 
Q 1100 0 847 248 
Q 594 497 594 1153 
L 594 3053 
L 172 3053 
L 172 3500 
L 594 3500 
L 594 4494 
L 1172 4494 
z
" transform="scale(0.015625)"/>
       <path id="DejaVuSans-20" transform="scale(0.015625)"/>
       <path id="DejaVuSans-5b" d="M 550 4863 
L 1875 4863 
L 1875 4416 
L 1125 4416 
L 1125 -397 
L 1875 -397 
L 1875 -844 
L 550 -844 
L 550 4863 
z
" transform="scale(0.015625)"/>
       <path id="DejaVuSans-73" d="M 2834 3397 
L 2834 2853 
Q 2591 2978 2328 3040 
Q 2066 3103 1784 3103 
Q 1356 3103 1142 2972 
Q 928 2841 928 2578 
Q 928 2378 1081 2264 
Q 1234 2150 1697 2047 
L 1894 2003 
Q 2506 1872 2764 1633 
Q 3022 1394 3022 966 
Q 3022 478 2636 193 
Q 2250 -91 1575 -91 
Q 1294 -91 989 -36 
Q 684 19 347 128 
L 347 722 
Q 666 556 975 473 
Q 1284 391 1588 391 
Q 1994 391 2212 530 
Q 2431 669 2431 922 
Q 2431 1156 2273 1281 
Q 2116 1406 1581 1522 
L 1381 1569 
Q 847 1681 609 1914 
Q 372 2147 372 2553 
Q 372 3047 722 3315 
Q 1072 3584 1716 3584 
Q 2034 3584 2315 3537 
Q 2597 3491 2834 3397 
z
" transform="scale(0.015625)"/>
       <path id="DejaVuSans-5d" d="M 1947 4863 
L 1947 -844 
L 622 -844 
L 622 -397 
L 1369 -397 
L 1369 4416 
L 622 4416 
L 622 4863 
L 1947 4863 
z
" transform="scale(0.015625)"/>
      </defs>
      <use xlink:href="#DejaVuSans-74"/>
      <use xlink:href="#DejaVuSans-20" transform="translate(39.208984 0)"/>
      <use xlink:href="#DejaVuSans-5b" transform="translate(70.996094 0)"/>
      <use xlink:href="#DejaVuSans-73" transform="translate(110.009766 0)"/>
      <use xlink:href="#DejaVuSans-5d" transform="translate(162.109375 0)"/>
     </g>
    </g>
   </g>
   <g id="matplotlib.axis_2">
    <g id="ytick_1">
     <g id="line2d_17">
      <path d="M 52.160938 277.747648 
L 847.254938 277.747648 
" clip-path="url(#p90c8efa70a)" style="fill: none; stroke: #b0b0b0; stroke-width: 0.8; stroke-linecap: square"/>
     </g>
     <g id="line2d_18">
      <defs>
       <path id="mea3294a171" d="M 0 0 
L -3.5 0 
" style="stroke: #000000; stroke-width: 0.8"/>
      </defs>
      <g>
       <use xlink:href="#mea3294a171" x="52.160938" y="277.747648" style="stroke: #000000; stroke-width: 0.8"/>
      </g>
     </g>
     <g id="text_10">
      <!-- −0.2 -->
      <g transform="translate(20.878125 281.546866) scale(0.1 -0.1)">
       <defs>
        <path id="DejaVuSans-2e" d="M 684 794 
L 1344 794 
L 1344 0 
L 684 0 
L 684 794 
z
" transform="scale(0.015625)"/>
       </defs>
       <use xlink:href="#DejaVuSans-2212"/>
       <use xlink:href="#DejaVuSans-30" transform="translate(83.789062 0)"/>
       <use xlink:href="#DejaVuSans-2e" transform="translate(147.412109 0)"/>
       <use xlink:href="#DejaVuSans-32" transform="translate(179.199219 0)"/>
      </g>
     </g>
    </g>
    <g id="ytick_2">
     <g id="line2d_19">
      <path d="M 52.160938 222.381337 
L 847.254938 222.381337 
" clip-path="url(#p90c8efa70a)" style="fill: none; stroke: #b0b0b0; stroke-width: 0.8; stroke-linecap: square"/>
     </g>
     <g id="line2d_20">
      <g>
       <use xlink:href="#mea3294a171" x="52.160938" y="222.381337" style="stroke: #000000; stroke-width: 0.8"/>
      </g>
     </g>
     <g id="text_11">
      <!-- −0.1 -->
      <g transform="translate(20.878125 226.180556) scale(0.1 -0.1)">
       <use xlink:href="#DejaVuSans-2212"/>
       <use xlink:href="#DejaVuSans-30" transform="translate(83.789062 0)"/>
       <use xlink:href="#DejaVuSans-2e" transform="translate(147.412109 0)"/>
       <use xlink:href="#DejaVuSans-31" transform="translate(179.199219 0)"/>
      </g>
     </g>
    </g>
    <g id="ytick_3">
     <g id="line2d_21">
      <path d="M 52.160938 167.015027 
L 847.254938 167.015027 
" clip-path="url(#p90c8efa70a)" style="fill: none; stroke: #b0b0b0; stroke-width: 0.8; stroke-linecap: square"/>
     </g>
     <g id="line2d_22">
      <g>
       <use xlink:href="#mea3294a171" x="52.160938" y="167.015027" style="stroke: #000000; stroke-width: 0.8"/>
      </g>
     </g>
     <g id="text_12">
      <!-- 0.0 -->
      <g transform="translate(29.257812 170.814246) scale(0.1 -0.1)">
       <use xlink:href="#DejaVuSans-30"/>
       <use xlink:href="#DejaVuSans-2e" transform="translate(63.623047 0)"/>
       <use xlink:href="#DejaVuSans-30" transform="translate(95.410156 0)"/>
      </g>
     </g>
    </g>
    <g id="ytick_4">
     <g id="line2d_23">
      <path d="M 52.160938 111.648717 
L 847.254938 111.648717 
" clip-path="url(#p90c8efa70a)" style="fill: none; stroke: #b0b0b0; stroke-width: 0.8; stroke-linecap: square"/>
     </g>
     <g id="line2d_24">
      <g>
       <use xlink:href="#mea3294a171" x="52.160938" y="111.648717" style="stroke: #000000; stroke-width: 0.8"/>
      </g>
     </g>
     <g id="text_13">
      <!-- 0.1 -->
      <g transform="translate(29.257812 115.447936) scale(0.1 -0.1)">
       <use xlink:href="#DejaVuSans-30"/>
       <use xlink:href="#DejaVuSans-2e" transform="translate(63.623047 0)"/>
       <use xlink:href="#DejaVuSans-31" transform="translate(95.410156 0)"/>
      </g>
     </g>
    </g>
    <g id="ytick_5">
     <g id="line2d_25">
      <path d="M 52.160938 56.282406 
L 847.254938 56.282406 
" clip-path="url(#p90c8efa70a)" style="fill: none; stroke: #b0b0b0; stroke-width: 0.8; stroke-linecap: square"/>
     </g>
     <g id="line2d_26">
      <g>
       <use xlink:href="#mea3294a171" x="52.160938" y="56.282406" style="stroke: #000000; stroke-width: 0.8"/>
      </g>
     </g>
     <g id="text_14">
      <!-- 0.2 -->
      <g transform="translate(29.257812 60.081625) scale(0.1 -0.1)">
       <use xlink:href="#DejaVuSans-30"/>
       <use xlink:href="#DejaVuSans-2e" transform="translate(63.623047 0)"/>
       <use xlink:href="#DejaVuSans-32" transform="translate(95.410156 0)"/>
      </g>
     </g>
    </g>
    <g id="text_15">
     <!-- $h_{22}]$ -->
     <g transform="translate(14.798438 177.648125) rotate(-90) scale(0.1 -0.1)">
      <defs>
       <path id="DejaVuSans-Oblique-68" d="M 3566 2113 
L 3156 0 
L 2578 0 
L 2988 2091 
Q 3016 2238 3031 2350 
Q 3047 2463 3047 2528 
Q 3047 2791 2881 2937 
Q 2716 3084 2419 3084 
Q 1956 3084 1617 2771 
Q 1278 2459 1178 1941 
L 800 0 
L 225 0 
L 1172 4863 
L 1747 4863 
L 1375 2950 
Q 1594 3244 1934 3414 
Q 2275 3584 2650 3584 
Q 3113 3584 3367 3334 
Q 3622 3084 3622 2631 
Q 3622 2519 3608 2391 
Q 3594 2263 3566 2113 
z
" transform="scale(0.015625)"/>
      </defs>
      <use xlink:href="#DejaVuSans-Oblique-68" transform="translate(0 0.015625)"/>
      <use xlink:href="#DejaVuSans-32" transform="translate(63.378906 -16.390625) scale(0.7)"/>
      <use xlink:href="#DejaVuSans-32" transform="translate(107.915039 -16.390625) scale(0.7)"/>
      <use xlink:href="#DejaVuSans-5d" transform="translate(155.185547 0.015625)"/>
     </g>
    </g>
   </g>
   <g id="line2d_27">
    <path d="M 88.301574 144.654481 
L 88.742959 142.018418 
L 89.096068 140.849074 
L 89.360899 140.476655 
L 89.537453 140.449407 
L 89.802284 140.71185 
L 90.155393 141.566012 
L 90.596778 143.310394 
L 91.302995 147.247246 
L 92.538874 155.853934 
L 94.304415 167.972166 
L 95.36374 173.802614 
L 96.246511 177.560298 
L 97.041005 180.055993 
L 97.747221 181.584029 
L 98.365161 182.41128 
L 98.894823 182.762241 
L 99.336209 182.81682 
L 99.777594 182.668076 
L 100.307257 182.239121 
L 100.925196 181.421591 
L 101.631413 180.112032 
L 102.514184 177.985914 
L 103.661786 174.555494 
L 105.162496 169.260434 
L 109.223242 154.45672 
L 110.19429 151.871407 
L 110.900506 150.506391 
L 111.518446 149.762429 
L 111.959831 149.532219 
L 112.312939 149.550375 
L 112.666048 149.764156 
L 113.107433 150.328582 
L 113.637096 151.478117 
L 114.166758 153.18424 
L 114.784698 155.925586 
L 115.490914 160.084654 
L 116.373685 166.770472 
L 117.609564 178.207236 
L 119.021998 191.091368 
L 119.639937 194.985237 
L 120.081322 196.492725 
L 120.346154 196.748349 
L 120.522708 196.613019 
L 120.787539 195.915327 
L 121.140647 194.004635 
L 121.582033 189.981883 
L 122.111695 182.841753 
L 122.906189 168.461189 
L 124.406899 140.646306 
L 124.936562 134.74988 
L 125.28967 132.685915 
L 125.554501 132.176573 
L 125.731056 132.326542 
L 125.995887 133.254782 
L 126.348995 135.696171 
L 126.878658 141.471849 
L 127.761428 154.421786 
L 129.173862 174.958143 
L 129.880078 182.372763 
L 130.498018 186.796276 
L 131.02768 189.091545 
L 131.469066 190.041891 
L 131.733897 190.234568 
L 131.998728 190.17181 
L 132.263559 189.877059 
L 132.704945 188.933969 
L 133.234607 187.186557 
L 134.029101 183.656022 
L 135.353257 176.507741 
L 137.560184 164.642849 
L 138.707786 159.607977 
L 139.678834 156.237996 
L 140.561605 153.95206 
L 141.267822 152.673557 
L 141.885761 151.958684 
L 142.415424 151.644895 
L 142.945086 151.604838 
L 143.474749 151.835173 
L 144.004411 152.331114 
L 144.622351 153.236539 
L 145.328567 154.684877 
L 146.211338 157.075022 
L 147.182386 160.371887 
L 148.418265 165.403252 
L 150.360361 174.433344 
L 152.125902 182.292323 
L 153.008673 185.328503 
L 153.626613 186.803849 
L 154.067998 187.423288 
L 154.421106 187.607628 
L 154.685938 187.541456 
L 155.039046 187.15265 
L 155.392154 186.38927 
L 155.83354 184.860658 
L 156.363202 182.117664 
L 156.981142 177.600809 
L 157.687358 170.734305 
L 158.658406 158.920932 
L 160.247394 139.470189 
L 160.777056 135.44659 
L 161.130164 134.103047 
L 161.306719 133.90717 
L 161.483273 134.054574 
L 161.748104 134.949282 
L 162.101212 137.433694 
L 162.542598 142.568537 
L 163.160537 152.994825 
L 165.367464 194.486234 
L 165.80885 198.456638 
L 166.161958 199.99434 
L 166.338512 200.226785 
L 166.515066 200.117992 
L 166.779898 199.354913 
L 167.133006 197.337165 
L 167.662668 192.599526 
L 168.545439 182.011196 
L 170.222704 161.744884 
L 171.017197 154.730601 
L 171.723414 150.363501 
L 172.253077 148.218808 
L 172.694462 147.11776 
L 173.135847 146.58353 
L 173.488956 146.524149 
L 173.842064 146.757584 
L 174.283449 147.413157 
L 174.813112 148.655074 
L 175.519328 150.926944 
L 176.490376 154.860126 
L 178.344195 163.551622 
L 180.286291 172.315786 
L 181.52217 176.918791 
L 182.493218 179.752249 
L 183.287711 181.463405 
L 183.993928 182.476292 
L 184.523591 182.901113 
L 184.964976 183.026374 
L 185.406361 182.937524 
L 185.847747 182.629658 
L 186.377409 181.965397 
L 186.995349 180.777362 
L 187.701565 178.87019 
L 188.496059 176.030792 
L 189.467107 171.614228 
L 190.614709 165.25333 
L 193.969238 145.67974 
L 194.587178 143.666284 
L 194.940286 143.049351 
L 195.205117 142.893054 
L 195.469948 143.030985 
L 195.73478 143.490536 
L 196.087888 144.647224 
L 196.529273 147.037778 
L 197.058936 151.374004 
L 197.676875 158.447984 
L 198.559646 171.65456 
L 200.148634 196.124456 
L 200.678296 200.870875 
L 201.031404 202.24604 
L 201.207959 202.324386 
L 201.384513 201.978557 
L 201.649344 200.65668 
L 202.002452 197.432337 
L 202.532115 189.813635 
L 203.326609 174.222694 
L 204.562488 149.88451 
L 205.180427 141.617678 
L 205.621813 138.019499 
L 205.974921 136.545155 
L 206.239752 136.213134 
L 206.416306 136.333474 
L 206.681138 136.982373 
L 207.034246 138.618058 
L 207.563908 142.382694 
L 208.358402 149.890431 
L 210.565329 171.642313 
L 211.4481 177.952434 
L 212.154316 181.617833 
L 212.772256 183.828603 
L 213.301918 185.025858 
L 213.743304 185.567217 
L 214.096412 185.723484 
L 214.449521 185.651378 
L 214.890906 185.265451 
L 215.420568 184.411566 
L 216.038508 182.947195 
L 216.833002 180.4568 
L 217.892327 176.354432 
L 219.657868 168.472547 
L 221.953072 158.422826 
L 223.100674 154.325747 
L 223.983445 151.899695 
L 224.689662 150.532139 
L 225.219324 149.894899 
L 225.66071 149.646117 
L 226.013818 149.645965 
L 226.366926 149.833037 
L 226.808312 150.343876 
L 227.337974 151.383784 
L 227.955914 153.212881 
L 228.66213 156.140139 
L 229.456624 160.495847 
L 230.427672 167.223268 
L 231.840105 178.860162 
L 233.164261 189.294455 
L 233.782201 192.780044 
L 234.223586 194.278787 
L 234.488418 194.671981 
L 234.664972 194.693346 
L 234.841526 194.506299 
L 235.106357 193.80794 
L 235.459465 192.042262 
L 235.900851 188.416132 
L 236.430513 181.970143 
L 237.13673 170.272085 
L 239.078826 135.723358 
L 239.520211 131.832511 
L 239.785042 130.786044 
L 239.961597 130.659394 
L 240.138151 130.994121 
L 240.402982 132.346263 
L 240.75609 135.639778 
L 241.285753 143.256379 
L 242.168524 160.062507 
L 243.316126 180.990333 
L 243.934065 188.832535 
L 244.463728 193.049825 
L 244.816836 194.589924 
L 245.081667 195.122392 
L 245.258221 195.202338 
L 245.434775 195.077617 
L 245.699607 194.537777 
L 246.052715 193.236946 
L 246.582377 190.281996 
L 247.376871 184.340267 
L 250.378292 160.357997 
L 251.261063 155.467343 
L 252.055556 152.277894 
L 252.673496 150.594202 
L 253.203158 149.68917 
L 253.644544 149.298191 
L 253.997652 149.212143 
L 254.35076 149.318086 
L 254.792146 149.706033 
L 255.321808 150.520627 
L 255.939748 151.908436 
L 256.734242 154.298887 
L 257.70529 157.982944 
L 259.029446 163.966647 
L 262.648806 180.915962 
L 263.531577 183.874384 
L 264.237793 185.514044 
L 264.767456 186.212628 
L 265.120564 186.386386 
L 265.473673 186.302477 
L 265.826781 185.940842 
L 266.268166 185.069338 
L 266.797829 183.364583 
L 267.415768 180.410968 
L 268.121985 175.724568 
L 268.916479 168.854106 
L 270.064081 156.708004 
L 271.476514 141.961237 
L 272.094453 137.660797 
L 272.447562 136.334829 
L 272.712393 136.016409 
L 272.888947 136.163349 
L 273.153778 136.964137 
L 273.506887 139.177703 
L 273.948272 143.837505 
L 274.477935 152.053764 
L 275.272428 168.294406 
L 276.508307 193.561298 
L 277.03797 200.400473 
L 277.391078 202.806283 
L 277.655909 203.387367 
L 277.832464 203.192958 
L 278.097295 202.061672 
L 278.450403 199.114613 
L 278.980066 192.18648 
L 279.862836 176.885749 
L 281.098716 156.234158 
L 281.804932 147.975396 
L 282.334595 143.960141 
L 282.77598 142.011641 
L 283.129088 141.297409 
L 283.39392 141.209292 
L 283.658751 141.468279 
L 284.011859 142.29368 
L 284.453245 143.980283 
L 285.071184 147.282751 
L 286.042232 153.836723 
L 288.690544 172.349656 
L 289.661592 177.519121 
L 290.544363 181.050563 
L 291.25058 183.017855 
L 291.868519 184.103593 
L 292.309905 184.518313 
L 292.75129 184.637141 
L 293.104398 184.523232 
L 293.545784 184.125973 
L 294.075446 183.28748 
L 294.693386 181.834314 
L 295.399602 179.591947 
L 296.282373 176.01456 
L 297.429975 170.328267 
L 299.372071 159.279425 
L 300.872781 151.245959 
L 301.755552 147.64092 
L 302.373492 145.966451 
L 302.814877 145.329122 
L 303.079708 145.207368 
L 303.34454 145.301574 
L 303.609371 145.628102 
L 303.962479 146.451727 
L 304.403865 148.151622 
L 304.933527 151.240503 
L 305.551467 156.338698 
L 306.34596 165.129285 
L 307.581839 182.036363 
L 308.552887 194.395417 
L 309.08255 198.918306 
L 309.435658 200.499576 
L 309.612212 200.772694 
L 309.788766 200.669043 
L 309.965321 200.170329 
L 310.230152 198.655139 
L 310.58326 195.186899 
L 311.112923 187.061091 
L 311.819139 172.103261 
L 313.231573 141.422971 
L 313.761235 134.473042 
L 314.114343 132.031615 
L 314.379175 131.395485 
L 314.555729 131.525339 
L 314.732283 132.077075 
L 314.997114 133.638945 
L 315.4385 137.926041 
L 316.056439 146.454413 
L 318.263366 179.239516 
L 318.969583 185.728389 
L 319.499245 188.835411 
L 319.940631 190.328839 
L 320.293739 190.864946 
L 320.55857 190.916584 
L 320.823401 190.69412 
L 321.17651 190.013431 
L 321.617895 188.627129 
L 322.235835 185.884005 
L 323.118605 180.843994 
L 327.091074 156.540435 
L 327.973845 152.945044 
L 328.680061 150.852562 
L 329.298001 149.639186 
L 329.827663 149.078215 
L 330.269049 148.956683 
L 330.622157 149.088367 
L 331.063543 149.539841 
L 331.593205 150.500008 
L 332.211145 152.186655 
L 332.917361 154.832444 
L 333.800132 159.134096 
L 334.859457 165.52248 
L 336.801553 179.010547 
L 337.949155 186.242277 
L 338.655371 189.521166 
L 339.185034 191.030913 
L 339.538142 191.458456 
L 339.802973 191.426538 
L 340.067805 191.061523 
L 340.420913 190.012458 
L 340.862298 187.725501 
L 341.391961 183.464816 
L 342.0099 176.40247 
L 342.804394 164.498048 
L 344.569936 136.654132 
L 345.011321 132.668903 
L 345.364429 131.222051 
L 345.540984 131.162594 
L 345.717538 131.572664 
L 345.982369 133.088468 
L 346.335477 136.774622 
L 346.86514 145.531124 
L 347.659634 163.523562 
L 348.807236 189.14367 
L 349.336898 196.908475 
L 349.778283 200.51277 
L 350.043115 201.387843 
L 350.219669 201.455085 
L 350.396223 201.131583 
L 350.661054 199.968363 
L 351.014163 197.308151 
L 351.543825 191.48401 
L 352.60315 176.550281 
L 353.839029 159.992971 
L 354.633523 152.164593 
L 355.251462 147.986331 
L 355.781125 145.726744 
L 356.22251 144.716701 
L 356.575619 144.433348 
L 356.84045 144.501862 
L 357.193558 144.93546 
L 357.634944 145.969376 
L 358.164606 147.825606 
L 358.9591 151.590861 
L 360.106702 158.35114 
L 363.108122 176.624973 
L 364.07917 181.070596 
L 364.873664 183.7547 
L 365.491604 185.149291 
L 366.021266 185.814378 
L 366.374374 185.969932 
L 366.727483 185.88641 
L 367.080591 185.557594 
L 367.521976 184.794294 
L 368.051639 183.353992 
L 368.669578 180.949227 
L 369.375795 177.269801 
L 370.258566 171.392023 
L 371.494445 161.368146 
L 373.436541 145.45509 
L 374.05448 141.944018 
L 374.495866 140.400772 
L 374.760697 139.961231 
L 374.937251 139.898455 
L 375.113805 140.034613 
L 375.378637 140.637444 
L 375.731745 142.238708 
L 376.17313 145.605206 
L 376.702793 151.694232 
L 377.409009 162.983653 
L 379.615936 201.486336 
L 379.969045 203.885915 
L 380.145599 204.345317 
L 380.233876 204.379365 
L 380.41043 204.047838 
L 380.675261 202.546311 
L 381.02837 198.727312 
L 381.558032 189.609936 
L 382.440803 169.066772 
L 383.411851 147.531632 
L 384.02979 138.445599 
L 384.471176 134.907099 
L 384.736007 133.975331 
L 384.912561 133.825832 
L 385.089115 134.031476 
L 385.353947 134.954551 
L 385.707055 137.192062 
L 386.236717 142.233389 
L 387.119488 153.214458 
L 388.708476 173.047107 
L 389.502969 180.444258 
L 390.209186 185.062121 
L 390.738848 187.298146 
L 391.180234 188.392887 
L 391.533342 188.795863 
L 391.798173 188.839318 
L 392.063005 188.674303 
L 392.416113 188.151886 
L 392.857498 187.056564 
L 393.475438 184.80844 
L 394.269932 180.942211 
L 395.417534 174.079433 
L 398.507231 154.882616 
L 399.390002 150.845577 
L 400.096219 148.510066 
L 400.625881 147.381966 
L 401.067267 146.899142 
L 401.420375 146.83541 
L 401.773483 147.074483 
L 402.126592 147.629301 
L 402.567977 148.782741 
L 403.09764 150.859023 
L 403.715579 154.241638 
L 404.510073 160.04863 
L 405.481121 169.027576 
L 407.952879 192.978969 
L 408.482541 195.749286 
L 408.83565 196.561161 
L 409.012204 196.600065 
L 409.188758 196.371295 
L 409.453589 195.493386 
L 409.806698 193.262486 
L 410.248083 188.698707 
L 410.777745 180.684913 
L 411.572239 164.581353 
L 412.896395 137.029179 
L 413.426058 130.540941 
L 413.690889 129.00251 
L 413.867443 128.679824 
L 413.95572 128.734847 
L 414.132274 129.279233 
L 414.397106 131.163412 
L 414.750214 135.538814 
L 415.279876 145.37029 
L 417.575081 193.124672 
L 418.016466 197.199637 
L 418.369574 198.789736 
L 418.546128 199.056855 
L 418.722683 198.994653 
L 418.899237 198.623786 
L 419.164068 197.539016 
L 419.605453 194.528911 
L 420.223393 188.461083 
L 421.635826 171.39157 
L 422.783428 158.90326 
L 423.577922 152.422617 
L 424.284139 148.436341 
L 424.813801 146.55886 
L 425.255186 145.698424 
L 425.608295 145.448752 
L 425.873126 145.504419 
L 426.226234 145.884534 
L 426.66762 146.816896 
L 427.197282 148.539116 
L 427.903499 151.707729 
L 428.874547 157.309309 
L 430.463534 168.148391 
L 432.229076 179.810339 
L 433.111847 184.376909 
L 433.818063 186.993854 
L 434.347726 188.195418 
L 434.700834 188.58018 
L 434.965665 188.631023 
L 435.230496 188.466416 
L 435.583605 187.895436 
L 436.02499 186.590148 
L 436.554653 184.121531 
L 437.172592 179.978693 
L 437.878809 173.646777 
L 438.849857 162.671155 
L 440.791952 140.066575 
L 441.321615 136.446151 
L 441.674723 135.312946 
L 441.851277 135.205778 
L 442.027832 135.434448 
L 442.292663 136.447254 
L 442.645771 139.116227 
L 443.087157 144.617827 
L 443.616819 154.180144 
L 444.49959 174.886845 
L 445.470638 196.558172 
L 446.0003 203.780938 
L 446.353408 205.823476 
L 446.529963 205.93416 
L 446.706517 205.433056 
L 446.971348 203.566578 
L 447.324456 199.164099 
L 447.854119 189.289469 
L 450.061046 143.181852 
L 450.590708 137.957627 
L 450.943817 136.231626 
L 451.208648 135.804751 
L 451.385202 135.903297 
L 451.650033 136.577149 
L 452.003142 138.34408 
L 452.532804 142.485059 
L 453.327298 150.855265 
L 455.622502 176.172138 
L 456.416996 182.305374 
L 457.034935 185.681917 
L 457.564598 187.573035 
L 458.005983 188.451008 
L 458.359091 188.711095 
L 458.623923 188.657816 
L 458.977031 188.269962 
L 459.418416 187.304645 
L 459.948079 185.50001 
L 460.654295 182.135868 
L 461.537066 176.69995 
L 462.861222 166.961569 
L 464.891595 152.112825 
L 465.774366 147.29014 
L 466.392306 145.027671 
L 466.833691 144.121785 
L 467.098522 143.901481 
L 467.363353 143.943816 
L 467.628185 144.264011 
L 467.981293 145.146541 
L 468.422678 147.018286 
L 468.952341 150.432351 
L 469.57028 156.020733 
L 470.364774 165.492839 
L 472.924809 198.458391 
L 473.277918 200.29062 
L 473.542749 200.725221 
L 473.719303 200.515497 
L 473.984134 199.397604 
L 474.337243 196.338428 
L 474.778628 189.988544 
L 475.396568 176.960875 
L 477.338663 131.952617 
L 477.691772 128.544693 
L 477.956603 127.64292 
L 478.04488 127.664461 
L 478.221434 128.185083 
L 478.486265 130.116475 
L 478.839374 134.636321 
L 479.369036 144.658505 
L 481.487686 189.219506 
L 482.017349 194.903095 
L 482.370457 196.977704 
L 482.635288 197.676301 
L 482.811842 197.759714 
L 482.988396 197.557258 
L 483.253228 196.759621 
L 483.606336 194.882536 
L 484.135999 190.672236 
L 485.018769 181.320538 
L 487.137419 157.989218 
L 487.931913 151.653513 
L 488.63813 147.713735 
L 489.167792 145.865964 
L 489.609177 145.052909 
L 489.962286 144.868537 
L 490.227117 144.994465 
L 490.580225 145.50233 
L 491.021611 146.657447 
L 491.551273 148.750601 
L 492.25749 152.600078 
L 493.140261 158.776908 
L 494.552694 170.493302 
L 496.141681 183.303442 
L 496.936175 188.150433 
L 497.554115 190.624962 
L 497.9955 191.502445 
L 498.260331 191.61918 
L 498.525162 191.40133 
L 498.789994 190.828915 
L 499.143102 189.484873 
L 499.584487 186.830648 
L 500.11415 182.189261 
L 500.820367 173.649717 
L 501.791414 158.62404 
L 503.115571 138.373857 
L 503.645233 133.352204 
L 503.998341 131.842009 
L 504.174896 131.748549 
L 504.35145 132.135095 
L 504.616281 133.659373 
L 504.969389 137.501617 
L 505.410775 145.117378 
L 506.028714 160.040984 
L 507.529425 198.571349 
L 507.97081 204.716413 
L 508.235641 206.47529 
L 508.412195 206.80318 
L 508.500472 206.714405 
L 508.677027 206.04212 
L 508.941858 203.85546 
L 509.383243 197.467593 
L 510.001183 184.487265 
L 511.59017 149.425538 
L 512.20811 141.057256 
L 512.649495 137.65964 
L 513.002604 136.447417 
L 513.179158 136.310382 
L 513.355712 136.464461 
L 513.620543 137.200587 
L 513.973651 139.018619 
L 514.503314 143.193987 
L 515.297808 151.602382 
L 517.681289 178.230237 
L 518.475782 184.328383 
L 519.093722 187.561994 
L 519.623384 189.219726 
L 519.976493 189.749019 
L 520.241324 189.847037 
L 520.506155 189.693446 
L 520.859264 189.107449 
L 521.300649 187.787615 
L 521.830311 185.400592 
L 522.536528 181.010946 
L 523.419299 173.978564 
L 525.096563 158.29424 
L 526.332443 147.787962 
L 527.038659 143.501785 
L 527.568322 141.583224 
L 527.92143 141.066311 
L 528.097984 141.063724 
L 528.274538 141.242792 
L 528.53937 141.868251 
L 528.892478 143.401185 
L 529.333863 146.489187 
L 529.863526 151.932847 
L 530.569742 161.919359 
L 531.717344 182.278111 
L 532.600115 196.637336 
L 533.129778 202.058838 
L 533.394609 203.346913 
L 533.571163 203.581652 
L 533.747717 203.278673 
L 534.012548 201.766046 
L 534.365657 197.727653 
L 534.807042 189.568914 
L 535.424982 173.567313 
L 536.837415 135.386541 
L 537.2788 128.897373 
L 537.543632 127.056428 
L 537.720186 126.724248 
L 537.808463 126.824978 
L 537.985017 127.546916 
L 538.249848 129.863372 
L 538.691234 136.568972 
L 539.39745 152.204598 
L 540.809884 184.213662 
L 541.427823 193.03184 
L 541.869209 196.644199 
L 542.222317 197.952964 
L 542.398871 198.112703 
L 542.575425 197.964648 
L 542.840256 197.207561 
L 543.193365 195.30994 
L 543.723027 190.922017 
L 544.517521 182.054075 
L 546.812725 154.989123 
L 547.607219 148.584947 
L 548.225158 145.28806 
L 548.666544 143.896939 
L 549.019652 143.370538 
L 549.284483 143.315719 
L 549.549314 143.547859 
L 549.902423 144.292871 
L 550.343808 145.895295 
L 550.873471 148.733513 
L 551.579687 153.87893 
L 552.550735 162.883675 
L 555.199048 188.781526 
L 555.816987 192.436923 
L 556.258373 193.872525 
L 556.523204 194.175774 
L 556.699758 194.122928 
L 556.964589 193.637169 
L 557.317697 192.188534 
L 557.759083 189.027662 
L 558.288745 183.227056 
L 558.994962 172.359435 
L 560.230841 148.490886 
L 561.025335 135.225821 
L 561.46672 130.770931 
L 561.731551 129.565077 
L 561.908106 129.466621 
L 562.08466 129.971697 
L 562.349491 131.905932 
L 562.702599 136.698066 
L 563.143985 145.995473 
L 563.850201 166.299746 
L 564.909526 196.695878 
L 565.350912 204.55047 
L 565.70402 207.609098 
L 565.880574 207.989412 
L 565.968851 207.893195 
L 566.145405 207.142271 
L 566.410237 204.693848 
L 566.851622 197.577267 
L 567.557839 181.03727 
L 568.881995 149.496548 
L 569.499934 140.170153 
L 569.94132 136.430448 
L 570.294428 135.16541 
L 570.470982 135.072977 
L 570.647536 135.316086 
L 570.912368 136.26256 
L 571.265476 138.485836 
L 571.795139 143.471111 
L 572.677909 154.512918 
L 574.531728 178.416224 
L 575.326222 185.737184 
L 575.944161 189.523533 
L 576.385547 191.116625 
L 576.738655 191.709986 
L 577.003486 191.759206 
L 577.268317 191.47423 
L 577.621426 190.587669 
L 578.062811 188.701464 
L 578.592474 185.385539 
L 579.29869 179.427914 
L 580.269738 169.167608 
L 582.388388 146.0527 
L 583.006328 141.524227 
L 583.447713 139.542171 
L 583.800821 138.875843 
L 583.977375 138.884248 
L 584.15393 139.135476 
L 584.418761 139.988698 
L 584.771869 142.054598 
L 585.213255 146.171931 
L 585.742917 153.318223 
L 586.449134 166.038335 
L 588.214675 200.085558 
L 588.656061 204.402126 
L 588.920892 205.337506 
L 589.009169 205.337796 
L 589.185723 204.845045 
L 589.450554 202.833115 
L 589.803663 197.75932 
L 590.245048 187.864635 
L 591.039542 163.434011 
L 592.01059 135.050416 
L 592.451975 127.590895 
L 592.716806 125.492127 
L 592.893361 125.138583 
L 592.981638 125.274075 
L 593.158192 126.15396 
L 593.423023 128.912849 
L 593.864408 136.793658 
L 594.570625 154.818449 
L 595.718227 184.357951 
L 596.336167 194.771341 
L 596.777552 198.905511 
L 597.042383 200.061135 
L 597.218937 200.306661 
L 597.395492 200.155672 
L 597.660323 199.239011 
L 598.013431 196.873735 
L 598.543094 191.366762 
L 599.337587 180.337347 
L 601.191406 153.901486 
L 601.897623 146.87952 
L 602.427285 143.339516 
L 602.868671 141.608912 
L 603.221779 141.036591 
L 603.398333 141.019473 
L 603.663164 141.324471 
L 604.016273 142.331603 
L 604.457658 144.505973 
L 604.98732 148.336798 
L 605.693537 155.179204 
L 606.841139 169.000792 
L 608.341849 186.941174 
L 609.048066 192.904685 
L 609.489451 195.156142 
L 609.84256 195.939743 
L 610.019114 195.953776 
L 610.195668 195.699713 
L 610.460499 194.793873 
L 610.813608 192.567714 
L 611.254993 188.113598 
L 611.784656 180.400123 
L 612.579149 164.90556 
L 614.07986 134.485308 
L 614.521245 129.535585 
L 614.786076 128.26773 
L 614.874353 128.169503 
L 614.96263 128.242374 
L 615.139185 128.917516 
L 615.404016 131.290868 
L 615.757124 136.992264 
L 616.286787 150.410268 
L 618.228882 206.886538 
L 618.493714 209.442814 
L 618.670268 209.996981 
L 618.758545 209.926699 
L 618.935099 209.10341 
L 619.19993 206.242516 
L 619.553039 199.756228 
L 620.170978 183.288327 
L 621.495134 146.116687 
L 622.024797 136.866312 
L 622.466182 132.77607 
L 622.731013 131.892088 
L 622.907568 131.919782 
L 623.084122 132.409412 
L 623.348953 133.93834 
L 623.790338 138.295344 
L 624.408278 147.143373 
L 626.880036 185.9156 
L 627.497976 191.366721 
L 627.939361 193.638471 
L 628.292469 194.45739 
L 628.469024 194.536602 
L 628.645578 194.399508 
L 628.910409 193.797927 
L 629.263517 192.287145 
L 629.704903 189.34324 
L 630.322842 183.515513 
L 631.205613 172.659461 
L 633.41254 144.227682 
L 634.03048 139.416963 
L 634.383588 137.887527 
L 634.648419 137.42089 
L 634.824973 137.459698 
L 635.001527 137.79203 
L 635.266359 138.861094 
L 635.619467 141.383011 
L 636.060852 146.308051 
L 636.678792 156.29645 
L 637.561563 175.058595 
L 638.709165 198.773255 
L 639.15055 204.256734 
L 639.415381 205.839236 
L 639.591936 206.060288 
L 639.76849 205.562168 
L 640.033321 203.404826 
L 640.386429 197.865413 
L 640.827815 186.972264 
L 641.622308 160.101156 
L 642.505079 132.222359 
L 642.946465 124.549304 
L 643.211296 122.862239 
L 643.299573 122.816226 
L 643.476127 123.497522 
L 643.740958 126.386194 
L 644.094067 133.355874 
L 644.712006 151.610747 
L 646.036162 192.359512 
L 646.565825 201.433444 
L 646.918933 204.207203 
L 647.095487 204.62563 
L 647.183764 204.603363 
L 647.360319 204.117718 
L 647.62515 202.365851 
L 647.978258 198.377342 
L 648.596198 188.085782 
L 650.891402 145.993397 
L 651.421064 140.717882 
L 651.86245 138.257603 
L 652.127281 137.636439 
L 652.303835 137.572531 
L 652.480389 137.782052 
L 652.74522 138.591766 
L 653.098329 140.543885 
L 653.627991 145.139874 
L 654.334208 153.740699 
L 655.658364 173.637585 
L 656.717689 188.175353 
L 657.335629 194.070316 
L 657.777014 196.519993 
L 658.041845 197.159349 
L 658.218399 197.21084 
L 658.394954 196.949672 
L 658.659785 195.953618 
L 659.012893 193.472638 
L 659.454278 188.524963 
L 660.072218 178.413283 
L 660.954989 159.40694 
L 662.102591 135.43652 
L 662.543976 129.901304 
L 662.808808 128.308047 
L 662.985362 128.091437 
L 663.161916 128.605657 
L 663.426747 130.814118 
L 663.779855 136.48477 
L 664.221241 147.664744 
L 665.015734 175.354714 
L 665.810228 201.689249 
L 666.251614 210.274458 
L 666.516445 212.29134 
L 666.604722 212.393094 
L 666.692999 212.205214 
L 666.869553 210.96612 
L 667.134384 207.029646 
L 667.57577 195.670361 
L 668.370264 166.672823 
L 669.164757 139.969964 
L 669.606143 130.6827 
L 669.959251 126.978014 
L 670.135805 126.385993 
L 670.224082 126.394773 
L 670.400636 126.995386 
L 670.665468 129.248992 
L 671.018576 134.418168 
L 671.636515 147.61417 
L 673.31378 186.337232 
L 673.843442 193.959687 
L 674.284828 197.708772 
L 674.637936 198.964419 
L 674.81449 199.025412 
L 674.991044 198.72287 
L 675.255876 197.61954 
L 675.608984 195.03022 
L 676.138647 189.099525 
L 676.93314 176.940565 
L 678.963513 144.229707 
L 679.493176 138.998165 
L 679.934561 136.562179 
L 680.199392 136.051869 
L 680.375946 136.132554 
L 680.5525 136.559354 
L 680.817332 137.858441 
L 681.17044 140.821522 
L 681.611825 146.435946 
L 682.229765 157.424258 
L 683.465644 185.088308 
L 684.171861 198.694 
L 684.613246 203.942275 
L 684.878077 205.35138 
L 685.054632 205.447428 
L 685.231186 204.817663 
L 685.496017 202.449265 
L 685.849125 196.593108 
L 686.290511 185.213952 
L 687.085004 157.168214 
L 687.879498 130.637203 
L 688.320883 122.358072 
L 688.585715 120.802157 
L 688.673992 120.910516 
L 688.850546 122.085965 
L 689.115377 126.200879 
L 689.468486 135.66893 
L 690.086425 159.764747 
L 691.057473 197.817958 
L 691.498858 207.846045 
L 691.76369 210.653639 
L 691.940244 211.149683 
L 692.028521 210.994986 
L 692.205075 209.914722 
L 692.469906 206.51595 
L 692.911292 196.976071 
L 693.705785 173.168292 
L 694.676833 145.930784 
L 695.206496 136.421718 
L 695.559604 132.832602 
L 695.824435 131.615625 
L 696.000989 131.486832 
L 696.177544 131.880576 
L 696.442375 133.391363 
L 696.795483 136.947892 
L 697.325146 144.94638 
L 698.207916 162.439191 
L 699.443796 186.469808 
L 700.061735 194.712377 
L 700.50312 198.158035 
L 700.767952 199.115837 
L 700.944506 199.269166 
L 701.12106 199.02748 
L 701.385891 197.92129 
L 701.739 195.078239 
L 702.180385 189.446584 
L 702.798325 178.262355 
L 704.122481 148.264727 
L 704.828697 135.130278 
L 705.270083 130.357422 
L 705.534914 129.24851 
L 705.623191 129.209146 
L 705.799745 129.655313 
L 706.064576 131.687921 
L 706.417685 136.999263 
L 706.85907 147.624384 
L 707.565287 171.443857 
L 708.536335 204.157701 
L 708.97772 212.138643 
L 709.154274 213.297647 
L 709.242551 213.389659 
L 709.330828 213.146368 
L 709.507383 211.63925 
L 709.772214 206.849747 
L 710.125322 196.129385 
L 710.743262 169.183039 
L 711.626032 131.373844 
L 712.067418 121.261466 
L 712.332249 119.343877 
L 712.420526 119.420761 
L 712.59708 120.620269 
L 712.861912 124.865802 
L 713.303297 137.295002 
L 714.362622 178.173262 
L 714.980562 197.104003 
L 715.421947 204.888411 
L 715.686778 206.975049 
L 715.863332 207.303375 
L 716.039886 206.819715 
L 716.304718 204.681192 
L 716.657826 199.530301 
L 717.187489 188.126712 
L 719.217861 139.87554 
L 719.659247 134.613373 
L 720.012355 132.607942 
L 720.188909 132.366813 
L 720.365463 132.633467 
L 720.630295 133.96831 
L 720.983403 137.411921 
L 721.424788 144.113041 
L 722.131005 159.023584 
L 723.808269 196.872594 
L 724.249655 202.417755 
L 724.514486 204.057005 
L 724.69104 204.35232 
L 724.779317 204.247611 
L 724.955872 203.517388 
L 725.220703 201.092075 
L 725.573811 195.379334 
L 726.103474 181.952589 
L 726.986244 151.682676 
L 727.692461 129.849405 
L 728.045569 123.352465 
L 728.310401 121.417981 
L 728.398678 121.408539 
L 728.575232 122.397557 
L 728.840063 126.451625 
L 729.193171 136.485751 
L 729.722834 159.37256 
L 730.782159 207.794713 
L 731.135267 215.900879 
L 731.311821 217.431681 
L 731.400098 217.52723 
L 731.576652 216.374389 
L 731.841484 211.412076 
L 732.194592 199.565454 
L 732.900809 165.732297 
L 733.607025 134.684787 
L 734.048411 123.628884 
L 734.313242 121.00786 
L 734.401519 120.813027 
L 734.489796 120.948958 
L 734.66635 122.175713 
L 734.931181 126.210453 
L 735.372567 137.654652 
L 736.343615 172.177004 
L 737.049831 193.718115 
L 737.491217 202.161469 
L 737.844325 205.494596 
L 738.020879 205.986663 
L 738.109156 205.943079 
L 738.285711 205.29142 
L 738.550542 202.968402 
L 738.90365 197.608939 
L 739.433313 185.74115 
L 741.551962 133.154325 
L 741.905071 129.791557 
L 742.169902 129.072255 
L 742.346456 129.499599 
L 742.611287 131.524136 
L 742.964396 136.758113 
L 743.405781 147.007853 
L 744.111998 169.47277 
L 745.171323 202.761817 
L 745.612708 210.073291 
L 745.789262 211.145231 
L 745.877539 211.232036 
L 745.965816 211.006782 
L 746.142371 209.59416 
L 746.407202 205.032857 
L 746.76031 194.562827 
L 747.289973 171.405642 
L 748.349298 123.333959 
L 748.702406 116.120637 
L 748.87896 115.355765 
L 748.967237 115.739157 
L 749.143791 118.055487 
L 749.408623 125.278688 
L 749.850008 145.674962 
L 751.085887 211.431662 
L 751.438995 218.705624 
L 751.61555 219.245648 
L 751.792104 217.730371 
L 752.056935 211.887347 
L 752.49832 194.59429 
L 753.999031 127.602256 
L 754.352139 121.83209 
L 754.528693 121.044924 
L 754.61697 121.166138 
L 754.793524 122.39698 
L 755.058356 126.52965 
L 755.499741 138.405679 
L 756.382512 171.473343 
L 757.177006 197.456345 
L 757.618391 205.724038 
L 757.883222 207.921005 
L 758.059776 208.170411 
L 758.23633 207.446419 
L 758.501162 204.585837 
L 758.85427 197.713989 
L 759.383933 182.160405 
L 761.061197 128.199099 
L 761.414305 124.018886 
L 761.59086 123.631262 
L 761.767414 124.462671 
L 762.032245 128.04582 
L 762.385353 137.058133 
L 762.915016 158.097285 
L 764.150895 211.573688 
L 764.504003 217.43753 
L 764.59228 217.720589 
L 764.680557 217.491544 
L 764.857111 215.458385 
L 765.121943 208.47664 
L 765.475051 192.504701 
L 766.975761 112.292049 
L 767.152316 110.692755 
L 767.240593 110.952037 
L 767.417147 113.594973 
L 767.681978 122.589221 
L 768.123363 148.056832 
L 769.182688 213.501153 
L 769.44752 220.445232 
L 769.624074 221.878558 
L 769.712351 221.628325 
L 769.888905 219.261635 
L 770.153736 211.46256 
L 770.595122 189.985645 
L 771.742724 128.921261 
L 772.095832 120.003756 
L 772.360663 118.017221 
L 772.44894 118.257806 
L 772.625494 120.042211 
L 772.890326 125.73401 
L 773.331711 141.678699 
L 774.920699 208.042195 
L 775.273807 212.859831 
L 775.362084 213.132199 
L 775.450361 213.02147 
L 775.626915 211.652295 
L 775.891746 206.808863 
L 776.244855 195.657094 
L 776.862794 167.284042 
L 777.745565 127.372421 
L 778.098673 119.059819 
L 778.275228 117.576241 
L 778.363505 117.574934 
L 778.540059 119.109716 
L 778.80489 125.275812 
L 779.157998 140.183707 
L 779.864215 183.996429 
L 780.482155 216.820286 
L 780.746986 222.965899 
L 780.835263 223.548551 
L 780.92354 223.343705 
L 781.100094 220.51559 
L 781.364925 210.338824 
L 781.806311 180.414377 
L 782.689082 114.499387 
L 782.953913 106.219606 
L 783.04219 105.419425 
L 783.130467 105.650933 
L 783.307021 109.203801 
L 783.571852 121.743425 
L 784.013238 156.498866 
L 784.807731 218.384426 
L 785.072563 226.926156 
L 785.16084 227.83874 
L 785.249117 227.763384 
L 785.425671 224.71723 
L 785.690502 213.568387 
L 786.131888 182.596842 
L 786.926381 124.568891 
L 787.27949 112.077529 
L 787.456044 110.451302 
L 787.544321 110.825465 
L 787.720875 113.87402 
L 787.985706 123.684635 
L 788.427092 150.29414 
L 789.39814 211.695144 
L 789.751248 220.701064 
L 789.839525 221.218499 
L 789.927802 221.011861 
L 790.104356 218.43556 
L 790.369187 209.431542 
L 790.810573 183.460079 
L 791.869898 115.796552 
L 792.134729 110.347516 
L 792.223006 110.243963 
L 792.39956 112.746544 
L 792.664392 123.167516 
L 793.105777 155.144836 
L 793.988548 224.217581 
L 794.253379 230.169016 
L 794.341656 229.629048 
L 794.51821 224.575976 
L 794.783041 207.54849 
L 795.312704 151.389855 
L 795.842366 103.529834 
L 796.018921 97.772452 
L 796.107198 97.490783 
L 796.283752 102.340298 
L 796.548583 122.331225 
L 797.166523 200.246849 
L 797.519631 233.499831 
L 797.696185 239.867014 
L 797.784462 239.964941 
L 797.961016 233.894399 
L 798.225848 210.70766 
L 799.285172 94.229981 
L 799.37345 93.414514 
L 799.461727 94.78004 
L 799.638281 103.831542 
L 799.991389 142.442658 
L 800.697606 230.945216 
L 800.962437 240.545637 
L 801.050714 239.239808 
L 801.227268 229.874509 
L 801.580377 189.076263 
L 802.286593 97.636555 
L 802.463147 91.360141 
L 802.551424 92.234407 
L 802.727979 102.243388 
L 802.99281 135.359241 
L 803.699026 243.132034 
L 803.875581 248.709612 
L 803.963858 245.769033 
L 804.140412 228.213835 
L 804.49352 157.629465 
L 804.934906 78.459775 
L 805.023183 75.115727 
L 805.11146 77.911912 
L 805.288014 102.499069 
L 805.994231 272.241649 
L 806.082508 266.67016 
L 806.259062 222.68961 
L 806.788724 46.700987 
L 806.877001 60.53788 
L 807.141833 201.97636 
L 807.406664 300.24358 
L 807.583218 201.31934 
L 807.848049 35.55267 
L 808.024603 162.354781 
L 808.201158 270.047925 
L 808.377712 164.809724 
L 808.554266 100.86814 
L 808.819097 210.555807 
L 808.907374 200.266666 
L 809.172205 140.906979 
L 809.437037 183.956232 
L 809.525314 178.723452 
L 809.790145 157.549222 
L 810.054976 173.458127 
L 810.319807 163.255303 
L 810.408085 163.702021 
L 810.672916 169.407787 
L 810.937747 165.530116 
L 811.026024 165.890362 
L 811.114301 166.94963 
L 811.114301 166.94963 
" clip-path="url(#p90c8efa70a)" style="fill: none; stroke: #1f77b4; stroke-width: 0.6; stroke-linecap: square"/>
   </g>
   <g id="line2d_28">
    <path d="M 88.301574 186.073226 
L 90.508501 160.478823 
L 91.302995 154.153264 
L 92.009211 150.299575 
L 92.538874 148.453055 
L 92.980259 147.538608 
L 93.333367 147.177526 
L 93.686476 147.114003 
L 94.039584 147.318138 
L 94.480969 147.904738 
L 95.010632 149.021884 
L 95.716849 151.068317 
L 96.687896 154.612674 
L 98.453438 162.091217 
L 100.660365 171.200955 
L 101.984521 175.723855 
L 103.043846 178.581112 
L 103.926617 180.353846 
L 104.632834 181.332999 
L 105.250773 181.849041 
L 105.780436 182.02785 
L 106.310098 181.956402 
L 106.839761 181.629296 
L 107.369423 181.042113 
L 107.987363 180.023785 
L 108.693579 178.416589 
L 109.488073 176.044888 
L 110.459121 172.362954 
L 111.606723 167.020101 
L 113.283987 157.927463 
L 114.961252 149.085714 
L 115.755746 145.944566 
L 116.285408 144.580957 
L 116.638516 144.102686 
L 116.903348 144.010357 
L 117.168179 144.172953 
L 117.43301 144.613782 
L 117.786118 145.672137 
L 118.227504 147.814543 
L 118.757166 151.668763 
L 119.375106 157.961888 
L 120.1696 168.56294 
L 122.199972 197.27535 
L 122.641358 200.530989 
L 122.906189 201.473194 
L 123.082743 201.634933 
L 123.259297 201.407688 
L 123.524129 200.324904 
L 123.877237 197.515289 
L 124.318622 191.985451 
L 125.024839 179.628926 
L 126.702103 148.311504 
L 127.320043 141.116348 
L 127.761428 138.146792 
L 128.114537 137.053975 
L 128.291091 136.908447 
L 128.467645 137.011523 
L 128.732476 137.596182 
L 129.085585 139.083626 
L 129.615247 142.523548 
L 130.409741 149.421702 
L 132.793222 171.157708 
L 133.675993 176.975032 
L 134.470486 180.769645 
L 135.088426 182.799074 
L 135.618088 183.938536 
L 136.147751 184.567954 
L 136.589136 184.735493 
L 136.942245 184.655174 
L 137.38363 184.309345 
L 137.913293 183.569311 
L 138.531232 182.314384 
L 139.325726 180.187299 
L 140.385051 176.675661 
L 142.062315 170.204723 
L 144.975459 158.918923 
L 146.211338 155.036979 
L 147.182386 152.69268 
L 147.888603 151.481608 
L 148.506542 150.821441 
L 149.036205 150.588142 
L 149.47759 150.649703 
L 149.918975 150.960687 
L 150.360361 151.535685 
L 150.890023 152.592397 
L 151.507963 154.353608 
L 152.214179 157.085252 
L 153.008673 161.076747 
L 153.979721 167.18999 
L 155.303877 177.127062 
L 156.892865 188.834067 
L 157.599081 192.445502 
L 158.040467 193.711864 
L 158.305298 194.000568 
L 158.481852 193.969719 
L 158.746683 193.558028 
L 159.011515 192.674959 
L 159.364623 190.711964 
L 159.806008 186.934763 
L 160.335671 180.472006 
L 161.130164 167.455584 
L 162.807429 138.268136 
L 163.337091 133.01932 
L 163.6902 131.457648 
L 163.866754 131.309252 
L 164.043308 131.588068 
L 164.308139 132.793399 
L 164.661248 135.783238 
L 165.19091 142.768364 
L 166.073681 158.381428 
L 167.30956 179.660147 
L 168.015777 187.998087 
L 168.545439 191.853994 
L 168.986825 193.53823 
L 169.251656 193.935912 
L 169.42821 193.967447 
L 169.693041 193.693734 
L 170.04615 192.794386 
L 170.487535 190.952061 
L 171.193752 186.787558 
L 172.429631 177.685481 
L 174.195172 164.940378 
L 175.254497 158.889792 
L 176.137268 155.069515 
L 176.843485 152.846236 
L 177.461424 151.499927 
L 177.991087 150.775584 
L 178.432472 150.461757 
L 178.873857 150.398676 
L 179.315243 150.573179 
L 179.844905 151.076566 
L 180.462845 152.037879 
L 181.169062 153.581297 
L 182.051832 156.091425 
L 183.111157 159.800602 
L 184.611868 165.950822 
L 187.87812 179.659609 
L 188.849167 182.767927 
L 189.555384 184.424783 
L 190.085047 185.239151 
L 190.526432 185.587814 
L 190.87954 185.62458 
L 191.232649 185.425863 
L 191.585757 184.973271 
L 192.027142 184.023602 
L 192.556805 182.279428 
L 193.174744 179.356288 
L 193.880961 174.803272 
L 194.763732 167.373816 
L 195.999611 154.668515 
L 197.323767 141.639518 
L 197.941707 137.693162 
L 198.294815 136.546559 
L 198.559646 136.342892 
L 198.7362 136.553996 
L 199.001032 137.42855 
L 199.35414 139.690446 
L 199.795525 144.315425 
L 200.325188 152.334904 
L 201.207959 169.875691 
L 202.355561 192.30372 
L 202.885223 199.060824 
L 203.238331 201.606225 
L 203.503163 202.402948 
L 203.679717 202.404097 
L 203.856271 201.992996 
L 204.121102 200.643745 
L 204.474211 197.614805 
L 205.003873 190.985687 
L 206.063198 174.038891 
L 207.122523 158.210583 
L 207.82874 150.482371 
L 208.446679 145.988285 
L 208.888065 144.04705 
L 209.241173 143.197193 
L 209.506004 142.93509 
L 209.770835 142.966699 
L 210.035667 143.265607 
L 210.388775 144.033589 
L 210.918437 145.849926 
L 211.624654 149.201848 
L 212.772256 155.938567 
L 215.244014 170.714123 
L 216.391616 176.128717 
L 217.274387 179.339467 
L 218.068881 181.454067 
L 218.68682 182.575822 
L 219.216483 183.17053 
L 219.657868 183.408198 
L 220.099254 183.413245 
L 220.540639 183.188483 
L 221.070301 182.621041 
L 221.688241 181.560399 
L 222.394458 179.846907 
L 223.188951 177.326121 
L 224.159999 173.490788 
L 225.395878 167.654823 
L 229.191793 148.888841 
L 229.898009 146.75 
L 230.427672 145.809359 
L 230.78078 145.570387 
L 231.045611 145.623139 
L 231.310443 145.893231 
L 231.663551 146.619186 
L 232.104936 148.163696 
L 232.634599 151.024882 
L 233.252538 155.819347 
L 233.958755 163.167503 
L 235.01808 177.023649 
L 236.342236 194.201334 
L 236.871899 198.72979 
L 237.225007 200.358936 
L 237.489838 200.695165 
L 237.666392 200.457583 
L 237.931224 199.372971 
L 238.284332 196.539148 
L 238.725717 190.841056 
L 239.343657 179.510687 
L 241.37403 139.146309 
L 241.815415 134.80032 
L 242.168524 133.116845 
L 242.345078 132.867188 
L 242.521632 132.995704 
L 242.786463 133.854608 
L 243.139571 136.111151 
L 243.669234 141.389551 
L 244.552005 153.096378 
L 246.052715 172.962216 
L 246.847209 180.663184 
L 247.465148 184.851042 
L 247.994811 187.199114 
L 248.436196 188.339904 
L 248.789304 188.764612 
L 249.054136 188.823033 
L 249.318967 188.676902 
L 249.672075 188.192876 
L 250.113461 187.178418 
L 250.7314 185.126177 
L 251.614171 181.252545 
L 253.026604 173.800493 
L 255.410085 161.240464 
L 256.557687 156.360137 
L 257.440458 153.43373 
L 258.234952 151.522671 
L 258.852892 150.555932 
L 259.382554 150.111191 
L 259.823939 150.021281 
L 260.265325 150.192795 
L 260.70671 150.629994 
L 261.236373 151.509062 
L 261.854312 153.024864 
L 262.560529 155.396983 
L 263.355023 158.851002 
L 264.32607 164.093562 
L 265.650227 172.589116 
L 267.768877 186.296556 
L 268.475093 189.576236 
L 269.004756 191.117926 
L 269.357864 191.575861 
L 269.622695 191.568776 
L 269.887526 191.228382 
L 270.240635 190.208715 
L 270.68202 187.94731 
L 271.211683 183.692344 
L 271.829622 176.595673 
L 272.624116 164.598016 
L 274.389658 136.695794 
L 274.831043 132.7522 
L 275.184151 131.318116 
L 275.360705 131.247819 
L 275.53726 131.629921 
L 275.802091 133.062529 
L 276.155199 136.541959 
L 276.684862 144.751727 
L 277.479355 161.486814 
L 278.715234 187.031295 
L 279.333174 195.170037 
L 279.774559 198.329775 
L 280.039391 199.162437 
L 280.215945 199.29737 
L 280.392499 199.115982 
L 280.65733 198.296079 
L 281.010438 196.303588 
L 281.540101 191.800343 
L 282.422872 181.923453 
L 284.188413 161.952824 
L 285.071184 154.642731 
L 285.777401 150.544698 
L 286.39534 148.224568 
L 286.836726 147.246908 
L 287.189834 146.842949 
L 287.542942 146.750861 
L 287.896051 146.947024 
L 288.337436 147.560793 
L 288.867099 148.775471 
L 289.573315 151.074578 
L 290.456086 154.783705 
L 291.780242 161.409814 
L 294.693386 176.248945 
L 295.752711 180.476091 
L 296.547204 182.887921 
L 297.253421 184.363846 
L 297.783084 185.001782 
L 298.224469 185.197363 
L 298.577577 185.119836 
L 298.930686 184.824327 
L 299.372071 184.135914 
L 299.901734 182.824585 
L 300.519673 180.606894 
L 301.22589 177.160809 
L 302.108661 171.548594 
L 303.167985 163.222132 
L 305.639744 143.099327 
L 306.169406 140.503739 
L 306.522514 139.528102 
L 306.787346 139.276616 
L 306.9639 139.364259 
L 307.228731 139.911374 
L 307.581839 141.475781 
L 308.023225 144.863885 
L 308.552887 151.07667 
L 309.259104 162.640588 
L 311.377754 200.381206 
L 311.730862 203.144618 
L 311.995693 203.986553 
L 312.08397 204.020411 
L 312.260525 203.712721 
L 312.525356 202.320226 
L 312.878464 198.810588 
L 313.408127 190.535989 
L 314.290897 172.089463 
L 315.350222 150.926161 
L 315.968162 142.471229 
L 316.409547 138.752703 
L 316.762656 137.171865 
L 317.027487 136.750313 
L 317.204041 136.806308 
L 317.468872 137.352862 
L 317.821981 138.84556 
L 318.351643 142.399209 
L 319.146137 149.656613 
L 321.617895 173.645018 
L 322.500666 179.682114 
L 323.206883 183.124308 
L 323.824822 185.120419 
L 324.354485 186.105945 
L 324.707593 186.410132 
L 325.060701 186.447466 
L 325.41381 186.232655 
L 325.855195 185.633532 
L 326.384857 184.472266 
L 327.091074 182.267655 
L 327.973845 178.650574 
L 329.121447 172.929321 
L 333.093915 152.234475 
L 333.888409 149.485577 
L 334.506349 148.019688 
L 334.947734 147.401133 
L 335.300842 147.194279 
L 335.653951 147.2649 
L 336.007059 147.631677 
L 336.448444 148.532461 
L 336.978107 150.298812 
L 337.596046 153.346026 
L 338.302263 158.14212 
L 339.185034 165.966059 
L 340.50919 180.208362 
L 341.656792 191.847178 
L 342.274732 196.072223 
L 342.62784 197.369838 
L 342.892671 197.676673 
L 343.069225 197.526742 
L 343.334057 196.727743 
L 343.687165 194.52409 
L 344.12855 189.873521 
L 344.658213 181.624376 
L 345.452707 165.14105 
L 346.688586 139.150168 
L 347.218248 132.198381 
L 347.571356 129.917411 
L 347.747911 129.551335 
L 347.836188 129.564617 
L 348.012742 129.98032 
L 348.277573 131.547191 
L 348.630681 135.253574 
L 349.160344 143.60372 
L 350.307946 166.83753 
L 351.190717 182.558362 
L 351.808656 190.098647 
L 352.338319 193.924213 
L 352.691427 195.166171 
L 352.956258 195.465045 
L 353.132812 195.386868 
L 353.397644 194.889125 
L 353.750752 193.594675 
L 354.280415 190.552137 
L 355.074908 184.302538 
L 358.164606 158.01632 
L 359.047377 153.011187 
L 359.753593 150.204425 
L 360.371533 148.638202 
L 360.812918 148.019316 
L 361.166027 147.815345 
L 361.519135 147.861664 
L 361.872243 148.149084 
L 362.313629 148.831745 
L 362.843291 150.096083 
L 363.549508 152.468471 
L 364.432279 156.382173 
L 365.579881 162.66526 
L 369.375795 184.65462 
L 370.082012 187.182066 
L 370.611674 188.358209 
L 370.964783 188.733321 
L 371.229614 188.77501 
L 371.494445 188.59539 
L 371.847553 187.988275 
L 372.288939 186.597973 
L 372.818601 183.944085 
L 373.436541 179.436861 
L 374.142757 172.472995 
L 375.113805 160.359697 
L 376.79107 139.157048 
L 377.320732 135.147484 
L 377.673841 133.917475 
L 377.850395 133.819379 
L 378.026949 134.096888 
L 378.29178 135.255798 
L 378.644888 138.240156 
L 379.086274 144.264929 
L 379.704213 156.413011 
L 381.646309 198.768272 
L 382.087695 203.213442 
L 382.352526 204.317331 
L 382.52908 204.390789 
L 382.705634 203.946608 
L 382.970465 202.359235 
L 383.323574 198.700922 
L 383.853236 190.639104 
L 386.413271 147.24993 
L 386.942934 142.840576 
L 387.384319 140.763339 
L 387.737428 140.072509 
L 387.913982 140.024417 
L 388.090536 140.15984 
L 388.355367 140.681303 
L 388.708476 141.906978 
L 389.238138 144.683363 
L 390.032632 150.334888 
L 393.740269 178.954738 
L 394.534763 182.731421 
L 395.152702 184.782622 
L 395.682365 185.902034 
L 396.12375 186.381367 
L 396.476859 186.469755 
L 396.829967 186.299272 
L 397.183075 185.874693 
L 397.624461 184.996356 
L 398.154123 183.453618 
L 398.86034 180.62514 
L 399.74311 176.000588 
L 400.890713 168.602715 
L 403.98041 147.741773 
L 404.686627 144.732787 
L 405.128012 143.593591 
L 405.481121 143.183517 
L 405.745952 143.205324 
L 406.010783 143.534702 
L 406.363891 144.488448 
L 406.805277 146.566741 
L 407.334939 150.433273 
L 407.952879 156.850275 
L 408.747373 167.767733 
L 410.866023 198.738294 
L 411.307408 201.714357 
L 411.572239 202.311964 
L 411.660516 202.290487 
L 411.83707 201.899577 
L 412.101902 200.416022 
L 412.45501 196.741948 
L 412.896395 189.565017 
L 413.602612 173.489652 
L 415.015045 139.901672 
L 415.544708 132.611542 
L 415.897816 130.316732 
L 416.07437 129.963763 
L 416.162647 129.981923 
L 416.339201 130.395129 
L 416.604033 131.904425 
L 416.957141 135.385411 
L 417.486803 143.022151 
L 420.135116 185.529423 
L 420.664778 189.835795 
L 421.106164 191.992534 
L 421.459272 192.838164 
L 421.724103 192.99931 
L 421.900657 192.898194 
L 422.165489 192.457705 
L 422.518597 191.383585 
L 423.048259 188.892842 
L 423.754476 184.339938 
L 424.990355 174.549795 
L 426.932451 159.330227 
L 427.903499 153.431245 
L 428.697993 149.905125 
L 429.315932 148.080002 
L 429.845595 147.194358 
L 430.198703 146.961673 
L 430.551811 147.01837 
L 430.90492 147.364819 
L 431.346305 148.202418 
L 431.875967 149.789091 
L 432.493907 152.408839 
L 433.288401 156.893501 
L 434.259449 163.797347 
L 436.02499 178.432673 
L 437.172592 187.100355 
L 437.878809 190.935846 
L 438.320194 192.401172 
L 438.673303 192.921905 
L 438.849857 192.936323 
L 439.026411 192.773484 
L 439.291242 192.176687 
L 439.64435 190.680301 
L 440.085736 187.615087 
L 440.615398 182.134449 
L 441.321615 171.958799 
L 442.469217 151.106732 
L 443.351988 136.618325 
L 443.793373 131.977275 
L 444.146481 130.199603 
L 444.323036 130.059297 
L 444.49959 130.452441 
L 444.764421 132.070655 
L 445.117529 136.137269 
L 445.558915 144.033918 
L 446.265131 161.301145 
L 447.501011 191.926552 
L 448.030673 200.034638 
L 448.383781 202.889309 
L 448.648613 203.648669 
L 448.73689 203.6458 
L 448.913444 203.27257 
L 449.178275 201.850854 
L 449.531383 198.542897 
L 450.061046 191.271405 
L 451.296925 169.879317 
L 452.267973 155.075834 
L 452.974189 147.524387 
L 453.503852 143.904213 
L 453.945237 142.194619 
L 454.298346 141.625115 
L 454.563177 141.627058 
L 454.828008 141.967039 
L 455.181116 142.89686 
L 455.622502 144.727063 
L 456.240441 148.293159 
L 457.211489 155.481837 
L 460.21291 178.909435 
L 461.095681 183.690568 
L 461.801897 186.310163 
L 462.33156 187.483381 
L 462.684668 187.865111 
L 462.949499 187.934633 
L 463.214331 187.81526 
L 463.567439 187.359222 
L 464.008824 186.310054 
L 464.538487 184.353872 
L 465.156426 181.14049 
L 465.95092 175.652972 
L 466.921968 167.265506 
L 469.57028 143.272683 
L 470.099943 140.463583 
L 470.453051 139.412107 
L 470.717882 139.138361 
L 470.894437 139.227257 
L 471.159268 139.79963 
L 471.512376 141.439451 
L 471.953762 144.984619 
L 472.483424 151.471014 
L 473.189641 163.531208 
L 475.220013 201.577896 
L 475.573122 204.51317 
L 475.837953 205.290698 
L 475.92623 205.256803 
L 476.102784 204.735029 
L 476.367616 202.80779 
L 476.720724 198.162925 
L 477.250386 187.350196 
L 478.309711 158.862168 
L 479.104205 140.578805 
L 479.633867 133.265885 
L 479.986976 131.008782 
L 480.16353 130.663204 
L 480.251807 130.678876 
L 480.428361 131.071078 
L 480.693192 132.501164 
L 481.046301 135.778173 
L 481.575963 142.919826 
L 482.811842 163.85926 
L 483.78289 178.469761 
L 484.489107 186.046417 
L 485.018769 189.76095 
L 485.460155 191.579676 
L 485.813263 192.244992 
L 486.078094 192.314528 
L 486.342926 192.04213 
L 486.696034 191.191403 
L 487.137419 189.434406 
L 487.755359 185.908858 
L 488.63813 179.342397 
L 492.080936 151.86167 
L 492.875429 147.905782 
L 493.405092 146.168894 
L 493.846477 145.33449 
L 494.199586 145.092782 
L 494.464417 145.168975 
L 494.729248 145.470792 
L 495.082356 146.229378 
L 495.523742 147.754282 
L 496.053404 150.423289 
L 496.759621 155.343865 
L 497.642392 163.404036 
L 499.054825 178.888097 
L 500.202427 190.51362 
L 500.820367 194.77807 
L 501.261752 196.377397 
L 501.526583 196.614569 
L 501.703137 196.434786 
L 501.967969 195.619706 
L 502.321077 193.450803 
L 502.762462 188.922391 
L 503.292125 180.868613 
L 504.086618 164.470102 
L 505.499052 134.522474 
L 505.940437 129.290804 
L 506.205268 127.859103 
L 506.381823 127.700281 
L 506.558377 128.203224 
L 506.823208 130.205991 
L 507.176316 135.113227 
L 507.705979 146.521507 
L 509.824629 198.295571 
L 510.266014 202.431929 
L 510.530845 203.305538 
L 510.619122 203.338684 
L 510.795677 203.036618 
L 511.060508 201.723426 
L 511.413616 198.569192 
L 511.943279 191.543359 
L 513.090881 172.092579 
L 514.150206 155.749573 
L 514.856422 147.974281 
L 515.386085 144.127988 
L 515.82747 142.227666 
L 516.180578 141.522707 
L 516.44541 141.440973 
L 516.710241 141.717522 
L 517.063349 142.600468 
L 517.504735 144.441368 
L 518.122674 148.162604 
L 519.005445 155.141017 
L 522.359974 183.666789 
L 523.066191 187.35499 
L 523.595853 189.135118 
L 524.037238 189.893406 
L 524.30207 190.010972 
L 524.566901 189.865526 
L 524.831732 189.450757 
L 525.184841 188.471226 
L 525.626226 186.55531 
L 526.155888 183.252976 
L 526.862105 177.244716 
L 527.744876 167.58998 
L 530.128357 140.021058 
L 530.658019 136.815163 
L 530.922851 136.075944 
L 531.099405 135.955623 
L 531.275959 136.157376 
L 531.54079 137.102798 
L 531.893899 139.633885 
L 532.335284 144.907922 
L 532.864946 154.197641 
L 533.65944 172.620405 
L 534.807042 198.94634 
L 535.248428 205.049341 
L 535.513259 206.882478 
L 535.689813 207.245606 
L 535.77809 207.15934 
L 535.954644 206.444431 
L 536.219475 204.028409 
L 536.572584 198.44809 
L 537.102246 185.977934 
L 538.956065 137.703999 
L 539.39745 132.292584 
L 539.750559 130.49077 
L 539.927113 130.404701 
L 540.103667 130.828343 
L 540.368498 132.343353 
L 540.721607 135.787105 
L 541.339546 144.682035 
L 543.811304 184.172769 
L 544.429244 189.623899 
L 544.870629 191.98668 
L 545.223738 192.982585 
L 545.488569 193.232947 
L 545.665123 193.175194 
L 545.929954 192.769773 
L 546.283063 191.676259 
L 546.724448 189.517934 
L 547.342387 185.275221 
L 548.225158 177.474287 
L 551.138302 150.253821 
L 551.844519 146.00556 
L 552.374181 143.945512 
L 552.815566 143.071074 
L 553.080398 142.941602 
L 553.345229 143.121554 
L 553.61006 143.619045 
L 553.963168 144.78564 
L 554.404554 147.058626 
L 554.934216 150.960603 
L 555.640433 158.006954 
L 556.611481 170.346506 
L 558.377022 193.245187 
L 558.906685 197.511193 
L 559.259793 198.992865 
L 559.436347 199.242353 
L 559.612902 199.131336 
L 559.789456 198.638449 
L 560.054287 197.145367 
L 560.407395 193.690935 
L 560.848781 187.018045 
L 561.46672 173.782945 
L 563.320539 130.13548 
L 563.673647 126.670377 
L 563.850201 126.023387 
L 563.938478 125.987273 
L 564.115033 126.50003 
L 564.379864 128.725898 
L 564.732972 134.267417 
L 565.262635 147.084497 
L 567.116453 197.324742 
L 567.557839 202.724292 
L 567.82267 204.150033 
L 567.999224 204.365553 
L 568.175778 204.023341 
L 568.440609 202.543546 
L 568.793718 198.999775 
L 569.32338 191.144152 
L 570.647536 166.467447 
L 571.530307 152.36169 
L 572.148247 145.411681 
L 572.677909 141.665582 
L 573.031018 140.303726 
L 573.295849 139.855561 
L 573.472403 139.817802 
L 573.648957 139.97986 
L 573.913788 140.5786 
L 574.266897 141.990783 
L 574.796559 145.256185 
L 575.502776 151.288119 
L 576.650378 163.449132 
L 578.327642 181.055213 
L 579.122136 187.272567 
L 579.740076 190.508537 
L 580.181461 191.793769 
L 580.446292 192.115183 
L 580.622846 192.133281 
L 580.887678 191.857841 
L 581.152509 191.211865 
L 581.505617 189.765802 
L 581.947003 187.018986 
L 582.564942 181.483855 
L 583.359436 171.838866 
L 584.948423 148.474197 
L 585.742917 138.760758 
L 586.184302 135.318577 
L 586.537411 134.008973 
L 586.713965 133.91814 
L 586.890519 134.237951 
L 587.15535 135.533038 
L 587.508459 138.853339 
L 587.949844 145.585394 
L 588.567784 159.308749 
L 590.421602 204.942126 
L 590.774711 208.305157 
L 590.951265 208.80089 
L 591.039542 208.736339 
L 591.216096 207.97408 
L 591.480927 205.264309 
L 591.834036 198.919757 
L 592.363698 184.766378 
L 593.952685 138.033994 
L 594.394071 131.20883 
L 594.747179 128.751136 
L 594.923733 128.511704 
L 595.100288 128.897441 
L 595.365119 130.560212 
L 595.718227 134.535177 
L 596.24789 143.307828 
L 598.631371 187.214684 
L 599.161033 192.350853 
L 599.602419 194.782628 
L 599.86725 195.454571 
L 600.043804 195.588405 
L 600.220358 195.481323 
L 600.485189 194.891722 
L 600.838298 193.366214 
L 601.279683 190.416303 
L 601.897623 184.729693 
L 602.956948 172.402433 
L 604.722489 151.779739 
L 605.516983 145.16141 
L 606.046645 142.311883 
L 606.488031 141.061737 
L 606.752862 140.841952 
L 606.929416 140.925282 
L 607.194247 141.402543 
L 607.547356 142.705286 
L 607.988741 145.404327 
L 608.518404 150.160683 
L 609.22462 158.795675 
L 610.283945 175.02851 
L 611.519824 193.313593 
L 612.049487 198.482866 
L 612.402595 200.335495 
L 612.579149 200.682706 
L 612.755703 200.604304 
L 612.932258 200.075221 
L 613.197089 198.393903 
L 613.550197 194.438133 
L 613.991583 186.773569 
L 614.609522 171.712075 
L 616.19851 130.114888 
L 616.551618 125.698785 
L 616.816449 124.548531 
L 616.904726 124.609569 
L 617.08128 125.414241 
L 617.346112 128.315563 
L 617.69922 135.146466 
L 618.228882 150.403089 
L 619.729593 197.551421 
L 620.170978 204.713278 
L 620.435809 206.726917 
L 620.612363 207.117109 
L 620.700641 207.035471 
L 620.877195 206.342971 
L 621.142026 204.077047 
L 621.583411 197.558362 
L 622.289628 182.565169 
L 623.702061 151.708259 
L 624.320001 142.732542 
L 624.761386 138.755455 
L 625.114495 137.060823 
L 625.379326 136.626163 
L 625.55588 136.714971 
L 625.820711 137.382303 
L 626.17382 139.186288 
L 626.615205 142.711947 
L 627.321422 150.583369 
L 628.645578 168.807014 
L 629.79318 183.348587 
L 630.499396 189.829564 
L 631.029059 192.917167 
L 631.382167 194.006381 
L 631.646998 194.28062 
L 631.823553 194.197367 
L 632.088384 193.667183 
L 632.441492 192.19986 
L 632.882878 189.160232 
L 633.41254 183.839861 
L 634.118757 174.313568 
L 635.53119 151.04965 
L 636.413961 138.616129 
L 636.855346 134.687966 
L 637.208454 133.169614 
L 637.385009 133.043548 
L 637.561563 133.377311 
L 637.826394 134.788237 
L 638.179502 138.439611 
L 638.620888 145.845272 
L 639.238827 160.844019 
L 640.916092 205.382207 
L 641.2692 209.351088 
L 641.445754 210.007468 
L 641.534031 209.979522 
L 641.710585 209.193857 
L 641.975417 206.189204 
L 642.328525 198.956322 
L 642.858188 182.595231 
L 644.358898 132.766238 
L 644.800283 126.190318 
L 645.065115 124.934453 
L 645.153392 124.960676 
L 645.329946 125.653724 
L 645.594777 128.188485 
L 645.947885 133.965749 
L 646.565825 148.587888 
L 648.066535 186.12815 
L 648.596198 194.427151 
L 649.037583 198.432546 
L 649.302414 199.55971 
L 649.478968 199.799899 
L 649.655523 199.649786 
L 649.920354 198.736658 
L 650.273462 196.357868 
L 650.803125 190.731555 
L 651.597618 179.18484 
L 653.539714 149.461393 
L 654.157654 143.09937 
L 654.687316 139.71096 
L 655.040425 138.636304 
L 655.216979 138.470702 
L 655.393533 138.556788 
L 655.658364 139.159604 
L 656.011472 140.840459 
L 656.452858 144.303716 
L 656.98252 150.29052 
L 657.777014 162.250892 
L 659.895664 196.17128 
L 660.337049 199.83742 
L 660.601881 200.89002 
L 660.778435 201.046436 
L 660.954989 200.734741 
L 661.21982 199.34271 
L 661.572928 195.693015 
L 662.014314 188.256357 
L 662.632253 173.156108 
L 664.309518 128.206788 
L 664.662626 124.308099 
L 664.83918 123.747028 
L 664.927457 123.840927 
L 665.104012 124.799071 
L 665.368843 128.172544 
L 665.721951 136.109675 
L 666.251614 153.891743 
L 667.57577 201.95922 
L 668.017155 209.807259 
L 668.281986 211.35228 
L 668.370264 211.330276 
L 668.546818 210.503889 
L 668.811649 207.425532 
L 669.164757 200.367159 
L 669.782697 182.61014 
L 671.018576 145.952728 
L 671.548238 136.155027 
L 671.901347 132.485809 
L 672.166178 131.253057 
L 672.342732 131.126273 
L 672.519286 131.525808 
L 672.784117 133.040248 
L 673.137226 136.564711 
L 673.666888 144.369221 
L 674.637936 162.814157 
L 675.785538 183.609466 
L 676.403478 191.569747 
L 676.93314 195.767259 
L 677.286249 197.074477 
L 677.462803 197.266963 
L 677.639357 197.151235 
L 677.904188 196.405125 
L 678.257296 194.370297 
L 678.698682 190.25905 
L 679.316621 181.975129 
L 680.199392 166.651256 
L 681.611825 142.049055 
L 682.141488 135.959647 
L 682.494596 133.658408 
L 682.759427 133.041795 
L 682.847705 133.065901 
L 683.024259 133.475347 
L 683.28909 135.023633 
L 683.642198 138.877282 
L 684.083584 146.517482 
L 684.701523 161.729019 
L 686.378788 206.035012 
L 686.731896 209.692219 
L 686.90845 210.108707 
L 686.996727 209.934023 
L 687.173281 208.793151 
L 687.438113 205.080442 
L 687.791221 196.543364 
L 688.320883 177.552604 
L 689.556763 129.768933 
L 689.909871 122.613793 
L 690.174702 120.475912 
L 690.262979 120.408003 
L 690.439533 121.231678 
L 690.704365 124.758406 
L 691.057473 133.195194 
L 691.675413 154.72112 
L 692.734737 192.060583 
L 693.2644 203.083106 
L 693.617508 206.407877 
L 693.794062 206.860342 
L 693.88234 206.796095 
L 694.058894 206.113627 
L 694.323725 203.806742 
L 694.76511 197.084705 
L 695.471327 181.438828 
L 696.972037 147.067578 
L 697.589977 138.320578 
L 698.031362 135.025429 
L 698.296193 134.290136 
L 698.472748 134.314762 
L 698.649302 134.742853 
L 698.914133 136.115841 
L 699.267241 139.225245 
L 699.796904 146.274713 
L 700.591398 160.684466 
L 702.268662 192.415592 
L 702.798325 198.541372 
L 703.151433 200.681785 
L 703.327987 201.081188 
L 703.416264 201.103028 
L 703.592818 200.779711 
L 703.857649 199.353506 
L 704.210758 195.669004 
L 704.652143 188.283521 
L 705.270083 173.530387 
L 706.947347 129.560943 
L 707.300456 125.409312 
L 707.47701 124.662821 
L 707.565287 124.656059 
L 707.741841 125.410398 
L 708.006672 128.519708 
L 708.359781 136.328042 
L 708.889443 154.781677 
L 710.301876 209.622899 
L 710.654985 214.925933 
L 710.831539 215.39223 
L 711.008093 214.347875 
L 711.272924 210.02967 
L 711.626032 199.719439 
L 712.243972 173.576921 
L 713.126743 136.874866 
L 713.568128 126.083939 
L 713.832959 123.040863 
L 714.009514 122.476264 
L 714.097791 122.621226 
L 714.274345 123.726876 
L 714.539176 127.261569 
L 714.980562 137.221354 
L 715.775055 162.035763 
L 716.657826 188.04023 
L 717.187489 198.331852 
L 717.540597 202.212993 
L 717.805428 203.488939 
L 717.981982 203.572974 
L 718.158536 203.064884 
L 718.423368 201.252219 
L 718.776476 197.061905 
L 719.306138 187.701922 
L 720.277186 165.326873 
L 721.248234 144.203287 
L 721.777897 136.315394 
L 722.219282 132.734648 
L 722.484113 132.087307 
L 722.57239 132.135264 
L 722.748945 132.63421 
L 723.013776 134.395036 
L 723.366884 138.600098 
L 723.808269 146.623242 
L 724.514486 164.39475 
L 725.926919 201.37494 
L 726.368305 207.233693 
L 726.633136 208.286326 
L 726.721413 208.172341 
L 726.897967 207.209514 
L 727.162798 203.879178 
L 727.515907 195.949401 
L 728.045569 177.584933 
L 729.458003 123.062269 
L 729.811111 118.149592 
L 729.899388 117.90092 
L 729.987665 118.067087 
L 730.164219 119.659148 
L 730.42905 125.143057 
L 730.782159 137.635136 
L 731.488375 173.164508 
L 732.194592 205.240532 
L 732.5477 214.033046 
L 732.812532 216.381876 
L 732.900809 216.333008 
L 733.077363 215.02238 
L 733.342194 210.233261 
L 733.783579 196.174057 
L 735.549121 130.349296 
L 735.902229 125.632704 
L 736.078784 124.818491 
L 736.167061 124.789018 
L 736.343615 125.45778 
L 736.608446 128.162908 
L 736.961554 134.521918 
L 737.579494 150.967636 
L 739.080204 193.595103 
L 739.609867 201.898582 
L 739.962975 204.24894 
L 740.139529 204.409388 
L 740.316083 203.890536 
L 740.580915 201.863872 
L 740.934023 196.962025 
L 741.463685 185.581755 
L 742.346456 160.261587 
L 743.229227 136.585176 
L 743.670612 129.198465 
L 743.935444 126.996546 
L 744.111998 126.60111 
L 744.200275 126.744161 
L 744.376829 127.733264 
L 744.64166 131.003028 
L 744.994769 138.633371 
L 745.524431 156.132238 
L 747.025141 211.288055 
L 747.289973 214.888838 
L 747.466527 215.345346 
L 747.643081 214.124009 
L 747.907912 209.078796 
L 748.261021 196.693812 
L 748.87896 164.167245 
L 749.673454 123.921638 
L 750.026562 115.148768 
L 750.203116 113.893048 
L 750.291393 114.09239 
L 750.467947 116.135723 
L 750.732779 123.088252 
L 751.174164 142.99164 
L 752.49832 209.533642 
L 752.851429 215.966123 
L 753.027983 216.534793 
L 753.204537 215.388328 
L 753.469368 210.715116 
L 753.910754 196.605626 
L 755.676295 129.517879 
L 756.029404 124.838816 
L 756.205958 124.162015 
L 756.294235 124.236148 
L 756.470789 125.187516 
L 756.73562 128.514915 
L 757.088728 136.072186 
L 757.706668 155.391635 
L 759.030824 198.697658 
L 759.47221 206.3896 
L 759.737041 208.268465 
L 759.825318 208.39916 
L 759.913595 208.276038 
L 760.090149 207.262957 
L 760.35498 203.841965 
L 760.708089 195.925261 
L 761.237751 178.175352 
L 762.650184 126.190108 
L 763.003293 120.797384 
L 763.179847 120.255214 
L 763.356401 121.292304 
L 763.621232 125.900425 
L 763.974341 137.539602 
L 764.504003 164.1408 
L 765.475051 213.656535 
L 765.828159 220.883335 
L 765.916436 221.214026 
L 766.004713 220.911213 
L 766.181268 218.380314 
L 766.446099 209.90169 
L 766.887484 185.444434 
L 767.946809 119.132958 
L 768.21164 111.869022 
L 768.388195 110.480553 
L 768.476472 110.85345 
L 768.653026 113.685393 
L 768.917857 122.724442 
L 769.359243 147.285847 
L 770.418567 209.178952 
L 770.771676 217.916784 
L 770.94823 219.022715 
L 771.036507 218.762053 
L 771.213061 216.68046 
L 771.477892 210.003108 
L 771.919278 191.601025 
L 773.243434 129.341695 
L 773.596542 121.796733 
L 773.773096 120.33031 
L 773.861374 120.189881 
L 773.949651 120.442761 
L 774.126205 122.10533 
L 774.391036 127.332321 
L 774.832421 142.173081 
L 776.597963 211.844035 
L 776.862794 214.073831 
L 776.951071 213.99321 
L 777.127626 212.56005 
L 777.392457 207.255984 
L 777.745565 194.754433 
L 778.363505 162.597594 
L 779.157998 122.940695 
L 779.511107 114.798213 
L 779.599384 114.188009 
L 779.687661 114.204004 
L 779.864215 116.173944 
L 780.129046 123.988892 
L 780.482155 142.603152 
L 781.806311 224.752792 
L 781.982865 226.707493 
L 782.071142 226.288048 
L 782.247696 222.60716 
L 782.512527 210.330198 
L 782.953913 176.342137 
L 783.748406 114.398929 
L 784.013238 105.861092 
L 784.101515 105.041066 
L 784.189792 105.268367 
L 784.366346 108.814212 
L 784.631177 121.195198 
L 785.16084 162.660767 
L 785.867056 215.015473 
L 786.131888 224.134905 
L 786.308442 225.850936 
L 786.396719 225.379545 
L 786.573273 221.878379 
L 786.838104 210.888403 
L 787.367767 175.22136 
L 788.16226 123.131057 
L 788.515369 113.027549 
L 788.691923 112.247855 
L 788.868477 114.371679 
L 789.133308 122.664379 
L 789.574694 147.244269 
L 790.634019 213.706655 
L 790.89885 220.811014 
L 791.075404 221.881967 
L 791.251958 219.840799 
L 791.516789 211.048767 
L 791.869898 190.118608 
L 793.0175 111.254228 
L 793.194054 107.597013 
L 793.282331 107.310896 
L 793.370608 108.103641 
L 793.547162 112.966976 
L 793.811994 128.072736 
L 794.341656 177.546375 
L 794.871319 223.729957 
L 795.13615 233.282164 
L 795.224427 233.545506 
L 795.400981 229.364387 
L 795.665812 211.777456 
L 796.195475 150.362596 
L 796.63686 105.100086 
L 796.901691 95.20082 
L 796.989968 95.74472 
L 797.166523 102.744662 
L 797.431354 126.464837 
L 798.402402 237.451793 
L 798.578956 240.590091 
L 798.667233 238.942428 
L 798.843787 229.438901 
L 799.196895 190.44929 
L 799.903112 103.005803 
L 800.167943 93.542207 
L 800.25622 94.747531 
L 800.432775 103.628517 
L 800.785883 142.562477 
L 801.492099 232.435637 
L 801.668654 240.579845 
L 801.756931 241.10209 
L 801.933485 234.776668 
L 802.198316 208.410734 
L 803.081087 91.129607 
L 803.169364 88.86302 
L 803.257641 89.745435 
L 803.434195 101.157269 
L 803.699026 139.605565 
L 804.316966 246.741529 
L 804.49352 253.202107 
L 804.670074 240.370618 
L 804.934906 187.846542 
L 805.464568 71.43104 
L 805.552845 68.91916 
L 805.641122 74.601043 
L 805.817676 110.64539 
L 806.435616 278.806994 
L 806.61217 238.764158 
L 807.053555 41.416478 
L 807.141833 41.853561 
L 807.318387 123.948629 
L 807.583218 300.176827 
L 807.671495 295.659005 
L 808.024603 47.019148 
L 808.11288 83.218922 
L 808.377712 251.612133 
L 808.642543 115.546949 
L 808.73082 118.318327 
L 808.995651 201.812842 
L 809.260482 146.681567 
L 809.34876 148.762396 
L 809.613591 180.137268 
L 809.878422 158.967368 
L 809.966699 160.705559 
L 810.23153 171.811433 
L 810.496362 163.899726 
L 810.672916 167.159286 
L 810.761193 168.741921 
L 810.84947 168.723636 
L 811.114301 165.837698 
L 811.114301 165.837698 
" clip-path="url(#p90c8efa70a)" style="fill: none; stroke: #ff7f0e; stroke-width: 0.6; stroke-linecap: square"/>
   </g>
   <g id="patch_3">
    <path d="M 52.160938 313.478125 
L 52.160938 22.318125 
" style="fill: none; stroke: #000000; stroke-width: 0.8; stroke-linejoin: miter; stroke-linecap: square"/>
   </g>
   <g id="patch_4">
    <path d="M 847.254938 313.478125 
L 847.254938 22.318125 
" style="fill: none; stroke: #000000; stroke-width: 0.8; stroke-linejoin: miter; stroke-linecap: square"/>
   </g>
   <g id="patch_5">
    <path d="M 52.160938 313.478125 
L 847.254938 313.478125 
" style="fill: none; stroke: #000000; stroke-width: 0.8; stroke-linejoin: miter; stroke-linecap: square"/>
   </g>
   <g id="patch_6">
    <path d="M 52.160938 22.318125 
L 847.254938 22.318125 
" style="fill: none; stroke: #000000; stroke-width: 0.8; stroke-linejoin: miter; stroke-linecap: square"/>
   </g>
   <g id="text_16">
    <!-- M=60, e=0.16, f_min=10 Hz -->
    <g transform="translate(363.504813 16.318125) scale(0.12 -0.12)">
     <defs>
      <path id="DejaVuSans-4d" d="M 628 4666 
L 1569 4666 
L 2759 1491 
L 3956 4666 
L 4897 4666 
L 4897 0 
L 4281 0 
L 4281 4097 
L 3078 897 
L 2444 897 
L 1241 4097 
L 1241 0 
L 628 0 
L 628 4666 
z
" transform="scale(0.015625)"/>
      <path id="DejaVuSans-3d" d="M 678 2906 
L 4684 2906 
L 4684 2381 
L 678 2381 
L 678 2906 
z
M 678 1631 
L 4684 1631 
L 4684 1100 
L 678 1100 
L 678 1631 
z
" transform="scale(0.015625)"/>
      <path id="DejaVuSans-2c" d="M 750 794 
L 1409 794 
L 1409 256 
L 897 -744 
L 494 -744 
L 750 256 
L 750 794 
z
" transform="scale(0.015625)"/>
      <path id="DejaVuSans-65" d="M 3597 1894 
L 3597 1613 
L 953 1613 
Q 991 1019 1311 708 
Q 1631 397 2203 397 
Q 2534 397 2845 478 
Q 3156 559 3463 722 
L 3463 178 
Q 3153 47 2828 -22 
Q 2503 -91 2169 -91 
Q 1331 -91 842 396 
Q 353 884 353 1716 
Q 353 2575 817 3079 
Q 1281 3584 2069 3584 
Q 2775 3584 3186 3129 
Q 3597 2675 3597 1894 
z
M 3022 2063 
Q 3016 2534 2758 2815 
Q 2500 3097 2075 3097 
Q 1594 3097 1305 2825 
Q 1016 2553 972 2059 
L 3022 2063 
z
" transform="scale(0.015625)"/>
      <path id="DejaVuSans-66" d="M 2375 4863 
L 2375 4384 
L 1825 4384 
Q 1516 4384 1395 4259 
Q 1275 4134 1275 3809 
L 1275 3500 
L 2222 3500 
L 2222 3053 
L 1275 3053 
L 1275 0 
L 697 0 
L 697 3053 
L 147 3053 
L 147 3500 
L 697 3500 
L 697 3744 
Q 697 4328 969 4595 
Q 1241 4863 1831 4863 
L 2375 4863 
z
" transform="scale(0.015625)"/>
      <path id="DejaVuSans-5f" d="M 3263 -1063 
L 3263 -1509 
L -63 -1509 
L -63 -1063 
L 3263 -1063 
z
" transform="scale(0.015625)"/>
      <path id="DejaVuSans-6d" d="M 3328 2828 
Q 3544 3216 3844 3400 
Q 4144 3584 4550 3584 
Q 5097 3584 5394 3201 
Q 5691 2819 5691 2113 
L 5691 0 
L 5113 0 
L 5113 2094 
Q 5113 2597 4934 2840 
Q 4756 3084 4391 3084 
Q 3944 3084 3684 2787 
Q 3425 2491 3425 1978 
L 3425 0 
L 2847 0 
L 2847 2094 
Q 2847 2600 2669 2842 
Q 2491 3084 2119 3084 
Q 1678 3084 1418 2786 
Q 1159 2488 1159 1978 
L 1159 0 
L 581 0 
L 581 3500 
L 1159 3500 
L 1159 2956 
Q 1356 3278 1631 3431 
Q 1906 3584 2284 3584 
Q 2666 3584 2933 3390 
Q 3200 3197 3328 2828 
z
" transform="scale(0.015625)"/>
      <path id="DejaVuSans-69" d="M 603 3500 
L 1178 3500 
L 1178 0 
L 603 0 
L 603 3500 
z
M 603 4863 
L 1178 4863 
L 1178 4134 
L 603 4134 
L 603 4863 
z
" transform="scale(0.015625)"/>
      <path id="DejaVuSans-6e" d="M 3513 2113 
L 3513 0 
L 2938 0 
L 2938 2094 
Q 2938 2591 2744 2837 
Q 2550 3084 2163 3084 
Q 1697 3084 1428 2787 
Q 1159 2491 1159 1978 
L 1159 0 
L 581 0 
L 581 3500 
L 1159 3500 
L 1159 2956 
Q 1366 3272 1645 3428 
Q 1925 3584 2291 3584 
Q 2894 3584 3203 3211 
Q 3513 2838 3513 2113 
z
" transform="scale(0.015625)"/>
      <path id="DejaVuSans-48" d="M 628 4666 
L 1259 4666 
L 1259 2753 
L 3553 2753 
L 3553 4666 
L 4184 4666 
L 4184 0 
L 3553 0 
L 3553 2222 
L 1259 2222 
L 1259 0 
L 628 0 
L 628 4666 
z
" transform="scale(0.015625)"/>
      <path id="DejaVuSans-7a" d="M 353 3500 
L 3084 3500 
L 3084 2975 
L 922 459 
L 3084 459 
L 3084 0 
L 275 0 
L 275 525 
L 2438 3041 
L 353 3041 
L 353 3500 
z
" transform="scale(0.015625)"/>
     </defs>
     <use xlink:href="#DejaVuSans-4d"/>
     <use xlink:href="#DejaVuSans-3d" transform="translate(86.279297 0)"/>
     <use xlink:href="#DejaVuSans-36" transform="translate(170.068359 0)"/>
     <use xlink:href="#DejaVuSans-30" transform="translate(233.691406 0)"/>
     <use xlink:href="#DejaVuSans-2c" transform="translate(297.314453 0)"/>
     <use xlink:href="#DejaVuSans-20" transform="translate(329.101562 0)"/>
     <use xlink:href="#DejaVuSans-65" transform="translate(360.888672 0)"/>
     <use xlink:href="#DejaVuSans-3d" transform="translate(422.412109 0)"/>
     <use xlink:href="#DejaVuSans-30" transform="translate(506.201172 0)"/>
     <use xlink:href="#DejaVuSans-2e" transform="translate(569.824219 0)"/>
     <use xlink:href="#DejaVuSans-31" transform="translate(601.611328 0)"/>
     <use xlink:href="#DejaVuSans-36" transform="translate(665.234375 0)"/>
     <use xlink:href="#DejaVuSans-2c" transform="translate(728.857422 0)"/>
     <use xlink:href="#DejaVuSans-20" transform="translate(760.644531 0)"/>
     <use xlink:href="#DejaVuSans-66" transform="translate(792.431641 0)"/>
     <use xlink:href="#DejaVuSans-5f" transform="translate(827.636719 0)"/>
     <use xlink:href="#DejaVuSans-6d" transform="translate(877.636719 0)"/>
     <use xlink:href="#DejaVuSans-69" transform="translate(975.048828 0)"/>
     <use xlink:href="#DejaVuSans-6e" transform="translate(1002.832031 0)"/>
     <use xlink:href="#DejaVuSans-3d" transform="translate(1066.210938 0)"/>
     <use xlink:href="#DejaVuSans-31" transform="translate(1150 0)"/>
     <use xlink:href="#DejaVuSans-30" transform="translate(1213.623047 0)"/>
     <use xlink:href="#DejaVuSans-20" transform="translate(1277.246094 0)"/>
     <use xlink:href="#DejaVuSans-48" transform="translate(1309.033203 0)"/>
     <use xlink:href="#DejaVuSans-7a" transform="translate(1384.228516 0)"/>
    </g>
   </g>
   <g id="legend_1">
    <g id="patch_7">
     <path d="M 59.160938 59.674375 
L 123.960938 59.674375 
Q 125.960938 59.674375 125.960938 57.674375 
L 125.960938 29.318125 
Q 125.960938 27.318125 123.960938 27.318125 
L 59.160938 27.318125 
Q 57.160938 27.318125 57.160938 29.318125 
L 57.160938 57.674375 
Q 57.160938 59.674375 59.160938 59.674375 
z
" style="fill: #ffffff; opacity: 0.8; stroke: #cccccc; stroke-linejoin: miter"/>
    </g>
    <g id="line2d_29">
     <path d="M 61.160938 35.416562 
L 71.160938 35.416562 
L 81.160938 35.416562 
" style="fill: none; stroke: #1f77b4; stroke-width: 0.6; stroke-linecap: square"/>
    </g>
    <g id="text_17">
     <!-- $h_+$ -->
     <g transform="translate(89.160938 38.916562) scale(0.1 -0.1)">
      <defs>
       <path id="DejaVuSans-2b" d="M 2944 4013 
L 2944 2272 
L 4684 2272 
L 4684 1741 
L 2944 1741 
L 2944 0 
L 2419 0 
L 2419 1741 
L 678 1741 
L 678 2272 
L 2419 2272 
L 2419 4013 
L 2944 4013 
z
" transform="scale(0.015625)"/>
      </defs>
      <use xlink:href="#DejaVuSans-Oblique-68" transform="translate(0 0.015625)"/>
      <use xlink:href="#DejaVuSans-2b" transform="translate(77.016602 -16.390625) scale(0.7)"/>
     </g>
    </g>
    <g id="line2d_30">
     <path d="M 61.160938 50.094688 
L 71.160938 50.094688 
L 81.160938 50.094688 
" style="fill: none; stroke: #ff7f0e; stroke-width: 0.6; stroke-linecap: square"/>
    </g>
    <g id="text_18">
     <!-- $h_	imes$ -->
     <g transform="translate(89.160938 53.594688) scale(0.1 -0.1)">
      <defs>
       <path id="DejaVuSans-Oblique-69" d="M 1172 4863 
L 1747 4863 
L 1606 4134 
L 1031 4134 
L 1172 4863 
z
M 909 3500 
L 1484 3500 
L 800 0 
L 225 0 
L 909 3500 
z
" transform="scale(0.015625)"/>
       <path id="DejaVuSans-Oblique-6d" d="M 5747 2113 
L 5338 0 
L 4763 0 
L 5166 2094 
Q 5191 2228 5203 2325 
Q 5216 2422 5216 2491 
Q 5216 2772 5059 2928 
Q 4903 3084 4622 3084 
Q 4203 3084 3875 2770 
Q 3547 2456 3450 1953 
L 3066 0 
L 2491 0 
L 2900 2094 
Q 2925 2209 2937 2307 
Q 2950 2406 2950 2484 
Q 2950 2769 2794 2926 
Q 2638 3084 2363 3084 
Q 1938 3084 1609 2770 
Q 1281 2456 1184 1953 
L 800 0 
L 225 0 
L 909 3500 
L 1484 3500 
L 1375 2956 
Q 1609 3263 1923 3423 
Q 2238 3584 2597 3584 
Q 2978 3584 3223 3384 
Q 3469 3184 3519 2828 
Q 3781 3197 4126 3390 
Q 4472 3584 4856 3584 
Q 5306 3584 5551 3325 
Q 5797 3066 5797 2591 
Q 5797 2488 5784 2364 
Q 5772 2241 5747 2113 
z
" transform="scale(0.015625)"/>
       <path id="DejaVuSans-Oblique-65" d="M 3078 2063 
Q 3088 2113 3092 2166 
Q 3097 2219 3097 2272 
Q 3097 2653 2873 2875 
Q 2650 3097 2266 3097 
Q 1838 3097 1509 2826 
Q 1181 2556 1013 2059 
L 3078 2063 
z
M 3578 1613 
L 903 1613 
Q 884 1494 878 1425 
Q 872 1356 872 1306 
Q 872 872 1139 634 
Q 1406 397 1894 397 
Q 2269 397 2603 481 
Q 2938 566 3225 728 
L 3116 159 
Q 2806 34 2476 -28 
Q 2147 -91 1806 -91 
Q 1078 -91 686 257 
Q 294 606 294 1247 
Q 294 1794 489 2264 
Q 684 2734 1063 3103 
Q 1306 3334 1642 3459 
Q 1978 3584 2356 3584 
Q 2950 3584 3301 3228 
Q 3653 2872 3653 2272 
Q 3653 2128 3634 1964 
Q 3616 1800 3578 1613 
z
" transform="scale(0.015625)"/>
       <path id="DejaVuSans-Oblique-73" d="M 3200 3397 
L 3091 2853 
Q 2863 2978 2609 3040 
Q 2356 3103 2088 3103 
Q 1634 3103 1373 2948 
Q 1113 2794 1113 2528 
Q 1113 2219 1719 2053 
Q 1766 2041 1788 2034 
L 1972 1978 
Q 2547 1819 2739 1644 
Q 2931 1469 2931 1166 
Q 2931 609 2489 259 
Q 2047 -91 1331 -91 
Q 1053 -91 747 -37 
Q 441 16 72 128 
L 184 722 
Q 500 559 806 475 
Q 1113 391 1394 391 
Q 1816 391 2080 572 
Q 2344 753 2344 1031 
Q 2344 1331 1650 1516 
L 1591 1531 
L 1394 1581 
Q 956 1697 753 1886 
Q 550 2075 550 2369 
Q 550 2928 970 3256 
Q 1391 3584 2113 3584 
Q 2397 3584 2667 3537 
Q 2938 3491 3200 3397 
z
" transform="scale(0.015625)"/>
      </defs>
      <use xlink:href="#DejaVuSans-Oblique-68" transform="translate(0 0.015625)"/>
      <use xlink:href="#DejaVuSans-20" transform="translate(63.378906 -16.390625) scale(0.7)"/>
      <use xlink:href="#DejaVuSans-Oblique-69" transform="translate(88.364258 0.015625)"/>
      <use xlink:href="#DejaVuSans-Oblique-6d" transform="translate(116.147461 0.015625)"/>
      <use xlink:href="#DejaVuSans-Oblique-65" transform="translate(213.55957 0.015625)"/>
      <use xlink:href="#DejaVuSans-Oblique-73" transform="translate(275.083008 0.015625)"/>
     </g>
    </g>
   </g>
  </g>
 </g>
 <defs>
  <clipPath id="p90c8efa70a">
   <rect x="52.160938" y="22.318125" width="795.094" height="291.16"/>
  </clipPath>
 </defs>
</svg>
