<?xml version="1.0" encoding="utf-8" standalone="no"?>
<!DOCTYPE svg PUBLIC "-//W3C//DTD SVG 1.1//EN"
  "http://www.w3.org/Graphics/SVG/1.1/DTD/svg11.dtd">
<svg xmlns:xlink="http://www.w3.org/1999/xlink" width="854.454937pt" height="351.034375pt" viewBox="0 0 854.454937 351.034375" xmlns="http://www.w3.org/2000/svg" version="1.1">
 <metadata>
  <rdf:RDF xmlns:dc="http://purl.org/dc/elements/1.1/" xmlns:cc="http://creativecommons.org/ns#" xmlns:rdf="http://www.w3.org/1999/02/22-rdf-syntax-ns#">
   <cc:Work>
    <dc:type rdf:resource="http://purl.org/dc/dcmitype/StillImage"/>
    <dc:date>2025-07-24T14:39:29.573024</dc:date>
    <dc:format>image/svg+xml</dc:format>
    <dc:creator>
     <cc:Agent>
      <dc:title>Matplotlib v3.10.3, https://matplotlib.org/</dc:title>
     </cc:Agent>
    </dc:creator>
   </cc:Work>
  </rdf:RDF>
 </metadata>
 <defs>
  <style type="text/css">*{stroke-linejoin: round; stroke-linecap: butt}</style>
 </defs>
 <g id="figure_1">
  <g id="patch_1">
   <path d="M 0 351.034375 
L 854.454937 351.034375 
L 854.454937 0 
L 0 0 
z
" style="fill: #ffffff"/>
  </g>
  <g id="axes_1">
   <g id="patch_2">
    <path d="M 52.160938 313.478125 
L 847.254937 313.478125 
L 847.254937 22.318125 
L 52.160938 22.318125 
z
" style="fill: #ffffff"/>
   </g>
   <g id="matplotlib.axis_1">
    <g id="xtick_1">
     <g id="line2d_1">
      <path d="M 63.58531 313.478125 
L 63.58531 22.318125 
" clip-path="url(#p4bfff70cd5)" style="fill: none; stroke: #b0b0b0; stroke-width: 0.8; stroke-linecap: square"/>
     </g>
     <g id="line2d_2">
      <defs>
       <path id="m55aedaa444" d="M 0 0 
L 0 3.5 
" style="stroke: #000000; stroke-width: 0.8"/>
      </defs>
      <g>
       <use xlink:href="#m55aedaa444" x="63.58531" y="313.478125" style="stroke: #000000; stroke-width: 0.8"/>
      </g>
     </g>
     <g id="text_1">
      <!-- −14000 -->
      <g transform="translate(43.489217 328.076563) scale(0.1 -0.1)">
       <defs>
        <path id="DejaVuSans-2212" d="M 678 2272 
L 4684 2272 
L 4684 1741 
L 678 1741 
L 678 2272 
z
" transform="scale(0.015625)"/>
        <path id="DejaVuSans-31" d="M 794 531 
L 1825 531 
L 1825 4091 
L 703 3866 
L 703 4441 
L 1819 4666 
L 2450 4666 
L 2450 531 
L 3481 531 
L 3481 0 
L 794 0 
L 794 531 
z
" transform="scale(0.015625)"/>
        <path id="DejaVuSans-34" d="M 2419 4116 
L 825 1625 
L 2419 1625 
L 2419 4116 
z
M 2253 4666 
L 3047 4666 
L 3047 1625 
L 3713 1625 
L 3713 1100 
L 3047 1100 
L 3047 0 
L 2419 0 
L 2419 1100 
L 313 1100 
L 313 1709 
L 2253 4666 
z
" transform="scale(0.015625)"/>
        <path id="DejaVuSans-30" d="M 2034 4250 
Q 1547 4250 1301 3770 
Q 1056 3291 1056 2328 
Q 1056 1369 1301 889 
Q 1547 409 2034 409 
Q 2525 409 2770 889 
Q 3016 1369 3016 2328 
Q 3016 3291 2770 3770 
Q 2525 4250 2034 4250 
z
M 2034 4750 
Q 2819 4750 3233 4129 
Q 3647 3509 3647 2328 
Q 3647 1150 3233 529 
Q 2819 -91 2034 -91 
Q 1250 -91 836 529 
Q 422 1150 422 2328 
Q 422 3509 836 4129 
Q 1250 4750 2034 4750 
z
" transform="scale(0.015625)"/>
       </defs>
       <use xlink:href="#DejaVuSans-2212"/>
       <use xlink:href="#DejaVuSans-31" transform="translate(83.789062 0)"/>
       <use xlink:href="#DejaVuSans-34" transform="translate(147.412109 0)"/>
       <use xlink:href="#DejaVuSans-30" transform="translate(211.035156 0)"/>
       <use xlink:href="#DejaVuSans-30" transform="translate(274.658203 0)"/>
       <use xlink:href="#DejaVuSans-30" transform="translate(338.28125 0)"/>
      </g>
     </g>
    </g>
    <g id="xtick_2">
     <g id="line2d_3">
      <path d="M 169.898629 313.478125 
L 169.898629 22.318125 
" clip-path="url(#p4bfff70cd5)" style="fill: none; stroke: #b0b0b0; stroke-width: 0.8; stroke-linecap: square"/>
     </g>
     <g id="line2d_4">
      <g>
       <use xlink:href="#m55aedaa444" x="169.898629" y="313.478125" style="stroke: #000000; stroke-width: 0.8"/>
      </g>
     </g>
     <g id="text_2">
      <!-- −12000 -->
      <g transform="translate(149.802535 328.076563) scale(0.1 -0.1)">
       <defs>
        <path id="DejaVuSans-32" d="M 1228 531 
L 3431 531 
L 3431 0 
L 469 0 
L 469 531 
Q 828 903 1448 1529 
Q 2069 2156 2228 2338 
Q 2531 2678 2651 2914 
Q 2772 3150 2772 3378 
Q 2772 3750 2511 3984 
Q 2250 4219 1831 4219 
Q 1534 4219 1204 4116 
Q 875 4013 500 3803 
L 500 4441 
Q 881 4594 1212 4672 
Q 1544 4750 1819 4750 
Q 2544 4750 2975 4387 
Q 3406 4025 3406 3419 
Q 3406 3131 3298 2873 
Q 3191 2616 2906 2266 
Q 2828 2175 2409 1742 
Q 1991 1309 1228 531 
z
" transform="scale(0.015625)"/>
       </defs>
       <use xlink:href="#DejaVuSans-2212"/>
       <use xlink:href="#DejaVuSans-31" transform="translate(83.789062 0)"/>
       <use xlink:href="#DejaVuSans-32" transform="translate(147.412109 0)"/>
       <use xlink:href="#DejaVuSans-30" transform="translate(211.035156 0)"/>
       <use xlink:href="#DejaVuSans-30" transform="translate(274.658203 0)"/>
       <use xlink:href="#DejaVuSans-30" transform="translate(338.28125 0)"/>
      </g>
     </g>
    </g>
    <g id="xtick_3">
     <g id="line2d_5">
      <path d="M 276.211948 313.478125 
L 276.211948 22.318125 
" clip-path="url(#p4bfff70cd5)" style="fill: none; stroke: #b0b0b0; stroke-width: 0.8; stroke-linecap: square"/>
     </g>
     <g id="line2d_6">
      <g>
       <use xlink:href="#m55aedaa444" x="276.211948" y="313.478125" style="stroke: #000000; stroke-width: 0.8"/>
      </g>
     </g>
     <g id="text_3">
      <!-- −10000 -->
      <g transform="translate(256.115854 328.076563) scale(0.1 -0.1)">
       <use xlink:href="#DejaVuSans-2212"/>
       <use xlink:href="#DejaVuSans-31" transform="translate(83.789062 0)"/>
       <use xlink:href="#DejaVuSans-30" transform="translate(147.412109 0)"/>
       <use xlink:href="#DejaVuSans-30" transform="translate(211.035156 0)"/>
       <use xlink:href="#DejaVuSans-30" transform="translate(274.658203 0)"/>
       <use xlink:href="#DejaVuSans-30" transform="translate(338.28125 0)"/>
      </g>
     </g>
    </g>
    <g id="xtick_4">
     <g id="line2d_7">
      <path d="M 382.525266 313.478125 
L 382.525266 22.318125 
" clip-path="url(#p4bfff70cd5)" style="fill: none; stroke: #b0b0b0; stroke-width: 0.8; stroke-linecap: square"/>
     </g>
     <g id="line2d_8">
      <g>
       <use xlink:href="#m55aedaa444" x="382.525266" y="313.478125" style="stroke: #000000; stroke-width: 0.8"/>
      </g>
     </g>
     <g id="text_4">
      <!-- −8000 -->
      <g transform="translate(365.610422 328.076563) scale(0.1 -0.1)">
       <defs>
        <path id="DejaVuSans-38" d="M 2034 2216 
Q 1584 2216 1326 1975 
Q 1069 1734 1069 1313 
Q 1069 891 1326 650 
Q 1584 409 2034 409 
Q 2484 409 2743 651 
Q 3003 894 3003 1313 
Q 3003 1734 2745 1975 
Q 2488 2216 2034 2216 
z
M 1403 2484 
Q 997 2584 770 2862 
Q 544 3141 544 3541 
Q 544 4100 942 4425 
Q 1341 4750 2034 4750 
Q 2731 4750 3128 4425 
Q 3525 4100 3525 3541 
Q 3525 3141 3298 2862 
Q 3072 2584 2669 2484 
Q 3125 2378 3379 2068 
Q 3634 1759 3634 1313 
Q 3634 634 3220 271 
Q 2806 -91 2034 -91 
Q 1263 -91 848 271 
Q 434 634 434 1313 
Q 434 1759 690 2068 
Q 947 2378 1403 2484 
z
M 1172 3481 
Q 1172 3119 1398 2916 
Q 1625 2713 2034 2713 
Q 2441 2713 2670 2916 
Q 2900 3119 2900 3481 
Q 2900 3844 2670 4047 
Q 2441 4250 2034 4250 
Q 1625 4250 1398 4047 
Q 1172 3844 1172 3481 
z
" transform="scale(0.015625)"/>
       </defs>
       <use xlink:href="#DejaVuSans-2212"/>
       <use xlink:href="#DejaVuSans-38" transform="translate(83.789062 0)"/>
       <use xlink:href="#DejaVuSans-30" transform="translate(147.412109 0)"/>
       <use xlink:href="#DejaVuSans-30" transform="translate(211.035156 0)"/>
       <use xlink:href="#DejaVuSans-30" transform="translate(274.658203 0)"/>
      </g>
     </g>
    </g>
    <g id="xtick_5">
     <g id="line2d_9">
      <path d="M 488.838585 313.478125 
L 488.838585 22.318125 
" clip-path="url(#p4bfff70cd5)" style="fill: none; stroke: #b0b0b0; stroke-width: 0.8; stroke-linecap: square"/>
     </g>
     <g id="line2d_10">
      <g>
       <use xlink:href="#m55aedaa444" x="488.838585" y="313.478125" style="stroke: #000000; stroke-width: 0.8"/>
      </g>
     </g>
     <g id="text_5">
      <!-- −6000 -->
      <g transform="translate(471.923741 328.076563) scale(0.1 -0.1)">
       <defs>
        <path id="DejaVuSans-36" d="M 2113 2584 
Q 1688 2584 1439 2293 
Q 1191 2003 1191 1497 
Q 1191 994 1439 701 
Q 1688 409 2113 409 
Q 2538 409 2786 701 
Q 3034 994 3034 1497 
Q 3034 2003 2786 2293 
Q 2538 2584 2113 2584 
z
M 3366 4563 
L 3366 3988 
Q 3128 4100 2886 4159 
Q 2644 4219 2406 4219 
Q 1781 4219 1451 3797 
Q 1122 3375 1075 2522 
Q 1259 2794 1537 2939 
Q 1816 3084 2150 3084 
Q 2853 3084 3261 2657 
Q 3669 2231 3669 1497 
Q 3669 778 3244 343 
Q 2819 -91 2113 -91 
Q 1303 -91 875 529 
Q 447 1150 447 2328 
Q 447 3434 972 4092 
Q 1497 4750 2381 4750 
Q 2619 4750 2861 4703 
Q 3103 4656 3366 4563 
z
" transform="scale(0.015625)"/>
       </defs>
       <use xlink:href="#DejaVuSans-2212"/>
       <use xlink:href="#DejaVuSans-36" transform="translate(83.789062 0)"/>
       <use xlink:href="#DejaVuSans-30" transform="translate(147.412109 0)"/>
       <use xlink:href="#DejaVuSans-30" transform="translate(211.035156 0)"/>
       <use xlink:href="#DejaVuSans-30" transform="translate(274.658203 0)"/>
      </g>
     </g>
    </g>
    <g id="xtick_6">
     <g id="line2d_11">
      <path d="M 595.151903 313.478125 
L 595.151903 22.318125 
" clip-path="url(#p4bfff70cd5)" style="fill: none; stroke: #b0b0b0; stroke-width: 0.8; stroke-linecap: square"/>
     </g>
     <g id="line2d_12">
      <g>
       <use xlink:href="#m55aedaa444" x="595.151903" y="313.478125" style="stroke: #000000; stroke-width: 0.8"/>
      </g>
     </g>
     <g id="text_6">
      <!-- −4000 -->
      <g transform="translate(578.237059 328.076563) scale(0.1 -0.1)">
       <use xlink:href="#DejaVuSans-2212"/>
       <use xlink:href="#DejaVuSans-34" transform="translate(83.789062 0)"/>
       <use xlink:href="#DejaVuSans-30" transform="translate(147.412109 0)"/>
       <use xlink:href="#DejaVuSans-30" transform="translate(211.035156 0)"/>
       <use xlink:href="#DejaVuSans-30" transform="translate(274.658203 0)"/>
      </g>
     </g>
    </g>
    <g id="xtick_7">
     <g id="line2d_13">
      <path d="M 701.465222 313.478125 
L 701.465222 22.318125 
" clip-path="url(#p4bfff70cd5)" style="fill: none; stroke: #b0b0b0; stroke-width: 0.8; stroke-linecap: square"/>
     </g>
     <g id="line2d_14">
      <g>
       <use xlink:href="#m55aedaa444" x="701.465222" y="313.478125" style="stroke: #000000; stroke-width: 0.8"/>
      </g>
     </g>
     <g id="text_7">
      <!-- −2000 -->
      <g transform="translate(684.550378 328.076563) scale(0.1 -0.1)">
       <use xlink:href="#DejaVuSans-2212"/>
       <use xlink:href="#DejaVuSans-32" transform="translate(83.789062 0)"/>
       <use xlink:href="#DejaVuSans-30" transform="translate(147.412109 0)"/>
       <use xlink:href="#DejaVuSans-30" transform="translate(211.035156 0)"/>
       <use xlink:href="#DejaVuSans-30" transform="translate(274.658203 0)"/>
      </g>
     </g>
    </g>
    <g id="xtick_8">
     <g id="line2d_15">
      <path d="M 807.77854 313.478125 
L 807.77854 22.318125 
" clip-path="url(#p4bfff70cd5)" style="fill: none; stroke: #b0b0b0; stroke-width: 0.8; stroke-linecap: square"/>
     </g>
     <g id="line2d_16">
      <g>
       <use xlink:href="#m55aedaa444" x="807.77854" y="313.478125" style="stroke: #000000; stroke-width: 0.8"/>
      </g>
     </g>
     <g id="text_8">
      <!-- 0 -->
      <g transform="translate(804.59729 328.076563) scale(0.1 -0.1)">
       <use xlink:href="#DejaVuSans-30"/>
      </g>
     </g>
    </g>
    <g id="text_9">
     <!-- t [s] -->
     <g transform="translate(439.652469 341.754687) scale(0.1 -0.1)">
      <defs>
       <path id="DejaVuSans-74" d="M 1172 4494 
L 1172 3500 
L 2356 3500 
L 2356 3053 
L 1172 3053 
L 1172 1153 
Q 1172 725 1289 603 
Q 1406 481 1766 481 
L 2356 481 
L 2356 0 
L 1766 0 
Q 1100 0 847 248 
Q 594 497 594 1153 
L 594 3053 
L 172 3053 
L 172 3500 
L 594 3500 
L 594 4494 
L 1172 4494 
z
" transform="scale(0.015625)"/>
       <path id="DejaVuSans-20" transform="scale(0.015625)"/>
       <path id="DejaVuSans-5b" d="M 550 4863 
L 1875 4863 
L 1875 4416 
L 1125 4416 
L 1125 -397 
L 1875 -397 
L 1875 -844 
L 550 -844 
L 550 4863 
z
" transform="scale(0.015625)"/>
       <path id="DejaVuSans-73" d="M 2834 3397 
L 2834 2853 
Q 2591 2978 2328 3040 
Q 2066 3103 1784 3103 
Q 1356 3103 1142 2972 
Q 928 2841 928 2578 
Q 928 2378 1081 2264 
Q 1234 2150 1697 2047 
L 1894 2003 
Q 2506 1872 2764 1633 
Q 3022 1394 3022 966 
Q 3022 478 2636 193 
Q 2250 -91 1575 -91 
Q 1294 -91 989 -36 
Q 684 19 347 128 
L 347 722 
Q 666 556 975 473 
Q 1284 391 1588 391 
Q 1994 391 2212 530 
Q 2431 669 2431 922 
Q 2431 1156 2273 1281 
Q 2116 1406 1581 1522 
L 1381 1569 
Q 847 1681 609 1914 
Q 372 2147 372 2553 
Q 372 3047 722 3315 
Q 1072 3584 1716 3584 
Q 2034 3584 2315 3537 
Q 2597 3491 2834 3397 
z
" transform="scale(0.015625)"/>
       <path id="DejaVuSans-5d" d="M 1947 4863 
L 1947 -844 
L 622 -844 
L 622 -397 
L 1369 -397 
L 1369 4416 
L 622 4416 
L 622 4863 
L 1947 4863 
z
" transform="scale(0.015625)"/>
      </defs>
      <use xlink:href="#DejaVuSans-74"/>
      <use xlink:href="#DejaVuSans-20" transform="translate(39.208984 0)"/>
      <use xlink:href="#DejaVuSans-5b" transform="translate(70.996094 0)"/>
      <use xlink:href="#DejaVuSans-73" transform="translate(110.009766 0)"/>
      <use xlink:href="#DejaVuSans-5d" transform="translate(162.109375 0)"/>
     </g>
    </g>
   </g>
   <g id="matplotlib.axis_2">
    <g id="ytick_1">
     <g id="line2d_17">
      <path d="M 52.160938 277.1357 
L 847.254937 277.1357 
" clip-path="url(#p4bfff70cd5)" style="fill: none; stroke: #b0b0b0; stroke-width: 0.8; stroke-linecap: square"/>
     </g>
     <g id="line2d_18">
      <defs>
       <path id="m2530118370" d="M 0 0 
L -3.5 0 
" style="stroke: #000000; stroke-width: 0.8"/>
      </defs>
      <g>
       <use xlink:href="#m2530118370" x="52.160938" y="277.1357" style="stroke: #000000; stroke-width: 0.8"/>
      </g>
     </g>
     <g id="text_10">
      <!-- −0.2 -->
      <g transform="translate(20.878125 280.934919) scale(0.1 -0.1)">
       <defs>
        <path id="DejaVuSans-2e" d="M 684 794 
L 1344 794 
L 1344 0 
L 684 0 
L 684 794 
z
" transform="scale(0.015625)"/>
       </defs>
       <use xlink:href="#DejaVuSans-2212"/>
       <use xlink:href="#DejaVuSans-30" transform="translate(83.789062 0)"/>
       <use xlink:href="#DejaVuSans-2e" transform="translate(147.412109 0)"/>
       <use xlink:href="#DejaVuSans-32" transform="translate(179.199219 0)"/>
      </g>
     </g>
    </g>
    <g id="ytick_2">
     <g id="line2d_19">
      <path d="M 52.160938 222.917807 
L 847.254937 222.917807 
" clip-path="url(#p4bfff70cd5)" style="fill: none; stroke: #b0b0b0; stroke-width: 0.8; stroke-linecap: square"/>
     </g>
     <g id="line2d_20">
      <g>
       <use xlink:href="#m2530118370" x="52.160938" y="222.917807" style="stroke: #000000; stroke-width: 0.8"/>
      </g>
     </g>
     <g id="text_11">
      <!-- −0.1 -->
      <g transform="translate(20.878125 226.717026) scale(0.1 -0.1)">
       <use xlink:href="#DejaVuSans-2212"/>
       <use xlink:href="#DejaVuSans-30" transform="translate(83.789062 0)"/>
       <use xlink:href="#DejaVuSans-2e" transform="translate(147.412109 0)"/>
       <use xlink:href="#DejaVuSans-31" transform="translate(179.199219 0)"/>
      </g>
     </g>
    </g>
    <g id="ytick_3">
     <g id="line2d_21">
      <path d="M 52.160938 168.699915 
L 847.254937 168.699915 
" clip-path="url(#p4bfff70cd5)" style="fill: none; stroke: #b0b0b0; stroke-width: 0.8; stroke-linecap: square"/>
     </g>
     <g id="line2d_22">
      <g>
       <use xlink:href="#m2530118370" x="52.160938" y="168.699915" style="stroke: #000000; stroke-width: 0.8"/>
      </g>
     </g>
     <g id="text_12">
      <!-- 0.0 -->
      <g transform="translate(29.257812 172.499133) scale(0.1 -0.1)">
       <use xlink:href="#DejaVuSans-30"/>
       <use xlink:href="#DejaVuSans-2e" transform="translate(63.623047 0)"/>
       <use xlink:href="#DejaVuSans-30" transform="translate(95.410156 0)"/>
      </g>
     </g>
    </g>
    <g id="ytick_4">
     <g id="line2d_23">
      <path d="M 52.160938 114.482022 
L 847.254937 114.482022 
" clip-path="url(#p4bfff70cd5)" style="fill: none; stroke: #b0b0b0; stroke-width: 0.8; stroke-linecap: square"/>
     </g>
     <g id="line2d_24">
      <g>
       <use xlink:href="#m2530118370" x="52.160938" y="114.482022" style="stroke: #000000; stroke-width: 0.8"/>
      </g>
     </g>
     <g id="text_13">
      <!-- 0.1 -->
      <g transform="translate(29.257812 118.281241) scale(0.1 -0.1)">
       <use xlink:href="#DejaVuSans-30"/>
       <use xlink:href="#DejaVuSans-2e" transform="translate(63.623047 0)"/>
       <use xlink:href="#DejaVuSans-31" transform="translate(95.410156 0)"/>
      </g>
     </g>
    </g>
    <g id="ytick_5">
     <g id="line2d_25">
      <path d="M 52.160938 60.264129 
L 847.254937 60.264129 
" clip-path="url(#p4bfff70cd5)" style="fill: none; stroke: #b0b0b0; stroke-width: 0.8; stroke-linecap: square"/>
     </g>
     <g id="line2d_26">
      <g>
       <use xlink:href="#m2530118370" x="52.160938" y="60.264129" style="stroke: #000000; stroke-width: 0.8"/>
      </g>
     </g>
     <g id="text_14">
      <!-- 0.2 -->
      <g transform="translate(29.257812 64.063348) scale(0.1 -0.1)">
       <use xlink:href="#DejaVuSans-30"/>
       <use xlink:href="#DejaVuSans-2e" transform="translate(63.623047 0)"/>
       <use xlink:href="#DejaVuSans-32" transform="translate(95.410156 0)"/>
      </g>
     </g>
    </g>
    <g id="text_15">
     <!-- $h_{22}]$ -->
     <g transform="translate(14.798438 177.648125) rotate(-90) scale(0.1 -0.1)">
      <defs>
       <path id="DejaVuSans-Oblique-68" d="M 3566 2113 
L 3156 0 
L 2578 0 
L 2988 2091 
Q 3016 2238 3031 2350 
Q 3047 2463 3047 2528 
Q 3047 2791 2881 2937 
Q 2716 3084 2419 3084 
Q 1956 3084 1617 2771 
Q 1278 2459 1178 1941 
L 800 0 
L 225 0 
L 1172 4863 
L 1747 4863 
L 1375 2950 
Q 1594 3244 1934 3414 
Q 2275 3584 2650 3584 
Q 3113 3584 3367 3334 
Q 3622 3084 3622 2631 
Q 3622 2519 3608 2391 
Q 3594 2263 3566 2113 
z
" transform="scale(0.015625)"/>
      </defs>
      <use xlink:href="#DejaVuSans-Oblique-68" transform="translate(0 0.015625)"/>
      <use xlink:href="#DejaVuSans-32" transform="translate(63.378906 -16.390625) scale(0.7)"/>
      <use xlink:href="#DejaVuSans-32" transform="translate(107.915039 -16.390625) scale(0.7)"/>
      <use xlink:href="#DejaVuSans-5d" transform="translate(155.185547 0.015625)"/>
     </g>
    </g>
   </g>
   <g id="line2d_27">
    <path d="M 88.301574 164.631416 
L 89.18456 167.586085 
L 90.155845 171.700006 
L 91.215429 177.246238 
L 94.217583 194.030675 
L 94.659076 195.109833 
L 94.923972 195.302477 
L 95.10057 195.202366 
L 95.365466 194.661624 
L 95.71866 193.115384 
L 96.160153 189.681106 
L 96.689945 183.180457 
L 97.308036 172.505979 
L 99.338905 134.474165 
L 99.692099 131.773192 
L 99.956995 131.062452 
L 100.045294 131.079792 
L 100.221891 131.488926 
L 100.486787 132.997887 
L 100.839982 136.50308 
L 101.369774 144.193956 
L 103.57724 179.604125 
L 104.19533 185.268542 
L 104.725122 188.32999 
L 105.166616 189.795847 
L 105.51981 190.372824 
L 105.784706 190.510662 
L 106.049602 190.43073 
L 106.402797 190.034899 
L 106.84429 189.159902 
L 107.46238 187.403991 
L 108.433665 183.871389 
L 112.05391 169.990141 
L 113.37839 166.08203 
L 114.526272 163.360542 
L 115.585856 161.404201 
L 116.557141 160.058917 
L 117.528426 159.096788 
L 118.411413 158.512752 
L 119.294399 158.182863 
L 120.089087 158.104813 
L 120.883775 158.247975 
L 121.678463 158.626184 
L 122.561449 159.326118 
L 123.532734 160.417918 
L 124.592318 161.952688 
L 125.828499 164.157964 
L 127.06468 166.823141 
L 128.38916 170.221064 
L 130.066834 175.216915 
L 132.980689 184.049331 
L 133.775377 185.781972 
L 134.305169 186.530786 
L 134.746662 186.814369 
L 135.099857 186.767314 
L 135.453052 186.434675 
L 135.806246 185.776088 
L 136.247739 184.432127 
L 136.777531 181.952504 
L 137.395622 177.712797 
L 138.102011 170.947601 
L 138.896699 161.02082 
L 140.75097 136.61044 
L 141.192464 133.881916 
L 141.45736 133.458025 
L 141.633957 133.754466 
L 141.898853 135.123849 
L 142.252047 138.710933 
L 142.693541 145.860597 
L 143.39993 161.800344 
L 144.636111 190.333334 
L 145.165903 198.021085 
L 145.607396 201.379112 
L 145.872292 202.088622 
L 146.048889 202.061142 
L 146.225487 201.668341 
L 146.490382 200.470641 
L 146.931876 197.16653 
L 147.638265 189.765104 
L 149.580835 168.542126 
L 150.463822 161.698767 
L 151.170211 157.792747 
L 151.788301 155.433721 
L 152.318093 154.111547 
L 152.847885 153.35055 
L 153.289378 153.083873 
L 153.730872 153.099328 
L 154.172365 153.350892 
L 154.702157 153.906135 
L 155.408546 154.97811 
L 156.379831 156.89115 
L 157.704311 160.025812 
L 160.35327 167.034163 
L 162.472438 172.31402 
L 163.973515 175.484332 
L 165.209696 177.588114 
L 166.269279 178.949115 
L 167.152266 179.739734 
L 167.946954 180.16513 
L 168.653343 180.294899 
L 169.271433 180.194462 
L 169.889524 179.869593 
L 170.507615 179.294691 
L 171.214004 178.301739 
L 172.008692 176.727259 
L 172.891678 174.393192 
L 173.862963 171.122042 
L 174.922547 166.748186 
L 176.247027 160.253782 
L 178.63109 148.303752 
L 179.249181 146.338145 
L 179.690674 145.62153 
L 179.95557 145.549602 
L 180.220466 145.79608 
L 180.485362 146.403366 
L 180.838556 147.84744 
L 181.28005 150.802837 
L 181.809841 156.216418 
L 182.427932 165.158361 
L 183.399217 183.388794 
L 184.370502 200.506388 
L 184.811995 205.145808 
L 185.076891 206.434923 
L 185.253489 206.593283 
L 185.430086 206.168827 
L 185.694982 204.437519 
L 186.048176 200.188807 
L 186.577968 190.393456 
L 188.697136 146.413752 
L 189.138629 142.058555 
L 189.491824 140.150698 
L 189.75672 139.552226 
L 189.933317 139.507167 
L 190.109914 139.715869 
L 190.37481 140.447832 
L 190.816303 142.571786 
L 191.434394 146.832562 
L 194.701444 171.548236 
L 195.58443 175.846604 
L 196.379118 178.65493 
L 197.085507 180.402465 
L 197.703598 181.42921 
L 198.321688 182.045506 
L 198.85148 182.281353 
L 199.381272 182.27135 
L 199.911064 182.035043 
L 200.529155 181.498633 
L 201.235544 180.58171 
L 202.11853 179.059518 
L 203.354711 176.422508 
L 205.120684 172.065353 
L 209.97711 159.769155 
L 211.124992 157.547751 
L 212.007979 156.246852 
L 212.714368 155.541466 
L 213.332459 155.218927 
L 213.86225 155.19183 
L 214.392042 155.419164 
L 214.921834 155.923622 
L 215.451626 156.729187 
L 216.069717 158.085677 
L 216.776106 160.245783 
L 217.482495 163.130734 
L 218.277183 167.31841 
L 219.248468 173.78446 
L 220.749545 185.69682 
L 221.809129 193.336134 
L 222.338921 195.828055 
L 222.692115 196.629586 
L 222.868712 196.703166 
L 223.04531 196.527182 
L 223.310206 195.745466 
L 223.6634 193.629306 
L 224.104894 189.089691 
L 224.634685 180.796803 
L 225.341075 165.760461 
L 226.665554 137.04122 
L 227.107048 131.716884 
L 227.371943 130.240649 
L 227.548541 130.022249 
L 227.725138 130.416754 
L 227.990034 132.115513 
L 228.343229 136.244188 
L 228.87302 145.477506 
L 230.815591 182.96873 
L 231.433681 189.65835 
L 231.875174 192.450077 
L 232.228369 193.627784 
L 232.493265 193.975307 
L 232.669862 193.982163 
L 232.934758 193.695235 
L 233.287953 192.838214 
L 233.817745 190.763367 
L 234.612433 186.505005 
L 238.05608 166.659393 
L 239.115664 162.38699 
L 239.99865 159.671438 
L 240.793338 157.869882 
L 241.499727 156.762744 
L 242.117818 156.156712 
L 242.735908 155.865412 
L 243.2657 155.844935 
L 243.883791 156.062102 
L 244.59018 156.594899 
L 245.384868 157.520055 
L 246.267854 158.919734 
L 247.239139 160.880709 
L 248.387022 163.704027 
L 249.888099 168.016384 
L 254.567927 181.961563 
L 255.450913 183.734994 
L 256.069004 184.571415 
L 256.598796 184.944747 
L 257.040289 184.961326 
L 257.393484 184.748987 
L 257.834977 184.159175 
L 258.27647 183.159041 
L 258.806262 181.341833 
L 259.424352 178.265601 
L 260.130742 173.378149 
L 260.925429 166.129904 
L 262.073312 153.209795 
L 263.221194 140.783907 
L 263.750986 137.182969 
L 264.015882 136.328436 
L 264.192479 136.195047 
L 264.369077 136.450917 
L 264.633973 137.628785 
L 264.987167 140.790018 
L 265.42866 147.356621 
L 266.046751 160.817654 
L 267.724425 200.601925 
L 268.165919 205.495755 
L 268.430814 206.633023 
L 268.607412 206.644275 
L 268.784009 206.085308 
L 269.048905 204.262695 
L 269.490398 199.037428 
L 270.196787 187.142245 
L 271.609566 162.973772 
L 272.315955 154.659806 
L 272.934045 149.951897 
L 273.463837 147.643095 
L 273.817032 146.86946 
L 274.081928 146.638614 
L 274.346824 146.672729 
L 274.61172 146.941682 
L 274.964914 147.615893 
L 275.494706 149.174806 
L 276.289394 152.371649 
L 277.790471 159.639448 
L 279.733041 168.716593 
L 280.969222 173.469072 
L 282.028806 176.703906 
L 282.911793 178.770972 
L 283.70648 180.146964 
L 284.41287 180.99418 
L 285.03096 181.448699 
L 285.649051 181.634156 
L 286.178843 181.576231 
L 286.708634 181.316216 
L 287.326725 180.758186 
L 288.033114 179.792513 
L 288.827802 178.309395 
L 289.799087 175.969839 
L 290.858671 172.811748 
L 292.094852 168.406936 
L 293.772526 161.521174 
L 295.891694 152.952152 
L 296.686382 150.534203 
L 297.304472 149.309694 
L 297.657667 148.96472 
L 297.922563 148.91221 
L 298.187459 149.060574 
L 298.540653 149.609383 
L 298.893848 150.607656 
L 299.335341 152.564193 
L 299.865133 156.063186 
L 300.483223 161.850363 
L 301.189613 170.673125 
L 302.425794 189.663087 
L 303.220482 200.350721 
L 303.661975 203.859699 
L 303.926871 204.681964 
L 304.015169 204.707466 
L 304.191767 204.358164 
L 304.456663 202.786252 
L 304.809857 198.685037 
L 305.25135 190.519472 
L 305.95774 172.429584 
L 307.105622 143.195515 
L 307.635414 135.276847 
L 307.988608 132.793272 
L 308.165206 132.384311 
L 308.253504 132.377945 
L 308.430102 132.739765 
L 308.694998 134.139201 
L 309.136491 138.344518 
L 309.84288 148.11696 
L 311.520554 172.274226 
L 312.315242 180.191256 
L 312.933333 184.367252 
L 313.463125 186.668783 
L 313.904618 187.787124 
L 314.257812 188.222251 
L 314.611007 188.299923 
L 314.964202 188.066722 
L 315.405695 187.405867 
L 315.935487 186.176458 
L 316.730175 183.685998 
L 317.966356 178.914859 
L 321.5866 164.427418 
L 322.822781 160.553877 
L 323.882365 157.946727 
L 324.765351 156.355425 
L 325.471741 155.50368 
L 326.089831 155.085072 
L 326.619623 154.977179 
L 327.149415 155.105769 
L 327.679207 155.475238 
L 328.297297 156.218342 
L 329.003687 157.494273 
L 329.710076 159.245505 
L 330.504764 161.802876 
L 331.476049 165.7642 
L 332.623931 171.50051 
L 334.566501 182.660819 
L 335.714384 188.620238 
L 336.332474 190.894628 
L 336.773968 191.834679 
L 337.038863 192.044076 
L 337.303759 191.939982 
L 337.568655 191.482692 
L 337.92185 190.255899 
L 338.363343 187.609658 
L 338.893135 182.627766 
L 339.511226 174.224432 
L 340.305913 159.937763 
L 341.630393 135.776145 
L 342.071886 131.316041 
L 342.336782 130.265717 
L 342.425081 130.223181 
L 342.601678 130.622921 
L 342.866574 132.459653 
L 343.219769 137.171975 
L 343.749561 148.399952 
L 345.78043 197.389863 
L 346.221923 201.662067 
L 346.486819 202.725501 
L 346.663416 202.85696 
L 346.840013 202.565767 
L 347.104909 201.422738 
L 347.546403 197.989482 
L 348.252792 189.974366 
L 350.283661 165.493882 
L 351.078348 158.836456 
L 351.784738 154.714514 
L 352.402828 152.394949 
L 352.93262 151.248869 
L 353.374113 150.809023 
L 353.727308 150.751808 
L 354.080502 150.925731 
L 354.521996 151.428738 
L 355.051788 152.391855 
L 355.758177 154.17536 
L 356.729462 157.325671 
L 358.230539 163.116849 
L 361.232693 174.824933 
L 362.468874 178.751758 
L 363.440159 181.174966 
L 364.234847 182.621981 
L 364.852937 183.364799 
L 365.382729 183.704512 
L 365.824223 183.758485 
L 366.265716 183.586943 
L 366.707209 183.173345 
L 367.237001 182.335212 
L 367.855091 180.856247 
L 368.561481 178.472412 
L 369.356168 174.886695 
L 370.239155 169.806504 
L 371.387037 161.710348 
L 373.682802 144.938419 
L 374.212594 142.671898 
L 374.565789 141.951935 
L 374.742386 141.886227 
L 374.918983 142.042614 
L 375.183879 142.73538 
L 375.537074 144.608128 
L 375.978567 148.639591 
L 376.508359 156.106529 
L 377.214748 170.128148 
L 378.804124 203.957562 
L 379.157318 207.658237 
L 379.422214 208.709671 
L 379.510513 208.705353 
L 379.68711 208.152159 
L 379.952006 205.972791 
L 380.305201 200.714208 
L 380.834993 188.849139 
L 382.600966 145.69565 
L 383.042459 140.034867 
L 383.395653 137.537642 
L 383.660549 136.764417 
L 383.837147 136.72245 
L 384.013744 137.022296 
L 384.27864 138.038631 
L 384.720133 140.95638 
L 385.426522 147.693709 
L 387.898884 173.018536 
L 388.693572 178.547619 
L 389.399961 182.076972 
L 390.018052 184.165844 
L 390.547844 185.282889 
L 390.989337 185.78327 
L 391.342532 185.925421 
L 391.695726 185.855656 
L 392.137219 185.494498 
L 392.667011 184.699525 
L 393.285102 183.339937 
L 394.07979 181.035311 
L 395.227672 176.912201 
L 397.081944 169.216942 
L 399.466007 159.488899 
L 400.61389 155.711991 
L 401.496876 153.540441 
L 402.114967 152.520422 
L 402.644758 152.041658 
L 403.086252 151.960683 
L 403.439446 152.125239 
L 403.88094 152.641436 
L 404.322433 153.527609 
L 404.852225 155.114011 
L 405.470315 157.73254 
L 406.176704 161.789428 
L 406.971392 167.719995 
L 408.030976 177.564535 
L 409.796949 194.487622 
L 410.326741 197.65075 
L 410.679935 198.64945 
L 410.856533 198.728722 
L 411.03313 198.489752 
L 411.298026 197.476282 
L 411.65122 194.783334 
L 412.092714 189.100868 
L 412.622506 178.938541 
L 413.505492 156.419911 
L 414.388479 135.479281 
L 414.829972 129.4458 
L 415.094868 127.941841 
L 415.183166 127.822099 
L 415.271465 127.89561 
L 415.448062 128.618494 
L 415.712958 131.091869 
L 416.066153 136.708724 
L 416.684243 151.057567 
L 418.097022 185.47706 
L 418.626814 193.44706 
L 419.068307 197.310257 
L 419.421501 198.708745 
L 419.598099 198.903601 
L 419.774696 198.796901 
L 420.039592 198.131866 
L 420.392787 196.448376 
L 420.922578 192.646403 
L 421.893864 183.542974 
L 423.571538 167.753404 
L 424.542823 160.738336 
L 425.337511 156.514602 
L 426.0439 153.898815 
L 426.661991 152.445662 
L 427.103484 151.856539 
L 427.544977 151.617399 
L 427.898172 151.662146 
L 428.339665 151.991739 
L 428.869457 152.753553 
L 429.487547 154.089438 
L 430.282235 156.408815 
L 431.25352 159.985735 
L 432.578 165.801085 
L 436.198244 182.30117 
L 437.081231 185.144181 
L 437.699321 186.513567 
L 438.140815 187.097431 
L 438.494009 187.290677 
L 438.847204 187.212921 
L 439.200398 186.838381 
L 439.641892 185.913484 
L 440.083385 184.434952 
L 440.613177 181.865638 
L 441.231267 177.695477 
L 441.937657 171.350699 
L 442.908942 160.235815 
L 444.586616 140.284718 
L 445.028109 137.09105 
L 445.381304 135.917508 
L 445.557901 135.900746 
L 445.734498 136.31324 
L 445.999394 137.80552 
L 446.352589 141.54324 
L 446.794082 149.089432 
L 447.412173 164.321753 
L 448.91325 203.929284 
L 449.266444 208.512277 
L 449.53134 209.916362 
L 449.619639 209.982266 
L 449.796236 209.516513 
L 450.061132 207.386153 
L 450.414327 202.177656 
L 451.032417 188.485179 
L 452.533494 153.260158 
L 453.063286 145.582913 
L 453.504779 141.705913 
L 453.857974 140.138221 
L 454.12287 139.759053 
L 454.299467 139.844223 
L 454.564363 140.420817 
L 454.917558 141.90546 
L 455.44735 145.30621 
L 456.330336 152.816941 
L 458.449504 171.466199 
L 459.420789 177.906198 
L 460.215477 181.792801 
L 460.921866 184.176129 
L 461.451658 185.316904 
L 461.893151 185.86192 
L 462.334644 186.056465 
L 462.687839 185.972773 
L 463.129332 185.585994 
L 463.659124 184.734605 
L 464.277214 183.249957 
L 465.071902 180.644164 
L 466.043187 176.555329 
L 467.279368 170.295474 
L 470.634717 152.662763 
L 471.429405 149.862535 
L 471.959197 148.673178 
L 472.312391 148.257707 
L 472.577287 148.173457 
L 472.842183 148.304015 
L 473.195378 148.84375 
L 473.548572 149.840771 
L 473.990066 151.792361 
L 474.519857 155.257888 
L 475.137948 160.934875 
L 475.932636 170.710667 
L 478.228401 201.842565 
L 478.581595 203.641631 
L 478.758192 203.857709 
L 478.93479 203.556941 
L 479.199686 202.055498 
L 479.55288 197.969183 
L 479.994374 189.511354 
L 480.612464 172.548052 
L 481.936944 134.809567 
L 482.378437 128.554579 
L 482.643333 127.234891 
L 482.731632 127.21072 
L 482.908229 127.770492 
L 483.173125 130.044454 
L 483.526319 135.392715 
L 484.14441 149.055382 
L 485.557188 181.800523 
L 486.175279 190.876108 
L 486.616772 194.772429 
L 486.969967 196.440458 
L 487.234863 196.932596 
L 487.41146 196.935859 
L 487.588057 196.703323 
L 487.852953 195.958142 
L 488.294446 193.830535 
L 488.912537 189.49708 
L 490.060419 179.417905 
L 491.649795 165.773985 
L 492.62108 159.202369 
L 493.415768 155.177286 
L 494.122157 152.68551 
L 494.651949 151.487256 
L 495.093442 150.917418 
L 495.446637 150.73412 
L 495.799831 150.785989 
L 496.153026 151.066024 
L 496.594519 151.725753 
L 497.124311 152.9514 
L 497.742402 154.941951 
L 498.537089 158.30033 
L 499.508375 163.419637 
L 500.921153 172.179194 
L 503.040321 185.248551 
L 503.835008 188.829175 
L 504.3648 190.388762 
L 504.717995 190.948551 
L 504.982891 191.073077 
L 505.247787 190.914942 
L 505.512683 190.447434 
L 505.865877 189.297822 
L 506.30737 186.93542 
L 506.837162 182.629812 
L 507.455253 175.509783 
L 508.249941 163.386364 
L 510.015914 135.1822 
L 510.369108 132.425396 
L 510.634004 131.704074 
L 510.722303 131.757341 
L 510.8989 132.338998 
L 511.163796 134.461294 
L 511.516991 139.69765 
L 511.958484 149.899595 
L 512.753172 175.019466 
L 513.636158 201.010292 
L 514.077651 208.351222 
L 514.342547 210.241289 
L 514.519145 210.422624 
L 514.695742 209.769402 
L 514.960638 207.340278 
L 515.402131 200.082286 
L 516.10852 183.531513 
L 517.256403 157.066678 
L 517.874493 147.532861 
L 518.404285 142.675049 
L 518.75748 141.03437 
L 519.022376 140.555122 
L 519.198973 140.558347 
L 519.37557 140.796602 
L 519.640466 141.550479 
L 520.081959 143.697894 
L 520.70005 148.081782 
L 521.847932 158.353575 
L 523.525607 173.118161 
L 524.496892 179.765591 
L 525.29158 183.75057 
L 525.90967 185.876781 
L 526.439462 187.012217 
L 526.880955 187.477654 
L 527.23415 187.539941 
L 527.587344 187.331516 
L 527.940539 186.85801 
L 528.382032 185.903904 
L 529.000123 183.922739 
L 529.706512 180.807647 
L 530.589498 175.811099 
L 531.82568 167.302341 
L 534.298042 149.804204 
L 535.004431 146.441429 
L 535.445924 145.161043 
L 535.799119 144.71837 
L 535.975716 144.719566 
L 536.240612 145.029027 
L 536.505508 145.738429 
L 536.858702 147.362433 
L 537.300196 150.57323 
L 537.829988 156.259127 
L 538.448078 165.369248 
L 539.419363 183.580053 
L 540.390648 200.934297 
L 540.832142 205.742269 
L 541.097038 207.005966 
L 541.185336 207.10672 
L 541.273635 207.035457 
L 541.450232 206.354047 
L 541.715128 203.925111 
L 542.068323 198.019921 
L 542.598115 184.0198 
L 544.364087 130.740541 
L 544.717282 126.997432 
L 544.893879 126.48899 
L 544.982178 126.570018 
L 545.158775 127.376126 
L 545.423671 130.074367 
L 545.865164 137.814951 
L 546.659852 157.289309 
L 547.631137 180.085312 
L 548.249228 190.057339 
L 548.77902 195.15211 
L 549.132214 196.867333 
L 549.39711 197.358923 
L 549.573708 197.344213 
L 549.750305 197.07966 
L 550.015201 196.26074 
L 550.456694 193.945998 
L 551.074785 189.235204 
L 552.222667 178.22239 
L 553.812043 163.260489 
L 554.783328 156.196771 
L 555.489717 152.460184 
L 556.107808 150.244017 
L 556.637599 149.145883 
L 556.990794 148.825419 
L 557.25569 148.799629 
L 557.520586 148.955864 
L 557.873781 149.44318 
L 558.315274 150.489997 
L 558.845066 152.361792 
L 559.551455 155.825825 
L 560.434441 161.50388 
L 561.582324 170.51797 
L 563.78979 188.287808 
L 564.496179 192.155368 
L 564.937672 193.587147 
L 565.202568 193.983033 
L 565.379166 194.027233 
L 565.555763 193.880746 
L 565.820659 193.276305 
L 566.173853 191.691375 
L 566.615347 188.348672 
L 567.145138 182.223104 
L 567.763229 172.243822 
L 568.822813 150.448079 
L 569.617501 135.48514 
L 570.058994 130.478144 
L 570.32389 129.309183 
L 570.412188 129.279571 
L 570.588786 129.802657 
L 570.853682 132.112869 
L 571.206876 138.094207 
L 571.64837 149.843072 
L 572.619655 184.383004 
L 573.237745 202.833653 
L 573.679238 210.135888 
L 573.944134 211.638653 
L 574.032433 211.654943 
L 574.20903 210.987397 
L 574.473926 208.357965 
L 574.827121 202.286563 
L 575.445211 187.135009 
L 576.769691 154.128333 
L 577.387782 144.534746 
L 577.829275 140.616416 
L 578.182469 139.132763 
L 578.359067 138.891214 
L 578.535664 138.953889 
L 578.80056 139.56651 
L 579.153755 141.223673 
L 579.683546 145.120198 
L 580.478234 152.968786 
L 582.862298 177.746496 
L 583.656986 183.614182 
L 584.363375 187.26159 
L 584.893167 188.965383 
L 585.33466 189.698325 
L 585.599556 189.839088 
L 585.864452 189.757721 
L 586.217646 189.308712 
L 586.65914 188.213841 
L 587.188931 186.151715 
L 587.807022 182.791242 
L 588.60171 177.160037 
L 589.749592 167.137258 
L 591.86876 148.220142 
L 592.48685 144.479292 
L 592.928344 142.859965 
L 593.193239 142.417053 
L 593.369837 142.372373 
L 593.546434 142.544819 
L 593.81133 143.24046 
L 594.164525 145.048894 
L 594.606018 148.836282 
L 595.13581 155.714988 
L 595.842199 168.567585 
L 597.69647 205.720449 
L 598.049665 208.4887 
L 598.226262 208.777944 
L 598.40286 208.248616 
L 598.667756 205.826464 
L 599.02095 199.502751 
L 599.462443 187.063673 
L 601.316715 127.408057 
L 601.581611 124.950685 
L 601.758208 124.64623 
L 601.934806 125.37901 
L 602.199701 128.27982 
L 602.552896 134.987439 
L 603.170987 151.666783 
L 604.407168 185.125941 
L 604.93696 194.195495 
L 605.378453 198.591613 
L 605.731647 200.144774 
L 605.908245 200.325582 
L 606.084842 200.145102 
L 606.349738 199.261557 
L 606.702933 197.100256 
L 607.232724 192.244626 
L 608.115711 181.683527 
L 609.881684 160.353476 
L 610.676372 153.272509 
L 611.294462 149.369709 
L 611.824254 147.226762 
L 612.265747 146.302265 
L 612.530643 146.120772 
L 612.795539 146.214801 
L 613.060435 146.579068 
L 613.41363 147.473401 
L 613.855123 149.219685 
L 614.473213 152.747989 
L 615.267901 158.881545 
L 616.327485 169.051489 
L 618.358354 189.049198 
L 618.976444 193.247763 
L 619.417938 195.100442 
L 619.682834 195.637961 
L 619.859431 195.725137 
L 620.036028 195.57807 
L 620.300924 194.887671 
L 620.654119 193.024615 
L 621.095612 189.073644 
L 621.625404 181.877884 
L 622.331793 168.480057 
L 624.097766 131.888785 
L 624.450961 128.793231 
L 624.627558 128.35929 
L 624.715857 128.453667 
L 624.892454 129.301161 
L 625.15735 132.287924 
L 625.510544 139.493441 
L 626.040336 156.330894 
L 627.541413 208.933356 
L 627.894608 213.596392 
L 628.071205 214.157201 
L 628.159504 213.994054 
L 628.336101 212.808815 
L 628.600997 209.037428 
L 629.04249 198.450309 
L 631.073359 141.177875 
L 631.514852 136.151577 
L 631.779748 134.793869 
L 631.956346 134.526361 
L 632.132943 134.728634 
L 632.397839 135.827256 
L 632.751033 138.5573 
L 633.280825 144.677181 
L 634.340409 160.438658 
L 635.57659 177.964631 
L 636.371278 186.214929 
L 636.989369 190.455232 
L 637.430862 192.251189 
L 637.784056 192.949976 
L 638.048952 193.05265 
L 638.313848 192.804415 
L 638.667043 191.948337 
L 639.108536 190.082982 
L 639.638328 186.784793 
L 640.344717 180.864306 
L 641.404301 169.713974 
L 643.346871 148.738094 
L 644.05326 143.587287 
L 644.494754 141.741521 
L 644.75965 141.265418 
L 644.936247 141.242107 
L 645.112844 141.47032 
L 645.37774 142.311991 
L 645.730935 144.422773 
L 646.172428 148.731845 
L 646.70222 156.369599 
L 647.408609 170.229728 
L 649.086283 205.064541 
L 649.439478 208.304379 
L 649.616075 208.825069 
L 649.704374 208.776192 
L 649.880971 208.020587 
L 650.145867 205.160714 
L 650.499062 198.058715 
L 651.028853 181.0897 
L 652.52993 126.647589 
L 652.883125 122.101491 
L 653.059722 121.811119 
L 653.23632 122.849775 
L 653.501216 126.760791 
L 653.942709 138.496698 
L 655.002293 177.427752 
L 655.620383 195.443981 
L 656.061876 203.110304 
L 656.415071 205.89966 
L 656.591668 206.24405 
L 656.679967 206.17243 
L 656.856564 205.574626 
L 657.12146 203.651616 
L 657.562953 198.233505 
L 658.269343 185.983943 
L 659.858718 157.336341 
L 660.565107 148.600053 
L 661.094899 144.406224 
L 661.536393 142.502288 
L 661.801288 142.03851 
L 661.977886 142.00236 
L 662.154483 142.177479 
L 662.419379 142.820622 
L 662.772574 144.345725 
L 663.302365 147.914573 
L 664.008755 154.627584 
L 665.068338 167.35147 
L 666.746013 187.546025 
L 667.452402 193.456062 
L 667.893895 195.699085 
L 668.24709 196.500914 
L 668.423687 196.533746 
L 668.600284 196.305094 
L 668.86518 195.449166 
L 669.218375 193.307763 
L 669.659868 188.973565 
L 670.18966 181.379052 
L 670.896049 167.766547 
L 672.573723 133.53867 
L 672.926918 130.080907 
L 673.191814 129.309588 
L 673.280113 129.450638 
L 673.45671 130.376562 
L 673.721606 133.455076 
L 674.0748 140.786973 
L 674.604592 158.036694 
L 676.105669 212.894671 
L 676.370565 216.382157 
L 676.547163 216.887655 
L 676.72376 215.893479 
L 676.988656 211.674954 
L 677.34185 201.581079 
L 678.04824 172.332969 
L 678.842927 141.40292 
L 679.284421 131.090564 
L 679.637615 127.366439 
L 679.814213 126.978487 
L 679.99081 127.499992 
L 680.255706 129.812734 
L 680.6089 135.255187 
L 681.226991 148.967271 
L 682.728068 183.828713 
L 683.346158 192.972572 
L 683.787652 196.871119 
L 684.140846 198.415935 
L 684.405742 198.699706 
L 684.582339 198.495505 
L 684.847235 197.636682 
L 685.20043 195.549464 
L 685.730222 190.704098 
L 686.436611 181.887146 
L 689.08557 146.069204 
L 689.615362 142.141684 
L 689.968557 140.670698 
L 690.233453 140.240891 
L 690.41005 140.294363 
L 690.586647 140.629599 
L 690.851543 141.674506 
L 691.204738 144.098439 
L 691.646231 148.779422 
L 692.264322 158.209284 
L 693.147308 175.984636 
L 694.383489 200.49086 
L 694.824983 205.511865 
L 695.089879 206.753627 
L 695.178177 206.818723 
L 695.266476 206.696252 
L 695.443073 205.861617 
L 695.707969 203.057059 
L 696.061164 196.31803 
L 696.502657 183.31757 
L 697.385643 148.201114 
L 698.003734 127.077733 
L 698.356928 120.840204 
L 698.533526 119.931819 
L 698.621824 120.078553 
L 698.798422 121.598705 
L 699.063318 126.88852 
L 699.416512 138.934966 
L 700.2112 177.253345 
L 700.829291 203.237021 
L 701.270784 213.261969 
L 701.53568 215.130786 
L 701.623978 215.073452 
L 701.800576 213.998162 
L 702.065472 210.209555 
L 702.506965 199.36787 
L 704.537834 140.878061 
L 704.979327 135.640567 
L 705.244223 134.230755 
L 705.42082 133.975011 
L 705.597418 134.234082 
L 705.862313 135.514467 
L 706.215508 138.687202 
L 706.7453 145.917494 
L 707.628286 161.759134 
L 708.952766 185.282692 
L 709.570857 193.087107 
L 710.100649 197.208653 
L 710.453843 198.450818 
L 710.63044 198.59492 
L 710.807038 198.414827 
L 711.071934 197.533498 
L 711.425128 195.226893 
L 711.866622 190.595579 
L 712.484712 181.209562 
L 713.367699 163.731181 
L 714.60388 139.680788 
L 715.045373 134.301218 
L 715.398567 132.273961 
L 715.575165 132.178164 
L 715.751762 132.760198 
L 716.016658 134.986852 
L 716.369853 140.59303 
L 716.811346 151.752448 
L 717.517735 176.895364 
L 718.400721 208.167815 
L 718.753916 215.177212 
L 719.018812 216.803881 
L 719.107111 216.556216 
L 719.283708 214.815077 
L 719.548604 209.077643 
L 719.901798 196.056729 
L 720.608188 158.89379 
L 721.226278 129.462436 
L 721.579473 120.07148 
L 721.844369 117.788781 
L 721.932667 117.962089 
L 722.109265 119.660654 
L 722.374161 125.306566 
L 722.815654 141.084361 
L 724.316731 201.082811 
L 724.669925 207.559045 
L 724.934821 209.734456 
L 725.111419 209.963745 
L 725.288016 209.284978 
L 725.552912 206.734083 
L 725.994405 199.156947 
L 726.700794 181.792664 
L 727.936975 150.98733 
L 728.555066 140.843553 
L 728.996559 136.822348 
L 729.261455 135.784834 
L 729.438052 135.667175 
L 729.61465 136.00126 
L 729.879546 137.323921 
L 730.23274 140.531901 
L 730.762532 148.055699 
L 731.468921 161.812448 
L 733.146596 196.277191 
L 733.676387 202.452446 
L 733.941283 203.891943 
L 734.117881 204.143782 
L 734.294478 203.789399 
L 734.559374 202.06541 
L 734.912568 197.471714 
L 735.354062 188.116215 
L 735.972152 169.425964 
L 737.208333 129.583358 
L 737.561528 123.81128 
L 737.738125 122.770949 
L 737.826424 122.776208 
L 738.003021 123.904109 
L 738.267917 128.498713 
L 738.621112 139.957413 
L 739.150904 166.176596 
L 740.122189 214.827244 
L 740.475383 221.996829 
L 740.563682 222.402912 
L 740.651981 222.226887 
L 740.828578 220.134025 
L 741.093474 212.864789 
L 741.534967 191.985986 
L 742.771148 127.555916 
L 743.124343 120.328388 
L 743.30094 119.388102 
L 743.389239 119.565816 
L 743.565836 121.142194 
L 743.830732 126.242015 
L 744.272225 140.25544 
L 745.949899 199.941652 
L 746.391393 206.512579 
L 746.656289 207.87526 
L 746.744587 207.911481 
L 746.921185 207.383907 
L 747.18608 205.184509 
L 747.539275 199.941108 
L 748.069067 188.302109 
L 750.099936 138.461873 
L 750.541429 133.605097 
L 750.806325 132.50609 
L 750.894624 132.461308 
L 751.071221 132.864717 
L 751.336117 134.710091 
L 751.689311 139.444603 
L 752.130805 148.724862 
L 752.837194 169.345439 
L 753.985076 203.608015 
L 754.42657 210.622695 
L 754.603167 211.663369 
L 754.691465 211.74799 
L 754.779764 211.526858 
L 754.956361 210.131945 
L 755.221257 205.580998 
L 755.574452 194.979783 
L 756.104244 171.075349 
L 757.163828 121.448145 
L 757.428724 116.127009 
L 757.605321 115.385937 
L 757.781918 117.09926 
L 758.046814 124.325944 
L 758.400009 141.763663 
L 759.812787 223.003643 
L 759.989384 225.111034 
L 760.077683 225.10214 
L 760.25428 222.999608 
L 760.519176 215.046068 
L 760.960669 192.222017 
L 762.020253 132.14063 
L 762.373448 122.150237 
L 762.638344 119.518898 
L 762.726642 119.553965 
L 762.90324 120.913306 
L 763.168136 125.867683 
L 763.609629 140.13261 
L 765.287303 203.143768 
L 765.640498 208.688507 
L 765.905394 210.110794 
L 765.993692 210.062102 
L 766.17029 209.199128 
L 766.435186 206.078655 
L 766.78838 198.87035 
L 767.318172 183.09062 
L 768.819249 134.433462 
L 769.172444 128.622595 
L 769.43734 126.895567 
L 769.525638 126.870204 
L 769.702236 127.680138 
L 769.967131 131.081269 
L 770.320326 139.603585 
L 770.850118 159.627432 
L 772.174598 214.419271 
L 772.439494 218.385196 
L 772.527792 218.733158 
L 772.616091 218.553452 
L 772.792688 216.547331 
L 773.057584 209.340221 
L 773.410779 192.410606 
L 774.823557 111.027023 
L 775.000154 109.833385 
L 775.176752 112.215536 
L 775.441648 122.372161 
L 775.883141 153.259061 
L 776.766127 219.610895 
L 777.031023 227.851204 
L 777.207621 228.767786 
L 777.384218 226.033889 
L 777.649114 215.771419 
L 778.090607 187.110206 
L 778.973593 128.045843 
L 779.326788 117.004548 
L 779.503385 115.308412 
L 779.591684 115.413089 
L 779.768281 117.439657 
L 780.033177 124.576868 
L 780.474671 144.624066 
L 781.710852 206.668686 
L 782.064046 214.579113 
L 782.240643 215.955142 
L 782.328942 215.980636 
L 782.505539 214.721579 
L 782.770435 209.70515 
L 783.12363 197.920176 
L 783.830019 163.759534 
L 784.536408 131.585582 
L 784.889603 122.487077 
L 785.154499 120.3511 
L 785.242797 120.634688 
L 785.419395 122.748459 
L 785.684291 129.752716 
L 786.037485 145.578168 
L 787.538562 223.870188 
L 787.626861 224.463192 
L 787.71516 224.219941 
L 787.891757 221.13324 
L 788.156653 210.019735 
L 788.598146 177.142545 
L 789.392834 112.833651 
L 789.65773 104.772896 
L 789.746028 104.594959 
L 789.922626 108.254392 
L 790.187522 123.400627 
L 790.629015 167.134139 
L 791.247105 226.193744 
L 791.512001 235.834835 
L 791.6003 236.078392 
L 791.776897 232.044467 
L 792.041793 215.742554 
L 792.571585 161.465266 
L 793.101377 114.58239 
L 793.366273 105.092558 
L 793.454572 104.520638 
L 793.54287 105.248722 
L 793.719468 110.429099 
L 793.984364 126.258097 
L 795.308843 226.339957 
L 795.485441 228.054048 
L 795.573739 227.311444 
L 795.750336 222.729876 
L 796.015232 208.921105 
L 796.545024 165.61707 
L 797.163115 119.331724 
L 797.428011 110.700131 
L 797.516309 109.943055 
L 797.604608 110.311121 
L 797.781205 114.443225 
L 798.046101 128.660841 
L 798.487595 167.875093 
L 799.105685 222.702606 
L 799.370581 232.299114 
L 799.45888 232.548233 
L 799.635477 228.21167 
L 799.900373 209.854878 
L 800.430165 145.35368 
L 800.871658 101.09749 
L 801.048255 95.997176 
L 801.136554 97.092215 
L 801.313151 106.866122 
L 801.578047 138.689545 
L 802.372735 248.559628 
L 802.461034 250.07392 
L 802.549332 247.991091 
L 802.72593 233.104778 
L 803.079124 170.145549 
L 803.520617 90.74581 
L 803.697215 80.400914 
L 803.785513 82.090641 
L 803.962111 99.410972 
L 804.315305 175.045534 
L 804.756799 259.097186 
L 804.845097 263.030388 
L 804.933396 260.998065 
L 805.109993 239.066673 
L 805.463188 145.692798 
L 805.816382 69.883741 
L 805.904681 66.554339 
L 805.99298 71.622448 
L 806.169577 106.664278 
L 806.787667 283.142018 
L 806.875966 273.006917 
L 807.052563 206.833157 
L 807.405758 40.203221 
L 807.494057 46.723371 
L 807.670654 152.409491 
L 807.93555 300.24358 
L 808.112147 177.070741 
L 808.288744 60.017423 
L 808.377043 88.473405 
L 808.641939 242.760371 
L 808.906835 123.814943 
L 808.995134 127.388926 
L 809.26003 198.472287 
L 809.524925 150.95174 
L 809.613224 153.547025 
L 809.87812 179.82232 
L 810.143016 161.731422 
L 810.231315 163.529915 
L 810.496211 172.729629 
L 810.761107 166.026038 
L 811.026002 170.219432 
L 811.114301 170.122245 
" clip-path="url(#p4bfff70cd5)" style="fill: none; stroke: #1f77b4; stroke-width: 0.6; stroke-linecap: square"/>
   </g>
   <g id="line2d_28">
    <path d="M 88.301574 154.372432 
L 89.272859 152.581447 
L 89.979248 151.721026 
L 90.420741 151.464628 
L 90.773936 151.458099 
L 91.127131 151.660061 
L 91.480325 152.101867 
L 91.921818 153.04151 
L 92.45161 154.825137 
L 92.981402 157.433901 
L 93.599493 161.663014 
L 94.305882 168.196154 
L 95.188868 178.771197 
L 96.954841 200.756514 
L 97.396335 203.490383 
L 97.66123 204.030704 
L 97.837828 203.863802 
L 98.014425 203.248332 
L 98.279321 201.457655 
L 98.632516 197.461425 
L 99.162307 188.388413 
L 100.133593 166.355362 
L 101.016579 148.168 
L 101.546371 140.998931 
L 101.987864 137.674868 
L 102.25276 136.801063 
L 102.429357 136.647062 
L 102.605955 136.806362 
L 102.870851 137.569678 
L 103.224045 139.405242 
L 103.842136 144.18608 
L 106.932588 170.887105 
L 107.727276 175.241225 
L 108.521964 178.389422 
L 109.228353 180.289103 
L 109.846444 181.361948 
L 110.464534 181.981193 
L 110.994326 182.217914 
L 111.524118 182.234621 
L 112.142209 182.0279 
L 112.848598 181.547689 
L 113.731584 180.642449 
L 114.702869 179.311075 
L 115.93905 177.201336 
L 117.705023 173.683108 
L 123.002942 162.895269 
L 124.680617 160.030656 
L 125.916798 158.306711 
L 126.888083 157.292069 
L 127.682771 156.760317 
L 128.38916 156.563626 
L 129.00725 156.635096 
L 129.625341 156.956406 
L 130.243431 157.547387 
L 130.949821 158.58125 
L 131.65621 160.038766 
L 132.450898 162.256841 
L 133.245585 165.179889 
L 134.128572 169.350792 
L 135.099857 175.063734 
L 136.777531 186.640373 
L 137.748816 192.608972 
L 138.278608 194.766363 
L 138.631803 195.476071 
L 138.8084 195.552648 
L 138.984997 195.41599 
L 139.249893 194.766183 
L 139.603088 192.968699 
L 140.044581 189.052638 
L 140.574373 181.77156 
L 141.280762 168.197544 
L 142.781839 137.380867 
L 143.223333 132.38102 
L 143.488228 130.960275 
L 143.664826 130.715864 
L 143.841423 131.034468 
L 144.106319 132.531901 
L 144.459514 136.255074 
L 144.989305 144.701439 
L 147.108473 182.530331 
L 147.726564 188.515467 
L 148.168057 191.051498 
L 148.521251 192.168149 
L 148.786147 192.545012 
L 149.051043 192.579578 
L 149.315939 192.317611 
L 149.669134 191.580964 
L 150.198926 189.829524 
L 150.993613 186.246986 
L 154.967053 166.852576 
L 156.026636 163.280571 
L 156.997922 160.74607 
L 157.880908 159.0459 
L 158.675596 157.995111 
L 159.381985 157.422252 
L 160.000076 157.176899 
L 160.618166 157.145697 
L 161.324555 157.341674 
L 162.119243 157.823001 
L 163.00223 158.653342 
L 163.973515 159.912849 
L 165.033098 161.690685 
L 166.269279 164.244328 
L 167.858655 168.088946 
L 170.77251 175.866588 
L 172.538483 180.287247 
L 173.598067 182.421044 
L 174.392755 183.570863 
L 175.010846 184.086244 
L 175.452339 184.192621 
L 175.805533 184.088542 
L 176.247027 183.682563 
L 176.68852 182.923397 
L 177.218312 181.474731 
L 177.748104 179.361415 
L 178.366194 175.965532 
L 179.072583 170.786784 
L 179.95557 162.45361 
L 182.339633 138.242613 
L 182.692828 136.743645 
L 182.869425 136.466708 
L 183.046022 136.55044 
L 183.22262 137.02505 
L 183.487516 138.523401 
L 183.84071 142.066856 
L 184.282204 148.964802 
L 184.900294 162.451817 
L 186.401371 197.34172 
L 186.842864 203.092585 
L 187.196059 205.27708 
L 187.372656 205.553166 
L 187.549253 205.308114 
L 187.814149 204.03392 
L 188.167344 200.870769 
L 188.697136 193.838424 
L 190.992901 160.202194 
L 191.69929 154.16169 
L 192.229082 151.220553 
L 192.758874 149.468817 
L 193.112068 148.872134 
L 193.465263 148.669352 
L 193.730159 148.744399 
L 194.083353 149.107438 
L 194.524847 149.918191 
L 195.142937 151.569754 
L 196.114222 154.947465 
L 200.440856 171.047839 
L 201.677037 174.463042 
L 202.736621 176.777681 
L 203.707906 178.401182 
L 204.590892 179.467395 
L 205.38558 180.085409 
L 206.091969 180.350205 
L 206.71006 180.353373 
L 207.328151 180.139704 
L 208.03454 179.632954 
L 208.829228 178.741078 
L 209.712214 177.372441 
L 210.683499 175.425744 
L 211.743083 172.774143 
L 212.890965 169.280537 
L 214.303744 164.211301 
L 217.659092 151.729563 
L 218.365481 150.031004 
L 218.806975 149.395881 
L 219.160169 149.194722 
L 219.425065 149.254734 
L 219.689961 149.519233 
L 220.043156 150.227597 
L 220.484649 151.756629 
L 221.014441 154.65911 
L 221.544233 158.851064 
L 222.162323 165.453621 
L 222.957011 176.407749 
L 224.634685 200.691106 
L 225.076179 204.005936 
L 225.341075 204.7019 
L 225.429373 204.686992 
L 225.605971 204.263679 
L 225.870866 202.609694 
L 226.224061 198.487117 
L 226.665554 190.497281 
L 227.460242 170.862429 
L 228.519826 145.613838 
L 229.049618 137.868473 
L 229.402812 135.143142 
L 229.667708 134.357143 
L 229.844306 134.389828 
L 230.020903 134.829825 
L 230.285799 136.168928 
L 230.727292 139.858935 
L 231.433681 148.097775 
L 233.199654 169.524338 
L 233.994342 176.516015 
L 234.700731 180.956549 
L 235.318822 183.559083 
L 235.848614 184.943664 
L 236.290107 185.57833 
L 236.643301 185.790757 
L 236.996496 185.774667 
L 237.437989 185.478685 
L 237.967781 184.789175 
L 238.67417 183.431573 
L 239.645455 180.991043 
L 241.058234 176.738478 
L 245.119972 164.11828 
L 246.444451 160.845007 
L 247.504035 158.748181 
L 248.387022 157.42317 
L 249.181709 156.593747 
L 249.888099 156.164235 
L 250.506189 156.040222 
L 251.12428 156.167979 
L 251.74237 156.568959 
L 252.360461 157.268475 
L 253.06685 158.46593 
L 253.773239 160.116467 
L 254.567927 162.532777 
L 255.539212 166.279367 
L 256.598796 171.286057 
L 258.099873 179.611131 
L 259.777547 188.736637 
L 260.395638 191.116232 
L 260.837131 192.140003 
L 261.102027 192.397834 
L 261.366923 192.336887 
L 261.631819 191.913468 
L 261.985013 190.709449 
L 262.426506 188.039294 
L 262.868 183.929611 
L 263.397792 176.998556 
L 264.104181 164.684644 
L 265.693556 135.213728 
L 266.13505 131.098595 
L 266.399946 130.286689 
L 266.488244 130.320256 
L 266.664842 130.857203 
L 266.929737 132.837047 
L 267.282932 137.559586 
L 267.812724 148.295382 
L 269.755294 192.165801 
L 270.196787 197.102931 
L 270.549982 199.209398 
L 270.814878 199.802394 
L 270.991475 199.775871 
L 271.168073 199.446493 
L 271.432968 198.4532 
L 271.874462 195.728171 
L 272.580851 189.586331 
L 275.053213 166.688135 
L 275.936199 161.051027 
L 276.642589 157.773776 
L 277.348978 155.501632 
L 277.967068 154.238215 
L 278.49686 153.623254 
L 278.938354 153.402017 
L 279.379847 153.418309 
L 279.82134 153.649884 
L 280.351132 154.183899 
L 281.057521 155.277592 
L 281.940508 157.151161 
L 283.08839 160.196931 
L 284.854363 165.608129 
L 288.29801 176.218832 
L 289.62249 179.524882 
L 290.593775 181.405884 
L 291.388463 182.489036 
L 292.006553 182.981738 
L 292.536345 183.119726 
L 292.977838 183.010815 
L 293.419332 182.680401 
L 293.949124 181.96952 
L 294.567214 180.674995 
L 295.185305 178.843482 
L 295.891694 176.046343 
L 296.686382 171.94958 
L 297.569368 166.210435 
L 298.805549 156.492098 
L 300.306626 144.841879 
L 300.836418 142.066443 
L 301.189613 141.01571 
L 301.454509 140.773702 
L 301.631106 140.915492 
L 301.896002 141.639117 
L 302.249196 143.665483 
L 302.69069 148.082224 
L 303.220482 156.252936 
L 303.926871 171.305489 
L 305.25135 200.870051 
L 305.692844 206.463143 
L 305.95774 207.993596 
L 306.134337 208.184978 
L 306.310934 207.705436 
L 306.57583 205.76294 
L 306.929025 201.095061 
L 307.458817 190.687168 
L 309.313088 150.963692 
L 309.84288 144.738801 
L 310.284373 141.827286 
L 310.637568 140.830576 
L 310.814165 140.721935 
L 310.990763 140.844115 
L 311.255658 141.411952 
L 311.608853 142.774184 
L 312.138645 145.791324 
L 313.021631 152.310191 
L 315.140799 168.372153 
L 316.112084 174.044284 
L 316.995071 177.979918 
L 317.789758 180.552818 
L 318.496148 182.112002 
L 319.114238 182.948523 
L 319.64403 183.298868 
L 320.085523 183.350149 
L 320.527016 183.198989 
L 321.056808 182.77361 
L 321.674899 181.977355 
L 322.469587 180.544081 
L 323.440872 178.266894 
L 324.588754 174.965269 
L 326.089831 169.918816 
L 329.886673 156.773414 
L 330.857958 154.272018 
L 331.564347 152.962959 
L 332.094139 152.345402 
L 332.535632 152.113913 
L 332.888827 152.139019 
L 333.242022 152.371802 
L 333.683515 152.986212 
L 334.125008 153.999864 
L 334.6548 155.805148 
L 335.272891 158.813745 
L 335.97928 163.543325 
L 336.773968 170.517668 
L 337.92185 182.948121 
L 339.158031 195.929441 
L 339.687823 199.449721 
L 340.041017 200.463389 
L 340.217615 200.464073 
L 340.394212 200.083117 
L 340.659108 198.733658 
L 341.012303 195.372353 
L 341.453796 188.584474 
L 342.071886 174.796917 
L 343.749561 134.310945 
L 344.102755 130.384669 
L 344.367651 129.202295 
L 344.45595 129.150238 
L 344.632547 129.548945 
L 344.897443 131.342221 
L 345.250638 135.696816 
L 345.78043 145.305162 
L 347.634701 181.863846 
L 348.252792 188.992616 
L 348.694285 192.094084 
L 349.04748 193.496492 
L 349.312375 193.990533 
L 349.577271 194.062146 
L 349.842167 193.761905 
L 350.195362 192.868141 
L 350.725154 190.691304 
L 351.519842 186.180913 
L 355.140086 163.934648 
L 356.111371 159.856494 
L 356.906059 157.346023 
L 357.612448 155.740285 
L 358.230539 154.802686 
L 358.760331 154.329559 
L 359.290123 154.145894 
L 359.731616 154.203934 
L 360.261408 154.516718 
L 360.879498 155.204764 
L 361.585887 156.400293 
L 362.380575 158.237629 
L 363.35186 161.120594 
L 364.499743 165.272696 
L 366.089118 171.932553 
L 368.826377 183.484387 
L 369.709363 186.216703 
L 370.327454 187.478664 
L 370.768947 187.93777 
L 371.122141 187.981867 
L 371.387037 187.798835 
L 371.740232 187.231358 
L 372.181725 185.939803 
L 372.623218 183.924276 
L 373.15301 180.452485 
L 373.771101 174.864754 
L 374.565789 165.347384 
L 376.861553 135.426972 
L 377.214748 133.797603 
L 377.391345 133.65094 
L 377.567943 134.005271 
L 377.832839 135.545682 
L 378.186033 139.574451 
L 378.627526 147.715851 
L 379.333916 166.250804 
L 380.481798 197.175618 
L 380.923291 204.381664 
L 381.276486 207.210363 
L 381.453083 207.614014 
L 381.541382 207.570061 
L 381.717979 207.011772 
L 381.982875 205.086786 
L 382.424368 199.481753 
L 383.130757 186.714901 
L 384.455237 162.424113 
L 385.161626 153.41723 
L 385.691418 148.960202 
L 386.132911 146.656922 
L 386.486106 145.640634 
L 386.751002 145.306927 
L 387.015898 145.300447 
L 387.280794 145.585087 
L 387.633988 146.356565 
L 388.16378 148.193496 
L 388.870169 151.541416 
L 390.194649 159.149278 
L 392.225518 170.639915 
L 393.3734 175.905796 
L 394.344686 179.375831 
L 395.139373 181.486273 
L 395.845763 182.796148 
L 396.463853 183.497694 
L 396.993645 183.763597 
L 397.435138 183.746078 
L 397.876632 183.510378 
L 398.406423 182.941064 
L 399.024514 181.889074 
L 399.730903 180.193759 
L 400.525591 177.691988 
L 401.496876 173.844463 
L 402.644758 168.323782 
L 404.587329 157.596174 
L 405.911808 150.82854 
L 406.618198 148.159888 
L 407.147989 146.919137 
L 407.501184 146.57572 
L 407.76608 146.622757 
L 408.030976 146.965482 
L 408.384171 147.935945 
L 408.825664 150.071611 
L 409.355456 154.135768 
L 409.973546 161.076591 
L 410.679935 171.736078 
L 412.622506 203.388808 
L 412.9757 205.858633 
L 413.152297 206.284423 
L 413.240596 206.272982 
L 413.417193 205.777386 
L 413.682089 203.805997 
L 414.035284 198.864152 
L 414.476777 189.290383 
L 415.271465 166.136599 
L 416.154452 142.086728 
L 416.595945 134.537177 
L 416.949139 131.394294 
L 417.214035 130.737657 
L 417.390633 131.060231 
L 417.655529 132.5721 
L 418.008723 136.206501 
L 418.626814 145.584394 
L 420.569384 177.253688 
L 421.275773 184.495988 
L 421.805565 188.021946 
L 422.247058 189.812677 
L 422.600253 190.574077 
L 422.865149 190.795805 
L 423.130045 190.749296 
L 423.394941 190.46246 
L 423.748135 189.752956 
L 424.277927 188.109931 
L 424.984316 185.118273 
L 426.132199 179.121217 
L 429.046054 163.448827 
L 430.193936 158.656957 
L 431.076923 155.833042 
L 431.783312 154.190112 
L 432.401403 153.241396 
L 432.931195 152.811749 
L 433.372688 152.733454 
L 433.814181 152.91477 
L 434.255674 153.359154 
L 434.785466 154.243199 
L 435.403557 155.762414 
L 436.109946 158.145189 
L 436.904634 161.640498 
L 437.875919 167.005699 
L 439.200398 175.801552 
L 441.142969 188.834287 
L 441.849358 192.109881 
L 442.290851 193.267659 
L 442.555747 193.528093 
L 442.732344 193.491617 
L 442.99724 193.086575 
L 443.262136 192.220097 
L 443.615331 190.273187 
L 444.056824 186.451648 
L 444.586616 179.719633 
L 445.293005 167.32953 
L 447.147277 132.112071 
L 447.500471 129.509946 
L 447.677069 129.196165 
L 447.765367 129.307173 
L 447.941965 130.083406 
L 448.20686 132.651545 
L 448.560055 138.605108 
L 449.089847 152.008809 
L 450.767521 198.380893 
L 451.209015 204.011143 
L 451.47391 205.48807 
L 451.650508 205.718327 
L 451.827105 205.388434 
L 452.092001 203.948775 
L 452.445196 200.557264 
L 453.063286 191.889792 
L 455.094155 161.006113 
L 455.800544 154.060328 
L 456.418635 150.086977 
L 456.948427 148.122192 
L 457.301621 147.469323 
L 457.566517 147.287257 
L 457.831413 147.343668 
L 458.184608 147.751453 
L 458.626101 148.725095 
L 459.244191 150.793095 
L 460.038879 154.343498 
L 461.27506 161.020111 
L 463.92402 175.535209 
L 464.983603 180.138576 
L 465.86659 183.069443 
L 466.572979 184.70224 
L 467.102771 185.463051 
L 467.544264 185.771258 
L 467.897459 185.794004 
L 468.250653 185.609977 
L 468.692147 185.078483 
L 469.221939 183.981476 
L 469.840029 182.044697 
L 470.546418 178.944939 
L 471.341106 174.346194 
L 472.312391 167.296736 
L 474.078364 152.307418 
L 475.049649 145.1055 
L 475.579441 142.495283 
L 475.932636 141.582322 
L 476.197532 141.443709 
L 476.374129 141.648634 
L 476.639025 142.449982 
L 476.99222 144.53192 
L 477.433713 148.916417 
L 477.963505 156.903946 
L 478.669894 171.667775 
L 480.170971 204.757852 
L 480.524165 208.614423 
L 480.789061 209.618365 
L 480.87736 209.557449 
L 481.053957 208.821023 
L 481.318853 206.176669 
L 481.672048 199.932115 
L 482.20184 185.941606 
L 483.702917 142.607696 
L 484.14441 135.6425 
L 484.497605 132.872223 
L 484.674202 132.385064 
L 484.762501 132.351897 
L 484.939098 132.679742 
L 485.203994 134.065151 
L 485.557188 137.299386 
L 486.175279 145.543422 
L 488.382745 177.440601 
L 489.089134 183.857204 
L 489.707225 187.514561 
L 490.148718 189.088181 
L 490.501913 189.782874 
L 490.855107 190.024013 
L 491.120003 189.934402 
L 491.473198 189.48998 
L 491.914691 188.472473 
L 492.532781 186.327125 
L 493.327469 182.626854 
L 494.56365 175.601126 
L 497.300908 159.683721 
L 498.360492 154.938445 
L 499.15518 152.336643 
L 499.773271 151.004897 
L 500.214764 150.471582 
L 500.567958 150.316775 
L 500.921153 150.418569 
L 501.274348 150.790334 
L 501.715841 151.653661 
L 502.245633 153.301639 
L 502.863723 156.098446 
L 503.570112 160.454107 
L 504.453099 167.527428 
L 505.68928 179.650364 
L 507.102058 193.151775 
L 507.63185 196.535871 
L 507.985045 197.789491 
L 508.249941 198.05503 
L 508.426538 197.861942 
L 508.691434 196.955663 
L 509.044629 194.483803 
L 509.486122 189.194695 
L 510.015914 179.585442 
L 510.810601 159.925471 
L 511.870185 133.948719 
L 512.311678 127.965679 
L 512.576574 126.70894 
L 512.664873 126.722731 
L 512.84147 127.418584 
L 513.106366 130.123489 
L 513.459561 136.620656 
L 513.989353 151.142871 
L 515.49043 194.96328 
L 515.931923 201.757228 
L 516.285118 204.382607 
L 516.461715 204.8064 
L 516.550014 204.811349 
L 516.726611 204.434957 
L 516.991507 202.997546 
L 517.433 198.718389 
L 518.139389 188.805471 
L 519.905362 162.699398 
L 520.70005 154.582275 
L 521.318141 150.365138 
L 521.847932 148.147645 
L 522.289426 147.200818 
L 522.554322 146.99142 
L 522.819218 147.029532 
L 523.084113 147.297321 
L 523.437308 147.980943 
L 523.9671 149.621904 
L 524.673489 152.747419 
L 525.644774 158.277116 
L 527.763942 172.201047 
L 529.088421 180.11416 
L 529.971408 184.277206 
L 530.677797 186.686062 
L 531.207589 187.84079 
L 531.649082 188.318108 
L 532.002277 188.353122 
L 532.267173 188.163838 
L 532.620367 187.608956 
L 533.061861 186.405731 
L 533.591652 184.180767 
L 534.209743 180.479351 
L 534.916132 174.816294 
L 535.799119 165.847512 
L 538.183182 140.286855 
L 538.624675 138.091782 
L 538.889571 137.659879 
L 539.066169 137.807523 
L 539.242766 138.338619 
L 539.507662 139.912161 
L 539.860856 143.567279 
L 540.30235 150.736452 
L 540.92044 165.220962 
L 542.598115 208.030964 
L 542.951309 211.3165 
L 543.127906 211.594034 
L 543.304504 210.914333 
L 543.5694 208.113457 
L 543.922594 201.309098 
L 544.452386 186.136595 
L 545.865164 143.257687 
L 546.306658 135.86955 
L 546.659852 132.881184 
L 546.924748 132.25688 
L 547.101346 132.540161 
L 547.366241 133.891958 
L 547.719436 137.137168 
L 548.337527 145.532527 
L 550.544993 178.593496 
L 551.251382 185.268277 
L 551.781174 188.590639 
L 552.222667 190.307074 
L 552.575862 191.039523 
L 552.840758 191.241933 
L 553.105654 191.167602 
L 553.370549 190.835725 
L 553.723744 190.026339 
L 554.253536 188.120576 
L 554.959925 184.529957 
L 555.93121 178.233226 
L 559.551455 153.37797 
L 560.257844 150.288744 
L 560.875935 148.523951 
L 561.317428 147.889333 
L 561.582324 147.785031 
L 561.84722 147.901751 
L 562.200414 148.419142 
L 562.553609 149.370124 
L 562.995102 151.195598 
L 563.524894 154.347708 
L 564.142984 159.348824 
L 564.937672 167.708511 
L 566.262152 184.666701 
L 567.233437 196.000262 
L 567.763229 199.893836 
L 568.028125 200.828427 
L 568.204722 200.98996 
L 568.38132 200.740319 
L 568.646215 199.524073 
L 568.99941 196.1955 
L 569.440903 189.145002 
L 569.970695 176.676981 
L 571.824967 127.537637 
L 572.089863 125.274029 
L 572.26646 125.005409 
L 572.443057 125.766879 
L 572.707953 128.818065 
L 573.061148 136.148519 
L 573.679238 155.361288 
L 574.827121 192.405576 
L 575.356913 202.344611 
L 575.710107 205.473846 
L 575.886705 206.02652 
L 575.975003 206.065864 
L 576.151601 205.700787 
L 576.416496 204.147717 
L 576.769691 200.518018 
L 577.387782 191.271403 
L 579.41865 158.235369 
L 580.12504 150.926841 
L 580.654832 147.382465 
L 581.096325 145.646818 
L 581.449519 145.000244 
L 581.714415 144.916173 
L 581.979311 145.150701 
L 582.332506 145.918277 
L 582.773999 147.528261 
L 583.39209 150.79461 
L 584.275076 156.959652 
L 585.95275 170.848769 
L 587.365529 181.736902 
L 588.248515 186.889771 
L 588.866606 189.342178 
L 589.308099 190.386294 
L 589.661294 190.745464 
L 589.92619 190.716017 
L 590.191085 190.416589 
L 590.54428 189.578335 
L 590.985773 187.795328 
L 591.515565 184.544529 
L 592.133656 179.225104 
L 592.928344 170.180685 
L 594.252823 151.820155 
L 595.13581 140.823041 
L 595.665602 136.685805 
L 595.930498 135.740995 
L 596.107095 135.622108 
L 596.283692 135.957056 
L 596.548588 137.384668 
L 596.901783 141.150438 
L 597.343276 148.966224 
L 597.961366 165.146104 
L 599.462443 208.257017 
L 599.815638 212.55808 
L 599.992235 213.164873 
L 600.080534 213.05713 
L 600.257131 212.008701 
L 600.522027 208.394406 
L 600.875222 200.12872 
L 601.493312 179.17468 
L 602.552896 143.13121 
L 602.994389 134.144651 
L 603.347584 130.497036 
L 603.524181 129.831503 
L 603.61248 129.77221 
L 603.789077 130.167546 
L 604.053973 131.927422 
L 604.407168 136.081253 
L 605.025258 146.656793 
L 606.87953 180.587721 
L 607.49762 187.838743 
L 608.027412 191.835962 
L 608.468905 193.658033 
L 608.733801 194.137249 
L 608.910399 194.217717 
L 609.086996 194.117382 
L 609.351892 193.648384 
L 609.705087 192.47943 
L 610.234878 189.722048 
L 610.941268 184.586948 
L 612.000851 174.988456 
L 614.120019 155.530172 
L 614.914707 150.132709 
L 615.532797 147.232921 
L 615.97429 145.999062 
L 616.327485 145.572392 
L 616.592381 145.601839 
L 616.857277 145.944916 
L 617.210472 146.908485 
L 617.651965 148.951792 
L 618.181757 152.652285 
L 618.799847 158.643798 
L 619.594535 168.651917 
L 621.8903 199.427687 
L 622.243494 201.561597 
L 622.50839 202.129758 
L 622.596689 202.094678 
L 622.773286 201.659069 
L 623.038182 200.029939 
L 623.391377 195.90762 
L 623.83287 187.536182 
L 624.450961 170.518433 
L 625.863739 128.783155 
L 626.216934 124.251485 
L 626.393531 123.61461 
L 626.48183 123.734136 
L 626.658427 124.865796 
L 626.923323 128.764607 
L 627.276517 137.703642 
L 627.894608 160.376729 
L 628.865893 196.034611 
L 629.307386 205.730582 
L 629.660581 209.362087 
L 629.837178 209.817355 
L 629.925477 209.723832 
L 630.102074 208.935178 
L 630.36697 206.39627 
L 630.808463 199.301666 
L 631.603151 181.684608 
L 632.751033 157.223997 
L 633.369124 148.174569 
L 633.898916 143.324804 
L 634.25211 141.552599 
L 634.517006 140.941233 
L 634.693604 140.853363 
L 634.870201 141.005763 
L 635.135097 141.65384 
L 635.488292 143.223386 
L 636.018083 146.843981 
L 636.724473 153.408074 
L 638.22555 170.184152 
L 639.461731 182.819053 
L 640.256418 188.780412 
L 640.78621 191.416309 
L 641.227704 192.659848 
L 641.4926 192.95645 
L 641.669197 192.958637 
L 641.934093 192.660616 
L 642.287287 191.688242 
L 642.728781 189.533746 
L 643.258573 185.578162 
L 643.876663 179.174439 
L 644.75965 167.284972 
L 646.70222 139.829532 
L 647.143713 136.425649 
L 647.408609 135.477686 
L 647.585206 135.387974 
L 647.761804 135.776624 
L 648.026699 137.328875 
L 648.379894 141.336032 
L 648.821387 149.552881 
L 649.439478 166.404366 
L 650.852256 208.658908 
L 651.205451 213.423496 
L 651.382048 214.128494 
L 651.470347 214.023108 
L 651.646944 212.869035 
L 651.91184 208.782406 
L 652.265035 199.260598 
L 652.883125 174.786362 
L 653.85441 136.73924 
L 654.295903 127.374486 
L 654.560799 125.079869 
L 654.649098 124.868087 
L 654.737397 124.923178 
L 654.913994 125.797688 
L 655.17889 128.845255 
L 655.620383 137.59085 
L 656.50337 161.700401 
L 657.386356 183.729779 
L 658.004447 193.90175 
L 658.44594 198.027993 
L 658.799134 199.514224 
L 658.975732 199.696397 
L 659.152329 199.532225 
L 659.417225 198.687418 
L 659.77042 196.573345 
L 660.300211 191.698744 
L 661.094899 181.876399 
L 663.302365 153.312778 
L 664.008755 147.255428 
L 664.538547 144.378349 
L 664.891741 143.344022 
L 665.156637 143.055647 
L 665.333234 143.100527 
L 665.59813 143.527293 
L 665.951325 144.768576 
L 666.392818 147.38584 
L 666.92261 152.017266 
L 667.628999 160.423903 
L 668.688583 176.241596 
L 669.924764 194.219341 
L 670.454556 199.369056 
L 670.80775 201.216543 
L 670.984348 201.550499 
L 671.072646 201.554228 
L 671.249244 201.2144 
L 671.51414 199.781373 
L 671.867334 196.029158 
L 672.308827 188.279953 
L 672.926918 172.225516 
L 674.516294 126.873047 
L 674.78119 123.943393 
L 674.957787 123.436275 
L 675.046086 123.65195 
L 675.222683 125.056638 
L 675.487579 129.615196 
L 675.840773 139.985405 
L 676.458864 166.445156 
L 677.34185 203.732848 
L 677.783344 213.626654 
L 678.04824 215.529498 
L 678.136538 215.482251 
L 678.313136 214.409009 
L 678.578031 210.55108 
L 679.019525 199.360735 
L 680.962095 140.916796 
L 681.403588 135.311562 
L 681.668484 133.78601 
L 681.845081 133.485944 
L 682.021679 133.719088 
L 682.286575 134.979328 
L 682.639769 138.123522 
L 683.169561 145.213293 
L 684.229145 163.558251 
L 685.377027 182.330873 
L 686.083416 190.578924 
L 686.613208 194.480601 
L 686.966403 195.895263 
L 687.231299 196.318046 
L 687.407896 196.29563 
L 687.584493 196.031608 
L 687.849389 195.189341 
L 688.202584 193.258455 
L 688.732376 188.746497 
L 689.350466 181.364077 
L 690.321752 166.629244 
L 691.822829 143.94549 
L 692.35262 138.766671 
L 692.705815 136.870633 
L 692.970711 136.448724 
L 693.147308 136.698229 
L 693.412204 137.930375 
L 693.765399 141.269761 
L 694.206892 148.251938 
L 694.736684 160.494951 
L 695.796268 192.066752 
L 696.414358 207.461007 
L 696.767553 212.213437 
L 696.94415 213.022484 
L 697.032449 212.985164 
L 697.209046 211.975515 
L 697.473942 208.041076 
L 697.827137 198.350634 
L 698.356928 176.116511 
L 699.416512 128.806333 
L 699.769707 120.830638 
L 700.034603 119.081024 
L 700.122901 119.334495 
L 700.299499 121.062673 
L 700.564395 126.482695 
L 701.005888 141.451017 
L 702.506965 199.611921 
L 702.948458 207.3907 
L 703.213354 209.192241 
L 703.301653 209.337905 
L 703.389951 209.267715 
L 703.566549 208.514088 
L 703.831445 205.997147 
L 704.272938 198.833275 
L 704.979327 182.793048 
L 706.303807 152.773649 
L 706.921897 143.531073 
L 707.36339 139.580025 
L 707.716585 138.073266 
L 707.893182 137.86376 
L 708.06978 138.006808 
L 708.334676 138.858367 
L 708.68787 141.109338 
L 709.129363 145.521471 
L 709.747454 154.094837 
L 710.895336 174.009195 
L 711.95492 191.178993 
L 712.573011 197.908783 
L 712.926205 200.034436 
L 713.191101 200.645883 
L 713.367699 200.543797 
L 713.544296 200.012701 
L 713.809192 198.382075 
L 714.162386 194.61365 
L 714.60388 187.374689 
L 715.22197 173.098264 
L 716.987943 129.009228 
L 717.252839 126.557512 
L 717.429436 126.161575 
L 717.606034 126.867032 
L 717.87093 130.129301 
L 718.224124 138.6789 
L 718.665617 155.440048 
L 720.078396 215.839489 
L 720.343292 219.670833 
L 720.43159 220.010814 
L 720.519889 219.864783 
L 720.696486 218.11266 
L 720.961382 211.979613 
L 721.402875 194.046005 
L 722.815654 128.50857 
L 723.168848 122.47251 
L 723.345446 121.688094 
L 723.433744 121.832954 
L 723.610342 123.133325 
L 723.875238 127.353747 
L 724.316731 139.039416 
L 726.259301 197.85668 
L 726.700794 203.306401 
L 726.96569 204.633561 
L 727.142287 204.74223 
L 727.318885 204.262927 
L 727.583781 202.520183 
L 727.936975 198.507654 
L 728.466767 189.650365 
L 729.526351 166.83153 
L 730.497636 147.51194 
L 731.115727 139.327281 
L 731.468921 136.723958 
L 731.733817 135.895233 
L 731.910414 135.905073 
L 732.087012 136.375071 
L 732.351908 137.949834 
L 732.705102 141.654277 
L 733.146596 148.716738 
L 733.764686 162.371741 
L 735.530659 204.579107 
L 735.883854 208.274502 
L 736.060451 208.904096 
L 736.14875 208.878545 
L 736.325347 208.105142 
L 736.590243 205.049741 
L 736.943437 197.347363 
L 737.384931 182.30793 
L 738.974306 119.91517 
L 739.239202 117.679403 
L 739.327501 117.917045 
L 739.504098 119.936018 
L 739.768994 126.792487 
L 740.210487 147.083488 
L 741.534967 216.970008 
L 741.799863 221.38484 
L 741.888162 221.751936 
L 741.97646 221.569064 
L 742.153058 219.60626 
L 742.417953 213.022951 
L 742.859447 194.739921 
L 744.183926 134.670047 
L 744.537121 127.144581 
L 744.802017 124.831935 
L 744.890316 124.677753 
L 744.978614 124.818504 
L 745.155212 125.940975 
L 745.420108 129.529069 
L 745.861601 139.548577 
L 746.744587 167.092443 
L 747.627574 192.054334 
L 748.157366 201.376065 
L 748.51056 204.492761 
L 748.687157 205.073703 
L 748.775456 205.119557 
L 748.952053 204.727868 
L 749.216949 202.964917 
L 749.570144 198.56394 
L 750.099936 188.230516 
L 750.982922 164.932911 
L 751.954207 140.318524 
L 752.483999 132.136923 
L 752.748895 130.315375 
L 752.925493 130.084629 
L 753.10209 130.694429 
L 753.366986 133.248441 
L 753.72018 139.743249 
L 754.161674 152.481147 
L 754.956361 183.764079 
L 755.662751 209.211233 
L 756.015945 216.025891 
L 756.192542 217.125445 
L 756.280841 217.018289 
L 756.457438 215.41366 
L 756.722334 209.43584 
L 757.075529 195.102593 
L 757.693619 158.184456 
L 758.400009 119.995699 
L 758.664905 113.388472 
L 758.841502 112.36196 
L 758.929801 112.919323 
L 759.106398 116.16555 
L 759.371294 126.012469 
L 759.812787 152.384589 
L 760.784072 212.356644 
L 761.137267 221.490691 
L 761.313864 222.434067 
L 761.402163 222.014829 
L 761.57876 219.496645 
L 761.843656 211.997137 
L 762.373448 187.830298 
L 763.433032 137.484636 
L 763.874525 126.676558 
L 764.139421 124.230984 
L 764.227719 124.08617 
L 764.316018 124.266005 
L 764.492615 125.560633 
L 764.757511 129.65102 
L 765.199005 141.129719 
L 766.081991 172.88579 
L 766.876679 198.219599 
L 767.318172 206.516427 
L 767.583068 208.813262 
L 767.759665 209.13762 
L 767.936263 208.478169 
L 768.201159 205.662144 
L 768.554353 198.681359 
L 769.084145 182.467997 
L 770.673521 127.671665 
L 770.938417 124.074475 
L 771.115014 123.400401 
L 771.203313 123.625461 
L 771.37991 125.250212 
L 771.644806 130.684337 
L 771.998 143.311648 
L 772.616091 176.237605 
L 773.410779 216.655714 
L 773.675675 222.804184 
L 773.852272 223.615401 
L 774.028869 221.515555 
L 774.293765 212.812616 
L 774.64696 191.972974 
L 775.794842 112.511473 
L 776.059738 107.896244 
L 776.148037 108.278546 
L 776.324634 111.923015 
L 776.58953 124.000801 
L 777.119322 163.875262 
L 777.825711 214.440719 
L 778.178906 225.275702 
L 778.267204 226.001939 
L 778.355503 225.935169 
L 778.5321 223.515334 
L 778.796996 214.770019 
L 779.238489 190.485233 
L 780.209775 133.040702 
L 780.562969 122.029105 
L 780.827865 119.040629 
L 780.916164 119.065362 
L 781.092761 120.592484 
L 781.357657 126.302556 
L 781.79915 143.117451 
L 783.300227 210.19026 
L 783.565123 214.672139 
L 783.74172 215.545335 
L 783.830019 215.322913 
L 784.006616 213.553747 
L 784.271512 207.67946 
L 784.713006 190.37671 
L 786.214083 119.527224 
L 786.39068 117.35197 
L 786.478979 117.18626 
L 786.567277 117.665669 
L 786.743874 120.608555 
L 787.00877 129.948552 
L 787.450264 156.781559 
L 788.421549 223.002409 
L 788.686445 228.904314 
L 788.774743 228.799993 
L 788.951341 225.25672 
L 789.216237 211.753686 
L 789.65773 172.399566 
L 790.364119 109.650706 
L 790.629015 102.021068 
L 790.717314 102.37087 
L 790.893911 107.508182 
L 791.158807 125.336392 
L 791.776897 191.662708 
L 792.218391 228.054866 
L 792.483287 235.123867 
L 792.571585 234.605477 
L 792.748182 229.38649 
L 793.013078 212.442196 
L 794.337558 107.967859 
L 794.425857 107.179751 
L 794.514155 107.552734 
L 794.690753 111.66469 
L 794.955649 125.317141 
L 795.485441 169.217038 
L 796.103531 216.348584 
L 796.368427 225.731811 
L 796.545024 226.951869 
L 796.721622 223.978892 
L 796.986518 212.100867 
L 797.428011 177.493279 
L 798.1344 119.135562 
L 798.399296 109.060239 
L 798.487595 108.061366 
L 798.575893 108.350309 
L 798.752491 112.891294 
L 799.017386 129.226678 
L 799.547178 184.712211 
L 800.07697 232.056496 
L 800.253568 236.803059 
L 800.341866 236.281196 
L 800.518463 229.120431 
L 800.783359 203.982804 
L 801.754645 91.589097 
L 801.842943 92.345065 
L 802.01954 103.068495 
L 802.284436 139.572154 
L 802.990826 250.88244 
L 803.079124 253.712728 
L 803.167423 252.439372 
L 803.34402 237.543064 
L 803.697215 169.654501 
L 804.138708 85.65351 
L 804.315305 77.455694 
L 804.403604 81.206964 
L 804.580201 104.107226 
L 805.374889 266.442479 
L 805.463188 264.429016 
L 805.639785 239.553226 
L 806.346174 61.178171 
L 806.434473 64.862861 
L 806.61107 105.12648 
L 807.140862 291.049835 
L 807.229161 276.764732 
L 807.494057 120.016363 
L 807.670654 35.55267 
L 807.758953 47.721188 
L 808.112147 292.644112 
L 808.200446 261.028191 
L 808.465342 77.221098 
L 808.641939 169.740244 
L 808.818536 225.768138 
L 809.083432 131.013565 
L 809.171731 141.058017 
L 809.436627 190.731551 
L 809.701523 154.132421 
L 809.87812 169.641023 
L 809.966419 176.865812 
L 810.054717 176.601334 
L 810.319613 163.205416 
L 810.584509 171.980361 
L 810.672808 171.437066 
L 810.937704 166.676598 
L 811.114301 169.273455 
L 811.114301 169.273455 
" clip-path="url(#p4bfff70cd5)" style="fill: none; stroke: #ff7f0e; stroke-width: 0.6; stroke-linecap: square"/>
   </g>
   <g id="patch_3">
    <path d="M 52.160938 313.478125 
L 52.160938 22.318125 
" style="fill: none; stroke: #000000; stroke-width: 0.8; stroke-linejoin: miter; stroke-linecap: square"/>
   </g>
   <g id="patch_4">
    <path d="M 847.254937 313.478125 
L 847.254937 22.318125 
" style="fill: none; stroke: #000000; stroke-width: 0.8; stroke-linejoin: miter; stroke-linecap: square"/>
   </g>
   <g id="patch_5">
    <path d="M 52.160938 313.478125 
L 847.254937 313.478125 
" style="fill: none; stroke: #000000; stroke-width: 0.8; stroke-linejoin: miter; stroke-linecap: square"/>
   </g>
   <g id="patch_6">
    <path d="M 52.160938 22.318125 
L 847.254937 22.318125 
" style="fill: none; stroke: #000000; stroke-width: 0.8; stroke-linejoin: miter; stroke-linecap: square"/>
   </g>
   <g id="text_16">
    <!-- M=60, e=0.21, f_min=10 Hz -->
    <g transform="translate(363.504812 16.318125) scale(0.12 -0.12)">
     <defs>
      <path id="DejaVuSans-4d" d="M 628 4666 
L 1569 4666 
L 2759 1491 
L 3956 4666 
L 4897 4666 
L 4897 0 
L 4281 0 
L 4281 4097 
L 3078 897 
L 2444 897 
L 1241 4097 
L 1241 0 
L 628 0 
L 628 4666 
z
" transform="scale(0.015625)"/>
      <path id="DejaVuSans-3d" d="M 678 2906 
L 4684 2906 
L 4684 2381 
L 678 2381 
L 678 2906 
z
M 678 1631 
L 4684 1631 
L 4684 1100 
L 678 1100 
L 678 1631 
z
" transform="scale(0.015625)"/>
      <path id="DejaVuSans-2c" d="M 750 794 
L 1409 794 
L 1409 256 
L 897 -744 
L 494 -744 
L 750 256 
L 750 794 
z
" transform="scale(0.015625)"/>
      <path id="DejaVuSans-65" d="M 3597 1894 
L 3597 1613 
L 953 1613 
Q 991 1019 1311 708 
Q 1631 397 2203 397 
Q 2534 397 2845 478 
Q 3156 559 3463 722 
L 3463 178 
Q 3153 47 2828 -22 
Q 2503 -91 2169 -91 
Q 1331 -91 842 396 
Q 353 884 353 1716 
Q 353 2575 817 3079 
Q 1281 3584 2069 3584 
Q 2775 3584 3186 3129 
Q 3597 2675 3597 1894 
z
M 3022 2063 
Q 3016 2534 2758 2815 
Q 2500 3097 2075 3097 
Q 1594 3097 1305 2825 
Q 1016 2553 972 2059 
L 3022 2063 
z
" transform="scale(0.015625)"/>
      <path id="DejaVuSans-66" d="M 2375 4863 
L 2375 4384 
L 1825 4384 
Q 1516 4384 1395 4259 
Q 1275 4134 1275 3809 
L 1275 3500 
L 2222 3500 
L 2222 3053 
L 1275 3053 
L 1275 0 
L 697 0 
L 697 3053 
L 147 3053 
L 147 3500 
L 697 3500 
L 697 3744 
Q 697 4328 969 4595 
Q 1241 4863 1831 4863 
L 2375 4863 
z
" transform="scale(0.015625)"/>
      <path id="DejaVuSans-5f" d="M 3263 -1063 
L 3263 -1509 
L -63 -1509 
L -63 -1063 
L 3263 -1063 
z
" transform="scale(0.015625)"/>
      <path id="DejaVuSans-6d" d="M 3328 2828 
Q 3544 3216 3844 3400 
Q 4144 3584 4550 3584 
Q 5097 3584 5394 3201 
Q 5691 2819 5691 2113 
L 5691 0 
L 5113 0 
L 5113 2094 
Q 5113 2597 4934 2840 
Q 4756 3084 4391 3084 
Q 3944 3084 3684 2787 
Q 3425 2491 3425 1978 
L 3425 0 
L 2847 0 
L 2847 2094 
Q 2847 2600 2669 2842 
Q 2491 3084 2119 3084 
Q 1678 3084 1418 2786 
Q 1159 2488 1159 1978 
L 1159 0 
L 581 0 
L 581 3500 
L 1159 3500 
L 1159 2956 
Q 1356 3278 1631 3431 
Q 1906 3584 2284 3584 
Q 2666 3584 2933 3390 
Q 3200 3197 3328 2828 
z
" transform="scale(0.015625)"/>
      <path id="DejaVuSans-69" d="M 603 3500 
L 1178 3500 
L 1178 0 
L 603 0 
L 603 3500 
z
M 603 4863 
L 1178 4863 
L 1178 4134 
L 603 4134 
L 603 4863 
z
" transform="scale(0.015625)"/>
      <path id="DejaVuSans-6e" d="M 3513 2113 
L 3513 0 
L 2938 0 
L 2938 2094 
Q 2938 2591 2744 2837 
Q 2550 3084 2163 3084 
Q 1697 3084 1428 2787 
Q 1159 2491 1159 1978 
L 1159 0 
L 581 0 
L 581 3500 
L 1159 3500 
L 1159 2956 
Q 1366 3272 1645 3428 
Q 1925 3584 2291 3584 
Q 2894 3584 3203 3211 
Q 3513 2838 3513 2113 
z
" transform="scale(0.015625)"/>
      <path id="DejaVuSans-48" d="M 628 4666 
L 1259 4666 
L 1259 2753 
L 3553 2753 
L 3553 4666 
L 4184 4666 
L 4184 0 
L 3553 0 
L 3553 2222 
L 1259 2222 
L 1259 0 
L 628 0 
L 628 4666 
z
" transform="scale(0.015625)"/>
      <path id="DejaVuSans-7a" d="M 353 3500 
L 3084 3500 
L 3084 2975 
L 922 459 
L 3084 459 
L 3084 0 
L 275 0 
L 275 525 
L 2438 3041 
L 353 3041 
L 353 3500 
z
" transform="scale(0.015625)"/>
     </defs>
     <use xlink:href="#DejaVuSans-4d"/>
     <use xlink:href="#DejaVuSans-3d" transform="translate(86.279297 0)"/>
     <use xlink:href="#DejaVuSans-36" transform="translate(170.068359 0)"/>
     <use xlink:href="#DejaVuSans-30" transform="translate(233.691406 0)"/>
     <use xlink:href="#DejaVuSans-2c" transform="translate(297.314453 0)"/>
     <use xlink:href="#DejaVuSans-20" transform="translate(329.101562 0)"/>
     <use xlink:href="#DejaVuSans-65" transform="translate(360.888672 0)"/>
     <use xlink:href="#DejaVuSans-3d" transform="translate(422.412109 0)"/>
     <use xlink:href="#DejaVuSans-30" transform="translate(506.201172 0)"/>
     <use xlink:href="#DejaVuSans-2e" transform="translate(569.824219 0)"/>
     <use xlink:href="#DejaVuSans-32" transform="translate(601.611328 0)"/>
     <use xlink:href="#DejaVuSans-31" transform="translate(665.234375 0)"/>
     <use xlink:href="#DejaVuSans-2c" transform="translate(728.857422 0)"/>
     <use xlink:href="#DejaVuSans-20" transform="translate(760.644531 0)"/>
     <use xlink:href="#DejaVuSans-66" transform="translate(792.431641 0)"/>
     <use xlink:href="#DejaVuSans-5f" transform="translate(827.636719 0)"/>
     <use xlink:href="#DejaVuSans-6d" transform="translate(877.636719 0)"/>
     <use xlink:href="#DejaVuSans-69" transform="translate(975.048828 0)"/>
     <use xlink:href="#DejaVuSans-6e" transform="translate(1002.832031 0)"/>
     <use xlink:href="#DejaVuSans-3d" transform="translate(1066.210938 0)"/>
     <use xlink:href="#DejaVuSans-31" transform="translate(1150 0)"/>
     <use xlink:href="#DejaVuSans-30" transform="translate(1213.623047 0)"/>
     <use xlink:href="#DejaVuSans-20" transform="translate(1277.246094 0)"/>
     <use xlink:href="#DejaVuSans-48" transform="translate(1309.033203 0)"/>
     <use xlink:href="#DejaVuSans-7a" transform="translate(1384.228516 0)"/>
    </g>
   </g>
   <g id="legend_1">
    <g id="patch_7">
     <path d="M 59.160938 59.674375 
L 123.960938 59.674375 
Q 125.960938 59.674375 125.960938 57.674375 
L 125.960938 29.318125 
Q 125.960938 27.318125 123.960938 27.318125 
L 59.160938 27.318125 
Q 57.160938 27.318125 57.160938 29.318125 
L 57.160938 57.674375 
Q 57.160938 59.674375 59.160938 59.674375 
z
" style="fill: #ffffff; opacity: 0.8; stroke: #cccccc; stroke-linejoin: miter"/>
    </g>
    <g id="line2d_29">
     <path d="M 61.160938 35.416562 
L 71.160938 35.416562 
L 81.160938 35.416562 
" style="fill: none; stroke: #1f77b4; stroke-width: 0.6; stroke-linecap: square"/>
    </g>
    <g id="text_17">
     <!-- $h_+$ -->
     <g transform="translate(89.160938 38.916562) scale(0.1 -0.1)">
      <defs>
       <path id="DejaVuSans-2b" d="M 2944 4013 
L 2944 2272 
L 4684 2272 
L 4684 1741 
L 2944 1741 
L 2944 0 
L 2419 0 
L 2419 1741 
L 678 1741 
L 678 2272 
L 2419 2272 
L 2419 4013 
L 2944 4013 
z
" transform="scale(0.015625)"/>
      </defs>
      <use xlink:href="#DejaVuSans-Oblique-68" transform="translate(0 0.015625)"/>
      <use xlink:href="#DejaVuSans-2b" transform="translate(77.016602 -16.390625) scale(0.7)"/>
     </g>
    </g>
    <g id="line2d_30">
     <path d="M 61.160938 50.094688 
L 71.160938 50.094688 
L 81.160938 50.094688 
" style="fill: none; stroke: #ff7f0e; stroke-width: 0.6; stroke-linecap: square"/>
    </g>
    <g id="text_18">
     <!-- $h_	imes$ -->
     <g transform="translate(89.160938 53.594688) scale(0.1 -0.1)">
      <defs>
       <path id="DejaVuSans-Oblique-69" d="M 1172 4863 
L 1747 4863 
L 1606 4134 
L 1031 4134 
L 1172 4863 
z
M 909 3500 
L 1484 3500 
L 800 0 
L 225 0 
L 909 3500 
z
" transform="scale(0.015625)"/>
       <path id="DejaVuSans-Oblique-6d" d="M 5747 2113 
L 5338 0 
L 4763 0 
L 5166 2094 
Q 5191 2228 5203 2325 
Q 5216 2422 5216 2491 
Q 5216 2772 5059 2928 
Q 4903 3084 4622 3084 
Q 4203 3084 3875 2770 
Q 3547 2456 3450 1953 
L 3066 0 
L 2491 0 
L 2900 2094 
Q 2925 2209 2937 2307 
Q 2950 2406 2950 2484 
Q 2950 2769 2794 2926 
Q 2638 3084 2363 3084 
Q 1938 3084 1609 2770 
Q 1281 2456 1184 1953 
L 800 0 
L 225 0 
L 909 3500 
L 1484 3500 
L 1375 2956 
Q 1609 3263 1923 3423 
Q 2238 3584 2597 3584 
Q 2978 3584 3223 3384 
Q 3469 3184 3519 2828 
Q 3781 3197 4126 3390 
Q 4472 3584 4856 3584 
Q 5306 3584 5551 3325 
Q 5797 3066 5797 2591 
Q 5797 2488 5784 2364 
Q 5772 2241 5747 2113 
z
" transform="scale(0.015625)"/>
       <path id="DejaVuSans-Oblique-65" d="M 3078 2063 
Q 3088 2113 3092 2166 
Q 3097 2219 3097 2272 
Q 3097 2653 2873 2875 
Q 2650 3097 2266 3097 
Q 1838 3097 1509 2826 
Q 1181 2556 1013 2059 
L 3078 2063 
z
M 3578 1613 
L 903 1613 
Q 884 1494 878 1425 
Q 872 1356 872 1306 
Q 872 872 1139 634 
Q 1406 397 1894 397 
Q 2269 397 2603 481 
Q 2938 566 3225 728 
L 3116 159 
Q 2806 34 2476 -28 
Q 2147 -91 1806 -91 
Q 1078 -91 686 257 
Q 294 606 294 1247 
Q 294 1794 489 2264 
Q 684 2734 1063 3103 
Q 1306 3334 1642 3459 
Q 1978 3584 2356 3584 
Q 2950 3584 3301 3228 
Q 3653 2872 3653 2272 
Q 3653 2128 3634 1964 
Q 3616 1800 3578 1613 
z
" transform="scale(0.015625)"/>
       <path id="DejaVuSans-Oblique-73" d="M 3200 3397 
L 3091 2853 
Q 2863 2978 2609 3040 
Q 2356 3103 2088 3103 
Q 1634 3103 1373 2948 
Q 1113 2794 1113 2528 
Q 1113 2219 1719 2053 
Q 1766 2041 1788 2034 
L 1972 1978 
Q 2547 1819 2739 1644 
Q 2931 1469 2931 1166 
Q 2931 609 2489 259 
Q 2047 -91 1331 -91 
Q 1053 -91 747 -37 
Q 441 16 72 128 
L 184 722 
Q 500 559 806 475 
Q 1113 391 1394 391 
Q 1816 391 2080 572 
Q 2344 753 2344 1031 
Q 2344 1331 1650 1516 
L 1591 1531 
L 1394 1581 
Q 956 1697 753 1886 
Q 550 2075 550 2369 
Q 550 2928 970 3256 
Q 1391 3584 2113 3584 
Q 2397 3584 2667 3537 
Q 2938 3491 3200 3397 
z
" transform="scale(0.015625)"/>
      </defs>
      <use xlink:href="#DejaVuSans-Oblique-68" transform="translate(0 0.015625)"/>
      <use xlink:href="#DejaVuSans-20" transform="translate(63.378906 -16.390625) scale(0.7)"/>
      <use xlink:href="#DejaVuSans-Oblique-69" transform="translate(88.364258 0.015625)"/>
      <use xlink:href="#DejaVuSans-Oblique-6d" transform="translate(116.147461 0.015625)"/>
      <use xlink:href="#DejaVuSans-Oblique-65" transform="translate(213.55957 0.015625)"/>
      <use xlink:href="#DejaVuSans-Oblique-73" transform="translate(275.083008 0.015625)"/>
     </g>
    </g>
   </g>
  </g>
 </g>
 <defs>
  <clipPath id="p4bfff70cd5">
   <rect x="52.160938" y="22.318125" width="795.094" height="291.16"/>
  </clipPath>
 </defs>
</svg>
