<?xml version="1.0" encoding="utf-8" standalone="no"?>
<!DOCTYPE svg PUBLIC "-//W3C//DTD SVG 1.1//EN"
  "http://www.w3.org/Graphics/SVG/1.1/DTD/svg11.dtd">
<svg xmlns:xlink="http://www.w3.org/1999/xlink" width="854.454937pt" height="351.034375pt" viewBox="0 0 854.454937 351.034375" xmlns="http://www.w3.org/2000/svg" version="1.1">
 <metadata>
  <rdf:RDF xmlns:dc="http://purl.org/dc/elements/1.1/" xmlns:cc="http://creativecommons.org/ns#" xmlns:rdf="http://www.w3.org/1999/02/22-rdf-syntax-ns#">
   <cc:Work>
    <dc:type rdf:resource="http://purl.org/dc/dcmitype/StillImage"/>
    <dc:date>2025-07-24T14:39:29.417008</dc:date>
    <dc:format>image/svg+xml</dc:format>
    <dc:creator>
     <cc:Agent>
      <dc:title>Matplotlib v3.10.3, https://matplotlib.org/</dc:title>
     </cc:Agent>
    </dc:creator>
   </cc:Work>
  </rdf:RDF>
 </metadata>
 <defs>
  <style type="text/css">*{stroke-linejoin: round; stroke-linecap: butt}</style>
 </defs>
 <g id="figure_1">
  <g id="patch_1">
   <path d="M 0 351.034375 
L 854.454937 351.034375 
L 854.454937 0 
L 0 0 
z
" style="fill: #ffffff"/>
  </g>
  <g id="axes_1">
   <g id="patch_2">
    <path d="M 52.160938 313.478125 
L 847.254937 313.478125 
L 847.254937 22.318125 
L 52.160938 22.318125 
z
" style="fill: #ffffff"/>
   </g>
   <g id="matplotlib.axis_1">
    <g id="xtick_1">
     <g id="line2d_1">
      <path d="M 63.588329 313.478125 
L 63.588329 22.318125 
" clip-path="url(#p79bee03dbf)" style="fill: none; stroke: #b0b0b0; stroke-width: 0.8; stroke-linecap: square"/>
     </g>
     <g id="line2d_2">
      <defs>
       <path id="mab83abb303" d="M 0 0 
L 0 3.5 
" style="stroke: #000000; stroke-width: 0.8"/>
      </defs>
      <g>
       <use xlink:href="#mab83abb303" x="63.588329" y="313.478125" style="stroke: #000000; stroke-width: 0.8"/>
      </g>
     </g>
     <g id="text_1">
      <!-- −14000 -->
      <g transform="translate(43.492236 328.076563) scale(0.1 -0.1)">
       <defs>
        <path id="DejaVuSans-2212" d="M 678 2272 
L 4684 2272 
L 4684 1741 
L 678 1741 
L 678 2272 
z
" transform="scale(0.015625)"/>
        <path id="DejaVuSans-31" d="M 794 531 
L 1825 531 
L 1825 4091 
L 703 3866 
L 703 4441 
L 1819 4666 
L 2450 4666 
L 2450 531 
L 3481 531 
L 3481 0 
L 794 0 
L 794 531 
z
" transform="scale(0.015625)"/>
        <path id="DejaVuSans-34" d="M 2419 4116 
L 825 1625 
L 2419 1625 
L 2419 4116 
z
M 2253 4666 
L 3047 4666 
L 3047 1625 
L 3713 1625 
L 3713 1100 
L 3047 1100 
L 3047 0 
L 2419 0 
L 2419 1100 
L 313 1100 
L 313 1709 
L 2253 4666 
z
" transform="scale(0.015625)"/>
        <path id="DejaVuSans-30" d="M 2034 4250 
Q 1547 4250 1301 3770 
Q 1056 3291 1056 2328 
Q 1056 1369 1301 889 
Q 1547 409 2034 409 
Q 2525 409 2770 889 
Q 3016 1369 3016 2328 
Q 3016 3291 2770 3770 
Q 2525 4250 2034 4250 
z
M 2034 4750 
Q 2819 4750 3233 4129 
Q 3647 3509 3647 2328 
Q 3647 1150 3233 529 
Q 2819 -91 2034 -91 
Q 1250 -91 836 529 
Q 422 1150 422 2328 
Q 422 3509 836 4129 
Q 1250 4750 2034 4750 
z
" transform="scale(0.015625)"/>
       </defs>
       <use xlink:href="#DejaVuSans-2212"/>
       <use xlink:href="#DejaVuSans-31" transform="translate(83.789062 0)"/>
       <use xlink:href="#DejaVuSans-34" transform="translate(147.412109 0)"/>
       <use xlink:href="#DejaVuSans-30" transform="translate(211.035156 0)"/>
       <use xlink:href="#DejaVuSans-30" transform="translate(274.658203 0)"/>
       <use xlink:href="#DejaVuSans-30" transform="translate(338.28125 0)"/>
      </g>
     </g>
    </g>
    <g id="xtick_2">
     <g id="line2d_3">
      <path d="M 169.888662 313.478125 
L 169.888662 22.318125 
" clip-path="url(#p79bee03dbf)" style="fill: none; stroke: #b0b0b0; stroke-width: 0.8; stroke-linecap: square"/>
     </g>
     <g id="line2d_4">
      <g>
       <use xlink:href="#mab83abb303" x="169.888662" y="313.478125" style="stroke: #000000; stroke-width: 0.8"/>
      </g>
     </g>
     <g id="text_2">
      <!-- −12000 -->
      <g transform="translate(149.792569 328.076563) scale(0.1 -0.1)">
       <defs>
        <path id="DejaVuSans-32" d="M 1228 531 
L 3431 531 
L 3431 0 
L 469 0 
L 469 531 
Q 828 903 1448 1529 
Q 2069 2156 2228 2338 
Q 2531 2678 2651 2914 
Q 2772 3150 2772 3378 
Q 2772 3750 2511 3984 
Q 2250 4219 1831 4219 
Q 1534 4219 1204 4116 
Q 875 4013 500 3803 
L 500 4441 
Q 881 4594 1212 4672 
Q 1544 4750 1819 4750 
Q 2544 4750 2975 4387 
Q 3406 4025 3406 3419 
Q 3406 3131 3298 2873 
Q 3191 2616 2906 2266 
Q 2828 2175 2409 1742 
Q 1991 1309 1228 531 
z
" transform="scale(0.015625)"/>
       </defs>
       <use xlink:href="#DejaVuSans-2212"/>
       <use xlink:href="#DejaVuSans-31" transform="translate(83.789062 0)"/>
       <use xlink:href="#DejaVuSans-32" transform="translate(147.412109 0)"/>
       <use xlink:href="#DejaVuSans-30" transform="translate(211.035156 0)"/>
       <use xlink:href="#DejaVuSans-30" transform="translate(274.658203 0)"/>
       <use xlink:href="#DejaVuSans-30" transform="translate(338.28125 0)"/>
      </g>
     </g>
    </g>
    <g id="xtick_3">
     <g id="line2d_5">
      <path d="M 276.188995 313.478125 
L 276.188995 22.318125 
" clip-path="url(#p79bee03dbf)" style="fill: none; stroke: #b0b0b0; stroke-width: 0.8; stroke-linecap: square"/>
     </g>
     <g id="line2d_6">
      <g>
       <use xlink:href="#mab83abb303" x="276.188995" y="313.478125" style="stroke: #000000; stroke-width: 0.8"/>
      </g>
     </g>
     <g id="text_3">
      <!-- −10000 -->
      <g transform="translate(256.092901 328.076563) scale(0.1 -0.1)">
       <use xlink:href="#DejaVuSans-2212"/>
       <use xlink:href="#DejaVuSans-31" transform="translate(83.789062 0)"/>
       <use xlink:href="#DejaVuSans-30" transform="translate(147.412109 0)"/>
       <use xlink:href="#DejaVuSans-30" transform="translate(211.035156 0)"/>
       <use xlink:href="#DejaVuSans-30" transform="translate(274.658203 0)"/>
       <use xlink:href="#DejaVuSans-30" transform="translate(338.28125 0)"/>
      </g>
     </g>
    </g>
    <g id="xtick_4">
     <g id="line2d_7">
      <path d="M 382.489328 313.478125 
L 382.489328 22.318125 
" clip-path="url(#p79bee03dbf)" style="fill: none; stroke: #b0b0b0; stroke-width: 0.8; stroke-linecap: square"/>
     </g>
     <g id="line2d_8">
      <g>
       <use xlink:href="#mab83abb303" x="382.489328" y="313.478125" style="stroke: #000000; stroke-width: 0.8"/>
      </g>
     </g>
     <g id="text_4">
      <!-- −8000 -->
      <g transform="translate(365.574484 328.076563) scale(0.1 -0.1)">
       <defs>
        <path id="DejaVuSans-38" d="M 2034 2216 
Q 1584 2216 1326 1975 
Q 1069 1734 1069 1313 
Q 1069 891 1326 650 
Q 1584 409 2034 409 
Q 2484 409 2743 651 
Q 3003 894 3003 1313 
Q 3003 1734 2745 1975 
Q 2488 2216 2034 2216 
z
M 1403 2484 
Q 997 2584 770 2862 
Q 544 3141 544 3541 
Q 544 4100 942 4425 
Q 1341 4750 2034 4750 
Q 2731 4750 3128 4425 
Q 3525 4100 3525 3541 
Q 3525 3141 3298 2862 
Q 3072 2584 2669 2484 
Q 3125 2378 3379 2068 
Q 3634 1759 3634 1313 
Q 3634 634 3220 271 
Q 2806 -91 2034 -91 
Q 1263 -91 848 271 
Q 434 634 434 1313 
Q 434 1759 690 2068 
Q 947 2378 1403 2484 
z
M 1172 3481 
Q 1172 3119 1398 2916 
Q 1625 2713 2034 2713 
Q 2441 2713 2670 2916 
Q 2900 3119 2900 3481 
Q 2900 3844 2670 4047 
Q 2441 4250 2034 4250 
Q 1625 4250 1398 4047 
Q 1172 3844 1172 3481 
z
" transform="scale(0.015625)"/>
       </defs>
       <use xlink:href="#DejaVuSans-2212"/>
       <use xlink:href="#DejaVuSans-38" transform="translate(83.789062 0)"/>
       <use xlink:href="#DejaVuSans-30" transform="translate(147.412109 0)"/>
       <use xlink:href="#DejaVuSans-30" transform="translate(211.035156 0)"/>
       <use xlink:href="#DejaVuSans-30" transform="translate(274.658203 0)"/>
      </g>
     </g>
    </g>
    <g id="xtick_5">
     <g id="line2d_9">
      <path d="M 488.789661 313.478125 
L 488.789661 22.318125 
" clip-path="url(#p79bee03dbf)" style="fill: none; stroke: #b0b0b0; stroke-width: 0.8; stroke-linecap: square"/>
     </g>
     <g id="line2d_10">
      <g>
       <use xlink:href="#mab83abb303" x="488.789661" y="313.478125" style="stroke: #000000; stroke-width: 0.8"/>
      </g>
     </g>
     <g id="text_5">
      <!-- −6000 -->
      <g transform="translate(471.874817 328.076563) scale(0.1 -0.1)">
       <defs>
        <path id="DejaVuSans-36" d="M 2113 2584 
Q 1688 2584 1439 2293 
Q 1191 2003 1191 1497 
Q 1191 994 1439 701 
Q 1688 409 2113 409 
Q 2538 409 2786 701 
Q 3034 994 3034 1497 
Q 3034 2003 2786 2293 
Q 2538 2584 2113 2584 
z
M 3366 4563 
L 3366 3988 
Q 3128 4100 2886 4159 
Q 2644 4219 2406 4219 
Q 1781 4219 1451 3797 
Q 1122 3375 1075 2522 
Q 1259 2794 1537 2939 
Q 1816 3084 2150 3084 
Q 2853 3084 3261 2657 
Q 3669 2231 3669 1497 
Q 3669 778 3244 343 
Q 2819 -91 2113 -91 
Q 1303 -91 875 529 
Q 447 1150 447 2328 
Q 447 3434 972 4092 
Q 1497 4750 2381 4750 
Q 2619 4750 2861 4703 
Q 3103 4656 3366 4563 
z
" transform="scale(0.015625)"/>
       </defs>
       <use xlink:href="#DejaVuSans-2212"/>
       <use xlink:href="#DejaVuSans-36" transform="translate(83.789062 0)"/>
       <use xlink:href="#DejaVuSans-30" transform="translate(147.412109 0)"/>
       <use xlink:href="#DejaVuSans-30" transform="translate(211.035156 0)"/>
       <use xlink:href="#DejaVuSans-30" transform="translate(274.658203 0)"/>
      </g>
     </g>
    </g>
    <g id="xtick_6">
     <g id="line2d_11">
      <path d="M 595.089994 313.478125 
L 595.089994 22.318125 
" clip-path="url(#p79bee03dbf)" style="fill: none; stroke: #b0b0b0; stroke-width: 0.8; stroke-linecap: square"/>
     </g>
     <g id="line2d_12">
      <g>
       <use xlink:href="#mab83abb303" x="595.089994" y="313.478125" style="stroke: #000000; stroke-width: 0.8"/>
      </g>
     </g>
     <g id="text_6">
      <!-- −4000 -->
      <g transform="translate(578.17515 328.076563) scale(0.1 -0.1)">
       <use xlink:href="#DejaVuSans-2212"/>
       <use xlink:href="#DejaVuSans-34" transform="translate(83.789062 0)"/>
       <use xlink:href="#DejaVuSans-30" transform="translate(147.412109 0)"/>
       <use xlink:href="#DejaVuSans-30" transform="translate(211.035156 0)"/>
       <use xlink:href="#DejaVuSans-30" transform="translate(274.658203 0)"/>
      </g>
     </g>
    </g>
    <g id="xtick_7">
     <g id="line2d_13">
      <path d="M 701.390327 313.478125 
L 701.390327 22.318125 
" clip-path="url(#p79bee03dbf)" style="fill: none; stroke: #b0b0b0; stroke-width: 0.8; stroke-linecap: square"/>
     </g>
     <g id="line2d_14">
      <g>
       <use xlink:href="#mab83abb303" x="701.390327" y="313.478125" style="stroke: #000000; stroke-width: 0.8"/>
      </g>
     </g>
     <g id="text_7">
      <!-- −2000 -->
      <g transform="translate(684.475483 328.076563) scale(0.1 -0.1)">
       <use xlink:href="#DejaVuSans-2212"/>
       <use xlink:href="#DejaVuSans-32" transform="translate(83.789062 0)"/>
       <use xlink:href="#DejaVuSans-30" transform="translate(147.412109 0)"/>
       <use xlink:href="#DejaVuSans-30" transform="translate(211.035156 0)"/>
       <use xlink:href="#DejaVuSans-30" transform="translate(274.658203 0)"/>
      </g>
     </g>
    </g>
    <g id="xtick_8">
     <g id="line2d_15">
      <path d="M 807.69066 313.478125 
L 807.69066 22.318125 
" clip-path="url(#p79bee03dbf)" style="fill: none; stroke: #b0b0b0; stroke-width: 0.8; stroke-linecap: square"/>
     </g>
     <g id="line2d_16">
      <g>
       <use xlink:href="#mab83abb303" x="807.69066" y="313.478125" style="stroke: #000000; stroke-width: 0.8"/>
      </g>
     </g>
     <g id="text_8">
      <!-- 0 -->
      <g transform="translate(804.50941 328.076563) scale(0.1 -0.1)">
       <use xlink:href="#DejaVuSans-30"/>
      </g>
     </g>
    </g>
    <g id="text_9">
     <!-- t [s] -->
     <g transform="translate(439.652469 341.754687) scale(0.1 -0.1)">
      <defs>
       <path id="DejaVuSans-74" d="M 1172 4494 
L 1172 3500 
L 2356 3500 
L 2356 3053 
L 1172 3053 
L 1172 1153 
Q 1172 725 1289 603 
Q 1406 481 1766 481 
L 2356 481 
L 2356 0 
L 1766 0 
Q 1100 0 847 248 
Q 594 497 594 1153 
L 594 3053 
L 172 3053 
L 172 3500 
L 594 3500 
L 594 4494 
L 1172 4494 
z
" transform="scale(0.015625)"/>
       <path id="DejaVuSans-20" transform="scale(0.015625)"/>
       <path id="DejaVuSans-5b" d="M 550 4863 
L 1875 4863 
L 1875 4416 
L 1125 4416 
L 1125 -397 
L 1875 -397 
L 1875 -844 
L 550 -844 
L 550 4863 
z
" transform="scale(0.015625)"/>
       <path id="DejaVuSans-73" d="M 2834 3397 
L 2834 2853 
Q 2591 2978 2328 3040 
Q 2066 3103 1784 3103 
Q 1356 3103 1142 2972 
Q 928 2841 928 2578 
Q 928 2378 1081 2264 
Q 1234 2150 1697 2047 
L 1894 2003 
Q 2506 1872 2764 1633 
Q 3022 1394 3022 966 
Q 3022 478 2636 193 
Q 2250 -91 1575 -91 
Q 1294 -91 989 -36 
Q 684 19 347 128 
L 347 722 
Q 666 556 975 473 
Q 1284 391 1588 391 
Q 1994 391 2212 530 
Q 2431 669 2431 922 
Q 2431 1156 2273 1281 
Q 2116 1406 1581 1522 
L 1381 1569 
Q 847 1681 609 1914 
Q 372 2147 372 2553 
Q 372 3047 722 3315 
Q 1072 3584 1716 3584 
Q 2034 3584 2315 3537 
Q 2597 3491 2834 3397 
z
" transform="scale(0.015625)"/>
       <path id="DejaVuSans-5d" d="M 1947 4863 
L 1947 -844 
L 622 -844 
L 622 -397 
L 1369 -397 
L 1369 4416 
L 622 4416 
L 622 4863 
L 1947 4863 
z
" transform="scale(0.015625)"/>
      </defs>
      <use xlink:href="#DejaVuSans-74"/>
      <use xlink:href="#DejaVuSans-20" transform="translate(39.208984 0)"/>
      <use xlink:href="#DejaVuSans-5b" transform="translate(70.996094 0)"/>
      <use xlink:href="#DejaVuSans-73" transform="translate(110.009766 0)"/>
      <use xlink:href="#DejaVuSans-5d" transform="translate(162.109375 0)"/>
     </g>
    </g>
   </g>
   <g id="matplotlib.axis_2">
    <g id="ytick_1">
     <g id="line2d_17">
      <path d="M 52.160938 281.090506 
L 847.254937 281.090506 
" clip-path="url(#p79bee03dbf)" style="fill: none; stroke: #b0b0b0; stroke-width: 0.8; stroke-linecap: square"/>
     </g>
     <g id="line2d_18">
      <defs>
       <path id="mfc0f1ed083" d="M 0 0 
L -3.5 0 
" style="stroke: #000000; stroke-width: 0.8"/>
      </defs>
      <g>
       <use xlink:href="#mfc0f1ed083" x="52.160938" y="281.090506" style="stroke: #000000; stroke-width: 0.8"/>
      </g>
     </g>
     <g id="text_10">
      <!-- −0.2 -->
      <g transform="translate(20.878125 284.889725) scale(0.1 -0.1)">
       <defs>
        <path id="DejaVuSans-2e" d="M 684 794 
L 1344 794 
L 1344 0 
L 684 0 
L 684 794 
z
" transform="scale(0.015625)"/>
       </defs>
       <use xlink:href="#DejaVuSans-2212"/>
       <use xlink:href="#DejaVuSans-30" transform="translate(83.789062 0)"/>
       <use xlink:href="#DejaVuSans-2e" transform="translate(147.412109 0)"/>
       <use xlink:href="#DejaVuSans-32" transform="translate(179.199219 0)"/>
      </g>
     </g>
    </g>
    <g id="ytick_2">
     <g id="line2d_19">
      <path d="M 52.160938 225.809584 
L 847.254937 225.809584 
" clip-path="url(#p79bee03dbf)" style="fill: none; stroke: #b0b0b0; stroke-width: 0.8; stroke-linecap: square"/>
     </g>
     <g id="line2d_20">
      <g>
       <use xlink:href="#mfc0f1ed083" x="52.160938" y="225.809584" style="stroke: #000000; stroke-width: 0.8"/>
      </g>
     </g>
     <g id="text_11">
      <!-- −0.1 -->
      <g transform="translate(20.878125 229.608803) scale(0.1 -0.1)">
       <use xlink:href="#DejaVuSans-2212"/>
       <use xlink:href="#DejaVuSans-30" transform="translate(83.789062 0)"/>
       <use xlink:href="#DejaVuSans-2e" transform="translate(147.412109 0)"/>
       <use xlink:href="#DejaVuSans-31" transform="translate(179.199219 0)"/>
      </g>
     </g>
    </g>
    <g id="ytick_3">
     <g id="line2d_21">
      <path d="M 52.160938 170.528661 
L 847.254937 170.528661 
" clip-path="url(#p79bee03dbf)" style="fill: none; stroke: #b0b0b0; stroke-width: 0.8; stroke-linecap: square"/>
     </g>
     <g id="line2d_22">
      <g>
       <use xlink:href="#mfc0f1ed083" x="52.160938" y="170.528661" style="stroke: #000000; stroke-width: 0.8"/>
      </g>
     </g>
     <g id="text_12">
      <!-- 0.0 -->
      <g transform="translate(29.257812 174.32788) scale(0.1 -0.1)">
       <use xlink:href="#DejaVuSans-30"/>
       <use xlink:href="#DejaVuSans-2e" transform="translate(63.623047 0)"/>
       <use xlink:href="#DejaVuSans-30" transform="translate(95.410156 0)"/>
      </g>
     </g>
    </g>
    <g id="ytick_4">
     <g id="line2d_23">
      <path d="M 52.160938 115.247739 
L 847.254937 115.247739 
" clip-path="url(#p79bee03dbf)" style="fill: none; stroke: #b0b0b0; stroke-width: 0.8; stroke-linecap: square"/>
     </g>
     <g id="line2d_24">
      <g>
       <use xlink:href="#mfc0f1ed083" x="52.160938" y="115.247739" style="stroke: #000000; stroke-width: 0.8"/>
      </g>
     </g>
     <g id="text_13">
      <!-- 0.1 -->
      <g transform="translate(29.257812 119.046958) scale(0.1 -0.1)">
       <use xlink:href="#DejaVuSans-30"/>
       <use xlink:href="#DejaVuSans-2e" transform="translate(63.623047 0)"/>
       <use xlink:href="#DejaVuSans-31" transform="translate(95.410156 0)"/>
      </g>
     </g>
    </g>
    <g id="ytick_5">
     <g id="line2d_25">
      <path d="M 52.160938 59.966817 
L 847.254937 59.966817 
" clip-path="url(#p79bee03dbf)" style="fill: none; stroke: #b0b0b0; stroke-width: 0.8; stroke-linecap: square"/>
     </g>
     <g id="line2d_26">
      <g>
       <use xlink:href="#mfc0f1ed083" x="52.160938" y="59.966817" style="stroke: #000000; stroke-width: 0.8"/>
      </g>
     </g>
     <g id="text_14">
      <!-- 0.2 -->
      <g transform="translate(29.257812 63.766036) scale(0.1 -0.1)">
       <use xlink:href="#DejaVuSans-30"/>
       <use xlink:href="#DejaVuSans-2e" transform="translate(63.623047 0)"/>
       <use xlink:href="#DejaVuSans-32" transform="translate(95.410156 0)"/>
      </g>
     </g>
    </g>
    <g id="text_15">
     <!-- $h_{22}]$ -->
     <g transform="translate(14.798438 177.648125) rotate(-90) scale(0.1 -0.1)">
      <defs>
       <path id="DejaVuSans-Oblique-68" d="M 3566 2113 
L 3156 0 
L 2578 0 
L 2988 2091 
Q 3016 2238 3031 2350 
Q 3047 2463 3047 2528 
Q 3047 2791 2881 2937 
Q 2716 3084 2419 3084 
Q 1956 3084 1617 2771 
Q 1278 2459 1178 1941 
L 800 0 
L 225 0 
L 1172 4863 
L 1747 4863 
L 1375 2950 
Q 1594 3244 1934 3414 
Q 2275 3584 2650 3584 
Q 3113 3584 3367 3334 
Q 3622 3084 3622 2631 
Q 3622 2519 3608 2391 
Q 3594 2263 3566 2113 
z
" transform="scale(0.015625)"/>
      </defs>
      <use xlink:href="#DejaVuSans-Oblique-68" transform="translate(0 0.015625)"/>
      <use xlink:href="#DejaVuSans-32" transform="translate(63.378906 -16.390625) scale(0.7)"/>
      <use xlink:href="#DejaVuSans-32" transform="translate(107.915039 -16.390625) scale(0.7)"/>
      <use xlink:href="#DejaVuSans-5d" transform="translate(155.185547 0.015625)"/>
     </g>
    </g>
   </g>
   <g id="line2d_27">
    <path d="M 88.301574 183.804717 
L 88.919589 183.424137 
L 89.625892 182.721616 
L 90.50877 181.488533 
L 91.479937 179.730552 
L 92.627679 177.180213 
L 94.040285 173.473711 
L 96.335769 166.704042 
L 98.719542 159.880365 
L 99.867284 157.212744 
L 100.750162 155.684296 
L 101.368177 154.980575 
L 101.897905 154.672438 
L 102.339344 154.658174 
L 102.780783 154.895392 
L 103.222223 155.415784 
L 103.75195 156.461336 
L 104.281677 158.021688 
L 104.899692 160.564967 
L 105.605995 164.502027 
L 106.400586 170.269412 
L 107.46004 179.850218 
L 109.314085 197.101683 
L 109.843812 200.105577 
L 110.196964 201.055707 
L 110.373539 201.142084 
L 110.550115 200.939403 
L 110.814979 200.051064 
L 111.16813 197.699175 
L 111.609569 192.812452 
L 112.139297 184.251712 
L 113.022175 165.563284 
L 114.08163 144.095341 
L 114.611357 137.368352 
L 114.964508 135.060952 
L 115.229372 134.532829 
L 115.405948 134.739829 
L 115.670811 135.839423 
L 116.023963 138.620924 
L 116.55369 144.984702 
L 117.613144 161.38828 
L 118.672598 176.497315 
L 119.378901 183.859402 
L 119.996916 188.261425 
L 120.526644 190.614269 
L 120.968083 191.686772 
L 121.321234 192.036099 
L 121.586098 192.036434 
L 121.850961 191.837268 
L 122.204113 191.298713 
L 122.73384 190.004293 
L 123.440143 187.600963 
L 124.587885 182.743908 
L 127.67796 169.265901 
L 128.91399 164.953929 
L 129.973445 161.998046 
L 130.944611 159.926874 
L 131.739202 158.689794 
L 132.445505 157.934604 
L 133.151808 157.504384 
L 133.769823 157.396707 
L 134.387838 157.541735 
L 135.005853 157.939275 
L 135.712156 158.698206 
L 136.506747 159.927048 
L 137.389625 161.732361 
L 138.44908 164.465379 
L 139.596822 168.060727 
L 141.009428 173.241371 
L 144.717518 187.335006 
L 145.423821 189.086112 
L 145.953548 189.903457 
L 146.306699 190.146569 
L 146.571563 190.143354 
L 146.836426 189.96249 
L 147.189578 189.415713 
L 147.631017 188.185614 
L 148.160744 185.813783 
L 148.690472 182.371162 
L 149.308487 176.9346 
L 150.103077 167.816379 
L 152.48685 138.20842 
L 152.840001 136.427148 
L 153.104865 136.051034 
L 153.28144 136.30764 
L 153.546304 137.498302 
L 153.899455 140.623718 
L 154.340895 146.899214 
L 154.95891 159.232251 
L 156.636379 195.11616 
L 157.166106 201.488348 
L 157.519258 203.687602 
L 157.784121 204.27864 
L 157.960697 204.199132 
L 158.137273 203.76843 
L 158.402136 202.52637 
L 158.843576 199.134057 
L 159.549879 191.422084 
L 161.757075 165.795686 
L 162.551666 159.530849 
L 163.257969 155.675735 
L 163.875984 153.531641 
L 164.405711 152.502486 
L 164.84715 152.141623 
L 165.200302 152.136855 
L 165.553453 152.353465 
L 165.994893 152.894365 
L 166.612908 154.069742 
L 167.407498 156.130596 
L 168.555241 159.833042 
L 170.850725 168.255031 
L 172.793058 174.977773 
L 174.117376 178.817494 
L 175.17683 181.280765 
L 176.059709 182.839961 
L 176.8543 183.813979 
L 177.472315 184.269386 
L 178.09033 184.445793 
L 178.620057 184.364595 
L 179.149784 184.058835 
L 179.767799 183.404205 
L 180.385814 182.412167 
L 181.092117 180.845189 
L 181.886708 178.512296 
L 182.769586 175.213655 
L 183.829041 170.338254 
L 185.241646 162.621847 
L 187.360555 150.889721 
L 188.066858 148.134692 
L 188.508297 147.076317 
L 188.861449 146.716899 
L 189.126312 146.784059 
L 189.391176 147.177747 
L 189.744327 148.267904 
L 190.185767 150.639443 
L 190.715494 155.104679 
L 191.333509 162.617788 
L 192.1281 175.425173 
L 193.717281 201.98495 
L 194.158721 206.103343 
L 194.423584 207.285248 
L 194.60016 207.471644 
L 194.776736 207.156183 
L 195.041599 205.731558 
L 195.394751 202.110188 
L 195.924478 193.480878 
L 196.807356 174.151914 
L 197.778523 153.99202 
L 198.396538 145.322371 
L 198.837977 141.682267 
L 199.191129 140.267247 
L 199.455992 140.004313 
L 199.632568 140.172249 
L 199.897432 140.882998 
L 200.250583 142.563529 
L 200.78031 146.275605 
L 201.751477 155.104855 
L 203.517234 171.168259 
L 204.4884 177.869393 
L 205.282991 181.897013 
L 205.989294 184.413951 
L 206.607309 185.865103 
L 207.137036 186.60552 
L 207.578476 186.900945 
L 208.019915 186.929936 
L 208.461354 186.715645 
L 208.991081 186.168636 
L 209.609096 185.177891 
L 210.403687 183.435295 
L 211.463142 180.482671 
L 212.964035 175.522376 
L 217.201853 161.059068 
L 218.349595 158.075474 
L 219.232473 156.344295 
L 219.938776 155.406482 
L 220.468503 155.011 
L 220.909943 154.90849 
L 221.351382 155.031848 
L 221.792821 155.398724 
L 222.322549 156.183858 
L 222.852276 157.370182 
L 223.470291 159.292336 
L 224.176594 162.234444 
L 224.971184 166.52029 
L 225.942351 173.102637 
L 227.354957 184.511838 
L 228.590987 193.979754 
L 229.209002 197.232291 
L 229.562153 198.28062 
L 229.827017 198.569173 
L 230.003593 198.490355 
L 230.268456 197.921802 
L 230.621608 196.241413 
L 231.063047 192.525956 
L 231.592774 185.613776 
L 232.299077 172.697656 
L 234.064834 137.93826 
L 234.506274 133.69692 
L 234.771137 132.68391 
L 234.947713 132.682227 
L 235.124289 133.2186 
L 235.389152 134.998055 
L 235.742304 139.030544 
L 236.272031 147.876202 
L 238.479227 188.892232 
L 239.008955 194.125838 
L 239.450394 196.664341 
L 239.803545 197.607713 
L 240.068409 197.751927 
L 240.244985 197.608225 
L 240.509848 197.072012 
L 240.951287 195.452267 
L 241.569303 192.042763 
L 242.540469 185.176645 
L 244.747666 169.34078 
L 245.80712 163.491561 
L 246.689999 159.794684 
L 247.484589 157.393814 
L 248.190892 155.973746 
L 248.720619 155.328568 
L 249.250347 155.022482 
L 249.691786 155.010733 
L 250.133225 155.205734 
L 250.662952 155.693185 
L 251.280967 156.581995 
L 252.075558 158.178651 
L 252.958437 160.476754 
L 254.106179 164.147709 
L 255.607073 169.774756 
L 259.138587 183.361899 
L 260.109754 186.148479 
L 260.816056 187.589926 
L 261.345784 188.251599 
L 261.787223 188.476331 
L 262.140374 188.413712 
L 262.493526 188.112622 
L 262.934965 187.367706 
L 263.376404 186.173599 
L 263.906132 184.091187 
L 264.524147 180.694446 
L 265.23045 175.482877 
L 266.113328 167.091508 
L 268.673676 140.764621 
L 269.115116 138.86963 
L 269.379979 138.601397 
L 269.556555 138.84005 
L 269.821418 139.879746 
L 270.17457 142.620609 
L 270.616009 148.279838 
L 271.234024 159.988263 
L 273.352933 204.622401 
L 273.706084 207.450377 
L 273.970948 208.157042 
L 274.059236 208.124491 
L 274.235812 207.669504 
L 274.500675 206.064658 
L 274.853827 202.404975 
L 275.471842 192.936197 
L 277.59075 157.401138 
L 278.208765 151.274471 
L 278.738492 148.011486 
L 279.179932 146.572771 
L 279.444795 146.207326 
L 279.709659 146.17486 
L 279.974523 146.441326 
L 280.327674 147.203121 
L 280.857401 149.060151 
L 281.563704 152.499157 
L 282.799734 159.867959 
L 284.918643 172.416731 
L 286.066385 177.877239 
L 287.037552 181.452111 
L 287.832142 183.609882 
L 288.538445 184.941334 
L 289.15646 185.657956 
L 289.686187 185.944071 
L 290.127627 185.954459 
L 290.569066 185.760467 
L 291.098793 185.262498 
L 291.716808 184.325248 
L 292.423111 182.804001 
L 293.217702 180.557464 
L 294.188868 177.12447 
L 295.424898 171.854738 
L 297.367231 162.374033 
L 299.044701 154.601115 
L 299.927579 151.52705 
L 300.545594 150.145168 
L 300.987034 149.681053 
L 301.251897 149.652399 
L 301.516761 149.834446 
L 301.869912 150.438163 
L 302.311352 151.835022 
L 302.752791 154.018099 
L 303.282518 157.758739 
L 303.900533 163.716501 
L 304.695124 173.693179 
L 306.814033 202.382126 
L 307.255472 205.149745 
L 307.520336 205.647897 
L 307.696911 205.426996 
L 307.961775 204.208203 
L 308.314926 200.870428 
L 308.756366 194.02511 
L 309.374381 180.391865 
L 310.963562 142.84453 
L 311.405001 136.962331 
L 311.758153 134.544156 
L 311.934729 134.1045 
L 312.023017 134.071035 
L 312.199592 134.361736 
L 312.464456 135.632343 
L 312.817607 138.679893 
L 313.347334 145.417377 
L 315.99597 183.201013 
L 316.613985 188.121343 
L 317.143713 190.837708 
L 317.585152 192.133883 
L 317.938303 192.604482 
L 318.203167 192.661504 
L 318.46803 192.490122 
L 318.821182 191.945271 
L 319.262621 190.828323 
L 319.880636 188.618525 
L 320.763515 184.559477 
L 322.529272 175.089461 
L 324.295029 166.060806 
L 325.442772 161.245169 
L 326.413938 158.069729 
L 327.208529 156.173628 
L 327.826544 155.17276 
L 328.356271 154.662226 
L 328.79771 154.489471 
L 329.23915 154.550952 
L 329.680589 154.849418 
L 330.210316 155.522427 
L 330.828331 156.742276 
L 331.534634 158.706305 
L 332.329225 161.628251 
L 333.300391 166.166279 
L 334.448133 172.687842 
L 337.626497 191.62882 
L 338.244512 193.747241 
L 338.597663 194.40119 
L 338.862527 194.56626 
L 339.12739 194.414923 
L 339.392254 193.913924 
L 339.745405 192.647622 
L 340.186845 190.011916 
L 340.716572 185.189508 
L 341.334587 177.255805 
L 342.217465 162.396656 
L 343.541783 139.67254 
L 343.983223 134.96961 
L 344.336374 133.196756 
L 344.51295 133.08682 
L 344.689525 133.530969 
L 344.954389 135.262517 
L 345.307541 139.531221 
L 345.837268 149.639418 
L 346.808434 174.48643 
L 347.691313 194.582558 
L 348.22104 202.020252 
L 348.574191 204.608305 
L 348.839055 205.325713 
L 349.015631 205.258086 
L 349.192206 204.786805 
L 349.45707 203.397195 
L 349.898509 199.57502 
L 350.604812 190.887215 
L 352.635433 164.329838 
L 353.430024 157.231749 
L 354.048039 153.442658 
L 354.577766 151.344047 
L 355.019205 150.335045 
L 355.372357 149.965227 
L 355.63722 149.919807 
L 355.902084 150.056527 
L 356.255235 150.496709 
L 356.696675 151.414136 
L 357.31469 153.273485 
L 358.109281 156.423207 
L 359.345311 162.386575 
L 362.611962 178.685452 
L 363.671416 182.768782 
L 364.554294 185.347477 
L 365.260597 186.766511 
L 365.790325 187.411069 
L 366.231764 187.652056 
L 366.584915 187.640427 
L 366.938067 187.439224 
L 367.379506 186.910615 
L 367.909233 185.853773 
L 368.527248 184.017145 
L 369.233551 181.10574 
L 370.028142 176.810736 
L 370.999308 170.232473 
L 372.500202 158.191654 
L 373.82452 148.168974 
L 374.442535 144.929683 
L 374.883974 143.645391 
L 375.148838 143.404793 
L 375.325414 143.498328 
L 375.590277 144.057675 
L 375.943429 145.658573 
L 376.384868 149.158924 
L 376.914595 155.669055 
L 377.53261 166.262813 
L 379.739807 207.513478 
L 380.092958 209.448547 
L 380.269534 209.511342 
L 380.44611 208.945669 
L 380.710973 206.921303 
L 381.064125 202.143185 
L 381.593852 191.310294 
L 383.624473 144.611709 
L 384.065912 139.757932 
L 384.419063 137.815577 
L 384.683927 137.417914 
L 384.860503 137.613261 
L 385.125366 138.525336 
L 385.478518 140.73178 
L 386.008245 145.639193 
L 386.979411 157.205956 
L 388.392017 173.676718 
L 389.274896 181.451025 
L 389.981199 185.874827 
L 390.599214 188.450355 
L 391.128941 189.759671 
L 391.57038 190.26997 
L 391.923532 190.329775 
L 392.276683 190.105162 
L 392.718122 189.460387 
L 393.24785 188.213512 
L 393.954153 185.876774 
L 394.837031 182.123813 
L 396.161349 175.422001 
L 399.163136 159.936118 
L 400.222591 155.769738 
L 401.017182 153.510059 
L 401.635197 152.393514 
L 402.076636 151.991927 
L 402.429787 151.932185 
L 402.782939 152.121693 
L 403.13609 152.575072 
L 403.57753 153.53303 
L 404.107257 155.284828 
L 404.725272 158.190902 
L 405.431575 162.660071 
L 406.314453 169.866731 
L 407.550483 182.140904 
L 408.874801 194.949035 
L 409.492816 198.988987 
L 409.845968 200.233989 
L 410.110831 200.516225 
L 410.287407 200.351465 
L 410.552271 199.522957 
L 410.905422 197.242216 
L 411.346861 192.377805 
L 411.876589 183.607042 
L 412.671179 165.749616 
L 413.907209 137.968065 
L 414.348649 132.334407 
L 414.613512 130.772664 
L 414.790088 130.560966 
L 414.966664 131.025468 
L 415.231527 132.967927 
L 415.584679 137.712723 
L 416.114406 148.498594 
L 418.145027 194.260995 
L 418.674754 199.913155 
L 419.027905 201.734471 
L 419.292769 202.159671 
L 419.469345 202.035729 
L 419.734208 201.301465 
L 420.08736 199.439465 
L 420.617087 195.192816 
L 421.499966 185.885668 
L 423.354011 166.111628 
L 424.236889 159.142701 
L 424.943192 155.118124 
L 425.561207 152.736083 
L 426.090934 151.506765 
L 426.532374 151.022249 
L 426.885525 150.966138 
L 427.238677 151.18594 
L 427.680116 151.820567 
L 428.209843 153.060437 
L 428.916146 155.417213 
L 429.799025 159.277343 
L 431.035055 165.864533 
L 434.478281 184.97591 
L 435.36116 188.360391 
L 435.979175 189.947655 
L 436.420614 190.596104 
L 436.773766 190.783499 
L 437.038629 190.713508 
L 437.391781 190.319236 
L 437.744932 189.559351 
L 438.186371 188.063141 
L 438.716099 185.422966 
L 439.334114 181.13843 
L 440.128704 173.768229 
L 441.188159 161.343337 
L 442.689052 143.587676 
L 443.21878 139.556036 
L 443.571931 138.198919 
L 443.748507 138.015331 
L 443.925083 138.201028 
L 444.189946 139.227672 
L 444.543098 142.093922 
L 444.984537 148.173743 
L 445.514264 158.8975 
L 446.485431 184.35427 
L 447.280021 202.90326 
L 447.721461 209.056855 
L 447.986324 210.77647 
L 448.1629 211.040191 
L 448.339476 210.594998 
L 448.604339 208.641743 
L 448.957491 203.860609 
L 449.487218 193.103049 
L 451.429551 149.630402 
L 451.959278 143.370562 
L 452.400717 140.650759 
L 452.665581 140.027972 
L 452.842157 139.994964 
L 453.018732 140.242621 
L 453.283596 141.090189 
L 453.725035 143.576065 
L 454.34305 148.706469 
L 455.490792 160.643892 
L 456.903398 174.787893 
L 457.786277 181.672786 
L 458.580868 186.178724 
L 459.198883 188.526666 
L 459.72861 189.745761 
L 460.170049 190.223397 
L 460.523201 190.269345 
L 460.876352 190.031169 
L 461.317791 189.356628 
L 461.847519 188.035457 
L 462.465534 185.859543 
L 463.260124 182.202026 
L 464.319579 176.167268 
L 466.438487 162.344217 
L 467.762805 154.552342 
L 468.557396 151.048008 
L 469.175411 149.27014 
L 469.61685 148.640815 
L 469.881714 148.557888 
L 470.146578 148.716714 
L 470.411441 149.133631 
L 470.764593 150.117468 
L 471.206032 152.079976 
L 471.735759 155.571119 
L 472.353774 161.245907 
L 473.148365 170.893274 
L 475.620425 203.310512 
L 475.973576 204.959126 
L 476.150152 205.170781 
L 476.326728 204.926706 
L 476.591592 203.643822 
L 476.944743 200.125647 
L 477.386182 192.807984 
L 478.004197 177.887249 
L 479.593379 136.249777 
L 480.034818 130.799498 
L 480.299682 129.691167 
L 480.38797 129.692389 
L 480.564545 130.241267 
L 480.829409 132.368722 
L 481.18256 137.364478 
L 481.800575 150.373439 
L 483.478045 188.187368 
L 484.007772 195.348462 
L 484.449211 198.90477 
L 484.802363 200.254816 
L 484.978938 200.472764 
L 485.155514 200.410887 
L 485.420378 199.838254 
L 485.773529 198.291343 
L 486.303256 194.641067 
L 487.097847 187.243329 
L 489.658195 162.123246 
L 490.452786 156.655209 
L 491.159089 153.180426 
L 491.688816 151.461062 
L 492.130255 150.60543 
L 492.483407 150.290547 
L 492.74827 150.264397 
L 493.101422 150.501162 
L 493.454573 151.037399 
L 493.896012 152.108463 
L 494.514028 154.303327 
L 495.22033 157.697608 
L 496.191497 163.62044 
L 497.604103 173.848981 
L 499.458148 187.040095 
L 500.252739 191.258294 
L 500.782466 193.15687 
L 501.223905 194.015821 
L 501.488769 194.16425 
L 501.753632 194.007698 
L 502.018496 193.522846 
L 502.371647 192.328449 
L 502.813087 189.894013 
L 503.342814 185.518325 
L 503.960829 178.405841 
L 504.75542 166.518443 
L 506.521177 138.801524 
L 506.962616 135.10815 
L 507.22748 134.206172 
L 507.315768 134.158706 
L 507.492343 134.472009 
L 507.757207 136.016402 
L 508.110358 140.162207 
L 508.551798 148.612768 
L 509.169813 165.313495 
L 510.494131 202.721264 
L 510.93557 209.558068 
L 511.200433 211.435315 
L 511.377009 211.719015 
L 511.553585 211.241895 
L 511.818449 209.176852 
L 512.1716 204.204677 
L 512.701327 193.254209 
L 514.555372 151.793804 
L 515.085099 145.081664 
L 515.526539 141.875625 
L 515.87969 140.774487 
L 516.056266 140.669171 
L 516.232842 140.835771 
L 516.497705 141.551227 
L 516.850857 143.26423 
L 517.380584 147.120562 
L 518.175175 154.760929 
L 520.647235 179.656021 
L 521.441825 185.313781 
L 522.148128 188.867439 
L 522.677856 190.571548 
L 523.119295 191.357472 
L 523.472446 191.575823 
L 523.73731 191.504533 
L 524.090461 191.103425 
L 524.531901 190.126387 
L 525.061628 188.292839 
L 525.679643 185.316747 
L 526.474234 180.345534 
L 527.533688 172.219713 
L 530.270612 150.464611 
L 530.888627 147.298387 
L 531.330066 145.898074 
L 531.683217 145.411515 
L 531.859793 145.406063 
L 532.124657 145.72133 
L 532.38952 146.450794 
L 532.742672 148.11269 
L 533.184111 151.363953 
L 533.713838 157.04011 
L 534.420141 167.450843 
L 535.656171 190.292972 
L 536.450762 203.040136 
L 536.892201 207.214979 
L 537.157065 208.217715 
L 537.245353 208.262893 
L 537.421929 207.888799 
L 537.686792 206.112193 
L 538.039944 201.411852 
L 538.481383 191.975639 
L 539.187686 170.911281 
L 540.24714 139.451725 
L 540.688579 131.708773 
L 541.041731 129.023868 
L 541.218307 128.904205 
L 541.394882 129.577065 
L 541.659746 131.975272 
L 542.012897 137.417895 
L 542.630912 151.182669 
L 544.131806 186.459267 
L 544.749821 195.465821 
L 545.19126 199.179227 
L 545.544412 200.589683 
L 545.720988 200.814903 
L 545.897563 200.744833 
L 546.162427 200.131153 
L 546.515578 198.477614 
L 547.045306 194.566067 
L 547.839896 186.59709 
L 550.400244 159.460512 
L 551.194835 153.771617 
L 551.81285 150.735148 
L 552.342577 149.153036 
L 552.695729 148.627332 
L 552.960592 148.509119 
L 553.225456 148.624589 
L 553.578607 149.135158 
L 554.020047 150.328529 
L 554.549774 152.531657 
L 555.256077 156.656149 
L 556.138955 163.395839 
L 557.463273 175.554758 
L 559.052455 189.754163 
L 559.758758 194.298796 
L 560.288485 196.366085 
L 560.641636 196.924234 
L 560.818212 196.92155 
L 560.994788 196.715921 
L 561.259651 196.004025 
L 561.612803 194.253415 
L 562.054242 190.700173 
L 562.583969 184.384718 
L 563.290272 172.750049 
L 565.409181 134.290417 
L 565.762332 131.990261 
L 565.938908 131.763852 
L 566.115484 132.216857 
L 566.380347 134.237283 
L 566.733499 139.478506 
L 567.174938 149.841801 
L 567.969529 175.477463 
L 568.852407 202.353512 
L 569.293847 210.273455 
L 569.55871 212.517118 
L 569.735286 212.918358 
L 569.823574 212.794697 
L 570.00015 211.920252 
L 570.265013 209.143742 
L 570.706453 201.253447 
L 571.501043 181.139554 
L 572.560498 155.215634 
L 573.178513 145.251124 
L 573.619952 141.105692 
L 573.973103 139.521022 
L 574.149679 139.264594 
L 574.326255 139.338639 
L 574.591118 140.019351 
L 574.94427 141.862124 
L 575.473997 146.222197 
L 576.268588 155.067907 
L 578.564072 181.872149 
L 579.358663 188.225584 
L 579.976678 191.542473 
L 580.418117 192.985469 
L 580.771269 193.576164 
L 581.036132 193.691776 
L 581.300996 193.530239 
L 581.654147 192.892518 
L 582.095587 191.440258 
L 582.625314 188.794653 
L 583.331617 183.900058 
L 584.214495 176.0271 
L 587.304571 146.50496 
L 587.834298 143.962705 
L 588.187449 143.17616 
L 588.364025 143.096846 
L 588.540601 143.244215 
L 588.805464 143.916422 
L 589.158616 145.709081 
L 589.600055 149.473887 
L 590.129782 156.267958 
L 590.836085 168.828325 
L 592.778418 206.679844 
L 593.13157 209.545948 
L 593.308145 210.013256 
L 593.396433 209.98057 
L 593.573009 209.355527 
L 593.837872 206.967321 
L 594.191024 201.055153 
L 594.720751 186.945587 
L 596.574796 130.606969 
L 596.927948 127.378119 
L 597.104523 127.19302 
L 597.281099 127.940657 
L 597.545963 130.699791 
L 597.899114 137.016948 
L 598.517129 152.937504 
L 599.841447 188.335583 
L 600.371174 197.357226 
L 600.812614 201.731071 
L 601.165765 203.228113 
L 601.342341 203.358484 
L 601.518916 203.109445 
L 601.78378 202.085993 
L 602.136931 199.666521 
L 602.666659 194.280919 
L 603.549537 182.583468 
L 605.227007 160.232031 
L 606.021597 152.575167 
L 606.639612 148.571175 
L 607.081052 146.839265 
L 607.434203 146.141298 
L 607.699067 146.016077 
L 607.96393 146.22648 
L 608.228794 146.764684 
L 608.581945 147.974353 
L 609.111673 150.779346 
L 609.729688 155.392879 
L 610.612566 163.964733 
L 613.614354 195.269496 
L 614.144081 197.934582 
L 614.497232 198.682854 
L 614.673808 198.704034 
L 614.850384 198.471841 
L 615.115247 197.622217 
L 615.468399 195.50185 
L 615.909838 191.195464 
L 616.439565 183.610272 
L 617.145868 169.950233 
L 618.823337 135.405364 
L 619.176489 131.721674 
L 619.441352 130.660129 
L 619.52964 130.673225 
L 619.706216 131.286817 
L 619.97108 133.733931 
L 620.324231 139.877711 
L 620.76567 151.792005 
L 621.648549 183.66072 
L 622.354852 205.959112 
L 622.796291 213.597236 
L 623.061155 215.116698 
L 623.149443 215.093507 
L 623.326018 214.268052 
L 623.590882 211.1862 
L 623.944033 204.098199 
L 624.562048 186.269713 
L 625.798079 149.98798 
L 626.327806 140.489804 
L 626.680957 136.931033 
L 626.945821 135.688243 
L 627.122396 135.49811 
L 627.298972 135.78327 
L 627.563836 137.023888 
L 627.916987 139.988165 
L 628.446714 146.568534 
L 629.506169 163.52642 
L 630.742199 182.276522 
L 631.448502 190.046244 
L 631.978229 193.980732 
L 632.419668 195.938081 
L 632.77282 196.63407 
L 632.949395 196.696508 
L 633.125971 196.572524 
L 633.390835 196.045741 
L 633.743986 194.733067 
L 634.185425 192.179154 
L 634.80344 187.106004 
L 635.598031 178.584963 
L 638.423243 146.068042 
L 638.95297 142.916088 
L 639.306121 141.902696 
L 639.482697 141.768238 
L 639.659273 141.900295 
L 639.924136 142.624375 
L 640.277288 144.622414 
L 640.718727 148.843861 
L 641.248454 156.414956 
L 641.954757 170.177875 
L 643.632227 205.368233 
L 644.073666 209.790496 
L 644.250242 210.395206 
L 644.33853 210.414673 
L 644.515105 209.855242 
L 644.779969 207.452658 
L 645.13312 201.273061 
L 645.57456 189.114358 
L 646.457438 156.142203 
L 647.163741 133.109496 
L 647.516893 126.587735 
L 647.781756 124.643601 
L 647.870044 124.587672 
L 648.04662 125.361095 
L 648.311483 128.644642 
L 648.664635 136.50639 
L 649.28265 156.653485 
L 650.430392 194.457289 
L 650.960119 204.581308 
L 651.313271 207.816076 
L 651.489846 208.403192 
L 651.578134 208.452348 
L 651.75471 208.087779 
L 652.019574 206.475449 
L 652.372725 202.626657 
L 652.902452 194.180478 
L 655.374512 150.323799 
L 655.90424 145.350429 
L 656.345679 142.980171 
L 656.610542 142.33074 
L 656.787118 142.212149 
L 656.963694 142.338258 
L 657.228557 142.970088 
L 657.581709 144.592259 
L 658.023148 147.755036 
L 658.641163 153.957215 
L 659.61233 166.530032 
L 661.466375 191.10577 
L 662.08439 196.614637 
L 662.525829 198.9899 
L 662.790693 199.67041 
L 662.967268 199.784356 
L 663.143844 199.612305 
L 663.408708 198.795862 
L 663.761859 196.626618 
L 664.203299 192.145807 
L 664.733026 184.263552 
L 665.439329 170.228198 
L 667.02851 136.837377 
L 667.469949 132.017788 
L 667.734813 131.054205 
L 667.823101 131.104198 
L 667.999677 131.8001 
L 668.26454 134.400378 
L 668.617692 140.834792 
L 669.059131 153.322059 
L 669.94201 187.040761 
L 670.648312 210.269728 
L 671.001464 216.388742 
L 671.17804 217.589037 
L 671.266328 217.69478 
L 671.354615 217.467366 
L 671.531191 216.020532 
L 671.796055 211.476525 
L 672.237494 198.542307 
L 674.091539 134.036027 
L 674.444691 129.802804 
L 674.621266 129.06536 
L 674.709554 129.027508 
L 674.88613 129.580219 
L 675.150993 131.852967 
L 675.504145 137.154336 
L 676.12216 150.644014 
L 677.711341 187.723295 
L 678.329356 196.719664 
L 678.770796 200.394939 
L 679.123947 201.671352 
L 679.300523 201.774899 
L 679.477099 201.537946 
L 679.741962 200.577161 
L 680.095114 198.258636 
L 680.624841 192.885751 
L 681.331144 183.129856 
L 683.803204 146.707982 
L 684.332931 142.473019 
L 684.686083 140.954304 
L 684.950946 140.578066 
L 685.127522 140.71049 
L 685.392385 141.503344 
L 685.745537 143.692161 
L 686.186976 148.241673 
L 686.716703 156.200904 
L 687.511294 172.146537 
L 689.012188 203.108255 
L 689.453627 208.000317 
L 689.718491 209.12401 
L 689.806779 209.148976 
L 689.983354 208.635405 
L 690.248218 206.384176 
L 690.601369 200.521167 
L 691.042809 188.783741 
L 691.749112 162.721498 
L 692.63199 131.395795 
L 692.985142 124.462849 
L 693.250005 122.647716 
L 693.338293 122.752595 
L 693.514869 124.054412 
L 693.779732 128.689103 
L 694.132884 139.37543 
L 694.750899 166.191503 
L 695.633777 203.215583 
L 696.075217 213.451657 
L 696.34008 215.92266 
L 696.428368 216.128068 
L 696.516656 216.033144 
L 696.693232 214.978613 
L 696.958095 211.418264 
L 697.399535 201.260128 
L 698.282413 173.328874 
L 699.077004 150.598261 
L 699.606731 140.612797 
L 700.048171 136.182434 
L 700.313034 135.220632 
L 700.401322 135.17075 
L 700.577898 135.45836 
L 700.842761 136.80089 
L 701.195913 140.106294 
L 701.72564 147.66093 
L 702.608519 164.318441 
L 703.932837 189.011801 
L 704.550852 196.969655 
L 704.992291 200.443363 
L 705.345442 201.711439 
L 705.522018 201.81533 
L 705.698594 201.558835 
L 705.963457 200.495627 
L 706.316609 197.826931 
L 706.758048 192.576898 
L 707.376063 182.125207 
L 708.435517 159.22305 
L 709.318396 141.503537 
L 709.848123 134.815309 
L 710.112987 133.257386 
L 710.289563 133.010225 
L 710.466138 133.450607 
L 710.731002 135.47659 
L 711.084153 140.819304 
L 711.525593 151.622598 
L 712.231896 176.155974 
L 713.203062 209.851476 
L 713.556213 216.558494 
L 713.821077 218.204308 
L 713.909365 218.027487 
L 714.085941 216.537987 
L 714.350804 211.462619 
L 714.703956 199.790589 
L 715.321971 170.243845 
L 716.116561 133.393559 
L 716.469713 123.978701 
L 716.734577 121.049158 
L 716.822864 120.895817 
L 716.911152 121.149511 
L 717.087728 122.839325 
L 717.352592 128.093384 
L 717.794031 142.549735 
L 719.383212 202.452808 
L 719.824652 209.81309 
L 720.089515 211.428155 
L 720.177803 211.51567 
L 720.266091 211.387138 
L 720.442667 210.510986 
L 720.70753 207.777407 
L 721.14897 200.102915 
L 721.855273 182.779569 
L 723.17959 150.070011 
L 723.709318 141.573556 
L 724.150757 137.556886 
L 724.415621 136.581096 
L 724.592196 136.53419 
L 724.768772 136.964546 
L 725.033636 138.481097 
L 725.386787 142.038681 
L 725.916514 150.255269 
L 726.711105 167.146601 
L 728.123711 198.027782 
L 728.653438 205.020272 
L 729.006589 207.083037 
L 729.183165 207.200178 
L 729.359741 206.662746 
L 729.624604 204.581094 
L 729.977756 199.386557 
L 730.419195 189.182314 
L 731.125498 166.330413 
L 732.184952 131.893141 
L 732.538104 125.724401 
L 732.802967 124.25333 
L 732.891255 124.447991 
L 733.067831 125.925451 
L 733.332695 130.91417 
L 733.685846 142.519744 
L 734.303861 172.755455 
L 735.098452 211.568497 
L 735.451603 221.003478 
L 735.628179 222.889146 
L 735.716467 223.067561 
L 735.804755 222.7304 
L 735.98133 220.52791 
L 736.246194 213.628663 
L 736.687633 194.495148 
L 738.011951 130.753695 
L 738.365103 123.781393 
L 738.541678 122.625491 
L 738.629966 122.61918 
L 738.806542 123.698085 
L 739.071406 127.812612 
L 739.512845 139.955862 
L 741.455178 203.883822 
L 741.808329 208.427192 
L 742.073193 209.704652 
L 742.161481 209.731518 
L 742.338057 209.207054 
L 742.60292 207.049632 
L 742.956072 201.886256 
L 743.485799 190.304975 
L 745.604707 138.073341 
L 745.957859 134.347619 
L 746.222722 133.239085 
L 746.31101 133.209502 
L 746.487586 133.672783 
L 746.75245 135.68384 
L 747.105601 140.777879 
L 747.54704 150.693529 
L 748.253343 172.494237 
L 749.312798 205.507856 
L 749.754237 213.165747 
L 750.019101 214.624448 
L 750.107388 214.505394 
L 750.283964 213.302477 
L 750.548828 209.015306 
L 750.901979 198.740306 
L 751.431706 175.292563 
L 752.491161 125.299552 
L 752.844312 118.035397 
L 752.9326 117.510946 
L 753.020888 117.547393 
L 753.197464 119.341284 
L 753.462327 126.290466 
L 753.815479 142.599234 
L 755.316372 223.012304 
L 755.492948 225.101852 
L 755.581236 225.231737 
L 755.757812 223.693748 
L 756.022675 217.20623 
L 756.464114 197.706024 
L 757.788432 131.552648 
L 758.141584 124.232013 
L 758.31816 122.956479 
L 758.406447 122.904895 
L 758.583023 123.925037 
L 758.847887 128.041191 
L 759.289326 140.467837 
L 760.172205 175.214216 
L 760.878508 199.486584 
L 761.319947 208.673682 
L 761.58481 211.356471 
L 761.761386 211.903289 
L 761.849674 211.803492 
L 762.02625 210.868652 
L 762.291113 207.69691 
L 762.644265 200.471841 
L 763.173992 184.637679 
L 764.763174 133.374236 
L 765.116325 128.459731 
L 765.292901 127.611347 
L 765.381189 127.621901 
L 765.557764 128.541903 
L 765.822628 132.20384 
L 766.175779 141.230261 
L 766.705506 162.177841 
L 767.941537 215.57021 
L 768.2064 220.572586 
L 768.382976 221.507685 
L 768.471264 221.185942 
L 768.647839 218.897843 
L 768.912703 211.33781 
L 769.265854 194.233085 
L 770.67846 114.043348 
L 770.855036 112.277992 
L 770.943324 112.59686 
L 771.1199 115.662828 
L 771.384763 126.021574 
L 771.826202 155.056174 
L 772.709081 216.840868 
L 773.062233 227.46684 
L 773.15052 228.22838 
L 773.238808 228.218103 
L 773.415384 225.945227 
L 773.680248 217.403981 
L 774.121687 193.109441 
L 775.181141 130.56103 
L 775.534293 121.077832 
L 775.710868 119.476791 
L 775.799156 119.463422 
L 775.975732 120.955631 
L 776.240596 126.693464 
L 776.682035 143.640374 
L 778.182929 210.947415 
L 778.53608 216.694691 
L 778.712656 217.208658 
L 778.889231 216.11834 
L 779.154095 211.566603 
L 779.507246 200.606462 
L 780.125262 172.198105 
L 781.00814 131.737667 
L 781.361292 123.067552 
L 781.537867 121.382893 
L 781.626155 121.278072 
L 781.802731 122.605426 
L 782.067594 128.480522 
L 782.420746 143.107503 
L 783.038761 181.203898 
L 783.656776 217.123406 
L 784.009927 226.862429 
L 784.098215 227.431405 
L 784.186503 227.172787 
L 784.363079 224.098595 
L 784.627942 213.167597 
L 785.069382 181.106325 
L 785.95226 113.158801 
L 786.217124 106.835768 
L 786.305412 107.040443 
L 786.481988 111.029932 
L 786.746851 125.417037 
L 787.276578 174.188942 
L 787.894593 225.987605 
L 788.159457 234.631128 
L 788.247745 235.11066 
L 788.336033 234.371953 
L 788.512608 229.369234 
L 788.777472 214.114141 
L 789.395487 159.273188 
L 789.925214 120.23989 
L 790.190078 111.480632 
L 790.278366 110.508401 
L 790.366654 110.522948 
L 790.543229 113.432239 
L 790.808093 124.323171 
L 791.249532 154.832872 
L 792.132411 217.057495 
L 792.397274 225.369637 
L 792.57385 226.864025 
L 792.662138 226.353714 
L 792.838714 222.859872 
L 793.103577 211.89572 
L 793.545017 182.246134 
L 794.427895 121.095749 
L 794.692759 113.628896 
L 794.781047 112.954396 
L 794.869335 113.247766 
L 795.04591 116.778882 
L 795.310774 129.165629 
L 795.752213 164.483232 
L 796.458516 224.082929 
L 796.72338 233.667947 
L 796.811667 234.253699 
L 796.899955 233.414983 
L 797.076531 227.383229 
L 797.341395 208.051746 
L 798.489137 99.128771 
L 798.577425 99.124498 
L 798.754 105.515239 
L 799.018864 130.046533 
L 799.990031 247.466435 
L 800.078318 248.537442 
L 800.166606 246.857698 
L 800.343182 235.386566 
L 800.696333 186.583096 
L 801.314348 96.688372 
L 801.490924 89.544113 
L 801.579212 90.591625 
L 801.755788 101.838507 
L 802.108939 153.291761 
L 802.726954 246.998416 
L 802.90353 252.911808 
L 802.991818 250.745308 
L 803.168394 236.427146 
L 803.521545 177.463055 
L 804.051272 90.780273 
L 804.227848 84.925857 
L 804.404424 96.028367 
L 804.669287 141.359723 
L 805.287302 262.189377 
L 805.37559 264.354882 
L 805.463878 260.068815 
L 805.640454 231.978321 
L 806.346757 63.145929 
L 806.523332 95.811597 
L 807.053059 295.735504 
L 807.141347 284.850017 
L 807.317923 194.528638 
L 807.582787 36.163084 
L 807.671075 43.460884 
L 808.024226 296.063364 
L 808.112514 269.366048 
L 808.377377 78.092851 
L 808.465665 104.124971 
L 808.730529 229.314675 
L 808.995392 132.903752 
L 809.08368 141.052516 
L 809.348544 193.270566 
L 809.613407 155.885647 
L 809.701695 160.267428 
L 809.966559 178.761515 
L 810.231423 164.951872 
L 810.496286 173.767464 
L 810.584574 173.413884 
L 810.849438 168.454382 
L 811.114301 171.810396 
L 811.114301 171.810396 
" clip-path="url(#p79bee03dbf)" style="fill: none; stroke: #1f77b4; stroke-width: 0.6; stroke-linecap: square"/>
   </g>
   <g id="line2d_28">
    <path d="M 88.301574 170.878445 
L 89.979043 175.697008 
L 91.303361 178.845488 
L 92.362816 180.839998 
L 93.245694 182.089765 
L 94.040285 182.862839 
L 94.746588 183.253764 
L 95.364603 183.357772 
L 95.982618 183.231288 
L 96.600633 182.864478 
L 97.218648 182.245085 
L 97.924951 181.210051 
L 98.719542 179.604992 
L 99.60242 177.253318 
L 100.573587 173.978503 
L 101.721329 169.251636 
L 103.222223 162.008702 
L 105.341131 151.79049 
L 106.047434 149.356585 
L 106.577161 148.24525 
L 106.930313 147.959016 
L 107.195176 148.029934 
L 107.46004 148.377415 
L 107.813191 149.319918 
L 108.254631 151.357177 
L 108.784358 155.197213 
L 109.402373 161.71546 
L 110.196964 173.077098 
L 112.139297 202.875511 
L 112.580736 206.066512 
L 112.8456 206.730912 
L 112.933887 206.725386 
L 113.110463 206.363677 
L 113.375327 204.938797 
L 113.728478 201.44071 
L 114.258205 193.211709 
L 115.141084 174.785303 
L 116.200538 153.826515 
L 116.818553 145.72344 
L 117.259993 142.321447 
L 117.613144 140.987307 
L 117.878008 140.723958 
L 118.054583 140.864878 
L 118.319447 141.499127 
L 118.672598 143.020416 
L 119.202326 146.403455 
L 120.085204 153.71831 
L 122.027537 170.12904 
L 122.998704 176.407756 
L 123.793294 180.271733 
L 124.499597 182.775063 
L 125.2059 184.480218 
L 125.823915 185.389228 
L 126.353642 185.783521 
L 126.795082 185.867624 
L 127.236521 185.749324 
L 127.766248 185.36445 
L 128.384263 184.616233 
L 129.178854 183.248235 
L 130.150021 181.080969 
L 131.474338 177.51846 
L 133.769823 170.567881 
L 136.241883 163.280434 
L 137.566201 160.004569 
L 138.625655 157.932824 
L 139.420246 156.803234 
L 140.126549 156.17465 
L 140.656276 155.972379 
L 141.097715 156.000444 
L 141.539155 156.222433 
L 142.068882 156.763854 
L 142.598609 157.626092 
L 143.216624 159.064913 
L 143.922927 161.316626 
L 144.717518 164.667753 
L 145.600396 169.431275 
L 146.659851 176.476885 
L 149.396774 195.526541 
L 149.838214 197.138456 
L 150.191365 197.725567 
L 150.367941 197.739405 
L 150.544517 197.544903 
L 150.80938 196.828511 
L 151.162532 195.007992 
L 151.603971 191.226182 
L 152.133698 184.415582 
L 152.840001 171.940203 
L 154.605758 138.69554 
L 155.047198 134.516398 
L 155.312061 133.425023 
L 155.488637 133.321591 
L 155.665213 133.718099 
L 155.930076 135.222459 
L 156.283228 138.788919 
L 156.812955 146.816646 
L 159.285015 189.039868 
L 159.814742 193.475236 
L 160.256182 195.586827 
L 160.609333 196.34805 
L 160.874197 196.442494 
L 161.13906 196.178183 
L 161.492212 195.345063 
L 161.933651 193.674174 
L 162.639954 189.9691 
L 163.964272 181.435768 
L 165.641741 170.973322 
L 166.789483 165.222694 
L 167.76065 161.473386 
L 168.555241 159.180511 
L 169.261543 157.714058 
L 169.879558 156.854493 
L 170.497574 156.368787 
L 171.027301 156.230934 
L 171.557028 156.331569 
L 172.086755 156.652761 
L 172.70477 157.283568 
L 173.499361 158.463097 
L 174.382239 160.211065 
L 175.441694 162.841991 
L 176.766012 166.794414 
L 178.708345 173.405896 
L 181.268693 182.037773 
L 182.328147 184.916351 
L 183.122738 186.528884 
L 183.740753 187.343137 
L 184.182192 187.635974 
L 184.535344 187.670093 
L 184.888495 187.505307 
L 185.329934 186.98835 
L 185.771374 186.087158 
L 186.301101 184.440491 
L 186.919116 181.658497 
L 187.625419 177.255492 
L 188.42001 170.731982 
L 189.479464 159.917893 
L 191.068645 143.577179 
L 191.598373 140.138485 
L 191.951524 139.010742 
L 192.1281 138.878445 
L 192.304675 139.067084 
L 192.569539 139.997834 
L 192.92269 142.528173 
L 193.36413 147.822853 
L 193.893857 157.075131 
L 194.865023 179.044237 
L 195.747902 197.434098 
L 196.277629 204.388531 
L 196.630781 206.681119 
L 196.807356 207.090596 
L 196.895644 207.11369 
L 197.07222 206.807076 
L 197.337084 205.512577 
L 197.690235 202.407372 
L 198.219962 195.49068 
L 200.868598 156.766701 
L 201.486613 151.988282 
L 202.01634 149.473323 
L 202.45778 148.372576 
L 202.810931 148.062647 
L 203.075795 148.123348 
L 203.428946 148.546647 
L 203.870385 149.543737 
L 204.4884 151.622159 
L 205.371279 155.508661 
L 209.785672 176.350667 
L 210.845127 179.795979 
L 211.728005 181.985127 
L 212.522596 183.412629 
L 213.228899 184.24755 
L 213.846914 184.641661 
L 214.376641 184.728422 
L 214.906368 184.583073 
L 215.436095 184.206652 
L 216.05411 183.479639 
L 216.760413 182.280175 
L 217.555004 180.483375 
L 218.526171 177.689261 
L 219.673913 173.62522 
L 221.086519 167.708013 
L 224.441457 153.216809 
L 225.14776 151.189066 
L 225.677487 150.237929 
L 226.030639 149.951583 
L 226.295502 149.950874 
L 226.560366 150.15514 
L 226.913517 150.779927 
L 227.354957 152.19004 
L 227.796396 154.372831 
L 228.326123 158.09753 
L 228.944138 164.020784 
L 229.738729 173.941367 
L 231.857638 202.431259 
L 232.299077 205.152773 
L 232.563941 205.638187 
L 232.740516 205.42038 
L 233.00538 204.231301 
L 233.358531 200.996549 
L 233.799971 194.411258 
L 234.417986 181.404654 
L 236.007167 145.539526 
L 236.536894 138.706386 
L 236.890046 136.381775 
L 237.154909 135.799796 
L 237.331485 135.932825 
L 237.596349 136.847643 
L 237.9495 139.229659 
L 238.479227 144.691955 
L 239.538682 158.84754 
L 240.774712 174.39402 
L 241.569303 181.781445 
L 242.275605 186.323694 
L 242.805333 188.537277 
L 243.246772 189.674112 
L 243.688211 190.237757 
L 244.041363 190.323218 
L 244.394514 190.122916 
L 244.835953 189.523677 
L 245.365681 188.376473 
L 246.071983 186.280125 
L 247.131438 182.30995 
L 249.162059 173.545672 
L 251.016104 165.931579 
L 252.252134 161.694182 
L 253.311588 158.8214 
L 254.194467 157.065851 
L 254.90077 156.128339 
L 255.518785 155.673215 
L 256.048512 155.567388 
L 256.489951 155.68679 
L 257.019678 156.087101 
L 257.549406 156.776542 
L 258.167421 157.958355 
L 258.873724 159.821247 
L 259.668314 162.579065 
L 260.639481 166.874997 
L 261.787223 173.101837 
L 265.23045 192.843948 
L 265.760177 194.36233 
L 266.113328 194.810755 
L 266.378192 194.790762 
L 266.643055 194.425298 
L 266.996207 193.340542 
L 267.437646 190.920374 
L 267.967373 186.314082 
L 268.585388 178.532824 
L 269.379979 165.274998 
L 270.880873 139.236619 
L 271.322312 134.747733 
L 271.587176 133.385615 
L 271.763751 133.108316 
L 271.852039 133.168003 
L 272.028615 133.692545 
L 272.293479 135.49581 
L 272.64663 139.727075 
L 273.176357 149.409417 
L 274.324099 176.670625 
L 275.11869 192.544406 
L 275.648417 199.234606 
L 276.089857 202.11487 
L 276.35472 202.723082 
L 276.531296 202.701257 
L 276.707872 202.366004 
L 276.972735 201.334817 
L 277.414175 198.446181 
L 278.03219 192.688227 
L 280.945689 163.138169 
L 281.74028 158.122836 
L 282.446583 155.074519 
L 282.97631 153.594798 
L 283.506037 152.739256 
L 283.947476 152.456071 
L 284.300628 152.483827 
L 284.653779 152.717502 
L 285.095219 153.272003 
L 285.713234 154.47849 
L 286.507824 156.639537 
L 287.567279 160.308777 
L 289.15646 166.761075 
L 291.981672 178.288326 
L 293.217702 182.380939 
L 294.10058 184.647209 
L 294.806883 185.961794 
L 295.424898 186.685856 
L 295.866338 186.929186 
L 296.307777 186.922267 
L 296.749216 186.645878 
L 297.190656 186.081744 
L 297.720383 185.001763 
L 298.338398 183.156472 
L 299.044701 180.244979 
L 299.839292 175.935522 
L 300.810458 169.267027 
L 302.223064 157.633874 
L 303.547382 147.218732 
L 304.165397 143.907539 
L 304.518548 142.836771 
L 304.783412 142.535795 
L 304.959988 142.608095 
L 305.224851 143.169145 
L 305.578003 144.843521 
L 306.019442 148.559708 
L 306.549169 155.495948 
L 307.255472 168.526123 
L 309.021229 203.979874 
L 309.462669 208.225391 
L 309.727532 209.131003 
L 309.81582 209.141812 
L 309.992396 208.722825 
L 310.257259 207.01145 
L 310.610411 202.846321 
L 311.140138 193.334647 
L 313.347334 148.490596 
L 313.877062 143.338113 
L 314.230213 141.524399 
L 314.495077 140.945758 
L 314.671652 140.899348 
L 314.848228 141.101295 
L 315.113092 141.824131 
L 315.554531 143.971731 
L 316.172546 148.422779 
L 317.320288 158.818174 
L 318.821182 172.000016 
L 319.792348 178.672675 
L 320.586939 182.754997 
L 321.293242 185.334933 
L 321.911257 186.816392 
L 322.440984 187.54356 
L 322.882424 187.791437 
L 323.235575 187.770203 
L 323.677014 187.487768 
L 324.206741 186.803854 
L 324.824757 185.58113 
L 325.619347 183.43289 
L 326.590514 180.09573 
L 327.914832 174.644282 
L 332.064361 156.808196 
L 332.94724 154.213232 
L 333.565255 152.953154 
L 334.094982 152.324052 
L 334.448133 152.169778 
L 334.801285 152.250101 
L 335.154436 152.584169 
L 335.595876 153.387117 
L 336.125603 154.961658 
L 336.743618 157.70753 
L 337.449921 162.113493 
L 338.244512 168.682266 
L 339.303966 179.628571 
L 340.981435 197.200012 
L 341.511162 200.666764 
L 341.864314 201.803327 
L 342.04089 201.93644 
L 342.217465 201.74509 
L 342.482329 200.800334 
L 342.83548 198.220928 
L 343.27692 192.781821 
L 343.806647 183.165647 
L 344.689525 162.124818 
L 345.660692 140.367579 
L 346.102131 134.247587 
L 346.455283 131.878176 
L 346.631858 131.598308 
L 346.808434 131.92127 
L 347.073298 133.493649 
L 347.426449 137.430611 
L 347.956176 146.405606 
L 350.251661 189.729337 
L 350.781388 194.744602 
L 351.222827 197.080076 
L 351.575979 197.855419 
L 351.752554 197.916202 
L 351.92913 197.779094 
L 352.193994 197.236345 
L 352.547145 195.96499 
L 353.076872 193.128183 
L 353.871463 187.504665 
L 356.87325 164.910771 
L 357.844417 159.751592 
L 358.639008 156.668002 
L 359.345311 154.802481 
L 359.875038 153.932883 
L 360.316477 153.542774 
L 360.757916 153.444896 
L 361.199356 153.626892 
L 361.640795 154.075868 
L 362.170522 154.948495 
L 362.788537 156.397254 
L 363.583128 158.88003 
L 364.554294 162.729987 
L 365.790325 168.6104 
L 369.586703 187.428233 
L 370.293006 189.669684 
L 370.822733 190.746377 
L 371.175884 191.1118 
L 371.440748 191.17509 
L 371.705611 191.040302 
L 372.058763 190.525301 
L 372.411914 189.593731 
L 372.853354 187.791861 
L 373.383081 184.622968 
L 374.001096 179.472562 
L 374.795686 170.637396 
L 376.031717 153.641375 
L 377.002883 141.413243 
L 377.53261 137.289965 
L 377.797474 136.337977 
L 377.97405 136.198212 
L 378.150625 136.490803 
L 378.415489 137.793864 
L 378.76864 141.219825 
L 379.21008 148.193443 
L 379.828095 162.183348 
L 381.417276 201.262017 
L 381.858715 207.057352 
L 382.211867 209.025694 
L 382.388443 209.102645 
L 382.565018 208.596427 
L 382.829882 206.815754 
L 383.183033 202.776992 
L 383.801048 192.432012 
L 385.743381 157.199935 
L 386.361396 150.375466 
L 386.891124 146.779196 
L 387.332563 145.254371 
L 387.597426 144.915474 
L 387.774002 144.906523 
L 388.038866 145.189447 
L 388.392017 146.058024 
L 388.833457 147.803252 
L 389.539759 151.721766 
L 390.687502 159.696999 
L 392.80641 174.491472 
L 393.865865 180.327589 
L 394.748743 184.00586 
L 395.455046 186.101313 
L 396.073061 187.298337 
L 396.602788 187.847882 
L 397.044228 187.97052 
L 397.397379 187.850728 
L 397.838818 187.431906 
L 398.368546 186.542536 
L 398.986561 184.990199 
L 399.692864 182.57652 
L 400.575742 178.692534 
L 401.635197 172.973085 
L 403.312666 162.498491 
L 404.901847 153.028337 
L 405.696438 149.521783 
L 406.226165 148.021426 
L 406.579317 147.509208 
L 406.84418 147.425613 
L 407.109044 147.629348 
L 407.373908 148.146695 
L 407.727059 149.367349 
L 408.168498 151.818913 
L 408.698226 156.212552 
L 409.316241 163.368055 
L 410.110831 175.358513 
L 411.876589 203.013189 
L 412.318028 206.479638 
L 412.582891 207.210064 
L 412.671179 207.198022 
L 412.847755 206.767507 
L 413.112619 205.068264 
L 413.46577 200.808301 
L 413.907209 192.48128 
L 414.613512 174.151081 
L 415.761255 144.097771 
L 416.290982 135.705031 
L 416.644133 133.015829 
L 416.820709 132.565797 
L 416.908997 132.557974 
L 417.085572 132.959178 
L 417.350436 134.532229 
L 417.703587 138.195582 
L 418.321603 147.671237 
L 420.440511 183.144312 
L 421.058526 189.422273 
L 421.588253 192.853295 
L 422.029693 194.428926 
L 422.382844 194.932857 
L 422.647708 194.915357 
L 422.912571 194.593516 
L 423.265723 193.745249 
L 423.79545 191.721853 
L 424.501753 187.97503 
L 425.649495 180.426776 
L 428.033267 164.463521 
L 429.092722 158.920785 
L 429.887312 155.767454 
L 430.593615 153.78622 
L 431.123343 152.844171 
L 431.564782 152.430039 
L 431.917933 152.346962 
L 432.271085 152.487227 
L 432.712524 152.978348 
L 433.153963 153.819895 
L 433.683691 155.287458 
L 434.389993 158.000589 
L 435.184584 162.028217 
L 436.155751 168.17919 
L 437.656644 179.416975 
L 439.157538 190.276018 
L 439.863841 193.990112 
L 440.30528 195.454207 
L 440.658432 196.002503 
L 440.835007 196.035826 
L 441.011583 195.892654 
L 441.276447 195.321789 
L 441.629598 193.840088 
L 442.071037 190.731036 
L 442.600765 185.053089 
L 443.21878 175.817381 
L 444.189946 157.254788 
L 445.161113 139.418176 
L 445.602552 134.159295 
L 445.955703 132.16483 
L 446.132279 132.04103 
L 446.308855 132.544186 
L 446.573718 134.5085 
L 446.92687 139.356712 
L 447.456597 150.820389 
L 449.575506 203.615298 
L 449.928657 206.891861 
L 450.193521 207.815353 
L 450.281809 207.842209 
L 450.458384 207.497048 
L 450.723248 206.05602 
L 451.076399 202.656211 
L 451.694414 193.816312 
L 453.901611 158.804184 
L 454.607914 152.011137 
L 455.137641 148.809115 
L 455.57908 147.302193 
L 455.932232 146.787982 
L 456.197095 146.767869 
L 456.461959 147.032567 
L 456.81511 147.783635 
L 457.25655 149.27708 
L 457.874565 152.200921 
L 458.757443 157.55198 
L 462.730397 183.214576 
L 463.524988 186.497662 
L 464.231291 188.505839 
L 464.761018 189.388994 
L 465.114169 189.662494 
L 465.467321 189.674325 
L 465.820472 189.417904 
L 466.261912 188.712388 
L 466.791639 187.29272 
L 467.409654 184.843477 
L 468.115957 181.021273 
L 468.998835 174.831495 
L 470.146578 164.991791 
L 472.088911 148.110212 
L 472.706926 144.5102 
L 473.148365 143.079885 
L 473.413228 142.804657 
L 473.589804 142.899061 
L 473.854668 143.49726 
L 474.207819 145.221741 
L 474.649259 148.990178 
L 475.178986 155.969971 
L 475.885289 169.085546 
L 477.739334 206.652411 
L 478.092485 209.771939 
L 478.269061 210.384238 
L 478.357349 210.434544 
L 478.533924 210.006722 
L 478.798788 208.025578 
L 479.15194 202.953069 
L 479.681667 190.909839 
L 481.624 140.012033 
L 482.065439 135.063138 
L 482.330303 133.83463 
L 482.506878 133.707331 
L 482.683454 134.097088 
L 482.948318 135.56333 
L 483.301469 138.919109 
L 483.919484 147.512254 
L 486.214968 182.633064 
L 486.921271 189.124352 
L 487.450999 192.196726 
L 487.892438 193.646714 
L 488.245589 194.139048 
L 488.510453 194.151509 
L 488.775316 193.883079 
L 489.128468 193.127952 
L 489.569907 191.622268 
L 490.187922 188.651911 
L 491.070801 183.152322 
L 492.836558 170.263302 
L 494.337452 160.073846 
L 495.308618 154.945873 
L 496.014921 152.269395 
L 496.544648 150.951962 
L 496.986088 150.352593 
L 497.339239 150.220593 
L 497.604103 150.333023 
L 497.957254 150.774048 
L 498.398693 151.806276 
L 498.928421 153.766328 
L 499.546436 157.052727 
L 500.252739 162.081431 
L 501.135617 170.038802 
L 504.049117 198.044171 
L 504.490556 199.827507 
L 504.75542 200.175543 
L 504.931995 200.061374 
L 505.196859 199.320726 
L 505.55001 197.180764 
L 505.99145 192.523019 
L 506.521177 184.00055 
L 507.22748 168.453946 
L 508.640085 136.038573 
L 509.081525 130.711157 
L 509.346388 129.555051 
L 509.434676 129.545444 
L 509.611252 130.107437 
L 509.876116 132.404812 
L 510.229267 138.048386 
L 510.758994 151.020622 
L 512.524751 199.234513 
L 512.966191 205.047815 
L 513.319342 207.05558 
L 513.495918 207.219091 
L 513.672494 206.863729 
L 513.937357 205.446867 
L 514.290509 202.153198 
L 514.908524 193.649778 
L 517.292296 157.428238 
L 517.910311 151.779611 
L 518.440038 148.618142 
L 518.881477 147.117247 
L 519.234629 146.606077 
L 519.499493 146.594721 
L 519.764356 146.878602 
L 520.117508 147.677906 
L 520.558947 149.277514 
L 521.176962 152.448885 
L 522.059841 158.354271 
L 523.73731 171.556993 
L 525.149916 181.986514 
L 526.032794 187.110189 
L 526.739097 190.045033 
L 527.268824 191.424322 
L 527.621976 191.906741 
L 527.886839 192.023457 
L 528.151703 191.920837 
L 528.416567 191.591475 
L 528.769718 190.788753 
L 529.211157 189.185429 
L 529.740885 186.367953 
L 530.3589 181.866183 
L 531.15349 174.316145 
L 532.301233 160.932919 
L 533.62555 145.776603 
L 534.243565 141.024858 
L 534.596717 139.589557 
L 534.861581 139.293261 
L 535.038156 139.516161 
L 535.30302 140.538977 
L 535.656171 143.283745 
L 536.097611 149.044895 
L 536.627338 159.263058 
L 537.510216 181.895528 
L 538.393095 203.590208 
L 538.834534 210.284788 
L 539.099398 212.173469 
L 539.275974 212.427116 
L 539.452549 211.844424 
L 539.717413 209.404562 
L 540.070564 203.403999 
L 540.600292 189.716174 
L 542.277761 142.191407 
L 542.7192 135.979132 
L 543.072352 133.761527 
L 543.248927 133.53089 
L 543.425503 133.843548 
L 543.690367 135.239418 
L 544.043518 138.576491 
L 544.573245 145.897738 
L 547.221881 186.520172 
L 547.839896 191.591215 
L 548.369623 194.157235 
L 548.722775 195.002179 
L 548.987638 195.211397 
L 549.252502 195.080314 
L 549.517366 194.631943 
L 549.870517 193.582404 
L 550.400244 191.160694 
L 551.106547 186.665164 
L 552.166002 178.159462 
L 554.72635 156.841355 
L 555.52094 152.058047 
L 556.138955 149.46797 
L 556.580395 148.337804 
L 556.933546 147.912542 
L 557.19841 147.891253 
L 557.463273 148.136626 
L 557.816425 148.893717 
L 558.257864 150.552921 
L 558.787591 153.609147 
L 559.405606 158.621784 
L 560.200197 167.140911 
L 561.436227 183.375412 
L 562.495681 196.508214 
L 563.025409 200.999573 
L 563.37856 202.648222 
L 563.643424 202.993889 
L 563.819999 202.743716 
L 564.084863 201.582546 
L 564.438014 198.465092 
L 564.879454 191.951371 
L 565.409181 180.525441 
L 566.468635 150.968041 
L 567.174938 134.233553 
L 567.616377 128.666007 
L 567.792953 127.871004 
L 567.881241 127.80587 
L 568.057817 128.353741 
L 568.32268 130.862256 
L 568.675832 137.158221 
L 569.205559 151.586393 
L 570.79474 198.945919 
L 571.23618 205.664776 
L 571.589331 208.075643 
L 571.765907 208.329638 
L 571.942483 207.993721 
L 572.207346 206.482957 
L 572.560498 202.86733 
L 573.178513 193.429386 
L 575.385709 156.120913 
L 576.003724 149.816491 
L 576.533451 146.446519 
L 576.974891 145.025874 
L 577.239754 144.741865 
L 577.41633 144.77502 
L 577.681194 145.139082 
L 578.034345 146.167505 
L 578.475784 148.227098 
L 579.093799 152.301612 
L 579.976678 159.825236 
L 583.066753 187.751901 
L 583.773056 191.714361 
L 584.302783 193.561346 
L 584.655935 194.181454 
L 584.920798 194.300738 
L 585.185662 194.109531 
L 585.450526 193.597216 
L 585.803677 192.40058 
L 586.245116 190.063984 
L 586.774843 186.030575 
L 587.481146 178.687654 
L 588.452313 165.710477 
L 590.129782 142.829048 
L 590.659509 138.525543 
L 591.012661 137.277778 
L 591.189237 137.246242 
L 591.365812 137.651669 
L 591.630676 139.136319 
L 591.983827 142.847655 
L 592.425267 150.319404 
L 593.043282 165.482175 
L 594.720751 210.014303 
L 595.073902 213.589769 
L 595.250478 214.003303 
L 595.338766 213.847752 
L 595.515342 212.804705 
L 595.780205 209.443895 
L 596.133357 201.896689 
L 596.751372 182.623482 
L 597.899114 145.245614 
L 598.428841 135.054374 
L 598.781993 131.899629 
L 598.958568 131.406925 
L 599.046856 131.418854 
L 599.223432 131.931771 
L 599.488296 133.823019 
L 599.929735 139.445293 
L 600.636038 152.514347 
L 602.225219 182.962321 
L 602.843234 190.936394 
L 603.372962 195.350497 
L 603.814401 197.329725 
L 604.079264 197.813833 
L 604.25584 197.860343 
L 604.432416 197.696988 
L 604.697279 197.081221 
L 605.050431 195.626466 
L 605.580158 192.276603 
L 606.286461 186.136544 
L 607.522491 172.912117 
L 609.111673 156.421 
L 609.906263 150.320757 
L 610.524278 147.182948 
L 610.965718 145.969423 
L 611.230581 145.692001 
L 611.407157 145.703946 
L 611.672021 146.026109 
L 612.025172 147.037748 
L 612.466611 149.254895 
L 612.996339 153.306237 
L 613.614354 159.843981 
L 614.497232 171.934498 
L 616.439565 199.656469 
L 616.881004 203.132338 
L 617.145868 204.158432 
L 617.322444 204.323256 
L 617.499019 204.03342 
L 617.763883 202.683864 
L 618.117035 199.070309 
L 618.558474 191.571556 
L 619.176489 176.085865 
L 620.853958 130.197884 
L 621.20711 126.701374 
L 621.383685 126.429049 
L 621.560261 127.198621 
L 621.825125 130.307085 
L 622.178276 137.859855 
L 622.708003 154.809999 
L 624.032321 200.317038 
L 624.473761 208.556917 
L 624.826912 211.347887 
L 625.003488 211.495717 
L 625.180063 210.865238 
L 625.444927 208.593883 
L 625.886366 201.90601 
L 626.592669 186.591348 
L 627.916987 157.438166 
L 628.535002 148.175093 
L 629.064729 143.296272 
L 629.417881 141.613758 
L 629.682744 141.132868 
L 629.85932 141.162448 
L 630.035896 141.456204 
L 630.300759 142.35919 
L 630.742199 144.962061 
L 631.360214 150.4639 
L 632.243092 160.743279 
L 634.362001 186.216401 
L 635.068304 192.096299 
L 635.598031 194.995526 
L 636.039471 196.270427 
L 636.304334 196.500254 
L 636.48091 196.422259 
L 636.745773 195.951579 
L 637.098925 194.655841 
L 637.540364 191.963398 
L 638.070091 187.209997 
L 638.776394 178.559531 
L 639.835849 162.224406 
L 641.071879 143.754452 
L 641.601606 138.605495 
L 641.954757 136.865623 
L 642.131333 136.618123 
L 642.307909 136.831481 
L 642.484484 137.535342 
L 642.749348 139.562311 
L 643.102499 144.149351 
L 643.543939 152.877673 
L 644.161954 169.780318 
L 645.486272 208.108274 
L 645.839423 213.536496 
L 646.104287 215.077374 
L 646.192575 215.056152 
L 646.36915 214.179676 
L 646.634014 210.773759 
L 646.987165 202.556309 
L 647.516893 184.147135 
L 648.752923 138.335321 
L 649.194362 129.654339 
L 649.459226 127.442315 
L 649.635801 127.220101 
L 649.812377 127.951752 
L 650.077241 130.684463 
L 650.51868 138.813005 
L 651.224983 157.268004 
L 652.372725 186.687907 
L 652.99074 196.957102 
L 653.432179 201.11974 
L 653.785331 202.571521 
L 653.961907 202.708087 
L 654.138482 202.477193 
L 654.403346 201.49098 
L 654.756497 199.111399 
L 655.286224 193.690271 
L 656.080815 182.827814 
L 658.111436 153.991607 
L 658.817739 147.370346 
L 659.347466 144.357845 
L 659.700618 143.386743 
L 659.965481 143.22828 
L 660.142057 143.398631 
L 660.40692 144.070181 
L 660.760072 145.737309 
L 661.201511 149.026903 
L 661.819526 155.707348 
L 662.614117 167.157942 
L 664.733026 199.547996 
L 665.174465 203.088708 
L 665.439329 204.096621 
L 665.615904 204.230694 
L 665.79248 203.898631 
L 666.057344 202.470985 
L 666.410495 198.741316 
L 666.851934 191.104675 
L 667.469949 175.465976 
L 669.147419 129.308532 
L 669.50057 126.048745 
L 669.588858 125.894277 
L 669.677146 126.022607 
L 669.853722 127.149069 
L 670.118585 131.032942 
L 670.471737 140.098574 
L 671.001464 160.143427 
L 672.149206 205.8019 
L 672.590645 214.723771 
L 672.855509 216.472458 
L 672.943797 216.445039 
L 673.120373 215.507412 
L 673.385236 212.04976 
L 673.826676 201.814043 
L 674.709554 173.059789 
L 675.504145 149.712739 
L 676.033872 139.704217 
L 676.387024 136.026243 
L 676.651887 134.822699 
L 676.828463 134.721018 
L 677.005039 135.143699 
L 677.269902 136.678912 
L 677.623054 140.186365 
L 678.152781 147.838919 
L 679.212235 167.324443 
L 680.271689 185.604516 
L 680.977992 194.263833 
L 681.50772 198.186215 
L 681.860871 199.455777 
L 682.125735 199.683955 
L 682.30231 199.491703 
L 682.567174 198.693675 
L 682.920325 196.705911 
L 683.361765 192.828117 
L 683.97978 185.134241 
L 684.862658 170.902901 
L 686.45184 144.944647 
L 686.981567 139.471307 
L 687.334718 137.525731 
L 687.511294 137.162032 
L 687.599582 137.145138 
L 687.776158 137.457018 
L 688.041021 138.828059 
L 688.394173 142.415395 
L 688.835612 149.745883 
L 689.453627 164.756192 
L 691.219384 211.735317 
L 691.484248 214.243701 
L 691.660824 214.615035 
L 691.837399 213.854088 
L 692.102263 210.501288 
L 692.455414 201.961807 
L 692.985142 181.905311 
L 694.221172 130.566093 
L 694.574323 123.547735 
L 694.750899 122.17588 
L 694.839187 122.045176 
L 694.927475 122.283056 
L 695.10405 123.839049 
L 695.368914 128.693833 
L 695.810353 142.222727 
L 697.57611 204.56815 
L 697.929262 209.5511 
L 698.194125 210.975013 
L 698.282413 211.02749 
L 698.458989 210.535638 
L 698.723853 208.423269 
L 699.077004 203.425924 
L 699.695019 190.519409 
L 701.460776 150.450353 
L 701.990504 143.121823 
L 702.431943 139.605571 
L 702.696806 138.667045 
L 702.873382 138.525275 
L 703.049958 138.762378 
L 703.314821 139.804635 
L 703.667973 142.399217 
L 704.1977 148.562766 
L 704.904003 159.999525 
L 707.1112 198.304349 
L 707.552639 202.276314 
L 707.90579 203.722336 
L 708.082366 203.797746 
L 708.258942 203.414585 
L 708.523805 201.948987 
L 708.876957 198.295735 
L 709.318396 191.047387 
L 709.936411 176.543069 
L 711.702168 131.173741 
L 712.05532 127.896317 
L 712.143608 127.676218 
L 712.231896 127.717526 
L 712.408471 128.616897 
L 712.673335 132.084375 
L 713.026486 140.658113 
L 713.556213 160.77286 
L 714.880531 215.375979 
L 715.145395 219.865192 
L 715.321971 220.796974 
L 715.410259 220.616993 
L 715.586834 218.964141 
L 715.851698 213.38601 
L 716.293137 197.187398 
L 717.882319 129.869614 
L 718.23547 124.979607 
L 718.412046 124.511159 
L 718.588622 125.295227 
L 718.853485 128.60919 
L 719.206637 136.339446 
L 719.91294 158.544948 
L 720.972394 191.435934 
L 721.502121 201.845201 
L 721.855273 205.69898 
L 722.120136 206.931886 
L 722.296712 206.987385 
L 722.473288 206.456942 
L 722.738151 204.631796 
L 723.091303 200.480678 
L 723.62103 191.321828 
L 724.592196 169.654047 
L 725.651651 147.608091 
L 726.181378 140.26688 
L 726.622817 136.974483 
L 726.887681 136.402219 
L 727.064256 136.637423 
L 727.32912 137.933025 
L 727.682271 141.41275 
L 728.123711 148.438369 
L 728.741726 162.456469 
L 730.595771 208.101371 
L 730.948922 211.345099 
L 731.125498 211.664446 
L 731.302074 211.021666 
L 731.566937 208.154144 
L 731.920089 200.714604 
L 732.361528 186.065345 
L 734.038997 121.975519 
L 734.303861 119.979374 
L 734.392149 120.222314 
L 734.568725 122.118058 
L 734.833588 128.43223 
L 735.275028 146.989 
L 736.687633 216.846269 
L 736.952497 221.401669 
L 737.129073 222.040713 
L 737.305648 220.791374 
L 737.570512 215.647008 
L 738.011951 200.14033 
L 739.601133 134.787581 
L 739.954284 128.805466 
L 740.219148 127.286881 
L 740.307436 127.328187 
L 740.484011 128.188093 
L 740.748875 131.269297 
L 741.190314 140.344878 
L 741.896617 161.063565 
L 743.044359 194.210591 
L 743.574087 203.659009 
L 743.927238 206.898531 
L 744.192102 207.604287 
L 744.28039 207.508545 
L 744.456965 206.826256 
L 744.721829 204.608787 
L 745.07498 199.571465 
L 745.604707 188.258553 
L 746.575874 161.043737 
L 747.458753 138.885311 
L 747.900192 132.435991 
L 748.165055 130.790261 
L 748.253343 130.660674 
L 748.341631 130.750916 
L 748.518207 131.609243 
L 748.78307 134.631879 
L 749.136222 141.88356 
L 749.665949 158.892502 
L 751.255131 216.603546 
L 751.519994 219.367464 
L 751.608282 219.456457 
L 751.784858 218.295544 
L 752.049721 213.118928 
L 752.402873 200.073655 
L 753.020888 165.344625 
L 753.727191 126.726505 
L 754.080342 116.75739 
L 754.256918 115.308384 
L 754.345206 115.531467 
L 754.521782 117.870446 
L 754.786645 125.850321 
L 755.228084 148.53255 
L 756.375827 213.228411 
L 756.728978 221.360025 
L 756.905554 222.346018 
L 756.993842 222.080171 
L 757.170417 220.105945 
L 757.435281 213.892104 
L 757.87672 196.989759 
L 759.289326 136.561469 
L 759.642478 129.275534 
L 759.907341 126.948072 
L 759.995629 126.771658 
L 760.083917 126.888504 
L 760.260493 127.974922 
L 760.525356 131.596994 
L 760.966795 142.110047 
L 761.673098 166.095661 
L 762.644265 198.486379 
L 763.085704 207.758005 
L 763.438856 211.289417 
L 763.615431 211.609481 
L 763.792007 210.93194 
L 764.056871 208.049134 
L 764.410022 200.882182 
L 764.939749 184.166046 
L 766.528931 127.973435 
L 766.793794 124.526613 
L 766.97037 124.039203 
L 767.146946 125.126991 
L 767.411809 129.822616 
L 767.764961 141.649997 
L 768.294688 168.78419 
L 769.177567 216.021923 
L 769.530718 224.98255 
L 769.707294 225.720139 
L 769.88387 223.686764 
L 770.148733 215.423482 
L 770.501885 195.830739 
L 771.737915 115.657922 
L 772.002778 111.390119 
L 772.091066 111.628793 
L 772.267642 114.578344 
L 772.532505 124.699098 
L 772.973945 152.666651 
L 773.856823 211.757608 
L 774.209975 223.285085 
L 774.38655 225.19203 
L 774.474838 225.171065 
L 774.651414 223.255814 
L 774.916278 216.128038 
L 775.357717 195.714013 
L 776.593747 132.127673 
L 776.946898 123.971634 
L 777.123474 122.47475 
L 777.211762 122.382179 
L 777.388338 123.483438 
L 777.653201 128.177515 
L 778.006353 139.3305 
L 778.624368 167.386475 
L 779.507246 206.244067 
L 779.860398 214.995193 
L 780.125262 217.566934 
L 780.213549 217.591485 
L 780.390125 216.356008 
L 780.654989 211.317262 
L 781.00814 199.105759 
L 781.626155 167.192871 
L 782.420746 127.108902 
L 782.773897 118.576708 
L 782.950473 117.799424 
L 783.127049 119.626351 
L 783.391912 127.356515 
L 783.745064 146.200415 
L 785.069382 229.996162 
L 785.245958 231.314326 
L 785.422533 228.486684 
L 785.687397 216.563244 
L 786.128836 180.570225 
L 786.923427 113.529023 
L 787.18829 105.715355 
L 787.276578 105.562444 
L 787.453154 109.00485 
L 787.718018 122.837567 
L 788.159457 161.837342 
L 788.86576 222.316428 
L 789.130623 232.058554 
L 789.218911 233.11635 
L 789.307199 233.059423 
L 789.483775 229.696002 
L 789.748639 217.35823 
L 790.278366 175.915167 
L 790.984669 123.762185 
L 791.249532 114.568644 
L 791.426108 112.754983 
L 791.514396 113.172421 
L 791.690971 116.578485 
L 791.955835 127.533743 
L 792.397274 157.037978 
L 793.280153 217.404957 
L 793.545017 225.468145 
L 793.721592 226.748008 
L 793.80988 226.092052 
L 793.986456 222.194843 
L 794.251319 210.277615 
L 794.692759 178.187371 
L 795.48735 118.894901 
L 795.752213 110.859275 
L 795.840501 110.322678 
L 795.928789 110.941276 
L 796.105365 115.706951 
L 796.370228 131.310489 
L 796.899955 183.332528 
L 797.429683 230.506273 
L 797.694546 238.239157 
L 797.782834 237.454042 
L 797.95941 230.558431 
L 798.224273 207.800885 
L 799.283728 95.526385 
L 799.372015 95.77878 
L 799.548591 103.675726 
L 799.813455 132.236223 
L 800.696333 248.614656 
L 800.784621 250.429197 
L 800.872909 249.283329 
L 801.049485 238.257547 
L 801.402636 188.338544 
L 802.020651 95.805911 
L 802.197227 88.841746 
L 802.285515 90.180025 
L 802.462091 102.379012 
L 802.815242 156.488531 
L 803.344969 243.345791 
L 803.521545 253.781767 
L 803.609833 253.59462 
L 803.786409 242.025906 
L 804.051272 200.460445 
L 804.669287 87.207593 
L 804.845863 81.938712 
L 805.022439 97.081743 
L 805.287302 153.600977 
L 805.817029 269.399888 
L 805.905317 269.953326 
L 806.081893 244.829146 
L 806.435044 117.656183 
L 806.699908 53.976222 
L 806.788196 60.195591 
L 806.964772 122.900042 
L 807.317923 300.24358 
L 807.406211 297.898058 
L 807.582787 196.062688 
L 807.84765 35.55267 
L 808.024226 153.66587 
L 808.200802 280.082925 
L 808.28909 256.285714 
L 808.553953 95.110947 
L 808.818817 214.551957 
L 808.907105 213.721288 
L 809.171968 140.308062 
L 809.436832 188.023065 
L 809.52512 186.47029 
L 809.789983 159.149569 
L 810.054847 177.471834 
L 810.143135 176.035097 
L 810.407998 166.36491 
L 810.672862 173.221362 
L 810.849438 170.426246 
L 811.026013 169.042988 
L 811.114301 170.08355 
L 811.114301 170.08355 
" clip-path="url(#p79bee03dbf)" style="fill: none; stroke: #ff7f0e; stroke-width: 0.6; stroke-linecap: square"/>
   </g>
   <g id="patch_3">
    <path d="M 52.160938 313.478125 
L 52.160938 22.318125 
" style="fill: none; stroke: #000000; stroke-width: 0.8; stroke-linejoin: miter; stroke-linecap: square"/>
   </g>
   <g id="patch_4">
    <path d="M 847.254937 313.478125 
L 847.254937 22.318125 
" style="fill: none; stroke: #000000; stroke-width: 0.8; stroke-linejoin: miter; stroke-linecap: square"/>
   </g>
   <g id="patch_5">
    <path d="M 52.160938 313.478125 
L 847.254937 313.478125 
" style="fill: none; stroke: #000000; stroke-width: 0.8; stroke-linejoin: miter; stroke-linecap: square"/>
   </g>
   <g id="patch_6">
    <path d="M 52.160938 22.318125 
L 847.254937 22.318125 
" style="fill: none; stroke: #000000; stroke-width: 0.8; stroke-linejoin: miter; stroke-linecap: square"/>
   </g>
   <g id="text_16">
    <!-- M=60, e=0.18, f_min=10 Hz -->
    <g transform="translate(363.504812 16.318125) scale(0.12 -0.12)">
     <defs>
      <path id="DejaVuSans-4d" d="M 628 4666 
L 1569 4666 
L 2759 1491 
L 3956 4666 
L 4897 4666 
L 4897 0 
L 4281 0 
L 4281 4097 
L 3078 897 
L 2444 897 
L 1241 4097 
L 1241 0 
L 628 0 
L 628 4666 
z
" transform="scale(0.015625)"/>
      <path id="DejaVuSans-3d" d="M 678 2906 
L 4684 2906 
L 4684 2381 
L 678 2381 
L 678 2906 
z
M 678 1631 
L 4684 1631 
L 4684 1100 
L 678 1100 
L 678 1631 
z
" transform="scale(0.015625)"/>
      <path id="DejaVuSans-2c" d="M 750 794 
L 1409 794 
L 1409 256 
L 897 -744 
L 494 -744 
L 750 256 
L 750 794 
z
" transform="scale(0.015625)"/>
      <path id="DejaVuSans-65" d="M 3597 1894 
L 3597 1613 
L 953 1613 
Q 991 1019 1311 708 
Q 1631 397 2203 397 
Q 2534 397 2845 478 
Q 3156 559 3463 722 
L 3463 178 
Q 3153 47 2828 -22 
Q 2503 -91 2169 -91 
Q 1331 -91 842 396 
Q 353 884 353 1716 
Q 353 2575 817 3079 
Q 1281 3584 2069 3584 
Q 2775 3584 3186 3129 
Q 3597 2675 3597 1894 
z
M 3022 2063 
Q 3016 2534 2758 2815 
Q 2500 3097 2075 3097 
Q 1594 3097 1305 2825 
Q 1016 2553 972 2059 
L 3022 2063 
z
" transform="scale(0.015625)"/>
      <path id="DejaVuSans-66" d="M 2375 4863 
L 2375 4384 
L 1825 4384 
Q 1516 4384 1395 4259 
Q 1275 4134 1275 3809 
L 1275 3500 
L 2222 3500 
L 2222 3053 
L 1275 3053 
L 1275 0 
L 697 0 
L 697 3053 
L 147 3053 
L 147 3500 
L 697 3500 
L 697 3744 
Q 697 4328 969 4595 
Q 1241 4863 1831 4863 
L 2375 4863 
z
" transform="scale(0.015625)"/>
      <path id="DejaVuSans-5f" d="M 3263 -1063 
L 3263 -1509 
L -63 -1509 
L -63 -1063 
L 3263 -1063 
z
" transform="scale(0.015625)"/>
      <path id="DejaVuSans-6d" d="M 3328 2828 
Q 3544 3216 3844 3400 
Q 4144 3584 4550 3584 
Q 5097 3584 5394 3201 
Q 5691 2819 5691 2113 
L 5691 0 
L 5113 0 
L 5113 2094 
Q 5113 2597 4934 2840 
Q 4756 3084 4391 3084 
Q 3944 3084 3684 2787 
Q 3425 2491 3425 1978 
L 3425 0 
L 2847 0 
L 2847 2094 
Q 2847 2600 2669 2842 
Q 2491 3084 2119 3084 
Q 1678 3084 1418 2786 
Q 1159 2488 1159 1978 
L 1159 0 
L 581 0 
L 581 3500 
L 1159 3500 
L 1159 2956 
Q 1356 3278 1631 3431 
Q 1906 3584 2284 3584 
Q 2666 3584 2933 3390 
Q 3200 3197 3328 2828 
z
" transform="scale(0.015625)"/>
      <path id="DejaVuSans-69" d="M 603 3500 
L 1178 3500 
L 1178 0 
L 603 0 
L 603 3500 
z
M 603 4863 
L 1178 4863 
L 1178 4134 
L 603 4134 
L 603 4863 
z
" transform="scale(0.015625)"/>
      <path id="DejaVuSans-6e" d="M 3513 2113 
L 3513 0 
L 2938 0 
L 2938 2094 
Q 2938 2591 2744 2837 
Q 2550 3084 2163 3084 
Q 1697 3084 1428 2787 
Q 1159 2491 1159 1978 
L 1159 0 
L 581 0 
L 581 3500 
L 1159 3500 
L 1159 2956 
Q 1366 3272 1645 3428 
Q 1925 3584 2291 3584 
Q 2894 3584 3203 3211 
Q 3513 2838 3513 2113 
z
" transform="scale(0.015625)"/>
      <path id="DejaVuSans-48" d="M 628 4666 
L 1259 4666 
L 1259 2753 
L 3553 2753 
L 3553 4666 
L 4184 4666 
L 4184 0 
L 3553 0 
L 3553 2222 
L 1259 2222 
L 1259 0 
L 628 0 
L 628 4666 
z
" transform="scale(0.015625)"/>
      <path id="DejaVuSans-7a" d="M 353 3500 
L 3084 3500 
L 3084 2975 
L 922 459 
L 3084 459 
L 3084 0 
L 275 0 
L 275 525 
L 2438 3041 
L 353 3041 
L 353 3500 
z
" transform="scale(0.015625)"/>
     </defs>
     <use xlink:href="#DejaVuSans-4d"/>
     <use xlink:href="#DejaVuSans-3d" transform="translate(86.279297 0)"/>
     <use xlink:href="#DejaVuSans-36" transform="translate(170.068359 0)"/>
     <use xlink:href="#DejaVuSans-30" transform="translate(233.691406 0)"/>
     <use xlink:href="#DejaVuSans-2c" transform="translate(297.314453 0)"/>
     <use xlink:href="#DejaVuSans-20" transform="translate(329.101562 0)"/>
     <use xlink:href="#DejaVuSans-65" transform="translate(360.888672 0)"/>
     <use xlink:href="#DejaVuSans-3d" transform="translate(422.412109 0)"/>
     <use xlink:href="#DejaVuSans-30" transform="translate(506.201172 0)"/>
     <use xlink:href="#DejaVuSans-2e" transform="translate(569.824219 0)"/>
     <use xlink:href="#DejaVuSans-31" transform="translate(601.611328 0)"/>
     <use xlink:href="#DejaVuSans-38" transform="translate(665.234375 0)"/>
     <use xlink:href="#DejaVuSans-2c" transform="translate(728.857422 0)"/>
     <use xlink:href="#DejaVuSans-20" transform="translate(760.644531 0)"/>
     <use xlink:href="#DejaVuSans-66" transform="translate(792.431641 0)"/>
     <use xlink:href="#DejaVuSans-5f" transform="translate(827.636719 0)"/>
     <use xlink:href="#DejaVuSans-6d" transform="translate(877.636719 0)"/>
     <use xlink:href="#DejaVuSans-69" transform="translate(975.048828 0)"/>
     <use xlink:href="#DejaVuSans-6e" transform="translate(1002.832031 0)"/>
     <use xlink:href="#DejaVuSans-3d" transform="translate(1066.210938 0)"/>
     <use xlink:href="#DejaVuSans-31" transform="translate(1150 0)"/>
     <use xlink:href="#DejaVuSans-30" transform="translate(1213.623047 0)"/>
     <use xlink:href="#DejaVuSans-20" transform="translate(1277.246094 0)"/>
     <use xlink:href="#DejaVuSans-48" transform="translate(1309.033203 0)"/>
     <use xlink:href="#DejaVuSans-7a" transform="translate(1384.228516 0)"/>
    </g>
   </g>
   <g id="legend_1">
    <g id="patch_7">
     <path d="M 59.160938 59.674375 
L 123.960938 59.674375 
Q 125.960938 59.674375 125.960938 57.674375 
L 125.960938 29.318125 
Q 125.960938 27.318125 123.960938 27.318125 
L 59.160938 27.318125 
Q 57.160938 27.318125 57.160938 29.318125 
L 57.160938 57.674375 
Q 57.160938 59.674375 59.160938 59.674375 
z
" style="fill: #ffffff; opacity: 0.8; stroke: #cccccc; stroke-linejoin: miter"/>
    </g>
    <g id="line2d_29">
     <path d="M 61.160938 35.416562 
L 71.160938 35.416562 
L 81.160938 35.416562 
" style="fill: none; stroke: #1f77b4; stroke-width: 0.6; stroke-linecap: square"/>
    </g>
    <g id="text_17">
     <!-- $h_+$ -->
     <g transform="translate(89.160938 38.916562) scale(0.1 -0.1)">
      <defs>
       <path id="DejaVuSans-2b" d="M 2944 4013 
L 2944 2272 
L 4684 2272 
L 4684 1741 
L 2944 1741 
L 2944 0 
L 2419 0 
L 2419 1741 
L 678 1741 
L 678 2272 
L 2419 2272 
L 2419 4013 
L 2944 4013 
z
" transform="scale(0.015625)"/>
      </defs>
      <use xlink:href="#DejaVuSans-Oblique-68" transform="translate(0 0.015625)"/>
      <use xlink:href="#DejaVuSans-2b" transform="translate(77.016602 -16.390625) scale(0.7)"/>
     </g>
    </g>
    <g id="line2d_30">
     <path d="M 61.160938 50.094688 
L 71.160938 50.094688 
L 81.160938 50.094688 
" style="fill: none; stroke: #ff7f0e; stroke-width: 0.6; stroke-linecap: square"/>
    </g>
    <g id="text_18">
     <!-- $h_	imes$ -->
     <g transform="translate(89.160938 53.594688) scale(0.1 -0.1)">
      <defs>
       <path id="DejaVuSans-Oblique-69" d="M 1172 4863 
L 1747 4863 
L 1606 4134 
L 1031 4134 
L 1172 4863 
z
M 909 3500 
L 1484 3500 
L 800 0 
L 225 0 
L 909 3500 
z
" transform="scale(0.015625)"/>
       <path id="DejaVuSans-Oblique-6d" d="M 5747 2113 
L 5338 0 
L 4763 0 
L 5166 2094 
Q 5191 2228 5203 2325 
Q 5216 2422 5216 2491 
Q 5216 2772 5059 2928 
Q 4903 3084 4622 3084 
Q 4203 3084 3875 2770 
Q 3547 2456 3450 1953 
L 3066 0 
L 2491 0 
L 2900 2094 
Q 2925 2209 2937 2307 
Q 2950 2406 2950 2484 
Q 2950 2769 2794 2926 
Q 2638 3084 2363 3084 
Q 1938 3084 1609 2770 
Q 1281 2456 1184 1953 
L 800 0 
L 225 0 
L 909 3500 
L 1484 3500 
L 1375 2956 
Q 1609 3263 1923 3423 
Q 2238 3584 2597 3584 
Q 2978 3584 3223 3384 
Q 3469 3184 3519 2828 
Q 3781 3197 4126 3390 
Q 4472 3584 4856 3584 
Q 5306 3584 5551 3325 
Q 5797 3066 5797 2591 
Q 5797 2488 5784 2364 
Q 5772 2241 5747 2113 
z
" transform="scale(0.015625)"/>
       <path id="DejaVuSans-Oblique-65" d="M 3078 2063 
Q 3088 2113 3092 2166 
Q 3097 2219 3097 2272 
Q 3097 2653 2873 2875 
Q 2650 3097 2266 3097 
Q 1838 3097 1509 2826 
Q 1181 2556 1013 2059 
L 3078 2063 
z
M 3578 1613 
L 903 1613 
Q 884 1494 878 1425 
Q 872 1356 872 1306 
Q 872 872 1139 634 
Q 1406 397 1894 397 
Q 2269 397 2603 481 
Q 2938 566 3225 728 
L 3116 159 
Q 2806 34 2476 -28 
Q 2147 -91 1806 -91 
Q 1078 -91 686 257 
Q 294 606 294 1247 
Q 294 1794 489 2264 
Q 684 2734 1063 3103 
Q 1306 3334 1642 3459 
Q 1978 3584 2356 3584 
Q 2950 3584 3301 3228 
Q 3653 2872 3653 2272 
Q 3653 2128 3634 1964 
Q 3616 1800 3578 1613 
z
" transform="scale(0.015625)"/>
       <path id="DejaVuSans-Oblique-73" d="M 3200 3397 
L 3091 2853 
Q 2863 2978 2609 3040 
Q 2356 3103 2088 3103 
Q 1634 3103 1373 2948 
Q 1113 2794 1113 2528 
Q 1113 2219 1719 2053 
Q 1766 2041 1788 2034 
L 1972 1978 
Q 2547 1819 2739 1644 
Q 2931 1469 2931 1166 
Q 2931 609 2489 259 
Q 2047 -91 1331 -91 
Q 1053 -91 747 -37 
Q 441 16 72 128 
L 184 722 
Q 500 559 806 475 
Q 1113 391 1394 391 
Q 1816 391 2080 572 
Q 2344 753 2344 1031 
Q 2344 1331 1650 1516 
L 1591 1531 
L 1394 1581 
Q 956 1697 753 1886 
Q 550 2075 550 2369 
Q 550 2928 970 3256 
Q 1391 3584 2113 3584 
Q 2397 3584 2667 3537 
Q 2938 3491 3200 3397 
z
" transform="scale(0.015625)"/>
      </defs>
      <use xlink:href="#DejaVuSans-Oblique-68" transform="translate(0 0.015625)"/>
      <use xlink:href="#DejaVuSans-20" transform="translate(63.378906 -16.390625) scale(0.7)"/>
      <use xlink:href="#DejaVuSans-Oblique-69" transform="translate(88.364258 0.015625)"/>
      <use xlink:href="#DejaVuSans-Oblique-6d" transform="translate(116.147461 0.015625)"/>
      <use xlink:href="#DejaVuSans-Oblique-65" transform="translate(213.55957 0.015625)"/>
      <use xlink:href="#DejaVuSans-Oblique-73" transform="translate(275.083008 0.015625)"/>
     </g>
    </g>
   </g>
  </g>
 </g>
 <defs>
  <clipPath id="p79bee03dbf">
   <rect x="52.160938" y="22.318125" width="795.094" height="291.16"/>
  </clipPath>
 </defs>
</svg>
