<?xml version="1.0" encoding="utf-8" standalone="no"?>
<!DOCTYPE svg PUBLIC "-//W3C//DTD SVG 1.1//EN"
  "http://www.w3.org/Graphics/SVG/1.1/DTD/svg11.dtd">
<svg xmlns:xlink="http://www.w3.org/1999/xlink" width="854.454937pt" height="351.034375pt" viewBox="0 0 854.454937 351.034375" xmlns="http://www.w3.org/2000/svg" version="1.1">
 <metadata>
  <rdf:RDF xmlns:dc="http://purl.org/dc/elements/1.1/" xmlns:cc="http://creativecommons.org/ns#" xmlns:rdf="http://www.w3.org/1999/02/22-rdf-syntax-ns#">
   <cc:Work>
    <dc:type rdf:resource="http://purl.org/dc/dcmitype/StillImage"/>
    <dc:date>2025-07-24T14:39:29.731687</dc:date>
    <dc:format>image/svg+xml</dc:format>
    <dc:creator>
     <cc:Agent>
      <dc:title>Matplotlib v3.10.3, https://matplotlib.org/</dc:title>
     </cc:Agent>
    </dc:creator>
   </cc:Work>
  </rdf:RDF>
 </metadata>
 <defs>
  <style type="text/css">*{stroke-linejoin: round; stroke-linecap: butt}</style>
 </defs>
 <g id="figure_1">
  <g id="patch_1">
   <path d="M 0 351.034375 
L 854.454937 351.034375 
L 854.454937 0 
L 0 0 
z
" style="fill: #ffffff"/>
  </g>
  <g id="axes_1">
   <g id="patch_2">
    <path d="M 52.160938 313.478125 
L 847.254938 313.478125 
L 847.254938 22.318125 
L 52.160938 22.318125 
z
" style="fill: #ffffff"/>
   </g>
   <g id="matplotlib.axis_1">
    <g id="xtick_1">
     <g id="line2d_1">
      <path d="M 63.582291 313.478125 
L 63.582291 22.318125 
" clip-path="url(#pe9a1988f5d)" style="fill: none; stroke: #b0b0b0; stroke-width: 0.8; stroke-linecap: square"/>
     </g>
     <g id="line2d_2">
      <defs>
       <path id="mbf93ab1b31" d="M 0 0 
L 0 3.5 
" style="stroke: #000000; stroke-width: 0.8"/>
      </defs>
      <g>
       <use xlink:href="#mbf93ab1b31" x="63.582291" y="313.478125" style="stroke: #000000; stroke-width: 0.8"/>
      </g>
     </g>
     <g id="text_1">
      <!-- −14000 -->
      <g transform="translate(43.486197 328.076563) scale(0.1 -0.1)">
       <defs>
        <path id="DejaVuSans-2212" d="M 678 2272 
L 4684 2272 
L 4684 1741 
L 678 1741 
L 678 2272 
z
" transform="scale(0.015625)"/>
        <path id="DejaVuSans-31" d="M 794 531 
L 1825 531 
L 1825 4091 
L 703 3866 
L 703 4441 
L 1819 4666 
L 2450 4666 
L 2450 531 
L 3481 531 
L 3481 0 
L 794 0 
L 794 531 
z
" transform="scale(0.015625)"/>
        <path id="DejaVuSans-34" d="M 2419 4116 
L 825 1625 
L 2419 1625 
L 2419 4116 
z
M 2253 4666 
L 3047 4666 
L 3047 1625 
L 3713 1625 
L 3713 1100 
L 3047 1100 
L 3047 0 
L 2419 0 
L 2419 1100 
L 313 1100 
L 313 1709 
L 2253 4666 
z
" transform="scale(0.015625)"/>
        <path id="DejaVuSans-30" d="M 2034 4250 
Q 1547 4250 1301 3770 
Q 1056 3291 1056 2328 
Q 1056 1369 1301 889 
Q 1547 409 2034 409 
Q 2525 409 2770 889 
Q 3016 1369 3016 2328 
Q 3016 3291 2770 3770 
Q 2525 4250 2034 4250 
z
M 2034 4750 
Q 2819 4750 3233 4129 
Q 3647 3509 3647 2328 
Q 3647 1150 3233 529 
Q 2819 -91 2034 -91 
Q 1250 -91 836 529 
Q 422 1150 422 2328 
Q 422 3509 836 4129 
Q 1250 4750 2034 4750 
z
" transform="scale(0.015625)"/>
       </defs>
       <use xlink:href="#DejaVuSans-2212"/>
       <use xlink:href="#DejaVuSans-31" transform="translate(83.789062 0)"/>
       <use xlink:href="#DejaVuSans-34" transform="translate(147.412109 0)"/>
       <use xlink:href="#DejaVuSans-30" transform="translate(211.035156 0)"/>
       <use xlink:href="#DejaVuSans-30" transform="translate(274.658203 0)"/>
       <use xlink:href="#DejaVuSans-30" transform="translate(338.28125 0)"/>
      </g>
     </g>
    </g>
    <g id="xtick_2">
     <g id="line2d_3">
      <path d="M 169.908598 313.478125 
L 169.908598 22.318125 
" clip-path="url(#pe9a1988f5d)" style="fill: none; stroke: #b0b0b0; stroke-width: 0.8; stroke-linecap: square"/>
     </g>
     <g id="line2d_4">
      <g>
       <use xlink:href="#mbf93ab1b31" x="169.908598" y="313.478125" style="stroke: #000000; stroke-width: 0.8"/>
      </g>
     </g>
     <g id="text_2">
      <!-- −12000 -->
      <g transform="translate(149.812504 328.076563) scale(0.1 -0.1)">
       <defs>
        <path id="DejaVuSans-32" d="M 1228 531 
L 3431 531 
L 3431 0 
L 469 0 
L 469 531 
Q 828 903 1448 1529 
Q 2069 2156 2228 2338 
Q 2531 2678 2651 2914 
Q 2772 3150 2772 3378 
Q 2772 3750 2511 3984 
Q 2250 4219 1831 4219 
Q 1534 4219 1204 4116 
Q 875 4013 500 3803 
L 500 4441 
Q 881 4594 1212 4672 
Q 1544 4750 1819 4750 
Q 2544 4750 2975 4387 
Q 3406 4025 3406 3419 
Q 3406 3131 3298 2873 
Q 3191 2616 2906 2266 
Q 2828 2175 2409 1742 
Q 1991 1309 1228 531 
z
" transform="scale(0.015625)"/>
       </defs>
       <use xlink:href="#DejaVuSans-2212"/>
       <use xlink:href="#DejaVuSans-31" transform="translate(83.789062 0)"/>
       <use xlink:href="#DejaVuSans-32" transform="translate(147.412109 0)"/>
       <use xlink:href="#DejaVuSans-30" transform="translate(211.035156 0)"/>
       <use xlink:href="#DejaVuSans-30" transform="translate(274.658203 0)"/>
       <use xlink:href="#DejaVuSans-30" transform="translate(338.28125 0)"/>
      </g>
     </g>
    </g>
    <g id="xtick_3">
     <g id="line2d_5">
      <path d="M 276.234905 313.478125 
L 276.234905 22.318125 
" clip-path="url(#pe9a1988f5d)" style="fill: none; stroke: #b0b0b0; stroke-width: 0.8; stroke-linecap: square"/>
     </g>
     <g id="line2d_6">
      <g>
       <use xlink:href="#mbf93ab1b31" x="276.234905" y="313.478125" style="stroke: #000000; stroke-width: 0.8"/>
      </g>
     </g>
     <g id="text_3">
      <!-- −10000 -->
      <g transform="translate(256.138812 328.076563) scale(0.1 -0.1)">
       <use xlink:href="#DejaVuSans-2212"/>
       <use xlink:href="#DejaVuSans-31" transform="translate(83.789062 0)"/>
       <use xlink:href="#DejaVuSans-30" transform="translate(147.412109 0)"/>
       <use xlink:href="#DejaVuSans-30" transform="translate(211.035156 0)"/>
       <use xlink:href="#DejaVuSans-30" transform="translate(274.658203 0)"/>
       <use xlink:href="#DejaVuSans-30" transform="translate(338.28125 0)"/>
      </g>
     </g>
    </g>
    <g id="xtick_4">
     <g id="line2d_7">
      <path d="M 382.561213 313.478125 
L 382.561213 22.318125 
" clip-path="url(#pe9a1988f5d)" style="fill: none; stroke: #b0b0b0; stroke-width: 0.8; stroke-linecap: square"/>
     </g>
     <g id="line2d_8">
      <g>
       <use xlink:href="#mbf93ab1b31" x="382.561213" y="313.478125" style="stroke: #000000; stroke-width: 0.8"/>
      </g>
     </g>
     <g id="text_4">
      <!-- −8000 -->
      <g transform="translate(365.646369 328.076563) scale(0.1 -0.1)">
       <defs>
        <path id="DejaVuSans-38" d="M 2034 2216 
Q 1584 2216 1326 1975 
Q 1069 1734 1069 1313 
Q 1069 891 1326 650 
Q 1584 409 2034 409 
Q 2484 409 2743 651 
Q 3003 894 3003 1313 
Q 3003 1734 2745 1975 
Q 2488 2216 2034 2216 
z
M 1403 2484 
Q 997 2584 770 2862 
Q 544 3141 544 3541 
Q 544 4100 942 4425 
Q 1341 4750 2034 4750 
Q 2731 4750 3128 4425 
Q 3525 4100 3525 3541 
Q 3525 3141 3298 2862 
Q 3072 2584 2669 2484 
Q 3125 2378 3379 2068 
Q 3634 1759 3634 1313 
Q 3634 634 3220 271 
Q 2806 -91 2034 -91 
Q 1263 -91 848 271 
Q 434 634 434 1313 
Q 434 1759 690 2068 
Q 947 2378 1403 2484 
z
M 1172 3481 
Q 1172 3119 1398 2916 
Q 1625 2713 2034 2713 
Q 2441 2713 2670 2916 
Q 2900 3119 2900 3481 
Q 2900 3844 2670 4047 
Q 2441 4250 2034 4250 
Q 1625 4250 1398 4047 
Q 1172 3844 1172 3481 
z
" transform="scale(0.015625)"/>
       </defs>
       <use xlink:href="#DejaVuSans-2212"/>
       <use xlink:href="#DejaVuSans-38" transform="translate(83.789062 0)"/>
       <use xlink:href="#DejaVuSans-30" transform="translate(147.412109 0)"/>
       <use xlink:href="#DejaVuSans-30" transform="translate(211.035156 0)"/>
       <use xlink:href="#DejaVuSans-30" transform="translate(274.658203 0)"/>
      </g>
     </g>
    </g>
    <g id="xtick_5">
     <g id="line2d_9">
      <path d="M 488.88752 313.478125 
L 488.88752 22.318125 
" clip-path="url(#pe9a1988f5d)" style="fill: none; stroke: #b0b0b0; stroke-width: 0.8; stroke-linecap: square"/>
     </g>
     <g id="line2d_10">
      <g>
       <use xlink:href="#mbf93ab1b31" x="488.88752" y="313.478125" style="stroke: #000000; stroke-width: 0.8"/>
      </g>
     </g>
     <g id="text_5">
      <!-- −6000 -->
      <g transform="translate(471.972676 328.076563) scale(0.1 -0.1)">
       <defs>
        <path id="DejaVuSans-36" d="M 2113 2584 
Q 1688 2584 1439 2293 
Q 1191 2003 1191 1497 
Q 1191 994 1439 701 
Q 1688 409 2113 409 
Q 2538 409 2786 701 
Q 3034 994 3034 1497 
Q 3034 2003 2786 2293 
Q 2538 2584 2113 2584 
z
M 3366 4563 
L 3366 3988 
Q 3128 4100 2886 4159 
Q 2644 4219 2406 4219 
Q 1781 4219 1451 3797 
Q 1122 3375 1075 2522 
Q 1259 2794 1537 2939 
Q 1816 3084 2150 3084 
Q 2853 3084 3261 2657 
Q 3669 2231 3669 1497 
Q 3669 778 3244 343 
Q 2819 -91 2113 -91 
Q 1303 -91 875 529 
Q 447 1150 447 2328 
Q 447 3434 972 4092 
Q 1497 4750 2381 4750 
Q 2619 4750 2861 4703 
Q 3103 4656 3366 4563 
z
" transform="scale(0.015625)"/>
       </defs>
       <use xlink:href="#DejaVuSans-2212"/>
       <use xlink:href="#DejaVuSans-36" transform="translate(83.789062 0)"/>
       <use xlink:href="#DejaVuSans-30" transform="translate(147.412109 0)"/>
       <use xlink:href="#DejaVuSans-30" transform="translate(211.035156 0)"/>
       <use xlink:href="#DejaVuSans-30" transform="translate(274.658203 0)"/>
      </g>
     </g>
    </g>
    <g id="xtick_6">
     <g id="line2d_11">
      <path d="M 595.213827 313.478125 
L 595.213827 22.318125 
" clip-path="url(#pe9a1988f5d)" style="fill: none; stroke: #b0b0b0; stroke-width: 0.8; stroke-linecap: square"/>
     </g>
     <g id="line2d_12">
      <g>
       <use xlink:href="#mbf93ab1b31" x="595.213827" y="313.478125" style="stroke: #000000; stroke-width: 0.8"/>
      </g>
     </g>
     <g id="text_6">
      <!-- −4000 -->
      <g transform="translate(578.298984 328.076563) scale(0.1 -0.1)">
       <use xlink:href="#DejaVuSans-2212"/>
       <use xlink:href="#DejaVuSans-34" transform="translate(83.789062 0)"/>
       <use xlink:href="#DejaVuSans-30" transform="translate(147.412109 0)"/>
       <use xlink:href="#DejaVuSans-30" transform="translate(211.035156 0)"/>
       <use xlink:href="#DejaVuSans-30" transform="translate(274.658203 0)"/>
      </g>
     </g>
    </g>
    <g id="xtick_7">
     <g id="line2d_13">
      <path d="M 701.540135 313.478125 
L 701.540135 22.318125 
" clip-path="url(#pe9a1988f5d)" style="fill: none; stroke: #b0b0b0; stroke-width: 0.8; stroke-linecap: square"/>
     </g>
     <g id="line2d_14">
      <g>
       <use xlink:href="#mbf93ab1b31" x="701.540135" y="313.478125" style="stroke: #000000; stroke-width: 0.8"/>
      </g>
     </g>
     <g id="text_7">
      <!-- −2000 -->
      <g transform="translate(684.625291 328.076563) scale(0.1 -0.1)">
       <use xlink:href="#DejaVuSans-2212"/>
       <use xlink:href="#DejaVuSans-32" transform="translate(83.789062 0)"/>
       <use xlink:href="#DejaVuSans-30" transform="translate(147.412109 0)"/>
       <use xlink:href="#DejaVuSans-30" transform="translate(211.035156 0)"/>
       <use xlink:href="#DejaVuSans-30" transform="translate(274.658203 0)"/>
      </g>
     </g>
    </g>
    <g id="xtick_8">
     <g id="line2d_15">
      <path d="M 807.866442 313.478125 
L 807.866442 22.318125 
" clip-path="url(#pe9a1988f5d)" style="fill: none; stroke: #b0b0b0; stroke-width: 0.8; stroke-linecap: square"/>
     </g>
     <g id="line2d_16">
      <g>
       <use xlink:href="#mbf93ab1b31" x="807.866442" y="313.478125" style="stroke: #000000; stroke-width: 0.8"/>
      </g>
     </g>
     <g id="text_8">
      <!-- 0 -->
      <g transform="translate(804.685192 328.076563) scale(0.1 -0.1)">
       <use xlink:href="#DejaVuSans-30"/>
      </g>
     </g>
    </g>
    <g id="text_9">
     <!-- t [s] -->
     <g transform="translate(439.652469 341.754687) scale(0.1 -0.1)">
      <defs>
       <path id="DejaVuSans-74" d="M 1172 4494 
L 1172 3500 
L 2356 3500 
L 2356 3053 
L 1172 3053 
L 1172 1153 
Q 1172 725 1289 603 
Q 1406 481 1766 481 
L 2356 481 
L 2356 0 
L 1766 0 
Q 1100 0 847 248 
Q 594 497 594 1153 
L 594 3053 
L 172 3053 
L 172 3500 
L 594 3500 
L 594 4494 
L 1172 4494 
z
" transform="scale(0.015625)"/>
       <path id="DejaVuSans-20" transform="scale(0.015625)"/>
       <path id="DejaVuSans-5b" d="M 550 4863 
L 1875 4863 
L 1875 4416 
L 1125 4416 
L 1125 -397 
L 1875 -397 
L 1875 -844 
L 550 -844 
L 550 4863 
z
" transform="scale(0.015625)"/>
       <path id="DejaVuSans-73" d="M 2834 3397 
L 2834 2853 
Q 2591 2978 2328 3040 
Q 2066 3103 1784 3103 
Q 1356 3103 1142 2972 
Q 928 2841 928 2578 
Q 928 2378 1081 2264 
Q 1234 2150 1697 2047 
L 1894 2003 
Q 2506 1872 2764 1633 
Q 3022 1394 3022 966 
Q 3022 478 2636 193 
Q 2250 -91 1575 -91 
Q 1294 -91 989 -36 
Q 684 19 347 128 
L 347 722 
Q 666 556 975 473 
Q 1284 391 1588 391 
Q 1994 391 2212 530 
Q 2431 669 2431 922 
Q 2431 1156 2273 1281 
Q 2116 1406 1581 1522 
L 1381 1569 
Q 847 1681 609 1914 
Q 372 2147 372 2553 
Q 372 3047 722 3315 
Q 1072 3584 1716 3584 
Q 2034 3584 2315 3537 
Q 2597 3491 2834 3397 
z
" transform="scale(0.015625)"/>
       <path id="DejaVuSans-5d" d="M 1947 4863 
L 1947 -844 
L 622 -844 
L 622 -397 
L 1369 -397 
L 1369 4416 
L 622 4416 
L 622 4863 
L 1947 4863 
z
" transform="scale(0.015625)"/>
      </defs>
      <use xlink:href="#DejaVuSans-74"/>
      <use xlink:href="#DejaVuSans-20" transform="translate(39.208984 0)"/>
      <use xlink:href="#DejaVuSans-5b" transform="translate(70.996094 0)"/>
      <use xlink:href="#DejaVuSans-73" transform="translate(110.009766 0)"/>
      <use xlink:href="#DejaVuSans-5d" transform="translate(162.109375 0)"/>
     </g>
    </g>
   </g>
   <g id="matplotlib.axis_2">
    <g id="ytick_1">
     <g id="line2d_17">
      <path d="M 52.160938 274.109136 
L 847.254938 274.109136 
" clip-path="url(#pe9a1988f5d)" style="fill: none; stroke: #b0b0b0; stroke-width: 0.8; stroke-linecap: square"/>
     </g>
     <g id="line2d_18">
      <defs>
       <path id="me824edf736" d="M 0 0 
L -3.5 0 
" style="stroke: #000000; stroke-width: 0.8"/>
      </defs>
      <g>
       <use xlink:href="#me824edf736" x="52.160938" y="274.109136" style="stroke: #000000; stroke-width: 0.8"/>
      </g>
     </g>
     <g id="text_10">
      <!-- −0.2 -->
      <g transform="translate(20.878125 277.908355) scale(0.1 -0.1)">
       <defs>
        <path id="DejaVuSans-2e" d="M 684 794 
L 1344 794 
L 1344 0 
L 684 0 
L 684 794 
z
" transform="scale(0.015625)"/>
       </defs>
       <use xlink:href="#DejaVuSans-2212"/>
       <use xlink:href="#DejaVuSans-30" transform="translate(83.789062 0)"/>
       <use xlink:href="#DejaVuSans-2e" transform="translate(147.412109 0)"/>
       <use xlink:href="#DejaVuSans-32" transform="translate(179.199219 0)"/>
      </g>
     </g>
    </g>
    <g id="ytick_2">
     <g id="line2d_19">
      <path d="M 52.160938 220.04071 
L 847.254938 220.04071 
" clip-path="url(#pe9a1988f5d)" style="fill: none; stroke: #b0b0b0; stroke-width: 0.8; stroke-linecap: square"/>
     </g>
     <g id="line2d_20">
      <g>
       <use xlink:href="#me824edf736" x="52.160938" y="220.04071" style="stroke: #000000; stroke-width: 0.8"/>
      </g>
     </g>
     <g id="text_11">
      <!-- −0.1 -->
      <g transform="translate(20.878125 223.839929) scale(0.1 -0.1)">
       <use xlink:href="#DejaVuSans-2212"/>
       <use xlink:href="#DejaVuSans-30" transform="translate(83.789062 0)"/>
       <use xlink:href="#DejaVuSans-2e" transform="translate(147.412109 0)"/>
       <use xlink:href="#DejaVuSans-31" transform="translate(179.199219 0)"/>
      </g>
     </g>
    </g>
    <g id="ytick_3">
     <g id="line2d_21">
      <path d="M 52.160938 165.972284 
L 847.254938 165.972284 
" clip-path="url(#pe9a1988f5d)" style="fill: none; stroke: #b0b0b0; stroke-width: 0.8; stroke-linecap: square"/>
     </g>
     <g id="line2d_22">
      <g>
       <use xlink:href="#me824edf736" x="52.160938" y="165.972284" style="stroke: #000000; stroke-width: 0.8"/>
      </g>
     </g>
     <g id="text_12">
      <!-- 0.0 -->
      <g transform="translate(29.257812 169.771503) scale(0.1 -0.1)">
       <use xlink:href="#DejaVuSans-30"/>
       <use xlink:href="#DejaVuSans-2e" transform="translate(63.623047 0)"/>
       <use xlink:href="#DejaVuSans-30" transform="translate(95.410156 0)"/>
      </g>
     </g>
    </g>
    <g id="ytick_4">
     <g id="line2d_23">
      <path d="M 52.160938 111.903858 
L 847.254938 111.903858 
" clip-path="url(#pe9a1988f5d)" style="fill: none; stroke: #b0b0b0; stroke-width: 0.8; stroke-linecap: square"/>
     </g>
     <g id="line2d_24">
      <g>
       <use xlink:href="#me824edf736" x="52.160938" y="111.903858" style="stroke: #000000; stroke-width: 0.8"/>
      </g>
     </g>
     <g id="text_13">
      <!-- 0.1 -->
      <g transform="translate(29.257812 115.703077) scale(0.1 -0.1)">
       <use xlink:href="#DejaVuSans-30"/>
       <use xlink:href="#DejaVuSans-2e" transform="translate(63.623047 0)"/>
       <use xlink:href="#DejaVuSans-31" transform="translate(95.410156 0)"/>
      </g>
     </g>
    </g>
    <g id="ytick_5">
     <g id="line2d_25">
      <path d="M 52.160938 57.835433 
L 847.254938 57.835433 
" clip-path="url(#pe9a1988f5d)" style="fill: none; stroke: #b0b0b0; stroke-width: 0.8; stroke-linecap: square"/>
     </g>
     <g id="line2d_26">
      <g>
       <use xlink:href="#me824edf736" x="52.160938" y="57.835433" style="stroke: #000000; stroke-width: 0.8"/>
      </g>
     </g>
     <g id="text_14">
      <!-- 0.2 -->
      <g transform="translate(29.257812 61.634651) scale(0.1 -0.1)">
       <use xlink:href="#DejaVuSans-30"/>
       <use xlink:href="#DejaVuSans-2e" transform="translate(63.623047 0)"/>
       <use xlink:href="#DejaVuSans-32" transform="translate(95.410156 0)"/>
      </g>
     </g>
    </g>
    <g id="text_15">
     <!-- $h_{22}]$ -->
     <g transform="translate(14.798438 177.648125) rotate(-90) scale(0.1 -0.1)">
      <defs>
       <path id="DejaVuSans-Oblique-68" d="M 3566 2113 
L 3156 0 
L 2578 0 
L 2988 2091 
Q 3016 2238 3031 2350 
Q 3047 2463 3047 2528 
Q 3047 2791 2881 2937 
Q 2716 3084 2419 3084 
Q 1956 3084 1617 2771 
Q 1278 2459 1178 1941 
L 800 0 
L 225 0 
L 1172 4863 
L 1747 4863 
L 1375 2950 
Q 1594 3244 1934 3414 
Q 2275 3584 2650 3584 
Q 3113 3584 3367 3334 
Q 3622 3084 3622 2631 
Q 3622 2519 3608 2391 
Q 3594 2263 3566 2113 
z
" transform="scale(0.015625)"/>
      </defs>
      <use xlink:href="#DejaVuSans-Oblique-68" transform="translate(0 0.015625)"/>
      <use xlink:href="#DejaVuSans-32" transform="translate(63.378906 -16.390625) scale(0.7)"/>
      <use xlink:href="#DejaVuSans-32" transform="translate(107.915039 -16.390625) scale(0.7)"/>
      <use xlink:href="#DejaVuSans-5d" transform="translate(155.185547 0.015625)"/>
     </g>
    </g>
   </g>
   <g id="line2d_27">
    <path d="M 88.301574 148.155207 
L 90.597619 152.232672 
L 92.01057 154.389701 
L 93.070283 155.621017 
L 94.041687 156.398119 
L 95.1014 156.937557 
L 100.929823 159.161516 
L 102.872631 159.500436 
L 104.815438 159.937057 
L 107.376412 160.550004 
L 110.202314 161.058747 
L 111.173718 161.555947 
L 112.145121 162.310888 
L 113.381453 163.569318 
L 114.882714 165.414925 
L 115.942427 167.034227 
L 116.825521 168.78517 
L 117.620306 170.833505 
L 118.503401 173.776118 
L 119.386495 177.507019 
L 120.446208 183.000618 
L 122.653944 194.902781 
L 123.095491 195.97519 
L 123.36042 196.079472 
L 123.537039 195.869526 
L 123.801967 195.070372 
L 124.155205 192.97803 
L 124.596752 188.520848 
L 125.126608 180.398672 
L 125.921393 163.757962 
L 127.157725 137.732278 
L 127.687582 130.975887 
L 128.04082 128.673929 
L 128.305748 128.112258 
L 128.482367 128.259494 
L 128.747295 129.188771 
L 129.100533 131.55144 
L 129.63039 136.811635 
L 132.103054 163.941234 
L 132.897839 169.454835 
L 133.604314 173.010225 
L 134.31079 175.542024 
L 135.017265 177.244832 
L 135.635431 178.176318 
L 136.165288 178.631822 
L 136.695144 178.82924 
L 137.31331 178.808282 
L 138.108095 178.518446 
L 139.874284 177.523172 
L 143.230043 175.535459 
L 144.642994 174.298585 
L 150.736345 168.290074 
L 152.767462 165.785531 
L 156.299839 161.040776 
L 157.977718 158.409571 
L 159.832216 155.0612 
L 161.951643 151.277998 
L 162.746428 150.28788 
L 163.276284 149.917933 
L 163.717832 149.853179 
L 164.071069 149.996884 
L 164.512616 150.466313 
L 164.954164 151.312011 
L 165.48402 152.912782 
L 166.013877 155.267207 
L 166.632043 159.14225 
L 167.250209 164.423001 
L 168.044994 173.430426 
L 170.341039 201.906779 
L 170.605967 202.804582 
L 170.782586 202.803384 
L 170.959205 202.280297 
L 171.224134 200.469094 
L 171.577371 196.122879 
L 172.107228 185.889368 
L 173.166941 158.743393 
L 173.873417 143.2114 
L 174.403273 135.849733 
L 174.756511 133.273207 
L 175.021439 132.495707 
L 175.198058 132.473958 
L 175.374677 132.807323 
L 175.639605 133.885829 
L 176.081152 136.883851 
L 176.875937 144.393481 
L 178.553817 160.480706 
L 179.436911 166.871322 
L 180.231696 171.208671 
L 180.938171 174.030198 
L 181.644647 175.99242 
L 182.262813 177.108349 
L 182.880979 177.768265 
L 183.499145 178.075345 
L 184.117311 178.124195 
L 184.823787 177.959604 
L 185.706881 177.523556 
L 186.678285 176.801888 
L 187.737998 175.71771 
L 188.886021 174.191071 
L 190.47559 171.640613 
L 198.511749 158.214639 
L 199.836391 156.479946 
L 200.807794 155.520471 
L 201.602579 155.003646 
L 202.309055 154.781134 
L 203.01553 154.800482 
L 203.633696 155.027933 
L 204.251862 155.469081 
L 204.958338 156.275528 
L 205.664813 157.480344 
L 206.371289 159.194266 
L 207.077764 161.543633 
L 207.872549 165.082343 
L 208.755644 170.205619 
L 209.815357 177.816281 
L 211.669855 191.546911 
L 212.199711 193.849041 
L 212.46464 194.346231 
L 212.641259 194.366419 
L 212.817878 194.101113 
L 213.082806 193.10136 
L 213.436044 190.5027 
L 213.877591 185.00986 
L 214.407447 175.117523 
L 215.290542 153.179303 
L 216.173636 133.14514 
L 216.615183 127.515774 
L 216.880112 126.123611 
L 217.05673 126.064826 
L 217.233349 126.689123 
L 217.498278 128.830337 
L 217.939825 135.123487 
L 218.6463 149.512671 
L 219.794323 172.708573 
L 220.412489 181.238921 
L 220.942346 185.8827 
L 221.383893 188.08829 
L 221.73713 188.9475 
L 222.002059 189.154113 
L 222.266987 189.046312 
L 222.620225 188.498679 
L 223.061772 187.306915 
L 223.768247 184.599526 
L 225.00458 178.718849 
L 226.947387 169.58014 
L 228.183719 164.850963 
L 229.243432 161.595545 
L 230.214836 159.245576 
L 231.097931 157.639847 
L 231.892716 156.629285 
L 232.599191 156.061605 
L 233.305666 155.772465 
L 234.012142 155.718535 
L 234.806927 155.886438 
L 235.690021 156.311612 
L 236.573116 156.978329 
L 237.544519 158.015588 
L 238.515923 159.392693 
L 239.663946 161.423493 
L 241.253516 164.747742 
L 243.461252 169.916649 
L 246.993629 178.260308 
L 247.965033 179.983069 
L 248.671508 180.827158 
L 249.201365 181.124293 
L 249.554603 181.114101 
L 249.90784 180.902931 
L 250.349387 180.308371 
L 250.790935 179.28803 
L 251.320791 177.416546 
L 251.938957 174.224962 
L 252.645433 169.119829 
L 253.440218 161.479618 
L 254.499931 148.827405 
L 255.647954 135.755871 
L 256.089501 132.828037 
L 256.354429 132.136152 
L 256.442739 132.120394 
L 256.619357 132.444992 
L 256.884286 133.892372 
L 257.237523 137.745387 
L 257.679071 145.663628 
L 258.297237 161.450403 
L 259.621878 196.460432 
L 260.063425 202.690474 
L 260.328354 204.421538 
L 260.504973 204.737192 
L 260.593282 204.652986 
L 260.769901 204.026519 
L 261.034829 202.04421 
L 261.476376 196.516512 
L 262.271161 182.814694 
L 263.419184 163.78221 
L 264.125659 155.505216 
L 264.743825 150.660227 
L 265.273682 148.066723 
L 265.715229 146.829353 
L 266.068467 146.350254 
L 266.333395 146.24835 
L 266.598324 146.340348 
L 266.951561 146.726053 
L 267.393108 147.562066 
L 268.011275 149.237367 
L 268.982678 152.606432 
L 272.515056 165.474987 
L 273.839697 169.256026 
L 274.98772 171.878815 
L 276.047433 173.761054 
L 277.018837 175.067654 
L 277.901931 175.922031 
L 278.696716 176.40424 
L 279.403192 176.582188 
L 280.021358 176.530775 
L 280.727833 176.23129 
L 281.434309 175.684835 
L 282.317403 174.684898 
L 283.288807 173.215176 
L 284.34852 171.170302 
L 285.408233 168.612498 
L 286.556256 165.223035 
L 287.969207 160.296004 
L 291.060037 149.185363 
L 291.766513 147.534214 
L 292.20806 146.9446 
L 292.561298 146.797145 
L 292.826226 146.911552 
L 293.091154 147.245731 
L 293.444392 148.0763 
L 293.885939 149.817359 
L 294.415796 153.087241 
L 294.945652 157.804845 
L 295.563818 165.255863 
L 296.446913 179.098585 
L 297.683245 198.791106 
L 298.124792 202.759514 
L 298.38972 203.60968 
L 298.47803 203.593207 
L 298.654649 203.077042 
L 298.919577 201.043862 
L 299.272815 195.964573 
L 299.802671 183.855305 
L 301.657169 135.128091 
L 302.098717 130.492559 
L 302.363645 129.54359 
L 302.451954 129.512279 
L 302.628573 129.844161 
L 302.893501 131.228449 
L 303.335049 135.407289 
L 304.041524 144.915817 
L 305.542785 165.45521 
L 306.337569 173.291365 
L 307.044045 178.143568 
L 307.662211 180.904903 
L 308.192068 182.312447 
L 308.633615 182.905765 
L 308.986852 183.055701 
L 309.34009 182.958927 
L 309.781637 182.547757 
L 310.311494 181.717194 
L 311.106279 179.985796 
L 312.342611 176.630894 
L 314.991894 168.559069 
L 316.934702 163.012259 
L 318.347653 159.60516 
L 319.495675 157.358066 
L 320.467079 155.904996 
L 321.261864 155.061527 
L 321.968339 154.585071 
L 322.674815 154.369713 
L 323.292981 154.401564 
L 323.911147 154.653185 
L 324.529313 155.148135 
L 325.147479 155.916876 
L 325.853955 157.16996 
L 326.64874 159.095933 
L 327.531834 161.890383 
L 328.503238 165.720408 
L 329.73957 171.59748 
L 332.918709 187.578135 
L 333.360257 188.707306 
L 333.713494 189.101962 
L 333.890113 189.093378 
L 334.155042 188.783208 
L 334.41997 188.071938 
L 334.773208 186.41236 
L 335.214755 183.034545 
L 335.744611 176.839852 
L 336.362777 166.583255 
L 337.422491 144.0519 
L 338.128966 130.934035 
L 338.570513 126.451611 
L 338.747132 125.817146 
L 338.835442 125.77689 
L 339.01206 126.271193 
L 339.276989 128.469111 
L 339.630226 134.010956 
L 340.160083 146.863354 
L 341.749653 189.817429 
L 342.1912 196.226477 
L 342.544438 198.894946 
L 342.809366 199.573279 
L 342.985985 199.465737 
L 343.250913 198.577787 
L 343.604151 196.289026 
L 344.222317 190.274251 
L 346.694981 163.728772 
L 347.489766 158.114696 
L 348.196242 154.604063 
L 348.814408 152.559831 
L 349.344264 151.462801 
L 349.874121 150.872854 
L 350.315668 150.705827 
L 350.757215 150.787565 
L 351.287072 151.164917 
L 351.905238 151.932364 
L 352.611713 153.174545 
L 353.583117 155.399413 
L 354.907759 159.095801 
L 359.764778 173.238888 
L 361.00111 175.988993 
L 361.972514 177.670926 
L 362.767299 178.656625 
L 363.385465 179.127335 
L 363.915321 179.287089 
L 364.356868 179.225013 
L 364.798416 178.967324 
L 365.328272 178.378858 
L 365.946438 177.281135 
L 366.564604 175.716784 
L 367.27108 173.33094 
L 368.065865 169.846173 
L 368.948959 164.934876 
L 370.008672 157.668414 
L 372.304718 141.218407 
L 372.746265 139.460506 
L 373.099502 138.862232 
L 373.276121 138.899259 
L 373.45274 139.194359 
L 373.717668 140.176612 
L 374.070906 142.619523 
L 374.512453 147.711221 
L 375.04231 156.95824 
L 375.748786 173.735753 
L 376.896808 201.135206 
L 377.338355 206.648664 
L 377.603284 207.652303 
L 377.691593 207.569018 
L 377.868212 206.768635 
L 378.13314 204.024055 
L 378.486378 197.768382 
L 379.104544 181.837988 
L 380.340876 148.99697 
L 380.870733 140.336512 
L 381.31228 136.377834 
L 381.577208 135.306574 
L 381.753827 135.071846 
L 381.930446 135.178877 
L 382.195374 135.898771 
L 382.548612 137.710545 
L 383.078469 141.709831 
L 384.226491 152.620436 
L 385.551133 164.522433 
L 386.434227 170.690129 
L 387.229012 174.843341 
L 387.935488 177.498552 
L 388.641963 179.295484 
L 389.260129 180.249992 
L 389.789986 180.65688 
L 390.231533 180.729473 
L 390.67308 180.577262 
L 391.202937 180.121878 
L 391.821103 179.256176 
L 392.615888 177.703493 
L 393.675601 175.062444 
L 395.088552 170.885686 
L 397.472907 162.999068 
L 399.504024 156.57864 
L 400.652046 153.621791 
L 401.535141 151.933117 
L 402.153307 151.164165 
L 402.683163 150.835188 
L 403.12471 150.826369 
L 403.566258 151.084904 
L 404.007805 151.636106 
L 404.537661 152.722542 
L 405.067518 154.322787 
L 405.685684 156.916791 
L 406.39216 160.947714 
L 407.186944 166.926327 
L 408.158348 176.098006 
L 409.924537 193.321464 
L 410.366084 195.890335 
L 410.631012 196.665581 
L 410.807631 196.783968 
L 410.98425 196.538804 
L 411.249178 195.409463 
L 411.602416 192.316904 
L 412.043963 185.68211 
L 412.57382 173.777965 
L 414.428318 126.411861 
L 414.693246 124.062749 
L 414.869865 123.590713 
L 414.958175 123.688184 
L 415.134794 124.540332 
L 415.399722 127.379135 
L 415.841269 135.628731 
L 416.636054 156.581443 
L 417.519148 178.497317 
L 418.137314 188.592094 
L 418.578862 192.722774 
L 418.932099 194.355901 
L 419.197028 194.739802 
L 419.373647 194.648746 
L 419.638575 194.063303 
L 419.991813 192.588431 
L 420.521669 189.288919 
L 421.493073 181.459084 
L 423.259262 167.167802 
L 424.230665 161.034478 
L 425.11376 156.80109 
L 425.908545 154.053035 
L 426.61502 152.41109 
L 427.144877 151.64806 
L 427.674733 151.262028 
L 428.116281 151.208131 
L 428.557828 151.377445 
L 429.087684 151.846547 
L 429.70585 152.717327 
L 430.500635 154.27838 
L 431.472039 156.766655 
L 432.620062 160.407587 
L 434.121322 165.994129 
L 437.388771 178.399159 
L 438.360175 181.161718 
L 439.066651 182.553796 
L 439.596507 183.14498 
L 439.949745 183.280105 
L 440.302983 183.177674 
L 440.65622 182.808758 
L 441.097768 181.924597 
L 441.539315 180.508731 
L 442.069171 178.014265 
L 442.687337 173.882308 
L 443.393813 167.452677 
L 444.276907 157.084133 
L 446.043096 135.34653 
L 446.484643 132.536939 
L 446.749571 132.010801 
L 446.92619 132.251053 
L 447.102809 133.018727 
L 447.367737 135.242415 
L 447.720975 140.329085 
L 448.162522 150.048153 
L 448.868998 171.355239 
L 449.840402 199.81169 
L 450.281949 206.896649 
L 450.546877 208.507649 
L 450.635187 208.585846 
L 450.723496 208.437564 
L 450.900115 207.481539 
L 451.165043 204.516958 
L 451.60659 196.256302 
L 452.577994 171.452026 
L 453.372779 153.620797 
L 453.990945 144.503525 
L 454.432492 140.697191 
L 454.78573 139.103002 
L 455.050658 138.641953 
L 455.227277 138.64134 
L 455.403896 138.859362 
L 455.668824 139.54767 
L 456.110372 141.484036 
L 456.728538 145.364446 
L 458.053179 155.620759 
L 459.55444 166.599092 
L 460.614153 172.685854 
L 461.497247 176.499053 
L 462.203723 178.70469 
L 462.821889 180.030949 
L 463.351745 180.740404 
L 463.881602 181.080443 
L 464.323149 181.100429 
L 464.764696 180.896115 
L 465.294553 180.371536 
L 465.912719 179.394221 
L 466.619194 177.8204 
L 467.502289 175.218057 
L 468.562002 171.297034 
L 469.974953 165.104963 
L 473.242402 150.356776 
L 474.037187 147.893306 
L 474.567044 146.837914 
L 474.920281 146.472471 
L 475.18521 146.40786 
L 475.450138 146.545879 
L 475.803376 147.083301 
L 476.156613 148.074299 
L 476.598161 150.032751 
L 477.128017 153.562256 
L 477.746183 159.441823 
L 478.452659 168.455455 
L 479.688991 187.925329 
L 480.483776 198.750132 
L 480.925323 202.006236 
L 481.101942 202.446795 
L 481.190251 202.450256 
L 481.36687 201.988218 
L 481.631798 200.036839 
L 481.985036 194.944822 
L 482.426583 184.673031 
L 483.133059 161.783049 
L 484.016153 133.928857 
L 484.4577 125.76487 
L 484.722629 123.582894 
L 484.899247 123.304234 
L 485.075866 123.934847 
L 485.340795 126.450357 
L 485.782342 134.056067 
L 486.577127 153.423584 
L 487.54853 175.695787 
L 488.166697 185.246967 
L 488.696553 190.156067 
L 489.049791 191.903073 
L 489.314719 192.513106 
L 489.491338 192.623251 
L 489.667957 192.519452 
L 489.932885 192.005627 
L 490.286123 190.751432 
L 490.81598 187.935512 
L 491.699074 181.744099 
L 494.260048 163.036344 
L 495.231451 157.696839 
L 496.114546 154.051935 
L 496.821021 151.995662 
L 497.439187 150.811465 
L 497.969044 150.236881 
L 498.410591 150.058294 
L 498.852138 150.14575 
L 499.293685 150.494128 
L 499.823542 151.249858 
L 500.441708 152.583596 
L 501.148184 154.671606 
L 502.031278 158.041286 
L 503.090991 163.009024 
L 504.592251 171.230242 
L 506.711678 182.77554 
L 507.506463 185.903079 
L 508.036319 187.20385 
L 508.389557 187.60094 
L 508.654486 187.602196 
L 508.919414 187.314137 
L 509.272652 186.423892 
L 509.625889 184.885734 
L 510.067436 181.947011 
L 510.597293 176.79989 
L 511.215459 168.511153 
L 512.098553 153.170081 
L 513.246576 133.145149 
L 513.688123 128.601869 
L 513.953052 127.547461 
L 514.041361 127.531664 
L 514.21798 128.051233 
L 514.482908 130.295503 
L 514.836146 136.128874 
L 515.277693 147.699522 
L 516.160788 178.957427 
L 516.867263 200.388951 
L 517.30881 207.461037 
L 517.573738 208.811361 
L 517.662048 208.781615 
L 517.838667 208.037626 
L 518.103595 205.353415 
L 518.545142 197.539318 
L 519.428237 175.906835 
L 520.311331 156.137104 
L 520.929497 146.699702 
L 521.459354 141.823801 
L 521.812591 140.078382 
L 522.07752 139.465398 
L 522.254139 139.353244 
L 522.430757 139.455967 
L 522.695686 139.97129 
L 523.048923 141.235514 
L 523.57878 144.087261 
L 524.461874 150.398589 
L 527.199467 170.923356 
L 528.170871 176.251986 
L 528.965656 179.479696 
L 529.672131 181.457851 
L 530.201988 182.390812 
L 530.643535 182.80995 
L 530.996773 182.911799 
L 531.35001 182.806983 
L 531.791558 182.387255 
L 532.321414 181.466268 
L 532.93958 179.834629 
L 533.646056 177.279266 
L 534.52915 173.154606 
L 535.588863 167.067092 
L 537.355052 155.328483 
L 538.679693 147.171914 
L 539.386169 144.065939 
L 539.827716 142.899073 
L 540.180954 142.533541 
L 540.357573 142.573035 
L 540.622501 142.945087 
L 540.975739 144.090291 
L 541.328977 146.063867 
L 541.770524 149.817179 
L 542.30038 156.327266 
L 543.006856 168.273275 
L 544.949663 204.015261 
L 545.214592 205.673812 
L 545.391211 205.853861 
L 545.567829 205.210787 
L 545.832758 202.599968 
L 546.185995 195.985666 
L 546.715852 180.125556 
L 548.217112 129.146768 
L 548.57035 123.908381 
L 548.835279 122.658406 
L 548.923588 122.742174 
L 549.100207 123.618285 
L 549.365135 126.543188 
L 549.806682 134.799021 
L 550.778086 159.393855 
L 551.572871 177.160776 
L 552.191037 186.525893 
L 552.632584 190.628526 
L 552.985822 192.480543 
L 553.25075 193.124435 
L 553.427369 193.235226 
L 553.603988 193.114789 
L 553.868916 192.544918 
L 554.222154 191.162724 
L 554.752011 188.058836 
L 555.635105 181.205989 
L 558.196079 160.288228 
L 559.167482 154.450943 
L 559.962267 150.99167 
L 560.580433 149.170106 
L 561.11029 148.224839 
L 561.551837 147.874327 
L 561.905075 147.880554 
L 562.258313 148.140848 
L 562.69986 148.820215 
L 563.229716 150.143731 
L 563.847883 152.359216 
L 564.642667 156.188601 
L 565.614071 162.166374 
L 566.938713 171.948325 
L 568.793211 185.559226 
L 569.499686 189.151908 
L 569.941234 190.458042 
L 570.206162 190.786903 
L 570.382781 190.786283 
L 570.5594 190.592365 
L 570.824328 189.906595 
L 571.177566 188.180487 
L 571.619113 184.57878 
L 572.148969 177.974801 
L 572.767135 167.1794 
L 573.915158 141.85434 
L 574.621634 128.923321 
L 574.974871 125.5826 
L 575.15149 125.05187 
L 575.2398 125.109342 
L 575.416419 125.911693 
L 575.681347 128.912624 
L 576.034585 136.287333 
L 576.564441 153.538646 
L 577.977392 203.615716 
L 578.33063 208.994018 
L 578.595558 210.150744 
L 578.683868 209.999963 
L 578.860487 208.94123 
L 579.125415 205.639602 
L 579.566962 196.581745 
L 581.686388 146.067613 
L 582.216245 140.212875 
L 582.569483 138.141805 
L 582.834411 137.447699 
L 583.01103 137.352708 
L 583.187649 137.524582 
L 583.452577 138.23075 
L 583.805815 139.886191 
L 584.335671 143.539441 
L 585.218766 151.477938 
L 587.426502 172.015408 
L 588.309596 178.174825 
L 589.016072 181.809725 
L 589.634238 183.977951 
L 590.164094 185.066992 
L 590.517332 185.396226 
L 590.78226 185.435105 
L 591.047189 185.29648 
L 591.400426 184.83789 
L 591.841973 183.832025 
L 592.37183 182.011063 
L 592.989996 179.089678 
L 593.784781 174.203848 
L 594.844494 166.108602 
L 597.670396 143.465876 
L 598.200253 141.091246 
L 598.553491 140.27895 
L 598.818419 140.164793 
L 598.995038 140.355138 
L 599.259966 141.080832 
L 599.613204 142.950296 
L 600.054751 146.882051 
L 600.584608 154.091973 
L 601.202774 165.794415 
L 603.145581 205.811909 
L 603.410509 207.387372 
L 603.498819 207.47811 
L 603.587128 207.334169 
L 603.763747 206.309961 
L 604.028676 202.8582 
L 604.381913 194.696736 
L 604.91177 176.086777 
L 606.148102 129.154314 
L 606.50134 122.452585 
L 606.766268 120.559094 
L 606.854577 120.529165 
L 607.031196 121.333867 
L 607.296125 124.529032 
L 607.737672 134.076901 
L 608.709076 162.974061 
L 609.503861 183.008215 
L 610.033717 191.495768 
L 610.475264 195.404024 
L 610.740193 196.48181 
L 610.916811 196.725405 
L 611.09343 196.623058 
L 611.358359 195.887662 
L 611.711596 193.982453 
L 612.241453 189.62384 
L 613.124547 180.07772 
L 614.979046 159.621372 
L 615.86214 152.353728 
L 616.568615 148.249803 
L 617.098472 146.239441 
L 617.540019 145.271501 
L 617.893257 144.956888 
L 618.158185 144.985593 
L 618.423113 145.237617 
L 618.776351 145.913989 
L 619.217898 147.289267 
L 619.747755 149.675988 
L 620.45423 153.991951 
L 621.337325 160.896522 
L 622.750276 174.01945 
L 624.074917 185.786199 
L 624.781393 190.273086 
L 625.22294 191.92004 
L 625.487868 192.354195 
L 625.664487 192.378475 
L 625.841106 192.171437 
L 626.106034 191.39217 
L 626.459272 189.400249 
L 626.900819 185.242122 
L 627.430676 177.680229 
L 628.137151 163.553731 
L 629.815031 127.399504 
L 630.168268 124.549178 
L 630.256578 124.369313 
L 630.344887 124.42609 
L 630.521506 125.286895 
L 630.786434 128.542017 
L 631.139672 136.594441 
L 631.669529 155.522407 
L 632.99417 206.771738 
L 633.347408 212.308513 
L 633.524027 213.055521 
L 633.612336 212.923092 
L 633.788955 211.683461 
L 634.053884 207.585615 
L 634.495431 196.064853 
L 636.349929 140.486139 
L 636.791476 134.614992 
L 637.144714 132.486971 
L 637.321333 132.197277 
L 637.497951 132.371824 
L 637.76288 133.410198 
L 638.116118 136.012181 
L 638.645974 141.82409 
L 639.705687 156.661727 
L 640.942019 173.166829 
L 641.736804 181.141832 
L 642.35497 185.468458 
L 642.884827 187.797916 
L 643.326374 188.771525 
L 643.591303 188.944075 
L 643.856231 188.817346 
L 644.121159 188.40072 
L 644.474397 187.412724 
L 644.915944 185.522882 
L 645.53411 181.770092 
L 646.328895 175.358133 
L 647.476918 164.014375 
L 649.243106 146.544386 
L 649.949582 141.657243 
L 650.391129 139.829025 
L 650.656057 139.307844 
L 650.832676 139.232504 
L 651.009295 139.392465 
L 651.274223 140.105104 
L 651.627461 142.006529 
L 652.069008 146.029827 
L 652.598865 153.373153 
L 653.30534 167.118798 
L 655.071529 204.388525 
L 655.424767 206.994103 
L 655.513076 207.117234 
L 655.601386 207.005668 
L 655.778005 206.040474 
L 656.042933 202.635838 
L 656.396171 194.368394 
L 656.926027 174.975235 
L 658.162359 124.665637 
L 658.515597 118.192009 
L 658.692216 117.196956 
L 658.780525 117.277926 
L 658.957144 118.575184 
L 659.222073 123.176255 
L 659.66362 136.525436 
L 661.341499 195.462771 
L 661.783046 201.999122 
L 662.047974 203.573309 
L 662.224593 203.730444 
L 662.401212 203.241599 
L 662.666141 201.441537 
L 663.107688 196.176385 
L 663.814163 184.183114 
L 665.403733 156.270074 
L 666.110209 147.659765 
L 666.640065 143.372925 
L 667.081612 141.25056 
L 667.43485 140.474061 
L 667.611469 140.38053 
L 667.788088 140.475821 
L 668.053016 140.958436 
L 668.406254 142.198087 
L 668.847801 144.61734 
L 669.465967 149.3897 
L 670.349061 158.294121 
L 673.086654 187.792399 
L 673.61651 191.136223 
L 674.058058 192.678098 
L 674.322986 192.963391 
L 674.499605 192.859938 
L 674.764533 192.234856 
L 675.117771 190.471269 
L 675.559318 186.689386 
L 676.089175 179.789932 
L 676.79565 166.9041 
L 678.738458 128.147735 
L 679.003386 126.243435 
L 679.180005 125.961359 
L 679.356624 126.569535 
L 679.621552 129.295927 
L 679.97479 136.493696 
L 680.416337 150.945143 
L 682.094216 214.357783 
L 682.359145 216.11982 
L 682.447454 215.846392 
L 682.624073 214.010053 
L 682.889001 208.204746 
L 683.330548 191.966095 
L 684.743499 132.629119 
L 685.096737 125.687143 
L 685.361665 123.440815 
L 685.449975 123.230309 
L 685.538284 123.273963 
L 685.714903 124.078162 
L 685.979831 126.880502 
L 686.421379 134.839749 
L 687.304473 156.656846 
L 688.275877 178.877946 
L 688.894043 188.526346 
L 689.33559 192.823795 
L 689.688828 194.722135 
L 689.953756 195.294449 
L 690.130375 195.294162 
L 690.306994 195.005549 
L 690.571922 194.067211 
L 690.92516 191.962882 
L 691.455016 187.272416 
L 692.249801 177.778805 
L 694.810775 145.037003 
L 695.428941 140.482345 
L 695.870488 138.757074 
L 696.135416 138.418618 
L 696.312035 138.503434 
L 696.576964 139.116296 
L 696.930201 140.871523 
L 697.371749 144.608188 
L 697.901605 151.31904 
L 698.608081 163.596432 
L 700.639198 201.757881 
L 700.992435 204.07788 
L 701.169054 204.191854 
L 701.345673 203.511706 
L 701.610601 200.877097 
L 701.963839 194.176814 
L 702.405386 180.801392 
L 703.200171 147.513422 
L 703.906647 121.629331 
L 704.259885 115.845571 
L 704.348194 115.460558 
L 704.436503 115.533771 
L 704.613122 117.082408 
L 704.878051 122.865658 
L 705.231288 136.304441 
L 706.114383 183.125392 
L 706.644239 205.184984 
L 706.997477 212.767816 
L 707.174096 214.156403 
L 707.262405 214.262963 
L 707.350715 213.993 
L 707.527334 212.388375 
L 707.792262 207.627034 
L 708.233809 195.052199 
L 709.911688 141.832058 
L 710.353236 134.677173 
L 710.706473 131.740667 
L 710.971402 131.067378 
L 711.059711 131.113748 
L 711.23633 131.584919 
L 711.501258 133.161336 
L 711.942805 137.747099 
L 712.560971 147.118318 
L 715.033636 188.065923 
L 715.563492 192.742103 
L 715.91673 194.507402 
L 716.181658 195.073429 
L 716.358277 195.080097 
L 716.534896 194.787043 
L 716.799824 193.784669 
L 717.153062 191.409962 
L 717.594609 186.841045 
L 718.212775 177.781143 
L 719.09587 161.03766 
L 720.332202 137.67374 
L 720.862058 131.469953 
L 721.126987 130.00425 
L 721.303606 129.770509 
L 721.480224 130.194355 
L 721.745153 132.161726 
L 722.09839 137.430175 
L 722.539938 148.304217 
L 723.158104 170.153258 
L 724.217817 208.633309 
L 724.571055 214.630238 
L 724.747673 215.265409 
L 724.835983 214.918748 
L 725.012602 212.837572 
L 725.27753 206.222717 
L 725.719077 186.858848 
L 727.043719 117.990071 
L 727.308647 113.231164 
L 727.396957 112.73368 
L 727.485266 112.782251 
L 727.661885 114.472166 
L 727.926813 120.655062 
L 728.36836 138.333662 
L 729.693002 197.518977 
L 730.134549 206.612092 
L 730.399477 208.586319 
L 730.487787 208.695843 
L 730.576096 208.546841 
L 730.752715 207.519386 
L 731.017643 204.34938 
L 731.459191 195.673913 
L 732.342285 172.026241 
L 733.313689 147.897674 
L 733.931855 137.887606 
L 734.373402 134.058856 
L 734.63833 133.141406 
L 734.814949 133.09693 
L 734.991568 133.49444 
L 735.256496 134.887259 
L 735.609734 138.130112 
L 736.139591 145.561899 
L 736.934376 160.797825 
L 738.523945 192.437697 
L 739.053802 198.724464 
L 739.40704 200.638578 
L 739.583659 200.791431 
L 739.760277 200.364032 
L 740.025206 198.580642 
L 740.378444 193.997495 
L 740.819991 184.770437 
L 741.438157 166.341042 
L 742.762798 124.67525 
L 743.116036 120.042349 
L 743.204345 119.710264 
L 743.292655 119.748265 
L 743.469274 120.99508 
L 743.734202 125.93466 
L 744.08744 138.220176 
L 744.617296 166.324323 
L 745.500391 213.606749 
L 745.853629 221.428803 
L 745.941938 221.803798 
L 746.030247 221.508314 
L 746.206866 218.906983 
L 746.471795 210.246863 
L 746.913342 185.982428 
L 747.973055 123.785598 
L 748.326293 115.084171 
L 748.502912 113.933486 
L 748.591221 114.134716 
L 748.76784 115.992913 
L 749.032768 121.99978 
L 749.474315 138.250613 
L 750.887266 195.240912 
L 751.328813 203.88785 
L 751.593742 206.141295 
L 751.770361 206.459958 
L 751.94698 205.885709 
L 752.211908 203.488352 
L 752.565146 197.825903 
L 753.183312 183.099657 
L 754.861191 139.557001 
L 755.391048 132.116073 
L 755.744285 130.050679 
L 755.920904 129.96062 
L 756.097523 130.514037 
L 756.362451 132.550486 
L 756.715689 137.45336 
L 757.245546 149.008601 
L 758.040331 172.694476 
L 759.011734 200.493556 
L 759.453282 207.407321 
L 759.71821 208.579103 
L 759.806519 208.3904 
L 759.983138 207.08167 
L 760.248066 202.696386 
L 760.601304 192.318851 
L 761.131161 168.51654 
L 762.190874 117.829854 
L 762.455802 112.40813 
L 762.544112 111.779939 
L 762.632421 111.797527 
L 762.80904 113.851395 
L 763.073968 122.0369 
L 763.427206 141.525954 
L 764.663538 221.562358 
L 764.928467 225.410452 
L 765.016776 225.004242 
L 765.193395 221.712519 
L 765.458323 211.167356 
L 765.98818 176.758442 
L 766.782965 126.510206 
L 767.136202 115.601025 
L 767.312821 113.611122 
L 767.401131 113.469454 
L 767.48944 113.874419 
L 767.666059 116.22603 
L 767.930987 123.132601 
L 768.460844 145.254907 
L 769.608867 195.809673 
L 770.050414 206.066366 
L 770.315342 208.669211 
L 770.491961 208.911274 
L 770.66858 208.000475 
L 770.933508 204.615453 
L 771.286746 196.816039 
L 771.904912 176.829031 
L 773.141244 134.765838 
L 773.582791 126.425005 
L 773.847719 124.373049 
L 773.936029 124.235763 
L 774.024338 124.381645 
L 774.200957 125.536161 
L 774.465886 129.431703 
L 774.819123 138.496155 
L 775.34898 158.896564 
L 776.585312 210.057567 
L 776.85024 214.771512 
L 777.026859 215.548927 
L 777.115169 215.150521 
L 777.291787 212.695319 
L 777.556716 204.790345 
L 777.909953 186.912677 
L 779.234595 107.554417 
L 779.411214 105.930607 
L 779.499523 106.580943 
L 779.676142 110.889996 
L 779.941071 124.550433 
L 780.382618 161.487622 
L 781.089093 219.765054 
L 781.354021 228.972246 
L 781.442331 229.797535 
L 781.53064 229.467912 
L 781.707259 225.430905 
L 781.972188 211.829309 
L 782.502044 168.152153 
L 783.12021 121.306954 
L 783.473448 109.156354 
L 783.650067 108.136474 
L 783.826686 110.373762 
L 784.091614 119.116236 
L 784.533161 143.854392 
L 785.504565 202.429358 
L 785.857803 213.376674 
L 786.122731 216.027309 
L 786.21104 215.829032 
L 786.387659 213.862098 
L 786.652588 207.272223 
L 787.094135 188.556758 
L 788.418776 123.680602 
L 788.683705 118.267194 
L 788.860323 117.170817 
L 788.948633 117.422192 
L 789.125252 119.552093 
L 789.39018 126.738742 
L 789.831727 147.973104 
L 791.068059 217.616786 
L 791.332988 221.119406 
L 791.421297 220.622993 
L 791.597916 216.971504 
L 791.862844 204.902452 
L 792.304391 170.449461 
L 793.099176 106.807686 
L 793.275795 101.765625 
L 793.364105 101.308705 
L 793.452414 102.319512 
L 793.629033 108.81698 
L 793.893961 129.020444 
L 795.041984 236.848397 
L 795.130293 236.803807 
L 795.306912 230.935555 
L 795.571841 209.105524 
L 796.631554 96.963124 
L 796.719863 95.314804 
L 796.808173 95.558845 
L 796.984792 101.558967 
L 797.24972 122.47627 
L 798.309433 229.1048 
L 798.486052 232.561417 
L 798.574361 231.881511 
L 798.75098 225.880244 
L 799.015909 206.762812 
L 800.163931 102.686891 
L 800.252241 101.204121 
L 800.34055 101.309081 
L 800.517169 106.295185 
L 800.782097 124.822967 
L 801.400263 195.90494 
L 801.753501 227.472075 
L 801.93012 233.960095 
L 802.018429 234.235832 
L 802.195048 228.475152 
L 802.459976 204.791946 
L 803.43138 89.800439 
L 803.51969 90.318731 
L 803.696309 101.231896 
L 803.961237 140.077414 
L 804.579403 248.337142 
L 804.667712 252.689546 
L 804.756022 251.950263 
L 804.932641 234.421108 
L 805.285878 149.387415 
L 805.639116 72.152505 
L 805.727426 67.302234 
L 805.815735 70.813741 
L 805.992354 103.361855 
L 806.61052 276.168456 
L 806.698829 268.045854 
L 806.875448 212.244921 
L 807.316995 41.422804 
L 807.405305 55.097659 
L 807.670233 221.204131 
L 807.846852 300.24358 
L 807.935161 277.301379 
L 808.288399 50.955859 
L 808.641637 245.809135 
L 808.906565 110.38755 
L 808.994875 123.981279 
L 809.259803 199.636607 
L 809.524731 144.196543 
L 809.613041 150.515575 
L 809.877969 178.341287 
L 810.142897 157.646724 
L 810.407826 170.765035 
L 810.496135 170.332411 
L 810.761063 162.864501 
L 811.025992 167.876149 
L 811.114301 167.462529 
" clip-path="url(#pe9a1988f5d)" style="fill: none; stroke: #1f77b4; stroke-width: 0.6; stroke-linecap: square"/>
   </g>
   <g id="line2d_28">
    <path d="M 88.301574 161.852436 
L 89.008049 161.147799 
L 89.714525 160.73986 
L 90.597619 160.49219 
L 96.337732 159.600638 
L 98.192231 159.826014 
L 99.693491 159.905371 
L 101.194751 159.747797 
L 105.080367 159.031229 
L 106.493318 158.535616 
L 108.612744 157.505422 
L 112.145121 155.620933 
L 113.204835 154.721144 
L 114.352857 153.439883 
L 117.267069 149.978713 
L 117.973544 149.5624 
L 118.503401 149.491714 
L 118.944948 149.634936 
L 119.386495 150.00293 
L 119.828042 150.644012 
L 120.357899 151.861678 
L 120.887755 153.700747 
L 121.417612 156.33653 
L 122.035778 160.68521 
L 122.653944 166.674702 
L 123.448729 176.879471 
L 125.303227 202.426002 
L 125.656465 204.68961 
L 125.921393 205.28051 
L 126.009703 205.247351 
L 126.186322 204.823483 
L 126.45125 203.286998 
L 126.804488 199.616822 
L 127.334344 191.168324 
L 128.570676 165.655732 
L 129.365461 152.057937 
L 129.983627 145.164482 
L 130.425174 142.228785 
L 130.866722 140.703692 
L 131.13165 140.344016 
L 131.396578 140.321106 
L 131.661507 140.573289 
L 132.014744 141.241546 
L 132.63291 143.020151 
L 133.869242 147.537345 
L 135.900359 154.812194 
L 137.31331 159.082436 
L 138.637952 162.436431 
L 139.962593 165.209868 
L 141.198926 167.310263 
L 142.346948 168.859676 
L 143.58328 170.150122 
L 145.084541 171.362606 
L 147.998752 173.358852 
L 149.588322 174.219836 
L 151.001273 174.728037 
L 153.03239 175.190319 
L 154.710269 175.396789 
L 155.681673 175.297208 
L 156.476458 175.001084 
L 157.271243 174.467966 
L 158.154337 173.585951 
L 159.125741 172.284756 
L 160.185454 170.486297 
L 161.156858 168.422826 
L 162.039952 166.060738 
L 162.923047 163.072715 
L 163.89445 158.931994 
L 165.042473 152.940755 
L 167.250209 141.086906 
L 167.691756 139.754281 
L 167.956684 139.375281 
L 168.133303 139.344348 
L 168.309922 139.518862 
L 168.57485 140.21979 
L 168.928088 142.100115 
L 169.369635 146.201252 
L 169.899492 153.910723 
L 170.605967 168.41976 
L 172.018918 199.087879 
L 172.460466 204.22914 
L 172.725394 205.567556 
L 172.902013 205.693906 
L 173.078632 205.215735 
L 173.34356 203.424531 
L 173.696798 199.273842 
L 174.314964 188.615098 
L 175.904534 159.408475 
L 176.5227 152.067795 
L 177.052556 147.976897 
L 177.494103 145.900694 
L 177.935651 144.804985 
L 178.288888 144.492037 
L 178.553817 144.522646 
L 178.907054 144.851069 
L 179.348602 145.627897 
L 179.966768 147.211617 
L 180.938171 150.41354 
L 184.735477 163.66632 
L 186.060119 167.190668 
L 187.208141 169.664379 
L 188.267855 171.464137 
L 189.327568 172.823678 
L 190.387281 173.8167 
L 191.535304 174.585403 
L 192.683326 175.088098 
L 193.65473 175.27365 
L 194.537824 175.201955 
L 195.332609 174.918891 
L 196.215704 174.369054 
L 197.275417 173.432082 
L 198.511749 172.026843 
L 199.659772 170.400125 
L 200.719485 168.525367 
L 201.779198 166.208565 
L 203.01553 162.945814 
L 204.693409 157.79742 
L 207.166074 150.138695 
L 207.960859 148.388283 
L 208.490715 147.697982 
L 208.843953 147.528386 
L 209.108881 147.585661 
L 209.462119 147.947104 
L 209.815357 148.682221 
L 210.256904 150.211484 
L 210.786761 153.092828 
L 211.316617 157.29758 
L 211.934783 164.064483 
L 212.729568 175.612389 
L 214.319138 200.03428 
L 214.672376 202.780279 
L 214.937304 203.499517 
L 215.025613 203.449658 
L 215.202232 202.888013 
L 215.467161 200.854288 
L 215.820398 195.934502 
L 216.350255 184.450702 
L 218.293063 137.147719 
L 218.73461 132.846986 
L 218.999538 131.823401 
L 219.176157 131.73292 
L 219.352776 132.069552 
L 219.617704 133.274868 
L 220.059251 136.745542 
L 220.854036 145.560546 
L 222.355297 162.485401 
L 223.238391 169.927974 
L 224.033176 174.736882 
L 224.739651 177.628419 
L 225.357817 179.220696 
L 225.887674 179.989547 
L 226.329221 180.276549 
L 226.770768 180.296919 
L 227.212315 180.100183 
L 227.830482 179.544485 
L 228.625266 178.492106 
L 229.773289 176.548394 
L 231.274549 173.510565 
L 233.658904 168.061051 
L 235.95495 163.022503 
L 237.544519 160.042714 
L 238.780851 158.150784 
L 239.928874 156.791118 
L 240.900278 155.957893 
L 241.783372 155.477373 
L 242.489848 155.319264 
L 243.108014 155.382326 
L 243.72618 155.668257 
L 244.344346 156.207815 
L 245.050821 157.163071 
L 245.845606 158.685813 
L 246.728701 160.929868 
L 247.700104 164.056894 
L 248.759818 168.269195 
L 249.90784 173.775218 
L 252.733742 187.929297 
L 253.175289 189.093948 
L 253.528527 189.500992 
L 253.705146 189.488206 
L 253.970074 189.152111 
L 254.235003 188.383341 
L 254.58824 186.581959 
L 255.029788 182.896513 
L 255.559644 176.128759 
L 256.17781 165.030976 
L 258.032308 128.509051 
L 258.385546 126.113849 
L 258.562165 125.956189 
L 258.738784 126.527793 
L 259.003712 128.746587 
L 259.35695 134.071775 
L 259.886806 145.997219 
L 261.476376 185.007933 
L 262.006233 192.215411 
L 262.359471 194.84771 
L 262.624399 195.787913 
L 262.801018 195.97808 
L 262.977637 195.858362 
L 263.242565 195.174338 
L 263.595803 193.500755 
L 264.213969 189.170221 
L 267.393108 164.390634 
L 268.276203 160.032816 
L 269.070988 157.223306 
L 269.777463 155.48597 
L 270.483939 154.335276 
L 271.102105 153.725327 
L 271.720271 153.432536 
L 272.250127 153.410242 
L 272.779984 153.586074 
L 273.39815 154.027945 
L 274.104626 154.819527 
L 274.98772 156.172055 
L 276.224052 158.541413 
L 278.255169 163.019399 
L 283.465426 174.757526 
L 284.613448 176.692179 
L 285.496543 177.783667 
L 286.203018 178.32879 
L 286.821184 178.522189 
L 287.351041 178.453659 
L 287.880897 178.151139 
L 288.410754 177.596608 
L 289.02892 176.599975 
L 289.647086 175.177687 
L 290.353562 172.943979 
L 291.060037 169.953262 
L 291.854822 165.574057 
L 292.826226 158.770955 
L 295.475509 138.812126 
L 295.828747 137.691861 
L 296.093675 137.468706 
L 296.270294 137.671984 
L 296.535222 138.582197 
L 296.88846 141.073707 
L 297.330007 146.47569 
L 297.859864 156.387038 
L 298.654649 176.462353 
L 299.626052 199.735201 
L 300.0676 205.534041 
L 300.332528 206.840858 
L 300.420837 206.891421 
L 300.597456 206.416545 
L 300.862384 204.317817 
L 301.215622 199.219503 
L 301.833788 185.886606 
L 303.246739 153.863042 
L 303.864905 145.318305 
L 304.306452 141.760434 
L 304.65969 140.260492 
L 304.924618 139.805502 
L 305.101237 139.777374 
L 305.366166 140.090834 
L 305.719403 141.060553 
L 306.24926 143.391737 
L 307.132354 148.631967 
L 309.693328 164.536449 
L 310.753041 169.476637 
L 311.724445 172.957481 
L 312.607539 175.312131 
L 313.402324 176.806751 
L 314.1088 177.655603 
L 314.726966 178.04564 
L 315.256822 178.13772 
L 315.874988 177.99324 
L 316.493154 177.615017 
L 317.287939 176.843883 
L 318.171034 175.671389 
L 319.230747 173.866133 
L 320.37877 171.435778 
L 321.791721 167.867219 
L 324.441004 160.385974 
L 326.383811 155.193467 
L 327.443524 152.898849 
L 328.238309 151.622134 
L 328.856475 150.989627 
L 329.298023 150.782179 
L 329.73957 150.822704 
L 330.092807 151.065384 
L 330.534355 151.676958 
L 330.975902 152.686072 
L 331.505758 154.50689 
L 332.123925 157.593301 
L 332.8304 162.521368 
L 333.625185 169.872464 
L 334.773208 183.036439 
L 335.832921 194.691306 
L 336.274468 197.835055 
L 336.539396 198.806101 
L 336.716015 198.972235 
L 336.892634 198.699634 
L 337.157562 197.378837 
L 337.5108 193.755882 
L 337.952347 186.12088 
L 338.570513 170.413951 
L 339.983464 132.16937 
L 340.425011 126.477391 
L 340.68994 125.353726 
L 340.778249 125.363766 
L 340.954868 125.939094 
L 341.219796 128.093216 
L 341.661344 134.520527 
L 342.456128 151.029639 
L 343.515842 172.207548 
L 344.134008 180.78101 
L 344.663864 185.573288 
L 345.105411 187.952068 
L 345.458649 188.953376 
L 345.723578 189.254874 
L 345.988506 189.223732 
L 346.253434 188.904284 
L 346.606672 188.100372 
L 347.136528 186.259671 
L 347.931313 182.557333 
L 351.64031 163.941208 
L 352.700023 160.134357 
L 353.671427 157.454307 
L 354.466212 155.842173 
L 355.260997 154.723537 
L 355.967472 154.106848 
L 356.585638 153.834791 
L 357.203804 153.801145 
L 357.82197 154.004936 
L 358.440136 154.450896 
L 359.146612 155.261757 
L 359.941397 156.549931 
L 360.9128 158.617174 
L 362.060823 161.648005 
L 363.385465 165.79798 
L 365.063344 171.845943 
L 367.536008 180.801142 
L 368.419102 183.1701 
L 368.948959 184.101509 
L 369.390506 184.479957 
L 369.655434 184.493015 
L 369.920363 184.31956 
L 370.273601 183.759667 
L 370.626838 182.775292 
L 371.068385 180.869053 
L 371.598242 177.471821 
L 372.216408 171.839374 
L 372.922884 163.181834 
L 373.982597 146.963061 
L 374.865691 134.301221 
L 375.307238 130.40524 
L 375.572167 129.432108 
L 375.660476 129.382198 
L 375.837095 129.734251 
L 376.102023 131.468512 
L 376.455261 136.143963 
L 376.896808 145.637898 
L 377.603284 166.756688 
L 378.574687 194.945303 
L 379.016235 202.549762 
L 379.369472 205.300365 
L 379.546091 205.561564 
L 379.72271 205.125753 
L 379.987638 203.291082 
L 380.340876 199.023262 
L 380.959042 188.37889 
L 382.460303 161.552393 
L 383.166778 153.053162 
L 383.784944 148.248101 
L 384.314801 145.863384 
L 384.668038 145.036281 
L 385.021276 144.732002 
L 385.286205 144.80265 
L 385.639442 145.238554 
L 386.080989 146.238732 
L 386.699155 148.276155 
L 387.670559 152.38033 
L 391.291246 168.430811 
L 392.439269 172.328598 
L 393.498982 175.162028 
L 394.382076 176.943709 
L 395.176861 178.080854 
L 395.795027 178.642111 
L 396.413193 178.904647 
L 396.94305 178.884156 
L 397.472907 178.635312 
L 398.091073 178.060757 
L 398.797548 177.040833 
L 399.592333 175.443344 
L 400.475427 173.108558 
L 401.446831 169.84132 
L 402.506544 165.46186 
L 403.919495 158.595129 
L 406.127231 147.807185 
L 406.833707 145.394582 
L 407.275254 144.489575 
L 407.628492 144.219272 
L 407.89342 144.33579 
L 408.158348 144.766655 
L 408.511586 145.894038 
L 408.953133 148.310863 
L 409.48299 152.878499 
L 410.101156 160.69101 
L 410.807631 172.696062 
L 412.397201 201.454456 
L 412.750439 204.583699 
L 412.927058 205.215153 
L 413.015367 205.267745 
L 413.191986 204.814352 
L 413.456914 202.677535 
L 413.810152 197.094166 
L 414.340009 183.605382 
L 416.017888 134.57561 
L 416.459435 128.998941 
L 416.724363 127.798385 
L 416.812673 127.736245 
L 416.989292 128.082553 
L 417.25422 129.663355 
L 417.607458 133.386422 
L 418.225624 142.716817 
L 419.903503 169.374038 
L 420.609979 177.07759 
L 421.228145 181.670402 
L 421.758001 184.145429 
L 422.199548 185.305518 
L 422.552786 185.722416 
L 422.817714 185.77504 
L 423.082643 185.631575 
L 423.435881 185.175174 
L 423.965737 184.024916 
L 424.672213 181.849396 
L 425.731926 177.741437 
L 430.324016 158.938481 
L 431.38373 155.862731 
L 432.266824 153.912357 
L 432.9733 152.810184 
L 433.591466 152.207707 
L 434.121322 151.971968 
L 434.651179 152.002704 
L 435.181035 152.307668 
L 435.710892 152.897854 
L 436.329058 153.967178 
L 437.035534 155.725552 
L 437.830318 158.427889 
L 438.713413 162.33901 
L 439.773126 168.184661 
L 441.274386 177.934621 
L 442.687337 186.759203 
L 443.305503 189.468632 
L 443.747051 190.540469 
L 444.011979 190.721918 
L 444.188598 190.615748 
L 444.453526 190.072975 
L 444.806764 188.54445 
L 445.248311 185.163832 
L 445.778168 178.70856 
L 446.396334 167.811333 
L 447.456047 143.664568 
L 448.162522 129.717832 
L 448.51576 125.746458 
L 448.780688 124.707005 
L 448.868998 124.775581 
L 449.045617 125.565899 
L 449.310545 128.403263 
L 449.663783 135.126632 
L 450.193639 150.182852 
L 451.60659 193.069147 
L 452.048138 200.100397 
L 452.401375 202.635694 
L 452.577994 202.936835 
L 452.754613 202.655725 
L 453.019541 201.271094 
L 453.372779 197.966456 
L 453.990945 189.611881 
L 455.933753 161.705749 
L 456.640228 154.895582 
L 457.258394 150.783536 
L 457.788251 148.519635 
L 458.229798 147.414905 
L 458.583036 146.976858 
L 458.936273 146.883986 
L 459.289511 147.091691 
L 459.731058 147.712345 
L 460.260915 148.896107 
L 460.96739 151.058707 
L 461.938794 154.806191 
L 463.704983 162.718348 
L 465.7361 171.524825 
L 466.972432 175.954253 
L 467.943836 178.652434 
L 468.738621 180.22532 
L 469.356787 181.000032 
L 469.886643 181.320544 
L 470.328191 181.324787 
L 470.769738 181.070946 
L 471.211285 180.539638 
L 471.741142 179.508791 
L 472.359308 177.727907 
L 473.065783 174.89479 
L 473.860568 170.683687 
L 474.831972 164.155421 
L 476.156613 153.441335 
L 477.569564 142.41915 
L 478.099421 139.680278 
L 478.452659 138.695303 
L 478.717587 138.531187 
L 478.894206 138.741365 
L 479.159134 139.597087 
L 479.512372 141.867738 
L 479.953919 146.735231 
L 480.483776 155.734184 
L 481.190251 172.438018 
L 482.426583 202.740601 
L 482.779821 207.372518 
L 483.044749 208.65435 
L 483.133059 208.618093 
L 483.309678 207.825003 
L 483.574606 204.839612 
L 483.927844 197.74513 
L 484.54601 179.130523 
L 485.694032 143.215484 
L 486.223889 133.618194 
L 486.577127 130.553144 
L 486.842055 129.888282 
L 487.018674 130.138472 
L 487.283602 131.413612 
L 487.63684 134.476666 
L 488.255006 142.274352 
L 490.374432 171.060033 
L 491.080908 177.423053 
L 491.699074 181.293625 
L 492.228931 183.451341 
L 492.670478 184.524081 
L 493.023715 184.962242 
L 493.376953 185.068001 
L 493.730191 184.876505 
L 494.171738 184.267843 
L 494.701595 183.069943 
L 495.40807 180.823279 
L 496.379474 176.847826 
L 497.969044 169.206622 
L 500.265089 158.324379 
L 501.413112 153.908134 
L 502.296206 151.33117 
L 503.002682 149.920685 
L 503.532538 149.309446 
L 503.974085 149.131243 
L 504.327323 149.226905 
L 504.680561 149.551063 
L 505.122108 150.300086 
L 505.651965 151.736917 
L 506.270131 154.19813 
L 506.976606 158.083023 
L 507.771391 163.811778 
L 508.742795 172.549947 
L 510.862221 192.584071 
L 511.303769 194.933421 
L 511.568697 195.622893 
L 511.745316 195.715375 
L 511.921935 195.476166 
L 512.186863 194.426654 
L 512.540101 191.589675 
L 512.981648 185.503826 
L 513.511504 174.425076 
L 514.306289 152.13629 
L 515.189384 128.934472 
L 515.542621 123.720475 
L 515.80755 122.22221 
L 515.895859 122.22869 
L 516.072478 123.021396 
L 516.337406 126.133558 
L 516.690644 133.556129 
L 517.30881 152.806066 
L 518.368523 186.771045 
L 518.89838 197.12071 
L 519.251618 200.687364 
L 519.516546 201.709604 
L 519.604855 201.762951 
L 519.781474 201.477309 
L 520.046403 200.17468 
L 520.39964 197.114606 
L 521.017806 189.379882 
L 523.137233 160.606136 
L 523.843708 154.151862 
L 524.461874 150.194717 
L 524.991731 147.973903 
L 525.433278 146.868113 
L 525.786516 146.423006 
L 526.139754 146.332165 
L 526.492991 146.563416 
L 526.846229 147.085996 
L 527.376086 148.351449 
L 528.082561 150.787296 
L 528.965656 154.725074 
L 530.378607 162.185429 
L 532.93958 175.779024 
L 533.999293 180.179317 
L 534.794078 182.582577 
L 535.412244 183.769349 
L 535.853792 184.184728 
L 536.207029 184.225339 
L 536.560267 183.983243 
L 536.913505 183.437686 
L 537.355052 182.300097 
L 537.884909 180.225473 
L 538.503075 176.778099 
L 539.20955 171.457638 
L 540.092644 162.860167 
L 542.653618 135.950286 
L 543.006856 134.586677 
L 543.183475 134.417476 
L 543.360094 134.643019 
L 543.625022 135.803608 
L 543.97826 139.055761 
L 544.419807 146.090618 
L 544.949663 158.786691 
L 546.804162 208.842022 
L 547.06909 210.596671 
L 547.157399 210.637051 
L 547.334018 209.880841 
L 547.598946 206.691032 
L 547.952184 198.970383 
L 548.57035 178.97104 
L 549.630063 144.274762 
L 550.15992 134.021085 
L 550.513158 130.641968 
L 550.778086 129.801652 
L 550.866396 129.814349 
L 551.043014 130.237825 
L 551.307943 131.756644 
L 551.74949 136.137631 
L 552.455965 146.000394 
L 554.133845 170.133296 
L 554.92863 178.193058 
L 555.546796 182.512117 
L 556.076652 184.921691 
L 556.518199 186.095428 
L 556.871437 186.536885 
L 557.136365 186.601004 
L 557.401294 186.452858 
L 557.754531 185.950721 
L 558.196079 184.882495 
L 558.814245 182.685501 
L 559.60903 178.923537 
L 560.757052 172.29613 
L 563.936192 153.298534 
L 564.819286 149.510477 
L 565.437452 147.638469 
L 565.967309 146.666382 
L 566.320547 146.391408 
L 566.585475 146.400937 
L 566.850403 146.608281 
L 567.203641 147.211539 
L 567.645188 148.52434 
L 568.175045 150.970143 
L 568.793211 155.078548 
L 569.499686 161.434227 
L 570.382781 171.594869 
L 572.413898 195.986082 
L 572.855445 198.444343 
L 573.032064 198.788391 
L 573.120373 198.800459 
L 573.296992 198.477059 
L 573.56192 197.046665 
L 573.915158 193.19894 
L 574.356705 185.077554 
L 574.886562 170.797853 
L 576.476132 123.922114 
L 576.74106 120.991594 
L 576.917679 120.46395 
L 577.005988 120.646818 
L 577.182607 121.909312 
L 577.447536 125.968111 
L 577.889083 137.670921 
L 579.83189 198.467521 
L 580.185128 202.277145 
L 580.450056 203.261258 
L 580.538366 203.263304 
L 580.714985 202.822642 
L 580.979913 201.172411 
L 581.42146 196.350125 
L 582.127936 185.468168 
L 583.717505 160.458795 
L 584.423981 152.591022 
L 585.042147 147.854435 
L 585.572004 145.327875 
L 586.013551 144.214222 
L 586.366789 143.913266 
L 586.631717 144.002494 
L 586.896645 144.340483 
L 587.249883 145.145007 
L 587.779739 147.01813 
L 588.486215 150.525235 
L 589.457619 156.655353 
L 593.166615 181.545872 
L 593.87309 184.530934 
L 594.402947 186.015082 
L 594.844494 186.669103 
L 595.109423 186.778344 
L 595.374351 186.658455 
L 595.639279 186.296305 
L 595.992517 185.415561 
L 596.434064 183.640212 
L 596.963921 180.47399 
L 597.582087 175.324272 
L 598.376872 166.521053 
L 599.524894 150.800806 
L 600.584608 137.243355 
L 601.026155 133.677611 
L 601.291083 132.586996 
L 601.467702 132.400692 
L 601.644321 132.70324 
L 601.909249 134.169566 
L 602.262487 138.198498 
L 602.704034 146.754919 
L 603.3222 164.682363 
L 604.646842 206.53576 
L 605.000079 211.531728 
L 605.176698 212.247849 
L 605.265008 212.128965 
L 605.441627 210.926305 
L 605.706555 206.773948 
L 606.148102 194.439799 
L 608.0026 131.897731 
L 608.355838 127.732724 
L 608.620766 126.772601 
L 608.709076 126.830904 
L 608.885694 127.46382 
L 609.150623 129.558397 
L 609.59217 135.419807 
L 610.386955 149.970453 
L 611.623287 172.216043 
L 612.329762 181.308373 
L 612.947929 186.536224 
L 613.389476 188.763987 
L 613.742713 189.713522 
L 614.007642 189.979019 
L 614.184261 189.958293 
L 614.449189 189.651112 
L 614.802427 188.769573 
L 615.243974 187.001898 
L 615.86214 183.511361 
L 616.745234 177.072418 
L 620.277612 149.539442 
L 620.984087 146.21918 
L 621.513944 144.670163 
L 621.867181 144.153031 
L 622.13211 144.060454 
L 622.397038 144.236432 
L 622.661966 144.69397 
L 623.015204 145.762101 
L 623.456751 147.864503 
L 623.986608 151.545347 
L 624.604774 157.421417 
L 625.399559 167.215879 
L 627.695604 197.508448 
L 628.048842 199.414952 
L 628.225461 199.732275 
L 628.31377 199.710223 
L 628.490389 199.275415 
L 628.755317 197.567449 
L 629.108555 193.146859 
L 629.550102 184.029565 
L 630.168268 165.34042 
L 631.4046 125.307595 
L 631.757838 119.920526 
L 631.934457 119.086039 
L 632.022767 119.174252 
L 632.199385 120.383957 
L 632.464314 124.7423 
L 632.817551 134.817098 
L 633.524027 163.851541 
L 634.318812 194.378165 
L 634.760359 204.260939 
L 635.113597 207.582368 
L 635.290216 207.780241 
L 635.466834 207.093925 
L 635.731763 204.608687 
L 636.17331 197.459154 
L 637.056404 177.682578 
L 638.027808 157.159999 
L 638.645974 147.829063 
L 639.175831 142.618542 
L 639.617378 140.177109 
L 639.970616 139.361332 
L 640.147235 139.299176 
L 640.323853 139.449924 
L 640.588782 140.045533 
L 640.942019 141.457698 
L 641.471876 144.681628 
L 642.178352 150.504331 
L 643.502993 163.713504 
L 645.004253 178.017738 
L 645.799038 183.801354 
L 646.417204 186.968188 
L 646.858752 188.379682 
L 647.211989 188.944239 
L 647.476918 189.017559 
L 647.741846 188.777868 
L 648.095084 187.954431 
L 648.536631 186.090826 
L 649.066488 182.609693 
L 649.684654 176.865078 
L 650.479438 167.113182 
L 652.952103 134.438141 
L 653.30534 132.750433 
L 653.481959 132.548589 
L 653.658578 132.835989 
L 653.923506 134.27521 
L 654.276744 138.250668 
L 654.718291 146.71036 
L 655.248148 161.637959 
L 656.837718 210.431366 
L 657.102646 212.957035 
L 657.190956 213.125925 
L 657.279265 212.939105 
L 657.455884 211.475971 
L 657.720812 206.573723 
L 658.07405 195.445952 
L 658.780525 163.644849 
L 659.487001 134.170147 
L 659.928548 123.662751 
L 660.193476 121.107627 
L 660.281786 120.875333 
L 660.370095 120.939543 
L 660.546714 121.910171 
L 660.811642 125.250106 
L 661.25319 134.665971 
L 663.372616 187.727267 
L 663.902473 193.771536 
L 664.25571 195.765098 
L 664.520639 196.286303 
L 664.697258 196.211026 
L 664.962186 195.524195 
L 665.315424 193.66828 
L 665.84528 189.273704 
L 666.640065 180.300234 
L 669.02442 151.680517 
L 669.730895 145.980001 
L 670.260752 143.133048 
L 670.702299 141.808223 
L 670.967227 141.496843 
L 671.143846 141.496308 
L 671.408775 141.810446 
L 671.762012 142.821556 
L 672.20356 145.033999 
L 672.733416 149.04156 
L 673.439892 156.49102 
L 674.411295 169.744999 
L 676.089175 193.066666 
L 676.619031 197.398479 
L 676.88396 198.434556 
L 677.060578 198.61327 
L 677.237197 198.336475 
L 677.502126 196.988447 
L 677.855363 193.295278 
L 678.296911 185.454873 
L 678.826767 171.551528 
L 680.504646 121.805863 
L 680.769575 119.37778 
L 680.857884 119.234398 
L 680.946194 119.44765 
L 681.122812 120.979229 
L 681.387741 126.074382 
L 681.740979 137.755716 
L 682.359145 167.247578 
L 683.15393 203.237505 
L 683.507167 212.008332 
L 683.772096 214.532399 
L 683.860405 214.591401 
L 684.037024 213.586778 
L 684.301952 209.516325 
L 684.743499 197.410861 
L 686.597997 138.431578 
L 687.039545 132.579852 
L 687.304473 130.998104 
L 687.481092 130.683427 
L 687.569401 130.732689 
L 687.74602 131.215868 
L 688.010948 132.81121 
L 688.452496 137.37374 
L 689.158971 147.935349 
L 691.190088 180.54858 
L 691.896564 187.87461 
L 692.42642 191.223383 
L 692.779658 192.371195 
L 693.044586 192.655531 
L 693.221205 192.571691 
L 693.486133 192.040832 
L 693.839371 190.594587 
L 694.280918 187.656995 
L 694.899084 181.6434 
L 695.693869 171.324556 
L 698.078224 138.222783 
L 698.519771 135.17952 
L 698.7847 134.357024 
L 698.961318 134.292613 
L 699.137937 134.649512 
L 699.402866 136.031571 
L 699.756103 139.561848 
L 700.197651 146.798471 
L 700.727507 159.417648 
L 702.582005 209.570846 
L 702.846934 211.300642 
L 702.935243 211.243173 
L 703.111862 210.095548 
L 703.37679 205.680976 
L 703.730028 194.826871 
L 704.259885 170.097536 
L 705.231288 123.473089 
L 705.584526 115.447794 
L 705.761145 114.2467 
L 705.849454 114.373755 
L 706.026073 116.051029 
L 706.291002 121.863094 
L 706.732549 138.374925 
L 708.1455 197.723036 
L 708.587047 205.892492 
L 708.851975 207.606033 
L 708.940285 207.680519 
L 709.116903 207.141845 
L 709.381832 204.787787 
L 709.73507 199.298265 
L 710.353236 185.580296 
L 711.854496 150.708977 
L 712.472662 141.42769 
L 712.914209 137.437813 
L 713.267447 135.863503 
L 713.444066 135.602772 
L 713.620685 135.681088 
L 713.797304 136.086778 
L 714.062232 137.279005 
L 714.503779 140.688176 
L 715.033636 146.766999 
L 715.828421 158.748262 
L 717.771228 189.420632 
L 718.301085 194.623442 
L 718.654322 196.614124 
L 718.919251 197.192036 
L 719.09587 197.101259 
L 719.272489 196.608274 
L 719.537417 195.082874 
L 719.890655 191.533689 
L 720.332202 184.656899 
L 720.950368 170.906232 
L 722.804866 125.28571 
L 723.069794 123.24555 
L 723.158104 123.087566 
L 723.246413 123.214048 
L 723.423032 124.366508 
L 723.68796 128.465141 
L 724.041198 138.425509 
L 724.571055 161.619384 
L 725.630768 211.716293 
L 725.984006 218.782481 
L 726.072315 219.246399 
L 726.160624 219.154289 
L 726.337243 217.289133 
L 726.602172 210.439628 
L 727.043719 190.192092 
L 728.280051 125.69988 
L 728.633289 118.053327 
L 728.809908 116.844564 
L 728.898217 116.871928 
L 729.074836 118.113587 
L 729.339764 122.624407 
L 729.781311 135.452533 
L 731.5475 193.902731 
L 731.989047 200.42898 
L 732.253975 202.235246 
L 732.430594 202.601041 
L 732.518904 202.544596 
L 732.695523 201.977738 
L 732.960451 200.076791 
L 733.401998 194.523612 
L 734.020164 183.158531 
L 736.139591 141.086367 
L 736.669447 135.600515 
L 737.022685 133.880086 
L 737.199304 133.648051 
L 737.375923 133.847742 
L 737.640851 134.966715 
L 737.994089 137.982734 
L 738.435636 144.102034 
L 739.053802 156.467732 
L 741.173228 203.79197 
L 741.438157 205.649028 
L 741.614776 205.823516 
L 741.791394 205.057336 
L 742.056323 202.018911 
L 742.409561 194.303797 
L 742.851108 179.088117 
L 744.440678 115.465485 
L 744.617296 113.818817 
L 744.705606 113.79666 
L 744.882225 115.444529 
L 745.147153 122.205891 
L 745.500391 138.55411 
L 747.001651 220.176638 
L 747.17827 221.732885 
L 747.266579 221.529287 
L 747.443198 219.224113 
L 747.708127 211.467423 
L 748.149674 190.182292 
L 749.297696 131.451608 
L 749.650934 122.629888 
L 749.915863 119.958715 
L 750.004172 119.794199 
L 750.092481 119.974078 
L 750.2691 121.307479 
L 750.534029 125.477119 
L 750.975576 136.860412 
L 753.006693 196.983988 
L 753.359931 201.269618 
L 753.624859 202.688639 
L 753.801478 202.783576 
L 753.978097 202.214996 
L 754.243025 200.173285 
L 754.596263 195.417458 
L 755.126119 184.692379 
L 756.097523 158.911166 
L 756.980617 137.421888 
L 757.422165 130.588791 
L 757.775402 128.031606 
L 757.952021 127.882299 
L 758.12864 128.543527 
L 758.393568 131.113271 
L 758.746806 137.513924 
L 759.188353 149.984695 
L 759.983138 180.726626 
L 760.689614 206.176659 
L 761.042851 213.203827 
L 761.21947 214.422997 
L 761.30778 214.369441 
L 761.484399 212.842967 
L 761.749327 206.857761 
L 762.102565 192.157923 
L 762.720731 153.564536 
L 763.338897 117.40631 
L 763.692134 108.072243 
L 763.780444 107.632428 
L 763.868753 108.009484 
L 764.045372 111.228906 
L 764.3103 121.908431 
L 764.751848 151.515485 
L 765.634942 212.702053 
L 765.98818 222.541361 
L 766.076489 223.140943 
L 766.164799 223.000741 
L 766.341417 220.596384 
L 766.606346 212.269498 
L 767.047893 189.535067 
L 768.107606 131.995839 
L 768.460844 122.103611 
L 768.725772 119.011413 
L 768.814082 118.794227 
L 768.902391 118.968042 
L 769.07901 120.432005 
L 769.343938 125.150605 
L 769.785485 138.277296 
L 771.639984 202.135757 
L 771.993221 206.41226 
L 772.16984 207.030134 
L 772.25815 206.951593 
L 772.434769 206.023347 
L 772.699697 202.752243 
L 773.052935 195.151619 
L 773.582791 178.220256 
L 775.084052 126.210028 
L 775.437289 121.539546 
L 775.525599 121.20932 
L 775.613908 121.243527 
L 775.790527 122.446901 
L 776.055455 127.174322 
L 776.408693 138.827761 
L 776.93855 165.525455 
L 777.909953 215.28567 
L 778.174882 220.645424 
L 778.263191 221.068837 
L 778.351501 220.746336 
L 778.52812 217.774786 
L 778.793048 207.474245 
L 779.234595 177.074793 
L 780.117689 110.198926 
L 780.382618 102.993615 
L 780.470927 102.784436 
L 780.647546 105.793493 
L 780.912474 118.426981 
L 781.354021 155.167687 
L 782.060497 214.863488 
L 782.325425 225.662442 
L 782.502044 227.772391 
L 782.590354 227.284914 
L 782.766972 223.385249 
L 783.031901 211.168407 
L 783.561757 172.970781 
L 784.268233 125.600973 
L 784.621471 114.200811 
L 784.798089 112.471621 
L 784.886399 112.595472 
L 785.063018 114.728148 
L 785.327946 122.177602 
L 785.769493 143.050674 
L 787.005825 206.615618 
L 787.359063 213.690574 
L 787.535682 214.31403 
L 787.712301 212.945594 
L 787.977229 207.287003 
L 788.330467 193.807496 
L 789.036942 154.899496 
L 789.655108 124.24671 
L 790.008346 115.593878 
L 790.184965 114.811332 
L 790.361584 116.660944 
L 790.626512 124.467954 
L 790.97975 143.477839 
L 792.216082 223.836348 
L 792.392701 225.887759 
L 792.48101 225.231564 
L 792.657629 220.395708 
L 792.922557 204.571547 
L 793.452414 151.60353 
L 793.982271 104.346903 
L 794.247199 97.350092 
L 794.335508 98.436281 
L 794.512127 105.875257 
L 794.777056 128.869527 
L 795.748459 234.224869 
L 795.925078 237.72148 
L 796.013388 236.516513 
L 796.190007 228.40324 
L 796.543244 193.803196 
L 797.338029 105.444485 
L 797.602958 97.202063 
L 797.691267 97.928166 
L 797.867886 104.400652 
L 798.132814 124.831626 
L 799.192527 227.077522 
L 799.369146 231.003358 
L 799.457456 230.655267 
L 799.634075 225.394496 
L 799.899003 207.255091 
L 801.135335 100.018676 
L 801.223644 100.395243 
L 801.400263 106.489746 
L 801.665192 127.985039 
L 802.724905 237.74662 
L 802.813214 237.312814 
L 802.989833 228.602365 
L 803.254761 197.517184 
L 804.049546 85.38722 
L 804.137856 84.712583 
L 804.314475 95.912549 
L 804.579403 141.464931 
L 805.10926 251.775849 
L 805.197569 258.050399 
L 805.285878 257.938484 
L 805.462497 237.35848 
L 805.815735 136.001459 
L 806.080663 69.137293 
L 806.168973 61.775207 
L 806.257282 64.850821 
L 806.433901 103.106983 
L 806.963758 282.587134 
L 807.052067 276.842815 
L 807.228686 211.75979 
L 807.581924 35.55267 
L 807.670233 45.410049 
L 807.846852 163.779722 
L 808.023471 290.550322 
L 808.11178 288.02829 
L 808.465018 66.874862 
L 808.729946 232.242307 
L 808.818256 226.15259 
L 809.083184 121.442898 
L 809.348112 191.957821 
L 809.436422 189.752421 
L 809.70135 148.976002 
L 809.966278 176.280222 
L 810.054588 174.305451 
L 810.319516 159.720491 
L 810.584445 169.982938 
L 810.672754 168.759774 
L 810.937682 163.732801 
L 811.114301 166.91343 
L 811.114301 166.91343 
" clip-path="url(#pe9a1988f5d)" style="fill: none; stroke: #ff7f0e; stroke-width: 0.6; stroke-linecap: square"/>
   </g>
   <g id="patch_3">
    <path d="M 52.160938 313.478125 
L 52.160938 22.318125 
" style="fill: none; stroke: #000000; stroke-width: 0.8; stroke-linejoin: miter; stroke-linecap: square"/>
   </g>
   <g id="patch_4">
    <path d="M 847.254938 313.478125 
L 847.254938 22.318125 
" style="fill: none; stroke: #000000; stroke-width: 0.8; stroke-linejoin: miter; stroke-linecap: square"/>
   </g>
   <g id="patch_5">
    <path d="M 52.160938 313.478125 
L 847.254938 313.478125 
" style="fill: none; stroke: #000000; stroke-width: 0.8; stroke-linejoin: miter; stroke-linecap: square"/>
   </g>
   <g id="patch_6">
    <path d="M 52.160938 22.318125 
L 847.254938 22.318125 
" style="fill: none; stroke: #000000; stroke-width: 0.8; stroke-linejoin: miter; stroke-linecap: square"/>
   </g>
   <g id="text_16">
    <!-- M=60, e=0.24, f_min=10 Hz -->
    <g transform="translate(363.504813 16.318125) scale(0.12 -0.12)">
     <defs>
      <path id="DejaVuSans-4d" d="M 628 4666 
L 1569 4666 
L 2759 1491 
L 3956 4666 
L 4897 4666 
L 4897 0 
L 4281 0 
L 4281 4097 
L 3078 897 
L 2444 897 
L 1241 4097 
L 1241 0 
L 628 0 
L 628 4666 
z
" transform="scale(0.015625)"/>
      <path id="DejaVuSans-3d" d="M 678 2906 
L 4684 2906 
L 4684 2381 
L 678 2381 
L 678 2906 
z
M 678 1631 
L 4684 1631 
L 4684 1100 
L 678 1100 
L 678 1631 
z
" transform="scale(0.015625)"/>
      <path id="DejaVuSans-2c" d="M 750 794 
L 1409 794 
L 1409 256 
L 897 -744 
L 494 -744 
L 750 256 
L 750 794 
z
" transform="scale(0.015625)"/>
      <path id="DejaVuSans-65" d="M 3597 1894 
L 3597 1613 
L 953 1613 
Q 991 1019 1311 708 
Q 1631 397 2203 397 
Q 2534 397 2845 478 
Q 3156 559 3463 722 
L 3463 178 
Q 3153 47 2828 -22 
Q 2503 -91 2169 -91 
Q 1331 -91 842 396 
Q 353 884 353 1716 
Q 353 2575 817 3079 
Q 1281 3584 2069 3584 
Q 2775 3584 3186 3129 
Q 3597 2675 3597 1894 
z
M 3022 2063 
Q 3016 2534 2758 2815 
Q 2500 3097 2075 3097 
Q 1594 3097 1305 2825 
Q 1016 2553 972 2059 
L 3022 2063 
z
" transform="scale(0.015625)"/>
      <path id="DejaVuSans-66" d="M 2375 4863 
L 2375 4384 
L 1825 4384 
Q 1516 4384 1395 4259 
Q 1275 4134 1275 3809 
L 1275 3500 
L 2222 3500 
L 2222 3053 
L 1275 3053 
L 1275 0 
L 697 0 
L 697 3053 
L 147 3053 
L 147 3500 
L 697 3500 
L 697 3744 
Q 697 4328 969 4595 
Q 1241 4863 1831 4863 
L 2375 4863 
z
" transform="scale(0.015625)"/>
      <path id="DejaVuSans-5f" d="M 3263 -1063 
L 3263 -1509 
L -63 -1509 
L -63 -1063 
L 3263 -1063 
z
" transform="scale(0.015625)"/>
      <path id="DejaVuSans-6d" d="M 3328 2828 
Q 3544 3216 3844 3400 
Q 4144 3584 4550 3584 
Q 5097 3584 5394 3201 
Q 5691 2819 5691 2113 
L 5691 0 
L 5113 0 
L 5113 2094 
Q 5113 2597 4934 2840 
Q 4756 3084 4391 3084 
Q 3944 3084 3684 2787 
Q 3425 2491 3425 1978 
L 3425 0 
L 2847 0 
L 2847 2094 
Q 2847 2600 2669 2842 
Q 2491 3084 2119 3084 
Q 1678 3084 1418 2786 
Q 1159 2488 1159 1978 
L 1159 0 
L 581 0 
L 581 3500 
L 1159 3500 
L 1159 2956 
Q 1356 3278 1631 3431 
Q 1906 3584 2284 3584 
Q 2666 3584 2933 3390 
Q 3200 3197 3328 2828 
z
" transform="scale(0.015625)"/>
      <path id="DejaVuSans-69" d="M 603 3500 
L 1178 3500 
L 1178 0 
L 603 0 
L 603 3500 
z
M 603 4863 
L 1178 4863 
L 1178 4134 
L 603 4134 
L 603 4863 
z
" transform="scale(0.015625)"/>
      <path id="DejaVuSans-6e" d="M 3513 2113 
L 3513 0 
L 2938 0 
L 2938 2094 
Q 2938 2591 2744 2837 
Q 2550 3084 2163 3084 
Q 1697 3084 1428 2787 
Q 1159 2491 1159 1978 
L 1159 0 
L 581 0 
L 581 3500 
L 1159 3500 
L 1159 2956 
Q 1366 3272 1645 3428 
Q 1925 3584 2291 3584 
Q 2894 3584 3203 3211 
Q 3513 2838 3513 2113 
z
" transform="scale(0.015625)"/>
      <path id="DejaVuSans-48" d="M 628 4666 
L 1259 4666 
L 1259 2753 
L 3553 2753 
L 3553 4666 
L 4184 4666 
L 4184 0 
L 3553 0 
L 3553 2222 
L 1259 2222 
L 1259 0 
L 628 0 
L 628 4666 
z
" transform="scale(0.015625)"/>
      <path id="DejaVuSans-7a" d="M 353 3500 
L 3084 3500 
L 3084 2975 
L 922 459 
L 3084 459 
L 3084 0 
L 275 0 
L 275 525 
L 2438 3041 
L 353 3041 
L 353 3500 
z
" transform="scale(0.015625)"/>
     </defs>
     <use xlink:href="#DejaVuSans-4d"/>
     <use xlink:href="#DejaVuSans-3d" transform="translate(86.279297 0)"/>
     <use xlink:href="#DejaVuSans-36" transform="translate(170.068359 0)"/>
     <use xlink:href="#DejaVuSans-30" transform="translate(233.691406 0)"/>
     <use xlink:href="#DejaVuSans-2c" transform="translate(297.314453 0)"/>
     <use xlink:href="#DejaVuSans-20" transform="translate(329.101562 0)"/>
     <use xlink:href="#DejaVuSans-65" transform="translate(360.888672 0)"/>
     <use xlink:href="#DejaVuSans-3d" transform="translate(422.412109 0)"/>
     <use xlink:href="#DejaVuSans-30" transform="translate(506.201172 0)"/>
     <use xlink:href="#DejaVuSans-2e" transform="translate(569.824219 0)"/>
     <use xlink:href="#DejaVuSans-32" transform="translate(601.611328 0)"/>
     <use xlink:href="#DejaVuSans-34" transform="translate(665.234375 0)"/>
     <use xlink:href="#DejaVuSans-2c" transform="translate(728.857422 0)"/>
     <use xlink:href="#DejaVuSans-20" transform="translate(760.644531 0)"/>
     <use xlink:href="#DejaVuSans-66" transform="translate(792.431641 0)"/>
     <use xlink:href="#DejaVuSans-5f" transform="translate(827.636719 0)"/>
     <use xlink:href="#DejaVuSans-6d" transform="translate(877.636719 0)"/>
     <use xlink:href="#DejaVuSans-69" transform="translate(975.048828 0)"/>
     <use xlink:href="#DejaVuSans-6e" transform="translate(1002.832031 0)"/>
     <use xlink:href="#DejaVuSans-3d" transform="translate(1066.210938 0)"/>
     <use xlink:href="#DejaVuSans-31" transform="translate(1150 0)"/>
     <use xlink:href="#DejaVuSans-30" transform="translate(1213.623047 0)"/>
     <use xlink:href="#DejaVuSans-20" transform="translate(1277.246094 0)"/>
     <use xlink:href="#DejaVuSans-48" transform="translate(1309.033203 0)"/>
     <use xlink:href="#DejaVuSans-7a" transform="translate(1384.228516 0)"/>
    </g>
   </g>
   <g id="legend_1">
    <g id="patch_7">
     <path d="M 59.160938 59.674375 
L 123.960938 59.674375 
Q 125.960938 59.674375 125.960938 57.674375 
L 125.960938 29.318125 
Q 125.960938 27.318125 123.960938 27.318125 
L 59.160938 27.318125 
Q 57.160938 27.318125 57.160938 29.318125 
L 57.160938 57.674375 
Q 57.160938 59.674375 59.160938 59.674375 
z
" style="fill: #ffffff; opacity: 0.8; stroke: #cccccc; stroke-linejoin: miter"/>
    </g>
    <g id="line2d_29">
     <path d="M 61.160938 35.416562 
L 71.160938 35.416562 
L 81.160938 35.416562 
" style="fill: none; stroke: #1f77b4; stroke-width: 0.6; stroke-linecap: square"/>
    </g>
    <g id="text_17">
     <!-- $h_+$ -->
     <g transform="translate(89.160938 38.916562) scale(0.1 -0.1)">
      <defs>
       <path id="DejaVuSans-2b" d="M 2944 4013 
L 2944 2272 
L 4684 2272 
L 4684 1741 
L 2944 1741 
L 2944 0 
L 2419 0 
L 2419 1741 
L 678 1741 
L 678 2272 
L 2419 2272 
L 2419 4013 
L 2944 4013 
z
" transform="scale(0.015625)"/>
      </defs>
      <use xlink:href="#DejaVuSans-Oblique-68" transform="translate(0 0.015625)"/>
      <use xlink:href="#DejaVuSans-2b" transform="translate(77.016602 -16.390625) scale(0.7)"/>
     </g>
    </g>
    <g id="line2d_30">
     <path d="M 61.160938 50.094688 
L 71.160938 50.094688 
L 81.160938 50.094688 
" style="fill: none; stroke: #ff7f0e; stroke-width: 0.6; stroke-linecap: square"/>
    </g>
    <g id="text_18">
     <!-- $h_	imes$ -->
     <g transform="translate(89.160938 53.594688) scale(0.1 -0.1)">
      <defs>
       <path id="DejaVuSans-Oblique-69" d="M 1172 4863 
L 1747 4863 
L 1606 4134 
L 1031 4134 
L 1172 4863 
z
M 909 3500 
L 1484 3500 
L 800 0 
L 225 0 
L 909 3500 
z
" transform="scale(0.015625)"/>
       <path id="DejaVuSans-Oblique-6d" d="M 5747 2113 
L 5338 0 
L 4763 0 
L 5166 2094 
Q 5191 2228 5203 2325 
Q 5216 2422 5216 2491 
Q 5216 2772 5059 2928 
Q 4903 3084 4622 3084 
Q 4203 3084 3875 2770 
Q 3547 2456 3450 1953 
L 3066 0 
L 2491 0 
L 2900 2094 
Q 2925 2209 2937 2307 
Q 2950 2406 2950 2484 
Q 2950 2769 2794 2926 
Q 2638 3084 2363 3084 
Q 1938 3084 1609 2770 
Q 1281 2456 1184 1953 
L 800 0 
L 225 0 
L 909 3500 
L 1484 3500 
L 1375 2956 
Q 1609 3263 1923 3423 
Q 2238 3584 2597 3584 
Q 2978 3584 3223 3384 
Q 3469 3184 3519 2828 
Q 3781 3197 4126 3390 
Q 4472 3584 4856 3584 
Q 5306 3584 5551 3325 
Q 5797 3066 5797 2591 
Q 5797 2488 5784 2364 
Q 5772 2241 5747 2113 
z
" transform="scale(0.015625)"/>
       <path id="DejaVuSans-Oblique-65" d="M 3078 2063 
Q 3088 2113 3092 2166 
Q 3097 2219 3097 2272 
Q 3097 2653 2873 2875 
Q 2650 3097 2266 3097 
Q 1838 3097 1509 2826 
Q 1181 2556 1013 2059 
L 3078 2063 
z
M 3578 1613 
L 903 1613 
Q 884 1494 878 1425 
Q 872 1356 872 1306 
Q 872 872 1139 634 
Q 1406 397 1894 397 
Q 2269 397 2603 481 
Q 2938 566 3225 728 
L 3116 159 
Q 2806 34 2476 -28 
Q 2147 -91 1806 -91 
Q 1078 -91 686 257 
Q 294 606 294 1247 
Q 294 1794 489 2264 
Q 684 2734 1063 3103 
Q 1306 3334 1642 3459 
Q 1978 3584 2356 3584 
Q 2950 3584 3301 3228 
Q 3653 2872 3653 2272 
Q 3653 2128 3634 1964 
Q 3616 1800 3578 1613 
z
" transform="scale(0.015625)"/>
       <path id="DejaVuSans-Oblique-73" d="M 3200 3397 
L 3091 2853 
Q 2863 2978 2609 3040 
Q 2356 3103 2088 3103 
Q 1634 3103 1373 2948 
Q 1113 2794 1113 2528 
Q 1113 2219 1719 2053 
Q 1766 2041 1788 2034 
L 1972 1978 
Q 2547 1819 2739 1644 
Q 2931 1469 2931 1166 
Q 2931 609 2489 259 
Q 2047 -91 1331 -91 
Q 1053 -91 747 -37 
Q 441 16 72 128 
L 184 722 
Q 500 559 806 475 
Q 1113 391 1394 391 
Q 1816 391 2080 572 
Q 2344 753 2344 1031 
Q 2344 1331 1650 1516 
L 1591 1531 
L 1394 1581 
Q 956 1697 753 1886 
Q 550 2075 550 2369 
Q 550 2928 970 3256 
Q 1391 3584 2113 3584 
Q 2397 3584 2667 3537 
Q 2938 3491 3200 3397 
z
" transform="scale(0.015625)"/>
      </defs>
      <use xlink:href="#DejaVuSans-Oblique-68" transform="translate(0 0.015625)"/>
      <use xlink:href="#DejaVuSans-20" transform="translate(63.378906 -16.390625) scale(0.7)"/>
      <use xlink:href="#DejaVuSans-Oblique-69" transform="translate(88.364258 0.015625)"/>
      <use xlink:href="#DejaVuSans-Oblique-6d" transform="translate(116.147461 0.015625)"/>
      <use xlink:href="#DejaVuSans-Oblique-65" transform="translate(213.55957 0.015625)"/>
      <use xlink:href="#DejaVuSans-Oblique-73" transform="translate(275.083008 0.015625)"/>
     </g>
    </g>
   </g>
  </g>
 </g>
 <defs>
  <clipPath id="pe9a1988f5d">
   <rect x="52.160938" y="22.318125" width="795.094" height="291.16"/>
  </clipPath>
 </defs>
</svg>
