<?xml version="1.0" encoding="utf-8" standalone="no"?>
<!DOCTYPE svg PUBLIC "-//W3C//DTD SVG 1.1//EN"
  "http://www.w3.org/Graphics/SVG/1.1/DTD/svg11.dtd">
<svg xmlns:xlink="http://www.w3.org/1999/xlink" width="854.454937pt" height="351.034375pt" viewBox="0 0 854.454937 351.034375" xmlns="http://www.w3.org/2000/svg" version="1.1">
 <metadata>
  <rdf:RDF xmlns:dc="http://purl.org/dc/elements/1.1/" xmlns:cc="http://creativecommons.org/ns#" xmlns:rdf="http://www.w3.org/1999/02/22-rdf-syntax-ns#">
   <cc:Work>
    <dc:type rdf:resource="http://purl.org/dc/dcmitype/StillImage"/>
    <dc:date>2025-07-24T14:39:30.071703</dc:date>
    <dc:format>image/svg+xml</dc:format>
    <dc:creator>
     <cc:Agent>
      <dc:title>Matplotlib v3.10.3, https://matplotlib.org/</dc:title>
     </cc:Agent>
    </dc:creator>
   </cc:Work>
  </rdf:RDF>
 </metadata>
 <defs>
  <style type="text/css">*{stroke-linejoin: round; stroke-linecap: butt}</style>
 </defs>
 <g id="figure_1">
  <g id="patch_1">
   <path d="M 0 351.034375 
L 854.454937 351.034375 
L 854.454937 0 
L 0 0 
z
" style="fill: #ffffff"/>
  </g>
  <g id="axes_1">
   <g id="patch_2">
    <path d="M 52.160938 313.478125 
L 847.254938 313.478125 
L 847.254938 22.318125 
L 52.160938 22.318125 
z
" style="fill: #ffffff"/>
   </g>
   <g id="matplotlib.axis_1">
    <g id="xtick_1">
     <g id="line2d_1">
      <path d="M 63.576249 313.478125 
L 63.576249 22.318125 
" clip-path="url(#pfc7e650cea)" style="fill: none; stroke: #b0b0b0; stroke-width: 0.8; stroke-linecap: square"/>
     </g>
     <g id="line2d_2">
      <defs>
       <path id="m680d40ebc1" d="M 0 0 
L 0 3.5 
" style="stroke: #000000; stroke-width: 0.8"/>
      </defs>
      <g>
       <use xlink:href="#m680d40ebc1" x="63.576249" y="313.478125" style="stroke: #000000; stroke-width: 0.8"/>
      </g>
     </g>
     <g id="text_1">
      <!-- −14000 -->
      <g transform="translate(43.480155 328.076563) scale(0.1 -0.1)">
       <defs>
        <path id="DejaVuSans-2212" d="M 678 2272 
L 4684 2272 
L 4684 1741 
L 678 1741 
L 678 2272 
z
" transform="scale(0.015625)"/>
        <path id="DejaVuSans-31" d="M 794 531 
L 1825 531 
L 1825 4091 
L 703 3866 
L 703 4441 
L 1819 4666 
L 2450 4666 
L 2450 531 
L 3481 531 
L 3481 0 
L 794 0 
L 794 531 
z
" transform="scale(0.015625)"/>
        <path id="DejaVuSans-34" d="M 2419 4116 
L 825 1625 
L 2419 1625 
L 2419 4116 
z
M 2253 4666 
L 3047 4666 
L 3047 1625 
L 3713 1625 
L 3713 1100 
L 3047 1100 
L 3047 0 
L 2419 0 
L 2419 1100 
L 313 1100 
L 313 1709 
L 2253 4666 
z
" transform="scale(0.015625)"/>
        <path id="DejaVuSans-30" d="M 2034 4250 
Q 1547 4250 1301 3770 
Q 1056 3291 1056 2328 
Q 1056 1369 1301 889 
Q 1547 409 2034 409 
Q 2525 409 2770 889 
Q 3016 1369 3016 2328 
Q 3016 3291 2770 3770 
Q 2525 4250 2034 4250 
z
M 2034 4750 
Q 2819 4750 3233 4129 
Q 3647 3509 3647 2328 
Q 3647 1150 3233 529 
Q 2819 -91 2034 -91 
Q 1250 -91 836 529 
Q 422 1150 422 2328 
Q 422 3509 836 4129 
Q 1250 4750 2034 4750 
z
" transform="scale(0.015625)"/>
       </defs>
       <use xlink:href="#DejaVuSans-2212"/>
       <use xlink:href="#DejaVuSans-31" transform="translate(83.789062 0)"/>
       <use xlink:href="#DejaVuSans-34" transform="translate(147.412109 0)"/>
       <use xlink:href="#DejaVuSans-30" transform="translate(211.035156 0)"/>
       <use xlink:href="#DejaVuSans-30" transform="translate(274.658203 0)"/>
       <use xlink:href="#DejaVuSans-30" transform="translate(338.28125 0)"/>
      </g>
     </g>
    </g>
    <g id="xtick_2">
     <g id="line2d_3">
      <path d="M 169.928544 313.478125 
L 169.928544 22.318125 
" clip-path="url(#pfc7e650cea)" style="fill: none; stroke: #b0b0b0; stroke-width: 0.8; stroke-linecap: square"/>
     </g>
     <g id="line2d_4">
      <g>
       <use xlink:href="#m680d40ebc1" x="169.928544" y="313.478125" style="stroke: #000000; stroke-width: 0.8"/>
      </g>
     </g>
     <g id="text_2">
      <!-- −12000 -->
      <g transform="translate(149.83245 328.076563) scale(0.1 -0.1)">
       <defs>
        <path id="DejaVuSans-32" d="M 1228 531 
L 3431 531 
L 3431 0 
L 469 0 
L 469 531 
Q 828 903 1448 1529 
Q 2069 2156 2228 2338 
Q 2531 2678 2651 2914 
Q 2772 3150 2772 3378 
Q 2772 3750 2511 3984 
Q 2250 4219 1831 4219 
Q 1534 4219 1204 4116 
Q 875 4013 500 3803 
L 500 4441 
Q 881 4594 1212 4672 
Q 1544 4750 1819 4750 
Q 2544 4750 2975 4387 
Q 3406 4025 3406 3419 
Q 3406 3131 3298 2873 
Q 3191 2616 2906 2266 
Q 2828 2175 2409 1742 
Q 1991 1309 1228 531 
z
" transform="scale(0.015625)"/>
       </defs>
       <use xlink:href="#DejaVuSans-2212"/>
       <use xlink:href="#DejaVuSans-31" transform="translate(83.789062 0)"/>
       <use xlink:href="#DejaVuSans-32" transform="translate(147.412109 0)"/>
       <use xlink:href="#DejaVuSans-30" transform="translate(211.035156 0)"/>
       <use xlink:href="#DejaVuSans-30" transform="translate(274.658203 0)"/>
       <use xlink:href="#DejaVuSans-30" transform="translate(338.28125 0)"/>
      </g>
     </g>
    </g>
    <g id="xtick_3">
     <g id="line2d_5">
      <path d="M 276.280838 313.478125 
L 276.280838 22.318125 
" clip-path="url(#pfc7e650cea)" style="fill: none; stroke: #b0b0b0; stroke-width: 0.8; stroke-linecap: square"/>
     </g>
     <g id="line2d_6">
      <g>
       <use xlink:href="#m680d40ebc1" x="276.280838" y="313.478125" style="stroke: #000000; stroke-width: 0.8"/>
      </g>
     </g>
     <g id="text_3">
      <!-- −10000 -->
      <g transform="translate(256.184744 328.076563) scale(0.1 -0.1)">
       <use xlink:href="#DejaVuSans-2212"/>
       <use xlink:href="#DejaVuSans-31" transform="translate(83.789062 0)"/>
       <use xlink:href="#DejaVuSans-30" transform="translate(147.412109 0)"/>
       <use xlink:href="#DejaVuSans-30" transform="translate(211.035156 0)"/>
       <use xlink:href="#DejaVuSans-30" transform="translate(274.658203 0)"/>
       <use xlink:href="#DejaVuSans-30" transform="translate(338.28125 0)"/>
      </g>
     </g>
    </g>
    <g id="xtick_4">
     <g id="line2d_7">
      <path d="M 382.633133 313.478125 
L 382.633133 22.318125 
" clip-path="url(#pfc7e650cea)" style="fill: none; stroke: #b0b0b0; stroke-width: 0.8; stroke-linecap: square"/>
     </g>
     <g id="line2d_8">
      <g>
       <use xlink:href="#m680d40ebc1" x="382.633133" y="313.478125" style="stroke: #000000; stroke-width: 0.8"/>
      </g>
     </g>
     <g id="text_4">
      <!-- −8000 -->
      <g transform="translate(365.718289 328.076563) scale(0.1 -0.1)">
       <defs>
        <path id="DejaVuSans-38" d="M 2034 2216 
Q 1584 2216 1326 1975 
Q 1069 1734 1069 1313 
Q 1069 891 1326 650 
Q 1584 409 2034 409 
Q 2484 409 2743 651 
Q 3003 894 3003 1313 
Q 3003 1734 2745 1975 
Q 2488 2216 2034 2216 
z
M 1403 2484 
Q 997 2584 770 2862 
Q 544 3141 544 3541 
Q 544 4100 942 4425 
Q 1341 4750 2034 4750 
Q 2731 4750 3128 4425 
Q 3525 4100 3525 3541 
Q 3525 3141 3298 2862 
Q 3072 2584 2669 2484 
Q 3125 2378 3379 2068 
Q 3634 1759 3634 1313 
Q 3634 634 3220 271 
Q 2806 -91 2034 -91 
Q 1263 -91 848 271 
Q 434 634 434 1313 
Q 434 1759 690 2068 
Q 947 2378 1403 2484 
z
M 1172 3481 
Q 1172 3119 1398 2916 
Q 1625 2713 2034 2713 
Q 2441 2713 2670 2916 
Q 2900 3119 2900 3481 
Q 2900 3844 2670 4047 
Q 2441 4250 2034 4250 
Q 1625 4250 1398 4047 
Q 1172 3844 1172 3481 
z
" transform="scale(0.015625)"/>
       </defs>
       <use xlink:href="#DejaVuSans-2212"/>
       <use xlink:href="#DejaVuSans-38" transform="translate(83.789062 0)"/>
       <use xlink:href="#DejaVuSans-30" transform="translate(147.412109 0)"/>
       <use xlink:href="#DejaVuSans-30" transform="translate(211.035156 0)"/>
       <use xlink:href="#DejaVuSans-30" transform="translate(274.658203 0)"/>
      </g>
     </g>
    </g>
    <g id="xtick_5">
     <g id="line2d_9">
      <path d="M 488.985427 313.478125 
L 488.985427 22.318125 
" clip-path="url(#pfc7e650cea)" style="fill: none; stroke: #b0b0b0; stroke-width: 0.8; stroke-linecap: square"/>
     </g>
     <g id="line2d_10">
      <g>
       <use xlink:href="#m680d40ebc1" x="488.985427" y="313.478125" style="stroke: #000000; stroke-width: 0.8"/>
      </g>
     </g>
     <g id="text_5">
      <!-- −6000 -->
      <g transform="translate(472.070583 328.076563) scale(0.1 -0.1)">
       <defs>
        <path id="DejaVuSans-36" d="M 2113 2584 
Q 1688 2584 1439 2293 
Q 1191 2003 1191 1497 
Q 1191 994 1439 701 
Q 1688 409 2113 409 
Q 2538 409 2786 701 
Q 3034 994 3034 1497 
Q 3034 2003 2786 2293 
Q 2538 2584 2113 2584 
z
M 3366 4563 
L 3366 3988 
Q 3128 4100 2886 4159 
Q 2644 4219 2406 4219 
Q 1781 4219 1451 3797 
Q 1122 3375 1075 2522 
Q 1259 2794 1537 2939 
Q 1816 3084 2150 3084 
Q 2853 3084 3261 2657 
Q 3669 2231 3669 1497 
Q 3669 778 3244 343 
Q 2819 -91 2113 -91 
Q 1303 -91 875 529 
Q 447 1150 447 2328 
Q 447 3434 972 4092 
Q 1497 4750 2381 4750 
Q 2619 4750 2861 4703 
Q 3103 4656 3366 4563 
z
" transform="scale(0.015625)"/>
       </defs>
       <use xlink:href="#DejaVuSans-2212"/>
       <use xlink:href="#DejaVuSans-36" transform="translate(83.789062 0)"/>
       <use xlink:href="#DejaVuSans-30" transform="translate(147.412109 0)"/>
       <use xlink:href="#DejaVuSans-30" transform="translate(211.035156 0)"/>
       <use xlink:href="#DejaVuSans-30" transform="translate(274.658203 0)"/>
      </g>
     </g>
    </g>
    <g id="xtick_6">
     <g id="line2d_11">
      <path d="M 595.337721 313.478125 
L 595.337721 22.318125 
" clip-path="url(#pfc7e650cea)" style="fill: none; stroke: #b0b0b0; stroke-width: 0.8; stroke-linecap: square"/>
     </g>
     <g id="line2d_12">
      <g>
       <use xlink:href="#m680d40ebc1" x="595.337721" y="313.478125" style="stroke: #000000; stroke-width: 0.8"/>
      </g>
     </g>
     <g id="text_6">
      <!-- −4000 -->
      <g transform="translate(578.422878 328.076563) scale(0.1 -0.1)">
       <use xlink:href="#DejaVuSans-2212"/>
       <use xlink:href="#DejaVuSans-34" transform="translate(83.789062 0)"/>
       <use xlink:href="#DejaVuSans-30" transform="translate(147.412109 0)"/>
       <use xlink:href="#DejaVuSans-30" transform="translate(211.035156 0)"/>
       <use xlink:href="#DejaVuSans-30" transform="translate(274.658203 0)"/>
      </g>
     </g>
    </g>
    <g id="xtick_7">
     <g id="line2d_13">
      <path d="M 701.690016 313.478125 
L 701.690016 22.318125 
" clip-path="url(#pfc7e650cea)" style="fill: none; stroke: #b0b0b0; stroke-width: 0.8; stroke-linecap: square"/>
     </g>
     <g id="line2d_14">
      <g>
       <use xlink:href="#m680d40ebc1" x="701.690016" y="313.478125" style="stroke: #000000; stroke-width: 0.8"/>
      </g>
     </g>
     <g id="text_7">
      <!-- −2000 -->
      <g transform="translate(684.775172 328.076563) scale(0.1 -0.1)">
       <use xlink:href="#DejaVuSans-2212"/>
       <use xlink:href="#DejaVuSans-32" transform="translate(83.789062 0)"/>
       <use xlink:href="#DejaVuSans-30" transform="translate(147.412109 0)"/>
       <use xlink:href="#DejaVuSans-30" transform="translate(211.035156 0)"/>
       <use xlink:href="#DejaVuSans-30" transform="translate(274.658203 0)"/>
      </g>
     </g>
    </g>
    <g id="xtick_8">
     <g id="line2d_15">
      <path d="M 808.04231 313.478125 
L 808.04231 22.318125 
" clip-path="url(#pfc7e650cea)" style="fill: none; stroke: #b0b0b0; stroke-width: 0.8; stroke-linecap: square"/>
     </g>
     <g id="line2d_16">
      <g>
       <use xlink:href="#m680d40ebc1" x="808.04231" y="313.478125" style="stroke: #000000; stroke-width: 0.8"/>
      </g>
     </g>
     <g id="text_8">
      <!-- 0 -->
      <g transform="translate(804.86106 328.076563) scale(0.1 -0.1)">
       <use xlink:href="#DejaVuSans-30"/>
      </g>
     </g>
    </g>
    <g id="text_9">
     <!-- t [s] -->
     <g transform="translate(439.652469 341.754687) scale(0.1 -0.1)">
      <defs>
       <path id="DejaVuSans-74" d="M 1172 4494 
L 1172 3500 
L 2356 3500 
L 2356 3053 
L 1172 3053 
L 1172 1153 
Q 1172 725 1289 603 
Q 1406 481 1766 481 
L 2356 481 
L 2356 0 
L 1766 0 
Q 1100 0 847 248 
Q 594 497 594 1153 
L 594 3053 
L 172 3053 
L 172 3500 
L 594 3500 
L 594 4494 
L 1172 4494 
z
" transform="scale(0.015625)"/>
       <path id="DejaVuSans-20" transform="scale(0.015625)"/>
       <path id="DejaVuSans-5b" d="M 550 4863 
L 1875 4863 
L 1875 4416 
L 1125 4416 
L 1125 -397 
L 1875 -397 
L 1875 -844 
L 550 -844 
L 550 4863 
z
" transform="scale(0.015625)"/>
       <path id="DejaVuSans-73" d="M 2834 3397 
L 2834 2853 
Q 2591 2978 2328 3040 
Q 2066 3103 1784 3103 
Q 1356 3103 1142 2972 
Q 928 2841 928 2578 
Q 928 2378 1081 2264 
Q 1234 2150 1697 2047 
L 1894 2003 
Q 2506 1872 2764 1633 
Q 3022 1394 3022 966 
Q 3022 478 2636 193 
Q 2250 -91 1575 -91 
Q 1294 -91 989 -36 
Q 684 19 347 128 
L 347 722 
Q 666 556 975 473 
Q 1284 391 1588 391 
Q 1994 391 2212 530 
Q 2431 669 2431 922 
Q 2431 1156 2273 1281 
Q 2116 1406 1581 1522 
L 1381 1569 
Q 847 1681 609 1914 
Q 372 2147 372 2553 
Q 372 3047 722 3315 
Q 1072 3584 1716 3584 
Q 2034 3584 2315 3537 
Q 2597 3491 2834 3397 
z
" transform="scale(0.015625)"/>
       <path id="DejaVuSans-5d" d="M 1947 4863 
L 1947 -844 
L 622 -844 
L 622 -397 
L 1369 -397 
L 1369 4416 
L 622 4416 
L 622 4863 
L 1947 4863 
z
" transform="scale(0.015625)"/>
      </defs>
      <use xlink:href="#DejaVuSans-74"/>
      <use xlink:href="#DejaVuSans-20" transform="translate(39.208984 0)"/>
      <use xlink:href="#DejaVuSans-5b" transform="translate(70.996094 0)"/>
      <use xlink:href="#DejaVuSans-73" transform="translate(110.009766 0)"/>
      <use xlink:href="#DejaVuSans-5d" transform="translate(162.109375 0)"/>
     </g>
    </g>
   </g>
   <g id="matplotlib.axis_2">
    <g id="ytick_1">
     <g id="line2d_17">
      <path d="M 52.160938 276.178122 
L 847.254938 276.178122 
" clip-path="url(#pfc7e650cea)" style="fill: none; stroke: #b0b0b0; stroke-width: 0.8; stroke-linecap: square"/>
     </g>
     <g id="line2d_18">
      <defs>
       <path id="me2f9960da4" d="M 0 0 
L -3.5 0 
" style="stroke: #000000; stroke-width: 0.8"/>
      </defs>
      <g>
       <use xlink:href="#me2f9960da4" x="52.160938" y="276.178122" style="stroke: #000000; stroke-width: 0.8"/>
      </g>
     </g>
     <g id="text_10">
      <!-- −0.2 -->
      <g transform="translate(20.878125 279.977341) scale(0.1 -0.1)">
       <defs>
        <path id="DejaVuSans-2e" d="M 684 794 
L 1344 794 
L 1344 0 
L 684 0 
L 684 794 
z
" transform="scale(0.015625)"/>
       </defs>
       <use xlink:href="#DejaVuSans-2212"/>
       <use xlink:href="#DejaVuSans-30" transform="translate(83.789062 0)"/>
       <use xlink:href="#DejaVuSans-2e" transform="translate(147.412109 0)"/>
       <use xlink:href="#DejaVuSans-32" transform="translate(179.199219 0)"/>
      </g>
     </g>
    </g>
    <g id="ytick_2">
     <g id="line2d_19">
      <path d="M 52.160938 220.806896 
L 847.254938 220.806896 
" clip-path="url(#pfc7e650cea)" style="fill: none; stroke: #b0b0b0; stroke-width: 0.8; stroke-linecap: square"/>
     </g>
     <g id="line2d_20">
      <g>
       <use xlink:href="#me2f9960da4" x="52.160938" y="220.806896" style="stroke: #000000; stroke-width: 0.8"/>
      </g>
     </g>
     <g id="text_11">
      <!-- −0.1 -->
      <g transform="translate(20.878125 224.606115) scale(0.1 -0.1)">
       <use xlink:href="#DejaVuSans-2212"/>
       <use xlink:href="#DejaVuSans-30" transform="translate(83.789062 0)"/>
       <use xlink:href="#DejaVuSans-2e" transform="translate(147.412109 0)"/>
       <use xlink:href="#DejaVuSans-31" transform="translate(179.199219 0)"/>
      </g>
     </g>
    </g>
    <g id="ytick_3">
     <g id="line2d_21">
      <path d="M 52.160938 165.43567 
L 847.254938 165.43567 
" clip-path="url(#pfc7e650cea)" style="fill: none; stroke: #b0b0b0; stroke-width: 0.8; stroke-linecap: square"/>
     </g>
     <g id="line2d_22">
      <g>
       <use xlink:href="#me2f9960da4" x="52.160938" y="165.43567" style="stroke: #000000; stroke-width: 0.8"/>
      </g>
     </g>
     <g id="text_12">
      <!-- 0.0 -->
      <g transform="translate(29.257812 169.234889) scale(0.1 -0.1)">
       <use xlink:href="#DejaVuSans-30"/>
       <use xlink:href="#DejaVuSans-2e" transform="translate(63.623047 0)"/>
       <use xlink:href="#DejaVuSans-30" transform="translate(95.410156 0)"/>
      </g>
     </g>
    </g>
    <g id="ytick_4">
     <g id="line2d_23">
      <path d="M 52.160938 110.064444 
L 847.254938 110.064444 
" clip-path="url(#pfc7e650cea)" style="fill: none; stroke: #b0b0b0; stroke-width: 0.8; stroke-linecap: square"/>
     </g>
     <g id="line2d_24">
      <g>
       <use xlink:href="#me2f9960da4" x="52.160938" y="110.064444" style="stroke: #000000; stroke-width: 0.8"/>
      </g>
     </g>
     <g id="text_13">
      <!-- 0.1 -->
      <g transform="translate(29.257812 113.863663) scale(0.1 -0.1)">
       <use xlink:href="#DejaVuSans-30"/>
       <use xlink:href="#DejaVuSans-2e" transform="translate(63.623047 0)"/>
       <use xlink:href="#DejaVuSans-31" transform="translate(95.410156 0)"/>
      </g>
     </g>
    </g>
    <g id="ytick_5">
     <g id="line2d_25">
      <path d="M 52.160938 54.693218 
L 847.254938 54.693218 
" clip-path="url(#pfc7e650cea)" style="fill: none; stroke: #b0b0b0; stroke-width: 0.8; stroke-linecap: square"/>
     </g>
     <g id="line2d_26">
      <g>
       <use xlink:href="#me2f9960da4" x="52.160938" y="54.693218" style="stroke: #000000; stroke-width: 0.8"/>
      </g>
     </g>
     <g id="text_14">
      <!-- 0.2 -->
      <g transform="translate(29.257812 58.492437) scale(0.1 -0.1)">
       <use xlink:href="#DejaVuSans-30"/>
       <use xlink:href="#DejaVuSans-2e" transform="translate(63.623047 0)"/>
       <use xlink:href="#DejaVuSans-32" transform="translate(95.410156 0)"/>
      </g>
     </g>
    </g>
    <g id="text_15">
     <!-- $h_{22}]$ -->
     <g transform="translate(14.798438 177.648125) rotate(-90) scale(0.1 -0.1)">
      <defs>
       <path id="DejaVuSans-Oblique-68" d="M 3566 2113 
L 3156 0 
L 2578 0 
L 2988 2091 
Q 3016 2238 3031 2350 
Q 3047 2463 3047 2528 
Q 3047 2791 2881 2937 
Q 2716 3084 2419 3084 
Q 1956 3084 1617 2771 
Q 1278 2459 1178 1941 
L 800 0 
L 225 0 
L 1172 4863 
L 1747 4863 
L 1375 2950 
Q 1594 3244 1934 3414 
Q 2275 3584 2650 3584 
Q 3113 3584 3367 3334 
Q 3622 3084 3622 2631 
Q 3622 2519 3608 2391 
Q 3594 2263 3566 2113 
z
" transform="scale(0.015625)"/>
      </defs>
      <use xlink:href="#DejaVuSans-Oblique-68" transform="translate(0 0.015625)"/>
      <use xlink:href="#DejaVuSans-32" transform="translate(63.378906 -16.390625) scale(0.7)"/>
      <use xlink:href="#DejaVuSans-32" transform="translate(107.915039 -16.390625) scale(0.7)"/>
      <use xlink:href="#DejaVuSans-5d" transform="translate(155.185547 0.015625)"/>
     </g>
    </g>
   </g>
   <g id="line2d_27">
    <path d="M 88.301574 128.086359 
L 88.566567 119.809367 
L 88.743229 118.5485 
L 88.919891 120.806152 
L 89.184884 130.283211 
L 89.626539 157.507306 
L 90.333187 200.917098 
L 90.59818 208.087916 
L 90.686511 208.861503 
L 90.774842 208.798307 
L 90.951504 206.206899 
L 91.216497 196.733802 
L 91.746484 165.203913 
L 92.364801 131.988037 
L 92.629794 126.118859 
L 92.718125 125.640982 
L 92.806456 125.917648 
L 92.983118 128.672058 
L 93.248111 137.725383 
L 93.778097 166.629782 
L 94.396414 196.59367 
L 94.661407 201.875563 
L 94.749738 202.303338 
L 94.838069 202.048624 
L 95.014731 199.539701 
L 95.279724 191.265026 
L 95.80971 164.526066 
L 96.428028 136.084515 
L 96.693021 130.773101 
L 96.781352 130.246844 
L 96.869683 130.364158 
L 97.046345 132.499302 
L 97.311338 140.044123 
L 97.841324 165.273823 
L 98.459641 193.03092 
L 98.724634 198.613092 
L 98.901296 199.386577 
L 99.077958 197.738272 
L 99.342951 191.076888 
L 99.784606 171.99351 
L 100.579585 137.729079 
L 100.844579 133.116746 
L 100.93291 132.687391 
L 101.021241 132.827924 
L 101.197903 134.787827 
L 101.462896 141.562897 
L 101.992882 164.227074 
L 102.611199 190.07137 
L 102.964523 196.901303 
L 103.052854 197.328378 
L 103.141185 197.219725 
L 103.317847 195.41932 
L 103.58284 189.076773 
L 104.024495 171.550496 
L 104.819474 139.62822 
L 105.084467 134.792582 
L 105.261129 134.019387 
L 105.349461 134.393374 
L 105.526123 136.623103 
L 105.791116 143.320693 
L 106.321102 164.591033 
L 107.02775 191.187196 
L 107.292743 195.746637 
L 107.469405 196.47664 
L 107.557736 196.126512 
L 107.734398 194.031694 
L 107.999391 187.717212 
L 108.529377 167.421942 
L 109.236025 140.898477 
L 109.589349 134.828596 
L 109.766011 134.402233 
L 109.942673 135.770851 
L 110.207667 140.973369 
L 110.649322 156.090371 
L 111.620963 192.055904 
L 111.885956 196.410614 
L 112.062618 197.225801 
L 112.150949 196.983822 
L 112.327611 195.22096 
L 112.592604 189.610488 
L 113.034259 174.277955 
L 114.0059 138.29179 
L 114.359224 132.815309 
L 114.447555 132.441127 
L 114.535886 132.480629 
L 114.712549 133.791058 
L 114.977542 138.668555 
L 115.419197 153.008812 
L 116.5675 195.501904 
L 116.920824 200.588205 
L 117.009155 200.897102 
L 117.097486 200.807176 
L 117.274148 199.438717 
L 117.539141 194.557176 
L 117.980796 180.227188 
L 119.305761 130.298368 
L 119.570755 126.303019 
L 119.747417 125.510336 
L 119.835748 125.692105 
L 120.01241 127.202473 
L 120.277403 132.198663 
L 120.719058 146.612644 
L 122.309016 207.961746 
L 122.574009 211.652462 
L 122.750671 212.38765 
L 122.839002 212.228495 
L 123.015664 210.868067 
L 123.280657 206.33151 
L 123.722312 193.005202 
L 124.428961 162.402112 
L 125.400602 122.096857 
L 125.842257 111.17922 
L 126.195581 107.27283 
L 126.372243 107.018805 
L 126.548905 107.889238 
L 126.813898 111.224079 
L 127.167222 119.13204 
L 127.697208 136.942723 
L 129.905484 220.319585 
L 130.258808 225.598545 
L 130.523801 227.064238 
L 130.612132 227.063118 
L 130.788794 226.324523 
L 131.053787 223.405704 
L 131.407111 216.326403 
L 131.937097 199.966478 
L 134.057042 125.175958 
L 134.410366 120.933627 
L 134.587028 120.283631 
L 134.675359 120.330668 
L 134.852021 121.159782 
L 135.117014 124.174285 
L 135.470338 131.179995 
L 136.000324 146.557394 
L 137.41362 190.919498 
L 137.855275 197.956378 
L 138.120268 199.529142 
L 138.2086 199.590931 
L 138.385262 199.025685 
L 138.650255 196.521202 
L 139.003579 190.429917 
L 139.621896 174.557848 
L 140.681868 146.840146 
L 141.123523 140.406732 
L 141.388516 138.74477 
L 141.565178 138.590377 
L 141.74184 139.18234 
L 142.006833 141.384989 
L 142.360157 146.450901 
L 142.978475 159.222572 
L 144.038447 181.394694 
L 144.480102 186.702896 
L 144.745095 188.127017 
L 144.921757 188.285326 
L 145.098419 187.80724 
L 145.363412 185.936853 
L 145.716736 181.506674 
L 146.335053 170.014513 
L 147.395025 149.932945 
L 147.836681 145.447202 
L 148.101674 144.458128 
L 148.190005 144.426083 
L 148.366667 144.803984 
L 148.63166 146.428646 
L 148.984984 150.337299 
L 149.603301 160.448046 
L 150.663273 178.326608 
L 151.104928 182.759093 
L 151.369921 184.067653 
L 151.546583 184.334592 
L 151.723245 184.113922 
L 151.988238 182.894425 
L 152.341563 179.752083 
L 152.871549 172.529931 
L 154.373176 150.404637 
L 154.7265 147.954406 
L 154.991493 147.254014 
L 155.168155 147.346007 
L 155.344817 147.877393 
L 155.60981 149.453947 
L 156.051465 153.872208 
L 156.758113 163.865735 
L 157.729755 177.365338 
L 158.259741 181.840102 
L 158.613065 183.081526 
L 158.789727 183.131473 
L 158.966389 182.796578 
L 159.231382 181.588504 
L 159.584706 178.753722 
L 160.114692 172.390059 
L 161.792982 150.026155 
L 162.234637 147.450351 
L 162.49963 147.001077 
L 162.676292 147.164694 
L 162.941285 148.077713 
L 163.294609 150.42622 
L 163.824595 155.850624 
L 166.121201 182.387247 
L 166.562857 184.513637 
L 166.82785 184.991644 
L 167.004512 184.954298 
L 167.181174 184.623768 
L 167.446167 183.572293 
L 167.799491 181.149726 
L 168.329477 175.530703 
L 169.124456 164.035212 
L 170.36109 146.419142 
L 170.891076 141.658489 
L 171.332732 139.577998 
L 171.597725 139.177972 
L 171.774387 139.253674 
L 172.03938 139.85393 
L 172.392704 141.489058 
L 172.834359 144.695025 
L 173.452676 150.902313 
L 174.424317 163.382319 
L 177.25091 201.585762 
L 178.13422 209.657542 
L 178.840868 214.27964 
L 179.459185 217.053678 
L 179.989171 218.535069 
L 180.430827 219.160917 
L 180.784151 219.274138 
L 181.049144 219.137518 
L 181.402468 218.664363 
L 181.844123 217.609852 
L 182.374109 215.665841 
L 182.992426 212.452179 
L 183.699074 207.534494 
L 184.582384 199.694923 
L 185.995681 184.71297 
L 188.733942 155.547676 
L 189.528921 149.234921 
L 190.058908 146.442351 
L 190.500563 145.204934 
L 190.765556 144.97087 
L 190.942218 145.026392 
L 191.207211 145.41624 
L 191.560535 146.46644 
L 192.090521 148.987957 
L 192.8855 154.115195 
L 195.182107 169.453115 
L 196.242079 175.053922 
L 196.948727 177.690744 
L 197.390382 178.638602 
L 197.743706 178.927335 
L 198.008699 178.852271 
L 198.273692 178.526312 
L 198.627016 177.718154 
L 199.157003 175.805167 
L 199.951982 171.852169 
L 202.071926 160.775009 
L 202.955236 157.403505 
L 203.661884 155.529217 
L 204.191871 154.728134 
L 204.545195 154.523803 
L 204.898519 154.597166 
L 205.251843 154.946461 
L 205.693498 155.746269 
L 206.311815 157.434531 
L 207.195125 160.59556 
L 211.08169 175.390601 
L 211.700007 176.653827 
L 212.141662 177.086098 
L 212.494986 177.133423 
L 212.84831 176.927211 
L 213.289966 176.357794 
L 213.908283 175.132482 
L 215.498241 171.214372 
L 216.823206 167.638707 
L 217.618185 164.808886 
L 218.589827 160.42516 
L 220.533109 151.374128 
L 221.328088 148.741062 
L 222.211398 146.577438 
L 223.801357 142.868932 
L 224.596336 140.285911 
L 225.479646 136.638028 
L 227.776253 126.622498 
L 228.129577 126.109774 
L 228.306239 126.107981 
L 228.482901 126.304897 
L 228.747894 127.015241 
L 229.101218 128.815846 
L 229.542873 132.516295 
L 230.16119 140.203376 
L 231.397824 159.91144 
L 232.281135 171.881714 
L 232.899452 177.388179 
L 233.429438 180.15209 
L 233.871093 181.29409 
L 234.224417 181.617802 
L 234.48941 181.599665 
L 234.842734 181.322382 
L 235.37272 180.567561 
L 237.492665 176.779478 
L 238.640968 174.497422 
L 239.70094 171.836712 
L 241.820885 166.280148 
L 242.615864 164.922967 
L 243.322512 164.152699 
L 244.382484 163.405186 
L 245.354125 162.637444 
L 246.325767 161.537231 
L 248.180718 159.34804 
L 248.887366 158.878438 
L 249.594014 158.664134 
L 250.742318 158.609594 
L 251.890621 158.485975 
L 253.56891 157.994004 
L 254.628882 157.839303 
L 255.777186 157.935487 
L 257.190482 158.025993 
L 258.162123 157.833719 
L 260.193737 157.324196 
L 260.988716 157.404871 
L 263.461984 157.891637 
L 264.080301 157.64488 
L 264.698619 157.159516 
L 265.581929 156.131458 
L 270.263473 149.759741 
L 271.058452 148.043269 
L 271.941762 145.531465 
L 274.238369 138.449573 
L 274.503362 138.323801 
L 274.680024 138.459677 
L 274.945017 139.074231 
L 275.21001 140.28397 
L 275.563334 143.016775 
L 276.004989 148.535165 
L 276.534975 158.43953 
L 277.329954 178.420394 
L 278.301595 201.793627 
L 278.743251 208.071649 
L 279.096575 210.237952 
L 279.273237 210.349383 
L 279.449899 209.847468 
L 279.714892 208.052348 
L 280.156547 202.837811 
L 281.039857 188.34277 
L 282.011498 173.56861 
L 282.718146 165.948329 
L 283.336463 161.345846 
L 283.954781 158.178121 
L 284.573098 155.9954 
L 285.279746 154.313764 
L 285.898063 153.369834 
L 286.428049 152.896279 
L 286.958035 152.71206 
L 287.488021 152.797993 
L 288.018007 153.121481 
L 288.724656 153.830928 
L 291.021262 156.363008 
L 291.72791 156.716114 
L 292.522889 156.836889 
L 294.907827 156.95363 
L 295.702806 157.326801 
L 296.93944 158.207371 
L 298.441068 159.21756 
L 299.50104 159.651723 
L 301.885977 160.490781 
L 303.034281 161.247302 
L 305.684211 163.135862 
L 307.980818 164.487532 
L 308.775797 165.29333 
L 309.570776 166.409623 
L 310.542417 168.185617 
L 311.867383 171.126033 
L 314.340651 177.252023 
L 316.460596 182.391131 
L 317.255575 183.738684 
L 317.785561 184.211239 
L 318.138885 184.242111 
L 318.403878 184.067265 
L 318.757202 183.497203 
L 319.110526 182.437387 
L 319.552181 180.211342 
L 319.993836 176.690394 
L 320.523822 170.320888 
L 321.14214 159.576517 
L 322.997091 122.856654 
L 323.262084 121.587746 
L 323.350415 121.609679 
L 323.527077 122.35969 
L 323.79207 125.274145 
L 324.145394 132.321809 
L 324.67538 148.051095 
L 325.912015 186.922893 
L 326.442001 196.266271 
L 326.795325 199.246799 
L 327.060318 199.972122 
L 327.148649 199.963866 
L 327.325311 199.620264 
L 327.590304 198.410179 
L 328.031959 195.063422 
L 329.0036 185.28794 
L 330.151903 174.480787 
L 331.035214 168.030976 
L 331.918524 163.191609 
L 332.713503 160.095191 
L 333.420151 158.250364 
L 334.038468 157.237052 
L 334.656785 156.660693 
L 335.275103 156.383051 
L 336.158413 156.252185 
L 338.013364 156.244677 
L 338.896674 156.438458 
L 339.603322 156.806856 
L 340.398302 157.49356 
L 341.369943 158.678297 
L 343.401556 161.664734 
L 351.52801 173.361203 
L 352.499651 174.232659 
L 353.29463 174.654929 
L 354.001279 174.798323 
L 354.796258 174.723823 
L 355.679568 174.39945 
L 356.474547 173.892953 
L 357.181195 173.190925 
L 357.799512 172.259798 
L 358.41783 170.889513 
L 359.036147 168.937912 
L 359.742795 165.853937 
L 360.537774 161.21946 
L 361.509415 154.038494 
L 363.62936 137.480757 
L 363.982684 136.162975 
L 364.159346 135.91736 
L 364.336008 136.015294 
L 364.51267 136.510479 
L 364.777663 138.114506 
L 365.130987 142.110093 
L 365.572642 150.423716 
L 366.102628 165.028411 
L 367.515924 207.059463 
L 367.869249 211.108799 
L 368.045911 211.472268 
L 368.222573 210.706831 
L 368.487566 207.547057 
L 368.84089 200.125681 
L 369.547538 179.019767 
L 370.430848 154.091468 
L 370.960834 144.530778 
L 371.402489 140.031411 
L 371.755813 138.362603 
L 372.020806 138.012109 
L 372.197468 138.124894 
L 372.462462 138.711073 
L 372.904117 140.503754 
L 373.610765 144.557753 
L 376.260695 160.626072 
L 377.232337 164.983325 
L 378.115647 168.037939 
L 379.087288 170.59953 
L 380.058929 172.570891 
L 381.03057 174.056745 
L 381.82555 174.865403 
L 382.443867 175.195922 
L 382.973853 175.259498 
L 383.59217 175.091268 
L 384.298818 174.634563 
L 385.270459 173.7126 
L 387.302073 171.405867 
L 388.627038 169.606601 
L 389.863672 167.509385 
L 391.806955 163.650902 
L 394.191892 159.060257 
L 395.870182 156.281405 
L 397.195147 154.494549 
L 398.255119 153.41759 
L 398.961767 152.988571 
L 399.491753 152.923082 
L 399.933408 153.113382 
L 400.375063 153.598569 
L 400.816719 154.451947 
L 401.346705 156.062978 
L 401.876691 158.415598 
L 402.495008 162.198823 
L 403.201656 167.95195 
L 404.084966 177.163628 
L 406.028249 198.522509 
L 406.381573 199.883534 
L 406.469904 199.927781 
L 406.646566 199.59428 
L 406.911559 197.906418 
L 407.264883 193.143318 
L 407.706538 182.912211 
L 408.324855 162.02008 
L 409.296496 128.541381 
L 409.738151 120.565044 
L 410.003145 119.171278 
L 410.091476 119.286048 
L 410.268138 120.348313 
L 410.533131 123.843613 
L 410.974786 133.593188 
L 412.741406 178.362836 
L 413.271392 185.231319 
L 413.713047 188.40806 
L 414.066371 189.626755 
L 414.331364 189.934774 
L 414.508026 189.905135 
L 414.77302 189.570356 
L 415.126344 188.691848 
L 415.65633 186.714766 
L 416.53964 182.408922 
L 419.366233 167.97163 
L 420.514536 163.546632 
L 421.574508 160.308297 
L 422.457818 158.226172 
L 423.252797 156.871438 
L 423.959446 156.094496 
L 424.577763 155.721366 
L 425.19608 155.585876 
L 425.991059 155.665666 
L 426.9627 156.016683 
L 427.934341 156.605163 
L 428.817652 157.420703 
L 429.700962 158.586236 
L 430.672603 160.273962 
L 432.085899 163.239374 
L 434.382506 168.612278 
L 436.590781 174.40662 
L 438.445733 179.101651 
L 439.329043 180.773471 
L 439.859029 181.376506 
L 440.212353 181.530651 
L 440.565677 181.431551 
L 440.919001 181.02823 
L 441.272325 180.268604 
L 441.71398 178.740827 
L 442.243966 175.940154 
L 442.862284 171.175704 
L 443.568932 163.59804 
L 444.363911 152.44938 
L 445.953869 129.260757 
L 446.307193 127.212619 
L 446.483855 127.156088 
L 446.660517 127.86932 
L 446.92551 130.544316 
L 447.278834 137.313793 
L 447.72049 150.665625 
L 449.398779 208.278994 
L 449.663772 211.046667 
L 449.840434 211.419573 
L 450.017096 210.672892 
L 450.282089 207.674941 
L 450.723744 198.85004 
L 452.667027 153.788983 
L 453.197013 147.535855 
L 453.638668 144.39596 
L 454.080323 142.754082 
L 454.345316 142.34546 
L 454.610309 142.290989 
L 454.875302 142.536411 
L 455.228626 143.250396 
L 455.758612 144.96599 
L 456.553591 148.500364 
L 460.086832 165.553923 
L 461.146804 169.262307 
L 462.118446 171.91091 
L 463.001756 173.673068 
L 463.796735 174.77603 
L 464.591714 175.508076 
L 465.386693 175.947265 
L 466.093341 176.11151 
L 466.711659 176.059799 
L 467.329976 175.793219 
L 467.948293 175.287163 
L 468.654941 174.412237 
L 469.538251 172.927617 
L 470.686554 170.515788 
L 472.01152 167.181406 
L 473.248154 163.418656 
L 474.66145 158.333138 
L 477.22305 148.948046 
L 477.929698 147.167499 
L 478.371353 146.517255 
L 478.724677 146.353135 
L 478.98967 146.484159 
L 479.254663 146.867872 
L 479.607987 147.827802 
L 480.049642 149.853737 
L 480.579629 153.68019 
L 481.109615 159.224899 
L 481.727932 168.020474 
L 482.611242 184.355688 
L 483.582883 202.113942 
L 483.936207 205.822355 
L 484.2012 206.699211 
L 484.289531 206.551416 
L 484.466193 205.524601 
L 484.731186 202.039039 
L 485.084511 193.691301 
L 485.614497 174.482643 
L 486.7628 129.566221 
L 487.116124 122.280816 
L 487.381117 119.946649 
L 487.469448 119.759441 
L 487.557779 119.854452 
L 487.734441 120.841684 
L 487.999434 124.079955 
L 488.441089 132.911405 
L 490.296041 174.58136 
L 490.914358 182.13249 
L 491.444344 185.944205 
L 491.885999 187.604307 
L 492.239323 188.126605 
L 492.504316 188.125145 
L 492.769309 187.835591 
L 493.122633 187.070377 
L 493.652619 185.284624 
L 494.447599 181.675822 
L 497.892508 164.987136 
L 499.040812 160.848361 
L 500.012453 158.110676 
L 500.895763 156.213169 
L 501.779073 154.813615 
L 502.574052 153.953664 
L 503.192369 153.565908 
L 503.722356 153.453449 
L 504.252342 153.561181 
L 504.782328 153.895139 
L 505.400645 154.560611 
L 506.107293 155.649315 
L 506.990603 157.438982 
L 507.962244 159.9402 
L 508.933886 163.082073 
L 509.993858 167.315515 
L 511.407154 173.997721 
L 513.527099 184.001262 
L 514.145416 186.023897 
L 514.587071 186.86762 
L 514.852064 187.047913 
L 515.117057 186.931317 
L 515.38205 186.472613 
L 515.735374 185.248757 
L 516.177029 182.580922 
L 516.618684 178.460285 
L 517.14867 171.373123 
L 517.766988 160.075437 
L 519.621939 123.04198 
L 519.886932 122.014924 
L 519.975263 122.18744 
L 520.151925 123.377988 
L 520.416918 127.378223 
L 520.770242 136.79685 
L 521.300228 157.814043 
L 522.360201 200.886674 
L 522.713525 208.451585 
L 522.978518 210.893758 
L 523.066849 211.104453 
L 523.15518 211.028892 
L 523.331842 210.073258 
L 523.596835 206.878651 
L 524.03849 198.144699 
L 525.893441 156.625331 
L 526.511758 148.847911 
L 527.041745 144.833072 
L 527.4834 143.048935 
L 527.836724 142.471674 
L 528.101717 142.458678 
L 528.36671 142.754507 
L 528.720034 143.554212 
L 529.25002 145.427753 
L 530.044999 149.19634 
L 533.754902 167.962045 
L 534.903205 172.229582 
L 535.874846 175.025474 
L 536.758157 176.931404 
L 537.464805 178.008832 
L 538.083122 178.593867 
L 538.613108 178.805391 
L 539.054763 178.767583 
L 539.584749 178.464513 
L 540.114735 177.889676 
L 540.733052 176.89553 
L 541.439701 175.352358 
L 542.23468 173.08536 
L 543.11799 169.840699 
L 544.089631 165.339178 
L 545.326265 158.424643 
L 547.711203 144.7302 
L 548.32952 142.500186 
L 548.682844 141.853925 
L 548.947837 141.767033 
L 549.124499 141.931255 
L 549.389492 142.55608 
L 549.742816 144.191758 
L 550.184471 147.725717 
L 550.626127 153.139524 
L 551.156113 162.310793 
L 551.862761 178.654942 
L 553.011064 205.840739 
L 553.364388 209.885856 
L 553.54105 210.388554 
L 553.629381 210.200912 
L 553.806043 208.887536 
L 554.071036 204.482802 
L 554.42436 194.201909 
L 555.042677 167.491676 
L 555.925988 130.376866 
L 556.279312 122.207462 
L 556.544305 119.482141 
L 556.632636 119.210429 
L 556.720967 119.24102 
L 556.897629 120.152052 
L 557.162622 123.379512 
L 557.604277 132.364337 
L 559.459228 175.453438 
L 560.077546 183.458319 
L 560.607532 187.471775 
L 561.049187 189.12344 
L 561.31418 189.492074 
L 561.490842 189.512767 
L 561.755835 189.246095 
L 562.109159 188.415181 
L 562.639145 186.381877 
L 563.434124 182.214551 
L 567.320689 160.238051 
L 568.380661 156.039256 
L 569.263972 153.399792 
L 569.97062 151.87164 
L 570.588937 150.991528 
L 571.118923 150.603367 
L 571.560578 150.550939 
L 572.002233 150.748874 
L 572.443888 151.194752 
L 572.973874 152.048158 
L 573.592191 153.469429 
L 574.29884 155.652247 
L 575.093819 158.849527 
L 575.977129 163.357927 
L 577.037101 169.966864 
L 579.863694 188.448756 
L 580.39368 190.242197 
L 580.658673 190.61627 
L 580.835335 190.625417 
L 581.011997 190.417204 
L 581.27699 189.649222 
L 581.630314 187.66027 
L 582.071969 183.395443 
L 582.601955 175.354677 
L 583.220272 161.887322 
L 584.898562 121.299612 
L 585.163555 119.529974 
L 585.251886 119.540158 
L 585.428548 120.550907 
L 585.693541 124.664921 
L 586.046865 134.926006 
L 586.576851 158.196547 
L 587.548492 201.641323 
L 587.901816 210.111455 
L 588.16681 212.771634 
L 588.255141 212.967135 
L 588.343472 212.834948 
L 588.520134 211.651381 
L 588.785127 207.873369 
L 589.226782 197.753214 
L 590.905071 154.628222 
L 591.523388 145.556364 
L 591.965043 141.714535 
L 592.318367 140.015078 
L 592.58336 139.433713 
L 592.760023 139.33671 
L 592.936685 139.447874 
L 593.201678 139.960619 
L 593.555002 141.188559 
L 594.084988 143.908767 
L 594.968298 149.811145 
L 597.794891 169.497009 
L 598.766532 174.611741 
L 599.649842 178.146985 
L 600.35649 180.176825 
L 600.974807 181.348429 
L 601.504793 181.87971 
L 601.858117 181.980645 
L 602.211442 181.873946 
L 602.653097 181.446541 
L 603.094752 180.695548 
L 603.713069 179.116029 
L 604.419717 176.584696 
L 605.214696 172.835516 
L 606.098006 167.578118 
L 607.24631 159.28838 
L 609.454585 142.948408 
L 609.984571 140.43927 
L 610.337895 139.506485 
L 610.602888 139.316352 
L 610.77955 139.475647 
L 611.044543 140.203428 
L 611.397868 142.210216 
L 611.839523 146.626245 
L 612.369509 155.035822 
L 612.987826 169.110646 
L 614.577784 209.301441 
L 614.842777 211.622734 
L 614.931108 211.795452 
L 615.019439 211.636965 
L 615.196101 210.271039 
L 615.461094 205.484302 
L 615.814418 194.118378 
L 616.432736 164.45765 
L 617.227715 127.597401 
L 617.581039 118.634067 
L 617.846032 116.032435 
L 617.934363 115.944498 
L 618.111025 116.863581 
L 618.376018 120.679285 
L 618.817673 131.836293 
L 620.495962 180.752679 
L 621.025949 189.137902 
L 621.467604 193.039101 
L 621.820928 194.418902 
L 621.99759 194.609477 
L 622.174252 194.507443 
L 622.439245 193.870594 
L 622.792569 192.267424 
L 623.322555 188.669041 
L 624.294196 180.081222 
L 626.237479 162.632375 
L 627.20912 155.821824 
L 628.004099 151.642372 
L 628.710747 149.046109 
L 629.240733 147.792053 
L 629.682388 147.201055 
L 630.035712 147.027803 
L 630.389037 147.123472 
L 630.742361 147.489778 
L 631.184016 148.327356 
L 631.714002 149.878113 
L 632.332319 152.40259 
L 633.127298 156.682224 
L 634.098939 163.290144 
L 635.423905 174.058885 
L 637.013863 186.73131 
L 637.63218 190.183281 
L 638.073835 191.589858 
L 638.338828 191.862748 
L 638.51549 191.760922 
L 638.780483 191.124909 
L 639.045476 189.839752 
L 639.3988 186.989359 
L 639.840456 181.400116 
L 640.370442 171.555846 
L 641.07709 153.74993 
L 642.225393 124.183675 
L 642.578717 119.839046 
L 642.755379 119.353894 
L 642.84371 119.603455 
L 643.020372 121.163308 
L 643.285365 126.286387 
L 643.638689 138.233389 
L 644.257007 169.305637 
L 645.051986 207.36134 
L 645.40531 215.785165 
L 645.581972 217.296965 
L 645.670303 217.373628 
L 645.846965 216.227559 
L 646.111958 211.579792 
L 646.553613 198.026527 
L 648.05524 145.674165 
L 648.585226 136.162026 
L 648.938551 132.961667 
L 649.203544 131.996376 
L 649.380206 131.948039 
L 649.556868 132.318767 
L 649.821861 133.55479 
L 650.263516 137.045502 
L 650.970164 144.954764 
L 653.26677 172.226328 
L 654.06175 178.823093 
L 654.768398 182.936563 
L 655.298384 184.919194 
L 655.740039 185.86852 
L 656.093363 186.185369 
L 656.358356 186.173797 
L 656.623349 185.95483 
L 656.976673 185.349316 
L 657.418328 184.10538 
L 657.948314 181.932081 
L 658.654963 177.974745 
L 659.538273 171.599645 
L 660.863238 160.10391 
L 662.629858 144.978095 
L 663.248176 141.254716 
L 663.689831 139.618687 
L 663.954824 139.167816 
L 664.131486 139.125104 
L 664.308148 139.310231 
L 664.573141 140.056362 
L 664.926465 142.023717 
L 665.36812 146.238407 
L 665.898106 154.115477 
L 666.516423 167.143401 
L 668.283044 208.505618 
L 668.548037 210.328511 
L 668.636368 210.367238 
L 668.81303 209.483073 
L 669.078023 205.552603 
L 669.431347 195.229941 
L 669.961333 170.333719 
L 671.021305 117.960923 
L 671.374629 111.348646 
L 671.46296 110.999305 
L 671.551291 111.177351 
L 671.727953 113.068359 
L 671.992946 119.393821 
L 672.434602 136.804365 
L 673.671236 190.142519 
L 674.112891 200.308185 
L 674.466215 204.139009 
L 674.642877 204.767353 
L 674.731208 204.793532 
L 674.90787 204.323527 
L 675.172863 202.478106 
L 675.614518 197.081364 
L 676.409497 183.428679 
L 677.822794 159.272386 
L 678.529442 150.566772 
L 679.147759 145.318637 
L 679.677745 142.574051 
L 680.031069 141.604646 
L 680.296062 141.30517 
L 680.561055 141.352758 
L 680.826048 141.72797 
L 681.179372 142.702128 
L 681.621027 144.610412 
L 682.239345 148.39612 
L 683.034324 154.790989 
L 684.270958 166.866046 
L 686.037578 183.877683 
L 686.744227 188.764805 
L 687.274213 191.027025 
L 687.627537 191.667819 
L 687.804199 191.68707 
L 687.980861 191.487591 
L 688.245854 190.749749 
L 688.599178 188.882894 
L 689.040833 185.010737 
L 689.570819 177.964779 
L 690.189136 166.48848 
L 691.33744 139.488707 
L 691.955757 127.153356 
L 692.309081 123.260494 
L 692.485743 122.624965 
L 692.574074 122.694414 
L 692.750736 123.684029 
L 693.015729 127.479894 
L 693.369053 137.131232 
L 693.810708 156.107388 
L 695.135673 218.511315 
L 695.400666 221.581542 
L 695.488997 221.419139 
L 695.665659 219.296649 
L 695.930653 211.875846 
L 696.372308 190.780838 
L 697.520611 130.931924 
L 697.873935 121.908309 
L 698.138928 119.029651 
L 698.227259 118.762321 
L 698.31559 118.815528 
L 698.492252 119.809589 
L 698.757245 123.215535 
L 699.1989 132.592824 
L 701.318845 184.163169 
L 701.848831 190.681505 
L 702.290486 193.686122 
L 702.555479 194.516109 
L 702.732141 194.69656 
L 702.908803 194.598275 
L 703.173796 193.965984 
L 703.52712 192.309779 
L 704.057106 188.367936 
L 704.763754 181.111946 
L 706.177051 163.4976 
L 707.413685 149.14177 
L 708.120333 143.056281 
L 708.650319 140.052456 
L 709.003643 138.94668 
L 709.268636 138.642145 
L 709.445298 138.705632 
L 709.710291 139.221022 
L 710.063616 140.73002 
L 710.505271 143.997931 
L 711.035257 149.989041 
L 711.653574 159.696867 
L 712.625215 179.261533 
L 713.685187 199.714782 
L 714.126842 204.454589 
L 714.391835 205.27086 
L 714.480167 205.129159 
L 714.656829 204.155038 
L 714.921822 200.819458 
L 715.275146 192.602602 
L 715.716801 176.35363 
L 717.306759 110.109705 
L 717.483421 109.458882 
L 717.660083 111.322143 
L 717.925076 118.858861 
L 718.2784 136.663665 
L 719.603366 214.275929 
L 719.868359 219.361353 
L 720.045021 219.951426 
L 720.221683 218.462301 
L 720.486676 212.869647 
L 720.928331 197.219901 
L 722.341627 142.320843 
L 722.783282 133.090535 
L 723.136606 129.205083 
L 723.401599 128.162685 
L 723.48993 128.139422 
L 723.666592 128.537551 
L 723.931586 130.136437 
L 724.28491 133.826305 
L 724.903227 143.290312 
L 727.464826 186.581652 
L 727.994812 191.446008 
L 728.436467 193.779046 
L 728.701461 194.387533 
L 728.878123 194.456541 
L 729.054785 194.254563 
L 729.319778 193.444032 
L 729.673102 191.42739 
L 730.114757 187.456721 
L 730.733074 179.434472 
L 731.528053 165.810937 
L 733.294674 134.237516 
L 733.736329 129.961615 
L 734.001322 128.898096 
L 734.089653 128.840694 
L 734.266315 129.216177 
L 734.531308 131.106268 
L 734.884632 136.330216 
L 735.326287 147.4187 
L 735.944604 170.462092 
L 737.004576 212.378041 
L 737.3579 218.329638 
L 737.446231 218.611072 
L 737.534562 218.344669 
L 737.711224 216.079579 
L 737.976218 208.208507 
L 738.329542 189.895493 
L 739.654507 107.888198 
L 739.831169 105.01381 
L 739.9195 104.760673 
L 740.007831 105.293527 
L 740.184493 108.62786 
L 740.449486 118.661862 
L 740.979472 150.283116 
L 741.774451 196.903706 
L 742.216106 210.776254 
L 742.481099 213.966536 
L 742.569431 214.224013 
L 742.657762 214.106348 
L 742.834424 212.827844 
L 743.099417 208.646319 
L 743.541072 197.270205 
L 745.484354 140.274376 
L 745.926009 133.852884 
L 746.279333 131.152898 
L 746.544326 130.509231 
L 746.632657 130.546967 
L 746.809319 130.984798 
L 747.074312 132.500092 
L 747.427637 135.972655 
L 747.957623 143.764829 
L 748.752602 159.326926 
L 750.34256 191.025546 
L 750.872546 197.612292 
L 751.22587 199.947609 
L 751.402532 200.390502 
L 751.490863 200.416871 
L 751.667525 200.0622 
L 751.932519 198.468821 
L 752.285843 194.28269 
L 752.727498 185.720024 
L 753.345815 168.202164 
L 754.847442 121.37043 
L 755.112435 118.06363 
L 755.289097 117.643235 
L 755.465759 118.864691 
L 755.730752 124.060804 
L 756.084076 137.46537 
L 756.614063 169.112015 
L 757.409042 218.225268 
L 757.674035 226.074296 
L 757.850697 227.188501 
L 758.027359 224.675477 
L 758.292352 214.184545 
L 758.734007 182.493413 
L 759.617317 114.934499 
L 759.88231 105.974852 
L 760.058972 104.210796 
L 760.147303 104.57018 
L 760.323965 107.604522 
L 760.588958 117.143254 
L 761.118944 147.283165 
L 762.002255 196.261986 
L 762.44391 209.12444 
L 762.708903 212.219231 
L 762.797234 212.515981 
L 762.885565 212.465919 
L 763.062227 211.387485 
L 763.32722 207.589918 
L 763.768875 196.758281 
L 764.652185 167.133724 
L 765.535495 140.631955 
L 766.065482 130.868321 
L 766.418806 127.700825 
L 766.595468 127.176063 
L 766.683799 127.179986 
L 766.860461 127.716552 
L 767.125454 129.81583 
L 767.478778 134.89895 
L 768.008764 146.751872 
L 768.892074 173.465605 
L 769.775384 198.747346 
L 770.217039 206.32029 
L 770.482032 208.153053 
L 770.570363 208.231428 
L 770.658695 208.024572 
L 770.835357 206.718095 
L 771.10035 202.428713 
L 771.453674 192.299271 
L 771.98366 168.777865 
L 773.131963 113.515339 
L 773.396956 109.156932 
L 773.485287 109.052512 
L 773.661949 111.101658 
L 773.926942 120.082822 
L 774.280266 142.451165 
L 775.42857 229.622813 
L 775.605232 232.59903 
L 775.693563 232.24906 
L 775.870225 227.836079 
L 776.135218 212.650082 
L 776.665204 163.054025 
L 777.283521 111.924072 
L 777.548514 102.588577 
L 777.725176 101.53341 
L 777.901838 104.409318 
L 778.166831 115.029842 
L 778.696817 150.187387 
L 779.491796 201.306198 
L 779.84512 213.359842 
L 780.110114 216.841254 
L 780.198445 216.964962 
L 780.375107 215.751705 
L 780.6401 210.632111 
L 781.081755 195.276049 
L 782.760044 126.44669 
L 783.113368 121.23268 
L 783.29003 120.602649 
L 783.378361 120.794408 
L 783.555023 122.187406 
L 783.820016 126.729094 
L 784.17334 136.953643 
L 784.791658 163.167201 
L 785.763299 205.394817 
L 786.116623 213.406722 
L 786.293285 214.782224 
L 786.381616 214.719983 
L 786.558278 213.003077 
L 786.823271 206.312637 
L 787.176595 189.971079 
L 787.794912 147.485176 
L 788.413229 110.047417 
L 788.678222 104.226241 
L 788.766553 104.327402 
L 788.943215 107.915667 
L 789.208208 121.872485 
L 789.649864 163.687428 
L 790.356512 230.727407 
L 790.533174 236.607338 
L 790.621505 237.003693 
L 790.709836 235.626957 
L 790.886498 227.617189 
L 791.239822 193.7993 
L 792.034801 103.274237 
L 792.299794 93.413956 
L 792.388125 93.598793 
L 792.564787 99.012231 
L 792.82978 117.939535 
L 794.066414 227.376537 
L 794.243077 229.273619 
L 794.331408 228.421861 
L 794.50807 223.370507 
L 794.861394 202.320197 
L 796.098028 113.017798 
L 796.363021 108.784353 
L 796.451352 109.162895 
L 796.628014 112.558382 
L 796.893007 123.730706 
L 797.334662 154.334827 
L 798.129641 212.375851 
L 798.394634 221.574993 
L 798.571296 222.865992 
L 798.747958 219.899011 
L 799.012952 207.47038 
L 799.454607 169.506363 
L 800.161255 105.729791 
L 800.426248 98.719827 
L 800.514579 99.867271 
L 800.691241 107.811519 
L 800.956234 133.146574 
L 801.927875 244.378009 
L 802.016206 243.415367 
L 802.192868 231.933269 
L 802.457861 193.252584 
L 803.164509 77.956003 
L 803.25284 76.019744 
L 803.341171 78.618318 
L 803.517834 97.200095 
L 803.871158 173.260993 
L 804.312813 257.025828 
L 804.401144 261.464071 
L 804.489475 260.269701 
L 804.666137 241.046099 
L 805.019461 154.428419 
L 805.372785 74.059932 
L 805.549447 64.279224 
L 805.726109 82.256113 
L 805.991102 152.220189 
L 806.432757 269.714795 
L 806.521088 274.535512 
L 806.609419 269.545663 
L 806.786081 229.537746 
L 807.316067 42.20591 
L 807.404398 49.834584 
L 807.58106 128.39605 
L 807.934384 300.24358 
L 808.111046 193.882208 
L 808.37604 42.001851 
L 808.729364 257.512023 
L 808.994357 103.319689 
L 809.082688 113.028734 
L 809.347681 205.414953 
L 809.612674 140.982176 
L 809.701005 145.415125 
L 809.965998 180.443608 
L 810.230991 155.892428 
L 810.319322 158.600027 
L 810.584315 170.854618 
L 810.849308 161.79261 
L 811.114301 167.535821 
L 811.114301 167.535821 
" clip-path="url(#pfc7e650cea)" style="fill: none; stroke: #1f77b4; stroke-width: 0.6; stroke-linecap: square"/>
   </g>
   <g id="line2d_28">
    <path d="M 88.301574 135.832335 
L 89.538208 208.784613 
L 89.71487 210.680483 
L 89.803201 210.332744 
L 89.979863 207.102643 
L 90.244856 196.570502 
L 90.774842 163.124727 
L 91.304829 132.603857 
L 91.569822 125.018448 
L 91.746484 123.81778 
L 91.834815 124.41096 
L 92.011477 127.892826 
L 92.364801 142.650261 
L 93.513104 201.209933 
L 93.689766 203.477167 
L 93.778097 203.542823 
L 93.954759 201.561479 
L 94.219752 193.756647 
L 94.661407 171.791269 
L 95.368055 136.643111 
L 95.633048 130.471126 
L 95.80971 129.535973 
L 95.986373 131.222601 
L 96.251366 138.300613 
L 96.693021 158.775649 
L 97.399669 192.567636 
L 97.664662 198.849917 
L 97.841324 200.043364 
L 97.929655 199.699936 
L 98.106317 197.176726 
L 98.37131 189.259016 
L 98.901296 164.169937 
L 99.519613 137.657728 
L 99.784606 132.648897 
L 99.872937 132.121551 
L 99.961268 132.184485 
L 100.13793 134.054194 
L 100.402923 140.855133 
L 100.844579 159.682849 
L 101.551227 190.419761 
L 101.904551 197.300946 
L 101.992882 197.699355 
L 102.081213 197.546376 
L 102.257875 195.615452 
L 102.522868 189.000356 
L 102.964523 170.978233 
L 103.759502 138.895859 
L 104.024495 134.349962 
L 104.201157 133.855393 
L 104.377819 135.430604 
L 104.642812 141.382869 
L 105.084467 158.305345 
L 105.879447 190.217725 
L 106.232771 196.312779 
L 106.321102 196.649798 
L 106.409433 196.493752 
L 106.586095 194.727782 
L 106.851088 188.733897 
L 107.292743 172.27522 
L 108.087722 141.301113 
L 108.441046 134.982383 
L 108.617708 134.495044 
L 108.79437 135.848292 
L 109.059363 141.102002 
L 109.501018 156.406423 
L 110.47266 192.215106 
L 110.737653 196.240217 
L 110.914315 196.775175 
L 111.090977 195.549385 
L 111.35597 190.598285 
L 111.797625 175.859731 
L 112.857597 137.367163 
L 113.12259 133.601735 
L 113.299252 133.158777 
L 113.475914 134.402278 
L 113.740907 139.252316 
L 114.182562 153.651162 
L 115.330866 195.187527 
L 115.595859 198.922107 
L 115.772521 199.440579 
L 115.949183 198.344863 
L 116.214176 193.810038 
L 116.5675 183.188273 
L 118.069127 130.204979 
L 118.33412 128.023121 
L 118.422451 128.076573 
L 118.599113 129.358601 
L 118.864106 134.092924 
L 119.305761 148.248578 
L 120.807389 204.744028 
L 121.072382 208.03162 
L 121.249044 208.39082 
L 121.425706 207.267272 
L 121.690699 202.909245 
L 122.044023 192.697769 
L 122.66234 166.822525 
L 123.633981 126.415548 
L 124.075636 116.067242 
L 124.34063 113.489943 
L 124.428961 113.272001 
L 124.517292 113.375748 
L 124.693954 114.536735 
L 124.958947 118.568835 
L 125.312271 127.782992 
L 125.930588 151.65754 
L 127.432215 213.846268 
L 127.87387 224.177699 
L 128.227194 228.178702 
L 128.403856 228.678361 
L 128.492187 228.551045 
L 128.668849 227.550405 
L 128.933843 224.23735 
L 129.287167 216.678137 
L 129.817153 199.740843 
L 130.877125 155.693595 
L 131.672104 126.616847 
L 132.113759 116.309551 
L 132.467083 112.173403 
L 132.643745 111.592582 
L 132.732076 111.680277 
L 132.908738 112.606744 
L 133.173731 115.820531 
L 133.527056 123.230028 
L 134.057042 139.621946 
L 135.735331 196.373262 
L 136.176986 202.965913 
L 136.441979 204.132258 
L 136.53031 204.042487 
L 136.706972 203.154625 
L 136.971965 200.123641 
L 137.325289 193.254159 
L 137.943606 175.781101 
L 139.003579 144.887686 
L 139.445234 137.429445 
L 139.710227 135.390494 
L 139.886889 135.108343 
L 140.063551 135.678335 
L 140.328544 138.046096 
L 140.681868 143.664801 
L 141.300185 157.974806 
L 142.360157 182.418248 
L 142.801812 188.071558 
L 143.066806 189.547725 
L 143.243468 189.694238 
L 143.42013 189.178028 
L 143.685123 187.218753 
L 144.038447 182.639597 
L 144.656764 170.827659 
L 145.716736 149.780506 
L 146.158391 144.776638 
L 146.423384 143.517823 
L 146.600046 143.461226 
L 146.776708 144.030049 
L 147.041701 146.003842 
L 147.395025 150.476619 
L 148.013343 161.665643 
L 148.984984 179.194571 
L 149.426639 183.811192 
L 149.691632 185.062056 
L 149.868294 185.226902 
L 150.044956 184.861697 
L 150.309949 183.366778 
L 150.663273 179.80398 
L 151.28159 170.520932 
L 152.518225 151.331755 
L 152.95988 147.770405 
L 153.224873 146.965203 
L 153.401535 147.015088 
L 153.578197 147.531288 
L 153.84319 149.141536 
L 154.284845 153.768907 
L 154.991493 164.350012 
L 155.963134 178.264158 
L 156.404789 181.94868 
L 156.669782 183.013046 
L 156.846444 183.216451 
L 157.023107 183.015033 
L 157.2881 181.9776 
L 157.641424 179.334645 
L 158.17141 173.217898 
L 160.026361 149.355467 
L 160.379685 147.581932 
L 160.556347 147.265144 
L 160.733009 147.341659 
L 160.909671 147.810066 
L 161.174664 149.221576 
L 161.61632 153.255578 
L 162.322968 162.654432 
L 163.471271 177.946452 
L 164.001257 182.150488 
L 164.354581 183.490511 
L 164.531243 183.706301 
L 164.707905 183.624025 
L 164.972898 182.960962 
L 165.326222 181.135938 
L 165.767877 177.524097 
L 166.386195 170.53425 
L 168.417808 145.5319 
L 168.859463 143.070505 
L 169.124456 142.538721 
L 169.301118 142.600962 
L 169.47778 142.998589 
L 169.742773 144.210225 
L 170.096097 146.898204 
L 170.626083 152.841027 
L 171.597725 167.053014 
L 172.834359 184.447063 
L 173.629338 192.52228 
L 174.247655 196.656742 
L 174.68931 198.411875 
L 175.042634 199.096786 
L 175.307627 199.200818 
L 175.57262 198.968826 
L 175.925945 198.174226 
L 176.3676 196.502709 
L 177.074248 192.697666 
L 179.370854 179.27938 
L 182.109116 166.072652 
L 183.080757 159.113317 
L 185.02404 144.768614 
L 185.730688 141.235133 
L 186.260674 139.496997 
L 186.702329 138.67173 
L 187.055653 138.431231 
L 187.320646 138.505872 
L 187.585639 138.809996 
L 187.938963 139.593158 
L 188.380618 141.218591 
L 188.910604 144.161397 
L 189.528921 148.910552 
L 190.500563 158.402778 
L 191.825528 171.16658 
L 192.532176 175.920139 
L 193.062162 178.20985 
L 193.503817 179.333855 
L 193.857141 179.786893 
L 194.210465 179.899361 
L 194.56379 179.713128 
L 194.917114 179.253974 
L 195.358769 178.308272 
L 195.888755 176.614432 
L 196.507072 173.846401 
L 197.302051 169.187324 
L 199.157003 157.736975 
L 199.77532 155.33668 
L 200.216975 154.303762 
L 200.570299 153.879483 
L 200.923623 153.78463 
L 201.276947 153.984502 
L 201.718602 154.594819 
L 202.248588 155.77913 
L 202.955236 158.010379 
L 203.838547 161.660187 
L 206.400146 172.899763 
L 207.018463 174.505075 
L 207.548449 175.384943 
L 208.078435 175.843357 
L 208.520091 175.93137 
L 208.961746 175.761942 
L 209.403401 175.326361 
L 209.933387 174.422718 
L 210.551704 172.803816 
L 211.258352 170.239397 
L 212.583317 164.28951 
L 213.64329 159.996451 
L 214.438269 157.659546 
L 215.321579 155.80611 
L 217.529854 152.005946 
L 218.148172 151.314559 
L 218.589827 151.130477 
L 218.943151 151.215042 
L 219.296475 151.519192 
L 219.73813 152.197911 
L 220.356447 153.613066 
L 221.681412 157.453005 
L 222.653054 159.935863 
L 223.448033 161.430893 
L 224.243012 162.46879 
L 224.861329 162.95096 
L 225.302984 163.045408 
L 225.656308 162.896007 
L 226.009632 162.468871 
L 226.362956 161.677965 
L 226.804611 160.037498 
L 227.246267 157.517529 
L 227.776253 153.179488 
L 228.482901 145.246987 
L 230.426183 121.781708 
L 230.867838 119.279541 
L 231.132831 118.597525 
L 231.309493 118.479891 
L 231.486155 118.618575 
L 231.751148 119.268106 
L 232.104473 120.837139 
L 232.72279 124.914346 
L 234.842734 140.106911 
L 235.637713 143.880431 
L 236.344361 146.215398 
L 236.962679 147.560162 
L 237.580996 148.366422 
L 238.199313 148.78543 
L 240.319257 149.826033 
L 240.937574 150.583621 
L 241.820885 152.078854 
L 243.410843 154.840803 
L 244.117491 155.612819 
L 244.824139 156.044654 
L 247.032415 157.027664 
L 247.739063 157.755823 
L 248.887366 159.333453 
L 250.212331 161.085605 
L 251.183973 162.015553 
L 255.600524 165.447761 
L 256.748827 166.033538 
L 258.338785 166.808997 
L 259.222095 167.511676 
L 261.872026 169.850051 
L 262.578674 170.032565 
L 263.373653 169.973676 
L 264.875281 169.778423 
L 265.493598 169.953602 
L 266.111915 170.360067 
L 266.995225 171.263039 
L 268.408521 172.73183 
L 269.026838 173.028274 
L 269.468494 173.018465 
L 269.910149 172.795192 
L 270.440135 172.224771 
L 270.970121 171.309677 
L 271.588438 169.779823 
L 272.206755 167.679211 
L 272.825072 164.841961 
L 273.443389 160.985357 
L 274.061707 155.749812 
L 274.768355 147.749573 
L 276.711637 123.479302 
L 276.97663 122.488198 
L 277.064961 122.424453 
L 277.241623 122.734091 
L 277.506616 124.352234 
L 277.85994 128.710914 
L 278.301595 137.393643 
L 279.096575 158.558855 
L 280.068216 182.717932 
L 280.598202 191.09625 
L 281.039857 195.042291 
L 281.393181 196.456817 
L 281.658174 196.690182 
L 281.834836 196.526312 
L 282.099829 195.898884 
L 282.541484 194.130049 
L 283.513126 188.923965 
L 284.661429 183.170727 
L 285.544739 179.759692 
L 286.51638 176.890822 
L 287.576352 174.445422 
L 289.07798 171.569421 
L 291.374586 167.642582 
L 292.522889 166.075175 
L 293.494531 165.11999 
L 294.466172 164.492493 
L 295.791137 163.951457 
L 297.469427 163.235005 
L 299.059385 162.253486 
L 301.26766 160.920103 
L 304.535908 159.12029 
L 307.362501 157.224682 
L 308.245811 156.964283 
L 309.129121 156.934593 
L 313.987327 157.44712 
L 314.517313 157.912432 
L 315.047299 158.722545 
L 315.577285 159.960825 
L 316.195603 162.033052 
L 316.902251 165.310775 
L 317.69723 170.221266 
L 318.58054 177.220813 
L 319.817174 189.190521 
L 320.700484 196.955426 
L 321.053809 198.722091 
L 321.318802 199.11526 
L 321.495464 198.810364 
L 321.760457 197.345457 
L 322.113781 193.245163 
L 322.555436 184.405751 
L 323.173753 166.019079 
L 324.322056 129.85561 
L 324.763711 122.524011 
L 325.028704 120.921465 
L 325.117035 120.859654 
L 325.293697 121.4142 
L 325.558691 123.802009 
L 326.000346 131.066233 
L 327.060318 155.019023 
L 327.855297 169.844557 
L 328.473614 177.349473 
L 329.0036 181.287828 
L 329.445255 183.225586 
L 329.88691 184.268763 
L 330.240235 184.62654 
L 330.593559 184.664372 
L 330.946883 184.451175 
L 331.388538 183.904798 
L 332.006855 182.72912 
L 332.801834 180.689036 
L 334.126799 176.528961 
L 336.335075 169.598163 
L 337.66004 166.203789 
L 338.808343 163.843884 
L 339.868316 162.162869 
L 340.839957 161.020834 
L 341.98826 160.034792 
L 343.843211 158.790106 
L 345.168177 158.118765 
L 346.051487 157.929437 
L 346.758135 157.990251 
L 347.553114 158.284903 
L 348.613086 158.953065 
L 350.468038 160.440571 
L 351.616341 161.607482 
L 352.499651 162.84175 
L 353.382961 164.495299 
L 354.354603 166.815496 
L 355.679568 170.626212 
L 359.389471 181.746543 
L 360.007788 182.817932 
L 360.449443 183.188692 
L 360.802767 183.180991 
L 361.06776 182.965236 
L 361.421084 182.353707 
L 361.862739 180.981203 
L 362.304394 178.800204 
L 362.83438 174.878986 
L 363.364367 169.239183 
L 363.982684 160.184242 
L 364.865994 143.317559 
L 365.749304 127.571676 
L 366.102628 124.363229 
L 366.27929 123.892856 
L 366.367621 123.9849 
L 366.544283 124.870078 
L 366.809276 128.031456 
L 367.1626 135.645219 
L 367.692586 153.007216 
L 368.929221 196.368144 
L 369.370876 204.267311 
L 369.635869 206.257102 
L 369.812531 206.505157 
L 369.989193 205.975864 
L 370.254186 203.931962 
L 370.695841 198.075717 
L 372.992448 162.512522 
L 373.699096 156.359935 
L 374.317413 152.754977 
L 374.847399 150.740692 
L 375.377385 149.561839 
L 375.81904 149.131038 
L 376.172364 149.101082 
L 376.525688 149.314368 
L 376.967343 149.869026 
L 377.585661 151.054688 
L 378.645633 153.700664 
L 381.03057 159.735652 
L 382.973853 163.932206 
L 384.828804 167.455659 
L 386.595425 170.33971 
L 387.92039 172.109965 
L 388.892031 173.071663 
L 389.775341 173.644107 
L 390.658651 173.948463 
L 391.630293 174.048996 
L 392.690265 173.930361 
L 393.485244 173.625443 
L 394.191892 173.102668 
L 394.89854 172.254546 
L 395.605188 171.024375 
L 396.400168 169.176297 
L 397.371809 166.338742 
L 398.696774 161.701634 
L 400.11007 155.940339 
L 402.583339 145.596177 
L 403.113325 144.296981 
L 403.466649 143.881172 
L 403.731642 143.877887 
L 403.996635 144.195801 
L 404.261628 144.893621 
L 404.614952 146.529707 
L 405.056607 149.951902 
L 405.498263 155.216655 
L 406.028249 164.289279 
L 406.734897 180.639095 
L 407.794869 205.206612 
L 408.148193 209.260936 
L 408.324855 209.876251 
L 408.413186 209.786915 
L 408.589848 208.776883 
L 408.854841 205.154968 
L 409.208165 196.63169 
L 409.826482 174.595497 
L 410.798124 140.13033 
L 411.239779 130.986572 
L 411.593103 127.502684 
L 411.769765 126.947335 
L 411.858096 126.936686 
L 412.034758 127.39705 
L 412.299751 129.121266 
L 412.741406 133.985746 
L 413.889709 150.682233 
L 414.861351 162.952215 
L 415.65633 170.298731 
L 416.362978 174.885984 
L 416.981295 177.562832 
L 417.511281 178.982595 
L 417.952936 179.63256 
L 418.30626 179.856007 
L 418.659584 179.859587 
L 419.101239 179.617124 
L 419.719557 178.94988 
L 420.691198 177.478685 
L 422.281156 174.610783 
L 423.782783 171.426097 
L 428.64099 160.552384 
L 429.965955 158.315491 
L 431.114258 156.787049 
L 432.17423 155.711707 
L 433.05754 155.087091 
L 433.764189 154.832549 
L 434.382506 154.857989 
L 434.912492 155.111422 
L 435.442478 155.610366 
L 436.060795 156.523205 
L 436.767443 157.998593 
L 437.650753 160.44107 
L 438.622395 163.846711 
L 439.594036 168.085414 
L 440.654008 173.832174 
L 443.480601 190.199458 
L 443.833925 190.957882 
L 444.010587 191.055791 
L 444.187249 190.928295 
L 444.452242 190.245617 
L 444.717235 188.87266 
L 445.070559 185.768719 
L 445.512214 179.501226 
L 446.0422 168.179834 
L 446.837179 145.224683 
L 447.632159 124.284123 
L 447.985483 119.676425 
L 448.162145 119.03213 
L 448.250476 119.164112 
L 448.427138 120.358066 
L 448.692131 124.436707 
L 449.045455 133.68495 
L 449.752103 159.91837 
L 450.547082 187.369539 
L 450.988737 196.756633 
L 451.342061 200.686493 
L 451.607054 201.738071 
L 451.695385 201.771633 
L 451.872047 201.421848 
L 452.137041 200.007638 
L 452.578696 195.933608 
L 453.462006 184.910469 
L 454.69864 170.199522 
L 455.58195 162.326795 
L 456.288598 157.793997 
L 456.906916 155.032887 
L 457.525233 153.249515 
L 458.055219 152.355593 
L 458.585205 151.912266 
L 459.02686 151.803349 
L 459.556846 151.907956 
L 460.175163 152.284819 
L 460.881811 153.007319 
L 461.676791 154.185028 
L 462.560101 155.931254 
L 463.796735 158.954727 
L 468.654941 171.391313 
L 470.156568 174.519535 
L 471.216541 176.284477 
L 472.01152 177.252045 
L 472.629837 177.711029 
L 473.159823 177.848458 
L 473.601478 177.756401 
L 474.043133 177.461668 
L 474.573119 176.830158 
L 475.191436 175.705095 
L 475.898085 173.898007 
L 476.604733 171.489416 
L 477.399712 167.926651 
L 478.194691 163.274027 
L 479.078001 156.739185 
L 481.55127 137.299864 
L 481.904594 136.281613 
L 482.081256 136.199198 
L 482.257918 136.460991 
L 482.522911 137.602658 
L 482.876235 140.768452 
L 483.229559 146.10611 
L 483.671214 156.065938 
L 484.377862 178.327018 
L 485.261173 205.94278 
L 485.614497 211.908806 
L 485.791159 213.098043 
L 485.87949 213.201403 
L 485.967821 212.97024 
L 486.144483 211.506158 
L 486.409476 206.912908 
L 486.851131 193.974472 
L 488.441089 139.780284 
L 488.882744 132.9588 
L 489.236068 130.700971 
L 489.41273 130.481065 
L 489.589393 130.772244 
L 489.854386 132.006841 
L 490.296041 135.618965 
L 491.09102 144.565716 
L 492.592647 161.374125 
L 493.475957 168.787575 
L 494.182605 173.111034 
L 494.889254 176.125497 
L 495.507571 177.87121 
L 496.125888 178.962044 
L 496.655874 179.479764 
L 497.097529 179.659772 
L 497.539184 179.629584 
L 497.980839 179.397605 
L 498.510825 178.861562 
L 499.129143 177.903197 
L 499.924122 176.224244 
L 501.072425 173.208913 
L 503.369031 166.396148 
L 506.72561 156.432578 
L 507.873913 153.734677 
L 508.668893 152.333988 
L 509.28721 151.614419 
L 509.817196 151.314261 
L 510.258851 151.316843 
L 510.700506 151.568201 
L 511.142161 152.083707 
L 511.672147 153.074971 
L 512.290464 154.799269 
L 512.908781 157.233537 
L 513.61543 161.059415 
L 514.322078 166.176123 
L 515.205388 174.411526 
L 517.413663 196.239692 
L 517.766988 197.514391 
L 517.94365 197.578058 
L 518.120312 197.17958 
L 518.385305 195.583925 
L 518.738629 191.30791 
L 519.180284 182.111209 
L 519.71027 165.673568 
L 521.035235 121.17684 
L 521.388559 116.837665 
L 521.47689 116.615341 
L 521.565221 116.751689 
L 521.741883 118.094184 
L 522.006876 122.649602 
L 522.448532 135.762645 
L 524.03849 190.453244 
L 524.480145 197.366014 
L 524.833469 199.750668 
L 525.010131 200.050246 
L 525.186793 199.846095 
L 525.451786 198.748084 
L 525.893441 195.348917 
L 526.600089 187.665438 
L 528.36671 167.837783 
L 529.25002 160.565193 
L 529.956668 156.338289 
L 530.663316 153.369741 
L 531.281633 151.635198 
L 531.81162 150.690265 
L 532.341606 150.190376 
L 532.783261 150.090548 
L 533.224916 150.263475 
L 533.666571 150.692871 
L 534.196557 151.515042 
L 534.903205 153.046923 
L 535.874846 155.733139 
L 537.288143 160.336655 
L 539.319756 167.777623 
L 541.439701 175.366064 
L 542.588004 178.672784 
L 543.382983 180.327522 
L 544.0013 181.110324 
L 544.442955 181.341577 
L 544.796279 181.305215 
L 545.149603 181.054867 
L 545.591258 180.415231 
L 546.032914 179.376358 
L 546.5629 177.534038 
L 547.181217 174.43148 
L 547.799534 170.136199 
L 548.506182 163.622488 
L 549.389492 153.279297 
L 550.979451 134.203597 
L 551.421106 131.508168 
L 551.597768 131.151795 
L 551.686099 131.163283 
L 551.862761 131.610229 
L 552.127754 133.469275 
L 552.481078 138.475218 
L 552.922733 149.137516 
L 553.54105 171.228763 
L 554.512691 207.174191 
L 554.866015 213.908093 
L 555.042677 215.139983 
L 555.131009 215.183896 
L 555.307671 214.124328 
L 555.572664 209.79527 
L 555.925988 199.700985 
L 556.809298 164.776855 
L 557.427615 144.228696 
L 557.86927 135.097833 
L 558.222594 131.254639 
L 558.487587 130.149051 
L 558.664249 130.133013 
L 558.840911 130.609643 
L 559.105904 132.092989 
L 559.547559 136.072415 
L 560.43087 146.818362 
L 561.844166 163.767291 
L 562.727476 171.665744 
L 563.434124 176.214857 
L 564.140772 179.349464 
L 564.75909 181.092218 
L 565.289076 181.932383 
L 565.730731 182.21071 
L 566.084055 182.175108 
L 566.437379 181.924286 
L 566.879034 181.331844 
L 567.497351 180.047207 
L 568.29233 177.778946 
L 569.352303 174.015625 
L 570.85393 167.773139 
L 574.29884 152.983647 
L 575.18215 150.197143 
L 575.888798 148.645342 
L 576.418784 148.004627 
L 576.772108 147.873499 
L 577.125432 148.007776 
L 577.478756 148.4321 
L 577.920411 149.410165 
L 578.362066 150.938871 
L 578.892053 153.5919 
L 579.51037 157.966438 
L 580.217018 164.82513 
L 581.100328 176.046412 
L 582.778617 198.260511 
L 583.131941 200.582633 
L 583.308604 201.040983 
L 583.396935 201.060419 
L 583.573597 200.63099 
L 583.83859 198.677111 
L 584.191914 193.302561 
L 584.633569 181.81347 
L 585.251886 158.212846 
L 586.223527 121.354976 
L 586.576851 115.343682 
L 586.753513 114.695287 
L 586.841844 114.989818 
L 587.018506 116.80036 
L 587.283499 122.370534 
L 587.725154 137.610016 
L 589.138451 191.605048 
L 589.580106 199.652855 
L 589.93343 202.371478 
L 590.110092 202.658837 
L 590.286754 202.336359 
L 590.551747 200.88898 
L 590.993402 196.558774 
L 591.788381 185.604 
L 593.290009 164.941761 
L 594.084988 156.991021 
L 594.791636 152.012909 
L 595.409953 149.123376 
L 595.939939 147.602032 
L 596.381594 146.934818 
L 596.734918 146.760528 
L 597.088242 146.882287 
L 597.441567 147.278324 
L 597.883222 148.123391 
L 598.501539 149.869413 
L 599.296518 152.866751 
L 600.444821 158.187582 
L 602.388104 168.500868 
L 604.154724 177.457461 
L 605.126365 181.327562 
L 605.833013 183.317839 
L 606.362999 184.192832 
L 606.716324 184.420482 
L 606.981317 184.381073 
L 607.24631 184.14652 
L 607.599634 183.507529 
L 608.041289 182.141448 
L 608.571275 179.590897 
L 609.189592 175.228484 
L 609.89624 168.257127 
L 610.691219 157.941981 
L 612.634502 131.257258 
L 612.987826 129.391241 
L 613.164488 129.27264 
L 613.34115 129.803223 
L 613.606143 131.979975 
L 613.959467 137.776779 
L 614.401122 149.950847 
L 615.019439 174.573511 
L 615.902749 209.434988 
L 616.256074 216.234186 
L 616.432736 217.150876 
L 616.521067 216.943815 
L 616.697729 215.198574 
L 616.962722 209.42576 
L 617.404377 193.087911 
L 618.729342 137.234777 
L 619.170997 128.16088 
L 619.43599 125.725612 
L 619.612652 125.224585 
L 619.700983 125.276825 
L 619.877645 125.923929 
L 620.142638 128.056513 
L 620.584293 133.872819 
L 621.555935 150.938575 
L 622.615907 168.196819 
L 623.322555 176.625329 
L 623.940872 181.737824 
L 624.470858 184.570513 
L 624.912513 185.965516 
L 625.265837 186.520624 
L 625.530831 186.640435 
L 625.795824 186.526167 
L 626.149148 186.038908 
L 626.590803 184.945916 
L 627.20912 182.647552 
L 628.004099 178.684159 
L 629.240733 171.171516 
L 632.243988 152.447727 
L 633.127298 148.443994 
L 633.745615 146.469711 
L 634.275601 145.468208 
L 634.628925 145.218602 
L 634.893919 145.277794 
L 635.158912 145.565718 
L 635.512236 146.331242 
L 635.953891 147.946379 
L 636.483877 150.918683 
L 637.102194 155.89325 
L 637.808842 163.600849 
L 638.692152 175.911992 
L 640.19378 197.407557 
L 640.635435 200.810696 
L 640.900428 201.414659 
L 640.988759 201.319822 
L 641.165421 200.630245 
L 641.430414 198.217841 
L 641.783738 192.141258 
L 642.225393 179.715249 
L 642.84371 154.912207 
L 643.72702 120.061629 
L 644.080344 113.593602 
L 644.257007 113.000147 
L 644.433669 114.315584 
L 644.698662 119.811178 
L 645.051986 132.843573 
L 646.730275 205.194268 
L 647.083599 209.392654 
L 647.260261 209.72119 
L 647.436923 209.017621 
L 647.701916 206.326445 
L 648.143571 198.669377 
L 650.528509 150.658552 
L 651.058495 145.236296 
L 651.50015 142.428344 
L 651.853474 141.179391 
L 652.118467 140.759472 
L 652.38346 140.736016 
L 652.648453 141.069029 
L 653.001777 142.003049 
L 653.443432 143.844197 
L 654.06175 147.422445 
L 655.033391 154.617213 
L 658.124976 178.757217 
L 658.919956 183.079896 
L 659.538273 185.412973 
L 659.979928 186.429893 
L 660.333252 186.809532 
L 660.598245 186.821237 
L 660.863238 186.584276 
L 661.216562 185.858694 
L 661.658217 184.251865 
L 662.188203 181.235416 
L 662.80652 176.165314 
L 663.513169 168.387986 
L 664.48481 154.918649 
L 665.898106 135.160741 
L 666.339761 131.468189 
L 666.604754 130.481309 
L 666.781416 130.471313 
L 666.958078 131.05561 
L 667.223071 133.179434 
L 667.576396 138.602987 
L 668.018051 149.829013 
L 668.636368 172.868627 
L 669.608009 210.770413 
L 669.961333 217.365239 
L 670.137995 218.013252 
L 670.314657 216.678952 
L 670.57965 210.904593 
L 670.932974 196.849978 
L 672.522933 120.231172 
L 672.787926 116.627098 
L 672.964588 116.22622 
L 673.14125 117.277818 
L 673.406243 121.180444 
L 673.847898 132.131626 
L 675.614518 181.874459 
L 676.144504 189.987344 
L 676.586159 193.781746 
L 676.939483 195.093562 
L 677.116146 195.244218 
L 677.292808 195.093924 
L 677.557801 194.363105 
L 677.911125 192.581894 
L 678.441111 188.570051 
L 679.23609 180.621953 
L 681.886021 152.675339 
L 682.681 146.999289 
L 683.299317 144.043912 
L 683.740972 142.816248 
L 684.094296 142.401525 
L 684.359289 142.433893 
L 684.624282 142.767087 
L 684.977606 143.686036 
L 685.419261 145.604308 
L 685.949247 149.033149 
L 686.567565 154.545528 
L 687.362544 163.786269 
L 688.77584 183.607078 
L 689.65915 194.440285 
L 690.100805 197.812582 
L 690.365798 198.770768 
L 690.54246 198.859454 
L 690.719122 198.448115 
L 690.984115 196.786579 
L 691.33744 192.399722 
L 691.779095 183.131421 
L 692.309081 166.657652 
L 693.810708 115.863843 
L 694.075701 113.863643 
L 694.164032 114.116127 
L 694.340694 116.111547 
L 694.605687 122.908771 
L 694.959011 138.534199 
L 696.460639 216.942479 
L 696.725632 219.792828 
L 696.813963 219.674286 
L 696.990625 217.939226 
L 697.255618 212.039407 
L 697.697273 195.986811 
L 699.022238 143.750551 
L 699.463893 134.068487 
L 699.817217 129.874925 
L 700.08221 128.616684 
L 700.258872 128.576321 
L 700.435535 129.103848 
L 700.700528 130.821408 
L 701.142183 135.632188 
L 701.848831 146.428661 
L 703.703782 176.140637 
L 704.41043 184.067876 
L 705.028747 188.679789 
L 705.470403 190.573414 
L 705.823727 191.243969 
L 706.000389 191.300504 
L 706.177051 191.173495 
L 706.442044 190.643835 
L 706.795368 189.319742 
L 707.237023 186.714297 
L 707.85534 181.441378 
L 708.650319 172.353285 
L 710.063616 152.766322 
L 711.035257 140.476309 
L 711.565243 135.855911 
L 711.918567 134.12553 
L 712.18356 133.725436 
L 712.360222 133.949 
L 712.625215 135.100388 
L 712.978539 138.310503 
L 713.420194 145.253115 
L 713.95018 157.947671 
L 714.74516 183.700573 
L 715.540139 208.002834 
L 715.893463 213.617099 
L 716.070125 214.349932 
L 716.158456 214.10663 
L 716.335118 212.300224 
L 716.600111 206.114833 
L 716.953435 191.475428 
L 717.571752 153.633472 
L 718.190069 118.230178 
L 718.543393 108.194918 
L 718.720055 107.110668 
L 718.808386 107.589579 
L 718.985048 110.52172 
L 719.250042 119.359104 
L 719.780028 147.683338 
L 720.663338 195.173457 
L 721.104993 207.949628 
L 721.369986 211.214786 
L 721.546648 211.694446 
L 721.72331 210.960069 
L 721.988303 207.907372 
L 722.429958 198.93874 
L 723.401599 172.131261 
L 724.28491 150.615655 
L 724.903227 140.591885 
L 725.344882 136.339273 
L 725.698206 134.643921 
L 725.963199 134.313343 
L 726.139861 134.514515 
L 726.404854 135.407335 
L 726.758178 137.605289 
L 727.288164 142.74159 
L 727.994812 152.154977 
L 730.733074 191.876407 
L 731.174729 195.067361 
L 731.528053 196.302932 
L 731.704715 196.424734 
L 731.881377 196.190656 
L 732.14637 195.135967 
L 732.499694 192.346714 
L 732.941349 186.554412 
L 733.471336 176.292292 
L 734.266315 155.531061 
L 735.326287 127.550955 
L 735.679611 122.156364 
L 735.944604 120.707121 
L 736.032935 120.823635 
L 736.209597 122.059147 
L 736.47459 126.612722 
L 736.827914 137.960854 
L 737.3579 164.953859 
L 738.329542 217.882994 
L 738.594535 224.013956 
L 738.682866 224.662884 
L 738.771197 224.559958 
L 738.947859 222.049889 
L 739.212852 212.685721 
L 739.654507 185.213935 
L 740.626148 119.878154 
L 740.979472 109.912466 
L 741.156134 108.798827 
L 741.244465 109.166304 
L 741.421127 111.600487 
L 741.68612 118.891599 
L 742.216106 141.82415 
L 743.276079 188.622252 
L 743.717734 200.063933 
L 744.071058 204.83042 
L 744.336051 205.993228 
L 744.424382 205.958586 
L 744.601044 205.307787 
L 744.866037 203.020591 
L 745.307692 196.377575 
L 746.01434 181.112589 
L 747.604299 145.546773 
L 748.222616 136.790175 
L 748.664271 133.319913 
L 748.929264 132.45744 
L 749.105926 132.406466 
L 749.282588 132.778072 
L 749.547581 134.125247 
L 749.900905 137.364878 
L 750.34256 143.596693 
L 750.960877 155.789466 
L 753.169153 203.717398 
L 753.434146 205.498898 
L 753.610808 205.660978 
L 753.78747 204.907509 
L 754.052463 201.914734 
L 754.405787 194.232786 
L 754.847442 178.793902 
L 755.642421 140.355874 
L 756.260738 114.953415 
L 756.525731 110.111178 
L 756.614063 109.677125 
L 756.702394 109.898806 
L 756.879056 112.416372 
L 757.144049 121.525888 
L 757.497373 142.80943 
L 758.734007 227.022172 
L 758.910669 229.346644 
L 758.999 229.052073 
L 759.175662 225.607671 
L 759.440655 214.00203 
L 759.970641 176.002137 
L 760.677289 127.022492 
L 761.030613 114.069137 
L 761.295607 110.752664 
L 761.383938 110.812604 
L 761.5606 112.52528 
L 761.825593 118.548885 
L 762.267248 135.095856 
L 763.680544 193.489066 
L 764.122199 202.94995 
L 764.475523 206.257225 
L 764.652185 206.529023 
L 764.828847 205.931884 
L 765.09384 203.527561 
L 765.447164 197.857099 
L 765.977151 185.334397 
L 768.008764 131.949947 
L 768.362088 127.79666 
L 768.627081 126.540921 
L 768.715412 126.504562 
L 768.892074 127.028071 
L 769.157067 129.338035 
L 769.510391 135.275294 
L 769.952046 147.011707 
L 770.658695 173.104763 
L 771.542005 205.606508 
L 771.895329 212.954046 
L 772.071991 214.419716 
L 772.160322 214.501545 
L 772.336984 213.247799 
L 772.601977 207.587941 
L 772.955301 192.871616 
L 773.485287 158.5138 
L 774.191935 112.100684 
L 774.456928 103.545185 
L 774.63359 102.497553 
L 774.810252 105.645473 
L 775.075245 118.271398 
L 775.516901 156.02579 
L 776.223549 220.126086 
L 776.488542 231.379308 
L 776.665204 232.893652 
L 776.841866 229.571568 
L 777.106859 216.537011 
L 777.636845 172.814164 
L 778.255162 124.447937 
L 778.608486 110.193649 
L 778.785148 107.665142 
L 778.873479 107.524571 
L 779.050141 109.344376 
L 779.315134 116.679686 
L 779.756789 137.580458 
L 780.993424 200.849664 
L 781.346748 209.589745 
L 781.611741 212.154205 
L 781.700072 212.24742 
L 781.876734 211.327658 
L 782.141727 207.346111 
L 782.495051 197.828717 
L 783.113368 173.350888 
L 784.17334 130.576156 
L 784.614995 121.209946 
L 784.879989 119.647659 
L 784.96832 119.881173 
L 785.144982 121.521026 
L 785.409975 126.925625 
L 785.763299 139.340671 
L 786.381616 171.594186 
L 787.176595 212.344036 
L 787.441588 219.104035 
L 787.61825 220.335468 
L 787.706581 219.833613 
L 787.883243 216.449251 
L 788.148236 205.310773 
L 788.589891 172.657319 
L 789.473202 102.624679 
L 789.649864 98.342313 
L 789.738195 98.30929 
L 789.914857 102.738931 
L 790.17985 120.355212 
L 790.621505 170.509174 
L 791.151491 227.503256 
L 791.416484 238.537901 
L 791.504815 238.587843 
L 791.681477 233.172134 
L 791.94647 212.81719 
L 793.094773 99.081338 
L 793.271435 96.92364 
L 793.448097 100.582187 
L 793.71309 115.453042 
L 794.243077 164.333275 
L 794.861394 214.168266 
L 795.126387 223.588447 
L 795.303049 224.880877 
L 795.479711 222.247699 
L 795.744704 211.679464 
L 796.186359 181.431068 
L 797.069669 118.787137 
L 797.334662 110.653292 
L 797.511324 109.582271 
L 797.687986 112.183606 
L 797.952979 122.756747 
L 798.394634 154.592809 
L 799.189614 217.716034 
L 799.454607 226.264823 
L 799.542938 226.637591 
L 799.631269 225.650187 
L 799.807931 219.487004 
L 800.072924 200.140569 
L 800.691241 127.745982 
L 801.044565 96.960097 
L 801.221227 92.564603 
L 801.309558 93.90946 
L 801.48622 104.092115 
L 801.751213 136.547991 
L 802.546192 248.867777 
L 802.634523 249.99754 
L 802.722854 247.25848 
L 802.899516 230.242575 
L 803.25284 161.313008 
L 803.694496 79.760087 
L 803.871158 72.353478 
L 803.959489 76.283348 
L 804.136151 99.004415 
L 805.019461 263.814292 
L 805.196123 246.609618 
L 805.461116 182.687967 
L 805.902771 70.022211 
L 806.079433 61.659211 
L 806.256095 85.346036 
L 806.609419 201.62852 
L 806.874412 275.21672 
L 806.962743 280.870159 
L 807.051074 272.833525 
L 807.227736 213.815606 
L 807.669391 35.55267 
L 807.846053 116.480496 
L 808.111046 299.642196 
L 808.199378 288.603003 
L 808.552702 54.852121 
L 808.817695 238.141126 
L 808.906026 237.363618 
L 809.171019 114.278171 
L 809.347681 166.456518 
L 809.524343 194.788219 
L 809.789336 145.597785 
L 810.054329 176.7482 
L 810.14266 176.000419 
L 810.407653 157.980498 
L 810.672646 169.948317 
L 810.760977 169.079017 
L 811.02597 162.703236 
L 811.114301 164.2796 
L 811.114301 164.2796 
" clip-path="url(#pfc7e650cea)" style="fill: none; stroke: #ff7f0e; stroke-width: 0.6; stroke-linecap: square"/>
   </g>
   <g id="patch_3">
    <path d="M 52.160938 313.478125 
L 52.160938 22.318125 
" style="fill: none; stroke: #000000; stroke-width: 0.8; stroke-linejoin: miter; stroke-linecap: square"/>
   </g>
   <g id="patch_4">
    <path d="M 847.254938 313.478125 
L 847.254938 22.318125 
" style="fill: none; stroke: #000000; stroke-width: 0.8; stroke-linejoin: miter; stroke-linecap: square"/>
   </g>
   <g id="patch_5">
    <path d="M 52.160937 313.478125 
L 847.254938 313.478125 
" style="fill: none; stroke: #000000; stroke-width: 0.8; stroke-linejoin: miter; stroke-linecap: square"/>
   </g>
   <g id="patch_6">
    <path d="M 52.160937 22.318125 
L 847.254938 22.318125 
" style="fill: none; stroke: #000000; stroke-width: 0.8; stroke-linejoin: miter; stroke-linecap: square"/>
   </g>
   <g id="text_16">
    <!-- M=60, e=0.29, f_min=10 Hz -->
    <g transform="translate(363.504813 16.318125) scale(0.12 -0.12)">
     <defs>
      <path id="DejaVuSans-4d" d="M 628 4666 
L 1569 4666 
L 2759 1491 
L 3956 4666 
L 4897 4666 
L 4897 0 
L 4281 0 
L 4281 4097 
L 3078 897 
L 2444 897 
L 1241 4097 
L 1241 0 
L 628 0 
L 628 4666 
z
" transform="scale(0.015625)"/>
      <path id="DejaVuSans-3d" d="M 678 2906 
L 4684 2906 
L 4684 2381 
L 678 2381 
L 678 2906 
z
M 678 1631 
L 4684 1631 
L 4684 1100 
L 678 1100 
L 678 1631 
z
" transform="scale(0.015625)"/>
      <path id="DejaVuSans-2c" d="M 750 794 
L 1409 794 
L 1409 256 
L 897 -744 
L 494 -744 
L 750 256 
L 750 794 
z
" transform="scale(0.015625)"/>
      <path id="DejaVuSans-65" d="M 3597 1894 
L 3597 1613 
L 953 1613 
Q 991 1019 1311 708 
Q 1631 397 2203 397 
Q 2534 397 2845 478 
Q 3156 559 3463 722 
L 3463 178 
Q 3153 47 2828 -22 
Q 2503 -91 2169 -91 
Q 1331 -91 842 396 
Q 353 884 353 1716 
Q 353 2575 817 3079 
Q 1281 3584 2069 3584 
Q 2775 3584 3186 3129 
Q 3597 2675 3597 1894 
z
M 3022 2063 
Q 3016 2534 2758 2815 
Q 2500 3097 2075 3097 
Q 1594 3097 1305 2825 
Q 1016 2553 972 2059 
L 3022 2063 
z
" transform="scale(0.015625)"/>
      <path id="DejaVuSans-39" d="M 703 97 
L 703 672 
Q 941 559 1184 500 
Q 1428 441 1663 441 
Q 2288 441 2617 861 
Q 2947 1281 2994 2138 
Q 2813 1869 2534 1725 
Q 2256 1581 1919 1581 
Q 1219 1581 811 2004 
Q 403 2428 403 3163 
Q 403 3881 828 4315 
Q 1253 4750 1959 4750 
Q 2769 4750 3195 4129 
Q 3622 3509 3622 2328 
Q 3622 1225 3098 567 
Q 2575 -91 1691 -91 
Q 1453 -91 1209 -44 
Q 966 3 703 97 
z
M 1959 2075 
Q 2384 2075 2632 2365 
Q 2881 2656 2881 3163 
Q 2881 3666 2632 3958 
Q 2384 4250 1959 4250 
Q 1534 4250 1286 3958 
Q 1038 3666 1038 3163 
Q 1038 2656 1286 2365 
Q 1534 2075 1959 2075 
z
" transform="scale(0.015625)"/>
      <path id="DejaVuSans-66" d="M 2375 4863 
L 2375 4384 
L 1825 4384 
Q 1516 4384 1395 4259 
Q 1275 4134 1275 3809 
L 1275 3500 
L 2222 3500 
L 2222 3053 
L 1275 3053 
L 1275 0 
L 697 0 
L 697 3053 
L 147 3053 
L 147 3500 
L 697 3500 
L 697 3744 
Q 697 4328 969 4595 
Q 1241 4863 1831 4863 
L 2375 4863 
z
" transform="scale(0.015625)"/>
      <path id="DejaVuSans-5f" d="M 3263 -1063 
L 3263 -1509 
L -63 -1509 
L -63 -1063 
L 3263 -1063 
z
" transform="scale(0.015625)"/>
      <path id="DejaVuSans-6d" d="M 3328 2828 
Q 3544 3216 3844 3400 
Q 4144 3584 4550 3584 
Q 5097 3584 5394 3201 
Q 5691 2819 5691 2113 
L 5691 0 
L 5113 0 
L 5113 2094 
Q 5113 2597 4934 2840 
Q 4756 3084 4391 3084 
Q 3944 3084 3684 2787 
Q 3425 2491 3425 1978 
L 3425 0 
L 2847 0 
L 2847 2094 
Q 2847 2600 2669 2842 
Q 2491 3084 2119 3084 
Q 1678 3084 1418 2786 
Q 1159 2488 1159 1978 
L 1159 0 
L 581 0 
L 581 3500 
L 1159 3500 
L 1159 2956 
Q 1356 3278 1631 3431 
Q 1906 3584 2284 3584 
Q 2666 3584 2933 3390 
Q 3200 3197 3328 2828 
z
" transform="scale(0.015625)"/>
      <path id="DejaVuSans-69" d="M 603 3500 
L 1178 3500 
L 1178 0 
L 603 0 
L 603 3500 
z
M 603 4863 
L 1178 4863 
L 1178 4134 
L 603 4134 
L 603 4863 
z
" transform="scale(0.015625)"/>
      <path id="DejaVuSans-6e" d="M 3513 2113 
L 3513 0 
L 2938 0 
L 2938 2094 
Q 2938 2591 2744 2837 
Q 2550 3084 2163 3084 
Q 1697 3084 1428 2787 
Q 1159 2491 1159 1978 
L 1159 0 
L 581 0 
L 581 3500 
L 1159 3500 
L 1159 2956 
Q 1366 3272 1645 3428 
Q 1925 3584 2291 3584 
Q 2894 3584 3203 3211 
Q 3513 2838 3513 2113 
z
" transform="scale(0.015625)"/>
      <path id="DejaVuSans-48" d="M 628 4666 
L 1259 4666 
L 1259 2753 
L 3553 2753 
L 3553 4666 
L 4184 4666 
L 4184 0 
L 3553 0 
L 3553 2222 
L 1259 2222 
L 1259 0 
L 628 0 
L 628 4666 
z
" transform="scale(0.015625)"/>
      <path id="DejaVuSans-7a" d="M 353 3500 
L 3084 3500 
L 3084 2975 
L 922 459 
L 3084 459 
L 3084 0 
L 275 0 
L 275 525 
L 2438 3041 
L 353 3041 
L 353 3500 
z
" transform="scale(0.015625)"/>
     </defs>
     <use xlink:href="#DejaVuSans-4d"/>
     <use xlink:href="#DejaVuSans-3d" transform="translate(86.279297 0)"/>
     <use xlink:href="#DejaVuSans-36" transform="translate(170.068359 0)"/>
     <use xlink:href="#DejaVuSans-30" transform="translate(233.691406 0)"/>
     <use xlink:href="#DejaVuSans-2c" transform="translate(297.314453 0)"/>
     <use xlink:href="#DejaVuSans-20" transform="translate(329.101562 0)"/>
     <use xlink:href="#DejaVuSans-65" transform="translate(360.888672 0)"/>
     <use xlink:href="#DejaVuSans-3d" transform="translate(422.412109 0)"/>
     <use xlink:href="#DejaVuSans-30" transform="translate(506.201172 0)"/>
     <use xlink:href="#DejaVuSans-2e" transform="translate(569.824219 0)"/>
     <use xlink:href="#DejaVuSans-32" transform="translate(601.611328 0)"/>
     <use xlink:href="#DejaVuSans-39" transform="translate(665.234375 0)"/>
     <use xlink:href="#DejaVuSans-2c" transform="translate(728.857422 0)"/>
     <use xlink:href="#DejaVuSans-20" transform="translate(760.644531 0)"/>
     <use xlink:href="#DejaVuSans-66" transform="translate(792.431641 0)"/>
     <use xlink:href="#DejaVuSans-5f" transform="translate(827.636719 0)"/>
     <use xlink:href="#DejaVuSans-6d" transform="translate(877.636719 0)"/>
     <use xlink:href="#DejaVuSans-69" transform="translate(975.048828 0)"/>
     <use xlink:href="#DejaVuSans-6e" transform="translate(1002.832031 0)"/>
     <use xlink:href="#DejaVuSans-3d" transform="translate(1066.210938 0)"/>
     <use xlink:href="#DejaVuSans-31" transform="translate(1150 0)"/>
     <use xlink:href="#DejaVuSans-30" transform="translate(1213.623047 0)"/>
     <use xlink:href="#DejaVuSans-20" transform="translate(1277.246094 0)"/>
     <use xlink:href="#DejaVuSans-48" transform="translate(1309.033203 0)"/>
     <use xlink:href="#DejaVuSans-7a" transform="translate(1384.228516 0)"/>
    </g>
   </g>
   <g id="legend_1">
    <g id="patch_7">
     <path d="M 59.160938 59.674375 
L 123.960938 59.674375 
Q 125.960938 59.674375 125.960938 57.674375 
L 125.960938 29.318125 
Q 125.960938 27.318125 123.960938 27.318125 
L 59.160938 27.318125 
Q 57.160938 27.318125 57.160938 29.318125 
L 57.160938 57.674375 
Q 57.160938 59.674375 59.160938 59.674375 
z
" style="fill: #ffffff; opacity: 0.8; stroke: #cccccc; stroke-linejoin: miter"/>
    </g>
    <g id="line2d_29">
     <path d="M 61.160938 35.416562 
L 71.160938 35.416562 
L 81.160938 35.416562 
" style="fill: none; stroke: #1f77b4; stroke-width: 0.6; stroke-linecap: square"/>
    </g>
    <g id="text_17">
     <!-- $h_+$ -->
     <g transform="translate(89.160938 38.916562) scale(0.1 -0.1)">
      <defs>
       <path id="DejaVuSans-2b" d="M 2944 4013 
L 2944 2272 
L 4684 2272 
L 4684 1741 
L 2944 1741 
L 2944 0 
L 2419 0 
L 2419 1741 
L 678 1741 
L 678 2272 
L 2419 2272 
L 2419 4013 
L 2944 4013 
z
" transform="scale(0.015625)"/>
      </defs>
      <use xlink:href="#DejaVuSans-Oblique-68" transform="translate(0 0.015625)"/>
      <use xlink:href="#DejaVuSans-2b" transform="translate(77.016602 -16.390625) scale(0.7)"/>
     </g>
    </g>
    <g id="line2d_30">
     <path d="M 61.160938 50.094688 
L 71.160938 50.094688 
L 81.160938 50.094688 
" style="fill: none; stroke: #ff7f0e; stroke-width: 0.6; stroke-linecap: square"/>
    </g>
    <g id="text_18">
     <!-- $h_	imes$ -->
     <g transform="translate(89.160938 53.594688) scale(0.1 -0.1)">
      <defs>
       <path id="DejaVuSans-Oblique-69" d="M 1172 4863 
L 1747 4863 
L 1606 4134 
L 1031 4134 
L 1172 4863 
z
M 909 3500 
L 1484 3500 
L 800 0 
L 225 0 
L 909 3500 
z
" transform="scale(0.015625)"/>
       <path id="DejaVuSans-Oblique-6d" d="M 5747 2113 
L 5338 0 
L 4763 0 
L 5166 2094 
Q 5191 2228 5203 2325 
Q 5216 2422 5216 2491 
Q 5216 2772 5059 2928 
Q 4903 3084 4622 3084 
Q 4203 3084 3875 2770 
Q 3547 2456 3450 1953 
L 3066 0 
L 2491 0 
L 2900 2094 
Q 2925 2209 2937 2307 
Q 2950 2406 2950 2484 
Q 2950 2769 2794 2926 
Q 2638 3084 2363 3084 
Q 1938 3084 1609 2770 
Q 1281 2456 1184 1953 
L 800 0 
L 225 0 
L 909 3500 
L 1484 3500 
L 1375 2956 
Q 1609 3263 1923 3423 
Q 2238 3584 2597 3584 
Q 2978 3584 3223 3384 
Q 3469 3184 3519 2828 
Q 3781 3197 4126 3390 
Q 4472 3584 4856 3584 
Q 5306 3584 5551 3325 
Q 5797 3066 5797 2591 
Q 5797 2488 5784 2364 
Q 5772 2241 5747 2113 
z
" transform="scale(0.015625)"/>
       <path id="DejaVuSans-Oblique-65" d="M 3078 2063 
Q 3088 2113 3092 2166 
Q 3097 2219 3097 2272 
Q 3097 2653 2873 2875 
Q 2650 3097 2266 3097 
Q 1838 3097 1509 2826 
Q 1181 2556 1013 2059 
L 3078 2063 
z
M 3578 1613 
L 903 1613 
Q 884 1494 878 1425 
Q 872 1356 872 1306 
Q 872 872 1139 634 
Q 1406 397 1894 397 
Q 2269 397 2603 481 
Q 2938 566 3225 728 
L 3116 159 
Q 2806 34 2476 -28 
Q 2147 -91 1806 -91 
Q 1078 -91 686 257 
Q 294 606 294 1247 
Q 294 1794 489 2264 
Q 684 2734 1063 3103 
Q 1306 3334 1642 3459 
Q 1978 3584 2356 3584 
Q 2950 3584 3301 3228 
Q 3653 2872 3653 2272 
Q 3653 2128 3634 1964 
Q 3616 1800 3578 1613 
z
" transform="scale(0.015625)"/>
       <path id="DejaVuSans-Oblique-73" d="M 3200 3397 
L 3091 2853 
Q 2863 2978 2609 3040 
Q 2356 3103 2088 3103 
Q 1634 3103 1373 2948 
Q 1113 2794 1113 2528 
Q 1113 2219 1719 2053 
Q 1766 2041 1788 2034 
L 1972 1978 
Q 2547 1819 2739 1644 
Q 2931 1469 2931 1166 
Q 2931 609 2489 259 
Q 2047 -91 1331 -91 
Q 1053 -91 747 -37 
Q 441 16 72 128 
L 184 722 
Q 500 559 806 475 
Q 1113 391 1394 391 
Q 1816 391 2080 572 
Q 2344 753 2344 1031 
Q 2344 1331 1650 1516 
L 1591 1531 
L 1394 1581 
Q 956 1697 753 1886 
Q 550 2075 550 2369 
Q 550 2928 970 3256 
Q 1391 3584 2113 3584 
Q 2397 3584 2667 3537 
Q 2938 3491 3200 3397 
z
" transform="scale(0.015625)"/>
      </defs>
      <use xlink:href="#DejaVuSans-Oblique-68" transform="translate(0 0.015625)"/>
      <use xlink:href="#DejaVuSans-20" transform="translate(63.378906 -16.390625) scale(0.7)"/>
      <use xlink:href="#DejaVuSans-Oblique-69" transform="translate(88.364258 0.015625)"/>
      <use xlink:href="#DejaVuSans-Oblique-6d" transform="translate(116.147461 0.015625)"/>
      <use xlink:href="#DejaVuSans-Oblique-65" transform="translate(213.55957 0.015625)"/>
      <use xlink:href="#DejaVuSans-Oblique-73" transform="translate(275.083008 0.015625)"/>
     </g>
    </g>
   </g>
  </g>
 </g>
 <defs>
  <clipPath id="pfc7e650cea">
   <rect x="52.160938" y="22.318125" width="795.094" height="291.16"/>
  </clipPath>
 </defs>
</svg>
