<?xml version="1.0" encoding="utf-8" standalone="no"?>
<!DOCTYPE svg PUBLIC "-//W3C//DTD SVG 1.1//EN"
  "http://www.w3.org/Graphics/SVG/1.1/DTD/svg11.dtd">
<svg xmlns:xlink="http://www.w3.org/1999/xlink" width="854.454937pt" height="351.034375pt" viewBox="0 0 854.454937 351.034375" xmlns="http://www.w3.org/2000/svg" version="1.1">
 <metadata>
  <rdf:RDF xmlns:dc="http://purl.org/dc/elements/1.1/" xmlns:cc="http://creativecommons.org/ns#" xmlns:rdf="http://www.w3.org/1999/02/22-rdf-syntax-ns#">
   <cc:Work>
    <dc:type rdf:resource="http://purl.org/dc/dcmitype/StillImage"/>
    <dc:date>2025-07-24T14:39:29.896523</dc:date>
    <dc:format>image/svg+xml</dc:format>
    <dc:creator>
     <cc:Agent>
      <dc:title>Matplotlib v3.10.3, https://matplotlib.org/</dc:title>
     </cc:Agent>
    </dc:creator>
   </cc:Work>
  </rdf:RDF>
 </metadata>
 <defs>
  <style type="text/css">*{stroke-linejoin: round; stroke-linecap: butt}</style>
 </defs>
 <g id="figure_1">
  <g id="patch_1">
   <path d="M 0 351.034375 
L 854.454937 351.034375 
L 854.454937 0 
L 0 0 
z
" style="fill: #ffffff"/>
  </g>
  <g id="axes_1">
   <g id="patch_2">
    <path d="M 52.160938 313.478125 
L 847.254937 313.478125 
L 847.254937 22.318125 
L 52.160938 22.318125 
z
" style="fill: #ffffff"/>
   </g>
   <g id="matplotlib.axis_1">
    <g id="xtick_1">
     <g id="line2d_1">
      <path d="M 63.57927 313.478125 
L 63.57927 22.318125 
" clip-path="url(#p25d465de12)" style="fill: none; stroke: #b0b0b0; stroke-width: 0.8; stroke-linecap: square"/>
     </g>
     <g id="line2d_2">
      <defs>
       <path id="md6ac803bbf" d="M 0 0 
L 0 3.5 
" style="stroke: #000000; stroke-width: 0.8"/>
      </defs>
      <g>
       <use xlink:href="#md6ac803bbf" x="63.57927" y="313.478125" style="stroke: #000000; stroke-width: 0.8"/>
      </g>
     </g>
     <g id="text_1">
      <!-- −14000 -->
      <g transform="translate(43.483177 328.076563) scale(0.1 -0.1)">
       <defs>
        <path id="DejaVuSans-2212" d="M 678 2272 
L 4684 2272 
L 4684 1741 
L 678 1741 
L 678 2272 
z
" transform="scale(0.015625)"/>
        <path id="DejaVuSans-31" d="M 794 531 
L 1825 531 
L 1825 4091 
L 703 3866 
L 703 4441 
L 1819 4666 
L 2450 4666 
L 2450 531 
L 3481 531 
L 3481 0 
L 794 0 
L 794 531 
z
" transform="scale(0.015625)"/>
        <path id="DejaVuSans-34" d="M 2419 4116 
L 825 1625 
L 2419 1625 
L 2419 4116 
z
M 2253 4666 
L 3047 4666 
L 3047 1625 
L 3713 1625 
L 3713 1100 
L 3047 1100 
L 3047 0 
L 2419 0 
L 2419 1100 
L 313 1100 
L 313 1709 
L 2253 4666 
z
" transform="scale(0.015625)"/>
        <path id="DejaVuSans-30" d="M 2034 4250 
Q 1547 4250 1301 3770 
Q 1056 3291 1056 2328 
Q 1056 1369 1301 889 
Q 1547 409 2034 409 
Q 2525 409 2770 889 
Q 3016 1369 3016 2328 
Q 3016 3291 2770 3770 
Q 2525 4250 2034 4250 
z
M 2034 4750 
Q 2819 4750 3233 4129 
Q 3647 3509 3647 2328 
Q 3647 1150 3233 529 
Q 2819 -91 2034 -91 
Q 1250 -91 836 529 
Q 422 1150 422 2328 
Q 422 3509 836 4129 
Q 1250 4750 2034 4750 
z
" transform="scale(0.015625)"/>
       </defs>
       <use xlink:href="#DejaVuSans-2212"/>
       <use xlink:href="#DejaVuSans-31" transform="translate(83.789062 0)"/>
       <use xlink:href="#DejaVuSans-34" transform="translate(147.412109 0)"/>
       <use xlink:href="#DejaVuSans-30" transform="translate(211.035156 0)"/>
       <use xlink:href="#DejaVuSans-30" transform="translate(274.658203 0)"/>
       <use xlink:href="#DejaVuSans-30" transform="translate(338.28125 0)"/>
      </g>
     </g>
    </g>
    <g id="xtick_2">
     <g id="line2d_3">
      <path d="M 169.91857 313.478125 
L 169.91857 22.318125 
" clip-path="url(#p25d465de12)" style="fill: none; stroke: #b0b0b0; stroke-width: 0.8; stroke-linecap: square"/>
     </g>
     <g id="line2d_4">
      <g>
       <use xlink:href="#md6ac803bbf" x="169.91857" y="313.478125" style="stroke: #000000; stroke-width: 0.8"/>
      </g>
     </g>
     <g id="text_2">
      <!-- −12000 -->
      <g transform="translate(149.822476 328.076563) scale(0.1 -0.1)">
       <defs>
        <path id="DejaVuSans-32" d="M 1228 531 
L 3431 531 
L 3431 0 
L 469 0 
L 469 531 
Q 828 903 1448 1529 
Q 2069 2156 2228 2338 
Q 2531 2678 2651 2914 
Q 2772 3150 2772 3378 
Q 2772 3750 2511 3984 
Q 2250 4219 1831 4219 
Q 1534 4219 1204 4116 
Q 875 4013 500 3803 
L 500 4441 
Q 881 4594 1212 4672 
Q 1544 4750 1819 4750 
Q 2544 4750 2975 4387 
Q 3406 4025 3406 3419 
Q 3406 3131 3298 2873 
Q 3191 2616 2906 2266 
Q 2828 2175 2409 1742 
Q 1991 1309 1228 531 
z
" transform="scale(0.015625)"/>
       </defs>
       <use xlink:href="#DejaVuSans-2212"/>
       <use xlink:href="#DejaVuSans-31" transform="translate(83.789062 0)"/>
       <use xlink:href="#DejaVuSans-32" transform="translate(147.412109 0)"/>
       <use xlink:href="#DejaVuSans-30" transform="translate(211.035156 0)"/>
       <use xlink:href="#DejaVuSans-30" transform="translate(274.658203 0)"/>
       <use xlink:href="#DejaVuSans-30" transform="translate(338.28125 0)"/>
      </g>
     </g>
    </g>
    <g id="xtick_3">
     <g id="line2d_5">
      <path d="M 276.257869 313.478125 
L 276.257869 22.318125 
" clip-path="url(#p25d465de12)" style="fill: none; stroke: #b0b0b0; stroke-width: 0.8; stroke-linecap: square"/>
     </g>
     <g id="line2d_6">
      <g>
       <use xlink:href="#md6ac803bbf" x="276.257869" y="313.478125" style="stroke: #000000; stroke-width: 0.8"/>
      </g>
     </g>
     <g id="text_3">
      <!-- −10000 -->
      <g transform="translate(256.161775 328.076563) scale(0.1 -0.1)">
       <use xlink:href="#DejaVuSans-2212"/>
       <use xlink:href="#DejaVuSans-31" transform="translate(83.789062 0)"/>
       <use xlink:href="#DejaVuSans-30" transform="translate(147.412109 0)"/>
       <use xlink:href="#DejaVuSans-30" transform="translate(211.035156 0)"/>
       <use xlink:href="#DejaVuSans-30" transform="translate(274.658203 0)"/>
       <use xlink:href="#DejaVuSans-30" transform="translate(338.28125 0)"/>
      </g>
     </g>
    </g>
    <g id="xtick_4">
     <g id="line2d_7">
      <path d="M 382.597168 313.478125 
L 382.597168 22.318125 
" clip-path="url(#p25d465de12)" style="fill: none; stroke: #b0b0b0; stroke-width: 0.8; stroke-linecap: square"/>
     </g>
     <g id="line2d_8">
      <g>
       <use xlink:href="#md6ac803bbf" x="382.597168" y="313.478125" style="stroke: #000000; stroke-width: 0.8"/>
      </g>
     </g>
     <g id="text_4">
      <!-- −8000 -->
      <g transform="translate(365.682324 328.076563) scale(0.1 -0.1)">
       <defs>
        <path id="DejaVuSans-38" d="M 2034 2216 
Q 1584 2216 1326 1975 
Q 1069 1734 1069 1313 
Q 1069 891 1326 650 
Q 1584 409 2034 409 
Q 2484 409 2743 651 
Q 3003 894 3003 1313 
Q 3003 1734 2745 1975 
Q 2488 2216 2034 2216 
z
M 1403 2484 
Q 997 2584 770 2862 
Q 544 3141 544 3541 
Q 544 4100 942 4425 
Q 1341 4750 2034 4750 
Q 2731 4750 3128 4425 
Q 3525 4100 3525 3541 
Q 3525 3141 3298 2862 
Q 3072 2584 2669 2484 
Q 3125 2378 3379 2068 
Q 3634 1759 3634 1313 
Q 3634 634 3220 271 
Q 2806 -91 2034 -91 
Q 1263 -91 848 271 
Q 434 634 434 1313 
Q 434 1759 690 2068 
Q 947 2378 1403 2484 
z
M 1172 3481 
Q 1172 3119 1398 2916 
Q 1625 2713 2034 2713 
Q 2441 2713 2670 2916 
Q 2900 3119 2900 3481 
Q 2900 3844 2670 4047 
Q 2441 4250 2034 4250 
Q 1625 4250 1398 4047 
Q 1172 3844 1172 3481 
z
" transform="scale(0.015625)"/>
       </defs>
       <use xlink:href="#DejaVuSans-2212"/>
       <use xlink:href="#DejaVuSans-38" transform="translate(83.789062 0)"/>
       <use xlink:href="#DejaVuSans-30" transform="translate(147.412109 0)"/>
       <use xlink:href="#DejaVuSans-30" transform="translate(211.035156 0)"/>
       <use xlink:href="#DejaVuSans-30" transform="translate(274.658203 0)"/>
      </g>
     </g>
    </g>
    <g id="xtick_5">
     <g id="line2d_9">
      <path d="M 488.936468 313.478125 
L 488.936468 22.318125 
" clip-path="url(#p25d465de12)" style="fill: none; stroke: #b0b0b0; stroke-width: 0.8; stroke-linecap: square"/>
     </g>
     <g id="line2d_10">
      <g>
       <use xlink:href="#md6ac803bbf" x="488.936468" y="313.478125" style="stroke: #000000; stroke-width: 0.8"/>
      </g>
     </g>
     <g id="text_5">
      <!-- −6000 -->
      <g transform="translate(472.021624 328.076563) scale(0.1 -0.1)">
       <defs>
        <path id="DejaVuSans-36" d="M 2113 2584 
Q 1688 2584 1439 2293 
Q 1191 2003 1191 1497 
Q 1191 994 1439 701 
Q 1688 409 2113 409 
Q 2538 409 2786 701 
Q 3034 994 3034 1497 
Q 3034 2003 2786 2293 
Q 2538 2584 2113 2584 
z
M 3366 4563 
L 3366 3988 
Q 3128 4100 2886 4159 
Q 2644 4219 2406 4219 
Q 1781 4219 1451 3797 
Q 1122 3375 1075 2522 
Q 1259 2794 1537 2939 
Q 1816 3084 2150 3084 
Q 2853 3084 3261 2657 
Q 3669 2231 3669 1497 
Q 3669 778 3244 343 
Q 2819 -91 2113 -91 
Q 1303 -91 875 529 
Q 447 1150 447 2328 
Q 447 3434 972 4092 
Q 1497 4750 2381 4750 
Q 2619 4750 2861 4703 
Q 3103 4656 3366 4563 
z
" transform="scale(0.015625)"/>
       </defs>
       <use xlink:href="#DejaVuSans-2212"/>
       <use xlink:href="#DejaVuSans-36" transform="translate(83.789062 0)"/>
       <use xlink:href="#DejaVuSans-30" transform="translate(147.412109 0)"/>
       <use xlink:href="#DejaVuSans-30" transform="translate(211.035156 0)"/>
       <use xlink:href="#DejaVuSans-30" transform="translate(274.658203 0)"/>
      </g>
     </g>
    </g>
    <g id="xtick_6">
     <g id="line2d_11">
      <path d="M 595.275767 313.478125 
L 595.275767 22.318125 
" clip-path="url(#p25d465de12)" style="fill: none; stroke: #b0b0b0; stroke-width: 0.8; stroke-linecap: square"/>
     </g>
     <g id="line2d_12">
      <g>
       <use xlink:href="#md6ac803bbf" x="595.275767" y="313.478125" style="stroke: #000000; stroke-width: 0.8"/>
      </g>
     </g>
     <g id="text_6">
      <!-- −4000 -->
      <g transform="translate(578.360923 328.076563) scale(0.1 -0.1)">
       <use xlink:href="#DejaVuSans-2212"/>
       <use xlink:href="#DejaVuSans-34" transform="translate(83.789062 0)"/>
       <use xlink:href="#DejaVuSans-30" transform="translate(147.412109 0)"/>
       <use xlink:href="#DejaVuSans-30" transform="translate(211.035156 0)"/>
       <use xlink:href="#DejaVuSans-30" transform="translate(274.658203 0)"/>
      </g>
     </g>
    </g>
    <g id="xtick_7">
     <g id="line2d_13">
      <path d="M 701.615066 313.478125 
L 701.615066 22.318125 
" clip-path="url(#p25d465de12)" style="fill: none; stroke: #b0b0b0; stroke-width: 0.8; stroke-linecap: square"/>
     </g>
     <g id="line2d_14">
      <g>
       <use xlink:href="#md6ac803bbf" x="701.615066" y="313.478125" style="stroke: #000000; stroke-width: 0.8"/>
      </g>
     </g>
     <g id="text_7">
      <!-- −2000 -->
      <g transform="translate(684.700222 328.076563) scale(0.1 -0.1)">
       <use xlink:href="#DejaVuSans-2212"/>
       <use xlink:href="#DejaVuSans-32" transform="translate(83.789062 0)"/>
       <use xlink:href="#DejaVuSans-30" transform="translate(147.412109 0)"/>
       <use xlink:href="#DejaVuSans-30" transform="translate(211.035156 0)"/>
       <use xlink:href="#DejaVuSans-30" transform="translate(274.658203 0)"/>
      </g>
     </g>
    </g>
    <g id="xtick_8">
     <g id="line2d_15">
      <path d="M 807.954366 313.478125 
L 807.954366 22.318125 
" clip-path="url(#p25d465de12)" style="fill: none; stroke: #b0b0b0; stroke-width: 0.8; stroke-linecap: square"/>
     </g>
     <g id="line2d_16">
      <g>
       <use xlink:href="#md6ac803bbf" x="807.954366" y="313.478125" style="stroke: #000000; stroke-width: 0.8"/>
      </g>
     </g>
     <g id="text_8">
      <!-- 0 -->
      <g transform="translate(804.773116 328.076563) scale(0.1 -0.1)">
       <use xlink:href="#DejaVuSans-30"/>
      </g>
     </g>
    </g>
    <g id="text_9">
     <!-- t [s] -->
     <g transform="translate(439.652469 341.754687) scale(0.1 -0.1)">
      <defs>
       <path id="DejaVuSans-74" d="M 1172 4494 
L 1172 3500 
L 2356 3500 
L 2356 3053 
L 1172 3053 
L 1172 1153 
Q 1172 725 1289 603 
Q 1406 481 1766 481 
L 2356 481 
L 2356 0 
L 1766 0 
Q 1100 0 847 248 
Q 594 497 594 1153 
L 594 3053 
L 172 3053 
L 172 3500 
L 594 3500 
L 594 4494 
L 1172 4494 
z
" transform="scale(0.015625)"/>
       <path id="DejaVuSans-20" transform="scale(0.015625)"/>
       <path id="DejaVuSans-5b" d="M 550 4863 
L 1875 4863 
L 1875 4416 
L 1125 4416 
L 1125 -397 
L 1875 -397 
L 1875 -844 
L 550 -844 
L 550 4863 
z
" transform="scale(0.015625)"/>
       <path id="DejaVuSans-73" d="M 2834 3397 
L 2834 2853 
Q 2591 2978 2328 3040 
Q 2066 3103 1784 3103 
Q 1356 3103 1142 2972 
Q 928 2841 928 2578 
Q 928 2378 1081 2264 
Q 1234 2150 1697 2047 
L 1894 2003 
Q 2506 1872 2764 1633 
Q 3022 1394 3022 966 
Q 3022 478 2636 193 
Q 2250 -91 1575 -91 
Q 1294 -91 989 -36 
Q 684 19 347 128 
L 347 722 
Q 666 556 975 473 
Q 1284 391 1588 391 
Q 1994 391 2212 530 
Q 2431 669 2431 922 
Q 2431 1156 2273 1281 
Q 2116 1406 1581 1522 
L 1381 1569 
Q 847 1681 609 1914 
Q 372 2147 372 2553 
Q 372 3047 722 3315 
Q 1072 3584 1716 3584 
Q 2034 3584 2315 3537 
Q 2597 3491 2834 3397 
z
" transform="scale(0.015625)"/>
       <path id="DejaVuSans-5d" d="M 1947 4863 
L 1947 -844 
L 622 -844 
L 622 -397 
L 1369 -397 
L 1369 4416 
L 622 4416 
L 622 4863 
L 1947 4863 
z
" transform="scale(0.015625)"/>
      </defs>
      <use xlink:href="#DejaVuSans-74"/>
      <use xlink:href="#DejaVuSans-20" transform="translate(39.208984 0)"/>
      <use xlink:href="#DejaVuSans-5b" transform="translate(70.996094 0)"/>
      <use xlink:href="#DejaVuSans-73" transform="translate(110.009766 0)"/>
      <use xlink:href="#DejaVuSans-5d" transform="translate(162.109375 0)"/>
     </g>
    </g>
   </g>
   <g id="matplotlib.axis_2">
    <g id="ytick_1">
     <g id="line2d_17">
      <path d="M 52.160938 274.434982 
L 847.254937 274.434982 
" clip-path="url(#p25d465de12)" style="fill: none; stroke: #b0b0b0; stroke-width: 0.8; stroke-linecap: square"/>
     </g>
     <g id="line2d_18">
      <defs>
       <path id="mfe18eb779c" d="M 0 0 
L -3.5 0 
" style="stroke: #000000; stroke-width: 0.8"/>
      </defs>
      <g>
       <use xlink:href="#mfe18eb779c" x="52.160938" y="274.434982" style="stroke: #000000; stroke-width: 0.8"/>
      </g>
     </g>
     <g id="text_10">
      <!-- −0.2 -->
      <g transform="translate(20.878125 278.2342) scale(0.1 -0.1)">
       <defs>
        <path id="DejaVuSans-2e" d="M 684 794 
L 1344 794 
L 1344 0 
L 684 0 
L 684 794 
z
" transform="scale(0.015625)"/>
       </defs>
       <use xlink:href="#DejaVuSans-2212"/>
       <use xlink:href="#DejaVuSans-30" transform="translate(83.789062 0)"/>
       <use xlink:href="#DejaVuSans-2e" transform="translate(147.412109 0)"/>
       <use xlink:href="#DejaVuSans-32" transform="translate(179.199219 0)"/>
      </g>
     </g>
    </g>
    <g id="ytick_2">
     <g id="line2d_19">
      <path d="M 52.160938 219.965705 
L 847.254937 219.965705 
" clip-path="url(#p25d465de12)" style="fill: none; stroke: #b0b0b0; stroke-width: 0.8; stroke-linecap: square"/>
     </g>
     <g id="line2d_20">
      <g>
       <use xlink:href="#mfe18eb779c" x="52.160938" y="219.965705" style="stroke: #000000; stroke-width: 0.8"/>
      </g>
     </g>
     <g id="text_11">
      <!-- −0.1 -->
      <g transform="translate(20.878125 223.764924) scale(0.1 -0.1)">
       <use xlink:href="#DejaVuSans-2212"/>
       <use xlink:href="#DejaVuSans-30" transform="translate(83.789062 0)"/>
       <use xlink:href="#DejaVuSans-2e" transform="translate(147.412109 0)"/>
       <use xlink:href="#DejaVuSans-31" transform="translate(179.199219 0)"/>
      </g>
     </g>
    </g>
    <g id="ytick_3">
     <g id="line2d_21">
      <path d="M 52.160938 165.496429 
L 847.254937 165.496429 
" clip-path="url(#p25d465de12)" style="fill: none; stroke: #b0b0b0; stroke-width: 0.8; stroke-linecap: square"/>
     </g>
     <g id="line2d_22">
      <g>
       <use xlink:href="#mfe18eb779c" x="52.160938" y="165.496429" style="stroke: #000000; stroke-width: 0.8"/>
      </g>
     </g>
     <g id="text_12">
      <!-- 0.0 -->
      <g transform="translate(29.257812 169.295648) scale(0.1 -0.1)">
       <use xlink:href="#DejaVuSans-30"/>
       <use xlink:href="#DejaVuSans-2e" transform="translate(63.623047 0)"/>
       <use xlink:href="#DejaVuSans-30" transform="translate(95.410156 0)"/>
      </g>
     </g>
    </g>
    <g id="ytick_4">
     <g id="line2d_23">
      <path d="M 52.160938 111.027153 
L 847.254937 111.027153 
" clip-path="url(#p25d465de12)" style="fill: none; stroke: #b0b0b0; stroke-width: 0.8; stroke-linecap: square"/>
     </g>
     <g id="line2d_24">
      <g>
       <use xlink:href="#mfe18eb779c" x="52.160938" y="111.027153" style="stroke: #000000; stroke-width: 0.8"/>
      </g>
     </g>
     <g id="text_13">
      <!-- 0.1 -->
      <g transform="translate(29.257812 114.826372) scale(0.1 -0.1)">
       <use xlink:href="#DejaVuSans-30"/>
       <use xlink:href="#DejaVuSans-2e" transform="translate(63.623047 0)"/>
       <use xlink:href="#DejaVuSans-31" transform="translate(95.410156 0)"/>
      </g>
     </g>
    </g>
    <g id="ytick_5">
     <g id="line2d_25">
      <path d="M 52.160938 56.557877 
L 847.254937 56.557877 
" clip-path="url(#p25d465de12)" style="fill: none; stroke: #b0b0b0; stroke-width: 0.8; stroke-linecap: square"/>
     </g>
     <g id="line2d_26">
      <g>
       <use xlink:href="#mfe18eb779c" x="52.160938" y="56.557877" style="stroke: #000000; stroke-width: 0.8"/>
      </g>
     </g>
     <g id="text_14">
      <!-- 0.2 -->
      <g transform="translate(29.257812 60.357095) scale(0.1 -0.1)">
       <use xlink:href="#DejaVuSans-30"/>
       <use xlink:href="#DejaVuSans-2e" transform="translate(63.623047 0)"/>
       <use xlink:href="#DejaVuSans-32" transform="translate(95.410156 0)"/>
      </g>
     </g>
    </g>
    <g id="text_15">
     <!-- $h_{22}]$ -->
     <g transform="translate(14.798438 177.648125) rotate(-90) scale(0.1 -0.1)">
      <defs>
       <path id="DejaVuSans-Oblique-68" d="M 3566 2113 
L 3156 0 
L 2578 0 
L 2988 2091 
Q 3016 2238 3031 2350 
Q 3047 2463 3047 2528 
Q 3047 2791 2881 2937 
Q 2716 3084 2419 3084 
Q 1956 3084 1617 2771 
Q 1278 2459 1178 1941 
L 800 0 
L 225 0 
L 1172 4863 
L 1747 4863 
L 1375 2950 
Q 1594 3244 1934 3414 
Q 2275 3584 2650 3584 
Q 3113 3584 3367 3334 
Q 3622 3084 3622 2631 
Q 3622 2519 3608 2391 
Q 3594 2263 3566 2113 
z
" transform="scale(0.015625)"/>
      </defs>
      <use xlink:href="#DejaVuSans-Oblique-68" transform="translate(0 0.015625)"/>
      <use xlink:href="#DejaVuSans-32" transform="translate(63.378906 -16.390625) scale(0.7)"/>
      <use xlink:href="#DejaVuSans-32" transform="translate(107.915039 -16.390625) scale(0.7)"/>
      <use xlink:href="#DejaVuSans-5d" transform="translate(155.185547 0.015625)"/>
     </g>
    </g>
   </g>
   <g id="line2d_27">
    <path d="M 88.301574 166.479383 
L 89.273096 164.302843 
L 91.039501 160.276643 
L 91.746063 159.188849 
L 92.275984 158.731004 
L 92.717585 158.644547 
L 93.070866 158.801919 
L 93.424147 159.186419 
L 93.865748 160.018685 
L 94.395669 161.569426 
L 95.013911 164.137696 
L 95.897113 168.946615 
L 97.486877 177.768738 
L 98.016799 179.449783 
L 98.281759 179.824017 
L 98.4584 179.86316 
L 98.63504 179.714436 
L 98.900001 179.102362 
L 99.253282 177.474915 
L 99.694883 173.978245 
L 100.224804 167.484147 
L 100.931366 155.416938 
L 101.902889 138.459137 
L 102.25617 135.187167 
L 102.43281 134.66855 
L 102.52113 134.736987 
L 102.697771 135.581863 
L 102.962731 138.712346 
L 103.316012 146.340983 
L 103.845934 163.607487 
L 104.817456 195.744699 
L 105.170737 201.277915 
L 105.347377 202.166172 
L 105.435698 202.12967 
L 105.612338 201.123562 
L 105.877299 197.471261 
L 106.3189 187.004503 
L 107.732024 149.314651 
L 108.173625 143.695848 
L 108.526906 141.861183 
L 108.703546 141.71644 
L 108.880186 142.011713 
L 109.145147 143.147053 
L 109.586748 146.394173 
L 110.469951 155.230277 
L 111.618113 166.233278 
L 112.412995 171.820924 
L 113.031237 174.736353 
L 113.561158 176.216808 
L 113.914439 176.701903 
L 114.26772 176.815231 
L 114.532681 176.678104 
L 114.885962 176.234645 
L 115.415883 175.11321 
L 116.210765 172.753182 
L 119.037012 163.786248 
L 119.920215 161.833582 
L 120.626776 160.752244 
L 121.156698 160.267172 
L 121.686619 160.080354 
L 122.12822 160.151287 
L 122.658142 160.489197 
L 123.276383 161.179749 
L 124.159586 162.554501 
L 127.604074 168.355487 
L 128.398956 169.181949 
L 129.017198 169.560577 
L 129.547119 169.669707 
L 130.077041 169.567176 
L 130.695282 169.184114 
L 131.401844 168.43572 
L 132.285046 167.144331 
L 133.78649 164.48134 
L 135.641215 161.270223 
L 136.524417 160.142794 
L 137.142659 159.652311 
L 137.67258 159.482314 
L 138.202501 159.571864 
L 138.732423 159.932496 
L 139.350664 160.691475 
L 140.057226 161.97776 
L 140.852108 163.91042 
L 141.823631 166.90451 
L 143.060114 171.542342 
L 144.738198 177.841549 
L 145.35644 179.350975 
L 145.798041 179.882812 
L 146.063001 179.927158 
L 146.327962 179.735393 
L 146.681243 179.071344 
L 147.034524 177.890727 
L 147.476125 175.609952 
L 148.006046 171.576211 
L 148.624288 164.97279 
L 149.41917 153.782231 
L 150.655653 136.192203 
L 151.008934 133.665367 
L 151.185575 133.245145 
L 151.273895 133.282168 
L 151.450535 133.89461 
L 151.715496 136.258304 
L 152.068777 142.224909 
L 152.510378 153.85348 
L 154.100142 201.438317 
L 154.365103 204.290451 
L 154.541743 204.864433 
L 154.630063 204.755666 
L 154.806704 203.776976 
L 155.071665 200.565878 
L 155.513266 191.590091 
L 157.27967 150.576672 
L 157.721271 145.657803 
L 158.074552 143.558137 
L 158.339513 142.899756 
L 158.516153 142.831969 
L 158.692794 143.0198 
L 158.957754 143.706547 
L 159.399356 145.674978 
L 160.105917 150.107565 
L 162.578884 166.621404 
L 163.373766 170.279622 
L 164.080328 172.517008 
L 164.610249 173.582421 
L 165.14017 174.179686 
L 165.581771 174.373298 
L 166.023372 174.340402 
L 166.553294 174.064028 
L 167.259856 173.395381 
L 168.143058 172.214056 
L 169.291221 170.256979 
L 171.057625 166.705187 
L 172.73571 163.515135 
L 173.883873 161.779224 
L 174.943715 160.558508 
L 175.826918 159.853463 
L 176.533479 159.536224 
L 177.151721 159.471638 
L 177.769963 159.626968 
L 178.388204 160.007934 
L 179.094766 160.702604 
L 179.977968 161.890492 
L 181.302772 164.091301 
L 186.248704 172.675776 
L 187.131906 173.62098 
L 187.838468 174.101723 
L 188.45671 174.290869 
L 188.986631 174.251494 
L 189.516553 173.987725 
L 190.046474 173.449582 
L 190.576395 172.577089 
L 191.194637 171.053717 
L 191.812878 168.908571 
L 192.51944 165.648741 
L 193.402642 160.448589 
L 195.080727 148.753456 
L 195.963929 143.511752 
L 196.40553 141.900442 
L 196.670491 141.467839 
L 196.847131 141.462432 
L 197.023772 141.720212 
L 197.288732 142.671273 
L 197.642013 145.157206 
L 198.083614 150.508427 
L 198.613536 160.400202 
L 199.408418 180.563931 
L 200.2033 199.678231 
L 200.644901 205.526727 
L 200.909862 206.471169 
L 200.998182 206.315466 
L 201.174822 205.289155 
L 201.439783 202.014495 
L 201.881384 192.54418 
L 202.764586 165.938734 
L 203.471148 147.24167 
L 204.00107 138.641936 
L 204.35435 135.774697 
L 204.619311 134.9798 
L 204.795952 135.010373 
L 204.972592 135.428569 
L 205.325873 137.213389 
L 205.855794 141.508197 
L 208.593721 166.491361 
L 209.388603 171.132566 
L 210.095165 174.05711 
L 210.713407 175.735763 
L 211.243328 176.581336 
L 211.684929 176.921097 
L 212.12653 176.981491 
L 212.568131 176.81512 
L 213.186373 176.298313 
L 214.069575 175.198351 
L 215.482699 173.022196 
L 217.337424 169.740855 
L 221.311834 162.501843 
L 222.724957 160.466677 
L 223.7848 159.287941 
L 224.668002 158.610215 
L 225.462884 158.265371 
L 226.257766 158.161461 
L 227.140969 158.283725 
L 228.112491 158.647998 
L 229.084014 159.244735 
L 229.967216 160.053217 
L 230.762098 161.07692 
L 231.6453 162.610746 
L 232.616823 164.789811 
L 233.853306 168.172158 
L 235.972991 174.769778 
L 237.651076 179.714377 
L 238.445958 181.416529 
L 238.975879 182.089692 
L 239.32916 182.260392 
L 239.682441 182.161956 
L 240.035722 181.751939 
L 240.389003 180.985137 
L 240.830604 179.450167 
L 241.360525 176.623434 
L 241.890446 172.538638 
L 242.508688 165.953018 
L 243.21525 155.964868 
L 244.981654 129.491675 
L 245.246615 127.981986 
L 245.423255 127.74402 
L 245.599896 128.196433 
L 245.864857 130.265455 
L 246.218137 135.687958 
L 246.659739 146.371702 
L 248.602784 200.172889 
L 248.956064 203.260175 
L 249.132705 203.721718 
L 249.221025 203.699632 
L 249.397666 203.186751 
L 249.662626 201.378282 
L 250.104227 196.251657 
L 251.07575 180.952949 
L 252.047272 167.052734 
L 252.753834 159.698626 
L 253.460396 154.622223 
L 254.078638 151.738332 
L 254.608559 150.215988 
L 255.05016 149.513195 
L 255.403441 149.273215 
L 255.756722 149.285697 
L 256.110003 149.520165 
L 256.551604 150.079051 
L 257.169845 151.251218 
L 258.141368 153.669428 
L 261.585857 162.697415 
L 263.087301 165.881749 
L 264.500424 168.369269 
L 265.913548 170.398665 
L 267.326671 172.046189 
L 268.386514 172.98679 
L 269.269716 173.502098 
L 270.064598 173.718282 
L 270.85948 173.700591 
L 271.742683 173.448203 
L 272.802525 172.903854 
L 273.862368 172.126644 
L 274.833891 171.129625 
L 275.717093 169.872168 
L 276.600295 168.199182 
L 277.571818 165.868126 
L 278.808301 162.285434 
L 280.663025 156.118169 
L 282.694391 149.448722 
L 283.400952 147.768583 
L 283.930874 147.006418 
L 284.284155 146.823282 
L 284.549115 146.894652 
L 284.814076 147.172984 
L 285.167357 147.914458 
L 285.608958 149.5409 
L 286.050559 152.09504 
L 286.580481 156.622865 
L 287.198722 164.22531 
L 287.905284 175.966736 
L 289.406728 202.267122 
L 289.760009 205.002338 
L 289.936649 205.364943 
L 290.024969 205.265173 
L 290.20161 204.474484 
L 290.466571 201.769447 
L 290.819851 195.394972 
L 291.349773 180.985487 
L 292.762896 138.970636 
L 293.204498 131.947761 
L 293.557778 129.360823 
L 293.734419 129.010464 
L 293.822739 129.049951 
L 293.99938 129.520706 
L 294.26434 131.082377 
L 294.705941 135.395577 
L 295.677464 148.199697 
L 296.825627 162.215116 
L 297.620509 169.388154 
L 298.327071 173.996361 
L 298.945312 176.811028 
L 299.563554 178.627778 
L 300.093475 179.49492 
L 300.535076 179.802807 
L 300.888357 179.819894 
L 301.329958 179.605659 
L 301.85988 179.08125 
L 302.654762 177.937164 
L 304.067885 175.433951 
L 306.364211 170.908499 
L 310.780222 161.933363 
L 312.193346 159.63058 
L 313.429829 158.03167 
L 314.489672 157.005985 
L 315.549515 156.280367 
L 316.521037 155.88174 
L 317.315919 155.797352 
L 317.934161 155.935513 
L 318.552402 156.298622 
L 319.170644 156.922559 
L 319.877206 157.980166 
L 320.672088 159.607044 
L 321.64361 162.173544 
L 322.703453 165.63843 
L 323.851616 170.208422 
L 325.088099 176.111773 
L 327.207784 186.406658 
L 327.737706 188.002464 
L 328.090987 188.546762 
L 328.355947 188.593331 
L 328.620908 188.261398 
L 328.885869 187.482597 
L 329.23915 185.623073 
L 329.680751 181.737778 
L 330.210672 174.435998 
L 330.828914 162.214492 
L 332.506998 125.755008 
L 332.771959 123.547373 
L 332.948599 123.126208 
L 333.036919 123.250666 
L 333.21356 124.184013 
L 333.47852 127.276638 
L 333.831801 134.291714 
L 334.450043 152.120757 
L 335.598206 185.476548 
L 336.128127 194.364552 
L 336.481408 197.38477 
L 336.746369 198.273198 
L 336.923009 198.294649 
L 337.09965 197.920042 
L 337.36461 196.732699 
L 337.806212 193.513285 
L 338.689414 184.783336 
L 340.102537 170.962867 
L 340.98574 164.262273 
L 341.780622 159.757346 
L 342.487183 156.912064 
L 343.105425 155.210847 
L 343.723667 154.116157 
L 344.341908 153.494164 
L 344.87183 153.246498 
L 345.490071 153.212422 
L 346.108313 153.403948 
L 346.814875 153.873873 
L 347.521436 154.607933 
L 348.404639 155.884746 
L 349.464481 157.852334 
L 351.407526 162.058964 
L 355.293616 170.427337 
L 356.9717 173.571201 
L 358.208184 175.457589 
L 359.091386 176.44487 
L 359.797948 176.930194 
L 360.416189 177.081866 
L 360.946111 176.984738 
L 361.476032 176.665746 
L 362.094274 176.005406 
L 362.800835 174.859111 
L 363.507397 173.260789 
L 364.213959 171.134182 
L 365.008841 167.967701 
L 365.803723 163.829247 
L 366.775246 157.401728 
L 369.424852 138.606896 
L 369.778133 137.655141 
L 369.954774 137.536645 
L 370.131414 137.703224 
L 370.396375 138.567524 
L 370.661335 140.276848 
L 371.014616 144.055637 
L 371.456218 151.410952 
L 372.074459 166.371462 
L 373.487583 204.016484 
L 373.840864 208.37272 
L 374.017504 209.166179 
L 374.105824 209.196647 
L 374.282465 208.521472 
L 374.547425 205.72607 
L 374.900706 199.053538 
L 375.518948 182.025595 
L 376.578791 152.335108 
L 377.108712 142.721632 
L 377.550313 138.101713 
L 377.903594 136.38897 
L 378.168555 136.070642 
L 378.345195 136.24304 
L 378.610156 136.97973 
L 379.051757 139.181986 
L 379.758319 144.221056 
L 382.319605 163.713608 
L 383.202808 168.532561 
L 384.08601 172.139576 
L 384.880892 174.496259 
L 385.675774 176.162155 
L 386.382336 177.140166 
L 387.000577 177.630278 
L 387.530499 177.78398 
L 388.06042 177.698983 
L 388.590341 177.39069 
L 389.296903 176.677003 
L 390.180105 175.4097 
L 391.416589 173.186948 
L 392.918032 170.015894 
L 394.596117 165.901771 
L 398.570527 155.847993 
L 399.63037 153.821686 
L 400.425252 152.707296 
L 401.131813 152.087537 
L 401.661735 151.890255 
L 402.103336 151.926318 
L 402.544937 152.171198 
L 402.986538 152.658668 
L 403.516459 153.625596 
L 404.046381 155.095766 
L 404.664622 157.579741 
L 405.282864 161.0271 
L 405.989426 166.251634 
L 406.872628 174.610084 
L 408.992313 195.936594 
L 409.345594 197.495624 
L 409.522235 197.744815 
L 409.698875 197.568982 
L 409.875516 196.91576 
L 410.140476 194.936744 
L 410.493757 190.243531 
L 410.935358 180.946224 
L 411.5536 162.591779 
L 412.613443 130.080985 
L 413.055044 122.777996 
L 413.320005 121.311745 
L 413.408325 121.333583 
L 413.584965 122.127863 
L 413.849926 125.081254 
L 414.291527 133.860305 
L 415.263049 160.638929 
L 416.057932 179.10369 
L 416.587853 186.899759 
L 417.029454 190.63916 
L 417.382735 192.092352 
L 417.647696 192.440463 
L 417.824336 192.374993 
L 418.089297 191.899978 
L 418.442578 190.694528 
L 418.972499 188.004687 
L 419.944021 181.612884 
L 421.975387 168.079597 
L 423.035229 162.602261 
L 424.006752 158.727755 
L 424.889954 156.104988 
L 425.596516 154.606836 
L 426.214757 153.726539 
L 426.832999 153.230121 
L 427.36292 153.084031 
L 427.892842 153.164038 
L 428.511083 153.499669 
L 429.217645 154.149732 
L 430.012527 155.177416 
L 430.895729 156.678103 
L 431.867252 158.776803 
L 433.015415 161.809057 
L 434.781819 167.213189 
L 438.226308 177.880464 
L 439.197831 180.151826 
L 439.904392 181.304346 
L 440.434314 181.77933 
L 440.787595 181.857303 
L 441.140876 181.702874 
L 441.494157 181.274928 
L 441.935758 180.286781 
L 442.377359 178.710106 
L 442.90728 175.919992 
L 443.525522 171.279537 
L 444.232084 164.060439 
L 445.115286 152.512724 
L 446.528409 133.553361 
L 446.970011 130.301126 
L 447.234971 129.72679 
L 447.411612 130.065057 
L 447.676572 131.808674 
L 448.029853 136.664867 
L 448.471454 146.877242 
L 449.178016 170.460805 
L 450.061218 199.564118 
L 450.50282 207.736304 
L 450.76778 209.609246 
L 450.8561 209.712022 
L 450.944421 209.559938 
L 451.121061 208.521379 
L 451.386022 205.291592 
L 451.827623 196.435399 
L 453.858988 149.746014 
L 454.388909 143.859617 
L 454.830511 141.150728 
L 455.183791 140.176801 
L 455.448752 140.023666 
L 455.625393 140.15646 
L 455.890353 140.658885 
L 456.331954 142.158121 
L 456.950196 145.250248 
L 458.098359 152.48869 
L 459.864763 163.464865 
L 461.012926 169.192078 
L 461.984449 172.967054 
L 462.779331 175.291858 
L 463.485893 176.783244 
L 464.192455 177.766348 
L 464.810696 178.251542 
L 465.340617 178.41805 
L 465.870539 178.371624 
L 466.40046 178.118993 
L 467.018702 177.561689 
L 467.725264 176.569876 
L 468.520146 175.003246 
L 469.403348 172.749899 
L 470.551511 169.169502 
L 471.964634 164.009701 
L 476.115685 148.184288 
L 476.733927 146.904085 
L 477.175528 146.462537 
L 477.440488 146.438636 
L 477.705449 146.627782 
L 478.05873 147.260083 
L 478.412011 148.38939 
L 478.853612 150.601002 
L 479.383533 154.577454 
L 480.001775 161.200473 
L 480.708337 171.342391 
L 482.739702 202.734418 
L 483.004663 203.943679 
L 483.092983 204.012519 
L 483.181303 203.897415 
L 483.357943 203.080697 
L 483.622904 200.290199 
L 483.976185 193.534448 
L 484.506106 177.527384 
L 486.00755 126.847107 
L 486.360831 122.15775 
L 486.537472 121.41027 
L 486.625792 121.427365 
L 486.802432 122.204624 
L 487.067393 125.05553 
L 487.508994 133.29947 
L 489.717 181.345687 
L 490.246921 186.727473 
L 490.688522 189.24458 
L 491.041803 190.173111 
L 491.306764 190.334002 
L 491.483404 190.219689 
L 491.748365 189.757922 
L 492.189966 188.344169 
L 492.808208 185.378337 
L 493.86805 178.903419 
L 495.987736 165.915499 
L 497.135899 160.304484 
L 498.107421 156.628993 
L 498.902303 154.392932 
L 499.608865 152.96923 
L 500.227107 152.134671 
L 500.845348 151.670079 
L 501.37527 151.566106 
L 501.816871 151.691243 
L 502.346792 152.101032 
L 502.876713 152.79566 
L 503.494955 153.957205 
L 504.289837 155.967689 
L 505.261359 159.125984 
L 506.321202 163.351973 
L 507.646006 169.628179 
L 510.560573 183.956315 
L 511.178815 185.922919 
L 511.620416 186.73783 
L 511.885376 186.917807 
L 512.150337 186.820868 
L 512.415298 186.407866 
L 512.768579 185.296614 
L 513.21018 182.877499 
L 513.651781 179.165936 
L 514.181702 172.854634 
L 514.888264 161.317261 
L 516.831309 126.373492 
L 517.09627 124.983682 
L 517.18459 124.917436 
L 517.27291 125.068076 
L 517.449551 126.055457 
L 517.714511 129.340814 
L 518.067792 137.119 
L 518.597714 154.953744 
L 519.834197 200.429737 
L 520.187478 207.234614 
L 520.452438 209.477551 
L 520.540759 209.681306 
L 520.629079 209.623153 
L 520.805719 208.760552 
L 521.07068 205.793763 
L 521.512281 197.446106 
L 523.631966 150.911075 
L 524.161888 145.019271 
L 524.603489 142.109497 
L 524.95677 140.913182 
L 525.22173 140.584625 
L 525.398371 140.603745 
L 525.663332 140.947358 
L 526.016613 141.908565 
L 526.546534 144.185452 
L 527.341416 148.794066 
L 530.785905 170.147975 
L 531.757427 174.445537 
L 532.640629 177.383167 
L 533.347191 179.061279 
L 533.965433 180.040641 
L 534.495354 180.510846 
L 534.936955 180.635341 
L 535.378556 180.51126 
L 535.820158 180.136032 
L 536.350079 179.356673 
L 536.968321 178.007824 
L 537.674882 175.918679 
L 538.558085 172.540043 
L 539.529607 167.900634 
L 540.76609 160.801049 
L 543.327377 145.581575 
L 543.945618 143.206389 
L 544.387219 142.28819 
L 544.65218 142.148156 
L 544.828821 142.256433 
L 545.093781 142.759248 
L 545.447062 144.144761 
L 545.888663 147.187173 
L 546.330264 151.858141 
L 546.860186 159.744653 
L 547.566748 173.813285 
L 548.979871 203.535357 
L 549.333152 207.055029 
L 549.509793 207.578058 
L 549.598113 207.484655 
L 549.774753 206.538015 
L 550.039714 203.127084 
L 550.392995 194.865074 
L 550.922916 175.897028 
L 552.159399 129.083473 
L 552.51268 122.659415 
L 552.777641 120.862796 
L 552.865961 120.826789 
L 553.042602 121.546047 
L 553.307562 124.404107 
L 553.749163 132.808173 
L 555.957169 182.100758 
L 556.48709 187.68422 
L 556.928692 190.259834 
L 557.281972 191.150943 
L 557.458613 191.25799 
L 557.635253 191.164465 
L 557.900214 190.688471 
L 558.253495 189.520284 
L 558.783416 186.890941 
L 559.666619 181.087261 
L 562.581186 160.849999 
L 563.552708 155.838925 
L 564.34759 152.722044 
L 565.054152 150.729349 
L 565.672394 149.600878 
L 566.113995 149.155937 
L 566.555596 149.019711 
L 566.908877 149.136621 
L 567.350478 149.566808 
L 567.8804 150.496125 
L 568.498641 152.13394 
L 569.205203 154.70136 
L 570.088405 158.89154 
L 571.059928 164.649756 
L 572.473051 174.572892 
L 574.062815 185.499704 
L 574.769377 188.901713 
L 575.210978 190.073488 
L 575.475939 190.297714 
L 575.652579 190.21126 
L 575.91754 189.682431 
L 576.270821 188.138069 
L 576.624102 185.511671 
L 577.065703 180.542887 
L 577.595624 171.983469 
L 578.302186 156.618356 
L 579.62699 126.711923 
L 579.98027 122.947404 
L 580.156911 122.415867 
L 580.245231 122.536808 
L 580.421872 123.604239 
L 580.686832 127.358168 
L 581.040113 136.337421 
L 581.570034 156.649109 
L 582.718197 202.296525 
L 583.071478 209.220332 
L 583.336439 211.158432 
L 583.424759 211.194638 
L 583.6014 210.407752 
L 583.86636 207.293987 
L 584.307961 198.158157 
L 586.427647 147.162626 
L 586.957568 141.287168 
L 587.399169 138.773134 
L 587.66413 138.165534 
L 587.840771 138.089286 
L 588.017411 138.249515 
L 588.282372 138.884073 
L 588.635653 140.352288 
L 589.165574 143.563157 
L 590.048776 150.493192 
L 592.521742 170.566526 
L 593.493265 176.445079 
L 594.288147 179.982535 
L 594.906389 181.895472 
L 595.43631 182.937955 
L 595.877911 183.378309 
L 596.231192 183.44629 
L 596.584473 183.259525 
L 596.937754 182.817843 
L 597.379355 181.910588 
L 597.909276 180.313837 
L 598.615838 177.365442 
L 599.41072 173.017853 
L 600.382243 166.417002 
L 601.972007 153.73073 
L 603.20849 144.535723 
L 603.826731 141.297091 
L 604.268333 139.995226 
L 604.533293 139.749902 
L 604.709934 139.849373 
L 604.974894 140.44222 
L 605.328175 142.16203 
L 605.681456 145.073266 
L 606.123057 150.550205 
L 606.652979 159.89895 
L 607.447861 178.641078 
L 608.507703 203.582556 
L 608.860984 208.094736 
L 609.037625 209.005906 
L 609.125945 209.069808 
L 609.302585 208.351207 
L 609.567546 205.032999 
L 609.920827 196.374206 
L 610.450748 175.782231 
L 611.598911 127.522273 
L 611.952192 120.160788 
L 612.217153 118.235327 
L 612.305473 118.273547 
L 612.482113 119.311838 
L 612.747074 123.034614 
L 613.188675 133.625863 
L 615.0434 184.815407 
L 615.573321 191.94145 
L 615.926602 194.467502 
L 616.191563 195.330016 
L 616.368203 195.468208 
L 616.544844 195.292656 
L 616.809805 194.508301 
L 617.163085 192.647062 
L 617.693007 188.55943 
L 618.664529 178.909551 
L 620.430934 161.258923 
L 621.402456 153.827638 
L 622.109018 149.888523 
L 622.72726 147.525174 
L 623.257181 146.312197 
L 623.610462 145.918457 
L 623.963743 145.854328 
L 624.228704 146.020966 
L 624.581984 146.526508 
L 625.023586 147.60593 
L 625.553507 149.535139 
L 626.260069 153.110014 
L 627.143271 158.983869 
L 628.291434 168.366968 
L 630.49944 186.879992 
L 631.117681 190.24025 
L 631.559282 191.520745 
L 631.824243 191.70991 
L 632.000883 191.555664 
L 632.265844 190.856102 
L 632.619125 188.952343 
L 633.060726 184.828815 
L 633.590647 177.109936 
L 634.208889 164.396257 
L 635.975294 124.209484 
L 636.240254 122.166283 
L 636.328574 121.987331 
L 636.416895 122.084241 
L 636.593535 123.153609 
L 636.858496 127.066578 
L 637.211777 136.624299 
L 637.741698 158.637727 
L 638.801541 205.26215 
L 639.154822 212.992678 
L 639.419782 214.746109 
L 639.508103 214.554286 
L 639.684743 213.065367 
L 639.949704 208.339435 
L 640.391305 195.467065 
L 641.981069 143.694993 
L 642.42267 136.224105 
L 642.775951 132.987595 
L 643.040912 131.998611 
L 643.217552 131.946488 
L 643.394192 132.327031 
L 643.659153 133.60725 
L 644.100754 137.253376 
L 644.807316 145.591638 
L 647.103642 174.425059 
L 647.898524 181.121971 
L 648.516766 184.653614 
L 649.046687 186.491623 
L 649.399968 187.11993 
L 649.664929 187.287165 
L 649.929889 187.20144 
L 650.19485 186.870213 
L 650.548131 186.06035 
L 650.989732 184.484447 
L 651.607973 181.305313 
L 652.402856 175.768758 
L 653.462698 166.515296 
L 655.935665 144.103685 
L 656.553906 140.626462 
L 656.995507 139.325919 
L 657.260468 139.137976 
L 657.437108 139.293594 
L 657.702069 139.989043 
L 658.05535 141.86031 
L 658.496951 145.868836 
L 659.026872 153.30104 
L 659.645114 165.475258 
L 661.588159 207.031446 
L 661.85312 208.23578 
L 661.94144 208.125599 
L 662.11808 207.059053 
L 662.383041 203.207874 
L 662.736322 193.760622 
L 663.266243 171.643909 
L 664.414406 120.848313 
L 664.767687 114.703129 
L 664.944328 114.282236 
L 665.120968 115.632199 
L 665.385929 120.726075 
L 665.82753 135.61162 
L 667.328974 193.434132 
L 667.770575 201.291565 
L 668.035535 203.433404 
L 668.212176 203.88788 
L 668.300496 203.847745 
L 668.477137 203.278563 
L 668.742097 201.346929 
L 669.183698 195.898101 
L 669.97858 182.203115 
L 671.391704 157.855177 
L 672.098266 149.147403 
L 672.716507 144.049766 
L 673.158109 141.864159 
L 673.511389 140.957378 
L 673.77635 140.744915 
L 673.952991 140.815686 
L 674.217951 141.225091 
L 674.571232 142.302197 
L 675.012833 144.42356 
L 675.631075 148.636731 
L 676.425957 155.714889 
L 677.839081 170.74888 
L 679.163884 184.014914 
L 679.870446 189.109306 
L 680.312047 191.113206 
L 680.665328 191.889574 
L 680.841968 191.964952 
L 681.018609 191.814382 
L 681.283569 191.138031 
L 681.63685 189.337264 
L 682.078451 185.542631 
L 682.608373 178.635324 
L 683.226614 167.47988 
L 684.463097 139.599225 
L 685.081339 128.253843 
L 685.43462 124.827824 
L 685.61126 124.329983 
L 685.699581 124.433399 
L 685.876221 125.405371 
L 686.141182 128.917628 
L 686.494463 137.62725 
L 686.936064 154.544697 
L 688.349187 214.976479 
L 688.614148 218.174567 
L 688.702468 218.246996 
L 688.879109 216.871829 
L 689.144069 211.160731 
L 689.585671 193.695291 
L 690.998794 129.431883 
L 691.352075 122.790823 
L 691.617036 121.121887 
L 691.705356 121.148425 
L 691.881996 121.993707 
L 692.146957 124.999845 
L 692.588558 133.490732 
L 693.648401 160.839944 
L 694.443283 178.708512 
L 695.061525 188.175677 
L 695.503126 192.301002 
L 695.856407 194.079904 
L 696.121367 194.587392 
L 696.298008 194.55919 
L 696.474648 194.256383 
L 696.739609 193.324138 
L 697.18121 190.641168 
L 697.799452 184.98077 
L 698.682654 174.401788 
L 700.802339 148.013979 
L 701.508901 142.051247 
L 702.038822 139.350804 
L 702.392103 138.560085 
L 702.568744 138.497406 
L 702.745384 138.668351 
L 703.010345 139.379759 
L 703.363626 141.210454 
L 703.805227 144.958936 
L 704.335148 151.586707 
L 705.04171 163.669294 
L 707.073075 201.834854 
L 707.426356 204.185893 
L 707.514676 204.32966 
L 707.602997 204.274114 
L 707.779637 203.525659 
L 708.044598 200.683357 
L 708.397879 193.456716 
L 708.83948 178.97221 
L 709.634362 143.051205 
L 710.252603 118.957421 
L 710.605884 112.848423 
L 710.694204 112.546564 
L 710.782525 112.776942 
L 710.959165 114.866467 
L 711.224126 121.997649 
L 711.665727 142.830189 
L 712.90221 208.719966 
L 713.255491 215.75349 
L 713.432131 216.45883 
L 713.520452 216.142973 
L 713.697092 214.274798 
L 713.962053 208.779483 
L 714.491974 191.203799 
L 715.728457 146.832609 
L 716.258379 135.475567 
L 716.61166 131.338445 
L 716.87662 129.945648 
L 717.053261 129.76619 
L 717.229901 130.135826 
L 717.494862 131.616317 
L 717.848143 135.059349 
L 718.378064 142.571041 
L 719.437907 161.622401 
L 720.58607 180.919021 
L 721.292632 189.251347 
L 721.822553 193.001103 
L 722.175834 194.17169 
L 722.352474 194.341342 
L 722.529115 194.229858 
L 722.794075 193.53352 
L 723.147356 191.624356 
L 723.588957 187.710475 
L 724.118879 180.949465 
L 724.913761 167.428552 
L 726.768486 134.032068 
L 727.210087 130.069347 
L 727.475047 129.278339 
L 727.563368 129.324133 
L 727.740008 129.921023 
L 728.004969 132.167675 
L 728.35825 137.861986 
L 728.799851 149.383053 
L 729.418092 172.314442 
L 730.389615 209.231652 
L 730.742896 215.782345 
L 730.919536 216.483077 
L 731.007856 216.096912 
L 731.184497 213.77054 
L 731.449458 206.338125 
L 731.891059 184.526107 
L 733.127542 113.977601 
L 733.392503 109.253607 
L 733.480823 108.977478 
L 733.569143 109.348714 
L 733.745783 111.962309 
L 734.010744 120.078121 
L 734.540665 146.522028 
L 735.512188 195.876926 
L 735.953789 207.518738 
L 736.21875 210.348512 
L 736.39539 210.61026 
L 736.572031 209.693378 
L 736.836991 206.393158 
L 737.278592 196.966966 
L 738.250115 168.701671 
L 739.133317 146.081253 
L 739.663239 137.22913 
L 740.10484 133.124625 
L 740.3698 132.109956 
L 740.546441 132.021138 
L 740.723081 132.386217 
L 740.988042 133.744828 
L 741.341323 136.952388 
L 741.871244 144.315489 
L 742.666126 159.367591 
L 744.34421 192.165662 
L 744.874132 198.19329 
L 745.227413 200.011045 
L 745.404053 200.147003 
L 745.580694 199.725823 
L 745.845654 197.996234 
L 746.198935 193.563048 
L 746.640536 184.615484 
L 747.258778 166.58334 
L 748.671902 122.603756 
L 748.936862 119.153372 
L 749.113503 118.57854 
L 749.201823 118.873617 
L 749.378463 120.712615 
L 749.643424 126.74057 
L 749.996705 140.807898 
L 750.614947 177.480007 
L 751.321508 216.471309 
L 751.586469 223.154149 
L 751.763109 223.971254 
L 751.93975 221.670324 
L 752.204711 212.540825 
L 752.646312 185.352482 
L 753.617834 120.312247 
L 753.971115 110.494281 
L 754.147756 109.541022 
L 754.324396 111.098809 
L 754.589357 117.569046 
L 755.030958 136.279285 
L 756.267441 194.502732 
L 756.709042 205.190538 
L 756.974003 208.040993 
L 757.150643 208.515755 
L 757.238963 208.349492 
L 757.415604 207.261545 
L 757.680565 203.922279 
L 758.122166 194.706027 
L 758.917048 171.714363 
L 759.97689 142.344857 
L 760.506812 132.997033 
L 760.860093 129.664593 
L 761.125053 128.836633 
L 761.213374 128.887289 
L 761.390014 129.480327 
L 761.654975 131.58622 
L 762.008256 136.572637 
L 762.538177 148.169493 
L 763.333059 171.679183 
L 764.304582 199.338697 
L 764.746183 206.514222 
L 765.011143 207.994456 
L 765.099464 207.933906 
L 765.276104 206.915408 
L 765.541065 203.029959 
L 765.894346 193.350832 
L 766.424267 170.270211 
L 767.57243 115.090751 
L 767.837391 110.420348 
L 767.925711 110.149262 
L 768.014031 110.582365 
L 768.190671 113.648041 
L 768.455632 123.785397 
L 768.897233 153.306833 
L 769.780436 219.346633 
L 770.045396 227.724825 
L 770.133716 228.552903 
L 770.222037 228.353789 
L 770.398677 224.906345 
L 770.663638 212.74448 
L 771.193559 172.025591 
L 771.900121 120.639504 
L 772.253402 109.247217 
L 772.430042 108.08188 
L 772.518362 108.59172 
L 772.695003 111.63036 
L 773.048284 124.433076 
L 773.754846 163.715693 
L 774.461407 198.118895 
L 774.903009 209.393317 
L 775.167969 211.637296 
L 775.256289 211.643914 
L 775.43293 210.599036 
L 775.697891 206.588382 
L 776.139492 194.557295 
L 776.934374 163.771065 
L 777.729256 135.318261 
L 778.170857 125.814687 
L 778.435818 123.230686 
L 778.612458 122.946681 
L 778.789099 123.851538 
L 779.054059 127.438682 
L 779.40734 136.183484 
L 779.937261 156.252075 
L 781.262065 210.283038 
L 781.527026 214.378501 
L 781.615346 214.806298 
L 781.703666 214.722233 
L 781.880306 212.942898 
L 782.145267 206.099657 
L 782.498548 189.459474 
L 783.20511 140.199973 
L 783.735031 109.870108 
L 783.999992 104.545069 
L 784.088312 104.775855 
L 784.264953 108.491932 
L 784.529913 122.121642 
L 784.971514 161.624804 
L 785.678076 225.083288 
L 785.943037 233.325565 
L 786.031357 233.256475 
L 786.207997 228.821519 
L 786.472958 212.408291 
L 787.00288 158.970721 
L 787.532801 112.541812 
L 787.797762 102.301802 
L 787.886082 101.265092 
L 787.974402 101.414176 
L 788.151042 105.10266 
L 788.416003 117.993476 
L 788.945924 159.384332 
L 789.564166 204.935268 
L 789.917447 218.45208 
L 790.094087 220.718756 
L 790.182408 220.716123 
L 790.359048 218.528248 
L 790.624009 210.298999 
L 791.06561 186.767885 
L 792.125453 124.502151 
L 792.478734 115.399366 
L 792.655374 114.453302 
L 792.743694 114.92823 
L 792.920335 117.766513 
L 793.185295 126.516991 
L 793.626896 150.821174 
L 794.686739 214.983088 
L 794.9517 220.418215 
L 795.04002 220.544198 
L 795.216661 218.056664 
L 795.481621 207.415597 
L 795.834902 181.870608 
L 796.806425 103.812639 
L 796.983065 100.781268 
L 797.071385 101.584149 
L 797.248026 108.074366 
L 797.512986 129.471957 
L 798.572829 239.594912 
L 798.661149 239.660027 
L 798.83779 232.410989 
L 799.10275 204.622564 
L 799.985953 87.873873 
L 800.074273 85.791445 
L 800.162593 86.624094 
L 800.339234 96.866074 
L 800.604194 130.264451 
L 801.399076 241.846593 
L 801.575717 245.066664 
L 801.752357 236.812422 
L 802.017318 206.16789 
L 802.8122 92.668153 
L 802.98884 86.913013 
L 803.077161 88.377596 
L 803.253801 99.903543 
L 803.607082 150.026493 
L 804.225324 241.411166 
L 804.401964 246.36536 
L 804.578604 236.755868 
L 804.843565 197.032418 
L 805.461807 80.883269 
L 805.550127 76.239725 
L 805.638447 77.301891 
L 805.815088 97.679595 
L 806.168368 195.25698 
L 806.521649 269.860199 
L 806.60997 266.267173 
L 806.78661 223.308467 
L 807.316531 45.251032 
L 807.493172 109.339731 
L 807.846453 300.24358 
L 807.934773 277.808286 
L 808.288054 40.991008 
L 808.464694 165.314825 
L 808.641335 257.829633 
L 808.906295 109.321089 
L 808.994616 110.169655 
L 809.259576 204.459515 
L 809.436217 162.451025 
L 809.524537 143.401999 
L 809.612857 144.232681 
L 809.877818 180.355986 
L 810.142779 156.656061 
L 810.231099 158.026063 
L 810.49606 170.991895 
L 810.76102 162.031192 
L 810.84934 162.976094 
L 811.114301 167.478174 
L 811.114301 167.478174 
" clip-path="url(#p25d465de12)" style="fill: none; stroke: #1f77b4; stroke-width: 0.6; stroke-linecap: square"/>
   </g>
   <g id="line2d_28">
    <path d="M 88.301574 168.806467 
L 88.831495 169.026697 
L 89.273096 168.996818 
L 89.714697 168.755656 
L 90.244619 168.182971 
L 90.86286 167.141485 
L 91.657742 165.279001 
L 92.629265 162.377356 
L 94.66063 156.066341 
L 95.190551 155.163498 
L 95.543832 154.945373 
L 95.808793 155.027493 
L 96.073754 155.345369 
L 96.427035 156.16684 
L 96.868636 157.871299 
L 97.398557 160.928276 
L 98.105119 166.597188 
L 99.253282 178.266603 
L 100.048164 185.535036 
L 100.489765 187.780265 
L 100.666405 188.067746 
L 100.754726 188.051114 
L 100.931366 187.661196 
L 101.196327 186.08692 
L 101.549608 181.93365 
L 101.991209 173.329516 
L 102.697771 153.714963 
L 103.404332 135.163082 
L 103.757613 130.289881 
L 103.934254 129.557692 
L 104.022574 129.661256 
L 104.199214 130.829947 
L 104.464175 134.935044 
L 104.905776 147.108586 
L 106.3189 192.801912 
L 106.672181 197.23177 
L 106.848821 197.947102 
L 106.937141 197.950888 
L 107.113782 197.304589 
L 107.378743 194.906464 
L 107.820344 188.158116 
L 109.498428 159.090637 
L 110.028349 154.048123 
L 110.469951 151.628942 
L 110.823231 150.690224 
L 111.088192 150.477274 
L 111.353153 150.622857 
L 111.706434 151.285482 
L 112.148035 152.712865 
L 112.854597 155.943479 
L 115.327563 168.251609 
L 116.034125 170.316546 
L 116.564046 171.271748 
L 117.005647 171.712521 
L 117.447248 171.871472 
L 117.888849 171.790205 
L 118.418771 171.429441 
L 119.037012 170.713948 
L 119.831894 169.429912 
L 120.980057 167.099112 
L 122.746462 163.520541 
L 123.541344 162.381755 
L 124.247906 161.739133 
L 124.866147 161.461673 
L 125.484389 161.424844 
L 126.10263 161.598891 
L 126.809192 162.025701 
L 127.604074 162.770829 
L 128.575597 164.023223 
L 129.98872 166.280797 
L 131.490164 168.577923 
L 132.373366 169.571905 
L 133.168249 170.142398 
L 133.78649 170.346311 
L 134.404732 170.318303 
L 135.022973 170.034112 
L 135.641215 169.470023 
L 136.347777 168.466494 
L 137.142659 166.902327 
L 138.202501 164.275796 
L 140.675468 157.974185 
L 141.47035 156.584315 
L 142.000271 156.002658 
L 142.441872 155.793285 
L 142.795153 155.842597 
L 143.148434 156.114269 
L 143.590035 156.806691 
L 144.031636 157.932016 
L 144.561558 159.893394 
L 145.179799 163.028383 
L 145.974681 168.249033 
L 148.535968 186.478101 
L 148.889249 187.485208 
L 149.065889 187.638966 
L 149.24253 187.514377 
L 149.41917 187.076512 
L 149.684131 185.757342 
L 150.037412 182.601149 
L 150.479013 176.184367 
L 151.008934 164.964043 
L 152.510378 129.665988 
L 152.775339 127.226523 
L 152.951979 126.828544 
L 153.12862 127.483985 
L 153.39358 130.461665 
L 153.746861 137.881779 
L 154.365103 157.42482 
L 155.336625 188.045968 
L 155.778226 195.995228 
L 156.131507 198.776296 
L 156.308148 199.04186 
L 156.484788 198.638263 
L 156.749749 196.951844 
L 157.19135 191.989451 
L 158.251193 175.876724 
L 159.134395 164.172352 
L 159.840957 157.576765 
L 160.459198 153.770945 
L 160.98912 151.771675 
L 161.430721 150.871653 
L 161.784002 150.590821 
L 162.048962 150.609067 
L 162.402243 150.90575 
L 162.843844 151.656023 
L 163.462086 153.265483 
L 164.433608 156.608152 
L 166.906575 165.45723 
L 168.054738 168.671231 
L 169.02626 170.756832 
L 169.821142 171.941375 
L 170.439384 172.494034 
L 170.969305 172.700748 
L 171.499226 172.66904 
L 172.029148 172.420749 
L 172.73571 171.809582 
L 173.618912 170.720683 
L 175.032036 168.568827 
L 177.858283 163.749229 
L 179.448047 161.270561 
L 180.59621 159.873088 
L 181.567732 159.024978 
L 182.362614 158.60285 
L 183.069176 158.481985 
L 183.687418 158.616913 
L 184.305659 159.015353 
L 184.923901 159.704841 
L 185.630463 160.860087 
L 186.425345 162.598554 
L 187.485187 165.497362 
L 189.074951 170.592429 
L 191.547918 178.536753 
L 192.25448 180.121439 
L 192.784401 180.817672 
L 193.137682 180.970743 
L 193.402642 180.8924 
L 193.755923 180.496742 
L 194.109204 179.729821 
L 194.550805 178.184663 
L 195.080727 175.359402 
L 195.698968 170.544903 
L 196.40553 162.844564 
L 197.288732 150.237687 
L 198.436895 133.952004 
L 198.790176 131.165011 
L 199.055137 130.446091 
L 199.143457 130.517719 
L 199.320098 131.174677 
L 199.585058 133.527048 
L 199.938339 139.302366 
L 200.468261 153.069841 
L 202.058025 199.980735 
L 202.411305 204.231837 
L 202.676266 205.136088 
L 202.764586 205.017397 
L 202.941227 204.192263 
L 203.206188 201.63583 
L 203.647789 194.680738 
L 205.767474 156.311852 
L 206.297395 151.357843 
L 206.827317 148.376443 
L 207.268918 147.094656 
L 207.622199 146.687572 
L 207.887159 146.675077 
L 208.15212 146.872737 
L 208.505401 147.410027 
L 209.035322 148.681296 
L 209.830204 151.319818 
L 211.331648 157.357953 
L 212.921412 163.411535 
L 214.157896 167.241951 
L 215.306058 170.071812 
L 216.277581 171.891803 
L 217.072463 172.933769 
L 217.779025 173.491198 
L 218.397266 173.695568 
L 219.015508 173.659682 
L 219.72207 173.377118 
L 220.605272 172.767222 
L 221.930075 171.54366 
L 223.343199 169.933484 
L 224.579682 168.183591 
L 226.081126 165.626866 
L 229.702255 159.27812 
L 230.850418 157.747702 
L 231.821941 156.811055 
L 232.616823 156.339434 
L 233.323384 156.154496 
L 234.029946 156.188565 
L 234.736508 156.448608 
L 235.44307 156.972268 
L 236.061311 157.711407 
L 236.679553 158.800581 
L 237.297795 160.33945 
L 238.004356 162.768488 
L 238.799238 166.459217 
L 239.682441 171.73095 
L 241.007244 181.262762 
L 242.243727 189.671924 
L 242.773649 191.858305 
L 243.038609 192.304755 
L 243.21525 192.286376 
L 243.39189 191.97305 
L 243.656851 190.870411 
L 244.010132 188.041165 
L 244.451733 182.035543 
L 244.981654 171.13084 
L 245.953177 144.661079 
L 246.659739 128.495019 
L 247.013019 124.242571 
L 247.27798 123.282705 
L 247.3663 123.408297 
L 247.542941 124.321924 
L 247.807902 127.268737 
L 248.249503 135.724015 
L 249.132705 159.272185 
L 249.927587 178.116001 
L 250.457508 186.282684 
L 250.899109 190.188844 
L 251.25239 191.661775 
L 251.517351 191.972552 
L 251.693991 191.866189 
L 251.958952 191.319107 
L 252.400553 189.621875 
L 253.107115 185.690344 
L 255.933362 168.716134 
L 256.904885 164.518425 
L 257.788087 161.644343 
L 258.671289 159.529626 
L 259.554492 157.98147 
L 260.437694 156.855723 
L 261.232576 156.166007 
L 261.939138 155.828804 
L 262.557379 155.767246 
L 263.175621 155.929915 
L 263.882183 156.372985 
L 264.765385 157.238303 
L 266.090188 158.915816 
L 268.563155 162.453043 
L 270.329559 165.354693 
L 274.922211 173.200551 
L 276.070374 174.603309 
L 277.041896 175.437626 
L 277.836778 175.852372 
L 278.63166 176.020708 
L 279.338222 175.948084 
L 279.956464 175.674215 
L 280.574705 175.136387 
L 281.104627 174.392537 
L 281.722868 173.090685 
L 282.34111 171.205456 
L 283.047672 168.205791 
L 283.842554 163.657803 
L 284.725756 157.201401 
L 286.40384 142.684793 
L 287.110402 137.645037 
L 287.552003 135.895317 
L 287.728644 135.666862 
L 287.905284 135.773725 
L 288.081924 136.260413 
L 288.346885 137.794917 
L 288.700166 141.527377 
L 289.141767 149.112756 
L 289.760009 164.693071 
L 291.173132 202.724003 
L 291.526413 207.092851 
L 291.791374 208.10799 
L 291.879694 208.005886 
L 292.056335 207.159026 
L 292.321295 204.387129 
L 292.762896 196.487722 
L 293.734419 172.624638 
L 294.529301 155.759413 
L 295.059222 148.273301 
L 295.500823 144.376772 
L 295.942425 142.288433 
L 296.295705 141.658672 
L 296.472346 141.622971 
L 296.737307 141.855339 
L 297.090587 142.596419 
L 297.620509 144.372136 
L 298.503711 148.34628 
L 301.594919 163.067105 
L 302.743082 167.13571 
L 303.802925 170.121457 
L 304.774447 172.262668 
L 305.657649 173.69907 
L 306.364211 174.476985 
L 307.070773 174.926941 
L 307.689015 175.076408 
L 308.395576 175.018868 
L 309.278779 174.699481 
L 310.338621 174.074012 
L 311.398464 173.210465 
L 312.369987 172.143897 
L 313.429829 170.618178 
L 314.666312 168.414479 
L 316.874318 163.929511 
L 322.261852 152.886354 
L 323.145054 151.691552 
L 323.674975 151.26791 
L 324.116577 151.159184 
L 324.469857 151.27565 
L 324.823138 151.60971 
L 325.264739 152.386748 
L 325.706341 153.625966 
L 326.236262 155.810041 
L 326.854504 159.430455 
L 327.561065 165.094805 
L 328.355947 173.416878 
L 330.652273 199.481811 
L 330.917234 200.304629 
L 331.005554 200.335451 
L 331.182195 199.985707 
L 331.447155 198.333521 
L 331.800436 193.833063 
L 332.242037 184.468639 
L 332.948599 162.909978 
L 333.920122 133.463475 
L 334.361723 125.865327 
L 334.626683 123.860259 
L 334.803324 123.605819 
L 334.979964 124.175176 
L 335.244925 126.427824 
L 335.686526 133.145025 
L 336.569728 151.804221 
L 337.452931 168.824945 
L 338.071172 177.177198 
L 338.601094 181.915078 
L 339.131015 184.76663 
L 339.572616 185.988838 
L 339.925897 186.363005 
L 340.190858 186.352098 
L 340.455818 186.128337 
L 340.809099 185.548708 
L 341.339021 184.196053 
L 342.133903 181.411722 
L 343.811987 174.369361 
L 345.401751 168.121525 
L 346.638234 164.084365 
L 347.786397 161.074439 
L 348.75792 159.117832 
L 349.641122 157.789973 
L 350.524324 156.826771 
L 351.407526 156.157708 
L 352.290729 155.754067 
L 353.085611 155.64202 
L 353.792172 155.778986 
L 354.498734 156.162841 
L 355.293616 156.88832 
L 356.176818 158.013392 
L 357.324981 159.865347 
L 358.561465 162.290153 
L 359.709627 165.026203 
L 360.946111 168.580911 
L 362.624195 174.172248 
L 364.65556 180.839105 
L 365.450442 182.744662 
L 365.980364 183.505021 
L 366.333644 183.693079 
L 366.598605 183.629461 
L 366.863566 183.364476 
L 367.216847 182.656394 
L 367.658448 181.119836 
L 368.100049 178.754311 
L 368.62997 174.670219 
L 369.248212 168.000909 
L 369.954774 157.823873 
L 371.809498 128.651211 
L 372.074459 127.014614 
L 372.2511 126.725626 
L 372.42774 127.163346 
L 372.692701 129.295972 
L 373.045982 134.99634 
L 373.487583 146.357436 
L 375.342307 201.817624 
L 375.695588 205.30737 
L 375.872229 205.820101 
L 375.960549 205.78634 
L 376.137189 205.179108 
L 376.40215 203.068831 
L 376.843751 197.11363 
L 377.815274 179.474002 
L 378.786796 163.749024 
L 379.493358 155.716224 
L 380.1116 151.017725 
L 380.641521 148.476234 
L 381.083122 147.243258 
L 381.436403 146.752281 
L 381.789684 146.64103 
L 382.142965 146.856101 
L 382.584566 147.505762 
L 383.202808 148.9571 
L 384.08601 151.712473 
L 388.590341 166.703559 
L 389.915145 170.09001 
L 391.151628 172.658192 
L 392.211471 174.391173 
L 393.094673 175.454939 
L 393.889555 176.065254 
L 394.596117 176.308881 
L 395.214358 176.29293 
L 395.92092 176.028986 
L 396.627482 175.519827 
L 397.422364 174.652146 
L 398.217246 173.430458 
L 399.012128 171.784188 
L 399.89533 169.385899 
L 400.866853 166.046753 
L 402.103336 160.895689 
L 404.223021 150.827658 
L 405.282864 146.338497 
L 405.901106 144.540791 
L 406.342707 143.895935 
L 406.607667 143.846387 
L 406.872628 144.099654 
L 407.137589 144.699279 
L 407.49087 146.116404 
L 407.932471 149.035766 
L 408.462392 154.48865 
L 409.080634 163.814262 
L 409.875516 179.970385 
L 410.935358 201.681254 
L 411.37696 206.465542 
L 411.5536 207.072937 
L 411.64192 207.05346 
L 411.818561 206.331825 
L 412.083521 203.490058 
L 412.436802 196.496439 
L 412.966724 180.470041 
L 414.291527 137.235312 
L 414.733128 129.707243 
L 415.086409 127.210327 
L 415.263049 127.052492 
L 415.43969 127.539968 
L 415.704651 129.313866 
L 416.146252 134.365363 
L 417.029454 148.110877 
L 418.177617 164.861098 
L 418.972499 173.206736 
L 419.590741 177.719562 
L 420.208982 180.669269 
L 420.738903 182.118531 
L 421.180505 182.683723 
L 421.533785 182.783013 
L 421.887066 182.620405 
L 422.328668 182.117565 
L 422.946909 180.993264 
L 423.830111 178.832191 
L 425.154915 174.918603 
L 430.100847 159.62263 
L 431.337331 156.818463 
L 432.308853 155.136126 
L 433.103735 154.150747 
L 433.810297 153.58368 
L 434.428538 153.333128 
L 435.04678 153.328188 
L 435.576701 153.542625 
L 436.106623 153.987852 
L 436.724864 154.840101 
L 437.343106 156.091832 
L 438.049668 158.04466 
L 438.84455 160.911258 
L 439.816072 165.328307 
L 440.964235 171.71904 
L 443.967123 189.3466 
L 444.408724 190.384857 
L 444.673685 190.50841 
L 444.850325 190.339676 
L 445.115286 189.654798 
L 445.468567 187.816563 
L 445.910168 183.785614 
L 446.351769 177.574169 
L 446.970011 165.114832 
L 448.824735 123.30862 
L 449.089696 121.927954 
L 449.178016 121.961899 
L 449.354657 122.807376 
L 449.619617 126.02928 
L 449.972898 133.729898 
L 450.59114 153.872373 
L 451.650982 188.98953 
L 452.092584 197.725044 
L 452.445864 201.366097 
L 452.710825 202.273689 
L 452.799145 202.264332 
L 452.975786 201.827538 
L 453.240747 200.262305 
L 453.682348 195.832123 
L 454.56555 183.677351 
L 455.802033 167.215756 
L 456.596915 159.318628 
L 457.303477 154.348392 
L 457.921718 151.468864 
L 458.45164 149.947263 
L 458.893241 149.240711 
L 459.246522 148.984124 
L 459.599803 148.959804 
L 460.041404 149.204636 
L 460.571325 149.831944 
L 461.189567 150.938368 
L 461.984449 152.841056 
L 463.044292 156.021497 
L 464.899016 162.488511 
L 467.195342 170.293477 
L 468.608466 174.33988 
L 469.668309 176.742326 
L 470.551511 178.223452 
L 471.258073 179.004177 
L 471.787994 179.310511 
L 472.229595 179.353477 
L 472.671196 179.178356 
L 473.112797 178.762207 
L 473.642719 177.916817 
L 474.26096 176.421866 
L 474.967522 174.013794 
L 475.762404 170.388949 
L 476.645606 165.197017 
L 477.617129 158.108468 
L 480.090095 139.098266 
L 480.531696 137.606838 
L 480.796657 137.4106 
L 480.973297 137.636417 
L 481.238258 138.591958 
L 481.591539 141.185187 
L 482.03314 146.853038 
L 482.563061 157.47194 
L 483.269623 177.029385 
L 484.241146 203.69488 
L 484.594427 209.068895 
L 484.859387 210.484527 
L 484.947708 210.403907 
L 485.124348 209.390565 
L 485.389309 205.777528 
L 485.74259 197.45193 
L 486.360831 176.562799 
L 487.332354 144.331645 
L 487.862275 133.981667 
L 488.215556 130.636043 
L 488.480517 129.821094 
L 488.568837 129.835657 
L 488.745477 130.246238 
L 489.010438 131.690542 
L 489.452039 135.762284 
L 490.246921 145.842827 
L 491.748365 164.760733 
L 492.543247 172.134997 
L 493.249809 176.81966 
L 493.86805 179.586567 
L 494.397972 181.103823 
L 494.839573 181.855502 
L 495.281174 182.20728 
L 495.634455 182.235846 
L 495.987736 182.063302 
L 496.429337 181.591908 
L 496.959258 180.690299 
L 497.66582 178.997349 
L 498.549022 176.264116 
L 499.962146 171.04773 
L 503.759916 156.682222 
L 504.908079 153.323509 
L 505.791281 151.393684 
L 506.409522 150.485705 
L 506.939444 150.064877 
L 507.381045 150.007309 
L 507.734326 150.175257 
L 508.175927 150.676405 
L 508.617528 151.524231 
L 509.147449 153.02937 
L 509.765691 155.500011 
L 510.472253 159.329583 
L 511.267135 164.996114 
L 512.238657 173.80319 
L 514.358343 193.974528 
L 514.799944 195.899365 
L 514.976584 196.149473 
L 515.153225 196.039225 
L 515.329865 195.525722 
L 515.594826 193.908645 
L 515.948107 189.98064 
L 516.389708 181.963977 
L 516.919629 167.951321 
L 518.509393 122.224243 
L 518.774354 119.70728 
L 518.862674 119.452816 
L 518.950994 119.501665 
L 519.127635 120.514253 
L 519.392596 124.255555 
L 519.745876 132.896163 
L 520.452438 157.628386 
L 521.335641 186.607656 
L 521.865562 196.778321 
L 522.218843 200.043944 
L 522.483803 200.838263 
L 522.572124 200.824493 
L 522.748764 200.425898 
L 523.013725 199.020869 
L 523.455326 195.045574 
L 524.250208 185.109983 
L 525.751652 166.095264 
L 526.546534 158.554905 
L 527.253096 153.706495 
L 527.871337 150.799243 
L 528.401259 149.180336 
L 528.84286 148.37173 
L 529.284461 148.000705 
L 529.637742 147.989929 
L 529.991023 148.212241 
L 530.432624 148.789971 
L 530.962545 149.875406 
L 531.669107 151.879927 
L 532.640629 155.402686 
L 534.142073 161.833652 
L 537.409922 176.088165 
L 538.469764 179.597633 
L 539.176326 181.305592 
L 539.794568 182.251048 
L 540.236169 182.547246 
L 540.58945 182.524485 
L 540.942731 182.248363 
L 541.384332 181.517184 
L 541.825933 180.323765 
L 542.355854 178.233796 
L 542.974096 174.817658 
L 543.680658 169.533821 
L 544.47554 161.817016 
L 545.712023 147.174199 
L 546.683545 136.647929 
L 547.125146 133.713748 
L 547.390107 132.934531 
L 547.566748 132.930427 
L 547.743388 133.39885 
L 548.008349 135.094368 
L 548.36163 139.424204 
L 548.803231 148.411832 
L 549.421472 167.056915 
L 550.657955 206.756149 
L 551.011236 211.79622 
L 551.187877 212.474243 
L 551.276197 212.325501 
L 551.452838 211.051845 
L 551.717798 206.803325 
L 552.159399 194.515375 
L 553.925804 136.816399 
L 554.367405 131.122508 
L 554.632366 129.778339 
L 554.809006 129.639756 
L 554.985647 130.033947 
L 555.250607 131.479528 
L 555.692208 135.628494 
L 556.48709 146.093094 
L 557.988534 166.163922 
L 558.783416 174.035316 
L 559.489978 179.01043 
L 560.10822 181.903192 
L 560.638141 183.415355 
L 561.079742 184.066576 
L 561.433023 184.225833 
L 561.786304 184.090046 
L 562.139585 183.683037 
L 562.581186 182.829624 
L 563.199428 181.078929 
L 563.99431 178.074529 
L 565.142473 172.733064 
L 567.527119 160.186287 
L 568.940242 153.410669 
L 569.911765 149.779256 
L 570.618327 147.951361 
L 571.148248 147.167545 
L 571.501529 146.976685 
L 571.766489 147.027715 
L 572.11977 147.376661 
L 572.473051 148.070675 
L 572.914652 149.461039 
L 573.444574 151.954929 
L 574.062815 156.086394 
L 574.769377 162.495212 
L 575.652579 172.879079 
L 577.595624 196.913436 
L 577.948905 198.97666 
L 578.213866 199.427814 
L 578.390506 199.097195 
L 578.655467 197.516093 
L 579.008748 193.142087 
L 579.450349 183.76244 
L 580.068591 164.053993 
L 581.216754 124.685942 
L 581.570034 118.727493 
L 581.746675 117.686222 
L 581.834995 117.685999 
L 582.011636 118.735975 
L 582.276596 122.84948 
L 582.629877 132.449543 
L 583.336439 159.631405 
L 584.131321 187.832284 
L 584.572922 197.52412 
L 584.926203 201.637127 
L 585.191164 202.758935 
L 585.279484 202.797586 
L 585.456124 202.424163 
L 585.721085 200.876159 
L 586.162686 196.276808 
L 586.957568 184.539918 
L 588.370692 163.462899 
L 589.165574 154.815094 
L 589.783815 150.096747 
L 590.313737 147.377627 
L 590.843658 145.76524 
L 591.196939 145.245454 
L 591.4619 145.122049 
L 591.72686 145.211013 
L 592.080141 145.635491 
L 592.521742 146.61047 
L 593.051664 148.344846 
L 593.758226 151.427315 
L 594.818068 157.188624 
L 598.969119 181.113464 
L 599.675681 183.587887 
L 600.205602 184.784473 
L 600.647203 185.261975 
L 600.912164 185.292076 
L 601.177125 185.112502 
L 601.530406 184.523335 
L 601.972007 183.1827 
L 602.501928 180.620716 
L 603.12017 176.233778 
L 603.826731 169.327465 
L 604.709934 158.114188 
L 606.476338 134.422406 
L 606.917939 131.404235 
L 607.1829 130.897477 
L 607.35954 131.230937 
L 607.624501 132.881666 
L 607.977782 137.475442 
L 608.419383 147.321993 
L 609.037625 167.911768 
L 610.185788 208.077628 
L 610.539069 213.554257 
L 610.715709 214.180993 
L 610.804029 213.93185 
L 610.98067 212.305848 
L 611.24563 207.169257 
L 611.687231 192.675595 
L 613.276996 133.301171 
L 613.630276 127.772709 
L 613.895237 126.013526 
L 614.071878 125.8699 
L 614.248518 126.45693 
L 614.513479 128.511695 
L 614.95508 134.303584 
L 615.838282 150.199726 
L 616.986445 169.96657 
L 617.693007 178.763026 
L 618.311248 183.962647 
L 618.84117 186.671328 
L 619.282771 187.823054 
L 619.547732 188.080382 
L 619.812692 188.041244 
L 620.077653 187.728711 
L 620.430934 186.925643 
L 620.960855 184.998936 
L 621.667417 181.348631 
L 622.638939 174.965892 
L 626.171748 150.425756 
L 626.966631 146.886878 
L 627.496552 145.348085 
L 627.938153 144.663551 
L 628.203114 144.544429 
L 628.468074 144.662297 
L 628.733035 145.031762 
L 629.086316 145.939461 
L 629.527917 147.781113 
L 630.057838 151.082376 
L 630.67608 156.474987 
L 631.470962 165.731838 
L 632.707445 183.608277 
L 633.590647 195.309341 
L 634.032249 198.99481 
L 634.297209 200.012227 
L 634.47385 200.06676 
L 634.65049 199.553215 
L 634.915451 197.599605 
L 635.268732 192.562064 
L 635.710333 182.154092 
L 636.328574 160.931202 
L 637.388417 123.067244 
L 637.741698 117.00126 
L 637.918339 116.152878 
L 638.006659 116.324399 
L 638.183299 117.88081 
L 638.44826 123.170516 
L 638.889861 138.665933 
L 640.391305 200.66642 
L 640.744586 206.751423 
L 641.009546 208.375554 
L 641.097867 208.39826 
L 641.274507 207.737496 
L 641.539468 205.194726 
L 641.981069 197.84139 
L 642.952591 175.804675 
L 643.924114 156.100648 
L 644.542355 147.480957 
L 645.072277 142.770939 
L 645.513878 140.600311 
L 645.867159 139.887658 
L 646.043799 139.838187 
L 646.22044 139.97624 
L 646.4854 140.507303 
L 646.838681 141.755678 
L 647.368603 144.596042 
L 648.075164 149.733869 
L 649.311648 160.708003 
L 651.078052 176.181373 
L 651.961254 182.178136 
L 652.667816 185.558678 
L 653.197738 187.07867 
L 653.551018 187.547769 
L 653.815979 187.592531 
L 654.08094 187.360817 
L 654.434221 186.602539 
L 654.875822 184.900013 
L 655.405743 181.707362 
L 656.023985 176.382498 
L 656.818867 167.179263 
L 658.05535 149.414816 
L 659.026872 136.537011 
L 659.468474 132.808063 
L 659.733434 131.683094 
L 659.910075 131.511363 
L 660.086715 131.865579 
L 660.351676 133.493278 
L 660.704957 137.92848 
L 661.146558 147.36153 
L 661.676479 163.997986 
L 663.089603 211.72174 
L 663.354564 214.78083 
L 663.442884 215.022572 
L 663.531204 214.849595 
L 663.707844 213.229008 
L 663.972805 207.630941 
L 664.326086 194.866666 
L 665.120968 154.719785 
L 665.73921 128.796933 
L 666.092491 120.849359 
L 666.357451 118.655063 
L 666.445771 118.612919 
L 666.622412 119.48344 
L 666.887373 122.904395 
L 667.328974 132.826693 
L 669.360339 185.818826 
L 669.89026 192.331052 
L 670.243541 194.614128 
L 670.508502 195.352452 
L 670.685142 195.425033 
L 670.861783 195.191309 
L 671.126743 194.322538 
L 671.480024 192.329905 
L 672.009946 187.943588 
L 672.893148 178.318197 
L 675.101154 153.33621 
L 675.896036 147.006584 
L 676.514277 143.706556 
L 676.955878 142.337674 
L 677.309159 141.877585 
L 677.57412 141.916635 
L 677.839081 142.291697 
L 678.192361 143.320391 
L 678.633963 145.45738 
L 679.163884 149.249205 
L 679.870446 156.261552 
L 680.753648 167.607884 
L 682.696693 193.779585 
L 683.138294 197.167908 
L 683.403255 198.172966 
L 683.579895 198.321436 
L 683.756536 198.00099 
L 684.021496 196.550216 
L 684.374777 192.619743 
L 684.816378 184.259817 
L 685.3463 169.355878 
L 686.936064 119.112378 
L 687.201024 116.729837 
L 687.289345 116.708524 
L 687.465985 117.922912 
L 687.730946 122.98473 
L 688.084227 135.501328 
L 688.702468 168.131113 
L 689.40903 203.769726 
L 689.762311 213.78123 
L 690.027272 216.563361 
L 690.115592 216.580621 
L 690.292232 215.321125 
L 690.557193 210.522739 
L 690.998794 196.732693 
L 692.588558 140.812518 
L 693.030159 133.174414 
L 693.38344 130.217639 
L 693.560081 129.701137 
L 693.648401 129.663468 
L 693.825041 129.997215 
L 694.090002 131.419061 
L 694.443283 134.744261 
L 695.061525 143.296665 
L 697.622811 182.527354 
L 698.241053 187.941325 
L 698.682654 190.343706 
L 699.035935 191.36154 
L 699.300895 191.597159 
L 699.477536 191.505151 
L 699.742497 190.998987 
L 700.095777 189.65363 
L 700.537379 186.943941 
L 701.15562 181.404439 
L 701.950502 171.837959 
L 704.600109 137.023347 
L 705.04171 134.481278 
L 705.306671 133.972664 
L 705.483311 134.124137 
L 705.659952 134.703373 
L 705.924912 136.433791 
L 706.278193 140.463371 
L 706.719794 148.390661 
L 707.338036 164.531901 
L 708.9278 209.918099 
L 709.192761 212.254337 
L 709.281081 212.352638 
L 709.369401 212.078857 
L 709.546042 210.357684 
L 709.811002 204.722552 
L 710.164283 191.653463 
L 710.782525 157.959965 
L 711.489087 121.351742 
L 711.842367 112.177648 
L 712.019008 110.880362 
L 712.107328 111.087589 
L 712.283969 113.171594 
L 712.548929 120.124519 
L 712.99053 139.339702 
L 714.227014 197.344051 
L 714.668615 206.882812 
L 714.933575 208.933456 
L 715.021896 209.049642 
L 715.110216 208.901946 
L 715.286856 207.870452 
L 715.551817 204.709646 
L 715.993418 196.196214 
L 717.053261 169.059369 
L 717.936463 149.400659 
L 718.554705 140.329142 
L 718.996306 136.579314 
L 719.349587 135.203133 
L 719.526227 135.034335 
L 719.702868 135.196198 
L 719.967828 136.028137 
L 720.321109 138.152989 
L 720.85103 143.22379 
L 721.557592 152.663599 
L 724.295519 192.563894 
L 724.73712 195.484907 
L 725.002081 196.294765 
L 725.178722 196.396999 
L 725.355362 196.126706 
L 725.620323 194.986826 
L 725.973604 192.031043 
L 726.415205 185.967263 
L 726.945126 175.357381 
L 727.740008 154.340709 
L 728.711531 129.07635 
L 729.153132 122.761265 
L 729.329772 121.911829 
L 729.418092 121.916644 
L 729.594733 122.859769 
L 729.859693 126.776418 
L 730.212974 136.864191 
L 730.742896 161.250478 
L 731.802738 214.713523 
L 732.067699 220.550335 
L 732.24434 221.417104 
L 732.42098 219.689007 
L 732.685941 212.319978 
L 733.039222 194.912231 
L 734.364025 119.548025 
L 734.628986 114.152822 
L 734.805626 113.166259 
L 734.893946 113.421084 
L 735.070587 115.31631 
L 735.335547 121.178586 
L 735.777149 136.651495 
L 737.190272 190.372803 
L 737.631873 199.346928 
L 737.985154 202.89643 
L 738.161795 203.519801 
L 738.250115 203.561125 
L 738.426755 203.134093 
L 738.691716 201.323559 
L 739.044997 197.041785 
L 739.574918 187.642214 
L 742.047885 138.701701 
L 742.489486 134.694753 
L 742.842767 133.248546 
L 743.019407 133.144012 
L 743.196048 133.460445 
L 743.461008 134.728163 
L 743.814289 137.881334 
L 744.25589 144.058004 
L 744.874132 156.292991 
L 746.993817 203.056873 
L 747.258778 205.077499 
L 747.435418 205.399535 
L 747.612059 204.805635 
L 747.87702 202.053146 
L 748.2303 194.706105 
L 748.671902 179.752722 
L 749.466784 142.443636 
L 750.085025 117.536649 
L 750.349986 112.399952 
L 750.526626 111.704416 
L 750.703267 113.46472 
L 750.968227 120.893528 
L 751.321508 139.078315 
L 752.646312 221.685173 
L 752.822952 224.61254 
L 752.911272 224.889854 
L 752.999593 224.378765 
L 753.176233 221.076366 
L 753.441194 211.040744 
L 753.971115 179.138518 
L 754.765997 131.897877 
L 755.119278 120.150973 
L 755.384239 116.249346 
L 755.472559 115.86265 
L 755.560879 115.909663 
L 755.73752 117.225768 
L 756.00248 121.896547 
L 756.444081 135.031455 
L 758.210486 195.166157 
L 758.652087 201.885018 
L 758.917048 203.602273 
L 759.093688 203.798223 
L 759.270329 203.262995 
L 759.535289 201.166496 
L 759.88857 196.196774 
L 760.418492 185.010795 
L 761.478334 156.099151 
L 762.273216 136.912127 
L 762.714817 130.093878 
L 763.068098 127.519606 
L 763.244739 127.337871 
L 763.421379 127.945138 
L 763.68634 130.387737 
L 764.039621 136.530237 
L 764.481222 148.570737 
L 765.187784 175.074527 
L 766.070986 206.956192 
L 766.424267 213.373916 
L 766.600907 214.220197 
L 766.689228 213.960788 
L 766.865868 211.980192 
L 767.130829 205.199656 
L 767.48411 189.233116 
L 768.102351 148.334072 
L 768.720593 111.967365 
L 768.985553 105.321157 
L 769.073874 104.831367 
L 769.162194 105.270503 
L 769.338834 108.982761 
L 769.603795 121.344608 
L 770.045396 155.553744 
L 770.840278 217.343839 
L 771.105239 226.137081 
L 771.281879 227.291959 
L 771.45852 224.745334 
L 771.72348 214.786043 
L 772.165082 186.979949 
L 773.048284 129.459562 
L 773.401565 117.426638 
L 773.666525 114.086906 
L 773.754846 114.031059 
L 773.931486 115.399118 
L 774.196447 120.758457 
L 774.638048 136.350691 
L 776.227812 200.896875 
L 776.581093 207.001833 
L 776.846054 208.508499 
L 776.934374 208.419172 
L 777.111014 207.370081 
L 777.375975 203.712928 
L 777.729256 195.350568 
L 778.347497 173.715797 
L 779.583981 128.574989 
L 779.937261 122.100509 
L 780.202222 120.638195 
L 780.290542 120.87311 
L 780.467183 122.480931 
L 780.732143 127.785297 
L 781.085424 140.057114 
L 781.703666 172.251506 
L 782.498548 212.993119 
L 782.763509 219.55744 
L 782.940149 220.583354 
L 783.028469 219.960983 
L 783.20511 216.317498 
L 783.47007 204.826039 
L 783.911672 172.122194 
L 784.706554 108.289316 
L 784.971514 100.144425 
L 785.059835 99.918154 
L 785.236475 103.458004 
L 785.501436 118.374865 
L 785.943037 161.63464 
L 786.561278 220.959422 
L 786.826239 231.950334 
L 786.914559 232.899833 
L 787.00288 232.465843 
L 787.17952 227.606044 
L 787.444481 211.652723 
L 788.151042 146.128602 
L 788.592644 115.019362 
L 788.857604 106.66341 
L 788.945924 105.798225 
L 789.034245 105.879093 
L 789.210885 108.744236 
L 789.475846 118.989918 
L 789.917447 146.877063 
L 790.800649 204.446085 
L 791.15393 215.728411 
L 791.330571 217.61031 
L 791.418891 217.581084 
L 791.595531 215.618044 
L 791.860492 208.214272 
L 792.302093 186.373336 
L 793.538576 118.010947 
L 793.803537 113.542635 
L 793.891857 113.420522 
L 794.068498 115.337999 
L 794.333458 123.604595 
L 794.686739 143.622184 
L 795.923222 223.882397 
L 796.011543 224.931274 
L 796.099863 224.818014 
L 796.276503 220.935173 
L 796.541464 205.980433 
L 796.983065 162.086284 
L 797.601307 102.148101 
L 797.777947 95.959076 
L 797.866267 95.729116 
L 798.042908 101.417972 
L 798.307868 124.685362 
L 799.279391 241.952544 
L 799.367711 243.276995 
L 799.456031 241.859629 
L 799.632672 230.906555 
L 799.985953 182.980396 
L 800.604194 93.319235 
L 800.780835 85.35237 
L 800.869155 85.73974 
L 801.045795 95.162205 
L 801.310756 127.499501 
L 802.105638 239.968335 
L 802.282279 244.476296 
L 802.370599 242.43982 
L 802.547239 230.158254 
L 802.90052 180.621609 
L 803.518762 92.722377 
L 803.695402 86.375038 
L 803.783722 87.858256 
L 803.960363 100.214038 
L 804.313644 155.204586 
L 804.843565 242.763332 
L 805.020206 249.925058 
L 805.108526 246.86706 
L 805.285166 227.011299 
L 805.638447 146.064578 
L 805.991728 74.024278 
L 806.080048 69.245786 
L 806.168368 72.436888 
L 806.345009 104.233959 
L 806.963251 278.000856 
L 807.139891 233.309645 
L 807.581492 35.55267 
L 807.669812 50.754214 
L 808.111413 294.095926 
L 808.464694 55.260695 
L 808.553015 94.040853 
L 808.817975 239.066527 
L 809.082936 117.490699 
L 809.171256 126.741087 
L 809.436217 195.269321 
L 809.701178 146.690712 
L 809.789498 151.480952 
L 810.054458 176.437934 
L 810.319419 158.26353 
L 810.49606 166.052116 
L 810.58438 169.580231 
L 810.6727 169.377321 
L 810.937661 162.779013 
L 811.114301 166.006417 
L 811.114301 166.006417 
" clip-path="url(#p25d465de12)" style="fill: none; stroke: #ff7f0e; stroke-width: 0.6; stroke-linecap: square"/>
   </g>
   <g id="patch_3">
    <path d="M 52.160938 313.478125 
L 52.160938 22.318125 
" style="fill: none; stroke: #000000; stroke-width: 0.8; stroke-linejoin: miter; stroke-linecap: square"/>
   </g>
   <g id="patch_4">
    <path d="M 847.254937 313.478125 
L 847.254937 22.318125 
" style="fill: none; stroke: #000000; stroke-width: 0.8; stroke-linejoin: miter; stroke-linecap: square"/>
   </g>
   <g id="patch_5">
    <path d="M 52.160938 313.478125 
L 847.254937 313.478125 
" style="fill: none; stroke: #000000; stroke-width: 0.8; stroke-linejoin: miter; stroke-linecap: square"/>
   </g>
   <g id="patch_6">
    <path d="M 52.160938 22.318125 
L 847.254937 22.318125 
" style="fill: none; stroke: #000000; stroke-width: 0.8; stroke-linejoin: miter; stroke-linecap: square"/>
   </g>
   <g id="text_16">
    <!-- M=60, e=0.27, f_min=10 Hz -->
    <g transform="translate(363.504812 16.318125) scale(0.12 -0.12)">
     <defs>
      <path id="DejaVuSans-4d" d="M 628 4666 
L 1569 4666 
L 2759 1491 
L 3956 4666 
L 4897 4666 
L 4897 0 
L 4281 0 
L 4281 4097 
L 3078 897 
L 2444 897 
L 1241 4097 
L 1241 0 
L 628 0 
L 628 4666 
z
" transform="scale(0.015625)"/>
      <path id="DejaVuSans-3d" d="M 678 2906 
L 4684 2906 
L 4684 2381 
L 678 2381 
L 678 2906 
z
M 678 1631 
L 4684 1631 
L 4684 1100 
L 678 1100 
L 678 1631 
z
" transform="scale(0.015625)"/>
      <path id="DejaVuSans-2c" d="M 750 794 
L 1409 794 
L 1409 256 
L 897 -744 
L 494 -744 
L 750 256 
L 750 794 
z
" transform="scale(0.015625)"/>
      <path id="DejaVuSans-65" d="M 3597 1894 
L 3597 1613 
L 953 1613 
Q 991 1019 1311 708 
Q 1631 397 2203 397 
Q 2534 397 2845 478 
Q 3156 559 3463 722 
L 3463 178 
Q 3153 47 2828 -22 
Q 2503 -91 2169 -91 
Q 1331 -91 842 396 
Q 353 884 353 1716 
Q 353 2575 817 3079 
Q 1281 3584 2069 3584 
Q 2775 3584 3186 3129 
Q 3597 2675 3597 1894 
z
M 3022 2063 
Q 3016 2534 2758 2815 
Q 2500 3097 2075 3097 
Q 1594 3097 1305 2825 
Q 1016 2553 972 2059 
L 3022 2063 
z
" transform="scale(0.015625)"/>
      <path id="DejaVuSans-37" d="M 525 4666 
L 3525 4666 
L 3525 4397 
L 1831 0 
L 1172 0 
L 2766 4134 
L 525 4134 
L 525 4666 
z
" transform="scale(0.015625)"/>
      <path id="DejaVuSans-66" d="M 2375 4863 
L 2375 4384 
L 1825 4384 
Q 1516 4384 1395 4259 
Q 1275 4134 1275 3809 
L 1275 3500 
L 2222 3500 
L 2222 3053 
L 1275 3053 
L 1275 0 
L 697 0 
L 697 3053 
L 147 3053 
L 147 3500 
L 697 3500 
L 697 3744 
Q 697 4328 969 4595 
Q 1241 4863 1831 4863 
L 2375 4863 
z
" transform="scale(0.015625)"/>
      <path id="DejaVuSans-5f" d="M 3263 -1063 
L 3263 -1509 
L -63 -1509 
L -63 -1063 
L 3263 -1063 
z
" transform="scale(0.015625)"/>
      <path id="DejaVuSans-6d" d="M 3328 2828 
Q 3544 3216 3844 3400 
Q 4144 3584 4550 3584 
Q 5097 3584 5394 3201 
Q 5691 2819 5691 2113 
L 5691 0 
L 5113 0 
L 5113 2094 
Q 5113 2597 4934 2840 
Q 4756 3084 4391 3084 
Q 3944 3084 3684 2787 
Q 3425 2491 3425 1978 
L 3425 0 
L 2847 0 
L 2847 2094 
Q 2847 2600 2669 2842 
Q 2491 3084 2119 3084 
Q 1678 3084 1418 2786 
Q 1159 2488 1159 1978 
L 1159 0 
L 581 0 
L 581 3500 
L 1159 3500 
L 1159 2956 
Q 1356 3278 1631 3431 
Q 1906 3584 2284 3584 
Q 2666 3584 2933 3390 
Q 3200 3197 3328 2828 
z
" transform="scale(0.015625)"/>
      <path id="DejaVuSans-69" d="M 603 3500 
L 1178 3500 
L 1178 0 
L 603 0 
L 603 3500 
z
M 603 4863 
L 1178 4863 
L 1178 4134 
L 603 4134 
L 603 4863 
z
" transform="scale(0.015625)"/>
      <path id="DejaVuSans-6e" d="M 3513 2113 
L 3513 0 
L 2938 0 
L 2938 2094 
Q 2938 2591 2744 2837 
Q 2550 3084 2163 3084 
Q 1697 3084 1428 2787 
Q 1159 2491 1159 1978 
L 1159 0 
L 581 0 
L 581 3500 
L 1159 3500 
L 1159 2956 
Q 1366 3272 1645 3428 
Q 1925 3584 2291 3584 
Q 2894 3584 3203 3211 
Q 3513 2838 3513 2113 
z
" transform="scale(0.015625)"/>
      <path id="DejaVuSans-48" d="M 628 4666 
L 1259 4666 
L 1259 2753 
L 3553 2753 
L 3553 4666 
L 4184 4666 
L 4184 0 
L 3553 0 
L 3553 2222 
L 1259 2222 
L 1259 0 
L 628 0 
L 628 4666 
z
" transform="scale(0.015625)"/>
      <path id="DejaVuSans-7a" d="M 353 3500 
L 3084 3500 
L 3084 2975 
L 922 459 
L 3084 459 
L 3084 0 
L 275 0 
L 275 525 
L 2438 3041 
L 353 3041 
L 353 3500 
z
" transform="scale(0.015625)"/>
     </defs>
     <use xlink:href="#DejaVuSans-4d"/>
     <use xlink:href="#DejaVuSans-3d" transform="translate(86.279297 0)"/>
     <use xlink:href="#DejaVuSans-36" transform="translate(170.068359 0)"/>
     <use xlink:href="#DejaVuSans-30" transform="translate(233.691406 0)"/>
     <use xlink:href="#DejaVuSans-2c" transform="translate(297.314453 0)"/>
     <use xlink:href="#DejaVuSans-20" transform="translate(329.101562 0)"/>
     <use xlink:href="#DejaVuSans-65" transform="translate(360.888672 0)"/>
     <use xlink:href="#DejaVuSans-3d" transform="translate(422.412109 0)"/>
     <use xlink:href="#DejaVuSans-30" transform="translate(506.201172 0)"/>
     <use xlink:href="#DejaVuSans-2e" transform="translate(569.824219 0)"/>
     <use xlink:href="#DejaVuSans-32" transform="translate(601.611328 0)"/>
     <use xlink:href="#DejaVuSans-37" transform="translate(665.234375 0)"/>
     <use xlink:href="#DejaVuSans-2c" transform="translate(728.857422 0)"/>
     <use xlink:href="#DejaVuSans-20" transform="translate(760.644531 0)"/>
     <use xlink:href="#DejaVuSans-66" transform="translate(792.431641 0)"/>
     <use xlink:href="#DejaVuSans-5f" transform="translate(827.636719 0)"/>
     <use xlink:href="#DejaVuSans-6d" transform="translate(877.636719 0)"/>
     <use xlink:href="#DejaVuSans-69" transform="translate(975.048828 0)"/>
     <use xlink:href="#DejaVuSans-6e" transform="translate(1002.832031 0)"/>
     <use xlink:href="#DejaVuSans-3d" transform="translate(1066.210938 0)"/>
     <use xlink:href="#DejaVuSans-31" transform="translate(1150 0)"/>
     <use xlink:href="#DejaVuSans-30" transform="translate(1213.623047 0)"/>
     <use xlink:href="#DejaVuSans-20" transform="translate(1277.246094 0)"/>
     <use xlink:href="#DejaVuSans-48" transform="translate(1309.033203 0)"/>
     <use xlink:href="#DejaVuSans-7a" transform="translate(1384.228516 0)"/>
    </g>
   </g>
   <g id="legend_1">
    <g id="patch_7">
     <path d="M 59.160938 59.674375 
L 123.960938 59.674375 
Q 125.960938 59.674375 125.960938 57.674375 
L 125.960938 29.318125 
Q 125.960938 27.318125 123.960938 27.318125 
L 59.160938 27.318125 
Q 57.160938 27.318125 57.160938 29.318125 
L 57.160938 57.674375 
Q 57.160938 59.674375 59.160938 59.674375 
z
" style="fill: #ffffff; opacity: 0.8; stroke: #cccccc; stroke-linejoin: miter"/>
    </g>
    <g id="line2d_29">
     <path d="M 61.160938 35.416562 
L 71.160938 35.416562 
L 81.160938 35.416562 
" style="fill: none; stroke: #1f77b4; stroke-width: 0.6; stroke-linecap: square"/>
    </g>
    <g id="text_17">
     <!-- $h_+$ -->
     <g transform="translate(89.160938 38.916562) scale(0.1 -0.1)">
      <defs>
       <path id="DejaVuSans-2b" d="M 2944 4013 
L 2944 2272 
L 4684 2272 
L 4684 1741 
L 2944 1741 
L 2944 0 
L 2419 0 
L 2419 1741 
L 678 1741 
L 678 2272 
L 2419 2272 
L 2419 4013 
L 2944 4013 
z
" transform="scale(0.015625)"/>
      </defs>
      <use xlink:href="#DejaVuSans-Oblique-68" transform="translate(0 0.015625)"/>
      <use xlink:href="#DejaVuSans-2b" transform="translate(77.016602 -16.390625) scale(0.7)"/>
     </g>
    </g>
    <g id="line2d_30">
     <path d="M 61.160938 50.094688 
L 71.160938 50.094688 
L 81.160938 50.094688 
" style="fill: none; stroke: #ff7f0e; stroke-width: 0.6; stroke-linecap: square"/>
    </g>
    <g id="text_18">
     <!-- $h_	imes$ -->
     <g transform="translate(89.160938 53.594688) scale(0.1 -0.1)">
      <defs>
       <path id="DejaVuSans-Oblique-69" d="M 1172 4863 
L 1747 4863 
L 1606 4134 
L 1031 4134 
L 1172 4863 
z
M 909 3500 
L 1484 3500 
L 800 0 
L 225 0 
L 909 3500 
z
" transform="scale(0.015625)"/>
       <path id="DejaVuSans-Oblique-6d" d="M 5747 2113 
L 5338 0 
L 4763 0 
L 5166 2094 
Q 5191 2228 5203 2325 
Q 5216 2422 5216 2491 
Q 5216 2772 5059 2928 
Q 4903 3084 4622 3084 
Q 4203 3084 3875 2770 
Q 3547 2456 3450 1953 
L 3066 0 
L 2491 0 
L 2900 2094 
Q 2925 2209 2937 2307 
Q 2950 2406 2950 2484 
Q 2950 2769 2794 2926 
Q 2638 3084 2363 3084 
Q 1938 3084 1609 2770 
Q 1281 2456 1184 1953 
L 800 0 
L 225 0 
L 909 3500 
L 1484 3500 
L 1375 2956 
Q 1609 3263 1923 3423 
Q 2238 3584 2597 3584 
Q 2978 3584 3223 3384 
Q 3469 3184 3519 2828 
Q 3781 3197 4126 3390 
Q 4472 3584 4856 3584 
Q 5306 3584 5551 3325 
Q 5797 3066 5797 2591 
Q 5797 2488 5784 2364 
Q 5772 2241 5747 2113 
z
" transform="scale(0.015625)"/>
       <path id="DejaVuSans-Oblique-65" d="M 3078 2063 
Q 3088 2113 3092 2166 
Q 3097 2219 3097 2272 
Q 3097 2653 2873 2875 
Q 2650 3097 2266 3097 
Q 1838 3097 1509 2826 
Q 1181 2556 1013 2059 
L 3078 2063 
z
M 3578 1613 
L 903 1613 
Q 884 1494 878 1425 
Q 872 1356 872 1306 
Q 872 872 1139 634 
Q 1406 397 1894 397 
Q 2269 397 2603 481 
Q 2938 566 3225 728 
L 3116 159 
Q 2806 34 2476 -28 
Q 2147 -91 1806 -91 
Q 1078 -91 686 257 
Q 294 606 294 1247 
Q 294 1794 489 2264 
Q 684 2734 1063 3103 
Q 1306 3334 1642 3459 
Q 1978 3584 2356 3584 
Q 2950 3584 3301 3228 
Q 3653 2872 3653 2272 
Q 3653 2128 3634 1964 
Q 3616 1800 3578 1613 
z
" transform="scale(0.015625)"/>
       <path id="DejaVuSans-Oblique-73" d="M 3200 3397 
L 3091 2853 
Q 2863 2978 2609 3040 
Q 2356 3103 2088 3103 
Q 1634 3103 1373 2948 
Q 1113 2794 1113 2528 
Q 1113 2219 1719 2053 
Q 1766 2041 1788 2034 
L 1972 1978 
Q 2547 1819 2739 1644 
Q 2931 1469 2931 1166 
Q 2931 609 2489 259 
Q 2047 -91 1331 -91 
Q 1053 -91 747 -37 
Q 441 16 72 128 
L 184 722 
Q 500 559 806 475 
Q 1113 391 1394 391 
Q 1816 391 2080 572 
Q 2344 753 2344 1031 
Q 2344 1331 1650 1516 
L 1591 1531 
L 1394 1581 
Q 956 1697 753 1886 
Q 550 2075 550 2369 
Q 550 2928 970 3256 
Q 1391 3584 2113 3584 
Q 2397 3584 2667 3537 
Q 2938 3491 3200 3397 
z
" transform="scale(0.015625)"/>
      </defs>
      <use xlink:href="#DejaVuSans-Oblique-68" transform="translate(0 0.015625)"/>
      <use xlink:href="#DejaVuSans-20" transform="translate(63.378906 -16.390625) scale(0.7)"/>
      <use xlink:href="#DejaVuSans-Oblique-69" transform="translate(88.364258 0.015625)"/>
      <use xlink:href="#DejaVuSans-Oblique-6d" transform="translate(116.147461 0.015625)"/>
      <use xlink:href="#DejaVuSans-Oblique-65" transform="translate(213.55957 0.015625)"/>
      <use xlink:href="#DejaVuSans-Oblique-73" transform="translate(275.083008 0.015625)"/>
     </g>
    </g>
   </g>
  </g>
 </g>
 <defs>
  <clipPath id="p25d465de12">
   <rect x="52.160938" y="22.318125" width="795.094" height="291.16"/>
  </clipPath>
 </defs>
</svg>
