<?xml version="1.0" encoding="utf-8" standalone="no"?>
<!DOCTYPE svg PUBLIC "-//W3C//DTD SVG 1.1//EN"
  "http://www.w3.org/Graphics/SVG/1.1/DTD/svg11.dtd">
<svg xmlns:xlink="http://www.w3.org/1999/xlink" width="854.454937pt" height="351.034375pt" viewBox="0 0 854.454937 351.034375" xmlns="http://www.w3.org/2000/svg" version="1.1">
 <metadata>
  <rdf:RDF xmlns:dc="http://purl.org/dc/elements/1.1/" xmlns:cc="http://creativecommons.org/ns#" xmlns:rdf="http://www.w3.org/1999/02/22-rdf-syntax-ns#">
   <cc:Work>
    <dc:type rdf:resource="http://purl.org/dc/dcmitype/StillImage"/>
    <dc:date>2025-07-24T14:39:30.543612</dc:date>
    <dc:format>image/svg+xml</dc:format>
    <dc:creator>
     <cc:Agent>
      <dc:title>Matplotlib v3.10.3, https://matplotlib.org/</dc:title>
     </cc:Agent>
    </dc:creator>
   </cc:Work>
  </rdf:RDF>
 </metadata>
 <defs>
  <style type="text/css">*{stroke-linejoin: round; stroke-linecap: butt}</style>
 </defs>
 <g id="figure_1">
  <g id="patch_1">
   <path d="M 0 351.034375 
L 854.454937 351.034375 
L 854.454937 0 
L 0 0 
z
" style="fill: #ffffff"/>
  </g>
  <g id="axes_1">
   <g id="patch_2">
    <path d="M 52.160938 313.478125 
L 847.254937 313.478125 
L 847.254937 22.318125 
L 52.160938 22.318125 
z
" style="fill: #ffffff"/>
   </g>
   <g id="matplotlib.axis_1">
    <g id="xtick_1">
     <g id="line2d_1">
      <path d="M 63.570205 313.478125 
L 63.570205 22.318125 
" clip-path="url(#pd4b4b6b53d)" style="fill: none; stroke: #b0b0b0; stroke-width: 0.8; stroke-linecap: square"/>
     </g>
     <g id="line2d_2">
      <defs>
       <path id="m29311bc7af" d="M 0 0 
L 0 3.5 
" style="stroke: #000000; stroke-width: 0.8"/>
      </defs>
      <g>
       <use xlink:href="#m29311bc7af" x="63.570205" y="313.478125" style="stroke: #000000; stroke-width: 0.8"/>
      </g>
     </g>
     <g id="text_1">
      <!-- −14000 -->
      <g transform="translate(43.474111 328.076563) scale(0.1 -0.1)">
       <defs>
        <path id="DejaVuSans-2212" d="M 678 2272 
L 4684 2272 
L 4684 1741 
L 678 1741 
L 678 2272 
z
" transform="scale(0.015625)"/>
        <path id="DejaVuSans-31" d="M 794 531 
L 1825 531 
L 1825 4091 
L 703 3866 
L 703 4441 
L 1819 4666 
L 2450 4666 
L 2450 531 
L 3481 531 
L 3481 0 
L 794 0 
L 794 531 
z
" transform="scale(0.015625)"/>
        <path id="DejaVuSans-34" d="M 2419 4116 
L 825 1625 
L 2419 1625 
L 2419 4116 
z
M 2253 4666 
L 3047 4666 
L 3047 1625 
L 3713 1625 
L 3713 1100 
L 3047 1100 
L 3047 0 
L 2419 0 
L 2419 1100 
L 313 1100 
L 313 1709 
L 2253 4666 
z
" transform="scale(0.015625)"/>
        <path id="DejaVuSans-30" d="M 2034 4250 
Q 1547 4250 1301 3770 
Q 1056 3291 1056 2328 
Q 1056 1369 1301 889 
Q 1547 409 2034 409 
Q 2525 409 2770 889 
Q 3016 1369 3016 2328 
Q 3016 3291 2770 3770 
Q 2525 4250 2034 4250 
z
M 2034 4750 
Q 2819 4750 3233 4129 
Q 3647 3509 3647 2328 
Q 3647 1150 3233 529 
Q 2819 -91 2034 -91 
Q 1250 -91 836 529 
Q 422 1150 422 2328 
Q 422 3509 836 4129 
Q 1250 4750 2034 4750 
z
" transform="scale(0.015625)"/>
       </defs>
       <use xlink:href="#DejaVuSans-2212"/>
       <use xlink:href="#DejaVuSans-31" transform="translate(83.789062 0)"/>
       <use xlink:href="#DejaVuSans-34" transform="translate(147.412109 0)"/>
       <use xlink:href="#DejaVuSans-30" transform="translate(211.035156 0)"/>
       <use xlink:href="#DejaVuSans-30" transform="translate(274.658203 0)"/>
       <use xlink:href="#DejaVuSans-30" transform="translate(338.28125 0)"/>
      </g>
     </g>
    </g>
    <g id="xtick_2">
     <g id="line2d_3">
      <path d="M 169.948499 313.478125 
L 169.948499 22.318125 
" clip-path="url(#pd4b4b6b53d)" style="fill: none; stroke: #b0b0b0; stroke-width: 0.8; stroke-linecap: square"/>
     </g>
     <g id="line2d_4">
      <g>
       <use xlink:href="#m29311bc7af" x="169.948499" y="313.478125" style="stroke: #000000; stroke-width: 0.8"/>
      </g>
     </g>
     <g id="text_2">
      <!-- −12000 -->
      <g transform="translate(149.852405 328.076563) scale(0.1 -0.1)">
       <defs>
        <path id="DejaVuSans-32" d="M 1228 531 
L 3431 531 
L 3431 0 
L 469 0 
L 469 531 
Q 828 903 1448 1529 
Q 2069 2156 2228 2338 
Q 2531 2678 2651 2914 
Q 2772 3150 2772 3378 
Q 2772 3750 2511 3984 
Q 2250 4219 1831 4219 
Q 1534 4219 1204 4116 
Q 875 4013 500 3803 
L 500 4441 
Q 881 4594 1212 4672 
Q 1544 4750 1819 4750 
Q 2544 4750 2975 4387 
Q 3406 4025 3406 3419 
Q 3406 3131 3298 2873 
Q 3191 2616 2906 2266 
Q 2828 2175 2409 1742 
Q 1991 1309 1228 531 
z
" transform="scale(0.015625)"/>
       </defs>
       <use xlink:href="#DejaVuSans-2212"/>
       <use xlink:href="#DejaVuSans-31" transform="translate(83.789062 0)"/>
       <use xlink:href="#DejaVuSans-32" transform="translate(147.412109 0)"/>
       <use xlink:href="#DejaVuSans-30" transform="translate(211.035156 0)"/>
       <use xlink:href="#DejaVuSans-30" transform="translate(274.658203 0)"/>
       <use xlink:href="#DejaVuSans-30" transform="translate(338.28125 0)"/>
      </g>
     </g>
    </g>
    <g id="xtick_3">
     <g id="line2d_5">
      <path d="M 276.326793 313.478125 
L 276.326793 22.318125 
" clip-path="url(#pd4b4b6b53d)" style="fill: none; stroke: #b0b0b0; stroke-width: 0.8; stroke-linecap: square"/>
     </g>
     <g id="line2d_6">
      <g>
       <use xlink:href="#m29311bc7af" x="276.326793" y="313.478125" style="stroke: #000000; stroke-width: 0.8"/>
      </g>
     </g>
     <g id="text_3">
      <!-- −10000 -->
      <g transform="translate(256.230699 328.076563) scale(0.1 -0.1)">
       <use xlink:href="#DejaVuSans-2212"/>
       <use xlink:href="#DejaVuSans-31" transform="translate(83.789062 0)"/>
       <use xlink:href="#DejaVuSans-30" transform="translate(147.412109 0)"/>
       <use xlink:href="#DejaVuSans-30" transform="translate(211.035156 0)"/>
       <use xlink:href="#DejaVuSans-30" transform="translate(274.658203 0)"/>
       <use xlink:href="#DejaVuSans-30" transform="translate(338.28125 0)"/>
      </g>
     </g>
    </g>
    <g id="xtick_4">
     <g id="line2d_7">
      <path d="M 382.705087 313.478125 
L 382.705087 22.318125 
" clip-path="url(#pd4b4b6b53d)" style="fill: none; stroke: #b0b0b0; stroke-width: 0.8; stroke-linecap: square"/>
     </g>
     <g id="line2d_8">
      <g>
       <use xlink:href="#m29311bc7af" x="382.705087" y="313.478125" style="stroke: #000000; stroke-width: 0.8"/>
      </g>
     </g>
     <g id="text_4">
      <!-- −8000 -->
      <g transform="translate(365.790244 328.076563) scale(0.1 -0.1)">
       <defs>
        <path id="DejaVuSans-38" d="M 2034 2216 
Q 1584 2216 1326 1975 
Q 1069 1734 1069 1313 
Q 1069 891 1326 650 
Q 1584 409 2034 409 
Q 2484 409 2743 651 
Q 3003 894 3003 1313 
Q 3003 1734 2745 1975 
Q 2488 2216 2034 2216 
z
M 1403 2484 
Q 997 2584 770 2862 
Q 544 3141 544 3541 
Q 544 4100 942 4425 
Q 1341 4750 2034 4750 
Q 2731 4750 3128 4425 
Q 3525 4100 3525 3541 
Q 3525 3141 3298 2862 
Q 3072 2584 2669 2484 
Q 3125 2378 3379 2068 
Q 3634 1759 3634 1313 
Q 3634 634 3220 271 
Q 2806 -91 2034 -91 
Q 1263 -91 848 271 
Q 434 634 434 1313 
Q 434 1759 690 2068 
Q 947 2378 1403 2484 
z
M 1172 3481 
Q 1172 3119 1398 2916 
Q 1625 2713 2034 2713 
Q 2441 2713 2670 2916 
Q 2900 3119 2900 3481 
Q 2900 3844 2670 4047 
Q 2441 4250 2034 4250 
Q 1625 4250 1398 4047 
Q 1172 3844 1172 3481 
z
" transform="scale(0.015625)"/>
       </defs>
       <use xlink:href="#DejaVuSans-2212"/>
       <use xlink:href="#DejaVuSans-38" transform="translate(83.789062 0)"/>
       <use xlink:href="#DejaVuSans-30" transform="translate(147.412109 0)"/>
       <use xlink:href="#DejaVuSans-30" transform="translate(211.035156 0)"/>
       <use xlink:href="#DejaVuSans-30" transform="translate(274.658203 0)"/>
      </g>
     </g>
    </g>
    <g id="xtick_5">
     <g id="line2d_9">
      <path d="M 489.083382 313.478125 
L 489.083382 22.318125 
" clip-path="url(#pd4b4b6b53d)" style="fill: none; stroke: #b0b0b0; stroke-width: 0.8; stroke-linecap: square"/>
     </g>
     <g id="line2d_10">
      <g>
       <use xlink:href="#m29311bc7af" x="489.083382" y="313.478125" style="stroke: #000000; stroke-width: 0.8"/>
      </g>
     </g>
     <g id="text_5">
      <!-- −6000 -->
      <g transform="translate(472.168538 328.076563) scale(0.1 -0.1)">
       <defs>
        <path id="DejaVuSans-36" d="M 2113 2584 
Q 1688 2584 1439 2293 
Q 1191 2003 1191 1497 
Q 1191 994 1439 701 
Q 1688 409 2113 409 
Q 2538 409 2786 701 
Q 3034 994 3034 1497 
Q 3034 2003 2786 2293 
Q 2538 2584 2113 2584 
z
M 3366 4563 
L 3366 3988 
Q 3128 4100 2886 4159 
Q 2644 4219 2406 4219 
Q 1781 4219 1451 3797 
Q 1122 3375 1075 2522 
Q 1259 2794 1537 2939 
Q 1816 3084 2150 3084 
Q 2853 3084 3261 2657 
Q 3669 2231 3669 1497 
Q 3669 778 3244 343 
Q 2819 -91 2113 -91 
Q 1303 -91 875 529 
Q 447 1150 447 2328 
Q 447 3434 972 4092 
Q 1497 4750 2381 4750 
Q 2619 4750 2861 4703 
Q 3103 4656 3366 4563 
z
" transform="scale(0.015625)"/>
       </defs>
       <use xlink:href="#DejaVuSans-2212"/>
       <use xlink:href="#DejaVuSans-36" transform="translate(83.789062 0)"/>
       <use xlink:href="#DejaVuSans-30" transform="translate(147.412109 0)"/>
       <use xlink:href="#DejaVuSans-30" transform="translate(211.035156 0)"/>
       <use xlink:href="#DejaVuSans-30" transform="translate(274.658203 0)"/>
      </g>
     </g>
    </g>
    <g id="xtick_6">
     <g id="line2d_11">
      <path d="M 595.461676 313.478125 
L 595.461676 22.318125 
" clip-path="url(#pd4b4b6b53d)" style="fill: none; stroke: #b0b0b0; stroke-width: 0.8; stroke-linecap: square"/>
     </g>
     <g id="line2d_12">
      <g>
       <use xlink:href="#m29311bc7af" x="595.461676" y="313.478125" style="stroke: #000000; stroke-width: 0.8"/>
      </g>
     </g>
     <g id="text_6">
      <!-- −4000 -->
      <g transform="translate(578.546832 328.076563) scale(0.1 -0.1)">
       <use xlink:href="#DejaVuSans-2212"/>
       <use xlink:href="#DejaVuSans-34" transform="translate(83.789062 0)"/>
       <use xlink:href="#DejaVuSans-30" transform="translate(147.412109 0)"/>
       <use xlink:href="#DejaVuSans-30" transform="translate(211.035156 0)"/>
       <use xlink:href="#DejaVuSans-30" transform="translate(274.658203 0)"/>
      </g>
     </g>
    </g>
    <g id="xtick_7">
     <g id="line2d_13">
      <path d="M 701.83997 313.478125 
L 701.83997 22.318125 
" clip-path="url(#pd4b4b6b53d)" style="fill: none; stroke: #b0b0b0; stroke-width: 0.8; stroke-linecap: square"/>
     </g>
     <g id="line2d_14">
      <g>
       <use xlink:href="#m29311bc7af" x="701.83997" y="313.478125" style="stroke: #000000; stroke-width: 0.8"/>
      </g>
     </g>
     <g id="text_7">
      <!-- −2000 -->
      <g transform="translate(684.925127 328.076563) scale(0.1 -0.1)">
       <use xlink:href="#DejaVuSans-2212"/>
       <use xlink:href="#DejaVuSans-32" transform="translate(83.789062 0)"/>
       <use xlink:href="#DejaVuSans-30" transform="translate(147.412109 0)"/>
       <use xlink:href="#DejaVuSans-30" transform="translate(211.035156 0)"/>
       <use xlink:href="#DejaVuSans-30" transform="translate(274.658203 0)"/>
      </g>
     </g>
    </g>
    <g id="xtick_8">
     <g id="line2d_15">
      <path d="M 808.218265 313.478125 
L 808.218265 22.318125 
" clip-path="url(#pd4b4b6b53d)" style="fill: none; stroke: #b0b0b0; stroke-width: 0.8; stroke-linecap: square"/>
     </g>
     <g id="line2d_16">
      <g>
       <use xlink:href="#m29311bc7af" x="808.218265" y="313.478125" style="stroke: #000000; stroke-width: 0.8"/>
      </g>
     </g>
     <g id="text_8">
      <!-- 0 -->
      <g transform="translate(805.037015 328.076563) scale(0.1 -0.1)">
       <use xlink:href="#DejaVuSans-30"/>
      </g>
     </g>
    </g>
    <g id="text_9">
     <!-- t [s] -->
     <g transform="translate(439.652469 341.754687) scale(0.1 -0.1)">
      <defs>
       <path id="DejaVuSans-74" d="M 1172 4494 
L 1172 3500 
L 2356 3500 
L 2356 3053 
L 1172 3053 
L 1172 1153 
Q 1172 725 1289 603 
Q 1406 481 1766 481 
L 2356 481 
L 2356 0 
L 1766 0 
Q 1100 0 847 248 
Q 594 497 594 1153 
L 594 3053 
L 172 3053 
L 172 3500 
L 594 3500 
L 594 4494 
L 1172 4494 
z
" transform="scale(0.015625)"/>
       <path id="DejaVuSans-20" transform="scale(0.015625)"/>
       <path id="DejaVuSans-5b" d="M 550 4863 
L 1875 4863 
L 1875 4416 
L 1125 4416 
L 1125 -397 
L 1875 -397 
L 1875 -844 
L 550 -844 
L 550 4863 
z
" transform="scale(0.015625)"/>
       <path id="DejaVuSans-73" d="M 2834 3397 
L 2834 2853 
Q 2591 2978 2328 3040 
Q 2066 3103 1784 3103 
Q 1356 3103 1142 2972 
Q 928 2841 928 2578 
Q 928 2378 1081 2264 
Q 1234 2150 1697 2047 
L 1894 2003 
Q 2506 1872 2764 1633 
Q 3022 1394 3022 966 
Q 3022 478 2636 193 
Q 2250 -91 1575 -91 
Q 1294 -91 989 -36 
Q 684 19 347 128 
L 347 722 
Q 666 556 975 473 
Q 1284 391 1588 391 
Q 1994 391 2212 530 
Q 2431 669 2431 922 
Q 2431 1156 2273 1281 
Q 2116 1406 1581 1522 
L 1381 1569 
Q 847 1681 609 1914 
Q 372 2147 372 2553 
Q 372 3047 722 3315 
Q 1072 3584 1716 3584 
Q 2034 3584 2315 3537 
Q 2597 3491 2834 3397 
z
" transform="scale(0.015625)"/>
       <path id="DejaVuSans-5d" d="M 1947 4863 
L 1947 -844 
L 622 -844 
L 622 -397 
L 1369 -397 
L 1369 4416 
L 622 4416 
L 622 4863 
L 1947 4863 
z
" transform="scale(0.015625)"/>
      </defs>
      <use xlink:href="#DejaVuSans-74"/>
      <use xlink:href="#DejaVuSans-20" transform="translate(39.208984 0)"/>
      <use xlink:href="#DejaVuSans-5b" transform="translate(70.996094 0)"/>
      <use xlink:href="#DejaVuSans-73" transform="translate(110.009766 0)"/>
      <use xlink:href="#DejaVuSans-5d" transform="translate(162.109375 0)"/>
     </g>
    </g>
   </g>
   <g id="matplotlib.axis_2">
    <g id="ytick_1">
     <g id="line2d_17">
      <path d="M 52.160938 274.138822 
L 847.254937 274.138822 
" clip-path="url(#pd4b4b6b53d)" style="fill: none; stroke: #b0b0b0; stroke-width: 0.8; stroke-linecap: square"/>
     </g>
     <g id="line2d_18">
      <defs>
       <path id="m627e3a0568" d="M 0 0 
L -3.5 0 
" style="stroke: #000000; stroke-width: 0.8"/>
      </defs>
      <g>
       <use xlink:href="#m627e3a0568" x="52.160938" y="274.138822" style="stroke: #000000; stroke-width: 0.8"/>
      </g>
     </g>
     <g id="text_10">
      <!-- −0.2 -->
      <g transform="translate(20.878125 277.93804) scale(0.1 -0.1)">
       <defs>
        <path id="DejaVuSans-2e" d="M 684 794 
L 1344 794 
L 1344 0 
L 684 0 
L 684 794 
z
" transform="scale(0.015625)"/>
       </defs>
       <use xlink:href="#DejaVuSans-2212"/>
       <use xlink:href="#DejaVuSans-30" transform="translate(83.789062 0)"/>
       <use xlink:href="#DejaVuSans-2e" transform="translate(147.412109 0)"/>
       <use xlink:href="#DejaVuSans-32" transform="translate(179.199219 0)"/>
      </g>
     </g>
    </g>
    <g id="ytick_2">
     <g id="line2d_19">
      <path d="M 52.160938 220.02076 
L 847.254937 220.02076 
" clip-path="url(#pd4b4b6b53d)" style="fill: none; stroke: #b0b0b0; stroke-width: 0.8; stroke-linecap: square"/>
     </g>
     <g id="line2d_20">
      <g>
       <use xlink:href="#m627e3a0568" x="52.160938" y="220.02076" style="stroke: #000000; stroke-width: 0.8"/>
      </g>
     </g>
     <g id="text_11">
      <!-- −0.1 -->
      <g transform="translate(20.878125 223.819979) scale(0.1 -0.1)">
       <use xlink:href="#DejaVuSans-2212"/>
       <use xlink:href="#DejaVuSans-30" transform="translate(83.789062 0)"/>
       <use xlink:href="#DejaVuSans-2e" transform="translate(147.412109 0)"/>
       <use xlink:href="#DejaVuSans-31" transform="translate(179.199219 0)"/>
      </g>
     </g>
    </g>
    <g id="ytick_3">
     <g id="line2d_21">
      <path d="M 52.160938 165.902699 
L 847.254937 165.902699 
" clip-path="url(#pd4b4b6b53d)" style="fill: none; stroke: #b0b0b0; stroke-width: 0.8; stroke-linecap: square"/>
     </g>
     <g id="line2d_22">
      <g>
       <use xlink:href="#m627e3a0568" x="52.160938" y="165.902699" style="stroke: #000000; stroke-width: 0.8"/>
      </g>
     </g>
     <g id="text_12">
      <!-- 0.0 -->
      <g transform="translate(29.257812 169.701918) scale(0.1 -0.1)">
       <use xlink:href="#DejaVuSans-30"/>
       <use xlink:href="#DejaVuSans-2e" transform="translate(63.623047 0)"/>
       <use xlink:href="#DejaVuSans-30" transform="translate(95.410156 0)"/>
      </g>
     </g>
    </g>
    <g id="ytick_4">
     <g id="line2d_23">
      <path d="M 52.160938 111.784638 
L 847.254937 111.784638 
" clip-path="url(#pd4b4b6b53d)" style="fill: none; stroke: #b0b0b0; stroke-width: 0.8; stroke-linecap: square"/>
     </g>
     <g id="line2d_24">
      <g>
       <use xlink:href="#m627e3a0568" x="52.160938" y="111.784638" style="stroke: #000000; stroke-width: 0.8"/>
      </g>
     </g>
     <g id="text_13">
      <!-- 0.1 -->
      <g transform="translate(29.257812 115.583856) scale(0.1 -0.1)">
       <use xlink:href="#DejaVuSans-30"/>
       <use xlink:href="#DejaVuSans-2e" transform="translate(63.623047 0)"/>
       <use xlink:href="#DejaVuSans-31" transform="translate(95.410156 0)"/>
      </g>
     </g>
    </g>
    <g id="ytick_5">
     <g id="line2d_25">
      <path d="M 52.160938 57.666576 
L 847.254937 57.666576 
" clip-path="url(#pd4b4b6b53d)" style="fill: none; stroke: #b0b0b0; stroke-width: 0.8; stroke-linecap: square"/>
     </g>
     <g id="line2d_26">
      <g>
       <use xlink:href="#m627e3a0568" x="52.160938" y="57.666576" style="stroke: #000000; stroke-width: 0.8"/>
      </g>
     </g>
     <g id="text_14">
      <!-- 0.2 -->
      <g transform="translate(29.257812 61.465795) scale(0.1 -0.1)">
       <use xlink:href="#DejaVuSans-30"/>
       <use xlink:href="#DejaVuSans-2e" transform="translate(63.623047 0)"/>
       <use xlink:href="#DejaVuSans-32" transform="translate(95.410156 0)"/>
      </g>
     </g>
    </g>
    <g id="text_15">
     <!-- $h_{22}]$ -->
     <g transform="translate(14.798438 177.648125) rotate(-90) scale(0.1 -0.1)">
      <defs>
       <path id="DejaVuSans-Oblique-68" d="M 3566 2113 
L 3156 0 
L 2578 0 
L 2988 2091 
Q 3016 2238 3031 2350 
Q 3047 2463 3047 2528 
Q 3047 2791 2881 2937 
Q 2716 3084 2419 3084 
Q 1956 3084 1617 2771 
Q 1278 2459 1178 1941 
L 800 0 
L 225 0 
L 1172 4863 
L 1747 4863 
L 1375 2950 
Q 1594 3244 1934 3414 
Q 2275 3584 2650 3584 
Q 3113 3584 3367 3334 
Q 3622 3084 3622 2631 
Q 3622 2519 3608 2391 
Q 3594 2263 3566 2113 
z
" transform="scale(0.015625)"/>
      </defs>
      <use xlink:href="#DejaVuSans-Oblique-68" transform="translate(0 0.015625)"/>
      <use xlink:href="#DejaVuSans-32" transform="translate(63.378906 -16.390625) scale(0.7)"/>
      <use xlink:href="#DejaVuSans-32" transform="translate(107.915039 -16.390625) scale(0.7)"/>
      <use xlink:href="#DejaVuSans-5d" transform="translate(155.185547 0.015625)"/>
     </g>
    </g>
   </g>
   <g id="line2d_27">
    <path d="M 88.301574 185.908359 
L 88.743337 188.557012 
L 89.008395 189.223631 
L 89.1851 189.325248 
L 89.361805 189.185685 
L 89.626863 188.594892 
L 90.068626 186.869347 
L 90.8638 182.606465 
L 91.835678 176.258897 
L 92.542499 170.05812 
L 93.426025 160.061144 
L 94.486257 148.582413 
L 94.92802 145.696198 
L 95.28143 144.63556 
L 95.458136 144.55173 
L 95.634841 144.764209 
L 95.899899 145.614638 
L 96.253309 147.638669 
L 96.783425 152.128358 
L 99.434003 177.154769 
L 100.140824 181.108515 
L 100.582587 182.555146 
L 100.847645 182.949586 
L 101.02435 182.993024 
L 101.201055 182.851924 
L 101.466113 182.285724 
L 101.819524 180.874697 
L 102.261287 178.146048 
L 102.968108 172.166302 
L 104.646807 157.43305 
L 105.353628 153.200325 
L 105.972096 150.67228 
L 106.41386 149.599181 
L 106.76727 149.276295 
L 106.943975 149.325509 
L 107.209033 149.697662 
L 107.562444 150.806646 
L 108.004207 153.243418 
L 108.534322 157.634777 
L 109.506201 168.203804 
L 110.389727 176.968256 
L 110.919843 180.324573 
L 111.361606 181.771436 
L 111.626664 182.097204 
L 111.891722 182.087628 
L 112.156779 181.820166 
L 112.686895 180.841084 
L 114.630653 176.536664 
L 115.072416 174.56723 
L 115.602531 170.903368 
L 116.221 164.757776 
L 118.341462 141.430337 
L 118.783225 139.162694 
L 119.136636 138.310361 
L 119.401694 138.186212 
L 119.666751 138.441841 
L 120.020162 139.248199 
L 120.63863 141.401448 
L 121.698862 145.057593 
L 122.31733 146.43243 
L 122.935798 147.305343 
L 123.642619 147.938017 
L 124.172735 148.132795 
L 124.526145 148.009033 
L 124.879556 147.555734 
L 125.232966 146.648256 
L 125.674729 144.699453 
L 126.204845 140.974616 
L 126.823313 134.759538 
L 128.855423 112.334655 
L 129.297186 110.234216 
L 129.562244 109.725109 
L 129.738949 109.69022 
L 129.915655 109.885978 
L 130.180712 110.578233 
L 130.622476 112.638952 
L 131.240944 116.89755 
L 134.15658 139.120128 
L 135.040106 143.120106 
L 136.011985 147.621601 
L 136.630453 151.637529 
L 137.337274 157.741737 
L 139.546089 178.489312 
L 139.987852 180.57391 
L 140.341263 181.436807 
L 140.606321 181.641361 
L 140.871379 181.515331 
L 141.224789 180.943414 
L 141.843257 179.342342 
L 142.638431 177.424424 
L 143.168547 176.71596 
L 143.787015 176.340271 
L 144.317131 175.964453 
L 144.670541 175.443557 
L 145.112304 174.294652 
L 145.64242 172.057988 
L 146.349241 167.790276 
L 147.939588 157.529887 
L 148.469703 155.46591 
L 148.911466 154.516339 
L 149.264877 154.217991 
L 149.618287 154.252542 
L 150.06005 154.628295 
L 150.766871 155.626354 
L 151.915455 157.658636 
L 152.622276 159.397603 
L 153.329097 161.812238 
L 154.389328 166.455302 
L 155.537912 171.189745 
L 156.244733 173.157914 
L 156.863202 174.256459 
L 157.658375 175.181728 
L 158.983664 176.37217 
L 159.425427 176.507642 
L 159.778838 176.372194 
L 160.132248 175.941919 
L 160.574011 174.914665 
L 161.104127 172.940478 
L 161.810948 169.308366 
L 163.22459 161.794957 
L 163.754705 160.017808 
L 164.196468 159.170955 
L 164.549879 158.863256 
L 164.991642 158.799827 
L 165.875168 158.822643 
L 166.228579 158.543633 
L 166.581989 157.970826 
L 167.023752 156.815698 
L 167.730573 154.207563 
L 168.702452 150.710336 
L 169.144215 149.855939 
L 169.409273 149.688052 
L 169.67433 149.803344 
L 169.939388 150.204337 
L 170.292799 151.160726 
L 170.822914 153.356466 
L 171.794793 158.649562 
L 172.766672 163.500997 
L 173.38514 165.564794 
L 173.915256 166.624599 
L 174.445372 167.197896 
L 176.035719 168.527054 
L 177.184303 169.906697 
L 177.44936 169.953367 
L 177.714418 169.752672 
L 177.979476 169.221973 
L 178.332887 167.855196 
L 178.686297 165.562934 
L 179.12806 161.174711 
L 179.658176 153.553614 
L 180.453349 138.340858 
L 181.513581 118.353276 
L 182.043696 112.318401 
L 182.397107 110.477191 
L 182.573812 110.218167 
L 182.750517 110.373814 
L 183.015575 111.310863 
L 183.368985 113.646185 
L 183.987454 119.624699 
L 185.666153 136.600066 
L 186.461327 142.335916 
L 187.168148 146.105672 
L 187.786616 148.353306 
L 188.228379 149.30875 
L 188.58179 149.673857 
L 188.846848 149.724989 
L 189.200258 149.528031 
L 189.642021 148.945511 
L 191.232368 146.435981 
L 191.585779 146.382655 
L 191.850836 146.564603 
L 192.204247 147.130447 
L 192.64601 148.363924 
L 193.264478 150.961673 
L 195.561646 161.940485 
L 196.003409 162.893873 
L 196.445172 163.344929 
L 196.798583 163.424513 
L 197.328698 163.289463 
L 197.947167 163.152692 
L 198.300577 163.256579 
L 198.653988 163.567195 
L 199.095751 164.281648 
L 199.625866 165.587447 
L 200.597745 168.726032 
L 201.569624 171.588596 
L 202.099739 172.582248 
L 202.541503 173.020919 
L 202.983266 173.129026 
L 203.425029 172.979455 
L 204.308555 172.330778 
L 205.015376 171.91546 
L 205.633844 171.807979 
L 206.51737 171.947188 
L 207.312544 171.987333 
L 207.842659 171.788545 
L 208.461128 171.270233 
L 209.344654 170.136967 
L 210.58159 168.589472 
L 211.288411 168.061018 
L 212.967111 167.041619 
L 213.497227 166.298502 
L 214.115695 165.005706 
L 215.087574 162.32925 
L 216.059452 159.820933 
L 216.589568 158.948176 
L 217.031331 158.604203 
L 217.384742 158.590323 
L 217.738152 158.789279 
L 218.268268 159.39359 
L 219.593557 161.093496 
L 219.946967 161.214424 
L 220.300378 161.081022 
L 220.653788 160.670503 
L 221.095551 159.780202 
L 221.71402 157.981429 
L 223.304367 153.101311 
L 223.834482 152.243976 
L 224.187893 151.999263 
L 224.541303 152.011229 
L 224.894714 152.253898 
L 225.424829 152.955926 
L 227.280234 155.840252 
L 227.633645 155.969156 
L 227.987055 155.851954 
L 228.340466 155.47011 
L 228.782229 154.617965 
L 229.312344 153.079786 
L 230.019165 150.265919 
L 230.814339 146.138493 
L 231.609512 140.791117 
L 232.493038 133.16097 
L 233.55327 123.929289 
L 233.90668 122.255048 
L 234.083385 121.96181 
L 234.171738 121.980158 
L 234.348443 122.384837 
L 234.613501 124.00827 
L 234.966912 128.248407 
L 235.408675 136.900225 
L 236.115495 156.599466 
L 237.264079 188.962264 
L 237.794195 198.182126 
L 238.235958 202.245046 
L 238.501016 203.264981 
L 238.677721 203.443156 
L 238.854426 203.27774 
L 239.119484 202.496073 
L 239.561247 200.16863 
L 240.444774 193.816209 
L 241.505005 186.61813 
L 242.211826 183.161021 
L 242.741941 181.449956 
L 243.183705 180.595149 
L 243.625468 180.202785 
L 243.978878 180.161745 
L 244.420641 180.354878 
L 246.099341 181.394382 
L 246.452751 181.289605 
L 246.894514 180.873721 
L 247.336277 180.118964 
L 247.954746 178.521845 
L 248.838272 175.474552 
L 250.075208 171.287014 
L 250.693677 169.958105 
L 251.13544 169.470349 
L 251.48885 169.357999 
L 251.842261 169.46616 
L 252.284024 169.846512 
L 253.16755 171.011118 
L 253.962723 171.915019 
L 254.492839 172.185529 
L 254.934602 172.144822 
L 255.376365 171.859326 
L 255.906481 171.23667 
L 256.790007 169.790837 
L 257.850238 168.12565 
L 258.468707 167.503814 
L 258.998822 167.232241 
L 259.617291 167.168845 
L 261.914458 167.255408 
L 262.886337 166.833457 
L 264.123274 166.30704 
L 264.830095 166.262409 
L 265.536916 166.454681 
L 267.303968 167.073438 
L 267.834084 166.939106 
L 268.364199 166.555225 
L 268.982668 165.817897 
L 271.191483 162.875781 
L 271.633246 162.718294 
L 272.075009 162.80565 
L 272.516772 163.135254 
L 273.13524 163.937428 
L 274.990645 166.654812 
L 275.432408 166.820737 
L 275.785819 166.716984 
L 276.139229 166.394094 
L 276.580992 165.69858 
L 277.199461 164.28291 
L 279.408276 158.707082 
L 279.938392 158.078233 
L 280.380155 157.902708 
L 280.733565 157.994748 
L 281.175328 158.384705 
L 281.705444 159.201543 
L 282.500617 160.923331 
L 284.179317 165.26972 
L 284.886138 167.616803 
L 285.416254 170.142918 
L 285.946369 173.857832 
L 286.476485 179.24979 
L 287.094953 187.941601 
L 288.596948 210.619576 
L 288.862005 211.959825 
L 288.950358 212.046686 
L 289.038711 211.936999 
L 289.215416 211.098816 
L 289.480474 208.23412 
L 289.833884 201.465595 
L 290.364 186.191763 
L 291.777642 142.392753 
L 292.219405 134.896789 
L 292.572815 131.702085 
L 292.837873 130.73648 
L 293.014578 130.664662 
L 293.191284 130.97518 
L 293.456341 132.017323 
L 293.898104 134.801143 
L 296.283625 151.698455 
L 296.990446 154.622442 
L 297.608914 156.305645 
L 298.13903 157.191195 
L 298.669146 157.666454 
L 299.199261 157.840777 
L 299.906082 157.792031 
L 301.319724 157.590077 
L 301.938192 157.777737 
L 302.468308 158.18052 
L 303.086776 158.962018 
L 303.88195 160.384615 
L 305.649002 163.733466 
L 306.26747 164.432618 
L 306.797586 164.731616 
L 307.327702 164.769488 
L 307.94617 164.552473 
L 309.006401 163.855321 
L 309.97828 163.313265 
L 310.596748 163.193663 
L 311.215217 163.297081 
L 311.922037 163.655862 
L 314.307558 165.106065 
L 315.102732 165.206618 
L 317.664957 165.287174 
L 318.460131 165.702631 
L 321.110709 167.369288 
L 321.729178 167.325627 
L 322.347646 167.054379 
L 323.49623 166.227507 
L 324.379756 165.72585 
L 324.909872 165.651983 
L 325.439987 165.819923 
L 325.970103 166.258007 
L 326.588571 167.102792 
L 327.472097 168.785981 
L 329.150797 172.107327 
L 329.857618 172.998968 
L 330.476086 173.443711 
L 331.182907 173.659667 
L 332.861607 173.994203 
L 333.480075 174.417617 
L 334.098543 175.142134 
L 334.717012 176.228631 
L 335.423833 177.965604 
L 336.219006 180.554145 
L 338.427821 188.432827 
L 338.692879 188.622665 
L 338.869584 188.481942 
L 339.134642 187.752644 
L 339.3997 186.248091 
L 339.753111 182.737932 
L 340.194874 175.475563 
L 340.724989 162.385989 
L 342.226984 120.571275 
L 342.492042 117.779517 
L 342.668747 117.31384 
L 342.757099 117.512529 
L 342.933805 118.762257 
L 343.198862 122.642064 
L 343.640626 133.416075 
L 345.319325 180.164558 
L 345.761088 186.030977 
L 346.114499 188.522503 
L 346.379557 189.354184 
L 346.556262 189.514182 
L 346.732967 189.419032 
L 346.998025 188.902466 
L 347.439788 187.387324 
L 349.471898 179.46343 
L 350.178719 177.844875 
L 350.88554 176.748187 
L 351.857419 175.694155 
L 353.977881 173.536446 
L 354.94976 172.157348 
L 356.098344 170.073579 
L 358.042101 166.481458 
L 358.837275 165.492893 
L 359.544096 164.95964 
L 360.162564 164.747613 
L 360.869385 164.742701 
L 361.929616 165.001315 
L 363.0782 165.221363 
L 363.873374 165.128853 
L 364.668547 164.804009 
L 367.937594 163.163336 
L 369.086178 163.067566 
L 370.411467 162.932668 
L 371.206641 162.62787 
L 372.17852 161.97994 
L 373.945572 160.732366 
L 374.56404 160.573724 
L 375.094156 160.638592 
L 375.624271 160.904977 
L 376.24274 161.455039 
L 377.214619 162.674795 
L 378.451555 164.1897 
L 379.070023 164.637822 
L 379.600139 164.782201 
L 380.130255 164.715681 
L 380.925428 164.355936 
L 381.897307 163.956417 
L 382.33907 163.977816 
L 382.780833 164.217574 
L 383.222596 164.725674 
L 383.752712 165.735683 
L 384.37118 167.4949 
L 385.078001 170.255222 
L 385.961527 174.732048 
L 387.021759 181.425276 
L 388.965516 194.282613 
L 389.230574 194.895051 
L 389.407279 194.867188 
L 389.583984 194.401474 
L 389.849042 192.710766 
L 390.202453 188.231024 
L 390.644216 178.5601 
L 391.262684 158.181291 
L 392.234563 124.853012 
L 392.587973 118.568873 
L 392.764678 117.345476 
L 392.853031 117.240447 
L 392.941384 117.472418 
L 393.118089 118.920326 
L 393.383147 123.351812 
L 393.82491 135.332681 
L 395.238552 177.818159 
L 395.680315 184.946108 
L 396.033725 188.156269 
L 396.387136 189.57704 
L 396.563841 189.762293 
L 396.740546 189.673824 
L 397.005604 189.141838 
L 397.447367 187.558096 
L 399.92124 177.311589 
L 400.981471 174.394659 
L 402.130055 171.907057 
L 403.190287 170.114555 
L 406.282628 165.289887 
L 408.04968 162.284758 
L 408.844854 161.394407 
L 409.463322 161.024281 
L 409.993438 160.938435 
L 410.611906 161.070844 
L 411.495432 161.529335 
L 412.820722 162.196631 
L 413.615895 162.32592 
L 414.587774 162.217403 
L 415.913063 162.065309 
L 416.619884 162.21506 
L 417.326705 162.593481 
L 418.298584 163.406703 
L 419.888931 164.76793 
L 420.772457 165.201846 
L 421.921041 165.469309 
L 422.892919 165.778344 
L 423.59974 166.259935 
L 424.306561 167.053294 
L 425.101735 168.341419 
L 426.073614 170.395185 
L 429.607718 178.37109 
L 430.402892 179.467304 
L 430.933007 179.864141 
L 431.37477 179.9295 
L 431.728181 179.780568 
L 432.169944 179.315568 
L 432.611707 178.512303 
L 433.141823 177.046694 
L 433.671938 174.922232 
L 434.202054 171.924689 
L 434.73217 167.708327 
L 435.262285 161.826878 
L 435.880754 152.392884 
L 437.559453 124.347219 
L 437.736158 123.884582 
L 437.824511 124.045625 
L 438.001216 125.230048 
L 438.266274 129.310656 
L 438.619685 139.077572 
L 439.1498 161.00405 
L 440.121679 201.722437 
L 440.475089 209.506396 
L 440.740147 211.859041 
L 440.8285 212.000053 
L 440.916853 211.839984 
L 441.093558 210.686167 
L 441.358616 207.184304 
L 441.888731 196.116171 
L 443.037315 170.82726 
L 443.655784 161.942328 
L 444.185899 157.053226 
L 444.716015 153.971751 
L 445.246131 152.071155 
L 445.776246 150.923113 
L 446.306362 150.297024 
L 446.748125 150.104762 
L 447.101535 150.154475 
L 447.543298 150.466231 
L 448.073414 151.190818 
L 448.691882 152.460151 
L 449.575409 154.83331 
L 452.31434 162.564758 
L 453.374571 164.719425 
L 454.34645 166.20689 
L 455.318328 167.284441 
L 456.290207 168.02925 
L 459.912664 170.452746 
L 460.972896 171.113826 
L 461.679717 171.329247 
L 462.386537 171.321167 
L 463.270064 171.057607 
L 465.302174 170.347071 
L 467.069226 169.91829 
L 467.687694 169.486461 
L 468.306163 168.761923 
L 469.012983 167.530994 
L 469.89651 165.446586 
L 471.398504 161.144531 
L 474.31414 152.861873 
L 475.374372 150.333041 
L 475.99284 149.350365 
L 476.434603 149.011039 
L 476.788013 149.022983 
L 477.141424 149.3467 
L 477.494834 150.05606 
L 477.848245 151.251714 
L 478.290008 153.64026 
L 478.731771 157.350504 
L 479.261887 164.117377 
L 479.792002 173.910139 
L 480.675528 195.445814 
L 481.293997 208.262072 
L 481.559055 210.824194 
L 481.647407 211.097879 
L 481.73576 211.045903 
L 481.912465 209.901566 
L 482.177523 205.455101 
L 482.530933 194.586817 
L 483.149402 166.283216 
L 483.944575 132.028172 
L 484.297986 123.732709 
L 484.563043 121.059271 
L 484.651396 120.812085 
L 484.739749 120.863262 
L 484.916454 121.785616 
L 485.181512 124.894582 
L 485.711627 135.039379 
L 486.948564 160.347924 
L 487.567032 168.86712 
L 488.1855 174.61708 
L 488.803969 178.361469 
L 489.334084 180.430309 
L 489.8642 181.676236 
L 490.305963 182.166313 
L 490.659374 182.228968 
L 491.012784 182.021256 
L 491.454547 181.421718 
L 491.984663 180.292003 
L 492.868189 177.77449 
L 494.900299 171.790516 
L 495.96053 169.416488 
L 497.197467 167.192959 
L 498.699461 164.964855 
L 501.173335 161.800824 
L 502.675329 160.108987 
L 503.558855 159.426336 
L 504.354029 159.099284 
L 505.237555 159.010419 
L 507.44637 159.163343 
L 508.329896 159.379292 
L 508.948365 159.770616 
L 509.566833 160.473293 
L 510.185301 161.544997 
L 510.980475 163.454102 
L 512.040706 166.682209 
L 514.072816 173.742947 
L 517.341863 185.400102 
L 517.783626 185.969397 
L 518.048684 185.992751 
L 518.313742 185.713459 
L 518.578799 185.065801 
L 518.93221 183.48931 
L 519.28562 180.884934 
L 519.727383 175.779294 
L 520.257499 166.310482 
L 520.875967 150.506567 
L 521.936199 122.194296 
L 522.201256 118.998482 
L 522.377962 118.569005 
L 522.554667 119.692837 
L 522.819725 124.446069 
L 523.173135 136.204963 
L 523.879956 170.859745 
L 524.498424 198.088893 
L 524.940188 208.583257 
L 525.205245 210.716234 
L 525.293598 210.788072 
L 525.470303 210.082342 
L 525.735361 207.235221 
L 526.177124 199.29703 
L 527.767471 167.855933 
L 528.474292 159.235717 
L 529.09276 154.24876 
L 529.622876 151.437716 
L 530.152992 149.732212 
L 530.594755 149.04504 
L 530.948165 148.92156 
L 531.213223 149.050454 
L 531.566633 149.479634 
L 532.096749 150.565996 
L 532.891923 152.813724 
L 535.100738 159.284254 
L 536.691085 163.037592 
L 538.811548 167.513638 
L 540.666953 170.912241 
L 541.903889 172.768446 
L 542.787415 173.727394 
L 543.582589 174.272612 
L 544.466115 174.58196 
L 545.526346 174.702748 
L 546.409872 174.607621 
L 547.028341 174.330928 
L 547.558456 173.86515 
L 548.088572 173.122905 
L 548.70704 171.859774 
L 549.413861 169.899796 
L 550.38574 166.48462 
L 551.711029 160.962986 
L 553.036318 154.535096 
L 554.980076 144.920171 
L 555.510192 143.428499 
L 555.775249 143.110074 
L 555.951955 143.102365 
L 556.12866 143.286297 
L 556.393718 143.981741 
L 556.747128 145.858706 
L 557.100539 149.086396 
L 557.542302 155.486151 
L 558.072417 167.213166 
L 558.779238 188.82255 
L 559.486059 209.445681 
L 559.83947 214.445633 
L 559.927822 214.778499 
L 560.016175 214.693659 
L 560.19288 213.207845 
L 560.457938 207.615934 
L 560.811348 194.402873 
L 562.401695 123.84118 
L 562.666753 120.613188 
L 562.843458 120.209388 
L 563.020164 121.030428 
L 563.285222 124.140298 
L 563.726985 132.63884 
L 565.317332 165.875796 
L 565.9358 174.003956 
L 566.554268 179.441983 
L 567.084384 182.352749 
L 567.526147 183.741169 
L 567.879557 184.262868 
L 568.144615 184.35174 
L 568.409673 184.212529 
L 568.763084 183.723659 
L 569.293199 182.489684 
L 570.176725 179.677111 
L 572.827304 170.911897 
L 575.036119 164.397577 
L 576.538114 160.634318 
L 577.77505 158.074991 
L 578.658576 156.679906 
L 579.45375 155.82904 
L 580.160571 155.398555 
L 580.867392 155.227416 
L 581.574212 155.277285 
L 582.192681 155.523847 
L 582.722796 155.944209 
L 583.252912 156.628794 
L 583.87138 157.847812 
L 584.489849 159.576365 
L 585.285022 162.530394 
L 586.256901 167.059586 
L 587.493838 173.939709 
L 590.144416 189.506585 
L 590.497826 190.441547 
L 590.762884 190.666717 
L 590.939589 190.539051 
L 591.204647 189.853867 
L 591.469705 188.473469 
L 591.823116 185.332602 
L 592.264879 178.882348 
L 592.794994 166.84348 
L 593.501815 144.2967 
L 594.296989 120.281177 
L 594.562047 116.54491 
L 594.738752 116.079884 
L 594.915457 117.462517 
L 595.180515 123.157671 
L 595.533925 137.011103 
L 597.124272 210.763116 
L 597.38933 213.486875 
L 597.477683 213.615982 
L 597.566035 213.389182 
L 597.742741 211.969823 
L 598.096151 206.068199 
L 598.802972 188.261043 
L 599.686498 167.20919 
L 600.304966 156.850445 
L 600.923435 150.087183 
L 601.45355 146.672138 
L 601.895313 145.20934 
L 602.160371 144.844298 
L 602.425429 144.812024 
L 602.690487 145.070074 
L 603.043897 145.792002 
L 603.574013 147.483629 
L 604.457539 151.202855 
L 607.726586 165.520226 
L 609.051875 170.348836 
L 610.200459 173.778094 
L 611.26069 176.275664 
L 612.055864 177.61477 
L 612.674332 178.265384 
L 613.204448 178.534562 
L 613.734564 178.549512 
L 614.264679 178.331618 
L 614.883148 177.797008 
L 615.501616 176.931764 
L 616.120084 175.654221 
L 616.738552 173.861122 
L 617.445373 171.090317 
L 618.328899 166.56421 
L 619.477483 159.282308 
L 622.128062 141.539499 
L 622.569825 140.208966 
L 622.834883 140.030218 
L 623.011588 140.231523 
L 623.276646 141.095071 
L 623.630056 143.474251 
L 623.983467 147.513177 
L 624.42523 155.284744 
L 624.955345 168.919694 
L 626.545692 215.313749 
L 626.722398 216.0999 
L 626.81075 215.796552 
L 626.987456 213.696394 
L 627.252513 206.727121 
L 627.694276 186.099313 
L 628.84286 123.870572 
L 629.196271 116.102444 
L 629.372976 115.093525 
L 629.461329 115.258596 
L 629.638034 116.796425 
L 629.903092 121.629279 
L 630.433207 136.841644 
L 631.581791 170.52038 
L 632.20026 181.899716 
L 632.730375 187.689871 
L 633.172138 190.217053 
L 633.525549 191.013397 
L 633.702254 191.066225 
L 633.878959 190.917624 
L 634.144017 190.362236 
L 634.58578 188.71415 
L 635.204249 185.363824 
L 636.706243 175.457095 
L 638.29659 165.644287 
L 639.445174 159.849767 
L 640.417053 156.058634 
L 641.300579 153.493699 
L 642.0074 152.038925 
L 642.625868 151.249842 
L 643.067631 150.998147 
L 643.509394 151.025274 
L 643.951157 151.334662 
L 644.481273 152.064689 
L 645.099741 153.374943 
L 645.806562 155.444461 
L 646.601736 158.546664 
L 647.396909 162.583991 
L 648.368788 168.803489 
L 649.959135 180.825102 
L 651.107719 188.788579 
L 651.637835 191.198931 
L 651.991245 191.947604 
L 652.16795 191.980631 
L 652.344656 191.745564 
L 652.609713 190.8216 
L 652.963124 188.358759 
L 653.404887 182.972944 
L 653.84665 174.695224 
L 654.465118 158.18881 
L 655.790407 118.996898 
L 656.055465 116.381145 
L 656.143818 116.349001 
L 656.320523 117.719202 
L 656.585581 123.609133 
L 656.938991 138.488023 
L 657.645812 182.589406 
L 658.175928 210.61111 
L 658.529338 219.525421 
L 658.706044 220.518823 
L 658.794396 220.183143 
L 658.971101 217.987479 
L 659.324512 208.628798 
L 660.119685 176.856346 
L 660.826506 152.722956 
L 661.356622 141.609651 
L 661.798385 136.6992 
L 662.151796 135.097793 
L 662.328501 134.934542 
L 662.505206 135.13286 
L 662.770264 136.012264 
L 663.212027 138.698698 
L 663.918848 144.997967 
L 666.481074 169.594513 
L 667.3646 175.638045 
L 668.159773 179.591762 
L 668.778242 181.676142 
L 669.308357 182.815904 
L 669.75012 183.344138 
L 670.103531 183.503831 
L 670.456941 183.432611 
L 670.810352 183.127555 
L 671.252115 182.40925 
L 671.78223 181.044876 
L 672.400699 178.778875 
L 673.195872 174.915892 
L 674.167751 169.018833 
L 675.404688 160.067341 
L 677.52515 144.490285 
L 678.143619 141.582871 
L 678.497029 140.694629 
L 678.762087 140.52411 
L 678.938792 140.691721 
L 679.20385 141.430291 
L 679.55726 143.465219 
L 679.910671 146.888351 
L 680.352434 153.369668 
L 680.88255 164.535663 
L 681.677723 186.874738 
L 682.472897 208.370417 
L 682.826307 213.178477 
L 682.91466 213.551615 
L 683.003012 213.528858 
L 683.179717 212.184005 
L 683.444775 206.607796 
L 683.798186 192.311319 
L 684.416654 153.575704 
L 685.035122 117.565052 
L 685.388533 108.232279 
L 685.476885 107.617209 
L 685.565238 107.699947 
L 685.741943 109.880259 
L 686.007001 117.61612 
L 686.537117 143.389442 
L 687.420643 186.481725 
L 687.862406 198.890603 
L 688.215816 203.808558 
L 688.480874 204.998586 
L 688.569227 204.990598 
L 688.745932 204.450704 
L 689.01099 202.531226 
L 689.452753 197.180781 
L 690.336279 182.678461 
L 691.573216 163.227694 
L 692.368389 154.101258 
L 693.07521 148.523154 
L 693.605326 145.845704 
L 694.047089 144.553334 
L 694.400499 144.100361 
L 694.665557 144.078369 
L 694.930615 144.310395 
L 695.284025 144.983388 
L 695.725789 146.347619 
L 696.344257 149.097924 
L 697.13943 153.845011 
L 698.111309 161.119554 
L 701.380356 187.075867 
L 701.910471 189.48289 
L 702.352234 190.548733 
L 702.617292 190.687971 
L 702.793998 190.544667 
L 703.059055 189.941337 
L 703.412466 188.338173 
L 703.854229 184.890712 
L 704.384345 178.369354 
L 705.002813 167.25104 
L 705.886339 146.064508 
L 706.769865 126.018522 
L 707.123276 121.990874 
L 707.299981 121.569311 
L 707.476686 122.470244 
L 707.741744 126.673255 
L 708.095154 138.144718 
L 708.536917 161.396759 
L 709.597149 221.874799 
L 709.862207 226.451018 
L 709.950559 226.390369 
L 710.127264 223.838108 
L 710.392322 214.328133 
L 710.834085 187.499132 
L 711.717611 131.823513 
L 712.071022 120.243216 
L 712.33608 116.648139 
L 712.424432 116.338473 
L 712.512785 116.431687 
L 712.68949 117.710356 
L 712.954548 121.89684 
L 713.484664 135.473765 
L 714.986658 176.848068 
L 715.605126 187.166035 
L 716.04689 191.626724 
L 716.4003 193.62871 
L 716.665358 194.321513 
L 716.842063 194.436921 
L 717.018768 194.298405 
L 717.283826 193.65584 
L 717.637237 192.080398 
L 718.167352 188.443337 
L 718.874173 181.856255 
L 720.287815 166.002825 
L 721.701457 151.110353 
L 722.49663 144.872246 
L 723.026746 142.068854 
L 723.468509 140.741256 
L 723.733567 140.438137 
L 723.910272 140.457763 
L 724.17533 140.839361 
L 724.440388 141.666772 
L 724.793798 143.505609 
L 725.235561 147.051133 
L 725.765677 153.188648 
L 726.472498 164.413327 
L 727.532729 185.66539 
L 728.416255 201.631777 
L 728.769666 205.163246 
L 728.946371 205.868006 
L 729.034724 205.901103 
L 729.211429 205.252803 
L 729.476487 202.283528 
L 729.829897 194.133388 
L 730.27166 176.915419 
L 731.066834 133.103842 
L 731.596949 110.02723 
L 731.862007 106.182392 
L 731.95036 106.45558 
L 732.127065 109.524165 
L 732.392123 120.382308 
L 732.833886 151.785929 
L 733.62906 212.374545 
L 733.98247 224.746466 
L 734.159175 226.15733 
L 734.247528 225.717742 
L 734.424233 222.757881 
L 734.777643 210.175714 
L 736.456343 134.710758 
L 736.809754 128.396345 
L 737.074811 126.237352 
L 737.251517 125.88499 
L 737.428222 126.300384 
L 737.69328 128.163488 
L 738.135043 133.830042 
L 738.841864 146.81001 
L 740.520563 178.732994 
L 741.227384 187.923918 
L 741.7575 192.34021 
L 742.199263 194.298869 
L 742.464321 194.713851 
L 742.641026 194.674405 
L 742.817731 194.383681 
L 743.082789 193.481626 
L 743.4362 191.42845 
L 743.877963 187.55955 
L 744.496431 179.960223 
L 745.379957 165.730746 
L 747.147009 136.000694 
L 747.588772 131.674691 
L 747.85383 130.390412 
L 748.030535 130.203278 
L 748.207241 130.620011 
L 748.472298 132.499867 
L 748.825709 137.602685 
L 749.267472 148.481578 
L 749.797588 167.786311 
L 751.034524 216.830292 
L 751.299582 220.358057 
L 751.387935 220.38558 
L 751.56464 218.468884 
L 751.829698 210.292237 
L 752.183108 189.643283 
L 753.420045 101.199167 
L 753.59675 99.213099 
L 753.685103 99.901721 
L 753.861808 104.55562 
L 754.126866 118.763547 
L 754.745334 169.619577 
L 755.27545 206.934338 
L 755.62886 219.595955 
L 755.805565 221.86334 
L 755.893918 222.048478 
L 755.982271 221.646757 
L 756.158976 219.247896 
L 756.512386 209.362701 
L 757.219207 179.5004 
L 758.014381 148.194689 
L 758.544496 134.799738 
L 758.986259 129.007584 
L 759.251317 127.754003 
L 759.33967 127.679246 
L 759.428023 127.766883 
L 759.604728 128.405562 
L 759.869786 130.428198 
L 760.311549 136.200271 
L 760.930017 147.907179 
L 763.138832 193.516822 
L 763.668948 199.074239 
L 764.022358 200.607528 
L 764.199064 200.647647 
L 764.375769 200.177381 
L 764.640827 198.483808 
L 764.994237 194.340331 
L 765.436 186.162996 
L 766.054468 169.756313 
L 767.644816 122.924127 
L 767.909873 119.757102 
L 768.086579 119.312273 
L 768.263284 120.424753 
L 768.528342 125.349824 
L 768.881752 138.397484 
L 769.411868 170.302937 
L 770.295394 225.180307 
L 770.560452 230.024436 
L 770.648804 229.548461 
L 770.82551 225.174873 
L 771.090567 210.150535 
L 771.53233 167.997025 
L 772.150799 108.906762 
L 772.415857 97.256258 
L 772.504209 96.012553 
L 772.592562 96.119788 
L 772.769267 100.232718 
L 773.034325 114.840917 
L 773.652793 168.795638 
L 774.182909 207.911021 
L 774.536319 220.771537 
L 774.713025 222.834691 
L 774.801377 222.844732 
L 774.978082 221.005786 
L 775.24314 214.284667 
L 775.684903 195.888816 
L 777.010193 136.615312 
L 777.451956 126.526934 
L 777.717013 123.716514 
L 777.893719 123.176244 
L 777.982071 123.292755 
L 778.158776 124.266729 
L 778.423834 127.457751 
L 778.865597 136.72202 
L 779.484066 155.439667 
L 780.809355 197.363028 
L 781.251118 205.362762 
L 781.516176 207.510582 
L 781.604528 207.722466 
L 781.692881 207.66855 
L 781.869586 206.73764 
L 782.134644 203.220609 
L 782.488055 194.557838 
L 783.01817 173.959292 
L 784.343459 115.823405 
L 784.608517 112.522398 
L 784.69687 112.688265 
L 784.873575 115.152854 
L 785.138633 124.499149 
L 785.492043 147.164996 
L 786.640627 233.41622 
L 786.72898 234.427432 
L 786.817333 233.918123 
L 786.994038 228.160248 
L 787.259096 208.143035 
L 787.877564 132.446207 
L 788.230974 99.416386 
L 788.496032 91.522863 
L 788.584385 92.62201 
L 788.76109 100.170709 
L 789.1145 132.173572 
L 789.998027 222.034728 
L 790.263084 230.830485 
L 790.351437 231.24867 
L 790.43979 230.471266 
L 790.616495 225.622251 
L 790.969905 205.562975 
L 792.206842 120.935463 
L 792.4719 114.410025 
L 792.648605 113.366304 
L 792.736958 113.811082 
L 792.913663 116.527696 
L 793.178721 124.693565 
L 793.620484 146.368794 
L 794.769068 206.716238 
L 795.122478 214.00267 
L 795.210831 214.449385 
L 795.299183 214.311344 
L 795.475889 212.254523 
L 795.740946 204.778663 
L 796.094357 187.506257 
L 797.419646 111.760117 
L 797.596351 110.698988 
L 797.773057 113.791962 
L 798.038114 126.568667 
L 798.391525 156.968178 
L 799.186698 230.57991 
L 799.363404 234.535741 
L 799.451756 233.473581 
L 799.628461 224.836 
L 799.893519 196.494136 
L 800.777045 84.147799 
L 800.865398 84.198799 
L 801.042103 94.618775 
L 801.307161 133.02075 
L 802.013982 250.894908 
L 802.102335 254.3111 
L 802.190687 253.728051 
L 802.367392 240.851823 
L 802.720803 179.50418 
L 803.250919 86.443337 
L 803.427624 77.644959 
L 803.515976 79.067299 
L 803.692682 93.106419 
L 804.046092 154.458026 
L 804.576208 245.452023 
L 804.752913 253.173635 
L 804.841266 250.934713 
L 805.017971 234.383812 
L 805.371381 165.002938 
L 805.813144 81.220788 
L 805.98985 74.449491 
L 806.166555 90.858616 
L 806.431613 154.769113 
L 806.873376 268.816328 
L 806.961728 271.89528 
L 807.050081 263.316761 
L 807.226786 210.106568 
L 807.668549 41.35594 
L 807.756902 54.097651 
L 807.933607 151.869878 
L 808.198665 300.24358 
L 808.287018 278.505699 
L 808.640428 50.431 
L 808.993838 246.142517 
L 809.258896 110.532932 
L 809.347249 123.419541 
L 809.612307 199.678674 
L 809.877365 144.199807 
L 809.965717 150.242986 
L 810.230775 178.335182 
L 810.495833 157.586751 
L 810.760891 170.656862 
L 810.849243 170.29659 
L 811.114301 162.791085 
L 811.114301 162.791085 
" clip-path="url(#pd4b4b6b53d)" style="fill: none; stroke: #1f77b4; stroke-width: 0.6; stroke-linecap: square"/>
   </g>
   <g id="line2d_28">
    <path d="M 88.301574 185.925328 
L 89.891921 164.322318 
L 90.598742 157.885465 
L 91.482268 151.940217 
L 92.365794 147.343819 
L 92.807557 145.960778 
L 93.072615 145.640551 
L 93.24932 145.691466 
L 93.426025 145.977796 
L 93.691083 146.879663 
L 94.044494 148.991645 
L 94.574609 153.973136 
L 95.458136 165.292883 
L 96.430014 176.971852 
L 96.96013 181.121085 
L 97.401893 183.065875 
L 97.755303 183.684285 
L 97.932009 183.713301 
L 98.197067 183.445854 
L 98.550477 182.578506 
L 98.99224 180.792604 
L 99.610708 177.155982 
L 100.317529 171.546122 
L 102.70305 150.983728 
L 103.144813 149.459372 
L 103.409871 149.10054 
L 103.586576 149.0855 
L 103.851634 149.37726 
L 104.205044 150.289908 
L 104.646807 152.119981 
L 105.353628 156.204264 
L 106.237154 162.789828 
L 107.474091 174.09568 
L 108.357617 181.48949 
L 108.887733 184.197912 
L 109.241143 184.91662 
L 109.417848 184.916532 
L 109.594554 184.675153 
L 109.859611 183.876148 
L 110.301375 181.509793 
L 111.008195 175.919238 
L 112.245132 165.886998 
L 113.040306 161.399583 
L 114.5423 153.665677 
L 116.132647 144.350951 
L 116.486057 143.543563 
L 116.662763 143.465691 
L 116.839468 143.623777 
L 117.104526 144.316697 
L 117.457936 146.080106 
L 117.988052 150.318563 
L 118.783225 158.976666 
L 120.108515 173.207342 
L 120.815335 178.582481 
L 121.698862 183.52452 
L 122.847446 189.919243 
L 123.819324 196.907849 
L 125.851434 212.088648 
L 126.38155 214.318091 
L 126.734961 214.919777 
L 126.911666 214.901034 
L 127.088371 214.650109 
L 127.353429 213.817979 
L 127.706839 211.843915 
L 128.236955 207.162225 
L 129.032128 197.526522 
L 130.180712 183.869225 
L 130.799181 179.021706 
L 131.240944 176.919959 
L 131.682707 175.815554 
L 132.036117 175.49638 
L 132.301175 175.499729 
L 132.654586 175.729975 
L 133.184701 176.37389 
L 133.891522 177.584832 
L 134.50999 179.072289 
L 135.128459 181.193855 
L 135.923632 184.892886 
L 137.072216 190.31766 
L 137.513979 191.499715 
L 137.779037 191.774865 
L 137.955742 191.750222 
L 138.2208 191.381251 
L 138.574211 190.256874 
L 139.015974 187.885805 
L 139.634442 183.143987 
L 141.401494 168.682424 
L 142.019963 165.743123 
L 142.638431 163.919273 
L 143.875367 160.728404 
L 144.582188 157.920796 
L 145.99583 152.029477 
L 146.437593 151.171573 
L 146.702651 151.045115 
L 146.967709 151.229896 
L 147.232767 151.722522 
L 147.67453 153.16709 
L 148.292998 156.174192 
L 150.236756 166.378408 
L 151.208634 169.83839 
L 152.975687 175.112548 
L 153.594155 176.411526 
L 154.035918 176.904761 
L 154.389328 176.979432 
L 154.742739 176.758616 
L 155.184502 176.097087 
L 155.80297 174.618426 
L 158.188491 167.64371 
L 159.072017 164.588138 
L 159.955543 160.621949 
L 161.19248 155.015888 
L 161.722595 153.526132 
L 162.076006 153.048806 
L 162.341064 152.984701 
L 162.606121 153.167831 
L 162.959532 153.761942 
L 163.489648 155.229928 
L 164.991642 159.881861 
L 165.433405 160.58654 
L 165.875168 160.899727 
L 166.493636 160.970273 
L 166.935399 161.092759 
L 167.28881 161.44369 
L 167.64222 162.148012 
L 168.083983 163.636758 
L 168.614099 166.341821 
L 169.409273 171.806269 
L 170.734562 181.022466 
L 171.35303 183.857287 
L 171.794793 185.063676 
L 172.148204 185.562018 
L 172.501614 185.712932 
L 172.855025 185.610196 
L 174.091961 184.938589 
L 174.445372 185.113809 
L 174.798782 185.594937 
L 175.240545 186.668462 
L 175.770661 188.636153 
L 176.477482 192.262264 
L 177.361008 198.09117 
L 179.569823 213.824275 
L 179.834881 214.405772 
L 180.011586 214.399883 
L 180.188291 214.03367 
L 180.453349 212.740344 
L 180.80676 209.529208 
L 181.248523 203.147645 
L 181.955344 188.705686 
L 183.280633 160.42025 
L 183.899101 152.034512 
L 184.340864 148.564207 
L 184.694275 147.137062 
L 184.959333 146.72298 
L 185.136038 146.705472 
L 185.401096 146.992963 
L 185.754506 147.810976 
L 186.54968 150.482528 
L 187.433206 153.181347 
L 188.051674 154.410111 
L 188.9352 155.566316 
L 189.553668 156.524388 
L 190.083784 157.79012 
L 190.702252 159.969114 
L 191.497426 163.798272 
L 193.264478 172.784443 
L 193.794594 174.361898 
L 194.236357 175.015887 
L 194.501415 175.119933 
L 194.766473 175.027564 
L 195.119883 174.650177 
L 195.738351 173.563883 
L 196.533525 172.200382 
L 196.975288 171.821721 
L 197.328698 171.802424 
L 197.682109 172.038867 
L 198.123872 172.639949 
L 199.979277 175.648687 
L 200.332687 175.716122 
L 200.686098 175.515184 
L 201.127861 174.895563 
L 201.657976 173.697621 
L 202.80656 170.32446 
L 203.690086 168.096379 
L 204.396907 166.928575 
L 205.192081 166.110978 
L 206.340665 164.989647 
L 207.135838 163.853572 
L 208.902891 161.162847 
L 209.521359 160.667929 
L 210.139827 160.485827 
L 212.083585 160.279946 
L 212.702053 159.778777 
L 214.469105 158.081889 
L 214.910868 158.083876 
L 215.264279 158.305485 
L 215.706042 158.861666 
L 216.32451 160.081486 
L 218.179915 164.144491 
L 218.621678 164.545938 
L 218.975089 164.611163 
L 219.328499 164.458369 
L 219.770262 164.017656 
L 221.272256 162.284521 
L 221.625667 162.296882 
L 221.979077 162.601619 
L 222.332488 163.219168 
L 222.862604 164.705012 
L 223.569424 167.484249 
L 225.336477 174.747542 
L 225.954945 176.262782 
L 226.396708 176.859762 
L 226.750118 177.059858 
L 227.103529 177.048242 
L 227.545292 176.812713 
L 228.958934 175.84498 
L 229.400697 175.904299 
L 229.84246 176.237219 
L 230.460928 177.069813 
L 231.256102 178.15533 
L 231.609512 178.288121 
L 231.87457 178.087754 
L 232.139628 177.526825 
L 232.493038 176.042317 
L 232.846449 173.492207 
L 233.288212 168.483704 
L 233.818328 159.542699 
L 234.613501 141.309906 
L 235.58538 119.850766 
L 236.027143 114.455272 
L 236.292201 113.19284 
L 236.380553 113.116798 
L 236.468906 113.211224 
L 236.645611 113.896695 
L 236.910669 116.076597 
L 237.352432 122.191367 
L 238.412663 141.997873 
L 239.207837 154.323915 
L 239.826305 160.563084 
L 240.356421 163.880034 
L 240.886537 165.908936 
L 241.505005 167.371775 
L 242.476884 168.980892 
L 243.448762 170.276677 
L 243.978878 170.706022 
L 244.420641 170.810803 
L 244.774052 170.694951 
L 245.215815 170.282237 
L 245.74593 169.403294 
L 246.452751 167.691918 
L 248.484861 162.290823 
L 249.014977 161.607627 
L 249.368387 161.436495 
L 249.721798 161.491119 
L 250.163561 161.839247 
L 250.782029 162.689722 
L 252.018966 164.470983 
L 252.549082 164.822904 
L 252.990845 164.828502 
L 253.432608 164.577425 
L 253.962723 163.996418 
L 255.111307 162.259475 
L 255.906481 161.261879 
L 256.436596 160.898594 
L 256.87836 160.818507 
L 257.408475 160.974288 
L 258.115296 161.489373 
L 259.440585 162.544806 
L 260.059054 162.73732 
L 260.677522 162.6696 
L 261.472695 162.313232 
L 262.709632 161.743837 
L 263.416453 161.684323 
L 264.123274 161.85972 
L 265.890326 162.435186 
L 266.420442 162.332076 
L 267.03891 161.958922 
L 267.922436 161.079853 
L 268.982668 160.045458 
L 269.601136 159.756446 
L 270.042899 159.764143 
L 270.573015 160.016318 
L 271.191483 160.590799 
L 273.046888 162.530947 
L 273.488651 162.619256 
L 273.930414 162.441584 
L 274.372177 161.98112 
L 274.902293 161.082436 
L 275.785819 159.019651 
L 277.022755 156.153847 
L 277.641224 155.206979 
L 278.171339 154.74977 
L 278.701455 154.597828 
L 279.231571 154.684368 
L 280.203449 155.137723 
L 280.91027 155.37542 
L 281.440386 155.314136 
L 281.882149 155.019241 
L 282.323912 154.448639 
L 282.854028 153.353704 
L 283.472496 151.489627 
L 284.26767 148.238552 
L 285.592959 141.548921 
L 286.29978 138.583745 
L 286.65319 137.911573 
L 286.829895 137.924076 
L 287.006601 138.237125 
L 287.271658 139.389418 
L 287.625069 142.478269 
L 287.978479 147.656589 
L 288.508595 159.585551 
L 289.303769 184.185635 
L 290.098942 206.753291 
L 290.540705 213.64445 
L 290.805763 215.144237 
L 290.894116 215.19909 
L 291.070821 214.670805 
L 291.335879 212.419647 
L 291.777642 205.624601 
L 293.809752 168.87939 
L 294.339867 164.227159 
L 294.869983 161.440864 
L 295.400099 159.845473 
L 296.018567 158.732109 
L 298.580793 155.158757 
L 299.199261 154.653794 
L 299.641024 154.552049 
L 300.082787 154.70772 
L 300.52455 155.135334 
L 301.054666 155.994081 
L 301.761487 157.618897 
L 303.88195 162.880529 
L 304.412065 163.548679 
L 304.853828 163.785276 
L 305.295591 163.741141 
L 305.737355 163.456489 
L 306.355823 162.774821 
L 308.034522 160.781283 
L 308.564638 160.50109 
L 309.094754 160.482371 
L 309.62487 160.717825 
L 310.243338 161.25167 
L 312.540506 163.517807 
L 313.158974 163.693619 
L 313.777442 163.635132 
L 314.660968 163.296035 
L 315.986258 162.795058 
L 316.781431 162.742593 
L 317.75331 162.935056 
L 319.078599 163.194562 
L 319.78542 163.073727 
L 320.492241 162.690345 
L 321.46412 161.84268 
L 322.701056 160.795628 
L 323.319525 160.537595 
L 323.84964 160.531595 
L 324.379756 160.734593 
L 325.086577 161.288741 
L 327.20704 163.252898 
L 327.648803 163.320584 
L 328.090566 163.168736 
L 328.532329 162.786984 
L 329.150797 161.897847 
L 330.034323 160.13574 
L 331.447965 157.320314 
L 332.066433 156.554233 
L 332.508196 156.293573 
L 332.949959 156.305728 
L 333.391722 156.604016 
L 333.833485 157.185471 
L 334.451954 158.437519 
L 335.247127 160.666145 
L 336.219006 164.124198 
L 337.01418 167.696072 
L 337.721 171.998419 
L 338.339469 177.301463 
L 338.957937 184.551725 
L 340.636637 206.507283 
L 340.901695 207.224533 
L 340.990047 207.083654 
L 341.166752 206.160218 
L 341.43181 203.047637 
L 341.785221 195.567083 
L 342.315336 178.198156 
L 343.640626 131.157693 
L 344.082389 123.916898 
L 344.347446 122.388674 
L 344.435799 122.311687 
L 344.612504 122.739595 
L 344.877562 124.631911 
L 345.319325 130.135145 
L 347.17473 156.391508 
L 347.881551 162.298378 
L 348.588372 166.385075 
L 349.383545 169.71967 
L 350.267072 172.490792 
L 350.973892 174.103354 
L 351.592361 175.017663 
L 352.034124 175.352184 
L 352.475887 175.408197 
L 352.91765 175.191003 
L 353.447766 174.604964 
L 354.154586 173.406185 
L 356.009991 169.983307 
L 356.62846 169.379451 
L 357.070223 169.205919 
L 357.511986 169.237702 
L 358.042101 169.50031 
L 358.925628 170.253088 
L 359.985859 171.116456 
L 360.604327 171.362048 
L 361.134443 171.356976 
L 361.752911 171.097064 
L 362.459732 170.526353 
L 364.933605 168.262136 
L 365.728779 167.990623 
L 366.78901 167.924977 
L 367.937594 167.816513 
L 368.732768 167.499858 
L 369.616294 166.864001 
L 372.17852 164.770372 
L 372.88534 164.585214 
L 373.680514 164.618523 
L 375.447566 164.804586 
L 376.066035 164.606148 
L 376.684503 164.160076 
L 377.302971 163.438755 
L 378.098145 162.124539 
L 379.246729 159.695432 
L 381.013781 155.960656 
L 381.98566 154.400062 
L 382.780833 153.489079 
L 383.487654 153.01082 
L 384.01777 152.889332 
L 384.547885 152.986178 
L 385.078001 153.302665 
L 385.696469 153.950131 
L 386.314938 154.943644 
L 386.845053 156.201287 
L 387.375169 158.089086 
L 387.905285 161.020716 
L 388.4354 165.567431 
L 388.965516 172.327683 
L 389.583984 183.322656 
L 390.820921 207.024563 
L 391.085979 209.251561 
L 391.262684 209.551814 
L 391.439389 208.75971 
L 391.704447 205.36421 
L 392.057857 196.726655 
L 392.587973 176.808179 
L 393.648205 135.119978 
L 394.089968 125.966993 
L 394.355025 123.671314 
L 394.531731 123.371102 
L 394.708436 123.936014 
L 394.973494 126.126542 
L 395.415257 132.222127 
L 397.093956 158.015405 
L 397.800777 164.74458 
L 398.507598 169.376197 
L 399.302772 173.035838 
L 400.097945 175.624276 
L 400.716414 176.997143 
L 401.246529 177.707832 
L 401.688292 177.956192 
L 402.041703 177.930538 
L 402.483466 177.633939 
L 403.013582 176.940278 
L 403.720402 175.602412 
L 405.752513 171.504255 
L 406.459333 170.651288 
L 407.077802 170.217929 
L 407.784623 169.985424 
L 410.081791 169.450186 
L 410.965317 168.870024 
L 412.025548 167.876758 
L 414.764479 165.171557 
L 416.178121 164.208687 
L 418.828699 162.481699 
L 420.507399 160.97662 
L 421.655983 160.071311 
L 422.362804 159.760031 
L 422.981272 159.715487 
L 423.59974 159.91025 
L 424.306561 160.410772 
L 425.366793 161.520308 
L 426.603729 162.74363 
L 427.398903 163.204414 
L 429.519365 164.141894 
L 430.049481 164.869414 
L 430.579597 166.009059 
L 431.198065 167.932312 
L 431.904886 170.923726 
L 432.788412 175.71917 
L 434.113701 184.400716 
L 435.173933 190.912323 
L 435.615696 192.360559 
L 435.792401 192.491591 
L 435.969106 192.273192 
L 436.145811 191.63526 
L 436.410869 189.73277 
L 436.76428 185.073461 
L 437.206043 175.330344 
L 437.824511 155.002874 
L 438.79639 122.477727 
L 439.1498 117.282702 
L 439.326505 116.867546 
L 439.503211 117.98661 
L 439.768269 122.428943 
L 440.210032 135.854403 
L 441.712026 188.507919 
L 442.153789 195.203533 
L 442.418847 196.989058 
L 442.595552 197.405735 
L 442.683905 197.414999 
L 442.86061 197.091321 
L 443.125668 195.911603 
L 443.567431 192.730068 
L 445.952951 173.425341 
L 446.836478 168.629621 
L 447.631651 165.390615 
L 448.338472 163.354351 
L 448.95694 162.198139 
L 449.575409 161.533253 
L 450.193877 161.201454 
L 452.137634 160.417145 
L 453.286218 159.500986 
L 454.258097 158.844118 
L 454.876565 158.695674 
L 455.406681 158.795944 
L 456.025149 159.179558 
L 456.820323 160.00866 
L 459.735959 163.429453 
L 462.12148 165.688364 
L 463.358416 167.31075 
L 466.097347 171.070261 
L 467.069226 171.979664 
L 467.952752 172.514991 
L 468.836278 172.784506 
L 470.24992 172.908643 
L 471.310151 173.101766 
L 473.077204 173.513 
L 473.518967 173.340734 
L 473.96073 172.903245 
L 474.402493 172.11915 
L 474.932609 170.625472 
L 475.551077 168.027371 
L 476.257898 163.894621 
L 477.053071 157.855086 
L 478.113303 147.942247 
L 479.350239 136.392545 
L 479.70365 134.559415 
L 479.880355 134.22368 
L 479.968707 134.241753 
L 480.145413 134.711817 
L 480.410471 136.686467 
L 480.763881 142.14219 
L 481.205644 153.994534 
L 481.824112 178.282805 
L 482.619286 208.600617 
L 482.972696 215.261672 
L 483.149402 216.201215 
L 483.237754 216.043857 
L 483.414459 214.498516 
L 483.679517 209.340467 
L 484.12128 195.017075 
L 485.358217 150.528429 
L 485.79998 141.79841 
L 486.15339 138.112371 
L 486.418448 136.941629 
L 486.595153 136.771227 
L 486.771859 136.995653 
L 487.036917 137.910604 
L 487.47868 140.453955 
L 490.659374 161.440976 
L 491.5429 165.165605 
L 492.338073 167.585787 
L 493.133247 169.301066 
L 494.193478 171.020125 
L 496.048883 173.595079 
L 496.755704 174.256398 
L 497.28582 174.50608 
L 497.815935 174.507638 
L 498.346051 174.265147 
L 498.964519 173.727138 
L 500.113103 172.348841 
L 501.70345 170.532936 
L 503.470503 168.590605 
L 504.530734 167.002632 
L 506.121081 164.110768 
L 507.799781 161.232579 
L 509.12507 159.411561 
L 510.450359 157.949556 
L 512.659174 155.922102 
L 513.631053 155.19163 
L 514.161169 155.029174 
L 514.602932 155.148266 
L 514.956342 155.480193 
L 515.398105 156.275491 
L 515.839868 157.579915 
L 516.369984 159.919937 
L 516.988452 163.809381 
L 517.695273 169.806558 
L 518.578799 179.46097 
L 520.345852 199.808232 
L 520.610909 200.848044 
L 520.699262 200.895403 
L 520.875967 200.449543 
L 521.052673 199.183579 
L 521.31773 195.516926 
L 521.671141 186.983286 
L 522.201256 166.820471 
L 523.34984 119.687374 
L 523.614898 115.313605 
L 523.791604 114.610417 
L 523.879956 114.930714 
L 524.056661 116.863537 
L 524.321719 122.665628 
L 524.851835 141.379075 
L 525.823714 177.272266 
L 526.353829 188.824316 
L 526.70724 192.877861 
L 527.06065 194.57598 
L 527.237355 194.733762 
L 527.414061 194.530621 
L 527.679119 193.695878 
L 528.120882 191.353244 
L 529.09276 184.504737 
L 530.683107 173.551552 
L 531.654986 168.228489 
L 532.538512 164.547255 
L 533.422038 161.781629 
L 534.48227 159.20752 
L 535.454148 157.361118 
L 536.160969 156.419751 
L 536.691085 156.011372 
L 537.221201 155.887983 
L 537.751316 156.039723 
L 538.369785 156.502088 
L 539.341663 157.58637 
L 542.168947 161.195991 
L 543.140826 162.921318 
L 544.377762 165.627375 
L 547.028341 171.518073 
L 548.883746 175.040817 
L 550.297387 177.295387 
L 551.357619 178.613214 
L 551.976087 179.0564 
L 552.41785 179.092075 
L 552.771261 178.872945 
L 553.124671 178.367122 
L 553.566434 177.234662 
L 554.008197 175.438243 
L 554.538313 172.276294 
L 555.156781 167.084656 
L 555.863602 159.160681 
L 556.835481 145.409252 
L 557.80736 131.963561 
L 558.16077 129.22686 
L 558.337475 128.767113 
L 558.425828 128.824658 
L 558.602533 129.600833 
L 558.867591 132.653067 
L 559.221001 140.715108 
L 559.662764 157.202991 
L 560.988054 214.360823 
L 561.253111 218.04051 
L 561.341464 218.30135 
L 561.429817 218.078629 
L 561.606522 216.231864 
L 561.87158 210.311908 
L 562.313343 194.462586 
L 563.461927 150.865985 
L 563.90369 141.482113 
L 564.2571 137.388163 
L 564.522158 135.961192 
L 564.698863 135.642191 
L 564.875569 135.737158 
L 565.140626 136.498968 
L 565.58239 138.920605 
L 566.377563 145.064602 
L 568.409673 161.177405 
L 569.293199 166.437054 
L 570.176725 170.409681 
L 571.060252 173.391188 
L 571.943778 175.61913 
L 572.650599 176.855435 
L 573.180714 177.415029 
L 573.622477 177.62235 
L 574.06424 177.599105 
L 574.594356 177.301372 
L 575.212824 176.669809 
L 576.273056 175.200898 
L 577.686697 172.878392 
L 578.658576 170.876092 
L 579.718808 168.158873 
L 584.843259 154.088306 
L 585.815138 152.277497 
L 586.521959 151.374049 
L 587.052074 151.034008 
L 587.405485 151.038213 
L 587.758895 151.290659 
L 588.112306 151.858593 
L 588.554069 153.126284 
L 588.995832 155.151398 
L 589.525948 158.760498 
L 590.144416 164.766253 
L 590.851237 173.98117 
L 592.9717 203.822713 
L 593.148405 204.148706 
L 593.236757 203.989237 
L 593.413463 202.93523 
L 593.67852 199.277595 
L 594.031931 190.087334 
L 594.473694 171.908968 
L 595.710631 116.090477 
L 595.975688 112.375062 
L 596.064041 112.190564 
L 596.152394 112.534282 
L 596.329099 114.750888 
L 596.594157 121.497401 
L 597.124272 143.156754 
L 598.096151 183.075688 
L 598.537914 193.407487 
L 598.891325 197.727953 
L 599.156382 199.05402 
L 599.333088 199.199978 
L 599.509793 198.86271 
L 599.774851 197.634883 
L 600.216614 194.253413 
L 601.10014 185.216162 
L 602.602134 170.113365 
L 603.48566 163.400351 
L 604.280834 158.960827 
L 605.076008 155.767824 
L 605.782828 153.762417 
L 606.401297 152.596027 
L 606.931412 152.045433 
L 607.373175 151.91114 
L 607.814939 152.062573 
L 608.256702 152.472012 
L 608.87517 153.395359 
L 609.758696 155.185003 
L 610.995633 158.238084 
L 612.144217 161.678346 
L 613.557858 166.747004 
L 616.296789 176.704556 
L 617.357021 179.733498 
L 618.063842 181.180767 
L 618.593957 181.865881 
L 619.03572 182.123648 
L 619.389131 182.088688 
L 619.742541 181.798903 
L 620.095952 181.203131 
L 620.537715 179.928421 
L 620.979478 177.925045 
L 621.509594 174.343467 
L 622.128062 168.285429 
L 622.834883 158.819517 
L 624.955345 127.997501 
L 625.132051 127.561453 
L 625.220403 127.656309 
L 625.397109 128.560892 
L 625.662166 131.950846 
L 626.015577 140.766451 
L 626.45734 158.704549 
L 627.782629 218.696277 
L 627.959334 220.855529 
L 628.047687 221.064697 
L 628.13604 220.688566 
L 628.312745 218.224232 
L 628.577803 210.649276 
L 629.107918 186.151514 
L 629.991444 144.922637 
L 630.433207 133.220628 
L 630.786618 128.823069 
L 631.051676 127.954364 
L 631.140028 128.047772 
L 631.316734 128.716421 
L 631.670144 131.576186 
L 632.288612 139.465118 
L 634.144017 164.991329 
L 634.939191 172.590176 
L 635.646012 177.272776 
L 636.26448 180.01835 
L 636.794596 181.559988 
L 637.324711 182.466861 
L 637.766474 182.778533 
L 638.119885 182.74887 
L 638.473295 182.479324 
L 638.915058 181.823925 
L 639.445174 180.622677 
L 640.240348 178.169182 
L 641.388931 173.802559 
L 642.979279 166.84483 
L 645.983267 153.365528 
L 646.866793 150.429566 
L 647.485262 148.992951 
L 647.927025 148.384485 
L 648.280435 148.193926 
L 648.545493 148.241961 
L 648.898904 148.58147 
L 649.252314 149.260437 
L 649.694077 150.634693 
L 650.224193 153.161746 
L 650.754308 156.815936 
L 651.372777 162.751727 
L 652.079598 171.896804 
L 653.404887 193.1464 
L 654.023355 201.069642 
L 654.376766 203.218463 
L 654.465118 203.347889 
L 654.553471 203.283511 
L 654.730176 202.51088 
L 654.995234 199.517496 
L 655.348644 191.587794 
L 655.790407 175.002349 
L 657.204049 111.389138 
L 657.380754 109.594808 
L 657.469107 109.64617 
L 657.645812 111.675257 
L 657.91087 119.285494 
L 658.352633 141.238163 
L 659.412865 197.409511 
L 659.766275 206.62572 
L 660.031333 209.658768 
L 660.208038 210.055256 
L 660.384743 209.348089 
L 660.649801 206.619634 
L 661.091564 199.079709 
L 663.212027 158.445157 
L 663.830495 151.607394 
L 664.360611 147.827105 
L 664.802374 145.933866 
L 665.155784 145.106268 
L 665.509195 144.790868 
L 665.774253 144.844032 
L 666.127663 145.251879 
L 666.569426 146.237691 
L 667.099542 148.025938 
L 667.806363 151.255283 
L 668.866594 157.298283 
L 672.223993 177.245538 
L 673.195872 181.496218 
L 673.902693 183.685958 
L 674.432809 184.704481 
L 674.786219 185.028852 
L 675.051277 185.059367 
L 675.316335 184.888718 
L 675.669745 184.319598 
L 676.111508 183.009913 
L 676.641624 180.491372 
L 677.260092 176.17633 
L 677.966913 169.376481 
L 678.762087 159.397896 
L 680.794197 131.820821 
L 681.059255 130.411152 
L 681.23596 130.176253 
L 681.412665 130.614328 
L 681.677723 132.73837 
L 682.031133 138.756358 
L 682.472897 152.002805 
L 683.091365 180.022398 
L 683.886538 216.030584 
L 684.151596 221.694094 
L 684.328301 222.432421 
L 684.505007 220.472723 
L 684.770064 212.470677 
L 685.211828 188.082206 
L 686.272059 124.170503 
L 686.625469 115.585258 
L 686.802175 114.387842 
L 686.890527 114.495478 
L 687.067232 115.97067 
L 687.33229 120.796865 
L 687.862406 136.215775 
L 689.099343 173.737338 
L 689.717811 185.49891 
L 690.159574 190.572491 
L 690.512984 192.857459 
L 690.778042 193.673417 
L 690.954747 193.843047 
L 691.131453 193.746564 
L 691.39651 193.163654 
L 691.749921 191.704932 
L 692.280037 188.423394 
L 693.163563 181.166724 
L 696.167552 154.826089 
L 697.051078 149.51049 
L 697.669546 146.893134 
L 698.199662 145.492549 
L 698.553072 145.029342 
L 698.81813 144.939862 
L 699.083188 145.076545 
L 699.436598 145.617224 
L 699.878361 146.882965 
L 700.408477 149.299911 
L 701.026945 153.417775 
L 701.733766 159.867233 
L 702.617292 170.252636 
L 704.737755 196.613232 
L 705.091165 198.746111 
L 705.356223 199.268533 
L 705.532929 198.983684 
L 705.709634 198.116451 
L 705.974692 195.587616 
L 706.328102 189.643243 
L 706.769865 177.730706 
L 707.388333 153.49717 
L 708.360212 115.151677 
L 708.62527 111.190063 
L 708.713623 111.005836 
L 708.801975 111.454812 
L 708.97868 114.350242 
L 709.243738 123.767043 
L 709.685501 151.012446 
L 710.65738 216.165578 
L 710.922438 223.458074 
L 711.099143 224.672282 
L 711.187496 224.223449 
L 711.364201 221.392201 
L 711.717611 209.482069 
L 713.484664 135.65095 
L 713.838074 130.238839 
L 714.103132 128.425837 
L 714.279837 128.146143 
L 714.456542 128.514667 
L 714.7216 130.104191 
L 715.163363 134.870648 
L 715.870184 145.672975 
L 717.637237 173.514483 
L 718.43241 182.391127 
L 719.050878 187.071743 
L 719.580994 189.481973 
L 719.934404 190.284156 
L 720.199462 190.475944 
L 720.376168 190.413057 
L 720.641225 190.038197 
L 720.994636 189.025997 
L 721.436399 186.963773 
L 721.966515 183.386284 
L 722.673335 176.96306 
L 723.645214 165.818515 
L 725.85403 139.606815 
L 726.384145 136.101139 
L 726.649203 135.265933 
L 726.825908 135.125364 
L 727.002614 135.358653 
L 727.267671 136.487336 
L 727.621082 139.627286 
L 728.062845 146.510482 
L 728.592961 159.377688 
L 729.299781 182.998168 
L 730.183308 211.510195 
L 730.536718 216.411643 
L 730.625071 216.576105 
L 730.713423 216.243393 
L 730.890128 213.967837 
L 731.155186 206.237074 
L 731.508597 187.929369 
L 732.833886 104.07011 
L 733.010591 102.345917 
L 733.098944 102.894213 
L 733.275649 106.735258 
L 733.540707 118.590133 
L 734.070823 155.507315 
L 734.777643 200.97291 
L 735.131054 212.961761 
L 735.396112 216.538944 
L 735.484464 216.787003 
L 735.572817 216.606536 
L 735.749522 215.081971 
L 736.01458 210.37079 
L 736.544696 195.354853 
L 737.958338 152.213113 
L 738.576806 140.728221 
L 739.018569 136.022223 
L 739.371979 134.206509 
L 739.548685 133.894878 
L 739.72539 133.951698 
L 739.902095 134.354202 
L 740.167153 135.555068 
L 740.608916 138.949975 
L 741.227384 145.995249 
L 742.199263 160.259598 
L 743.877963 185.063978 
L 744.584784 192.293965 
L 745.026547 195.040976 
L 745.379957 196.035499 
L 745.556662 196.086161 
L 745.733367 195.818175 
L 745.998425 194.787249 
L 746.351836 192.174285 
L 746.793599 186.827526 
L 747.323715 177.36649 
L 748.030535 160.32022 
L 749.444177 125.123202 
L 749.797588 121.541957 
L 749.88594 121.333836 
L 749.974293 121.444817 
L 750.150998 122.705473 
L 750.416056 127.451601 
L 750.769466 139.52754 
L 751.211229 163.285904 
L 752.271461 224.974634 
L 752.536519 228.813016 
L 752.624871 228.196584 
L 752.801577 223.936011 
L 753.066634 210.22153 
L 753.508397 172.940547 
L 754.215218 114.063205 
L 754.480276 103.719815 
L 754.656981 101.717162 
L 754.745334 102.152169 
L 754.922039 105.663792 
L 755.187097 116.459194 
L 755.805565 155.033677 
L 756.512386 194.540245 
L 756.954149 207.986771 
L 757.219207 211.487603 
L 757.395912 212.091946 
L 757.484265 211.923249 
L 757.66097 210.735173 
L 757.926028 207.114806 
L 758.367791 197.460735 
L 759.516375 164.595985 
L 760.311549 145.334301 
L 760.841664 136.753082 
L 761.283427 132.697892 
L 761.548485 131.661472 
L 761.72519 131.549236 
L 761.901896 131.89228 
L 762.166954 133.237982 
L 762.520364 136.509336 
L 762.962127 142.756416 
L 763.580595 154.787678 
L 765.789411 201.939622 
L 766.142821 204.701738 
L 766.319526 205.009234 
L 766.496232 204.504604 
L 766.761289 202.089158 
L 767.1147 195.537334 
L 767.556463 181.879184 
L 768.174931 154.405184 
L 769.058457 115.822983 
L 769.323515 110.729563 
L 769.411868 110.235376 
L 769.50022 110.428099 
L 769.676926 113.034122 
L 769.941983 122.838208 
L 770.295394 146.465678 
L 771.443978 234.04998 
L 771.53233 235.309589 
L 771.620683 235.20817 
L 771.797388 230.880899 
L 772.062446 214.829169 
L 772.592562 161.824862 
L 773.122678 114.563342 
L 773.387735 102.981884 
L 773.564441 100.684341 
L 773.652793 101.104889 
L 773.829498 104.80182 
L 774.094556 116.263159 
L 774.713025 157.125214 
L 775.419845 198.49332 
L 775.861609 211.728521 
L 776.126666 214.426492 
L 776.215019 214.508637 
L 776.391724 213.547962 
L 776.656782 209.601289 
L 777.098545 197.856051 
L 777.982071 165.33467 
L 778.777245 139.18519 
L 779.30736 128.62687 
L 779.660771 125.663125 
L 779.837476 125.496036 
L 780.014181 126.217355 
L 780.279239 128.946765 
L 780.63265 135.516775 
L 781.162765 150.758393 
L 783.01817 210.822783 
L 783.194875 212.211687 
L 783.283228 212.331304 
L 783.371581 212.041114 
L 783.548286 210.165681 
L 783.813344 203.9511 
L 784.166754 189.300299 
L 784.69687 156.489727 
L 785.403691 112.80253 
L 785.668749 105.228838 
L 785.757101 104.578964 
L 785.845454 104.997874 
L 786.022159 109.245542 
L 786.287217 124.311506 
L 786.72898 168.150119 
L 787.347448 230.120274 
L 787.612506 239.205724 
L 787.700859 238.650169 
L 787.877564 231.990716 
L 788.142622 209.578041 
L 789.202853 97.569785 
L 789.379558 94.529347 
L 789.467911 95.429832 
L 789.644616 101.680841 
L 789.998027 127.96403 
L 790.969905 212.673686 
L 791.234963 222.363871 
L 791.411668 224.293323 
L 791.500021 223.950137 
L 791.676726 220.847694 
L 791.941784 211.000231 
L 792.4719 179.544608 
L 793.267073 132.05313 
L 793.620484 120.191979 
L 793.885542 116.845562 
L 793.973894 116.844384 
L 794.150599 118.500548 
L 794.415657 124.930166 
L 794.769068 139.818591 
L 796.271062 215.06933 
L 796.447767 216.670092 
L 796.53612 216.391193 
L 796.712825 213.563287 
L 796.977883 203.602709 
L 797.419646 173.769799 
L 798.303172 108.44795 
L 798.479877 104.501607 
L 798.56823 104.619084 
L 798.744935 109.444089 
L 799.009993 128.303985 
L 799.451756 182.590743 
L 799.893519 233.020679 
L 800.070225 241.256775 
L 800.158577 241.505105 
L 800.335282 233.510612 
L 800.60034 201.446246 
L 801.395514 81.332517 
L 801.483866 79.426758 
L 801.572219 81.357102 
L 801.748924 96.455716 
L 802.102335 159.991487 
L 802.63245 249.119623 
L 802.809156 254.777464 
L 802.985861 244.698964 
L 803.250919 205.004011 
L 803.957739 83.433651 
L 804.134445 78.811465 
L 804.31115 89.577877 
L 804.576208 130.208886 
L 805.283029 252.062229 
L 805.371381 254.487556 
L 805.459734 252.239225 
L 805.636439 233.694155 
L 805.98985 154.069611 
L 806.34326 77.201409 
L 806.519965 68.83723 
L 806.69667 91.964124 
L 807.050081 214.546605 
L 807.315139 281.257005 
L 807.403491 276.132341 
L 807.580197 212.917242 
L 807.933607 35.55267 
L 808.02196 44.362257 
L 808.198665 161.504843 
L 808.37537 289.871721 
L 808.463723 288.716726 
L 808.817133 66.436675 
L 809.082191 231.706005 
L 809.170544 226.545356 
L 809.435601 121.391531 
L 809.700659 191.679647 
L 809.789012 189.863548 
L 810.05407 148.89188 
L 810.319128 176.151925 
L 810.40748 174.320323 
L 810.672538 159.63145 
L 810.937596 169.900916 
L 811.025949 168.728219 
L 811.114301 165.865942 
L 811.114301 165.865942 
" clip-path="url(#pd4b4b6b53d)" style="fill: none; stroke: #ff7f0e; stroke-width: 0.6; stroke-linecap: square"/>
   </g>
   <g id="patch_3">
    <path d="M 52.160938 313.478125 
L 52.160938 22.318125 
" style="fill: none; stroke: #000000; stroke-width: 0.8; stroke-linejoin: miter; stroke-linecap: square"/>
   </g>
   <g id="patch_4">
    <path d="M 847.254937 313.478125 
L 847.254937 22.318125 
" style="fill: none; stroke: #000000; stroke-width: 0.8; stroke-linejoin: miter; stroke-linecap: square"/>
   </g>
   <g id="patch_5">
    <path d="M 52.160938 313.478125 
L 847.254937 313.478125 
" style="fill: none; stroke: #000000; stroke-width: 0.8; stroke-linejoin: miter; stroke-linecap: square"/>
   </g>
   <g id="patch_6">
    <path d="M 52.160938 22.318125 
L 847.254937 22.318125 
" style="fill: none; stroke: #000000; stroke-width: 0.8; stroke-linejoin: miter; stroke-linecap: square"/>
   </g>
   <g id="text_16">
    <!-- M=60, e=0.35, f_min=10 Hz -->
    <g transform="translate(363.504812 16.318125) scale(0.12 -0.12)">
     <defs>
      <path id="DejaVuSans-4d" d="M 628 4666 
L 1569 4666 
L 2759 1491 
L 3956 4666 
L 4897 4666 
L 4897 0 
L 4281 0 
L 4281 4097 
L 3078 897 
L 2444 897 
L 1241 4097 
L 1241 0 
L 628 0 
L 628 4666 
z
" transform="scale(0.015625)"/>
      <path id="DejaVuSans-3d" d="M 678 2906 
L 4684 2906 
L 4684 2381 
L 678 2381 
L 678 2906 
z
M 678 1631 
L 4684 1631 
L 4684 1100 
L 678 1100 
L 678 1631 
z
" transform="scale(0.015625)"/>
      <path id="DejaVuSans-2c" d="M 750 794 
L 1409 794 
L 1409 256 
L 897 -744 
L 494 -744 
L 750 256 
L 750 794 
z
" transform="scale(0.015625)"/>
      <path id="DejaVuSans-65" d="M 3597 1894 
L 3597 1613 
L 953 1613 
Q 991 1019 1311 708 
Q 1631 397 2203 397 
Q 2534 397 2845 478 
Q 3156 559 3463 722 
L 3463 178 
Q 3153 47 2828 -22 
Q 2503 -91 2169 -91 
Q 1331 -91 842 396 
Q 353 884 353 1716 
Q 353 2575 817 3079 
Q 1281 3584 2069 3584 
Q 2775 3584 3186 3129 
Q 3597 2675 3597 1894 
z
M 3022 2063 
Q 3016 2534 2758 2815 
Q 2500 3097 2075 3097 
Q 1594 3097 1305 2825 
Q 1016 2553 972 2059 
L 3022 2063 
z
" transform="scale(0.015625)"/>
      <path id="DejaVuSans-33" d="M 2597 2516 
Q 3050 2419 3304 2112 
Q 3559 1806 3559 1356 
Q 3559 666 3084 287 
Q 2609 -91 1734 -91 
Q 1441 -91 1130 -33 
Q 819 25 488 141 
L 488 750 
Q 750 597 1062 519 
Q 1375 441 1716 441 
Q 2309 441 2620 675 
Q 2931 909 2931 1356 
Q 2931 1769 2642 2001 
Q 2353 2234 1838 2234 
L 1294 2234 
L 1294 2753 
L 1863 2753 
Q 2328 2753 2575 2939 
Q 2822 3125 2822 3475 
Q 2822 3834 2567 4026 
Q 2313 4219 1838 4219 
Q 1578 4219 1281 4162 
Q 984 4106 628 3988 
L 628 4550 
Q 988 4650 1302 4700 
Q 1616 4750 1894 4750 
Q 2613 4750 3031 4423 
Q 3450 4097 3450 3541 
Q 3450 3153 3228 2886 
Q 3006 2619 2597 2516 
z
" transform="scale(0.015625)"/>
      <path id="DejaVuSans-35" d="M 691 4666 
L 3169 4666 
L 3169 4134 
L 1269 4134 
L 1269 2991 
Q 1406 3038 1543 3061 
Q 1681 3084 1819 3084 
Q 2600 3084 3056 2656 
Q 3513 2228 3513 1497 
Q 3513 744 3044 326 
Q 2575 -91 1722 -91 
Q 1428 -91 1123 -41 
Q 819 9 494 109 
L 494 744 
Q 775 591 1075 516 
Q 1375 441 1709 441 
Q 2250 441 2565 725 
Q 2881 1009 2881 1497 
Q 2881 1984 2565 2268 
Q 2250 2553 1709 2553 
Q 1456 2553 1204 2497 
Q 953 2441 691 2322 
L 691 4666 
z
" transform="scale(0.015625)"/>
      <path id="DejaVuSans-66" d="M 2375 4863 
L 2375 4384 
L 1825 4384 
Q 1516 4384 1395 4259 
Q 1275 4134 1275 3809 
L 1275 3500 
L 2222 3500 
L 2222 3053 
L 1275 3053 
L 1275 0 
L 697 0 
L 697 3053 
L 147 3053 
L 147 3500 
L 697 3500 
L 697 3744 
Q 697 4328 969 4595 
Q 1241 4863 1831 4863 
L 2375 4863 
z
" transform="scale(0.015625)"/>
      <path id="DejaVuSans-5f" d="M 3263 -1063 
L 3263 -1509 
L -63 -1509 
L -63 -1063 
L 3263 -1063 
z
" transform="scale(0.015625)"/>
      <path id="DejaVuSans-6d" d="M 3328 2828 
Q 3544 3216 3844 3400 
Q 4144 3584 4550 3584 
Q 5097 3584 5394 3201 
Q 5691 2819 5691 2113 
L 5691 0 
L 5113 0 
L 5113 2094 
Q 5113 2597 4934 2840 
Q 4756 3084 4391 3084 
Q 3944 3084 3684 2787 
Q 3425 2491 3425 1978 
L 3425 0 
L 2847 0 
L 2847 2094 
Q 2847 2600 2669 2842 
Q 2491 3084 2119 3084 
Q 1678 3084 1418 2786 
Q 1159 2488 1159 1978 
L 1159 0 
L 581 0 
L 581 3500 
L 1159 3500 
L 1159 2956 
Q 1356 3278 1631 3431 
Q 1906 3584 2284 3584 
Q 2666 3584 2933 3390 
Q 3200 3197 3328 2828 
z
" transform="scale(0.015625)"/>
      <path id="DejaVuSans-69" d="M 603 3500 
L 1178 3500 
L 1178 0 
L 603 0 
L 603 3500 
z
M 603 4863 
L 1178 4863 
L 1178 4134 
L 603 4134 
L 603 4863 
z
" transform="scale(0.015625)"/>
      <path id="DejaVuSans-6e" d="M 3513 2113 
L 3513 0 
L 2938 0 
L 2938 2094 
Q 2938 2591 2744 2837 
Q 2550 3084 2163 3084 
Q 1697 3084 1428 2787 
Q 1159 2491 1159 1978 
L 1159 0 
L 581 0 
L 581 3500 
L 1159 3500 
L 1159 2956 
Q 1366 3272 1645 3428 
Q 1925 3584 2291 3584 
Q 2894 3584 3203 3211 
Q 3513 2838 3513 2113 
z
" transform="scale(0.015625)"/>
      <path id="DejaVuSans-48" d="M 628 4666 
L 1259 4666 
L 1259 2753 
L 3553 2753 
L 3553 4666 
L 4184 4666 
L 4184 0 
L 3553 0 
L 3553 2222 
L 1259 2222 
L 1259 0 
L 628 0 
L 628 4666 
z
" transform="scale(0.015625)"/>
      <path id="DejaVuSans-7a" d="M 353 3500 
L 3084 3500 
L 3084 2975 
L 922 459 
L 3084 459 
L 3084 0 
L 275 0 
L 275 525 
L 2438 3041 
L 353 3041 
L 353 3500 
z
" transform="scale(0.015625)"/>
     </defs>
     <use xlink:href="#DejaVuSans-4d"/>
     <use xlink:href="#DejaVuSans-3d" transform="translate(86.279297 0)"/>
     <use xlink:href="#DejaVuSans-36" transform="translate(170.068359 0)"/>
     <use xlink:href="#DejaVuSans-30" transform="translate(233.691406 0)"/>
     <use xlink:href="#DejaVuSans-2c" transform="translate(297.314453 0)"/>
     <use xlink:href="#DejaVuSans-20" transform="translate(329.101562 0)"/>
     <use xlink:href="#DejaVuSans-65" transform="translate(360.888672 0)"/>
     <use xlink:href="#DejaVuSans-3d" transform="translate(422.412109 0)"/>
     <use xlink:href="#DejaVuSans-30" transform="translate(506.201172 0)"/>
     <use xlink:href="#DejaVuSans-2e" transform="translate(569.824219 0)"/>
     <use xlink:href="#DejaVuSans-33" transform="translate(601.611328 0)"/>
     <use xlink:href="#DejaVuSans-35" transform="translate(665.234375 0)"/>
     <use xlink:href="#DejaVuSans-2c" transform="translate(728.857422 0)"/>
     <use xlink:href="#DejaVuSans-20" transform="translate(760.644531 0)"/>
     <use xlink:href="#DejaVuSans-66" transform="translate(792.431641 0)"/>
     <use xlink:href="#DejaVuSans-5f" transform="translate(827.636719 0)"/>
     <use xlink:href="#DejaVuSans-6d" transform="translate(877.636719 0)"/>
     <use xlink:href="#DejaVuSans-69" transform="translate(975.048828 0)"/>
     <use xlink:href="#DejaVuSans-6e" transform="translate(1002.832031 0)"/>
     <use xlink:href="#DejaVuSans-3d" transform="translate(1066.210938 0)"/>
     <use xlink:href="#DejaVuSans-31" transform="translate(1150 0)"/>
     <use xlink:href="#DejaVuSans-30" transform="translate(1213.623047 0)"/>
     <use xlink:href="#DejaVuSans-20" transform="translate(1277.246094 0)"/>
     <use xlink:href="#DejaVuSans-48" transform="translate(1309.033203 0)"/>
     <use xlink:href="#DejaVuSans-7a" transform="translate(1384.228516 0)"/>
    </g>
   </g>
   <g id="legend_1">
    <g id="patch_7">
     <path d="M 59.160938 59.674375 
L 123.960938 59.674375 
Q 125.960938 59.674375 125.960938 57.674375 
L 125.960938 29.318125 
Q 125.960938 27.318125 123.960938 27.318125 
L 59.160938 27.318125 
Q 57.160938 27.318125 57.160938 29.318125 
L 57.160938 57.674375 
Q 57.160938 59.674375 59.160938 59.674375 
z
" style="fill: #ffffff; opacity: 0.8; stroke: #cccccc; stroke-linejoin: miter"/>
    </g>
    <g id="line2d_29">
     <path d="M 61.160938 35.416562 
L 71.160938 35.416562 
L 81.160938 35.416562 
" style="fill: none; stroke: #1f77b4; stroke-width: 0.6; stroke-linecap: square"/>
    </g>
    <g id="text_17">
     <!-- $h_+$ -->
     <g transform="translate(89.160938 38.916562) scale(0.1 -0.1)">
      <defs>
       <path id="DejaVuSans-2b" d="M 2944 4013 
L 2944 2272 
L 4684 2272 
L 4684 1741 
L 2944 1741 
L 2944 0 
L 2419 0 
L 2419 1741 
L 678 1741 
L 678 2272 
L 2419 2272 
L 2419 4013 
L 2944 4013 
z
" transform="scale(0.015625)"/>
      </defs>
      <use xlink:href="#DejaVuSans-Oblique-68" transform="translate(0 0.015625)"/>
      <use xlink:href="#DejaVuSans-2b" transform="translate(77.016602 -16.390625) scale(0.7)"/>
     </g>
    </g>
    <g id="line2d_30">
     <path d="M 61.160938 50.094688 
L 71.160938 50.094688 
L 81.160938 50.094688 
" style="fill: none; stroke: #ff7f0e; stroke-width: 0.6; stroke-linecap: square"/>
    </g>
    <g id="text_18">
     <!-- $h_	imes$ -->
     <g transform="translate(89.160938 53.594688) scale(0.1 -0.1)">
      <defs>
       <path id="DejaVuSans-Oblique-69" d="M 1172 4863 
L 1747 4863 
L 1606 4134 
L 1031 4134 
L 1172 4863 
z
M 909 3500 
L 1484 3500 
L 800 0 
L 225 0 
L 909 3500 
z
" transform="scale(0.015625)"/>
       <path id="DejaVuSans-Oblique-6d" d="M 5747 2113 
L 5338 0 
L 4763 0 
L 5166 2094 
Q 5191 2228 5203 2325 
Q 5216 2422 5216 2491 
Q 5216 2772 5059 2928 
Q 4903 3084 4622 3084 
Q 4203 3084 3875 2770 
Q 3547 2456 3450 1953 
L 3066 0 
L 2491 0 
L 2900 2094 
Q 2925 2209 2937 2307 
Q 2950 2406 2950 2484 
Q 2950 2769 2794 2926 
Q 2638 3084 2363 3084 
Q 1938 3084 1609 2770 
Q 1281 2456 1184 1953 
L 800 0 
L 225 0 
L 909 3500 
L 1484 3500 
L 1375 2956 
Q 1609 3263 1923 3423 
Q 2238 3584 2597 3584 
Q 2978 3584 3223 3384 
Q 3469 3184 3519 2828 
Q 3781 3197 4126 3390 
Q 4472 3584 4856 3584 
Q 5306 3584 5551 3325 
Q 5797 3066 5797 2591 
Q 5797 2488 5784 2364 
Q 5772 2241 5747 2113 
z
" transform="scale(0.015625)"/>
       <path id="DejaVuSans-Oblique-65" d="M 3078 2063 
Q 3088 2113 3092 2166 
Q 3097 2219 3097 2272 
Q 3097 2653 2873 2875 
Q 2650 3097 2266 3097 
Q 1838 3097 1509 2826 
Q 1181 2556 1013 2059 
L 3078 2063 
z
M 3578 1613 
L 903 1613 
Q 884 1494 878 1425 
Q 872 1356 872 1306 
Q 872 872 1139 634 
Q 1406 397 1894 397 
Q 2269 397 2603 481 
Q 2938 566 3225 728 
L 3116 159 
Q 2806 34 2476 -28 
Q 2147 -91 1806 -91 
Q 1078 -91 686 257 
Q 294 606 294 1247 
Q 294 1794 489 2264 
Q 684 2734 1063 3103 
Q 1306 3334 1642 3459 
Q 1978 3584 2356 3584 
Q 2950 3584 3301 3228 
Q 3653 2872 3653 2272 
Q 3653 2128 3634 1964 
Q 3616 1800 3578 1613 
z
" transform="scale(0.015625)"/>
       <path id="DejaVuSans-Oblique-73" d="M 3200 3397 
L 3091 2853 
Q 2863 2978 2609 3040 
Q 2356 3103 2088 3103 
Q 1634 3103 1373 2948 
Q 1113 2794 1113 2528 
Q 1113 2219 1719 2053 
Q 1766 2041 1788 2034 
L 1972 1978 
Q 2547 1819 2739 1644 
Q 2931 1469 2931 1166 
Q 2931 609 2489 259 
Q 2047 -91 1331 -91 
Q 1053 -91 747 -37 
Q 441 16 72 128 
L 184 722 
Q 500 559 806 475 
Q 1113 391 1394 391 
Q 1816 391 2080 572 
Q 2344 753 2344 1031 
Q 2344 1331 1650 1516 
L 1591 1531 
L 1394 1581 
Q 956 1697 753 1886 
Q 550 2075 550 2369 
Q 550 2928 970 3256 
Q 1391 3584 2113 3584 
Q 2397 3584 2667 3537 
Q 2938 3491 3200 3397 
z
" transform="scale(0.015625)"/>
      </defs>
      <use xlink:href="#DejaVuSans-Oblique-68" transform="translate(0 0.015625)"/>
      <use xlink:href="#DejaVuSans-20" transform="translate(63.378906 -16.390625) scale(0.7)"/>
      <use xlink:href="#DejaVuSans-Oblique-69" transform="translate(88.364258 0.015625)"/>
      <use xlink:href="#DejaVuSans-Oblique-6d" transform="translate(116.147461 0.015625)"/>
      <use xlink:href="#DejaVuSans-Oblique-65" transform="translate(213.55957 0.015625)"/>
      <use xlink:href="#DejaVuSans-Oblique-73" transform="translate(275.083008 0.015625)"/>
     </g>
    </g>
   </g>
  </g>
 </g>
 <defs>
  <clipPath id="pd4b4b6b53d">
   <rect x="52.160938" y="22.318125" width="795.094" height="291.16"/>
  </clipPath>
 </defs>
</svg>
