<?xml version="1.0" encoding="utf-8" standalone="no"?>
<!DOCTYPE svg PUBLIC "-//W3C//DTD SVG 1.1//EN"
  "http://www.w3.org/Graphics/SVG/1.1/DTD/svg11.dtd">
<svg xmlns:xlink="http://www.w3.org/1999/xlink" width="854.454938pt" height="351.034375pt" viewBox="0 0 854.454938 351.034375" xmlns="http://www.w3.org/2000/svg" version="1.1">
 <metadata>
  <rdf:RDF xmlns:dc="http://purl.org/dc/elements/1.1/" xmlns:cc="http://creativecommons.org/ns#" xmlns:rdf="http://www.w3.org/1999/02/22-rdf-syntax-ns#">
   <cc:Work>
    <dc:type rdf:resource="http://purl.org/dc/dcmitype/StillImage"/>
    <dc:date>2025-07-24T14:39:30.225376</dc:date>
    <dc:format>image/svg+xml</dc:format>
    <dc:creator>
     <cc:Agent>
      <dc:title>Matplotlib v3.10.3, https://matplotlib.org/</dc:title>
     </cc:Agent>
    </dc:creator>
   </cc:Work>
  </rdf:RDF>
 </metadata>
 <defs>
  <style type="text/css">*{stroke-linejoin: round; stroke-linecap: butt}</style>
 </defs>
 <g id="figure_1">
  <g id="patch_1">
   <path d="M 0 351.034375 
L 854.454938 351.034375 
L 854.454938 0 
L 0 0 
z
" style="fill: #ffffff"/>
  </g>
  <g id="axes_1">
   <g id="patch_2">
    <path d="M 52.160938 313.478125 
L 847.254938 313.478125 
L 847.254938 22.318125 
L 52.160938 22.318125 
z
" style="fill: #ffffff"/>
   </g>
   <g id="matplotlib.axis_1">
    <g id="xtick_1">
     <g id="line2d_1">
      <path d="M 63.573227 313.478125 
L 63.573227 22.318125 
" clip-path="url(#p25f2d29a51)" style="fill: none; stroke: #b0b0b0; stroke-width: 0.8; stroke-linecap: square"/>
     </g>
     <g id="line2d_2">
      <defs>
       <path id="m6f53bd4133" d="M 0 0 
L 0 3.5 
" style="stroke: #000000; stroke-width: 0.8"/>
      </defs>
      <g>
       <use xlink:href="#m6f53bd4133" x="63.573227" y="313.478125" style="stroke: #000000; stroke-width: 0.8"/>
      </g>
     </g>
     <g id="text_1">
      <!-- −14000 -->
      <g transform="translate(43.477133 328.076563) scale(0.1 -0.1)">
       <defs>
        <path id="DejaVuSans-2212" d="M 678 2272 
L 4684 2272 
L 4684 1741 
L 678 1741 
L 678 2272 
z
" transform="scale(0.015625)"/>
        <path id="DejaVuSans-31" d="M 794 531 
L 1825 531 
L 1825 4091 
L 703 3866 
L 703 4441 
L 1819 4666 
L 2450 4666 
L 2450 531 
L 3481 531 
L 3481 0 
L 794 0 
L 794 531 
z
" transform="scale(0.015625)"/>
        <path id="DejaVuSans-34" d="M 2419 4116 
L 825 1625 
L 2419 1625 
L 2419 4116 
z
M 2253 4666 
L 3047 4666 
L 3047 1625 
L 3713 1625 
L 3713 1100 
L 3047 1100 
L 3047 0 
L 2419 0 
L 2419 1100 
L 313 1100 
L 313 1709 
L 2253 4666 
z
" transform="scale(0.015625)"/>
        <path id="DejaVuSans-30" d="M 2034 4250 
Q 1547 4250 1301 3770 
Q 1056 3291 1056 2328 
Q 1056 1369 1301 889 
Q 1547 409 2034 409 
Q 2525 409 2770 889 
Q 3016 1369 3016 2328 
Q 3016 3291 2770 3770 
Q 2525 4250 2034 4250 
z
M 2034 4750 
Q 2819 4750 3233 4129 
Q 3647 3509 3647 2328 
Q 3647 1150 3233 529 
Q 2819 -91 2034 -91 
Q 1250 -91 836 529 
Q 422 1150 422 2328 
Q 422 3509 836 4129 
Q 1250 4750 2034 4750 
z
" transform="scale(0.015625)"/>
       </defs>
       <use xlink:href="#DejaVuSans-2212"/>
       <use xlink:href="#DejaVuSans-31" transform="translate(83.789062 0)"/>
       <use xlink:href="#DejaVuSans-34" transform="translate(147.412109 0)"/>
       <use xlink:href="#DejaVuSans-30" transform="translate(211.035156 0)"/>
       <use xlink:href="#DejaVuSans-30" transform="translate(274.658203 0)"/>
       <use xlink:href="#DejaVuSans-30" transform="translate(338.28125 0)"/>
      </g>
     </g>
    </g>
    <g id="xtick_2">
     <g id="line2d_3">
      <path d="M 169.93852 313.478125 
L 169.93852 22.318125 
" clip-path="url(#p25f2d29a51)" style="fill: none; stroke: #b0b0b0; stroke-width: 0.8; stroke-linecap: square"/>
     </g>
     <g id="line2d_4">
      <g>
       <use xlink:href="#m6f53bd4133" x="169.93852" y="313.478125" style="stroke: #000000; stroke-width: 0.8"/>
      </g>
     </g>
     <g id="text_2">
      <!-- −12000 -->
      <g transform="translate(149.842426 328.076563) scale(0.1 -0.1)">
       <defs>
        <path id="DejaVuSans-32" d="M 1228 531 
L 3431 531 
L 3431 0 
L 469 0 
L 469 531 
Q 828 903 1448 1529 
Q 2069 2156 2228 2338 
Q 2531 2678 2651 2914 
Q 2772 3150 2772 3378 
Q 2772 3750 2511 3984 
Q 2250 4219 1831 4219 
Q 1534 4219 1204 4116 
Q 875 4013 500 3803 
L 500 4441 
Q 881 4594 1212 4672 
Q 1544 4750 1819 4750 
Q 2544 4750 2975 4387 
Q 3406 4025 3406 3419 
Q 3406 3131 3298 2873 
Q 3191 2616 2906 2266 
Q 2828 2175 2409 1742 
Q 1991 1309 1228 531 
z
" transform="scale(0.015625)"/>
       </defs>
       <use xlink:href="#DejaVuSans-2212"/>
       <use xlink:href="#DejaVuSans-31" transform="translate(83.789062 0)"/>
       <use xlink:href="#DejaVuSans-32" transform="translate(147.412109 0)"/>
       <use xlink:href="#DejaVuSans-30" transform="translate(211.035156 0)"/>
       <use xlink:href="#DejaVuSans-30" transform="translate(274.658203 0)"/>
       <use xlink:href="#DejaVuSans-30" transform="translate(338.28125 0)"/>
      </g>
     </g>
    </g>
    <g id="xtick_3">
     <g id="line2d_5">
      <path d="M 276.303813 313.478125 
L 276.303813 22.318125 
" clip-path="url(#p25f2d29a51)" style="fill: none; stroke: #b0b0b0; stroke-width: 0.8; stroke-linecap: square"/>
     </g>
     <g id="line2d_6">
      <g>
       <use xlink:href="#m6f53bd4133" x="276.303813" y="313.478125" style="stroke: #000000; stroke-width: 0.8"/>
      </g>
     </g>
     <g id="text_3">
      <!-- −10000 -->
      <g transform="translate(256.207719 328.076563) scale(0.1 -0.1)">
       <use xlink:href="#DejaVuSans-2212"/>
       <use xlink:href="#DejaVuSans-31" transform="translate(83.789062 0)"/>
       <use xlink:href="#DejaVuSans-30" transform="translate(147.412109 0)"/>
       <use xlink:href="#DejaVuSans-30" transform="translate(211.035156 0)"/>
       <use xlink:href="#DejaVuSans-30" transform="translate(274.658203 0)"/>
       <use xlink:href="#DejaVuSans-30" transform="translate(338.28125 0)"/>
      </g>
     </g>
    </g>
    <g id="xtick_4">
     <g id="line2d_7">
      <path d="M 382.669106 313.478125 
L 382.669106 22.318125 
" clip-path="url(#p25f2d29a51)" style="fill: none; stroke: #b0b0b0; stroke-width: 0.8; stroke-linecap: square"/>
     </g>
     <g id="line2d_8">
      <g>
       <use xlink:href="#m6f53bd4133" x="382.669106" y="313.478125" style="stroke: #000000; stroke-width: 0.8"/>
      </g>
     </g>
     <g id="text_4">
      <!-- −8000 -->
      <g transform="translate(365.754262 328.076563) scale(0.1 -0.1)">
       <defs>
        <path id="DejaVuSans-38" d="M 2034 2216 
Q 1584 2216 1326 1975 
Q 1069 1734 1069 1313 
Q 1069 891 1326 650 
Q 1584 409 2034 409 
Q 2484 409 2743 651 
Q 3003 894 3003 1313 
Q 3003 1734 2745 1975 
Q 2488 2216 2034 2216 
z
M 1403 2484 
Q 997 2584 770 2862 
Q 544 3141 544 3541 
Q 544 4100 942 4425 
Q 1341 4750 2034 4750 
Q 2731 4750 3128 4425 
Q 3525 4100 3525 3541 
Q 3525 3141 3298 2862 
Q 3072 2584 2669 2484 
Q 3125 2378 3379 2068 
Q 3634 1759 3634 1313 
Q 3634 634 3220 271 
Q 2806 -91 2034 -91 
Q 1263 -91 848 271 
Q 434 634 434 1313 
Q 434 1759 690 2068 
Q 947 2378 1403 2484 
z
M 1172 3481 
Q 1172 3119 1398 2916 
Q 1625 2713 2034 2713 
Q 2441 2713 2670 2916 
Q 2900 3119 2900 3481 
Q 2900 3844 2670 4047 
Q 2441 4250 2034 4250 
Q 1625 4250 1398 4047 
Q 1172 3844 1172 3481 
z
" transform="scale(0.015625)"/>
       </defs>
       <use xlink:href="#DejaVuSans-2212"/>
       <use xlink:href="#DejaVuSans-38" transform="translate(83.789062 0)"/>
       <use xlink:href="#DejaVuSans-30" transform="translate(147.412109 0)"/>
       <use xlink:href="#DejaVuSans-30" transform="translate(211.035156 0)"/>
       <use xlink:href="#DejaVuSans-30" transform="translate(274.658203 0)"/>
      </g>
     </g>
    </g>
    <g id="xtick_5">
     <g id="line2d_9">
      <path d="M 489.034398 313.478125 
L 489.034398 22.318125 
" clip-path="url(#p25f2d29a51)" style="fill: none; stroke: #b0b0b0; stroke-width: 0.8; stroke-linecap: square"/>
     </g>
     <g id="line2d_10">
      <g>
       <use xlink:href="#m6f53bd4133" x="489.034398" y="313.478125" style="stroke: #000000; stroke-width: 0.8"/>
      </g>
     </g>
     <g id="text_5">
      <!-- −6000 -->
      <g transform="translate(472.119555 328.076563) scale(0.1 -0.1)">
       <defs>
        <path id="DejaVuSans-36" d="M 2113 2584 
Q 1688 2584 1439 2293 
Q 1191 2003 1191 1497 
Q 1191 994 1439 701 
Q 1688 409 2113 409 
Q 2538 409 2786 701 
Q 3034 994 3034 1497 
Q 3034 2003 2786 2293 
Q 2538 2584 2113 2584 
z
M 3366 4563 
L 3366 3988 
Q 3128 4100 2886 4159 
Q 2644 4219 2406 4219 
Q 1781 4219 1451 3797 
Q 1122 3375 1075 2522 
Q 1259 2794 1537 2939 
Q 1816 3084 2150 3084 
Q 2853 3084 3261 2657 
Q 3669 2231 3669 1497 
Q 3669 778 3244 343 
Q 2819 -91 2113 -91 
Q 1303 -91 875 529 
Q 447 1150 447 2328 
Q 447 3434 972 4092 
Q 1497 4750 2381 4750 
Q 2619 4750 2861 4703 
Q 3103 4656 3366 4563 
z
" transform="scale(0.015625)"/>
       </defs>
       <use xlink:href="#DejaVuSans-2212"/>
       <use xlink:href="#DejaVuSans-36" transform="translate(83.789062 0)"/>
       <use xlink:href="#DejaVuSans-30" transform="translate(147.412109 0)"/>
       <use xlink:href="#DejaVuSans-30" transform="translate(211.035156 0)"/>
       <use xlink:href="#DejaVuSans-30" transform="translate(274.658203 0)"/>
      </g>
     </g>
    </g>
    <g id="xtick_6">
     <g id="line2d_11">
      <path d="M 595.399691 313.478125 
L 595.399691 22.318125 
" clip-path="url(#p25f2d29a51)" style="fill: none; stroke: #b0b0b0; stroke-width: 0.8; stroke-linecap: square"/>
     </g>
     <g id="line2d_12">
      <g>
       <use xlink:href="#m6f53bd4133" x="595.399691" y="313.478125" style="stroke: #000000; stroke-width: 0.8"/>
      </g>
     </g>
     <g id="text_6">
      <!-- −4000 -->
      <g transform="translate(578.484847 328.076563) scale(0.1 -0.1)">
       <use xlink:href="#DejaVuSans-2212"/>
       <use xlink:href="#DejaVuSans-34" transform="translate(83.789062 0)"/>
       <use xlink:href="#DejaVuSans-30" transform="translate(147.412109 0)"/>
       <use xlink:href="#DejaVuSans-30" transform="translate(211.035156 0)"/>
       <use xlink:href="#DejaVuSans-30" transform="translate(274.658203 0)"/>
      </g>
     </g>
    </g>
    <g id="xtick_7">
     <g id="line2d_13">
      <path d="M 701.764984 313.478125 
L 701.764984 22.318125 
" clip-path="url(#p25f2d29a51)" style="fill: none; stroke: #b0b0b0; stroke-width: 0.8; stroke-linecap: square"/>
     </g>
     <g id="line2d_14">
      <g>
       <use xlink:href="#m6f53bd4133" x="701.764984" y="313.478125" style="stroke: #000000; stroke-width: 0.8"/>
      </g>
     </g>
     <g id="text_7">
      <!-- −2000 -->
      <g transform="translate(684.85014 328.076563) scale(0.1 -0.1)">
       <use xlink:href="#DejaVuSans-2212"/>
       <use xlink:href="#DejaVuSans-32" transform="translate(83.789062 0)"/>
       <use xlink:href="#DejaVuSans-30" transform="translate(147.412109 0)"/>
       <use xlink:href="#DejaVuSans-30" transform="translate(211.035156 0)"/>
       <use xlink:href="#DejaVuSans-30" transform="translate(274.658203 0)"/>
      </g>
     </g>
    </g>
    <g id="xtick_8">
     <g id="line2d_15">
      <path d="M 808.130277 313.478125 
L 808.130277 22.318125 
" clip-path="url(#p25f2d29a51)" style="fill: none; stroke: #b0b0b0; stroke-width: 0.8; stroke-linecap: square"/>
     </g>
     <g id="line2d_16">
      <g>
       <use xlink:href="#m6f53bd4133" x="808.130277" y="313.478125" style="stroke: #000000; stroke-width: 0.8"/>
      </g>
     </g>
     <g id="text_8">
      <!-- 0 -->
      <g transform="translate(804.949027 328.076563) scale(0.1 -0.1)">
       <use xlink:href="#DejaVuSans-30"/>
      </g>
     </g>
    </g>
    <g id="text_9">
     <!-- t [s] -->
     <g transform="translate(439.652469 341.754687) scale(0.1 -0.1)">
      <defs>
       <path id="DejaVuSans-74" d="M 1172 4494 
L 1172 3500 
L 2356 3500 
L 2356 3053 
L 1172 3053 
L 1172 1153 
Q 1172 725 1289 603 
Q 1406 481 1766 481 
L 2356 481 
L 2356 0 
L 1766 0 
Q 1100 0 847 248 
Q 594 497 594 1153 
L 594 3053 
L 172 3053 
L 172 3500 
L 594 3500 
L 594 4494 
L 1172 4494 
z
" transform="scale(0.015625)"/>
       <path id="DejaVuSans-20" transform="scale(0.015625)"/>
       <path id="DejaVuSans-5b" d="M 550 4863 
L 1875 4863 
L 1875 4416 
L 1125 4416 
L 1125 -397 
L 1875 -397 
L 1875 -844 
L 550 -844 
L 550 4863 
z
" transform="scale(0.015625)"/>
       <path id="DejaVuSans-73" d="M 2834 3397 
L 2834 2853 
Q 2591 2978 2328 3040 
Q 2066 3103 1784 3103 
Q 1356 3103 1142 2972 
Q 928 2841 928 2578 
Q 928 2378 1081 2264 
Q 1234 2150 1697 2047 
L 1894 2003 
Q 2506 1872 2764 1633 
Q 3022 1394 3022 966 
Q 3022 478 2636 193 
Q 2250 -91 1575 -91 
Q 1294 -91 989 -36 
Q 684 19 347 128 
L 347 722 
Q 666 556 975 473 
Q 1284 391 1588 391 
Q 1994 391 2212 530 
Q 2431 669 2431 922 
Q 2431 1156 2273 1281 
Q 2116 1406 1581 1522 
L 1381 1569 
Q 847 1681 609 1914 
Q 372 2147 372 2553 
Q 372 3047 722 3315 
Q 1072 3584 1716 3584 
Q 2034 3584 2315 3537 
Q 2597 3491 2834 3397 
z
" transform="scale(0.015625)"/>
       <path id="DejaVuSans-5d" d="M 1947 4863 
L 1947 -844 
L 622 -844 
L 622 -397 
L 1369 -397 
L 1369 4416 
L 622 4416 
L 622 4863 
L 1947 4863 
z
" transform="scale(0.015625)"/>
      </defs>
      <use xlink:href="#DejaVuSans-74"/>
      <use xlink:href="#DejaVuSans-20" transform="translate(39.208984 0)"/>
      <use xlink:href="#DejaVuSans-5b" transform="translate(70.996094 0)"/>
      <use xlink:href="#DejaVuSans-73" transform="translate(110.009766 0)"/>
      <use xlink:href="#DejaVuSans-5d" transform="translate(162.109375 0)"/>
     </g>
    </g>
   </g>
   <g id="matplotlib.axis_2">
    <g id="ytick_1">
     <g id="line2d_17">
      <path d="M 52.160938 274.535116 
L 847.254938 274.535116 
" clip-path="url(#p25f2d29a51)" style="fill: none; stroke: #b0b0b0; stroke-width: 0.8; stroke-linecap: square"/>
     </g>
     <g id="line2d_18">
      <defs>
       <path id="m585a0d7cb8" d="M 0 0 
L -3.5 0 
" style="stroke: #000000; stroke-width: 0.8"/>
      </defs>
      <g>
       <use xlink:href="#m585a0d7cb8" x="52.160938" y="274.535116" style="stroke: #000000; stroke-width: 0.8"/>
      </g>
     </g>
     <g id="text_10">
      <!-- −0.2 -->
      <g transform="translate(20.878125 278.334335) scale(0.1 -0.1)">
       <defs>
        <path id="DejaVuSans-2e" d="M 684 794 
L 1344 794 
L 1344 0 
L 684 0 
L 684 794 
z
" transform="scale(0.015625)"/>
       </defs>
       <use xlink:href="#DejaVuSans-2212"/>
       <use xlink:href="#DejaVuSans-30" transform="translate(83.789062 0)"/>
       <use xlink:href="#DejaVuSans-2e" transform="translate(147.412109 0)"/>
       <use xlink:href="#DejaVuSans-32" transform="translate(179.199219 0)"/>
      </g>
     </g>
    </g>
    <g id="ytick_2">
     <g id="line2d_19">
      <path d="M 52.160938 220.02514 
L 847.254938 220.02514 
" clip-path="url(#p25f2d29a51)" style="fill: none; stroke: #b0b0b0; stroke-width: 0.8; stroke-linecap: square"/>
     </g>
     <g id="line2d_20">
      <g>
       <use xlink:href="#m585a0d7cb8" x="52.160938" y="220.02514" style="stroke: #000000; stroke-width: 0.8"/>
      </g>
     </g>
     <g id="text_11">
      <!-- −0.1 -->
      <g transform="translate(20.878125 223.824358) scale(0.1 -0.1)">
       <use xlink:href="#DejaVuSans-2212"/>
       <use xlink:href="#DejaVuSans-30" transform="translate(83.789062 0)"/>
       <use xlink:href="#DejaVuSans-2e" transform="translate(147.412109 0)"/>
       <use xlink:href="#DejaVuSans-31" transform="translate(179.199219 0)"/>
      </g>
     </g>
    </g>
    <g id="ytick_3">
     <g id="line2d_21">
      <path d="M 52.160938 165.515163 
L 847.254938 165.515163 
" clip-path="url(#p25f2d29a51)" style="fill: none; stroke: #b0b0b0; stroke-width: 0.8; stroke-linecap: square"/>
     </g>
     <g id="line2d_22">
      <g>
       <use xlink:href="#m585a0d7cb8" x="52.160938" y="165.515163" style="stroke: #000000; stroke-width: 0.8"/>
      </g>
     </g>
     <g id="text_12">
      <!-- 0.0 -->
      <g transform="translate(29.257812 169.314382) scale(0.1 -0.1)">
       <use xlink:href="#DejaVuSans-30"/>
       <use xlink:href="#DejaVuSans-2e" transform="translate(63.623047 0)"/>
       <use xlink:href="#DejaVuSans-30" transform="translate(95.410156 0)"/>
      </g>
     </g>
    </g>
    <g id="ytick_4">
     <g id="line2d_23">
      <path d="M 52.160938 111.005186 
L 847.254938 111.005186 
" clip-path="url(#p25f2d29a51)" style="fill: none; stroke: #b0b0b0; stroke-width: 0.8; stroke-linecap: square"/>
     </g>
     <g id="line2d_24">
      <g>
       <use xlink:href="#m585a0d7cb8" x="52.160938" y="111.005186" style="stroke: #000000; stroke-width: 0.8"/>
      </g>
     </g>
     <g id="text_13">
      <!-- 0.1 -->
      <g transform="translate(29.257812 114.804405) scale(0.1 -0.1)">
       <use xlink:href="#DejaVuSans-30"/>
       <use xlink:href="#DejaVuSans-2e" transform="translate(63.623047 0)"/>
       <use xlink:href="#DejaVuSans-31" transform="translate(95.410156 0)"/>
      </g>
     </g>
    </g>
    <g id="ytick_5">
     <g id="line2d_25">
      <path d="M 52.160938 56.49521 
L 847.254938 56.49521 
" clip-path="url(#p25f2d29a51)" style="fill: none; stroke: #b0b0b0; stroke-width: 0.8; stroke-linecap: square"/>
     </g>
     <g id="line2d_26">
      <g>
       <use xlink:href="#m585a0d7cb8" x="52.160938" y="56.49521" style="stroke: #000000; stroke-width: 0.8"/>
      </g>
     </g>
     <g id="text_14">
      <!-- 0.2 -->
      <g transform="translate(29.257812 60.294429) scale(0.1 -0.1)">
       <use xlink:href="#DejaVuSans-30"/>
       <use xlink:href="#DejaVuSans-2e" transform="translate(63.623047 0)"/>
       <use xlink:href="#DejaVuSans-32" transform="translate(95.410156 0)"/>
      </g>
     </g>
    </g>
    <g id="text_15">
     <!-- $h_{22}]$ -->
     <g transform="translate(14.798438 177.648125) rotate(-90) scale(0.1 -0.1)">
      <defs>
       <path id="DejaVuSans-Oblique-68" d="M 3566 2113 
L 3156 0 
L 2578 0 
L 2988 2091 
Q 3016 2238 3031 2350 
Q 3047 2463 3047 2528 
Q 3047 2791 2881 2937 
Q 2716 3084 2419 3084 
Q 1956 3084 1617 2771 
Q 1278 2459 1178 1941 
L 800 0 
L 225 0 
L 1172 4863 
L 1747 4863 
L 1375 2950 
Q 1594 3244 1934 3414 
Q 2275 3584 2650 3584 
Q 3113 3584 3367 3334 
Q 3622 3084 3622 2631 
Q 3622 2519 3608 2391 
Q 3594 2263 3566 2113 
z
" transform="scale(0.015625)"/>
      </defs>
      <use xlink:href="#DejaVuSans-Oblique-68" transform="translate(0 0.015625)"/>
      <use xlink:href="#DejaVuSans-32" transform="translate(63.378906 -16.390625) scale(0.7)"/>
      <use xlink:href="#DejaVuSans-32" transform="translate(107.915039 -16.390625) scale(0.7)"/>
      <use xlink:href="#DejaVuSans-5d" transform="translate(155.185547 0.015625)"/>
     </g>
    </g>
   </g>
   <g id="line2d_27">
    <path d="M 88.301574 247.905452 
L 88.389916 247.590208 
L 88.566599 241.236143 
L 88.831625 219.270484 
L 90.06841 92.529783 
L 90.156752 91.559798 
L 90.245094 92.232 
L 90.421777 98.341572 
L 90.686803 118.004675 
L 91.393537 199.296414 
L 91.835246 235.328251 
L 92.01193 240.451203 
L 92.100272 240.658629 
L 92.276956 236.286428 
L 92.541981 218.492792 
L 92.98369 167.590239 
L 93.602083 96.247551 
L 93.867108 82.092476 
L 93.95545 80.683987 
L 94.043792 81.03319 
L 94.220475 86.993593 
L 94.485501 108.075453 
L 95.015552 177.814981 
L 95.545603 241.61486 
L 95.810628 256.113027 
L 95.89897 257.439466 
L 95.987312 256.934914 
L 96.163995 250.509503 
L 96.429021 228.577608 
L 96.959072 157.616985 
L 97.489123 93.309339 
L 97.754148 78.29781 
L 97.84249 76.694278 
L 97.930832 76.855304 
L 98.107515 82.373578 
L 98.372541 102.372138 
L 98.902592 167.959977 
L 99.432643 227.472908 
L 99.697668 241.56117 
L 99.874352 243.214501 
L 100.051035 238.631465 
L 100.316061 221.346921 
L 100.846112 164.364984 
L 101.376162 112.8578 
L 101.641188 100.710402 
L 101.817872 99.305699 
L 101.994555 103.299758 
L 102.259581 118.337525 
L 102.789631 168.153613 
L 103.319682 213.447044 
L 103.584708 223.951295 
L 103.67305 225.035334 
L 103.761391 224.862103 
L 103.938075 220.806761 
L 104.2031 206.342643 
L 104.733151 159.269708 
L 105.263202 117.904243 
L 105.528228 109.519914 
L 105.61657 109.118746 
L 105.704911 109.945451 
L 105.881595 115.16971 
L 106.14662 130.841687 
L 107.295064 216.494437 
L 107.471748 218.794029 
L 107.560089 218.182376 
L 107.736773 213.542495 
L 108.001799 199.1016 
L 109.238584 117.064417 
L 109.326926 116.381761 
L 109.415268 116.772748 
L 109.591951 120.678131 
L 109.856977 133.410886 
L 111.093762 209.757888 
L 111.270446 210.794616 
L 111.447129 208.003377 
L 111.712155 197.350565 
L 112.242206 161.899778 
L 112.772257 129.977051 
L 113.037282 122.910345 
L 113.125624 122.310372 
L 113.213966 122.618859 
L 113.390649 125.903289 
L 113.655675 136.808774 
L 114.274067 177.277498 
L 114.715776 201.158522 
L 114.980802 207.253952 
L 115.069144 207.578787 
L 115.157486 207.028394 
L 115.334169 203.377075 
L 115.599195 192.25725 
L 116.83598 125.879572 
L 117.012664 124.697944 
L 117.189347 126.831262 
L 117.454373 135.732089 
L 117.896082 160.959601 
L 118.514474 196.170951 
L 118.7795 203.721373 
L 118.956184 205.000846 
L 119.044525 204.464064 
L 119.221209 201.108253 
L 119.486234 191.019316 
L 120.192969 149.892318 
L 120.634678 130.841433 
L 120.899703 126.986251 
L 120.988045 127.177742 
L 121.164729 129.759928 
L 121.429754 138.623686 
L 121.959805 167.614253 
L 122.578198 197.970629 
L 122.843223 203.172049 
L 122.931565 203.514765 
L 123.019907 203.144089 
L 123.196591 200.313308 
L 123.461616 191.366975 
L 123.991667 163.05482 
L 124.61006 133.655612 
L 124.875085 128.475365 
L 124.963427 128.065271 
L 125.051769 128.331493 
L 125.228452 130.85093 
L 125.493478 139.136905 
L 126.023529 166.090265 
L 126.641921 195.566972 
L 126.906947 201.616815 
L 127.08363 202.571276 
L 127.171972 202.08954 
L 127.348656 199.258267 
L 127.613681 190.803594 
L 128.143732 164.292041 
L 128.762125 135.403557 
L 129.02715 129.293986 
L 129.203834 128.173087 
L 129.292176 128.538535 
L 129.468859 131.08692 
L 129.733885 139.056352 
L 130.263936 164.886054 
L 130.97067 197.387798 
L 131.235696 202.82819 
L 131.412379 203.559056 
L 131.589063 201.908582 
L 131.854088 195.253051 
L 132.295798 175.73245 
L 133.179216 133.713085 
L 133.532583 126.812097 
L 133.620925 126.462604 
L 133.709267 126.683434 
L 133.88595 128.810236 
L 134.150976 135.909495 
L 134.592685 155.563795 
L 135.564445 200.637674 
L 135.82947 205.799042 
L 136.006154 206.578362 
L 136.182837 205.160477 
L 136.447863 199.100872 
L 136.889572 180.538794 
L 138.038015 125.930432 
L 138.303041 121.108146 
L 138.479725 120.558428 
L 138.656408 122.193743 
L 138.921434 128.553311 
L 139.363143 147.644442 
L 140.599928 209.286578 
L 140.864954 214.695672 
L 141.041637 215.755177 
L 141.129979 215.498996 
L 141.306663 213.433688 
L 141.571688 206.668522 
L 142.013397 187.412867 
L 143.426866 115.860773 
L 143.780233 109.176895 
L 143.956917 108.586428 
L 144.133601 109.857278 
L 144.398626 115.116498 
L 144.751993 127.671378 
L 145.370386 159.968623 
L 146.430488 215.732919 
L 146.872197 228.514571 
L 147.137222 231.658115 
L 147.225564 231.908 
L 147.313906 231.757234 
L 147.49059 230.26687 
L 147.755615 225.169351 
L 148.108982 213.561809 
L 148.727375 183.540525 
L 150.052502 114.720457 
L 150.494211 101.750294 
L 150.759237 98.000395 
L 150.93592 97.308009 
L 151.024262 97.510853 
L 151.200946 99.005666 
L 151.465971 103.883264 
L 151.819339 114.856337 
L 152.437731 143.175836 
L 153.762859 206.919788 
L 154.204568 217.757116 
L 154.469593 220.191243 
L 154.557935 220.290642 
L 154.646277 220.034158 
L 154.82296 218.470044 
L 155.087986 213.617574 
L 155.529695 199.776611 
L 156.324771 164.58927 
L 157.119847 133.13346 
L 157.561557 123.949659 
L 157.826582 122.321843 
L 157.914924 122.456804 
L 158.091607 123.730724 
L 158.356633 128.032136 
L 158.798342 140.593727 
L 160.476836 197.707568 
L 160.741862 200.533105 
L 160.918545 200.887946 
L 161.095229 200.031458 
L 161.360255 196.613792 
L 161.713622 188.678544 
L 162.420356 166.357117 
L 163.127091 145.858494 
L 163.5688 138.589663 
L 163.833825 136.990725 
L 163.922167 136.937085 
L 164.098851 137.536622 
L 164.363876 140.113482 
L 164.717244 146.267908 
L 165.335636 161.879162 
L 166.219054 183.970658 
L 166.660763 190.112498 
L 166.925789 191.358895 
L 167.014131 191.336925 
L 167.190814 190.635276 
L 167.45584 187.997451 
L 167.809207 181.875498 
L 168.515942 164.265412 
L 169.222676 147.770704 
L 169.664385 142.112447 
L 169.929411 141.128004 
L 170.017752 141.221353 
L 170.194436 142.028339 
L 170.459461 144.698043 
L 170.901171 152.343464 
L 172.491323 184.681294 
L 172.84469 187.145327 
L 173.021374 187.344313 
L 173.198058 186.854561 
L 173.463083 184.889236 
L 173.81645 180.248732 
L 174.434843 168.418388 
L 175.406603 149.924196 
L 175.848312 145.448532 
L 176.113338 144.585043 
L 176.201679 144.619553 
L 176.378363 145.169977 
L 176.643388 147.151117 
L 176.996756 151.690746 
L 177.615148 163.055881 
L 178.586908 180.445826 
L 179.028617 184.649459 
L 179.293643 185.542506 
L 179.381985 185.556887 
L 179.558668 185.165447 
L 179.823694 183.571035 
L 180.177061 179.772347 
L 180.795454 169.875954 
L 181.943897 150.62518 
L 182.385606 146.497035 
L 182.650632 145.485891 
L 182.827316 145.477938 
L 183.003999 146.01023 
L 183.269025 147.79546 
L 183.622392 151.848932 
L 184.240785 162.224805 
L 185.300886 180.516211 
L 185.742595 184.811985 
L 186.007621 185.919371 
L 186.184304 186.014722 
L 186.360988 185.605107 
L 186.626014 184.098992 
L 186.979381 180.641164 
L 187.597774 171.862652 
L 188.922901 152.123082 
L 189.452952 147.296338 
L 189.806319 145.649171 
L 190.071344 145.330862 
L 190.248028 145.575129 
L 190.513053 146.638729 
L 190.866421 149.34655 
L 191.30813 154.65689 
L 192.014864 166.437346 
L 193.163308 185.908747 
L 193.605017 190.383551 
L 193.958384 191.966532 
L 194.135068 192.037991 
L 194.311751 191.627741 
L 194.576777 190.139716 
L 194.930144 186.670907 
L 195.460195 178.961432 
L 197.933766 138.692031 
L 198.463817 134.253484 
L 198.905526 132.193883 
L 199.170551 131.695746 
L 199.347235 131.674445 
L 199.523918 131.901639 
L 199.788944 132.703587 
L 200.142311 134.607391 
L 200.672362 139.098612 
L 201.379097 147.49575 
L 204.559402 188.989127 
L 205.531162 197.283114 
L 206.502922 203.653859 
L 207.297998 207.465272 
L 207.828049 209.071731 
L 208.181416 209.599214 
L 208.446442 209.661406 
L 208.711467 209.411178 
L 209.064834 208.563511 
L 209.506544 206.660509 
L 210.036594 203.196057 
L 210.743329 196.889434 
L 211.715089 186.038092 
L 213.2169 166.503118 
L 214.542027 150.081139 
L 215.16042 144.963594 
L 215.602129 143.016052 
L 215.867154 142.625528 
L 216.043838 142.696919 
L 216.308863 143.290889 
L 216.662231 144.93076 
L 217.192281 148.888143 
L 218.164041 158.570061 
L 219.224143 168.398221 
L 220.019219 173.657821 
L 220.725954 176.8584 
L 221.256005 178.435945 
L 221.697714 179.151478 
L 221.962739 179.271659 
L 222.227765 179.12694 
L 222.49279 178.693523 
L 222.846158 177.640375 
L 223.287867 175.560516 
L 223.906259 171.420234 
L 225.938121 156.437553 
L 226.468172 154.441231 
L 226.821539 153.762156 
L 227.086565 153.576074 
L 227.35159 153.642891 
L 227.704957 154.080558 
L 228.146666 155.101554 
L 228.765059 157.236225 
L 229.560135 160.909787 
L 231.061946 169.314489 
L 231.945364 173.559916 
L 232.475415 175.252849 
L 232.917124 176.043382 
L 233.270492 176.261613 
L 233.535517 176.19701 
L 233.888884 175.836565 
L 234.330593 175.009791 
L 234.948986 173.305032 
L 235.744062 170.405925 
L 236.715822 165.943544 
L 238.924368 155.26523 
L 239.366077 154.157854 
L 239.719444 153.722568 
L 239.98447 153.665314 
L 240.249495 153.82863 
L 240.602862 154.35397 
L 241.132913 155.654499 
L 242.369699 159.626634 
L 244.754928 167.437209 
L 245.550004 171.405558 
L 247.405182 181.217516 
L 247.935233 182.877037 
L 248.376942 183.631031 
L 248.730309 183.83556 
L 249.083676 183.730691 
L 249.525386 183.262051 
L 250.23212 182.082823 
L 251.292222 180.378937 
L 251.910615 179.765184 
L 252.529007 179.437719 
L 253.1474 179.330373 
L 253.677451 179.428104 
L 254.11916 179.730904 
L 254.560869 180.370409 
L 255.002578 181.514096 
L 255.444287 183.338479 
L 255.974338 186.62459 
L 256.592731 192.054101 
L 257.652833 203.974791 
L 258.447909 212.041574 
L 258.97796 215.367188 
L 259.331327 216.342201 
L 259.508011 216.441161 
L 259.684694 216.289098 
L 259.94972 215.62088 
L 260.303087 214.014535 
L 260.92148 209.8099 
L 263.130025 193.318104 
L 263.925101 189.273689 
L 264.631836 186.63655 
L 265.250229 185.053944 
L 265.780279 184.211459 
L 266.31033 183.773301 
L 266.928723 183.601981 
L 267.900483 183.414309 
L 268.342192 183.098989 
L 268.783901 182.523631 
L 269.313952 181.436841 
L 270.020687 179.352724 
L 272.582599 170.973933 
L 273.200992 169.949434 
L 273.907726 169.224214 
L 275.144512 168.067962 
L 275.851246 166.997101 
L 276.734664 165.183749 
L 278.236475 162.051004 
L 278.94321 161.090873 
L 279.561603 160.603481 
L 280.268337 160.33772 
L 282.123515 159.792103 
L 284.155377 158.925297 
L 284.862111 158.942882 
L 285.74553 159.219274 
L 287.158999 159.681468 
L 288.042417 159.706546 
L 289.455886 159.70793 
L 290.074278 159.967791 
L 290.692671 160.471793 
L 291.576089 161.522816 
L 292.812875 162.994611 
L 293.431267 163.41072 
L 293.961318 163.511034 
L 294.491369 163.3874 
L 295.374787 162.885981 
L 296.169864 162.503386 
L 296.699915 162.484845 
L 297.141624 162.674177 
L 297.671675 163.153529 
L 298.378409 164.129886 
L 299.968562 166.444697 
L 300.498613 166.825799 
L 300.940322 166.886208 
L 301.382031 166.689098 
L 301.82374 166.229886 
L 302.353791 165.344374 
L 302.972183 163.876051 
L 303.678918 161.616396 
L 304.385652 158.569673 
L 305.004045 154.935268 
L 305.622438 149.992137 
L 306.329172 142.408078 
L 308.007667 122.83444 
L 308.272692 121.708599 
L 308.449376 121.609831 
L 308.62606 122.098945 
L 308.891085 124.017262 
L 309.244452 128.839871 
L 309.774503 140.407617 
L 311.718023 189.428357 
L 312.159732 194.579229 
L 312.513099 196.694933 
L 312.778125 197.297599 
L 312.954808 197.312018 
L 313.131492 197.06879 
L 313.484859 195.980891 
L 314.01491 193.409064 
L 315.781747 184.148905 
L 316.488481 181.639831 
L 317.195216 179.890266 
L 317.90195 178.700193 
L 318.87371 177.540486 
L 320.375521 175.761742 
L 321.435623 174.078463 
L 323.73251 170.230026 
L 324.439244 169.538286 
L 325.057637 169.215616 
L 325.764372 169.111861 
L 327.001157 169.24336 
L 327.972917 169.24342 
L 328.767993 169.019574 
L 329.739753 168.491008 
L 331.683273 167.377571 
L 332.743375 167.086906 
L 334.775237 166.620099 
L 335.746997 166.104156 
L 338.485593 164.422151 
L 339.369011 164.257425 
L 341.400873 164.02907 
L 342.107607 163.628141 
L 342.814342 162.929314 
L 343.609418 161.782527 
L 344.66952 159.811773 
L 347.496458 154.371141 
L 349.705003 150.76535 
L 351.030131 148.970655 
L 351.648523 148.41566 
L 352.090232 148.276173 
L 352.4436 148.42806 
L 352.796967 148.934881 
L 353.150334 149.947871 
L 353.503701 151.656729 
L 353.94541 155.107414 
L 354.38712 160.420854 
L 354.91717 169.644378 
L 355.712247 188.318644 
L 356.507323 206.000857 
L 356.86069 210.251726 
L 357.037374 211.03055 
L 357.125716 211.04218 
L 357.302399 210.277094 
L 357.567425 207.142173 
L 357.920792 199.506952 
L 358.539185 179.528138 
L 359.510945 147.576025 
L 360.040996 136.985391 
L 360.394363 133.337067 
L 360.659388 132.192808 
L 360.836072 132.072214 
L 361.012756 132.383711 
L 361.277781 133.506614 
L 361.71949 136.582926 
L 364.369745 157.812903 
L 365.253163 162.316814 
L 366.048239 165.341685 
L 366.754974 167.295262 
L 367.461708 168.621144 
L 368.080101 169.352465 
L 368.786835 169.853685 
L 371.172064 171.244639 
L 373.203926 172.821023 
L 373.822319 173.00457 
L 374.440711 172.952517 
L 375.059104 172.672482 
L 375.942522 171.980355 
L 378.239409 170.014578 
L 381.331373 167.898343 
L 382.391475 166.671805 
L 385.660122 162.637051 
L 389.635504 158.542623 
L 390.960631 156.603048 
L 392.639125 154.133144 
L 393.257518 153.58038 
L 393.699227 153.44219 
L 394.052594 153.535287 
L 394.405962 153.844548 
L 394.847671 154.58004 
L 395.377722 156.037759 
L 395.907772 158.182365 
L 396.526165 161.615655 
L 397.2329 166.860787 
L 398.027976 174.615345 
L 398.999736 186.681518 
L 400.059838 199.406351 
L 400.413205 201.448568 
L 400.589889 201.63538 
L 400.766572 201.129646 
L 401.031598 198.876834 
L 401.384965 192.767916 
L 401.826674 180.133773 
L 402.710092 145.306601 
L 403.328485 125.494737 
L 403.681852 119.91738 
L 403.858536 119.000816 
L 403.946878 119.007071 
L 404.123561 119.904562 
L 404.388587 123.244721 
L 404.830296 132.799246 
L 406.50879 173.702425 
L 407.038841 180.40187 
L 407.48055 183.631429 
L 407.922259 185.268562 
L 408.275626 185.759878 
L 408.540652 185.785717 
L 408.805677 185.592235 
L 409.247386 184.914573 
L 409.865779 183.464689 
L 410.749197 180.767412 
L 412.427692 174.724707 
L 414.106186 169.002095 
L 415.519655 164.986514 
L 416.668099 162.329222 
L 417.551517 160.756692 
L 418.346593 159.768667 
L 419.053328 159.239051 
L 419.760062 158.985388 
L 420.731822 158.906563 
L 423.912128 158.994194 
L 424.618862 159.285465 
L 425.413938 159.882821 
L 426.385698 160.949047 
L 430.272738 165.93002 
L 431.244498 167.536654 
L 432.3046 169.743192 
L 433.718069 173.289267 
L 436.103298 179.370835 
L 436.810033 180.587296 
L 437.251742 181.014499 
L 437.605109 181.107937 
L 437.958476 180.935281 
L 438.311843 180.455254 
L 438.753552 179.362245 
L 439.195262 177.649938 
L 439.725312 174.662901 
L 440.343705 169.681621 
L 440.962098 162.798359 
L 441.668832 152.364239 
L 443.258985 126.995638 
L 443.52401 125.530326 
L 443.612352 125.442898 
L 443.700694 125.581608 
L 443.877378 126.589934 
L 444.142403 130.074844 
L 444.49577 138.530727 
L 445.025821 158.154917 
L 446.174265 203.215911 
L 446.527632 209.839348 
L 446.792658 211.487136 
L 446.880999 211.424197 
L 447.057683 210.452084 
L 447.322709 207.1402 
L 447.764418 198.082846 
L 449.35457 161.832195 
L 449.972963 153.756496 
L 450.503014 149.563603 
L 450.944723 147.505853 
L 451.386432 146.406175 
L 451.739799 146.052251 
L 452.004825 146.034116 
L 452.358192 146.287193 
L 452.799901 146.980071 
L 453.329952 148.261546 
L 454.125028 150.850819 
L 458.10041 164.963551 
L 459.160512 167.579458 
L 460.132272 169.434834 
L 461.01569 170.677794 
L 461.98745 171.664899 
L 463.400919 172.740368 
L 464.637704 173.439073 
L 465.432781 173.637463 
L 466.051173 173.582463 
L 466.757908 173.273366 
L 467.552984 172.654733 
L 468.789769 171.366954 
L 470.379922 169.417856 
L 471.26334 168.000326 
L 472.146758 166.12726 
L 473.118518 163.47456 
L 474.443646 159.085354 
L 477.358925 149.105048 
L 477.977318 147.729465 
L 478.419027 147.192278 
L 478.684053 147.104471 
L 478.949078 147.225834 
L 479.214104 147.584978 
L 479.567471 148.48607 
L 480.00918 150.40149 
L 480.450889 153.355989 
L 480.98094 158.55194 
L 481.599333 167.307178 
L 482.306067 180.9755 
L 483.542853 205.739573 
L 483.807878 208.122293 
L 483.984562 208.515872 
L 484.072903 208.3018 
L 484.249587 206.985127 
L 484.514612 202.676344 
L 484.86798 192.647299 
L 485.486372 166.523726 
L 486.369791 130.430242 
L 486.723158 122.708965 
L 486.988183 120.284065 
L 487.076525 120.097613 
L 487.164867 120.203261 
L 487.341551 121.227293 
L 487.606576 124.509528 
L 488.048285 133.212649 
L 489.638438 167.635806 
L 490.25683 175.785779 
L 490.786881 180.348783 
L 491.316932 183.162591 
L 491.758641 184.45803 
L 492.112009 184.933466 
L 492.377034 185.008825 
L 492.642059 184.871245 
L 492.995427 184.396884 
L 493.437136 183.411824 
L 494.14387 181.174583 
L 495.557339 175.658941 
L 497.147492 169.815359 
L 498.472619 165.775609 
L 499.709405 162.697292 
L 500.857848 160.432766 
L 502.094634 158.49132 
L 503.243077 157.068472 
L 504.038153 156.375669 
L 504.744888 156.040663 
L 505.363281 155.992599 
L 505.981673 156.16282 
L 506.77675 156.641243 
L 507.74851 157.511222 
L 508.72027 158.693373 
L 509.515346 160.029388 
L 510.310422 161.851263 
L 511.19384 164.528801 
L 512.253942 168.545244 
L 513.844095 175.570917 
L 515.787615 184.040841 
L 516.406008 185.838643 
L 516.847717 186.484957 
L 517.112742 186.528111 
L 517.377768 186.257729 
L 517.642793 185.624536 
L 517.99616 184.122809 
L 518.437869 180.991018 
L 518.879578 176.191138 
L 519.409629 167.859646 
L 520.028022 154.479825 
L 521.353149 123.462539 
L 521.618175 120.772742 
L 521.794858 120.387819 
L 521.971542 121.295572 
L 522.236567 125.254658 
L 522.589935 135.31218 
L 523.119985 158.163959 
L 524.091745 200.096868 
L 524.445113 208.094147 
L 524.710138 210.62335 
L 524.79848 210.832852 
L 524.886822 210.746826 
L 525.063505 209.756768 
L 525.328531 206.52649 
L 525.77024 197.93969 
L 527.448734 162.241905 
L 528.067127 154.281522 
L 528.597178 149.782848 
L 529.127229 147.041192 
L 529.568938 145.861776 
L 529.922305 145.525044 
L 530.187331 145.576936 
L 530.540698 145.993639 
L 530.982407 146.971998 
L 531.6008 148.952195 
L 532.837585 153.879449 
L 534.869447 161.79248 
L 536.371258 166.801605 
L 537.608043 170.227977 
L 538.844828 173.003054 
L 539.90493 174.865015 
L 540.700007 175.866607 
L 541.406741 176.402139 
L 542.025134 176.576745 
L 542.643526 176.491987 
L 543.261919 176.179781 
L 543.968654 175.573553 
L 544.675388 174.68372 
L 545.382123 173.430412 
L 546.088857 171.705922 
L 546.883934 169.111953 
L 547.767352 165.435118 
L 549.004137 159.195552 
L 551.919417 143.763074 
L 552.361126 142.574148 
L 552.626152 142.262128 
L 552.802835 142.259145 
L 552.979519 142.443066 
L 553.244544 143.114976 
L 553.597912 144.86625 
L 553.951279 147.76575 
L 554.392988 153.286444 
L 554.923039 163.052523 
L 555.629773 181.124663 
L 556.689875 208.427581 
L 556.9549 211.599496 
L 557.131584 212.168562 
L 557.219926 211.928329 
L 557.39661 210.330168 
L 557.661635 205.067478 
L 558.015002 193.045178 
L 558.721737 158.826019 
L 559.340129 132.020168 
L 559.781839 121.631688 
L 560.046864 119.572412 
L 560.135206 119.540547 
L 560.311889 120.361699 
L 560.576915 123.49328 
L 561.018624 132.245067 
L 562.78546 171.238437 
L 563.403853 179.196822 
L 563.933904 183.52717 
L 564.375613 185.657688 
L 564.72898 186.543389 
L 564.994006 186.795964 
L 565.259031 186.741298 
L 565.524056 186.419715 
L 565.965766 185.397351 
L 566.584158 183.23095 
L 567.732602 178.119393 
L 570.382856 166.215084 
L 571.707983 161.236556 
L 572.856427 157.73999 
L 573.828187 155.404113 
L 574.623263 153.977682 
L 575.329998 153.149992 
L 575.860049 152.830467 
L 576.3901 152.772271 
L 576.920151 152.963714 
L 577.450201 153.389983 
L 578.068594 154.17891 
L 578.775329 155.500995 
L 579.482063 157.360505 
L 580.188798 159.853605 
L 581.072216 163.907208 
L 582.132318 169.965647 
L 583.987496 182.236189 
L 584.959256 187.915602 
L 585.489307 189.888411 
L 585.842674 190.432971 
L 586.019357 190.406084 
L 586.196041 190.147022 
L 586.461067 189.266861 
L 586.814434 187.03708 
L 587.256143 182.258948 
L 587.697852 174.945115 
L 588.316245 160.255354 
L 589.818055 120.002493 
L 590.083081 117.939443 
L 590.171423 117.963675 
L 590.348106 119.189105 
L 590.613132 124.091065 
L 590.966499 136.101002 
L 591.584892 167.056527 
L 592.291626 200.260776 
L 592.644994 209.730374 
L 592.910019 212.807554 
L 592.998361 213.087686 
L 593.086703 213.018158 
L 593.263386 211.908761 
L 593.528412 208.170794 
L 593.970121 198.142842 
L 595.560273 158.606736 
L 596.178666 149.491672 
L 596.708717 144.759534 
L 597.150426 142.645705 
L 597.503793 141.952797 
L 597.680477 141.891398 
L 597.945502 142.108322 
L 598.29887 142.889245 
L 598.828921 144.866419 
L 599.623997 148.943218 
L 603.422695 169.872717 
L 604.482797 174.099041 
L 605.366215 176.827314 
L 606.161291 178.635276 
L 606.779684 179.566685 
L 607.309735 179.996373 
L 607.751444 180.079895 
L 608.193153 179.911971 
L 608.634862 179.498528 
L 609.164913 178.690399 
L 609.783306 177.326191 
L 610.49004 175.187504 
L 611.285116 171.958938 
L 612.168535 167.270689 
L 613.228636 160.278944 
L 615.967233 141.417155 
L 616.408942 139.959042 
L 616.673967 139.648361 
L 616.850651 139.73065 
L 617.027334 140.076486 
L 617.29236 141.150488 
L 617.645727 143.763742 
L 618.087436 149.212948 
L 618.617487 159.311101 
L 619.23588 175.805204 
L 620.472665 210.191172 
L 620.737691 213.156827 
L 620.826032 213.453933 
L 620.914374 213.365146 
L 621.091058 211.958547 
L 621.356083 206.636297 
L 621.709451 193.773492 
L 622.416185 155.869574 
L 623.034578 126.510108 
L 623.387945 117.597128 
L 623.65297 115.485606 
L 623.741312 115.617945 
L 623.917996 117.022065 
L 624.183021 121.575171 
L 624.713072 136.421264 
L 625.949858 173.315058 
L 626.56825 184.711123 
L 627.009959 189.558291 
L 627.363327 191.732404 
L 627.628352 192.51318 
L 627.805036 192.680733 
L 627.981719 192.597231 
L 628.246745 192.057778 
L 628.600112 190.694086 
L 629.130163 187.631461 
L 630.101923 180.335689 
L 632.222127 164.154387 
L 633.282228 157.770674 
L 634.165646 153.735567 
L 634.960723 151.144711 
L 635.579115 149.804525 
L 636.109166 149.137683 
L 636.550875 148.938772 
L 636.904243 149.022999 
L 637.25761 149.328207 
L 637.699319 150.020336 
L 638.22937 151.294048 
L 638.847763 153.357189 
L 639.642839 156.86586 
L 640.526257 161.85806 
L 641.586359 169.259422 
L 644.324955 189.316331 
L 644.766664 191.008512 
L 645.03169 191.493721 
L 645.208373 191.544814 
L 645.385057 191.34709 
L 645.650082 190.524451 
L 646.00345 188.304362 
L 646.445159 183.448865 
L 646.97521 174.2233 
L 647.593602 158.858288 
L 649.007071 120.751968 
L 649.272097 118.184385 
L 649.360439 118.018789 
L 649.44878 118.239353 
L 649.625464 119.915038 
L 649.890489 125.680134 
L 650.243857 139.284474 
L 650.950591 179.195062 
L 651.568984 209.434307 
L 651.922351 217.568915 
L 652.099035 218.57743 
L 652.187377 218.334937 
L 652.36406 216.458734 
L 652.629086 210.625908 
L 653.159137 191.918541 
L 654.219238 152.937859 
L 654.749289 140.946599 
L 655.190998 135.437693 
L 655.544366 133.5529 
L 655.721049 133.31914 
L 655.897733 133.492126 
L 656.162758 134.41029 
L 656.516126 136.630123 
L 657.134518 142.369566 
L 660.226482 174.295433 
L 661.021558 179.381443 
L 661.639951 182.125865 
L 662.170002 183.648975 
L 662.611711 184.362092 
L 662.965078 184.586004 
L 663.318445 184.512555 
L 663.671813 184.148139 
L 664.113522 183.289199 
L 664.643572 181.676329 
L 665.261965 179.024958 
L 666.057042 174.526141 
L 667.117143 167.027303 
L 669.060663 151.114662 
L 670.032423 144.130556 
L 670.650816 141.089696 
L 671.004183 140.135185 
L 671.269209 139.902481 
L 671.445892 140.015266 
L 671.710918 140.640303 
L 672.064285 142.441363 
L 672.417652 145.506185 
L 672.859361 151.330815 
L 673.389412 161.400468 
L 674.184488 181.818905 
L 675.156248 206.542245 
L 675.509616 211.014064 
L 675.686299 211.492711 
L 675.774641 211.206661 
L 675.951325 209.482139 
L 676.21635 203.810669 
L 676.569717 190.435682 
L 677.18811 155.395455 
L 677.894845 118.209292 
L 678.248212 110.057089 
L 678.336554 109.503565 
L 678.424896 109.554504 
L 678.601579 111.414275 
L 678.866605 118.170471 
L 679.308314 137.004793 
L 680.456757 189.275804 
L 680.898466 199.941816 
L 681.251834 203.904545 
L 681.428517 204.551017 
L 681.516859 204.580523 
L 681.693543 204.113059 
L 681.958568 202.278248 
L 682.400277 196.964196 
L 683.195354 183.720413 
L 684.520481 161.871977 
L 685.315557 152.332668 
L 685.93395 147.203138 
L 686.464001 144.37657 
L 686.90571 143.076527 
L 687.259077 142.685636 
L 687.524102 142.746553 
L 687.789128 143.090902 
L 688.142495 143.957663 
L 688.672546 146.03862 
L 689.290939 149.480889 
L 690.086015 155.207376 
L 691.234459 165.246717 
L 693.354662 183.965972 
L 694.061397 188.353602 
L 694.591448 190.336878 
L 694.856473 190.78547 
L 695.033157 190.852832 
L 695.20984 190.719192 
L 695.474866 190.112726 
L 695.828233 188.477888 
L 696.269942 184.969308 
L 696.799993 178.40861 
L 697.418386 167.415886 
L 698.301804 146.839921 
L 699.185222 127.304708 
L 699.538589 123.00442 
L 699.715273 122.231537 
L 699.803615 122.261115 
L 699.980298 123.247238 
L 700.245324 127.281598 
L 700.598691 137.813922 
L 701.0404 158.754298 
L 702.188844 218.782301 
L 702.453869 223.333794 
L 702.542211 223.504633 
L 702.630553 222.980534 
L 702.807236 219.878015 
L 703.072262 210.505261 
L 703.602313 180.236904 
L 704.397389 134.614685 
L 704.839098 121.09171 
L 705.104124 118.010529 
L 705.192465 117.756484 
L 705.280807 117.856214 
L 705.457491 119.024423 
L 705.722516 122.826019 
L 706.164225 132.962341 
L 708.019403 180.55692 
L 708.549454 188.228597 
L 708.991163 192.11271 
L 709.344531 193.726664 
L 709.609556 194.155404 
L 709.78624 194.102602 
L 710.051265 193.560146 
L 710.404632 192.063958 
L 710.846342 189.142355 
L 711.553076 182.636566 
L 712.70152 169.459347 
L 714.380014 150.568286 
L 715.17509 144.022222 
L 715.705141 141.138326 
L 716.14685 139.84398 
L 716.411876 139.610591 
L 716.588559 139.698502 
L 716.853585 140.215419 
L 717.206952 141.661804 
L 717.648661 144.754408 
L 718.178712 150.416063 
L 718.797105 159.637215 
L 719.680523 176.666647 
L 720.917308 200.293904 
L 721.359017 204.657019 
L 721.535701 205.185437 
L 721.624043 205.133106 
L 721.800727 204.328773 
L 722.065752 201.194969 
L 722.419119 193.05584 
L 722.860828 176.420946 
L 724.362639 109.134983 
L 724.539323 107.976651 
L 724.627665 108.45058 
L 724.804348 111.588263 
L 725.069374 121.643448 
L 725.511083 149.723071 
L 726.394501 209.839993 
L 726.747868 220.873773 
L 726.924552 222.412094 
L 727.012894 222.222146 
L 727.189577 220.076881 
L 727.454603 213.089764 
L 727.984654 190.616294 
L 728.956414 148.030931 
L 729.486464 133.952034 
L 729.839832 129.02949 
L 730.104857 127.486547 
L 730.281541 127.36959 
L 730.458224 127.901836 
L 730.72325 129.760306 
L 731.164959 135.093233 
L 731.871693 147.21218 
L 733.726872 180.453699 
L 734.433606 188.755638 
L 734.963657 192.543024 
L 735.317024 193.820698 
L 735.58205 194.108 
L 735.758733 193.97816 
L 736.023759 193.30274 
L 736.377126 191.517037 
L 736.818835 187.913654 
L 737.437228 180.53012 
L 738.232304 167.826122 
L 740.264166 133.563175 
L 740.705875 130.134509 
L 740.882559 129.643454 
L 740.9709 129.617031 
L 741.147584 130.039307 
L 741.412609 131.963758 
L 741.765977 137.180899 
L 742.207686 148.230347 
L 742.826078 171.329454 
L 743.88618 213.532215 
L 744.151206 218.416751 
L 744.327889 219.116805 
L 744.504573 217.425828 
L 744.769598 210.038442 
L 745.122966 191.362678 
L 746.448093 104.341497 
L 746.624776 102.242122 
L 746.713118 102.594077 
L 746.889802 106.027647 
L 747.154827 117.276613 
L 747.684878 153.473788 
L 748.391613 199.892566 
L 748.74498 212.783752 
L 749.010005 216.886372 
L 749.098347 217.249577 
L 749.186689 217.147246 
L 749.363373 215.657456 
L 749.628398 210.67973 
L 750.070107 197.276763 
L 751.66026 143.515305 
L 752.190311 133.846603 
L 752.543678 130.519649 
L 752.808703 129.593118 
L 752.897045 129.567419 
L 753.073729 129.918756 
L 753.338754 131.390193 
L 753.692122 134.922979 
L 754.222173 142.940404 
L 755.105591 160.752057 
L 756.51906 189.178593 
L 757.049111 196.238571 
L 757.49082 199.463697 
L 757.755845 200.015708 
L 757.932529 199.751481 
L 758.197554 198.353936 
L 758.550921 194.548679 
L 758.992631 186.644365 
L 759.611023 170.248758 
L 761.289518 120.754794 
L 761.554543 118.497833 
L 761.642885 118.471957 
L 761.819569 119.648754 
L 762.084594 124.747279 
L 762.437961 138.074281 
L 762.968012 170.059826 
L 763.763088 220.226679 
L 764.028114 227.713576 
L 764.116456 228.408817 
L 764.204798 228.110083 
L 764.381481 224.428533 
L 764.646507 211.366549 
L 765.088216 174.260734 
L 765.79495 113.392893 
L 766.059976 102.41831 
L 766.236659 100.337093 
L 766.325001 100.867649 
L 766.501685 104.866139 
L 766.76671 117.110835 
L 767.385103 160.925968 
L 768.003496 199.868143 
L 768.356863 212.311559 
L 768.621888 216.239944 
L 768.71023 216.569963 
L 768.798572 216.442319 
L 768.975256 214.911922 
L 769.240281 209.845413 
L 769.68199 196.026631 
L 771.360485 136.227436 
L 771.802194 128.502622 
L 772.067219 126.304266 
L 772.243903 125.864797 
L 772.332245 125.948543 
L 772.508928 126.708917 
L 772.773954 129.270738 
L 773.127321 135.109129 
L 773.657372 148.093571 
L 775.689233 204.381241 
L 775.954259 206.953149 
L 776.130943 207.436588 
L 776.219284 207.278143 
L 776.395968 206.119738 
L 776.660993 202.194649 
L 777.014361 192.824207 
L 777.544412 170.843256 
L 778.781197 114.101705 
L 779.046222 110.475882 
L 779.134564 110.603736 
L 779.311248 113.103518 
L 779.576273 122.75042 
L 779.929641 146.054329 
L 781.078084 232.607955 
L 781.166426 233.806825 
L 781.254768 233.610168 
L 781.431451 228.931 
L 781.696477 211.774139 
L 782.226528 154.715134 
L 782.756579 105.759186 
L 783.021604 96.627506 
L 783.109946 96.366773 
L 783.28663 99.873405 
L 783.551655 113.877297 
L 784.081706 159.686184 
L 784.700099 207.891926 
L 785.053466 220.967884 
L 785.230149 222.789508 
L 785.318491 222.569845 
L 785.495175 220.04128 
L 785.7602 211.728475 
L 786.290251 184.460722 
L 787.262011 132.702791 
L 787.70372 120.56202 
L 787.968746 118.265946 
L 788.057088 118.354402 
L 788.233771 119.783213 
L 788.498797 124.888569 
L 788.852164 136.488249 
L 789.558898 169.764935 
L 790.353975 204.613301 
L 790.707342 212.445799 
L 790.884026 213.639625 
L 790.972367 213.478725 
L 791.149051 211.573914 
L 791.414076 204.70002 
L 791.767444 188.478442 
L 792.474178 141.394886 
L 793.004229 112.372684 
L 793.269255 107.268253 
L 793.357596 107.537092 
L 793.53428 111.349963 
L 793.799305 125.409914 
L 794.241015 167.085175 
L 794.859407 227.453917 
L 795.124433 236.160898 
L 795.212775 235.327531 
L 795.389458 227.670485 
L 795.654484 202.352563 
L 796.626244 89.768058 
L 796.714585 88.70356 
L 796.802927 90.090614 
L 796.979611 99.948468 
L 797.332978 141.776211 
L 798.039713 230.838939 
L 798.216396 238.327579 
L 798.304738 238.916732 
L 798.39308 237.425552 
L 798.569763 228.626436 
L 798.923131 193.318976 
L 799.718207 107.028724 
L 799.983232 98.391634 
L 800.071574 98.752707 
L 800.248258 104.218776 
L 800.513283 122.935392 
L 801.750069 231.660106 
L 801.838411 231.630864 
L 802.015094 226.482329 
L 802.28012 206.762964 
L 802.898512 130.326897 
L 803.25188 98.23373 
L 803.428563 93.64978 
L 803.516905 95.00173 
L 803.693589 105.310276 
L 803.958614 138.214838 
L 804.665349 244.36857 
L 804.75369 247.702821 
L 804.842032 246.822111 
L 805.018716 231.644256 
L 805.283741 179.080875 
L 805.813792 71.582292 
L 805.902134 70.752579 
L 806.078818 93.01597 
L 806.432185 207.818217 
L 806.69721 272.169027 
L 806.785552 272.304153 
L 806.962236 232.519129 
L 807.492287 43.681847 
L 807.66897 102.507579 
L 808.022338 300.24358 
L 808.110679 282.26491 
L 808.464047 40.624257 
L 808.64073 158.699009 
L 808.817414 257.939464 
L 809.170781 109.132133 
L 809.435807 204.109427 
L 809.61249 164.264937 
L 809.789174 143.801636 
L 810.054199 180.320675 
L 810.319225 156.929522 
L 810.407567 157.81509 
L 810.672592 171.038225 
L 810.937618 162.114396 
L 811.025959 162.885597 
L 811.114301 165.308404 
L 811.114301 165.308404 
" clip-path="url(#p25f2d29a51)" style="fill: none; stroke: #1f77b4; stroke-width: 0.6; stroke-linecap: square"/>
   </g>
   <g id="line2d_28">
    <path d="M 88.301574 173.199212 
L 88.919967 99.563716 
L 89.184992 88.337752 
L 89.273334 88.160914 
L 89.450017 93.067662 
L 89.715043 112.081007 
L 90.333436 184.873355 
L 90.775145 227.453642 
L 91.04017 238.093826 
L 91.128512 238.575439 
L 91.216854 237.486086 
L 91.393537 230.718524 
L 91.658563 210.33625 
L 92.365297 127.287034 
L 92.807006 90.833179 
L 92.98369 86.013852 
L 93.072032 86.083512 
L 93.248715 91.256927 
L 93.513741 110.77024 
L 94.043792 177.295162 
L 94.573843 239.359765 
L 94.838868 253.600511 
L 94.92721 254.897716 
L 95.015552 254.380914 
L 95.192235 247.955932 
L 95.457261 226.00654 
L 95.987312 154.716147 
L 96.517363 90.071893 
L 96.782388 75.231463 
L 96.87073 73.769903 
L 96.959072 74.121447 
L 97.135755 80.174245 
L 97.400781 101.356644 
L 97.930832 170.288973 
L 98.460883 232.863931 
L 98.725908 247.639141 
L 98.81425 249.30324 
L 98.902592 249.279825 
L 99.079275 244.275747 
L 99.344301 225.630946 
L 99.874352 164.217246 
L 100.404402 108.637456 
L 100.669428 95.510793 
L 100.846112 93.963499 
L 101.022795 98.209472 
L 101.287821 114.242002 
L 101.817872 167.16944 
L 102.347922 215.148175 
L 102.612948 226.442051 
L 102.70129 227.70263 
L 102.789631 227.665336 
L 102.966315 223.768659 
L 103.231341 209.289252 
L 103.761391 161.370161 
L 104.291442 118.114487 
L 104.556468 108.52649 
L 104.64481 107.722276 
L 104.733151 108.158466 
L 104.909835 112.675589 
L 105.17486 127.608898 
L 105.793253 182.423995 
L 106.234962 213.52047 
L 106.499988 220.391992 
L 106.588329 220.29856 
L 106.765013 216.539741 
L 107.030039 202.863784 
L 107.648431 150.999706 
L 108.09014 121.213098 
L 108.355166 114.397652 
L 108.443508 114.355691 
L 108.620191 117.602796 
L 108.885217 129.953245 
L 109.415268 170.421379 
L 109.945318 205.381179 
L 110.210344 212.294692 
L 110.298686 212.598707 
L 110.387028 211.888998 
L 110.563711 207.546703 
L 110.917078 189.082435 
L 111.888838 126.525957 
L 112.153864 121.468207 
L 112.242206 121.626248 
L 112.418889 124.687294 
L 112.683915 135.459216 
L 113.213966 170.312528 
L 113.744016 201.115359 
L 114.009042 207.661514 
L 114.097384 208.113939 
L 114.185726 207.674955 
L 114.362409 204.188484 
L 114.627435 193.147552 
L 115.334169 147.528813 
L 115.775878 127.260424 
L 115.952562 124.262173 
L 116.040904 124.035423 
L 116.129245 124.664631 
L 116.305929 128.407937 
L 116.659296 144.338564 
L 117.719398 202.691178 
L 117.896082 205.460818 
L 117.984424 205.640609 
L 118.161107 203.591799 
L 118.426133 194.978504 
L 118.867842 170.444403 
L 119.574576 132.528681 
L 119.839602 126.935326 
L 119.927943 126.560088 
L 120.016285 126.948939 
L 120.192969 129.96184 
L 120.457994 139.486279 
L 121.076387 174.626904 
L 121.606438 199.185834 
L 121.871463 203.650244 
L 121.959805 203.70215 
L 122.136489 201.638766 
L 122.401514 193.551459 
L 122.843223 170.770173 
L 123.549958 134.610098 
L 123.814983 128.547517 
L 123.991667 127.872853 
L 124.168351 129.955244 
L 124.433376 137.818129 
L 124.875085 159.785433 
L 125.58182 195.181035 
L 125.846845 201.590669 
L 126.023529 202.716306 
L 126.111871 202.295251 
L 126.288554 199.53412 
L 126.55358 191.068407 
L 127.08363 164.307818 
L 127.702023 135.329263 
L 127.967049 129.370222 
L 128.143732 128.41094 
L 128.232074 128.871442 
L 128.408758 131.628231 
L 128.673783 139.918352 
L 129.203834 166.143784 
L 129.822227 195.28285 
L 130.175594 202.779854 
L 130.263936 203.195561 
L 130.352278 203.001553 
L 130.528961 200.810371 
L 130.793987 193.362753 
L 131.235696 172.90295 
L 132.030772 134.790308 
L 132.384139 127.444063 
L 132.472481 127.011598 
L 132.560823 127.164335 
L 132.737507 129.201646 
L 133.002532 136.274558 
L 133.444241 156.036424 
L 134.327659 197.858623 
L 134.681027 204.923405 
L 134.769368 205.350403 
L 134.85771 205.219572 
L 135.034394 203.301395 
L 135.299419 196.541332 
L 135.741128 177.272027 
L 136.712888 130.562501 
L 137.066256 123.256588 
L 137.154597 122.738806 
L 137.242939 122.769714 
L 137.419623 124.472448 
L 137.684648 130.929279 
L 138.126357 150.068232 
L 139.274801 206.493632 
L 139.539826 211.987656 
L 139.71651 213.038972 
L 139.804852 212.754136 
L 139.981535 210.580649 
L 140.246561 203.5425 
L 140.68827 183.732349 
L 141.925055 120.513322 
L 142.278423 113.059849 
L 142.455106 112.242978 
L 142.543448 112.582113 
L 142.720132 114.731342 
L 142.985157 121.427971 
L 143.426866 140.242771 
L 145.105361 222.305363 
L 145.370386 226.416651 
L 145.54707 227.009862 
L 145.723753 225.875506 
L 145.988779 221.048847 
L 146.342146 209.366615 
L 146.872197 183.479749 
L 148.285666 110.098048 
L 148.727375 98.671399 
L 148.992401 96.111873 
L 149.080742 96.008448 
L 149.169084 96.280596 
L 149.345768 97.93891 
L 149.610793 103.111588 
L 150.052502 118.108782 
L 150.670895 148.615387 
L 151.90768 211.138674 
L 152.349389 223.748788 
L 152.614415 227.293578 
L 152.791099 227.856098 
L 152.87944 227.592129 
L 153.056124 225.987373 
L 153.321149 220.994831 
L 153.762859 206.634377 
L 154.469593 173.673628 
L 155.353011 133.618006 
L 155.79472 121.458205 
L 156.059746 117.965241 
L 156.236429 117.353637 
L 156.324771 117.567522 
L 156.501455 119.018138 
L 156.76648 123.629868 
L 157.208189 136.860427 
L 158.091607 173.728851 
L 158.71 195.526874 
L 159.063367 202.625404 
L 159.328393 204.659104 
L 159.416735 204.680969 
L 159.593418 203.749549 
L 159.858444 200.030677 
L 160.211811 191.333608 
L 160.918545 166.54792 
L 161.62528 143.576755 
L 162.066989 135.525009 
L 162.332015 133.863719 
L 162.420356 133.857474 
L 162.59704 134.646133 
L 162.862065 137.707953 
L 163.303774 146.934654 
L 165.070611 190.302187 
L 165.335636 192.054435 
L 165.423978 192.199745 
L 165.51232 192.124045 
L 165.689003 191.31731 
L 165.954029 188.540723 
L 166.395738 180.340155 
L 168.162574 141.389614 
L 168.4276 140.214578 
L 168.515942 140.261838 
L 168.692625 141.011737 
L 168.957651 143.70044 
L 169.39936 151.686647 
L 170.989512 186.117549 
L 171.254538 188.170542 
L 171.431221 188.583088 
L 171.519563 188.501088 
L 171.696247 187.774197 
L 171.961272 185.361963 
L 172.402981 178.42661 
L 174.169818 145.931869 
L 174.434843 144.501227 
L 174.611527 144.362151 
L 174.78821 144.878209 
L 175.053236 146.833971 
L 175.406603 151.401258 
L 176.024996 163.019944 
L 176.996756 181.050588 
L 177.438465 185.32812 
L 177.70349 186.12288 
L 177.791832 186.07855 
L 177.968516 185.532194 
L 178.233541 183.62321 
L 178.67525 177.967409 
L 179.470327 163.516625 
L 180.265403 150.616876 
L 180.707112 146.678823 
L 180.972137 145.808952 
L 181.060479 145.78169 
L 181.237163 146.122119 
L 181.502188 147.596066 
L 181.855556 151.212642 
L 182.385606 159.380801 
L 183.799075 182.771211 
L 184.152443 185.501779 
L 184.417468 186.160606 
L 184.50581 186.103769 
L 184.682494 185.577442 
L 184.947519 183.795928 
L 185.389228 178.530458 
L 186.095963 166.484483 
L 186.979381 152.166638 
L 187.42109 147.740271 
L 187.774457 146.015382 
L 187.951141 145.778026 
L 188.127824 145.947123 
L 188.39285 146.924683 
L 188.746217 149.451321 
L 189.276268 155.3708 
L 190.159686 168.585613 
L 191.219788 183.644509 
L 191.661497 187.411178 
L 191.926522 188.518625 
L 192.103206 188.711428 
L 192.27989 188.445963 
L 192.544915 187.175283 
L 192.898282 183.900684 
L 193.428333 176.087922 
L 195.548537 140.051401 
L 195.901904 137.670399 
L 196.16693 136.913968 
L 196.343613 136.887263 
L 196.520297 137.225556 
L 196.785322 138.374078 
L 197.138689 140.98022 
L 197.66874 146.790119 
L 198.463817 158.550303 
L 201.55578 208.439003 
L 202.174173 214.128251 
L 202.704224 217.376526 
L 203.145933 219.051423 
L 203.587642 219.905434 
L 203.852667 220.064846 
L 204.117693 219.979167 
L 204.382718 219.658665 
L 204.736086 218.874136 
L 205.177795 217.315719 
L 205.707846 214.56029 
L 206.326238 210.036066 
L 207.032973 203.046103 
L 207.916391 191.739234 
L 211.008354 148.83257 
L 211.715089 143.055107 
L 212.24514 140.181152 
L 212.686849 138.812188 
L 212.951874 138.480544 
L 213.128558 138.479401 
L 213.305242 138.663467 
L 213.570267 139.302608 
L 213.923634 140.860259 
L 214.365343 143.954862 
L 214.983736 150.245014 
L 216.043838 164.120662 
L 217.015598 175.593013 
L 217.545649 179.685441 
L 217.987358 181.618339 
L 218.340725 182.228096 
L 218.517409 182.251168 
L 218.782434 181.977554 
L 219.135801 181.129629 
L 219.665852 179.097909 
L 220.460929 174.999656 
L 221.432689 168.835491 
L 223.729576 153.302663 
L 224.171285 151.895649 
L 224.43631 151.531028 
L 224.612994 151.497405 
L 224.878019 151.759077 
L 225.231387 152.660316 
L 225.673096 154.553577 
L 226.37983 158.784417 
L 228.235008 170.414084 
L 229.030085 173.856657 
L 229.648477 175.626859 
L 230.090186 176.320129 
L 230.443554 176.485612 
L 230.708579 176.366367 
L 231.061946 175.874116 
L 231.503655 174.736704 
L 232.033706 172.698794 
L 232.917124 168.256581 
L 234.418935 160.753355 
L 235.214012 157.83094 
L 235.920746 155.964504 
L 236.450797 155.065892 
L 236.892506 154.723965 
L 237.157532 154.731979 
L 237.422557 154.920752 
L 237.775924 155.476108 
L 238.217633 156.675766 
L 238.747684 158.811937 
L 239.631102 163.528612 
L 240.867888 170.076946 
L 241.574622 172.650982 
L 242.193015 174.091909 
L 242.899749 175.147508 
L 244.931611 177.543873 
L 245.284978 177.679532 
L 245.638346 177.556263 
L 245.991713 177.107732 
L 246.433422 176.028199 
L 246.963473 173.964673 
L 247.670207 170.146164 
L 249.967095 156.760322 
L 250.850513 153.27385 
L 252.617349 146.721882 
L 253.589109 141.953903 
L 255.620971 131.556883 
L 256.06268 130.257456 
L 256.416047 129.82528 
L 256.592731 129.864325 
L 256.857756 130.294236 
L 257.122782 131.218765 
L 257.476149 133.29074 
L 257.917858 137.273117 
L 258.536251 145.183946 
L 260.744796 176.543115 
L 261.274847 180.371188 
L 261.716556 182.087741 
L 262.069923 182.626962 
L 262.334949 182.629911 
L 262.599974 182.355386 
L 263.041683 181.442873 
L 263.83676 179.061761 
L 265.161887 175.135978 
L 267.547116 168.758227 
L 268.783901 164.193565 
L 269.932345 160.196529 
L 270.550737 158.709802 
L 271.080788 157.952572 
L 271.522497 157.67667 
L 271.964206 157.662744 
L 272.582599 157.904712 
L 273.554359 158.270689 
L 274.08441 158.215675 
L 274.614461 157.937911 
L 275.674563 157.035625 
L 276.381297 156.598321 
L 276.823006 156.542818 
L 277.264715 156.699197 
L 277.794766 157.166459 
L 278.501501 158.165908 
L 280.621704 161.464722 
L 281.593464 162.408693 
L 283.271959 163.961612 
L 286.098897 166.962715 
L 287.24734 167.610852 
L 288.2191 168.255937 
L 289.014177 169.098503 
L 290.16262 170.746742 
L 291.222722 172.133476 
L 291.841115 172.610314 
L 292.371166 172.766715 
L 292.989558 172.690467 
L 294.756395 172.217909 
L 295.198104 172.392003 
L 295.728155 172.876554 
L 296.346547 173.813093 
L 297.229965 175.630056 
L 298.731776 178.695885 
L 299.526853 179.784359 
L 300.321929 180.467968 
L 302.088765 181.737749 
L 302.707158 182.594375 
L 303.325551 183.837822 
L 304.120627 185.962944 
L 305.357412 189.305473 
L 305.71078 189.743358 
L 305.887463 189.766801 
L 306.064147 189.620179 
L 306.329172 189.00866 
L 306.594198 187.821661 
L 306.947565 185.139019 
L 307.389274 179.685239 
L 307.919325 169.801578 
L 308.714401 149.67712 
L 309.686161 126.268182 
L 310.12787 120.257868 
L 310.392896 118.651636 
L 310.569579 118.432081 
L 310.746263 118.863599 
L 311.011289 120.621895 
L 311.452998 125.921673 
L 312.336416 140.734388 
L 313.219834 154.281676 
L 313.926568 161.831306 
L 314.544961 166.206625 
L 315.163354 169.117527 
L 315.870088 171.349903 
L 316.576823 172.903338 
L 317.283557 173.989237 
L 317.90195 174.575307 
L 318.432001 174.78496 
L 318.87371 174.743238 
L 319.403761 174.440501 
L 320.022154 173.78721 
L 321.082255 172.246693 
L 322.054015 170.953742 
L 322.672408 170.451212 
L 323.202459 170.281757 
L 323.73251 170.342934 
L 324.439244 170.69203 
L 326.206081 171.735878 
L 326.824473 171.81825 
L 327.442866 171.687881 
L 328.237942 171.271592 
L 330.09312 170.181952 
L 330.799855 170.045934 
L 331.594931 170.121088 
L 334.686895 170.694943 
L 336.807098 170.680805 
L 337.690517 170.986654 
L 338.927302 171.716256 
L 339.987404 172.266101 
L 340.694138 172.403949 
L 341.312531 172.319531 
L 342.019265 172.000067 
L 344.581178 170.544565 
L 345.199571 170.581899 
L 345.906305 170.859156 
L 347.408116 171.555425 
L 347.938167 171.505206 
L 348.379876 171.222839 
L 348.821585 170.670312 
L 349.351636 169.601191 
L 349.970029 167.748432 
L 350.676763 164.803108 
L 351.47184 160.406073 
L 352.266916 154.770931 
L 353.150334 146.911912 
L 354.740487 131.969987 
L 355.093854 130.63058 
L 355.270538 130.638949 
L 355.447221 131.208005 
L 355.712247 133.273262 
L 356.065614 138.568347 
L 356.507323 149.396162 
L 357.214058 173.837295 
L 358.009134 200.344621 
L 358.450843 208.845741 
L 358.715868 210.931733 
L 358.80421 211.116852 
L 358.892552 211.055727 
L 359.069236 210.23208 
L 359.334261 207.431538 
L 359.77597 199.64913 
L 361.542807 164.08523 
L 362.161199 157.215196 
L 362.69125 153.602663 
L 363.221301 151.44747 
L 363.751352 150.228878 
L 364.281403 149.592778 
L 364.723112 149.361239 
L 365.164821 149.341873 
L 365.694872 149.572039 
L 366.224923 150.071807 
L 366.843315 150.983924 
L 367.638392 152.607174 
L 368.875177 155.741177 
L 370.642013 160.12847 
L 371.702115 162.149102 
L 372.673875 163.545148 
L 373.822319 164.783772 
L 375.412471 166.119796 
L 377.621017 167.999145 
L 380.006246 170.072028 
L 381.066348 170.663226 
L 382.214791 171.020428 
L 384.865046 171.720326 
L 386.013489 171.994803 
L 386.720224 171.931569 
L 387.338616 171.629906 
L 387.957009 171.053708 
L 388.663744 170.057581 
L 389.635504 168.220073 
L 391.844049 163.332232 
L 393.169176 160.074529 
L 394.140936 157.103105 
L 395.377722 152.508225 
L 396.967874 146.622938 
L 397.586267 145.139867 
L 397.939634 144.78129 
L 398.116318 144.794516 
L 398.381343 145.122107 
L 398.646369 145.904315 
L 398.999736 147.844144 
L 399.353103 151.067678 
L 399.794812 157.301427 
L 400.324863 168.347307 
L 401.296623 195.187646 
L 401.826674 207.239094 
L 402.180041 211.098398 
L 402.268383 211.3597 
L 402.356725 211.313444 
L 402.533408 210.271703 
L 402.798434 206.333427 
L 403.151801 197.038898 
L 403.858536 170.024464 
L 404.653612 141.896825 
L 405.095321 132.762016 
L 405.448688 129.350611 
L 405.625372 128.812571 
L 405.713714 128.800119 
L 405.890397 129.229633 
L 406.155423 130.826474 
L 406.597132 135.241217 
L 408.982361 162.43844 
L 409.777437 168.133511 
L 410.484172 171.815186 
L 411.102565 174.069943 
L 411.632615 175.332919 
L 412.162666 176.035563 
L 412.604375 176.253523 
L 413.046084 176.205165 
L 413.576135 175.897511 
L 414.547895 175.006656 
L 415.961364 173.790876 
L 417.993226 172.189372 
L 418.964986 171.028824 
L 420.201771 169.145336 
L 423.205393 164.419119 
L 425.148913 161.884127 
L 427.710826 158.934384 
L 429.124295 157.564254 
L 429.919371 157.067103 
L 430.537764 156.913386 
L 431.067815 156.981974 
L 431.686207 157.312567 
L 432.392942 158.000699 
L 433.27636 159.217478 
L 434.601487 161.480624 
L 435.573247 163.528239 
L 436.368323 165.747335 
L 437.075058 168.372331 
L 437.870134 172.19931 
L 438.930236 178.566088 
L 440.697072 189.388742 
L 441.138781 190.949636 
L 441.403807 191.320738 
L 441.580491 191.249652 
L 441.757174 190.869694 
L 442.0222 189.610312 
L 442.375567 186.373095 
L 442.817276 179.316609 
L 443.347327 166.084513 
L 444.93748 119.843831 
L 445.202505 117.862012 
L 445.290847 117.881213 
L 445.46753 118.970423 
L 445.732556 123.163677 
L 446.085923 132.910459 
L 446.880999 163.625386 
L 447.587734 187.041786 
L 448.029443 195.573136 
L 448.38281 198.846522 
L 448.647836 199.531762 
L 448.824519 199.297483 
L 449.089545 198.123541 
L 449.531254 194.637282 
L 450.591356 183.412969 
L 451.739799 172.368972 
L 452.623217 165.893234 
L 453.418294 161.609372 
L 454.125028 158.978549 
L 454.743421 157.483591 
L 455.361814 156.584805 
L 455.980206 156.095847 
L 456.775283 155.795467 
L 457.835384 155.643516 
L 458.630461 155.707948 
L 459.337195 155.996484 
L 459.955588 156.48878 
L 460.662323 157.337517 
L 461.634082 158.896617 
L 470.114897 173.711417 
L 471.086657 174.852722 
L 471.793391 175.375715 
L 472.411784 175.578448 
L 473.030177 175.536076 
L 473.648569 175.268147 
L 474.355304 174.725225 
L 475.15038 173.827072 
L 475.857115 172.686188 
L 476.475507 171.266076 
L 477.0939 169.263994 
L 477.712293 166.50546 
L 478.419027 162.292104 
L 479.302445 155.493108 
L 481.599333 136.521397 
L 481.864358 135.676225 
L 482.041042 135.541643 
L 482.217725 135.826672 
L 482.482751 137.192121 
L 482.747776 139.88533 
L 483.101143 145.865157 
L 483.542853 157.411582 
L 484.249587 182.991562 
L 484.956322 206.942351 
L 485.309689 213.324315 
L 485.486372 214.426514 
L 485.574714 214.41569 
L 485.751398 213.266225 
L 486.016423 208.854118 
L 486.458132 195.681721 
L 487.959943 143.432285 
L 488.401652 136.21109 
L 488.75502 133.61911 
L 488.931703 133.207767 
L 489.108387 133.284068 
L 489.373412 134.145722 
L 489.72678 136.32164 
L 490.433514 142.542145 
L 492.288692 159.418316 
L 493.17211 165.444934 
L 493.967187 169.466215 
L 494.673921 172.011681 
L 495.380656 173.794875 
L 496.175732 175.176559 
L 496.970808 176.112961 
L 497.677543 176.616914 
L 498.207594 176.763411 
L 498.737645 176.681642 
L 499.267696 176.359313 
L 499.886088 175.696481 
L 500.681165 174.487763 
L 502.182975 171.693417 
L 504.656546 166.683099 
L 506.688408 161.900398 
L 508.631928 157.521991 
L 509.780371 155.454153 
L 510.66379 154.312522 
L 511.370524 153.752336 
L 511.988917 153.537485 
L 512.518968 153.56211 
L 513.049019 153.794943 
L 513.579069 154.278787 
L 514.10912 155.095098 
L 514.639171 156.364404 
L 515.169222 158.232372 
L 515.787615 161.357833 
L 516.406008 165.651077 
L 517.201084 172.905826 
L 518.349527 185.84748 
L 519.321287 195.942505 
L 519.674655 198.086632 
L 519.93968 198.646951 
L 520.028022 198.579632 
L 520.204706 197.999503 
L 520.469731 195.859162 
L 520.823098 190.26231 
L 521.264807 178.487593 
L 521.8832 154.709154 
L 522.678276 124.404165 
L 523.031644 117.083051 
L 523.208327 115.670333 
L 523.296669 115.566633 
L 523.385011 115.866181 
L 523.561695 117.647389 
L 523.82672 123.040381 
L 524.268429 137.522693 
L 525.593556 184.853534 
L 526.035265 193.117475 
L 526.388633 196.499874 
L 526.653658 197.463053 
L 526.830342 197.491969 
L 527.007025 197.115324 
L 527.272051 195.938312 
L 527.71376 192.8312 
L 528.68552 183.792004 
L 530.098989 170.977801 
L 530.982407 164.741703 
L 531.777483 160.534843 
L 532.57256 157.490951 
L 533.367636 155.335893 
L 534.07437 154.005544 
L 534.692763 153.260279 
L 535.222814 152.945022 
L 535.664523 152.918997 
L 536.106232 153.105342 
L 536.636283 153.586898 
L 537.343018 154.584957 
L 538.403119 156.559338 
L 539.993272 160.043438 
L 541.318399 163.460569 
L 543.350261 169.472577 
L 545.205439 174.697893 
L 546.353883 177.315561 
L 547.148959 178.640562 
L 547.767352 179.312553 
L 548.297403 179.600829 
L 548.739112 179.610284 
L 549.180821 179.37333 
L 549.62253 178.836229 
L 550.064239 177.923686 
L 550.59429 176.199601 
L 551.124341 173.620433 
L 551.742733 169.32194 
L 552.449468 162.56227 
L 553.332886 151.641085 
L 554.834697 132.719033 
L 555.188064 130.541072 
L 555.364748 130.210286 
L 555.45309 130.277024 
L 555.629773 130.936347 
L 555.894799 133.413738 
L 556.248166 139.881238 
L 556.689875 153.297877 
L 557.484951 187.409881 
L 558.103344 210.083967 
L 558.456711 215.987087 
L 558.633395 216.413583 
L 558.810079 215.123668 
L 559.075104 210.19486 
L 559.516813 195.784903 
L 560.930282 144.034719 
L 561.371991 136.144538 
L 561.725358 133.13473 
L 561.990384 132.461389 
L 562.167068 132.625008 
L 562.432093 133.60576 
L 562.873802 136.663209 
L 563.668878 144.485791 
L 565.435715 162.272025 
L 566.319133 168.871912 
L 567.114209 173.226844 
L 567.820944 176.02184 
L 568.527678 177.984273 
L 569.146071 179.093457 
L 569.676122 179.606286 
L 570.117831 179.727806 
L 570.55954 179.58133 
L 571.001249 179.188159 
L 571.619642 178.286271 
L 572.414718 176.680812 
L 573.563162 173.805449 
L 574.799947 170.126732 
L 576.301758 164.878678 
L 579.128696 154.823345 
L 580.188798 151.88073 
L 580.895532 150.476105 
L 581.425583 149.813575 
L 581.867292 149.563933 
L 582.220659 149.589564 
L 582.574027 149.842595 
L 582.927394 150.35592 
L 583.369103 151.428314 
L 583.810812 153.074181 
L 584.340863 155.965768 
L 584.959256 160.829387 
L 585.66599 168.526045 
L 586.549408 180.916163 
L 587.786194 198.371678 
L 588.227903 201.693367 
L 588.404586 202.077528 
L 588.492928 202.015034 
L 588.669612 201.315142 
L 588.934637 198.644699 
L 589.288005 191.663026 
L 589.729714 177.24753 
L 590.613132 137.282441 
L 591.143183 118.542079 
L 591.408208 114.138051 
L 591.584892 113.482321 
L 591.761575 114.689964 
L 592.026601 119.781797 
L 592.46831 135.113992 
L 593.793437 187.934055 
L 594.235146 196.904849 
L 594.588513 200.272091 
L 594.853539 200.940141 
L 595.030223 200.662146 
L 595.295248 199.37438 
L 595.736957 195.546691 
L 596.532033 185.989968 
L 598.033844 167.888904 
L 598.917262 160.017689 
L 599.623997 155.49126 
L 600.330731 152.342177 
L 600.949124 150.542848 
L 601.479175 149.629552 
L 601.920884 149.284015 
L 602.274251 149.267722 
L 602.627619 149.471164 
L 603.069328 150.011346 
L 603.599379 151.02656 
L 604.306113 152.871977 
L 605.366215 156.357775 
L 606.691342 161.544681 
L 608.811546 170.989955 
L 610.401698 177.601638 
L 611.373458 180.764322 
L 611.991851 182.173816 
L 612.521902 182.878276 
L 612.875269 183.042305 
L 613.228636 182.930946 
L 613.582004 182.515946 
L 614.023713 181.520287 
L 614.465422 179.921687 
L 614.995473 177.073934 
L 615.613865 172.248077 
L 616.232258 165.611038 
L 617.027334 154.548238 
L 618.617487 131.382574 
L 618.970854 128.939656 
L 619.147538 128.58666 
L 619.23588 128.672831 
L 619.412563 129.435546 
L 619.677589 132.237001 
L 620.030956 139.460126 
L 620.472665 154.291644 
L 621.356083 195.32938 
L 621.886134 214.246249 
L 622.15116 218.327225 
L 622.239501 218.702431 
L 622.327843 218.567898 
L 622.504527 216.781233 
L 622.769552 210.544888 
L 623.211261 192.858571 
L 624.448047 138.661937 
L 624.889756 129.378685 
L 625.154781 126.914155 
L 625.331465 126.396172 
L 625.419807 126.434874 
L 625.59649 127.037242 
L 625.861516 129.043358 
L 626.303225 134.465678 
L 627.363327 151.546669 
L 628.423428 166.964935 
L 629.218505 175.265011 
L 629.836898 179.680394 
L 630.45529 182.531981 
L 630.985341 183.922988 
L 631.338708 184.381453 
L 631.692076 184.500844 
L 631.957101 184.382984 
L 632.310468 183.967789 
L 632.752177 183.067656 
L 633.37057 181.191507 
L 634.165646 177.968671 
L 635.402432 171.86586 
L 639.466155 150.931606 
L 640.261232 148.299194 
L 640.791283 147.154864 
L 641.232992 146.6739 
L 641.498017 146.623603 
L 641.763042 146.770303 
L 642.11641 147.296572 
L 642.558119 148.529364 
L 642.999828 150.454844 
L 643.529879 153.76177 
L 644.148271 159.120055 
L 644.855006 167.337057 
L 645.826766 181.717801 
L 646.97521 198.196017 
L 647.416919 201.531156 
L 647.593602 201.937169 
L 647.681944 201.894693 
L 647.858628 201.259766 
L 648.123653 198.763945 
L 648.47702 192.16353 
L 648.918729 178.306832 
L 649.625464 146.309062 
L 650.332199 117.387081 
L 650.597224 112.264989 
L 650.773908 111.415541 
L 650.862249 111.813442 
L 651.038933 114.261096 
L 651.303958 121.825833 
L 651.745668 142.388425 
L 652.805769 195.759195 
L 653.247478 206.83871 
L 653.512504 209.396979 
L 653.600846 209.632857 
L 653.689187 209.588449 
L 653.865871 208.735561 
L 654.130897 205.847901 
L 654.572606 198.058559 
L 656.692809 155.726889 
L 657.311202 148.738567 
L 657.841253 145.01867 
L 658.282962 143.30544 
L 658.636329 142.706292 
L 658.901355 142.645978 
L 659.16638 142.880086 
L 659.519747 143.597203 
L 659.961456 145.056361 
L 660.579849 147.959618 
L 661.463267 153.359904 
L 663.495129 167.810959 
L 664.908598 176.97601 
L 665.792016 181.458251 
L 666.498751 184.013007 
L 667.028801 185.194368 
L 667.382169 185.579979 
L 667.647194 185.635417 
L 667.91222 185.474061 
L 668.265587 184.895332 
L 668.707296 183.538845 
L 669.149005 181.425248 
L 669.679056 177.83607 
L 670.38579 171.239616 
L 671.180867 161.503265 
L 673.477754 131.490597 
L 673.742779 130.451927 
L 673.831121 130.374376 
L 673.919463 130.447337 
L 674.096147 131.083285 
L 674.361172 133.400346 
L 674.714539 139.365313 
L 675.156248 151.817011 
L 675.774641 177.33074 
L 676.658059 213.7096 
L 676.923085 218.878829 
L 677.099768 219.753358 
L 677.18811 219.3394 
L 677.364794 216.755485 
L 677.629819 208.606161 
L 678.071528 185.837688 
L 679.13163 126.392899 
L 679.484997 117.346581 
L 679.750023 115.386852 
L 679.838365 115.581424 
L 680.015048 117.097437 
L 680.280074 121.745383 
L 680.810125 136.502935 
L 682.135252 175.623674 
L 682.753644 186.849405 
L 683.195354 191.570383 
L 683.548721 193.579044 
L 683.813746 194.18696 
L 683.99043 194.215888 
L 684.167114 193.975981 
L 684.432139 193.170705 
L 684.873848 190.848816 
L 685.492241 186.107291 
L 686.552343 175.804915 
L 688.495862 156.824358 
L 689.379281 150.268257 
L 690.086015 146.482881 
L 690.616066 144.643063 
L 691.057775 143.832619 
L 691.322801 143.679235 
L 691.587826 143.783319 
L 691.852851 144.149789 
L 692.206219 145.053477 
L 692.647928 146.861262 
L 693.177979 150.040959 
L 693.796371 155.146248 
L 694.591448 163.780482 
L 695.828233 180.321414 
L 696.888335 193.619443 
L 697.418386 197.734559 
L 697.683411 198.610444 
L 697.860095 198.629389 
L 698.036778 198.12919 
L 698.301804 196.283235 
L 698.655171 191.516923 
L 699.09688 181.494179 
L 699.626931 163.707827 
L 700.952058 115.416953 
L 701.217084 112.643866 
L 701.305426 112.743028 
L 701.482109 114.632219 
L 701.747135 121.830749 
L 702.100502 138.982212 
L 703.513971 218.975001 
L 703.778996 221.693619 
L 703.867338 221.380617 
L 704.044022 219.073332 
L 704.309047 212.002606 
L 704.839098 189.724477 
L 705.810858 148.22026 
L 706.340909 134.76232 
L 706.694276 130.099468 
L 706.959302 128.632703 
L 707.135985 128.503479 
L 707.312669 128.971437 
L 707.577694 130.636353 
L 708.019403 135.401235 
L 708.726138 146.089753 
L 710.581316 175.108056 
L 711.288051 182.869738 
L 711.906443 187.487109 
L 712.348152 189.491233 
L 712.70152 190.321915 
L 712.966545 190.501455 
L 713.143229 190.413325 
L 713.408254 189.974539 
L 713.761621 188.829946 
L 714.20333 186.534455 
L 714.821723 181.826991 
L 715.6168 173.606311 
L 716.765243 158.951356 
L 718.178712 141.318506 
L 718.797105 136.23941 
L 719.150472 134.755103 
L 719.327156 134.50609 
L 719.503839 134.631189 
L 719.680523 135.164379 
L 719.945548 136.801273 
L 720.298916 140.701778 
L 720.740625 148.574541 
L 721.270676 162.417892 
L 723.037512 214.271521 
L 723.214196 215.032525 
L 723.302537 214.750357 
L 723.479221 212.736946 
L 723.744246 205.86711 
L 724.097614 189.60004 
L 724.804348 141.959759 
L 725.334399 112.311703 
L 725.599425 105.692702 
L 725.687766 105.032168 
L 725.776108 105.167247 
L 725.952792 107.777628 
L 726.217817 117.016901 
L 726.659526 142.396488 
L 727.542944 195.637645 
L 727.984654 209.827624 
L 728.249679 213.200975 
L 728.338021 213.532628 
L 728.426363 213.499682 
L 728.603046 212.430128 
L 728.868072 208.681349 
L 729.309781 198.366026 
L 731.253301 146.462347 
L 731.783352 138.903872 
L 732.225061 135.42536 
L 732.490086 134.497204 
L 732.66677 134.329747 
L 732.843453 134.502814 
L 733.108479 135.359179 
L 733.461846 137.508522 
L 733.991897 142.545437 
L 734.698631 151.735005 
L 737.52557 191.367383 
L 737.967279 194.436086 
L 738.320646 195.665261 
L 738.49733 195.81972 
L 738.674013 195.644024 
L 738.939039 194.726703 
L 739.292406 192.213276 
L 739.734115 186.901519 
L 740.264166 177.354831 
L 740.9709 160.039618 
L 742.296028 126.103501 
L 742.649395 121.704787 
L 742.826078 121.081079 
L 742.91442 121.23603 
L 743.091104 122.572589 
L 743.356129 127.366243 
L 743.709497 139.269785 
L 744.239547 167.637045 
L 745.122966 218.531275 
L 745.387991 225.483757 
L 745.476333 226.25889 
L 745.564675 226.187244 
L 745.741358 223.42109 
L 746.006384 212.839835 
L 746.448093 181.685253 
L 747.331511 116.301961 
L 747.596536 107.584984 
L 747.77322 105.709394 
L 747.861562 105.918498 
L 748.038245 108.456057 
L 748.303271 116.784398 
L 748.833322 143.419123 
L 749.71674 188.129178 
L 750.158449 201.597242 
L 750.511816 207.011841 
L 750.776842 208.166182 
L 750.865184 208.0511 
L 751.041867 207.144397 
L 751.306893 204.290334 
L 751.748602 196.442345 
L 752.543678 177.019695 
L 753.780463 147.61595 
L 754.398856 137.850272 
L 754.840565 133.770261 
L 755.193932 132.385396 
L 755.370616 132.331507 
L 755.5473 132.702629 
L 755.812325 134.046008 
L 756.165692 137.258699 
L 756.607402 143.394003 
L 757.225794 155.296217 
L 759.43434 202.371272 
L 759.787707 204.800461 
L 759.876049 204.933066 
L 759.96439 204.855859 
L 760.141074 204.035912 
L 760.4061 201.025958 
L 760.759467 193.475154 
L 761.201176 178.389829 
L 761.996252 140.565165 
L 762.614645 115.149905 
L 762.87967 110.275508 
L 762.968012 109.858748 
L 763.056354 110.121724 
L 763.233038 112.818826 
L 763.498063 122.522051 
L 763.85143 145.30209 
L 764.999874 229.516545 
L 765.176558 232.060939 
L 765.264899 231.605514 
L 765.441583 227.272231 
L 765.706608 213.054758 
L 766.236659 167.891339 
L 766.855052 120.278669 
L 767.208419 107.780626 
L 767.385103 106.308706 
L 767.473445 106.699445 
L 767.650128 109.52599 
L 767.915154 118.066504 
L 768.445205 144.548016 
L 769.328623 189.183889 
L 769.770332 202.902305 
L 770.123699 208.372315 
L 770.300383 209.307069 
L 770.388725 209.348076 
L 770.565408 208.625178 
L 770.830434 205.698909 
L 771.183801 198.900594 
L 771.802194 181.581267 
L 773.304004 137.115676 
L 773.745714 129.602116 
L 774.099081 126.735455 
L 774.275764 126.46053 
L 774.452448 126.990168 
L 774.717474 129.312798 
L 775.070841 135.219277 
L 775.51255 146.747796 
L 776.219284 172.039076 
L 777.191044 205.894803 
L 777.544412 212.173483 
L 777.721095 213.149374 
L 777.809437 213.007687 
L 777.986121 211.361938 
L 778.251146 205.279457 
L 778.604513 190.343489 
L 779.134564 156.303531 
L 779.841299 111.187589 
L 780.106324 103.554337 
L 780.194666 102.929781 
L 780.283008 103.382081 
L 780.459691 107.672094 
L 780.724717 122.53873 
L 781.166426 164.768879 
L 781.784819 224.620565 
L 782.049844 235.638834 
L 782.138186 236.366873 
L 782.226528 235.562753 
L 782.403211 229.491153 
L 782.668237 210.684785 
L 783.905022 104.116404 
L 784.081706 101.47608 
L 784.170048 101.77035 
L 784.346731 105.336988 
L 784.611757 116.975907 
L 785.141808 153.305854 
L 785.848542 199.393448 
L 786.201909 212.386664 
L 786.466935 216.411176 
L 786.555277 216.665828 
L 786.643618 216.397089 
L 786.820302 214.366337 
L 787.085328 207.963013 
L 787.527037 190.456595 
L 788.940506 126.827307 
L 789.293873 120.18065 
L 789.470557 119.243897 
L 789.558898 119.405145 
L 789.735582 121.001351 
L 790.000607 126.528914 
L 790.353975 139.253339 
L 790.972367 171.616 
L 791.767444 210.858354 
L 792.032469 216.975323 
L 792.209153 217.864468 
L 792.385836 215.853201 
L 792.650862 207.100517 
L 793.004229 185.325597 
L 794.152673 101.915548 
L 794.241015 100.819773 
L 794.329356 101.190153 
L 794.50604 106.562334 
L 794.771065 126.023875 
L 795.301116 191.291256 
L 795.742825 235.12728 
L 795.919509 240.414396 
L 796.007851 239.650728 
L 796.184534 231.195861 
L 796.44956 203.277756 
L 797.332978 92.840476 
L 797.509662 89.480027 
L 797.686345 95.376728 
L 797.951371 119.045617 
L 798.923131 230.66387 
L 799.099814 235.410515 
L 799.188156 235.048553 
L 799.36484 229.109098 
L 799.629865 209.034757 
L 800.778309 101.162011 
L 800.866651 99.670325 
L 800.954992 99.761569 
L 801.131676 104.6653 
L 801.396702 122.827982 
L 801.926752 182.360778 
L 802.368461 225.002205 
L 802.633487 233.869517 
L 802.721829 233.015215 
L 802.898512 225.277887 
L 803.163538 199.710231 
L 804.046956 90.595481 
L 804.135298 88.871021 
L 804.22364 90.367749 
L 804.400323 103.419849 
L 804.665349 145.559468 
L 805.283741 252.446745 
L 805.372083 254.117461 
L 805.460425 249.921279 
L 805.637109 223.666942 
L 806.343843 63.713427 
L 806.432185 70.917341 
L 806.608869 115.95285 
L 807.138919 280.277898 
L 807.227261 268.415365 
L 807.403945 196.834231 
L 807.757312 35.55267 
L 807.845654 46.972716 
L 808.022338 159.389938 
L 808.287363 296.079219 
L 808.464047 164.411447 
L 808.64073 55.407684 
L 808.817414 163.10088 
L 808.994098 239.678427 
L 809.259123 118.651832 
L 809.347465 125.426155 
L 809.61249 195.439661 
L 809.877516 147.083632 
L 809.965858 150.922613 
L 810.230883 176.592881 
L 810.495908 158.36291 
L 810.58425 160.612938 
L 810.760934 169.443575 
L 810.849276 169.482001 
L 811.114301 162.803243 
L 811.114301 162.803243 
" clip-path="url(#p25f2d29a51)" style="fill: none; stroke: #ff7f0e; stroke-width: 0.6; stroke-linecap: square"/>
   </g>
   <g id="patch_3">
    <path d="M 52.160938 313.478125 
L 52.160938 22.318125 
" style="fill: none; stroke: #000000; stroke-width: 0.8; stroke-linejoin: miter; stroke-linecap: square"/>
   </g>
   <g id="patch_4">
    <path d="M 847.254938 313.478125 
L 847.254938 22.318125 
" style="fill: none; stroke: #000000; stroke-width: 0.8; stroke-linejoin: miter; stroke-linecap: square"/>
   </g>
   <g id="patch_5">
    <path d="M 52.160938 313.478125 
L 847.254938 313.478125 
" style="fill: none; stroke: #000000; stroke-width: 0.8; stroke-linejoin: miter; stroke-linecap: square"/>
   </g>
   <g id="patch_6">
    <path d="M 52.160938 22.318125 
L 847.254938 22.318125 
" style="fill: none; stroke: #000000; stroke-width: 0.8; stroke-linejoin: miter; stroke-linecap: square"/>
   </g>
   <g id="text_16">
    <!-- M=60, e=0.32, f_min=10 Hz -->
    <g transform="translate(363.504813 16.318125) scale(0.12 -0.12)">
     <defs>
      <path id="DejaVuSans-4d" d="M 628 4666 
L 1569 4666 
L 2759 1491 
L 3956 4666 
L 4897 4666 
L 4897 0 
L 4281 0 
L 4281 4097 
L 3078 897 
L 2444 897 
L 1241 4097 
L 1241 0 
L 628 0 
L 628 4666 
z
" transform="scale(0.015625)"/>
      <path id="DejaVuSans-3d" d="M 678 2906 
L 4684 2906 
L 4684 2381 
L 678 2381 
L 678 2906 
z
M 678 1631 
L 4684 1631 
L 4684 1100 
L 678 1100 
L 678 1631 
z
" transform="scale(0.015625)"/>
      <path id="DejaVuSans-2c" d="M 750 794 
L 1409 794 
L 1409 256 
L 897 -744 
L 494 -744 
L 750 256 
L 750 794 
z
" transform="scale(0.015625)"/>
      <path id="DejaVuSans-65" d="M 3597 1894 
L 3597 1613 
L 953 1613 
Q 991 1019 1311 708 
Q 1631 397 2203 397 
Q 2534 397 2845 478 
Q 3156 559 3463 722 
L 3463 178 
Q 3153 47 2828 -22 
Q 2503 -91 2169 -91 
Q 1331 -91 842 396 
Q 353 884 353 1716 
Q 353 2575 817 3079 
Q 1281 3584 2069 3584 
Q 2775 3584 3186 3129 
Q 3597 2675 3597 1894 
z
M 3022 2063 
Q 3016 2534 2758 2815 
Q 2500 3097 2075 3097 
Q 1594 3097 1305 2825 
Q 1016 2553 972 2059 
L 3022 2063 
z
" transform="scale(0.015625)"/>
      <path id="DejaVuSans-33" d="M 2597 2516 
Q 3050 2419 3304 2112 
Q 3559 1806 3559 1356 
Q 3559 666 3084 287 
Q 2609 -91 1734 -91 
Q 1441 -91 1130 -33 
Q 819 25 488 141 
L 488 750 
Q 750 597 1062 519 
Q 1375 441 1716 441 
Q 2309 441 2620 675 
Q 2931 909 2931 1356 
Q 2931 1769 2642 2001 
Q 2353 2234 1838 2234 
L 1294 2234 
L 1294 2753 
L 1863 2753 
Q 2328 2753 2575 2939 
Q 2822 3125 2822 3475 
Q 2822 3834 2567 4026 
Q 2313 4219 1838 4219 
Q 1578 4219 1281 4162 
Q 984 4106 628 3988 
L 628 4550 
Q 988 4650 1302 4700 
Q 1616 4750 1894 4750 
Q 2613 4750 3031 4423 
Q 3450 4097 3450 3541 
Q 3450 3153 3228 2886 
Q 3006 2619 2597 2516 
z
" transform="scale(0.015625)"/>
      <path id="DejaVuSans-66" d="M 2375 4863 
L 2375 4384 
L 1825 4384 
Q 1516 4384 1395 4259 
Q 1275 4134 1275 3809 
L 1275 3500 
L 2222 3500 
L 2222 3053 
L 1275 3053 
L 1275 0 
L 697 0 
L 697 3053 
L 147 3053 
L 147 3500 
L 697 3500 
L 697 3744 
Q 697 4328 969 4595 
Q 1241 4863 1831 4863 
L 2375 4863 
z
" transform="scale(0.015625)"/>
      <path id="DejaVuSans-5f" d="M 3263 -1063 
L 3263 -1509 
L -63 -1509 
L -63 -1063 
L 3263 -1063 
z
" transform="scale(0.015625)"/>
      <path id="DejaVuSans-6d" d="M 3328 2828 
Q 3544 3216 3844 3400 
Q 4144 3584 4550 3584 
Q 5097 3584 5394 3201 
Q 5691 2819 5691 2113 
L 5691 0 
L 5113 0 
L 5113 2094 
Q 5113 2597 4934 2840 
Q 4756 3084 4391 3084 
Q 3944 3084 3684 2787 
Q 3425 2491 3425 1978 
L 3425 0 
L 2847 0 
L 2847 2094 
Q 2847 2600 2669 2842 
Q 2491 3084 2119 3084 
Q 1678 3084 1418 2786 
Q 1159 2488 1159 1978 
L 1159 0 
L 581 0 
L 581 3500 
L 1159 3500 
L 1159 2956 
Q 1356 3278 1631 3431 
Q 1906 3584 2284 3584 
Q 2666 3584 2933 3390 
Q 3200 3197 3328 2828 
z
" transform="scale(0.015625)"/>
      <path id="DejaVuSans-69" d="M 603 3500 
L 1178 3500 
L 1178 0 
L 603 0 
L 603 3500 
z
M 603 4863 
L 1178 4863 
L 1178 4134 
L 603 4134 
L 603 4863 
z
" transform="scale(0.015625)"/>
      <path id="DejaVuSans-6e" d="M 3513 2113 
L 3513 0 
L 2938 0 
L 2938 2094 
Q 2938 2591 2744 2837 
Q 2550 3084 2163 3084 
Q 1697 3084 1428 2787 
Q 1159 2491 1159 1978 
L 1159 0 
L 581 0 
L 581 3500 
L 1159 3500 
L 1159 2956 
Q 1366 3272 1645 3428 
Q 1925 3584 2291 3584 
Q 2894 3584 3203 3211 
Q 3513 2838 3513 2113 
z
" transform="scale(0.015625)"/>
      <path id="DejaVuSans-48" d="M 628 4666 
L 1259 4666 
L 1259 2753 
L 3553 2753 
L 3553 4666 
L 4184 4666 
L 4184 0 
L 3553 0 
L 3553 2222 
L 1259 2222 
L 1259 0 
L 628 0 
L 628 4666 
z
" transform="scale(0.015625)"/>
      <path id="DejaVuSans-7a" d="M 353 3500 
L 3084 3500 
L 3084 2975 
L 922 459 
L 3084 459 
L 3084 0 
L 275 0 
L 275 525 
L 2438 3041 
L 353 3041 
L 353 3500 
z
" transform="scale(0.015625)"/>
     </defs>
     <use xlink:href="#DejaVuSans-4d"/>
     <use xlink:href="#DejaVuSans-3d" transform="translate(86.279297 0)"/>
     <use xlink:href="#DejaVuSans-36" transform="translate(170.068359 0)"/>
     <use xlink:href="#DejaVuSans-30" transform="translate(233.691406 0)"/>
     <use xlink:href="#DejaVuSans-2c" transform="translate(297.314453 0)"/>
     <use xlink:href="#DejaVuSans-20" transform="translate(329.101562 0)"/>
     <use xlink:href="#DejaVuSans-65" transform="translate(360.888672 0)"/>
     <use xlink:href="#DejaVuSans-3d" transform="translate(422.412109 0)"/>
     <use xlink:href="#DejaVuSans-30" transform="translate(506.201172 0)"/>
     <use xlink:href="#DejaVuSans-2e" transform="translate(569.824219 0)"/>
     <use xlink:href="#DejaVuSans-33" transform="translate(601.611328 0)"/>
     <use xlink:href="#DejaVuSans-32" transform="translate(665.234375 0)"/>
     <use xlink:href="#DejaVuSans-2c" transform="translate(728.857422 0)"/>
     <use xlink:href="#DejaVuSans-20" transform="translate(760.644531 0)"/>
     <use xlink:href="#DejaVuSans-66" transform="translate(792.431641 0)"/>
     <use xlink:href="#DejaVuSans-5f" transform="translate(827.636719 0)"/>
     <use xlink:href="#DejaVuSans-6d" transform="translate(877.636719 0)"/>
     <use xlink:href="#DejaVuSans-69" transform="translate(975.048828 0)"/>
     <use xlink:href="#DejaVuSans-6e" transform="translate(1002.832031 0)"/>
     <use xlink:href="#DejaVuSans-3d" transform="translate(1066.210938 0)"/>
     <use xlink:href="#DejaVuSans-31" transform="translate(1150 0)"/>
     <use xlink:href="#DejaVuSans-30" transform="translate(1213.623047 0)"/>
     <use xlink:href="#DejaVuSans-20" transform="translate(1277.246094 0)"/>
     <use xlink:href="#DejaVuSans-48" transform="translate(1309.033203 0)"/>
     <use xlink:href="#DejaVuSans-7a" transform="translate(1384.228516 0)"/>
    </g>
   </g>
   <g id="legend_1">
    <g id="patch_7">
     <path d="M 59.160938 59.674375 
L 123.960938 59.674375 
Q 125.960938 59.674375 125.960938 57.674375 
L 125.960938 29.318125 
Q 125.960938 27.318125 123.960938 27.318125 
L 59.160938 27.318125 
Q 57.160938 27.318125 57.160938 29.318125 
L 57.160938 57.674375 
Q 57.160938 59.674375 59.160938 59.674375 
z
" style="fill: #ffffff; opacity: 0.8; stroke: #cccccc; stroke-linejoin: miter"/>
    </g>
    <g id="line2d_29">
     <path d="M 61.160938 35.416562 
L 71.160938 35.416562 
L 81.160938 35.416562 
" style="fill: none; stroke: #1f77b4; stroke-width: 0.6; stroke-linecap: square"/>
    </g>
    <g id="text_17">
     <!-- $h_+$ -->
     <g transform="translate(89.160938 38.916562) scale(0.1 -0.1)">
      <defs>
       <path id="DejaVuSans-2b" d="M 2944 4013 
L 2944 2272 
L 4684 2272 
L 4684 1741 
L 2944 1741 
L 2944 0 
L 2419 0 
L 2419 1741 
L 678 1741 
L 678 2272 
L 2419 2272 
L 2419 4013 
L 2944 4013 
z
" transform="scale(0.015625)"/>
      </defs>
      <use xlink:href="#DejaVuSans-Oblique-68" transform="translate(0 0.015625)"/>
      <use xlink:href="#DejaVuSans-2b" transform="translate(77.016602 -16.390625) scale(0.7)"/>
     </g>
    </g>
    <g id="line2d_30">
     <path d="M 61.160938 50.094688 
L 71.160938 50.094688 
L 81.160938 50.094688 
" style="fill: none; stroke: #ff7f0e; stroke-width: 0.6; stroke-linecap: square"/>
    </g>
    <g id="text_18">
     <!-- $h_	imes$ -->
     <g transform="translate(89.160938 53.594688) scale(0.1 -0.1)">
      <defs>
       <path id="DejaVuSans-Oblique-69" d="M 1172 4863 
L 1747 4863 
L 1606 4134 
L 1031 4134 
L 1172 4863 
z
M 909 3500 
L 1484 3500 
L 800 0 
L 225 0 
L 909 3500 
z
" transform="scale(0.015625)"/>
       <path id="DejaVuSans-Oblique-6d" d="M 5747 2113 
L 5338 0 
L 4763 0 
L 5166 2094 
Q 5191 2228 5203 2325 
Q 5216 2422 5216 2491 
Q 5216 2772 5059 2928 
Q 4903 3084 4622 3084 
Q 4203 3084 3875 2770 
Q 3547 2456 3450 1953 
L 3066 0 
L 2491 0 
L 2900 2094 
Q 2925 2209 2937 2307 
Q 2950 2406 2950 2484 
Q 2950 2769 2794 2926 
Q 2638 3084 2363 3084 
Q 1938 3084 1609 2770 
Q 1281 2456 1184 1953 
L 800 0 
L 225 0 
L 909 3500 
L 1484 3500 
L 1375 2956 
Q 1609 3263 1923 3423 
Q 2238 3584 2597 3584 
Q 2978 3584 3223 3384 
Q 3469 3184 3519 2828 
Q 3781 3197 4126 3390 
Q 4472 3584 4856 3584 
Q 5306 3584 5551 3325 
Q 5797 3066 5797 2591 
Q 5797 2488 5784 2364 
Q 5772 2241 5747 2113 
z
" transform="scale(0.015625)"/>
       <path id="DejaVuSans-Oblique-65" d="M 3078 2063 
Q 3088 2113 3092 2166 
Q 3097 2219 3097 2272 
Q 3097 2653 2873 2875 
Q 2650 3097 2266 3097 
Q 1838 3097 1509 2826 
Q 1181 2556 1013 2059 
L 3078 2063 
z
M 3578 1613 
L 903 1613 
Q 884 1494 878 1425 
Q 872 1356 872 1306 
Q 872 872 1139 634 
Q 1406 397 1894 397 
Q 2269 397 2603 481 
Q 2938 566 3225 728 
L 3116 159 
Q 2806 34 2476 -28 
Q 2147 -91 1806 -91 
Q 1078 -91 686 257 
Q 294 606 294 1247 
Q 294 1794 489 2264 
Q 684 2734 1063 3103 
Q 1306 3334 1642 3459 
Q 1978 3584 2356 3584 
Q 2950 3584 3301 3228 
Q 3653 2872 3653 2272 
Q 3653 2128 3634 1964 
Q 3616 1800 3578 1613 
z
" transform="scale(0.015625)"/>
       <path id="DejaVuSans-Oblique-73" d="M 3200 3397 
L 3091 2853 
Q 2863 2978 2609 3040 
Q 2356 3103 2088 3103 
Q 1634 3103 1373 2948 
Q 1113 2794 1113 2528 
Q 1113 2219 1719 2053 
Q 1766 2041 1788 2034 
L 1972 1978 
Q 2547 1819 2739 1644 
Q 2931 1469 2931 1166 
Q 2931 609 2489 259 
Q 2047 -91 1331 -91 
Q 1053 -91 747 -37 
Q 441 16 72 128 
L 184 722 
Q 500 559 806 475 
Q 1113 391 1394 391 
Q 1816 391 2080 572 
Q 2344 753 2344 1031 
Q 2344 1331 1650 1516 
L 1591 1531 
L 1394 1581 
Q 956 1697 753 1886 
Q 550 2075 550 2369 
Q 550 2928 970 3256 
Q 1391 3584 2113 3584 
Q 2397 3584 2667 3537 
Q 2938 3491 3200 3397 
z
" transform="scale(0.015625)"/>
      </defs>
      <use xlink:href="#DejaVuSans-Oblique-68" transform="translate(0 0.015625)"/>
      <use xlink:href="#DejaVuSans-20" transform="translate(63.378906 -16.390625) scale(0.7)"/>
      <use xlink:href="#DejaVuSans-Oblique-69" transform="translate(88.364258 0.015625)"/>
      <use xlink:href="#DejaVuSans-Oblique-6d" transform="translate(116.147461 0.015625)"/>
      <use xlink:href="#DejaVuSans-Oblique-65" transform="translate(213.55957 0.015625)"/>
      <use xlink:href="#DejaVuSans-Oblique-73" transform="translate(275.083008 0.015625)"/>
     </g>
    </g>
   </g>
  </g>
 </g>
 <defs>
  <clipPath id="p25f2d29a51">
   <rect x="52.160938" y="22.318125" width="795.094" height="291.16"/>
  </clipPath>
 </defs>
</svg>
