<?xml version="1.0" encoding="utf-8" standalone="no"?>
<!DOCTYPE svg PUBLIC "-//W3C//DTD SVG 1.1//EN"
  "http://www.w3.org/Graphics/SVG/1.1/DTD/svg11.dtd">
<svg xmlns:xlink="http://www.w3.org/1999/xlink" width="713.265625pt" height="308.278125pt" viewBox="0 0 713.265625 308.278125" xmlns="http://www.w3.org/2000/svg" version="1.1">
 <metadata>
  <rdf:RDF xmlns:dc="http://purl.org/dc/elements/1.1/" xmlns:cc="http://creativecommons.org/ns#" xmlns:rdf="http://www.w3.org/1999/02/22-rdf-syntax-ns#">
   <cc:Work>
    <dc:type rdf:resource="http://purl.org/dc/dcmitype/StillImage"/>
    <dc:date>2025-07-25T14:55:39.268001</dc:date>
    <dc:format>image/svg+xml</dc:format>
    <dc:creator>
     <cc:Agent>
      <dc:title>Matplotlib v3.10.3, https://matplotlib.org/</dc:title>
     </cc:Agent>
    </dc:creator>
   </cc:Work>
  </rdf:RDF>
 </metadata>
 <defs>
  <style type="text/css">*{stroke-linejoin: round; stroke-linecap: butt}</style>
 </defs>
 <g id="figure_1">
  <g id="patch_1">
   <path d="M 0 308.278125 
L 713.265625 308.278125 
L 713.265625 0 
L 0 0 
z
" style="fill: #ffffff"/>
  </g>
  <g id="axes_1">
   <g id="patch_2">
    <path d="M 36.465625 284.4 
L 706.065625 284.4 
L 706.065625 7.2 
L 36.465625 7.2 
z
" style="fill: #ffffff"/>
   </g>
   <g id="PathCollection_1">
    <defs>
     <path id="m41343978da" d="M 0 1.224745 
C 0.324806 1.224745 0.636353 1.095698 0.866025 0.866025 
C 1.095698 0.636353 1.224745 0.324806 1.224745 0 
C 1.224745 -0.324806 1.095698 -0.636353 0.866025 -0.866025 
C 0.636353 -1.095698 0.324806 -1.224745 0 -1.224745 
C -0.324806 -1.224745 -0.636353 -1.095698 -0.866025 -0.866025 
C -1.095698 -0.636353 -1.224745 -0.324806 -1.224745 0 
C -1.224745 0.324806 -1.095698 0.636353 -0.866025 0.866025 
C -0.636353 1.095698 -0.324806 1.224745 0 1.224745 
z
" style="stroke: #ff0000"/>
    </defs>
    <g clip-path="url(#p19cc1f97ce)">
     <use xlink:href="#m41343978da" x="669.386667" y="209.439669" style="fill: #ff0000; stroke: #ff0000"/>
    </g>
   </g>
   <g id="matplotlib.axis_1">
    <g id="xtick_1">
     <g id="line2d_1">
      <defs>
       <path id="m0c3d38ec54" d="M 0 0 
L 0 3.5 
" style="stroke: #000000; stroke-width: 0.8"/>
      </defs>
      <g>
       <use xlink:href="#m0c3d38ec54" x="46.099533" y="284.4" style="stroke: #000000; stroke-width: 0.8"/>
      </g>
     </g>
     <g id="text_1">
      <!-- −14000 -->
      <g transform="translate(26.00344 298.998438) scale(0.1 -0.1)">
       <defs>
        <path id="DejaVuSans-2212" d="M 678 2272 
L 4684 2272 
L 4684 1741 
L 678 1741 
L 678 2272 
z
" transform="scale(0.015625)"/>
        <path id="DejaVuSans-31" d="M 794 531 
L 1825 531 
L 1825 4091 
L 703 3866 
L 703 4441 
L 1819 4666 
L 2450 4666 
L 2450 531 
L 3481 531 
L 3481 0 
L 794 0 
L 794 531 
z
" transform="scale(0.015625)"/>
        <path id="DejaVuSans-34" d="M 2419 4116 
L 825 1625 
L 2419 1625 
L 2419 4116 
z
M 2253 4666 
L 3047 4666 
L 3047 1625 
L 3713 1625 
L 3713 1100 
L 3047 1100 
L 3047 0 
L 2419 0 
L 2419 1100 
L 313 1100 
L 313 1709 
L 2253 4666 
z
" transform="scale(0.015625)"/>
        <path id="DejaVuSans-30" d="M 2034 4250 
Q 1547 4250 1301 3770 
Q 1056 3291 1056 2328 
Q 1056 1369 1301 889 
Q 1547 409 2034 409 
Q 2525 409 2770 889 
Q 3016 1369 3016 2328 
Q 3016 3291 2770 3770 
Q 2525 4250 2034 4250 
z
M 2034 4750 
Q 2819 4750 3233 4129 
Q 3647 3509 3647 2328 
Q 3647 1150 3233 529 
Q 2819 -91 2034 -91 
Q 1250 -91 836 529 
Q 422 1150 422 2328 
Q 422 3509 836 4129 
Q 1250 4750 2034 4750 
z
" transform="scale(0.015625)"/>
       </defs>
       <use xlink:href="#DejaVuSans-2212"/>
       <use xlink:href="#DejaVuSans-31" transform="translate(83.789062 0)"/>
       <use xlink:href="#DejaVuSans-34" transform="translate(147.412109 0)"/>
       <use xlink:href="#DejaVuSans-30" transform="translate(211.035156 0)"/>
       <use xlink:href="#DejaVuSans-30" transform="translate(274.658203 0)"/>
       <use xlink:href="#DejaVuSans-30" transform="translate(338.28125 0)"/>
      </g>
     </g>
    </g>
    <g id="xtick_2">
     <g id="line2d_2">
      <g>
       <use xlink:href="#m0c3d38ec54" x="135.57819" y="284.4" style="stroke: #000000; stroke-width: 0.8"/>
      </g>
     </g>
     <g id="text_2">
      <!-- −12000 -->
      <g transform="translate(115.482097 298.998438) scale(0.1 -0.1)">
       <defs>
        <path id="DejaVuSans-32" d="M 1228 531 
L 3431 531 
L 3431 0 
L 469 0 
L 469 531 
Q 828 903 1448 1529 
Q 2069 2156 2228 2338 
Q 2531 2678 2651 2914 
Q 2772 3150 2772 3378 
Q 2772 3750 2511 3984 
Q 2250 4219 1831 4219 
Q 1534 4219 1204 4116 
Q 875 4013 500 3803 
L 500 4441 
Q 881 4594 1212 4672 
Q 1544 4750 1819 4750 
Q 2544 4750 2975 4387 
Q 3406 4025 3406 3419 
Q 3406 3131 3298 2873 
Q 3191 2616 2906 2266 
Q 2828 2175 2409 1742 
Q 1991 1309 1228 531 
z
" transform="scale(0.015625)"/>
       </defs>
       <use xlink:href="#DejaVuSans-2212"/>
       <use xlink:href="#DejaVuSans-31" transform="translate(83.789062 0)"/>
       <use xlink:href="#DejaVuSans-32" transform="translate(147.412109 0)"/>
       <use xlink:href="#DejaVuSans-30" transform="translate(211.035156 0)"/>
       <use xlink:href="#DejaVuSans-30" transform="translate(274.658203 0)"/>
       <use xlink:href="#DejaVuSans-30" transform="translate(338.28125 0)"/>
      </g>
     </g>
    </g>
    <g id="xtick_3">
     <g id="line2d_3">
      <g>
       <use xlink:href="#m0c3d38ec54" x="225.056848" y="284.4" style="stroke: #000000; stroke-width: 0.8"/>
      </g>
     </g>
     <g id="text_3">
      <!-- −10000 -->
      <g transform="translate(204.960754 298.998438) scale(0.1 -0.1)">
       <use xlink:href="#DejaVuSans-2212"/>
       <use xlink:href="#DejaVuSans-31" transform="translate(83.789062 0)"/>
       <use xlink:href="#DejaVuSans-30" transform="translate(147.412109 0)"/>
       <use xlink:href="#DejaVuSans-30" transform="translate(211.035156 0)"/>
       <use xlink:href="#DejaVuSans-30" transform="translate(274.658203 0)"/>
       <use xlink:href="#DejaVuSans-30" transform="translate(338.28125 0)"/>
      </g>
     </g>
    </g>
    <g id="xtick_4">
     <g id="line2d_4">
      <g>
       <use xlink:href="#m0c3d38ec54" x="314.535505" y="284.4" style="stroke: #000000; stroke-width: 0.8"/>
      </g>
     </g>
     <g id="text_4">
      <!-- −8000 -->
      <g transform="translate(297.620661 298.998438) scale(0.1 -0.1)">
       <defs>
        <path id="DejaVuSans-38" d="M 2034 2216 
Q 1584 2216 1326 1975 
Q 1069 1734 1069 1313 
Q 1069 891 1326 650 
Q 1584 409 2034 409 
Q 2484 409 2743 651 
Q 3003 894 3003 1313 
Q 3003 1734 2745 1975 
Q 2488 2216 2034 2216 
z
M 1403 2484 
Q 997 2584 770 2862 
Q 544 3141 544 3541 
Q 544 4100 942 4425 
Q 1341 4750 2034 4750 
Q 2731 4750 3128 4425 
Q 3525 4100 3525 3541 
Q 3525 3141 3298 2862 
Q 3072 2584 2669 2484 
Q 3125 2378 3379 2068 
Q 3634 1759 3634 1313 
Q 3634 634 3220 271 
Q 2806 -91 2034 -91 
Q 1263 -91 848 271 
Q 434 634 434 1313 
Q 434 1759 690 2068 
Q 947 2378 1403 2484 
z
M 1172 3481 
Q 1172 3119 1398 2916 
Q 1625 2713 2034 2713 
Q 2441 2713 2670 2916 
Q 2900 3119 2900 3481 
Q 2900 3844 2670 4047 
Q 2441 4250 2034 4250 
Q 1625 4250 1398 4047 
Q 1172 3844 1172 3481 
z
" transform="scale(0.015625)"/>
       </defs>
       <use xlink:href="#DejaVuSans-2212"/>
       <use xlink:href="#DejaVuSans-38" transform="translate(83.789062 0)"/>
       <use xlink:href="#DejaVuSans-30" transform="translate(147.412109 0)"/>
       <use xlink:href="#DejaVuSans-30" transform="translate(211.035156 0)"/>
       <use xlink:href="#DejaVuSans-30" transform="translate(274.658203 0)"/>
      </g>
     </g>
    </g>
    <g id="xtick_5">
     <g id="line2d_5">
      <g>
       <use xlink:href="#m0c3d38ec54" x="404.014162" y="284.4" style="stroke: #000000; stroke-width: 0.8"/>
      </g>
     </g>
     <g id="text_5">
      <!-- −6000 -->
      <g transform="translate(387.099318 298.998438) scale(0.1 -0.1)">
       <defs>
        <path id="DejaVuSans-36" d="M 2113 2584 
Q 1688 2584 1439 2293 
Q 1191 2003 1191 1497 
Q 1191 994 1439 701 
Q 1688 409 2113 409 
Q 2538 409 2786 701 
Q 3034 994 3034 1497 
Q 3034 2003 2786 2293 
Q 2538 2584 2113 2584 
z
M 3366 4563 
L 3366 3988 
Q 3128 4100 2886 4159 
Q 2644 4219 2406 4219 
Q 1781 4219 1451 3797 
Q 1122 3375 1075 2522 
Q 1259 2794 1537 2939 
Q 1816 3084 2150 3084 
Q 2853 3084 3261 2657 
Q 3669 2231 3669 1497 
Q 3669 778 3244 343 
Q 2819 -91 2113 -91 
Q 1303 -91 875 529 
Q 447 1150 447 2328 
Q 447 3434 972 4092 
Q 1497 4750 2381 4750 
Q 2619 4750 2861 4703 
Q 3103 4656 3366 4563 
z
" transform="scale(0.015625)"/>
       </defs>
       <use xlink:href="#DejaVuSans-2212"/>
       <use xlink:href="#DejaVuSans-36" transform="translate(83.789062 0)"/>
       <use xlink:href="#DejaVuSans-30" transform="translate(147.412109 0)"/>
       <use xlink:href="#DejaVuSans-30" transform="translate(211.035156 0)"/>
       <use xlink:href="#DejaVuSans-30" transform="translate(274.658203 0)"/>
      </g>
     </g>
    </g>
    <g id="xtick_6">
     <g id="line2d_6">
      <g>
       <use xlink:href="#m0c3d38ec54" x="493.492819" y="284.4" style="stroke: #000000; stroke-width: 0.8"/>
      </g>
     </g>
     <g id="text_6">
      <!-- −4000 -->
      <g transform="translate(476.577975 298.998438) scale(0.1 -0.1)">
       <use xlink:href="#DejaVuSans-2212"/>
       <use xlink:href="#DejaVuSans-34" transform="translate(83.789062 0)"/>
       <use xlink:href="#DejaVuSans-30" transform="translate(147.412109 0)"/>
       <use xlink:href="#DejaVuSans-30" transform="translate(211.035156 0)"/>
       <use xlink:href="#DejaVuSans-30" transform="translate(274.658203 0)"/>
      </g>
     </g>
    </g>
    <g id="xtick_7">
     <g id="line2d_7">
      <g>
       <use xlink:href="#m0c3d38ec54" x="582.971476" y="284.4" style="stroke: #000000; stroke-width: 0.8"/>
      </g>
     </g>
     <g id="text_7">
      <!-- −2000 -->
      <g transform="translate(566.056633 298.998438) scale(0.1 -0.1)">
       <use xlink:href="#DejaVuSans-2212"/>
       <use xlink:href="#DejaVuSans-32" transform="translate(83.789062 0)"/>
       <use xlink:href="#DejaVuSans-30" transform="translate(147.412109 0)"/>
       <use xlink:href="#DejaVuSans-30" transform="translate(211.035156 0)"/>
       <use xlink:href="#DejaVuSans-30" transform="translate(274.658203 0)"/>
      </g>
     </g>
    </g>
    <g id="xtick_8">
     <g id="line2d_8">
      <g>
       <use xlink:href="#m0c3d38ec54" x="672.450134" y="284.4" style="stroke: #000000; stroke-width: 0.8"/>
      </g>
     </g>
     <g id="text_8">
      <!-- 0 -->
      <g transform="translate(669.268884 298.998438) scale(0.1 -0.1)">
       <use xlink:href="#DejaVuSans-30"/>
      </g>
     </g>
    </g>
   </g>
   <g id="matplotlib.axis_2">
    <g id="ytick_1">
     <g id="line2d_9">
      <defs>
       <path id="m526ba206e9" d="M 0 0 
L -3.5 0 
" style="stroke: #000000; stroke-width: 0.8"/>
      </defs>
      <g>
       <use xlink:href="#m526ba206e9" x="36.465625" y="272.11275" style="stroke: #000000; stroke-width: 0.8"/>
      </g>
     </g>
     <g id="text_9">
      <!-- 0.00 -->
      <g transform="translate(7.2 275.911968) scale(0.1 -0.1)">
       <defs>
        <path id="DejaVuSans-2e" d="M 684 794 
L 1344 794 
L 1344 0 
L 684 0 
L 684 794 
z
" transform="scale(0.015625)"/>
       </defs>
       <use xlink:href="#DejaVuSans-30"/>
       <use xlink:href="#DejaVuSans-2e" transform="translate(63.623047 0)"/>
       <use xlink:href="#DejaVuSans-30" transform="translate(95.410156 0)"/>
       <use xlink:href="#DejaVuSans-30" transform="translate(159.033203 0)"/>
      </g>
     </g>
    </g>
    <g id="ytick_2">
     <g id="line2d_10">
      <g>
       <use xlink:href="#m526ba206e9" x="36.465625" y="214.826152" style="stroke: #000000; stroke-width: 0.8"/>
      </g>
     </g>
     <g id="text_10">
      <!-- 0.02 -->
      <g transform="translate(7.2 218.62537) scale(0.1 -0.1)">
       <use xlink:href="#DejaVuSans-30"/>
       <use xlink:href="#DejaVuSans-2e" transform="translate(63.623047 0)"/>
       <use xlink:href="#DejaVuSans-30" transform="translate(95.410156 0)"/>
       <use xlink:href="#DejaVuSans-32" transform="translate(159.033203 0)"/>
      </g>
     </g>
    </g>
    <g id="ytick_3">
     <g id="line2d_11">
      <g>
       <use xlink:href="#m526ba206e9" x="36.465625" y="157.539554" style="stroke: #000000; stroke-width: 0.8"/>
      </g>
     </g>
     <g id="text_11">
      <!-- 0.04 -->
      <g transform="translate(7.2 161.338772) scale(0.1 -0.1)">
       <use xlink:href="#DejaVuSans-30"/>
       <use xlink:href="#DejaVuSans-2e" transform="translate(63.623047 0)"/>
       <use xlink:href="#DejaVuSans-30" transform="translate(95.410156 0)"/>
       <use xlink:href="#DejaVuSans-34" transform="translate(159.033203 0)"/>
      </g>
     </g>
    </g>
    <g id="ytick_4">
     <g id="line2d_12">
      <g>
       <use xlink:href="#m526ba206e9" x="36.465625" y="100.252956" style="stroke: #000000; stroke-width: 0.8"/>
      </g>
     </g>
     <g id="text_12">
      <!-- 0.06 -->
      <g transform="translate(7.2 104.052175) scale(0.1 -0.1)">
       <use xlink:href="#DejaVuSans-30"/>
       <use xlink:href="#DejaVuSans-2e" transform="translate(63.623047 0)"/>
       <use xlink:href="#DejaVuSans-30" transform="translate(95.410156 0)"/>
       <use xlink:href="#DejaVuSans-36" transform="translate(159.033203 0)"/>
      </g>
     </g>
    </g>
    <g id="ytick_5">
     <g id="line2d_13">
      <g>
       <use xlink:href="#m526ba206e9" x="36.465625" y="42.966358" style="stroke: #000000; stroke-width: 0.8"/>
      </g>
     </g>
     <g id="text_13">
      <!-- 0.08 -->
      <g transform="translate(7.2 46.765577) scale(0.1 -0.1)">
       <use xlink:href="#DejaVuSans-30"/>
       <use xlink:href="#DejaVuSans-2e" transform="translate(63.623047 0)"/>
       <use xlink:href="#DejaVuSans-30" transform="translate(95.410156 0)"/>
       <use xlink:href="#DejaVuSans-38" transform="translate(159.033203 0)"/>
      </g>
     </g>
    </g>
   </g>
   <g id="line2d_14">
    <path d="M 66.901989 269.961842 
L 67.273572 270.217565 
L 68.091054 270.664281 
L 68.83422 270.824979 
L 69.726019 270.77353 
L 70.915085 270.719554 
L 71.658251 270.922309 
L 74.036382 271.791695 
L 74.928181 271.736337 
L 77.306313 271.397574 
L 79.535811 271.445695 
L 81.170776 271.038313 
L 82.062575 270.968494 
L 83.251641 271.150872 
L 84.217756 271.198554 
L 84.960922 270.994237 
L 85.778405 270.521909 
L 87.41337 269.511423 
L 88.08222 269.400861 
L 90.311718 269.334265 
L 90.980567 268.917535 
L 91.79805 268.128286 
L 94.250498 265.23531 
L 95.29093 263.788844 
L 96.257046 262.011489 
L 98.040644 258.627589 
L 98.635177 257.993298 
L 99.081077 257.798114 
L 99.526976 257.860102 
L 99.972876 258.169697 
L 100.567409 258.912094 
L 101.459208 260.482053 
L 103.16849 263.551385 
L 104.283239 265.045501 
L 105.99252 266.942947 
L 106.958636 267.749428 
L 107.701802 268.119298 
L 108.444968 268.247888 
L 110.897416 268.394983 
L 113.42418 269.320672 
L 114.31598 269.243578 
L 116.173895 268.994661 
L 118.997925 269.020254 
L 120.85584 268.692923 
L 121.896273 268.839834 
L 123.011022 268.954845 
L 123.754188 268.786506 
L 124.57167 268.347877 
L 126.206636 267.390927 
L 126.875485 267.291104 
L 128.882033 267.223639 
L 129.550883 266.835053 
L 130.368365 266.065334 
L 132.151964 263.939222 
L 133.563979 262.076383 
L 134.455778 260.501216 
L 136.61096 256.42981 
L 137.131176 255.942151 
L 137.577075 255.801898 
L 138.022975 255.929044 
L 138.468875 256.308492 
L 139.063407 257.140205 
L 140.029523 258.957593 
L 141.515855 261.702883 
L 142.704921 263.373402 
L 144.26557 265.172982 
L 145.231685 265.990935 
L 145.974851 266.359854 
L 146.792334 266.502798 
L 148.650249 266.677881 
L 149.690681 267.148303 
L 150.879747 267.62273 
L 151.69723 267.705145 
L 152.960612 267.550048 
L 154.075361 267.504382 
L 156.602125 267.59822 
L 158.757307 267.321805 
L 161.135438 267.446891 
L 161.95292 267.093184 
L 163.959469 266.064096 
L 164.776951 266.014357 
L 165.966017 265.950621 
L 166.634866 265.662528 
L 167.378032 265.069568 
L 168.418465 263.906689 
L 170.573646 261.125029 
L 171.539762 259.460779 
L 173.843576 255.175161 
L 174.363793 254.756176 
L 174.809692 254.68636 
L 175.255592 254.8889 
L 175.775808 255.439101 
L 176.444657 256.527788 
L 179.491638 262.018921 
L 180.903653 263.794846 
L 181.944086 264.799932 
L 182.761568 265.296595 
L 183.579051 265.526868 
L 185.585599 265.928464 
L 188.038047 266.862832 
L 189.004163 266.855576 
L 190.713445 266.816309 
L 192.942943 266.947409 
L 195.469707 266.750582 
L 197.104672 266.862074 
L 197.847838 266.660968 
L 198.888271 266.115172 
L 200.00302 265.59566 
L 200.894819 265.460573 
L 202.158201 265.292604 
L 202.827051 264.955722 
L 203.570217 264.323369 
L 204.684966 263.03742 
L 206.468564 260.64401 
L 207.43468 258.958099 
L 209.664178 254.799838 
L 210.184394 254.364585 
L 210.630294 254.284167 
L 211.001877 254.4297 
L 211.447776 254.842759 
L 212.042309 255.726402 
L 213.082741 257.774423 
L 214.494757 260.463739 
L 215.683822 262.24441 
L 216.947205 263.772297 
L 217.839004 264.55404 
L 218.656486 264.990012 
L 219.696919 265.255425 
L 220.960301 265.613192 
L 223.487065 266.547736 
L 224.601814 266.556927 
L 226.162463 266.59969 
L 228.020378 266.708564 
L 231.067359 266.555556 
L 232.182108 266.546247 
L 232.99959 266.300262 
L 235.823621 265.159817 
L 237.012687 264.889941 
L 237.755853 264.455797 
L 238.573335 263.68416 
L 239.836717 262.120647 
L 241.248733 260.069529 
L 242.289165 258.134833 
L 244.072764 254.713368 
L 244.59298 254.158518 
L 245.038879 253.968925 
L 245.410462 254.027621 
L 245.856362 254.350073 
L 246.376578 255.028322 
L 247.194061 256.537044 
L 249.274926 260.562455 
L 250.538308 262.411035 
L 251.653057 263.683039 
L 252.544856 264.377405 
L 253.436655 264.77933 
L 255.96342 265.711319 
L 257.226802 266.176451 
L 258.267234 266.28926 
L 260.868315 266.435006 
L 262.131698 266.437273 
L 264.881412 266.271865 
L 265.996161 266.215858 
L 266.88796 265.922806 
L 269.563358 264.807257 
L 270.678107 264.435959 
L 271.421273 263.932972 
L 272.238755 263.100126 
L 273.502137 261.451182 
L 274.76552 259.486133 
L 275.880269 257.308639 
L 277.292284 254.559611 
L 277.886817 253.860081 
L 278.332716 253.641066 
L 278.704299 253.678556 
L 279.150199 253.981715 
L 279.670415 254.647095 
L 280.413581 256.003156 
L 282.791712 260.608835 
L 283.980778 262.320693 
L 285.02121 263.456857 
L 285.91301 264.104627 
L 286.953442 264.56025 
L 288.885674 265.373803 
L 290.149056 265.836846 
L 291.263805 265.974137 
L 295.648484 266.051375 
L 297.283449 265.957779 
L 298.546832 265.865199 
L 299.438631 265.56516 
L 303.748994 263.479222 
L 304.640793 262.525142 
L 305.904175 260.784617 
L 307.093241 258.804021 
L 308.430939 256.063067 
L 309.471372 254.121827 
L 310.065905 253.461694 
L 310.511804 253.28328 
L 310.883387 253.359078 
L 311.329287 253.709299 
L 311.849503 254.42434 
L 312.666986 255.983816 
L 314.747851 260.095072 
L 315.936916 261.875125 
L 316.977349 263.042409 
L 317.869148 263.717876 
L 319.058213 264.299499 
L 322.179511 265.545297 
L 323.665843 265.687319 
L 326.56419 265.803719 
L 330.50297 265.296145 
L 331.840669 264.640218 
L 334.887649 262.98202 
L 335.779448 261.980189 
L 336.968514 260.26755 
L 338.15758 258.184475 
L 340.758661 253.275678 
L 341.20456 252.957197 
L 341.576143 252.916059 
L 341.947726 253.081931 
L 342.393626 253.534001 
L 342.988159 254.481557 
L 344.102908 256.789045 
L 345.514923 259.57613 
L 346.629672 261.320411 
L 347.595788 262.474494 
L 348.487587 263.225808 
L 349.676653 263.902608 
L 352.1291 265.024166 
L 353.243849 265.250404 
L 356.142197 265.49273 
L 357.702845 265.358345 
L 360.45256 264.95575 
L 361.567309 264.433227 
L 364.539973 262.729598 
L 365.357455 261.868962 
L 366.397888 260.420301 
L 367.586953 258.392545 
L 368.924652 255.621928 
L 370.039401 253.443712 
L 370.633934 252.726315 
L 371.079833 252.50941 
L 371.451417 252.560741 
L 371.897316 252.893382 
L 372.417532 253.60421 
L 373.235015 255.184512 
L 375.390196 259.549496 
L 376.504945 261.237065 
L 377.471061 262.314093 
L 378.437177 263.062646 
L 380.146459 264.032112 
L 381.484158 264.609341 
L 382.673223 264.865194 
L 385.125671 265.102003 
L 386.537686 265.003173 
L 389.213084 264.580946 
L 390.253516 264.11519 
L 392.705964 262.68593 
L 393.597763 261.889262 
L 394.489563 260.769935 
L 395.604312 258.989781 
L 396.793377 256.67601 
L 398.725609 252.792098 
L 399.245825 252.230536 
L 399.691725 252.062809 
L 400.063308 252.160123 
L 400.509207 252.548419 
L 401.10374 253.448656 
L 402.069856 255.445439 
L 403.779138 258.952958 
L 404.893887 260.706355 
L 405.860002 261.827106 
L 406.900435 262.678275 
L 408.461083 263.627803 
L 409.724466 264.176266 
L 410.987848 264.458673 
L 413.068713 264.670107 
L 414.480728 264.57237 
L 416.710226 264.196675 
L 417.750658 263.764414 
L 419.45994 262.74849 
L 420.649006 261.846746 
L 421.540805 260.855101 
L 422.506921 259.422716 
L 423.695986 257.233428 
L 426.371384 251.966205 
L 426.817284 251.630412 
L 427.188867 251.58728 
L 427.56045 251.763206 
L 428.006349 252.241041 
L 428.600882 253.237316 
L 429.789948 255.809245 
L 431.201963 258.675537 
L 432.242396 260.3099 
L 433.208511 261.433524 
L 434.32326 262.363132 
L 435.735276 263.246374 
L 436.924341 263.742142 
L 438.26204 264.036393 
L 439.897005 264.191294 
L 441.309021 264.083254 
L 443.166936 263.726432 
L 444.207368 263.29481 
L 445.619384 262.41925 
L 446.882766 261.42295 
L 447.774565 260.42773 
L 448.740681 258.98043 
L 449.85543 256.891237 
L 452.605144 251.410435 
L 453.051044 251.087988 
L 453.422627 251.061857 
L 453.79421 251.258817 
L 454.240109 251.764541 
L 454.834642 252.796697 
L 456.098024 255.58572 
L 457.435723 258.309498 
L 458.476155 259.936632 
L 459.442271 261.052185 
L 460.55702 261.996953 
L 461.820402 262.791075 
L 462.935151 263.242137 
L 464.347167 263.548654 
L 465.759182 263.643604 
L 467.171198 263.493553 
L 468.65753 263.140247 
L 469.697962 262.663016 
L 470.961344 261.814648 
L 472.15041 260.777179 
L 473.042209 259.703012 
L 474.008325 258.161743 
L 475.123074 255.947417 
L 477.501205 251.007503 
L 478.021421 250.530897 
L 478.393004 250.455275 
L 478.764587 250.609054 
L 479.210487 251.075754 
L 479.80502 252.081554 
L 480.919769 254.555031 
L 482.331784 257.553546 
L 483.372216 259.257998 
L 484.338332 260.437173 
L 485.453081 261.441766 
L 486.642147 262.21592 
L 487.756896 262.67385 
L 489.094595 262.967042 
L 490.357977 263.027095 
L 491.695676 262.852048 
L 493.033375 262.46523 
L 494.073807 261.922501 
L 495.262873 261.031149 
L 496.377622 259.923515 
L 497.269421 258.71926 
L 498.235537 257.026701 
L 499.424602 254.469408 
L 501.133884 250.743508 
L 501.728417 249.993466 
L 502.174316 249.789157 
L 502.545899 249.877032 
L 502.917482 250.191769 
L 503.437699 250.959285 
L 504.255181 252.670151 
L 506.336046 257.221373 
L 507.376478 258.885475 
L 508.416911 260.111542 
L 509.53166 261.06962 
L 510.572092 261.69011 
L 511.686841 262.096811 
L 512.950223 262.31426 
L 514.064972 262.290343 
L 515.328355 262.038311 
L 516.443104 261.601354 
L 517.483536 260.933688 
L 518.598285 259.940639 
L 519.564401 258.798454 
L 520.4562 257.404591 
L 521.496632 255.337331 
L 524.320663 249.373287 
L 524.766563 249.057634 
L 525.138146 249.056395 
L 525.509729 249.293629 
L 525.955628 249.861909 
L 526.624478 251.147894 
L 529.671458 257.633456 
L 530.637574 258.955763 
L 531.678007 260.007982 
L 532.718439 260.746369 
L 533.758871 261.211868 
L 534.87362 261.469642 
L 535.914053 261.497997 
L 537.028802 261.304572 
L 538.143551 260.882397 
L 539.109667 260.273638 
L 540.150099 259.336147 
L 541.116215 258.176223 
L 542.008014 256.768934 
L 543.048447 254.664731 
L 545.872477 248.525007 
L 546.318377 248.189142 
L 546.68996 248.177809 
L 547.061543 248.411982 
L 547.507443 248.985629 
L 548.176292 250.294384 
L 551.148956 256.777829 
L 552.115072 258.145725 
L 553.081188 259.154458 
L 554.047303 259.857141 
L 555.013419 260.296373 
L 556.053852 260.517683 
L 557.094284 260.493336 
L 558.134716 260.239481 
L 559.100832 259.78224 
L 560.066948 259.060585 
L 561.033064 258.054582 
L 561.924863 256.815899 
L 562.816662 255.180296 
L 563.931411 252.627081 
L 565.863643 248.071006 
L 566.383859 247.364408 
L 566.755442 247.139105 
L 567.127025 247.171408 
L 567.498608 247.457659 
L 568.018824 248.221765 
L 568.76199 249.805014 
L 571.214438 255.366134 
L 572.180554 256.893639 
L 573.14667 258.006398 
L 574.038469 258.71382 
L 574.930268 259.157622 
L 575.822067 259.366345 
L 576.713866 259.35141 
L 577.679982 259.108169 
L 578.571781 258.661098 
L 579.463581 257.956696 
L 580.35538 256.95907 
L 581.247179 255.63097 
L 582.138978 253.912515 
L 583.253727 251.231628 
L 585.037326 246.86703 
L 585.557542 246.12856 
L 585.929125 245.888892 
L 586.300708 245.91492 
L 586.672291 246.202745 
L 587.11819 246.852876 
L 587.78704 248.277232 
L 590.388121 254.323046 
L 591.354237 255.826954 
L 592.246036 256.819139 
L 593.137835 257.477543 
L 594.029634 257.84691 
L 594.847117 257.949015 
L 595.664599 257.829176 
L 596.482082 257.487241 
L 597.299565 256.904504 
L 598.117047 256.049122 
L 599.008846 254.771525 
L 599.900646 253.087481 
L 600.941078 250.590172 
L 603.09626 245.153815 
L 603.616476 244.490398 
L 603.988059 244.329346 
L 604.359642 244.446416 
L 604.731225 244.828205 
L 605.251441 245.734213 
L 606.068924 247.697791 
L 607.852522 252.053409 
L 608.818638 253.782367 
L 609.710437 254.92329 
L 610.52792 255.617 
L 611.271086 255.984019 
L 612.014252 256.115657 
L 612.757418 256.017672 
L 613.500584 255.689717 
L 614.24375 255.119021 
L 615.061232 254.181889 
L 615.878715 252.890112 
L 616.770514 251.039203 
L 617.810946 248.316732 
L 619.668861 243.343502 
L 620.189078 242.570879 
L 620.560661 242.341022 
L 620.857927 242.367406 
L 621.22951 242.657249 
L 621.67541 243.33758 
L 622.344259 244.8424 
L 624.796707 250.803592 
L 625.688506 252.205827 
L 626.431672 252.999038 
L 627.174838 253.473895 
L 627.843687 253.641239 
L 628.512537 253.566854 
L 629.181386 253.254406 
L 629.850236 252.695714 
L 630.593402 251.765467 
L 631.410884 250.336776 
L 632.302683 248.269905 
L 633.417432 245.029988 
L 634.829448 240.942991 
L 635.423981 239.891844 
L 635.795564 239.596265 
L 636.09283 239.582155 
L 636.390096 239.763458 
L 636.835996 240.365845 
L 637.430529 241.637662 
L 640.180243 248.231633 
L 640.923409 249.254549 
L 641.592258 249.824898 
L 642.186791 250.040653 
L 642.781324 250.002983 
L 643.375857 249.716918 
L 643.97039 249.177457 
L 644.639239 248.254517 
L 645.382405 246.811577 
L 646.199888 244.69497 
L 647.314637 241.094909 
L 648.652335 236.854676 
L 649.172552 235.797439 
L 649.618451 235.358197 
L 649.915718 235.329046 
L 650.212984 235.505974 
L 650.584567 235.986746 
L 651.1791 237.205466 
L 653.631548 242.830186 
L 654.300397 243.616265 
L 654.820613 243.924887 
L 655.266513 243.974822 
L 655.712412 243.820866 
L 656.232629 243.370369 
L 656.827161 242.506472 
L 657.496011 241.078538 
L 658.239177 238.902996 
L 659.205293 235.293605 
L 660.988891 228.432706 
L 661.509107 227.278133 
L 661.955007 226.777026 
L 662.252273 226.700911 
L 662.623856 226.879588 
L 663.144073 227.452261 
L 664.853354 229.61659 
L 665.670837 229.403805 
L 666.26537 228.502714 
L 666.785586 227.022827 
L 667.380119 224.690143 
L 668.048968 221.016366 
L 669.609617 206.918744 
L 670.352783 196.906985 
L 670.947316 186.217315 
L 671.541848 171.184372 
L 671.913431 154.535865 
L 672.285014 125.375845 
L 673.325447 30.069274 
L 673.622713 23.549238 
L 673.91998 21.123132 
L 674.217246 20.259917 
L 674.514512 19.957718 
L 674.960412 19.82953 
L 675.629261 19.8 
L 675.629261 19.8 
" clip-path="url(#p19cc1f97ce)" style="fill: none; stroke: #1f77b4; stroke-width: 1.5; stroke-linecap: square"/>
   </g>
   <g id="line2d_15">
    <path d="M 36.465625 210.076392 
L 706.065625 210.076392 
" clip-path="url(#p19cc1f97ce)" style="fill: none; stroke-dasharray: 2.22,0.96; stroke-dashoffset: 0; stroke: #ff0000; stroke-width: 0.6"/>
   </g>
   <g id="line2d_16">
    <path d="M 66.901989 269.961842 
L 67.273572 270.217565 
L 68.091054 270.664281 
L 68.83422 270.824979 
L 69.726019 270.77353 
L 70.915085 270.719554 
L 71.658251 270.922309 
L 74.036382 271.791695 
L 74.928181 271.736337 
L 77.306313 271.397574 
L 79.535811 271.445695 
L 81.170776 271.038313 
L 82.062575 270.968494 
L 83.251641 271.150872 
L 84.217756 271.198554 
L 84.960922 270.994237 
L 85.778405 270.521909 
L 87.41337 269.511423 
L 88.08222 269.400861 
L 90.311718 269.334265 
L 90.980567 268.917535 
L 91.79805 268.128286 
L 94.250498 265.23531 
L 95.29093 263.788844 
L 96.257046 262.011489 
L 98.040644 258.627589 
L 98.635177 257.993298 
L 99.081077 257.798114 
L 99.526976 257.860102 
L 99.972876 258.169697 
L 100.567409 258.912094 
L 101.459208 260.482053 
L 103.16849 263.551385 
L 104.283239 265.045501 
L 105.99252 266.942947 
L 106.958636 267.749428 
L 107.701802 268.119298 
L 108.444968 268.247888 
L 110.897416 268.394983 
L 113.42418 269.320672 
L 114.31598 269.243578 
L 116.173895 268.994661 
L 118.997925 269.020254 
L 120.85584 268.692923 
L 121.896273 268.839834 
L 123.011022 268.954845 
L 123.754188 268.786506 
L 124.57167 268.347877 
L 126.206636 267.390927 
L 126.875485 267.291104 
L 128.882033 267.223639 
L 129.550883 266.835053 
L 130.368365 266.065334 
L 132.151964 263.939222 
L 133.563979 262.076383 
L 134.455778 260.501216 
L 136.61096 256.42981 
L 137.131176 255.942151 
L 137.577075 255.801898 
L 138.022975 255.929044 
L 138.468875 256.308492 
L 139.063407 257.140205 
L 140.029523 258.957593 
L 141.515855 261.702883 
L 142.704921 263.373402 
L 144.26557 265.172982 
L 145.231685 265.990935 
L 145.974851 266.359854 
L 146.792334 266.502798 
L 148.650249 266.677881 
L 149.690681 267.148303 
L 150.879747 267.62273 
L 151.69723 267.705145 
L 152.960612 267.550048 
L 154.075361 267.504382 
L 156.602125 267.59822 
L 158.757307 267.321805 
L 161.135438 267.446891 
L 161.95292 267.093184 
L 163.959469 266.064096 
L 164.776951 266.014357 
L 165.966017 265.950621 
L 166.634866 265.662528 
L 167.378032 265.069568 
L 168.418465 263.906689 
L 170.573646 261.125029 
L 171.539762 259.460779 
L 173.843576 255.175161 
L 174.363793 254.756176 
L 174.809692 254.68636 
L 175.255592 254.8889 
L 175.775808 255.439101 
L 176.444657 256.527788 
L 179.491638 262.018921 
L 180.903653 263.794846 
L 181.944086 264.799932 
L 182.761568 265.296595 
L 183.579051 265.526868 
L 185.585599 265.928464 
L 188.038047 266.862832 
L 189.004163 266.855576 
L 190.713445 266.816309 
L 192.942943 266.947409 
L 195.469707 266.750582 
L 197.104672 266.862074 
L 197.847838 266.660968 
L 198.888271 266.115172 
L 200.00302 265.59566 
L 200.894819 265.460573 
L 202.158201 265.292604 
L 202.827051 264.955722 
L 203.570217 264.323369 
L 204.684966 263.03742 
L 206.468564 260.64401 
L 207.43468 258.958099 
L 209.664178 254.799838 
L 210.184394 254.364585 
L 210.630294 254.284167 
L 211.001877 254.4297 
L 211.447776 254.842759 
L 212.042309 255.726402 
L 213.082741 257.774423 
L 214.494757 260.463739 
L 215.683822 262.24441 
L 216.947205 263.772297 
L 217.839004 264.55404 
L 218.656486 264.990012 
L 219.696919 265.255425 
L 220.960301 265.613192 
L 223.487065 266.547736 
L 224.601814 266.556927 
L 226.162463 266.59969 
L 228.020378 266.708564 
L 231.067359 266.555556 
L 232.182108 266.546247 
L 232.99959 266.300262 
L 235.823621 265.159817 
L 237.012687 264.889941 
L 237.755853 264.455797 
L 238.573335 263.68416 
L 239.836717 262.120647 
L 241.248733 260.069529 
L 242.289165 258.134833 
L 244.072764 254.713368 
L 244.59298 254.158518 
L 245.038879 253.968925 
L 245.410462 254.027621 
L 245.856362 254.350073 
L 246.376578 255.028322 
L 247.194061 256.537044 
L 249.274926 260.562455 
L 250.538308 262.411035 
L 251.653057 263.683039 
L 252.544856 264.377405 
L 253.436655 264.77933 
L 255.96342 265.711319 
L 257.226802 266.176451 
L 258.267234 266.28926 
L 260.868315 266.435006 
L 262.131698 266.437273 
L 264.881412 266.271865 
L 265.996161 266.215858 
L 266.88796 265.922806 
L 269.563358 264.807257 
L 270.678107 264.435959 
L 271.421273 263.932972 
L 272.238755 263.100126 
L 273.502137 261.451182 
L 274.76552 259.486133 
L 275.880269 257.308639 
L 277.292284 254.559611 
L 277.886817 253.860081 
L 278.332716 253.641066 
L 278.704299 253.678556 
L 279.150199 253.981715 
L 279.670415 254.647095 
L 280.413581 256.003156 
L 282.791712 260.608835 
L 283.980778 262.320693 
L 285.02121 263.456857 
L 285.91301 264.104627 
L 286.953442 264.56025 
L 288.885674 265.373803 
L 290.149056 265.836846 
L 291.263805 265.974137 
L 295.648484 266.051375 
L 297.283449 265.957779 
L 298.546832 265.865199 
L 299.438631 265.56516 
L 303.748994 263.479222 
L 304.640793 262.525142 
L 305.904175 260.784617 
L 307.093241 258.804021 
L 308.430939 256.063067 
L 309.471372 254.121827 
L 310.065905 253.461694 
L 310.511804 253.28328 
L 310.883387 253.359078 
L 311.329287 253.709299 
L 311.849503 254.42434 
L 312.666986 255.983816 
L 314.747851 260.095072 
L 315.936916 261.875125 
L 316.977349 263.042409 
L 317.869148 263.717876 
L 319.058213 264.299499 
L 322.179511 265.545297 
L 323.665843 265.687319 
L 326.56419 265.803719 
L 330.50297 265.296145 
L 331.840669 264.640218 
L 334.887649 262.98202 
L 335.779448 261.980189 
L 336.968514 260.26755 
L 338.15758 258.184475 
L 340.758661 253.275678 
L 341.20456 252.957197 
L 341.576143 252.916059 
L 341.947726 253.081931 
L 342.393626 253.534001 
L 342.988159 254.481557 
L 344.102908 256.789045 
L 345.514923 259.57613 
L 346.629672 261.320411 
L 347.595788 262.474494 
L 348.487587 263.225808 
L 349.676653 263.902608 
L 352.1291 265.024166 
L 353.243849 265.250404 
L 356.142197 265.49273 
L 357.702845 265.358345 
L 360.45256 264.95575 
L 361.567309 264.433227 
L 364.539973 262.729598 
L 365.357455 261.868962 
L 366.397888 260.420301 
L 367.586953 258.392545 
L 368.924652 255.621928 
L 370.039401 253.443712 
L 370.633934 252.726315 
L 371.079833 252.50941 
L 371.451417 252.560741 
L 371.897316 252.893382 
L 372.417532 253.60421 
L 373.235015 255.184512 
L 375.390196 259.549496 
L 376.504945 261.237065 
L 377.471061 262.314093 
L 378.437177 263.062646 
L 380.146459 264.032112 
L 381.484158 264.609341 
L 382.673223 264.865194 
L 385.125671 265.102003 
L 386.537686 265.003173 
L 389.213084 264.580946 
L 390.253516 264.11519 
L 392.705964 262.68593 
L 393.597763 261.889262 
L 394.489563 260.769935 
L 395.604312 258.989781 
L 396.793377 256.67601 
L 398.725609 252.792098 
L 399.245825 252.230536 
L 399.691725 252.062809 
L 400.063308 252.160123 
L 400.509207 252.548419 
L 401.10374 253.448656 
L 402.069856 255.445439 
L 403.779138 258.952958 
L 404.893887 260.706355 
L 405.860002 261.827106 
L 406.900435 262.678275 
L 408.461083 263.627803 
L 409.724466 264.176266 
L 410.987848 264.458673 
L 413.068713 264.670107 
L 414.480728 264.57237 
L 416.710226 264.196675 
L 417.750658 263.764414 
L 419.45994 262.74849 
L 420.649006 261.846746 
L 421.540805 260.855101 
L 422.506921 259.422716 
L 423.695986 257.233428 
L 426.371384 251.966205 
L 426.817284 251.630412 
L 427.188867 251.58728 
L 427.56045 251.763206 
L 428.006349 252.241041 
L 428.600882 253.237316 
L 429.789948 255.809245 
L 431.201963 258.675537 
L 432.242396 260.3099 
L 433.208511 261.433524 
L 434.32326 262.363132 
L 435.735276 263.246374 
L 436.924341 263.742142 
L 438.26204 264.036393 
L 439.897005 264.191294 
L 441.309021 264.083254 
L 443.166936 263.726432 
L 444.207368 263.29481 
L 445.619384 262.41925 
L 446.882766 261.42295 
L 447.774565 260.42773 
L 448.740681 258.98043 
L 449.85543 256.891237 
L 452.605144 251.410435 
L 453.051044 251.087988 
L 453.422627 251.061857 
L 453.79421 251.258817 
L 454.240109 251.764541 
L 454.834642 252.796697 
L 456.098024 255.58572 
L 457.435723 258.309498 
L 458.476155 259.936632 
L 459.442271 261.052185 
L 460.55702 261.996953 
L 461.820402 262.791075 
L 462.935151 263.242137 
L 464.347167 263.548654 
L 465.759182 263.643604 
L 467.171198 263.493553 
L 468.65753 263.140247 
L 469.697962 262.663016 
L 470.961344 261.814648 
L 472.15041 260.777179 
L 473.042209 259.703012 
L 474.008325 258.161743 
L 475.123074 255.947417 
L 477.501205 251.007503 
L 478.021421 250.530897 
L 478.393004 250.455275 
L 478.764587 250.609054 
L 479.210487 251.075754 
L 479.80502 252.081554 
L 480.919769 254.555031 
L 482.331784 257.553546 
L 483.372216 259.257998 
L 484.338332 260.437173 
L 485.453081 261.441766 
L 486.642147 262.21592 
L 487.756896 262.67385 
L 489.094595 262.967042 
L 490.357977 263.027095 
L 491.695676 262.852048 
L 493.033375 262.46523 
L 494.073807 261.922501 
L 495.262873 261.031149 
L 496.377622 259.923515 
L 497.269421 258.71926 
L 498.235537 257.026701 
L 499.424602 254.469408 
L 501.133884 250.743508 
L 501.728417 249.993466 
L 502.174316 249.789157 
L 502.545899 249.877032 
L 502.917482 250.191769 
L 503.437699 250.959285 
L 504.255181 252.670151 
L 506.336046 257.221373 
L 507.376478 258.885475 
L 508.416911 260.111542 
L 509.53166 261.06962 
L 510.572092 261.69011 
L 511.686841 262.096811 
L 512.950223 262.31426 
L 514.064972 262.290343 
L 515.328355 262.038311 
L 516.443104 261.601354 
L 517.483536 260.933688 
L 518.598285 259.940639 
L 519.564401 258.798454 
L 520.4562 257.404591 
L 521.496632 255.337331 
L 524.320663 249.373287 
L 524.766563 249.057634 
L 525.138146 249.056395 
L 525.509729 249.293629 
L 525.955628 249.861909 
L 526.624478 251.147894 
L 529.671458 257.633456 
L 530.637574 258.955763 
L 531.678007 260.007982 
L 532.718439 260.746369 
L 533.758871 261.211868 
L 534.87362 261.469642 
L 535.914053 261.497997 
L 537.028802 261.304572 
L 538.143551 260.882397 
L 539.109667 260.273638 
L 540.150099 259.336147 
L 541.116215 258.176223 
L 542.008014 256.768934 
L 543.048447 254.664731 
L 545.872477 248.525007 
L 546.318377 248.189142 
L 546.68996 248.177809 
L 547.061543 248.411982 
L 547.507443 248.985629 
L 548.176292 250.294384 
L 551.148956 256.777829 
L 552.115072 258.145725 
L 553.081188 259.154458 
L 554.047303 259.857141 
L 555.013419 260.296373 
L 556.053852 260.517683 
L 557.094284 260.493336 
L 558.134716 260.239481 
L 559.100832 259.78224 
L 560.066948 259.060585 
L 561.033064 258.054582 
L 561.924863 256.815899 
L 562.816662 255.180296 
L 563.931411 252.627081 
L 565.863643 248.071006 
L 566.383859 247.364408 
L 566.755442 247.139105 
L 567.127025 247.171408 
L 567.498608 247.457659 
L 568.018824 248.221765 
L 568.76199 249.805014 
L 571.214438 255.366134 
L 572.180554 256.893639 
L 573.14667 258.006398 
L 574.038469 258.71382 
L 574.930268 259.157622 
L 575.822067 259.366345 
L 576.713866 259.35141 
L 577.679982 259.108169 
L 578.571781 258.661098 
L 579.463581 257.956696 
L 580.35538 256.95907 
L 581.247179 255.63097 
L 582.138978 253.912515 
L 583.253727 251.231628 
L 585.037326 246.86703 
L 585.557542 246.12856 
L 585.929125 245.888892 
L 586.300708 245.91492 
L 586.672291 246.202745 
L 587.11819 246.852876 
L 587.78704 248.277232 
L 590.388121 254.323046 
L 591.354237 255.826954 
L 592.246036 256.819139 
L 593.137835 257.477543 
L 594.029634 257.84691 
L 594.847117 257.949015 
L 595.664599 257.829176 
L 596.482082 257.487241 
L 597.299565 256.904504 
L 598.117047 256.049122 
L 599.008846 254.771525 
L 599.900646 253.087481 
L 600.941078 250.590172 
L 603.09626 245.153815 
L 603.616476 244.490398 
L 603.988059 244.329346 
L 604.359642 244.446416 
L 604.731225 244.828205 
L 605.251441 245.734213 
L 606.068924 247.697791 
L 607.852522 252.053409 
L 608.818638 253.782367 
L 609.710437 254.92329 
L 610.52792 255.617 
L 611.271086 255.984019 
L 612.014252 256.115657 
L 612.757418 256.017672 
L 613.500584 255.689717 
L 614.24375 255.119021 
L 615.061232 254.181889 
L 615.878715 252.890112 
L 616.770514 251.039203 
L 617.810946 248.316732 
L 619.668861 243.343502 
L 620.189078 242.570879 
L 620.560661 242.341022 
L 620.857927 242.367406 
L 621.22951 242.657249 
L 621.67541 243.33758 
L 622.344259 244.8424 
L 624.796707 250.803592 
L 625.688506 252.205827 
L 626.431672 252.999038 
L 627.174838 253.473895 
L 627.843687 253.641239 
L 628.512537 253.566854 
L 629.181386 253.254406 
L 629.850236 252.695714 
L 630.593402 251.765467 
L 631.410884 250.336776 
L 632.302683 248.269905 
L 633.417432 245.029988 
L 634.829448 240.942991 
L 635.423981 239.891844 
L 635.795564 239.596265 
L 636.09283 239.582155 
L 636.390096 239.763458 
L 636.835996 240.365845 
L 637.430529 241.637662 
L 640.180243 248.231633 
L 640.923409 249.254549 
L 641.592258 249.824898 
L 642.186791 250.040653 
L 642.781324 250.002983 
L 643.375857 249.716918 
L 643.97039 249.177457 
L 644.639239 248.254517 
L 645.382405 246.811577 
L 646.199888 244.69497 
L 647.314637 241.094909 
L 648.652335 236.854676 
L 649.172552 235.797439 
L 649.618451 235.358197 
L 649.915718 235.329046 
L 650.212984 235.505974 
L 650.584567 235.986746 
L 651.1791 237.205466 
L 653.631548 242.830186 
L 654.300397 243.616265 
L 654.820613 243.924887 
L 655.266513 243.974822 
L 655.712412 243.820866 
L 656.232629 243.370369 
L 656.827161 242.506472 
L 657.496011 241.078538 
L 658.239177 238.902996 
L 659.205293 235.293605 
L 660.988891 228.432706 
L 661.509107 227.278133 
L 661.955007 226.777026 
L 662.252273 226.700911 
L 662.623856 226.879588 
L 663.144073 227.452261 
L 664.853354 229.61659 
L 665.670837 229.403805 
L 666.26537 228.502714 
L 666.785586 227.022827 
L 667.380119 224.690143 
L 668.048968 221.016366 
L 669.31235 210.24061 
L 669.31235 210.24061 
" clip-path="url(#p19cc1f97ce)" style="fill: none; stroke: #ff7f0e; stroke-width: 1.5; stroke-linecap: square"/>
   </g>
   <g id="patch_3">
    <path d="M 36.465625 284.4 
L 36.465625 7.2 
" style="fill: none; stroke: #000000; stroke-width: 0.8; stroke-linejoin: miter; stroke-linecap: square"/>
   </g>
   <g id="patch_4">
    <path d="M 706.065625 284.4 
L 706.065625 7.2 
" style="fill: none; stroke: #000000; stroke-width: 0.8; stroke-linejoin: miter; stroke-linecap: square"/>
   </g>
   <g id="patch_5">
    <path d="M 36.465625 284.4 
L 706.065625 284.4 
" style="fill: none; stroke: #000000; stroke-width: 0.8; stroke-linejoin: miter; stroke-linecap: square"/>
   </g>
   <g id="patch_6">
    <path d="M 36.465625 7.2 
L 706.065625 7.2 
" style="fill: none; stroke: #000000; stroke-width: 0.8; stroke-linejoin: miter; stroke-linecap: square"/>
   </g>
   <g id="legend_1">
    <g id="patch_7">
     <path d="M 43.465625 73.9125 
L 212.265625 73.9125 
Q 214.265625 73.9125 214.265625 71.9125 
L 214.265625 14.2 
Q 214.265625 12.2 212.265625 12.2 
L 43.465625 12.2 
Q 41.465625 12.2 41.465625 14.2 
L 41.465625 71.9125 
Q 41.465625 73.9125 43.465625 73.9125 
z
" style="fill: #ffffff; opacity: 0.8; stroke: #cccccc; stroke-linejoin: miter"/>
    </g>
    <g id="line2d_17">
     <path d="M 45.465625 20.298438 
L 55.465625 20.298438 
L 65.465625 20.298438 
" style="fill: none; stroke: #1f77b4; stroke-width: 1.5; stroke-linecap: square"/>
    </g>
    <g id="text_14">
     <!-- Mf before ISCO cut: $e$=0.24 -->
     <g transform="translate(73.465625 23.798438) scale(0.1 -0.1)">
      <defs>
       <path id="DejaVuSans-4d" d="M 628 4666 
L 1569 4666 
L 2759 1491 
L 3956 4666 
L 4897 4666 
L 4897 0 
L 4281 0 
L 4281 4097 
L 3078 897 
L 2444 897 
L 1241 4097 
L 1241 0 
L 628 0 
L 628 4666 
z
" transform="scale(0.015625)"/>
       <path id="DejaVuSans-66" d="M 2375 4863 
L 2375 4384 
L 1825 4384 
Q 1516 4384 1395 4259 
Q 1275 4134 1275 3809 
L 1275 3500 
L 2222 3500 
L 2222 3053 
L 1275 3053 
L 1275 0 
L 697 0 
L 697 3053 
L 147 3053 
L 147 3500 
L 697 3500 
L 697 3744 
Q 697 4328 969 4595 
Q 1241 4863 1831 4863 
L 2375 4863 
z
" transform="scale(0.015625)"/>
       <path id="DejaVuSans-20" transform="scale(0.015625)"/>
       <path id="DejaVuSans-62" d="M 3116 1747 
Q 3116 2381 2855 2742 
Q 2594 3103 2138 3103 
Q 1681 3103 1420 2742 
Q 1159 2381 1159 1747 
Q 1159 1113 1420 752 
Q 1681 391 2138 391 
Q 2594 391 2855 752 
Q 3116 1113 3116 1747 
z
M 1159 2969 
Q 1341 3281 1617 3432 
Q 1894 3584 2278 3584 
Q 2916 3584 3314 3078 
Q 3713 2572 3713 1747 
Q 3713 922 3314 415 
Q 2916 -91 2278 -91 
Q 1894 -91 1617 61 
Q 1341 213 1159 525 
L 1159 0 
L 581 0 
L 581 4863 
L 1159 4863 
L 1159 2969 
z
" transform="scale(0.015625)"/>
       <path id="DejaVuSans-65" d="M 3597 1894 
L 3597 1613 
L 953 1613 
Q 991 1019 1311 708 
Q 1631 397 2203 397 
Q 2534 397 2845 478 
Q 3156 559 3463 722 
L 3463 178 
Q 3153 47 2828 -22 
Q 2503 -91 2169 -91 
Q 1331 -91 842 396 
Q 353 884 353 1716 
Q 353 2575 817 3079 
Q 1281 3584 2069 3584 
Q 2775 3584 3186 3129 
Q 3597 2675 3597 1894 
z
M 3022 2063 
Q 3016 2534 2758 2815 
Q 2500 3097 2075 3097 
Q 1594 3097 1305 2825 
Q 1016 2553 972 2059 
L 3022 2063 
z
" transform="scale(0.015625)"/>
       <path id="DejaVuSans-6f" d="M 1959 3097 
Q 1497 3097 1228 2736 
Q 959 2375 959 1747 
Q 959 1119 1226 758 
Q 1494 397 1959 397 
Q 2419 397 2687 759 
Q 2956 1122 2956 1747 
Q 2956 2369 2687 2733 
Q 2419 3097 1959 3097 
z
M 1959 3584 
Q 2709 3584 3137 3096 
Q 3566 2609 3566 1747 
Q 3566 888 3137 398 
Q 2709 -91 1959 -91 
Q 1206 -91 779 398 
Q 353 888 353 1747 
Q 353 2609 779 3096 
Q 1206 3584 1959 3584 
z
" transform="scale(0.015625)"/>
       <path id="DejaVuSans-72" d="M 2631 2963 
Q 2534 3019 2420 3045 
Q 2306 3072 2169 3072 
Q 1681 3072 1420 2755 
Q 1159 2438 1159 1844 
L 1159 0 
L 581 0 
L 581 3500 
L 1159 3500 
L 1159 2956 
Q 1341 3275 1631 3429 
Q 1922 3584 2338 3584 
Q 2397 3584 2469 3576 
Q 2541 3569 2628 3553 
L 2631 2963 
z
" transform="scale(0.015625)"/>
       <path id="DejaVuSans-49" d="M 628 4666 
L 1259 4666 
L 1259 0 
L 628 0 
L 628 4666 
z
" transform="scale(0.015625)"/>
       <path id="DejaVuSans-53" d="M 3425 4513 
L 3425 3897 
Q 3066 4069 2747 4153 
Q 2428 4238 2131 4238 
Q 1616 4238 1336 4038 
Q 1056 3838 1056 3469 
Q 1056 3159 1242 3001 
Q 1428 2844 1947 2747 
L 2328 2669 
Q 3034 2534 3370 2195 
Q 3706 1856 3706 1288 
Q 3706 609 3251 259 
Q 2797 -91 1919 -91 
Q 1588 -91 1214 -16 
Q 841 59 441 206 
L 441 856 
Q 825 641 1194 531 
Q 1563 422 1919 422 
Q 2459 422 2753 634 
Q 3047 847 3047 1241 
Q 3047 1584 2836 1778 
Q 2625 1972 2144 2069 
L 1759 2144 
Q 1053 2284 737 2584 
Q 422 2884 422 3419 
Q 422 4038 858 4394 
Q 1294 4750 2059 4750 
Q 2388 4750 2728 4690 
Q 3069 4631 3425 4513 
z
" transform="scale(0.015625)"/>
       <path id="DejaVuSans-43" d="M 4122 4306 
L 4122 3641 
Q 3803 3938 3442 4084 
Q 3081 4231 2675 4231 
Q 1875 4231 1450 3742 
Q 1025 3253 1025 2328 
Q 1025 1406 1450 917 
Q 1875 428 2675 428 
Q 3081 428 3442 575 
Q 3803 722 4122 1019 
L 4122 359 
Q 3791 134 3420 21 
Q 3050 -91 2638 -91 
Q 1578 -91 968 557 
Q 359 1206 359 2328 
Q 359 3453 968 4101 
Q 1578 4750 2638 4750 
Q 3056 4750 3426 4639 
Q 3797 4528 4122 4306 
z
" transform="scale(0.015625)"/>
       <path id="DejaVuSans-4f" d="M 2522 4238 
Q 1834 4238 1429 3725 
Q 1025 3213 1025 2328 
Q 1025 1447 1429 934 
Q 1834 422 2522 422 
Q 3209 422 3611 934 
Q 4013 1447 4013 2328 
Q 4013 3213 3611 3725 
Q 3209 4238 2522 4238 
z
M 2522 4750 
Q 3503 4750 4090 4092 
Q 4678 3434 4678 2328 
Q 4678 1225 4090 567 
Q 3503 -91 2522 -91 
Q 1538 -91 948 565 
Q 359 1222 359 2328 
Q 359 3434 948 4092 
Q 1538 4750 2522 4750 
z
" transform="scale(0.015625)"/>
       <path id="DejaVuSans-63" d="M 3122 3366 
L 3122 2828 
Q 2878 2963 2633 3030 
Q 2388 3097 2138 3097 
Q 1578 3097 1268 2742 
Q 959 2388 959 1747 
Q 959 1106 1268 751 
Q 1578 397 2138 397 
Q 2388 397 2633 464 
Q 2878 531 3122 666 
L 3122 134 
Q 2881 22 2623 -34 
Q 2366 -91 2075 -91 
Q 1284 -91 818 406 
Q 353 903 353 1747 
Q 353 2603 823 3093 
Q 1294 3584 2113 3584 
Q 2378 3584 2631 3529 
Q 2884 3475 3122 3366 
z
" transform="scale(0.015625)"/>
       <path id="DejaVuSans-75" d="M 544 1381 
L 544 3500 
L 1119 3500 
L 1119 1403 
Q 1119 906 1312 657 
Q 1506 409 1894 409 
Q 2359 409 2629 706 
Q 2900 1003 2900 1516 
L 2900 3500 
L 3475 3500 
L 3475 0 
L 2900 0 
L 2900 538 
Q 2691 219 2414 64 
Q 2138 -91 1772 -91 
Q 1169 -91 856 284 
Q 544 659 544 1381 
z
M 1991 3584 
L 1991 3584 
z
" transform="scale(0.015625)"/>
       <path id="DejaVuSans-74" d="M 1172 4494 
L 1172 3500 
L 2356 3500 
L 2356 3053 
L 1172 3053 
L 1172 1153 
Q 1172 725 1289 603 
Q 1406 481 1766 481 
L 2356 481 
L 2356 0 
L 1766 0 
Q 1100 0 847 248 
Q 594 497 594 1153 
L 594 3053 
L 172 3053 
L 172 3500 
L 594 3500 
L 594 4494 
L 1172 4494 
z
" transform="scale(0.015625)"/>
       <path id="DejaVuSans-3a" d="M 750 794 
L 1409 794 
L 1409 0 
L 750 0 
L 750 794 
z
M 750 3309 
L 1409 3309 
L 1409 2516 
L 750 2516 
L 750 3309 
z
" transform="scale(0.015625)"/>
       <path id="DejaVuSans-Oblique-65" d="M 3078 2063 
Q 3088 2113 3092 2166 
Q 3097 2219 3097 2272 
Q 3097 2653 2873 2875 
Q 2650 3097 2266 3097 
Q 1838 3097 1509 2826 
Q 1181 2556 1013 2059 
L 3078 2063 
z
M 3578 1613 
L 903 1613 
Q 884 1494 878 1425 
Q 872 1356 872 1306 
Q 872 872 1139 634 
Q 1406 397 1894 397 
Q 2269 397 2603 481 
Q 2938 566 3225 728 
L 3116 159 
Q 2806 34 2476 -28 
Q 2147 -91 1806 -91 
Q 1078 -91 686 257 
Q 294 606 294 1247 
Q 294 1794 489 2264 
Q 684 2734 1063 3103 
Q 1306 3334 1642 3459 
Q 1978 3584 2356 3584 
Q 2950 3584 3301 3228 
Q 3653 2872 3653 2272 
Q 3653 2128 3634 1964 
Q 3616 1800 3578 1613 
z
" transform="scale(0.015625)"/>
       <path id="DejaVuSans-3d" d="M 678 2906 
L 4684 2906 
L 4684 2381 
L 678 2381 
L 678 2906 
z
M 678 1631 
L 4684 1631 
L 4684 1100 
L 678 1100 
L 678 1631 
z
" transform="scale(0.015625)"/>
      </defs>
      <use xlink:href="#DejaVuSans-4d" transform="translate(0 0.015625)"/>
      <use xlink:href="#DejaVuSans-66" transform="translate(86.279297 0.015625)"/>
      <use xlink:href="#DejaVuSans-20" transform="translate(121.484375 0.015625)"/>
      <use xlink:href="#DejaVuSans-62" transform="translate(153.271484 0.015625)"/>
      <use xlink:href="#DejaVuSans-65" transform="translate(216.748047 0.015625)"/>
      <use xlink:href="#DejaVuSans-66" transform="translate(278.271484 0.015625)"/>
      <use xlink:href="#DejaVuSans-6f" transform="translate(313.476562 0.015625)"/>
      <use xlink:href="#DejaVuSans-72" transform="translate(374.658203 0.015625)"/>
      <use xlink:href="#DejaVuSans-65" transform="translate(415.771484 0.015625)"/>
      <use xlink:href="#DejaVuSans-20" transform="translate(477.294922 0.015625)"/>
      <use xlink:href="#DejaVuSans-49" transform="translate(509.082031 0.015625)"/>
      <use xlink:href="#DejaVuSans-53" transform="translate(538.574219 0.015625)"/>
      <use xlink:href="#DejaVuSans-43" transform="translate(602.050781 0.015625)"/>
      <use xlink:href="#DejaVuSans-4f" transform="translate(671.875 0.015625)"/>
      <use xlink:href="#DejaVuSans-20" transform="translate(750.585938 0.015625)"/>
      <use xlink:href="#DejaVuSans-63" transform="translate(782.373047 0.015625)"/>
      <use xlink:href="#DejaVuSans-75" transform="translate(837.353516 0.015625)"/>
      <use xlink:href="#DejaVuSans-74" transform="translate(900.732422 0.015625)"/>
      <use xlink:href="#DejaVuSans-3a" transform="translate(939.941406 0.015625)"/>
      <use xlink:href="#DejaVuSans-20" transform="translate(973.632812 0.015625)"/>
      <use xlink:href="#DejaVuSans-Oblique-65" transform="translate(1005.419922 0.015625)"/>
      <use xlink:href="#DejaVuSans-3d" transform="translate(1066.943359 0.015625)"/>
      <use xlink:href="#DejaVuSans-30" transform="translate(1150.732422 0.015625)"/>
      <use xlink:href="#DejaVuSans-2e" transform="translate(1214.355469 0.015625)"/>
      <use xlink:href="#DejaVuSans-32" transform="translate(1240.642578 0.015625)"/>
      <use xlink:href="#DejaVuSans-34" transform="translate(1304.265625 0.015625)"/>
     </g>
    </g>
    <g id="line2d_18">
     <path d="M 45.465625 34.976563 
L 55.465625 34.976563 
L 65.465625 34.976563 
" style="fill: none; stroke-dasharray: 2.22,0.96; stroke-dashoffset: 0; stroke: #ff0000; stroke-width: 0.6"/>
    </g>
    <g id="text_15">
     <!-- Mf ISCO $e$=0 -->
     <g transform="translate(73.465625 38.476563) scale(0.1 -0.1)">
      <use xlink:href="#DejaVuSans-4d" transform="translate(0 0.015625)"/>
      <use xlink:href="#DejaVuSans-66" transform="translate(86.279297 0.015625)"/>
      <use xlink:href="#DejaVuSans-20" transform="translate(121.484375 0.015625)"/>
      <use xlink:href="#DejaVuSans-49" transform="translate(153.271484 0.015625)"/>
      <use xlink:href="#DejaVuSans-53" transform="translate(182.763672 0.015625)"/>
      <use xlink:href="#DejaVuSans-43" transform="translate(246.240234 0.015625)"/>
      <use xlink:href="#DejaVuSans-4f" transform="translate(316.064453 0.015625)"/>
      <use xlink:href="#DejaVuSans-20" transform="translate(394.775391 0.015625)"/>
      <use xlink:href="#DejaVuSans-Oblique-65" transform="translate(426.5625 0.015625)"/>
      <use xlink:href="#DejaVuSans-3d" transform="translate(488.085938 0.015625)"/>
      <use xlink:href="#DejaVuSans-30" transform="translate(571.875 0.015625)"/>
     </g>
    </g>
    <g id="PathCollection_2">
     <g>
      <use xlink:href="#m41343978da" x="55.465625" y="50.529688" style="fill: #ff0000; stroke: #ff0000"/>
     </g>
    </g>
    <g id="text_16">
     <!-- ISCO cut -->
     <g transform="translate(73.465625 53.154688) scale(0.1 -0.1)">
      <use xlink:href="#DejaVuSans-49"/>
      <use xlink:href="#DejaVuSans-53" transform="translate(29.492188 0)"/>
      <use xlink:href="#DejaVuSans-43" transform="translate(92.96875 0)"/>
      <use xlink:href="#DejaVuSans-4f" transform="translate(162.792969 0)"/>
      <use xlink:href="#DejaVuSans-20" transform="translate(241.503906 0)"/>
      <use xlink:href="#DejaVuSans-63" transform="translate(273.291016 0)"/>
      <use xlink:href="#DejaVuSans-75" transform="translate(328.271484 0)"/>
      <use xlink:href="#DejaVuSans-74" transform="translate(391.650391 0)"/>
     </g>
    </g>
    <g id="line2d_19">
     <path d="M 45.465625 64.332813 
L 55.465625 64.332813 
L 65.465625 64.332813 
" style="fill: none; stroke: #ff7f0e; stroke-width: 1.5; stroke-linecap: square"/>
    </g>
    <g id="text_17">
     <!-- Mf after ISCO cut: $e$=0.24  -->
     <g transform="translate(73.465625 67.832813) scale(0.1 -0.1)">
      <defs>
       <path id="DejaVuSans-61" d="M 2194 1759 
Q 1497 1759 1228 1600 
Q 959 1441 959 1056 
Q 959 750 1161 570 
Q 1363 391 1709 391 
Q 2188 391 2477 730 
Q 2766 1069 2766 1631 
L 2766 1759 
L 2194 1759 
z
M 3341 1997 
L 3341 0 
L 2766 0 
L 2766 531 
Q 2569 213 2275 61 
Q 1981 -91 1556 -91 
Q 1019 -91 701 211 
Q 384 513 384 1019 
Q 384 1609 779 1909 
Q 1175 2209 1959 2209 
L 2766 2209 
L 2766 2266 
Q 2766 2663 2505 2880 
Q 2244 3097 1772 3097 
Q 1472 3097 1187 3025 
Q 903 2953 641 2809 
L 641 3341 
Q 956 3463 1253 3523 
Q 1550 3584 1831 3584 
Q 2591 3584 2966 3190 
Q 3341 2797 3341 1997 
z
" transform="scale(0.015625)"/>
      </defs>
      <use xlink:href="#DejaVuSans-4d" transform="translate(0 0.015625)"/>
      <use xlink:href="#DejaVuSans-66" transform="translate(86.279297 0.015625)"/>
      <use xlink:href="#DejaVuSans-20" transform="translate(121.484375 0.015625)"/>
      <use xlink:href="#DejaVuSans-61" transform="translate(153.271484 0.015625)"/>
      <use xlink:href="#DejaVuSans-66" transform="translate(214.550781 0.015625)"/>
      <use xlink:href="#DejaVuSans-74" transform="translate(249.755859 0.015625)"/>
      <use xlink:href="#DejaVuSans-65" transform="translate(288.964844 0.015625)"/>
      <use xlink:href="#DejaVuSans-72" transform="translate(350.488281 0.015625)"/>
      <use xlink:href="#DejaVuSans-20" transform="translate(391.601562 0.015625)"/>
      <use xlink:href="#DejaVuSans-49" transform="translate(423.388672 0.015625)"/>
      <use xlink:href="#DejaVuSans-53" transform="translate(452.880859 0.015625)"/>
      <use xlink:href="#DejaVuSans-43" transform="translate(516.357422 0.015625)"/>
      <use xlink:href="#DejaVuSans-4f" transform="translate(586.181641 0.015625)"/>
      <use xlink:href="#DejaVuSans-20" transform="translate(664.892578 0.015625)"/>
      <use xlink:href="#DejaVuSans-63" transform="translate(696.679688 0.015625)"/>
      <use xlink:href="#DejaVuSans-75" transform="translate(751.660156 0.015625)"/>
      <use xlink:href="#DejaVuSans-74" transform="translate(815.039062 0.015625)"/>
      <use xlink:href="#DejaVuSans-3a" transform="translate(854.248047 0.015625)"/>
      <use xlink:href="#DejaVuSans-20" transform="translate(887.939453 0.015625)"/>
      <use xlink:href="#DejaVuSans-Oblique-65" transform="translate(919.726562 0.015625)"/>
      <use xlink:href="#DejaVuSans-3d" transform="translate(981.25 0.015625)"/>
      <use xlink:href="#DejaVuSans-30" transform="translate(1065.039062 0.015625)"/>
      <use xlink:href="#DejaVuSans-2e" transform="translate(1128.662109 0.015625)"/>
      <use xlink:href="#DejaVuSans-32" transform="translate(1154.949219 0.015625)"/>
      <use xlink:href="#DejaVuSans-34" transform="translate(1218.572266 0.015625)"/>
      <use xlink:href="#DejaVuSans-20" transform="translate(1282.195312 0.015625)"/>
     </g>
    </g>
   </g>
  </g>
 </g>
 <defs>
  <clipPath id="p19cc1f97ce">
   <rect x="36.465625" y="7.2" width="669.6" height="277.2"/>
  </clipPath>
 </defs>
</svg>
