<?xml version="1.0" encoding="utf-8" standalone="no"?>
<!DOCTYPE svg PUBLIC "-//W3C//DTD SVG 1.1//EN"
  "http://www.w3.org/Graphics/SVG/1.1/DTD/svg11.dtd">
<svg xmlns:xlink="http://www.w3.org/1999/xlink" width="713.265625pt" height="308.278125pt" viewBox="0 0 713.265625 308.278125" xmlns="http://www.w3.org/2000/svg" version="1.1">
 <metadata>
  <rdf:RDF xmlns:dc="http://purl.org/dc/elements/1.1/" xmlns:cc="http://creativecommons.org/ns#" xmlns:rdf="http://www.w3.org/1999/02/22-rdf-syntax-ns#">
   <cc:Work>
    <dc:type rdf:resource="http://purl.org/dc/dcmitype/StillImage"/>
    <dc:date>2025-07-25T14:55:40.805845</dc:date>
    <dc:format>image/svg+xml</dc:format>
    <dc:creator>
     <cc:Agent>
      <dc:title>Matplotlib v3.10.3, https://matplotlib.org/</dc:title>
     </cc:Agent>
    </dc:creator>
   </cc:Work>
  </rdf:RDF>
 </metadata>
 <defs>
  <style type="text/css">*{stroke-linejoin: round; stroke-linecap: butt}</style>
 </defs>
 <g id="figure_1">
  <g id="patch_1">
   <path d="M 0 308.278125 
L 713.265625 308.278125 
L 713.265625 0 
L 0 0 
z
" style="fill: #ffffff"/>
  </g>
  <g id="axes_1">
   <g id="patch_2">
    <path d="M 36.465625 284.4 
L 706.065625 284.4 
L 706.065625 7.2 
L 36.465625 7.2 
z
" style="fill: #ffffff"/>
   </g>
   <g id="PathCollection_1">
    <defs>
     <path id="mc2988c19e2" d="M 0 1.224745 
C 0.324806 1.224745 0.636353 1.095698 0.866025 0.866025 
C 1.095698 0.636353 1.224745 0.324806 1.224745 0 
C 1.224745 -0.324806 1.095698 -0.636353 0.866025 -0.866025 
C 0.636353 -1.095698 0.324806 -1.224745 0 -1.224745 
C -0.324806 -1.224745 -0.636353 -1.095698 -0.866025 -0.866025 
C -1.095698 -0.636353 -1.224745 -0.324806 -1.224745 0 
C -1.224745 0.324806 -1.095698 0.636353 -0.866025 0.866025 
C -0.636353 1.095698 -0.324806 1.224745 0 1.224745 
z
" style="stroke: #ff0000"/>
    </defs>
    <g clip-path="url(#pcc279d7f29)">
     <use xlink:href="#mc2988c19e2" x="669.609617" y="182.069359" style="fill: #ff0000; stroke: #ff0000"/>
    </g>
   </g>
   <g id="matplotlib.axis_1">
    <g id="xtick_1">
     <g id="line2d_1">
      <defs>
       <path id="mdefc3c54c2" d="M 0 0 
L 0 3.5 
" style="stroke: #000000; stroke-width: 0.8"/>
      </defs>
      <g>
       <use xlink:href="#mdefc3c54c2" x="46.099533" y="284.4" style="stroke: #000000; stroke-width: 0.8"/>
      </g>
     </g>
     <g id="text_1">
      <!-- −14000 -->
      <g transform="translate(26.00344 298.998438) scale(0.1 -0.1)">
       <defs>
        <path id="DejaVuSans-2212" d="M 678 2272 
L 4684 2272 
L 4684 1741 
L 678 1741 
L 678 2272 
z
" transform="scale(0.015625)"/>
        <path id="DejaVuSans-31" d="M 794 531 
L 1825 531 
L 1825 4091 
L 703 3866 
L 703 4441 
L 1819 4666 
L 2450 4666 
L 2450 531 
L 3481 531 
L 3481 0 
L 794 0 
L 794 531 
z
" transform="scale(0.015625)"/>
        <path id="DejaVuSans-34" d="M 2419 4116 
L 825 1625 
L 2419 1625 
L 2419 4116 
z
M 2253 4666 
L 3047 4666 
L 3047 1625 
L 3713 1625 
L 3713 1100 
L 3047 1100 
L 3047 0 
L 2419 0 
L 2419 1100 
L 313 1100 
L 313 1709 
L 2253 4666 
z
" transform="scale(0.015625)"/>
        <path id="DejaVuSans-30" d="M 2034 4250 
Q 1547 4250 1301 3770 
Q 1056 3291 1056 2328 
Q 1056 1369 1301 889 
Q 1547 409 2034 409 
Q 2525 409 2770 889 
Q 3016 1369 3016 2328 
Q 3016 3291 2770 3770 
Q 2525 4250 2034 4250 
z
M 2034 4750 
Q 2819 4750 3233 4129 
Q 3647 3509 3647 2328 
Q 3647 1150 3233 529 
Q 2819 -91 2034 -91 
Q 1250 -91 836 529 
Q 422 1150 422 2328 
Q 422 3509 836 4129 
Q 1250 4750 2034 4750 
z
" transform="scale(0.015625)"/>
       </defs>
       <use xlink:href="#DejaVuSans-2212"/>
       <use xlink:href="#DejaVuSans-31" transform="translate(83.789062 0)"/>
       <use xlink:href="#DejaVuSans-34" transform="translate(147.412109 0)"/>
       <use xlink:href="#DejaVuSans-30" transform="translate(211.035156 0)"/>
       <use xlink:href="#DejaVuSans-30" transform="translate(274.658203 0)"/>
       <use xlink:href="#DejaVuSans-30" transform="translate(338.28125 0)"/>
      </g>
     </g>
    </g>
    <g id="xtick_2">
     <g id="line2d_2">
      <g>
       <use xlink:href="#mdefc3c54c2" x="135.57819" y="284.4" style="stroke: #000000; stroke-width: 0.8"/>
      </g>
     </g>
     <g id="text_2">
      <!-- −12000 -->
      <g transform="translate(115.482097 298.998438) scale(0.1 -0.1)">
       <defs>
        <path id="DejaVuSans-32" d="M 1228 531 
L 3431 531 
L 3431 0 
L 469 0 
L 469 531 
Q 828 903 1448 1529 
Q 2069 2156 2228 2338 
Q 2531 2678 2651 2914 
Q 2772 3150 2772 3378 
Q 2772 3750 2511 3984 
Q 2250 4219 1831 4219 
Q 1534 4219 1204 4116 
Q 875 4013 500 3803 
L 500 4441 
Q 881 4594 1212 4672 
Q 1544 4750 1819 4750 
Q 2544 4750 2975 4387 
Q 3406 4025 3406 3419 
Q 3406 3131 3298 2873 
Q 3191 2616 2906 2266 
Q 2828 2175 2409 1742 
Q 1991 1309 1228 531 
z
" transform="scale(0.015625)"/>
       </defs>
       <use xlink:href="#DejaVuSans-2212"/>
       <use xlink:href="#DejaVuSans-31" transform="translate(83.789062 0)"/>
       <use xlink:href="#DejaVuSans-32" transform="translate(147.412109 0)"/>
       <use xlink:href="#DejaVuSans-30" transform="translate(211.035156 0)"/>
       <use xlink:href="#DejaVuSans-30" transform="translate(274.658203 0)"/>
       <use xlink:href="#DejaVuSans-30" transform="translate(338.28125 0)"/>
      </g>
     </g>
    </g>
    <g id="xtick_3">
     <g id="line2d_3">
      <g>
       <use xlink:href="#mdefc3c54c2" x="225.056848" y="284.4" style="stroke: #000000; stroke-width: 0.8"/>
      </g>
     </g>
     <g id="text_3">
      <!-- −10000 -->
      <g transform="translate(204.960754 298.998438) scale(0.1 -0.1)">
       <use xlink:href="#DejaVuSans-2212"/>
       <use xlink:href="#DejaVuSans-31" transform="translate(83.789062 0)"/>
       <use xlink:href="#DejaVuSans-30" transform="translate(147.412109 0)"/>
       <use xlink:href="#DejaVuSans-30" transform="translate(211.035156 0)"/>
       <use xlink:href="#DejaVuSans-30" transform="translate(274.658203 0)"/>
       <use xlink:href="#DejaVuSans-30" transform="translate(338.28125 0)"/>
      </g>
     </g>
    </g>
    <g id="xtick_4">
     <g id="line2d_4">
      <g>
       <use xlink:href="#mdefc3c54c2" x="314.535505" y="284.4" style="stroke: #000000; stroke-width: 0.8"/>
      </g>
     </g>
     <g id="text_4">
      <!-- −8000 -->
      <g transform="translate(297.620661 298.998438) scale(0.1 -0.1)">
       <defs>
        <path id="DejaVuSans-38" d="M 2034 2216 
Q 1584 2216 1326 1975 
Q 1069 1734 1069 1313 
Q 1069 891 1326 650 
Q 1584 409 2034 409 
Q 2484 409 2743 651 
Q 3003 894 3003 1313 
Q 3003 1734 2745 1975 
Q 2488 2216 2034 2216 
z
M 1403 2484 
Q 997 2584 770 2862 
Q 544 3141 544 3541 
Q 544 4100 942 4425 
Q 1341 4750 2034 4750 
Q 2731 4750 3128 4425 
Q 3525 4100 3525 3541 
Q 3525 3141 3298 2862 
Q 3072 2584 2669 2484 
Q 3125 2378 3379 2068 
Q 3634 1759 3634 1313 
Q 3634 634 3220 271 
Q 2806 -91 2034 -91 
Q 1263 -91 848 271 
Q 434 634 434 1313 
Q 434 1759 690 2068 
Q 947 2378 1403 2484 
z
M 1172 3481 
Q 1172 3119 1398 2916 
Q 1625 2713 2034 2713 
Q 2441 2713 2670 2916 
Q 2900 3119 2900 3481 
Q 2900 3844 2670 4047 
Q 2441 4250 2034 4250 
Q 1625 4250 1398 4047 
Q 1172 3844 1172 3481 
z
" transform="scale(0.015625)"/>
       </defs>
       <use xlink:href="#DejaVuSans-2212"/>
       <use xlink:href="#DejaVuSans-38" transform="translate(83.789062 0)"/>
       <use xlink:href="#DejaVuSans-30" transform="translate(147.412109 0)"/>
       <use xlink:href="#DejaVuSans-30" transform="translate(211.035156 0)"/>
       <use xlink:href="#DejaVuSans-30" transform="translate(274.658203 0)"/>
      </g>
     </g>
    </g>
    <g id="xtick_5">
     <g id="line2d_5">
      <g>
       <use xlink:href="#mdefc3c54c2" x="404.014162" y="284.4" style="stroke: #000000; stroke-width: 0.8"/>
      </g>
     </g>
     <g id="text_5">
      <!-- −6000 -->
      <g transform="translate(387.099318 298.998438) scale(0.1 -0.1)">
       <defs>
        <path id="DejaVuSans-36" d="M 2113 2584 
Q 1688 2584 1439 2293 
Q 1191 2003 1191 1497 
Q 1191 994 1439 701 
Q 1688 409 2113 409 
Q 2538 409 2786 701 
Q 3034 994 3034 1497 
Q 3034 2003 2786 2293 
Q 2538 2584 2113 2584 
z
M 3366 4563 
L 3366 3988 
Q 3128 4100 2886 4159 
Q 2644 4219 2406 4219 
Q 1781 4219 1451 3797 
Q 1122 3375 1075 2522 
Q 1259 2794 1537 2939 
Q 1816 3084 2150 3084 
Q 2853 3084 3261 2657 
Q 3669 2231 3669 1497 
Q 3669 778 3244 343 
Q 2819 -91 2113 -91 
Q 1303 -91 875 529 
Q 447 1150 447 2328 
Q 447 3434 972 4092 
Q 1497 4750 2381 4750 
Q 2619 4750 2861 4703 
Q 3103 4656 3366 4563 
z
" transform="scale(0.015625)"/>
       </defs>
       <use xlink:href="#DejaVuSans-2212"/>
       <use xlink:href="#DejaVuSans-36" transform="translate(83.789062 0)"/>
       <use xlink:href="#DejaVuSans-30" transform="translate(147.412109 0)"/>
       <use xlink:href="#DejaVuSans-30" transform="translate(211.035156 0)"/>
       <use xlink:href="#DejaVuSans-30" transform="translate(274.658203 0)"/>
      </g>
     </g>
    </g>
    <g id="xtick_6">
     <g id="line2d_6">
      <g>
       <use xlink:href="#mdefc3c54c2" x="493.492819" y="284.4" style="stroke: #000000; stroke-width: 0.8"/>
      </g>
     </g>
     <g id="text_6">
      <!-- −4000 -->
      <g transform="translate(476.577975 298.998438) scale(0.1 -0.1)">
       <use xlink:href="#DejaVuSans-2212"/>
       <use xlink:href="#DejaVuSans-34" transform="translate(83.789062 0)"/>
       <use xlink:href="#DejaVuSans-30" transform="translate(147.412109 0)"/>
       <use xlink:href="#DejaVuSans-30" transform="translate(211.035156 0)"/>
       <use xlink:href="#DejaVuSans-30" transform="translate(274.658203 0)"/>
      </g>
     </g>
    </g>
    <g id="xtick_7">
     <g id="line2d_7">
      <g>
       <use xlink:href="#mdefc3c54c2" x="582.971476" y="284.4" style="stroke: #000000; stroke-width: 0.8"/>
      </g>
     </g>
     <g id="text_7">
      <!-- −2000 -->
      <g transform="translate(566.056633 298.998438) scale(0.1 -0.1)">
       <use xlink:href="#DejaVuSans-2212"/>
       <use xlink:href="#DejaVuSans-32" transform="translate(83.789062 0)"/>
       <use xlink:href="#DejaVuSans-30" transform="translate(147.412109 0)"/>
       <use xlink:href="#DejaVuSans-30" transform="translate(211.035156 0)"/>
       <use xlink:href="#DejaVuSans-30" transform="translate(274.658203 0)"/>
      </g>
     </g>
    </g>
    <g id="xtick_8">
     <g id="line2d_8">
      <g>
       <use xlink:href="#mdefc3c54c2" x="672.450134" y="284.4" style="stroke: #000000; stroke-width: 0.8"/>
      </g>
     </g>
     <g id="text_8">
      <!-- 0 -->
      <g transform="translate(669.268884 298.998438) scale(0.1 -0.1)">
       <use xlink:href="#DejaVuSans-30"/>
      </g>
     </g>
    </g>
   </g>
   <g id="matplotlib.axis_2">
    <g id="ytick_1">
     <g id="line2d_9">
      <defs>
       <path id="m7621cc0d8a" d="M 0 0 
L -3.5 0 
" style="stroke: #000000; stroke-width: 0.8"/>
      </defs>
      <g>
       <use xlink:href="#m7621cc0d8a" x="36.465625" y="235.583884" style="stroke: #000000; stroke-width: 0.8"/>
      </g>
     </g>
     <g id="text_9">
      <!-- 0.00 -->
      <g transform="translate(7.2 239.383102) scale(0.1 -0.1)">
       <defs>
        <path id="DejaVuSans-2e" d="M 684 794 
L 1344 794 
L 1344 0 
L 684 0 
L 684 794 
z
" transform="scale(0.015625)"/>
       </defs>
       <use xlink:href="#DejaVuSans-30"/>
       <use xlink:href="#DejaVuSans-2e" transform="translate(63.623047 0)"/>
       <use xlink:href="#DejaVuSans-30" transform="translate(95.410156 0)"/>
       <use xlink:href="#DejaVuSans-30" transform="translate(159.033203 0)"/>
      </g>
     </g>
    </g>
    <g id="ytick_2">
     <g id="line2d_10">
      <g>
       <use xlink:href="#m7621cc0d8a" x="36.465625" y="186.591018" style="stroke: #000000; stroke-width: 0.8"/>
      </g>
     </g>
     <g id="text_10">
      <!-- 0.02 -->
      <g transform="translate(7.2 190.390237) scale(0.1 -0.1)">
       <use xlink:href="#DejaVuSans-30"/>
       <use xlink:href="#DejaVuSans-2e" transform="translate(63.623047 0)"/>
       <use xlink:href="#DejaVuSans-30" transform="translate(95.410156 0)"/>
       <use xlink:href="#DejaVuSans-32" transform="translate(159.033203 0)"/>
      </g>
     </g>
    </g>
    <g id="ytick_3">
     <g id="line2d_11">
      <g>
       <use xlink:href="#m7621cc0d8a" x="36.465625" y="137.598153" style="stroke: #000000; stroke-width: 0.8"/>
      </g>
     </g>
     <g id="text_11">
      <!-- 0.04 -->
      <g transform="translate(7.2 141.397372) scale(0.1 -0.1)">
       <use xlink:href="#DejaVuSans-30"/>
       <use xlink:href="#DejaVuSans-2e" transform="translate(63.623047 0)"/>
       <use xlink:href="#DejaVuSans-30" transform="translate(95.410156 0)"/>
       <use xlink:href="#DejaVuSans-34" transform="translate(159.033203 0)"/>
      </g>
     </g>
    </g>
    <g id="ytick_4">
     <g id="line2d_12">
      <g>
       <use xlink:href="#m7621cc0d8a" x="36.465625" y="88.605287" style="stroke: #000000; stroke-width: 0.8"/>
      </g>
     </g>
     <g id="text_12">
      <!-- 0.06 -->
      <g transform="translate(7.2 92.404506) scale(0.1 -0.1)">
       <use xlink:href="#DejaVuSans-30"/>
       <use xlink:href="#DejaVuSans-2e" transform="translate(63.623047 0)"/>
       <use xlink:href="#DejaVuSans-30" transform="translate(95.410156 0)"/>
       <use xlink:href="#DejaVuSans-36" transform="translate(159.033203 0)"/>
      </g>
     </g>
    </g>
    <g id="ytick_5">
     <g id="line2d_13">
      <g>
       <use xlink:href="#m7621cc0d8a" x="36.465625" y="39.612422" style="stroke: #000000; stroke-width: 0.8"/>
      </g>
     </g>
     <g id="text_13">
      <!-- 0.08 -->
      <g transform="translate(7.2 43.411641) scale(0.1 -0.1)">
       <use xlink:href="#DejaVuSans-30"/>
       <use xlink:href="#DejaVuSans-2e" transform="translate(63.623047 0)"/>
       <use xlink:href="#DejaVuSans-30" transform="translate(95.410156 0)"/>
       <use xlink:href="#DejaVuSans-38" transform="translate(159.033203 0)"/>
      </g>
     </g>
    </g>
   </g>
   <g id="line2d_14">
    <path d="M 66.901989 271.8 
L 67.347888 271.590381 
L 68.61127 270.719348 
L 69.577386 270.189825 
L 72.401417 268.936698 
L 73.516166 268.475982 
L 74.333649 268.38295 
L 75.225448 268.520104 
L 82.805741 270.42466 
L 84.069123 270.361408 
L 85.852722 270.009239 
L 88.007903 269.649539 
L 90.831934 269.198858 
L 93.953231 268.383413 
L 96.925895 267.455026 
L 102.796907 265.201289 
L 104.803455 264.13074 
L 108.890868 261.642976 
L 110.3772 260.433324 
L 112.012165 258.795788 
L 114.31598 256.129578 
L 116.471161 253.698782 
L 117.437277 252.913223 
L 118.254759 252.522595 
L 118.997925 252.421509 
L 119.741091 252.558746 
L 120.558574 252.941496 
L 121.74764 253.771696 
L 125.01757 256.171009 
L 126.355269 256.865109 
L 127.470018 257.212326 
L 128.584767 257.317889 
L 129.996782 257.185505 
L 131.483114 257.088408 
L 132.89513 257.262965 
L 134.455778 257.412876 
L 135.644844 257.288105 
L 137.205492 256.857751 
L 138.914774 256.439736 
L 142.184705 255.831355 
L 145.083052 254.915532 
L 146.718017 254.859434 
L 147.75845 254.686315 
L 148.650249 254.29635 
L 149.616365 253.605772 
L 151.771546 251.930522 
L 152.440396 251.797379 
L 153.332195 251.893791 
L 154.298311 251.94045 
L 154.96716 251.75721 
L 155.710326 251.307722 
L 156.602125 250.468439 
L 157.865507 248.912179 
L 159.500473 246.948911 
L 160.986805 245.21669 
L 161.878604 243.739405 
L 164.256735 239.462022 
L 164.851268 238.945158 
L 165.297167 238.808299 
L 165.743067 238.890681 
L 166.263283 239.243517 
L 166.932133 240.023206 
L 168.344148 242.175479 
L 169.38458 243.510309 
L 170.499329 244.526581 
L 172.059978 245.989671 
L 173.32336 247.109442 
L 174.140843 247.570672 
L 174.884009 247.742093 
L 175.478542 247.672215 
L 176.147391 247.350531 
L 178.079623 246.137086 
L 178.525522 246.236083 
L 179.120055 246.615747 
L 180.53207 247.609069 
L 181.275236 247.816657 
L 181.944086 247.780951 
L 182.687252 247.515678 
L 183.876317 246.78517 
L 184.768117 246.36408 
L 185.436966 246.301995 
L 187.815097 246.393245 
L 188.63258 246.005998 
L 190.416178 245.024674 
L 190.936394 245.042502 
L 191.605244 245.32866 
L 192.942943 245.987503 
L 193.537475 246.000067 
L 194.132008 245.761054 
L 194.726541 245.259284 
L 195.39539 244.381853 
L 197.178989 241.774273 
L 197.476255 241.739813 
L 197.847838 241.956082 
L 198.442371 242.684123 
L 199.259854 243.66574 
L 199.78007 243.965629 
L 200.22597 243.979973 
L 200.746186 243.7401 
L 201.340719 243.185277 
L 202.083885 242.166853 
L 204.462016 238.569848 
L 206.245614 237.01947 
L 206.840147 235.901071 
L 207.731946 233.626659 
L 209.069645 230.245898 
L 209.664178 229.314709 
L 210.110077 228.977654 
L 210.48166 228.952151 
L 210.853243 229.155432 
L 211.299143 229.676209 
L 211.893676 230.749635 
L 214.42044 235.860469 
L 215.08929 236.46745 
L 216.278355 237.434664 
L 217.170154 238.576582 
L 218.35922 240.044737 
L 219.102386 240.645447 
L 219.696919 240.878186 
L 220.217135 240.838734 
L 220.663035 240.571934 
L 221.183251 239.949283 
L 222.07505 238.366195 
L 222.595266 237.714388 
L 222.892533 237.640584 
L 223.189799 237.810313 
L 223.635699 238.406977 
L 224.899081 240.322069 
L 225.493614 240.779293 
L 226.01383 240.921594 
L 226.534046 240.84139 
L 227.054262 240.545746 
L 227.723112 239.887632 
L 228.912177 238.671582 
L 229.358077 238.561125 
L 229.803976 238.696088 
L 231.438942 239.449885 
L 231.959158 239.311855 
L 232.553691 238.877404 
L 234.188656 237.416062 
L 234.560239 237.486425 
L 235.006138 237.872858 
L 236.789737 239.843945 
L 237.235636 239.880288 
L 237.681536 239.671461 
L 238.127436 239.216684 
L 238.647652 238.366123 
L 239.316501 236.78394 
L 240.282617 234.48119 
L 240.579883 234.259471 
L 240.802833 234.345329 
L 241.1001 234.769926 
L 241.694632 236.213165 
L 242.437798 237.840661 
L 242.883698 238.366103 
L 243.255281 238.529233 
L 243.626864 238.471074 
L 244.072764 238.155555 
L 244.667296 237.403874 
L 245.484779 235.927081 
L 246.971111 233.094111 
L 247.491327 232.586254 
L 248.160177 232.293243 
L 248.680393 232.002936 
L 249.126292 231.495344 
L 249.646509 230.506018 
L 250.315358 228.679307 
L 252.098956 223.454382 
L 252.619173 222.638752 
L 252.990756 222.387118 
L 253.288022 222.394571 
L 253.659605 222.659397 
L 254.105505 223.319828 
L 254.700037 224.662108 
L 256.929536 230.279466 
L 257.524068 230.993702 
L 259.23335 232.575438 
L 261.537165 235.723639 
L 262.131698 236.059089 
L 262.577597 236.06901 
L 262.94918 235.868372 
L 263.39508 235.326194 
L 263.915296 234.280448 
L 264.807095 232.38305 
L 265.104362 232.185091 
L 265.327311 232.267089 
L 265.624578 232.648158 
L 266.293427 234.060157 
L 267.036593 235.417354 
L 267.556809 235.961621 
L 268.077026 236.183297 
L 268.522925 236.133845 
L 268.968825 235.865844 
L 269.489041 235.290429 
L 270.901056 233.523856 
L 271.272639 233.502186 
L 271.644222 233.719451 
L 272.981921 234.738989 
L 273.427821 234.714213 
L 273.87372 234.449142 
L 274.468253 233.792518 
L 275.434369 232.705943 
L 275.731635 232.637264 
L 276.028902 232.776841 
L 276.400485 233.221968 
L 278.03545 235.636888 
L 278.407033 235.754425 
L 278.778616 235.656 
L 279.224516 235.257802 
L 279.744732 234.41078 
L 280.339265 232.968034 
L 281.379697 230.384266 
L 281.676963 230.210156 
L 281.899913 230.355801 
L 282.19718 230.874205 
L 283.832145 234.466058 
L 284.203728 234.661822 
L 284.575311 234.605985 
L 285.02121 234.259464 
L 285.541427 233.549627 
L 286.358909 231.981341 
L 287.622291 229.495407 
L 288.142508 228.924218 
L 288.811357 228.558253 
L 289.331573 228.205559 
L 289.777473 227.625352 
L 290.297689 226.523741 
L 291.040855 224.28452 
L 292.45287 219.855883 
L 292.973087 218.884543 
L 293.34467 218.551095 
L 293.641936 218.517074 
L 293.939202 218.688938 
L 294.310785 219.176067 
L 294.831002 220.290498 
L 295.648484 222.677116 
L 296.83755 226.061477 
L 297.506399 227.289011 
L 298.175249 228.034679 
L 299.141364 229.077182 
L 300.10748 230.598082 
L 301.147913 232.098048 
L 301.816762 232.688906 
L 302.262662 232.838073 
L 302.634245 232.766283 
L 303.005828 232.482977 
L 303.451727 231.85205 
L 304.715109 229.778255 
L 305.012376 229.792093 
L 305.309642 230.087189 
L 305.829858 231.01853 
L 306.721658 232.57739 
L 307.241874 233.084906 
L 307.687773 233.257043 
L 308.133673 233.19572 
L 308.579573 232.911498 
L 309.248422 232.156504 
L 310.065905 231.254877 
L 310.437488 231.123999 
L 310.809071 231.226492 
L 311.403603 231.689923 
L 312.072453 232.157505 
L 312.518352 232.235419 
L 312.964252 232.085608 
L 313.484468 231.663579 
L 314.599217 230.666084 
L 314.9708 230.671711 
L 315.342383 230.951217 
L 315.936916 231.795895 
L 316.754399 232.922505 
L 317.200298 233.209443 
L 317.571881 233.216114 
L 317.943464 233.00829 
L 318.389364 232.485308 
L 318.983897 231.373837 
L 320.172962 228.98844 
L 320.470229 228.865997 
L 320.693179 228.98518 
L 321.064762 229.526324 
L 322.476777 232.051451 
L 322.84836 232.229581 
L 323.219943 232.162318 
L 323.665843 231.801283 
L 324.260375 230.949819 
L 325.300808 228.92524 
L 326.11829 227.528736 
L 326.712823 226.910503 
L 327.678939 226.038423 
L 328.199155 225.156525 
L 328.793688 223.625543 
L 331.023186 217.192955 
L 331.394769 216.843972 
L 331.692035 216.810648 
L 331.989302 216.995491 
L 332.360885 217.514268 
L 332.881101 218.69185 
L 333.7729 221.414289 
L 334.813333 224.428446 
L 335.482182 225.751803 
L 336.373981 226.958608 
L 337.340097 228.364165 
L 338.752112 230.470756 
L 339.346645 231.005089 
L 339.792545 231.17338 
L 340.238444 231.097042 
L 340.684344 230.761013 
L 342.170676 229.312823 
L 342.467942 229.435339 
L 342.913842 229.939654 
L 344.325857 231.804626 
L 344.846074 232.05231 
L 345.291973 232.033264 
L 345.812189 231.769989 
L 347.372838 230.707142 
L 347.818738 230.793416 
L 348.710537 231.322318 
L 349.30507 231.514685 
L 349.825286 231.426748 
L 350.419819 231.068706 
L 351.385934 230.455763 
L 351.757517 230.455026 
L 352.1291 230.655163 
L 352.723633 231.27746 
L 353.541116 232.100503 
L 353.987015 232.266492 
L 354.358598 232.196971 
L 354.804498 231.861727 
L 355.324714 231.162342 
L 356.73673 229.030481 
L 357.033996 228.979179 
L 357.331262 229.150531 
L 357.777162 229.711705 
L 358.668961 230.905965 
L 359.114861 231.141759 
L 359.486444 231.092413 
L 359.932343 230.760989 
L 360.526876 229.952144 
L 362.979324 226.072586 
L 363.72249 225.117346 
L 364.242706 224.07354 
L 364.911556 222.174534 
L 366.546521 217.189742 
L 366.99242 216.501155 
L 367.364003 216.303762 
L 367.66127 216.403101 
L 368.032853 216.835627 
L 368.478752 217.748957 
L 369.221918 219.910342 
L 370.633934 224.082374 
L 371.3771 225.546067 
L 373.680915 229.129962 
L 374.424081 229.985799 
L 374.944297 230.304478 
L 375.390196 230.348845 
L 375.836096 230.178899 
L 377.322428 229.370654 
L 377.694011 229.556161 
L 378.288544 230.179708 
L 379.25466 231.190217 
L 379.774876 231.439355 
L 380.295092 231.438305 
L 380.889625 231.185869 
L 382.07869 230.612671 
L 382.598907 230.665264 
L 384.308188 231.137874 
L 384.902721 230.924791 
L 386.166103 230.382018 
L 386.612003 230.480768 
L 387.206536 230.891248 
L 388.098335 231.52629 
L 388.544235 231.595709 
L 388.990134 231.42729 
L 389.51035 230.944057 
L 391.219632 229.03108 
L 391.591215 229.097258 
L 392.111431 229.510135 
L 392.928914 230.189122 
L 393.374814 230.263343 
L 393.746397 230.109299 
L 394.192296 229.683264 
L 394.861146 228.674954 
L 396.793377 225.511025 
L 397.61086 224.204917 
L 398.205393 222.800998 
L 399.022875 220.220804 
L 400.063308 217.024191 
L 400.583524 216.076328 
L 400.955107 215.811515 
L 401.252373 215.866225 
L 401.54964 216.152398 
L 401.995539 216.96982 
L 402.664389 218.828473 
L 404.37367 223.874498 
L 405.26547 225.618704 
L 406.974751 228.375299 
L 407.717917 229.20475 
L 408.238134 229.508202 
L 408.75835 229.555928 
L 409.427199 229.343832 
L 410.096049 229.17754 
L 410.541948 229.293687 
L 411.062164 229.677545 
L 412.325547 230.728768 
L 412.920079 230.884571 
L 413.514612 230.788936 
L 415.000944 230.39276 
L 415.74411 230.572261 
L 416.635909 230.773488 
L 417.230442 230.688243 
L 418.939724 230.232283 
L 419.534257 230.463092 
L 420.649006 230.962418 
L 421.094905 230.912326 
L 421.615122 230.598603 
L 422.358288 229.803516 
L 423.17577 229.00493 
L 423.62167 228.871645 
L 424.067569 228.983665 
L 425.256635 229.433967 
L 425.702535 229.27604 
L 426.148434 228.872313 
L 426.817284 227.901128 
L 429.418365 223.289477 
L 430.087214 221.519946 
L 432.093762 215.683526 
L 432.465345 215.311838 
L 432.762612 215.287843 
L 433.059878 215.506705 
L 433.431461 216.095179 
L 433.951677 217.389282 
L 436.552758 224.678916 
L 437.816141 226.935509 
L 438.70794 228.143663 
L 439.302473 228.629713 
L 439.897005 228.824329 
L 441.680604 229.066522 
L 442.64672 229.800558 
L 443.389886 230.219912 
L 443.984418 230.310461 
L 444.801901 230.175713 
L 445.6937 230.082993 
L 446.659816 230.275404 
L 447.477299 230.343394 
L 448.294781 230.146651 
L 449.260897 229.931288 
L 449.929746 230.048639 
L 451.118812 230.342086 
L 451.639028 230.195103 
L 452.233561 229.761727 
L 453.645576 228.596787 
L 454.165793 228.52964 
L 455.429175 228.569024 
L 455.875074 228.29177 
L 456.395291 227.697264 
L 457.212773 226.348906 
L 459.145005 222.60597 
L 459.888171 220.546548 
L 461.671769 215.247051 
L 462.043352 214.787943 
L 462.340619 214.698587 
L 462.637885 214.861427 
L 463.009468 215.397172 
L 463.529684 216.651371 
L 464.644433 220.213331 
L 465.610549 222.947001 
L 466.576665 225.027725 
L 467.617097 226.77841 
L 468.360263 227.625205 
L 468.954796 228.005428 
L 469.772279 228.2353 
L 470.589761 228.526374 
L 471.630194 229.219767 
L 472.447676 229.626338 
L 473.116526 229.713652 
L 475.19739 229.779173 
L 476.163506 229.86143 
L 477.129622 229.668822 
L 478.021421 229.543203 
L 479.061854 229.691628 
L 479.730703 229.66986 
L 480.325236 229.401733 
L 481.217035 228.673391 
L 482.034518 228.122958 
L 482.703367 227.955872 
L 483.52085 227.748528 
L 484.041066 227.363018 
L 484.635599 226.603116 
L 485.527398 225.018372 
L 486.865097 222.207298 
L 487.682579 219.930771 
L 489.466178 214.603127 
L 489.837761 214.146294 
L 490.135027 214.066851 
L 490.432294 214.246685 
L 490.803877 214.810826 
L 491.324093 216.107608 
L 492.661792 220.423226 
L 493.627907 223.037942 
L 494.594023 225.040926 
L 495.411506 226.301868 
L 496.154672 227.045723 
L 496.972154 227.511648 
L 498.235537 228.210535 
L 499.498919 228.929491 
L 500.242085 229.081578 
L 503.586332 229.22554 
L 505.072664 229.030859 
L 506.336046 228.971718 
L 506.930579 228.698406 
L 507.971011 227.899709 
L 508.86281 227.358096 
L 510.051876 226.714572 
L 510.646409 226.04833 
L 511.389575 224.808165 
L 512.504324 222.443578 
L 513.396123 220.106074 
L 514.585189 216.190307 
L 515.328355 214.131275 
L 515.774254 213.476172 
L 516.071521 213.359385 
L 516.368787 213.509579 
L 516.74037 214.049928 
L 517.260586 215.336924 
L 518.375335 218.991487 
L 519.415768 222.033914 
L 520.381883 224.167871 
L 521.199366 225.476387 
L 521.942532 226.27342 
L 523.057281 227.073679 
L 524.840879 228.171909 
L 525.732679 228.395541 
L 528.185126 228.639843 
L 529.745775 228.404582 
L 531.306424 228.14481 
L 532.04959 227.706437 
L 534.799304 225.523036 
L 535.468153 224.537544 
L 536.285636 222.893124 
L 537.326068 220.286396 
L 538.292184 217.232063 
L 539.48125 213.522135 
L 539.927149 212.760223 
L 540.224416 212.571071 
L 540.521682 212.655772 
L 540.818948 213.005392 
L 541.264848 213.95772 
L 542.008014 216.268152 
L 543.494346 220.994026 
L 544.386145 223.097017 
L 545.203628 224.505313 
L 546.021111 225.478778 
L 547.210176 226.501483 
L 548.324925 227.235749 
L 549.216724 227.557985 
L 550.85169 227.843498 
L 551.817805 227.828083 
L 553.824354 227.457898 
L 554.641836 227.127705 
L 555.459319 226.533349 
L 557.317234 224.820263 
L 557.986083 223.880876 
L 558.729249 222.426163 
L 559.695365 219.98268 
L 560.735797 216.684606 
L 561.99918 212.641631 
L 562.445079 211.849504 
L 562.742346 211.646031 
L 563.039612 211.723473 
L 563.336878 212.07338 
L 563.782778 213.038105 
L 564.451627 215.129777 
L 566.086593 220.402832 
L 566.978392 222.473416 
L 567.795874 223.838019 
L 568.687674 224.903781 
L 569.802423 225.887517 
L 570.694222 226.402342 
L 571.734654 226.736199 
L 572.92372 226.901533 
L 573.889836 226.806992 
L 575.301851 226.428569 
L 576.119334 226.008686 
L 577.011133 225.266757 
L 578.274515 223.89526 
L 579.017681 222.786402 
L 579.760847 221.239352 
L 580.652646 218.80473 
L 581.767395 215.073381 
L 582.807828 211.698047 
L 583.253727 210.827995 
L 583.550994 210.571265 
L 583.84826 210.600624 
L 584.145526 210.911729 
L 584.517109 211.654765 
L 585.111642 213.432049 
L 587.043874 219.692599 
L 587.935673 221.719239 
L 588.753156 223.077711 
L 589.644955 224.155899 
L 590.536754 224.914171 
L 591.428553 225.380519 
L 592.394669 225.639463 
L 593.360785 225.666254 
L 594.401217 225.449955 
L 595.367333 225.043663 
L 596.184816 224.44145 
L 597.076615 223.479623 
L 597.968414 222.218356 
L 598.71158 220.798682 
L 599.529063 218.714849 
L 600.495179 215.597583 
L 602.130144 210.1063 
L 602.576043 209.353619 
L 602.87331 209.200151 
L 603.170576 209.342771 
L 603.467843 209.766876 
L 603.913742 210.843561 
L 604.731225 213.602046 
L 606.068924 218.038806 
L 606.960723 220.213114 
L 607.778205 221.670804 
L 608.595688 222.726095 
L 609.413171 223.44636 
L 610.230653 223.888534 
L 611.048136 224.100465 
L 611.865618 224.082243 
L 612.757418 223.814709 
L 613.5749 223.343463 
L 614.318066 222.662591 
L 615.135549 221.598646 
L 615.953031 220.174664 
L 616.696197 218.452927 
L 617.51368 216.001597 
L 618.777062 211.357843 
L 619.594545 208.638175 
L 620.040444 207.738939 
L 620.337711 207.485304 
L 620.560661 207.494583 
L 620.857927 207.769953 
L 621.22951 208.494677 
L 621.824043 210.290811 
L 623.979224 217.417767 
L 624.796707 219.205956 
L 625.614189 220.480464 
L 626.357355 221.261619 
L 627.100521 221.741096 
L 627.843687 221.954783 
L 628.512537 221.925974 
L 629.255703 221.655541 
L 629.998869 221.127205 
L 630.742035 220.291568 
L 631.485201 219.10369 
L 632.302683 217.332707 
L 633.120166 214.968654 
L 634.086282 211.425997 
L 635.498297 206.239082 
L 635.944197 205.335454 
L 636.241463 205.096658 
L 636.464413 205.124474 
L 636.761679 205.431141 
L 637.133262 206.198999 
L 637.727795 208.055442 
L 639.734343 214.825837 
L 640.551826 216.631636 
L 641.294992 217.751729 
L 641.963841 218.385815 
L 642.558374 218.683515 
L 643.152907 218.745046 
L 643.74744 218.57595 
L 644.341973 218.171917 
L 645.010822 217.41724 
L 645.679671 216.306051 
L 646.422837 214.603169 
L 647.166003 212.319114 
L 648.132119 208.548808 
L 649.618451 202.684812 
L 650.064351 201.713079 
L 650.361617 201.444088 
L 650.584567 201.455687 
L 650.881833 201.746744 
L 651.253416 202.499678 
L 651.847949 204.328702 
L 653.631548 210.227555 
L 654.374714 211.839517 
L 654.969246 212.664593 
L 655.489463 213.072563 
L 656.009679 213.199136 
L 656.455578 213.081451 
L 656.975795 212.674532 
L 657.496011 211.980787 
L 658.090544 210.815625 
L 658.759393 208.974021 
L 659.502559 206.257963 
L 660.468675 201.786656 
L 661.732057 195.93539 
L 662.252273 194.448119 
L 662.623856 193.947156 
L 662.921123 193.906207 
L 663.218389 194.139223 
L 663.664289 194.88465 
L 664.556088 197.005885 
L 665.150621 198.220274 
L 665.81947 198.996806 
L 666.339686 198.992571 
L 666.636953 198.704246 
L 667.008536 198.040619 
L 667.380119 197.114002 
L 667.974652 194.830733 
L 668.569184 191.471661 
L 669.089401 187.329194 
L 669.75825 180.336234 
L 670.427099 170.761629 
L 671.170265 155.847611 
L 671.764798 140.667474 
L 672.062065 126.370632 
L 672.433648 96.759722 
L 673.176814 33.955513 
L 673.47408 25.140672 
L 673.771346 21.709706 
L 674.068613 20.468125 
L 674.365879 20.03083 
L 674.737462 19.859412 
L 675.554945 19.800447 
L 675.629261 19.8 
L 675.629261 19.8 
" clip-path="url(#pcc279d7f29)" style="fill: none; stroke: #1f77b4; stroke-width: 1.5; stroke-linecap: square"/>
   </g>
   <g id="line2d_15">
    <path d="M 36.465625 182.528911 
L 706.065625 182.528911 
" clip-path="url(#pcc279d7f29)" style="fill: none; stroke-dasharray: 2.22,0.96; stroke-dashoffset: 0; stroke: #ff0000; stroke-width: 0.6"/>
   </g>
   <g id="line2d_16">
    <path d="M 66.901989 271.8 
L 67.347888 271.590381 
L 68.61127 270.719348 
L 69.577386 270.189825 
L 72.401417 268.936698 
L 73.516166 268.475982 
L 74.333649 268.38295 
L 75.225448 268.520104 
L 82.805741 270.42466 
L 84.069123 270.361408 
L 85.852722 270.009239 
L 88.007903 269.649539 
L 90.831934 269.198858 
L 93.953231 268.383413 
L 96.925895 267.455026 
L 102.796907 265.201289 
L 104.803455 264.13074 
L 108.890868 261.642976 
L 110.3772 260.433324 
L 112.012165 258.795788 
L 114.31598 256.129578 
L 116.471161 253.698782 
L 117.437277 252.913223 
L 118.254759 252.522595 
L 118.997925 252.421509 
L 119.741091 252.558746 
L 120.558574 252.941496 
L 121.74764 253.771696 
L 125.01757 256.171009 
L 126.355269 256.865109 
L 127.470018 257.212326 
L 128.584767 257.317889 
L 129.996782 257.185505 
L 131.483114 257.088408 
L 132.89513 257.262965 
L 134.455778 257.412876 
L 135.644844 257.288105 
L 137.205492 256.857751 
L 138.914774 256.439736 
L 142.184705 255.831355 
L 145.083052 254.915532 
L 146.718017 254.859434 
L 147.75845 254.686315 
L 148.650249 254.29635 
L 149.616365 253.605772 
L 151.771546 251.930522 
L 152.440396 251.797379 
L 153.332195 251.893791 
L 154.298311 251.94045 
L 154.96716 251.75721 
L 155.710326 251.307722 
L 156.602125 250.468439 
L 157.865507 248.912179 
L 159.500473 246.948911 
L 160.986805 245.21669 
L 161.878604 243.739405 
L 164.256735 239.462022 
L 164.851268 238.945158 
L 165.297167 238.808299 
L 165.743067 238.890681 
L 166.263283 239.243517 
L 166.932133 240.023206 
L 168.344148 242.175479 
L 169.38458 243.510309 
L 170.499329 244.526581 
L 172.059978 245.989671 
L 173.32336 247.109442 
L 174.140843 247.570672 
L 174.884009 247.742093 
L 175.478542 247.672215 
L 176.147391 247.350531 
L 178.079623 246.137086 
L 178.525522 246.236083 
L 179.120055 246.615747 
L 180.53207 247.609069 
L 181.275236 247.816657 
L 181.944086 247.780951 
L 182.687252 247.515678 
L 183.876317 246.78517 
L 184.768117 246.36408 
L 185.436966 246.301995 
L 187.815097 246.393245 
L 188.63258 246.005998 
L 190.416178 245.024674 
L 190.936394 245.042502 
L 191.605244 245.32866 
L 192.942943 245.987503 
L 193.537475 246.000067 
L 194.132008 245.761054 
L 194.726541 245.259284 
L 195.39539 244.381853 
L 197.178989 241.774273 
L 197.476255 241.739813 
L 197.847838 241.956082 
L 198.442371 242.684123 
L 199.259854 243.66574 
L 199.78007 243.965629 
L 200.22597 243.979973 
L 200.746186 243.7401 
L 201.340719 243.185277 
L 202.083885 242.166853 
L 204.462016 238.569848 
L 206.245614 237.01947 
L 206.840147 235.901071 
L 207.731946 233.626659 
L 209.069645 230.245898 
L 209.664178 229.314709 
L 210.110077 228.977654 
L 210.48166 228.952151 
L 210.853243 229.155432 
L 211.299143 229.676209 
L 211.893676 230.749635 
L 214.42044 235.860469 
L 215.08929 236.46745 
L 216.278355 237.434664 
L 217.170154 238.576582 
L 218.35922 240.044737 
L 219.102386 240.645447 
L 219.696919 240.878186 
L 220.217135 240.838734 
L 220.663035 240.571934 
L 221.183251 239.949283 
L 222.07505 238.366195 
L 222.595266 237.714388 
L 222.892533 237.640584 
L 223.189799 237.810313 
L 223.635699 238.406977 
L 224.899081 240.322069 
L 225.493614 240.779293 
L 226.01383 240.921594 
L 226.534046 240.84139 
L 227.054262 240.545746 
L 227.723112 239.887632 
L 228.912177 238.671582 
L 229.358077 238.561125 
L 229.803976 238.696088 
L 231.438942 239.449885 
L 231.959158 239.311855 
L 232.553691 238.877404 
L 234.188656 237.416062 
L 234.560239 237.486425 
L 235.006138 237.872858 
L 236.789737 239.843945 
L 237.235636 239.880288 
L 237.681536 239.671461 
L 238.127436 239.216684 
L 238.647652 238.366123 
L 239.316501 236.78394 
L 240.282617 234.48119 
L 240.579883 234.259471 
L 240.802833 234.345329 
L 241.1001 234.769926 
L 241.694632 236.213165 
L 242.437798 237.840661 
L 242.883698 238.366103 
L 243.255281 238.529233 
L 243.626864 238.471074 
L 244.072764 238.155555 
L 244.667296 237.403874 
L 245.484779 235.927081 
L 246.971111 233.094111 
L 247.491327 232.586254 
L 248.160177 232.293243 
L 248.680393 232.002936 
L 249.126292 231.495344 
L 249.646509 230.506018 
L 250.315358 228.679307 
L 252.098956 223.454382 
L 252.619173 222.638752 
L 252.990756 222.387118 
L 253.288022 222.394571 
L 253.659605 222.659397 
L 254.105505 223.319828 
L 254.700037 224.662108 
L 256.929536 230.279466 
L 257.524068 230.993702 
L 259.23335 232.575438 
L 261.537165 235.723639 
L 262.131698 236.059089 
L 262.577597 236.06901 
L 262.94918 235.868372 
L 263.39508 235.326194 
L 263.915296 234.280448 
L 264.807095 232.38305 
L 265.104362 232.185091 
L 265.327311 232.267089 
L 265.624578 232.648158 
L 266.293427 234.060157 
L 267.036593 235.417354 
L 267.556809 235.961621 
L 268.077026 236.183297 
L 268.522925 236.133845 
L 268.968825 235.865844 
L 269.489041 235.290429 
L 270.901056 233.523856 
L 271.272639 233.502186 
L 271.644222 233.719451 
L 272.981921 234.738989 
L 273.427821 234.714213 
L 273.87372 234.449142 
L 274.468253 233.792518 
L 275.434369 232.705943 
L 275.731635 232.637264 
L 276.028902 232.776841 
L 276.400485 233.221968 
L 278.03545 235.636888 
L 278.407033 235.754425 
L 278.778616 235.656 
L 279.224516 235.257802 
L 279.744732 234.41078 
L 280.339265 232.968034 
L 281.379697 230.384266 
L 281.676963 230.210156 
L 281.899913 230.355801 
L 282.19718 230.874205 
L 283.832145 234.466058 
L 284.203728 234.661822 
L 284.575311 234.605985 
L 285.02121 234.259464 
L 285.541427 233.549627 
L 286.358909 231.981341 
L 287.622291 229.495407 
L 288.142508 228.924218 
L 288.811357 228.558253 
L 289.331573 228.205559 
L 289.777473 227.625352 
L 290.297689 226.523741 
L 291.040855 224.28452 
L 292.45287 219.855883 
L 292.973087 218.884543 
L 293.34467 218.551095 
L 293.641936 218.517074 
L 293.939202 218.688938 
L 294.310785 219.176067 
L 294.831002 220.290498 
L 295.648484 222.677116 
L 296.83755 226.061477 
L 297.506399 227.289011 
L 298.175249 228.034679 
L 299.141364 229.077182 
L 300.10748 230.598082 
L 301.147913 232.098048 
L 301.816762 232.688906 
L 302.262662 232.838073 
L 302.634245 232.766283 
L 303.005828 232.482977 
L 303.451727 231.85205 
L 304.715109 229.778255 
L 305.012376 229.792093 
L 305.309642 230.087189 
L 305.829858 231.01853 
L 306.721658 232.57739 
L 307.241874 233.084906 
L 307.687773 233.257043 
L 308.133673 233.19572 
L 308.579573 232.911498 
L 309.248422 232.156504 
L 310.065905 231.254877 
L 310.437488 231.123999 
L 310.809071 231.226492 
L 311.403603 231.689923 
L 312.072453 232.157505 
L 312.518352 232.235419 
L 312.964252 232.085608 
L 313.484468 231.663579 
L 314.599217 230.666084 
L 314.9708 230.671711 
L 315.342383 230.951217 
L 315.936916 231.795895 
L 316.754399 232.922505 
L 317.200298 233.209443 
L 317.571881 233.216114 
L 317.943464 233.00829 
L 318.389364 232.485308 
L 318.983897 231.373837 
L 320.172962 228.98844 
L 320.470229 228.865997 
L 320.693179 228.98518 
L 321.064762 229.526324 
L 322.476777 232.051451 
L 322.84836 232.229581 
L 323.219943 232.162318 
L 323.665843 231.801283 
L 324.260375 230.949819 
L 325.300808 228.92524 
L 326.11829 227.528736 
L 326.712823 226.910503 
L 327.678939 226.038423 
L 328.199155 225.156525 
L 328.793688 223.625543 
L 331.023186 217.192955 
L 331.394769 216.843972 
L 331.692035 216.810648 
L 331.989302 216.995491 
L 332.360885 217.514268 
L 332.881101 218.69185 
L 333.7729 221.414289 
L 334.813333 224.428446 
L 335.482182 225.751803 
L 336.373981 226.958608 
L 337.340097 228.364165 
L 338.752112 230.470756 
L 339.346645 231.005089 
L 339.792545 231.17338 
L 340.238444 231.097042 
L 340.684344 230.761013 
L 342.170676 229.312823 
L 342.467942 229.435339 
L 342.913842 229.939654 
L 344.325857 231.804626 
L 344.846074 232.05231 
L 345.291973 232.033264 
L 345.812189 231.769989 
L 347.372838 230.707142 
L 347.818738 230.793416 
L 348.710537 231.322318 
L 349.30507 231.514685 
L 349.825286 231.426748 
L 350.419819 231.068706 
L 351.385934 230.455763 
L 351.757517 230.455026 
L 352.1291 230.655163 
L 352.723633 231.27746 
L 353.541116 232.100503 
L 353.987015 232.266492 
L 354.358598 232.196971 
L 354.804498 231.861727 
L 355.324714 231.162342 
L 356.73673 229.030481 
L 357.033996 228.979179 
L 357.331262 229.150531 
L 357.777162 229.711705 
L 358.668961 230.905965 
L 359.114861 231.141759 
L 359.486444 231.092413 
L 359.932343 230.760989 
L 360.526876 229.952144 
L 362.979324 226.072586 
L 363.72249 225.117346 
L 364.242706 224.07354 
L 364.911556 222.174534 
L 366.546521 217.189742 
L 366.99242 216.501155 
L 367.364003 216.303762 
L 367.66127 216.403101 
L 368.032853 216.835627 
L 368.478752 217.748957 
L 369.221918 219.910342 
L 370.633934 224.082374 
L 371.3771 225.546067 
L 373.680915 229.129962 
L 374.424081 229.985799 
L 374.944297 230.304478 
L 375.390196 230.348845 
L 375.836096 230.178899 
L 377.322428 229.370654 
L 377.694011 229.556161 
L 378.288544 230.179708 
L 379.25466 231.190217 
L 379.774876 231.439355 
L 380.295092 231.438305 
L 380.889625 231.185869 
L 382.07869 230.612671 
L 382.598907 230.665264 
L 384.308188 231.137874 
L 384.902721 230.924791 
L 386.166103 230.382018 
L 386.612003 230.480768 
L 387.206536 230.891248 
L 388.098335 231.52629 
L 388.544235 231.595709 
L 388.990134 231.42729 
L 389.51035 230.944057 
L 391.219632 229.03108 
L 391.591215 229.097258 
L 392.111431 229.510135 
L 392.928914 230.189122 
L 393.374814 230.263343 
L 393.746397 230.109299 
L 394.192296 229.683264 
L 394.861146 228.674954 
L 396.793377 225.511025 
L 397.61086 224.204917 
L 398.205393 222.800998 
L 399.022875 220.220804 
L 400.063308 217.024191 
L 400.583524 216.076328 
L 400.955107 215.811515 
L 401.252373 215.866225 
L 401.54964 216.152398 
L 401.995539 216.96982 
L 402.664389 218.828473 
L 404.37367 223.874498 
L 405.26547 225.618704 
L 406.974751 228.375299 
L 407.717917 229.20475 
L 408.238134 229.508202 
L 408.75835 229.555928 
L 409.427199 229.343832 
L 410.096049 229.17754 
L 410.541948 229.293687 
L 411.062164 229.677545 
L 412.325547 230.728768 
L 412.920079 230.884571 
L 413.514612 230.788936 
L 415.000944 230.39276 
L 415.74411 230.572261 
L 416.635909 230.773488 
L 417.230442 230.688243 
L 418.939724 230.232283 
L 419.534257 230.463092 
L 420.649006 230.962418 
L 421.094905 230.912326 
L 421.615122 230.598603 
L 422.358288 229.803516 
L 423.17577 229.00493 
L 423.62167 228.871645 
L 424.067569 228.983665 
L 425.256635 229.433967 
L 425.702535 229.27604 
L 426.148434 228.872313 
L 426.817284 227.901128 
L 429.418365 223.289477 
L 430.087214 221.519946 
L 432.093762 215.683526 
L 432.465345 215.311838 
L 432.762612 215.287843 
L 433.059878 215.506705 
L 433.431461 216.095179 
L 433.951677 217.389282 
L 436.552758 224.678916 
L 437.816141 226.935509 
L 438.70794 228.143663 
L 439.302473 228.629713 
L 439.897005 228.824329 
L 441.680604 229.066522 
L 442.64672 229.800558 
L 443.389886 230.219912 
L 443.984418 230.310461 
L 444.801901 230.175713 
L 445.6937 230.082993 
L 446.659816 230.275404 
L 447.477299 230.343394 
L 448.294781 230.146651 
L 449.260897 229.931288 
L 449.929746 230.048639 
L 451.118812 230.342086 
L 451.639028 230.195103 
L 452.233561 229.761727 
L 453.645576 228.596787 
L 454.165793 228.52964 
L 455.429175 228.569024 
L 455.875074 228.29177 
L 456.395291 227.697264 
L 457.212773 226.348906 
L 459.145005 222.60597 
L 459.888171 220.546548 
L 461.671769 215.247051 
L 462.043352 214.787943 
L 462.340619 214.698587 
L 462.637885 214.861427 
L 463.009468 215.397172 
L 463.529684 216.651371 
L 464.644433 220.213331 
L 465.610549 222.947001 
L 466.576665 225.027725 
L 467.617097 226.77841 
L 468.360263 227.625205 
L 468.954796 228.005428 
L 469.772279 228.2353 
L 470.589761 228.526374 
L 471.630194 229.219767 
L 472.447676 229.626338 
L 473.116526 229.713652 
L 475.19739 229.779173 
L 476.163506 229.86143 
L 477.129622 229.668822 
L 478.021421 229.543203 
L 479.061854 229.691628 
L 479.730703 229.66986 
L 480.325236 229.401733 
L 481.217035 228.673391 
L 482.034518 228.122958 
L 482.703367 227.955872 
L 483.52085 227.748528 
L 484.041066 227.363018 
L 484.635599 226.603116 
L 485.527398 225.018372 
L 486.865097 222.207298 
L 487.682579 219.930771 
L 489.466178 214.603127 
L 489.837761 214.146294 
L 490.135027 214.066851 
L 490.432294 214.246685 
L 490.803877 214.810826 
L 491.324093 216.107608 
L 492.661792 220.423226 
L 493.627907 223.037942 
L 494.594023 225.040926 
L 495.411506 226.301868 
L 496.154672 227.045723 
L 496.972154 227.511648 
L 498.235537 228.210535 
L 499.498919 228.929491 
L 500.242085 229.081578 
L 503.586332 229.22554 
L 505.072664 229.030859 
L 506.336046 228.971718 
L 506.930579 228.698406 
L 507.971011 227.899709 
L 508.86281 227.358096 
L 510.051876 226.714572 
L 510.646409 226.04833 
L 511.389575 224.808165 
L 512.504324 222.443578 
L 513.396123 220.106074 
L 514.585189 216.190307 
L 515.328355 214.131275 
L 515.774254 213.476172 
L 516.071521 213.359385 
L 516.368787 213.509579 
L 516.74037 214.049928 
L 517.260586 215.336924 
L 518.375335 218.991487 
L 519.415768 222.033914 
L 520.381883 224.167871 
L 521.199366 225.476387 
L 521.942532 226.27342 
L 523.057281 227.073679 
L 524.840879 228.171909 
L 525.732679 228.395541 
L 528.185126 228.639843 
L 529.745775 228.404582 
L 531.306424 228.14481 
L 532.04959 227.706437 
L 534.799304 225.523036 
L 535.468153 224.537544 
L 536.285636 222.893124 
L 537.326068 220.286396 
L 538.292184 217.232063 
L 539.48125 213.522135 
L 539.927149 212.760223 
L 540.224416 212.571071 
L 540.521682 212.655772 
L 540.818948 213.005392 
L 541.264848 213.95772 
L 542.008014 216.268152 
L 543.494346 220.994026 
L 544.386145 223.097017 
L 545.203628 224.505313 
L 546.021111 225.478778 
L 547.210176 226.501483 
L 548.324925 227.235749 
L 549.216724 227.557985 
L 550.85169 227.843498 
L 551.817805 227.828083 
L 553.824354 227.457898 
L 554.641836 227.127705 
L 555.459319 226.533349 
L 557.317234 224.820263 
L 557.986083 223.880876 
L 558.729249 222.426163 
L 559.695365 219.98268 
L 560.735797 216.684606 
L 561.99918 212.641631 
L 562.445079 211.849504 
L 562.742346 211.646031 
L 563.039612 211.723473 
L 563.336878 212.07338 
L 563.782778 213.038105 
L 564.451627 215.129777 
L 566.086593 220.402832 
L 566.978392 222.473416 
L 567.795874 223.838019 
L 568.687674 224.903781 
L 569.802423 225.887517 
L 570.694222 226.402342 
L 571.734654 226.736199 
L 572.92372 226.901533 
L 573.889836 226.806992 
L 575.301851 226.428569 
L 576.119334 226.008686 
L 577.011133 225.266757 
L 578.274515 223.89526 
L 579.017681 222.786402 
L 579.760847 221.239352 
L 580.652646 218.80473 
L 581.767395 215.073381 
L 582.807828 211.698047 
L 583.253727 210.827995 
L 583.550994 210.571265 
L 583.84826 210.600624 
L 584.145526 210.911729 
L 584.517109 211.654765 
L 585.111642 213.432049 
L 587.043874 219.692599 
L 587.935673 221.719239 
L 588.753156 223.077711 
L 589.644955 224.155899 
L 590.536754 224.914171 
L 591.428553 225.380519 
L 592.394669 225.639463 
L 593.360785 225.666254 
L 594.401217 225.449955 
L 595.367333 225.043663 
L 596.184816 224.44145 
L 597.076615 223.479623 
L 597.968414 222.218356 
L 598.71158 220.798682 
L 599.529063 218.714849 
L 600.495179 215.597583 
L 602.130144 210.1063 
L 602.576043 209.353619 
L 602.87331 209.200151 
L 603.170576 209.342771 
L 603.467843 209.766876 
L 603.913742 210.843561 
L 604.731225 213.602046 
L 606.068924 218.038806 
L 606.960723 220.213114 
L 607.778205 221.670804 
L 608.595688 222.726095 
L 609.413171 223.44636 
L 610.230653 223.888534 
L 611.048136 224.100465 
L 611.865618 224.082243 
L 612.757418 223.814709 
L 613.5749 223.343463 
L 614.318066 222.662591 
L 615.135549 221.598646 
L 615.953031 220.174664 
L 616.696197 218.452927 
L 617.51368 216.001597 
L 618.777062 211.357843 
L 619.594545 208.638175 
L 620.040444 207.738939 
L 620.337711 207.485304 
L 620.560661 207.494583 
L 620.857927 207.769953 
L 621.22951 208.494677 
L 621.824043 210.290811 
L 623.979224 217.417767 
L 624.796707 219.205956 
L 625.614189 220.480464 
L 626.357355 221.261619 
L 627.100521 221.741096 
L 627.843687 221.954783 
L 628.512537 221.925974 
L 629.255703 221.655541 
L 629.998869 221.127205 
L 630.742035 220.291568 
L 631.485201 219.10369 
L 632.302683 217.332707 
L 633.120166 214.968654 
L 634.086282 211.425997 
L 635.498297 206.239082 
L 635.944197 205.335454 
L 636.241463 205.096658 
L 636.464413 205.124474 
L 636.761679 205.431141 
L 637.133262 206.198999 
L 637.727795 208.055442 
L 639.734343 214.825837 
L 640.551826 216.631636 
L 641.294992 217.751729 
L 641.963841 218.385815 
L 642.558374 218.683515 
L 643.152907 218.745046 
L 643.74744 218.57595 
L 644.341973 218.171917 
L 645.010822 217.41724 
L 645.679671 216.306051 
L 646.422837 214.603169 
L 647.166003 212.319114 
L 648.132119 208.548808 
L 649.618451 202.684812 
L 650.064351 201.713079 
L 650.361617 201.444088 
L 650.584567 201.455687 
L 650.881833 201.746744 
L 651.253416 202.499678 
L 651.847949 204.328702 
L 653.631548 210.227555 
L 654.374714 211.839517 
L 654.969246 212.664593 
L 655.489463 213.072563 
L 656.009679 213.199136 
L 656.455578 213.081451 
L 656.975795 212.674532 
L 657.496011 211.980787 
L 658.090544 210.815625 
L 658.759393 208.974021 
L 659.502559 206.257963 
L 660.468675 201.786656 
L 661.732057 195.93539 
L 662.252273 194.448119 
L 662.623856 193.947156 
L 662.921123 193.906207 
L 663.218389 194.139223 
L 663.664289 194.88465 
L 664.556088 197.005885 
L 665.150621 198.220274 
L 665.81947 198.996806 
L 666.339686 198.992571 
L 666.636953 198.704246 
L 667.008536 198.040619 
L 667.380119 197.114002 
L 667.974652 194.830733 
L 668.569184 191.471661 
L 669.089401 187.329194 
L 669.5353 182.899105 
L 669.5353 182.899105 
" clip-path="url(#pcc279d7f29)" style="fill: none; stroke: #ff7f0e; stroke-width: 1.5; stroke-linecap: square"/>
   </g>
   <g id="patch_3">
    <path d="M 36.465625 284.4 
L 36.465625 7.2 
" style="fill: none; stroke: #000000; stroke-width: 0.8; stroke-linejoin: miter; stroke-linecap: square"/>
   </g>
   <g id="patch_4">
    <path d="M 706.065625 284.4 
L 706.065625 7.2 
" style="fill: none; stroke: #000000; stroke-width: 0.8; stroke-linejoin: miter; stroke-linecap: square"/>
   </g>
   <g id="patch_5">
    <path d="M 36.465625 284.4 
L 706.065625 284.4 
" style="fill: none; stroke: #000000; stroke-width: 0.8; stroke-linejoin: miter; stroke-linecap: square"/>
   </g>
   <g id="patch_6">
    <path d="M 36.465625 7.2 
L 706.065625 7.2 
" style="fill: none; stroke: #000000; stroke-width: 0.8; stroke-linejoin: miter; stroke-linecap: square"/>
   </g>
   <g id="legend_1">
    <g id="patch_7">
     <path d="M 43.465625 73.9125 
L 212.865625 73.9125 
Q 214.865625 73.9125 214.865625 71.9125 
L 214.865625 14.2 
Q 214.865625 12.2 212.865625 12.2 
L 43.465625 12.2 
Q 41.465625 12.2 41.465625 14.2 
L 41.465625 71.9125 
Q 41.465625 73.9125 43.465625 73.9125 
z
" style="fill: #ffffff; opacity: 0.8; stroke: #cccccc; stroke-linejoin: miter"/>
    </g>
    <g id="line2d_17">
     <path d="M 45.465625 20.298438 
L 55.465625 20.298438 
L 65.465625 20.298438 
" style="fill: none; stroke: #1f77b4; stroke-width: 1.5; stroke-linecap: square"/>
    </g>
    <g id="text_14">
     <!-- Mf before ISCO cut: $e$=0.32 -->
     <g transform="translate(73.465625 23.798438) scale(0.1 -0.1)">
      <defs>
       <path id="DejaVuSans-4d" d="M 628 4666 
L 1569 4666 
L 2759 1491 
L 3956 4666 
L 4897 4666 
L 4897 0 
L 4281 0 
L 4281 4097 
L 3078 897 
L 2444 897 
L 1241 4097 
L 1241 0 
L 628 0 
L 628 4666 
z
" transform="scale(0.015625)"/>
       <path id="DejaVuSans-66" d="M 2375 4863 
L 2375 4384 
L 1825 4384 
Q 1516 4384 1395 4259 
Q 1275 4134 1275 3809 
L 1275 3500 
L 2222 3500 
L 2222 3053 
L 1275 3053 
L 1275 0 
L 697 0 
L 697 3053 
L 147 3053 
L 147 3500 
L 697 3500 
L 697 3744 
Q 697 4328 969 4595 
Q 1241 4863 1831 4863 
L 2375 4863 
z
" transform="scale(0.015625)"/>
       <path id="DejaVuSans-20" transform="scale(0.015625)"/>
       <path id="DejaVuSans-62" d="M 3116 1747 
Q 3116 2381 2855 2742 
Q 2594 3103 2138 3103 
Q 1681 3103 1420 2742 
Q 1159 2381 1159 1747 
Q 1159 1113 1420 752 
Q 1681 391 2138 391 
Q 2594 391 2855 752 
Q 3116 1113 3116 1747 
z
M 1159 2969 
Q 1341 3281 1617 3432 
Q 1894 3584 2278 3584 
Q 2916 3584 3314 3078 
Q 3713 2572 3713 1747 
Q 3713 922 3314 415 
Q 2916 -91 2278 -91 
Q 1894 -91 1617 61 
Q 1341 213 1159 525 
L 1159 0 
L 581 0 
L 581 4863 
L 1159 4863 
L 1159 2969 
z
" transform="scale(0.015625)"/>
       <path id="DejaVuSans-65" d="M 3597 1894 
L 3597 1613 
L 953 1613 
Q 991 1019 1311 708 
Q 1631 397 2203 397 
Q 2534 397 2845 478 
Q 3156 559 3463 722 
L 3463 178 
Q 3153 47 2828 -22 
Q 2503 -91 2169 -91 
Q 1331 -91 842 396 
Q 353 884 353 1716 
Q 353 2575 817 3079 
Q 1281 3584 2069 3584 
Q 2775 3584 3186 3129 
Q 3597 2675 3597 1894 
z
M 3022 2063 
Q 3016 2534 2758 2815 
Q 2500 3097 2075 3097 
Q 1594 3097 1305 2825 
Q 1016 2553 972 2059 
L 3022 2063 
z
" transform="scale(0.015625)"/>
       <path id="DejaVuSans-6f" d="M 1959 3097 
Q 1497 3097 1228 2736 
Q 959 2375 959 1747 
Q 959 1119 1226 758 
Q 1494 397 1959 397 
Q 2419 397 2687 759 
Q 2956 1122 2956 1747 
Q 2956 2369 2687 2733 
Q 2419 3097 1959 3097 
z
M 1959 3584 
Q 2709 3584 3137 3096 
Q 3566 2609 3566 1747 
Q 3566 888 3137 398 
Q 2709 -91 1959 -91 
Q 1206 -91 779 398 
Q 353 888 353 1747 
Q 353 2609 779 3096 
Q 1206 3584 1959 3584 
z
" transform="scale(0.015625)"/>
       <path id="DejaVuSans-72" d="M 2631 2963 
Q 2534 3019 2420 3045 
Q 2306 3072 2169 3072 
Q 1681 3072 1420 2755 
Q 1159 2438 1159 1844 
L 1159 0 
L 581 0 
L 581 3500 
L 1159 3500 
L 1159 2956 
Q 1341 3275 1631 3429 
Q 1922 3584 2338 3584 
Q 2397 3584 2469 3576 
Q 2541 3569 2628 3553 
L 2631 2963 
z
" transform="scale(0.015625)"/>
       <path id="DejaVuSans-49" d="M 628 4666 
L 1259 4666 
L 1259 0 
L 628 0 
L 628 4666 
z
" transform="scale(0.015625)"/>
       <path id="DejaVuSans-53" d="M 3425 4513 
L 3425 3897 
Q 3066 4069 2747 4153 
Q 2428 4238 2131 4238 
Q 1616 4238 1336 4038 
Q 1056 3838 1056 3469 
Q 1056 3159 1242 3001 
Q 1428 2844 1947 2747 
L 2328 2669 
Q 3034 2534 3370 2195 
Q 3706 1856 3706 1288 
Q 3706 609 3251 259 
Q 2797 -91 1919 -91 
Q 1588 -91 1214 -16 
Q 841 59 441 206 
L 441 856 
Q 825 641 1194 531 
Q 1563 422 1919 422 
Q 2459 422 2753 634 
Q 3047 847 3047 1241 
Q 3047 1584 2836 1778 
Q 2625 1972 2144 2069 
L 1759 2144 
Q 1053 2284 737 2584 
Q 422 2884 422 3419 
Q 422 4038 858 4394 
Q 1294 4750 2059 4750 
Q 2388 4750 2728 4690 
Q 3069 4631 3425 4513 
z
" transform="scale(0.015625)"/>
       <path id="DejaVuSans-43" d="M 4122 4306 
L 4122 3641 
Q 3803 3938 3442 4084 
Q 3081 4231 2675 4231 
Q 1875 4231 1450 3742 
Q 1025 3253 1025 2328 
Q 1025 1406 1450 917 
Q 1875 428 2675 428 
Q 3081 428 3442 575 
Q 3803 722 4122 1019 
L 4122 359 
Q 3791 134 3420 21 
Q 3050 -91 2638 -91 
Q 1578 -91 968 557 
Q 359 1206 359 2328 
Q 359 3453 968 4101 
Q 1578 4750 2638 4750 
Q 3056 4750 3426 4639 
Q 3797 4528 4122 4306 
z
" transform="scale(0.015625)"/>
       <path id="DejaVuSans-4f" d="M 2522 4238 
Q 1834 4238 1429 3725 
Q 1025 3213 1025 2328 
Q 1025 1447 1429 934 
Q 1834 422 2522 422 
Q 3209 422 3611 934 
Q 4013 1447 4013 2328 
Q 4013 3213 3611 3725 
Q 3209 4238 2522 4238 
z
M 2522 4750 
Q 3503 4750 4090 4092 
Q 4678 3434 4678 2328 
Q 4678 1225 4090 567 
Q 3503 -91 2522 -91 
Q 1538 -91 948 565 
Q 359 1222 359 2328 
Q 359 3434 948 4092 
Q 1538 4750 2522 4750 
z
" transform="scale(0.015625)"/>
       <path id="DejaVuSans-63" d="M 3122 3366 
L 3122 2828 
Q 2878 2963 2633 3030 
Q 2388 3097 2138 3097 
Q 1578 3097 1268 2742 
Q 959 2388 959 1747 
Q 959 1106 1268 751 
Q 1578 397 2138 397 
Q 2388 397 2633 464 
Q 2878 531 3122 666 
L 3122 134 
Q 2881 22 2623 -34 
Q 2366 -91 2075 -91 
Q 1284 -91 818 406 
Q 353 903 353 1747 
Q 353 2603 823 3093 
Q 1294 3584 2113 3584 
Q 2378 3584 2631 3529 
Q 2884 3475 3122 3366 
z
" transform="scale(0.015625)"/>
       <path id="DejaVuSans-75" d="M 544 1381 
L 544 3500 
L 1119 3500 
L 1119 1403 
Q 1119 906 1312 657 
Q 1506 409 1894 409 
Q 2359 409 2629 706 
Q 2900 1003 2900 1516 
L 2900 3500 
L 3475 3500 
L 3475 0 
L 2900 0 
L 2900 538 
Q 2691 219 2414 64 
Q 2138 -91 1772 -91 
Q 1169 -91 856 284 
Q 544 659 544 1381 
z
M 1991 3584 
L 1991 3584 
z
" transform="scale(0.015625)"/>
       <path id="DejaVuSans-74" d="M 1172 4494 
L 1172 3500 
L 2356 3500 
L 2356 3053 
L 1172 3053 
L 1172 1153 
Q 1172 725 1289 603 
Q 1406 481 1766 481 
L 2356 481 
L 2356 0 
L 1766 0 
Q 1100 0 847 248 
Q 594 497 594 1153 
L 594 3053 
L 172 3053 
L 172 3500 
L 594 3500 
L 594 4494 
L 1172 4494 
z
" transform="scale(0.015625)"/>
       <path id="DejaVuSans-3a" d="M 750 794 
L 1409 794 
L 1409 0 
L 750 0 
L 750 794 
z
M 750 3309 
L 1409 3309 
L 1409 2516 
L 750 2516 
L 750 3309 
z
" transform="scale(0.015625)"/>
       <path id="DejaVuSans-Oblique-65" d="M 3078 2063 
Q 3088 2113 3092 2166 
Q 3097 2219 3097 2272 
Q 3097 2653 2873 2875 
Q 2650 3097 2266 3097 
Q 1838 3097 1509 2826 
Q 1181 2556 1013 2059 
L 3078 2063 
z
M 3578 1613 
L 903 1613 
Q 884 1494 878 1425 
Q 872 1356 872 1306 
Q 872 872 1139 634 
Q 1406 397 1894 397 
Q 2269 397 2603 481 
Q 2938 566 3225 728 
L 3116 159 
Q 2806 34 2476 -28 
Q 2147 -91 1806 -91 
Q 1078 -91 686 257 
Q 294 606 294 1247 
Q 294 1794 489 2264 
Q 684 2734 1063 3103 
Q 1306 3334 1642 3459 
Q 1978 3584 2356 3584 
Q 2950 3584 3301 3228 
Q 3653 2872 3653 2272 
Q 3653 2128 3634 1964 
Q 3616 1800 3578 1613 
z
" transform="scale(0.015625)"/>
       <path id="DejaVuSans-3d" d="M 678 2906 
L 4684 2906 
L 4684 2381 
L 678 2381 
L 678 2906 
z
M 678 1631 
L 4684 1631 
L 4684 1100 
L 678 1100 
L 678 1631 
z
" transform="scale(0.015625)"/>
       <path id="DejaVuSans-33" d="M 2597 2516 
Q 3050 2419 3304 2112 
Q 3559 1806 3559 1356 
Q 3559 666 3084 287 
Q 2609 -91 1734 -91 
Q 1441 -91 1130 -33 
Q 819 25 488 141 
L 488 750 
Q 750 597 1062 519 
Q 1375 441 1716 441 
Q 2309 441 2620 675 
Q 2931 909 2931 1356 
Q 2931 1769 2642 2001 
Q 2353 2234 1838 2234 
L 1294 2234 
L 1294 2753 
L 1863 2753 
Q 2328 2753 2575 2939 
Q 2822 3125 2822 3475 
Q 2822 3834 2567 4026 
Q 2313 4219 1838 4219 
Q 1578 4219 1281 4162 
Q 984 4106 628 3988 
L 628 4550 
Q 988 4650 1302 4700 
Q 1616 4750 1894 4750 
Q 2613 4750 3031 4423 
Q 3450 4097 3450 3541 
Q 3450 3153 3228 2886 
Q 3006 2619 2597 2516 
z
" transform="scale(0.015625)"/>
      </defs>
      <use xlink:href="#DejaVuSans-4d" transform="translate(0 0.015625)"/>
      <use xlink:href="#DejaVuSans-66" transform="translate(86.279297 0.015625)"/>
      <use xlink:href="#DejaVuSans-20" transform="translate(121.484375 0.015625)"/>
      <use xlink:href="#DejaVuSans-62" transform="translate(153.271484 0.015625)"/>
      <use xlink:href="#DejaVuSans-65" transform="translate(216.748047 0.015625)"/>
      <use xlink:href="#DejaVuSans-66" transform="translate(278.271484 0.015625)"/>
      <use xlink:href="#DejaVuSans-6f" transform="translate(313.476562 0.015625)"/>
      <use xlink:href="#DejaVuSans-72" transform="translate(374.658203 0.015625)"/>
      <use xlink:href="#DejaVuSans-65" transform="translate(415.771484 0.015625)"/>
      <use xlink:href="#DejaVuSans-20" transform="translate(477.294922 0.015625)"/>
      <use xlink:href="#DejaVuSans-49" transform="translate(509.082031 0.015625)"/>
      <use xlink:href="#DejaVuSans-53" transform="translate(538.574219 0.015625)"/>
      <use xlink:href="#DejaVuSans-43" transform="translate(602.050781 0.015625)"/>
      <use xlink:href="#DejaVuSans-4f" transform="translate(671.875 0.015625)"/>
      <use xlink:href="#DejaVuSans-20" transform="translate(750.585938 0.015625)"/>
      <use xlink:href="#DejaVuSans-63" transform="translate(782.373047 0.015625)"/>
      <use xlink:href="#DejaVuSans-75" transform="translate(837.353516 0.015625)"/>
      <use xlink:href="#DejaVuSans-74" transform="translate(900.732422 0.015625)"/>
      <use xlink:href="#DejaVuSans-3a" transform="translate(939.941406 0.015625)"/>
      <use xlink:href="#DejaVuSans-20" transform="translate(973.632812 0.015625)"/>
      <use xlink:href="#DejaVuSans-Oblique-65" transform="translate(1005.419922 0.015625)"/>
      <use xlink:href="#DejaVuSans-3d" transform="translate(1066.943359 0.015625)"/>
      <use xlink:href="#DejaVuSans-30" transform="translate(1150.732422 0.015625)"/>
      <use xlink:href="#DejaVuSans-2e" transform="translate(1214.355469 0.015625)"/>
      <use xlink:href="#DejaVuSans-33" transform="translate(1246.142578 0.015625)"/>
      <use xlink:href="#DejaVuSans-32" transform="translate(1309.765625 0.015625)"/>
     </g>
    </g>
    <g id="line2d_18">
     <path d="M 45.465625 34.976563 
L 55.465625 34.976563 
L 65.465625 34.976563 
" style="fill: none; stroke-dasharray: 2.22,0.96; stroke-dashoffset: 0; stroke: #ff0000; stroke-width: 0.6"/>
    </g>
    <g id="text_15">
     <!-- Mf ISCO $e$=0 -->
     <g transform="translate(73.465625 38.476563) scale(0.1 -0.1)">
      <use xlink:href="#DejaVuSans-4d" transform="translate(0 0.015625)"/>
      <use xlink:href="#DejaVuSans-66" transform="translate(86.279297 0.015625)"/>
      <use xlink:href="#DejaVuSans-20" transform="translate(121.484375 0.015625)"/>
      <use xlink:href="#DejaVuSans-49" transform="translate(153.271484 0.015625)"/>
      <use xlink:href="#DejaVuSans-53" transform="translate(182.763672 0.015625)"/>
      <use xlink:href="#DejaVuSans-43" transform="translate(246.240234 0.015625)"/>
      <use xlink:href="#DejaVuSans-4f" transform="translate(316.064453 0.015625)"/>
      <use xlink:href="#DejaVuSans-20" transform="translate(394.775391 0.015625)"/>
      <use xlink:href="#DejaVuSans-Oblique-65" transform="translate(426.5625 0.015625)"/>
      <use xlink:href="#DejaVuSans-3d" transform="translate(488.085938 0.015625)"/>
      <use xlink:href="#DejaVuSans-30" transform="translate(571.875 0.015625)"/>
     </g>
    </g>
    <g id="PathCollection_2">
     <g>
      <use xlink:href="#mc2988c19e2" x="55.465625" y="50.529688" style="fill: #ff0000; stroke: #ff0000"/>
     </g>
    </g>
    <g id="text_16">
     <!-- ISCO cut -->
     <g transform="translate(73.465625 53.154688) scale(0.1 -0.1)">
      <use xlink:href="#DejaVuSans-49"/>
      <use xlink:href="#DejaVuSans-53" transform="translate(29.492188 0)"/>
      <use xlink:href="#DejaVuSans-43" transform="translate(92.96875 0)"/>
      <use xlink:href="#DejaVuSans-4f" transform="translate(162.792969 0)"/>
      <use xlink:href="#DejaVuSans-20" transform="translate(241.503906 0)"/>
      <use xlink:href="#DejaVuSans-63" transform="translate(273.291016 0)"/>
      <use xlink:href="#DejaVuSans-75" transform="translate(328.271484 0)"/>
      <use xlink:href="#DejaVuSans-74" transform="translate(391.650391 0)"/>
     </g>
    </g>
    <g id="line2d_19">
     <path d="M 45.465625 64.332813 
L 55.465625 64.332813 
L 65.465625 64.332813 
" style="fill: none; stroke: #ff7f0e; stroke-width: 1.5; stroke-linecap: square"/>
    </g>
    <g id="text_17">
     <!-- Mf after ISCO cut: $e$=0.32  -->
     <g transform="translate(73.465625 67.832813) scale(0.1 -0.1)">
      <defs>
       <path id="DejaVuSans-61" d="M 2194 1759 
Q 1497 1759 1228 1600 
Q 959 1441 959 1056 
Q 959 750 1161 570 
Q 1363 391 1709 391 
Q 2188 391 2477 730 
Q 2766 1069 2766 1631 
L 2766 1759 
L 2194 1759 
z
M 3341 1997 
L 3341 0 
L 2766 0 
L 2766 531 
Q 2569 213 2275 61 
Q 1981 -91 1556 -91 
Q 1019 -91 701 211 
Q 384 513 384 1019 
Q 384 1609 779 1909 
Q 1175 2209 1959 2209 
L 2766 2209 
L 2766 2266 
Q 2766 2663 2505 2880 
Q 2244 3097 1772 3097 
Q 1472 3097 1187 3025 
Q 903 2953 641 2809 
L 641 3341 
Q 956 3463 1253 3523 
Q 1550 3584 1831 3584 
Q 2591 3584 2966 3190 
Q 3341 2797 3341 1997 
z
" transform="scale(0.015625)"/>
      </defs>
      <use xlink:href="#DejaVuSans-4d" transform="translate(0 0.015625)"/>
      <use xlink:href="#DejaVuSans-66" transform="translate(86.279297 0.015625)"/>
      <use xlink:href="#DejaVuSans-20" transform="translate(121.484375 0.015625)"/>
      <use xlink:href="#DejaVuSans-61" transform="translate(153.271484 0.015625)"/>
      <use xlink:href="#DejaVuSans-66" transform="translate(214.550781 0.015625)"/>
      <use xlink:href="#DejaVuSans-74" transform="translate(249.755859 0.015625)"/>
      <use xlink:href="#DejaVuSans-65" transform="translate(288.964844 0.015625)"/>
      <use xlink:href="#DejaVuSans-72" transform="translate(350.488281 0.015625)"/>
      <use xlink:href="#DejaVuSans-20" transform="translate(391.601562 0.015625)"/>
      <use xlink:href="#DejaVuSans-49" transform="translate(423.388672 0.015625)"/>
      <use xlink:href="#DejaVuSans-53" transform="translate(452.880859 0.015625)"/>
      <use xlink:href="#DejaVuSans-43" transform="translate(516.357422 0.015625)"/>
      <use xlink:href="#DejaVuSans-4f" transform="translate(586.181641 0.015625)"/>
      <use xlink:href="#DejaVuSans-20" transform="translate(664.892578 0.015625)"/>
      <use xlink:href="#DejaVuSans-63" transform="translate(696.679688 0.015625)"/>
      <use xlink:href="#DejaVuSans-75" transform="translate(751.660156 0.015625)"/>
      <use xlink:href="#DejaVuSans-74" transform="translate(815.039062 0.015625)"/>
      <use xlink:href="#DejaVuSans-3a" transform="translate(854.248047 0.015625)"/>
      <use xlink:href="#DejaVuSans-20" transform="translate(887.939453 0.015625)"/>
      <use xlink:href="#DejaVuSans-Oblique-65" transform="translate(919.726562 0.015625)"/>
      <use xlink:href="#DejaVuSans-3d" transform="translate(981.25 0.015625)"/>
      <use xlink:href="#DejaVuSans-30" transform="translate(1065.039062 0.015625)"/>
      <use xlink:href="#DejaVuSans-2e" transform="translate(1128.662109 0.015625)"/>
      <use xlink:href="#DejaVuSans-33" transform="translate(1160.449219 0.015625)"/>
      <use xlink:href="#DejaVuSans-32" transform="translate(1224.072266 0.015625)"/>
      <use xlink:href="#DejaVuSans-20" transform="translate(1287.695312 0.015625)"/>
     </g>
    </g>
   </g>
  </g>
 </g>
 <defs>
  <clipPath id="pcc279d7f29">
   <rect x="36.465625" y="7.2" width="669.6" height="277.2"/>
  </clipPath>
 </defs>
</svg>
