<?xml version="1.0" encoding="utf-8" standalone="no"?>
<!DOCTYPE svg PUBLIC "-//W3C//DTD SVG 1.1//EN"
  "http://www.w3.org/Graphics/SVG/1.1/DTD/svg11.dtd">
<svg xmlns:xlink="http://www.w3.org/1999/xlink" width="713.265625pt" height="308.278125pt" viewBox="0 0 713.265625 308.278125" xmlns="http://www.w3.org/2000/svg" version="1.1">
 <metadata>
  <rdf:RDF xmlns:dc="http://purl.org/dc/elements/1.1/" xmlns:cc="http://creativecommons.org/ns#" xmlns:rdf="http://www.w3.org/1999/02/22-rdf-syntax-ns#">
   <cc:Work>
    <dc:type rdf:resource="http://purl.org/dc/dcmitype/StillImage"/>
    <dc:date>2025-07-25T14:55:39.998354</dc:date>
    <dc:format>image/svg+xml</dc:format>
    <dc:creator>
     <cc:Agent>
      <dc:title>Matplotlib v3.10.3, https://matplotlib.org/</dc:title>
     </cc:Agent>
    </dc:creator>
   </cc:Work>
  </rdf:RDF>
 </metadata>
 <defs>
  <style type="text/css">*{stroke-linejoin: round; stroke-linecap: butt}</style>
 </defs>
 <g id="figure_1">
  <g id="patch_1">
   <path d="M 0 308.278125 
L 713.265625 308.278125 
L 713.265625 0 
L 0 0 
z
" style="fill: #ffffff"/>
  </g>
  <g id="axes_1">
   <g id="patch_2">
    <path d="M 36.465625 284.4 
L 706.065625 284.4 
L 706.065625 7.2 
L 36.465625 7.2 
z
" style="fill: #ffffff"/>
   </g>
   <g id="PathCollection_1">
    <defs>
     <path id="m834385c01d" d="M 0 1.224745 
C 0.324806 1.224745 0.636353 1.095698 0.866025 0.866025 
C 1.095698 0.636353 1.224745 0.324806 1.224745 0 
C 1.224745 -0.324806 1.095698 -0.636353 0.866025 -0.866025 
C 0.636353 -1.095698 0.324806 -1.224745 0 -1.224745 
C -0.324806 -1.224745 -0.636353 -1.095698 -0.866025 -0.866025 
C -1.095698 -0.636353 -1.224745 -0.324806 -1.224745 0 
C -1.224745 0.324806 -1.095698 0.636353 -0.866025 0.866025 
C -0.636353 1.095698 -0.324806 1.224745 0 1.224745 
z
" style="stroke: #ff0000"/>
    </defs>
    <g clip-path="url(#p7742da8964)">
     <use xlink:href="#m834385c01d" x="669.832567" y="213.377491" style="fill: #ff0000; stroke: #ff0000"/>
    </g>
   </g>
   <g id="matplotlib.axis_1">
    <g id="xtick_1">
     <g id="line2d_1">
      <defs>
       <path id="m8f622de200" d="M 0 0 
L 0 3.5 
" style="stroke: #000000; stroke-width: 0.8"/>
      </defs>
      <g>
       <use xlink:href="#m8f622de200" x="46.099533" y="284.4" style="stroke: #000000; stroke-width: 0.8"/>
      </g>
     </g>
     <g id="text_1">
      <!-- −14000 -->
      <g transform="translate(26.00344 298.998438) scale(0.1 -0.1)">
       <defs>
        <path id="DejaVuSans-2212" d="M 678 2272 
L 4684 2272 
L 4684 1741 
L 678 1741 
L 678 2272 
z
" transform="scale(0.015625)"/>
        <path id="DejaVuSans-31" d="M 794 531 
L 1825 531 
L 1825 4091 
L 703 3866 
L 703 4441 
L 1819 4666 
L 2450 4666 
L 2450 531 
L 3481 531 
L 3481 0 
L 794 0 
L 794 531 
z
" transform="scale(0.015625)"/>
        <path id="DejaVuSans-34" d="M 2419 4116 
L 825 1625 
L 2419 1625 
L 2419 4116 
z
M 2253 4666 
L 3047 4666 
L 3047 1625 
L 3713 1625 
L 3713 1100 
L 3047 1100 
L 3047 0 
L 2419 0 
L 2419 1100 
L 313 1100 
L 313 1709 
L 2253 4666 
z
" transform="scale(0.015625)"/>
        <path id="DejaVuSans-30" d="M 2034 4250 
Q 1547 4250 1301 3770 
Q 1056 3291 1056 2328 
Q 1056 1369 1301 889 
Q 1547 409 2034 409 
Q 2525 409 2770 889 
Q 3016 1369 3016 2328 
Q 3016 3291 2770 3770 
Q 2525 4250 2034 4250 
z
M 2034 4750 
Q 2819 4750 3233 4129 
Q 3647 3509 3647 2328 
Q 3647 1150 3233 529 
Q 2819 -91 2034 -91 
Q 1250 -91 836 529 
Q 422 1150 422 2328 
Q 422 3509 836 4129 
Q 1250 4750 2034 4750 
z
" transform="scale(0.015625)"/>
       </defs>
       <use xlink:href="#DejaVuSans-2212"/>
       <use xlink:href="#DejaVuSans-31" transform="translate(83.789062 0)"/>
       <use xlink:href="#DejaVuSans-34" transform="translate(147.412109 0)"/>
       <use xlink:href="#DejaVuSans-30" transform="translate(211.035156 0)"/>
       <use xlink:href="#DejaVuSans-30" transform="translate(274.658203 0)"/>
       <use xlink:href="#DejaVuSans-30" transform="translate(338.28125 0)"/>
      </g>
     </g>
    </g>
    <g id="xtick_2">
     <g id="line2d_2">
      <g>
       <use xlink:href="#m8f622de200" x="135.57819" y="284.4" style="stroke: #000000; stroke-width: 0.8"/>
      </g>
     </g>
     <g id="text_2">
      <!-- −12000 -->
      <g transform="translate(115.482097 298.998438) scale(0.1 -0.1)">
       <defs>
        <path id="DejaVuSans-32" d="M 1228 531 
L 3431 531 
L 3431 0 
L 469 0 
L 469 531 
Q 828 903 1448 1529 
Q 2069 2156 2228 2338 
Q 2531 2678 2651 2914 
Q 2772 3150 2772 3378 
Q 2772 3750 2511 3984 
Q 2250 4219 1831 4219 
Q 1534 4219 1204 4116 
Q 875 4013 500 3803 
L 500 4441 
Q 881 4594 1212 4672 
Q 1544 4750 1819 4750 
Q 2544 4750 2975 4387 
Q 3406 4025 3406 3419 
Q 3406 3131 3298 2873 
Q 3191 2616 2906 2266 
Q 2828 2175 2409 1742 
Q 1991 1309 1228 531 
z
" transform="scale(0.015625)"/>
       </defs>
       <use xlink:href="#DejaVuSans-2212"/>
       <use xlink:href="#DejaVuSans-31" transform="translate(83.789062 0)"/>
       <use xlink:href="#DejaVuSans-32" transform="translate(147.412109 0)"/>
       <use xlink:href="#DejaVuSans-30" transform="translate(211.035156 0)"/>
       <use xlink:href="#DejaVuSans-30" transform="translate(274.658203 0)"/>
       <use xlink:href="#DejaVuSans-30" transform="translate(338.28125 0)"/>
      </g>
     </g>
    </g>
    <g id="xtick_3">
     <g id="line2d_3">
      <g>
       <use xlink:href="#m8f622de200" x="225.056848" y="284.4" style="stroke: #000000; stroke-width: 0.8"/>
      </g>
     </g>
     <g id="text_3">
      <!-- −10000 -->
      <g transform="translate(204.960754 298.998438) scale(0.1 -0.1)">
       <use xlink:href="#DejaVuSans-2212"/>
       <use xlink:href="#DejaVuSans-31" transform="translate(83.789062 0)"/>
       <use xlink:href="#DejaVuSans-30" transform="translate(147.412109 0)"/>
       <use xlink:href="#DejaVuSans-30" transform="translate(211.035156 0)"/>
       <use xlink:href="#DejaVuSans-30" transform="translate(274.658203 0)"/>
       <use xlink:href="#DejaVuSans-30" transform="translate(338.28125 0)"/>
      </g>
     </g>
    </g>
    <g id="xtick_4">
     <g id="line2d_4">
      <g>
       <use xlink:href="#m8f622de200" x="314.535505" y="284.4" style="stroke: #000000; stroke-width: 0.8"/>
      </g>
     </g>
     <g id="text_4">
      <!-- −8000 -->
      <g transform="translate(297.620661 298.998438) scale(0.1 -0.1)">
       <defs>
        <path id="DejaVuSans-38" d="M 2034 2216 
Q 1584 2216 1326 1975 
Q 1069 1734 1069 1313 
Q 1069 891 1326 650 
Q 1584 409 2034 409 
Q 2484 409 2743 651 
Q 3003 894 3003 1313 
Q 3003 1734 2745 1975 
Q 2488 2216 2034 2216 
z
M 1403 2484 
Q 997 2584 770 2862 
Q 544 3141 544 3541 
Q 544 4100 942 4425 
Q 1341 4750 2034 4750 
Q 2731 4750 3128 4425 
Q 3525 4100 3525 3541 
Q 3525 3141 3298 2862 
Q 3072 2584 2669 2484 
Q 3125 2378 3379 2068 
Q 3634 1759 3634 1313 
Q 3634 634 3220 271 
Q 2806 -91 2034 -91 
Q 1263 -91 848 271 
Q 434 634 434 1313 
Q 434 1759 690 2068 
Q 947 2378 1403 2484 
z
M 1172 3481 
Q 1172 3119 1398 2916 
Q 1625 2713 2034 2713 
Q 2441 2713 2670 2916 
Q 2900 3119 2900 3481 
Q 2900 3844 2670 4047 
Q 2441 4250 2034 4250 
Q 1625 4250 1398 4047 
Q 1172 3844 1172 3481 
z
" transform="scale(0.015625)"/>
       </defs>
       <use xlink:href="#DejaVuSans-2212"/>
       <use xlink:href="#DejaVuSans-38" transform="translate(83.789062 0)"/>
       <use xlink:href="#DejaVuSans-30" transform="translate(147.412109 0)"/>
       <use xlink:href="#DejaVuSans-30" transform="translate(211.035156 0)"/>
       <use xlink:href="#DejaVuSans-30" transform="translate(274.658203 0)"/>
      </g>
     </g>
    </g>
    <g id="xtick_5">
     <g id="line2d_5">
      <g>
       <use xlink:href="#m8f622de200" x="404.014162" y="284.4" style="stroke: #000000; stroke-width: 0.8"/>
      </g>
     </g>
     <g id="text_5">
      <!-- −6000 -->
      <g transform="translate(387.099318 298.998438) scale(0.1 -0.1)">
       <defs>
        <path id="DejaVuSans-36" d="M 2113 2584 
Q 1688 2584 1439 2293 
Q 1191 2003 1191 1497 
Q 1191 994 1439 701 
Q 1688 409 2113 409 
Q 2538 409 2786 701 
Q 3034 994 3034 1497 
Q 3034 2003 2786 2293 
Q 2538 2584 2113 2584 
z
M 3366 4563 
L 3366 3988 
Q 3128 4100 2886 4159 
Q 2644 4219 2406 4219 
Q 1781 4219 1451 3797 
Q 1122 3375 1075 2522 
Q 1259 2794 1537 2939 
Q 1816 3084 2150 3084 
Q 2853 3084 3261 2657 
Q 3669 2231 3669 1497 
Q 3669 778 3244 343 
Q 2819 -91 2113 -91 
Q 1303 -91 875 529 
Q 447 1150 447 2328 
Q 447 3434 972 4092 
Q 1497 4750 2381 4750 
Q 2619 4750 2861 4703 
Q 3103 4656 3366 4563 
z
" transform="scale(0.015625)"/>
       </defs>
       <use xlink:href="#DejaVuSans-2212"/>
       <use xlink:href="#DejaVuSans-36" transform="translate(83.789062 0)"/>
       <use xlink:href="#DejaVuSans-30" transform="translate(147.412109 0)"/>
       <use xlink:href="#DejaVuSans-30" transform="translate(211.035156 0)"/>
       <use xlink:href="#DejaVuSans-30" transform="translate(274.658203 0)"/>
      </g>
     </g>
    </g>
    <g id="xtick_6">
     <g id="line2d_6">
      <g>
       <use xlink:href="#m8f622de200" x="493.492819" y="284.4" style="stroke: #000000; stroke-width: 0.8"/>
      </g>
     </g>
     <g id="text_6">
      <!-- −4000 -->
      <g transform="translate(476.577975 298.998438) scale(0.1 -0.1)">
       <use xlink:href="#DejaVuSans-2212"/>
       <use xlink:href="#DejaVuSans-34" transform="translate(83.789062 0)"/>
       <use xlink:href="#DejaVuSans-30" transform="translate(147.412109 0)"/>
       <use xlink:href="#DejaVuSans-30" transform="translate(211.035156 0)"/>
       <use xlink:href="#DejaVuSans-30" transform="translate(274.658203 0)"/>
      </g>
     </g>
    </g>
    <g id="xtick_7">
     <g id="line2d_7">
      <g>
       <use xlink:href="#m8f622de200" x="582.971476" y="284.4" style="stroke: #000000; stroke-width: 0.8"/>
      </g>
     </g>
     <g id="text_7">
      <!-- −2000 -->
      <g transform="translate(566.056633 298.998438) scale(0.1 -0.1)">
       <use xlink:href="#DejaVuSans-2212"/>
       <use xlink:href="#DejaVuSans-32" transform="translate(83.789062 0)"/>
       <use xlink:href="#DejaVuSans-30" transform="translate(147.412109 0)"/>
       <use xlink:href="#DejaVuSans-30" transform="translate(211.035156 0)"/>
       <use xlink:href="#DejaVuSans-30" transform="translate(274.658203 0)"/>
      </g>
     </g>
    </g>
    <g id="xtick_8">
     <g id="line2d_8">
      <g>
       <use xlink:href="#m8f622de200" x="672.450134" y="284.4" style="stroke: #000000; stroke-width: 0.8"/>
      </g>
     </g>
     <g id="text_8">
      <!-- 0 -->
      <g transform="translate(669.268884 298.998438) scale(0.1 -0.1)">
       <use xlink:href="#DejaVuSans-30"/>
      </g>
     </g>
    </g>
   </g>
   <g id="matplotlib.axis_2">
    <g id="ytick_1">
     <g id="line2d_9">
      <defs>
       <path id="m9a4f7a7b48" d="M 0 0 
L -3.5 0 
" style="stroke: #000000; stroke-width: 0.8"/>
      </defs>
      <g>
       <use xlink:href="#m9a4f7a7b48" x="36.465625" y="276.533115" style="stroke: #000000; stroke-width: 0.8"/>
      </g>
     </g>
     <g id="text_9">
      <!-- 0.00 -->
      <g transform="translate(7.2 280.332334) scale(0.1 -0.1)">
       <defs>
        <path id="DejaVuSans-2e" d="M 684 794 
L 1344 794 
L 1344 0 
L 684 0 
L 684 794 
z
" transform="scale(0.015625)"/>
       </defs>
       <use xlink:href="#DejaVuSans-30"/>
       <use xlink:href="#DejaVuSans-2e" transform="translate(63.623047 0)"/>
       <use xlink:href="#DejaVuSans-30" transform="translate(95.410156 0)"/>
       <use xlink:href="#DejaVuSans-30" transform="translate(159.033203 0)"/>
      </g>
     </g>
    </g>
    <g id="ytick_2">
     <g id="line2d_10">
      <g>
       <use xlink:href="#m9a4f7a7b48" x="36.465625" y="218.242891" style="stroke: #000000; stroke-width: 0.8"/>
      </g>
     </g>
     <g id="text_10">
      <!-- 0.02 -->
      <g transform="translate(7.2 222.04211) scale(0.1 -0.1)">
       <use xlink:href="#DejaVuSans-30"/>
       <use xlink:href="#DejaVuSans-2e" transform="translate(63.623047 0)"/>
       <use xlink:href="#DejaVuSans-30" transform="translate(95.410156 0)"/>
       <use xlink:href="#DejaVuSans-32" transform="translate(159.033203 0)"/>
      </g>
     </g>
    </g>
    <g id="ytick_3">
     <g id="line2d_11">
      <g>
       <use xlink:href="#m9a4f7a7b48" x="36.465625" y="159.952667" style="stroke: #000000; stroke-width: 0.8"/>
      </g>
     </g>
     <g id="text_11">
      <!-- 0.04 -->
      <g transform="translate(7.2 163.751886) scale(0.1 -0.1)">
       <use xlink:href="#DejaVuSans-30"/>
       <use xlink:href="#DejaVuSans-2e" transform="translate(63.623047 0)"/>
       <use xlink:href="#DejaVuSans-30" transform="translate(95.410156 0)"/>
       <use xlink:href="#DejaVuSans-34" transform="translate(159.033203 0)"/>
      </g>
     </g>
    </g>
    <g id="ytick_4">
     <g id="line2d_12">
      <g>
       <use xlink:href="#m9a4f7a7b48" x="36.465625" y="101.662443" style="stroke: #000000; stroke-width: 0.8"/>
      </g>
     </g>
     <g id="text_12">
      <!-- 0.06 -->
      <g transform="translate(7.2 105.461661) scale(0.1 -0.1)">
       <use xlink:href="#DejaVuSans-30"/>
       <use xlink:href="#DejaVuSans-2e" transform="translate(63.623047 0)"/>
       <use xlink:href="#DejaVuSans-30" transform="translate(95.410156 0)"/>
       <use xlink:href="#DejaVuSans-36" transform="translate(159.033203 0)"/>
      </g>
     </g>
    </g>
    <g id="ytick_5">
     <g id="line2d_13">
      <g>
       <use xlink:href="#m9a4f7a7b48" x="36.465625" y="43.372218" style="stroke: #000000; stroke-width: 0.8"/>
      </g>
     </g>
     <g id="text_13">
      <!-- 0.08 -->
      <g transform="translate(7.2 47.171437) scale(0.1 -0.1)">
       <use xlink:href="#DejaVuSans-30"/>
       <use xlink:href="#DejaVuSans-2e" transform="translate(63.623047 0)"/>
       <use xlink:href="#DejaVuSans-30" transform="translate(95.410156 0)"/>
       <use xlink:href="#DejaVuSans-38" transform="translate(159.033203 0)"/>
      </g>
     </g>
    </g>
   </g>
   <g id="line2d_14">
    <path d="M 66.901989 261.54104 
L 67.124938 261.066086 
L 67.422205 260.608004 
L 67.645155 260.572509 
L 67.868104 260.813197 
L 68.239687 261.718136 
L 69.726019 266.098783 
L 70.171919 266.67324 
L 70.543502 266.855684 
L 70.915085 266.801632 
L 71.360985 266.471835 
L 71.955517 265.676481 
L 72.847317 263.999276 
L 74.036382 261.790131 
L 74.630915 261.150682 
L 75.299764 260.811623 
L 75.968614 260.460045 
L 76.414513 259.98508 
L 76.93473 259.074758 
L 77.603579 257.372112 
L 79.684444 251.570787 
L 80.130343 250.975338 
L 80.501926 250.779889 
L 80.799193 250.82877 
L 81.170776 251.141702 
L 81.616675 251.857496 
L 82.211208 253.280138 
L 83.47459 257.103713 
L 84.36639 259.440736 
L 85.035239 260.628608 
L 85.778405 261.481334 
L 86.818838 262.657893 
L 87.784953 264.197002 
L 88.974019 266.007623 
L 89.642868 266.659557 
L 90.163085 266.868884 
L 90.534668 266.813363 
L 90.906251 266.560493 
L 91.35215 265.991185 
L 92.838482 263.740627 
L 93.135749 263.787813 
L 93.433015 264.082381 
L 93.953231 264.99152 
L 94.993664 266.871801 
L 95.588196 267.472967 
L 96.034096 267.644056 
L 96.479996 267.57484 
L 96.925895 267.274832 
L 97.594745 266.489957 
L 98.412227 265.535061 
L 98.78381 265.369289 
L 99.155393 265.4467 
L 99.601293 265.795359 
L 100.716042 266.790086 
L 101.161941 266.901035 
L 101.607841 266.790786 
L 102.202374 266.367351 
L 103.16849 265.62799 
L 103.540073 265.609974 
L 103.911656 265.836492 
L 104.431872 266.507455 
L 105.769571 268.418189 
L 106.21547 268.668166 
L 106.66137 268.648769 
L 107.107269 268.366066 
L 107.627486 267.734264 
L 108.444968 266.301041 
L 109.113818 265.259975 
L 109.485401 265.021505 
L 109.782667 265.08199 
L 110.15425 265.455655 
L 110.823099 266.604053 
L 111.566265 267.766985 
L 112.086482 268.1823 
L 112.532381 268.235956 
L 112.978281 268.035093 
L 113.498497 267.534636 
L 114.241663 266.47286 
L 115.876628 264.014342 
L 116.694111 263.292886 
L 117.511593 262.564641 
L 118.106126 261.691349 
L 118.774976 260.240923 
L 121.153107 254.450908 
L 121.599006 254.050012 
L 121.970589 253.999026 
L 122.342172 254.208087 
L 122.788072 254.780546 
L 123.382605 255.996703 
L 124.423037 258.803521 
L 125.537786 261.614609 
L 126.280952 262.937514 
L 127.395701 264.373159 
L 128.659083 266.152094 
L 129.848149 267.7524 
L 130.516998 268.327785 
L 131.037215 268.524675 
L 131.483114 268.487718 
L 132.00333 268.20379 
L 133.638296 267.048946 
L 134.009879 267.187469 
L 134.530095 267.689975 
L 136.090743 269.454392 
L 136.685276 269.710582 
L 137.205492 269.692126 
L 137.800025 269.433477 
L 139.360674 268.602258 
L 139.88089 268.676942 
L 140.698373 269.101975 
L 141.515855 269.440895 
L 142.110388 269.438134 
L 142.779238 269.186819 
L 143.968303 268.681971 
L 144.414203 268.73374 
L 144.934419 269.036513 
L 146.792334 270.412031 
L 147.238234 270.3814 
L 147.75845 270.098473 
L 148.352983 269.493702 
L 149.839315 267.822726 
L 150.210898 267.751149 
L 150.582481 267.899538 
L 151.102697 268.380633 
L 152.143129 269.402608 
L 152.663345 269.582848 
L 153.109245 269.49944 
L 153.629461 269.146162 
L 154.298311 268.375999 
L 156.899392 264.986424 
L 157.791191 263.956185 
L 158.46004 262.786921 
L 159.277523 260.830538 
L 160.763855 257.153656 
L 161.358388 256.293257 
L 161.804287 256.037822 
L 162.17587 256.101205 
L 162.547453 256.410448 
L 163.067669 257.212467 
L 163.736519 258.715904 
L 165.8917 263.887501 
L 166.783499 265.264402 
L 169.756163 269.154242 
L 170.425013 269.606386 
L 170.945229 269.722619 
L 171.465445 269.628255 
L 172.357244 269.168714 
L 172.951777 268.963155 
L 173.397677 269.022618 
L 173.917893 269.347006 
L 175.998758 271.0022 
L 176.593291 271.052785 
L 177.26214 270.867611 
L 178.748472 270.350345 
L 179.343005 270.429976 
L 181.349553 270.924609 
L 182.092719 270.719965 
L 183.356101 270.340514 
L 183.876317 270.427572 
L 184.545167 270.785237 
L 185.659916 271.419436 
L 186.180132 271.477788 
L 186.700348 271.314887 
L 187.294881 270.875338 
L 189.078479 269.291773 
L 189.524379 269.288217 
L 190.044595 269.542437 
L 191.307977 270.307993 
L 191.828194 270.30912 
L 192.34841 270.052485 
L 192.942943 269.483056 
L 193.909058 268.172602 
L 195.39539 266.196396 
L 196.584456 264.646655 
L 197.327622 263.209769 
L 198.368054 260.582059 
L 199.408487 258.135412 
L 199.928703 257.366152 
L 200.374603 257.063705 
L 200.746186 257.086321 
L 201.117769 257.355884 
L 201.563668 257.975808 
L 202.232518 259.374312 
L 204.684966 265.046871 
L 205.874031 266.838732 
L 207.731946 269.306614 
L 208.475112 269.944131 
L 209.069645 270.191529 
L 209.664178 270.196237 
L 211.596409 269.939166 
L 212.190942 270.297138 
L 213.900224 271.498183 
L 214.569073 271.603952 
L 215.312239 271.459769 
L 216.724255 271.105347 
L 217.467421 271.213548 
L 218.953753 271.530311 
L 219.696919 271.413837 
L 221.331884 271.024915 
L 222.000733 271.188582 
L 223.710015 271.8 
L 224.230231 271.690864 
L 224.824764 271.334359 
L 226.831312 269.829996 
L 227.351529 269.875078 
L 229.209444 270.376992 
L 229.72966 270.120321 
L 230.324193 269.560794 
L 231.215992 268.370926 
L 234.337289 263.654193 
L 235.303405 261.276563 
L 236.49247 258.377359 
L 237.087003 257.477248 
L 237.532903 257.191791 
L 237.904486 257.233811 
L 238.276069 257.525586 
L 238.721968 258.171861 
L 239.390818 259.597705 
L 241.694632 264.964551 
L 242.883698 266.852928 
L 244.444347 268.952736 
L 245.261829 269.686795 
L 245.930679 269.9786 
L 246.599528 270.004158 
L 248.011543 269.921363 
L 248.606076 270.170879 
L 250.835574 271.397784 
L 251.504424 271.377641 
L 253.659605 271.097768 
L 255.666153 271.338993 
L 256.780902 271.051028 
L 257.598385 270.933739 
L 258.341551 271.076563 
L 259.827883 271.468469 
L 260.422416 271.336125 
L 261.091265 270.929115 
L 262.800547 269.723575 
L 263.39508 269.69296 
L 265.104362 269.883318 
L 265.624578 269.604461 
L 266.219111 269.032354 
L 267.185226 267.723039 
L 269.711991 263.805915 
L 270.529473 261.935412 
L 272.313072 257.637094 
L 272.833288 256.993278 
L 273.204871 256.830517 
L 273.576454 256.929072 
L 273.948037 257.279161 
L 274.468253 258.135158 
L 275.211419 259.860996 
L 276.995018 264.145344 
L 278.109767 266.096745 
L 279.521782 268.125384 
L 280.339265 268.980758 
L 281.008114 269.398113 
L 281.676963 269.559206 
L 283.460562 269.787882 
L 284.352361 270.31725 
L 285.392793 270.89372 
L 286.135959 271.04077 
L 287.027759 270.952412 
L 288.216824 270.843475 
L 289.40589 271.036669 
L 290.372006 271.085376 
L 291.412438 270.87268 
L 292.378554 270.732982 
L 293.196036 270.858237 
L 294.385102 271.074938 
L 294.979635 270.959515 
L 295.648484 270.595977 
L 297.432083 269.451035 
L 298.100932 269.39802 
L 299.364314 269.375333 
L 299.958847 269.063987 
L 300.627696 268.406641 
L 301.593812 267.067716 
L 303.60036 263.856338 
L 304.417843 262.08892 
L 306.647341 256.889698 
L 307.093241 256.488705 
L 307.464824 256.443131 
L 307.836407 256.662495 
L 308.282306 257.246745 
L 308.876839 258.454324 
L 311.92382 265.383953 
L 313.187202 267.321492 
L 314.079001 268.340319 
L 314.822167 268.861291 
L 315.565333 269.099514 
L 317.125982 269.486835 
L 318.463681 270.257388 
L 319.281163 270.574897 
L 320.098646 270.637413 
L 322.179511 270.624065 
L 323.665843 270.76376 
L 324.780592 270.572457 
L 325.821024 270.464 
L 327.084406 270.638816 
L 327.827572 270.613571 
L 328.496422 270.360689 
L 329.536854 269.65769 
L 330.428653 269.162167 
L 331.171819 269.014705 
L 332.286568 268.828212 
L 332.881101 268.472389 
L 333.54995 267.7832 
L 334.516066 266.405271 
L 336.151031 263.666625 
L 337.042831 261.73814 
L 339.272329 256.493988 
L 339.718228 256.081609 
L 340.089811 256.032059 
L 340.461394 256.253136 
L 340.907294 256.8458 
L 341.501827 258.070114 
L 344.548807 265.102517 
L 345.663556 266.840748 
L 346.555355 267.856207 
L 347.298521 268.3791 
L 348.190321 268.708196 
L 349.379386 269.150889 
L 351.608884 270.181462 
L 352.575 270.223388 
L 354.061332 270.280473 
L 355.621981 270.401861 
L 357.108313 270.17325 
L 358.148745 270.167063 
L 359.412127 270.187768 
L 360.080977 269.970791 
L 361.047092 269.375489 
L 362.161841 268.750781 
L 364.391339 267.837882 
L 365.060189 267.098655 
L 366.026305 265.657652 
L 367.43832 263.144412 
L 368.404436 260.953249 
L 370.336667 256.264659 
L 370.782567 255.731266 
L 371.15415 255.578297 
L 371.525733 255.70349 
L 371.897316 256.094034 
L 372.417532 257.017796 
L 373.235015 259.024413 
L 374.86998 263.082563 
L 375.984729 265.20065 
L 377.025162 266.723002 
L 377.842644 267.54597 
L 378.660127 268.048195 
L 382.598907 269.766852 
L 385.868837 270.016112 
L 386.983586 269.89444 
L 388.395601 269.767432 
L 389.807617 269.692854 
L 390.550783 269.400805 
L 394.563879 267.101106 
L 395.307045 266.17109 
L 396.347478 264.469651 
L 397.536543 262.133345 
L 398.576976 259.560083 
L 399.988991 256.057323 
L 400.509207 255.318918 
L 400.88079 255.105089 
L 401.178057 255.138208 
L 401.54964 255.430044 
L 401.995539 256.108565 
L 402.664389 257.615579 
L 405.116836 263.632649 
L 406.157269 265.448822 
L 407.049068 266.594477 
L 407.866551 267.294318 
L 409.129933 268.013143 
L 411.508064 269.199493 
L 412.548496 269.356267 
L 415.74411 269.51842 
L 419.385624 268.915816 
L 420.649006 268.130238 
L 423.324403 266.33814 
L 424.141886 265.205194 
L 425.256635 263.206239 
L 426.371384 260.754286 
L 428.823832 254.928543 
L 429.269732 254.59448 
L 429.566998 254.601533 
L 429.938581 254.867647 
L 430.384481 255.52723 
L 431.05333 257.029327 
L 433.654411 263.451835 
L 434.620527 265.104667 
L 435.512326 266.204698 
L 436.404125 266.946894 
L 438.410673 268.201606 
L 439.451106 268.648709 
L 440.565855 268.861061 
L 443.018303 269.069388 
L 445.024851 268.826803 
L 446.36255 268.588646 
L 447.254349 268.157878 
L 449.85543 266.429289 
L 450.598596 265.682183 
L 451.416078 264.502234 
L 452.456511 262.551633 
L 453.57126 259.979058 
L 455.800758 254.505458 
L 456.246657 254.067158 
L 456.61824 254.019832 
L 456.989823 254.266039 
L 457.435723 254.912693 
L 458.030256 256.226702 
L 461.00292 263.509379 
L 461.894719 264.918787 
L 462.786518 265.922492 
L 463.901267 266.814466 
L 465.461916 267.793588 
L 466.428032 268.148579 
L 467.98868 268.42966 
L 469.400696 268.514991 
L 470.961344 268.316824 
L 472.596309 267.962442 
L 473.488109 267.498602 
L 475.271707 266.216834 
L 476.237823 265.331818 
L 476.980989 264.3466 
L 477.872788 262.767513 
L 478.987537 260.292544 
L 480.325236 256.681281 
L 481.291352 254.31803 
L 481.811568 253.568846 
L 482.183151 253.367834 
L 482.480417 253.424637 
L 482.852 253.760534 
L 483.2979 254.505185 
L 483.966749 256.113426 
L 486.270564 262.064147 
L 487.23668 263.822347 
L 488.128479 264.999722 
L 489.168911 265.987657 
L 490.50661 266.948107 
L 491.547043 267.427454 
L 492.810425 267.733726 
L 494.22244 267.879563 
L 495.411506 267.76878 
L 497.195104 267.377873 
L 498.086903 266.954059 
L 499.201652 266.149113 
L 500.539351 264.950382 
L 501.356834 263.91865 
L 502.174316 262.515237 
L 503.214749 260.233978 
L 504.403814 257.051185 
L 505.667197 253.744202 
L 506.187413 252.918947 
L 506.558996 252.662304 
L 506.856262 252.678528 
L 507.227845 252.972808 
L 507.673745 253.684752 
L 508.342594 255.280604 
L 510.795042 261.668621 
L 511.761158 263.383969 
L 512.652957 264.537681 
L 513.767706 265.600736 
L 514.882455 266.36573 
L 515.922887 266.799094 
L 517.260586 267.09006 
L 518.375335 267.12743 
L 519.713034 266.91594 
L 520.976416 266.512956 
L 521.868215 265.988806 
L 522.982964 265.05752 
L 524.097713 263.854824 
L 524.915196 262.633811 
L 525.806995 260.863855 
L 526.847428 258.277062 
L 529.076926 252.437243 
L 529.522825 251.925387 
L 529.894408 251.834967 
L 530.191675 251.990618 
L 530.563258 252.452535 
L 531.083474 253.510701 
L 531.975273 255.954642 
L 533.461605 259.98079 
L 534.427721 261.969636 
L 535.31952 263.335348 
L 536.285636 264.43238 
L 537.326068 265.292328 
L 538.292184 265.81417 
L 539.406933 266.156708 
L 540.521682 266.275123 
L 541.636431 266.149424 
L 542.825497 265.798911 
L 543.717296 265.328863 
L 544.683412 264.548297 
L 545.723844 263.426763 
L 546.615643 262.147034 
L 547.433126 260.584326 
L 548.399242 258.239763 
L 549.95989 253.720842 
L 550.777373 251.72694 
L 551.223273 251.086071 
L 551.594856 250.885021 
L 551.892122 250.958605 
L 552.263705 251.334402 
L 552.709605 252.146285 
L 553.452771 254.082594 
L 555.459319 259.592592 
L 556.425435 261.49554 
L 557.39155 262.89258 
L 558.357666 263.908008 
L 559.323782 264.601925 
L 560.289898 265.024449 
L 561.33033 265.235396 
L 562.296446 265.194391 
L 563.336878 264.923801 
L 564.302994 264.459869 
L 565.194793 263.772946 
L 566.160909 262.732621 
L 567.052708 261.474046 
L 567.870191 259.939565 
L 568.76199 257.771476 
L 570.025372 254.040217 
L 571.140121 250.939546 
L 571.660338 250.051754 
L 572.031921 249.776271 
L 572.329187 249.795552 
L 572.626453 250.026617 
L 573.072353 250.731864 
L 573.666886 252.181051 
L 576.4166 259.583068 
L 577.382716 261.251861 
L 578.348832 262.466919 
L 579.240631 263.242858 
L 580.13243 263.728883 
L 581.024229 263.973138 
L 581.916028 263.984053 
L 582.807828 263.768335 
L 583.699627 263.328618 
L 584.591426 262.619938 
L 585.483225 261.606886 
L 586.375024 260.242743 
L 587.266824 258.426312 
L 588.232939 255.881354 
L 590.685387 248.947157 
L 591.131287 248.464956 
L 591.428553 248.414389 
L 591.72582 248.585776 
L 592.097403 249.091248 
L 592.617619 250.240527 
L 593.583735 253.092556 
L 594.921433 256.911988 
L 595.887549 259.000481 
L 596.779348 260.415477 
L 597.671148 261.408344 
L 598.48863 261.999503 
L 599.306113 262.330236 
L 600.123595 262.421222 
L 600.941078 262.274811 
L 601.758561 261.89328 
L 602.576043 261.248109 
L 603.393526 260.294896 
L 604.211009 259.00097 
L 605.028491 257.307183 
L 605.92029 254.939524 
L 607.332306 250.401663 
L 608.224105 247.858222 
L 608.744321 246.9627 
L 609.115904 246.717214 
L 609.413171 246.77964 
L 609.710437 247.066728 
L 610.156337 247.868898 
L 610.825186 249.663263 
L 613.054684 256.116628 
L 613.946483 257.884965 
L 614.763966 259.048167 
L 615.581448 259.823677 
L 616.324614 260.232728 
L 617.06778 260.381305 
L 617.73663 260.298089 
L 618.479796 259.96659 
L 619.222962 259.369163 
L 619.966128 258.472437 
L 620.78361 257.100708 
L 621.601093 255.275195 
L 622.492892 252.722562 
L 625.019657 244.972589 
L 625.39124 244.551732 
L 625.688506 244.481001 
L 625.985772 244.650418 
L 626.357355 245.175972 
L 626.877572 246.383683 
L 627.843687 249.372171 
L 629.10707 253.112387 
L 629.998869 255.086208 
L 630.816351 256.359246 
L 631.559517 257.102781 
L 632.228367 257.462512 
L 632.8229 257.55241 
L 633.417432 257.42959 
L 634.011965 257.093171 
L 634.680815 256.447752 
L 635.349664 255.49542 
L 636.09283 254.043837 
L 636.910313 251.905794 
L 637.876428 248.692662 
L 639.660027 242.530096 
L 640.180243 241.55071 
L 640.551826 241.297123 
L 640.849092 241.379544 
L 641.146359 241.704639 
L 641.592258 242.583553 
L 642.261108 244.49514 
L 644.119023 250.090064 
L 644.862189 251.608464 
L 645.531038 252.546838 
L 646.125571 253.053272 
L 646.645787 253.252291 
L 647.166003 253.228032 
L 647.68622 252.96564 
L 648.280752 252.374997 
L 648.875285 251.466932 
L 649.544135 250.043033 
L 650.287301 247.936786 
L 651.1791 244.704809 
L 653.111331 237.374758 
L 653.557231 236.465747 
L 653.928814 236.146637 
L 654.22608 236.191289 
L 654.523347 236.48712 
L 654.969246 237.325024 
L 655.712412 239.358298 
L 657.124428 243.293162 
L 657.793277 244.53633 
L 658.38781 245.192699 
L 658.83371 245.390771 
L 659.279609 245.326999 
L 659.725509 245.003781 
L 660.245725 244.295709 
L 660.765941 243.213176 
L 661.360474 241.46408 
L 662.177957 238.295167 
L 663.144073 233.449203 
L 664.630405 226.006225 
L 665.150621 224.411665 
L 665.745154 223.292513 
L 666.339686 223.0629 
L 667.380119 223.321849 
L 667.603069 223.21738 
L 667.974652 222.946185 
L 668.271918 222.458041 
L 668.569184 221.682237 
L 668.866451 220.523711 
L 669.386667 217.400979 
L 669.906883 212.552362 
L 670.427099 205.16393 
L 670.872999 195.611161 
L 671.393215 179.334658 
L 671.913431 156.465792 
L 672.285014 127.26204 
L 673.325447 30.249186 
L 673.622713 23.614922 
L 673.91998 21.146312 
L 674.217246 20.267974 
L 674.514512 19.960481 
L 674.960412 19.830047 
L 675.629261 19.8 
L 675.629261 19.8 
" clip-path="url(#p7742da8964)" style="fill: none; stroke: #1f77b4; stroke-width: 1.5; stroke-linecap: square"/>
   </g>
   <g id="line2d_15">
    <path d="M 36.465625 213.409919 
L 706.065625 213.409919 
" clip-path="url(#p7742da8964)" style="fill: none; stroke-dasharray: 2.22,0.96; stroke-dashoffset: 0; stroke: #ff0000; stroke-width: 0.6"/>
   </g>
   <g id="line2d_16">
    <path d="M 66.901989 261.54104 
L 67.124938 261.066086 
L 67.422205 260.608004 
L 67.645155 260.572509 
L 67.868104 260.813197 
L 68.239687 261.718136 
L 69.726019 266.098783 
L 70.171919 266.67324 
L 70.543502 266.855684 
L 70.915085 266.801632 
L 71.360985 266.471835 
L 71.955517 265.676481 
L 72.847317 263.999276 
L 74.036382 261.790131 
L 74.630915 261.150682 
L 75.299764 260.811623 
L 75.968614 260.460045 
L 76.414513 259.98508 
L 76.93473 259.074758 
L 77.603579 257.372112 
L 79.684444 251.570787 
L 80.130343 250.975338 
L 80.501926 250.779889 
L 80.799193 250.82877 
L 81.170776 251.141702 
L 81.616675 251.857496 
L 82.211208 253.280138 
L 83.47459 257.103713 
L 84.36639 259.440736 
L 85.035239 260.628608 
L 85.778405 261.481334 
L 86.818838 262.657893 
L 87.784953 264.197002 
L 88.974019 266.007623 
L 89.642868 266.659557 
L 90.163085 266.868884 
L 90.534668 266.813363 
L 90.906251 266.560493 
L 91.35215 265.991185 
L 92.838482 263.740627 
L 93.135749 263.787813 
L 93.433015 264.082381 
L 93.953231 264.99152 
L 94.993664 266.871801 
L 95.588196 267.472967 
L 96.034096 267.644056 
L 96.479996 267.57484 
L 96.925895 267.274832 
L 97.594745 266.489957 
L 98.412227 265.535061 
L 98.78381 265.369289 
L 99.155393 265.4467 
L 99.601293 265.795359 
L 100.716042 266.790086 
L 101.161941 266.901035 
L 101.607841 266.790786 
L 102.202374 266.367351 
L 103.16849 265.62799 
L 103.540073 265.609974 
L 103.911656 265.836492 
L 104.431872 266.507455 
L 105.769571 268.418189 
L 106.21547 268.668166 
L 106.66137 268.648769 
L 107.107269 268.366066 
L 107.627486 267.734264 
L 108.444968 266.301041 
L 109.113818 265.259975 
L 109.485401 265.021505 
L 109.782667 265.08199 
L 110.15425 265.455655 
L 110.823099 266.604053 
L 111.566265 267.766985 
L 112.086482 268.1823 
L 112.532381 268.235956 
L 112.978281 268.035093 
L 113.498497 267.534636 
L 114.241663 266.47286 
L 115.876628 264.014342 
L 116.694111 263.292886 
L 117.511593 262.564641 
L 118.106126 261.691349 
L 118.774976 260.240923 
L 121.153107 254.450908 
L 121.599006 254.050012 
L 121.970589 253.999026 
L 122.342172 254.208087 
L 122.788072 254.780546 
L 123.382605 255.996703 
L 124.423037 258.803521 
L 125.537786 261.614609 
L 126.280952 262.937514 
L 127.395701 264.373159 
L 128.659083 266.152094 
L 129.848149 267.7524 
L 130.516998 268.327785 
L 131.037215 268.524675 
L 131.483114 268.487718 
L 132.00333 268.20379 
L 133.638296 267.048946 
L 134.009879 267.187469 
L 134.530095 267.689975 
L 136.090743 269.454392 
L 136.685276 269.710582 
L 137.205492 269.692126 
L 137.800025 269.433477 
L 139.360674 268.602258 
L 139.88089 268.676942 
L 140.698373 269.101975 
L 141.515855 269.440895 
L 142.110388 269.438134 
L 142.779238 269.186819 
L 143.968303 268.681971 
L 144.414203 268.73374 
L 144.934419 269.036513 
L 146.792334 270.412031 
L 147.238234 270.3814 
L 147.75845 270.098473 
L 148.352983 269.493702 
L 149.839315 267.822726 
L 150.210898 267.751149 
L 150.582481 267.899538 
L 151.102697 268.380633 
L 152.143129 269.402608 
L 152.663345 269.582848 
L 153.109245 269.49944 
L 153.629461 269.146162 
L 154.298311 268.375999 
L 156.899392 264.986424 
L 157.791191 263.956185 
L 158.46004 262.786921 
L 159.277523 260.830538 
L 160.763855 257.153656 
L 161.358388 256.293257 
L 161.804287 256.037822 
L 162.17587 256.101205 
L 162.547453 256.410448 
L 163.067669 257.212467 
L 163.736519 258.715904 
L 165.8917 263.887501 
L 166.783499 265.264402 
L 169.756163 269.154242 
L 170.425013 269.606386 
L 170.945229 269.722619 
L 171.465445 269.628255 
L 172.357244 269.168714 
L 172.951777 268.963155 
L 173.397677 269.022618 
L 173.917893 269.347006 
L 175.998758 271.0022 
L 176.593291 271.052785 
L 177.26214 270.867611 
L 178.748472 270.350345 
L 179.343005 270.429976 
L 181.349553 270.924609 
L 182.092719 270.719965 
L 183.356101 270.340514 
L 183.876317 270.427572 
L 184.545167 270.785237 
L 185.659916 271.419436 
L 186.180132 271.477788 
L 186.700348 271.314887 
L 187.294881 270.875338 
L 189.078479 269.291773 
L 189.524379 269.288217 
L 190.044595 269.542437 
L 191.307977 270.307993 
L 191.828194 270.30912 
L 192.34841 270.052485 
L 192.942943 269.483056 
L 193.909058 268.172602 
L 195.39539 266.196396 
L 196.584456 264.646655 
L 197.327622 263.209769 
L 198.368054 260.582059 
L 199.408487 258.135412 
L 199.928703 257.366152 
L 200.374603 257.063705 
L 200.746186 257.086321 
L 201.117769 257.355884 
L 201.563668 257.975808 
L 202.232518 259.374312 
L 204.684966 265.046871 
L 205.874031 266.838732 
L 207.731946 269.306614 
L 208.475112 269.944131 
L 209.069645 270.191529 
L 209.664178 270.196237 
L 211.596409 269.939166 
L 212.190942 270.297138 
L 213.900224 271.498183 
L 214.569073 271.603952 
L 215.312239 271.459769 
L 216.724255 271.105347 
L 217.467421 271.213548 
L 218.953753 271.530311 
L 219.696919 271.413837 
L 221.331884 271.024915 
L 222.000733 271.188582 
L 223.710015 271.8 
L 224.230231 271.690864 
L 224.824764 271.334359 
L 226.831312 269.829996 
L 227.351529 269.875078 
L 229.209444 270.376992 
L 229.72966 270.120321 
L 230.324193 269.560794 
L 231.215992 268.370926 
L 234.337289 263.654193 
L 235.303405 261.276563 
L 236.49247 258.377359 
L 237.087003 257.477248 
L 237.532903 257.191791 
L 237.904486 257.233811 
L 238.276069 257.525586 
L 238.721968 258.171861 
L 239.390818 259.597705 
L 241.694632 264.964551 
L 242.883698 266.852928 
L 244.444347 268.952736 
L 245.261829 269.686795 
L 245.930679 269.9786 
L 246.599528 270.004158 
L 248.011543 269.921363 
L 248.606076 270.170879 
L 250.835574 271.397784 
L 251.504424 271.377641 
L 253.659605 271.097768 
L 255.666153 271.338993 
L 256.780902 271.051028 
L 257.598385 270.933739 
L 258.341551 271.076563 
L 259.827883 271.468469 
L 260.422416 271.336125 
L 261.091265 270.929115 
L 262.800547 269.723575 
L 263.39508 269.69296 
L 265.104362 269.883318 
L 265.624578 269.604461 
L 266.219111 269.032354 
L 267.185226 267.723039 
L 269.711991 263.805915 
L 270.529473 261.935412 
L 272.313072 257.637094 
L 272.833288 256.993278 
L 273.204871 256.830517 
L 273.576454 256.929072 
L 273.948037 257.279161 
L 274.468253 258.135158 
L 275.211419 259.860996 
L 276.995018 264.145344 
L 278.109767 266.096745 
L 279.521782 268.125384 
L 280.339265 268.980758 
L 281.008114 269.398113 
L 281.676963 269.559206 
L 283.460562 269.787882 
L 284.352361 270.31725 
L 285.392793 270.89372 
L 286.135959 271.04077 
L 287.027759 270.952412 
L 288.216824 270.843475 
L 289.40589 271.036669 
L 290.372006 271.085376 
L 291.412438 270.87268 
L 292.378554 270.732982 
L 293.196036 270.858237 
L 294.385102 271.074938 
L 294.979635 270.959515 
L 295.648484 270.595977 
L 297.432083 269.451035 
L 298.100932 269.39802 
L 299.364314 269.375333 
L 299.958847 269.063987 
L 300.627696 268.406641 
L 301.593812 267.067716 
L 303.60036 263.856338 
L 304.417843 262.08892 
L 306.647341 256.889698 
L 307.093241 256.488705 
L 307.464824 256.443131 
L 307.836407 256.662495 
L 308.282306 257.246745 
L 308.876839 258.454324 
L 311.92382 265.383953 
L 313.187202 267.321492 
L 314.079001 268.340319 
L 314.822167 268.861291 
L 315.565333 269.099514 
L 317.125982 269.486835 
L 318.463681 270.257388 
L 319.281163 270.574897 
L 320.098646 270.637413 
L 322.179511 270.624065 
L 323.665843 270.76376 
L 324.780592 270.572457 
L 325.821024 270.464 
L 327.084406 270.638816 
L 327.827572 270.613571 
L 328.496422 270.360689 
L 329.536854 269.65769 
L 330.428653 269.162167 
L 331.171819 269.014705 
L 332.286568 268.828212 
L 332.881101 268.472389 
L 333.54995 267.7832 
L 334.516066 266.405271 
L 336.151031 263.666625 
L 337.042831 261.73814 
L 339.272329 256.493988 
L 339.718228 256.081609 
L 340.089811 256.032059 
L 340.461394 256.253136 
L 340.907294 256.8458 
L 341.501827 258.070114 
L 344.548807 265.102517 
L 345.663556 266.840748 
L 346.555355 267.856207 
L 347.298521 268.3791 
L 348.190321 268.708196 
L 349.379386 269.150889 
L 351.608884 270.181462 
L 352.575 270.223388 
L 354.061332 270.280473 
L 355.621981 270.401861 
L 357.108313 270.17325 
L 358.148745 270.167063 
L 359.412127 270.187768 
L 360.080977 269.970791 
L 361.047092 269.375489 
L 362.161841 268.750781 
L 364.391339 267.837882 
L 365.060189 267.098655 
L 366.026305 265.657652 
L 367.43832 263.144412 
L 368.404436 260.953249 
L 370.336667 256.264659 
L 370.782567 255.731266 
L 371.15415 255.578297 
L 371.525733 255.70349 
L 371.897316 256.094034 
L 372.417532 257.017796 
L 373.235015 259.024413 
L 374.86998 263.082563 
L 375.984729 265.20065 
L 377.025162 266.723002 
L 377.842644 267.54597 
L 378.660127 268.048195 
L 382.598907 269.766852 
L 385.868837 270.016112 
L 386.983586 269.89444 
L 388.395601 269.767432 
L 389.807617 269.692854 
L 390.550783 269.400805 
L 394.563879 267.101106 
L 395.307045 266.17109 
L 396.347478 264.469651 
L 397.536543 262.133345 
L 398.576976 259.560083 
L 399.988991 256.057323 
L 400.509207 255.318918 
L 400.88079 255.105089 
L 401.178057 255.138208 
L 401.54964 255.430044 
L 401.995539 256.108565 
L 402.664389 257.615579 
L 405.116836 263.632649 
L 406.157269 265.448822 
L 407.049068 266.594477 
L 407.866551 267.294318 
L 409.129933 268.013143 
L 411.508064 269.199493 
L 412.548496 269.356267 
L 415.74411 269.51842 
L 419.385624 268.915816 
L 420.649006 268.130238 
L 423.324403 266.33814 
L 424.141886 265.205194 
L 425.256635 263.206239 
L 426.371384 260.754286 
L 428.823832 254.928543 
L 429.269732 254.59448 
L 429.566998 254.601533 
L 429.938581 254.867647 
L 430.384481 255.52723 
L 431.05333 257.029327 
L 433.654411 263.451835 
L 434.620527 265.104667 
L 435.512326 266.204698 
L 436.404125 266.946894 
L 438.410673 268.201606 
L 439.451106 268.648709 
L 440.565855 268.861061 
L 443.018303 269.069388 
L 445.024851 268.826803 
L 446.36255 268.588646 
L 447.254349 268.157878 
L 449.85543 266.429289 
L 450.598596 265.682183 
L 451.416078 264.502234 
L 452.456511 262.551633 
L 453.57126 259.979058 
L 455.800758 254.505458 
L 456.246657 254.067158 
L 456.61824 254.019832 
L 456.989823 254.266039 
L 457.435723 254.912693 
L 458.030256 256.226702 
L 461.00292 263.509379 
L 461.894719 264.918787 
L 462.786518 265.922492 
L 463.901267 266.814466 
L 465.461916 267.793588 
L 466.428032 268.148579 
L 467.98868 268.42966 
L 469.400696 268.514991 
L 470.961344 268.316824 
L 472.596309 267.962442 
L 473.488109 267.498602 
L 475.271707 266.216834 
L 476.237823 265.331818 
L 476.980989 264.3466 
L 477.872788 262.767513 
L 478.987537 260.292544 
L 480.325236 256.681281 
L 481.291352 254.31803 
L 481.811568 253.568846 
L 482.183151 253.367834 
L 482.480417 253.424637 
L 482.852 253.760534 
L 483.2979 254.505185 
L 483.966749 256.113426 
L 486.270564 262.064147 
L 487.23668 263.822347 
L 488.128479 264.999722 
L 489.168911 265.987657 
L 490.50661 266.948107 
L 491.547043 267.427454 
L 492.810425 267.733726 
L 494.22244 267.879563 
L 495.411506 267.76878 
L 497.195104 267.377873 
L 498.086903 266.954059 
L 499.201652 266.149113 
L 500.539351 264.950382 
L 501.356834 263.91865 
L 502.174316 262.515237 
L 503.214749 260.233978 
L 504.403814 257.051185 
L 505.667197 253.744202 
L 506.187413 252.918947 
L 506.558996 252.662304 
L 506.856262 252.678528 
L 507.227845 252.972808 
L 507.673745 253.684752 
L 508.342594 255.280604 
L 510.795042 261.668621 
L 511.761158 263.383969 
L 512.652957 264.537681 
L 513.767706 265.600736 
L 514.882455 266.36573 
L 515.922887 266.799094 
L 517.260586 267.09006 
L 518.375335 267.12743 
L 519.713034 266.91594 
L 520.976416 266.512956 
L 521.868215 265.988806 
L 522.982964 265.05752 
L 524.097713 263.854824 
L 524.915196 262.633811 
L 525.806995 260.863855 
L 526.847428 258.277062 
L 529.076926 252.437243 
L 529.522825 251.925387 
L 529.894408 251.834967 
L 530.191675 251.990618 
L 530.563258 252.452535 
L 531.083474 253.510701 
L 531.975273 255.954642 
L 533.461605 259.98079 
L 534.427721 261.969636 
L 535.31952 263.335348 
L 536.285636 264.43238 
L 537.326068 265.292328 
L 538.292184 265.81417 
L 539.406933 266.156708 
L 540.521682 266.275123 
L 541.636431 266.149424 
L 542.825497 265.798911 
L 543.717296 265.328863 
L 544.683412 264.548297 
L 545.723844 263.426763 
L 546.615643 262.147034 
L 547.433126 260.584326 
L 548.399242 258.239763 
L 549.95989 253.720842 
L 550.777373 251.72694 
L 551.223273 251.086071 
L 551.594856 250.885021 
L 551.892122 250.958605 
L 552.263705 251.334402 
L 552.709605 252.146285 
L 553.452771 254.082594 
L 555.459319 259.592592 
L 556.425435 261.49554 
L 557.39155 262.89258 
L 558.357666 263.908008 
L 559.323782 264.601925 
L 560.289898 265.024449 
L 561.33033 265.235396 
L 562.296446 265.194391 
L 563.336878 264.923801 
L 564.302994 264.459869 
L 565.194793 263.772946 
L 566.160909 262.732621 
L 567.052708 261.474046 
L 567.870191 259.939565 
L 568.76199 257.771476 
L 570.025372 254.040217 
L 571.140121 250.939546 
L 571.660338 250.051754 
L 572.031921 249.776271 
L 572.329187 249.795552 
L 572.626453 250.026617 
L 573.072353 250.731864 
L 573.666886 252.181051 
L 576.4166 259.583068 
L 577.382716 261.251861 
L 578.348832 262.466919 
L 579.240631 263.242858 
L 580.13243 263.728883 
L 581.024229 263.973138 
L 581.916028 263.984053 
L 582.807828 263.768335 
L 583.699627 263.328618 
L 584.591426 262.619938 
L 585.483225 261.606886 
L 586.375024 260.242743 
L 587.266824 258.426312 
L 588.232939 255.881354 
L 590.685387 248.947157 
L 591.131287 248.464956 
L 591.428553 248.414389 
L 591.72582 248.585776 
L 592.097403 249.091248 
L 592.617619 250.240527 
L 593.583735 253.092556 
L 594.921433 256.911988 
L 595.887549 259.000481 
L 596.779348 260.415477 
L 597.671148 261.408344 
L 598.48863 261.999503 
L 599.306113 262.330236 
L 600.123595 262.421222 
L 600.941078 262.274811 
L 601.758561 261.89328 
L 602.576043 261.248109 
L 603.393526 260.294896 
L 604.211009 259.00097 
L 605.028491 257.307183 
L 605.92029 254.939524 
L 607.332306 250.401663 
L 608.224105 247.858222 
L 608.744321 246.9627 
L 609.115904 246.717214 
L 609.413171 246.77964 
L 609.710437 247.066728 
L 610.156337 247.868898 
L 610.825186 249.663263 
L 613.054684 256.116628 
L 613.946483 257.884965 
L 614.763966 259.048167 
L 615.581448 259.823677 
L 616.324614 260.232728 
L 617.06778 260.381305 
L 617.73663 260.298089 
L 618.479796 259.96659 
L 619.222962 259.369163 
L 619.966128 258.472437 
L 620.78361 257.100708 
L 621.601093 255.275195 
L 622.492892 252.722562 
L 625.019657 244.972589 
L 625.39124 244.551732 
L 625.688506 244.481001 
L 625.985772 244.650418 
L 626.357355 245.175972 
L 626.877572 246.383683 
L 627.843687 249.372171 
L 629.10707 253.112387 
L 629.998869 255.086208 
L 630.816351 256.359246 
L 631.559517 257.102781 
L 632.228367 257.462512 
L 632.8229 257.55241 
L 633.417432 257.42959 
L 634.011965 257.093171 
L 634.680815 256.447752 
L 635.349664 255.49542 
L 636.09283 254.043837 
L 636.910313 251.905794 
L 637.876428 248.692662 
L 639.660027 242.530096 
L 640.180243 241.55071 
L 640.551826 241.297123 
L 640.849092 241.379544 
L 641.146359 241.704639 
L 641.592258 242.583553 
L 642.261108 244.49514 
L 644.119023 250.090064 
L 644.862189 251.608464 
L 645.531038 252.546838 
L 646.125571 253.053272 
L 646.645787 253.252291 
L 647.166003 253.228032 
L 647.68622 252.96564 
L 648.280752 252.374997 
L 648.875285 251.466932 
L 649.544135 250.043033 
L 650.287301 247.936786 
L 651.1791 244.704809 
L 653.111331 237.374758 
L 653.557231 236.465747 
L 653.928814 236.146637 
L 654.22608 236.191289 
L 654.523347 236.48712 
L 654.969246 237.325024 
L 655.712412 239.358298 
L 657.124428 243.293162 
L 657.793277 244.53633 
L 658.38781 245.192699 
L 658.83371 245.390771 
L 659.279609 245.326999 
L 659.725509 245.003781 
L 660.245725 244.295709 
L 660.765941 243.213176 
L 661.360474 241.46408 
L 662.177957 238.295167 
L 663.144073 233.449203 
L 664.630405 226.006225 
L 665.150621 224.411665 
L 665.745154 223.292513 
L 666.339686 223.0629 
L 667.380119 223.321849 
L 667.603069 223.21738 
L 667.974652 222.946185 
L 668.271918 222.458041 
L 668.569184 221.682237 
L 668.866451 220.523711 
L 669.386667 217.400979 
L 669.75825 214.153486 
L 669.75825 214.153486 
" clip-path="url(#p7742da8964)" style="fill: none; stroke: #ff7f0e; stroke-width: 1.5; stroke-linecap: square"/>
   </g>
   <g id="patch_3">
    <path d="M 36.465625 284.4 
L 36.465625 7.2 
" style="fill: none; stroke: #000000; stroke-width: 0.8; stroke-linejoin: miter; stroke-linecap: square"/>
   </g>
   <g id="patch_4">
    <path d="M 706.065625 284.4 
L 706.065625 7.2 
" style="fill: none; stroke: #000000; stroke-width: 0.8; stroke-linejoin: miter; stroke-linecap: square"/>
   </g>
   <g id="patch_5">
    <path d="M 36.465625 284.4 
L 706.065625 284.4 
" style="fill: none; stroke: #000000; stroke-width: 0.8; stroke-linejoin: miter; stroke-linecap: square"/>
   </g>
   <g id="patch_6">
    <path d="M 36.465625 7.2 
L 706.065625 7.2 
" style="fill: none; stroke: #000000; stroke-width: 0.8; stroke-linejoin: miter; stroke-linecap: square"/>
   </g>
   <g id="legend_1">
    <g id="patch_7">
     <path d="M 43.465625 73.9125 
L 212.265625 73.9125 
Q 214.265625 73.9125 214.265625 71.9125 
L 214.265625 14.2 
Q 214.265625 12.2 212.265625 12.2 
L 43.465625 12.2 
Q 41.465625 12.2 41.465625 14.2 
L 41.465625 71.9125 
Q 41.465625 73.9125 43.465625 73.9125 
z
" style="fill: #ffffff; opacity: 0.8; stroke: #cccccc; stroke-linejoin: miter"/>
    </g>
    <g id="line2d_17">
     <path d="M 45.465625 20.298438 
L 55.465625 20.298438 
L 65.465625 20.298438 
" style="fill: none; stroke: #1f77b4; stroke-width: 1.5; stroke-linecap: square"/>
    </g>
    <g id="text_14">
     <!-- Mf before ISCO cut: $e$=0.27 -->
     <g transform="translate(73.465625 23.798438) scale(0.1 -0.1)">
      <defs>
       <path id="DejaVuSans-4d" d="M 628 4666 
L 1569 4666 
L 2759 1491 
L 3956 4666 
L 4897 4666 
L 4897 0 
L 4281 0 
L 4281 4097 
L 3078 897 
L 2444 897 
L 1241 4097 
L 1241 0 
L 628 0 
L 628 4666 
z
" transform="scale(0.015625)"/>
       <path id="DejaVuSans-66" d="M 2375 4863 
L 2375 4384 
L 1825 4384 
Q 1516 4384 1395 4259 
Q 1275 4134 1275 3809 
L 1275 3500 
L 2222 3500 
L 2222 3053 
L 1275 3053 
L 1275 0 
L 697 0 
L 697 3053 
L 147 3053 
L 147 3500 
L 697 3500 
L 697 3744 
Q 697 4328 969 4595 
Q 1241 4863 1831 4863 
L 2375 4863 
z
" transform="scale(0.015625)"/>
       <path id="DejaVuSans-20" transform="scale(0.015625)"/>
       <path id="DejaVuSans-62" d="M 3116 1747 
Q 3116 2381 2855 2742 
Q 2594 3103 2138 3103 
Q 1681 3103 1420 2742 
Q 1159 2381 1159 1747 
Q 1159 1113 1420 752 
Q 1681 391 2138 391 
Q 2594 391 2855 752 
Q 3116 1113 3116 1747 
z
M 1159 2969 
Q 1341 3281 1617 3432 
Q 1894 3584 2278 3584 
Q 2916 3584 3314 3078 
Q 3713 2572 3713 1747 
Q 3713 922 3314 415 
Q 2916 -91 2278 -91 
Q 1894 -91 1617 61 
Q 1341 213 1159 525 
L 1159 0 
L 581 0 
L 581 4863 
L 1159 4863 
L 1159 2969 
z
" transform="scale(0.015625)"/>
       <path id="DejaVuSans-65" d="M 3597 1894 
L 3597 1613 
L 953 1613 
Q 991 1019 1311 708 
Q 1631 397 2203 397 
Q 2534 397 2845 478 
Q 3156 559 3463 722 
L 3463 178 
Q 3153 47 2828 -22 
Q 2503 -91 2169 -91 
Q 1331 -91 842 396 
Q 353 884 353 1716 
Q 353 2575 817 3079 
Q 1281 3584 2069 3584 
Q 2775 3584 3186 3129 
Q 3597 2675 3597 1894 
z
M 3022 2063 
Q 3016 2534 2758 2815 
Q 2500 3097 2075 3097 
Q 1594 3097 1305 2825 
Q 1016 2553 972 2059 
L 3022 2063 
z
" transform="scale(0.015625)"/>
       <path id="DejaVuSans-6f" d="M 1959 3097 
Q 1497 3097 1228 2736 
Q 959 2375 959 1747 
Q 959 1119 1226 758 
Q 1494 397 1959 397 
Q 2419 397 2687 759 
Q 2956 1122 2956 1747 
Q 2956 2369 2687 2733 
Q 2419 3097 1959 3097 
z
M 1959 3584 
Q 2709 3584 3137 3096 
Q 3566 2609 3566 1747 
Q 3566 888 3137 398 
Q 2709 -91 1959 -91 
Q 1206 -91 779 398 
Q 353 888 353 1747 
Q 353 2609 779 3096 
Q 1206 3584 1959 3584 
z
" transform="scale(0.015625)"/>
       <path id="DejaVuSans-72" d="M 2631 2963 
Q 2534 3019 2420 3045 
Q 2306 3072 2169 3072 
Q 1681 3072 1420 2755 
Q 1159 2438 1159 1844 
L 1159 0 
L 581 0 
L 581 3500 
L 1159 3500 
L 1159 2956 
Q 1341 3275 1631 3429 
Q 1922 3584 2338 3584 
Q 2397 3584 2469 3576 
Q 2541 3569 2628 3553 
L 2631 2963 
z
" transform="scale(0.015625)"/>
       <path id="DejaVuSans-49" d="M 628 4666 
L 1259 4666 
L 1259 0 
L 628 0 
L 628 4666 
z
" transform="scale(0.015625)"/>
       <path id="DejaVuSans-53" d="M 3425 4513 
L 3425 3897 
Q 3066 4069 2747 4153 
Q 2428 4238 2131 4238 
Q 1616 4238 1336 4038 
Q 1056 3838 1056 3469 
Q 1056 3159 1242 3001 
Q 1428 2844 1947 2747 
L 2328 2669 
Q 3034 2534 3370 2195 
Q 3706 1856 3706 1288 
Q 3706 609 3251 259 
Q 2797 -91 1919 -91 
Q 1588 -91 1214 -16 
Q 841 59 441 206 
L 441 856 
Q 825 641 1194 531 
Q 1563 422 1919 422 
Q 2459 422 2753 634 
Q 3047 847 3047 1241 
Q 3047 1584 2836 1778 
Q 2625 1972 2144 2069 
L 1759 2144 
Q 1053 2284 737 2584 
Q 422 2884 422 3419 
Q 422 4038 858 4394 
Q 1294 4750 2059 4750 
Q 2388 4750 2728 4690 
Q 3069 4631 3425 4513 
z
" transform="scale(0.015625)"/>
       <path id="DejaVuSans-43" d="M 4122 4306 
L 4122 3641 
Q 3803 3938 3442 4084 
Q 3081 4231 2675 4231 
Q 1875 4231 1450 3742 
Q 1025 3253 1025 2328 
Q 1025 1406 1450 917 
Q 1875 428 2675 428 
Q 3081 428 3442 575 
Q 3803 722 4122 1019 
L 4122 359 
Q 3791 134 3420 21 
Q 3050 -91 2638 -91 
Q 1578 -91 968 557 
Q 359 1206 359 2328 
Q 359 3453 968 4101 
Q 1578 4750 2638 4750 
Q 3056 4750 3426 4639 
Q 3797 4528 4122 4306 
z
" transform="scale(0.015625)"/>
       <path id="DejaVuSans-4f" d="M 2522 4238 
Q 1834 4238 1429 3725 
Q 1025 3213 1025 2328 
Q 1025 1447 1429 934 
Q 1834 422 2522 422 
Q 3209 422 3611 934 
Q 4013 1447 4013 2328 
Q 4013 3213 3611 3725 
Q 3209 4238 2522 4238 
z
M 2522 4750 
Q 3503 4750 4090 4092 
Q 4678 3434 4678 2328 
Q 4678 1225 4090 567 
Q 3503 -91 2522 -91 
Q 1538 -91 948 565 
Q 359 1222 359 2328 
Q 359 3434 948 4092 
Q 1538 4750 2522 4750 
z
" transform="scale(0.015625)"/>
       <path id="DejaVuSans-63" d="M 3122 3366 
L 3122 2828 
Q 2878 2963 2633 3030 
Q 2388 3097 2138 3097 
Q 1578 3097 1268 2742 
Q 959 2388 959 1747 
Q 959 1106 1268 751 
Q 1578 397 2138 397 
Q 2388 397 2633 464 
Q 2878 531 3122 666 
L 3122 134 
Q 2881 22 2623 -34 
Q 2366 -91 2075 -91 
Q 1284 -91 818 406 
Q 353 903 353 1747 
Q 353 2603 823 3093 
Q 1294 3584 2113 3584 
Q 2378 3584 2631 3529 
Q 2884 3475 3122 3366 
z
" transform="scale(0.015625)"/>
       <path id="DejaVuSans-75" d="M 544 1381 
L 544 3500 
L 1119 3500 
L 1119 1403 
Q 1119 906 1312 657 
Q 1506 409 1894 409 
Q 2359 409 2629 706 
Q 2900 1003 2900 1516 
L 2900 3500 
L 3475 3500 
L 3475 0 
L 2900 0 
L 2900 538 
Q 2691 219 2414 64 
Q 2138 -91 1772 -91 
Q 1169 -91 856 284 
Q 544 659 544 1381 
z
M 1991 3584 
L 1991 3584 
z
" transform="scale(0.015625)"/>
       <path id="DejaVuSans-74" d="M 1172 4494 
L 1172 3500 
L 2356 3500 
L 2356 3053 
L 1172 3053 
L 1172 1153 
Q 1172 725 1289 603 
Q 1406 481 1766 481 
L 2356 481 
L 2356 0 
L 1766 0 
Q 1100 0 847 248 
Q 594 497 594 1153 
L 594 3053 
L 172 3053 
L 172 3500 
L 594 3500 
L 594 4494 
L 1172 4494 
z
" transform="scale(0.015625)"/>
       <path id="DejaVuSans-3a" d="M 750 794 
L 1409 794 
L 1409 0 
L 750 0 
L 750 794 
z
M 750 3309 
L 1409 3309 
L 1409 2516 
L 750 2516 
L 750 3309 
z
" transform="scale(0.015625)"/>
       <path id="DejaVuSans-Oblique-65" d="M 3078 2063 
Q 3088 2113 3092 2166 
Q 3097 2219 3097 2272 
Q 3097 2653 2873 2875 
Q 2650 3097 2266 3097 
Q 1838 3097 1509 2826 
Q 1181 2556 1013 2059 
L 3078 2063 
z
M 3578 1613 
L 903 1613 
Q 884 1494 878 1425 
Q 872 1356 872 1306 
Q 872 872 1139 634 
Q 1406 397 1894 397 
Q 2269 397 2603 481 
Q 2938 566 3225 728 
L 3116 159 
Q 2806 34 2476 -28 
Q 2147 -91 1806 -91 
Q 1078 -91 686 257 
Q 294 606 294 1247 
Q 294 1794 489 2264 
Q 684 2734 1063 3103 
Q 1306 3334 1642 3459 
Q 1978 3584 2356 3584 
Q 2950 3584 3301 3228 
Q 3653 2872 3653 2272 
Q 3653 2128 3634 1964 
Q 3616 1800 3578 1613 
z
" transform="scale(0.015625)"/>
       <path id="DejaVuSans-3d" d="M 678 2906 
L 4684 2906 
L 4684 2381 
L 678 2381 
L 678 2906 
z
M 678 1631 
L 4684 1631 
L 4684 1100 
L 678 1100 
L 678 1631 
z
" transform="scale(0.015625)"/>
       <path id="DejaVuSans-37" d="M 525 4666 
L 3525 4666 
L 3525 4397 
L 1831 0 
L 1172 0 
L 2766 4134 
L 525 4134 
L 525 4666 
z
" transform="scale(0.015625)"/>
      </defs>
      <use xlink:href="#DejaVuSans-4d" transform="translate(0 0.015625)"/>
      <use xlink:href="#DejaVuSans-66" transform="translate(86.279297 0.015625)"/>
      <use xlink:href="#DejaVuSans-20" transform="translate(121.484375 0.015625)"/>
      <use xlink:href="#DejaVuSans-62" transform="translate(153.271484 0.015625)"/>
      <use xlink:href="#DejaVuSans-65" transform="translate(216.748047 0.015625)"/>
      <use xlink:href="#DejaVuSans-66" transform="translate(278.271484 0.015625)"/>
      <use xlink:href="#DejaVuSans-6f" transform="translate(313.476562 0.015625)"/>
      <use xlink:href="#DejaVuSans-72" transform="translate(374.658203 0.015625)"/>
      <use xlink:href="#DejaVuSans-65" transform="translate(415.771484 0.015625)"/>
      <use xlink:href="#DejaVuSans-20" transform="translate(477.294922 0.015625)"/>
      <use xlink:href="#DejaVuSans-49" transform="translate(509.082031 0.015625)"/>
      <use xlink:href="#DejaVuSans-53" transform="translate(538.574219 0.015625)"/>
      <use xlink:href="#DejaVuSans-43" transform="translate(602.050781 0.015625)"/>
      <use xlink:href="#DejaVuSans-4f" transform="translate(671.875 0.015625)"/>
      <use xlink:href="#DejaVuSans-20" transform="translate(750.585938 0.015625)"/>
      <use xlink:href="#DejaVuSans-63" transform="translate(782.373047 0.015625)"/>
      <use xlink:href="#DejaVuSans-75" transform="translate(837.353516 0.015625)"/>
      <use xlink:href="#DejaVuSans-74" transform="translate(900.732422 0.015625)"/>
      <use xlink:href="#DejaVuSans-3a" transform="translate(939.941406 0.015625)"/>
      <use xlink:href="#DejaVuSans-20" transform="translate(973.632812 0.015625)"/>
      <use xlink:href="#DejaVuSans-Oblique-65" transform="translate(1005.419922 0.015625)"/>
      <use xlink:href="#DejaVuSans-3d" transform="translate(1066.943359 0.015625)"/>
      <use xlink:href="#DejaVuSans-30" transform="translate(1150.732422 0.015625)"/>
      <use xlink:href="#DejaVuSans-2e" transform="translate(1214.355469 0.015625)"/>
      <use xlink:href="#DejaVuSans-32" transform="translate(1240.642578 0.015625)"/>
      <use xlink:href="#DejaVuSans-37" transform="translate(1304.265625 0.015625)"/>
     </g>
    </g>
    <g id="line2d_18">
     <path d="M 45.465625 34.976563 
L 55.465625 34.976563 
L 65.465625 34.976563 
" style="fill: none; stroke-dasharray: 2.22,0.96; stroke-dashoffset: 0; stroke: #ff0000; stroke-width: 0.6"/>
    </g>
    <g id="text_15">
     <!-- Mf ISCO $e$=0 -->
     <g transform="translate(73.465625 38.476563) scale(0.1 -0.1)">
      <use xlink:href="#DejaVuSans-4d" transform="translate(0 0.015625)"/>
      <use xlink:href="#DejaVuSans-66" transform="translate(86.279297 0.015625)"/>
      <use xlink:href="#DejaVuSans-20" transform="translate(121.484375 0.015625)"/>
      <use xlink:href="#DejaVuSans-49" transform="translate(153.271484 0.015625)"/>
      <use xlink:href="#DejaVuSans-53" transform="translate(182.763672 0.015625)"/>
      <use xlink:href="#DejaVuSans-43" transform="translate(246.240234 0.015625)"/>
      <use xlink:href="#DejaVuSans-4f" transform="translate(316.064453 0.015625)"/>
      <use xlink:href="#DejaVuSans-20" transform="translate(394.775391 0.015625)"/>
      <use xlink:href="#DejaVuSans-Oblique-65" transform="translate(426.5625 0.015625)"/>
      <use xlink:href="#DejaVuSans-3d" transform="translate(488.085938 0.015625)"/>
      <use xlink:href="#DejaVuSans-30" transform="translate(571.875 0.015625)"/>
     </g>
    </g>
    <g id="PathCollection_2">
     <g>
      <use xlink:href="#m834385c01d" x="55.465625" y="50.529688" style="fill: #ff0000; stroke: #ff0000"/>
     </g>
    </g>
    <g id="text_16">
     <!-- ISCO cut -->
     <g transform="translate(73.465625 53.154688) scale(0.1 -0.1)">
      <use xlink:href="#DejaVuSans-49"/>
      <use xlink:href="#DejaVuSans-53" transform="translate(29.492188 0)"/>
      <use xlink:href="#DejaVuSans-43" transform="translate(92.96875 0)"/>
      <use xlink:href="#DejaVuSans-4f" transform="translate(162.792969 0)"/>
      <use xlink:href="#DejaVuSans-20" transform="translate(241.503906 0)"/>
      <use xlink:href="#DejaVuSans-63" transform="translate(273.291016 0)"/>
      <use xlink:href="#DejaVuSans-75" transform="translate(328.271484 0)"/>
      <use xlink:href="#DejaVuSans-74" transform="translate(391.650391 0)"/>
     </g>
    </g>
    <g id="line2d_19">
     <path d="M 45.465625 64.332813 
L 55.465625 64.332813 
L 65.465625 64.332813 
" style="fill: none; stroke: #ff7f0e; stroke-width: 1.5; stroke-linecap: square"/>
    </g>
    <g id="text_17">
     <!-- Mf after ISCO cut: $e$=0.27  -->
     <g transform="translate(73.465625 67.832813) scale(0.1 -0.1)">
      <defs>
       <path id="DejaVuSans-61" d="M 2194 1759 
Q 1497 1759 1228 1600 
Q 959 1441 959 1056 
Q 959 750 1161 570 
Q 1363 391 1709 391 
Q 2188 391 2477 730 
Q 2766 1069 2766 1631 
L 2766 1759 
L 2194 1759 
z
M 3341 1997 
L 3341 0 
L 2766 0 
L 2766 531 
Q 2569 213 2275 61 
Q 1981 -91 1556 -91 
Q 1019 -91 701 211 
Q 384 513 384 1019 
Q 384 1609 779 1909 
Q 1175 2209 1959 2209 
L 2766 2209 
L 2766 2266 
Q 2766 2663 2505 2880 
Q 2244 3097 1772 3097 
Q 1472 3097 1187 3025 
Q 903 2953 641 2809 
L 641 3341 
Q 956 3463 1253 3523 
Q 1550 3584 1831 3584 
Q 2591 3584 2966 3190 
Q 3341 2797 3341 1997 
z
" transform="scale(0.015625)"/>
      </defs>
      <use xlink:href="#DejaVuSans-4d" transform="translate(0 0.015625)"/>
      <use xlink:href="#DejaVuSans-66" transform="translate(86.279297 0.015625)"/>
      <use xlink:href="#DejaVuSans-20" transform="translate(121.484375 0.015625)"/>
      <use xlink:href="#DejaVuSans-61" transform="translate(153.271484 0.015625)"/>
      <use xlink:href="#DejaVuSans-66" transform="translate(214.550781 0.015625)"/>
      <use xlink:href="#DejaVuSans-74" transform="translate(249.755859 0.015625)"/>
      <use xlink:href="#DejaVuSans-65" transform="translate(288.964844 0.015625)"/>
      <use xlink:href="#DejaVuSans-72" transform="translate(350.488281 0.015625)"/>
      <use xlink:href="#DejaVuSans-20" transform="translate(391.601562 0.015625)"/>
      <use xlink:href="#DejaVuSans-49" transform="translate(423.388672 0.015625)"/>
      <use xlink:href="#DejaVuSans-53" transform="translate(452.880859 0.015625)"/>
      <use xlink:href="#DejaVuSans-43" transform="translate(516.357422 0.015625)"/>
      <use xlink:href="#DejaVuSans-4f" transform="translate(586.181641 0.015625)"/>
      <use xlink:href="#DejaVuSans-20" transform="translate(664.892578 0.015625)"/>
      <use xlink:href="#DejaVuSans-63" transform="translate(696.679688 0.015625)"/>
      <use xlink:href="#DejaVuSans-75" transform="translate(751.660156 0.015625)"/>
      <use xlink:href="#DejaVuSans-74" transform="translate(815.039062 0.015625)"/>
      <use xlink:href="#DejaVuSans-3a" transform="translate(854.248047 0.015625)"/>
      <use xlink:href="#DejaVuSans-20" transform="translate(887.939453 0.015625)"/>
      <use xlink:href="#DejaVuSans-Oblique-65" transform="translate(919.726562 0.015625)"/>
      <use xlink:href="#DejaVuSans-3d" transform="translate(981.25 0.015625)"/>
      <use xlink:href="#DejaVuSans-30" transform="translate(1065.039062 0.015625)"/>
      <use xlink:href="#DejaVuSans-2e" transform="translate(1128.662109 0.015625)"/>
      <use xlink:href="#DejaVuSans-32" transform="translate(1154.949219 0.015625)"/>
      <use xlink:href="#DejaVuSans-37" transform="translate(1218.572266 0.015625)"/>
      <use xlink:href="#DejaVuSans-20" transform="translate(1282.195312 0.015625)"/>
     </g>
    </g>
   </g>
  </g>
 </g>
 <defs>
  <clipPath id="p7742da8964">
   <rect x="36.465625" y="7.2" width="669.6" height="277.2"/>
  </clipPath>
 </defs>
</svg>
