<?xml version="1.0" encoding="utf-8" standalone="no"?>
<!DOCTYPE svg PUBLIC "-//W3C//DTD SVG 1.1//EN"
  "http://www.w3.org/Graphics/SVG/1.1/DTD/svg11.dtd">
<svg xmlns:xlink="http://www.w3.org/1999/xlink" width="713.265625pt" height="308.278125pt" viewBox="0 0 713.265625 308.278125" xmlns="http://www.w3.org/2000/svg" version="1.1">
 <metadata>
  <rdf:RDF xmlns:dc="http://purl.org/dc/elements/1.1/" xmlns:cc="http://creativecommons.org/ns#" xmlns:rdf="http://www.w3.org/1999/02/22-rdf-syntax-ns#">
   <cc:Work>
    <dc:type rdf:resource="http://purl.org/dc/dcmitype/StillImage"/>
    <dc:date>2025-07-25T14:55:40.406698</dc:date>
    <dc:format>image/svg+xml</dc:format>
    <dc:creator>
     <cc:Agent>
      <dc:title>Matplotlib v3.10.3, https://matplotlib.org/</dc:title>
     </cc:Agent>
    </dc:creator>
   </cc:Work>
  </rdf:RDF>
 </metadata>
 <defs>
  <style type="text/css">*{stroke-linejoin: round; stroke-linecap: butt}</style>
 </defs>
 <g id="figure_1">
  <g id="patch_1">
   <path d="M 0 308.278125 
L 713.265625 308.278125 
L 713.265625 0 
L 0 0 
z
" style="fill: #ffffff"/>
  </g>
  <g id="axes_1">
   <g id="patch_2">
    <path d="M 36.465625 284.4 
L 706.065625 284.4 
L 706.065625 7.2 
L 36.465625 7.2 
z
" style="fill: #ffffff"/>
   </g>
   <g id="PathCollection_1">
    <defs>
     <path id="m30470da4ef" d="M 0 1.224745 
C 0.324806 1.224745 0.636353 1.095698 0.866025 0.866025 
C 1.095698 0.636353 1.224745 0.324806 1.224745 0 
C 1.224745 -0.324806 1.095698 -0.636353 0.866025 -0.866025 
C 0.636353 -1.095698 0.324806 -1.224745 0 -1.224745 
C -0.324806 -1.224745 -0.636353 -1.095698 -0.866025 -0.866025 
C -1.095698 -0.636353 -1.224745 -0.324806 -1.224745 0 
C -1.224745 0.324806 -1.095698 0.636353 -0.866025 0.866025 
C -0.636353 1.095698 -0.324806 1.224745 0 1.224745 
z
" style="stroke: #ff0000"/>
    </defs>
    <g clip-path="url(#p3128e84a37)">
     <use xlink:href="#m30470da4ef" x="668.494868" y="184.944796" style="fill: #ff0000; stroke: #ff0000"/>
    </g>
   </g>
   <g id="matplotlib.axis_1">
    <g id="xtick_1">
     <g id="line2d_1">
      <defs>
       <path id="m7e616a089a" d="M 0 0 
L 0 3.5 
" style="stroke: #000000; stroke-width: 0.8"/>
      </defs>
      <g>
       <use xlink:href="#m7e616a089a" x="46.099533" y="284.4" style="stroke: #000000; stroke-width: 0.8"/>
      </g>
     </g>
     <g id="text_1">
      <!-- −14000 -->
      <g transform="translate(26.00344 298.998438) scale(0.1 -0.1)">
       <defs>
        <path id="DejaVuSans-2212" d="M 678 2272 
L 4684 2272 
L 4684 1741 
L 678 1741 
L 678 2272 
z
" transform="scale(0.015625)"/>
        <path id="DejaVuSans-31" d="M 794 531 
L 1825 531 
L 1825 4091 
L 703 3866 
L 703 4441 
L 1819 4666 
L 2450 4666 
L 2450 531 
L 3481 531 
L 3481 0 
L 794 0 
L 794 531 
z
" transform="scale(0.015625)"/>
        <path id="DejaVuSans-34" d="M 2419 4116 
L 825 1625 
L 2419 1625 
L 2419 4116 
z
M 2253 4666 
L 3047 4666 
L 3047 1625 
L 3713 1625 
L 3713 1100 
L 3047 1100 
L 3047 0 
L 2419 0 
L 2419 1100 
L 313 1100 
L 313 1709 
L 2253 4666 
z
" transform="scale(0.015625)"/>
        <path id="DejaVuSans-30" d="M 2034 4250 
Q 1547 4250 1301 3770 
Q 1056 3291 1056 2328 
Q 1056 1369 1301 889 
Q 1547 409 2034 409 
Q 2525 409 2770 889 
Q 3016 1369 3016 2328 
Q 3016 3291 2770 3770 
Q 2525 4250 2034 4250 
z
M 2034 4750 
Q 2819 4750 3233 4129 
Q 3647 3509 3647 2328 
Q 3647 1150 3233 529 
Q 2819 -91 2034 -91 
Q 1250 -91 836 529 
Q 422 1150 422 2328 
Q 422 3509 836 4129 
Q 1250 4750 2034 4750 
z
" transform="scale(0.015625)"/>
       </defs>
       <use xlink:href="#DejaVuSans-2212"/>
       <use xlink:href="#DejaVuSans-31" transform="translate(83.789062 0)"/>
       <use xlink:href="#DejaVuSans-34" transform="translate(147.412109 0)"/>
       <use xlink:href="#DejaVuSans-30" transform="translate(211.035156 0)"/>
       <use xlink:href="#DejaVuSans-30" transform="translate(274.658203 0)"/>
       <use xlink:href="#DejaVuSans-30" transform="translate(338.28125 0)"/>
      </g>
     </g>
    </g>
    <g id="xtick_2">
     <g id="line2d_2">
      <g>
       <use xlink:href="#m7e616a089a" x="135.57819" y="284.4" style="stroke: #000000; stroke-width: 0.8"/>
      </g>
     </g>
     <g id="text_2">
      <!-- −12000 -->
      <g transform="translate(115.482097 298.998438) scale(0.1 -0.1)">
       <defs>
        <path id="DejaVuSans-32" d="M 1228 531 
L 3431 531 
L 3431 0 
L 469 0 
L 469 531 
Q 828 903 1448 1529 
Q 2069 2156 2228 2338 
Q 2531 2678 2651 2914 
Q 2772 3150 2772 3378 
Q 2772 3750 2511 3984 
Q 2250 4219 1831 4219 
Q 1534 4219 1204 4116 
Q 875 4013 500 3803 
L 500 4441 
Q 881 4594 1212 4672 
Q 1544 4750 1819 4750 
Q 2544 4750 2975 4387 
Q 3406 4025 3406 3419 
Q 3406 3131 3298 2873 
Q 3191 2616 2906 2266 
Q 2828 2175 2409 1742 
Q 1991 1309 1228 531 
z
" transform="scale(0.015625)"/>
       </defs>
       <use xlink:href="#DejaVuSans-2212"/>
       <use xlink:href="#DejaVuSans-31" transform="translate(83.789062 0)"/>
       <use xlink:href="#DejaVuSans-32" transform="translate(147.412109 0)"/>
       <use xlink:href="#DejaVuSans-30" transform="translate(211.035156 0)"/>
       <use xlink:href="#DejaVuSans-30" transform="translate(274.658203 0)"/>
       <use xlink:href="#DejaVuSans-30" transform="translate(338.28125 0)"/>
      </g>
     </g>
    </g>
    <g id="xtick_3">
     <g id="line2d_3">
      <g>
       <use xlink:href="#m7e616a089a" x="225.056848" y="284.4" style="stroke: #000000; stroke-width: 0.8"/>
      </g>
     </g>
     <g id="text_3">
      <!-- −10000 -->
      <g transform="translate(204.960754 298.998438) scale(0.1 -0.1)">
       <use xlink:href="#DejaVuSans-2212"/>
       <use xlink:href="#DejaVuSans-31" transform="translate(83.789062 0)"/>
       <use xlink:href="#DejaVuSans-30" transform="translate(147.412109 0)"/>
       <use xlink:href="#DejaVuSans-30" transform="translate(211.035156 0)"/>
       <use xlink:href="#DejaVuSans-30" transform="translate(274.658203 0)"/>
       <use xlink:href="#DejaVuSans-30" transform="translate(338.28125 0)"/>
      </g>
     </g>
    </g>
    <g id="xtick_4">
     <g id="line2d_4">
      <g>
       <use xlink:href="#m7e616a089a" x="314.535505" y="284.4" style="stroke: #000000; stroke-width: 0.8"/>
      </g>
     </g>
     <g id="text_4">
      <!-- −8000 -->
      <g transform="translate(297.620661 298.998438) scale(0.1 -0.1)">
       <defs>
        <path id="DejaVuSans-38" d="M 2034 2216 
Q 1584 2216 1326 1975 
Q 1069 1734 1069 1313 
Q 1069 891 1326 650 
Q 1584 409 2034 409 
Q 2484 409 2743 651 
Q 3003 894 3003 1313 
Q 3003 1734 2745 1975 
Q 2488 2216 2034 2216 
z
M 1403 2484 
Q 997 2584 770 2862 
Q 544 3141 544 3541 
Q 544 4100 942 4425 
Q 1341 4750 2034 4750 
Q 2731 4750 3128 4425 
Q 3525 4100 3525 3541 
Q 3525 3141 3298 2862 
Q 3072 2584 2669 2484 
Q 3125 2378 3379 2068 
Q 3634 1759 3634 1313 
Q 3634 634 3220 271 
Q 2806 -91 2034 -91 
Q 1263 -91 848 271 
Q 434 634 434 1313 
Q 434 1759 690 2068 
Q 947 2378 1403 2484 
z
M 1172 3481 
Q 1172 3119 1398 2916 
Q 1625 2713 2034 2713 
Q 2441 2713 2670 2916 
Q 2900 3119 2900 3481 
Q 2900 3844 2670 4047 
Q 2441 4250 2034 4250 
Q 1625 4250 1398 4047 
Q 1172 3844 1172 3481 
z
" transform="scale(0.015625)"/>
       </defs>
       <use xlink:href="#DejaVuSans-2212"/>
       <use xlink:href="#DejaVuSans-38" transform="translate(83.789062 0)"/>
       <use xlink:href="#DejaVuSans-30" transform="translate(147.412109 0)"/>
       <use xlink:href="#DejaVuSans-30" transform="translate(211.035156 0)"/>
       <use xlink:href="#DejaVuSans-30" transform="translate(274.658203 0)"/>
      </g>
     </g>
    </g>
    <g id="xtick_5">
     <g id="line2d_5">
      <g>
       <use xlink:href="#m7e616a089a" x="404.014162" y="284.4" style="stroke: #000000; stroke-width: 0.8"/>
      </g>
     </g>
     <g id="text_5">
      <!-- −6000 -->
      <g transform="translate(387.099318 298.998438) scale(0.1 -0.1)">
       <defs>
        <path id="DejaVuSans-36" d="M 2113 2584 
Q 1688 2584 1439 2293 
Q 1191 2003 1191 1497 
Q 1191 994 1439 701 
Q 1688 409 2113 409 
Q 2538 409 2786 701 
Q 3034 994 3034 1497 
Q 3034 2003 2786 2293 
Q 2538 2584 2113 2584 
z
M 3366 4563 
L 3366 3988 
Q 3128 4100 2886 4159 
Q 2644 4219 2406 4219 
Q 1781 4219 1451 3797 
Q 1122 3375 1075 2522 
Q 1259 2794 1537 2939 
Q 1816 3084 2150 3084 
Q 2853 3084 3261 2657 
Q 3669 2231 3669 1497 
Q 3669 778 3244 343 
Q 2819 -91 2113 -91 
Q 1303 -91 875 529 
Q 447 1150 447 2328 
Q 447 3434 972 4092 
Q 1497 4750 2381 4750 
Q 2619 4750 2861 4703 
Q 3103 4656 3366 4563 
z
" transform="scale(0.015625)"/>
       </defs>
       <use xlink:href="#DejaVuSans-2212"/>
       <use xlink:href="#DejaVuSans-36" transform="translate(83.789062 0)"/>
       <use xlink:href="#DejaVuSans-30" transform="translate(147.412109 0)"/>
       <use xlink:href="#DejaVuSans-30" transform="translate(211.035156 0)"/>
       <use xlink:href="#DejaVuSans-30" transform="translate(274.658203 0)"/>
      </g>
     </g>
    </g>
    <g id="xtick_6">
     <g id="line2d_6">
      <g>
       <use xlink:href="#m7e616a089a" x="493.492819" y="284.4" style="stroke: #000000; stroke-width: 0.8"/>
      </g>
     </g>
     <g id="text_6">
      <!-- −4000 -->
      <g transform="translate(476.577975 298.998438) scale(0.1 -0.1)">
       <use xlink:href="#DejaVuSans-2212"/>
       <use xlink:href="#DejaVuSans-34" transform="translate(83.789062 0)"/>
       <use xlink:href="#DejaVuSans-30" transform="translate(147.412109 0)"/>
       <use xlink:href="#DejaVuSans-30" transform="translate(211.035156 0)"/>
       <use xlink:href="#DejaVuSans-30" transform="translate(274.658203 0)"/>
      </g>
     </g>
    </g>
    <g id="xtick_7">
     <g id="line2d_7">
      <g>
       <use xlink:href="#m7e616a089a" x="582.971476" y="284.4" style="stroke: #000000; stroke-width: 0.8"/>
      </g>
     </g>
     <g id="text_7">
      <!-- −2000 -->
      <g transform="translate(566.056633 298.998438) scale(0.1 -0.1)">
       <use xlink:href="#DejaVuSans-2212"/>
       <use xlink:href="#DejaVuSans-32" transform="translate(83.789062 0)"/>
       <use xlink:href="#DejaVuSans-30" transform="translate(147.412109 0)"/>
       <use xlink:href="#DejaVuSans-30" transform="translate(211.035156 0)"/>
       <use xlink:href="#DejaVuSans-30" transform="translate(274.658203 0)"/>
      </g>
     </g>
    </g>
    <g id="xtick_8">
     <g id="line2d_8">
      <g>
       <use xlink:href="#m7e616a089a" x="672.450134" y="284.4" style="stroke: #000000; stroke-width: 0.8"/>
      </g>
     </g>
     <g id="text_8">
      <!-- 0 -->
      <g transform="translate(669.268884 298.998438) scale(0.1 -0.1)">
       <use xlink:href="#DejaVuSans-30"/>
      </g>
     </g>
    </g>
   </g>
   <g id="matplotlib.axis_2">
    <g id="ytick_1">
     <g id="line2d_9">
      <defs>
       <path id="m35b79e2646" d="M 0 0 
L -3.5 0 
" style="stroke: #000000; stroke-width: 0.8"/>
      </defs>
      <g>
       <use xlink:href="#m35b79e2646" x="36.465625" y="238.800283" style="stroke: #000000; stroke-width: 0.8"/>
      </g>
     </g>
     <g id="text_9">
      <!-- 0.00 -->
      <g transform="translate(7.2 242.599501) scale(0.1 -0.1)">
       <defs>
        <path id="DejaVuSans-2e" d="M 684 794 
L 1344 794 
L 1344 0 
L 684 0 
L 684 794 
z
" transform="scale(0.015625)"/>
       </defs>
       <use xlink:href="#DejaVuSans-30"/>
       <use xlink:href="#DejaVuSans-2e" transform="translate(63.623047 0)"/>
       <use xlink:href="#DejaVuSans-30" transform="translate(95.410156 0)"/>
       <use xlink:href="#DejaVuSans-30" transform="translate(159.033203 0)"/>
      </g>
     </g>
    </g>
    <g id="ytick_2">
     <g id="line2d_10">
      <g>
       <use xlink:href="#m35b79e2646" x="36.465625" y="189.077147" style="stroke: #000000; stroke-width: 0.8"/>
      </g>
     </g>
     <g id="text_10">
      <!-- 0.02 -->
      <g transform="translate(7.2 192.876365) scale(0.1 -0.1)">
       <use xlink:href="#DejaVuSans-30"/>
       <use xlink:href="#DejaVuSans-2e" transform="translate(63.623047 0)"/>
       <use xlink:href="#DejaVuSans-30" transform="translate(95.410156 0)"/>
       <use xlink:href="#DejaVuSans-32" transform="translate(159.033203 0)"/>
      </g>
     </g>
    </g>
    <g id="ytick_3">
     <g id="line2d_11">
      <g>
       <use xlink:href="#m35b79e2646" x="36.465625" y="139.354011" style="stroke: #000000; stroke-width: 0.8"/>
      </g>
     </g>
     <g id="text_11">
      <!-- 0.04 -->
      <g transform="translate(7.2 143.15323) scale(0.1 -0.1)">
       <use xlink:href="#DejaVuSans-30"/>
       <use xlink:href="#DejaVuSans-2e" transform="translate(63.623047 0)"/>
       <use xlink:href="#DejaVuSans-30" transform="translate(95.410156 0)"/>
       <use xlink:href="#DejaVuSans-34" transform="translate(159.033203 0)"/>
      </g>
     </g>
    </g>
    <g id="ytick_4">
     <g id="line2d_12">
      <g>
       <use xlink:href="#m35b79e2646" x="36.465625" y="89.630875" style="stroke: #000000; stroke-width: 0.8"/>
      </g>
     </g>
     <g id="text_12">
      <!-- 0.06 -->
      <g transform="translate(7.2 93.430094) scale(0.1 -0.1)">
       <use xlink:href="#DejaVuSans-30"/>
       <use xlink:href="#DejaVuSans-2e" transform="translate(63.623047 0)"/>
       <use xlink:href="#DejaVuSans-30" transform="translate(95.410156 0)"/>
       <use xlink:href="#DejaVuSans-36" transform="translate(159.033203 0)"/>
      </g>
     </g>
    </g>
    <g id="ytick_5">
     <g id="line2d_13">
      <g>
       <use xlink:href="#m35b79e2646" x="36.465625" y="39.907739" style="stroke: #000000; stroke-width: 0.8"/>
      </g>
     </g>
     <g id="text_13">
      <!-- 0.08 -->
      <g transform="translate(7.2 43.706958) scale(0.1 -0.1)">
       <use xlink:href="#DejaVuSans-30"/>
       <use xlink:href="#DejaVuSans-2e" transform="translate(63.623047 0)"/>
       <use xlink:href="#DejaVuSans-30" transform="translate(95.410156 0)"/>
       <use xlink:href="#DejaVuSans-38" transform="translate(159.033203 0)"/>
      </g>
     </g>
    </g>
   </g>
   <g id="line2d_14">
    <path d="M 66.901989 271.470894 
L 69.651703 271.766512 
L 71.212351 271.4946 
L 73.739116 271.073194 
L 76.04293 270.665938 
L 78.644011 269.908062 
L 82.211208 268.700806 
L 86.075672 267.049215 
L 88.30517 265.889234 
L 90.757617 264.348032 
L 92.541216 262.992092 
L 94.101864 261.517262 
L 95.662513 259.733301 
L 97.297478 257.51624 
L 99.601293 254.354673 
L 100.418775 253.611739 
L 101.087625 253.282176 
L 101.682158 253.222003 
L 102.27669 253.373405 
L 103.019856 253.813291 
L 104.060289 254.726401 
L 106.512737 256.945888 
L 107.924752 257.886388 
L 109.188134 258.475472 
L 110.302883 258.75041 
L 111.491949 258.794933 
L 114.241663 258.772775 
L 116.322528 258.878348 
L 117.58591 258.681196 
L 124.200087 256.998236 
L 125.612103 256.582187 
L 128.7334 255.919177 
L 129.699516 255.304363 
L 131.929014 253.744775 
L 132.746496 253.553137 
L 134.455778 253.284841 
L 135.198944 252.872692 
L 136.016427 252.150805 
L 137.205492 250.752785 
L 140.624056 246.279436 
L 141.738805 244.106857 
L 143.076504 241.581761 
L 143.745353 240.782239 
L 144.26557 240.493672 
L 144.711469 240.496747 
L 145.157369 240.721989 
L 145.751902 241.318534 
L 146.643701 242.625949 
L 148.278666 245.066971 
L 149.319098 246.169462 
L 151.920179 248.451534 
L 152.811979 248.934 
L 153.555145 249.0812 
L 154.223994 248.989399 
L 155.115793 248.608271 
L 156.081909 248.241025 
L 156.676442 248.258656 
L 157.419608 248.54902 
L 158.90594 249.196065 
L 159.649106 249.250966 
L 160.392272 249.089076 
L 161.581337 248.547634 
L 162.547453 248.197073 
L 163.364936 248.137473 
L 165.074218 248.102974 
L 165.966017 247.784674 
L 167.898248 246.96616 
L 168.567098 247.0111 
L 170.573646 247.368011 
L 171.168179 247.137449 
L 171.837028 246.615858 
L 172.728827 245.585759 
L 173.694943 244.52345 
L 174.215159 244.282165 
L 174.661059 244.330708 
L 175.329908 244.697425 
L 176.221708 245.145919 
L 176.741924 245.158779 
L 177.26214 244.942607 
L 177.856673 244.439152 
L 178.674155 243.408847 
L 180.829337 240.491323 
L 182.167036 239.002713 
L 182.835885 237.838141 
L 183.727684 235.760641 
L 185.1397 232.462791 
L 185.734232 231.615372 
L 186.180132 231.319812 
L 186.551715 231.313348 
L 186.923298 231.520321 
L 187.369198 232.023807 
L 188.038047 233.182516 
L 190.341862 237.585349 
L 191.233661 238.554402 
L 192.868626 240.255305 
L 194.132008 241.524698 
L 194.875174 241.953479 
L 195.469707 242.037206 
L 195.989923 241.88669 
L 196.584456 241.470752 
L 197.847838 240.498577 
L 198.293738 240.500081 
L 198.739637 240.742422 
L 200.820502 242.253018 
L 201.415035 242.260839 
L 202.009568 242.046846 
L 202.901367 241.449347 
L 203.793166 240.941094 
L 204.387699 240.879295 
L 205.205182 241.080939 
L 206.096981 241.23058 
L 206.691514 241.110487 
L 207.43468 240.708406 
L 208.623745 240.008221 
L 209.143962 239.981301 
L 209.664178 240.19698 
L 211.37346 241.129352 
L 211.893676 241.03462 
L 212.413892 240.68652 
L 213.008425 240.000958 
L 214.717707 237.76389 
L 215.08929 237.731946 
L 215.460873 237.94431 
L 216.204039 238.748339 
L 216.872888 239.339426 
L 217.318788 239.479162 
L 217.764687 239.388129 
L 218.284903 239.015471 
L 218.953753 238.202508 
L 221.62915 234.498248 
L 222.52095 233.575465 
L 223.115482 232.609229 
L 223.858648 230.887585 
L 225.79088 226.061466 
L 226.311096 225.436096 
L 226.682679 225.284992 
L 227.054262 225.388034 
L 227.425845 225.733106 
L 227.946061 226.566748 
L 228.763544 228.421597 
L 230.175559 231.653921 
L 230.918725 232.787692 
L 232.182108 234.16566 
L 234.857505 237.058394 
L 235.377721 237.22258 
L 235.897938 237.145113 
L 236.418154 236.816851 
L 237.978802 235.590222 
L 238.350385 235.682984 
L 238.870602 236.113005 
L 240.282617 237.477945 
L 240.87715 237.679752 
L 241.397366 237.625255 
L 241.991899 237.33039 
L 243.626864 236.339021 
L 244.14708 236.380697 
L 246.004995 236.8246 
L 246.599528 236.591386 
L 248.234493 235.746524 
L 248.680393 235.846272 
L 249.274926 236.254627 
L 250.389675 237.062667 
L 250.909891 237.12793 
L 251.35579 236.960077 
L 251.876007 236.508576 
L 252.619173 235.492351 
L 253.510972 234.275378 
L 253.956871 234.033715 
L 254.328454 234.119237 
L 254.774354 234.50325 
L 255.96342 235.679385 
L 256.409319 235.78902 
L 256.855219 235.655878 
L 257.375435 235.226166 
L 258.044285 234.346148 
L 260.125149 231.335952 
L 261.388532 229.921424 
L 261.983064 228.828923 
L 262.72623 226.962286 
L 264.286879 222.929171 
L 264.807095 222.19242 
L 265.178678 221.975098 
L 265.550261 222.030653 
L 265.921844 222.350619 
L 266.367744 223.043974 
L 267.036593 224.54749 
L 268.894508 228.997015 
L 269.711991 230.228948 
L 272.758971 233.959068 
L 273.353504 234.321497 
L 273.87372 234.397188 
L 274.393937 234.230871 
L 275.137103 233.698855 
L 275.805952 233.314159 
L 276.251852 233.3323 
L 276.697751 233.603668 
L 278.704299 235.211461 
L 279.224516 235.228022 
L 279.819048 235.021745 
L 281.454014 234.292279 
L 282.048546 234.397048 
L 283.534878 234.803027 
L 284.129411 234.672186 
L 285.987326 234.032882 
L 286.507542 234.246039 
L 288.216824 235.195666 
L 288.662724 235.11305 
L 289.18294 234.774779 
L 289.851789 234.035817 
L 290.892222 232.869813 
L 291.338121 232.711022 
L 291.709704 232.809844 
L 292.304237 233.271043 
L 293.12172 233.896298 
L 293.567619 233.994331 
L 294.013519 233.866822 
L 294.533735 233.453106 
L 295.202585 232.604951 
L 297.357766 229.631119 
L 298.249565 228.489409 
L 298.918415 227.20637 
L 299.810214 224.884587 
L 300.924963 222.025483 
L 301.445179 221.188294 
L 301.816762 220.8967 
L 302.188345 220.885529 
L 302.559928 221.152446 
L 303.005828 221.804942 
L 303.674677 223.295006 
L 305.755542 228.337033 
L 306.721658 229.831862 
L 308.951156 232.767427 
L 309.620005 233.276649 
L 310.140221 233.436775 
L 310.660437 233.383122 
L 312.369719 232.939081 
L 312.889935 233.22261 
L 314.747851 234.552941 
L 315.342383 234.592375 
L 316.085549 234.373453 
L 317.200298 234.016872 
L 317.869148 234.083589 
L 319.504113 234.415852 
L 320.247279 234.222335 
L 321.436345 233.850061 
L 322.030877 233.942382 
L 322.84836 234.364688 
L 323.591526 234.671317 
L 324.111742 234.657808 
L 324.631958 234.411706 
L 325.300808 233.81173 
L 326.415557 232.765133 
L 326.861456 232.633271 
L 327.307356 232.729841 
L 328.942321 233.362703 
L 329.388221 233.18274 
L 329.908437 232.728861 
L 330.651603 231.750261 
L 333.921533 226.692551 
L 334.813333 224.34828 
L 335.928082 221.520669 
L 336.448298 220.73377 
L 336.819881 220.493158 
L 337.117147 220.509407 
L 337.48873 220.786407 
L 337.93463 221.457987 
L 338.603479 222.977338 
L 340.610027 227.903869 
L 341.65046 229.622895 
L 343.211108 231.790333 
L 343.954274 232.500626 
L 344.548807 232.80026 
L 345.14334 232.851067 
L 346.778305 232.751438 
L 347.372838 233.07969 
L 348.933487 234.072835 
L 349.602336 234.149068 
L 350.419819 233.976198 
L 351.460251 233.792476 
L 352.277734 233.926496 
L 353.392483 234.106218 
L 354.135649 233.980198 
L 355.547664 233.659838 
L 356.216513 233.803403 
L 357.628529 234.213947 
L 358.148745 234.092002 
L 358.743278 233.715554 
L 360.378243 232.475625 
L 360.898459 232.45192 
L 362.607741 232.678398 
L 363.127957 232.347441 
L 363.796807 231.594674 
L 365.208822 229.495837 
L 366.695154 227.136937 
L 367.43832 225.441422 
L 369.370552 220.629666 
L 369.816451 220.149019 
L 370.188034 220.068549 
L 370.485301 220.21842 
L 370.856884 220.656988 
L 371.3771 221.661606 
L 372.343216 224.182988 
L 373.532281 227.108006 
L 374.572714 229.007794 
L 375.910413 230.974516 
L 376.727895 231.826826 
L 377.396745 232.210527 
L 378.065594 232.326755 
L 379.403293 232.473738 
L 380.146459 232.883407 
L 381.409841 233.600266 
L 382.07869 233.708735 
L 383.044806 233.589064 
L 384.010922 233.533986 
L 386.389053 233.667642 
L 387.875385 233.413269 
L 388.692868 233.577138 
L 389.658984 233.736041 
L 390.253516 233.590725 
L 390.922366 233.173857 
L 392.334381 232.207905 
L 392.928914 232.123752 
L 394.266613 232.088627 
L 394.786829 231.785413 
L 395.381362 231.168368 
L 396.347478 229.766069 
L 398.205393 226.640061 
L 399.022875 224.708798 
L 400.806474 220.23123 
L 401.252373 219.721064 
L 401.623956 219.622152 
L 401.921223 219.763069 
L 402.292806 220.197848 
L 402.813022 221.207788 
L 403.779138 223.750139 
L 404.968203 226.717711 
L 406.008636 228.690878 
L 407.123385 230.365591 
L 407.940867 231.228319 
L 408.609717 231.634165 
L 409.427199 231.851718 
L 410.467632 232.160769 
L 412.920079 233.24274 
L 414.109145 233.19011 
L 415.149577 233.263586 
L 416.487276 233.37799 
L 417.676342 233.165864 
L 418.568141 233.104784 
L 420.500373 233.147327 
L 421.169222 232.799833 
L 422.878504 231.768724 
L 424.810735 231.18291 
L 425.405268 230.576276 
L 426.297067 229.280752 
L 427.783399 226.690263 
L 428.675199 224.678025 
L 430.756064 219.54604 
L 431.201963 219.160728 
L 431.49923 219.151784 
L 431.796496 219.341873 
L 432.168079 219.837866 
L 432.688295 220.920706 
L 433.803044 223.931513 
L 434.917793 226.650293 
L 435.958226 228.607797 
L 436.924341 230.001746 
L 437.667507 230.731844 
L 438.410673 231.162783 
L 440.714488 232.250592 
L 441.680604 232.666078 
L 442.572403 232.776316 
L 444.578951 232.919284 
L 445.619384 232.943511 
L 448.443414 232.747747 
L 449.18658 232.636805 
L 449.929746 232.274837 
L 451.787661 231.210575 
L 453.051044 230.6829 
L 453.645576 230.144438 
L 454.388742 229.139632 
L 455.577808 227.076543 
L 456.61824 224.868751 
L 457.658673 222.058435 
L 458.624789 219.598758 
L 459.145005 218.814253 
L 459.516588 218.609377 
L 459.813854 218.676647 
L 460.185437 219.040027 
L 460.631337 219.830663 
L 461.374503 221.708934 
L 463.083785 226.162039 
L 464.124217 228.167077 
L 465.016016 229.448528 
L 465.833499 230.233791 
L 466.799615 230.808505 
L 469.697962 232.191769 
L 471.184294 232.340469 
L 473.116526 232.454599 
L 476.535089 232.000364 
L 477.352572 231.544123 
L 479.061854 230.527888 
L 480.027969 229.929874 
L 480.696819 229.217307 
L 481.514301 227.969004 
L 482.62905 225.820636 
L 483.595166 223.510609 
L 485.527398 218.566993 
L 485.973298 218.087546 
L 486.270564 218.023543 
L 486.56783 218.169744 
L 486.939413 218.629563 
L 487.45963 219.695626 
L 488.425745 222.343322 
L 489.689128 225.618807 
L 490.655243 227.537426 
L 491.547043 228.842718 
L 492.364525 229.656468 
L 493.553591 230.473263 
L 495.188556 231.395178 
L 496.154672 231.656184 
L 498.458486 231.92026 
L 499.573235 231.822533 
L 502.248633 231.321923 
L 503.140432 230.788042 
L 505.59288 228.983259 
L 506.336046 228.00585 
L 507.227845 226.411059 
L 508.268278 224.097664 
L 509.383027 221.036993 
L 510.423459 218.325316 
L 510.943675 217.546771 
L 511.315258 217.364542 
L 511.612525 217.461058 
L 511.984108 217.871336 
L 512.504324 218.896768 
L 513.396123 221.335931 
L 514.808138 225.094297 
L 515.774254 227.024424 
L 516.666053 228.310743 
L 517.557853 229.200929 
L 518.969868 230.239586 
L 520.0103 230.773831 
L 521.125049 231.065459 
L 522.834331 231.270867 
L 524.023397 231.162596 
L 526.029945 230.742839 
L 526.847428 230.317082 
L 528.33376 229.207865 
L 529.374192 228.236287 
L 530.117358 227.210388 
L 531.009157 225.535588 
L 532.04959 223.066589 
L 534.427721 216.95823 
L 534.799304 216.648063 
L 535.09657 216.645563 
L 535.393837 216.861473 
L 535.76542 217.411708 
L 536.359952 218.787623 
L 539.03535 225.77351 
L 539.927149 227.243747 
L 540.818948 228.292168 
L 541.933697 229.255567 
L 542.97413 229.892149 
L 544.014562 230.255564 
L 545.426578 230.49244 
L 546.541327 230.448511 
L 548.101975 230.124482 
L 548.993775 229.755778 
L 549.885574 229.142237 
L 551.223273 227.918889 
L 552.040755 226.904421 
L 552.858238 225.49533 
L 553.824354 223.309572 
L 554.939103 220.194116 
L 556.202485 216.730797 
L 556.722701 215.9359 
L 557.094284 215.760038 
L 557.39155 215.873457 
L 557.763133 216.317315 
L 558.28335 217.402447 
L 559.175149 219.939359 
L 560.512848 223.626129 
L 561.404647 225.482179 
L 562.296446 226.845839 
L 563.262562 227.918857 
L 564.302994 228.744075 
L 565.26911 229.2185 
L 566.383859 229.508689 
L 567.424291 229.568895 
L 568.53904 229.395017 
L 569.728106 228.990689 
L 570.619905 228.433765 
L 571.586021 227.547464 
L 572.552137 226.381997 
L 573.369619 225.032559 
L 574.261419 223.073742 
L 575.376168 220.001921 
L 576.936816 215.623588 
L 577.382716 214.922106 
L 577.754299 214.717317 
L 578.051565 214.822006 
L 578.423148 215.273209 
L 578.943364 216.390162 
L 579.90948 219.216061 
L 581.172862 222.713399 
L 582.138978 224.710659 
L 583.030777 226.085695 
L 583.922577 227.083143 
L 584.814376 227.771573 
L 585.780492 228.223461 
L 586.746607 228.431033 
L 587.638407 228.403447 
L 588.678839 228.140873 
L 589.644955 227.669699 
L 590.462437 227.021579 
L 591.354237 226.032582 
L 592.246036 224.71314 
L 593.063518 223.084301 
L 593.955318 220.787008 
L 596.482082 213.796214 
L 596.853665 213.498019 
L 597.150931 213.526596 
L 597.448198 213.790102 
L 597.894097 214.57494 
L 598.562947 216.361703 
L 600.569495 222.106594 
L 601.461294 223.889142 
L 602.353094 225.184683 
L 603.244893 226.083134 
L 604.062375 226.613618 
L 604.954175 226.924548 
L 605.771657 226.981026 
L 606.58914 226.823024 
L 607.480939 226.413723 
L 608.298422 225.778407 
L 609.115904 224.845878 
L 610.007703 223.457841 
L 610.825186 221.753757 
L 611.716985 219.346139 
L 614.169433 212.261978 
L 614.541016 211.924479 
L 614.838282 211.930363 
L 615.135549 212.18024 
L 615.507132 212.801503 
L 616.101665 214.325669 
L 618.554112 221.296112 
L 619.445912 222.912788 
L 620.263394 223.947835 
L 621.080877 224.617595 
L 621.824043 224.953845 
L 622.567209 225.049761 
L 623.310375 224.910527 
L 624.053541 224.537913 
L 624.796707 223.908482 
L 625.539873 222.981635 
L 626.357355 221.577646 
L 627.174838 219.704241 
L 628.066637 217.076024 
L 630.221819 210.373746 
L 630.593402 209.882709 
L 630.890668 209.770148 
L 631.187934 209.914632 
L 631.559517 210.432439 
L 632.079734 211.658392 
L 633.120166 214.911527 
L 634.234915 218.124592 
L 635.126714 220.024573 
L 635.86988 221.136362 
L 636.613046 221.862263 
L 637.281896 222.219288 
L 637.876428 222.306171 
L 638.470961 222.175696 
L 639.139811 221.7813 
L 639.80866 221.108953 
L 640.477509 220.128417 
L 641.220675 218.639081 
L 642.038158 216.471579 
L 643.004274 213.213271 
L 644.564922 207.857241 
L 645.010822 206.985412 
L 645.382405 206.676307 
L 645.679671 206.72246 
L 645.976938 207.028778 
L 646.422837 207.901787 
L 647.091687 209.817603 
L 648.726652 214.690513 
L 649.544135 216.356136 
L 650.212984 217.251804 
L 650.807517 217.710329 
L 651.327733 217.851882 
L 651.847949 217.76001 
L 652.368165 217.437185 
L 652.962698 216.777862 
L 653.557231 215.785903 
L 654.22608 214.237526 
L 655.043563 211.715172 
L 656.009679 207.93894 
L 657.347378 202.737736 
L 657.867594 201.51275 
L 658.239177 201.121583 
L 658.536443 201.118716 
L 658.83371 201.374462 
L 659.279609 202.159298 
L 660.022775 204.059194 
L 661.211841 207.051969 
L 661.806374 208.022543 
L 662.32659 208.48466 
L 662.698173 208.582973 
L 663.069756 208.472514 
L 663.515656 208.057453 
L 664.035872 207.199323 
L 664.630405 205.736226 
L 665.447887 202.621147 
L 666.116737 199.169407 
L 667.380119 191.272075 
L 668.346235 185.531521 
L 668.866451 183.16776 
L 670.20415 176.755197 
L 670.724366 172.763403 
L 671.095949 168.256007 
L 671.393215 161.575063 
L 671.764798 146.391462 
L 672.210698 117.589282 
L 673.399763 26.764596 
L 673.69703 22.313399 
L 673.994296 20.682802 
L 674.291563 20.105944 
L 674.663146 19.879454 
L 675.331995 19.804631 
L 675.629261 19.8 
L 675.629261 19.8 
" clip-path="url(#p3128e84a37)" style="fill: none; stroke: #1f77b4; stroke-width: 1.5; stroke-linecap: square"/>
   </g>
   <g id="line2d_15">
    <path d="M 36.465625 184.954491 
L 706.065625 184.954491 
" clip-path="url(#p3128e84a37)" style="fill: none; stroke-dasharray: 2.22,0.96; stroke-dashoffset: 0; stroke: #ff0000; stroke-width: 0.6"/>
   </g>
   <g id="line2d_16">
    <path d="M 66.901989 271.470894 
L 69.651703 271.766512 
L 71.212351 271.4946 
L 73.739116 271.073194 
L 76.04293 270.665938 
L 78.644011 269.908062 
L 82.211208 268.700806 
L 86.075672 267.049215 
L 88.30517 265.889234 
L 90.757617 264.348032 
L 92.541216 262.992092 
L 94.101864 261.517262 
L 95.662513 259.733301 
L 97.297478 257.51624 
L 99.601293 254.354673 
L 100.418775 253.611739 
L 101.087625 253.282176 
L 101.682158 253.222003 
L 102.27669 253.373405 
L 103.019856 253.813291 
L 104.060289 254.726401 
L 106.512737 256.945888 
L 107.924752 257.886388 
L 109.188134 258.475472 
L 110.302883 258.75041 
L 111.491949 258.794933 
L 114.241663 258.772775 
L 116.322528 258.878348 
L 117.58591 258.681196 
L 124.200087 256.998236 
L 125.612103 256.582187 
L 128.7334 255.919177 
L 129.699516 255.304363 
L 131.929014 253.744775 
L 132.746496 253.553137 
L 134.455778 253.284841 
L 135.198944 252.872692 
L 136.016427 252.150805 
L 137.205492 250.752785 
L 140.624056 246.279436 
L 141.738805 244.106857 
L 143.076504 241.581761 
L 143.745353 240.782239 
L 144.26557 240.493672 
L 144.711469 240.496747 
L 145.157369 240.721989 
L 145.751902 241.318534 
L 146.643701 242.625949 
L 148.278666 245.066971 
L 149.319098 246.169462 
L 151.920179 248.451534 
L 152.811979 248.934 
L 153.555145 249.0812 
L 154.223994 248.989399 
L 155.115793 248.608271 
L 156.081909 248.241025 
L 156.676442 248.258656 
L 157.419608 248.54902 
L 158.90594 249.196065 
L 159.649106 249.250966 
L 160.392272 249.089076 
L 161.581337 248.547634 
L 162.547453 248.197073 
L 163.364936 248.137473 
L 165.074218 248.102974 
L 165.966017 247.784674 
L 167.898248 246.96616 
L 168.567098 247.0111 
L 170.573646 247.368011 
L 171.168179 247.137449 
L 171.837028 246.615858 
L 172.728827 245.585759 
L 173.694943 244.52345 
L 174.215159 244.282165 
L 174.661059 244.330708 
L 175.329908 244.697425 
L 176.221708 245.145919 
L 176.741924 245.158779 
L 177.26214 244.942607 
L 177.856673 244.439152 
L 178.674155 243.408847 
L 180.829337 240.491323 
L 182.167036 239.002713 
L 182.835885 237.838141 
L 183.727684 235.760641 
L 185.1397 232.462791 
L 185.734232 231.615372 
L 186.180132 231.319812 
L 186.551715 231.313348 
L 186.923298 231.520321 
L 187.369198 232.023807 
L 188.038047 233.182516 
L 190.341862 237.585349 
L 191.233661 238.554402 
L 192.868626 240.255305 
L 194.132008 241.524698 
L 194.875174 241.953479 
L 195.469707 242.037206 
L 195.989923 241.88669 
L 196.584456 241.470752 
L 197.847838 240.498577 
L 198.293738 240.500081 
L 198.739637 240.742422 
L 200.820502 242.253018 
L 201.415035 242.260839 
L 202.009568 242.046846 
L 202.901367 241.449347 
L 203.793166 240.941094 
L 204.387699 240.879295 
L 205.205182 241.080939 
L 206.096981 241.23058 
L 206.691514 241.110487 
L 207.43468 240.708406 
L 208.623745 240.008221 
L 209.143962 239.981301 
L 209.664178 240.19698 
L 211.37346 241.129352 
L 211.893676 241.03462 
L 212.413892 240.68652 
L 213.008425 240.000958 
L 214.717707 237.76389 
L 215.08929 237.731946 
L 215.460873 237.94431 
L 216.204039 238.748339 
L 216.872888 239.339426 
L 217.318788 239.479162 
L 217.764687 239.388129 
L 218.284903 239.015471 
L 218.953753 238.202508 
L 221.62915 234.498248 
L 222.52095 233.575465 
L 223.115482 232.609229 
L 223.858648 230.887585 
L 225.79088 226.061466 
L 226.311096 225.436096 
L 226.682679 225.284992 
L 227.054262 225.388034 
L 227.425845 225.733106 
L 227.946061 226.566748 
L 228.763544 228.421597 
L 230.175559 231.653921 
L 230.918725 232.787692 
L 232.182108 234.16566 
L 234.857505 237.058394 
L 235.377721 237.22258 
L 235.897938 237.145113 
L 236.418154 236.816851 
L 237.978802 235.590222 
L 238.350385 235.682984 
L 238.870602 236.113005 
L 240.282617 237.477945 
L 240.87715 237.679752 
L 241.397366 237.625255 
L 241.991899 237.33039 
L 243.626864 236.339021 
L 244.14708 236.380697 
L 246.004995 236.8246 
L 246.599528 236.591386 
L 248.234493 235.746524 
L 248.680393 235.846272 
L 249.274926 236.254627 
L 250.389675 237.062667 
L 250.909891 237.12793 
L 251.35579 236.960077 
L 251.876007 236.508576 
L 252.619173 235.492351 
L 253.510972 234.275378 
L 253.956871 234.033715 
L 254.328454 234.119237 
L 254.774354 234.50325 
L 255.96342 235.679385 
L 256.409319 235.78902 
L 256.855219 235.655878 
L 257.375435 235.226166 
L 258.044285 234.346148 
L 260.125149 231.335952 
L 261.388532 229.921424 
L 261.983064 228.828923 
L 262.72623 226.962286 
L 264.286879 222.929171 
L 264.807095 222.19242 
L 265.178678 221.975098 
L 265.550261 222.030653 
L 265.921844 222.350619 
L 266.367744 223.043974 
L 267.036593 224.54749 
L 268.894508 228.997015 
L 269.711991 230.228948 
L 272.758971 233.959068 
L 273.353504 234.321497 
L 273.87372 234.397188 
L 274.393937 234.230871 
L 275.137103 233.698855 
L 275.805952 233.314159 
L 276.251852 233.3323 
L 276.697751 233.603668 
L 278.704299 235.211461 
L 279.224516 235.228022 
L 279.819048 235.021745 
L 281.454014 234.292279 
L 282.048546 234.397048 
L 283.534878 234.803027 
L 284.129411 234.672186 
L 285.987326 234.032882 
L 286.507542 234.246039 
L 288.216824 235.195666 
L 288.662724 235.11305 
L 289.18294 234.774779 
L 289.851789 234.035817 
L 290.892222 232.869813 
L 291.338121 232.711022 
L 291.709704 232.809844 
L 292.304237 233.271043 
L 293.12172 233.896298 
L 293.567619 233.994331 
L 294.013519 233.866822 
L 294.533735 233.453106 
L 295.202585 232.604951 
L 297.357766 229.631119 
L 298.249565 228.489409 
L 298.918415 227.20637 
L 299.810214 224.884587 
L 300.924963 222.025483 
L 301.445179 221.188294 
L 301.816762 220.8967 
L 302.188345 220.885529 
L 302.559928 221.152446 
L 303.005828 221.804942 
L 303.674677 223.295006 
L 305.755542 228.337033 
L 306.721658 229.831862 
L 308.951156 232.767427 
L 309.620005 233.276649 
L 310.140221 233.436775 
L 310.660437 233.383122 
L 312.369719 232.939081 
L 312.889935 233.22261 
L 314.747851 234.552941 
L 315.342383 234.592375 
L 316.085549 234.373453 
L 317.200298 234.016872 
L 317.869148 234.083589 
L 319.504113 234.415852 
L 320.247279 234.222335 
L 321.436345 233.850061 
L 322.030877 233.942382 
L 322.84836 234.364688 
L 323.591526 234.671317 
L 324.111742 234.657808 
L 324.631958 234.411706 
L 325.300808 233.81173 
L 326.415557 232.765133 
L 326.861456 232.633271 
L 327.307356 232.729841 
L 328.942321 233.362703 
L 329.388221 233.18274 
L 329.908437 232.728861 
L 330.651603 231.750261 
L 333.921533 226.692551 
L 334.813333 224.34828 
L 335.928082 221.520669 
L 336.448298 220.73377 
L 336.819881 220.493158 
L 337.117147 220.509407 
L 337.48873 220.786407 
L 337.93463 221.457987 
L 338.603479 222.977338 
L 340.610027 227.903869 
L 341.65046 229.622895 
L 343.211108 231.790333 
L 343.954274 232.500626 
L 344.548807 232.80026 
L 345.14334 232.851067 
L 346.778305 232.751438 
L 347.372838 233.07969 
L 348.933487 234.072835 
L 349.602336 234.149068 
L 350.419819 233.976198 
L 351.460251 233.792476 
L 352.277734 233.926496 
L 353.392483 234.106218 
L 354.135649 233.980198 
L 355.547664 233.659838 
L 356.216513 233.803403 
L 357.628529 234.213947 
L 358.148745 234.092002 
L 358.743278 233.715554 
L 360.378243 232.475625 
L 360.898459 232.45192 
L 362.607741 232.678398 
L 363.127957 232.347441 
L 363.796807 231.594674 
L 365.208822 229.495837 
L 366.695154 227.136937 
L 367.43832 225.441422 
L 369.370552 220.629666 
L 369.816451 220.149019 
L 370.188034 220.068549 
L 370.485301 220.21842 
L 370.856884 220.656988 
L 371.3771 221.661606 
L 372.343216 224.182988 
L 373.532281 227.108006 
L 374.572714 229.007794 
L 375.910413 230.974516 
L 376.727895 231.826826 
L 377.396745 232.210527 
L 378.065594 232.326755 
L 379.403293 232.473738 
L 380.146459 232.883407 
L 381.409841 233.600266 
L 382.07869 233.708735 
L 383.044806 233.589064 
L 384.010922 233.533986 
L 386.389053 233.667642 
L 387.875385 233.413269 
L 388.692868 233.577138 
L 389.658984 233.736041 
L 390.253516 233.590725 
L 390.922366 233.173857 
L 392.334381 232.207905 
L 392.928914 232.123752 
L 394.266613 232.088627 
L 394.786829 231.785413 
L 395.381362 231.168368 
L 396.347478 229.766069 
L 398.205393 226.640061 
L 399.022875 224.708798 
L 400.806474 220.23123 
L 401.252373 219.721064 
L 401.623956 219.622152 
L 401.921223 219.763069 
L 402.292806 220.197848 
L 402.813022 221.207788 
L 403.779138 223.750139 
L 404.968203 226.717711 
L 406.008636 228.690878 
L 407.123385 230.365591 
L 407.940867 231.228319 
L 408.609717 231.634165 
L 409.427199 231.851718 
L 410.467632 232.160769 
L 412.920079 233.24274 
L 414.109145 233.19011 
L 415.149577 233.263586 
L 416.487276 233.37799 
L 417.676342 233.165864 
L 418.568141 233.104784 
L 420.500373 233.147327 
L 421.169222 232.799833 
L 422.878504 231.768724 
L 424.810735 231.18291 
L 425.405268 230.576276 
L 426.297067 229.280752 
L 427.783399 226.690263 
L 428.675199 224.678025 
L 430.756064 219.54604 
L 431.201963 219.160728 
L 431.49923 219.151784 
L 431.796496 219.341873 
L 432.168079 219.837866 
L 432.688295 220.920706 
L 433.803044 223.931513 
L 434.917793 226.650293 
L 435.958226 228.607797 
L 436.924341 230.001746 
L 437.667507 230.731844 
L 438.410673 231.162783 
L 440.714488 232.250592 
L 441.680604 232.666078 
L 442.572403 232.776316 
L 444.578951 232.919284 
L 445.619384 232.943511 
L 448.443414 232.747747 
L 449.18658 232.636805 
L 449.929746 232.274837 
L 451.787661 231.210575 
L 453.051044 230.6829 
L 453.645576 230.144438 
L 454.388742 229.139632 
L 455.577808 227.076543 
L 456.61824 224.868751 
L 457.658673 222.058435 
L 458.624789 219.598758 
L 459.145005 218.814253 
L 459.516588 218.609377 
L 459.813854 218.676647 
L 460.185437 219.040027 
L 460.631337 219.830663 
L 461.374503 221.708934 
L 463.083785 226.162039 
L 464.124217 228.167077 
L 465.016016 229.448528 
L 465.833499 230.233791 
L 466.799615 230.808505 
L 469.697962 232.191769 
L 471.184294 232.340469 
L 473.116526 232.454599 
L 476.535089 232.000364 
L 477.352572 231.544123 
L 479.061854 230.527888 
L 480.027969 229.929874 
L 480.696819 229.217307 
L 481.514301 227.969004 
L 482.62905 225.820636 
L 483.595166 223.510609 
L 485.527398 218.566993 
L 485.973298 218.087546 
L 486.270564 218.023543 
L 486.56783 218.169744 
L 486.939413 218.629563 
L 487.45963 219.695626 
L 488.425745 222.343322 
L 489.689128 225.618807 
L 490.655243 227.537426 
L 491.547043 228.842718 
L 492.364525 229.656468 
L 493.553591 230.473263 
L 495.188556 231.395178 
L 496.154672 231.656184 
L 498.458486 231.92026 
L 499.573235 231.822533 
L 502.248633 231.321923 
L 503.140432 230.788042 
L 505.59288 228.983259 
L 506.336046 228.00585 
L 507.227845 226.411059 
L 508.268278 224.097664 
L 509.383027 221.036993 
L 510.423459 218.325316 
L 510.943675 217.546771 
L 511.315258 217.364542 
L 511.612525 217.461058 
L 511.984108 217.871336 
L 512.504324 218.896768 
L 513.396123 221.335931 
L 514.808138 225.094297 
L 515.774254 227.024424 
L 516.666053 228.310743 
L 517.557853 229.200929 
L 518.969868 230.239586 
L 520.0103 230.773831 
L 521.125049 231.065459 
L 522.834331 231.270867 
L 524.023397 231.162596 
L 526.029945 230.742839 
L 526.847428 230.317082 
L 528.33376 229.207865 
L 529.374192 228.236287 
L 530.117358 227.210388 
L 531.009157 225.535588 
L 532.04959 223.066589 
L 534.427721 216.95823 
L 534.799304 216.648063 
L 535.09657 216.645563 
L 535.393837 216.861473 
L 535.76542 217.411708 
L 536.359952 218.787623 
L 539.03535 225.77351 
L 539.927149 227.243747 
L 540.818948 228.292168 
L 541.933697 229.255567 
L 542.97413 229.892149 
L 544.014562 230.255564 
L 545.426578 230.49244 
L 546.541327 230.448511 
L 548.101975 230.124482 
L 548.993775 229.755778 
L 549.885574 229.142237 
L 551.223273 227.918889 
L 552.040755 226.904421 
L 552.858238 225.49533 
L 553.824354 223.309572 
L 554.939103 220.194116 
L 556.202485 216.730797 
L 556.722701 215.9359 
L 557.094284 215.760038 
L 557.39155 215.873457 
L 557.763133 216.317315 
L 558.28335 217.402447 
L 559.175149 219.939359 
L 560.512848 223.626129 
L 561.404647 225.482179 
L 562.296446 226.845839 
L 563.262562 227.918857 
L 564.302994 228.744075 
L 565.26911 229.2185 
L 566.383859 229.508689 
L 567.424291 229.568895 
L 568.53904 229.395017 
L 569.728106 228.990689 
L 570.619905 228.433765 
L 571.586021 227.547464 
L 572.552137 226.381997 
L 573.369619 225.032559 
L 574.261419 223.073742 
L 575.376168 220.001921 
L 576.936816 215.623588 
L 577.382716 214.922106 
L 577.754299 214.717317 
L 578.051565 214.822006 
L 578.423148 215.273209 
L 578.943364 216.390162 
L 579.90948 219.216061 
L 581.172862 222.713399 
L 582.138978 224.710659 
L 583.030777 226.085695 
L 583.922577 227.083143 
L 584.814376 227.771573 
L 585.780492 228.223461 
L 586.746607 228.431033 
L 587.638407 228.403447 
L 588.678839 228.140873 
L 589.644955 227.669699 
L 590.462437 227.021579 
L 591.354237 226.032582 
L 592.246036 224.71314 
L 593.063518 223.084301 
L 593.955318 220.787008 
L 596.482082 213.796214 
L 596.853665 213.498019 
L 597.150931 213.526596 
L 597.448198 213.790102 
L 597.894097 214.57494 
L 598.562947 216.361703 
L 600.569495 222.106594 
L 601.461294 223.889142 
L 602.353094 225.184683 
L 603.244893 226.083134 
L 604.062375 226.613618 
L 604.954175 226.924548 
L 605.771657 226.981026 
L 606.58914 226.823024 
L 607.480939 226.413723 
L 608.298422 225.778407 
L 609.115904 224.845878 
L 610.007703 223.457841 
L 610.825186 221.753757 
L 611.716985 219.346139 
L 614.169433 212.261978 
L 614.541016 211.924479 
L 614.838282 211.930363 
L 615.135549 212.18024 
L 615.507132 212.801503 
L 616.101665 214.325669 
L 618.554112 221.296112 
L 619.445912 222.912788 
L 620.263394 223.947835 
L 621.080877 224.617595 
L 621.824043 224.953845 
L 622.567209 225.049761 
L 623.310375 224.910527 
L 624.053541 224.537913 
L 624.796707 223.908482 
L 625.539873 222.981635 
L 626.357355 221.577646 
L 627.174838 219.704241 
L 628.066637 217.076024 
L 630.221819 210.373746 
L 630.593402 209.882709 
L 630.890668 209.770148 
L 631.187934 209.914632 
L 631.559517 210.432439 
L 632.079734 211.658392 
L 633.120166 214.911527 
L 634.234915 218.124592 
L 635.126714 220.024573 
L 635.86988 221.136362 
L 636.613046 221.862263 
L 637.281896 222.219288 
L 637.876428 222.306171 
L 638.470961 222.175696 
L 639.139811 221.7813 
L 639.80866 221.108953 
L 640.477509 220.128417 
L 641.220675 218.639081 
L 642.038158 216.471579 
L 643.004274 213.213271 
L 644.564922 207.857241 
L 645.010822 206.985412 
L 645.382405 206.676307 
L 645.679671 206.72246 
L 645.976938 207.028778 
L 646.422837 207.901787 
L 647.091687 209.817603 
L 648.726652 214.690513 
L 649.544135 216.356136 
L 650.212984 217.251804 
L 650.807517 217.710329 
L 651.327733 217.851882 
L 651.847949 217.76001 
L 652.368165 217.437185 
L 652.962698 216.777862 
L 653.557231 215.785903 
L 654.22608 214.237526 
L 655.043563 211.715172 
L 656.009679 207.93894 
L 657.347378 202.737736 
L 657.867594 201.51275 
L 658.239177 201.121583 
L 658.536443 201.118716 
L 658.83371 201.374462 
L 659.279609 202.159298 
L 660.022775 204.059194 
L 661.211841 207.051969 
L 661.806374 208.022543 
L 662.32659 208.48466 
L 662.698173 208.582973 
L 663.069756 208.472514 
L 663.515656 208.057453 
L 664.035872 207.199323 
L 664.630405 205.736226 
L 665.447887 202.621147 
L 666.116737 199.169407 
L 667.380119 191.272075 
L 668.346235 185.531521 
L 668.420551 185.250904 
L 668.420551 185.250904 
" clip-path="url(#p3128e84a37)" style="fill: none; stroke: #ff7f0e; stroke-width: 1.5; stroke-linecap: square"/>
   </g>
   <g id="patch_3">
    <path d="M 36.465625 284.4 
L 36.465625 7.2 
" style="fill: none; stroke: #000000; stroke-width: 0.8; stroke-linejoin: miter; stroke-linecap: square"/>
   </g>
   <g id="patch_4">
    <path d="M 706.065625 284.4 
L 706.065625 7.2 
" style="fill: none; stroke: #000000; stroke-width: 0.8; stroke-linejoin: miter; stroke-linecap: square"/>
   </g>
   <g id="patch_5">
    <path d="M 36.465625 284.4 
L 706.065625 284.4 
" style="fill: none; stroke: #000000; stroke-width: 0.8; stroke-linejoin: miter; stroke-linecap: square"/>
   </g>
   <g id="patch_6">
    <path d="M 36.465625 7.2 
L 706.065625 7.2 
" style="fill: none; stroke: #000000; stroke-width: 0.8; stroke-linejoin: miter; stroke-linecap: square"/>
   </g>
   <g id="legend_1">
    <g id="patch_7">
     <path d="M 43.465625 73.9125 
L 212.165625 73.9125 
Q 214.165625 73.9125 214.165625 71.9125 
L 214.165625 14.2 
Q 214.165625 12.2 212.165625 12.2 
L 43.465625 12.2 
Q 41.465625 12.2 41.465625 14.2 
L 41.465625 71.9125 
Q 41.465625 73.9125 43.465625 73.9125 
z
" style="fill: #ffffff; opacity: 0.8; stroke: #cccccc; stroke-linejoin: miter"/>
    </g>
    <g id="line2d_17">
     <path d="M 45.465625 20.298438 
L 55.465625 20.298438 
L 65.465625 20.298438 
" style="fill: none; stroke: #1f77b4; stroke-width: 1.5; stroke-linecap: square"/>
    </g>
    <g id="text_14">
     <!-- Mf before ISCO cut: $e$=0.29 -->
     <g transform="translate(73.465625 23.798438) scale(0.1 -0.1)">
      <defs>
       <path id="DejaVuSans-4d" d="M 628 4666 
L 1569 4666 
L 2759 1491 
L 3956 4666 
L 4897 4666 
L 4897 0 
L 4281 0 
L 4281 4097 
L 3078 897 
L 2444 897 
L 1241 4097 
L 1241 0 
L 628 0 
L 628 4666 
z
" transform="scale(0.015625)"/>
       <path id="DejaVuSans-66" d="M 2375 4863 
L 2375 4384 
L 1825 4384 
Q 1516 4384 1395 4259 
Q 1275 4134 1275 3809 
L 1275 3500 
L 2222 3500 
L 2222 3053 
L 1275 3053 
L 1275 0 
L 697 0 
L 697 3053 
L 147 3053 
L 147 3500 
L 697 3500 
L 697 3744 
Q 697 4328 969 4595 
Q 1241 4863 1831 4863 
L 2375 4863 
z
" transform="scale(0.015625)"/>
       <path id="DejaVuSans-20" transform="scale(0.015625)"/>
       <path id="DejaVuSans-62" d="M 3116 1747 
Q 3116 2381 2855 2742 
Q 2594 3103 2138 3103 
Q 1681 3103 1420 2742 
Q 1159 2381 1159 1747 
Q 1159 1113 1420 752 
Q 1681 391 2138 391 
Q 2594 391 2855 752 
Q 3116 1113 3116 1747 
z
M 1159 2969 
Q 1341 3281 1617 3432 
Q 1894 3584 2278 3584 
Q 2916 3584 3314 3078 
Q 3713 2572 3713 1747 
Q 3713 922 3314 415 
Q 2916 -91 2278 -91 
Q 1894 -91 1617 61 
Q 1341 213 1159 525 
L 1159 0 
L 581 0 
L 581 4863 
L 1159 4863 
L 1159 2969 
z
" transform="scale(0.015625)"/>
       <path id="DejaVuSans-65" d="M 3597 1894 
L 3597 1613 
L 953 1613 
Q 991 1019 1311 708 
Q 1631 397 2203 397 
Q 2534 397 2845 478 
Q 3156 559 3463 722 
L 3463 178 
Q 3153 47 2828 -22 
Q 2503 -91 2169 -91 
Q 1331 -91 842 396 
Q 353 884 353 1716 
Q 353 2575 817 3079 
Q 1281 3584 2069 3584 
Q 2775 3584 3186 3129 
Q 3597 2675 3597 1894 
z
M 3022 2063 
Q 3016 2534 2758 2815 
Q 2500 3097 2075 3097 
Q 1594 3097 1305 2825 
Q 1016 2553 972 2059 
L 3022 2063 
z
" transform="scale(0.015625)"/>
       <path id="DejaVuSans-6f" d="M 1959 3097 
Q 1497 3097 1228 2736 
Q 959 2375 959 1747 
Q 959 1119 1226 758 
Q 1494 397 1959 397 
Q 2419 397 2687 759 
Q 2956 1122 2956 1747 
Q 2956 2369 2687 2733 
Q 2419 3097 1959 3097 
z
M 1959 3584 
Q 2709 3584 3137 3096 
Q 3566 2609 3566 1747 
Q 3566 888 3137 398 
Q 2709 -91 1959 -91 
Q 1206 -91 779 398 
Q 353 888 353 1747 
Q 353 2609 779 3096 
Q 1206 3584 1959 3584 
z
" transform="scale(0.015625)"/>
       <path id="DejaVuSans-72" d="M 2631 2963 
Q 2534 3019 2420 3045 
Q 2306 3072 2169 3072 
Q 1681 3072 1420 2755 
Q 1159 2438 1159 1844 
L 1159 0 
L 581 0 
L 581 3500 
L 1159 3500 
L 1159 2956 
Q 1341 3275 1631 3429 
Q 1922 3584 2338 3584 
Q 2397 3584 2469 3576 
Q 2541 3569 2628 3553 
L 2631 2963 
z
" transform="scale(0.015625)"/>
       <path id="DejaVuSans-49" d="M 628 4666 
L 1259 4666 
L 1259 0 
L 628 0 
L 628 4666 
z
" transform="scale(0.015625)"/>
       <path id="DejaVuSans-53" d="M 3425 4513 
L 3425 3897 
Q 3066 4069 2747 4153 
Q 2428 4238 2131 4238 
Q 1616 4238 1336 4038 
Q 1056 3838 1056 3469 
Q 1056 3159 1242 3001 
Q 1428 2844 1947 2747 
L 2328 2669 
Q 3034 2534 3370 2195 
Q 3706 1856 3706 1288 
Q 3706 609 3251 259 
Q 2797 -91 1919 -91 
Q 1588 -91 1214 -16 
Q 841 59 441 206 
L 441 856 
Q 825 641 1194 531 
Q 1563 422 1919 422 
Q 2459 422 2753 634 
Q 3047 847 3047 1241 
Q 3047 1584 2836 1778 
Q 2625 1972 2144 2069 
L 1759 2144 
Q 1053 2284 737 2584 
Q 422 2884 422 3419 
Q 422 4038 858 4394 
Q 1294 4750 2059 4750 
Q 2388 4750 2728 4690 
Q 3069 4631 3425 4513 
z
" transform="scale(0.015625)"/>
       <path id="DejaVuSans-43" d="M 4122 4306 
L 4122 3641 
Q 3803 3938 3442 4084 
Q 3081 4231 2675 4231 
Q 1875 4231 1450 3742 
Q 1025 3253 1025 2328 
Q 1025 1406 1450 917 
Q 1875 428 2675 428 
Q 3081 428 3442 575 
Q 3803 722 4122 1019 
L 4122 359 
Q 3791 134 3420 21 
Q 3050 -91 2638 -91 
Q 1578 -91 968 557 
Q 359 1206 359 2328 
Q 359 3453 968 4101 
Q 1578 4750 2638 4750 
Q 3056 4750 3426 4639 
Q 3797 4528 4122 4306 
z
" transform="scale(0.015625)"/>
       <path id="DejaVuSans-4f" d="M 2522 4238 
Q 1834 4238 1429 3725 
Q 1025 3213 1025 2328 
Q 1025 1447 1429 934 
Q 1834 422 2522 422 
Q 3209 422 3611 934 
Q 4013 1447 4013 2328 
Q 4013 3213 3611 3725 
Q 3209 4238 2522 4238 
z
M 2522 4750 
Q 3503 4750 4090 4092 
Q 4678 3434 4678 2328 
Q 4678 1225 4090 567 
Q 3503 -91 2522 -91 
Q 1538 -91 948 565 
Q 359 1222 359 2328 
Q 359 3434 948 4092 
Q 1538 4750 2522 4750 
z
" transform="scale(0.015625)"/>
       <path id="DejaVuSans-63" d="M 3122 3366 
L 3122 2828 
Q 2878 2963 2633 3030 
Q 2388 3097 2138 3097 
Q 1578 3097 1268 2742 
Q 959 2388 959 1747 
Q 959 1106 1268 751 
Q 1578 397 2138 397 
Q 2388 397 2633 464 
Q 2878 531 3122 666 
L 3122 134 
Q 2881 22 2623 -34 
Q 2366 -91 2075 -91 
Q 1284 -91 818 406 
Q 353 903 353 1747 
Q 353 2603 823 3093 
Q 1294 3584 2113 3584 
Q 2378 3584 2631 3529 
Q 2884 3475 3122 3366 
z
" transform="scale(0.015625)"/>
       <path id="DejaVuSans-75" d="M 544 1381 
L 544 3500 
L 1119 3500 
L 1119 1403 
Q 1119 906 1312 657 
Q 1506 409 1894 409 
Q 2359 409 2629 706 
Q 2900 1003 2900 1516 
L 2900 3500 
L 3475 3500 
L 3475 0 
L 2900 0 
L 2900 538 
Q 2691 219 2414 64 
Q 2138 -91 1772 -91 
Q 1169 -91 856 284 
Q 544 659 544 1381 
z
M 1991 3584 
L 1991 3584 
z
" transform="scale(0.015625)"/>
       <path id="DejaVuSans-74" d="M 1172 4494 
L 1172 3500 
L 2356 3500 
L 2356 3053 
L 1172 3053 
L 1172 1153 
Q 1172 725 1289 603 
Q 1406 481 1766 481 
L 2356 481 
L 2356 0 
L 1766 0 
Q 1100 0 847 248 
Q 594 497 594 1153 
L 594 3053 
L 172 3053 
L 172 3500 
L 594 3500 
L 594 4494 
L 1172 4494 
z
" transform="scale(0.015625)"/>
       <path id="DejaVuSans-3a" d="M 750 794 
L 1409 794 
L 1409 0 
L 750 0 
L 750 794 
z
M 750 3309 
L 1409 3309 
L 1409 2516 
L 750 2516 
L 750 3309 
z
" transform="scale(0.015625)"/>
       <path id="DejaVuSans-Oblique-65" d="M 3078 2063 
Q 3088 2113 3092 2166 
Q 3097 2219 3097 2272 
Q 3097 2653 2873 2875 
Q 2650 3097 2266 3097 
Q 1838 3097 1509 2826 
Q 1181 2556 1013 2059 
L 3078 2063 
z
M 3578 1613 
L 903 1613 
Q 884 1494 878 1425 
Q 872 1356 872 1306 
Q 872 872 1139 634 
Q 1406 397 1894 397 
Q 2269 397 2603 481 
Q 2938 566 3225 728 
L 3116 159 
Q 2806 34 2476 -28 
Q 2147 -91 1806 -91 
Q 1078 -91 686 257 
Q 294 606 294 1247 
Q 294 1794 489 2264 
Q 684 2734 1063 3103 
Q 1306 3334 1642 3459 
Q 1978 3584 2356 3584 
Q 2950 3584 3301 3228 
Q 3653 2872 3653 2272 
Q 3653 2128 3634 1964 
Q 3616 1800 3578 1613 
z
" transform="scale(0.015625)"/>
       <path id="DejaVuSans-3d" d="M 678 2906 
L 4684 2906 
L 4684 2381 
L 678 2381 
L 678 2906 
z
M 678 1631 
L 4684 1631 
L 4684 1100 
L 678 1100 
L 678 1631 
z
" transform="scale(0.015625)"/>
       <path id="DejaVuSans-39" d="M 703 97 
L 703 672 
Q 941 559 1184 500 
Q 1428 441 1663 441 
Q 2288 441 2617 861 
Q 2947 1281 2994 2138 
Q 2813 1869 2534 1725 
Q 2256 1581 1919 1581 
Q 1219 1581 811 2004 
Q 403 2428 403 3163 
Q 403 3881 828 4315 
Q 1253 4750 1959 4750 
Q 2769 4750 3195 4129 
Q 3622 3509 3622 2328 
Q 3622 1225 3098 567 
Q 2575 -91 1691 -91 
Q 1453 -91 1209 -44 
Q 966 3 703 97 
z
M 1959 2075 
Q 2384 2075 2632 2365 
Q 2881 2656 2881 3163 
Q 2881 3666 2632 3958 
Q 2384 4250 1959 4250 
Q 1534 4250 1286 3958 
Q 1038 3666 1038 3163 
Q 1038 2656 1286 2365 
Q 1534 2075 1959 2075 
z
" transform="scale(0.015625)"/>
      </defs>
      <use xlink:href="#DejaVuSans-4d" transform="translate(0 0.015625)"/>
      <use xlink:href="#DejaVuSans-66" transform="translate(86.279297 0.015625)"/>
      <use xlink:href="#DejaVuSans-20" transform="translate(121.484375 0.015625)"/>
      <use xlink:href="#DejaVuSans-62" transform="translate(153.271484 0.015625)"/>
      <use xlink:href="#DejaVuSans-65" transform="translate(216.748047 0.015625)"/>
      <use xlink:href="#DejaVuSans-66" transform="translate(278.271484 0.015625)"/>
      <use xlink:href="#DejaVuSans-6f" transform="translate(313.476562 0.015625)"/>
      <use xlink:href="#DejaVuSans-72" transform="translate(374.658203 0.015625)"/>
      <use xlink:href="#DejaVuSans-65" transform="translate(415.771484 0.015625)"/>
      <use xlink:href="#DejaVuSans-20" transform="translate(477.294922 0.015625)"/>
      <use xlink:href="#DejaVuSans-49" transform="translate(509.082031 0.015625)"/>
      <use xlink:href="#DejaVuSans-53" transform="translate(538.574219 0.015625)"/>
      <use xlink:href="#DejaVuSans-43" transform="translate(602.050781 0.015625)"/>
      <use xlink:href="#DejaVuSans-4f" transform="translate(671.875 0.015625)"/>
      <use xlink:href="#DejaVuSans-20" transform="translate(750.585938 0.015625)"/>
      <use xlink:href="#DejaVuSans-63" transform="translate(782.373047 0.015625)"/>
      <use xlink:href="#DejaVuSans-75" transform="translate(837.353516 0.015625)"/>
      <use xlink:href="#DejaVuSans-74" transform="translate(900.732422 0.015625)"/>
      <use xlink:href="#DejaVuSans-3a" transform="translate(939.941406 0.015625)"/>
      <use xlink:href="#DejaVuSans-20" transform="translate(973.632812 0.015625)"/>
      <use xlink:href="#DejaVuSans-Oblique-65" transform="translate(1005.419922 0.015625)"/>
      <use xlink:href="#DejaVuSans-3d" transform="translate(1066.943359 0.015625)"/>
      <use xlink:href="#DejaVuSans-30" transform="translate(1150.732422 0.015625)"/>
      <use xlink:href="#DejaVuSans-2e" transform="translate(1214.355469 0.015625)"/>
      <use xlink:href="#DejaVuSans-32" transform="translate(1240.642578 0.015625)"/>
      <use xlink:href="#DejaVuSans-39" transform="translate(1302.515625 0.015625)"/>
     </g>
    </g>
    <g id="line2d_18">
     <path d="M 45.465625 34.976563 
L 55.465625 34.976563 
L 65.465625 34.976563 
" style="fill: none; stroke-dasharray: 2.22,0.96; stroke-dashoffset: 0; stroke: #ff0000; stroke-width: 0.6"/>
    </g>
    <g id="text_15">
     <!-- Mf ISCO $e$=0 -->
     <g transform="translate(73.465625 38.476563) scale(0.1 -0.1)">
      <use xlink:href="#DejaVuSans-4d" transform="translate(0 0.015625)"/>
      <use xlink:href="#DejaVuSans-66" transform="translate(86.279297 0.015625)"/>
      <use xlink:href="#DejaVuSans-20" transform="translate(121.484375 0.015625)"/>
      <use xlink:href="#DejaVuSans-49" transform="translate(153.271484 0.015625)"/>
      <use xlink:href="#DejaVuSans-53" transform="translate(182.763672 0.015625)"/>
      <use xlink:href="#DejaVuSans-43" transform="translate(246.240234 0.015625)"/>
      <use xlink:href="#DejaVuSans-4f" transform="translate(316.064453 0.015625)"/>
      <use xlink:href="#DejaVuSans-20" transform="translate(394.775391 0.015625)"/>
      <use xlink:href="#DejaVuSans-Oblique-65" transform="translate(426.5625 0.015625)"/>
      <use xlink:href="#DejaVuSans-3d" transform="translate(488.085938 0.015625)"/>
      <use xlink:href="#DejaVuSans-30" transform="translate(571.875 0.015625)"/>
     </g>
    </g>
    <g id="PathCollection_2">
     <g>
      <use xlink:href="#m30470da4ef" x="55.465625" y="50.529688" style="fill: #ff0000; stroke: #ff0000"/>
     </g>
    </g>
    <g id="text_16">
     <!-- ISCO cut -->
     <g transform="translate(73.465625 53.154688) scale(0.1 -0.1)">
      <use xlink:href="#DejaVuSans-49"/>
      <use xlink:href="#DejaVuSans-53" transform="translate(29.492188 0)"/>
      <use xlink:href="#DejaVuSans-43" transform="translate(92.96875 0)"/>
      <use xlink:href="#DejaVuSans-4f" transform="translate(162.792969 0)"/>
      <use xlink:href="#DejaVuSans-20" transform="translate(241.503906 0)"/>
      <use xlink:href="#DejaVuSans-63" transform="translate(273.291016 0)"/>
      <use xlink:href="#DejaVuSans-75" transform="translate(328.271484 0)"/>
      <use xlink:href="#DejaVuSans-74" transform="translate(391.650391 0)"/>
     </g>
    </g>
    <g id="line2d_19">
     <path d="M 45.465625 64.332813 
L 55.465625 64.332813 
L 65.465625 64.332813 
" style="fill: none; stroke: #ff7f0e; stroke-width: 1.5; stroke-linecap: square"/>
    </g>
    <g id="text_17">
     <!-- Mf after ISCO cut: $e$=0.29  -->
     <g transform="translate(73.465625 67.832813) scale(0.1 -0.1)">
      <defs>
       <path id="DejaVuSans-61" d="M 2194 1759 
Q 1497 1759 1228 1600 
Q 959 1441 959 1056 
Q 959 750 1161 570 
Q 1363 391 1709 391 
Q 2188 391 2477 730 
Q 2766 1069 2766 1631 
L 2766 1759 
L 2194 1759 
z
M 3341 1997 
L 3341 0 
L 2766 0 
L 2766 531 
Q 2569 213 2275 61 
Q 1981 -91 1556 -91 
Q 1019 -91 701 211 
Q 384 513 384 1019 
Q 384 1609 779 1909 
Q 1175 2209 1959 2209 
L 2766 2209 
L 2766 2266 
Q 2766 2663 2505 2880 
Q 2244 3097 1772 3097 
Q 1472 3097 1187 3025 
Q 903 2953 641 2809 
L 641 3341 
Q 956 3463 1253 3523 
Q 1550 3584 1831 3584 
Q 2591 3584 2966 3190 
Q 3341 2797 3341 1997 
z
" transform="scale(0.015625)"/>
      </defs>
      <use xlink:href="#DejaVuSans-4d" transform="translate(0 0.015625)"/>
      <use xlink:href="#DejaVuSans-66" transform="translate(86.279297 0.015625)"/>
      <use xlink:href="#DejaVuSans-20" transform="translate(121.484375 0.015625)"/>
      <use xlink:href="#DejaVuSans-61" transform="translate(153.271484 0.015625)"/>
      <use xlink:href="#DejaVuSans-66" transform="translate(214.550781 0.015625)"/>
      <use xlink:href="#DejaVuSans-74" transform="translate(249.755859 0.015625)"/>
      <use xlink:href="#DejaVuSans-65" transform="translate(288.964844 0.015625)"/>
      <use xlink:href="#DejaVuSans-72" transform="translate(350.488281 0.015625)"/>
      <use xlink:href="#DejaVuSans-20" transform="translate(391.601562 0.015625)"/>
      <use xlink:href="#DejaVuSans-49" transform="translate(423.388672 0.015625)"/>
      <use xlink:href="#DejaVuSans-53" transform="translate(452.880859 0.015625)"/>
      <use xlink:href="#DejaVuSans-43" transform="translate(516.357422 0.015625)"/>
      <use xlink:href="#DejaVuSans-4f" transform="translate(586.181641 0.015625)"/>
      <use xlink:href="#DejaVuSans-20" transform="translate(664.892578 0.015625)"/>
      <use xlink:href="#DejaVuSans-63" transform="translate(696.679688 0.015625)"/>
      <use xlink:href="#DejaVuSans-75" transform="translate(751.660156 0.015625)"/>
      <use xlink:href="#DejaVuSans-74" transform="translate(815.039062 0.015625)"/>
      <use xlink:href="#DejaVuSans-3a" transform="translate(854.248047 0.015625)"/>
      <use xlink:href="#DejaVuSans-20" transform="translate(887.939453 0.015625)"/>
      <use xlink:href="#DejaVuSans-Oblique-65" transform="translate(919.726562 0.015625)"/>
      <use xlink:href="#DejaVuSans-3d" transform="translate(981.25 0.015625)"/>
      <use xlink:href="#DejaVuSans-30" transform="translate(1065.039062 0.015625)"/>
      <use xlink:href="#DejaVuSans-2e" transform="translate(1128.662109 0.015625)"/>
      <use xlink:href="#DejaVuSans-32" transform="translate(1154.949219 0.015625)"/>
      <use xlink:href="#DejaVuSans-39" transform="translate(1216.822266 0.015625)"/>
      <use xlink:href="#DejaVuSans-20" transform="translate(1280.445312 0.015625)"/>
     </g>
    </g>
   </g>
  </g>
 </g>
 <defs>
  <clipPath id="p3128e84a37">
   <rect x="36.465625" y="7.2" width="669.6" height="277.2"/>
  </clipPath>
 </defs>
</svg>
