<?xml version="1.0" encoding="utf-8" standalone="no"?>
<!DOCTYPE svg PUBLIC "-//W3C//DTD SVG 1.1//EN"
  "http://www.w3.org/Graphics/SVG/1.1/DTD/svg11.dtd">
<svg xmlns:xlink="http://www.w3.org/1999/xlink" width="713.265625pt" height="308.278125pt" viewBox="0 0 713.265625 308.278125" xmlns="http://www.w3.org/2000/svg" version="1.1">
 <metadata>
  <rdf:RDF xmlns:dc="http://purl.org/dc/elements/1.1/" xmlns:cc="http://creativecommons.org/ns#" xmlns:rdf="http://www.w3.org/1999/02/22-rdf-syntax-ns#">
   <cc:Work>
    <dc:type rdf:resource="http://purl.org/dc/dcmitype/StillImage"/>
    <dc:date>2025-07-25T14:55:37.213042</dc:date>
    <dc:format>image/svg+xml</dc:format>
    <dc:creator>
     <cc:Agent>
      <dc:title>Matplotlib v3.10.3, https://matplotlib.org/</dc:title>
     </cc:Agent>
    </dc:creator>
   </cc:Work>
  </rdf:RDF>
 </metadata>
 <defs>
  <style type="text/css">*{stroke-linejoin: round; stroke-linecap: butt}</style>
 </defs>
 <g id="figure_1">
  <g id="patch_1">
   <path d="M 0 308.278125 
L 713.265625 308.278125 
L 713.265625 0 
L 0 0 
z
" style="fill: #ffffff"/>
  </g>
  <g id="axes_1">
   <g id="patch_2">
    <path d="M 36.465625 284.4 
L 706.065625 284.4 
L 706.065625 7.2 
L 36.465625 7.2 
z
" style="fill: #ffffff"/>
   </g>
   <g id="PathCollection_1">
    <defs>
     <path id="m87310702d1" d="M 0 1.224745 
C 0.324806 1.224745 0.636353 1.095698 0.866025 0.866025 
C 1.095698 0.636353 1.224745 0.324806 1.224745 0 
C 1.224745 -0.324806 1.095698 -0.636353 0.866025 -0.866025 
C 0.636353 -1.095698 0.324806 -1.224745 0 -1.224745 
C -0.324806 -1.224745 -0.636353 -1.095698 -0.866025 -0.866025 
C -1.095698 -0.636353 -1.224745 -0.324806 -1.224745 0 
C -1.224745 0.324806 -1.095698 0.636353 -0.866025 0.866025 
C -0.636353 1.095698 -0.324806 1.224745 0 1.224745 
z
" style="stroke: #ff0000"/>
    </defs>
    <g clip-path="url(#pdddca9fe8e)">
     <use xlink:href="#m87310702d1" x="669.163717" y="215.197208" style="fill: #ff0000; stroke: #ff0000"/>
    </g>
   </g>
   <g id="matplotlib.axis_1">
    <g id="xtick_1">
     <g id="line2d_1">
      <defs>
       <path id="mf588c4c89a" d="M 0 0 
L 0 3.5 
" style="stroke: #000000; stroke-width: 0.8"/>
      </defs>
      <g>
       <use xlink:href="#mf588c4c89a" x="46.099533" y="284.4" style="stroke: #000000; stroke-width: 0.8"/>
      </g>
     </g>
     <g id="text_1">
      <!-- −14000 -->
      <g transform="translate(26.00344 298.998438) scale(0.1 -0.1)">
       <defs>
        <path id="DejaVuSans-2212" d="M 678 2272 
L 4684 2272 
L 4684 1741 
L 678 1741 
L 678 2272 
z
" transform="scale(0.015625)"/>
        <path id="DejaVuSans-31" d="M 794 531 
L 1825 531 
L 1825 4091 
L 703 3866 
L 703 4441 
L 1819 4666 
L 2450 4666 
L 2450 531 
L 3481 531 
L 3481 0 
L 794 0 
L 794 531 
z
" transform="scale(0.015625)"/>
        <path id="DejaVuSans-34" d="M 2419 4116 
L 825 1625 
L 2419 1625 
L 2419 4116 
z
M 2253 4666 
L 3047 4666 
L 3047 1625 
L 3713 1625 
L 3713 1100 
L 3047 1100 
L 3047 0 
L 2419 0 
L 2419 1100 
L 313 1100 
L 313 1709 
L 2253 4666 
z
" transform="scale(0.015625)"/>
        <path id="DejaVuSans-30" d="M 2034 4250 
Q 1547 4250 1301 3770 
Q 1056 3291 1056 2328 
Q 1056 1369 1301 889 
Q 1547 409 2034 409 
Q 2525 409 2770 889 
Q 3016 1369 3016 2328 
Q 3016 3291 2770 3770 
Q 2525 4250 2034 4250 
z
M 2034 4750 
Q 2819 4750 3233 4129 
Q 3647 3509 3647 2328 
Q 3647 1150 3233 529 
Q 2819 -91 2034 -91 
Q 1250 -91 836 529 
Q 422 1150 422 2328 
Q 422 3509 836 4129 
Q 1250 4750 2034 4750 
z
" transform="scale(0.015625)"/>
       </defs>
       <use xlink:href="#DejaVuSans-2212"/>
       <use xlink:href="#DejaVuSans-31" transform="translate(83.789062 0)"/>
       <use xlink:href="#DejaVuSans-34" transform="translate(147.412109 0)"/>
       <use xlink:href="#DejaVuSans-30" transform="translate(211.035156 0)"/>
       <use xlink:href="#DejaVuSans-30" transform="translate(274.658203 0)"/>
       <use xlink:href="#DejaVuSans-30" transform="translate(338.28125 0)"/>
      </g>
     </g>
    </g>
    <g id="xtick_2">
     <g id="line2d_2">
      <g>
       <use xlink:href="#mf588c4c89a" x="135.57819" y="284.4" style="stroke: #000000; stroke-width: 0.8"/>
      </g>
     </g>
     <g id="text_2">
      <!-- −12000 -->
      <g transform="translate(115.482097 298.998438) scale(0.1 -0.1)">
       <defs>
        <path id="DejaVuSans-32" d="M 1228 531 
L 3431 531 
L 3431 0 
L 469 0 
L 469 531 
Q 828 903 1448 1529 
Q 2069 2156 2228 2338 
Q 2531 2678 2651 2914 
Q 2772 3150 2772 3378 
Q 2772 3750 2511 3984 
Q 2250 4219 1831 4219 
Q 1534 4219 1204 4116 
Q 875 4013 500 3803 
L 500 4441 
Q 881 4594 1212 4672 
Q 1544 4750 1819 4750 
Q 2544 4750 2975 4387 
Q 3406 4025 3406 3419 
Q 3406 3131 3298 2873 
Q 3191 2616 2906 2266 
Q 2828 2175 2409 1742 
Q 1991 1309 1228 531 
z
" transform="scale(0.015625)"/>
       </defs>
       <use xlink:href="#DejaVuSans-2212"/>
       <use xlink:href="#DejaVuSans-31" transform="translate(83.789062 0)"/>
       <use xlink:href="#DejaVuSans-32" transform="translate(147.412109 0)"/>
       <use xlink:href="#DejaVuSans-30" transform="translate(211.035156 0)"/>
       <use xlink:href="#DejaVuSans-30" transform="translate(274.658203 0)"/>
       <use xlink:href="#DejaVuSans-30" transform="translate(338.28125 0)"/>
      </g>
     </g>
    </g>
    <g id="xtick_3">
     <g id="line2d_3">
      <g>
       <use xlink:href="#mf588c4c89a" x="225.056848" y="284.4" style="stroke: #000000; stroke-width: 0.8"/>
      </g>
     </g>
     <g id="text_3">
      <!-- −10000 -->
      <g transform="translate(204.960754 298.998438) scale(0.1 -0.1)">
       <use xlink:href="#DejaVuSans-2212"/>
       <use xlink:href="#DejaVuSans-31" transform="translate(83.789062 0)"/>
       <use xlink:href="#DejaVuSans-30" transform="translate(147.412109 0)"/>
       <use xlink:href="#DejaVuSans-30" transform="translate(211.035156 0)"/>
       <use xlink:href="#DejaVuSans-30" transform="translate(274.658203 0)"/>
       <use xlink:href="#DejaVuSans-30" transform="translate(338.28125 0)"/>
      </g>
     </g>
    </g>
    <g id="xtick_4">
     <g id="line2d_4">
      <g>
       <use xlink:href="#mf588c4c89a" x="314.535505" y="284.4" style="stroke: #000000; stroke-width: 0.8"/>
      </g>
     </g>
     <g id="text_4">
      <!-- −8000 -->
      <g transform="translate(297.620661 298.998438) scale(0.1 -0.1)">
       <defs>
        <path id="DejaVuSans-38" d="M 2034 2216 
Q 1584 2216 1326 1975 
Q 1069 1734 1069 1313 
Q 1069 891 1326 650 
Q 1584 409 2034 409 
Q 2484 409 2743 651 
Q 3003 894 3003 1313 
Q 3003 1734 2745 1975 
Q 2488 2216 2034 2216 
z
M 1403 2484 
Q 997 2584 770 2862 
Q 544 3141 544 3541 
Q 544 4100 942 4425 
Q 1341 4750 2034 4750 
Q 2731 4750 3128 4425 
Q 3525 4100 3525 3541 
Q 3525 3141 3298 2862 
Q 3072 2584 2669 2484 
Q 3125 2378 3379 2068 
Q 3634 1759 3634 1313 
Q 3634 634 3220 271 
Q 2806 -91 2034 -91 
Q 1263 -91 848 271 
Q 434 634 434 1313 
Q 434 1759 690 2068 
Q 947 2378 1403 2484 
z
M 1172 3481 
Q 1172 3119 1398 2916 
Q 1625 2713 2034 2713 
Q 2441 2713 2670 2916 
Q 2900 3119 2900 3481 
Q 2900 3844 2670 4047 
Q 2441 4250 2034 4250 
Q 1625 4250 1398 4047 
Q 1172 3844 1172 3481 
z
" transform="scale(0.015625)"/>
       </defs>
       <use xlink:href="#DejaVuSans-2212"/>
       <use xlink:href="#DejaVuSans-38" transform="translate(83.789062 0)"/>
       <use xlink:href="#DejaVuSans-30" transform="translate(147.412109 0)"/>
       <use xlink:href="#DejaVuSans-30" transform="translate(211.035156 0)"/>
       <use xlink:href="#DejaVuSans-30" transform="translate(274.658203 0)"/>
      </g>
     </g>
    </g>
    <g id="xtick_5">
     <g id="line2d_5">
      <g>
       <use xlink:href="#mf588c4c89a" x="404.014162" y="284.4" style="stroke: #000000; stroke-width: 0.8"/>
      </g>
     </g>
     <g id="text_5">
      <!-- −6000 -->
      <g transform="translate(387.099318 298.998438) scale(0.1 -0.1)">
       <defs>
        <path id="DejaVuSans-36" d="M 2113 2584 
Q 1688 2584 1439 2293 
Q 1191 2003 1191 1497 
Q 1191 994 1439 701 
Q 1688 409 2113 409 
Q 2538 409 2786 701 
Q 3034 994 3034 1497 
Q 3034 2003 2786 2293 
Q 2538 2584 2113 2584 
z
M 3366 4563 
L 3366 3988 
Q 3128 4100 2886 4159 
Q 2644 4219 2406 4219 
Q 1781 4219 1451 3797 
Q 1122 3375 1075 2522 
Q 1259 2794 1537 2939 
Q 1816 3084 2150 3084 
Q 2853 3084 3261 2657 
Q 3669 2231 3669 1497 
Q 3669 778 3244 343 
Q 2819 -91 2113 -91 
Q 1303 -91 875 529 
Q 447 1150 447 2328 
Q 447 3434 972 4092 
Q 1497 4750 2381 4750 
Q 2619 4750 2861 4703 
Q 3103 4656 3366 4563 
z
" transform="scale(0.015625)"/>
       </defs>
       <use xlink:href="#DejaVuSans-2212"/>
       <use xlink:href="#DejaVuSans-36" transform="translate(83.789062 0)"/>
       <use xlink:href="#DejaVuSans-30" transform="translate(147.412109 0)"/>
       <use xlink:href="#DejaVuSans-30" transform="translate(211.035156 0)"/>
       <use xlink:href="#DejaVuSans-30" transform="translate(274.658203 0)"/>
      </g>
     </g>
    </g>
    <g id="xtick_6">
     <g id="line2d_6">
      <g>
       <use xlink:href="#mf588c4c89a" x="493.492819" y="284.4" style="stroke: #000000; stroke-width: 0.8"/>
      </g>
     </g>
     <g id="text_6">
      <!-- −4000 -->
      <g transform="translate(476.577975 298.998438) scale(0.1 -0.1)">
       <use xlink:href="#DejaVuSans-2212"/>
       <use xlink:href="#DejaVuSans-34" transform="translate(83.789062 0)"/>
       <use xlink:href="#DejaVuSans-30" transform="translate(147.412109 0)"/>
       <use xlink:href="#DejaVuSans-30" transform="translate(211.035156 0)"/>
       <use xlink:href="#DejaVuSans-30" transform="translate(274.658203 0)"/>
      </g>
     </g>
    </g>
    <g id="xtick_7">
     <g id="line2d_7">
      <g>
       <use xlink:href="#mf588c4c89a" x="582.971476" y="284.4" style="stroke: #000000; stroke-width: 0.8"/>
      </g>
     </g>
     <g id="text_7">
      <!-- −2000 -->
      <g transform="translate(566.056633 298.998438) scale(0.1 -0.1)">
       <use xlink:href="#DejaVuSans-2212"/>
       <use xlink:href="#DejaVuSans-32" transform="translate(83.789062 0)"/>
       <use xlink:href="#DejaVuSans-30" transform="translate(147.412109 0)"/>
       <use xlink:href="#DejaVuSans-30" transform="translate(211.035156 0)"/>
       <use xlink:href="#DejaVuSans-30" transform="translate(274.658203 0)"/>
      </g>
     </g>
    </g>
    <g id="xtick_8">
     <g id="line2d_8">
      <g>
       <use xlink:href="#mf588c4c89a" x="672.450134" y="284.4" style="stroke: #000000; stroke-width: 0.8"/>
      </g>
     </g>
     <g id="text_8">
      <!-- 0 -->
      <g transform="translate(669.268884 298.998438) scale(0.1 -0.1)">
       <use xlink:href="#DejaVuSans-30"/>
      </g>
     </g>
    </g>
   </g>
   <g id="matplotlib.axis_2">
    <g id="ytick_1">
     <g id="line2d_9">
      <defs>
       <path id="mbf2dd0b89d" d="M 0 0 
L -3.5 0 
" style="stroke: #000000; stroke-width: 0.8"/>
      </defs>
      <g>
       <use xlink:href="#mbf2dd0b89d" x="36.465625" y="279.450772" style="stroke: #000000; stroke-width: 0.8"/>
      </g>
     </g>
     <g id="text_9">
      <!-- 0.00 -->
      <g transform="translate(7.2 283.249991) scale(0.1 -0.1)">
       <defs>
        <path id="DejaVuSans-2e" d="M 684 794 
L 1344 794 
L 1344 0 
L 684 0 
L 684 794 
z
" transform="scale(0.015625)"/>
       </defs>
       <use xlink:href="#DejaVuSans-30"/>
       <use xlink:href="#DejaVuSans-2e" transform="translate(63.623047 0)"/>
       <use xlink:href="#DejaVuSans-30" transform="translate(95.410156 0)"/>
       <use xlink:href="#DejaVuSans-30" transform="translate(159.033203 0)"/>
      </g>
     </g>
    </g>
    <g id="ytick_2">
     <g id="line2d_10">
      <g>
       <use xlink:href="#mbf2dd0b89d" x="36.465625" y="220.498105" style="stroke: #000000; stroke-width: 0.8"/>
      </g>
     </g>
     <g id="text_10">
      <!-- 0.02 -->
      <g transform="translate(7.2 224.297324) scale(0.1 -0.1)">
       <use xlink:href="#DejaVuSans-30"/>
       <use xlink:href="#DejaVuSans-2e" transform="translate(63.623047 0)"/>
       <use xlink:href="#DejaVuSans-30" transform="translate(95.410156 0)"/>
       <use xlink:href="#DejaVuSans-32" transform="translate(159.033203 0)"/>
      </g>
     </g>
    </g>
    <g id="ytick_3">
     <g id="line2d_11">
      <g>
       <use xlink:href="#mbf2dd0b89d" x="36.465625" y="161.545439" style="stroke: #000000; stroke-width: 0.8"/>
      </g>
     </g>
     <g id="text_11">
      <!-- 0.04 -->
      <g transform="translate(7.2 165.344658) scale(0.1 -0.1)">
       <use xlink:href="#DejaVuSans-30"/>
       <use xlink:href="#DejaVuSans-2e" transform="translate(63.623047 0)"/>
       <use xlink:href="#DejaVuSans-30" transform="translate(95.410156 0)"/>
       <use xlink:href="#DejaVuSans-34" transform="translate(159.033203 0)"/>
      </g>
     </g>
    </g>
    <g id="ytick_4">
     <g id="line2d_12">
      <g>
       <use xlink:href="#mbf2dd0b89d" x="36.465625" y="102.592773" style="stroke: #000000; stroke-width: 0.8"/>
      </g>
     </g>
     <g id="text_12">
      <!-- 0.06 -->
      <g transform="translate(7.2 106.391991) scale(0.1 -0.1)">
       <use xlink:href="#DejaVuSans-30"/>
       <use xlink:href="#DejaVuSans-2e" transform="translate(63.623047 0)"/>
       <use xlink:href="#DejaVuSans-30" transform="translate(95.410156 0)"/>
       <use xlink:href="#DejaVuSans-36" transform="translate(159.033203 0)"/>
      </g>
     </g>
    </g>
    <g id="ytick_5">
     <g id="line2d_13">
      <g>
       <use xlink:href="#mbf2dd0b89d" x="36.465625" y="43.640106" style="stroke: #000000; stroke-width: 0.8"/>
      </g>
     </g>
     <g id="text_13">
      <!-- 0.08 -->
      <g transform="translate(7.2 47.439325) scale(0.1 -0.1)">
       <use xlink:href="#DejaVuSans-30"/>
       <use xlink:href="#DejaVuSans-2e" transform="translate(63.623047 0)"/>
       <use xlink:href="#DejaVuSans-30" transform="translate(95.410156 0)"/>
       <use xlink:href="#DejaVuSans-38" transform="translate(159.033203 0)"/>
      </g>
     </g>
    </g>
   </g>
   <g id="line2d_14">
    <path d="M 66.901989 270.788947 
L 67.496521 270.575228 
L 69.428753 269.680838 
L 71.806884 268.310025 
L 74.110699 267.039696 
L 75.299764 266.633822 
L 76.340197 266.520402 
L 77.306313 266.639507 
L 78.421062 267.017706 
L 79.907394 267.791089 
L 84.14344 270.136157 
L 86.075672 270.881885 
L 88.007903 271.393134 
L 90.014451 271.699475 
L 92.095316 271.799898 
L 94.250498 271.678848 
L 96.331362 271.337225 
L 98.263594 270.79881 
L 100.195826 270.026642 
L 102.202374 268.971579 
L 106.43842 266.624989 
L 107.478852 266.361866 
L 108.444968 266.338396 
L 109.411084 266.532348 
L 110.60015 267.019015 
L 112.383748 268.035885 
L 115.356412 269.718237 
L 117.288644 270.535837 
L 119.220875 271.106884 
L 121.227423 271.460103 
L 123.308288 271.594493 
L 125.389153 271.503113 
L 127.395701 271.196701 
L 129.327933 270.677752 
L 131.185848 269.951883 
L 133.118079 268.953019 
L 137.874342 266.33161 
L 138.914774 266.124772 
L 139.88089 266.163447 
L 140.921322 266.445416 
L 142.184705 267.043917 
L 145.008736 268.737314 
L 147.0896 269.819353 
L 148.947515 270.537401 
L 150.80543 271.02323 
L 152.737662 271.303681 
L 154.74421 271.372365 
L 156.750758 271.219682 
L 158.68299 270.854424 
L 160.540905 270.280153 
L 162.39882 269.470213 
L 164.405368 268.340223 
L 167.898248 266.313648 
L 169.012997 265.96643 
L 169.979113 265.896466 
L 170.945229 266.055184 
L 172.059978 266.484554 
L 173.620627 267.362612 
L 177.113507 269.395228 
L 178.971422 270.181341 
L 180.829337 270.722956 
L 182.761568 271.046139 
L 184.6938 271.145096 
L 186.626032 271.026783 
L 188.558263 270.684844 
L 190.416178 270.125099 
L 192.199777 269.358365 
L 194.132008 268.279068 
L 197.996471 266.019479 
L 199.036904 265.715476 
L 200.00302 265.664763 
L 200.969136 265.846798 
L 202.083885 266.302517 
L 203.71885 267.254306 
L 206.914464 269.140456 
L 208.772379 269.944872 
L 210.555977 270.47745 
L 212.413892 270.798933 
L 214.271807 270.900696 
L 216.204039 270.780363 
L 218.061954 270.44134 
L 219.845552 269.892129 
L 221.62915 269.108601 
L 223.561382 268.004223 
L 227.277212 265.78986 
L 228.317644 265.471586 
L 229.28376 265.411736 
L 230.249876 265.590317 
L 231.364625 266.049064 
L 232.925274 266.966376 
L 236.195204 268.923584 
L 237.978802 269.703527 
L 239.762401 270.239026 
L 241.545999 270.544773 
L 243.403914 270.636002 
L 245.261829 270.501079 
L 247.045428 270.152492 
L 248.829026 269.571812 
L 250.612624 268.745499 
L 252.544856 267.592634 
L 255.814786 265.593765 
L 256.855219 265.235303 
L 257.821335 265.138195 
L 258.713134 265.266768 
L 259.753566 265.652823 
L 261.165582 266.450674 
L 265.178678 268.860238 
L 266.962277 269.593603 
L 268.671558 270.058583 
L 270.455157 270.311254 
L 272.238755 270.339474 
L 274.022354 270.145636 
L 275.731635 269.742499 
L 277.440917 269.110832 
L 279.150199 268.243316 
L 281.231064 266.921385 
L 283.683512 265.398006 
L 284.798261 264.973986 
L 285.764376 264.851027 
L 286.656176 264.961369 
L 287.622291 265.301981 
L 288.885674 265.995341 
L 293.567619 268.795569 
L 295.276901 269.446868 
L 296.986183 269.856882 
L 298.695465 270.040075 
L 300.404747 270.005264 
L 302.114028 269.751772 
L 303.82331 269.267982 
L 305.458275 268.57671 
L 307.241874 267.570346 
L 311.849503 264.767574 
L 312.815619 264.556129 
L 313.707418 264.588289 
L 314.673534 264.862437 
L 315.8626 265.465611 
L 318.166414 266.976674 
L 320.247279 268.207768 
L 321.956561 268.955103 
L 323.591526 269.429629 
L 325.226491 269.679664 
L 326.935773 269.71178 
L 328.570738 269.525138 
L 330.205703 269.118502 
L 331.840669 268.479058 
L 333.54995 267.558727 
L 335.705132 266.113656 
L 337.785997 264.782218 
L 338.900746 264.336728 
L 339.792545 264.208943 
L 340.684344 264.308313 
L 341.65046 264.651622 
L 342.913842 265.365922 
L 347.447155 268.172904 
L 349.08212 268.813552 
L 350.717085 269.208751 
L 352.35205 269.369711 
L 353.987015 269.302997 
L 355.621981 269.006603 
L 357.182629 268.499377 
L 358.817594 267.724075 
L 360.601193 266.61229 
L 364.242706 264.233218 
L 365.208822 263.915576 
L 366.100621 263.853801 
L 366.99242 264.024642 
L 368.032853 264.477338 
L 369.444868 265.366279 
L 372.714799 267.486621 
L 374.349764 268.238219 
L 375.910413 268.711783 
L 377.471061 268.953718 
L 379.03171 268.97163 
L 380.592358 268.76663 
L 382.153007 268.33192 
L 383.713656 267.657958 
L 385.348621 266.700291 
L 387.801069 264.952354 
L 389.361717 263.965279 
L 390.40215 263.560819 
L 391.293949 263.45443 
L 392.185748 263.589333 
L 393.151864 263.97894 
L 394.415246 264.74995 
L 398.354026 267.310456 
L 399.914674 267.978953 
L 401.401006 268.381212 
L 402.887338 268.560711 
L 404.37367 268.522342 
L 405.860002 268.265298 
L 407.346334 267.782649 
L 408.832666 267.068555 
L 410.467632 266.031809 
L 414.480728 263.328257 
L 415.372527 263.065525 
L 416.19001 263.037951 
L 417.081809 263.244022 
L 418.122241 263.745423 
L 419.68289 264.800167 
L 422.283971 266.558989 
L 423.84462 267.334961 
L 425.330952 267.825815 
L 426.817284 268.075302 
L 428.229299 268.093542 
L 429.641315 267.899438 
L 431.05333 267.488575 
L 432.539662 266.815836 
L 434.100311 265.853197 
L 436.478442 264.069006 
L 438.03909 263.040497 
L 439.005206 262.65446 
L 439.822689 262.547211 
L 440.640171 262.658076 
L 441.531971 263.005627 
L 442.721036 263.733257 
L 446.957082 266.558872 
L 448.443414 267.16573 
L 449.85543 267.500989 
L 451.267445 267.604224 
L 452.679461 267.476641 
L 454.091476 267.115424 
L 455.503491 266.515613 
L 456.989823 265.631684 
L 458.847738 264.241564 
L 461.00292 262.658728 
L 462.043352 262.174701 
L 462.860835 262.022736 
L 463.678317 262.09726 
L 464.570117 262.420249 
L 465.684866 263.089546 
L 470.292495 266.177103 
L 471.70451 266.710116 
L 473.042209 266.98089 
L 474.379908 267.025657 
L 475.717607 266.845186 
L 477.055305 266.436613 
L 478.393004 265.797244 
L 479.879336 264.829851 
L 482.183151 262.999622 
L 483.669483 261.958443 
L 484.635599 261.54508 
L 485.453081 261.432963 
L 486.270564 261.556686 
L 487.162363 261.934253 
L 488.351429 262.712761 
L 492.067259 265.33052 
L 493.404958 265.932051 
L 494.742656 266.288176 
L 496.006039 266.398032 
L 497.269421 266.288396 
L 498.532803 265.956627 
L 499.796185 265.399776 
L 501.208201 264.520156 
L 502.917482 263.169079 
L 505.14698 261.417522 
L 506.113096 260.936001 
L 506.930579 260.768433 
L 507.673745 260.830702 
L 508.491227 261.122129 
L 509.53166 261.753709 
L 511.835474 263.53254 
L 513.47044 264.611871 
L 514.808138 265.230998 
L 516.071521 265.571486 
L 517.260586 265.671461 
L 518.449652 265.557162 
L 519.638717 265.227409 
L 520.9021 264.640226 
L 522.239798 263.76387 
L 523.94908 262.350619 
L 526.029945 260.660887 
L 526.996061 260.167822 
L 527.813543 260.005224 
L 528.556709 260.083068 
L 529.374192 260.399998 
L 530.414624 261.068236 
L 534.650671 264.102715 
L 535.914053 264.589997 
L 537.103118 264.810172 
L 538.292184 264.796545 
L 539.48125 264.548238 
L 540.670315 264.061036 
L 541.859381 263.336327 
L 543.19708 262.252041 
L 546.095427 259.78419 
L 547.061543 259.279288 
L 547.804709 259.125534 
L 548.547875 259.211046 
L 549.365358 259.554421 
L 550.480107 260.283155 
L 552.486655 261.89588 
L 553.89867 262.905664 
L 555.087736 263.49005 
L 556.202485 263.804085 
L 557.317234 263.881103 
L 558.357666 263.735324 
L 559.472415 263.345943 
L 560.661481 262.684163 
L 561.99918 261.66697 
L 564.154361 259.661475 
L 565.417743 258.645812 
L 566.309542 258.207774 
L 567.052708 258.090363 
L 567.795874 258.21292 
L 568.613357 258.594688 
L 569.653789 259.344598 
L 572.92372 261.883025 
L 574.038469 262.405377 
L 575.078901 262.665234 
L 576.119334 262.696605 
L 577.159766 262.496374 
L 578.200198 262.064778 
L 579.314947 261.354485 
L 580.652646 260.212454 
L 583.922577 257.241528 
L 584.740059 256.900658 
L 585.408909 256.847499 
L 586.152075 257.029542 
L 586.969557 257.479312 
L 588.158623 258.42233 
L 590.462437 260.291438 
L 591.577186 260.903838 
L 592.617619 261.226059 
L 593.583735 261.294543 
L 594.54985 261.13551 
L 595.515966 260.748569 
L 596.556399 260.083957 
L 597.745464 259.045636 
L 601.461294 255.554253 
L 602.20446 255.313131 
L 602.87331 255.333149 
L 603.616476 255.605191 
L 604.508275 256.200982 
L 606.514823 257.935063 
L 607.778205 258.842482 
L 608.818638 259.322687 
L 609.710437 259.507302 
L 610.602236 259.470105 
L 611.494035 259.207033 
L 612.460151 258.66972 
L 613.500584 257.817482 
L 614.838282 256.396064 
L 616.993464 254.060705 
L 617.810946 253.51062 
L 618.479796 253.31144 
L 619.148645 253.357851 
L 619.817495 253.630349 
L 620.709294 254.254068 
L 623.979224 256.801056 
L 624.871023 257.113747 
L 625.688506 257.179755 
L 626.505989 257.022606 
L 627.323471 256.626591 
L 628.21527 255.944302 
L 629.255703 254.857748 
L 631.113618 252.503092 
L 632.228367 251.285034 
L 632.971533 250.767942 
L 633.640382 250.574648 
L 634.234915 250.629511 
L 634.903764 250.918261 
L 635.795564 251.567726 
L 638.099378 253.37351 
L 638.991177 253.753565 
L 639.80866 253.851948 
L 640.551826 253.713802 
L 641.294992 253.339562 
L 642.112475 252.664 
L 643.07859 251.548873 
L 644.490606 249.511651 
L 645.902621 247.547682 
L 646.645787 246.837803 
L 647.314637 246.498183 
L 647.909169 246.446184 
L 648.578019 246.633004 
L 649.469818 247.166826 
L 651.327733 248.365187 
L 652.070899 248.572514 
L 652.739748 248.545321 
L 653.408598 248.280834 
L 654.077447 247.765326 
L 654.820613 246.910312 
L 655.712412 245.519037 
L 657.050111 242.930138 
L 658.536443 240.163123 
L 659.279609 239.198229 
L 660.022775 238.590856 
L 660.691625 238.319952 
L 662.77249 238.030469 
L 663.367022 237.625974 
L 663.961555 236.928297 
L 664.779038 235.673971 
L 665.447887 233.764627 
L 665.893787 232.309252 
L 666.636953 229.345454 
L 668.123285 221.99692 
L 668.717818 218.36006 
L 669.75825 210.308124 
L 670.427099 202.956357 
L 671.021632 193.186746 
L 671.393215 183.487371 
L 671.764798 167.764815 
L 672.136381 142.382036 
L 672.582281 94.579785 
L 673.102497 41.196041 
L 673.399763 28.057354 
L 673.69703 22.779932 
L 673.994296 20.846666 
L 674.291563 20.162733 
L 674.663146 19.894202 
L 675.331995 19.805491 
L 675.629261 19.8 
L 675.629261 19.8 
" clip-path="url(#pdddca9fe8e)" style="fill: none; stroke: #1f77b4; stroke-width: 1.5; stroke-linecap: square"/>
   </g>
   <g id="line2d_15">
    <path d="M 36.465625 215.610209 
L 706.065625 215.610209 
" clip-path="url(#pdddca9fe8e)" style="fill: none; stroke-dasharray: 2.22,0.96; stroke-dashoffset: 0; stroke: #ff0000; stroke-width: 0.6"/>
   </g>
   <g id="line2d_16">
    <path d="M 66.901989 270.788947 
L 67.496521 270.575228 
L 69.428753 269.680838 
L 71.806884 268.310025 
L 74.110699 267.039696 
L 75.299764 266.633822 
L 76.340197 266.520402 
L 77.306313 266.639507 
L 78.421062 267.017706 
L 79.907394 267.791089 
L 84.14344 270.136157 
L 86.075672 270.881885 
L 88.007903 271.393134 
L 90.014451 271.699475 
L 92.095316 271.799898 
L 94.250498 271.678848 
L 96.331362 271.337225 
L 98.263594 270.79881 
L 100.195826 270.026642 
L 102.202374 268.971579 
L 106.43842 266.624989 
L 107.478852 266.361866 
L 108.444968 266.338396 
L 109.411084 266.532348 
L 110.60015 267.019015 
L 112.383748 268.035885 
L 115.356412 269.718237 
L 117.288644 270.535837 
L 119.220875 271.106884 
L 121.227423 271.460103 
L 123.308288 271.594493 
L 125.389153 271.503113 
L 127.395701 271.196701 
L 129.327933 270.677752 
L 131.185848 269.951883 
L 133.118079 268.953019 
L 137.874342 266.33161 
L 138.914774 266.124772 
L 139.88089 266.163447 
L 140.921322 266.445416 
L 142.184705 267.043917 
L 145.008736 268.737314 
L 147.0896 269.819353 
L 148.947515 270.537401 
L 150.80543 271.02323 
L 152.737662 271.303681 
L 154.74421 271.372365 
L 156.750758 271.219682 
L 158.68299 270.854424 
L 160.540905 270.280153 
L 162.39882 269.470213 
L 164.405368 268.340223 
L 167.898248 266.313648 
L 169.012997 265.96643 
L 169.979113 265.896466 
L 170.945229 266.055184 
L 172.059978 266.484554 
L 173.620627 267.362612 
L 177.113507 269.395228 
L 178.971422 270.181341 
L 180.829337 270.722956 
L 182.761568 271.046139 
L 184.6938 271.145096 
L 186.626032 271.026783 
L 188.558263 270.684844 
L 190.416178 270.125099 
L 192.199777 269.358365 
L 194.132008 268.279068 
L 197.996471 266.019479 
L 199.036904 265.715476 
L 200.00302 265.664763 
L 200.969136 265.846798 
L 202.083885 266.302517 
L 203.71885 267.254306 
L 206.914464 269.140456 
L 208.772379 269.944872 
L 210.555977 270.47745 
L 212.413892 270.798933 
L 214.271807 270.900696 
L 216.204039 270.780363 
L 218.061954 270.44134 
L 219.845552 269.892129 
L 221.62915 269.108601 
L 223.561382 268.004223 
L 227.277212 265.78986 
L 228.317644 265.471586 
L 229.28376 265.411736 
L 230.249876 265.590317 
L 231.364625 266.049064 
L 232.925274 266.966376 
L 236.195204 268.923584 
L 237.978802 269.703527 
L 239.762401 270.239026 
L 241.545999 270.544773 
L 243.403914 270.636002 
L 245.261829 270.501079 
L 247.045428 270.152492 
L 248.829026 269.571812 
L 250.612624 268.745499 
L 252.544856 267.592634 
L 255.814786 265.593765 
L 256.855219 265.235303 
L 257.821335 265.138195 
L 258.713134 265.266768 
L 259.753566 265.652823 
L 261.165582 266.450674 
L 265.178678 268.860238 
L 266.962277 269.593603 
L 268.671558 270.058583 
L 270.455157 270.311254 
L 272.238755 270.339474 
L 274.022354 270.145636 
L 275.731635 269.742499 
L 277.440917 269.110832 
L 279.150199 268.243316 
L 281.231064 266.921385 
L 283.683512 265.398006 
L 284.798261 264.973986 
L 285.764376 264.851027 
L 286.656176 264.961369 
L 287.622291 265.301981 
L 288.885674 265.995341 
L 293.567619 268.795569 
L 295.276901 269.446868 
L 296.986183 269.856882 
L 298.695465 270.040075 
L 300.404747 270.005264 
L 302.114028 269.751772 
L 303.82331 269.267982 
L 305.458275 268.57671 
L 307.241874 267.570346 
L 311.849503 264.767574 
L 312.815619 264.556129 
L 313.707418 264.588289 
L 314.673534 264.862437 
L 315.8626 265.465611 
L 318.166414 266.976674 
L 320.247279 268.207768 
L 321.956561 268.955103 
L 323.591526 269.429629 
L 325.226491 269.679664 
L 326.935773 269.71178 
L 328.570738 269.525138 
L 330.205703 269.118502 
L 331.840669 268.479058 
L 333.54995 267.558727 
L 335.705132 266.113656 
L 337.785997 264.782218 
L 338.900746 264.336728 
L 339.792545 264.208943 
L 340.684344 264.308313 
L 341.65046 264.651622 
L 342.913842 265.365922 
L 347.447155 268.172904 
L 349.08212 268.813552 
L 350.717085 269.208751 
L 352.35205 269.369711 
L 353.987015 269.302997 
L 355.621981 269.006603 
L 357.182629 268.499377 
L 358.817594 267.724075 
L 360.601193 266.61229 
L 364.242706 264.233218 
L 365.208822 263.915576 
L 366.100621 263.853801 
L 366.99242 264.024642 
L 368.032853 264.477338 
L 369.444868 265.366279 
L 372.714799 267.486621 
L 374.349764 268.238219 
L 375.910413 268.711783 
L 377.471061 268.953718 
L 379.03171 268.97163 
L 380.592358 268.76663 
L 382.153007 268.33192 
L 383.713656 267.657958 
L 385.348621 266.700291 
L 387.801069 264.952354 
L 389.361717 263.965279 
L 390.40215 263.560819 
L 391.293949 263.45443 
L 392.185748 263.589333 
L 393.151864 263.97894 
L 394.415246 264.74995 
L 398.354026 267.310456 
L 399.914674 267.978953 
L 401.401006 268.381212 
L 402.887338 268.560711 
L 404.37367 268.522342 
L 405.860002 268.265298 
L 407.346334 267.782649 
L 408.832666 267.068555 
L 410.467632 266.031809 
L 414.480728 263.328257 
L 415.372527 263.065525 
L 416.19001 263.037951 
L 417.081809 263.244022 
L 418.122241 263.745423 
L 419.68289 264.800167 
L 422.283971 266.558989 
L 423.84462 267.334961 
L 425.330952 267.825815 
L 426.817284 268.075302 
L 428.229299 268.093542 
L 429.641315 267.899438 
L 431.05333 267.488575 
L 432.539662 266.815836 
L 434.100311 265.853197 
L 436.478442 264.069006 
L 438.03909 263.040497 
L 439.005206 262.65446 
L 439.822689 262.547211 
L 440.640171 262.658076 
L 441.531971 263.005627 
L 442.721036 263.733257 
L 446.957082 266.558872 
L 448.443414 267.16573 
L 449.85543 267.500989 
L 451.267445 267.604224 
L 452.679461 267.476641 
L 454.091476 267.115424 
L 455.503491 266.515613 
L 456.989823 265.631684 
L 458.847738 264.241564 
L 461.00292 262.658728 
L 462.043352 262.174701 
L 462.860835 262.022736 
L 463.678317 262.09726 
L 464.570117 262.420249 
L 465.684866 263.089546 
L 470.292495 266.177103 
L 471.70451 266.710116 
L 473.042209 266.98089 
L 474.379908 267.025657 
L 475.717607 266.845186 
L 477.055305 266.436613 
L 478.393004 265.797244 
L 479.879336 264.829851 
L 482.183151 262.999622 
L 483.669483 261.958443 
L 484.635599 261.54508 
L 485.453081 261.432963 
L 486.270564 261.556686 
L 487.162363 261.934253 
L 488.351429 262.712761 
L 492.067259 265.33052 
L 493.404958 265.932051 
L 494.742656 266.288176 
L 496.006039 266.398032 
L 497.269421 266.288396 
L 498.532803 265.956627 
L 499.796185 265.399776 
L 501.208201 264.520156 
L 502.917482 263.169079 
L 505.14698 261.417522 
L 506.113096 260.936001 
L 506.930579 260.768433 
L 507.673745 260.830702 
L 508.491227 261.122129 
L 509.53166 261.753709 
L 511.835474 263.53254 
L 513.47044 264.611871 
L 514.808138 265.230998 
L 516.071521 265.571486 
L 517.260586 265.671461 
L 518.449652 265.557162 
L 519.638717 265.227409 
L 520.9021 264.640226 
L 522.239798 263.76387 
L 523.94908 262.350619 
L 526.029945 260.660887 
L 526.996061 260.167822 
L 527.813543 260.005224 
L 528.556709 260.083068 
L 529.374192 260.399998 
L 530.414624 261.068236 
L 534.650671 264.102715 
L 535.914053 264.589997 
L 537.103118 264.810172 
L 538.292184 264.796545 
L 539.48125 264.548238 
L 540.670315 264.061036 
L 541.859381 263.336327 
L 543.19708 262.252041 
L 546.095427 259.78419 
L 547.061543 259.279288 
L 547.804709 259.125534 
L 548.547875 259.211046 
L 549.365358 259.554421 
L 550.480107 260.283155 
L 552.486655 261.89588 
L 553.89867 262.905664 
L 555.087736 263.49005 
L 556.202485 263.804085 
L 557.317234 263.881103 
L 558.357666 263.735324 
L 559.472415 263.345943 
L 560.661481 262.684163 
L 561.99918 261.66697 
L 564.154361 259.661475 
L 565.417743 258.645812 
L 566.309542 258.207774 
L 567.052708 258.090363 
L 567.795874 258.21292 
L 568.613357 258.594688 
L 569.653789 259.344598 
L 572.92372 261.883025 
L 574.038469 262.405377 
L 575.078901 262.665234 
L 576.119334 262.696605 
L 577.159766 262.496374 
L 578.200198 262.064778 
L 579.314947 261.354485 
L 580.652646 260.212454 
L 583.922577 257.241528 
L 584.740059 256.900658 
L 585.408909 256.847499 
L 586.152075 257.029542 
L 586.969557 257.479312 
L 588.158623 258.42233 
L 590.462437 260.291438 
L 591.577186 260.903838 
L 592.617619 261.226059 
L 593.583735 261.294543 
L 594.54985 261.13551 
L 595.515966 260.748569 
L 596.556399 260.083957 
L 597.745464 259.045636 
L 601.461294 255.554253 
L 602.20446 255.313131 
L 602.87331 255.333149 
L 603.616476 255.605191 
L 604.508275 256.200982 
L 606.514823 257.935063 
L 607.778205 258.842482 
L 608.818638 259.322687 
L 609.710437 259.507302 
L 610.602236 259.470105 
L 611.494035 259.207033 
L 612.460151 258.66972 
L 613.500584 257.817482 
L 614.838282 256.396064 
L 616.993464 254.060705 
L 617.810946 253.51062 
L 618.479796 253.31144 
L 619.148645 253.357851 
L 619.817495 253.630349 
L 620.709294 254.254068 
L 623.979224 256.801056 
L 624.871023 257.113747 
L 625.688506 257.179755 
L 626.505989 257.022606 
L 627.323471 256.626591 
L 628.21527 255.944302 
L 629.255703 254.857748 
L 631.113618 252.503092 
L 632.228367 251.285034 
L 632.971533 250.767942 
L 633.640382 250.574648 
L 634.234915 250.629511 
L 634.903764 250.918261 
L 635.795564 251.567726 
L 638.099378 253.37351 
L 638.991177 253.753565 
L 639.80866 253.851948 
L 640.551826 253.713802 
L 641.294992 253.339562 
L 642.112475 252.664 
L 643.07859 251.548873 
L 644.490606 249.511651 
L 645.902621 247.547682 
L 646.645787 246.837803 
L 647.314637 246.498183 
L 647.909169 246.446184 
L 648.578019 246.633004 
L 649.469818 247.166826 
L 651.327733 248.365187 
L 652.070899 248.572514 
L 652.739748 248.545321 
L 653.408598 248.280834 
L 654.077447 247.765326 
L 654.820613 246.910312 
L 655.712412 245.519037 
L 657.050111 242.930138 
L 658.536443 240.163123 
L 659.279609 239.198229 
L 660.022775 238.590856 
L 660.691625 238.319952 
L 662.77249 238.030469 
L 663.367022 237.625974 
L 663.961555 236.928297 
L 664.779038 235.673971 
L 665.447887 233.764627 
L 665.893787 232.309252 
L 666.636953 229.345454 
L 668.123285 221.99692 
L 668.717818 218.36006 
L 669.089401 215.738429 
L 669.089401 215.738429 
" clip-path="url(#pdddca9fe8e)" style="fill: none; stroke: #ff7f0e; stroke-width: 1.5; stroke-linecap: square"/>
   </g>
   <g id="patch_3">
    <path d="M 36.465625 284.4 
L 36.465625 7.2 
" style="fill: none; stroke: #000000; stroke-width: 0.8; stroke-linejoin: miter; stroke-linecap: square"/>
   </g>
   <g id="patch_4">
    <path d="M 706.065625 284.4 
L 706.065625 7.2 
" style="fill: none; stroke: #000000; stroke-width: 0.8; stroke-linejoin: miter; stroke-linecap: square"/>
   </g>
   <g id="patch_5">
    <path d="M 36.465625 284.4 
L 706.065625 284.4 
" style="fill: none; stroke: #000000; stroke-width: 0.8; stroke-linejoin: miter; stroke-linecap: square"/>
   </g>
   <g id="patch_6">
    <path d="M 36.465625 7.2 
L 706.065625 7.2 
" style="fill: none; stroke: #000000; stroke-width: 0.8; stroke-linejoin: miter; stroke-linecap: square"/>
   </g>
   <g id="legend_1">
    <g id="patch_7">
     <path d="M 43.465625 73.9125 
L 206.465625 73.9125 
Q 208.465625 73.9125 208.465625 71.9125 
L 208.465625 14.2 
Q 208.465625 12.2 206.465625 12.2 
L 43.465625 12.2 
Q 41.465625 12.2 41.465625 14.2 
L 41.465625 71.9125 
Q 41.465625 73.9125 43.465625 73.9125 
z
" style="fill: #ffffff; opacity: 0.8; stroke: #cccccc; stroke-linejoin: miter"/>
    </g>
    <g id="line2d_17">
     <path d="M 45.465625 20.298438 
L 55.465625 20.298438 
L 65.465625 20.298438 
" style="fill: none; stroke: #1f77b4; stroke-width: 1.5; stroke-linecap: square"/>
    </g>
    <g id="text_14">
     <!-- Mf before ISCO cut: $e$=0.1 -->
     <g transform="translate(73.465625 23.798438) scale(0.1 -0.1)">
      <defs>
       <path id="DejaVuSans-4d" d="M 628 4666 
L 1569 4666 
L 2759 1491 
L 3956 4666 
L 4897 4666 
L 4897 0 
L 4281 0 
L 4281 4097 
L 3078 897 
L 2444 897 
L 1241 4097 
L 1241 0 
L 628 0 
L 628 4666 
z
" transform="scale(0.015625)"/>
       <path id="DejaVuSans-66" d="M 2375 4863 
L 2375 4384 
L 1825 4384 
Q 1516 4384 1395 4259 
Q 1275 4134 1275 3809 
L 1275 3500 
L 2222 3500 
L 2222 3053 
L 1275 3053 
L 1275 0 
L 697 0 
L 697 3053 
L 147 3053 
L 147 3500 
L 697 3500 
L 697 3744 
Q 697 4328 969 4595 
Q 1241 4863 1831 4863 
L 2375 4863 
z
" transform="scale(0.015625)"/>
       <path id="DejaVuSans-20" transform="scale(0.015625)"/>
       <path id="DejaVuSans-62" d="M 3116 1747 
Q 3116 2381 2855 2742 
Q 2594 3103 2138 3103 
Q 1681 3103 1420 2742 
Q 1159 2381 1159 1747 
Q 1159 1113 1420 752 
Q 1681 391 2138 391 
Q 2594 391 2855 752 
Q 3116 1113 3116 1747 
z
M 1159 2969 
Q 1341 3281 1617 3432 
Q 1894 3584 2278 3584 
Q 2916 3584 3314 3078 
Q 3713 2572 3713 1747 
Q 3713 922 3314 415 
Q 2916 -91 2278 -91 
Q 1894 -91 1617 61 
Q 1341 213 1159 525 
L 1159 0 
L 581 0 
L 581 4863 
L 1159 4863 
L 1159 2969 
z
" transform="scale(0.015625)"/>
       <path id="DejaVuSans-65" d="M 3597 1894 
L 3597 1613 
L 953 1613 
Q 991 1019 1311 708 
Q 1631 397 2203 397 
Q 2534 397 2845 478 
Q 3156 559 3463 722 
L 3463 178 
Q 3153 47 2828 -22 
Q 2503 -91 2169 -91 
Q 1331 -91 842 396 
Q 353 884 353 1716 
Q 353 2575 817 3079 
Q 1281 3584 2069 3584 
Q 2775 3584 3186 3129 
Q 3597 2675 3597 1894 
z
M 3022 2063 
Q 3016 2534 2758 2815 
Q 2500 3097 2075 3097 
Q 1594 3097 1305 2825 
Q 1016 2553 972 2059 
L 3022 2063 
z
" transform="scale(0.015625)"/>
       <path id="DejaVuSans-6f" d="M 1959 3097 
Q 1497 3097 1228 2736 
Q 959 2375 959 1747 
Q 959 1119 1226 758 
Q 1494 397 1959 397 
Q 2419 397 2687 759 
Q 2956 1122 2956 1747 
Q 2956 2369 2687 2733 
Q 2419 3097 1959 3097 
z
M 1959 3584 
Q 2709 3584 3137 3096 
Q 3566 2609 3566 1747 
Q 3566 888 3137 398 
Q 2709 -91 1959 -91 
Q 1206 -91 779 398 
Q 353 888 353 1747 
Q 353 2609 779 3096 
Q 1206 3584 1959 3584 
z
" transform="scale(0.015625)"/>
       <path id="DejaVuSans-72" d="M 2631 2963 
Q 2534 3019 2420 3045 
Q 2306 3072 2169 3072 
Q 1681 3072 1420 2755 
Q 1159 2438 1159 1844 
L 1159 0 
L 581 0 
L 581 3500 
L 1159 3500 
L 1159 2956 
Q 1341 3275 1631 3429 
Q 1922 3584 2338 3584 
Q 2397 3584 2469 3576 
Q 2541 3569 2628 3553 
L 2631 2963 
z
" transform="scale(0.015625)"/>
       <path id="DejaVuSans-49" d="M 628 4666 
L 1259 4666 
L 1259 0 
L 628 0 
L 628 4666 
z
" transform="scale(0.015625)"/>
       <path id="DejaVuSans-53" d="M 3425 4513 
L 3425 3897 
Q 3066 4069 2747 4153 
Q 2428 4238 2131 4238 
Q 1616 4238 1336 4038 
Q 1056 3838 1056 3469 
Q 1056 3159 1242 3001 
Q 1428 2844 1947 2747 
L 2328 2669 
Q 3034 2534 3370 2195 
Q 3706 1856 3706 1288 
Q 3706 609 3251 259 
Q 2797 -91 1919 -91 
Q 1588 -91 1214 -16 
Q 841 59 441 206 
L 441 856 
Q 825 641 1194 531 
Q 1563 422 1919 422 
Q 2459 422 2753 634 
Q 3047 847 3047 1241 
Q 3047 1584 2836 1778 
Q 2625 1972 2144 2069 
L 1759 2144 
Q 1053 2284 737 2584 
Q 422 2884 422 3419 
Q 422 4038 858 4394 
Q 1294 4750 2059 4750 
Q 2388 4750 2728 4690 
Q 3069 4631 3425 4513 
z
" transform="scale(0.015625)"/>
       <path id="DejaVuSans-43" d="M 4122 4306 
L 4122 3641 
Q 3803 3938 3442 4084 
Q 3081 4231 2675 4231 
Q 1875 4231 1450 3742 
Q 1025 3253 1025 2328 
Q 1025 1406 1450 917 
Q 1875 428 2675 428 
Q 3081 428 3442 575 
Q 3803 722 4122 1019 
L 4122 359 
Q 3791 134 3420 21 
Q 3050 -91 2638 -91 
Q 1578 -91 968 557 
Q 359 1206 359 2328 
Q 359 3453 968 4101 
Q 1578 4750 2638 4750 
Q 3056 4750 3426 4639 
Q 3797 4528 4122 4306 
z
" transform="scale(0.015625)"/>
       <path id="DejaVuSans-4f" d="M 2522 4238 
Q 1834 4238 1429 3725 
Q 1025 3213 1025 2328 
Q 1025 1447 1429 934 
Q 1834 422 2522 422 
Q 3209 422 3611 934 
Q 4013 1447 4013 2328 
Q 4013 3213 3611 3725 
Q 3209 4238 2522 4238 
z
M 2522 4750 
Q 3503 4750 4090 4092 
Q 4678 3434 4678 2328 
Q 4678 1225 4090 567 
Q 3503 -91 2522 -91 
Q 1538 -91 948 565 
Q 359 1222 359 2328 
Q 359 3434 948 4092 
Q 1538 4750 2522 4750 
z
" transform="scale(0.015625)"/>
       <path id="DejaVuSans-63" d="M 3122 3366 
L 3122 2828 
Q 2878 2963 2633 3030 
Q 2388 3097 2138 3097 
Q 1578 3097 1268 2742 
Q 959 2388 959 1747 
Q 959 1106 1268 751 
Q 1578 397 2138 397 
Q 2388 397 2633 464 
Q 2878 531 3122 666 
L 3122 134 
Q 2881 22 2623 -34 
Q 2366 -91 2075 -91 
Q 1284 -91 818 406 
Q 353 903 353 1747 
Q 353 2603 823 3093 
Q 1294 3584 2113 3584 
Q 2378 3584 2631 3529 
Q 2884 3475 3122 3366 
z
" transform="scale(0.015625)"/>
       <path id="DejaVuSans-75" d="M 544 1381 
L 544 3500 
L 1119 3500 
L 1119 1403 
Q 1119 906 1312 657 
Q 1506 409 1894 409 
Q 2359 409 2629 706 
Q 2900 1003 2900 1516 
L 2900 3500 
L 3475 3500 
L 3475 0 
L 2900 0 
L 2900 538 
Q 2691 219 2414 64 
Q 2138 -91 1772 -91 
Q 1169 -91 856 284 
Q 544 659 544 1381 
z
M 1991 3584 
L 1991 3584 
z
" transform="scale(0.015625)"/>
       <path id="DejaVuSans-74" d="M 1172 4494 
L 1172 3500 
L 2356 3500 
L 2356 3053 
L 1172 3053 
L 1172 1153 
Q 1172 725 1289 603 
Q 1406 481 1766 481 
L 2356 481 
L 2356 0 
L 1766 0 
Q 1100 0 847 248 
Q 594 497 594 1153 
L 594 3053 
L 172 3053 
L 172 3500 
L 594 3500 
L 594 4494 
L 1172 4494 
z
" transform="scale(0.015625)"/>
       <path id="DejaVuSans-3a" d="M 750 794 
L 1409 794 
L 1409 0 
L 750 0 
L 750 794 
z
M 750 3309 
L 1409 3309 
L 1409 2516 
L 750 2516 
L 750 3309 
z
" transform="scale(0.015625)"/>
       <path id="DejaVuSans-Oblique-65" d="M 3078 2063 
Q 3088 2113 3092 2166 
Q 3097 2219 3097 2272 
Q 3097 2653 2873 2875 
Q 2650 3097 2266 3097 
Q 1838 3097 1509 2826 
Q 1181 2556 1013 2059 
L 3078 2063 
z
M 3578 1613 
L 903 1613 
Q 884 1494 878 1425 
Q 872 1356 872 1306 
Q 872 872 1139 634 
Q 1406 397 1894 397 
Q 2269 397 2603 481 
Q 2938 566 3225 728 
L 3116 159 
Q 2806 34 2476 -28 
Q 2147 -91 1806 -91 
Q 1078 -91 686 257 
Q 294 606 294 1247 
Q 294 1794 489 2264 
Q 684 2734 1063 3103 
Q 1306 3334 1642 3459 
Q 1978 3584 2356 3584 
Q 2950 3584 3301 3228 
Q 3653 2872 3653 2272 
Q 3653 2128 3634 1964 
Q 3616 1800 3578 1613 
z
" transform="scale(0.015625)"/>
       <path id="DejaVuSans-3d" d="M 678 2906 
L 4684 2906 
L 4684 2381 
L 678 2381 
L 678 2906 
z
M 678 1631 
L 4684 1631 
L 4684 1100 
L 678 1100 
L 678 1631 
z
" transform="scale(0.015625)"/>
      </defs>
      <use xlink:href="#DejaVuSans-4d" transform="translate(0 0.015625)"/>
      <use xlink:href="#DejaVuSans-66" transform="translate(86.279297 0.015625)"/>
      <use xlink:href="#DejaVuSans-20" transform="translate(121.484375 0.015625)"/>
      <use xlink:href="#DejaVuSans-62" transform="translate(153.271484 0.015625)"/>
      <use xlink:href="#DejaVuSans-65" transform="translate(216.748047 0.015625)"/>
      <use xlink:href="#DejaVuSans-66" transform="translate(278.271484 0.015625)"/>
      <use xlink:href="#DejaVuSans-6f" transform="translate(313.476562 0.015625)"/>
      <use xlink:href="#DejaVuSans-72" transform="translate(374.658203 0.015625)"/>
      <use xlink:href="#DejaVuSans-65" transform="translate(415.771484 0.015625)"/>
      <use xlink:href="#DejaVuSans-20" transform="translate(477.294922 0.015625)"/>
      <use xlink:href="#DejaVuSans-49" transform="translate(509.082031 0.015625)"/>
      <use xlink:href="#DejaVuSans-53" transform="translate(538.574219 0.015625)"/>
      <use xlink:href="#DejaVuSans-43" transform="translate(602.050781 0.015625)"/>
      <use xlink:href="#DejaVuSans-4f" transform="translate(671.875 0.015625)"/>
      <use xlink:href="#DejaVuSans-20" transform="translate(750.585938 0.015625)"/>
      <use xlink:href="#DejaVuSans-63" transform="translate(782.373047 0.015625)"/>
      <use xlink:href="#DejaVuSans-75" transform="translate(837.353516 0.015625)"/>
      <use xlink:href="#DejaVuSans-74" transform="translate(900.732422 0.015625)"/>
      <use xlink:href="#DejaVuSans-3a" transform="translate(939.941406 0.015625)"/>
      <use xlink:href="#DejaVuSans-20" transform="translate(973.632812 0.015625)"/>
      <use xlink:href="#DejaVuSans-Oblique-65" transform="translate(1005.419922 0.015625)"/>
      <use xlink:href="#DejaVuSans-3d" transform="translate(1066.943359 0.015625)"/>
      <use xlink:href="#DejaVuSans-30" transform="translate(1150.732422 0.015625)"/>
      <use xlink:href="#DejaVuSans-2e" transform="translate(1214.355469 0.015625)"/>
      <use xlink:href="#DejaVuSans-31" transform="translate(1246.142578 0.015625)"/>
     </g>
    </g>
    <g id="line2d_18">
     <path d="M 45.465625 34.976563 
L 55.465625 34.976563 
L 65.465625 34.976563 
" style="fill: none; stroke-dasharray: 2.22,0.96; stroke-dashoffset: 0; stroke: #ff0000; stroke-width: 0.6"/>
    </g>
    <g id="text_15">
     <!-- Mf ISCO $e$=0 -->
     <g transform="translate(73.465625 38.476563) scale(0.1 -0.1)">
      <use xlink:href="#DejaVuSans-4d" transform="translate(0 0.015625)"/>
      <use xlink:href="#DejaVuSans-66" transform="translate(86.279297 0.015625)"/>
      <use xlink:href="#DejaVuSans-20" transform="translate(121.484375 0.015625)"/>
      <use xlink:href="#DejaVuSans-49" transform="translate(153.271484 0.015625)"/>
      <use xlink:href="#DejaVuSans-53" transform="translate(182.763672 0.015625)"/>
      <use xlink:href="#DejaVuSans-43" transform="translate(246.240234 0.015625)"/>
      <use xlink:href="#DejaVuSans-4f" transform="translate(316.064453 0.015625)"/>
      <use xlink:href="#DejaVuSans-20" transform="translate(394.775391 0.015625)"/>
      <use xlink:href="#DejaVuSans-Oblique-65" transform="translate(426.5625 0.015625)"/>
      <use xlink:href="#DejaVuSans-3d" transform="translate(488.085938 0.015625)"/>
      <use xlink:href="#DejaVuSans-30" transform="translate(571.875 0.015625)"/>
     </g>
    </g>
    <g id="PathCollection_2">
     <g>
      <use xlink:href="#m87310702d1" x="55.465625" y="50.529688" style="fill: #ff0000; stroke: #ff0000"/>
     </g>
    </g>
    <g id="text_16">
     <!-- ISCO cut -->
     <g transform="translate(73.465625 53.154688) scale(0.1 -0.1)">
      <use xlink:href="#DejaVuSans-49"/>
      <use xlink:href="#DejaVuSans-53" transform="translate(29.492188 0)"/>
      <use xlink:href="#DejaVuSans-43" transform="translate(92.96875 0)"/>
      <use xlink:href="#DejaVuSans-4f" transform="translate(162.792969 0)"/>
      <use xlink:href="#DejaVuSans-20" transform="translate(241.503906 0)"/>
      <use xlink:href="#DejaVuSans-63" transform="translate(273.291016 0)"/>
      <use xlink:href="#DejaVuSans-75" transform="translate(328.271484 0)"/>
      <use xlink:href="#DejaVuSans-74" transform="translate(391.650391 0)"/>
     </g>
    </g>
    <g id="line2d_19">
     <path d="M 45.465625 64.332813 
L 55.465625 64.332813 
L 65.465625 64.332813 
" style="fill: none; stroke: #ff7f0e; stroke-width: 1.5; stroke-linecap: square"/>
    </g>
    <g id="text_17">
     <!-- Mf after ISCO cut: $e$=0.1  -->
     <g transform="translate(73.465625 67.832813) scale(0.1 -0.1)">
      <defs>
       <path id="DejaVuSans-61" d="M 2194 1759 
Q 1497 1759 1228 1600 
Q 959 1441 959 1056 
Q 959 750 1161 570 
Q 1363 391 1709 391 
Q 2188 391 2477 730 
Q 2766 1069 2766 1631 
L 2766 1759 
L 2194 1759 
z
M 3341 1997 
L 3341 0 
L 2766 0 
L 2766 531 
Q 2569 213 2275 61 
Q 1981 -91 1556 -91 
Q 1019 -91 701 211 
Q 384 513 384 1019 
Q 384 1609 779 1909 
Q 1175 2209 1959 2209 
L 2766 2209 
L 2766 2266 
Q 2766 2663 2505 2880 
Q 2244 3097 1772 3097 
Q 1472 3097 1187 3025 
Q 903 2953 641 2809 
L 641 3341 
Q 956 3463 1253 3523 
Q 1550 3584 1831 3584 
Q 2591 3584 2966 3190 
Q 3341 2797 3341 1997 
z
" transform="scale(0.015625)"/>
      </defs>
      <use xlink:href="#DejaVuSans-4d" transform="translate(0 0.015625)"/>
      <use xlink:href="#DejaVuSans-66" transform="translate(86.279297 0.015625)"/>
      <use xlink:href="#DejaVuSans-20" transform="translate(121.484375 0.015625)"/>
      <use xlink:href="#DejaVuSans-61" transform="translate(153.271484 0.015625)"/>
      <use xlink:href="#DejaVuSans-66" transform="translate(214.550781 0.015625)"/>
      <use xlink:href="#DejaVuSans-74" transform="translate(249.755859 0.015625)"/>
      <use xlink:href="#DejaVuSans-65" transform="translate(288.964844 0.015625)"/>
      <use xlink:href="#DejaVuSans-72" transform="translate(350.488281 0.015625)"/>
      <use xlink:href="#DejaVuSans-20" transform="translate(391.601562 0.015625)"/>
      <use xlink:href="#DejaVuSans-49" transform="translate(423.388672 0.015625)"/>
      <use xlink:href="#DejaVuSans-53" transform="translate(452.880859 0.015625)"/>
      <use xlink:href="#DejaVuSans-43" transform="translate(516.357422 0.015625)"/>
      <use xlink:href="#DejaVuSans-4f" transform="translate(586.181641 0.015625)"/>
      <use xlink:href="#DejaVuSans-20" transform="translate(664.892578 0.015625)"/>
      <use xlink:href="#DejaVuSans-63" transform="translate(696.679688 0.015625)"/>
      <use xlink:href="#DejaVuSans-75" transform="translate(751.660156 0.015625)"/>
      <use xlink:href="#DejaVuSans-74" transform="translate(815.039062 0.015625)"/>
      <use xlink:href="#DejaVuSans-3a" transform="translate(854.248047 0.015625)"/>
      <use xlink:href="#DejaVuSans-20" transform="translate(887.939453 0.015625)"/>
      <use xlink:href="#DejaVuSans-Oblique-65" transform="translate(919.726562 0.015625)"/>
      <use xlink:href="#DejaVuSans-3d" transform="translate(981.25 0.015625)"/>
      <use xlink:href="#DejaVuSans-30" transform="translate(1065.039062 0.015625)"/>
      <use xlink:href="#DejaVuSans-2e" transform="translate(1128.662109 0.015625)"/>
      <use xlink:href="#DejaVuSans-31" transform="translate(1160.449219 0.015625)"/>
      <use xlink:href="#DejaVuSans-20" transform="translate(1224.072266 0.015625)"/>
     </g>
    </g>
   </g>
  </g>
 </g>
 <defs>
  <clipPath id="pdddca9fe8e">
   <rect x="36.465625" y="7.2" width="669.6" height="277.2"/>
  </clipPath>
 </defs>
</svg>
