<?xml version="1.0" encoding="utf-8" standalone="no"?>
<!DOCTYPE svg PUBLIC "-//W3C//DTD SVG 1.1//EN"
  "http://www.w3.org/Graphics/SVG/1.1/DTD/svg11.dtd">
<svg xmlns:xlink="http://www.w3.org/1999/xlink" width="713.265625pt" height="308.278125pt" viewBox="0 0 713.265625 308.278125" xmlns="http://www.w3.org/2000/svg" version="1.1">
 <metadata>
  <rdf:RDF xmlns:dc="http://purl.org/dc/elements/1.1/" xmlns:cc="http://creativecommons.org/ns#" xmlns:rdf="http://www.w3.org/1999/02/22-rdf-syntax-ns#">
   <cc:Work>
    <dc:type rdf:resource="http://purl.org/dc/dcmitype/StillImage"/>
    <dc:date>2025-07-25T14:55:37.677046</dc:date>
    <dc:format>image/svg+xml</dc:format>
    <dc:creator>
     <cc:Agent>
      <dc:title>Matplotlib v3.10.3, https://matplotlib.org/</dc:title>
     </cc:Agent>
    </dc:creator>
   </cc:Work>
  </rdf:RDF>
 </metadata>
 <defs>
  <style type="text/css">*{stroke-linejoin: round; stroke-linecap: butt}</style>
 </defs>
 <g id="figure_1">
  <g id="patch_1">
   <path d="M 0 308.278125 
L 713.265625 308.278125 
L 713.265625 0 
L 0 0 
z
" style="fill: #ffffff"/>
  </g>
  <g id="axes_1">
   <g id="patch_2">
    <path d="M 36.465625 284.4 
L 706.065625 284.4 
L 706.065625 7.2 
L 36.465625 7.2 
z
" style="fill: #ffffff"/>
   </g>
   <g id="PathCollection_1">
    <defs>
     <path id="m1397473e05" d="M 0 1.224745 
C 0.324806 1.224745 0.636353 1.095698 0.866025 0.866025 
C 1.095698 0.636353 1.224745 0.324806 1.224745 0 
C 1.224745 -0.324806 1.095698 -0.636353 0.866025 -0.866025 
C 0.636353 -1.095698 0.324806 -1.224745 0 -1.224745 
C -0.324806 -1.224745 -0.636353 -1.095698 -0.866025 -0.866025 
C -1.095698 -0.636353 -1.224745 -0.324806 -1.224745 0 
C -1.224745 0.324806 -1.095698 0.636353 -0.866025 0.866025 
C -0.636353 1.095698 -0.324806 1.224745 0 1.224745 
z
" style="stroke: #ff0000"/>
    </defs>
    <g clip-path="url(#pe7c1b3285b)">
     <use xlink:href="#m1397473e05" x="669.31235" y="214.522251" style="fill: #ff0000; stroke: #ff0000"/>
    </g>
   </g>
   <g id="matplotlib.axis_1">
    <g id="xtick_1">
     <g id="line2d_1">
      <defs>
       <path id="m2e74094176" d="M 0 0 
L 0 3.5 
" style="stroke: #000000; stroke-width: 0.8"/>
      </defs>
      <g>
       <use xlink:href="#m2e74094176" x="46.099533" y="284.4" style="stroke: #000000; stroke-width: 0.8"/>
      </g>
     </g>
     <g id="text_1">
      <!-- −14000 -->
      <g transform="translate(26.00344 298.998438) scale(0.1 -0.1)">
       <defs>
        <path id="DejaVuSans-2212" d="M 678 2272 
L 4684 2272 
L 4684 1741 
L 678 1741 
L 678 2272 
z
" transform="scale(0.015625)"/>
        <path id="DejaVuSans-31" d="M 794 531 
L 1825 531 
L 1825 4091 
L 703 3866 
L 703 4441 
L 1819 4666 
L 2450 4666 
L 2450 531 
L 3481 531 
L 3481 0 
L 794 0 
L 794 531 
z
" transform="scale(0.015625)"/>
        <path id="DejaVuSans-34" d="M 2419 4116 
L 825 1625 
L 2419 1625 
L 2419 4116 
z
M 2253 4666 
L 3047 4666 
L 3047 1625 
L 3713 1625 
L 3713 1100 
L 3047 1100 
L 3047 0 
L 2419 0 
L 2419 1100 
L 313 1100 
L 313 1709 
L 2253 4666 
z
" transform="scale(0.015625)"/>
        <path id="DejaVuSans-30" d="M 2034 4250 
Q 1547 4250 1301 3770 
Q 1056 3291 1056 2328 
Q 1056 1369 1301 889 
Q 1547 409 2034 409 
Q 2525 409 2770 889 
Q 3016 1369 3016 2328 
Q 3016 3291 2770 3770 
Q 2525 4250 2034 4250 
z
M 2034 4750 
Q 2819 4750 3233 4129 
Q 3647 3509 3647 2328 
Q 3647 1150 3233 529 
Q 2819 -91 2034 -91 
Q 1250 -91 836 529 
Q 422 1150 422 2328 
Q 422 3509 836 4129 
Q 1250 4750 2034 4750 
z
" transform="scale(0.015625)"/>
       </defs>
       <use xlink:href="#DejaVuSans-2212"/>
       <use xlink:href="#DejaVuSans-31" transform="translate(83.789062 0)"/>
       <use xlink:href="#DejaVuSans-34" transform="translate(147.412109 0)"/>
       <use xlink:href="#DejaVuSans-30" transform="translate(211.035156 0)"/>
       <use xlink:href="#DejaVuSans-30" transform="translate(274.658203 0)"/>
       <use xlink:href="#DejaVuSans-30" transform="translate(338.28125 0)"/>
      </g>
     </g>
    </g>
    <g id="xtick_2">
     <g id="line2d_2">
      <g>
       <use xlink:href="#m2e74094176" x="135.57819" y="284.4" style="stroke: #000000; stroke-width: 0.8"/>
      </g>
     </g>
     <g id="text_2">
      <!-- −12000 -->
      <g transform="translate(115.482097 298.998438) scale(0.1 -0.1)">
       <defs>
        <path id="DejaVuSans-32" d="M 1228 531 
L 3431 531 
L 3431 0 
L 469 0 
L 469 531 
Q 828 903 1448 1529 
Q 2069 2156 2228 2338 
Q 2531 2678 2651 2914 
Q 2772 3150 2772 3378 
Q 2772 3750 2511 3984 
Q 2250 4219 1831 4219 
Q 1534 4219 1204 4116 
Q 875 4013 500 3803 
L 500 4441 
Q 881 4594 1212 4672 
Q 1544 4750 1819 4750 
Q 2544 4750 2975 4387 
Q 3406 4025 3406 3419 
Q 3406 3131 3298 2873 
Q 3191 2616 2906 2266 
Q 2828 2175 2409 1742 
Q 1991 1309 1228 531 
z
" transform="scale(0.015625)"/>
       </defs>
       <use xlink:href="#DejaVuSans-2212"/>
       <use xlink:href="#DejaVuSans-31" transform="translate(83.789062 0)"/>
       <use xlink:href="#DejaVuSans-32" transform="translate(147.412109 0)"/>
       <use xlink:href="#DejaVuSans-30" transform="translate(211.035156 0)"/>
       <use xlink:href="#DejaVuSans-30" transform="translate(274.658203 0)"/>
       <use xlink:href="#DejaVuSans-30" transform="translate(338.28125 0)"/>
      </g>
     </g>
    </g>
    <g id="xtick_3">
     <g id="line2d_3">
      <g>
       <use xlink:href="#m2e74094176" x="225.056848" y="284.4" style="stroke: #000000; stroke-width: 0.8"/>
      </g>
     </g>
     <g id="text_3">
      <!-- −10000 -->
      <g transform="translate(204.960754 298.998438) scale(0.1 -0.1)">
       <use xlink:href="#DejaVuSans-2212"/>
       <use xlink:href="#DejaVuSans-31" transform="translate(83.789062 0)"/>
       <use xlink:href="#DejaVuSans-30" transform="translate(147.412109 0)"/>
       <use xlink:href="#DejaVuSans-30" transform="translate(211.035156 0)"/>
       <use xlink:href="#DejaVuSans-30" transform="translate(274.658203 0)"/>
       <use xlink:href="#DejaVuSans-30" transform="translate(338.28125 0)"/>
      </g>
     </g>
    </g>
    <g id="xtick_4">
     <g id="line2d_4">
      <g>
       <use xlink:href="#m2e74094176" x="314.535505" y="284.4" style="stroke: #000000; stroke-width: 0.8"/>
      </g>
     </g>
     <g id="text_4">
      <!-- −8000 -->
      <g transform="translate(297.620661 298.998438) scale(0.1 -0.1)">
       <defs>
        <path id="DejaVuSans-38" d="M 2034 2216 
Q 1584 2216 1326 1975 
Q 1069 1734 1069 1313 
Q 1069 891 1326 650 
Q 1584 409 2034 409 
Q 2484 409 2743 651 
Q 3003 894 3003 1313 
Q 3003 1734 2745 1975 
Q 2488 2216 2034 2216 
z
M 1403 2484 
Q 997 2584 770 2862 
Q 544 3141 544 3541 
Q 544 4100 942 4425 
Q 1341 4750 2034 4750 
Q 2731 4750 3128 4425 
Q 3525 4100 3525 3541 
Q 3525 3141 3298 2862 
Q 3072 2584 2669 2484 
Q 3125 2378 3379 2068 
Q 3634 1759 3634 1313 
Q 3634 634 3220 271 
Q 2806 -91 2034 -91 
Q 1263 -91 848 271 
Q 434 634 434 1313 
Q 434 1759 690 2068 
Q 947 2378 1403 2484 
z
M 1172 3481 
Q 1172 3119 1398 2916 
Q 1625 2713 2034 2713 
Q 2441 2713 2670 2916 
Q 2900 3119 2900 3481 
Q 2900 3844 2670 4047 
Q 2441 4250 2034 4250 
Q 1625 4250 1398 4047 
Q 1172 3844 1172 3481 
z
" transform="scale(0.015625)"/>
       </defs>
       <use xlink:href="#DejaVuSans-2212"/>
       <use xlink:href="#DejaVuSans-38" transform="translate(83.789062 0)"/>
       <use xlink:href="#DejaVuSans-30" transform="translate(147.412109 0)"/>
       <use xlink:href="#DejaVuSans-30" transform="translate(211.035156 0)"/>
       <use xlink:href="#DejaVuSans-30" transform="translate(274.658203 0)"/>
      </g>
     </g>
    </g>
    <g id="xtick_5">
     <g id="line2d_5">
      <g>
       <use xlink:href="#m2e74094176" x="404.014162" y="284.4" style="stroke: #000000; stroke-width: 0.8"/>
      </g>
     </g>
     <g id="text_5">
      <!-- −6000 -->
      <g transform="translate(387.099318 298.998438) scale(0.1 -0.1)">
       <defs>
        <path id="DejaVuSans-36" d="M 2113 2584 
Q 1688 2584 1439 2293 
Q 1191 2003 1191 1497 
Q 1191 994 1439 701 
Q 1688 409 2113 409 
Q 2538 409 2786 701 
Q 3034 994 3034 1497 
Q 3034 2003 2786 2293 
Q 2538 2584 2113 2584 
z
M 3366 4563 
L 3366 3988 
Q 3128 4100 2886 4159 
Q 2644 4219 2406 4219 
Q 1781 4219 1451 3797 
Q 1122 3375 1075 2522 
Q 1259 2794 1537 2939 
Q 1816 3084 2150 3084 
Q 2853 3084 3261 2657 
Q 3669 2231 3669 1497 
Q 3669 778 3244 343 
Q 2819 -91 2113 -91 
Q 1303 -91 875 529 
Q 447 1150 447 2328 
Q 447 3434 972 4092 
Q 1497 4750 2381 4750 
Q 2619 4750 2861 4703 
Q 3103 4656 3366 4563 
z
" transform="scale(0.015625)"/>
       </defs>
       <use xlink:href="#DejaVuSans-2212"/>
       <use xlink:href="#DejaVuSans-36" transform="translate(83.789062 0)"/>
       <use xlink:href="#DejaVuSans-30" transform="translate(147.412109 0)"/>
       <use xlink:href="#DejaVuSans-30" transform="translate(211.035156 0)"/>
       <use xlink:href="#DejaVuSans-30" transform="translate(274.658203 0)"/>
      </g>
     </g>
    </g>
    <g id="xtick_6">
     <g id="line2d_6">
      <g>
       <use xlink:href="#m2e74094176" x="493.492819" y="284.4" style="stroke: #000000; stroke-width: 0.8"/>
      </g>
     </g>
     <g id="text_6">
      <!-- −4000 -->
      <g transform="translate(476.577975 298.998438) scale(0.1 -0.1)">
       <use xlink:href="#DejaVuSans-2212"/>
       <use xlink:href="#DejaVuSans-34" transform="translate(83.789062 0)"/>
       <use xlink:href="#DejaVuSans-30" transform="translate(147.412109 0)"/>
       <use xlink:href="#DejaVuSans-30" transform="translate(211.035156 0)"/>
       <use xlink:href="#DejaVuSans-30" transform="translate(274.658203 0)"/>
      </g>
     </g>
    </g>
    <g id="xtick_7">
     <g id="line2d_7">
      <g>
       <use xlink:href="#m2e74094176" x="582.971476" y="284.4" style="stroke: #000000; stroke-width: 0.8"/>
      </g>
     </g>
     <g id="text_7">
      <!-- −2000 -->
      <g transform="translate(566.056633 298.998438) scale(0.1 -0.1)">
       <use xlink:href="#DejaVuSans-2212"/>
       <use xlink:href="#DejaVuSans-32" transform="translate(83.789062 0)"/>
       <use xlink:href="#DejaVuSans-30" transform="translate(147.412109 0)"/>
       <use xlink:href="#DejaVuSans-30" transform="translate(211.035156 0)"/>
       <use xlink:href="#DejaVuSans-30" transform="translate(274.658203 0)"/>
      </g>
     </g>
    </g>
    <g id="xtick_8">
     <g id="line2d_8">
      <g>
       <use xlink:href="#m2e74094176" x="672.450134" y="284.4" style="stroke: #000000; stroke-width: 0.8"/>
      </g>
     </g>
     <g id="text_8">
      <!-- 0 -->
      <g transform="translate(669.268884 298.998438) scale(0.1 -0.1)">
       <use xlink:href="#DejaVuSans-30"/>
      </g>
     </g>
    </g>
   </g>
   <g id="matplotlib.axis_2">
    <g id="ytick_1">
     <g id="line2d_9">
      <defs>
       <path id="m2afc8d1174" d="M 0 0 
L -3.5 0 
" style="stroke: #000000; stroke-width: 0.8"/>
      </defs>
      <g>
       <use xlink:href="#m2afc8d1174" x="36.465625" y="278.743496" style="stroke: #000000; stroke-width: 0.8"/>
      </g>
     </g>
     <g id="text_9">
      <!-- 0.00 -->
      <g transform="translate(7.2 282.542714) scale(0.1 -0.1)">
       <defs>
        <path id="DejaVuSans-2e" d="M 684 794 
L 1344 794 
L 1344 0 
L 684 0 
L 684 794 
z
" transform="scale(0.015625)"/>
       </defs>
       <use xlink:href="#DejaVuSans-30"/>
       <use xlink:href="#DejaVuSans-2e" transform="translate(63.623047 0)"/>
       <use xlink:href="#DejaVuSans-30" transform="translate(95.410156 0)"/>
       <use xlink:href="#DejaVuSans-30" transform="translate(159.033203 0)"/>
      </g>
     </g>
    </g>
    <g id="ytick_2">
     <g id="line2d_10">
      <g>
       <use xlink:href="#m2afc8d1174" x="36.465625" y="219.951413" style="stroke: #000000; stroke-width: 0.8"/>
      </g>
     </g>
     <g id="text_10">
      <!-- 0.02 -->
      <g transform="translate(7.2 223.750632) scale(0.1 -0.1)">
       <use xlink:href="#DejaVuSans-30"/>
       <use xlink:href="#DejaVuSans-2e" transform="translate(63.623047 0)"/>
       <use xlink:href="#DejaVuSans-30" transform="translate(95.410156 0)"/>
       <use xlink:href="#DejaVuSans-32" transform="translate(159.033203 0)"/>
      </g>
     </g>
    </g>
    <g id="ytick_3">
     <g id="line2d_11">
      <g>
       <use xlink:href="#m2afc8d1174" x="36.465625" y="161.159331" style="stroke: #000000; stroke-width: 0.8"/>
      </g>
     </g>
     <g id="text_11">
      <!-- 0.04 -->
      <g transform="translate(7.2 164.95855) scale(0.1 -0.1)">
       <use xlink:href="#DejaVuSans-30"/>
       <use xlink:href="#DejaVuSans-2e" transform="translate(63.623047 0)"/>
       <use xlink:href="#DejaVuSans-30" transform="translate(95.410156 0)"/>
       <use xlink:href="#DejaVuSans-34" transform="translate(159.033203 0)"/>
      </g>
     </g>
    </g>
    <g id="ytick_4">
     <g id="line2d_12">
      <g>
       <use xlink:href="#m2afc8d1174" x="36.465625" y="102.367249" style="stroke: #000000; stroke-width: 0.8"/>
      </g>
     </g>
     <g id="text_12">
      <!-- 0.06 -->
      <g transform="translate(7.2 106.166468) scale(0.1 -0.1)">
       <use xlink:href="#DejaVuSans-30"/>
       <use xlink:href="#DejaVuSans-2e" transform="translate(63.623047 0)"/>
       <use xlink:href="#DejaVuSans-30" transform="translate(95.410156 0)"/>
       <use xlink:href="#DejaVuSans-36" transform="translate(159.033203 0)"/>
      </g>
     </g>
    </g>
    <g id="ytick_5">
     <g id="line2d_13">
      <g>
       <use xlink:href="#m2afc8d1174" x="36.465625" y="43.575167" style="stroke: #000000; stroke-width: 0.8"/>
      </g>
     </g>
     <g id="text_13">
      <!-- 0.08 -->
      <g transform="translate(7.2 47.374386) scale(0.1 -0.1)">
       <use xlink:href="#DejaVuSans-30"/>
       <use xlink:href="#DejaVuSans-2e" transform="translate(63.623047 0)"/>
       <use xlink:href="#DejaVuSans-30" transform="translate(95.410156 0)"/>
       <use xlink:href="#DejaVuSans-38" transform="translate(159.033203 0)"/>
      </g>
     </g>
    </g>
   </g>
   <g id="line2d_14">
    <path d="M 66.901989 267.12944 
L 67.273572 266.859711 
L 68.982853 265.624149 
L 69.948969 265.181549 
L 70.766452 265.040893 
L 71.583934 265.140194 
L 72.475734 265.50233 
L 73.590483 266.228741 
L 78.569695 269.816683 
L 80.278977 270.598221 
L 82.136892 271.199706 
L 84.069123 271.586328 
L 86.224305 271.783798 
L 88.379486 271.756432 
L 90.534668 271.509479 
L 92.466899 271.067252 
L 94.324814 270.410831 
L 96.034096 269.573756 
L 97.669061 268.51476 
L 99.824243 266.815186 
L 101.682158 265.439601 
L 102.648273 264.98805 
L 103.465756 264.842904 
L 104.208922 264.922649 
L 105.026405 265.229896 
L 106.066837 265.877946 
L 107.999069 267.417169 
L 110.079933 268.959788 
L 111.714899 269.892276 
L 113.42418 270.612885 
L 115.207779 271.13257 
L 117.14001 271.462346 
L 119.220875 271.594083 
L 121.30174 271.503758 
L 123.382605 271.191109 
L 125.24052 270.682221 
L 127.024118 269.963082 
L 128.659083 269.064423 
L 130.368365 267.849506 
L 134.232828 264.957955 
L 135.124628 264.667814 
L 135.867794 264.644431 
L 136.685276 264.852928 
L 137.577075 265.320134 
L 138.840458 266.255827 
L 142.184705 268.842211 
L 143.81967 269.76771 
L 145.528952 270.477705 
L 147.31255 270.978705 
L 149.244782 271.283403 
L 151.25133 271.378059 
L 153.257878 271.253571 
L 155.19011 270.921449 
L 156.973708 270.39077 
L 158.68299 269.655963 
L 160.243639 268.753655 
L 161.95292 267.493656 
L 165.445801 264.812868 
L 166.3376 264.473707 
L 167.080766 264.408491 
L 167.823932 264.551984 
L 168.715731 264.970195 
L 169.904797 265.817797 
L 173.917893 268.905193 
L 175.552858 269.773879 
L 177.26214 270.427412 
L 179.045738 270.867225 
L 180.97797 271.107731 
L 182.910202 271.128616 
L 184.91675 270.922501 
L 186.700348 270.526325 
L 188.40963 269.923552 
L 190.044595 269.117969 
L 191.605244 268.101857 
L 193.537475 266.546259 
L 195.692657 264.838062 
L 196.658773 264.344695 
L 197.476255 264.172313 
L 198.219421 264.238366 
L 199.036904 264.54459 
L 200.00302 265.154724 
L 201.712302 266.554723 
L 203.867483 268.247285 
L 205.502448 269.238215 
L 207.137413 269.967601 
L 208.846695 270.485521 
L 210.630294 270.794442 
L 212.488209 270.898934 
L 214.42044 270.780362 
L 216.278355 270.442697 
L 217.987637 269.903921 
L 219.622602 269.158379 
L 221.183251 268.203063 
L 222.892533 266.877546 
L 225.939513 264.438125 
L 226.831312 264.034342 
L 227.574478 263.915809 
L 228.317644 264.014591 
L 229.135127 264.356662 
L 230.175559 265.059145 
L 232.479374 266.998131 
L 234.262972 268.324215 
L 235.823621 269.21341 
L 237.458586 269.888746 
L 239.167868 270.346732 
L 240.951466 270.59204 
L 242.809381 270.61937 
L 244.667296 270.418289 
L 246.376578 270.016152 
L 248.011543 269.404822 
L 249.572192 268.590477 
L 251.132841 267.519799 
L 253.065072 265.895704 
L 254.997304 264.328514 
L 255.96342 263.820583 
L 256.780902 263.6464 
L 257.524068 263.720109 
L 258.341551 264.043343 
L 259.307667 264.680187 
L 261.091265 266.191007 
L 263.097813 267.798656 
L 264.658462 268.768266 
L 266.219111 269.48246 
L 267.854076 269.985103 
L 269.563358 270.275813 
L 271.346956 270.351181 
L 273.130554 270.200255 
L 274.839836 269.834528 
L 276.474801 269.25112 
L 278.03545 268.45628 
L 279.596099 267.399805 
L 281.454014 265.836087 
L 283.609195 264.043067 
L 284.575311 263.528806 
L 285.318477 263.360165 
L 286.061643 263.417326 
L 286.879125 263.729924 
L 287.845241 264.365139 
L 289.554523 265.828198 
L 291.635388 267.527755 
L 293.196036 268.510887 
L 294.756685 269.229083 
L 296.317334 269.707613 
L 297.952299 269.982778 
L 299.661581 270.046186 
L 301.370862 269.885803 
L 303.005828 269.51373 
L 304.566476 268.931461 
L 306.127125 268.102778 
L 307.613457 267.060451 
L 309.471372 265.457484 
L 311.552237 263.70934 
L 312.518352 263.200542 
L 313.261518 263.044537 
L 314.004684 263.120122 
L 314.822167 263.456237 
L 315.788283 264.118068 
L 317.571881 265.679142 
L 319.504113 267.267181 
L 321.064762 268.256502 
L 322.551094 268.94236 
L 324.111742 269.417191 
L 325.746707 269.676155 
L 327.381673 269.710687 
L 329.016638 269.524475 
L 330.577286 269.129458 
L 332.063618 268.530761 
L 333.54995 267.693061 
L 335.036282 266.597797 
L 337.042831 264.801852 
L 338.752112 263.368649 
L 339.643912 262.884701 
L 340.387078 262.71088 
L 341.130244 262.77396 
L 341.87341 263.064176 
L 342.839525 263.710686 
L 344.474491 265.150524 
L 346.555355 266.912029 
L 348.041687 267.883897 
L 349.528019 268.593415 
L 351.014351 269.060913 
L 352.575 269.319008 
L 354.135649 269.356171 
L 355.696297 269.176112 
L 357.256946 268.767748 
L 358.743278 268.141545 
L 360.22961 267.26135 
L 361.715942 266.113459 
L 364.094073 263.92126 
L 365.431772 262.863002 
L 366.323571 262.441971 
L 367.066737 262.340035 
L 367.809903 262.482003 
L 368.627386 262.893038 
L 369.667818 263.6939 
L 373.903864 267.247105 
L 375.390196 268.051505 
L 376.876528 268.592711 
L 378.36286 268.89583 
L 379.849192 268.979816 
L 381.335524 268.850117 
L 382.821856 268.500771 
L 384.233872 267.945463 
L 385.645887 267.152102 
L 387.057903 266.106542 
L 388.841501 264.47844 
L 390.848049 262.677141 
L 391.739848 262.152067 
L 392.483014 261.952633 
L 393.151864 261.986272 
L 393.89503 262.254589 
L 394.786829 262.840007 
L 396.124528 264.027208 
L 398.576976 266.207216 
L 400.063308 267.204794 
L 401.475323 267.884601 
L 402.887338 268.320082 
L 404.299354 268.532341 
L 405.785686 268.526825 
L 407.197701 268.305403 
L 408.609717 267.861902 
L 410.021732 267.175556 
L 411.433747 266.228688 
L 412.920079 264.954313 
L 416.264326 261.945453 
L 417.081809 261.583058 
L 417.750658 261.50699 
L 418.419508 261.640539 
L 419.162674 262.012838 
L 420.12879 262.759739 
L 424.662102 266.643295 
L 425.999801 267.342874 
L 427.3375 267.804435 
L 428.749515 268.053266 
L 430.161531 268.070745 
L 431.573546 267.859335 
L 432.911245 267.438592 
L 434.248944 266.785005 
L 435.586643 265.883604 
L 437.072975 264.596093 
L 440.491538 261.453271 
L 441.309021 261.094576 
L 441.97787 261.030284 
L 442.64672 261.181963 
L 443.389886 261.578517 
L 444.430318 262.424712 
L 448.369098 265.9397 
L 449.706797 266.716587 
L 451.044495 267.23611 
L 452.382194 267.514918 
L 453.719893 267.565487 
L 455.057592 267.39102 
L 456.395291 266.984485 
L 457.658673 266.372033 
L 458.996372 265.467176 
L 460.408387 264.230547 
L 464.0499 260.840355 
L 464.793066 260.542051 
L 465.461916 260.503025 
L 466.130765 260.686448 
L 466.873931 261.120191 
L 467.914364 262.011324 
L 471.48156 265.29628 
L 472.819259 266.11976 
L 474.082641 266.642785 
L 475.346024 266.931026 
L 476.609406 266.994954 
L 477.872788 266.837611 
L 479.13617 266.45316 
L 480.399552 265.827722 
L 481.662935 264.949965 
L 483.07495 263.679095 
L 486.642147 260.256909 
L 487.385313 259.946134 
L 488.054162 259.904532 
L 488.723012 260.093829 
L 489.466178 260.542102 
L 490.50661 261.460453 
L 493.850857 264.630465 
L 495.114239 265.447113 
L 496.377622 265.996635 
L 497.566687 266.279406 
L 498.755753 266.343247 
L 499.944818 266.190536 
L 501.133884 265.816919 
L 502.32295 265.211563 
L 503.586332 264.304215 
L 504.924031 263.058069 
L 508.416911 259.595456 
L 509.160077 259.271403 
L 509.828926 259.22797 
L 510.497776 259.424928 
L 511.240942 259.890134 
L 512.281374 260.838715 
L 515.476988 263.944933 
L 516.74037 264.778986 
L 517.929436 265.297667 
L 519.118501 265.565683 
L 520.23325 265.595978 
L 521.347999 265.41444 
L 522.462748 265.016904 
L 523.651814 264.344522 
L 524.840879 263.410293 
L 526.252895 261.991921 
L 529.076926 259.026074 
L 529.820092 258.589248 
L 530.488941 258.443474 
L 531.083474 258.527295 
L 531.752323 258.847199 
L 532.569806 259.496183 
L 533.981821 260.960593 
L 535.839736 262.8195 
L 537.103118 263.765416 
L 538.217867 264.336493 
L 539.332616 264.658786 
L 540.447365 264.74165 
L 541.562114 264.593175 
L 542.676863 264.207224 
L 543.791613 263.574966 
L 544.980678 262.632103 
L 546.24406 261.336935 
L 549.216724 258.070844 
L 549.95989 257.662708 
L 550.554423 257.557778 
L 551.148956 257.661375 
L 551.817805 257.998756 
L 552.709605 258.722373 
L 554.047303 260.14335 
L 555.830902 261.988084 
L 557.019967 262.890807 
L 558.134716 263.452503 
L 559.175149 263.725514 
L 560.215581 263.757368 
L 561.181697 263.56895 
L 562.222129 263.141319 
L 563.336878 262.427642 
L 564.451627 261.437716 
L 565.789326 259.935833 
L 568.167457 257.20131 
L 568.910623 256.685285 
L 569.579473 256.489015 
L 570.174006 256.549815 
L 570.842855 256.869684 
L 571.660338 257.551931 
L 573.072353 259.106384 
L 574.781635 260.889328 
L 575.896384 261.746025 
L 576.936816 262.274896 
L 577.902932 262.525526 
L 578.869048 262.544635 
L 579.835164 262.331289 
L 580.801279 261.883389 
L 581.841712 261.140734 
L 582.956461 260.050674 
L 584.368476 258.324546 
L 586.226391 256.069733 
L 587.043874 255.434614 
L 587.638407 255.220968 
L 588.232939 255.2433 
L 588.827472 255.493848 
L 589.570638 256.074005 
L 590.685387 257.281291 
L 592.766252 259.550206 
L 593.881001 260.410308 
L 594.847117 260.882167 
L 595.738916 261.082863 
L 596.630715 261.055925 
L 597.522514 260.799542 
L 598.414314 260.312016 
L 599.380429 259.526871 
L 600.495179 258.306959 
L 602.130144 256.113997 
L 603.467843 254.45466 
L 604.211009 253.851365 
L 604.805541 253.624377 
L 605.400074 253.650821 
L 605.994607 253.92037 
L 606.737773 254.536512 
L 607.926839 255.882391 
L 609.63612 257.780568 
L 610.676553 258.609746 
L 611.568352 259.053661 
L 612.385835 259.230548 
L 613.203317 259.182646 
L 614.0208 258.907902 
L 614.838282 258.406533 
L 615.730082 257.603351 
L 616.770514 256.356012 
L 618.479796 253.872117 
L 619.668861 252.334672 
L 620.412027 251.731621 
L 621.00656 251.535652 
L 621.526776 251.589274 
L 622.121309 251.891552 
L 622.864475 252.555084 
L 624.276491 254.218543 
L 625.614189 255.657363 
L 626.580305 256.374972 
L 627.397788 256.707041 
L 628.140954 256.769793 
L 628.88412 256.607765 
L 629.627286 256.218511 
L 630.444768 255.529985 
L 631.336568 254.483596 
L 632.525633 252.705528 
L 634.532181 249.636907 
L 635.275347 248.934496 
L 635.86988 248.686803 
L 636.390096 248.718235 
L 636.984629 249.016304 
L 637.727795 249.672991 
L 639.437077 251.628416 
L 640.477509 252.593498 
L 641.294992 253.057591 
L 641.963841 253.195627 
L 642.632691 253.1107 
L 643.30154 252.796967 
L 644.044706 252.179328 
L 644.862189 251.183368 
L 645.828305 249.62409 
L 648.578019 244.901932 
L 649.172552 244.389528 
L 649.692768 244.213659 
L 650.212984 244.287627 
L 650.807517 244.62962 
L 651.699316 245.446156 
L 653.259965 246.89577 
L 653.928814 247.232559 
L 654.523347 247.317773 
L 655.11788 247.178093 
L 655.712412 246.794032 
L 656.381262 246.054776 
L 657.124428 244.873991 
L 658.016227 243.002751 
L 661.063208 236.05508 
L 661.732057 235.316893 
L 662.32659 234.964064 
L 663.292706 234.810588 
L 664.333138 234.559273 
L 664.927671 234.280811 
L 666.26537 231.619529 
L 667.082852 228.85554 
L 668.569184 220.599928 
L 669.163717 215.844481 
L 669.906883 208.397635 
L 670.575733 199.317345 
L 671.095949 189.197806 
L 671.541848 176.339277 
L 671.913431 158.25311 
L 672.285014 128.18078 
L 673.325447 30.339149 
L 673.622713 23.647767 
L 673.91998 21.157904 
L 674.217246 20.272003 
L 674.514512 19.961863 
L 674.960412 19.830306 
L 675.629261 19.8 
L 675.629261 19.8 
" clip-path="url(#pe7c1b3285b)" style="fill: none; stroke: #1f77b4; stroke-width: 1.5; stroke-linecap: square"/>
   </g>
   <g id="line2d_15">
    <path d="M 36.465625 215.076831 
L 706.065625 215.076831 
" clip-path="url(#pe7c1b3285b)" style="fill: none; stroke-dasharray: 2.22,0.96; stroke-dashoffset: 0; stroke: #ff0000; stroke-width: 0.6"/>
   </g>
   <g id="line2d_16">
    <path d="M 66.901989 267.12944 
L 67.273572 266.859711 
L 68.982853 265.624149 
L 69.948969 265.181549 
L 70.766452 265.040893 
L 71.583934 265.140194 
L 72.475734 265.50233 
L 73.590483 266.228741 
L 78.569695 269.816683 
L 80.278977 270.598221 
L 82.136892 271.199706 
L 84.069123 271.586328 
L 86.224305 271.783798 
L 88.379486 271.756432 
L 90.534668 271.509479 
L 92.466899 271.067252 
L 94.324814 270.410831 
L 96.034096 269.573756 
L 97.669061 268.51476 
L 99.824243 266.815186 
L 101.682158 265.439601 
L 102.648273 264.98805 
L 103.465756 264.842904 
L 104.208922 264.922649 
L 105.026405 265.229896 
L 106.066837 265.877946 
L 107.999069 267.417169 
L 110.079933 268.959788 
L 111.714899 269.892276 
L 113.42418 270.612885 
L 115.207779 271.13257 
L 117.14001 271.462346 
L 119.220875 271.594083 
L 121.30174 271.503758 
L 123.382605 271.191109 
L 125.24052 270.682221 
L 127.024118 269.963082 
L 128.659083 269.064423 
L 130.368365 267.849506 
L 134.232828 264.957955 
L 135.124628 264.667814 
L 135.867794 264.644431 
L 136.685276 264.852928 
L 137.577075 265.320134 
L 138.840458 266.255827 
L 142.184705 268.842211 
L 143.81967 269.76771 
L 145.528952 270.477705 
L 147.31255 270.978705 
L 149.244782 271.283403 
L 151.25133 271.378059 
L 153.257878 271.253571 
L 155.19011 270.921449 
L 156.973708 270.39077 
L 158.68299 269.655963 
L 160.243639 268.753655 
L 161.95292 267.493656 
L 165.445801 264.812868 
L 166.3376 264.473707 
L 167.080766 264.408491 
L 167.823932 264.551984 
L 168.715731 264.970195 
L 169.904797 265.817797 
L 173.917893 268.905193 
L 175.552858 269.773879 
L 177.26214 270.427412 
L 179.045738 270.867225 
L 180.97797 271.107731 
L 182.910202 271.128616 
L 184.91675 270.922501 
L 186.700348 270.526325 
L 188.40963 269.923552 
L 190.044595 269.117969 
L 191.605244 268.101857 
L 193.537475 266.546259 
L 195.692657 264.838062 
L 196.658773 264.344695 
L 197.476255 264.172313 
L 198.219421 264.238366 
L 199.036904 264.54459 
L 200.00302 265.154724 
L 201.712302 266.554723 
L 203.867483 268.247285 
L 205.502448 269.238215 
L 207.137413 269.967601 
L 208.846695 270.485521 
L 210.630294 270.794442 
L 212.488209 270.898934 
L 214.42044 270.780362 
L 216.278355 270.442697 
L 217.987637 269.903921 
L 219.622602 269.158379 
L 221.183251 268.203063 
L 222.892533 266.877546 
L 225.939513 264.438125 
L 226.831312 264.034342 
L 227.574478 263.915809 
L 228.317644 264.014591 
L 229.135127 264.356662 
L 230.175559 265.059145 
L 232.479374 266.998131 
L 234.262972 268.324215 
L 235.823621 269.21341 
L 237.458586 269.888746 
L 239.167868 270.346732 
L 240.951466 270.59204 
L 242.809381 270.61937 
L 244.667296 270.418289 
L 246.376578 270.016152 
L 248.011543 269.404822 
L 249.572192 268.590477 
L 251.132841 267.519799 
L 253.065072 265.895704 
L 254.997304 264.328514 
L 255.96342 263.820583 
L 256.780902 263.6464 
L 257.524068 263.720109 
L 258.341551 264.043343 
L 259.307667 264.680187 
L 261.091265 266.191007 
L 263.097813 267.798656 
L 264.658462 268.768266 
L 266.219111 269.48246 
L 267.854076 269.985103 
L 269.563358 270.275813 
L 271.346956 270.351181 
L 273.130554 270.200255 
L 274.839836 269.834528 
L 276.474801 269.25112 
L 278.03545 268.45628 
L 279.596099 267.399805 
L 281.454014 265.836087 
L 283.609195 264.043067 
L 284.575311 263.528806 
L 285.318477 263.360165 
L 286.061643 263.417326 
L 286.879125 263.729924 
L 287.845241 264.365139 
L 289.554523 265.828198 
L 291.635388 267.527755 
L 293.196036 268.510887 
L 294.756685 269.229083 
L 296.317334 269.707613 
L 297.952299 269.982778 
L 299.661581 270.046186 
L 301.370862 269.885803 
L 303.005828 269.51373 
L 304.566476 268.931461 
L 306.127125 268.102778 
L 307.613457 267.060451 
L 309.471372 265.457484 
L 311.552237 263.70934 
L 312.518352 263.200542 
L 313.261518 263.044537 
L 314.004684 263.120122 
L 314.822167 263.456237 
L 315.788283 264.118068 
L 317.571881 265.679142 
L 319.504113 267.267181 
L 321.064762 268.256502 
L 322.551094 268.94236 
L 324.111742 269.417191 
L 325.746707 269.676155 
L 327.381673 269.710687 
L 329.016638 269.524475 
L 330.577286 269.129458 
L 332.063618 268.530761 
L 333.54995 267.693061 
L 335.036282 266.597797 
L 337.042831 264.801852 
L 338.752112 263.368649 
L 339.643912 262.884701 
L 340.387078 262.71088 
L 341.130244 262.77396 
L 341.87341 263.064176 
L 342.839525 263.710686 
L 344.474491 265.150524 
L 346.555355 266.912029 
L 348.041687 267.883897 
L 349.528019 268.593415 
L 351.014351 269.060913 
L 352.575 269.319008 
L 354.135649 269.356171 
L 355.696297 269.176112 
L 357.256946 268.767748 
L 358.743278 268.141545 
L 360.22961 267.26135 
L 361.715942 266.113459 
L 364.094073 263.92126 
L 365.431772 262.863002 
L 366.323571 262.441971 
L 367.066737 262.340035 
L 367.809903 262.482003 
L 368.627386 262.893038 
L 369.667818 263.6939 
L 373.903864 267.247105 
L 375.390196 268.051505 
L 376.876528 268.592711 
L 378.36286 268.89583 
L 379.849192 268.979816 
L 381.335524 268.850117 
L 382.821856 268.500771 
L 384.233872 267.945463 
L 385.645887 267.152102 
L 387.057903 266.106542 
L 388.841501 264.47844 
L 390.848049 262.677141 
L 391.739848 262.152067 
L 392.483014 261.952633 
L 393.151864 261.986272 
L 393.89503 262.254589 
L 394.786829 262.840007 
L 396.124528 264.027208 
L 398.576976 266.207216 
L 400.063308 267.204794 
L 401.475323 267.884601 
L 402.887338 268.320082 
L 404.299354 268.532341 
L 405.785686 268.526825 
L 407.197701 268.305403 
L 408.609717 267.861902 
L 410.021732 267.175556 
L 411.433747 266.228688 
L 412.920079 264.954313 
L 416.264326 261.945453 
L 417.081809 261.583058 
L 417.750658 261.50699 
L 418.419508 261.640539 
L 419.162674 262.012838 
L 420.12879 262.759739 
L 424.662102 266.643295 
L 425.999801 267.342874 
L 427.3375 267.804435 
L 428.749515 268.053266 
L 430.161531 268.070745 
L 431.573546 267.859335 
L 432.911245 267.438592 
L 434.248944 266.785005 
L 435.586643 265.883604 
L 437.072975 264.596093 
L 440.491538 261.453271 
L 441.309021 261.094576 
L 441.97787 261.030284 
L 442.64672 261.181963 
L 443.389886 261.578517 
L 444.430318 262.424712 
L 448.369098 265.9397 
L 449.706797 266.716587 
L 451.044495 267.23611 
L 452.382194 267.514918 
L 453.719893 267.565487 
L 455.057592 267.39102 
L 456.395291 266.984485 
L 457.658673 266.372033 
L 458.996372 265.467176 
L 460.408387 264.230547 
L 464.0499 260.840355 
L 464.793066 260.542051 
L 465.461916 260.503025 
L 466.130765 260.686448 
L 466.873931 261.120191 
L 467.914364 262.011324 
L 471.48156 265.29628 
L 472.819259 266.11976 
L 474.082641 266.642785 
L 475.346024 266.931026 
L 476.609406 266.994954 
L 477.872788 266.837611 
L 479.13617 266.45316 
L 480.399552 265.827722 
L 481.662935 264.949965 
L 483.07495 263.679095 
L 486.642147 260.256909 
L 487.385313 259.946134 
L 488.054162 259.904532 
L 488.723012 260.093829 
L 489.466178 260.542102 
L 490.50661 261.460453 
L 493.850857 264.630465 
L 495.114239 265.447113 
L 496.377622 265.996635 
L 497.566687 266.279406 
L 498.755753 266.343247 
L 499.944818 266.190536 
L 501.133884 265.816919 
L 502.32295 265.211563 
L 503.586332 264.304215 
L 504.924031 263.058069 
L 508.416911 259.595456 
L 509.160077 259.271403 
L 509.828926 259.22797 
L 510.497776 259.424928 
L 511.240942 259.890134 
L 512.281374 260.838715 
L 515.476988 263.944933 
L 516.74037 264.778986 
L 517.929436 265.297667 
L 519.118501 265.565683 
L 520.23325 265.595978 
L 521.347999 265.41444 
L 522.462748 265.016904 
L 523.651814 264.344522 
L 524.840879 263.410293 
L 526.252895 261.991921 
L 529.076926 259.026074 
L 529.820092 258.589248 
L 530.488941 258.443474 
L 531.083474 258.527295 
L 531.752323 258.847199 
L 532.569806 259.496183 
L 533.981821 260.960593 
L 535.839736 262.8195 
L 537.103118 263.765416 
L 538.217867 264.336493 
L 539.332616 264.658786 
L 540.447365 264.74165 
L 541.562114 264.593175 
L 542.676863 264.207224 
L 543.791613 263.574966 
L 544.980678 262.632103 
L 546.24406 261.336935 
L 549.216724 258.070844 
L 549.95989 257.662708 
L 550.554423 257.557778 
L 551.148956 257.661375 
L 551.817805 257.998756 
L 552.709605 258.722373 
L 554.047303 260.14335 
L 555.830902 261.988084 
L 557.019967 262.890807 
L 558.134716 263.452503 
L 559.175149 263.725514 
L 560.215581 263.757368 
L 561.181697 263.56895 
L 562.222129 263.141319 
L 563.336878 262.427642 
L 564.451627 261.437716 
L 565.789326 259.935833 
L 568.167457 257.20131 
L 568.910623 256.685285 
L 569.579473 256.489015 
L 570.174006 256.549815 
L 570.842855 256.869684 
L 571.660338 257.551931 
L 573.072353 259.106384 
L 574.781635 260.889328 
L 575.896384 261.746025 
L 576.936816 262.274896 
L 577.902932 262.525526 
L 578.869048 262.544635 
L 579.835164 262.331289 
L 580.801279 261.883389 
L 581.841712 261.140734 
L 582.956461 260.050674 
L 584.368476 258.324546 
L 586.226391 256.069733 
L 587.043874 255.434614 
L 587.638407 255.220968 
L 588.232939 255.2433 
L 588.827472 255.493848 
L 589.570638 256.074005 
L 590.685387 257.281291 
L 592.766252 259.550206 
L 593.881001 260.410308 
L 594.847117 260.882167 
L 595.738916 261.082863 
L 596.630715 261.055925 
L 597.522514 260.799542 
L 598.414314 260.312016 
L 599.380429 259.526871 
L 600.495179 258.306959 
L 602.130144 256.113997 
L 603.467843 254.45466 
L 604.211009 253.851365 
L 604.805541 253.624377 
L 605.400074 253.650821 
L 605.994607 253.92037 
L 606.737773 254.536512 
L 607.926839 255.882391 
L 609.63612 257.780568 
L 610.676553 258.609746 
L 611.568352 259.053661 
L 612.385835 259.230548 
L 613.203317 259.182646 
L 614.0208 258.907902 
L 614.838282 258.406533 
L 615.730082 257.603351 
L 616.770514 256.356012 
L 618.479796 253.872117 
L 619.668861 252.334672 
L 620.412027 251.731621 
L 621.00656 251.535652 
L 621.526776 251.589274 
L 622.121309 251.891552 
L 622.864475 252.555084 
L 624.276491 254.218543 
L 625.614189 255.657363 
L 626.580305 256.374972 
L 627.397788 256.707041 
L 628.140954 256.769793 
L 628.88412 256.607765 
L 629.627286 256.218511 
L 630.444768 255.529985 
L 631.336568 254.483596 
L 632.525633 252.705528 
L 634.532181 249.636907 
L 635.275347 248.934496 
L 635.86988 248.686803 
L 636.390096 248.718235 
L 636.984629 249.016304 
L 637.727795 249.672991 
L 639.437077 251.628416 
L 640.477509 252.593498 
L 641.294992 253.057591 
L 641.963841 253.195627 
L 642.632691 253.1107 
L 643.30154 252.796967 
L 644.044706 252.179328 
L 644.862189 251.183368 
L 645.828305 249.62409 
L 648.578019 244.901932 
L 649.172552 244.389528 
L 649.692768 244.213659 
L 650.212984 244.287627 
L 650.807517 244.62962 
L 651.699316 245.446156 
L 653.259965 246.89577 
L 653.928814 247.232559 
L 654.523347 247.317773 
L 655.11788 247.178093 
L 655.712412 246.794032 
L 656.381262 246.054776 
L 657.124428 244.873991 
L 658.016227 243.002751 
L 661.063208 236.05508 
L 661.732057 235.316893 
L 662.32659 234.964064 
L 663.292706 234.810588 
L 664.333138 234.559273 
L 664.927671 234.280811 
L 666.26537 231.619529 
L 667.082852 228.85554 
L 668.569184 220.599928 
L 669.163717 215.844481 
L 669.238034 215.191668 
L 669.238034 215.191668 
" clip-path="url(#pe7c1b3285b)" style="fill: none; stroke: #ff7f0e; stroke-width: 1.5; stroke-linecap: square"/>
   </g>
   <g id="patch_3">
    <path d="M 36.465625 284.4 
L 36.465625 7.2 
" style="fill: none; stroke: #000000; stroke-width: 0.8; stroke-linejoin: miter; stroke-linecap: square"/>
   </g>
   <g id="patch_4">
    <path d="M 706.065625 284.4 
L 706.065625 7.2 
" style="fill: none; stroke: #000000; stroke-width: 0.8; stroke-linejoin: miter; stroke-linecap: square"/>
   </g>
   <g id="patch_5">
    <path d="M 36.465625 284.4 
L 706.065625 284.4 
" style="fill: none; stroke: #000000; stroke-width: 0.8; stroke-linejoin: miter; stroke-linecap: square"/>
   </g>
   <g id="patch_6">
    <path d="M 36.465625 7.2 
L 706.065625 7.2 
" style="fill: none; stroke: #000000; stroke-width: 0.8; stroke-linejoin: miter; stroke-linecap: square"/>
   </g>
   <g id="legend_1">
    <g id="patch_7">
     <path d="M 43.465625 73.9125 
L 212.865625 73.9125 
Q 214.865625 73.9125 214.865625 71.9125 
L 214.865625 14.2 
Q 214.865625 12.2 212.865625 12.2 
L 43.465625 12.2 
Q 41.465625 12.2 41.465625 14.2 
L 41.465625 71.9125 
Q 41.465625 73.9125 43.465625 73.9125 
z
" style="fill: #ffffff; opacity: 0.8; stroke: #cccccc; stroke-linejoin: miter"/>
    </g>
    <g id="line2d_17">
     <path d="M 45.465625 20.298438 
L 55.465625 20.298438 
L 65.465625 20.298438 
" style="fill: none; stroke: #1f77b4; stroke-width: 1.5; stroke-linecap: square"/>
    </g>
    <g id="text_14">
     <!-- Mf before ISCO cut: $e$=0.13 -->
     <g transform="translate(73.465625 23.798438) scale(0.1 -0.1)">
      <defs>
       <path id="DejaVuSans-4d" d="M 628 4666 
L 1569 4666 
L 2759 1491 
L 3956 4666 
L 4897 4666 
L 4897 0 
L 4281 0 
L 4281 4097 
L 3078 897 
L 2444 897 
L 1241 4097 
L 1241 0 
L 628 0 
L 628 4666 
z
" transform="scale(0.015625)"/>
       <path id="DejaVuSans-66" d="M 2375 4863 
L 2375 4384 
L 1825 4384 
Q 1516 4384 1395 4259 
Q 1275 4134 1275 3809 
L 1275 3500 
L 2222 3500 
L 2222 3053 
L 1275 3053 
L 1275 0 
L 697 0 
L 697 3053 
L 147 3053 
L 147 3500 
L 697 3500 
L 697 3744 
Q 697 4328 969 4595 
Q 1241 4863 1831 4863 
L 2375 4863 
z
" transform="scale(0.015625)"/>
       <path id="DejaVuSans-20" transform="scale(0.015625)"/>
       <path id="DejaVuSans-62" d="M 3116 1747 
Q 3116 2381 2855 2742 
Q 2594 3103 2138 3103 
Q 1681 3103 1420 2742 
Q 1159 2381 1159 1747 
Q 1159 1113 1420 752 
Q 1681 391 2138 391 
Q 2594 391 2855 752 
Q 3116 1113 3116 1747 
z
M 1159 2969 
Q 1341 3281 1617 3432 
Q 1894 3584 2278 3584 
Q 2916 3584 3314 3078 
Q 3713 2572 3713 1747 
Q 3713 922 3314 415 
Q 2916 -91 2278 -91 
Q 1894 -91 1617 61 
Q 1341 213 1159 525 
L 1159 0 
L 581 0 
L 581 4863 
L 1159 4863 
L 1159 2969 
z
" transform="scale(0.015625)"/>
       <path id="DejaVuSans-65" d="M 3597 1894 
L 3597 1613 
L 953 1613 
Q 991 1019 1311 708 
Q 1631 397 2203 397 
Q 2534 397 2845 478 
Q 3156 559 3463 722 
L 3463 178 
Q 3153 47 2828 -22 
Q 2503 -91 2169 -91 
Q 1331 -91 842 396 
Q 353 884 353 1716 
Q 353 2575 817 3079 
Q 1281 3584 2069 3584 
Q 2775 3584 3186 3129 
Q 3597 2675 3597 1894 
z
M 3022 2063 
Q 3016 2534 2758 2815 
Q 2500 3097 2075 3097 
Q 1594 3097 1305 2825 
Q 1016 2553 972 2059 
L 3022 2063 
z
" transform="scale(0.015625)"/>
       <path id="DejaVuSans-6f" d="M 1959 3097 
Q 1497 3097 1228 2736 
Q 959 2375 959 1747 
Q 959 1119 1226 758 
Q 1494 397 1959 397 
Q 2419 397 2687 759 
Q 2956 1122 2956 1747 
Q 2956 2369 2687 2733 
Q 2419 3097 1959 3097 
z
M 1959 3584 
Q 2709 3584 3137 3096 
Q 3566 2609 3566 1747 
Q 3566 888 3137 398 
Q 2709 -91 1959 -91 
Q 1206 -91 779 398 
Q 353 888 353 1747 
Q 353 2609 779 3096 
Q 1206 3584 1959 3584 
z
" transform="scale(0.015625)"/>
       <path id="DejaVuSans-72" d="M 2631 2963 
Q 2534 3019 2420 3045 
Q 2306 3072 2169 3072 
Q 1681 3072 1420 2755 
Q 1159 2438 1159 1844 
L 1159 0 
L 581 0 
L 581 3500 
L 1159 3500 
L 1159 2956 
Q 1341 3275 1631 3429 
Q 1922 3584 2338 3584 
Q 2397 3584 2469 3576 
Q 2541 3569 2628 3553 
L 2631 2963 
z
" transform="scale(0.015625)"/>
       <path id="DejaVuSans-49" d="M 628 4666 
L 1259 4666 
L 1259 0 
L 628 0 
L 628 4666 
z
" transform="scale(0.015625)"/>
       <path id="DejaVuSans-53" d="M 3425 4513 
L 3425 3897 
Q 3066 4069 2747 4153 
Q 2428 4238 2131 4238 
Q 1616 4238 1336 4038 
Q 1056 3838 1056 3469 
Q 1056 3159 1242 3001 
Q 1428 2844 1947 2747 
L 2328 2669 
Q 3034 2534 3370 2195 
Q 3706 1856 3706 1288 
Q 3706 609 3251 259 
Q 2797 -91 1919 -91 
Q 1588 -91 1214 -16 
Q 841 59 441 206 
L 441 856 
Q 825 641 1194 531 
Q 1563 422 1919 422 
Q 2459 422 2753 634 
Q 3047 847 3047 1241 
Q 3047 1584 2836 1778 
Q 2625 1972 2144 2069 
L 1759 2144 
Q 1053 2284 737 2584 
Q 422 2884 422 3419 
Q 422 4038 858 4394 
Q 1294 4750 2059 4750 
Q 2388 4750 2728 4690 
Q 3069 4631 3425 4513 
z
" transform="scale(0.015625)"/>
       <path id="DejaVuSans-43" d="M 4122 4306 
L 4122 3641 
Q 3803 3938 3442 4084 
Q 3081 4231 2675 4231 
Q 1875 4231 1450 3742 
Q 1025 3253 1025 2328 
Q 1025 1406 1450 917 
Q 1875 428 2675 428 
Q 3081 428 3442 575 
Q 3803 722 4122 1019 
L 4122 359 
Q 3791 134 3420 21 
Q 3050 -91 2638 -91 
Q 1578 -91 968 557 
Q 359 1206 359 2328 
Q 359 3453 968 4101 
Q 1578 4750 2638 4750 
Q 3056 4750 3426 4639 
Q 3797 4528 4122 4306 
z
" transform="scale(0.015625)"/>
       <path id="DejaVuSans-4f" d="M 2522 4238 
Q 1834 4238 1429 3725 
Q 1025 3213 1025 2328 
Q 1025 1447 1429 934 
Q 1834 422 2522 422 
Q 3209 422 3611 934 
Q 4013 1447 4013 2328 
Q 4013 3213 3611 3725 
Q 3209 4238 2522 4238 
z
M 2522 4750 
Q 3503 4750 4090 4092 
Q 4678 3434 4678 2328 
Q 4678 1225 4090 567 
Q 3503 -91 2522 -91 
Q 1538 -91 948 565 
Q 359 1222 359 2328 
Q 359 3434 948 4092 
Q 1538 4750 2522 4750 
z
" transform="scale(0.015625)"/>
       <path id="DejaVuSans-63" d="M 3122 3366 
L 3122 2828 
Q 2878 2963 2633 3030 
Q 2388 3097 2138 3097 
Q 1578 3097 1268 2742 
Q 959 2388 959 1747 
Q 959 1106 1268 751 
Q 1578 397 2138 397 
Q 2388 397 2633 464 
Q 2878 531 3122 666 
L 3122 134 
Q 2881 22 2623 -34 
Q 2366 -91 2075 -91 
Q 1284 -91 818 406 
Q 353 903 353 1747 
Q 353 2603 823 3093 
Q 1294 3584 2113 3584 
Q 2378 3584 2631 3529 
Q 2884 3475 3122 3366 
z
" transform="scale(0.015625)"/>
       <path id="DejaVuSans-75" d="M 544 1381 
L 544 3500 
L 1119 3500 
L 1119 1403 
Q 1119 906 1312 657 
Q 1506 409 1894 409 
Q 2359 409 2629 706 
Q 2900 1003 2900 1516 
L 2900 3500 
L 3475 3500 
L 3475 0 
L 2900 0 
L 2900 538 
Q 2691 219 2414 64 
Q 2138 -91 1772 -91 
Q 1169 -91 856 284 
Q 544 659 544 1381 
z
M 1991 3584 
L 1991 3584 
z
" transform="scale(0.015625)"/>
       <path id="DejaVuSans-74" d="M 1172 4494 
L 1172 3500 
L 2356 3500 
L 2356 3053 
L 1172 3053 
L 1172 1153 
Q 1172 725 1289 603 
Q 1406 481 1766 481 
L 2356 481 
L 2356 0 
L 1766 0 
Q 1100 0 847 248 
Q 594 497 594 1153 
L 594 3053 
L 172 3053 
L 172 3500 
L 594 3500 
L 594 4494 
L 1172 4494 
z
" transform="scale(0.015625)"/>
       <path id="DejaVuSans-3a" d="M 750 794 
L 1409 794 
L 1409 0 
L 750 0 
L 750 794 
z
M 750 3309 
L 1409 3309 
L 1409 2516 
L 750 2516 
L 750 3309 
z
" transform="scale(0.015625)"/>
       <path id="DejaVuSans-Oblique-65" d="M 3078 2063 
Q 3088 2113 3092 2166 
Q 3097 2219 3097 2272 
Q 3097 2653 2873 2875 
Q 2650 3097 2266 3097 
Q 1838 3097 1509 2826 
Q 1181 2556 1013 2059 
L 3078 2063 
z
M 3578 1613 
L 903 1613 
Q 884 1494 878 1425 
Q 872 1356 872 1306 
Q 872 872 1139 634 
Q 1406 397 1894 397 
Q 2269 397 2603 481 
Q 2938 566 3225 728 
L 3116 159 
Q 2806 34 2476 -28 
Q 2147 -91 1806 -91 
Q 1078 -91 686 257 
Q 294 606 294 1247 
Q 294 1794 489 2264 
Q 684 2734 1063 3103 
Q 1306 3334 1642 3459 
Q 1978 3584 2356 3584 
Q 2950 3584 3301 3228 
Q 3653 2872 3653 2272 
Q 3653 2128 3634 1964 
Q 3616 1800 3578 1613 
z
" transform="scale(0.015625)"/>
       <path id="DejaVuSans-3d" d="M 678 2906 
L 4684 2906 
L 4684 2381 
L 678 2381 
L 678 2906 
z
M 678 1631 
L 4684 1631 
L 4684 1100 
L 678 1100 
L 678 1631 
z
" transform="scale(0.015625)"/>
       <path id="DejaVuSans-33" d="M 2597 2516 
Q 3050 2419 3304 2112 
Q 3559 1806 3559 1356 
Q 3559 666 3084 287 
Q 2609 -91 1734 -91 
Q 1441 -91 1130 -33 
Q 819 25 488 141 
L 488 750 
Q 750 597 1062 519 
Q 1375 441 1716 441 
Q 2309 441 2620 675 
Q 2931 909 2931 1356 
Q 2931 1769 2642 2001 
Q 2353 2234 1838 2234 
L 1294 2234 
L 1294 2753 
L 1863 2753 
Q 2328 2753 2575 2939 
Q 2822 3125 2822 3475 
Q 2822 3834 2567 4026 
Q 2313 4219 1838 4219 
Q 1578 4219 1281 4162 
Q 984 4106 628 3988 
L 628 4550 
Q 988 4650 1302 4700 
Q 1616 4750 1894 4750 
Q 2613 4750 3031 4423 
Q 3450 4097 3450 3541 
Q 3450 3153 3228 2886 
Q 3006 2619 2597 2516 
z
" transform="scale(0.015625)"/>
      </defs>
      <use xlink:href="#DejaVuSans-4d" transform="translate(0 0.015625)"/>
      <use xlink:href="#DejaVuSans-66" transform="translate(86.279297 0.015625)"/>
      <use xlink:href="#DejaVuSans-20" transform="translate(121.484375 0.015625)"/>
      <use xlink:href="#DejaVuSans-62" transform="translate(153.271484 0.015625)"/>
      <use xlink:href="#DejaVuSans-65" transform="translate(216.748047 0.015625)"/>
      <use xlink:href="#DejaVuSans-66" transform="translate(278.271484 0.015625)"/>
      <use xlink:href="#DejaVuSans-6f" transform="translate(313.476562 0.015625)"/>
      <use xlink:href="#DejaVuSans-72" transform="translate(374.658203 0.015625)"/>
      <use xlink:href="#DejaVuSans-65" transform="translate(415.771484 0.015625)"/>
      <use xlink:href="#DejaVuSans-20" transform="translate(477.294922 0.015625)"/>
      <use xlink:href="#DejaVuSans-49" transform="translate(509.082031 0.015625)"/>
      <use xlink:href="#DejaVuSans-53" transform="translate(538.574219 0.015625)"/>
      <use xlink:href="#DejaVuSans-43" transform="translate(602.050781 0.015625)"/>
      <use xlink:href="#DejaVuSans-4f" transform="translate(671.875 0.015625)"/>
      <use xlink:href="#DejaVuSans-20" transform="translate(750.585938 0.015625)"/>
      <use xlink:href="#DejaVuSans-63" transform="translate(782.373047 0.015625)"/>
      <use xlink:href="#DejaVuSans-75" transform="translate(837.353516 0.015625)"/>
      <use xlink:href="#DejaVuSans-74" transform="translate(900.732422 0.015625)"/>
      <use xlink:href="#DejaVuSans-3a" transform="translate(939.941406 0.015625)"/>
      <use xlink:href="#DejaVuSans-20" transform="translate(973.632812 0.015625)"/>
      <use xlink:href="#DejaVuSans-Oblique-65" transform="translate(1005.419922 0.015625)"/>
      <use xlink:href="#DejaVuSans-3d" transform="translate(1066.943359 0.015625)"/>
      <use xlink:href="#DejaVuSans-30" transform="translate(1150.732422 0.015625)"/>
      <use xlink:href="#DejaVuSans-2e" transform="translate(1214.355469 0.015625)"/>
      <use xlink:href="#DejaVuSans-31" transform="translate(1246.142578 0.015625)"/>
      <use xlink:href="#DejaVuSans-33" transform="translate(1309.765625 0.015625)"/>
     </g>
    </g>
    <g id="line2d_18">
     <path d="M 45.465625 34.976563 
L 55.465625 34.976563 
L 65.465625 34.976563 
" style="fill: none; stroke-dasharray: 2.22,0.96; stroke-dashoffset: 0; stroke: #ff0000; stroke-width: 0.6"/>
    </g>
    <g id="text_15">
     <!-- Mf ISCO $e$=0 -->
     <g transform="translate(73.465625 38.476563) scale(0.1 -0.1)">
      <use xlink:href="#DejaVuSans-4d" transform="translate(0 0.015625)"/>
      <use xlink:href="#DejaVuSans-66" transform="translate(86.279297 0.015625)"/>
      <use xlink:href="#DejaVuSans-20" transform="translate(121.484375 0.015625)"/>
      <use xlink:href="#DejaVuSans-49" transform="translate(153.271484 0.015625)"/>
      <use xlink:href="#DejaVuSans-53" transform="translate(182.763672 0.015625)"/>
      <use xlink:href="#DejaVuSans-43" transform="translate(246.240234 0.015625)"/>
      <use xlink:href="#DejaVuSans-4f" transform="translate(316.064453 0.015625)"/>
      <use xlink:href="#DejaVuSans-20" transform="translate(394.775391 0.015625)"/>
      <use xlink:href="#DejaVuSans-Oblique-65" transform="translate(426.5625 0.015625)"/>
      <use xlink:href="#DejaVuSans-3d" transform="translate(488.085938 0.015625)"/>
      <use xlink:href="#DejaVuSans-30" transform="translate(571.875 0.015625)"/>
     </g>
    </g>
    <g id="PathCollection_2">
     <g>
      <use xlink:href="#m1397473e05" x="55.465625" y="50.529688" style="fill: #ff0000; stroke: #ff0000"/>
     </g>
    </g>
    <g id="text_16">
     <!-- ISCO cut -->
     <g transform="translate(73.465625 53.154688) scale(0.1 -0.1)">
      <use xlink:href="#DejaVuSans-49"/>
      <use xlink:href="#DejaVuSans-53" transform="translate(29.492188 0)"/>
      <use xlink:href="#DejaVuSans-43" transform="translate(92.96875 0)"/>
      <use xlink:href="#DejaVuSans-4f" transform="translate(162.792969 0)"/>
      <use xlink:href="#DejaVuSans-20" transform="translate(241.503906 0)"/>
      <use xlink:href="#DejaVuSans-63" transform="translate(273.291016 0)"/>
      <use xlink:href="#DejaVuSans-75" transform="translate(328.271484 0)"/>
      <use xlink:href="#DejaVuSans-74" transform="translate(391.650391 0)"/>
     </g>
    </g>
    <g id="line2d_19">
     <path d="M 45.465625 64.332813 
L 55.465625 64.332813 
L 65.465625 64.332813 
" style="fill: none; stroke: #ff7f0e; stroke-width: 1.5; stroke-linecap: square"/>
    </g>
    <g id="text_17">
     <!-- Mf after ISCO cut: $e$=0.13  -->
     <g transform="translate(73.465625 67.832813) scale(0.1 -0.1)">
      <defs>
       <path id="DejaVuSans-61" d="M 2194 1759 
Q 1497 1759 1228 1600 
Q 959 1441 959 1056 
Q 959 750 1161 570 
Q 1363 391 1709 391 
Q 2188 391 2477 730 
Q 2766 1069 2766 1631 
L 2766 1759 
L 2194 1759 
z
M 3341 1997 
L 3341 0 
L 2766 0 
L 2766 531 
Q 2569 213 2275 61 
Q 1981 -91 1556 -91 
Q 1019 -91 701 211 
Q 384 513 384 1019 
Q 384 1609 779 1909 
Q 1175 2209 1959 2209 
L 2766 2209 
L 2766 2266 
Q 2766 2663 2505 2880 
Q 2244 3097 1772 3097 
Q 1472 3097 1187 3025 
Q 903 2953 641 2809 
L 641 3341 
Q 956 3463 1253 3523 
Q 1550 3584 1831 3584 
Q 2591 3584 2966 3190 
Q 3341 2797 3341 1997 
z
" transform="scale(0.015625)"/>
      </defs>
      <use xlink:href="#DejaVuSans-4d" transform="translate(0 0.015625)"/>
      <use xlink:href="#DejaVuSans-66" transform="translate(86.279297 0.015625)"/>
      <use xlink:href="#DejaVuSans-20" transform="translate(121.484375 0.015625)"/>
      <use xlink:href="#DejaVuSans-61" transform="translate(153.271484 0.015625)"/>
      <use xlink:href="#DejaVuSans-66" transform="translate(214.550781 0.015625)"/>
      <use xlink:href="#DejaVuSans-74" transform="translate(249.755859 0.015625)"/>
      <use xlink:href="#DejaVuSans-65" transform="translate(288.964844 0.015625)"/>
      <use xlink:href="#DejaVuSans-72" transform="translate(350.488281 0.015625)"/>
      <use xlink:href="#DejaVuSans-20" transform="translate(391.601562 0.015625)"/>
      <use xlink:href="#DejaVuSans-49" transform="translate(423.388672 0.015625)"/>
      <use xlink:href="#DejaVuSans-53" transform="translate(452.880859 0.015625)"/>
      <use xlink:href="#DejaVuSans-43" transform="translate(516.357422 0.015625)"/>
      <use xlink:href="#DejaVuSans-4f" transform="translate(586.181641 0.015625)"/>
      <use xlink:href="#DejaVuSans-20" transform="translate(664.892578 0.015625)"/>
      <use xlink:href="#DejaVuSans-63" transform="translate(696.679688 0.015625)"/>
      <use xlink:href="#DejaVuSans-75" transform="translate(751.660156 0.015625)"/>
      <use xlink:href="#DejaVuSans-74" transform="translate(815.039062 0.015625)"/>
      <use xlink:href="#DejaVuSans-3a" transform="translate(854.248047 0.015625)"/>
      <use xlink:href="#DejaVuSans-20" transform="translate(887.939453 0.015625)"/>
      <use xlink:href="#DejaVuSans-Oblique-65" transform="translate(919.726562 0.015625)"/>
      <use xlink:href="#DejaVuSans-3d" transform="translate(981.25 0.015625)"/>
      <use xlink:href="#DejaVuSans-30" transform="translate(1065.039062 0.015625)"/>
      <use xlink:href="#DejaVuSans-2e" transform="translate(1128.662109 0.015625)"/>
      <use xlink:href="#DejaVuSans-31" transform="translate(1160.449219 0.015625)"/>
      <use xlink:href="#DejaVuSans-33" transform="translate(1224.072266 0.015625)"/>
      <use xlink:href="#DejaVuSans-20" transform="translate(1287.695312 0.015625)"/>
     </g>
    </g>
   </g>
  </g>
 </g>
 <defs>
  <clipPath id="pe7c1b3285b">
   <rect x="36.465625" y="7.2" width="669.6" height="277.2"/>
  </clipPath>
 </defs>
</svg>
