<?xml version="1.0" encoding="utf-8" standalone="no"?>
<!DOCTYPE svg PUBLIC "-//W3C//DTD SVG 1.1//EN"
  "http://www.w3.org/Graphics/SVG/1.1/DTD/svg11.dtd">
<svg xmlns:xlink="http://www.w3.org/1999/xlink" width="713.265625pt" height="308.278125pt" viewBox="0 0 713.265625 308.278125" xmlns="http://www.w3.org/2000/svg" version="1.1">
 <metadata>
  <rdf:RDF xmlns:dc="http://purl.org/dc/elements/1.1/" xmlns:cc="http://creativecommons.org/ns#" xmlns:rdf="http://www.w3.org/1999/02/22-rdf-syntax-ns#">
   <cc:Work>
    <dc:type rdf:resource="http://purl.org/dc/dcmitype/StillImage"/>
    <dc:date>2025-07-25T14:55:38.498973</dc:date>
    <dc:format>image/svg+xml</dc:format>
    <dc:creator>
     <cc:Agent>
      <dc:title>Matplotlib v3.10.3, https://matplotlib.org/</dc:title>
     </cc:Agent>
    </dc:creator>
   </cc:Work>
  </rdf:RDF>
 </metadata>
 <defs>
  <style type="text/css">*{stroke-linejoin: round; stroke-linecap: butt}</style>
 </defs>
 <g id="figure_1">
  <g id="patch_1">
   <path d="M 0 308.278125 
L 713.265625 308.278125 
L 713.265625 0 
L 0 0 
z
" style="fill: #ffffff"/>
  </g>
  <g id="axes_1">
   <g id="patch_2">
    <path d="M 36.465625 284.4 
L 706.065625 284.4 
L 706.065625 7.2 
L 36.465625 7.2 
z
" style="fill: #ffffff"/>
   </g>
   <g id="PathCollection_1">
    <defs>
     <path id="m270754d292" d="M 0 1.224745 
C 0.324806 1.224745 0.636353 1.095698 0.866025 0.866025 
C 1.095698 0.636353 1.224745 0.324806 1.224745 0 
C 1.224745 -0.324806 1.095698 -0.636353 0.866025 -0.866025 
C 0.636353 -1.095698 0.324806 -1.224745 0 -1.224745 
C -0.324806 -1.224745 -0.636353 -1.095698 -0.866025 -0.866025 
C -1.095698 -0.636353 -1.224745 -0.324806 -1.224745 0 
C -1.224745 0.324806 -1.095698 0.636353 -0.866025 0.866025 
C -0.636353 1.095698 -0.324806 1.224745 0 1.224745 
z
" style="stroke: #ff0000"/>
    </defs>
    <g clip-path="url(#p0972c39d98)">
     <use xlink:href="#m270754d292" x="669.609617" y="213.984438" style="fill: #ff0000; stroke: #ff0000"/>
    </g>
   </g>
   <g id="matplotlib.axis_1">
    <g id="xtick_1">
     <g id="line2d_1">
      <defs>
       <path id="mdf6f183bee" d="M 0 0 
L 0 3.5 
" style="stroke: #000000; stroke-width: 0.8"/>
      </defs>
      <g>
       <use xlink:href="#mdf6f183bee" x="46.099533" y="284.4" style="stroke: #000000; stroke-width: 0.8"/>
      </g>
     </g>
     <g id="text_1">
      <!-- −14000 -->
      <g transform="translate(26.00344 298.998438) scale(0.1 -0.1)">
       <defs>
        <path id="DejaVuSans-2212" d="M 678 2272 
L 4684 2272 
L 4684 1741 
L 678 1741 
L 678 2272 
z
" transform="scale(0.015625)"/>
        <path id="DejaVuSans-31" d="M 794 531 
L 1825 531 
L 1825 4091 
L 703 3866 
L 703 4441 
L 1819 4666 
L 2450 4666 
L 2450 531 
L 3481 531 
L 3481 0 
L 794 0 
L 794 531 
z
" transform="scale(0.015625)"/>
        <path id="DejaVuSans-34" d="M 2419 4116 
L 825 1625 
L 2419 1625 
L 2419 4116 
z
M 2253 4666 
L 3047 4666 
L 3047 1625 
L 3713 1625 
L 3713 1100 
L 3047 1100 
L 3047 0 
L 2419 0 
L 2419 1100 
L 313 1100 
L 313 1709 
L 2253 4666 
z
" transform="scale(0.015625)"/>
        <path id="DejaVuSans-30" d="M 2034 4250 
Q 1547 4250 1301 3770 
Q 1056 3291 1056 2328 
Q 1056 1369 1301 889 
Q 1547 409 2034 409 
Q 2525 409 2770 889 
Q 3016 1369 3016 2328 
Q 3016 3291 2770 3770 
Q 2525 4250 2034 4250 
z
M 2034 4750 
Q 2819 4750 3233 4129 
Q 3647 3509 3647 2328 
Q 3647 1150 3233 529 
Q 2819 -91 2034 -91 
Q 1250 -91 836 529 
Q 422 1150 422 2328 
Q 422 3509 836 4129 
Q 1250 4750 2034 4750 
z
" transform="scale(0.015625)"/>
       </defs>
       <use xlink:href="#DejaVuSans-2212"/>
       <use xlink:href="#DejaVuSans-31" transform="translate(83.789062 0)"/>
       <use xlink:href="#DejaVuSans-34" transform="translate(147.412109 0)"/>
       <use xlink:href="#DejaVuSans-30" transform="translate(211.035156 0)"/>
       <use xlink:href="#DejaVuSans-30" transform="translate(274.658203 0)"/>
       <use xlink:href="#DejaVuSans-30" transform="translate(338.28125 0)"/>
      </g>
     </g>
    </g>
    <g id="xtick_2">
     <g id="line2d_2">
      <g>
       <use xlink:href="#mdf6f183bee" x="135.57819" y="284.4" style="stroke: #000000; stroke-width: 0.8"/>
      </g>
     </g>
     <g id="text_2">
      <!-- −12000 -->
      <g transform="translate(115.482097 298.998438) scale(0.1 -0.1)">
       <defs>
        <path id="DejaVuSans-32" d="M 1228 531 
L 3431 531 
L 3431 0 
L 469 0 
L 469 531 
Q 828 903 1448 1529 
Q 2069 2156 2228 2338 
Q 2531 2678 2651 2914 
Q 2772 3150 2772 3378 
Q 2772 3750 2511 3984 
Q 2250 4219 1831 4219 
Q 1534 4219 1204 4116 
Q 875 4013 500 3803 
L 500 4441 
Q 881 4594 1212 4672 
Q 1544 4750 1819 4750 
Q 2544 4750 2975 4387 
Q 3406 4025 3406 3419 
Q 3406 3131 3298 2873 
Q 3191 2616 2906 2266 
Q 2828 2175 2409 1742 
Q 1991 1309 1228 531 
z
" transform="scale(0.015625)"/>
       </defs>
       <use xlink:href="#DejaVuSans-2212"/>
       <use xlink:href="#DejaVuSans-31" transform="translate(83.789062 0)"/>
       <use xlink:href="#DejaVuSans-32" transform="translate(147.412109 0)"/>
       <use xlink:href="#DejaVuSans-30" transform="translate(211.035156 0)"/>
       <use xlink:href="#DejaVuSans-30" transform="translate(274.658203 0)"/>
       <use xlink:href="#DejaVuSans-30" transform="translate(338.28125 0)"/>
      </g>
     </g>
    </g>
    <g id="xtick_3">
     <g id="line2d_3">
      <g>
       <use xlink:href="#mdf6f183bee" x="225.056848" y="284.4" style="stroke: #000000; stroke-width: 0.8"/>
      </g>
     </g>
     <g id="text_3">
      <!-- −10000 -->
      <g transform="translate(204.960754 298.998438) scale(0.1 -0.1)">
       <use xlink:href="#DejaVuSans-2212"/>
       <use xlink:href="#DejaVuSans-31" transform="translate(83.789062 0)"/>
       <use xlink:href="#DejaVuSans-30" transform="translate(147.412109 0)"/>
       <use xlink:href="#DejaVuSans-30" transform="translate(211.035156 0)"/>
       <use xlink:href="#DejaVuSans-30" transform="translate(274.658203 0)"/>
       <use xlink:href="#DejaVuSans-30" transform="translate(338.28125 0)"/>
      </g>
     </g>
    </g>
    <g id="xtick_4">
     <g id="line2d_4">
      <g>
       <use xlink:href="#mdf6f183bee" x="314.535505" y="284.4" style="stroke: #000000; stroke-width: 0.8"/>
      </g>
     </g>
     <g id="text_4">
      <!-- −8000 -->
      <g transform="translate(297.620661 298.998438) scale(0.1 -0.1)">
       <defs>
        <path id="DejaVuSans-38" d="M 2034 2216 
Q 1584 2216 1326 1975 
Q 1069 1734 1069 1313 
Q 1069 891 1326 650 
Q 1584 409 2034 409 
Q 2484 409 2743 651 
Q 3003 894 3003 1313 
Q 3003 1734 2745 1975 
Q 2488 2216 2034 2216 
z
M 1403 2484 
Q 997 2584 770 2862 
Q 544 3141 544 3541 
Q 544 4100 942 4425 
Q 1341 4750 2034 4750 
Q 2731 4750 3128 4425 
Q 3525 4100 3525 3541 
Q 3525 3141 3298 2862 
Q 3072 2584 2669 2484 
Q 3125 2378 3379 2068 
Q 3634 1759 3634 1313 
Q 3634 634 3220 271 
Q 2806 -91 2034 -91 
Q 1263 -91 848 271 
Q 434 634 434 1313 
Q 434 1759 690 2068 
Q 947 2378 1403 2484 
z
M 1172 3481 
Q 1172 3119 1398 2916 
Q 1625 2713 2034 2713 
Q 2441 2713 2670 2916 
Q 2900 3119 2900 3481 
Q 2900 3844 2670 4047 
Q 2441 4250 2034 4250 
Q 1625 4250 1398 4047 
Q 1172 3844 1172 3481 
z
" transform="scale(0.015625)"/>
       </defs>
       <use xlink:href="#DejaVuSans-2212"/>
       <use xlink:href="#DejaVuSans-38" transform="translate(83.789062 0)"/>
       <use xlink:href="#DejaVuSans-30" transform="translate(147.412109 0)"/>
       <use xlink:href="#DejaVuSans-30" transform="translate(211.035156 0)"/>
       <use xlink:href="#DejaVuSans-30" transform="translate(274.658203 0)"/>
      </g>
     </g>
    </g>
    <g id="xtick_5">
     <g id="line2d_5">
      <g>
       <use xlink:href="#mdf6f183bee" x="404.014162" y="284.4" style="stroke: #000000; stroke-width: 0.8"/>
      </g>
     </g>
     <g id="text_5">
      <!-- −6000 -->
      <g transform="translate(387.099318 298.998438) scale(0.1 -0.1)">
       <defs>
        <path id="DejaVuSans-36" d="M 2113 2584 
Q 1688 2584 1439 2293 
Q 1191 2003 1191 1497 
Q 1191 994 1439 701 
Q 1688 409 2113 409 
Q 2538 409 2786 701 
Q 3034 994 3034 1497 
Q 3034 2003 2786 2293 
Q 2538 2584 2113 2584 
z
M 3366 4563 
L 3366 3988 
Q 3128 4100 2886 4159 
Q 2644 4219 2406 4219 
Q 1781 4219 1451 3797 
Q 1122 3375 1075 2522 
Q 1259 2794 1537 2939 
Q 1816 3084 2150 3084 
Q 2853 3084 3261 2657 
Q 3669 2231 3669 1497 
Q 3669 778 3244 343 
Q 2819 -91 2113 -91 
Q 1303 -91 875 529 
Q 447 1150 447 2328 
Q 447 3434 972 4092 
Q 1497 4750 2381 4750 
Q 2619 4750 2861 4703 
Q 3103 4656 3366 4563 
z
" transform="scale(0.015625)"/>
       </defs>
       <use xlink:href="#DejaVuSans-2212"/>
       <use xlink:href="#DejaVuSans-36" transform="translate(83.789062 0)"/>
       <use xlink:href="#DejaVuSans-30" transform="translate(147.412109 0)"/>
       <use xlink:href="#DejaVuSans-30" transform="translate(211.035156 0)"/>
       <use xlink:href="#DejaVuSans-30" transform="translate(274.658203 0)"/>
      </g>
     </g>
    </g>
    <g id="xtick_6">
     <g id="line2d_6">
      <g>
       <use xlink:href="#mdf6f183bee" x="493.492819" y="284.4" style="stroke: #000000; stroke-width: 0.8"/>
      </g>
     </g>
     <g id="text_6">
      <!-- −4000 -->
      <g transform="translate(476.577975 298.998438) scale(0.1 -0.1)">
       <use xlink:href="#DejaVuSans-2212"/>
       <use xlink:href="#DejaVuSans-34" transform="translate(83.789062 0)"/>
       <use xlink:href="#DejaVuSans-30" transform="translate(147.412109 0)"/>
       <use xlink:href="#DejaVuSans-30" transform="translate(211.035156 0)"/>
       <use xlink:href="#DejaVuSans-30" transform="translate(274.658203 0)"/>
      </g>
     </g>
    </g>
    <g id="xtick_7">
     <g id="line2d_7">
      <g>
       <use xlink:href="#mdf6f183bee" x="582.971476" y="284.4" style="stroke: #000000; stroke-width: 0.8"/>
      </g>
     </g>
     <g id="text_7">
      <!-- −2000 -->
      <g transform="translate(566.056633 298.998438) scale(0.1 -0.1)">
       <use xlink:href="#DejaVuSans-2212"/>
       <use xlink:href="#DejaVuSans-32" transform="translate(83.789062 0)"/>
       <use xlink:href="#DejaVuSans-30" transform="translate(147.412109 0)"/>
       <use xlink:href="#DejaVuSans-30" transform="translate(211.035156 0)"/>
       <use xlink:href="#DejaVuSans-30" transform="translate(274.658203 0)"/>
      </g>
     </g>
    </g>
    <g id="xtick_8">
     <g id="line2d_8">
      <g>
       <use xlink:href="#mdf6f183bee" x="672.450134" y="284.4" style="stroke: #000000; stroke-width: 0.8"/>
      </g>
     </g>
     <g id="text_8">
      <!-- 0 -->
      <g transform="translate(669.268884 298.998438) scale(0.1 -0.1)">
       <use xlink:href="#DejaVuSans-30"/>
      </g>
     </g>
    </g>
   </g>
   <g id="matplotlib.axis_2">
    <g id="ytick_1">
     <g id="line2d_9">
      <defs>
       <path id="mf21c5407de" d="M 0 0 
L -3.5 0 
" style="stroke: #000000; stroke-width: 0.8"/>
      </defs>
      <g>
       <use xlink:href="#mf21c5407de" x="36.465625" y="277.38536" style="stroke: #000000; stroke-width: 0.8"/>
      </g>
     </g>
     <g id="text_9">
      <!-- 0.00 -->
      <g transform="translate(7.2 281.184579) scale(0.1 -0.1)">
       <defs>
        <path id="DejaVuSans-2e" d="M 684 794 
L 1344 794 
L 1344 0 
L 684 0 
L 684 794 
z
" transform="scale(0.015625)"/>
       </defs>
       <use xlink:href="#DejaVuSans-30"/>
       <use xlink:href="#DejaVuSans-2e" transform="translate(63.623047 0)"/>
       <use xlink:href="#DejaVuSans-30" transform="translate(95.410156 0)"/>
       <use xlink:href="#DejaVuSans-30" transform="translate(159.033203 0)"/>
      </g>
     </g>
    </g>
    <g id="ytick_2">
     <g id="line2d_10">
      <g>
       <use xlink:href="#mf21c5407de" x="36.465625" y="218.901637" style="stroke: #000000; stroke-width: 0.8"/>
      </g>
     </g>
     <g id="text_10">
      <!-- 0.02 -->
      <g transform="translate(7.2 222.700856) scale(0.1 -0.1)">
       <use xlink:href="#DejaVuSans-30"/>
       <use xlink:href="#DejaVuSans-2e" transform="translate(63.623047 0)"/>
       <use xlink:href="#DejaVuSans-30" transform="translate(95.410156 0)"/>
       <use xlink:href="#DejaVuSans-32" transform="translate(159.033203 0)"/>
      </g>
     </g>
    </g>
    <g id="ytick_3">
     <g id="line2d_11">
      <g>
       <use xlink:href="#mf21c5407de" x="36.465625" y="160.417914" style="stroke: #000000; stroke-width: 0.8"/>
      </g>
     </g>
     <g id="text_11">
      <!-- 0.04 -->
      <g transform="translate(7.2 164.217133) scale(0.1 -0.1)">
       <use xlink:href="#DejaVuSans-30"/>
       <use xlink:href="#DejaVuSans-2e" transform="translate(63.623047 0)"/>
       <use xlink:href="#DejaVuSans-30" transform="translate(95.410156 0)"/>
       <use xlink:href="#DejaVuSans-34" transform="translate(159.033203 0)"/>
      </g>
     </g>
    </g>
    <g id="ytick_4">
     <g id="line2d_12">
      <g>
       <use xlink:href="#mf21c5407de" x="36.465625" y="101.934191" style="stroke: #000000; stroke-width: 0.8"/>
      </g>
     </g>
     <g id="text_12">
      <!-- 0.06 -->
      <g transform="translate(7.2 105.73341) scale(0.1 -0.1)">
       <use xlink:href="#DejaVuSans-30"/>
       <use xlink:href="#DejaVuSans-2e" transform="translate(63.623047 0)"/>
       <use xlink:href="#DejaVuSans-30" transform="translate(95.410156 0)"/>
       <use xlink:href="#DejaVuSans-36" transform="translate(159.033203 0)"/>
      </g>
     </g>
    </g>
    <g id="ytick_5">
     <g id="line2d_13">
      <g>
       <use xlink:href="#mf21c5407de" x="36.465625" y="43.450468" style="stroke: #000000; stroke-width: 0.8"/>
      </g>
     </g>
     <g id="text_13">
      <!-- 0.08 -->
      <g transform="translate(7.2 47.249687) scale(0.1 -0.1)">
       <use xlink:href="#DejaVuSans-30"/>
       <use xlink:href="#DejaVuSans-2e" transform="translate(63.623047 0)"/>
       <use xlink:href="#DejaVuSans-30" transform="translate(95.410156 0)"/>
       <use xlink:href="#DejaVuSans-38" transform="translate(159.033203 0)"/>
      </g>
     </g>
    </g>
   </g>
   <g id="line2d_14">
    <path d="M 66.901989 271.611754 
L 72.029834 271.711953 
L 75.522714 271.341047 
L 77.157679 270.832011 
L 80.20466 269.667195 
L 81.319409 268.933186 
L 82.582791 267.814766 
L 84.069123 266.200452 
L 86.001355 263.714315 
L 87.041787 262.543553 
L 87.710637 262.068325 
L 88.30517 261.905032 
L 88.825386 261.980934 
L 89.419919 262.306683 
L 90.163085 263.007445 
L 91.35215 264.506447 
L 93.433015 267.10314 
L 94.770714 268.418951 
L 95.959779 269.297939 
L 97.223162 269.944376 
L 99.45266 270.766831 
L 101.161941 271.221749 
L 102.94554 271.430908 
L 105.99252 271.565973 
L 109.113818 271.348616 
L 110.674466 271.090954 
L 112.383748 270.54041 
L 114.984829 269.500219 
L 116.099578 268.781494 
L 117.288644 267.741622 
L 118.774976 266.128392 
L 120.558574 263.822279 
L 121.74764 262.412071 
L 122.490806 261.853224 
L 123.085338 261.680015 
L 123.605555 261.749955 
L 124.200087 262.072674 
L 124.943253 262.774972 
L 126.132319 264.285411 
L 128.213184 266.911658 
L 129.550883 268.236393 
L 130.739948 269.115007 
L 132.00333 269.77166 
L 134.158512 270.601356 
L 135.793477 271.032768 
L 137.651392 271.258799 
L 140.252473 271.380206 
L 142.853554 271.201675 
L 144.637153 270.942211 
L 146.123485 270.485262 
L 148.724566 269.428824 
L 149.913631 268.696204 
L 151.102697 267.675664 
L 152.514712 266.149012 
L 154.223994 263.936819 
L 155.636009 262.204185 
L 156.379175 261.630982 
L 156.973708 261.448694 
L 157.493924 261.513723 
L 158.088457 261.834775 
L 158.831623 262.540199 
L 160.020689 264.063038 
L 162.101554 266.715673 
L 163.439252 268.045512 
L 164.628318 268.921861 
L 165.966017 269.620787 
L 168.046882 270.431911 
L 169.60753 270.821863 
L 171.688395 271.065207 
L 173.843576 271.137237 
L 176.444657 270.935273 
L 178.079623 270.652993 
L 179.640271 270.136014 
L 181.944086 269.128293 
L 183.133151 268.351738 
L 184.322217 267.285141 
L 185.734232 265.696345 
L 187.740781 263.032257 
L 188.781213 261.832975 
L 189.450062 261.352287 
L 190.044595 261.196227 
L 190.564811 261.287899 
L 191.159344 261.639881 
L 191.90251 262.378827 
L 193.165892 264.036643 
L 195.098124 266.514998 
L 196.361506 267.787004 
L 197.550572 268.681795 
L 198.888271 269.40559 
L 200.820502 270.184959 
L 202.381151 270.582403 
L 204.462016 270.835769 
L 206.468564 270.891375 
L 208.921012 270.683629 
L 210.555977 270.37401 
L 212.116626 269.829159 
L 214.123174 268.901696 
L 215.312239 268.112812 
L 216.501305 267.032061 
L 217.839004 265.504735 
L 219.771235 262.908238 
L 220.885984 261.588992 
L 221.554834 261.095218 
L 222.149367 260.930236 
L 222.669583 261.017514 
L 223.264116 261.368882 
L 224.007282 262.112885 
L 225.270664 263.788234 
L 227.202895 266.295328 
L 228.466278 267.574555 
L 229.655343 268.47251 
L 231.067359 269.245306 
L 232.850957 269.967251 
L 234.337289 270.339279 
L 236.343837 270.588202 
L 238.201752 270.628218 
L 240.505567 270.415427 
L 242.140532 270.077508 
L 243.701181 269.50103 
L 245.559096 268.580053 
L 246.748161 267.743522 
L 247.937227 266.611219 
L 249.349242 264.923673 
L 252.396223 261.07068 
L 252.990756 260.725541 
L 253.510972 260.649282 
L 254.031188 260.792786 
L 254.625721 261.204561 
L 255.368887 262.007731 
L 256.855219 264.042919 
L 258.490184 266.142822 
L 259.753566 267.410123 
L 260.942632 268.296676 
L 262.428964 269.106787 
L 264.063929 269.752641 
L 265.550261 270.103519 
L 267.556809 270.333356 
L 269.340408 270.326519 
L 271.569906 270.06528 
L 273.056238 269.687283 
L 274.616886 269.044146 
L 276.251852 268.143878 
L 277.440917 267.22256 
L 278.629983 265.999525 
L 280.041998 264.209597 
L 282.568763 260.920861 
L 283.237612 260.462579 
L 283.757828 260.344145 
L 284.278044 260.449567 
L 284.872577 260.827779 
L 285.615743 261.608193 
L 286.879125 263.336211 
L 288.73704 265.799435 
L 290.000423 267.097237 
L 291.189488 268.00897 
L 292.601504 268.809083 
L 294.162152 269.445396 
L 295.648484 269.808651 
L 297.580716 270.034496 
L 299.289998 270.017572 
L 301.296546 269.76374 
L 302.782878 269.368695 
L 304.26921 268.731171 
L 305.829858 267.828351 
L 307.018924 266.874208 
L 308.20799 265.61313 
L 309.620005 263.771002 
L 311.92382 260.700822 
L 312.592669 260.187988 
L 313.112885 260.024726 
L 313.633101 260.088793 
L 314.153318 260.372654 
L 314.822167 261.009271 
L 315.8626 262.378261 
L 318.240731 265.605083 
L 319.504113 266.894026 
L 320.767495 267.847826 
L 322.179511 268.632522 
L 323.665843 269.207039 
L 325.226491 269.552313 
L 327.01009 269.719443 
L 328.645055 269.653738 
L 330.50297 269.356867 
L 331.914985 268.90991 
L 333.401317 268.192827 
L 334.813333 267.272055 
L 335.928082 266.283294 
L 337.117147 264.925206 
L 338.677796 262.767026 
L 340.312761 260.547018 
L 341.055927 259.898383 
L 341.65046 259.677091 
L 342.170676 259.73056 
L 342.690892 260.008932 
L 343.359742 260.646161 
L 344.325857 261.921995 
L 346.852622 265.38818 
L 348.041687 266.603999 
L 349.30507 267.57003 
L 350.717085 268.360289 
L 352.1291 268.896412 
L 353.689749 269.231177 
L 355.324714 269.363415 
L 356.959679 269.265967 
L 358.668961 268.941501 
L 360.00666 268.466896 
L 361.418675 267.72728 
L 362.756374 266.780349 
L 363.871123 265.718789 
L 365.134505 264.178918 
L 367.066737 261.382876 
L 368.181486 259.972436 
L 368.850335 259.451091 
L 369.370552 259.291489 
L 369.890768 259.368404 
L 370.410984 259.672713 
L 371.079833 260.34223 
L 372.120266 261.763766 
L 374.424081 264.974157 
L 375.613146 266.22412 
L 376.876528 267.219677 
L 378.214227 267.990409 
L 379.551926 268.513169 
L 381.038258 268.845748 
L 382.598907 268.971716 
L 384.159555 268.867191 
L 385.720204 268.547911 
L 387.057903 268.048732 
L 388.395601 267.310372 
L 389.658984 266.371588 
L 390.773733 265.270068 
L 392.037115 263.677254 
L 395.381362 259.194332 
L 395.975895 258.903503 
L 396.496111 258.903635 
L 397.016327 259.142048 
L 397.61086 259.670486 
L 398.502659 260.819755 
L 401.54964 265.056334 
L 402.738705 266.216911 
L 404.002087 267.135102 
L 405.339786 267.825159 
L 406.677485 268.259294 
L 408.163817 268.501614 
L 409.650149 268.51337 
L 411.136481 268.302393 
L 412.548496 267.880547 
L 413.811879 267.266764 
L 415.075261 266.415365 
L 416.264326 265.343181 
L 417.453392 263.939361 
L 418.939724 261.782583 
L 420.649006 259.328729 
L 421.392172 258.650498 
L 421.912388 258.436886 
L 422.432604 258.469066 
L 422.95282 258.742896 
L 423.62167 259.397337 
L 424.587786 260.729361 
L 427.040233 264.259026 
L 428.229299 265.531792 
L 429.418365 266.489245 
L 430.681747 267.224207 
L 431.945129 267.704976 
L 433.357145 267.993635 
L 434.76916 268.049331 
L 436.181175 267.876859 
L 437.518874 267.499283 
L 438.782256 266.902546 
L 440.045639 266.04691 
L 441.234704 264.96214 
L 442.349453 263.63817 
L 443.761469 261.573521 
L 445.6937 258.750706 
L 446.36255 258.147876 
L 446.882766 257.934118 
L 447.402982 257.972453 
L 447.923198 258.25792 
L 448.592048 258.932491 
L 449.558163 260.29557 
L 451.936295 263.780092 
L 453.12536 265.079851 
L 454.314426 266.053223 
L 455.503491 266.75042 
L 456.766874 267.227224 
L 458.104572 267.483987 
L 459.442271 267.506339 
L 460.77997 267.300211 
L 462.043352 266.884317 
L 463.232418 266.253848 
L 464.421483 265.366811 
L 465.536232 264.261369 
L 466.650981 262.844487 
L 468.137313 260.557089 
L 469.697962 258.248671 
L 470.366811 257.613921 
L 470.887028 257.379267 
L 471.407244 257.403081 
L 471.92746 257.681935 
L 472.521993 258.2696 
L 473.413792 259.513038 
L 476.163506 263.569138 
L 477.352572 264.820384 
L 478.541637 265.739873 
L 479.730703 266.37068 
L 480.919769 266.751813 
L 482.183151 266.920405 
L 483.446533 266.855102 
L 484.709915 266.559444 
L 485.898981 266.045714 
L 487.01373 265.322559 
L 488.128479 264.340382 
L 489.243228 263.05318 
L 490.50661 261.213115 
L 493.033375 257.383946 
L 493.627907 256.896367 
L 494.148124 256.734919 
L 494.594023 256.810307 
L 495.114239 257.137524 
L 495.783089 257.873418 
L 496.823521 259.438718 
L 498.904386 262.609389 
L 500.093452 263.97649 
L 501.208201 264.929453 
L 502.32295 265.599674 
L 503.437699 266.02152 
L 504.626764 266.231229 
L 505.81583 266.205199 
L 507.004895 265.945588 
L 508.119644 265.473752 
L 509.234393 264.74842 
L 510.349142 263.74242 
L 511.463891 262.415309 
L 512.652957 260.636105 
L 515.179721 256.692581 
L 515.774254 256.188266 
L 516.29447 256.020992 
L 516.74037 256.098707 
L 517.260586 256.436544 
L 517.929436 257.195024 
L 518.969868 258.801726 
L 520.976416 261.925876 
L 522.091165 263.247011 
L 523.205914 264.22903 
L 524.246347 264.867275 
L 525.361096 265.287176 
L 526.475845 265.461938 
L 527.590594 265.401289 
L 528.705343 265.105118 
L 529.745775 264.598913 
L 530.786207 263.841754 
L 531.82664 262.808603 
L 532.941389 261.364411 
L 534.204771 259.330558 
L 536.211319 256.070293 
L 536.880169 255.420997 
L 537.400385 255.210278 
L 537.846284 255.258243 
L 538.366501 255.572886 
L 538.961033 256.222705 
L 539.852833 257.574765 
L 542.30528 261.449192 
L 543.42003 262.721672 
L 544.460462 263.585123 
L 545.500894 264.162699 
L 546.541327 264.482394 
L 547.581759 264.560485 
L 548.547875 264.416408 
L 549.513991 264.060419 
L 550.554423 263.432448 
L 551.594856 262.524338 
L 552.635288 261.305668 
L 553.750037 259.64261 
L 556.945651 254.553011 
L 557.465867 254.2612 
L 557.911767 254.251531 
L 558.357666 254.463951 
L 558.877882 254.963458 
L 559.621048 256.029186 
L 562.742346 260.950808 
L 563.782778 262.065896 
L 564.748894 262.805842 
L 565.71501 263.273162 
L 566.681125 263.486334 
L 567.647241 263.458089 
L 568.53904 263.216502 
L 569.505156 262.711499 
L 570.471272 261.94124 
L 571.437388 260.886294 
L 572.47782 259.41389 
L 573.741202 257.197955 
L 575.524801 254.081176 
L 576.19365 253.362607 
L 576.713866 253.122023 
L 577.159766 253.164431 
L 577.605666 253.430952 
L 578.200198 254.08594 
L 579.017681 255.365013 
L 581.544445 259.551505 
L 582.584878 260.754333 
L 583.550994 261.533277 
L 584.442793 261.979445 
L 585.334592 262.179019 
L 586.226391 262.139305 
L 587.11819 261.860393 
L 588.00999 261.333269 
L 588.901789 260.542756 
L 589.867905 259.368657 
L 590.908337 257.725192 
L 592.394669 254.881856 
L 593.583735 252.768397 
L 594.252584 251.997412 
L 594.7728 251.731633 
L 595.2187 251.765656 
L 595.664599 252.035818 
L 596.259132 252.711458 
L 597.076615 254.036859 
L 599.454746 258.092194 
L 600.420862 259.246228 
L 601.312661 259.986123 
L 602.130144 260.398676 
L 602.947626 260.566912 
L 603.765109 260.495095 
L 604.582592 260.182982 
L 605.400074 259.623232 
L 606.217557 258.800722 
L 607.109356 257.590989 
L 608.149788 255.779632 
L 611.048136 250.410884 
L 611.568352 250.023954 
L 612.014252 249.966297 
L 612.460151 250.164827 
L 612.980367 250.68631 
L 613.723533 251.827383 
L 616.621881 256.744765 
L 617.51368 257.675675 
L 618.331163 258.213423 
L 619.074329 258.44504 
L 619.817495 258.435181 
L 620.560661 258.182406 
L 621.303827 257.681721 
L 622.121309 256.83422 
L 623.013108 255.546107 
L 623.979224 253.742902 
L 626.803255 248.118857 
L 627.323471 247.693345 
L 627.769371 247.623412 
L 628.21527 247.827332 
L 628.735487 248.372134 
L 629.478653 249.561935 
L 632.005417 253.979193 
L 632.8229 254.869416 
L 633.566066 255.366031 
L 634.234915 255.55487 
L 634.903764 255.498536 
L 635.572614 255.195841 
L 636.241463 254.647601 
L 636.984629 253.736904 
L 637.802112 252.369634 
L 638.842544 250.136666 
L 641.072042 245.130926 
L 641.592258 244.495865 
L 642.038158 244.26262 
L 642.409741 244.299053 
L 642.855641 244.603652 
L 643.375857 245.258044 
L 644.267656 246.818861 
L 645.828305 249.553844 
L 646.645787 250.535935 
L 647.314637 251.011313 
L 647.909169 251.165996 
L 648.429386 251.09402 
L 649.023918 250.770854 
L 649.618451 250.187172 
L 650.287301 249.209756 
L 651.104783 247.564691 
L 652.145216 244.884081 
L 654.003131 239.960781 
L 654.597663 239.020174 
L 655.043563 238.671564 
L 655.415146 238.623856 
L 655.786729 238.785507 
L 656.306945 239.299917 
L 657.198744 240.618269 
L 658.38781 242.295772 
L 658.982343 242.810095 
L 659.502559 242.998021 
L 659.948459 242.945111 
L 660.468675 242.628975 
L 660.988891 241.993085 
L 661.583424 240.851136 
L 662.32659 238.94456 
L 663.144073 236.074031 
L 664.704721 229.539934 
L 665.670837 225.944968 
L 666.562636 223.615109 
L 667.528752 221.915671 
L 668.197601 220.644101 
L 668.494868 219.817569 
L 668.792134 218.772036 
L 669.386667 215.606282 
L 669.906883 211.335711 
L 670.352783 205.970095 
L 670.798682 198.244043 
L 671.244582 186.691075 
L 671.764798 165.792964 
L 672.136381 141.305199 
L 672.582281 93.984943 
L 673.102497 41.025845 
L 673.399763 27.99167 
L 673.69703 22.756228 
L 673.994296 20.838341 
L 674.291563 20.159848 
L 674.663146 19.893453 
L 675.331995 19.805447 
L 675.629261 19.8 
L 675.629261 19.8 
" clip-path="url(#p0972c39d98)" style="fill: none; stroke: #1f77b4; stroke-width: 1.5; stroke-linecap: square"/>
   </g>
   <g id="line2d_15">
    <path d="M 36.465625 214.052622 
L 706.065625 214.052622 
" clip-path="url(#p0972c39d98)" style="fill: none; stroke-dasharray: 2.22,0.96; stroke-dashoffset: 0; stroke: #ff0000; stroke-width: 0.6"/>
   </g>
   <g id="line2d_16">
    <path d="M 66.901989 271.611754 
L 72.029834 271.711953 
L 75.522714 271.341047 
L 77.157679 270.832011 
L 80.20466 269.667195 
L 81.319409 268.933186 
L 82.582791 267.814766 
L 84.069123 266.200452 
L 86.001355 263.714315 
L 87.041787 262.543553 
L 87.710637 262.068325 
L 88.30517 261.905032 
L 88.825386 261.980934 
L 89.419919 262.306683 
L 90.163085 263.007445 
L 91.35215 264.506447 
L 93.433015 267.10314 
L 94.770714 268.418951 
L 95.959779 269.297939 
L 97.223162 269.944376 
L 99.45266 270.766831 
L 101.161941 271.221749 
L 102.94554 271.430908 
L 105.99252 271.565973 
L 109.113818 271.348616 
L 110.674466 271.090954 
L 112.383748 270.54041 
L 114.984829 269.500219 
L 116.099578 268.781494 
L 117.288644 267.741622 
L 118.774976 266.128392 
L 120.558574 263.822279 
L 121.74764 262.412071 
L 122.490806 261.853224 
L 123.085338 261.680015 
L 123.605555 261.749955 
L 124.200087 262.072674 
L 124.943253 262.774972 
L 126.132319 264.285411 
L 128.213184 266.911658 
L 129.550883 268.236393 
L 130.739948 269.115007 
L 132.00333 269.77166 
L 134.158512 270.601356 
L 135.793477 271.032768 
L 137.651392 271.258799 
L 140.252473 271.380206 
L 142.853554 271.201675 
L 144.637153 270.942211 
L 146.123485 270.485262 
L 148.724566 269.428824 
L 149.913631 268.696204 
L 151.102697 267.675664 
L 152.514712 266.149012 
L 154.223994 263.936819 
L 155.636009 262.204185 
L 156.379175 261.630982 
L 156.973708 261.448694 
L 157.493924 261.513723 
L 158.088457 261.834775 
L 158.831623 262.540199 
L 160.020689 264.063038 
L 162.101554 266.715673 
L 163.439252 268.045512 
L 164.628318 268.921861 
L 165.966017 269.620787 
L 168.046882 270.431911 
L 169.60753 270.821863 
L 171.688395 271.065207 
L 173.843576 271.137237 
L 176.444657 270.935273 
L 178.079623 270.652993 
L 179.640271 270.136014 
L 181.944086 269.128293 
L 183.133151 268.351738 
L 184.322217 267.285141 
L 185.734232 265.696345 
L 187.740781 263.032257 
L 188.781213 261.832975 
L 189.450062 261.352287 
L 190.044595 261.196227 
L 190.564811 261.287899 
L 191.159344 261.639881 
L 191.90251 262.378827 
L 193.165892 264.036643 
L 195.098124 266.514998 
L 196.361506 267.787004 
L 197.550572 268.681795 
L 198.888271 269.40559 
L 200.820502 270.184959 
L 202.381151 270.582403 
L 204.462016 270.835769 
L 206.468564 270.891375 
L 208.921012 270.683629 
L 210.555977 270.37401 
L 212.116626 269.829159 
L 214.123174 268.901696 
L 215.312239 268.112812 
L 216.501305 267.032061 
L 217.839004 265.504735 
L 219.771235 262.908238 
L 220.885984 261.588992 
L 221.554834 261.095218 
L 222.149367 260.930236 
L 222.669583 261.017514 
L 223.264116 261.368882 
L 224.007282 262.112885 
L 225.270664 263.788234 
L 227.202895 266.295328 
L 228.466278 267.574555 
L 229.655343 268.47251 
L 231.067359 269.245306 
L 232.850957 269.967251 
L 234.337289 270.339279 
L 236.343837 270.588202 
L 238.201752 270.628218 
L 240.505567 270.415427 
L 242.140532 270.077508 
L 243.701181 269.50103 
L 245.559096 268.580053 
L 246.748161 267.743522 
L 247.937227 266.611219 
L 249.349242 264.923673 
L 252.396223 261.07068 
L 252.990756 260.725541 
L 253.510972 260.649282 
L 254.031188 260.792786 
L 254.625721 261.204561 
L 255.368887 262.007731 
L 256.855219 264.042919 
L 258.490184 266.142822 
L 259.753566 267.410123 
L 260.942632 268.296676 
L 262.428964 269.106787 
L 264.063929 269.752641 
L 265.550261 270.103519 
L 267.556809 270.333356 
L 269.340408 270.326519 
L 271.569906 270.06528 
L 273.056238 269.687283 
L 274.616886 269.044146 
L 276.251852 268.143878 
L 277.440917 267.22256 
L 278.629983 265.999525 
L 280.041998 264.209597 
L 282.568763 260.920861 
L 283.237612 260.462579 
L 283.757828 260.344145 
L 284.278044 260.449567 
L 284.872577 260.827779 
L 285.615743 261.608193 
L 286.879125 263.336211 
L 288.73704 265.799435 
L 290.000423 267.097237 
L 291.189488 268.00897 
L 292.601504 268.809083 
L 294.162152 269.445396 
L 295.648484 269.808651 
L 297.580716 270.034496 
L 299.289998 270.017572 
L 301.296546 269.76374 
L 302.782878 269.368695 
L 304.26921 268.731171 
L 305.829858 267.828351 
L 307.018924 266.874208 
L 308.20799 265.61313 
L 309.620005 263.771002 
L 311.92382 260.700822 
L 312.592669 260.187988 
L 313.112885 260.024726 
L 313.633101 260.088793 
L 314.153318 260.372654 
L 314.822167 261.009271 
L 315.8626 262.378261 
L 318.240731 265.605083 
L 319.504113 266.894026 
L 320.767495 267.847826 
L 322.179511 268.632522 
L 323.665843 269.207039 
L 325.226491 269.552313 
L 327.01009 269.719443 
L 328.645055 269.653738 
L 330.50297 269.356867 
L 331.914985 268.90991 
L 333.401317 268.192827 
L 334.813333 267.272055 
L 335.928082 266.283294 
L 337.117147 264.925206 
L 338.677796 262.767026 
L 340.312761 260.547018 
L 341.055927 259.898383 
L 341.65046 259.677091 
L 342.170676 259.73056 
L 342.690892 260.008932 
L 343.359742 260.646161 
L 344.325857 261.921995 
L 346.852622 265.38818 
L 348.041687 266.603999 
L 349.30507 267.57003 
L 350.717085 268.360289 
L 352.1291 268.896412 
L 353.689749 269.231177 
L 355.324714 269.363415 
L 356.959679 269.265967 
L 358.668961 268.941501 
L 360.00666 268.466896 
L 361.418675 267.72728 
L 362.756374 266.780349 
L 363.871123 265.718789 
L 365.134505 264.178918 
L 367.066737 261.382876 
L 368.181486 259.972436 
L 368.850335 259.451091 
L 369.370552 259.291489 
L 369.890768 259.368404 
L 370.410984 259.672713 
L 371.079833 260.34223 
L 372.120266 261.763766 
L 374.424081 264.974157 
L 375.613146 266.22412 
L 376.876528 267.219677 
L 378.214227 267.990409 
L 379.551926 268.513169 
L 381.038258 268.845748 
L 382.598907 268.971716 
L 384.159555 268.867191 
L 385.720204 268.547911 
L 387.057903 268.048732 
L 388.395601 267.310372 
L 389.658984 266.371588 
L 390.773733 265.270068 
L 392.037115 263.677254 
L 395.381362 259.194332 
L 395.975895 258.903503 
L 396.496111 258.903635 
L 397.016327 259.142048 
L 397.61086 259.670486 
L 398.502659 260.819755 
L 401.54964 265.056334 
L 402.738705 266.216911 
L 404.002087 267.135102 
L 405.339786 267.825159 
L 406.677485 268.259294 
L 408.163817 268.501614 
L 409.650149 268.51337 
L 411.136481 268.302393 
L 412.548496 267.880547 
L 413.811879 267.266764 
L 415.075261 266.415365 
L 416.264326 265.343181 
L 417.453392 263.939361 
L 418.939724 261.782583 
L 420.649006 259.328729 
L 421.392172 258.650498 
L 421.912388 258.436886 
L 422.432604 258.469066 
L 422.95282 258.742896 
L 423.62167 259.397337 
L 424.587786 260.729361 
L 427.040233 264.259026 
L 428.229299 265.531792 
L 429.418365 266.489245 
L 430.681747 267.224207 
L 431.945129 267.704976 
L 433.357145 267.993635 
L 434.76916 268.049331 
L 436.181175 267.876859 
L 437.518874 267.499283 
L 438.782256 266.902546 
L 440.045639 266.04691 
L 441.234704 264.96214 
L 442.349453 263.63817 
L 443.761469 261.573521 
L 445.6937 258.750706 
L 446.36255 258.147876 
L 446.882766 257.934118 
L 447.402982 257.972453 
L 447.923198 258.25792 
L 448.592048 258.932491 
L 449.558163 260.29557 
L 451.936295 263.780092 
L 453.12536 265.079851 
L 454.314426 266.053223 
L 455.503491 266.75042 
L 456.766874 267.227224 
L 458.104572 267.483987 
L 459.442271 267.506339 
L 460.77997 267.300211 
L 462.043352 266.884317 
L 463.232418 266.253848 
L 464.421483 265.366811 
L 465.536232 264.261369 
L 466.650981 262.844487 
L 468.137313 260.557089 
L 469.697962 258.248671 
L 470.366811 257.613921 
L 470.887028 257.379267 
L 471.407244 257.403081 
L 471.92746 257.681935 
L 472.521993 258.2696 
L 473.413792 259.513038 
L 476.163506 263.569138 
L 477.352572 264.820384 
L 478.541637 265.739873 
L 479.730703 266.37068 
L 480.919769 266.751813 
L 482.183151 266.920405 
L 483.446533 266.855102 
L 484.709915 266.559444 
L 485.898981 266.045714 
L 487.01373 265.322559 
L 488.128479 264.340382 
L 489.243228 263.05318 
L 490.50661 261.213115 
L 493.033375 257.383946 
L 493.627907 256.896367 
L 494.148124 256.734919 
L 494.594023 256.810307 
L 495.114239 257.137524 
L 495.783089 257.873418 
L 496.823521 259.438718 
L 498.904386 262.609389 
L 500.093452 263.97649 
L 501.208201 264.929453 
L 502.32295 265.599674 
L 503.437699 266.02152 
L 504.626764 266.231229 
L 505.81583 266.205199 
L 507.004895 265.945588 
L 508.119644 265.473752 
L 509.234393 264.74842 
L 510.349142 263.74242 
L 511.463891 262.415309 
L 512.652957 260.636105 
L 515.179721 256.692581 
L 515.774254 256.188266 
L 516.29447 256.020992 
L 516.74037 256.098707 
L 517.260586 256.436544 
L 517.929436 257.195024 
L 518.969868 258.801726 
L 520.976416 261.925876 
L 522.091165 263.247011 
L 523.205914 264.22903 
L 524.246347 264.867275 
L 525.361096 265.287176 
L 526.475845 265.461938 
L 527.590594 265.401289 
L 528.705343 265.105118 
L 529.745775 264.598913 
L 530.786207 263.841754 
L 531.82664 262.808603 
L 532.941389 261.364411 
L 534.204771 259.330558 
L 536.211319 256.070293 
L 536.880169 255.420997 
L 537.400385 255.210278 
L 537.846284 255.258243 
L 538.366501 255.572886 
L 538.961033 256.222705 
L 539.852833 257.574765 
L 542.30528 261.449192 
L 543.42003 262.721672 
L 544.460462 263.585123 
L 545.500894 264.162699 
L 546.541327 264.482394 
L 547.581759 264.560485 
L 548.547875 264.416408 
L 549.513991 264.060419 
L 550.554423 263.432448 
L 551.594856 262.524338 
L 552.635288 261.305668 
L 553.750037 259.64261 
L 556.945651 254.553011 
L 557.465867 254.2612 
L 557.911767 254.251531 
L 558.357666 254.463951 
L 558.877882 254.963458 
L 559.621048 256.029186 
L 562.742346 260.950808 
L 563.782778 262.065896 
L 564.748894 262.805842 
L 565.71501 263.273162 
L 566.681125 263.486334 
L 567.647241 263.458089 
L 568.53904 263.216502 
L 569.505156 262.711499 
L 570.471272 261.94124 
L 571.437388 260.886294 
L 572.47782 259.41389 
L 573.741202 257.197955 
L 575.524801 254.081176 
L 576.19365 253.362607 
L 576.713866 253.122023 
L 577.159766 253.164431 
L 577.605666 253.430952 
L 578.200198 254.08594 
L 579.017681 255.365013 
L 581.544445 259.551505 
L 582.584878 260.754333 
L 583.550994 261.533277 
L 584.442793 261.979445 
L 585.334592 262.179019 
L 586.226391 262.139305 
L 587.11819 261.860393 
L 588.00999 261.333269 
L 588.901789 260.542756 
L 589.867905 259.368657 
L 590.908337 257.725192 
L 592.394669 254.881856 
L 593.583735 252.768397 
L 594.252584 251.997412 
L 594.7728 251.731633 
L 595.2187 251.765656 
L 595.664599 252.035818 
L 596.259132 252.711458 
L 597.076615 254.036859 
L 599.454746 258.092194 
L 600.420862 259.246228 
L 601.312661 259.986123 
L 602.130144 260.398676 
L 602.947626 260.566912 
L 603.765109 260.495095 
L 604.582592 260.182982 
L 605.400074 259.623232 
L 606.217557 258.800722 
L 607.109356 257.590989 
L 608.149788 255.779632 
L 611.048136 250.410884 
L 611.568352 250.023954 
L 612.014252 249.966297 
L 612.460151 250.164827 
L 612.980367 250.68631 
L 613.723533 251.827383 
L 616.621881 256.744765 
L 617.51368 257.675675 
L 618.331163 258.213423 
L 619.074329 258.44504 
L 619.817495 258.435181 
L 620.560661 258.182406 
L 621.303827 257.681721 
L 622.121309 256.83422 
L 623.013108 255.546107 
L 623.979224 253.742902 
L 626.803255 248.118857 
L 627.323471 247.693345 
L 627.769371 247.623412 
L 628.21527 247.827332 
L 628.735487 248.372134 
L 629.478653 249.561935 
L 632.005417 253.979193 
L 632.8229 254.869416 
L 633.566066 255.366031 
L 634.234915 255.55487 
L 634.903764 255.498536 
L 635.572614 255.195841 
L 636.241463 254.647601 
L 636.984629 253.736904 
L 637.802112 252.369634 
L 638.842544 250.136666 
L 641.072042 245.130926 
L 641.592258 244.495865 
L 642.038158 244.26262 
L 642.409741 244.299053 
L 642.855641 244.603652 
L 643.375857 245.258044 
L 644.267656 246.818861 
L 645.828305 249.553844 
L 646.645787 250.535935 
L 647.314637 251.011313 
L 647.909169 251.165996 
L 648.429386 251.09402 
L 649.023918 250.770854 
L 649.618451 250.187172 
L 650.287301 249.209756 
L 651.104783 247.564691 
L 652.145216 244.884081 
L 654.003131 239.960781 
L 654.597663 239.020174 
L 655.043563 238.671564 
L 655.415146 238.623856 
L 655.786729 238.785507 
L 656.306945 239.299917 
L 657.198744 240.618269 
L 658.38781 242.295772 
L 658.982343 242.810095 
L 659.502559 242.998021 
L 659.948459 242.945111 
L 660.468675 242.628975 
L 660.988891 241.993085 
L 661.583424 240.851136 
L 662.32659 238.94456 
L 663.144073 236.074031 
L 664.704721 229.539934 
L 665.670837 225.944968 
L 666.562636 223.615109 
L 667.528752 221.915671 
L 668.197601 220.644101 
L 668.494868 219.817569 
L 668.792134 218.772036 
L 669.386667 215.606282 
L 669.5353 214.556486 
L 669.5353 214.556486 
" clip-path="url(#p0972c39d98)" style="fill: none; stroke: #ff7f0e; stroke-width: 1.5; stroke-linecap: square"/>
   </g>
   <g id="patch_3">
    <path d="M 36.465625 284.4 
L 36.465625 7.2 
" style="fill: none; stroke: #000000; stroke-width: 0.8; stroke-linejoin: miter; stroke-linecap: square"/>
   </g>
   <g id="patch_4">
    <path d="M 706.065625 284.4 
L 706.065625 7.2 
" style="fill: none; stroke: #000000; stroke-width: 0.8; stroke-linejoin: miter; stroke-linecap: square"/>
   </g>
   <g id="patch_5">
    <path d="M 36.465625 284.4 
L 706.065625 284.4 
" style="fill: none; stroke: #000000; stroke-width: 0.8; stroke-linejoin: miter; stroke-linecap: square"/>
   </g>
   <g id="patch_6">
    <path d="M 36.465625 7.2 
L 706.065625 7.2 
" style="fill: none; stroke: #000000; stroke-width: 0.8; stroke-linejoin: miter; stroke-linecap: square"/>
   </g>
   <g id="legend_1">
    <g id="patch_7">
     <path d="M 43.465625 73.9125 
L 212.865625 73.9125 
Q 214.865625 73.9125 214.865625 71.9125 
L 214.865625 14.2 
Q 214.865625 12.2 212.865625 12.2 
L 43.465625 12.2 
Q 41.465625 12.2 41.465625 14.2 
L 41.465625 71.9125 
Q 41.465625 73.9125 43.465625 73.9125 
z
" style="fill: #ffffff; opacity: 0.8; stroke: #cccccc; stroke-linejoin: miter"/>
    </g>
    <g id="line2d_17">
     <path d="M 45.465625 20.298438 
L 55.465625 20.298438 
L 65.465625 20.298438 
" style="fill: none; stroke: #1f77b4; stroke-width: 1.5; stroke-linecap: square"/>
    </g>
    <g id="text_14">
     <!-- Mf before ISCO cut: $e$=0.18 -->
     <g transform="translate(73.465625 23.798438) scale(0.1 -0.1)">
      <defs>
       <path id="DejaVuSans-4d" d="M 628 4666 
L 1569 4666 
L 2759 1491 
L 3956 4666 
L 4897 4666 
L 4897 0 
L 4281 0 
L 4281 4097 
L 3078 897 
L 2444 897 
L 1241 4097 
L 1241 0 
L 628 0 
L 628 4666 
z
" transform="scale(0.015625)"/>
       <path id="DejaVuSans-66" d="M 2375 4863 
L 2375 4384 
L 1825 4384 
Q 1516 4384 1395 4259 
Q 1275 4134 1275 3809 
L 1275 3500 
L 2222 3500 
L 2222 3053 
L 1275 3053 
L 1275 0 
L 697 0 
L 697 3053 
L 147 3053 
L 147 3500 
L 697 3500 
L 697 3744 
Q 697 4328 969 4595 
Q 1241 4863 1831 4863 
L 2375 4863 
z
" transform="scale(0.015625)"/>
       <path id="DejaVuSans-20" transform="scale(0.015625)"/>
       <path id="DejaVuSans-62" d="M 3116 1747 
Q 3116 2381 2855 2742 
Q 2594 3103 2138 3103 
Q 1681 3103 1420 2742 
Q 1159 2381 1159 1747 
Q 1159 1113 1420 752 
Q 1681 391 2138 391 
Q 2594 391 2855 752 
Q 3116 1113 3116 1747 
z
M 1159 2969 
Q 1341 3281 1617 3432 
Q 1894 3584 2278 3584 
Q 2916 3584 3314 3078 
Q 3713 2572 3713 1747 
Q 3713 922 3314 415 
Q 2916 -91 2278 -91 
Q 1894 -91 1617 61 
Q 1341 213 1159 525 
L 1159 0 
L 581 0 
L 581 4863 
L 1159 4863 
L 1159 2969 
z
" transform="scale(0.015625)"/>
       <path id="DejaVuSans-65" d="M 3597 1894 
L 3597 1613 
L 953 1613 
Q 991 1019 1311 708 
Q 1631 397 2203 397 
Q 2534 397 2845 478 
Q 3156 559 3463 722 
L 3463 178 
Q 3153 47 2828 -22 
Q 2503 -91 2169 -91 
Q 1331 -91 842 396 
Q 353 884 353 1716 
Q 353 2575 817 3079 
Q 1281 3584 2069 3584 
Q 2775 3584 3186 3129 
Q 3597 2675 3597 1894 
z
M 3022 2063 
Q 3016 2534 2758 2815 
Q 2500 3097 2075 3097 
Q 1594 3097 1305 2825 
Q 1016 2553 972 2059 
L 3022 2063 
z
" transform="scale(0.015625)"/>
       <path id="DejaVuSans-6f" d="M 1959 3097 
Q 1497 3097 1228 2736 
Q 959 2375 959 1747 
Q 959 1119 1226 758 
Q 1494 397 1959 397 
Q 2419 397 2687 759 
Q 2956 1122 2956 1747 
Q 2956 2369 2687 2733 
Q 2419 3097 1959 3097 
z
M 1959 3584 
Q 2709 3584 3137 3096 
Q 3566 2609 3566 1747 
Q 3566 888 3137 398 
Q 2709 -91 1959 -91 
Q 1206 -91 779 398 
Q 353 888 353 1747 
Q 353 2609 779 3096 
Q 1206 3584 1959 3584 
z
" transform="scale(0.015625)"/>
       <path id="DejaVuSans-72" d="M 2631 2963 
Q 2534 3019 2420 3045 
Q 2306 3072 2169 3072 
Q 1681 3072 1420 2755 
Q 1159 2438 1159 1844 
L 1159 0 
L 581 0 
L 581 3500 
L 1159 3500 
L 1159 2956 
Q 1341 3275 1631 3429 
Q 1922 3584 2338 3584 
Q 2397 3584 2469 3576 
Q 2541 3569 2628 3553 
L 2631 2963 
z
" transform="scale(0.015625)"/>
       <path id="DejaVuSans-49" d="M 628 4666 
L 1259 4666 
L 1259 0 
L 628 0 
L 628 4666 
z
" transform="scale(0.015625)"/>
       <path id="DejaVuSans-53" d="M 3425 4513 
L 3425 3897 
Q 3066 4069 2747 4153 
Q 2428 4238 2131 4238 
Q 1616 4238 1336 4038 
Q 1056 3838 1056 3469 
Q 1056 3159 1242 3001 
Q 1428 2844 1947 2747 
L 2328 2669 
Q 3034 2534 3370 2195 
Q 3706 1856 3706 1288 
Q 3706 609 3251 259 
Q 2797 -91 1919 -91 
Q 1588 -91 1214 -16 
Q 841 59 441 206 
L 441 856 
Q 825 641 1194 531 
Q 1563 422 1919 422 
Q 2459 422 2753 634 
Q 3047 847 3047 1241 
Q 3047 1584 2836 1778 
Q 2625 1972 2144 2069 
L 1759 2144 
Q 1053 2284 737 2584 
Q 422 2884 422 3419 
Q 422 4038 858 4394 
Q 1294 4750 2059 4750 
Q 2388 4750 2728 4690 
Q 3069 4631 3425 4513 
z
" transform="scale(0.015625)"/>
       <path id="DejaVuSans-43" d="M 4122 4306 
L 4122 3641 
Q 3803 3938 3442 4084 
Q 3081 4231 2675 4231 
Q 1875 4231 1450 3742 
Q 1025 3253 1025 2328 
Q 1025 1406 1450 917 
Q 1875 428 2675 428 
Q 3081 428 3442 575 
Q 3803 722 4122 1019 
L 4122 359 
Q 3791 134 3420 21 
Q 3050 -91 2638 -91 
Q 1578 -91 968 557 
Q 359 1206 359 2328 
Q 359 3453 968 4101 
Q 1578 4750 2638 4750 
Q 3056 4750 3426 4639 
Q 3797 4528 4122 4306 
z
" transform="scale(0.015625)"/>
       <path id="DejaVuSans-4f" d="M 2522 4238 
Q 1834 4238 1429 3725 
Q 1025 3213 1025 2328 
Q 1025 1447 1429 934 
Q 1834 422 2522 422 
Q 3209 422 3611 934 
Q 4013 1447 4013 2328 
Q 4013 3213 3611 3725 
Q 3209 4238 2522 4238 
z
M 2522 4750 
Q 3503 4750 4090 4092 
Q 4678 3434 4678 2328 
Q 4678 1225 4090 567 
Q 3503 -91 2522 -91 
Q 1538 -91 948 565 
Q 359 1222 359 2328 
Q 359 3434 948 4092 
Q 1538 4750 2522 4750 
z
" transform="scale(0.015625)"/>
       <path id="DejaVuSans-63" d="M 3122 3366 
L 3122 2828 
Q 2878 2963 2633 3030 
Q 2388 3097 2138 3097 
Q 1578 3097 1268 2742 
Q 959 2388 959 1747 
Q 959 1106 1268 751 
Q 1578 397 2138 397 
Q 2388 397 2633 464 
Q 2878 531 3122 666 
L 3122 134 
Q 2881 22 2623 -34 
Q 2366 -91 2075 -91 
Q 1284 -91 818 406 
Q 353 903 353 1747 
Q 353 2603 823 3093 
Q 1294 3584 2113 3584 
Q 2378 3584 2631 3529 
Q 2884 3475 3122 3366 
z
" transform="scale(0.015625)"/>
       <path id="DejaVuSans-75" d="M 544 1381 
L 544 3500 
L 1119 3500 
L 1119 1403 
Q 1119 906 1312 657 
Q 1506 409 1894 409 
Q 2359 409 2629 706 
Q 2900 1003 2900 1516 
L 2900 3500 
L 3475 3500 
L 3475 0 
L 2900 0 
L 2900 538 
Q 2691 219 2414 64 
Q 2138 -91 1772 -91 
Q 1169 -91 856 284 
Q 544 659 544 1381 
z
M 1991 3584 
L 1991 3584 
z
" transform="scale(0.015625)"/>
       <path id="DejaVuSans-74" d="M 1172 4494 
L 1172 3500 
L 2356 3500 
L 2356 3053 
L 1172 3053 
L 1172 1153 
Q 1172 725 1289 603 
Q 1406 481 1766 481 
L 2356 481 
L 2356 0 
L 1766 0 
Q 1100 0 847 248 
Q 594 497 594 1153 
L 594 3053 
L 172 3053 
L 172 3500 
L 594 3500 
L 594 4494 
L 1172 4494 
z
" transform="scale(0.015625)"/>
       <path id="DejaVuSans-3a" d="M 750 794 
L 1409 794 
L 1409 0 
L 750 0 
L 750 794 
z
M 750 3309 
L 1409 3309 
L 1409 2516 
L 750 2516 
L 750 3309 
z
" transform="scale(0.015625)"/>
       <path id="DejaVuSans-Oblique-65" d="M 3078 2063 
Q 3088 2113 3092 2166 
Q 3097 2219 3097 2272 
Q 3097 2653 2873 2875 
Q 2650 3097 2266 3097 
Q 1838 3097 1509 2826 
Q 1181 2556 1013 2059 
L 3078 2063 
z
M 3578 1613 
L 903 1613 
Q 884 1494 878 1425 
Q 872 1356 872 1306 
Q 872 872 1139 634 
Q 1406 397 1894 397 
Q 2269 397 2603 481 
Q 2938 566 3225 728 
L 3116 159 
Q 2806 34 2476 -28 
Q 2147 -91 1806 -91 
Q 1078 -91 686 257 
Q 294 606 294 1247 
Q 294 1794 489 2264 
Q 684 2734 1063 3103 
Q 1306 3334 1642 3459 
Q 1978 3584 2356 3584 
Q 2950 3584 3301 3228 
Q 3653 2872 3653 2272 
Q 3653 2128 3634 1964 
Q 3616 1800 3578 1613 
z
" transform="scale(0.015625)"/>
       <path id="DejaVuSans-3d" d="M 678 2906 
L 4684 2906 
L 4684 2381 
L 678 2381 
L 678 2906 
z
M 678 1631 
L 4684 1631 
L 4684 1100 
L 678 1100 
L 678 1631 
z
" transform="scale(0.015625)"/>
      </defs>
      <use xlink:href="#DejaVuSans-4d" transform="translate(0 0.015625)"/>
      <use xlink:href="#DejaVuSans-66" transform="translate(86.279297 0.015625)"/>
      <use xlink:href="#DejaVuSans-20" transform="translate(121.484375 0.015625)"/>
      <use xlink:href="#DejaVuSans-62" transform="translate(153.271484 0.015625)"/>
      <use xlink:href="#DejaVuSans-65" transform="translate(216.748047 0.015625)"/>
      <use xlink:href="#DejaVuSans-66" transform="translate(278.271484 0.015625)"/>
      <use xlink:href="#DejaVuSans-6f" transform="translate(313.476562 0.015625)"/>
      <use xlink:href="#DejaVuSans-72" transform="translate(374.658203 0.015625)"/>
      <use xlink:href="#DejaVuSans-65" transform="translate(415.771484 0.015625)"/>
      <use xlink:href="#DejaVuSans-20" transform="translate(477.294922 0.015625)"/>
      <use xlink:href="#DejaVuSans-49" transform="translate(509.082031 0.015625)"/>
      <use xlink:href="#DejaVuSans-53" transform="translate(538.574219 0.015625)"/>
      <use xlink:href="#DejaVuSans-43" transform="translate(602.050781 0.015625)"/>
      <use xlink:href="#DejaVuSans-4f" transform="translate(671.875 0.015625)"/>
      <use xlink:href="#DejaVuSans-20" transform="translate(750.585938 0.015625)"/>
      <use xlink:href="#DejaVuSans-63" transform="translate(782.373047 0.015625)"/>
      <use xlink:href="#DejaVuSans-75" transform="translate(837.353516 0.015625)"/>
      <use xlink:href="#DejaVuSans-74" transform="translate(900.732422 0.015625)"/>
      <use xlink:href="#DejaVuSans-3a" transform="translate(939.941406 0.015625)"/>
      <use xlink:href="#DejaVuSans-20" transform="translate(973.632812 0.015625)"/>
      <use xlink:href="#DejaVuSans-Oblique-65" transform="translate(1005.419922 0.015625)"/>
      <use xlink:href="#DejaVuSans-3d" transform="translate(1066.943359 0.015625)"/>
      <use xlink:href="#DejaVuSans-30" transform="translate(1150.732422 0.015625)"/>
      <use xlink:href="#DejaVuSans-2e" transform="translate(1214.355469 0.015625)"/>
      <use xlink:href="#DejaVuSans-31" transform="translate(1246.142578 0.015625)"/>
      <use xlink:href="#DejaVuSans-38" transform="translate(1309.765625 0.015625)"/>
     </g>
    </g>
    <g id="line2d_18">
     <path d="M 45.465625 34.976563 
L 55.465625 34.976563 
L 65.465625 34.976563 
" style="fill: none; stroke-dasharray: 2.22,0.96; stroke-dashoffset: 0; stroke: #ff0000; stroke-width: 0.6"/>
    </g>
    <g id="text_15">
     <!-- Mf ISCO $e$=0 -->
     <g transform="translate(73.465625 38.476563) scale(0.1 -0.1)">
      <use xlink:href="#DejaVuSans-4d" transform="translate(0 0.015625)"/>
      <use xlink:href="#DejaVuSans-66" transform="translate(86.279297 0.015625)"/>
      <use xlink:href="#DejaVuSans-20" transform="translate(121.484375 0.015625)"/>
      <use xlink:href="#DejaVuSans-49" transform="translate(153.271484 0.015625)"/>
      <use xlink:href="#DejaVuSans-53" transform="translate(182.763672 0.015625)"/>
      <use xlink:href="#DejaVuSans-43" transform="translate(246.240234 0.015625)"/>
      <use xlink:href="#DejaVuSans-4f" transform="translate(316.064453 0.015625)"/>
      <use xlink:href="#DejaVuSans-20" transform="translate(394.775391 0.015625)"/>
      <use xlink:href="#DejaVuSans-Oblique-65" transform="translate(426.5625 0.015625)"/>
      <use xlink:href="#DejaVuSans-3d" transform="translate(488.085938 0.015625)"/>
      <use xlink:href="#DejaVuSans-30" transform="translate(571.875 0.015625)"/>
     </g>
    </g>
    <g id="PathCollection_2">
     <g>
      <use xlink:href="#m270754d292" x="55.465625" y="50.529688" style="fill: #ff0000; stroke: #ff0000"/>
     </g>
    </g>
    <g id="text_16">
     <!-- ISCO cut -->
     <g transform="translate(73.465625 53.154688) scale(0.1 -0.1)">
      <use xlink:href="#DejaVuSans-49"/>
      <use xlink:href="#DejaVuSans-53" transform="translate(29.492188 0)"/>
      <use xlink:href="#DejaVuSans-43" transform="translate(92.96875 0)"/>
      <use xlink:href="#DejaVuSans-4f" transform="translate(162.792969 0)"/>
      <use xlink:href="#DejaVuSans-20" transform="translate(241.503906 0)"/>
      <use xlink:href="#DejaVuSans-63" transform="translate(273.291016 0)"/>
      <use xlink:href="#DejaVuSans-75" transform="translate(328.271484 0)"/>
      <use xlink:href="#DejaVuSans-74" transform="translate(391.650391 0)"/>
     </g>
    </g>
    <g id="line2d_19">
     <path d="M 45.465625 64.332813 
L 55.465625 64.332813 
L 65.465625 64.332813 
" style="fill: none; stroke: #ff7f0e; stroke-width: 1.5; stroke-linecap: square"/>
    </g>
    <g id="text_17">
     <!-- Mf after ISCO cut: $e$=0.18  -->
     <g transform="translate(73.465625 67.832813) scale(0.1 -0.1)">
      <defs>
       <path id="DejaVuSans-61" d="M 2194 1759 
Q 1497 1759 1228 1600 
Q 959 1441 959 1056 
Q 959 750 1161 570 
Q 1363 391 1709 391 
Q 2188 391 2477 730 
Q 2766 1069 2766 1631 
L 2766 1759 
L 2194 1759 
z
M 3341 1997 
L 3341 0 
L 2766 0 
L 2766 531 
Q 2569 213 2275 61 
Q 1981 -91 1556 -91 
Q 1019 -91 701 211 
Q 384 513 384 1019 
Q 384 1609 779 1909 
Q 1175 2209 1959 2209 
L 2766 2209 
L 2766 2266 
Q 2766 2663 2505 2880 
Q 2244 3097 1772 3097 
Q 1472 3097 1187 3025 
Q 903 2953 641 2809 
L 641 3341 
Q 956 3463 1253 3523 
Q 1550 3584 1831 3584 
Q 2591 3584 2966 3190 
Q 3341 2797 3341 1997 
z
" transform="scale(0.015625)"/>
      </defs>
      <use xlink:href="#DejaVuSans-4d" transform="translate(0 0.015625)"/>
      <use xlink:href="#DejaVuSans-66" transform="translate(86.279297 0.015625)"/>
      <use xlink:href="#DejaVuSans-20" transform="translate(121.484375 0.015625)"/>
      <use xlink:href="#DejaVuSans-61" transform="translate(153.271484 0.015625)"/>
      <use xlink:href="#DejaVuSans-66" transform="translate(214.550781 0.015625)"/>
      <use xlink:href="#DejaVuSans-74" transform="translate(249.755859 0.015625)"/>
      <use xlink:href="#DejaVuSans-65" transform="translate(288.964844 0.015625)"/>
      <use xlink:href="#DejaVuSans-72" transform="translate(350.488281 0.015625)"/>
      <use xlink:href="#DejaVuSans-20" transform="translate(391.601562 0.015625)"/>
      <use xlink:href="#DejaVuSans-49" transform="translate(423.388672 0.015625)"/>
      <use xlink:href="#DejaVuSans-53" transform="translate(452.880859 0.015625)"/>
      <use xlink:href="#DejaVuSans-43" transform="translate(516.357422 0.015625)"/>
      <use xlink:href="#DejaVuSans-4f" transform="translate(586.181641 0.015625)"/>
      <use xlink:href="#DejaVuSans-20" transform="translate(664.892578 0.015625)"/>
      <use xlink:href="#DejaVuSans-63" transform="translate(696.679688 0.015625)"/>
      <use xlink:href="#DejaVuSans-75" transform="translate(751.660156 0.015625)"/>
      <use xlink:href="#DejaVuSans-74" transform="translate(815.039062 0.015625)"/>
      <use xlink:href="#DejaVuSans-3a" transform="translate(854.248047 0.015625)"/>
      <use xlink:href="#DejaVuSans-20" transform="translate(887.939453 0.015625)"/>
      <use xlink:href="#DejaVuSans-Oblique-65" transform="translate(919.726562 0.015625)"/>
      <use xlink:href="#DejaVuSans-3d" transform="translate(981.25 0.015625)"/>
      <use xlink:href="#DejaVuSans-30" transform="translate(1065.039062 0.015625)"/>
      <use xlink:href="#DejaVuSans-2e" transform="translate(1128.662109 0.015625)"/>
      <use xlink:href="#DejaVuSans-31" transform="translate(1160.449219 0.015625)"/>
      <use xlink:href="#DejaVuSans-38" transform="translate(1224.072266 0.015625)"/>
      <use xlink:href="#DejaVuSans-20" transform="translate(1287.695312 0.015625)"/>
     </g>
    </g>
   </g>
  </g>
 </g>
 <defs>
  <clipPath id="p0972c39d98">
   <rect x="36.465625" y="7.2" width="669.6" height="277.2"/>
  </clipPath>
 </defs>
</svg>
