<?xml version="1.0" encoding="utf-8" standalone="no"?>
<!DOCTYPE svg PUBLIC "-//W3C//DTD SVG 1.1//EN"
  "http://www.w3.org/Graphics/SVG/1.1/DTD/svg11.dtd">
<svg xmlns:xlink="http://www.w3.org/1999/xlink" width="713.265625pt" height="308.278125pt" viewBox="0 0 713.265625 308.278125" xmlns="http://www.w3.org/2000/svg" version="1.1">
 <metadata>
  <rdf:RDF xmlns:dc="http://purl.org/dc/elements/1.1/" xmlns:cc="http://creativecommons.org/ns#" xmlns:rdf="http://www.w3.org/1999/02/22-rdf-syntax-ns#">
   <cc:Work>
    <dc:type rdf:resource="http://purl.org/dc/dcmitype/StillImage"/>
    <dc:date>2025-07-25T14:55:41.227048</dc:date>
    <dc:format>image/svg+xml</dc:format>
    <dc:creator>
     <cc:Agent>
      <dc:title>Matplotlib v3.10.3, https://matplotlib.org/</dc:title>
     </cc:Agent>
    </dc:creator>
   </cc:Work>
  </rdf:RDF>
 </metadata>
 <defs>
  <style type="text/css">*{stroke-linejoin: round; stroke-linecap: butt}</style>
 </defs>
 <g id="figure_1">
  <g id="patch_1">
   <path d="M 0 308.278125 
L 713.265625 308.278125 
L 713.265625 0 
L 0 0 
z
" style="fill: #ffffff"/>
  </g>
  <g id="axes_1">
   <g id="patch_2">
    <path d="M 36.465625 284.4 
L 706.065625 284.4 
L 706.065625 7.2 
L 36.465625 7.2 
z
" style="fill: #ffffff"/>
   </g>
   <g id="PathCollection_1">
    <defs>
     <path id="mb986f00ae2" d="M 0 1.224745 
C 0.324806 1.224745 0.636353 1.095698 0.866025 0.866025 
C 1.095698 0.636353 1.224745 0.324806 1.224745 0 
C 1.224745 -0.324806 1.095698 -0.636353 0.866025 -0.866025 
C 0.636353 -1.095698 0.324806 -1.224745 0 -1.224745 
C -0.324806 -1.224745 -0.636353 -1.095698 -0.866025 -0.866025 
C -1.095698 -0.636353 -1.224745 -0.324806 -1.224745 0 
C -1.224745 0.324806 -1.095698 0.636353 -0.866025 0.866025 
C -0.636353 1.095698 -0.324806 1.224745 0 1.224745 
z
" style="stroke: #ff0000"/>
    </defs>
    <g clip-path="url(#pf1997ab880)">
     <use xlink:href="#mb986f00ae2" x="669.906883" y="198.784504" style="fill: #ff0000; stroke: #ff0000"/>
    </g>
   </g>
   <g id="matplotlib.axis_1">
    <g id="xtick_1">
     <g id="line2d_1">
      <defs>
       <path id="meb0017ff3d" d="M 0 0 
L 0 3.5 
" style="stroke: #000000; stroke-width: 0.8"/>
      </defs>
      <g>
       <use xlink:href="#meb0017ff3d" x="46.099533" y="284.4" style="stroke: #000000; stroke-width: 0.8"/>
      </g>
     </g>
     <g id="text_1">
      <!-- −14000 -->
      <g transform="translate(26.00344 298.998438) scale(0.1 -0.1)">
       <defs>
        <path id="DejaVuSans-2212" d="M 678 2272 
L 4684 2272 
L 4684 1741 
L 678 1741 
L 678 2272 
z
" transform="scale(0.015625)"/>
        <path id="DejaVuSans-31" d="M 794 531 
L 1825 531 
L 1825 4091 
L 703 3866 
L 703 4441 
L 1819 4666 
L 2450 4666 
L 2450 531 
L 3481 531 
L 3481 0 
L 794 0 
L 794 531 
z
" transform="scale(0.015625)"/>
        <path id="DejaVuSans-34" d="M 2419 4116 
L 825 1625 
L 2419 1625 
L 2419 4116 
z
M 2253 4666 
L 3047 4666 
L 3047 1625 
L 3713 1625 
L 3713 1100 
L 3047 1100 
L 3047 0 
L 2419 0 
L 2419 1100 
L 313 1100 
L 313 1709 
L 2253 4666 
z
" transform="scale(0.015625)"/>
        <path id="DejaVuSans-30" d="M 2034 4250 
Q 1547 4250 1301 3770 
Q 1056 3291 1056 2328 
Q 1056 1369 1301 889 
Q 1547 409 2034 409 
Q 2525 409 2770 889 
Q 3016 1369 3016 2328 
Q 3016 3291 2770 3770 
Q 2525 4250 2034 4250 
z
M 2034 4750 
Q 2819 4750 3233 4129 
Q 3647 3509 3647 2328 
Q 3647 1150 3233 529 
Q 2819 -91 2034 -91 
Q 1250 -91 836 529 
Q 422 1150 422 2328 
Q 422 3509 836 4129 
Q 1250 4750 2034 4750 
z
" transform="scale(0.015625)"/>
       </defs>
       <use xlink:href="#DejaVuSans-2212"/>
       <use xlink:href="#DejaVuSans-31" transform="translate(83.789062 0)"/>
       <use xlink:href="#DejaVuSans-34" transform="translate(147.412109 0)"/>
       <use xlink:href="#DejaVuSans-30" transform="translate(211.035156 0)"/>
       <use xlink:href="#DejaVuSans-30" transform="translate(274.658203 0)"/>
       <use xlink:href="#DejaVuSans-30" transform="translate(338.28125 0)"/>
      </g>
     </g>
    </g>
    <g id="xtick_2">
     <g id="line2d_2">
      <g>
       <use xlink:href="#meb0017ff3d" x="135.57819" y="284.4" style="stroke: #000000; stroke-width: 0.8"/>
      </g>
     </g>
     <g id="text_2">
      <!-- −12000 -->
      <g transform="translate(115.482097 298.998438) scale(0.1 -0.1)">
       <defs>
        <path id="DejaVuSans-32" d="M 1228 531 
L 3431 531 
L 3431 0 
L 469 0 
L 469 531 
Q 828 903 1448 1529 
Q 2069 2156 2228 2338 
Q 2531 2678 2651 2914 
Q 2772 3150 2772 3378 
Q 2772 3750 2511 3984 
Q 2250 4219 1831 4219 
Q 1534 4219 1204 4116 
Q 875 4013 500 3803 
L 500 4441 
Q 881 4594 1212 4672 
Q 1544 4750 1819 4750 
Q 2544 4750 2975 4387 
Q 3406 4025 3406 3419 
Q 3406 3131 3298 2873 
Q 3191 2616 2906 2266 
Q 2828 2175 2409 1742 
Q 1991 1309 1228 531 
z
" transform="scale(0.015625)"/>
       </defs>
       <use xlink:href="#DejaVuSans-2212"/>
       <use xlink:href="#DejaVuSans-31" transform="translate(83.789062 0)"/>
       <use xlink:href="#DejaVuSans-32" transform="translate(147.412109 0)"/>
       <use xlink:href="#DejaVuSans-30" transform="translate(211.035156 0)"/>
       <use xlink:href="#DejaVuSans-30" transform="translate(274.658203 0)"/>
       <use xlink:href="#DejaVuSans-30" transform="translate(338.28125 0)"/>
      </g>
     </g>
    </g>
    <g id="xtick_3">
     <g id="line2d_3">
      <g>
       <use xlink:href="#meb0017ff3d" x="225.056848" y="284.4" style="stroke: #000000; stroke-width: 0.8"/>
      </g>
     </g>
     <g id="text_3">
      <!-- −10000 -->
      <g transform="translate(204.960754 298.998438) scale(0.1 -0.1)">
       <use xlink:href="#DejaVuSans-2212"/>
       <use xlink:href="#DejaVuSans-31" transform="translate(83.789062 0)"/>
       <use xlink:href="#DejaVuSans-30" transform="translate(147.412109 0)"/>
       <use xlink:href="#DejaVuSans-30" transform="translate(211.035156 0)"/>
       <use xlink:href="#DejaVuSans-30" transform="translate(274.658203 0)"/>
       <use xlink:href="#DejaVuSans-30" transform="translate(338.28125 0)"/>
      </g>
     </g>
    </g>
    <g id="xtick_4">
     <g id="line2d_4">
      <g>
       <use xlink:href="#meb0017ff3d" x="314.535505" y="284.4" style="stroke: #000000; stroke-width: 0.8"/>
      </g>
     </g>
     <g id="text_4">
      <!-- −8000 -->
      <g transform="translate(297.620661 298.998438) scale(0.1 -0.1)">
       <defs>
        <path id="DejaVuSans-38" d="M 2034 2216 
Q 1584 2216 1326 1975 
Q 1069 1734 1069 1313 
Q 1069 891 1326 650 
Q 1584 409 2034 409 
Q 2484 409 2743 651 
Q 3003 894 3003 1313 
Q 3003 1734 2745 1975 
Q 2488 2216 2034 2216 
z
M 1403 2484 
Q 997 2584 770 2862 
Q 544 3141 544 3541 
Q 544 4100 942 4425 
Q 1341 4750 2034 4750 
Q 2731 4750 3128 4425 
Q 3525 4100 3525 3541 
Q 3525 3141 3298 2862 
Q 3072 2584 2669 2484 
Q 3125 2378 3379 2068 
Q 3634 1759 3634 1313 
Q 3634 634 3220 271 
Q 2806 -91 2034 -91 
Q 1263 -91 848 271 
Q 434 634 434 1313 
Q 434 1759 690 2068 
Q 947 2378 1403 2484 
z
M 1172 3481 
Q 1172 3119 1398 2916 
Q 1625 2713 2034 2713 
Q 2441 2713 2670 2916 
Q 2900 3119 2900 3481 
Q 2900 3844 2670 4047 
Q 2441 4250 2034 4250 
Q 1625 4250 1398 4047 
Q 1172 3844 1172 3481 
z
" transform="scale(0.015625)"/>
       </defs>
       <use xlink:href="#DejaVuSans-2212"/>
       <use xlink:href="#DejaVuSans-38" transform="translate(83.789062 0)"/>
       <use xlink:href="#DejaVuSans-30" transform="translate(147.412109 0)"/>
       <use xlink:href="#DejaVuSans-30" transform="translate(211.035156 0)"/>
       <use xlink:href="#DejaVuSans-30" transform="translate(274.658203 0)"/>
      </g>
     </g>
    </g>
    <g id="xtick_5">
     <g id="line2d_5">
      <g>
       <use xlink:href="#meb0017ff3d" x="404.014162" y="284.4" style="stroke: #000000; stroke-width: 0.8"/>
      </g>
     </g>
     <g id="text_5">
      <!-- −6000 -->
      <g transform="translate(387.099318 298.998438) scale(0.1 -0.1)">
       <defs>
        <path id="DejaVuSans-36" d="M 2113 2584 
Q 1688 2584 1439 2293 
Q 1191 2003 1191 1497 
Q 1191 994 1439 701 
Q 1688 409 2113 409 
Q 2538 409 2786 701 
Q 3034 994 3034 1497 
Q 3034 2003 2786 2293 
Q 2538 2584 2113 2584 
z
M 3366 4563 
L 3366 3988 
Q 3128 4100 2886 4159 
Q 2644 4219 2406 4219 
Q 1781 4219 1451 3797 
Q 1122 3375 1075 2522 
Q 1259 2794 1537 2939 
Q 1816 3084 2150 3084 
Q 2853 3084 3261 2657 
Q 3669 2231 3669 1497 
Q 3669 778 3244 343 
Q 2819 -91 2113 -91 
Q 1303 -91 875 529 
Q 447 1150 447 2328 
Q 447 3434 972 4092 
Q 1497 4750 2381 4750 
Q 2619 4750 2861 4703 
Q 3103 4656 3366 4563 
z
" transform="scale(0.015625)"/>
       </defs>
       <use xlink:href="#DejaVuSans-2212"/>
       <use xlink:href="#DejaVuSans-36" transform="translate(83.789062 0)"/>
       <use xlink:href="#DejaVuSans-30" transform="translate(147.412109 0)"/>
       <use xlink:href="#DejaVuSans-30" transform="translate(211.035156 0)"/>
       <use xlink:href="#DejaVuSans-30" transform="translate(274.658203 0)"/>
      </g>
     </g>
    </g>
    <g id="xtick_6">
     <g id="line2d_6">
      <g>
       <use xlink:href="#meb0017ff3d" x="493.492819" y="284.4" style="stroke: #000000; stroke-width: 0.8"/>
      </g>
     </g>
     <g id="text_6">
      <!-- −4000 -->
      <g transform="translate(476.577975 298.998438) scale(0.1 -0.1)">
       <use xlink:href="#DejaVuSans-2212"/>
       <use xlink:href="#DejaVuSans-34" transform="translate(83.789062 0)"/>
       <use xlink:href="#DejaVuSans-30" transform="translate(147.412109 0)"/>
       <use xlink:href="#DejaVuSans-30" transform="translate(211.035156 0)"/>
       <use xlink:href="#DejaVuSans-30" transform="translate(274.658203 0)"/>
      </g>
     </g>
    </g>
    <g id="xtick_7">
     <g id="line2d_7">
      <g>
       <use xlink:href="#meb0017ff3d" x="582.971476" y="284.4" style="stroke: #000000; stroke-width: 0.8"/>
      </g>
     </g>
     <g id="text_7">
      <!-- −2000 -->
      <g transform="translate(566.056633 298.998438) scale(0.1 -0.1)">
       <use xlink:href="#DejaVuSans-2212"/>
       <use xlink:href="#DejaVuSans-32" transform="translate(83.789062 0)"/>
       <use xlink:href="#DejaVuSans-30" transform="translate(147.412109 0)"/>
       <use xlink:href="#DejaVuSans-30" transform="translate(211.035156 0)"/>
       <use xlink:href="#DejaVuSans-30" transform="translate(274.658203 0)"/>
      </g>
     </g>
    </g>
    <g id="xtick_8">
     <g id="line2d_8">
      <g>
       <use xlink:href="#meb0017ff3d" x="672.450134" y="284.4" style="stroke: #000000; stroke-width: 0.8"/>
      </g>
     </g>
     <g id="text_8">
      <!-- 0 -->
      <g transform="translate(669.268884 298.998438) scale(0.1 -0.1)">
       <use xlink:href="#DejaVuSans-30"/>
      </g>
     </g>
    </g>
   </g>
   <g id="matplotlib.axis_2">
    <g id="ytick_1">
     <g id="line2d_9">
      <defs>
       <path id="m67d55eac1f" d="M 0 0 
L -3.5 0 
" style="stroke: #000000; stroke-width: 0.8"/>
      </defs>
      <g>
       <use xlink:href="#m67d55eac1f" x="36.465625" y="257.395139" style="stroke: #000000; stroke-width: 0.8"/>
      </g>
     </g>
     <g id="text_9">
      <!-- 0.00 -->
      <g transform="translate(7.2 261.194358) scale(0.1 -0.1)">
       <defs>
        <path id="DejaVuSans-2e" d="M 684 794 
L 1344 794 
L 1344 0 
L 684 0 
L 684 794 
z
" transform="scale(0.015625)"/>
       </defs>
       <use xlink:href="#DejaVuSans-30"/>
       <use xlink:href="#DejaVuSans-2e" transform="translate(63.623047 0)"/>
       <use xlink:href="#DejaVuSans-30" transform="translate(95.410156 0)"/>
       <use xlink:href="#DejaVuSans-30" transform="translate(159.033203 0)"/>
      </g>
     </g>
    </g>
    <g id="ytick_2">
     <g id="line2d_10">
      <g>
       <use xlink:href="#m67d55eac1f" x="36.465625" y="203.450116" style="stroke: #000000; stroke-width: 0.8"/>
      </g>
     </g>
     <g id="text_10">
      <!-- 0.02 -->
      <g transform="translate(7.2 207.249334) scale(0.1 -0.1)">
       <use xlink:href="#DejaVuSans-30"/>
       <use xlink:href="#DejaVuSans-2e" transform="translate(63.623047 0)"/>
       <use xlink:href="#DejaVuSans-30" transform="translate(95.410156 0)"/>
       <use xlink:href="#DejaVuSans-32" transform="translate(159.033203 0)"/>
      </g>
     </g>
    </g>
    <g id="ytick_3">
     <g id="line2d_11">
      <g>
       <use xlink:href="#m67d55eac1f" x="36.465625" y="149.505092" style="stroke: #000000; stroke-width: 0.8"/>
      </g>
     </g>
     <g id="text_11">
      <!-- 0.04 -->
      <g transform="translate(7.2 153.304311) scale(0.1 -0.1)">
       <use xlink:href="#DejaVuSans-30"/>
       <use xlink:href="#DejaVuSans-2e" transform="translate(63.623047 0)"/>
       <use xlink:href="#DejaVuSans-30" transform="translate(95.410156 0)"/>
       <use xlink:href="#DejaVuSans-34" transform="translate(159.033203 0)"/>
      </g>
     </g>
    </g>
    <g id="ytick_4">
     <g id="line2d_12">
      <g>
       <use xlink:href="#m67d55eac1f" x="36.465625" y="95.560069" style="stroke: #000000; stroke-width: 0.8"/>
      </g>
     </g>
     <g id="text_12">
      <!-- 0.06 -->
      <g transform="translate(7.2 99.359287) scale(0.1 -0.1)">
       <use xlink:href="#DejaVuSans-30"/>
       <use xlink:href="#DejaVuSans-2e" transform="translate(63.623047 0)"/>
       <use xlink:href="#DejaVuSans-30" transform="translate(95.410156 0)"/>
       <use xlink:href="#DejaVuSans-36" transform="translate(159.033203 0)"/>
      </g>
     </g>
    </g>
    <g id="ytick_5">
     <g id="line2d_13">
      <g>
       <use xlink:href="#m67d55eac1f" x="36.465625" y="41.615045" style="stroke: #000000; stroke-width: 0.8"/>
      </g>
     </g>
     <g id="text_13">
      <!-- 0.08 -->
      <g transform="translate(7.2 45.414264) scale(0.1 -0.1)">
       <use xlink:href="#DejaVuSans-30"/>
       <use xlink:href="#DejaVuSans-2e" transform="translate(63.623047 0)"/>
       <use xlink:href="#DejaVuSans-30" transform="translate(95.410156 0)"/>
       <use xlink:href="#DejaVuSans-38" transform="translate(159.033203 0)"/>
      </g>
     </g>
    </g>
   </g>
   <g id="line2d_14">
    <path d="M 66.901989 270.306707 
L 67.199255 270.149031 
L 67.719471 269.604504 
L 69.05717 267.990187 
L 69.354436 268.018939 
L 69.726019 268.359344 
L 70.320552 269.352632 
L 71.286668 270.933685 
L 71.881201 271.507451 
L 72.475734 271.770736 
L 73.070266 271.766418 
L 73.664799 271.522516 
L 74.407965 270.946788 
L 75.522714 270.071816 
L 76.04293 269.967469 
L 76.563147 270.106152 
L 78.272428 270.777418 
L 78.866961 270.673833 
L 79.535811 270.303634 
L 81.170776 269.193923 
L 81.616675 269.241766 
L 82.062575 269.520729 
L 83.994807 271.056028 
L 84.515023 271.036871 
L 85.035239 270.770559 
L 85.555455 270.241792 
L 86.149988 269.267384 
L 86.818838 267.666269 
L 87.710637 265.466921 
L 88.007903 265.163469 
L 88.230853 265.182804 
L 88.528119 265.527796 
L 89.048336 266.693401 
L 89.865818 268.480971 
L 90.311718 268.997376 
L 90.683301 269.158062 
L 91.054884 269.10931 
L 91.500783 268.828668 
L 92.095316 268.164907 
L 92.838482 266.961719 
L 93.655965 265.199387 
L 95.142297 261.904962 
L 95.73683 261.232101 
L 96.702945 260.274819 
L 97.223162 259.334828 
L 97.892011 257.608912 
L 99.526976 253.106966 
L 100.047192 252.312381 
L 100.418775 252.061845 
L 100.790358 252.090938 
L 101.161941 252.392441 
L 101.607841 253.077028 
L 102.27669 254.59982 
L 104.060289 258.949023 
L 104.729138 259.872377 
L 105.769571 261.155158 
L 106.43842 262.498698 
L 107.924752 265.63268 
L 108.667918 266.641882 
L 109.411084 267.280625 
L 109.9313 267.479026 
L 110.3772 267.416329 
L 110.748783 267.137124 
L 111.120366 266.595645 
L 111.566265 265.560154 
L 112.755331 262.458417 
L 112.978281 262.420739 
L 113.201231 262.665256 
L 113.572814 263.557217 
L 114.836196 267.024663 
L 115.356412 267.768229 
L 115.876628 268.163074 
L 116.396844 268.299247 
L 116.917061 268.216448 
L 117.437277 267.914073 
L 118.03181 267.293229 
L 119.592458 265.414172 
L 119.964041 265.379876 
L 120.409941 265.624243 
L 121.970589 266.82476 
L 122.490806 266.832452 
L 123.011022 266.586924 
L 123.605555 266.02339 
L 125.091887 264.409263 
L 125.389153 264.421164 
L 125.760736 264.710517 
L 126.280952 265.506065 
L 127.395701 267.307969 
L 127.915917 267.731432 
L 128.361817 267.834863 
L 128.807717 267.715631 
L 129.253616 267.380791 
L 129.773832 266.685258 
L 130.294049 265.553655 
L 130.814265 263.817192 
L 132.077647 258.858217 
L 132.22628 258.832282 
L 132.374913 259.027876 
L 132.67218 259.988633 
L 134.084195 265.765076 
L 134.530095 266.447743 
L 134.901678 266.64174 
L 135.273261 266.5775 
L 135.71916 266.247473 
L 136.313693 265.499762 
L 137.056859 264.1781 
L 137.800025 262.398847 
L 139.43499 258.153689 
L 139.806573 257.899222 
L 140.178156 257.944551 
L 140.847006 258.074378 
L 141.144272 257.910469 
L 141.515855 257.415542 
L 141.961755 256.404174 
L 142.630604 254.252504 
L 144.191253 249.007829 
L 144.711469 247.985843 
L 145.083052 247.619519 
L 145.380319 247.559586 
L 145.677585 247.706702 
L 146.049168 248.168035 
L 146.569384 249.268311 
L 147.31255 251.484363 
L 148.724566 255.793534 
L 149.244782 256.740513 
L 149.690681 257.142522 
L 150.285214 257.301987 
L 150.731114 257.508393 
L 151.102697 257.968968 
L 151.622913 259.093039 
L 153.109245 262.633851 
L 153.852411 263.756705 
L 154.669894 264.608452 
L 155.264426 264.951647 
L 155.710326 264.950758 
L 156.081909 264.678022 
L 156.453492 264.043534 
L 156.825075 262.919416 
L 157.270975 260.803427 
L 158.162774 256.245307 
L 158.311407 256.103847 
L 158.46004 256.259327 
L 158.68299 256.982644 
L 159.277523 260.191504 
L 159.872056 262.818172 
L 160.392272 264.141476 
L 160.912488 264.844052 
L 161.432704 265.170477 
L 161.95292 265.239887 
L 162.473137 265.071158 
L 162.919036 264.702983 
L 163.439252 263.955673 
L 164.108102 262.515869 
L 164.851268 260.976645 
L 165.148534 260.714509 
L 165.445801 260.753586 
L 165.743067 261.059542 
L 166.486233 262.319725 
L 167.080766 263.096911 
L 167.526665 263.346912 
L 167.898248 263.329947 
L 168.344148 263.04959 
L 168.790048 262.491866 
L 169.38458 261.358091 
L 170.27638 259.598561 
L 170.573646 259.419548 
L 170.796596 259.527136 
L 171.093862 259.993292 
L 171.614078 261.414694 
L 172.505878 263.89193 
L 173.026094 264.744624 
L 173.471993 265.089653 
L 173.843576 265.141734 
L 174.289476 264.960429 
L 174.735376 264.526562 
L 175.181275 263.799694 
L 175.627175 262.650814 
L 176.073074 260.827748 
L 176.518974 258.003633 
L 177.410773 251.751646 
L 177.559406 251.732966 
L 177.70804 252.216363 
L 178.005306 254.325264 
L 178.897105 261.383916 
L 179.343005 263.248259 
L 179.788904 264.205766 
L 180.160487 264.516639 
L 180.53207 264.508455 
L 180.903653 264.262968 
L 181.42387 263.630264 
L 182.092719 262.458471 
L 182.835885 260.726815 
L 183.579051 258.438285 
L 184.6938 254.953557 
L 184.991066 254.6012 
L 185.214016 254.584846 
L 185.511283 254.82366 
L 186.403082 255.767805 
L 186.700348 255.728263 
L 186.997615 255.423859 
L 187.369198 254.684068 
L 187.889414 253.09306 
L 188.929846 248.939309 
L 189.821645 245.731009 
L 190.416178 244.368213 
L 190.787761 243.941014 
L 191.085028 243.852435 
L 191.382294 243.989442 
L 191.753877 244.464956 
L 192.199777 245.436946 
L 192.868626 247.524549 
L 194.726541 253.793641 
L 195.172441 254.560723 
L 195.544024 254.8258 
L 195.915607 254.793463 
L 196.733089 254.564356 
L 197.030356 254.81586 
L 197.401939 255.512301 
L 198.145105 257.592819 
L 199.036904 259.804692 
L 199.854387 261.214465 
L 200.746186 262.346444 
L 201.340719 262.835171 
L 201.786618 262.930848 
L 202.083885 262.778602 
L 202.381151 262.369163 
L 202.678417 261.59999 
L 203.05 259.926579 
L 203.4959 256.53287 
L 204.313383 249.714772 
L 204.387699 249.654052 
L 204.536332 249.991304 
L 204.759282 251.43389 
L 205.799715 259.486492 
L 206.245614 261.06427 
L 206.691514 261.93422 
L 207.21173 262.459935 
L 207.731946 262.675766 
L 208.252162 262.638585 
L 208.698062 262.360986 
L 209.143962 261.764121 
L 209.589861 260.740761 
L 210.184394 258.674962 
L 210.853243 256.35513 
L 211.15051 255.971285 
L 211.299143 256.008249 
L 211.522093 256.328733 
L 211.967992 257.570573 
L 212.711158 259.594694 
L 213.157058 260.200671 
L 213.528641 260.334049 
L 213.825907 260.217667 
L 214.19749 259.802555 
L 214.64339 258.895768 
L 215.163606 257.277659 
L 215.981089 254.621175 
L 216.204039 254.401605 
L 216.352672 254.475963 
L 216.575622 254.924876 
L 216.947205 256.374962 
L 218.061954 261.222232 
L 218.58217 262.419134 
L 219.028069 262.900217 
L 219.399652 262.991405 
L 219.771235 262.84949 
L 220.217135 262.402483 
L 220.663035 261.62783 
L 221.108934 260.385919 
L 221.554834 258.339469 
L 221.926417 255.589459 
L 222.446633 249.725732 
L 222.818216 246.056738 
L 222.966849 245.683459 
L 223.115482 246.175902 
L 223.412749 249.170593 
L 224.155915 257.622089 
L 224.601814 260.343696 
L 225.047714 261.791381 
L 225.419297 262.370183 
L 225.79088 262.551098 
L 226.162463 262.432851 
L 226.608363 261.990707 
L 227.202895 261.024302 
L 227.946061 259.352927 
L 228.689227 257.151928 
L 230.249876 252.109068 
L 230.547142 251.933791 
L 230.770092 252.063725 
L 231.215992 252.723929 
L 231.810525 253.515988 
L 232.107791 253.585599 
L 232.405057 253.371835 
L 232.77664 252.710902 
L 233.296857 251.154935 
L 234.114339 247.792236 
L 235.303405 243.005466 
L 235.897938 241.488516 
L 236.343837 240.932964 
L 236.641104 240.862899 
L 236.93837 241.033251 
L 237.309953 241.569033 
L 237.755853 242.635446 
L 238.424702 244.892697 
L 240.282617 251.577529 
L 240.728517 252.384905 
L 241.1001 252.653993 
L 241.397366 252.627843 
L 242.437798 252.292216 
L 242.735065 252.639265 
L 243.180964 253.645056 
L 244.890246 258.05107 
L 245.856362 259.659517 
L 246.673845 260.62364 
L 247.119744 260.864512 
L 247.417011 260.822701 
L 247.714277 260.538062 
L 248.011543 259.910018 
L 248.383126 258.426328 
L 248.754709 255.836529 
L 249.274926 250.145944 
L 249.646509 246.532627 
L 249.795142 246.05172 
L 249.869458 246.09535 
L 250.018092 246.722543 
L 250.389675 250.241053 
L 250.984207 255.668117 
L 251.430107 257.940235 
L 251.876007 259.194335 
L 252.396223 259.973929 
L 252.916439 260.351532 
L 253.362339 260.439559 
L 253.733922 260.326796 
L 254.105505 259.984888 
L 254.477088 259.324719 
L 254.922987 257.965898 
L 255.443203 255.529756 
L 256.112053 252.489555 
L 256.335003 252.186652 
L 256.483636 252.278762 
L 256.706586 252.806127 
L 257.301119 255.23927 
L 257.821335 256.935805 
L 258.192918 257.550301 
L 258.490184 257.705644 
L 258.787451 257.591496 
L 259.084717 257.219491 
L 259.4563 256.382341 
L 259.9022 254.808267 
L 260.942632 250.804023 
L 261.091265 250.785751 
L 261.239898 251.019617 
L 261.537165 252.16139 
L 263.097813 259.817316 
L 263.543713 260.641341 
L 263.915296 260.915763 
L 264.212562 260.91185 
L 264.584145 260.664221 
L 265.030045 260.028108 
L 265.475945 258.962528 
L 265.921844 257.253319 
L 266.367744 254.452866 
L 266.813643 250.052186 
L 267.408176 244.274643 
L 267.556809 244.11777 
L 267.705443 244.749294 
L 268.002709 247.725265 
L 268.745875 255.660645 
L 269.191775 258.243321 
L 269.637674 259.629721 
L 270.009257 260.177659 
L 270.306524 260.325162 
L 270.60379 260.266578 
L 270.975373 259.956426 
L 271.495589 259.17161 
L 272.164439 257.700079 
L 272.981921 255.291841 
L 274.54257 250.347042 
L 274.839836 250.121474 
L 275.062786 250.190906 
L 275.434369 250.607792 
L 276.103218 251.360289 
L 276.400485 251.381186 
L 276.697751 251.126352 
L 277.069334 250.415833 
L 277.58955 248.783008 
L 278.407033 245.290724 
L 279.521782 240.670659 
L 280.116315 239.112455 
L 280.487898 238.617102 
L 280.785164 238.508616 
L 281.082431 238.657067 
L 281.454014 239.188737 
L 281.899913 240.280848 
L 282.568763 242.619859 
L 284.352361 249.29811 
L 284.872577 250.289416 
L 285.24416 250.573753 
L 285.615743 250.57501 
L 286.284593 250.475754 
L 286.581859 250.68244 
L 286.953442 251.283069 
L 287.622291 252.995485 
L 288.662724 255.58968 
L 289.554523 257.20618 
L 290.297689 258.148576 
L 290.743589 258.428529 
L 291.040855 258.415068 
L 291.338121 258.167964 
L 291.635388 257.600424 
L 292.006971 256.271601 
L 292.378554 254.044572 
L 293.493303 246.416285 
L 293.641936 246.758373 
L 293.939202 248.576191 
L 294.831002 254.791418 
L 295.276901 256.437756 
L 295.722801 257.390635 
L 296.1687 257.917999 
L 296.6146 258.145632 
L 296.986183 258.119403 
L 297.357766 257.858636 
L 297.729349 257.293001 
L 298.175249 256.094665 
L 298.695465 253.944612 
L 299.364314 251.232024 
L 299.587264 250.912458 
L 299.735897 250.947339 
L 299.958847 251.340302 
L 300.404747 252.846726 
L 301.073596 254.908796 
L 301.445179 255.447093 
L 301.742445 255.548985 
L 302.039712 255.378764 
L 302.411295 254.79924 
L 302.857194 253.581433 
L 304.04626 249.881201 
L 304.194893 249.922883 
L 304.417843 250.362582 
L 304.789426 251.89687 
L 305.904175 257.068064 
L 306.350075 258.137723 
L 306.721658 258.567441 
L 307.018924 258.649407 
L 307.31619 258.524195 
L 307.687773 258.094757 
L 308.133673 257.162326 
L 308.579573 255.662665 
L 309.025472 253.363979 
L 309.620005 248.891076 
L 310.065905 245.955249 
L 310.288854 245.616799 
L 310.437488 245.968673 
L 310.734754 247.799452 
L 311.775186 255.407975 
L 312.221086 257.008269 
L 312.592669 257.696185 
L 312.964252 257.938147 
L 313.261518 257.875683 
L 313.633101 257.538987 
L 314.153318 256.684375 
L 314.822167 255.08154 
L 315.713966 252.287956 
L 316.605766 249.582969 
L 316.977349 248.995226 
L 317.274615 248.861924 
L 317.571881 248.965317 
L 318.389364 249.388743 
L 318.68663 249.242371 
L 318.983897 248.838104 
L 319.429796 247.742547 
L 320.024329 245.530682 
L 321.882244 237.946433 
L 322.328144 237.045155 
L 322.699727 236.749463 
L 322.996993 236.821806 
L 323.29426 237.161794 
L 323.665843 237.934218 
L 324.186059 239.554331 
L 325.226491 243.780238 
L 326.11829 247.020502 
L 326.638507 248.208552 
L 327.084406 248.732448 
L 327.604622 248.961185 
L 328.124839 249.239881 
L 328.496422 249.716261 
L 329.016638 250.800278 
L 330.651603 254.492018 
L 331.394769 255.564863 
L 331.914985 255.965722 
L 332.286568 255.972919 
L 332.583835 255.737508 
L 332.881101 255.220205 
L 333.252684 254.082273 
L 333.7729 251.530324 
L 334.44175 248.24729 
L 334.664699 247.952913 
L 334.813333 248.091188 
L 335.036282 248.738336 
L 335.630815 251.629263 
L 336.225348 254.043257 
L 336.745564 255.279082 
L 337.191464 255.842132 
L 337.637363 256.052305 
L 338.008946 255.973633 
L 338.380529 255.641502 
L 338.826429 254.861388 
L 339.420962 253.207838 
L 340.089811 251.373738 
L 340.387078 251.072427 
L 340.610027 251.152467 
L 340.907294 251.604706 
L 342.096359 253.913426 
L 342.393626 254.059635 
L 342.690892 253.982939 
L 343.062475 253.589793 
L 343.508375 252.732579 
L 344.623124 250.370943 
L 344.846074 250.370169 
L 345.069023 250.648476 
L 345.440606 251.645801 
L 346.778305 255.87545 
L 347.149888 256.358881 
L 347.447155 256.484492 
L 347.744421 256.392385 
L 348.116004 255.985118 
L 348.561904 255.062895 
L 349.08212 253.3231 
L 349.750969 250.065654 
L 350.271185 247.783004 
L 350.494135 247.418782 
L 350.642768 247.479555 
L 350.865718 248.017334 
L 351.237301 249.751674 
L 352.1291 254.062245 
L 352.575 255.204914 
L 352.946583 255.630218 
L 353.243849 255.680767 
L 353.541116 255.515572 
L 353.987015 254.936853 
L 354.581548 253.68967 
L 355.473347 251.158894 
L 356.365147 248.725363 
L 356.811046 248.062993 
L 357.182629 247.866671 
L 358.148745 247.633194 
L 358.520328 247.125023 
L 358.966228 246.020346 
L 359.56076 243.8099 
L 361.344359 236.571776 
L 361.790258 235.718203 
L 362.087525 235.502056 
L 362.384791 235.577789 
L 362.682058 235.93748 
L 363.053641 236.752566 
L 363.648173 238.728866 
L 365.654722 246.216075 
L 366.174938 247.173597 
L 366.843787 247.889768 
L 367.43832 248.632371 
L 368.032853 249.78677 
L 369.593501 252.995502 
L 370.188034 253.729251 
L 370.633934 253.976783 
L 370.9312 253.944395 
L 371.228467 253.712345 
L 371.60005 253.093453 
L 372.045949 251.864538 
L 372.937749 249.275014 
L 373.160698 249.133831 
L 373.383648 249.312372 
L 373.680915 249.963811 
L 375.167247 253.908821 
L 375.613146 254.366361 
L 375.984729 254.484525 
L 376.356312 254.373023 
L 376.727895 254.032307 
L 377.248111 253.206107 
L 378.214227 251.538731 
L 378.511494 251.395103 
L 378.80876 251.517676 
L 379.25466 252.055521 
L 380.072142 253.055417 
L 380.443725 253.190725 
L 380.815308 253.070968 
L 381.261208 252.620515 
L 382.598907 250.888518 
L 382.821856 250.934778 
L 383.119123 251.260222 
L 383.565022 252.189308 
L 384.531138 254.343498 
L 384.977038 254.801787 
L 385.274304 254.853323 
L 385.571571 254.702673 
L 385.943154 254.237483 
L 386.389053 253.285339 
L 386.983586 251.43196 
L 387.801069 248.945008 
L 388.024018 248.70802 
L 388.246968 248.784894 
L 388.469918 249.164621 
L 388.915818 250.533149 
L 389.7333 253.066424 
L 390.1792 253.754446 
L 390.476466 253.899364 
L 390.773733 253.818413 
L 391.145316 253.444381 
L 391.665532 252.516207 
L 392.483014 250.453285 
L 393.44913 248.064618 
L 393.969346 247.320057 
L 395.307045 245.928361 
L 395.752945 244.796694 
L 396.347478 242.587732 
L 398.056759 235.708785 
L 398.502659 234.897822 
L 398.799925 234.732044 
L 399.022875 234.810305 
L 399.320142 235.176666 
L 399.691725 236.01896 
L 400.286257 238.056724 
L 402.144172 245.111671 
L 402.738705 246.372226 
L 404.59662 249.691955 
L 405.637053 251.654471 
L 406.231585 252.348353 
L 406.677485 252.551802 
L 407.049068 252.4566 
L 407.420651 252.09123 
L 407.940867 251.188551 
L 408.609717 250.024228 
L 408.906983 249.858751 
L 409.129933 249.950863 
L 409.427199 250.335508 
L 410.096049 251.73734 
L 410.764898 252.927503 
L 411.210798 253.358878 
L 411.656697 253.483789 
L 412.02828 253.365046 
L 412.47418 252.988116 
L 413.811879 251.651328 
L 414.183462 251.702767 
L 414.703678 252.097075 
L 415.446844 252.662095 
L 415.892743 252.716679 
L 416.338643 252.506123 
L 417.007492 251.846409 
L 417.602025 251.324221 
L 417.973608 251.27708 
L 418.270875 251.459351 
L 418.716774 252.046206 
L 419.757207 253.566202 
L 420.12879 253.754869 
L 420.426056 253.708338 
L 420.797639 253.400975 
L 421.243539 252.6911 
L 421.912388 251.121397 
L 422.581237 249.680571 
L 422.878504 249.424745 
L 423.101454 249.462567 
L 423.39872 249.802702 
L 423.918936 250.87426 
L 424.587786 252.121624 
L 424.959369 252.428255 
L 425.256635 252.436478 
L 425.628218 252.169634 
L 426.074118 251.506542 
L 426.742967 250.030635 
L 428.080666 247.001643 
L 428.972465 245.763941 
L 429.492681 244.822696 
L 430.012898 243.34584 
L 430.681747 240.669295 
L 431.945129 235.44763 
L 432.391029 234.392606 
L 432.762612 234.035301 
L 432.985562 234.063793 
L 433.282828 234.380214 
L 433.654411 235.186507 
L 434.174627 236.923165 
L 436.329809 244.899231 
L 437.221608 246.74435 
L 439.451106 250.83036 
L 439.971322 251.237 
L 440.342905 251.286962 
L 440.714488 251.126629 
L 441.309021 250.551272 
L 441.903554 250.051856 
L 442.20082 250.034502 
L 442.498086 250.220287 
L 442.943986 250.794349 
L 443.984418 252.25144 
L 444.504635 252.573967 
L 444.950534 252.578051 
L 445.47075 252.316498 
L 446.659816 251.573571 
L 447.105716 251.626133 
L 447.923198 252.070049 
L 448.443414 252.233159 
L 448.889314 252.166657 
L 449.483847 251.815334 
L 450.375646 251.282901 
L 450.747229 251.3106 
L 451.193129 251.609954 
L 452.530827 252.759943 
L 452.90241 252.712215 
L 453.273993 252.431134 
L 453.79421 251.692764 
L 455.057592 249.665115 
L 455.354858 249.576996 
L 455.652125 249.7159 
L 456.172341 250.314869 
L 456.84119 251.028885 
L 457.212773 251.123436 
L 457.584356 250.940412 
L 458.030256 250.380166 
L 458.624789 249.202338 
L 460.408387 245.382013 
L 461.151553 243.878794 
L 461.746086 242.07449 
L 462.563568 238.645588 
L 463.529684 234.727208 
L 463.975584 233.65502 
L 464.27285 233.332168 
L 464.4958 233.311739 
L 464.71875 233.480746 
L 465.016016 233.985192 
L 465.461916 235.25543 
L 466.205082 238.224726 
L 467.394147 242.8883 
L 468.21163 245.109722 
L 469.697962 248.292939 
L 470.441128 249.488695 
L 470.961344 249.984309 
L 471.407244 250.13922 
L 471.853143 250.068575 
L 472.893576 249.781488 
L 473.265159 249.947827 
L 473.785375 250.460079 
L 474.825807 251.545188 
L 475.346024 251.756726 
L 475.86624 251.709133 
L 477.501205 251.290023 
L 478.467321 251.62591 
L 479.061854 251.678553 
L 479.656386 251.48273 
L 480.771135 251.03399 
L 481.217035 251.118135 
L 481.885884 251.525014 
L 482.554734 251.840276 
L 483.000633 251.777627 
L 483.446533 251.444084 
L 484.041066 250.669661 
L 484.932865 249.526211 
L 485.304448 249.354813 
L 485.676031 249.414251 
L 486.939413 249.867464 
L 487.310996 249.634144 
L 487.756896 249.050168 
L 488.425745 247.707457 
L 490.803877 242.004704 
L 491.472726 239.483279 
L 492.959058 233.479973 
L 493.404958 232.645465 
L 493.702224 232.51476 
L 493.925174 232.647642 
L 494.22244 233.118431 
L 494.66834 234.366964 
L 495.411506 237.346781 
L 496.600571 242.092065 
L 497.492371 244.66137 
L 498.60712 247.16259 
L 499.350286 248.359066 
L 499.944818 248.909566 
L 500.465035 249.10068 
L 501.728417 249.389834 
L 502.397266 249.950215 
L 503.363382 250.749523 
L 503.957915 250.927578 
L 504.626764 250.865592 
L 505.59288 250.779907 
L 507.673745 250.939 
L 509.011444 250.593978 
L 509.680293 250.764433 
L 510.423459 250.942508 
L 510.869359 250.836848 
L 511.389575 250.444807 
L 513.098857 248.810473 
L 513.693389 248.772656 
L 514.287922 248.709687 
L 514.733822 248.413646 
L 515.179721 247.829109 
L 515.848571 246.495867 
L 517.334903 242.814348 
L 518.078069 240.518115 
L 518.895551 237.146151 
L 519.935984 232.913499 
L 520.381883 231.901562 
L 520.67915 231.653201 
L 520.9021 231.70622 
L 521.199366 232.087853 
L 521.570949 233.011398 
L 522.165482 235.228236 
L 523.874764 242.07835 
L 524.766563 244.592477 
L 525.658362 246.494305 
L 526.327211 247.452657 
L 526.921744 247.957526 
L 529.002609 249.354252 
L 529.820092 249.89861 
L 530.488941 250.061082 
L 533.758871 250.190837 
L 535.022254 249.941292 
L 536.508586 249.888885 
L 537.028802 249.545727 
L 539.183983 247.772942 
L 539.852833 247.369309 
L 540.373049 246.746146 
L 540.967582 245.623652 
L 541.859381 243.389311 
L 542.899813 240.25281 
L 543.717296 237.009136 
L 544.980678 231.811794 
L 545.426578 230.862331 
L 545.723844 230.674172 
L 545.946794 230.77994 
L 546.24406 231.237098 
L 546.68996 232.504354 
L 547.433126 235.557741 
L 548.696508 240.736724 
L 549.588307 243.444771 
L 550.40579 245.271037 
L 551.148956 246.389563 
L 551.966439 247.179589 
L 554.195937 248.89446 
L 555.013419 249.118227 
L 557.317234 249.381449 
L 559.843998 248.938984 
L 560.438531 248.655309 
L 561.10738 248.066582 
L 563.782778 245.183778 
L 564.451627 243.723234 
L 565.343427 241.182125 
L 566.235226 238.0347 
L 568.390407 229.806837 
L 568.687674 229.563757 
L 568.910623 229.635039 
L 569.20789 230.058494 
L 569.579473 231.052185 
L 570.174006 233.38047 
L 571.883287 240.444684 
L 572.70077 242.824375 
L 573.443936 244.397156 
L 574.261419 245.595824 
L 575.450484 246.87076 
L 576.342283 247.568982 
L 577.159766 247.928308 
L 578.571781 248.249432 
L 579.463581 248.242866 
L 580.875596 247.919441 
L 581.841712 247.55963 
L 582.510561 247.047575 
L 583.62531 245.817305 
L 584.740059 244.373695 
L 585.408909 243.076699 
L 586.152075 241.072454 
L 587.043874 237.987185 
L 588.00999 233.791029 
L 589.050422 229.473702 
L 589.496322 228.462484 
L 589.793588 228.240549 
L 590.016538 228.329316 
L 590.313804 228.784065 
L 590.685387 229.832285 
L 591.354237 232.598084 
L 592.766252 238.596222 
L 593.658051 241.356628 
L 594.475534 243.175292 
L 595.367333 244.590811 
L 596.259132 245.620655 
L 597.076615 246.247458 
L 597.968414 246.63865 
L 598.93453 246.82707 
L 599.752012 246.769287 
L 600.792445 246.465731 
L 601.684244 246.005526 
L 602.353094 245.408865 
L 603.244893 244.277713 
L 604.211009 242.702947 
L 604.879858 241.197062 
L 605.623024 238.951995 
L 606.514823 235.507467 
L 608.595688 227.001957 
L 608.892954 226.630751 
L 609.115904 226.617001 
L 609.338854 226.830578 
L 609.63612 227.444368 
L 610.08202 228.937506 
L 611.048136 233.27059 
L 612.088568 237.552664 
L 612.906051 240.049807 
L 613.723533 241.861844 
L 614.541016 243.164046 
L 615.358499 244.05479 
L 616.175981 244.601284 
L 616.993464 244.878558 
L 617.73663 244.896012 
L 618.554112 244.665423 
L 619.371595 244.202505 
L 620.040444 243.587195 
L 620.78361 242.584277 
L 621.601093 241.102412 
L 622.344259 239.310926 
L 623.087425 236.912252 
L 623.979224 233.204916 
L 625.762823 225.332802 
L 626.134406 224.598026 
L 626.357355 224.456591 
L 626.580305 224.550269 
L 626.877572 225.026629 
L 627.249155 226.109998 
L 627.918004 228.932453 
L 629.404336 235.407067 
L 630.221819 237.968416 
L 631.039301 239.808064 
L 631.782467 240.960521 
L 632.525633 241.702122 
L 633.194483 242.076522 
L 633.863332 242.190571 
L 634.457865 242.075178 
L 635.126714 241.713308 
L 635.795564 241.091183 
L 636.464413 240.151524 
L 637.207579 238.683638 
L 637.950745 236.70532 
L 638.693911 234.079817 
L 639.58571 230.048328 
L 641.146359 222.706704 
L 641.592258 221.65422 
L 641.889525 221.453626 
L 642.112475 221.57749 
L 642.409741 222.094939 
L 642.855641 223.500787 
L 643.673123 227.136094 
L 644.862189 232.229971 
L 645.679671 234.771358 
L 646.422837 236.369528 
L 647.091687 237.295464 
L 647.68622 237.762583 
L 648.206436 237.916115 
L 648.652335 237.848996 
L 649.172552 237.539535 
L 649.767084 236.904329 
L 650.361617 235.940454 
L 651.030467 234.410125 
L 651.699316 232.321407 
L 652.442482 229.290271 
L 653.408598 224.319562 
L 654.597663 218.235871 
L 655.043563 216.881265 
L 655.340829 216.475395 
L 655.563779 216.45271 
L 655.786729 216.662235 
L 656.083995 217.274881 
L 656.529895 218.752831 
L 658.908026 227.747444 
L 659.502559 228.87047 
L 660.022775 229.39946 
L 660.468675 229.531987 
L 660.840258 229.421504 
L 661.211841 229.091784 
L 661.657741 228.401459 
L 662.252273 227.033508 
L 662.846806 225.050746 
L 663.515656 222.016217 
L 664.333138 217.231901 
L 666.339686 204.52761 
L 666.785586 203.168802 
L 667.157169 202.570537 
L 667.305802 202.530009 
L 667.528752 202.584324 
L 667.677385 202.597686 
L 668.643501 203.014842 
L 669.31235 201.854493 
L 669.75825 199.82075 
L 670.20415 196.334158 
L 670.575733 191.796588 
L 670.947316 185.210738 
L 671.318899 174.803655 
L 671.764798 155.606144 
L 672.210698 125.91161 
L 673.399763 27.355946 
L 673.69703 22.526807 
L 673.994296 20.757759 
L 674.291563 20.131921 
L 674.663146 19.8862 
L 675.331995 19.805025 
L 675.629261 19.8 
L 675.629261 19.8 
" clip-path="url(#pf1997ab880)" style="fill: none; stroke: #1f77b4; stroke-width: 1.5; stroke-linecap: square"/>
   </g>
   <g id="line2d_15">
    <path d="M 36.465625 198.977414 
L 706.065625 198.977414 
" clip-path="url(#pf1997ab880)" style="fill: none; stroke-dasharray: 2.22,0.96; stroke-dashoffset: 0; stroke: #ff0000; stroke-width: 0.6"/>
   </g>
   <g id="line2d_16">
    <path d="M 66.901989 270.306707 
L 67.199255 270.149031 
L 67.719471 269.604504 
L 69.05717 267.990187 
L 69.354436 268.018939 
L 69.726019 268.359344 
L 70.320552 269.352632 
L 71.286668 270.933685 
L 71.881201 271.507451 
L 72.475734 271.770736 
L 73.070266 271.766418 
L 73.664799 271.522516 
L 74.407965 270.946788 
L 75.522714 270.071816 
L 76.04293 269.967469 
L 76.563147 270.106152 
L 78.272428 270.777418 
L 78.866961 270.673833 
L 79.535811 270.303634 
L 81.170776 269.193923 
L 81.616675 269.241766 
L 82.062575 269.520729 
L 83.994807 271.056028 
L 84.515023 271.036871 
L 85.035239 270.770559 
L 85.555455 270.241792 
L 86.149988 269.267384 
L 86.818838 267.666269 
L 87.710637 265.466921 
L 88.007903 265.163469 
L 88.230853 265.182804 
L 88.528119 265.527796 
L 89.048336 266.693401 
L 89.865818 268.480971 
L 90.311718 268.997376 
L 90.683301 269.158062 
L 91.054884 269.10931 
L 91.500783 268.828668 
L 92.095316 268.164907 
L 92.838482 266.961719 
L 93.655965 265.199387 
L 95.142297 261.904962 
L 95.73683 261.232101 
L 96.702945 260.274819 
L 97.223162 259.334828 
L 97.892011 257.608912 
L 99.526976 253.106966 
L 100.047192 252.312381 
L 100.418775 252.061845 
L 100.790358 252.090938 
L 101.161941 252.392441 
L 101.607841 253.077028 
L 102.27669 254.59982 
L 104.060289 258.949023 
L 104.729138 259.872377 
L 105.769571 261.155158 
L 106.43842 262.498698 
L 107.924752 265.63268 
L 108.667918 266.641882 
L 109.411084 267.280625 
L 109.9313 267.479026 
L 110.3772 267.416329 
L 110.748783 267.137124 
L 111.120366 266.595645 
L 111.566265 265.560154 
L 112.755331 262.458417 
L 112.978281 262.420739 
L 113.201231 262.665256 
L 113.572814 263.557217 
L 114.836196 267.024663 
L 115.356412 267.768229 
L 115.876628 268.163074 
L 116.396844 268.299247 
L 116.917061 268.216448 
L 117.437277 267.914073 
L 118.03181 267.293229 
L 119.592458 265.414172 
L 119.964041 265.379876 
L 120.409941 265.624243 
L 121.970589 266.82476 
L 122.490806 266.832452 
L 123.011022 266.586924 
L 123.605555 266.02339 
L 125.091887 264.409263 
L 125.389153 264.421164 
L 125.760736 264.710517 
L 126.280952 265.506065 
L 127.395701 267.307969 
L 127.915917 267.731432 
L 128.361817 267.834863 
L 128.807717 267.715631 
L 129.253616 267.380791 
L 129.773832 266.685258 
L 130.294049 265.553655 
L 130.814265 263.817192 
L 132.077647 258.858217 
L 132.22628 258.832282 
L 132.374913 259.027876 
L 132.67218 259.988633 
L 134.084195 265.765076 
L 134.530095 266.447743 
L 134.901678 266.64174 
L 135.273261 266.5775 
L 135.71916 266.247473 
L 136.313693 265.499762 
L 137.056859 264.1781 
L 137.800025 262.398847 
L 139.43499 258.153689 
L 139.806573 257.899222 
L 140.178156 257.944551 
L 140.847006 258.074378 
L 141.144272 257.910469 
L 141.515855 257.415542 
L 141.961755 256.404174 
L 142.630604 254.252504 
L 144.191253 249.007829 
L 144.711469 247.985843 
L 145.083052 247.619519 
L 145.380319 247.559586 
L 145.677585 247.706702 
L 146.049168 248.168035 
L 146.569384 249.268311 
L 147.31255 251.484363 
L 148.724566 255.793534 
L 149.244782 256.740513 
L 149.690681 257.142522 
L 150.285214 257.301987 
L 150.731114 257.508393 
L 151.102697 257.968968 
L 151.622913 259.093039 
L 153.109245 262.633851 
L 153.852411 263.756705 
L 154.669894 264.608452 
L 155.264426 264.951647 
L 155.710326 264.950758 
L 156.081909 264.678022 
L 156.453492 264.043534 
L 156.825075 262.919416 
L 157.270975 260.803427 
L 158.162774 256.245307 
L 158.311407 256.103847 
L 158.46004 256.259327 
L 158.68299 256.982644 
L 159.277523 260.191504 
L 159.872056 262.818172 
L 160.392272 264.141476 
L 160.912488 264.844052 
L 161.432704 265.170477 
L 161.95292 265.239887 
L 162.473137 265.071158 
L 162.919036 264.702983 
L 163.439252 263.955673 
L 164.108102 262.515869 
L 164.851268 260.976645 
L 165.148534 260.714509 
L 165.445801 260.753586 
L 165.743067 261.059542 
L 166.486233 262.319725 
L 167.080766 263.096911 
L 167.526665 263.346912 
L 167.898248 263.329947 
L 168.344148 263.04959 
L 168.790048 262.491866 
L 169.38458 261.358091 
L 170.27638 259.598561 
L 170.573646 259.419548 
L 170.796596 259.527136 
L 171.093862 259.993292 
L 171.614078 261.414694 
L 172.505878 263.89193 
L 173.026094 264.744624 
L 173.471993 265.089653 
L 173.843576 265.141734 
L 174.289476 264.960429 
L 174.735376 264.526562 
L 175.181275 263.799694 
L 175.627175 262.650814 
L 176.073074 260.827748 
L 176.518974 258.003633 
L 177.410773 251.751646 
L 177.559406 251.732966 
L 177.70804 252.216363 
L 178.005306 254.325264 
L 178.897105 261.383916 
L 179.343005 263.248259 
L 179.788904 264.205766 
L 180.160487 264.516639 
L 180.53207 264.508455 
L 180.903653 264.262968 
L 181.42387 263.630264 
L 182.092719 262.458471 
L 182.835885 260.726815 
L 183.579051 258.438285 
L 184.6938 254.953557 
L 184.991066 254.6012 
L 185.214016 254.584846 
L 185.511283 254.82366 
L 186.403082 255.767805 
L 186.700348 255.728263 
L 186.997615 255.423859 
L 187.369198 254.684068 
L 187.889414 253.09306 
L 188.929846 248.939309 
L 189.821645 245.731009 
L 190.416178 244.368213 
L 190.787761 243.941014 
L 191.085028 243.852435 
L 191.382294 243.989442 
L 191.753877 244.464956 
L 192.199777 245.436946 
L 192.868626 247.524549 
L 194.726541 253.793641 
L 195.172441 254.560723 
L 195.544024 254.8258 
L 195.915607 254.793463 
L 196.733089 254.564356 
L 197.030356 254.81586 
L 197.401939 255.512301 
L 198.145105 257.592819 
L 199.036904 259.804692 
L 199.854387 261.214465 
L 200.746186 262.346444 
L 201.340719 262.835171 
L 201.786618 262.930848 
L 202.083885 262.778602 
L 202.381151 262.369163 
L 202.678417 261.59999 
L 203.05 259.926579 
L 203.4959 256.53287 
L 204.313383 249.714772 
L 204.387699 249.654052 
L 204.536332 249.991304 
L 204.759282 251.43389 
L 205.799715 259.486492 
L 206.245614 261.06427 
L 206.691514 261.93422 
L 207.21173 262.459935 
L 207.731946 262.675766 
L 208.252162 262.638585 
L 208.698062 262.360986 
L 209.143962 261.764121 
L 209.589861 260.740761 
L 210.184394 258.674962 
L 210.853243 256.35513 
L 211.15051 255.971285 
L 211.299143 256.008249 
L 211.522093 256.328733 
L 211.967992 257.570573 
L 212.711158 259.594694 
L 213.157058 260.200671 
L 213.528641 260.334049 
L 213.825907 260.217667 
L 214.19749 259.802555 
L 214.64339 258.895768 
L 215.163606 257.277659 
L 215.981089 254.621175 
L 216.204039 254.401605 
L 216.352672 254.475963 
L 216.575622 254.924876 
L 216.947205 256.374962 
L 218.061954 261.222232 
L 218.58217 262.419134 
L 219.028069 262.900217 
L 219.399652 262.991405 
L 219.771235 262.84949 
L 220.217135 262.402483 
L 220.663035 261.62783 
L 221.108934 260.385919 
L 221.554834 258.339469 
L 221.926417 255.589459 
L 222.446633 249.725732 
L 222.818216 246.056738 
L 222.966849 245.683459 
L 223.115482 246.175902 
L 223.412749 249.170593 
L 224.155915 257.622089 
L 224.601814 260.343696 
L 225.047714 261.791381 
L 225.419297 262.370183 
L 225.79088 262.551098 
L 226.162463 262.432851 
L 226.608363 261.990707 
L 227.202895 261.024302 
L 227.946061 259.352927 
L 228.689227 257.151928 
L 230.249876 252.109068 
L 230.547142 251.933791 
L 230.770092 252.063725 
L 231.215992 252.723929 
L 231.810525 253.515988 
L 232.107791 253.585599 
L 232.405057 253.371835 
L 232.77664 252.710902 
L 233.296857 251.154935 
L 234.114339 247.792236 
L 235.303405 243.005466 
L 235.897938 241.488516 
L 236.343837 240.932964 
L 236.641104 240.862899 
L 236.93837 241.033251 
L 237.309953 241.569033 
L 237.755853 242.635446 
L 238.424702 244.892697 
L 240.282617 251.577529 
L 240.728517 252.384905 
L 241.1001 252.653993 
L 241.397366 252.627843 
L 242.437798 252.292216 
L 242.735065 252.639265 
L 243.180964 253.645056 
L 244.890246 258.05107 
L 245.856362 259.659517 
L 246.673845 260.62364 
L 247.119744 260.864512 
L 247.417011 260.822701 
L 247.714277 260.538062 
L 248.011543 259.910018 
L 248.383126 258.426328 
L 248.754709 255.836529 
L 249.274926 250.145944 
L 249.646509 246.532627 
L 249.795142 246.05172 
L 249.869458 246.09535 
L 250.018092 246.722543 
L 250.389675 250.241053 
L 250.984207 255.668117 
L 251.430107 257.940235 
L 251.876007 259.194335 
L 252.396223 259.973929 
L 252.916439 260.351532 
L 253.362339 260.439559 
L 253.733922 260.326796 
L 254.105505 259.984888 
L 254.477088 259.324719 
L 254.922987 257.965898 
L 255.443203 255.529756 
L 256.112053 252.489555 
L 256.335003 252.186652 
L 256.483636 252.278762 
L 256.706586 252.806127 
L 257.301119 255.23927 
L 257.821335 256.935805 
L 258.192918 257.550301 
L 258.490184 257.705644 
L 258.787451 257.591496 
L 259.084717 257.219491 
L 259.4563 256.382341 
L 259.9022 254.808267 
L 260.942632 250.804023 
L 261.091265 250.785751 
L 261.239898 251.019617 
L 261.537165 252.16139 
L 263.097813 259.817316 
L 263.543713 260.641341 
L 263.915296 260.915763 
L 264.212562 260.91185 
L 264.584145 260.664221 
L 265.030045 260.028108 
L 265.475945 258.962528 
L 265.921844 257.253319 
L 266.367744 254.452866 
L 266.813643 250.052186 
L 267.408176 244.274643 
L 267.556809 244.11777 
L 267.705443 244.749294 
L 268.002709 247.725265 
L 268.745875 255.660645 
L 269.191775 258.243321 
L 269.637674 259.629721 
L 270.009257 260.177659 
L 270.306524 260.325162 
L 270.60379 260.266578 
L 270.975373 259.956426 
L 271.495589 259.17161 
L 272.164439 257.700079 
L 272.981921 255.291841 
L 274.54257 250.347042 
L 274.839836 250.121474 
L 275.062786 250.190906 
L 275.434369 250.607792 
L 276.103218 251.360289 
L 276.400485 251.381186 
L 276.697751 251.126352 
L 277.069334 250.415833 
L 277.58955 248.783008 
L 278.407033 245.290724 
L 279.521782 240.670659 
L 280.116315 239.112455 
L 280.487898 238.617102 
L 280.785164 238.508616 
L 281.082431 238.657067 
L 281.454014 239.188737 
L 281.899913 240.280848 
L 282.568763 242.619859 
L 284.352361 249.29811 
L 284.872577 250.289416 
L 285.24416 250.573753 
L 285.615743 250.57501 
L 286.284593 250.475754 
L 286.581859 250.68244 
L 286.953442 251.283069 
L 287.622291 252.995485 
L 288.662724 255.58968 
L 289.554523 257.20618 
L 290.297689 258.148576 
L 290.743589 258.428529 
L 291.040855 258.415068 
L 291.338121 258.167964 
L 291.635388 257.600424 
L 292.006971 256.271601 
L 292.378554 254.044572 
L 293.493303 246.416285 
L 293.641936 246.758373 
L 293.939202 248.576191 
L 294.831002 254.791418 
L 295.276901 256.437756 
L 295.722801 257.390635 
L 296.1687 257.917999 
L 296.6146 258.145632 
L 296.986183 258.119403 
L 297.357766 257.858636 
L 297.729349 257.293001 
L 298.175249 256.094665 
L 298.695465 253.944612 
L 299.364314 251.232024 
L 299.587264 250.912458 
L 299.735897 250.947339 
L 299.958847 251.340302 
L 300.404747 252.846726 
L 301.073596 254.908796 
L 301.445179 255.447093 
L 301.742445 255.548985 
L 302.039712 255.378764 
L 302.411295 254.79924 
L 302.857194 253.581433 
L 304.04626 249.881201 
L 304.194893 249.922883 
L 304.417843 250.362582 
L 304.789426 251.89687 
L 305.904175 257.068064 
L 306.350075 258.137723 
L 306.721658 258.567441 
L 307.018924 258.649407 
L 307.31619 258.524195 
L 307.687773 258.094757 
L 308.133673 257.162326 
L 308.579573 255.662665 
L 309.025472 253.363979 
L 309.620005 248.891076 
L 310.065905 245.955249 
L 310.288854 245.616799 
L 310.437488 245.968673 
L 310.734754 247.799452 
L 311.775186 255.407975 
L 312.221086 257.008269 
L 312.592669 257.696185 
L 312.964252 257.938147 
L 313.261518 257.875683 
L 313.633101 257.538987 
L 314.153318 256.684375 
L 314.822167 255.08154 
L 315.713966 252.287956 
L 316.605766 249.582969 
L 316.977349 248.995226 
L 317.274615 248.861924 
L 317.571881 248.965317 
L 318.389364 249.388743 
L 318.68663 249.242371 
L 318.983897 248.838104 
L 319.429796 247.742547 
L 320.024329 245.530682 
L 321.882244 237.946433 
L 322.328144 237.045155 
L 322.699727 236.749463 
L 322.996993 236.821806 
L 323.29426 237.161794 
L 323.665843 237.934218 
L 324.186059 239.554331 
L 325.226491 243.780238 
L 326.11829 247.020502 
L 326.638507 248.208552 
L 327.084406 248.732448 
L 327.604622 248.961185 
L 328.124839 249.239881 
L 328.496422 249.716261 
L 329.016638 250.800278 
L 330.651603 254.492018 
L 331.394769 255.564863 
L 331.914985 255.965722 
L 332.286568 255.972919 
L 332.583835 255.737508 
L 332.881101 255.220205 
L 333.252684 254.082273 
L 333.7729 251.530324 
L 334.44175 248.24729 
L 334.664699 247.952913 
L 334.813333 248.091188 
L 335.036282 248.738336 
L 335.630815 251.629263 
L 336.225348 254.043257 
L 336.745564 255.279082 
L 337.191464 255.842132 
L 337.637363 256.052305 
L 338.008946 255.973633 
L 338.380529 255.641502 
L 338.826429 254.861388 
L 339.420962 253.207838 
L 340.089811 251.373738 
L 340.387078 251.072427 
L 340.610027 251.152467 
L 340.907294 251.604706 
L 342.096359 253.913426 
L 342.393626 254.059635 
L 342.690892 253.982939 
L 343.062475 253.589793 
L 343.508375 252.732579 
L 344.623124 250.370943 
L 344.846074 250.370169 
L 345.069023 250.648476 
L 345.440606 251.645801 
L 346.778305 255.87545 
L 347.149888 256.358881 
L 347.447155 256.484492 
L 347.744421 256.392385 
L 348.116004 255.985118 
L 348.561904 255.062895 
L 349.08212 253.3231 
L 349.750969 250.065654 
L 350.271185 247.783004 
L 350.494135 247.418782 
L 350.642768 247.479555 
L 350.865718 248.017334 
L 351.237301 249.751674 
L 352.1291 254.062245 
L 352.575 255.204914 
L 352.946583 255.630218 
L 353.243849 255.680767 
L 353.541116 255.515572 
L 353.987015 254.936853 
L 354.581548 253.68967 
L 355.473347 251.158894 
L 356.365147 248.725363 
L 356.811046 248.062993 
L 357.182629 247.866671 
L 358.148745 247.633194 
L 358.520328 247.125023 
L 358.966228 246.020346 
L 359.56076 243.8099 
L 361.344359 236.571776 
L 361.790258 235.718203 
L 362.087525 235.502056 
L 362.384791 235.577789 
L 362.682058 235.93748 
L 363.053641 236.752566 
L 363.648173 238.728866 
L 365.654722 246.216075 
L 366.174938 247.173597 
L 366.843787 247.889768 
L 367.43832 248.632371 
L 368.032853 249.78677 
L 369.593501 252.995502 
L 370.188034 253.729251 
L 370.633934 253.976783 
L 370.9312 253.944395 
L 371.228467 253.712345 
L 371.60005 253.093453 
L 372.045949 251.864538 
L 372.937749 249.275014 
L 373.160698 249.133831 
L 373.383648 249.312372 
L 373.680915 249.963811 
L 375.167247 253.908821 
L 375.613146 254.366361 
L 375.984729 254.484525 
L 376.356312 254.373023 
L 376.727895 254.032307 
L 377.248111 253.206107 
L 378.214227 251.538731 
L 378.511494 251.395103 
L 378.80876 251.517676 
L 379.25466 252.055521 
L 380.072142 253.055417 
L 380.443725 253.190725 
L 380.815308 253.070968 
L 381.261208 252.620515 
L 382.598907 250.888518 
L 382.821856 250.934778 
L 383.119123 251.260222 
L 383.565022 252.189308 
L 384.531138 254.343498 
L 384.977038 254.801787 
L 385.274304 254.853323 
L 385.571571 254.702673 
L 385.943154 254.237483 
L 386.389053 253.285339 
L 386.983586 251.43196 
L 387.801069 248.945008 
L 388.024018 248.70802 
L 388.246968 248.784894 
L 388.469918 249.164621 
L 388.915818 250.533149 
L 389.7333 253.066424 
L 390.1792 253.754446 
L 390.476466 253.899364 
L 390.773733 253.818413 
L 391.145316 253.444381 
L 391.665532 252.516207 
L 392.483014 250.453285 
L 393.44913 248.064618 
L 393.969346 247.320057 
L 395.307045 245.928361 
L 395.752945 244.796694 
L 396.347478 242.587732 
L 398.056759 235.708785 
L 398.502659 234.897822 
L 398.799925 234.732044 
L 399.022875 234.810305 
L 399.320142 235.176666 
L 399.691725 236.01896 
L 400.286257 238.056724 
L 402.144172 245.111671 
L 402.738705 246.372226 
L 404.59662 249.691955 
L 405.637053 251.654471 
L 406.231585 252.348353 
L 406.677485 252.551802 
L 407.049068 252.4566 
L 407.420651 252.09123 
L 407.940867 251.188551 
L 408.609717 250.024228 
L 408.906983 249.858751 
L 409.129933 249.950863 
L 409.427199 250.335508 
L 410.096049 251.73734 
L 410.764898 252.927503 
L 411.210798 253.358878 
L 411.656697 253.483789 
L 412.02828 253.365046 
L 412.47418 252.988116 
L 413.811879 251.651328 
L 414.183462 251.702767 
L 414.703678 252.097075 
L 415.446844 252.662095 
L 415.892743 252.716679 
L 416.338643 252.506123 
L 417.007492 251.846409 
L 417.602025 251.324221 
L 417.973608 251.27708 
L 418.270875 251.459351 
L 418.716774 252.046206 
L 419.757207 253.566202 
L 420.12879 253.754869 
L 420.426056 253.708338 
L 420.797639 253.400975 
L 421.243539 252.6911 
L 421.912388 251.121397 
L 422.581237 249.680571 
L 422.878504 249.424745 
L 423.101454 249.462567 
L 423.39872 249.802702 
L 423.918936 250.87426 
L 424.587786 252.121624 
L 424.959369 252.428255 
L 425.256635 252.436478 
L 425.628218 252.169634 
L 426.074118 251.506542 
L 426.742967 250.030635 
L 428.080666 247.001643 
L 428.972465 245.763941 
L 429.492681 244.822696 
L 430.012898 243.34584 
L 430.681747 240.669295 
L 431.945129 235.44763 
L 432.391029 234.392606 
L 432.762612 234.035301 
L 432.985562 234.063793 
L 433.282828 234.380214 
L 433.654411 235.186507 
L 434.174627 236.923165 
L 436.329809 244.899231 
L 437.221608 246.74435 
L 439.451106 250.83036 
L 439.971322 251.237 
L 440.342905 251.286962 
L 440.714488 251.126629 
L 441.309021 250.551272 
L 441.903554 250.051856 
L 442.20082 250.034502 
L 442.498086 250.220287 
L 442.943986 250.794349 
L 443.984418 252.25144 
L 444.504635 252.573967 
L 444.950534 252.578051 
L 445.47075 252.316498 
L 446.659816 251.573571 
L 447.105716 251.626133 
L 447.923198 252.070049 
L 448.443414 252.233159 
L 448.889314 252.166657 
L 449.483847 251.815334 
L 450.375646 251.282901 
L 450.747229 251.3106 
L 451.193129 251.609954 
L 452.530827 252.759943 
L 452.90241 252.712215 
L 453.273993 252.431134 
L 453.79421 251.692764 
L 455.057592 249.665115 
L 455.354858 249.576996 
L 455.652125 249.7159 
L 456.172341 250.314869 
L 456.84119 251.028885 
L 457.212773 251.123436 
L 457.584356 250.940412 
L 458.030256 250.380166 
L 458.624789 249.202338 
L 460.408387 245.382013 
L 461.151553 243.878794 
L 461.746086 242.07449 
L 462.563568 238.645588 
L 463.529684 234.727208 
L 463.975584 233.65502 
L 464.27285 233.332168 
L 464.4958 233.311739 
L 464.71875 233.480746 
L 465.016016 233.985192 
L 465.461916 235.25543 
L 466.205082 238.224726 
L 467.394147 242.8883 
L 468.21163 245.109722 
L 469.697962 248.292939 
L 470.441128 249.488695 
L 470.961344 249.984309 
L 471.407244 250.13922 
L 471.853143 250.068575 
L 472.893576 249.781488 
L 473.265159 249.947827 
L 473.785375 250.460079 
L 474.825807 251.545188 
L 475.346024 251.756726 
L 475.86624 251.709133 
L 477.501205 251.290023 
L 478.467321 251.62591 
L 479.061854 251.678553 
L 479.656386 251.48273 
L 480.771135 251.03399 
L 481.217035 251.118135 
L 481.885884 251.525014 
L 482.554734 251.840276 
L 483.000633 251.777627 
L 483.446533 251.444084 
L 484.041066 250.669661 
L 484.932865 249.526211 
L 485.304448 249.354813 
L 485.676031 249.414251 
L 486.939413 249.867464 
L 487.310996 249.634144 
L 487.756896 249.050168 
L 488.425745 247.707457 
L 490.803877 242.004704 
L 491.472726 239.483279 
L 492.959058 233.479973 
L 493.404958 232.645465 
L 493.702224 232.51476 
L 493.925174 232.647642 
L 494.22244 233.118431 
L 494.66834 234.366964 
L 495.411506 237.346781 
L 496.600571 242.092065 
L 497.492371 244.66137 
L 498.60712 247.16259 
L 499.350286 248.359066 
L 499.944818 248.909566 
L 500.465035 249.10068 
L 501.728417 249.389834 
L 502.397266 249.950215 
L 503.363382 250.749523 
L 503.957915 250.927578 
L 504.626764 250.865592 
L 505.59288 250.779907 
L 507.673745 250.939 
L 509.011444 250.593978 
L 509.680293 250.764433 
L 510.423459 250.942508 
L 510.869359 250.836848 
L 511.389575 250.444807 
L 513.098857 248.810473 
L 513.693389 248.772656 
L 514.287922 248.709687 
L 514.733822 248.413646 
L 515.179721 247.829109 
L 515.848571 246.495867 
L 517.334903 242.814348 
L 518.078069 240.518115 
L 518.895551 237.146151 
L 519.935984 232.913499 
L 520.381883 231.901562 
L 520.67915 231.653201 
L 520.9021 231.70622 
L 521.199366 232.087853 
L 521.570949 233.011398 
L 522.165482 235.228236 
L 523.874764 242.07835 
L 524.766563 244.592477 
L 525.658362 246.494305 
L 526.327211 247.452657 
L 526.921744 247.957526 
L 529.002609 249.354252 
L 529.820092 249.89861 
L 530.488941 250.061082 
L 533.758871 250.190837 
L 535.022254 249.941292 
L 536.508586 249.888885 
L 537.028802 249.545727 
L 539.183983 247.772942 
L 539.852833 247.369309 
L 540.373049 246.746146 
L 540.967582 245.623652 
L 541.859381 243.389311 
L 542.899813 240.25281 
L 543.717296 237.009136 
L 544.980678 231.811794 
L 545.426578 230.862331 
L 545.723844 230.674172 
L 545.946794 230.77994 
L 546.24406 231.237098 
L 546.68996 232.504354 
L 547.433126 235.557741 
L 548.696508 240.736724 
L 549.588307 243.444771 
L 550.40579 245.271037 
L 551.148956 246.389563 
L 551.966439 247.179589 
L 554.195937 248.89446 
L 555.013419 249.118227 
L 557.317234 249.381449 
L 559.843998 248.938984 
L 560.438531 248.655309 
L 561.10738 248.066582 
L 563.782778 245.183778 
L 564.451627 243.723234 
L 565.343427 241.182125 
L 566.235226 238.0347 
L 568.390407 229.806837 
L 568.687674 229.563757 
L 568.910623 229.635039 
L 569.20789 230.058494 
L 569.579473 231.052185 
L 570.174006 233.38047 
L 571.883287 240.444684 
L 572.70077 242.824375 
L 573.443936 244.397156 
L 574.261419 245.595824 
L 575.450484 246.87076 
L 576.342283 247.568982 
L 577.159766 247.928308 
L 578.571781 248.249432 
L 579.463581 248.242866 
L 580.875596 247.919441 
L 581.841712 247.55963 
L 582.510561 247.047575 
L 583.62531 245.817305 
L 584.740059 244.373695 
L 585.408909 243.076699 
L 586.152075 241.072454 
L 587.043874 237.987185 
L 588.00999 233.791029 
L 589.050422 229.473702 
L 589.496322 228.462484 
L 589.793588 228.240549 
L 590.016538 228.329316 
L 590.313804 228.784065 
L 590.685387 229.832285 
L 591.354237 232.598084 
L 592.766252 238.596222 
L 593.658051 241.356628 
L 594.475534 243.175292 
L 595.367333 244.590811 
L 596.259132 245.620655 
L 597.076615 246.247458 
L 597.968414 246.63865 
L 598.93453 246.82707 
L 599.752012 246.769287 
L 600.792445 246.465731 
L 601.684244 246.005526 
L 602.353094 245.408865 
L 603.244893 244.277713 
L 604.211009 242.702947 
L 604.879858 241.197062 
L 605.623024 238.951995 
L 606.514823 235.507467 
L 608.595688 227.001957 
L 608.892954 226.630751 
L 609.115904 226.617001 
L 609.338854 226.830578 
L 609.63612 227.444368 
L 610.08202 228.937506 
L 611.048136 233.27059 
L 612.088568 237.552664 
L 612.906051 240.049807 
L 613.723533 241.861844 
L 614.541016 243.164046 
L 615.358499 244.05479 
L 616.175981 244.601284 
L 616.993464 244.878558 
L 617.73663 244.896012 
L 618.554112 244.665423 
L 619.371595 244.202505 
L 620.040444 243.587195 
L 620.78361 242.584277 
L 621.601093 241.102412 
L 622.344259 239.310926 
L 623.087425 236.912252 
L 623.979224 233.204916 
L 625.762823 225.332802 
L 626.134406 224.598026 
L 626.357355 224.456591 
L 626.580305 224.550269 
L 626.877572 225.026629 
L 627.249155 226.109998 
L 627.918004 228.932453 
L 629.404336 235.407067 
L 630.221819 237.968416 
L 631.039301 239.808064 
L 631.782467 240.960521 
L 632.525633 241.702122 
L 633.194483 242.076522 
L 633.863332 242.190571 
L 634.457865 242.075178 
L 635.126714 241.713308 
L 635.795564 241.091183 
L 636.464413 240.151524 
L 637.207579 238.683638 
L 637.950745 236.70532 
L 638.693911 234.079817 
L 639.58571 230.048328 
L 641.146359 222.706704 
L 641.592258 221.65422 
L 641.889525 221.453626 
L 642.112475 221.57749 
L 642.409741 222.094939 
L 642.855641 223.500787 
L 643.673123 227.136094 
L 644.862189 232.229971 
L 645.679671 234.771358 
L 646.422837 236.369528 
L 647.091687 237.295464 
L 647.68622 237.762583 
L 648.206436 237.916115 
L 648.652335 237.848996 
L 649.172552 237.539535 
L 649.767084 236.904329 
L 650.361617 235.940454 
L 651.030467 234.410125 
L 651.699316 232.321407 
L 652.442482 229.290271 
L 653.408598 224.319562 
L 654.597663 218.235871 
L 655.043563 216.881265 
L 655.340829 216.475395 
L 655.563779 216.45271 
L 655.786729 216.662235 
L 656.083995 217.274881 
L 656.529895 218.752831 
L 658.908026 227.747444 
L 659.502559 228.87047 
L 660.022775 229.39946 
L 660.468675 229.531987 
L 660.840258 229.421504 
L 661.211841 229.091784 
L 661.657741 228.401459 
L 662.252273 227.033508 
L 662.846806 225.050746 
L 663.515656 222.016217 
L 664.333138 217.231901 
L 666.339686 204.52761 
L 666.785586 203.168802 
L 667.157169 202.570537 
L 667.305802 202.530009 
L 667.528752 202.584324 
L 667.677385 202.597686 
L 668.643501 203.014842 
L 669.31235 201.854493 
L 669.75825 199.82075 
L 669.832567 199.328917 
L 669.832567 199.328917 
" clip-path="url(#pf1997ab880)" style="fill: none; stroke: #ff7f0e; stroke-width: 1.5; stroke-linecap: square"/>
   </g>
   <g id="patch_3">
    <path d="M 36.465625 284.4 
L 36.465625 7.2 
" style="fill: none; stroke: #000000; stroke-width: 0.8; stroke-linejoin: miter; stroke-linecap: square"/>
   </g>
   <g id="patch_4">
    <path d="M 706.065625 284.4 
L 706.065625 7.2 
" style="fill: none; stroke: #000000; stroke-width: 0.8; stroke-linejoin: miter; stroke-linecap: square"/>
   </g>
   <g id="patch_5">
    <path d="M 36.465625 284.4 
L 706.065625 284.4 
" style="fill: none; stroke: #000000; stroke-width: 0.8; stroke-linejoin: miter; stroke-linecap: square"/>
   </g>
   <g id="patch_6">
    <path d="M 36.465625 7.2 
L 706.065625 7.2 
" style="fill: none; stroke: #000000; stroke-width: 0.8; stroke-linejoin: miter; stroke-linecap: square"/>
   </g>
   <g id="legend_1">
    <g id="patch_7">
     <path d="M 43.465625 73.9125 
L 212.865625 73.9125 
Q 214.865625 73.9125 214.865625 71.9125 
L 214.865625 14.2 
Q 214.865625 12.2 212.865625 12.2 
L 43.465625 12.2 
Q 41.465625 12.2 41.465625 14.2 
L 41.465625 71.9125 
Q 41.465625 73.9125 43.465625 73.9125 
z
" style="fill: #ffffff; opacity: 0.8; stroke: #cccccc; stroke-linejoin: miter"/>
    </g>
    <g id="line2d_17">
     <path d="M 45.465625 20.298438 
L 55.465625 20.298438 
L 65.465625 20.298438 
" style="fill: none; stroke: #1f77b4; stroke-width: 1.5; stroke-linecap: square"/>
    </g>
    <g id="text_14">
     <!-- Mf before ISCO cut: $e$=0.35 -->
     <g transform="translate(73.465625 23.798438) scale(0.1 -0.1)">
      <defs>
       <path id="DejaVuSans-4d" d="M 628 4666 
L 1569 4666 
L 2759 1491 
L 3956 4666 
L 4897 4666 
L 4897 0 
L 4281 0 
L 4281 4097 
L 3078 897 
L 2444 897 
L 1241 4097 
L 1241 0 
L 628 0 
L 628 4666 
z
" transform="scale(0.015625)"/>
       <path id="DejaVuSans-66" d="M 2375 4863 
L 2375 4384 
L 1825 4384 
Q 1516 4384 1395 4259 
Q 1275 4134 1275 3809 
L 1275 3500 
L 2222 3500 
L 2222 3053 
L 1275 3053 
L 1275 0 
L 697 0 
L 697 3053 
L 147 3053 
L 147 3500 
L 697 3500 
L 697 3744 
Q 697 4328 969 4595 
Q 1241 4863 1831 4863 
L 2375 4863 
z
" transform="scale(0.015625)"/>
       <path id="DejaVuSans-20" transform="scale(0.015625)"/>
       <path id="DejaVuSans-62" d="M 3116 1747 
Q 3116 2381 2855 2742 
Q 2594 3103 2138 3103 
Q 1681 3103 1420 2742 
Q 1159 2381 1159 1747 
Q 1159 1113 1420 752 
Q 1681 391 2138 391 
Q 2594 391 2855 752 
Q 3116 1113 3116 1747 
z
M 1159 2969 
Q 1341 3281 1617 3432 
Q 1894 3584 2278 3584 
Q 2916 3584 3314 3078 
Q 3713 2572 3713 1747 
Q 3713 922 3314 415 
Q 2916 -91 2278 -91 
Q 1894 -91 1617 61 
Q 1341 213 1159 525 
L 1159 0 
L 581 0 
L 581 4863 
L 1159 4863 
L 1159 2969 
z
" transform="scale(0.015625)"/>
       <path id="DejaVuSans-65" d="M 3597 1894 
L 3597 1613 
L 953 1613 
Q 991 1019 1311 708 
Q 1631 397 2203 397 
Q 2534 397 2845 478 
Q 3156 559 3463 722 
L 3463 178 
Q 3153 47 2828 -22 
Q 2503 -91 2169 -91 
Q 1331 -91 842 396 
Q 353 884 353 1716 
Q 353 2575 817 3079 
Q 1281 3584 2069 3584 
Q 2775 3584 3186 3129 
Q 3597 2675 3597 1894 
z
M 3022 2063 
Q 3016 2534 2758 2815 
Q 2500 3097 2075 3097 
Q 1594 3097 1305 2825 
Q 1016 2553 972 2059 
L 3022 2063 
z
" transform="scale(0.015625)"/>
       <path id="DejaVuSans-6f" d="M 1959 3097 
Q 1497 3097 1228 2736 
Q 959 2375 959 1747 
Q 959 1119 1226 758 
Q 1494 397 1959 397 
Q 2419 397 2687 759 
Q 2956 1122 2956 1747 
Q 2956 2369 2687 2733 
Q 2419 3097 1959 3097 
z
M 1959 3584 
Q 2709 3584 3137 3096 
Q 3566 2609 3566 1747 
Q 3566 888 3137 398 
Q 2709 -91 1959 -91 
Q 1206 -91 779 398 
Q 353 888 353 1747 
Q 353 2609 779 3096 
Q 1206 3584 1959 3584 
z
" transform="scale(0.015625)"/>
       <path id="DejaVuSans-72" d="M 2631 2963 
Q 2534 3019 2420 3045 
Q 2306 3072 2169 3072 
Q 1681 3072 1420 2755 
Q 1159 2438 1159 1844 
L 1159 0 
L 581 0 
L 581 3500 
L 1159 3500 
L 1159 2956 
Q 1341 3275 1631 3429 
Q 1922 3584 2338 3584 
Q 2397 3584 2469 3576 
Q 2541 3569 2628 3553 
L 2631 2963 
z
" transform="scale(0.015625)"/>
       <path id="DejaVuSans-49" d="M 628 4666 
L 1259 4666 
L 1259 0 
L 628 0 
L 628 4666 
z
" transform="scale(0.015625)"/>
       <path id="DejaVuSans-53" d="M 3425 4513 
L 3425 3897 
Q 3066 4069 2747 4153 
Q 2428 4238 2131 4238 
Q 1616 4238 1336 4038 
Q 1056 3838 1056 3469 
Q 1056 3159 1242 3001 
Q 1428 2844 1947 2747 
L 2328 2669 
Q 3034 2534 3370 2195 
Q 3706 1856 3706 1288 
Q 3706 609 3251 259 
Q 2797 -91 1919 -91 
Q 1588 -91 1214 -16 
Q 841 59 441 206 
L 441 856 
Q 825 641 1194 531 
Q 1563 422 1919 422 
Q 2459 422 2753 634 
Q 3047 847 3047 1241 
Q 3047 1584 2836 1778 
Q 2625 1972 2144 2069 
L 1759 2144 
Q 1053 2284 737 2584 
Q 422 2884 422 3419 
Q 422 4038 858 4394 
Q 1294 4750 2059 4750 
Q 2388 4750 2728 4690 
Q 3069 4631 3425 4513 
z
" transform="scale(0.015625)"/>
       <path id="DejaVuSans-43" d="M 4122 4306 
L 4122 3641 
Q 3803 3938 3442 4084 
Q 3081 4231 2675 4231 
Q 1875 4231 1450 3742 
Q 1025 3253 1025 2328 
Q 1025 1406 1450 917 
Q 1875 428 2675 428 
Q 3081 428 3442 575 
Q 3803 722 4122 1019 
L 4122 359 
Q 3791 134 3420 21 
Q 3050 -91 2638 -91 
Q 1578 -91 968 557 
Q 359 1206 359 2328 
Q 359 3453 968 4101 
Q 1578 4750 2638 4750 
Q 3056 4750 3426 4639 
Q 3797 4528 4122 4306 
z
" transform="scale(0.015625)"/>
       <path id="DejaVuSans-4f" d="M 2522 4238 
Q 1834 4238 1429 3725 
Q 1025 3213 1025 2328 
Q 1025 1447 1429 934 
Q 1834 422 2522 422 
Q 3209 422 3611 934 
Q 4013 1447 4013 2328 
Q 4013 3213 3611 3725 
Q 3209 4238 2522 4238 
z
M 2522 4750 
Q 3503 4750 4090 4092 
Q 4678 3434 4678 2328 
Q 4678 1225 4090 567 
Q 3503 -91 2522 -91 
Q 1538 -91 948 565 
Q 359 1222 359 2328 
Q 359 3434 948 4092 
Q 1538 4750 2522 4750 
z
" transform="scale(0.015625)"/>
       <path id="DejaVuSans-63" d="M 3122 3366 
L 3122 2828 
Q 2878 2963 2633 3030 
Q 2388 3097 2138 3097 
Q 1578 3097 1268 2742 
Q 959 2388 959 1747 
Q 959 1106 1268 751 
Q 1578 397 2138 397 
Q 2388 397 2633 464 
Q 2878 531 3122 666 
L 3122 134 
Q 2881 22 2623 -34 
Q 2366 -91 2075 -91 
Q 1284 -91 818 406 
Q 353 903 353 1747 
Q 353 2603 823 3093 
Q 1294 3584 2113 3584 
Q 2378 3584 2631 3529 
Q 2884 3475 3122 3366 
z
" transform="scale(0.015625)"/>
       <path id="DejaVuSans-75" d="M 544 1381 
L 544 3500 
L 1119 3500 
L 1119 1403 
Q 1119 906 1312 657 
Q 1506 409 1894 409 
Q 2359 409 2629 706 
Q 2900 1003 2900 1516 
L 2900 3500 
L 3475 3500 
L 3475 0 
L 2900 0 
L 2900 538 
Q 2691 219 2414 64 
Q 2138 -91 1772 -91 
Q 1169 -91 856 284 
Q 544 659 544 1381 
z
M 1991 3584 
L 1991 3584 
z
" transform="scale(0.015625)"/>
       <path id="DejaVuSans-74" d="M 1172 4494 
L 1172 3500 
L 2356 3500 
L 2356 3053 
L 1172 3053 
L 1172 1153 
Q 1172 725 1289 603 
Q 1406 481 1766 481 
L 2356 481 
L 2356 0 
L 1766 0 
Q 1100 0 847 248 
Q 594 497 594 1153 
L 594 3053 
L 172 3053 
L 172 3500 
L 594 3500 
L 594 4494 
L 1172 4494 
z
" transform="scale(0.015625)"/>
       <path id="DejaVuSans-3a" d="M 750 794 
L 1409 794 
L 1409 0 
L 750 0 
L 750 794 
z
M 750 3309 
L 1409 3309 
L 1409 2516 
L 750 2516 
L 750 3309 
z
" transform="scale(0.015625)"/>
       <path id="DejaVuSans-Oblique-65" d="M 3078 2063 
Q 3088 2113 3092 2166 
Q 3097 2219 3097 2272 
Q 3097 2653 2873 2875 
Q 2650 3097 2266 3097 
Q 1838 3097 1509 2826 
Q 1181 2556 1013 2059 
L 3078 2063 
z
M 3578 1613 
L 903 1613 
Q 884 1494 878 1425 
Q 872 1356 872 1306 
Q 872 872 1139 634 
Q 1406 397 1894 397 
Q 2269 397 2603 481 
Q 2938 566 3225 728 
L 3116 159 
Q 2806 34 2476 -28 
Q 2147 -91 1806 -91 
Q 1078 -91 686 257 
Q 294 606 294 1247 
Q 294 1794 489 2264 
Q 684 2734 1063 3103 
Q 1306 3334 1642 3459 
Q 1978 3584 2356 3584 
Q 2950 3584 3301 3228 
Q 3653 2872 3653 2272 
Q 3653 2128 3634 1964 
Q 3616 1800 3578 1613 
z
" transform="scale(0.015625)"/>
       <path id="DejaVuSans-3d" d="M 678 2906 
L 4684 2906 
L 4684 2381 
L 678 2381 
L 678 2906 
z
M 678 1631 
L 4684 1631 
L 4684 1100 
L 678 1100 
L 678 1631 
z
" transform="scale(0.015625)"/>
       <path id="DejaVuSans-33" d="M 2597 2516 
Q 3050 2419 3304 2112 
Q 3559 1806 3559 1356 
Q 3559 666 3084 287 
Q 2609 -91 1734 -91 
Q 1441 -91 1130 -33 
Q 819 25 488 141 
L 488 750 
Q 750 597 1062 519 
Q 1375 441 1716 441 
Q 2309 441 2620 675 
Q 2931 909 2931 1356 
Q 2931 1769 2642 2001 
Q 2353 2234 1838 2234 
L 1294 2234 
L 1294 2753 
L 1863 2753 
Q 2328 2753 2575 2939 
Q 2822 3125 2822 3475 
Q 2822 3834 2567 4026 
Q 2313 4219 1838 4219 
Q 1578 4219 1281 4162 
Q 984 4106 628 3988 
L 628 4550 
Q 988 4650 1302 4700 
Q 1616 4750 1894 4750 
Q 2613 4750 3031 4423 
Q 3450 4097 3450 3541 
Q 3450 3153 3228 2886 
Q 3006 2619 2597 2516 
z
" transform="scale(0.015625)"/>
       <path id="DejaVuSans-35" d="M 691 4666 
L 3169 4666 
L 3169 4134 
L 1269 4134 
L 1269 2991 
Q 1406 3038 1543 3061 
Q 1681 3084 1819 3084 
Q 2600 3084 3056 2656 
Q 3513 2228 3513 1497 
Q 3513 744 3044 326 
Q 2575 -91 1722 -91 
Q 1428 -91 1123 -41 
Q 819 9 494 109 
L 494 744 
Q 775 591 1075 516 
Q 1375 441 1709 441 
Q 2250 441 2565 725 
Q 2881 1009 2881 1497 
Q 2881 1984 2565 2268 
Q 2250 2553 1709 2553 
Q 1456 2553 1204 2497 
Q 953 2441 691 2322 
L 691 4666 
z
" transform="scale(0.015625)"/>
      </defs>
      <use xlink:href="#DejaVuSans-4d" transform="translate(0 0.015625)"/>
      <use xlink:href="#DejaVuSans-66" transform="translate(86.279297 0.015625)"/>
      <use xlink:href="#DejaVuSans-20" transform="translate(121.484375 0.015625)"/>
      <use xlink:href="#DejaVuSans-62" transform="translate(153.271484 0.015625)"/>
      <use xlink:href="#DejaVuSans-65" transform="translate(216.748047 0.015625)"/>
      <use xlink:href="#DejaVuSans-66" transform="translate(278.271484 0.015625)"/>
      <use xlink:href="#DejaVuSans-6f" transform="translate(313.476562 0.015625)"/>
      <use xlink:href="#DejaVuSans-72" transform="translate(374.658203 0.015625)"/>
      <use xlink:href="#DejaVuSans-65" transform="translate(415.771484 0.015625)"/>
      <use xlink:href="#DejaVuSans-20" transform="translate(477.294922 0.015625)"/>
      <use xlink:href="#DejaVuSans-49" transform="translate(509.082031 0.015625)"/>
      <use xlink:href="#DejaVuSans-53" transform="translate(538.574219 0.015625)"/>
      <use xlink:href="#DejaVuSans-43" transform="translate(602.050781 0.015625)"/>
      <use xlink:href="#DejaVuSans-4f" transform="translate(671.875 0.015625)"/>
      <use xlink:href="#DejaVuSans-20" transform="translate(750.585938 0.015625)"/>
      <use xlink:href="#DejaVuSans-63" transform="translate(782.373047 0.015625)"/>
      <use xlink:href="#DejaVuSans-75" transform="translate(837.353516 0.015625)"/>
      <use xlink:href="#DejaVuSans-74" transform="translate(900.732422 0.015625)"/>
      <use xlink:href="#DejaVuSans-3a" transform="translate(939.941406 0.015625)"/>
      <use xlink:href="#DejaVuSans-20" transform="translate(973.632812 0.015625)"/>
      <use xlink:href="#DejaVuSans-Oblique-65" transform="translate(1005.419922 0.015625)"/>
      <use xlink:href="#DejaVuSans-3d" transform="translate(1066.943359 0.015625)"/>
      <use xlink:href="#DejaVuSans-30" transform="translate(1150.732422 0.015625)"/>
      <use xlink:href="#DejaVuSans-2e" transform="translate(1214.355469 0.015625)"/>
      <use xlink:href="#DejaVuSans-33" transform="translate(1246.142578 0.015625)"/>
      <use xlink:href="#DejaVuSans-35" transform="translate(1309.765625 0.015625)"/>
     </g>
    </g>
    <g id="line2d_18">
     <path d="M 45.465625 34.976563 
L 55.465625 34.976563 
L 65.465625 34.976563 
" style="fill: none; stroke-dasharray: 2.22,0.96; stroke-dashoffset: 0; stroke: #ff0000; stroke-width: 0.6"/>
    </g>
    <g id="text_15">
     <!-- Mf ISCO $e$=0 -->
     <g transform="translate(73.465625 38.476563) scale(0.1 -0.1)">
      <use xlink:href="#DejaVuSans-4d" transform="translate(0 0.015625)"/>
      <use xlink:href="#DejaVuSans-66" transform="translate(86.279297 0.015625)"/>
      <use xlink:href="#DejaVuSans-20" transform="translate(121.484375 0.015625)"/>
      <use xlink:href="#DejaVuSans-49" transform="translate(153.271484 0.015625)"/>
      <use xlink:href="#DejaVuSans-53" transform="translate(182.763672 0.015625)"/>
      <use xlink:href="#DejaVuSans-43" transform="translate(246.240234 0.015625)"/>
      <use xlink:href="#DejaVuSans-4f" transform="translate(316.064453 0.015625)"/>
      <use xlink:href="#DejaVuSans-20" transform="translate(394.775391 0.015625)"/>
      <use xlink:href="#DejaVuSans-Oblique-65" transform="translate(426.5625 0.015625)"/>
      <use xlink:href="#DejaVuSans-3d" transform="translate(488.085938 0.015625)"/>
      <use xlink:href="#DejaVuSans-30" transform="translate(571.875 0.015625)"/>
     </g>
    </g>
    <g id="PathCollection_2">
     <g>
      <use xlink:href="#mb986f00ae2" x="55.465625" y="50.529688" style="fill: #ff0000; stroke: #ff0000"/>
     </g>
    </g>
    <g id="text_16">
     <!-- ISCO cut -->
     <g transform="translate(73.465625 53.154688) scale(0.1 -0.1)">
      <use xlink:href="#DejaVuSans-49"/>
      <use xlink:href="#DejaVuSans-53" transform="translate(29.492188 0)"/>
      <use xlink:href="#DejaVuSans-43" transform="translate(92.96875 0)"/>
      <use xlink:href="#DejaVuSans-4f" transform="translate(162.792969 0)"/>
      <use xlink:href="#DejaVuSans-20" transform="translate(241.503906 0)"/>
      <use xlink:href="#DejaVuSans-63" transform="translate(273.291016 0)"/>
      <use xlink:href="#DejaVuSans-75" transform="translate(328.271484 0)"/>
      <use xlink:href="#DejaVuSans-74" transform="translate(391.650391 0)"/>
     </g>
    </g>
    <g id="line2d_19">
     <path d="M 45.465625 64.332813 
L 55.465625 64.332813 
L 65.465625 64.332813 
" style="fill: none; stroke: #ff7f0e; stroke-width: 1.5; stroke-linecap: square"/>
    </g>
    <g id="text_17">
     <!-- Mf after ISCO cut: $e$=0.35  -->
     <g transform="translate(73.465625 67.832813) scale(0.1 -0.1)">
      <defs>
       <path id="DejaVuSans-61" d="M 2194 1759 
Q 1497 1759 1228 1600 
Q 959 1441 959 1056 
Q 959 750 1161 570 
Q 1363 391 1709 391 
Q 2188 391 2477 730 
Q 2766 1069 2766 1631 
L 2766 1759 
L 2194 1759 
z
M 3341 1997 
L 3341 0 
L 2766 0 
L 2766 531 
Q 2569 213 2275 61 
Q 1981 -91 1556 -91 
Q 1019 -91 701 211 
Q 384 513 384 1019 
Q 384 1609 779 1909 
Q 1175 2209 1959 2209 
L 2766 2209 
L 2766 2266 
Q 2766 2663 2505 2880 
Q 2244 3097 1772 3097 
Q 1472 3097 1187 3025 
Q 903 2953 641 2809 
L 641 3341 
Q 956 3463 1253 3523 
Q 1550 3584 1831 3584 
Q 2591 3584 2966 3190 
Q 3341 2797 3341 1997 
z
" transform="scale(0.015625)"/>
      </defs>
      <use xlink:href="#DejaVuSans-4d" transform="translate(0 0.015625)"/>
      <use xlink:href="#DejaVuSans-66" transform="translate(86.279297 0.015625)"/>
      <use xlink:href="#DejaVuSans-20" transform="translate(121.484375 0.015625)"/>
      <use xlink:href="#DejaVuSans-61" transform="translate(153.271484 0.015625)"/>
      <use xlink:href="#DejaVuSans-66" transform="translate(214.550781 0.015625)"/>
      <use xlink:href="#DejaVuSans-74" transform="translate(249.755859 0.015625)"/>
      <use xlink:href="#DejaVuSans-65" transform="translate(288.964844 0.015625)"/>
      <use xlink:href="#DejaVuSans-72" transform="translate(350.488281 0.015625)"/>
      <use xlink:href="#DejaVuSans-20" transform="translate(391.601562 0.015625)"/>
      <use xlink:href="#DejaVuSans-49" transform="translate(423.388672 0.015625)"/>
      <use xlink:href="#DejaVuSans-53" transform="translate(452.880859 0.015625)"/>
      <use xlink:href="#DejaVuSans-43" transform="translate(516.357422 0.015625)"/>
      <use xlink:href="#DejaVuSans-4f" transform="translate(586.181641 0.015625)"/>
      <use xlink:href="#DejaVuSans-20" transform="translate(664.892578 0.015625)"/>
      <use xlink:href="#DejaVuSans-63" transform="translate(696.679688 0.015625)"/>
      <use xlink:href="#DejaVuSans-75" transform="translate(751.660156 0.015625)"/>
      <use xlink:href="#DejaVuSans-74" transform="translate(815.039062 0.015625)"/>
      <use xlink:href="#DejaVuSans-3a" transform="translate(854.248047 0.015625)"/>
      <use xlink:href="#DejaVuSans-20" transform="translate(887.939453 0.015625)"/>
      <use xlink:href="#DejaVuSans-Oblique-65" transform="translate(919.726562 0.015625)"/>
      <use xlink:href="#DejaVuSans-3d" transform="translate(981.25 0.015625)"/>
      <use xlink:href="#DejaVuSans-30" transform="translate(1065.039062 0.015625)"/>
      <use xlink:href="#DejaVuSans-2e" transform="translate(1128.662109 0.015625)"/>
      <use xlink:href="#DejaVuSans-33" transform="translate(1160.449219 0.015625)"/>
      <use xlink:href="#DejaVuSans-35" transform="translate(1224.072266 0.015625)"/>
      <use xlink:href="#DejaVuSans-20" transform="translate(1287.695312 0.015625)"/>
     </g>
    </g>
   </g>
  </g>
 </g>
 <defs>
  <clipPath id="pf1997ab880">
   <rect x="36.465625" y="7.2" width="669.6" height="277.2"/>
  </clipPath>
 </defs>
</svg>
