<?xml version="1.0" encoding="utf-8" standalone="no"?>
<!DOCTYPE svg PUBLIC "-//W3C//DTD SVG 1.1//EN"
  "http://www.w3.org/Graphics/SVG/1.1/DTD/svg11.dtd">
<svg xmlns:xlink="http://www.w3.org/1999/xlink" width="713.265625pt" height="308.278125pt" viewBox="0 0 713.265625 308.278125" xmlns="http://www.w3.org/2000/svg" version="1.1">
 <metadata>
  <rdf:RDF xmlns:dc="http://purl.org/dc/elements/1.1/" xmlns:cc="http://creativecommons.org/ns#" xmlns:rdf="http://www.w3.org/1999/02/22-rdf-syntax-ns#">
   <cc:Work>
    <dc:type rdf:resource="http://purl.org/dc/dcmitype/StillImage"/>
    <dc:date>2025-07-25T14:55:38.901448</dc:date>
    <dc:format>image/svg+xml</dc:format>
    <dc:creator>
     <cc:Agent>
      <dc:title>Matplotlib v3.10.3, https://matplotlib.org/</dc:title>
     </cc:Agent>
    </dc:creator>
   </cc:Work>
  </rdf:RDF>
 </metadata>
 <defs>
  <style type="text/css">*{stroke-linejoin: round; stroke-linecap: butt}</style>
 </defs>
 <g id="figure_1">
  <g id="patch_1">
   <path d="M 0 308.278125 
L 713.265625 308.278125 
L 713.265625 0 
L 0 0 
z
" style="fill: #ffffff"/>
  </g>
  <g id="axes_1">
   <g id="patch_2">
    <path d="M 36.465625 284.4 
L 706.065625 284.4 
L 706.065625 7.2 
L 36.465625 7.2 
z
" style="fill: #ffffff"/>
   </g>
   <g id="PathCollection_1">
    <defs>
     <path id="m63b77b6f8f" d="M 0 1.224745 
C 0.324806 1.224745 0.636353 1.095698 0.866025 0.866025 
C 1.095698 0.636353 1.224745 0.324806 1.224745 0 
C 1.224745 -0.324806 1.095698 -0.636353 0.866025 -0.866025 
C 0.636353 -1.095698 0.324806 -1.224745 0 -1.224745 
C -0.324806 -1.224745 -0.636353 -1.095698 -0.866025 -0.866025 
C -1.095698 -0.636353 -1.224745 -0.324806 -1.224745 0 
C -1.224745 0.324806 -1.095698 0.636353 -0.866025 0.866025 
C -0.636353 1.095698 -0.324806 1.224745 0 1.224745 
z
" style="stroke: #ff0000"/>
    </defs>
    <g clip-path="url(#p955fc0a073)">
     <use xlink:href="#m63b77b6f8f" x="668.792134" y="213.466011" style="fill: #ff0000; stroke: #ff0000"/>
    </g>
   </g>
   <g id="matplotlib.axis_1">
    <g id="xtick_1">
     <g id="line2d_1">
      <defs>
       <path id="m02e76b30b2" d="M 0 0 
L 0 3.5 
" style="stroke: #000000; stroke-width: 0.8"/>
      </defs>
      <g>
       <use xlink:href="#m02e76b30b2" x="46.099533" y="284.4" style="stroke: #000000; stroke-width: 0.8"/>
      </g>
     </g>
     <g id="text_1">
      <!-- −14000 -->
      <g transform="translate(26.00344 298.998438) scale(0.1 -0.1)">
       <defs>
        <path id="DejaVuSans-2212" d="M 678 2272 
L 4684 2272 
L 4684 1741 
L 678 1741 
L 678 2272 
z
" transform="scale(0.015625)"/>
        <path id="DejaVuSans-31" d="M 794 531 
L 1825 531 
L 1825 4091 
L 703 3866 
L 703 4441 
L 1819 4666 
L 2450 4666 
L 2450 531 
L 3481 531 
L 3481 0 
L 794 0 
L 794 531 
z
" transform="scale(0.015625)"/>
        <path id="DejaVuSans-34" d="M 2419 4116 
L 825 1625 
L 2419 1625 
L 2419 4116 
z
M 2253 4666 
L 3047 4666 
L 3047 1625 
L 3713 1625 
L 3713 1100 
L 3047 1100 
L 3047 0 
L 2419 0 
L 2419 1100 
L 313 1100 
L 313 1709 
L 2253 4666 
z
" transform="scale(0.015625)"/>
        <path id="DejaVuSans-30" d="M 2034 4250 
Q 1547 4250 1301 3770 
Q 1056 3291 1056 2328 
Q 1056 1369 1301 889 
Q 1547 409 2034 409 
Q 2525 409 2770 889 
Q 3016 1369 3016 2328 
Q 3016 3291 2770 3770 
Q 2525 4250 2034 4250 
z
M 2034 4750 
Q 2819 4750 3233 4129 
Q 3647 3509 3647 2328 
Q 3647 1150 3233 529 
Q 2819 -91 2034 -91 
Q 1250 -91 836 529 
Q 422 1150 422 2328 
Q 422 3509 836 4129 
Q 1250 4750 2034 4750 
z
" transform="scale(0.015625)"/>
       </defs>
       <use xlink:href="#DejaVuSans-2212"/>
       <use xlink:href="#DejaVuSans-31" transform="translate(83.789062 0)"/>
       <use xlink:href="#DejaVuSans-34" transform="translate(147.412109 0)"/>
       <use xlink:href="#DejaVuSans-30" transform="translate(211.035156 0)"/>
       <use xlink:href="#DejaVuSans-30" transform="translate(274.658203 0)"/>
       <use xlink:href="#DejaVuSans-30" transform="translate(338.28125 0)"/>
      </g>
     </g>
    </g>
    <g id="xtick_2">
     <g id="line2d_2">
      <g>
       <use xlink:href="#m02e76b30b2" x="135.57819" y="284.4" style="stroke: #000000; stroke-width: 0.8"/>
      </g>
     </g>
     <g id="text_2">
      <!-- −12000 -->
      <g transform="translate(115.482097 298.998438) scale(0.1 -0.1)">
       <defs>
        <path id="DejaVuSans-32" d="M 1228 531 
L 3431 531 
L 3431 0 
L 469 0 
L 469 531 
Q 828 903 1448 1529 
Q 2069 2156 2228 2338 
Q 2531 2678 2651 2914 
Q 2772 3150 2772 3378 
Q 2772 3750 2511 3984 
Q 2250 4219 1831 4219 
Q 1534 4219 1204 4116 
Q 875 4013 500 3803 
L 500 4441 
Q 881 4594 1212 4672 
Q 1544 4750 1819 4750 
Q 2544 4750 2975 4387 
Q 3406 4025 3406 3419 
Q 3406 3131 3298 2873 
Q 3191 2616 2906 2266 
Q 2828 2175 2409 1742 
Q 1991 1309 1228 531 
z
" transform="scale(0.015625)"/>
       </defs>
       <use xlink:href="#DejaVuSans-2212"/>
       <use xlink:href="#DejaVuSans-31" transform="translate(83.789062 0)"/>
       <use xlink:href="#DejaVuSans-32" transform="translate(147.412109 0)"/>
       <use xlink:href="#DejaVuSans-30" transform="translate(211.035156 0)"/>
       <use xlink:href="#DejaVuSans-30" transform="translate(274.658203 0)"/>
       <use xlink:href="#DejaVuSans-30" transform="translate(338.28125 0)"/>
      </g>
     </g>
    </g>
    <g id="xtick_3">
     <g id="line2d_3">
      <g>
       <use xlink:href="#m02e76b30b2" x="225.056848" y="284.4" style="stroke: #000000; stroke-width: 0.8"/>
      </g>
     </g>
     <g id="text_3">
      <!-- −10000 -->
      <g transform="translate(204.960754 298.998438) scale(0.1 -0.1)">
       <use xlink:href="#DejaVuSans-2212"/>
       <use xlink:href="#DejaVuSans-31" transform="translate(83.789062 0)"/>
       <use xlink:href="#DejaVuSans-30" transform="translate(147.412109 0)"/>
       <use xlink:href="#DejaVuSans-30" transform="translate(211.035156 0)"/>
       <use xlink:href="#DejaVuSans-30" transform="translate(274.658203 0)"/>
       <use xlink:href="#DejaVuSans-30" transform="translate(338.28125 0)"/>
      </g>
     </g>
    </g>
    <g id="xtick_4">
     <g id="line2d_4">
      <g>
       <use xlink:href="#m02e76b30b2" x="314.535505" y="284.4" style="stroke: #000000; stroke-width: 0.8"/>
      </g>
     </g>
     <g id="text_4">
      <!-- −8000 -->
      <g transform="translate(297.620661 298.998438) scale(0.1 -0.1)">
       <defs>
        <path id="DejaVuSans-38" d="M 2034 2216 
Q 1584 2216 1326 1975 
Q 1069 1734 1069 1313 
Q 1069 891 1326 650 
Q 1584 409 2034 409 
Q 2484 409 2743 651 
Q 3003 894 3003 1313 
Q 3003 1734 2745 1975 
Q 2488 2216 2034 2216 
z
M 1403 2484 
Q 997 2584 770 2862 
Q 544 3141 544 3541 
Q 544 4100 942 4425 
Q 1341 4750 2034 4750 
Q 2731 4750 3128 4425 
Q 3525 4100 3525 3541 
Q 3525 3141 3298 2862 
Q 3072 2584 2669 2484 
Q 3125 2378 3379 2068 
Q 3634 1759 3634 1313 
Q 3634 634 3220 271 
Q 2806 -91 2034 -91 
Q 1263 -91 848 271 
Q 434 634 434 1313 
Q 434 1759 690 2068 
Q 947 2378 1403 2484 
z
M 1172 3481 
Q 1172 3119 1398 2916 
Q 1625 2713 2034 2713 
Q 2441 2713 2670 2916 
Q 2900 3119 2900 3481 
Q 2900 3844 2670 4047 
Q 2441 4250 2034 4250 
Q 1625 4250 1398 4047 
Q 1172 3844 1172 3481 
z
" transform="scale(0.015625)"/>
       </defs>
       <use xlink:href="#DejaVuSans-2212"/>
       <use xlink:href="#DejaVuSans-38" transform="translate(83.789062 0)"/>
       <use xlink:href="#DejaVuSans-30" transform="translate(147.412109 0)"/>
       <use xlink:href="#DejaVuSans-30" transform="translate(211.035156 0)"/>
       <use xlink:href="#DejaVuSans-30" transform="translate(274.658203 0)"/>
      </g>
     </g>
    </g>
    <g id="xtick_5">
     <g id="line2d_5">
      <g>
       <use xlink:href="#m02e76b30b2" x="404.014162" y="284.4" style="stroke: #000000; stroke-width: 0.8"/>
      </g>
     </g>
     <g id="text_5">
      <!-- −6000 -->
      <g transform="translate(387.099318 298.998438) scale(0.1 -0.1)">
       <defs>
        <path id="DejaVuSans-36" d="M 2113 2584 
Q 1688 2584 1439 2293 
Q 1191 2003 1191 1497 
Q 1191 994 1439 701 
Q 1688 409 2113 409 
Q 2538 409 2786 701 
Q 3034 994 3034 1497 
Q 3034 2003 2786 2293 
Q 2538 2584 2113 2584 
z
M 3366 4563 
L 3366 3988 
Q 3128 4100 2886 4159 
Q 2644 4219 2406 4219 
Q 1781 4219 1451 3797 
Q 1122 3375 1075 2522 
Q 1259 2794 1537 2939 
Q 1816 3084 2150 3084 
Q 2853 3084 3261 2657 
Q 3669 2231 3669 1497 
Q 3669 778 3244 343 
Q 2819 -91 2113 -91 
Q 1303 -91 875 529 
Q 447 1150 447 2328 
Q 447 3434 972 4092 
Q 1497 4750 2381 4750 
Q 2619 4750 2861 4703 
Q 3103 4656 3366 4563 
z
" transform="scale(0.015625)"/>
       </defs>
       <use xlink:href="#DejaVuSans-2212"/>
       <use xlink:href="#DejaVuSans-36" transform="translate(83.789062 0)"/>
       <use xlink:href="#DejaVuSans-30" transform="translate(147.412109 0)"/>
       <use xlink:href="#DejaVuSans-30" transform="translate(211.035156 0)"/>
       <use xlink:href="#DejaVuSans-30" transform="translate(274.658203 0)"/>
      </g>
     </g>
    </g>
    <g id="xtick_6">
     <g id="line2d_6">
      <g>
       <use xlink:href="#m02e76b30b2" x="493.492819" y="284.4" style="stroke: #000000; stroke-width: 0.8"/>
      </g>
     </g>
     <g id="text_6">
      <!-- −4000 -->
      <g transform="translate(476.577975 298.998438) scale(0.1 -0.1)">
       <use xlink:href="#DejaVuSans-2212"/>
       <use xlink:href="#DejaVuSans-34" transform="translate(83.789062 0)"/>
       <use xlink:href="#DejaVuSans-30" transform="translate(147.412109 0)"/>
       <use xlink:href="#DejaVuSans-30" transform="translate(211.035156 0)"/>
       <use xlink:href="#DejaVuSans-30" transform="translate(274.658203 0)"/>
      </g>
     </g>
    </g>
    <g id="xtick_7">
     <g id="line2d_7">
      <g>
       <use xlink:href="#m02e76b30b2" x="582.971476" y="284.4" style="stroke: #000000; stroke-width: 0.8"/>
      </g>
     </g>
     <g id="text_7">
      <!-- −2000 -->
      <g transform="translate(566.056633 298.998438) scale(0.1 -0.1)">
       <use xlink:href="#DejaVuSans-2212"/>
       <use xlink:href="#DejaVuSans-32" transform="translate(83.789062 0)"/>
       <use xlink:href="#DejaVuSans-30" transform="translate(147.412109 0)"/>
       <use xlink:href="#DejaVuSans-30" transform="translate(211.035156 0)"/>
       <use xlink:href="#DejaVuSans-30" transform="translate(274.658203 0)"/>
      </g>
     </g>
    </g>
    <g id="xtick_8">
     <g id="line2d_8">
      <g>
       <use xlink:href="#m02e76b30b2" x="672.450134" y="284.4" style="stroke: #000000; stroke-width: 0.8"/>
      </g>
     </g>
     <g id="text_8">
      <!-- 0 -->
      <g transform="translate(669.268884 298.998438) scale(0.1 -0.1)">
       <use xlink:href="#DejaVuSans-30"/>
      </g>
     </g>
    </g>
   </g>
   <g id="matplotlib.axis_2">
    <g id="ytick_1">
     <g id="line2d_9">
      <defs>
       <path id="m0135faddb0" d="M 0 0 
L -3.5 0 
" style="stroke: #000000; stroke-width: 0.8"/>
      </defs>
      <g>
       <use xlink:href="#m0135faddb0" x="36.465625" y="276.624029" style="stroke: #000000; stroke-width: 0.8"/>
      </g>
     </g>
     <g id="text_9">
      <!-- 0.00 -->
      <g transform="translate(7.2 280.423247) scale(0.1 -0.1)">
       <defs>
        <path id="DejaVuSans-2e" d="M 684 794 
L 1344 794 
L 1344 0 
L 684 0 
L 684 794 
z
" transform="scale(0.015625)"/>
       </defs>
       <use xlink:href="#DejaVuSans-30"/>
       <use xlink:href="#DejaVuSans-2e" transform="translate(63.623047 0)"/>
       <use xlink:href="#DejaVuSans-30" transform="translate(95.410156 0)"/>
       <use xlink:href="#DejaVuSans-30" transform="translate(159.033203 0)"/>
      </g>
     </g>
    </g>
    <g id="ytick_2">
     <g id="line2d_10">
      <g>
       <use xlink:href="#m0135faddb0" x="36.465625" y="218.313163" style="stroke: #000000; stroke-width: 0.8"/>
      </g>
     </g>
     <g id="text_10">
      <!-- 0.02 -->
      <g transform="translate(7.2 222.112382) scale(0.1 -0.1)">
       <use xlink:href="#DejaVuSans-30"/>
       <use xlink:href="#DejaVuSans-2e" transform="translate(63.623047 0)"/>
       <use xlink:href="#DejaVuSans-30" transform="translate(95.410156 0)"/>
       <use xlink:href="#DejaVuSans-32" transform="translate(159.033203 0)"/>
      </g>
     </g>
    </g>
    <g id="ytick_3">
     <g id="line2d_11">
      <g>
       <use xlink:href="#m0135faddb0" x="36.465625" y="160.002297" style="stroke: #000000; stroke-width: 0.8"/>
      </g>
     </g>
     <g id="text_11">
      <!-- 0.04 -->
      <g transform="translate(7.2 163.801516) scale(0.1 -0.1)">
       <use xlink:href="#DejaVuSans-30"/>
       <use xlink:href="#DejaVuSans-2e" transform="translate(63.623047 0)"/>
       <use xlink:href="#DejaVuSans-30" transform="translate(95.410156 0)"/>
       <use xlink:href="#DejaVuSans-34" transform="translate(159.033203 0)"/>
      </g>
     </g>
    </g>
    <g id="ytick_4">
     <g id="line2d_12">
      <g>
       <use xlink:href="#m0135faddb0" x="36.465625" y="101.691431" style="stroke: #000000; stroke-width: 0.8"/>
      </g>
     </g>
     <g id="text_12">
      <!-- 0.06 -->
      <g transform="translate(7.2 105.49065) scale(0.1 -0.1)">
       <use xlink:href="#DejaVuSans-30"/>
       <use xlink:href="#DejaVuSans-2e" transform="translate(63.623047 0)"/>
       <use xlink:href="#DejaVuSans-30" transform="translate(95.410156 0)"/>
       <use xlink:href="#DejaVuSans-36" transform="translate(159.033203 0)"/>
      </g>
     </g>
    </g>
    <g id="ytick_5">
     <g id="line2d_13">
      <g>
       <use xlink:href="#m0135faddb0" x="36.465625" y="43.380566" style="stroke: #000000; stroke-width: 0.8"/>
      </g>
     </g>
     <g id="text_13">
      <!-- 0.08 -->
      <g transform="translate(7.2 47.179784) scale(0.1 -0.1)">
       <use xlink:href="#DejaVuSans-30"/>
       <use xlink:href="#DejaVuSans-2e" transform="translate(63.623047 0)"/>
       <use xlink:href="#DejaVuSans-30" transform="translate(95.410156 0)"/>
       <use xlink:href="#DejaVuSans-38" transform="translate(159.033203 0)"/>
      </g>
     </g>
    </g>
   </g>
   <g id="line2d_14">
    <path d="M 66.901989 270.952419 
L 67.422205 270.787755 
L 68.239687 270.335315 
L 69.205803 269.527958 
L 70.766452 267.87606 
L 72.178467 266.105936 
L 73.441849 264.113814 
L 74.853865 261.928323 
L 75.522714 261.274377 
L 76.04293 261.0484 
L 76.48883 261.072959 
L 77.009046 261.350676 
L 77.603579 261.953169 
L 78.495378 263.239727 
L 80.799193 266.730286 
L 82.211208 268.363909 
L 83.400274 269.445391 
L 84.36639 270.049045 
L 85.332506 270.395976 
L 88.453803 271.30016 
L 89.717185 271.628372 
L 90.906251 271.691701 
L 93.433015 271.765242 
L 94.993664 271.768227 
L 98.412227 271.576695 
L 99.526976 271.467297 
L 100.567409 271.129093 
L 102.871223 270.2824 
L 104.654822 269.78893 
L 105.546621 269.240421 
L 106.587053 268.301187 
L 108.147702 266.559612 
L 109.411084 264.856084 
L 112.383748 260.50935 
L 112.903964 260.253805 
L 113.349864 260.256183 
L 113.795763 260.46195 
L 114.390296 261.018296 
L 115.207779 262.163527 
L 118.106126 266.556265 
L 119.443825 268.047897 
L 120.558574 268.979934 
L 121.52469 269.503346 
L 122.788072 269.902594 
L 124.645987 270.526471 
L 126.132319 270.980591 
L 127.321385 271.096397 
L 132.597863 271.124252 
L 134.381462 271.073614 
L 135.71916 270.965861 
L 136.759593 270.645631 
L 139.286357 269.751299 
L 140.624056 269.323657 
L 141.515855 268.78091 
L 142.556288 267.845266 
L 144.04262 266.161926 
L 145.306002 264.429272 
L 148.204349 260.178996 
L 148.724566 259.915419 
L 149.170465 259.913463 
L 149.616365 260.118118 
L 150.210898 260.678051 
L 151.02838 261.835286 
L 153.926728 266.297816 
L 155.19011 267.729672 
L 156.230542 268.615944 
L 157.196658 269.166179 
L 158.608673 269.669416 
L 162.324503 270.786146 
L 166.11465 271.01464 
L 167.823932 270.897014 
L 171.688395 270.460521 
L 176.073074 268.738177 
L 176.964874 268.032784 
L 178.153939 266.778438 
L 179.565955 264.972789 
L 180.829337 262.993918 
L 182.464302 260.433423 
L 183.133151 259.81036 
L 183.653368 259.626713 
L 184.099267 259.699123 
L 184.619483 260.0413 
L 185.214016 260.719103 
L 186.180132 262.224279 
L 188.260997 265.530914 
L 189.524379 267.098079 
L 190.639128 268.156334 
L 191.67956 268.830626 
L 193.017259 269.388697 
L 196.28719 270.497371 
L 197.847838 270.641186 
L 201.340719 270.748741 
L 205.502448 270.284699 
L 207.137413 269.629247 
L 210.110077 268.307485 
L 211.076193 267.463429 
L 212.339575 266.020095 
L 213.677274 264.164039 
L 215.386556 261.323304 
L 216.352672 259.962628 
L 216.947205 259.472375 
L 217.393104 259.340114 
L 217.839004 259.423719 
L 218.35922 259.781615 
L 219.028069 260.581931 
L 220.068502 262.261163 
L 221.926417 265.238328 
L 223.189799 266.830414 
L 224.304548 267.890237 
L 225.34498 268.568515 
L 226.905629 269.260787 
L 229.28376 270.129762 
L 230.621459 270.330162 
L 234.040023 270.521085 
L 237.532903 270.23196 
L 238.647652 269.951271 
L 240.579883 269.151037 
L 242.586432 268.218816 
L 243.552547 267.453057 
L 244.667296 266.243654 
L 246.004995 264.4501 
L 247.417011 262.153423 
L 248.829026 259.912456 
L 249.497875 259.255615 
L 250.018092 259.050866 
L 250.463991 259.111979 
L 250.984207 259.450111 
L 251.57874 260.134023 
L 252.544856 261.664649 
L 254.700037 265.157852 
L 255.889103 266.644224 
L 256.929536 267.624867 
L 257.969968 268.311953 
L 259.67925 269.11854 
L 261.462848 269.787578 
L 262.800547 270.030185 
L 265.698894 270.253329 
L 267.482493 270.136329 
L 270.15789 269.78809 
L 271.421273 269.31853 
L 274.245303 267.963922 
L 275.211419 267.208047 
L 276.251852 266.088481 
L 277.515234 264.392671 
L 278.852933 262.228212 
L 280.487898 259.584193 
L 281.156747 258.931149 
L 281.676963 258.735631 
L 282.122863 258.808631 
L 282.643079 259.163663 
L 283.237612 259.867755 
L 284.203728 261.425414 
L 286.284593 264.845905 
L 287.473658 266.35358 
L 288.514091 267.340583 
L 289.62884 268.085104 
L 291.486755 268.994805 
L 292.973087 269.518072 
L 294.459419 269.769149 
L 296.911866 269.949268 
L 298.769781 269.814985 
L 300.999279 269.487382 
L 302.188345 269.054669 
L 304.566476 267.884859 
L 305.606909 267.151248 
L 306.573024 266.188219 
L 307.76209 264.659781 
L 309.099789 262.562181 
L 311.25497 259.066255 
L 311.849503 258.544678 
L 312.295403 258.398078 
L 312.741302 258.477835 
L 313.261518 258.844543 
L 313.856051 259.564511 
L 314.822167 261.14686 
L 316.903032 264.603912 
L 318.092098 266.112001 
L 319.13253 267.089712 
L 320.321596 267.884952 
L 322.105194 268.775543 
L 323.442893 269.2203 
L 325.003541 269.4797 
L 327.084406 269.618673 
L 328.942321 269.471336 
L 330.874553 269.146955 
L 332.063618 268.704929 
L 334.070167 267.668531 
L 335.184916 266.889026 
L 336.151031 265.935965 
L 337.26578 264.503692 
L 338.603479 262.395339 
L 340.907294 258.635778 
L 341.501827 258.14637 
L 341.947726 258.03227 
L 342.393626 258.14861 
L 342.913842 258.558365 
L 343.582691 259.433691 
L 344.771757 261.483351 
L 346.406722 264.207059 
L 347.595788 265.747562 
L 348.63622 266.746988 
L 349.825286 267.57499 
L 351.460251 268.424514 
L 352.79795 268.873879 
L 354.432915 269.153333 
L 356.216513 269.258026 
L 358.000112 269.104226 
L 359.78371 268.763516 
L 360.972776 268.298242 
L 362.682058 267.362991 
L 363.871123 266.495893 
L 364.837239 265.511472 
L 365.951988 264.032188 
L 367.289687 261.853085 
L 369.370552 258.370948 
L 369.965084 257.812716 
L 370.410984 257.644204 
L 370.856884 257.709967 
L 371.302783 258.002794 
L 371.897316 258.69451 
L 372.789115 260.151305 
L 375.09293 264.079661 
L 376.207679 265.499548 
L 377.248111 266.486704 
L 378.511494 267.366316 
L 379.923509 268.095633 
L 381.186891 268.510697 
L 382.821856 268.791137 
L 384.382505 268.861418 
L 386.091787 268.691908 
L 387.652435 268.352639 
L 388.841501 267.862938 
L 390.40215 266.952508 
L 391.591215 266.026233 
L 392.557331 264.991595 
L 393.67208 263.445497 
L 395.009779 261.179543 
L 396.867694 258.017766 
L 397.462227 257.420353 
L 397.908126 257.222848 
L 398.354026 257.263506 
L 398.799925 257.537598 
L 399.394458 258.216306 
L 400.211941 259.544028 
L 402.813022 263.993878 
L 403.927771 265.357595 
L 405.04252 266.361424 
L 406.380219 267.247253 
L 407.643601 267.837758 
L 408.9813 268.207033 
L 410.616265 268.418096 
L 412.02828 268.384823 
L 413.737562 268.114319 
L 415.000944 267.712275 
L 416.264326 267.057807 
L 417.676342 266.07104 
L 418.716774 265.079178 
L 419.757207 263.75399 
L 420.946272 261.851315 
L 423.695986 257.214197 
L 424.216203 256.824513 
L 424.662102 256.74474 
L 425.108002 256.908793 
L 425.628218 257.384217 
L 426.297067 258.345121 
L 427.634766 260.790056 
L 429.046782 263.198294 
L 430.161531 264.674012 
L 431.27628 265.77059 
L 432.539662 266.681836 
L 433.803044 267.320052 
L 435.066426 267.704915 
L 436.552758 267.923976 
L 437.890457 267.909876 
L 439.451106 267.661285 
L 440.714488 267.255117 
L 441.903554 266.628739 
L 443.241252 265.657478 
L 444.281685 264.64064 
L 445.322117 263.288605 
L 446.511183 261.33798 
L 449.18658 256.728873 
L 449.706797 256.318972 
L 450.152696 256.226238 
L 450.598596 256.382953 
L 451.118812 256.857542 
L 451.787661 257.827912 
L 453.12536 260.310151 
L 454.537376 262.754157 
L 455.652125 264.245983 
L 456.766874 265.357283 
L 457.955939 266.228524 
L 459.145005 266.830385 
L 460.408387 267.211715 
L 461.746086 267.393294 
L 463.083785 267.346059 
L 464.4958 267.06947 
L 465.684866 266.621543 
L 466.873931 265.914756 
L 468.062997 264.948709 
L 469.103429 263.818816 
L 470.143862 262.336594 
L 471.407244 260.100828 
L 473.413792 256.476577 
L 474.008325 255.853249 
L 474.454224 255.654371 
L 474.900124 255.710506 
L 475.346024 256.015147 
L 475.940556 256.750693 
L 476.832356 258.307931 
L 479.061854 262.354063 
L 480.176603 263.843554 
L 481.291352 264.950682 
L 482.406101 265.757725 
L 483.52085 266.30512 
L 484.709915 266.649184 
L 485.973298 266.790026 
L 487.23668 266.699158 
L 488.500062 266.391755 
L 489.614811 265.902504 
L 490.72956 265.162743 
L 491.844309 264.159102 
L 492.884741 262.911181 
L 493.925174 261.295314 
L 495.262873 258.768107 
L 496.749205 256.021279 
L 497.418054 255.245428 
L 497.863954 255.015578 
L 498.309853 255.046733 
L 498.755753 255.334848 
L 499.275969 255.953846 
L 500.093452 257.349676 
L 502.694533 262.098941 
L 503.734965 263.448482 
L 504.849714 264.525543 
L 505.964463 265.287386 
L 507.079212 265.776154 
L 508.268278 266.048984 
L 509.383027 266.088635 
L 510.572092 265.905674 
L 511.686841 265.523581 
L 512.727274 264.93969 
L 513.767706 264.107855 
L 514.808138 262.998644 
L 515.848571 261.536739 
L 516.96332 259.555817 
L 519.490084 254.860354 
L 520.0103 254.38885 
L 520.4562 254.261075 
L 520.827783 254.361318 
L 521.273683 254.717684 
L 521.868215 255.527286 
L 522.834331 257.331216 
L 524.692246 260.856096 
L 525.806995 262.458948 
L 526.847428 263.575021 
L 527.88786 264.377879 
L 528.928292 264.908297 
L 530.043041 265.219983 
L 531.15779 265.289335 
L 532.272539 265.12054 
L 533.312972 264.746524 
L 534.353404 264.128457 
L 535.393837 263.23244 
L 536.434269 262.022485 
L 537.474701 260.432258 
L 538.663767 258.158051 
L 540.595999 254.36887 
L 541.190531 253.666953 
L 541.636431 253.429095 
L 542.008014 253.442675 
L 542.453914 253.710619 
L 542.97413 254.329565 
L 543.717296 255.620549 
L 546.541327 260.931246 
L 547.581759 262.261522 
L 548.622192 263.227493 
L 549.588307 263.835299 
L 550.554423 264.195718 
L 551.594856 264.340245 
L 552.635288 264.246183 
L 553.67572 263.914511 
L 554.641836 263.371631 
L 555.607952 262.571747 
L 556.574068 261.481736 
L 557.540184 260.042848 
L 558.580616 258.081434 
L 561.10738 253.056241 
L 561.627597 252.554952 
L 562.073496 252.419331 
L 562.445079 252.526667 
L 562.890979 252.905997 
L 563.485512 253.762277 
L 564.451627 255.65036 
L 566.235226 259.157863 
L 567.349975 260.830464 
L 568.316091 261.896154 
L 569.282206 262.624742 
L 570.248322 263.063549 
L 571.140121 263.233362 
L 572.031921 263.182952 
L 572.998036 262.895336 
L 573.889836 262.405838 
L 574.781635 261.673286 
L 575.673434 260.664252 
L 576.63955 259.221117 
L 577.679982 257.240267 
L 580.429696 251.69302 
L 580.949913 251.273272 
L 581.321496 251.218673 
L 581.693079 251.373974 
L 582.138978 251.817699 
L 582.733511 252.760355 
L 583.84826 255.081055 
L 585.334592 258.06002 
L 586.375024 259.643738 
L 587.34114 260.704937 
L 588.232939 261.36216 
L 589.124739 261.739386 
L 589.942221 261.858006 
L 590.759704 261.765607 
L 591.577186 261.460816 
L 592.394669 260.928931 
L 593.286468 260.063822 
L 594.178267 258.874272 
L 595.144383 257.190154 
L 596.333449 254.598068 
L 598.042731 250.839933 
L 598.637263 250.040668 
L 599.083163 249.769455 
L 599.454746 249.783743 
L 599.826329 250.014183 
L 600.346545 250.658756 
L 601.089711 252.045901 
L 603.690792 257.335881 
L 604.656908 258.646517 
L 605.548707 259.47438 
L 606.36619 259.935153 
L 607.109356 260.121718 
L 607.852522 260.09166 
L 608.595688 259.846013 
L 609.338854 259.377784 
L 610.156337 258.587342 
L 610.973819 257.486181 
L 611.865618 255.910433 
L 612.906051 253.602755 
L 614.986916 248.814509 
L 615.507132 248.134809 
L 615.953031 247.883829 
L 616.324614 247.929739 
L 616.696197 248.201161 
L 617.216414 248.909494 
L 617.95958 250.378407 
L 620.263394 255.215627 
L 621.155193 256.48999 
L 621.972676 257.284468 
L 622.715842 257.708162 
L 623.384691 257.855264 
L 624.053541 257.78415 
L 624.72239 257.493818 
L 625.465556 256.90664 
L 626.208722 256.022276 
L 627.026205 254.690188 
L 627.992321 252.634858 
L 629.404336 248.976149 
L 630.444768 246.531077 
L 631.039301 245.654976 
L 631.485201 245.373487 
L 631.856784 245.404198 
L 632.228367 245.673374 
L 632.748583 246.395973 
L 633.491749 247.900047 
L 635.572614 252.335731 
L 636.390096 253.520331 
L 637.133262 254.231799 
L 637.802112 254.571584 
L 638.396645 254.637128 
L 638.991177 254.480344 
L 639.58571 254.098519 
L 640.25456 253.392945 
L 640.923409 252.366657 
L 641.740892 250.688833 
L 642.781324 247.967834 
L 644.713556 242.733245 
L 645.233772 241.913415 
L 645.679671 241.598181 
L 646.051254 241.628597 
L 646.422837 241.912318 
L 646.943054 242.665508 
L 647.760536 244.360981 
L 649.321185 247.643498 
L 650.064351 248.726114 
L 650.658884 249.269055 
L 651.253416 249.516445 
L 651.773633 249.487801 
L 652.293849 249.227086 
L 652.814065 248.728262 
L 653.408598 247.849598 
L 654.151764 246.304678 
L 654.969246 244.061789 
L 656.232629 239.812186 
L 657.273061 236.578252 
L 657.867594 235.356228 
L 658.313494 234.889909 
L 658.685077 234.813118 
L 659.05666 234.99755 
L 659.576876 235.578661 
L 660.468675 237.029213 
L 661.360474 238.402762 
L 661.955007 238.932424 
L 662.400907 239.083767 
L 662.77249 239.002878 
L 663.218389 238.643217 
L 663.738605 237.859693 
L 664.333138 236.549977 
L 664.704721 235.346718 
L 665.670837 231.266928 
L 666.636953 225.905834 
L 670.20415 204.089672 
L 670.724366 198.377203 
L 671.170265 190.616333 
L 671.541848 178.490604 
L 671.987748 152.879915 
L 672.433648 111.391208 
L 673.176814 36.647763 
L 673.47408 26.15642 
L 673.771346 22.072915 
L 674.068613 20.595197 
L 674.365879 20.074732 
L 674.737462 19.870711 
L 675.480628 19.801757 
L 675.629261 19.8 
L 675.629261 19.8 
" clip-path="url(#p955fc0a073)" style="fill: none; stroke: #1f77b4; stroke-width: 1.5; stroke-linecap: square"/>
   </g>
   <g id="line2d_15">
    <path d="M 36.465625 213.478479 
L 706.065625 213.478479 
" clip-path="url(#p955fc0a073)" style="fill: none; stroke-dasharray: 2.22,0.96; stroke-dashoffset: 0; stroke: #ff0000; stroke-width: 0.6"/>
   </g>
   <g id="line2d_16">
    <path d="M 66.901989 270.952419 
L 67.422205 270.787755 
L 68.239687 270.335315 
L 69.205803 269.527958 
L 70.766452 267.87606 
L 72.178467 266.105936 
L 73.441849 264.113814 
L 74.853865 261.928323 
L 75.522714 261.274377 
L 76.04293 261.0484 
L 76.48883 261.072959 
L 77.009046 261.350676 
L 77.603579 261.953169 
L 78.495378 263.239727 
L 80.799193 266.730286 
L 82.211208 268.363909 
L 83.400274 269.445391 
L 84.36639 270.049045 
L 85.332506 270.395976 
L 88.453803 271.30016 
L 89.717185 271.628372 
L 90.906251 271.691701 
L 93.433015 271.765242 
L 94.993664 271.768227 
L 98.412227 271.576695 
L 99.526976 271.467297 
L 100.567409 271.129093 
L 102.871223 270.2824 
L 104.654822 269.78893 
L 105.546621 269.240421 
L 106.587053 268.301187 
L 108.147702 266.559612 
L 109.411084 264.856084 
L 112.383748 260.50935 
L 112.903964 260.253805 
L 113.349864 260.256183 
L 113.795763 260.46195 
L 114.390296 261.018296 
L 115.207779 262.163527 
L 118.106126 266.556265 
L 119.443825 268.047897 
L 120.558574 268.979934 
L 121.52469 269.503346 
L 122.788072 269.902594 
L 124.645987 270.526471 
L 126.132319 270.980591 
L 127.321385 271.096397 
L 132.597863 271.124252 
L 134.381462 271.073614 
L 135.71916 270.965861 
L 136.759593 270.645631 
L 139.286357 269.751299 
L 140.624056 269.323657 
L 141.515855 268.78091 
L 142.556288 267.845266 
L 144.04262 266.161926 
L 145.306002 264.429272 
L 148.204349 260.178996 
L 148.724566 259.915419 
L 149.170465 259.913463 
L 149.616365 260.118118 
L 150.210898 260.678051 
L 151.02838 261.835286 
L 153.926728 266.297816 
L 155.19011 267.729672 
L 156.230542 268.615944 
L 157.196658 269.166179 
L 158.608673 269.669416 
L 162.324503 270.786146 
L 166.11465 271.01464 
L 167.823932 270.897014 
L 171.688395 270.460521 
L 176.073074 268.738177 
L 176.964874 268.032784 
L 178.153939 266.778438 
L 179.565955 264.972789 
L 180.829337 262.993918 
L 182.464302 260.433423 
L 183.133151 259.81036 
L 183.653368 259.626713 
L 184.099267 259.699123 
L 184.619483 260.0413 
L 185.214016 260.719103 
L 186.180132 262.224279 
L 188.260997 265.530914 
L 189.524379 267.098079 
L 190.639128 268.156334 
L 191.67956 268.830626 
L 193.017259 269.388697 
L 196.28719 270.497371 
L 197.847838 270.641186 
L 201.340719 270.748741 
L 205.502448 270.284699 
L 207.137413 269.629247 
L 210.110077 268.307485 
L 211.076193 267.463429 
L 212.339575 266.020095 
L 213.677274 264.164039 
L 215.386556 261.323304 
L 216.352672 259.962628 
L 216.947205 259.472375 
L 217.393104 259.340114 
L 217.839004 259.423719 
L 218.35922 259.781615 
L 219.028069 260.581931 
L 220.068502 262.261163 
L 221.926417 265.238328 
L 223.189799 266.830414 
L 224.304548 267.890237 
L 225.34498 268.568515 
L 226.905629 269.260787 
L 229.28376 270.129762 
L 230.621459 270.330162 
L 234.040023 270.521085 
L 237.532903 270.23196 
L 238.647652 269.951271 
L 240.579883 269.151037 
L 242.586432 268.218816 
L 243.552547 267.453057 
L 244.667296 266.243654 
L 246.004995 264.4501 
L 247.417011 262.153423 
L 248.829026 259.912456 
L 249.497875 259.255615 
L 250.018092 259.050866 
L 250.463991 259.111979 
L 250.984207 259.450111 
L 251.57874 260.134023 
L 252.544856 261.664649 
L 254.700037 265.157852 
L 255.889103 266.644224 
L 256.929536 267.624867 
L 257.969968 268.311953 
L 259.67925 269.11854 
L 261.462848 269.787578 
L 262.800547 270.030185 
L 265.698894 270.253329 
L 267.482493 270.136329 
L 270.15789 269.78809 
L 271.421273 269.31853 
L 274.245303 267.963922 
L 275.211419 267.208047 
L 276.251852 266.088481 
L 277.515234 264.392671 
L 278.852933 262.228212 
L 280.487898 259.584193 
L 281.156747 258.931149 
L 281.676963 258.735631 
L 282.122863 258.808631 
L 282.643079 259.163663 
L 283.237612 259.867755 
L 284.203728 261.425414 
L 286.284593 264.845905 
L 287.473658 266.35358 
L 288.514091 267.340583 
L 289.62884 268.085104 
L 291.486755 268.994805 
L 292.973087 269.518072 
L 294.459419 269.769149 
L 296.911866 269.949268 
L 298.769781 269.814985 
L 300.999279 269.487382 
L 302.188345 269.054669 
L 304.566476 267.884859 
L 305.606909 267.151248 
L 306.573024 266.188219 
L 307.76209 264.659781 
L 309.099789 262.562181 
L 311.25497 259.066255 
L 311.849503 258.544678 
L 312.295403 258.398078 
L 312.741302 258.477835 
L 313.261518 258.844543 
L 313.856051 259.564511 
L 314.822167 261.14686 
L 316.903032 264.603912 
L 318.092098 266.112001 
L 319.13253 267.089712 
L 320.321596 267.884952 
L 322.105194 268.775543 
L 323.442893 269.2203 
L 325.003541 269.4797 
L 327.084406 269.618673 
L 328.942321 269.471336 
L 330.874553 269.146955 
L 332.063618 268.704929 
L 334.070167 267.668531 
L 335.184916 266.889026 
L 336.151031 265.935965 
L 337.26578 264.503692 
L 338.603479 262.395339 
L 340.907294 258.635778 
L 341.501827 258.14637 
L 341.947726 258.03227 
L 342.393626 258.14861 
L 342.913842 258.558365 
L 343.582691 259.433691 
L 344.771757 261.483351 
L 346.406722 264.207059 
L 347.595788 265.747562 
L 348.63622 266.746988 
L 349.825286 267.57499 
L 351.460251 268.424514 
L 352.79795 268.873879 
L 354.432915 269.153333 
L 356.216513 269.258026 
L 358.000112 269.104226 
L 359.78371 268.763516 
L 360.972776 268.298242 
L 362.682058 267.362991 
L 363.871123 266.495893 
L 364.837239 265.511472 
L 365.951988 264.032188 
L 367.289687 261.853085 
L 369.370552 258.370948 
L 369.965084 257.812716 
L 370.410984 257.644204 
L 370.856884 257.709967 
L 371.302783 258.002794 
L 371.897316 258.69451 
L 372.789115 260.151305 
L 375.09293 264.079661 
L 376.207679 265.499548 
L 377.248111 266.486704 
L 378.511494 267.366316 
L 379.923509 268.095633 
L 381.186891 268.510697 
L 382.821856 268.791137 
L 384.382505 268.861418 
L 386.091787 268.691908 
L 387.652435 268.352639 
L 388.841501 267.862938 
L 390.40215 266.952508 
L 391.591215 266.026233 
L 392.557331 264.991595 
L 393.67208 263.445497 
L 395.009779 261.179543 
L 396.867694 258.017766 
L 397.462227 257.420353 
L 397.908126 257.222848 
L 398.354026 257.263506 
L 398.799925 257.537598 
L 399.394458 258.216306 
L 400.211941 259.544028 
L 402.813022 263.993878 
L 403.927771 265.357595 
L 405.04252 266.361424 
L 406.380219 267.247253 
L 407.643601 267.837758 
L 408.9813 268.207033 
L 410.616265 268.418096 
L 412.02828 268.384823 
L 413.737562 268.114319 
L 415.000944 267.712275 
L 416.264326 267.057807 
L 417.676342 266.07104 
L 418.716774 265.079178 
L 419.757207 263.75399 
L 420.946272 261.851315 
L 423.695986 257.214197 
L 424.216203 256.824513 
L 424.662102 256.74474 
L 425.108002 256.908793 
L 425.628218 257.384217 
L 426.297067 258.345121 
L 427.634766 260.790056 
L 429.046782 263.198294 
L 430.161531 264.674012 
L 431.27628 265.77059 
L 432.539662 266.681836 
L 433.803044 267.320052 
L 435.066426 267.704915 
L 436.552758 267.923976 
L 437.890457 267.909876 
L 439.451106 267.661285 
L 440.714488 267.255117 
L 441.903554 266.628739 
L 443.241252 265.657478 
L 444.281685 264.64064 
L 445.322117 263.288605 
L 446.511183 261.33798 
L 449.18658 256.728873 
L 449.706797 256.318972 
L 450.152696 256.226238 
L 450.598596 256.382953 
L 451.118812 256.857542 
L 451.787661 257.827912 
L 453.12536 260.310151 
L 454.537376 262.754157 
L 455.652125 264.245983 
L 456.766874 265.357283 
L 457.955939 266.228524 
L 459.145005 266.830385 
L 460.408387 267.211715 
L 461.746086 267.393294 
L 463.083785 267.346059 
L 464.4958 267.06947 
L 465.684866 266.621543 
L 466.873931 265.914756 
L 468.062997 264.948709 
L 469.103429 263.818816 
L 470.143862 262.336594 
L 471.407244 260.100828 
L 473.413792 256.476577 
L 474.008325 255.853249 
L 474.454224 255.654371 
L 474.900124 255.710506 
L 475.346024 256.015147 
L 475.940556 256.750693 
L 476.832356 258.307931 
L 479.061854 262.354063 
L 480.176603 263.843554 
L 481.291352 264.950682 
L 482.406101 265.757725 
L 483.52085 266.30512 
L 484.709915 266.649184 
L 485.973298 266.790026 
L 487.23668 266.699158 
L 488.500062 266.391755 
L 489.614811 265.902504 
L 490.72956 265.162743 
L 491.844309 264.159102 
L 492.884741 262.911181 
L 493.925174 261.295314 
L 495.262873 258.768107 
L 496.749205 256.021279 
L 497.418054 255.245428 
L 497.863954 255.015578 
L 498.309853 255.046733 
L 498.755753 255.334848 
L 499.275969 255.953846 
L 500.093452 257.349676 
L 502.694533 262.098941 
L 503.734965 263.448482 
L 504.849714 264.525543 
L 505.964463 265.287386 
L 507.079212 265.776154 
L 508.268278 266.048984 
L 509.383027 266.088635 
L 510.572092 265.905674 
L 511.686841 265.523581 
L 512.727274 264.93969 
L 513.767706 264.107855 
L 514.808138 262.998644 
L 515.848571 261.536739 
L 516.96332 259.555817 
L 519.490084 254.860354 
L 520.0103 254.38885 
L 520.4562 254.261075 
L 520.827783 254.361318 
L 521.273683 254.717684 
L 521.868215 255.527286 
L 522.834331 257.331216 
L 524.692246 260.856096 
L 525.806995 262.458948 
L 526.847428 263.575021 
L 527.88786 264.377879 
L 528.928292 264.908297 
L 530.043041 265.219983 
L 531.15779 265.289335 
L 532.272539 265.12054 
L 533.312972 264.746524 
L 534.353404 264.128457 
L 535.393837 263.23244 
L 536.434269 262.022485 
L 537.474701 260.432258 
L 538.663767 258.158051 
L 540.595999 254.36887 
L 541.190531 253.666953 
L 541.636431 253.429095 
L 542.008014 253.442675 
L 542.453914 253.710619 
L 542.97413 254.329565 
L 543.717296 255.620549 
L 546.541327 260.931246 
L 547.581759 262.261522 
L 548.622192 263.227493 
L 549.588307 263.835299 
L 550.554423 264.195718 
L 551.594856 264.340245 
L 552.635288 264.246183 
L 553.67572 263.914511 
L 554.641836 263.371631 
L 555.607952 262.571747 
L 556.574068 261.481736 
L 557.540184 260.042848 
L 558.580616 258.081434 
L 561.10738 253.056241 
L 561.627597 252.554952 
L 562.073496 252.419331 
L 562.445079 252.526667 
L 562.890979 252.905997 
L 563.485512 253.762277 
L 564.451627 255.65036 
L 566.235226 259.157863 
L 567.349975 260.830464 
L 568.316091 261.896154 
L 569.282206 262.624742 
L 570.248322 263.063549 
L 571.140121 263.233362 
L 572.031921 263.182952 
L 572.998036 262.895336 
L 573.889836 262.405838 
L 574.781635 261.673286 
L 575.673434 260.664252 
L 576.63955 259.221117 
L 577.679982 257.240267 
L 580.429696 251.69302 
L 580.949913 251.273272 
L 581.321496 251.218673 
L 581.693079 251.373974 
L 582.138978 251.817699 
L 582.733511 252.760355 
L 583.84826 255.081055 
L 585.334592 258.06002 
L 586.375024 259.643738 
L 587.34114 260.704937 
L 588.232939 261.36216 
L 589.124739 261.739386 
L 589.942221 261.858006 
L 590.759704 261.765607 
L 591.577186 261.460816 
L 592.394669 260.928931 
L 593.286468 260.063822 
L 594.178267 258.874272 
L 595.144383 257.190154 
L 596.333449 254.598068 
L 598.042731 250.839933 
L 598.637263 250.040668 
L 599.083163 249.769455 
L 599.454746 249.783743 
L 599.826329 250.014183 
L 600.346545 250.658756 
L 601.089711 252.045901 
L 603.690792 257.335881 
L 604.656908 258.646517 
L 605.548707 259.47438 
L 606.36619 259.935153 
L 607.109356 260.121718 
L 607.852522 260.09166 
L 608.595688 259.846013 
L 609.338854 259.377784 
L 610.156337 258.587342 
L 610.973819 257.486181 
L 611.865618 255.910433 
L 612.906051 253.602755 
L 614.986916 248.814509 
L 615.507132 248.134809 
L 615.953031 247.883829 
L 616.324614 247.929739 
L 616.696197 248.201161 
L 617.216414 248.909494 
L 617.95958 250.378407 
L 620.263394 255.215627 
L 621.155193 256.48999 
L 621.972676 257.284468 
L 622.715842 257.708162 
L 623.384691 257.855264 
L 624.053541 257.78415 
L 624.72239 257.493818 
L 625.465556 256.90664 
L 626.208722 256.022276 
L 627.026205 254.690188 
L 627.992321 252.634858 
L 629.404336 248.976149 
L 630.444768 246.531077 
L 631.039301 245.654976 
L 631.485201 245.373487 
L 631.856784 245.404198 
L 632.228367 245.673374 
L 632.748583 246.395973 
L 633.491749 247.900047 
L 635.572614 252.335731 
L 636.390096 253.520331 
L 637.133262 254.231799 
L 637.802112 254.571584 
L 638.396645 254.637128 
L 638.991177 254.480344 
L 639.58571 254.098519 
L 640.25456 253.392945 
L 640.923409 252.366657 
L 641.740892 250.688833 
L 642.781324 247.967834 
L 644.713556 242.733245 
L 645.233772 241.913415 
L 645.679671 241.598181 
L 646.051254 241.628597 
L 646.422837 241.912318 
L 646.943054 242.665508 
L 647.760536 244.360981 
L 649.321185 247.643498 
L 650.064351 248.726114 
L 650.658884 249.269055 
L 651.253416 249.516445 
L 651.773633 249.487801 
L 652.293849 249.227086 
L 652.814065 248.728262 
L 653.408598 247.849598 
L 654.151764 246.304678 
L 654.969246 244.061789 
L 656.232629 239.812186 
L 657.273061 236.578252 
L 657.867594 235.356228 
L 658.313494 234.889909 
L 658.685077 234.813118 
L 659.05666 234.99755 
L 659.576876 235.578661 
L 660.468675 237.029213 
L 661.360474 238.402762 
L 661.955007 238.932424 
L 662.400907 239.083767 
L 662.77249 239.002878 
L 663.218389 238.643217 
L 663.738605 237.859693 
L 664.333138 236.549977 
L 664.704721 235.346718 
L 665.670837 231.266928 
L 666.636953 225.905834 
L 668.717818 213.899017 
L 668.717818 213.899017 
" clip-path="url(#p955fc0a073)" style="fill: none; stroke: #ff7f0e; stroke-width: 1.5; stroke-linecap: square"/>
   </g>
   <g id="patch_3">
    <path d="M 36.465625 284.4 
L 36.465625 7.2 
" style="fill: none; stroke: #000000; stroke-width: 0.8; stroke-linejoin: miter; stroke-linecap: square"/>
   </g>
   <g id="patch_4">
    <path d="M 706.065625 284.4 
L 706.065625 7.2 
" style="fill: none; stroke: #000000; stroke-width: 0.8; stroke-linejoin: miter; stroke-linecap: square"/>
   </g>
   <g id="patch_5">
    <path d="M 36.465625 284.4 
L 706.065625 284.4 
" style="fill: none; stroke: #000000; stroke-width: 0.8; stroke-linejoin: miter; stroke-linecap: square"/>
   </g>
   <g id="patch_6">
    <path d="M 36.465625 7.2 
L 706.065625 7.2 
" style="fill: none; stroke: #000000; stroke-width: 0.8; stroke-linejoin: miter; stroke-linecap: square"/>
   </g>
   <g id="legend_1">
    <g id="patch_7">
     <path d="M 43.465625 73.9125 
L 212.265625 73.9125 
Q 214.265625 73.9125 214.265625 71.9125 
L 214.265625 14.2 
Q 214.265625 12.2 212.265625 12.2 
L 43.465625 12.2 
Q 41.465625 12.2 41.465625 14.2 
L 41.465625 71.9125 
Q 41.465625 73.9125 43.465625 73.9125 
z
" style="fill: #ffffff; opacity: 0.8; stroke: #cccccc; stroke-linejoin: miter"/>
    </g>
    <g id="line2d_17">
     <path d="M 45.465625 20.298438 
L 55.465625 20.298438 
L 65.465625 20.298438 
" style="fill: none; stroke: #1f77b4; stroke-width: 1.5; stroke-linecap: square"/>
    </g>
    <g id="text_14">
     <!-- Mf before ISCO cut: $e$=0.21 -->
     <g transform="translate(73.465625 23.798438) scale(0.1 -0.1)">
      <defs>
       <path id="DejaVuSans-4d" d="M 628 4666 
L 1569 4666 
L 2759 1491 
L 3956 4666 
L 4897 4666 
L 4897 0 
L 4281 0 
L 4281 4097 
L 3078 897 
L 2444 897 
L 1241 4097 
L 1241 0 
L 628 0 
L 628 4666 
z
" transform="scale(0.015625)"/>
       <path id="DejaVuSans-66" d="M 2375 4863 
L 2375 4384 
L 1825 4384 
Q 1516 4384 1395 4259 
Q 1275 4134 1275 3809 
L 1275 3500 
L 2222 3500 
L 2222 3053 
L 1275 3053 
L 1275 0 
L 697 0 
L 697 3053 
L 147 3053 
L 147 3500 
L 697 3500 
L 697 3744 
Q 697 4328 969 4595 
Q 1241 4863 1831 4863 
L 2375 4863 
z
" transform="scale(0.015625)"/>
       <path id="DejaVuSans-20" transform="scale(0.015625)"/>
       <path id="DejaVuSans-62" d="M 3116 1747 
Q 3116 2381 2855 2742 
Q 2594 3103 2138 3103 
Q 1681 3103 1420 2742 
Q 1159 2381 1159 1747 
Q 1159 1113 1420 752 
Q 1681 391 2138 391 
Q 2594 391 2855 752 
Q 3116 1113 3116 1747 
z
M 1159 2969 
Q 1341 3281 1617 3432 
Q 1894 3584 2278 3584 
Q 2916 3584 3314 3078 
Q 3713 2572 3713 1747 
Q 3713 922 3314 415 
Q 2916 -91 2278 -91 
Q 1894 -91 1617 61 
Q 1341 213 1159 525 
L 1159 0 
L 581 0 
L 581 4863 
L 1159 4863 
L 1159 2969 
z
" transform="scale(0.015625)"/>
       <path id="DejaVuSans-65" d="M 3597 1894 
L 3597 1613 
L 953 1613 
Q 991 1019 1311 708 
Q 1631 397 2203 397 
Q 2534 397 2845 478 
Q 3156 559 3463 722 
L 3463 178 
Q 3153 47 2828 -22 
Q 2503 -91 2169 -91 
Q 1331 -91 842 396 
Q 353 884 353 1716 
Q 353 2575 817 3079 
Q 1281 3584 2069 3584 
Q 2775 3584 3186 3129 
Q 3597 2675 3597 1894 
z
M 3022 2063 
Q 3016 2534 2758 2815 
Q 2500 3097 2075 3097 
Q 1594 3097 1305 2825 
Q 1016 2553 972 2059 
L 3022 2063 
z
" transform="scale(0.015625)"/>
       <path id="DejaVuSans-6f" d="M 1959 3097 
Q 1497 3097 1228 2736 
Q 959 2375 959 1747 
Q 959 1119 1226 758 
Q 1494 397 1959 397 
Q 2419 397 2687 759 
Q 2956 1122 2956 1747 
Q 2956 2369 2687 2733 
Q 2419 3097 1959 3097 
z
M 1959 3584 
Q 2709 3584 3137 3096 
Q 3566 2609 3566 1747 
Q 3566 888 3137 398 
Q 2709 -91 1959 -91 
Q 1206 -91 779 398 
Q 353 888 353 1747 
Q 353 2609 779 3096 
Q 1206 3584 1959 3584 
z
" transform="scale(0.015625)"/>
       <path id="DejaVuSans-72" d="M 2631 2963 
Q 2534 3019 2420 3045 
Q 2306 3072 2169 3072 
Q 1681 3072 1420 2755 
Q 1159 2438 1159 1844 
L 1159 0 
L 581 0 
L 581 3500 
L 1159 3500 
L 1159 2956 
Q 1341 3275 1631 3429 
Q 1922 3584 2338 3584 
Q 2397 3584 2469 3576 
Q 2541 3569 2628 3553 
L 2631 2963 
z
" transform="scale(0.015625)"/>
       <path id="DejaVuSans-49" d="M 628 4666 
L 1259 4666 
L 1259 0 
L 628 0 
L 628 4666 
z
" transform="scale(0.015625)"/>
       <path id="DejaVuSans-53" d="M 3425 4513 
L 3425 3897 
Q 3066 4069 2747 4153 
Q 2428 4238 2131 4238 
Q 1616 4238 1336 4038 
Q 1056 3838 1056 3469 
Q 1056 3159 1242 3001 
Q 1428 2844 1947 2747 
L 2328 2669 
Q 3034 2534 3370 2195 
Q 3706 1856 3706 1288 
Q 3706 609 3251 259 
Q 2797 -91 1919 -91 
Q 1588 -91 1214 -16 
Q 841 59 441 206 
L 441 856 
Q 825 641 1194 531 
Q 1563 422 1919 422 
Q 2459 422 2753 634 
Q 3047 847 3047 1241 
Q 3047 1584 2836 1778 
Q 2625 1972 2144 2069 
L 1759 2144 
Q 1053 2284 737 2584 
Q 422 2884 422 3419 
Q 422 4038 858 4394 
Q 1294 4750 2059 4750 
Q 2388 4750 2728 4690 
Q 3069 4631 3425 4513 
z
" transform="scale(0.015625)"/>
       <path id="DejaVuSans-43" d="M 4122 4306 
L 4122 3641 
Q 3803 3938 3442 4084 
Q 3081 4231 2675 4231 
Q 1875 4231 1450 3742 
Q 1025 3253 1025 2328 
Q 1025 1406 1450 917 
Q 1875 428 2675 428 
Q 3081 428 3442 575 
Q 3803 722 4122 1019 
L 4122 359 
Q 3791 134 3420 21 
Q 3050 -91 2638 -91 
Q 1578 -91 968 557 
Q 359 1206 359 2328 
Q 359 3453 968 4101 
Q 1578 4750 2638 4750 
Q 3056 4750 3426 4639 
Q 3797 4528 4122 4306 
z
" transform="scale(0.015625)"/>
       <path id="DejaVuSans-4f" d="M 2522 4238 
Q 1834 4238 1429 3725 
Q 1025 3213 1025 2328 
Q 1025 1447 1429 934 
Q 1834 422 2522 422 
Q 3209 422 3611 934 
Q 4013 1447 4013 2328 
Q 4013 3213 3611 3725 
Q 3209 4238 2522 4238 
z
M 2522 4750 
Q 3503 4750 4090 4092 
Q 4678 3434 4678 2328 
Q 4678 1225 4090 567 
Q 3503 -91 2522 -91 
Q 1538 -91 948 565 
Q 359 1222 359 2328 
Q 359 3434 948 4092 
Q 1538 4750 2522 4750 
z
" transform="scale(0.015625)"/>
       <path id="DejaVuSans-63" d="M 3122 3366 
L 3122 2828 
Q 2878 2963 2633 3030 
Q 2388 3097 2138 3097 
Q 1578 3097 1268 2742 
Q 959 2388 959 1747 
Q 959 1106 1268 751 
Q 1578 397 2138 397 
Q 2388 397 2633 464 
Q 2878 531 3122 666 
L 3122 134 
Q 2881 22 2623 -34 
Q 2366 -91 2075 -91 
Q 1284 -91 818 406 
Q 353 903 353 1747 
Q 353 2603 823 3093 
Q 1294 3584 2113 3584 
Q 2378 3584 2631 3529 
Q 2884 3475 3122 3366 
z
" transform="scale(0.015625)"/>
       <path id="DejaVuSans-75" d="M 544 1381 
L 544 3500 
L 1119 3500 
L 1119 1403 
Q 1119 906 1312 657 
Q 1506 409 1894 409 
Q 2359 409 2629 706 
Q 2900 1003 2900 1516 
L 2900 3500 
L 3475 3500 
L 3475 0 
L 2900 0 
L 2900 538 
Q 2691 219 2414 64 
Q 2138 -91 1772 -91 
Q 1169 -91 856 284 
Q 544 659 544 1381 
z
M 1991 3584 
L 1991 3584 
z
" transform="scale(0.015625)"/>
       <path id="DejaVuSans-74" d="M 1172 4494 
L 1172 3500 
L 2356 3500 
L 2356 3053 
L 1172 3053 
L 1172 1153 
Q 1172 725 1289 603 
Q 1406 481 1766 481 
L 2356 481 
L 2356 0 
L 1766 0 
Q 1100 0 847 248 
Q 594 497 594 1153 
L 594 3053 
L 172 3053 
L 172 3500 
L 594 3500 
L 594 4494 
L 1172 4494 
z
" transform="scale(0.015625)"/>
       <path id="DejaVuSans-3a" d="M 750 794 
L 1409 794 
L 1409 0 
L 750 0 
L 750 794 
z
M 750 3309 
L 1409 3309 
L 1409 2516 
L 750 2516 
L 750 3309 
z
" transform="scale(0.015625)"/>
       <path id="DejaVuSans-Oblique-65" d="M 3078 2063 
Q 3088 2113 3092 2166 
Q 3097 2219 3097 2272 
Q 3097 2653 2873 2875 
Q 2650 3097 2266 3097 
Q 1838 3097 1509 2826 
Q 1181 2556 1013 2059 
L 3078 2063 
z
M 3578 1613 
L 903 1613 
Q 884 1494 878 1425 
Q 872 1356 872 1306 
Q 872 872 1139 634 
Q 1406 397 1894 397 
Q 2269 397 2603 481 
Q 2938 566 3225 728 
L 3116 159 
Q 2806 34 2476 -28 
Q 2147 -91 1806 -91 
Q 1078 -91 686 257 
Q 294 606 294 1247 
Q 294 1794 489 2264 
Q 684 2734 1063 3103 
Q 1306 3334 1642 3459 
Q 1978 3584 2356 3584 
Q 2950 3584 3301 3228 
Q 3653 2872 3653 2272 
Q 3653 2128 3634 1964 
Q 3616 1800 3578 1613 
z
" transform="scale(0.015625)"/>
       <path id="DejaVuSans-3d" d="M 678 2906 
L 4684 2906 
L 4684 2381 
L 678 2381 
L 678 2906 
z
M 678 1631 
L 4684 1631 
L 4684 1100 
L 678 1100 
L 678 1631 
z
" transform="scale(0.015625)"/>
      </defs>
      <use xlink:href="#DejaVuSans-4d" transform="translate(0 0.015625)"/>
      <use xlink:href="#DejaVuSans-66" transform="translate(86.279297 0.015625)"/>
      <use xlink:href="#DejaVuSans-20" transform="translate(121.484375 0.015625)"/>
      <use xlink:href="#DejaVuSans-62" transform="translate(153.271484 0.015625)"/>
      <use xlink:href="#DejaVuSans-65" transform="translate(216.748047 0.015625)"/>
      <use xlink:href="#DejaVuSans-66" transform="translate(278.271484 0.015625)"/>
      <use xlink:href="#DejaVuSans-6f" transform="translate(313.476562 0.015625)"/>
      <use xlink:href="#DejaVuSans-72" transform="translate(374.658203 0.015625)"/>
      <use xlink:href="#DejaVuSans-65" transform="translate(415.771484 0.015625)"/>
      <use xlink:href="#DejaVuSans-20" transform="translate(477.294922 0.015625)"/>
      <use xlink:href="#DejaVuSans-49" transform="translate(509.082031 0.015625)"/>
      <use xlink:href="#DejaVuSans-53" transform="translate(538.574219 0.015625)"/>
      <use xlink:href="#DejaVuSans-43" transform="translate(602.050781 0.015625)"/>
      <use xlink:href="#DejaVuSans-4f" transform="translate(671.875 0.015625)"/>
      <use xlink:href="#DejaVuSans-20" transform="translate(750.585938 0.015625)"/>
      <use xlink:href="#DejaVuSans-63" transform="translate(782.373047 0.015625)"/>
      <use xlink:href="#DejaVuSans-75" transform="translate(837.353516 0.015625)"/>
      <use xlink:href="#DejaVuSans-74" transform="translate(900.732422 0.015625)"/>
      <use xlink:href="#DejaVuSans-3a" transform="translate(939.941406 0.015625)"/>
      <use xlink:href="#DejaVuSans-20" transform="translate(973.632812 0.015625)"/>
      <use xlink:href="#DejaVuSans-Oblique-65" transform="translate(1005.419922 0.015625)"/>
      <use xlink:href="#DejaVuSans-3d" transform="translate(1066.943359 0.015625)"/>
      <use xlink:href="#DejaVuSans-30" transform="translate(1150.732422 0.015625)"/>
      <use xlink:href="#DejaVuSans-2e" transform="translate(1214.355469 0.015625)"/>
      <use xlink:href="#DejaVuSans-32" transform="translate(1240.642578 0.015625)"/>
      <use xlink:href="#DejaVuSans-31" transform="translate(1304.265625 0.015625)"/>
     </g>
    </g>
    <g id="line2d_18">
     <path d="M 45.465625 34.976563 
L 55.465625 34.976563 
L 65.465625 34.976563 
" style="fill: none; stroke-dasharray: 2.22,0.96; stroke-dashoffset: 0; stroke: #ff0000; stroke-width: 0.6"/>
    </g>
    <g id="text_15">
     <!-- Mf ISCO $e$=0 -->
     <g transform="translate(73.465625 38.476563) scale(0.1 -0.1)">
      <use xlink:href="#DejaVuSans-4d" transform="translate(0 0.015625)"/>
      <use xlink:href="#DejaVuSans-66" transform="translate(86.279297 0.015625)"/>
      <use xlink:href="#DejaVuSans-20" transform="translate(121.484375 0.015625)"/>
      <use xlink:href="#DejaVuSans-49" transform="translate(153.271484 0.015625)"/>
      <use xlink:href="#DejaVuSans-53" transform="translate(182.763672 0.015625)"/>
      <use xlink:href="#DejaVuSans-43" transform="translate(246.240234 0.015625)"/>
      <use xlink:href="#DejaVuSans-4f" transform="translate(316.064453 0.015625)"/>
      <use xlink:href="#DejaVuSans-20" transform="translate(394.775391 0.015625)"/>
      <use xlink:href="#DejaVuSans-Oblique-65" transform="translate(426.5625 0.015625)"/>
      <use xlink:href="#DejaVuSans-3d" transform="translate(488.085938 0.015625)"/>
      <use xlink:href="#DejaVuSans-30" transform="translate(571.875 0.015625)"/>
     </g>
    </g>
    <g id="PathCollection_2">
     <g>
      <use xlink:href="#m63b77b6f8f" x="55.465625" y="50.529688" style="fill: #ff0000; stroke: #ff0000"/>
     </g>
    </g>
    <g id="text_16">
     <!-- ISCO cut -->
     <g transform="translate(73.465625 53.154688) scale(0.1 -0.1)">
      <use xlink:href="#DejaVuSans-49"/>
      <use xlink:href="#DejaVuSans-53" transform="translate(29.492188 0)"/>
      <use xlink:href="#DejaVuSans-43" transform="translate(92.96875 0)"/>
      <use xlink:href="#DejaVuSans-4f" transform="translate(162.792969 0)"/>
      <use xlink:href="#DejaVuSans-20" transform="translate(241.503906 0)"/>
      <use xlink:href="#DejaVuSans-63" transform="translate(273.291016 0)"/>
      <use xlink:href="#DejaVuSans-75" transform="translate(328.271484 0)"/>
      <use xlink:href="#DejaVuSans-74" transform="translate(391.650391 0)"/>
     </g>
    </g>
    <g id="line2d_19">
     <path d="M 45.465625 64.332813 
L 55.465625 64.332813 
L 65.465625 64.332813 
" style="fill: none; stroke: #ff7f0e; stroke-width: 1.5; stroke-linecap: square"/>
    </g>
    <g id="text_17">
     <!-- Mf after ISCO cut: $e$=0.21  -->
     <g transform="translate(73.465625 67.832813) scale(0.1 -0.1)">
      <defs>
       <path id="DejaVuSans-61" d="M 2194 1759 
Q 1497 1759 1228 1600 
Q 959 1441 959 1056 
Q 959 750 1161 570 
Q 1363 391 1709 391 
Q 2188 391 2477 730 
Q 2766 1069 2766 1631 
L 2766 1759 
L 2194 1759 
z
M 3341 1997 
L 3341 0 
L 2766 0 
L 2766 531 
Q 2569 213 2275 61 
Q 1981 -91 1556 -91 
Q 1019 -91 701 211 
Q 384 513 384 1019 
Q 384 1609 779 1909 
Q 1175 2209 1959 2209 
L 2766 2209 
L 2766 2266 
Q 2766 2663 2505 2880 
Q 2244 3097 1772 3097 
Q 1472 3097 1187 3025 
Q 903 2953 641 2809 
L 641 3341 
Q 956 3463 1253 3523 
Q 1550 3584 1831 3584 
Q 2591 3584 2966 3190 
Q 3341 2797 3341 1997 
z
" transform="scale(0.015625)"/>
      </defs>
      <use xlink:href="#DejaVuSans-4d" transform="translate(0 0.015625)"/>
      <use xlink:href="#DejaVuSans-66" transform="translate(86.279297 0.015625)"/>
      <use xlink:href="#DejaVuSans-20" transform="translate(121.484375 0.015625)"/>
      <use xlink:href="#DejaVuSans-61" transform="translate(153.271484 0.015625)"/>
      <use xlink:href="#DejaVuSans-66" transform="translate(214.550781 0.015625)"/>
      <use xlink:href="#DejaVuSans-74" transform="translate(249.755859 0.015625)"/>
      <use xlink:href="#DejaVuSans-65" transform="translate(288.964844 0.015625)"/>
      <use xlink:href="#DejaVuSans-72" transform="translate(350.488281 0.015625)"/>
      <use xlink:href="#DejaVuSans-20" transform="translate(391.601562 0.015625)"/>
      <use xlink:href="#DejaVuSans-49" transform="translate(423.388672 0.015625)"/>
      <use xlink:href="#DejaVuSans-53" transform="translate(452.880859 0.015625)"/>
      <use xlink:href="#DejaVuSans-43" transform="translate(516.357422 0.015625)"/>
      <use xlink:href="#DejaVuSans-4f" transform="translate(586.181641 0.015625)"/>
      <use xlink:href="#DejaVuSans-20" transform="translate(664.892578 0.015625)"/>
      <use xlink:href="#DejaVuSans-63" transform="translate(696.679688 0.015625)"/>
      <use xlink:href="#DejaVuSans-75" transform="translate(751.660156 0.015625)"/>
      <use xlink:href="#DejaVuSans-74" transform="translate(815.039062 0.015625)"/>
      <use xlink:href="#DejaVuSans-3a" transform="translate(854.248047 0.015625)"/>
      <use xlink:href="#DejaVuSans-20" transform="translate(887.939453 0.015625)"/>
      <use xlink:href="#DejaVuSans-Oblique-65" transform="translate(919.726562 0.015625)"/>
      <use xlink:href="#DejaVuSans-3d" transform="translate(981.25 0.015625)"/>
      <use xlink:href="#DejaVuSans-30" transform="translate(1065.039062 0.015625)"/>
      <use xlink:href="#DejaVuSans-2e" transform="translate(1128.662109 0.015625)"/>
      <use xlink:href="#DejaVuSans-32" transform="translate(1154.949219 0.015625)"/>
      <use xlink:href="#DejaVuSans-31" transform="translate(1218.572266 0.015625)"/>
      <use xlink:href="#DejaVuSans-20" transform="translate(1282.195312 0.015625)"/>
     </g>
    </g>
   </g>
  </g>
 </g>
 <defs>
  <clipPath id="p955fc0a073">
   <rect x="36.465625" y="7.2" width="669.6" height="277.2"/>
  </clipPath>
 </defs>
</svg>
