<?xml version="1.0" encoding="utf-8" standalone="no"?>
<!DOCTYPE svg PUBLIC "-//W3C//DTD SVG 1.1//EN"
  "http://www.w3.org/Graphics/SVG/1.1/DTD/svg11.dtd">
<svg xmlns:xlink="http://www.w3.org/1999/xlink" width="713.265625pt" height="308.278125pt" viewBox="0 0 713.265625 308.278125" xmlns="http://www.w3.org/2000/svg" version="1.1">
 <metadata>
  <rdf:RDF xmlns:dc="http://purl.org/dc/elements/1.1/" xmlns:cc="http://creativecommons.org/ns#" xmlns:rdf="http://www.w3.org/1999/02/22-rdf-syntax-ns#">
   <cc:Work>
    <dc:type rdf:resource="http://purl.org/dc/dcmitype/StillImage"/>
    <dc:date>2025-07-25T14:55:38.085942</dc:date>
    <dc:format>image/svg+xml</dc:format>
    <dc:creator>
     <cc:Agent>
      <dc:title>Matplotlib v3.10.3, https://matplotlib.org/</dc:title>
     </cc:Agent>
    </dc:creator>
   </cc:Work>
  </rdf:RDF>
 </metadata>
 <defs>
  <style type="text/css">*{stroke-linejoin: round; stroke-linecap: butt}</style>
 </defs>
 <g id="figure_1">
  <g id="patch_1">
   <path d="M 0 308.278125 
L 713.265625 308.278125 
L 713.265625 0 
L 0 0 
z
" style="fill: #ffffff"/>
  </g>
  <g id="axes_1">
   <g id="patch_2">
    <path d="M 36.465625 284.4 
L 706.065625 284.4 
L 706.065625 7.2 
L 36.465625 7.2 
z
" style="fill: #ffffff"/>
   </g>
   <g id="PathCollection_1">
    <defs>
     <path id="mb3c00242c4" d="M 0 1.224745 
C 0.324806 1.224745 0.636353 1.095698 0.866025 0.866025 
C 1.095698 0.636353 1.224745 0.324806 1.224745 0 
C 1.224745 -0.324806 1.095698 -0.636353 0.866025 -0.866025 
C 0.636353 -1.095698 0.324806 -1.224745 0 -1.224745 
C -0.324806 -1.224745 -0.636353 -1.095698 -0.866025 -0.866025 
C -1.095698 -0.636353 -1.224745 -0.324806 -1.224745 0 
C -1.224745 0.324806 -1.095698 0.636353 -0.866025 0.866025 
C -0.636353 1.095698 -0.324806 1.224745 0 1.224745 
z
" style="stroke: #ff0000"/>
    </defs>
    <g clip-path="url(#pc28d440290)">
     <use xlink:href="#mb3c00242c4" x="669.609617" y="213.80595" style="fill: #ff0000; stroke: #ff0000"/>
    </g>
   </g>
   <g id="matplotlib.axis_1">
    <g id="xtick_1">
     <g id="line2d_1">
      <defs>
       <path id="m7755a56228" d="M 0 0 
L 0 3.5 
" style="stroke: #000000; stroke-width: 0.8"/>
      </defs>
      <g>
       <use xlink:href="#m7755a56228" x="46.099533" y="284.4" style="stroke: #000000; stroke-width: 0.8"/>
      </g>
     </g>
     <g id="text_1">
      <!-- −14000 -->
      <g transform="translate(26.00344 298.998438) scale(0.1 -0.1)">
       <defs>
        <path id="DejaVuSans-2212" d="M 678 2272 
L 4684 2272 
L 4684 1741 
L 678 1741 
L 678 2272 
z
" transform="scale(0.015625)"/>
        <path id="DejaVuSans-31" d="M 794 531 
L 1825 531 
L 1825 4091 
L 703 3866 
L 703 4441 
L 1819 4666 
L 2450 4666 
L 2450 531 
L 3481 531 
L 3481 0 
L 794 0 
L 794 531 
z
" transform="scale(0.015625)"/>
        <path id="DejaVuSans-34" d="M 2419 4116 
L 825 1625 
L 2419 1625 
L 2419 4116 
z
M 2253 4666 
L 3047 4666 
L 3047 1625 
L 3713 1625 
L 3713 1100 
L 3047 1100 
L 3047 0 
L 2419 0 
L 2419 1100 
L 313 1100 
L 313 1709 
L 2253 4666 
z
" transform="scale(0.015625)"/>
        <path id="DejaVuSans-30" d="M 2034 4250 
Q 1547 4250 1301 3770 
Q 1056 3291 1056 2328 
Q 1056 1369 1301 889 
Q 1547 409 2034 409 
Q 2525 409 2770 889 
Q 3016 1369 3016 2328 
Q 3016 3291 2770 3770 
Q 2525 4250 2034 4250 
z
M 2034 4750 
Q 2819 4750 3233 4129 
Q 3647 3509 3647 2328 
Q 3647 1150 3233 529 
Q 2819 -91 2034 -91 
Q 1250 -91 836 529 
Q 422 1150 422 2328 
Q 422 3509 836 4129 
Q 1250 4750 2034 4750 
z
" transform="scale(0.015625)"/>
       </defs>
       <use xlink:href="#DejaVuSans-2212"/>
       <use xlink:href="#DejaVuSans-31" transform="translate(83.789062 0)"/>
       <use xlink:href="#DejaVuSans-34" transform="translate(147.412109 0)"/>
       <use xlink:href="#DejaVuSans-30" transform="translate(211.035156 0)"/>
       <use xlink:href="#DejaVuSans-30" transform="translate(274.658203 0)"/>
       <use xlink:href="#DejaVuSans-30" transform="translate(338.28125 0)"/>
      </g>
     </g>
    </g>
    <g id="xtick_2">
     <g id="line2d_2">
      <g>
       <use xlink:href="#m7755a56228" x="135.57819" y="284.4" style="stroke: #000000; stroke-width: 0.8"/>
      </g>
     </g>
     <g id="text_2">
      <!-- −12000 -->
      <g transform="translate(115.482097 298.998438) scale(0.1 -0.1)">
       <defs>
        <path id="DejaVuSans-32" d="M 1228 531 
L 3431 531 
L 3431 0 
L 469 0 
L 469 531 
Q 828 903 1448 1529 
Q 2069 2156 2228 2338 
Q 2531 2678 2651 2914 
Q 2772 3150 2772 3378 
Q 2772 3750 2511 3984 
Q 2250 4219 1831 4219 
Q 1534 4219 1204 4116 
Q 875 4013 500 3803 
L 500 4441 
Q 881 4594 1212 4672 
Q 1544 4750 1819 4750 
Q 2544 4750 2975 4387 
Q 3406 4025 3406 3419 
Q 3406 3131 3298 2873 
Q 3191 2616 2906 2266 
Q 2828 2175 2409 1742 
Q 1991 1309 1228 531 
z
" transform="scale(0.015625)"/>
       </defs>
       <use xlink:href="#DejaVuSans-2212"/>
       <use xlink:href="#DejaVuSans-31" transform="translate(83.789062 0)"/>
       <use xlink:href="#DejaVuSans-32" transform="translate(147.412109 0)"/>
       <use xlink:href="#DejaVuSans-30" transform="translate(211.035156 0)"/>
       <use xlink:href="#DejaVuSans-30" transform="translate(274.658203 0)"/>
       <use xlink:href="#DejaVuSans-30" transform="translate(338.28125 0)"/>
      </g>
     </g>
    </g>
    <g id="xtick_3">
     <g id="line2d_3">
      <g>
       <use xlink:href="#m7755a56228" x="225.056848" y="284.4" style="stroke: #000000; stroke-width: 0.8"/>
      </g>
     </g>
     <g id="text_3">
      <!-- −10000 -->
      <g transform="translate(204.960754 298.998438) scale(0.1 -0.1)">
       <use xlink:href="#DejaVuSans-2212"/>
       <use xlink:href="#DejaVuSans-31" transform="translate(83.789062 0)"/>
       <use xlink:href="#DejaVuSans-30" transform="translate(147.412109 0)"/>
       <use xlink:href="#DejaVuSans-30" transform="translate(211.035156 0)"/>
       <use xlink:href="#DejaVuSans-30" transform="translate(274.658203 0)"/>
       <use xlink:href="#DejaVuSans-30" transform="translate(338.28125 0)"/>
      </g>
     </g>
    </g>
    <g id="xtick_4">
     <g id="line2d_4">
      <g>
       <use xlink:href="#m7755a56228" x="314.535505" y="284.4" style="stroke: #000000; stroke-width: 0.8"/>
      </g>
     </g>
     <g id="text_4">
      <!-- −8000 -->
      <g transform="translate(297.620661 298.998438) scale(0.1 -0.1)">
       <defs>
        <path id="DejaVuSans-38" d="M 2034 2216 
Q 1584 2216 1326 1975 
Q 1069 1734 1069 1313 
Q 1069 891 1326 650 
Q 1584 409 2034 409 
Q 2484 409 2743 651 
Q 3003 894 3003 1313 
Q 3003 1734 2745 1975 
Q 2488 2216 2034 2216 
z
M 1403 2484 
Q 997 2584 770 2862 
Q 544 3141 544 3541 
Q 544 4100 942 4425 
Q 1341 4750 2034 4750 
Q 2731 4750 3128 4425 
Q 3525 4100 3525 3541 
Q 3525 3141 3298 2862 
Q 3072 2584 2669 2484 
Q 3125 2378 3379 2068 
Q 3634 1759 3634 1313 
Q 3634 634 3220 271 
Q 2806 -91 2034 -91 
Q 1263 -91 848 271 
Q 434 634 434 1313 
Q 434 1759 690 2068 
Q 947 2378 1403 2484 
z
M 1172 3481 
Q 1172 3119 1398 2916 
Q 1625 2713 2034 2713 
Q 2441 2713 2670 2916 
Q 2900 3119 2900 3481 
Q 2900 3844 2670 4047 
Q 2441 4250 2034 4250 
Q 1625 4250 1398 4047 
Q 1172 3844 1172 3481 
z
" transform="scale(0.015625)"/>
       </defs>
       <use xlink:href="#DejaVuSans-2212"/>
       <use xlink:href="#DejaVuSans-38" transform="translate(83.789062 0)"/>
       <use xlink:href="#DejaVuSans-30" transform="translate(147.412109 0)"/>
       <use xlink:href="#DejaVuSans-30" transform="translate(211.035156 0)"/>
       <use xlink:href="#DejaVuSans-30" transform="translate(274.658203 0)"/>
      </g>
     </g>
    </g>
    <g id="xtick_5">
     <g id="line2d_5">
      <g>
       <use xlink:href="#m7755a56228" x="404.014162" y="284.4" style="stroke: #000000; stroke-width: 0.8"/>
      </g>
     </g>
     <g id="text_5">
      <!-- −6000 -->
      <g transform="translate(387.099318 298.998438) scale(0.1 -0.1)">
       <defs>
        <path id="DejaVuSans-36" d="M 2113 2584 
Q 1688 2584 1439 2293 
Q 1191 2003 1191 1497 
Q 1191 994 1439 701 
Q 1688 409 2113 409 
Q 2538 409 2786 701 
Q 3034 994 3034 1497 
Q 3034 2003 2786 2293 
Q 2538 2584 2113 2584 
z
M 3366 4563 
L 3366 3988 
Q 3128 4100 2886 4159 
Q 2644 4219 2406 4219 
Q 1781 4219 1451 3797 
Q 1122 3375 1075 2522 
Q 1259 2794 1537 2939 
Q 1816 3084 2150 3084 
Q 2853 3084 3261 2657 
Q 3669 2231 3669 1497 
Q 3669 778 3244 343 
Q 2819 -91 2113 -91 
Q 1303 -91 875 529 
Q 447 1150 447 2328 
Q 447 3434 972 4092 
Q 1497 4750 2381 4750 
Q 2619 4750 2861 4703 
Q 3103 4656 3366 4563 
z
" transform="scale(0.015625)"/>
       </defs>
       <use xlink:href="#DejaVuSans-2212"/>
       <use xlink:href="#DejaVuSans-36" transform="translate(83.789062 0)"/>
       <use xlink:href="#DejaVuSans-30" transform="translate(147.412109 0)"/>
       <use xlink:href="#DejaVuSans-30" transform="translate(211.035156 0)"/>
       <use xlink:href="#DejaVuSans-30" transform="translate(274.658203 0)"/>
      </g>
     </g>
    </g>
    <g id="xtick_6">
     <g id="line2d_6">
      <g>
       <use xlink:href="#m7755a56228" x="493.492819" y="284.4" style="stroke: #000000; stroke-width: 0.8"/>
      </g>
     </g>
     <g id="text_6">
      <!-- −4000 -->
      <g transform="translate(476.577975 298.998438) scale(0.1 -0.1)">
       <use xlink:href="#DejaVuSans-2212"/>
       <use xlink:href="#DejaVuSans-34" transform="translate(83.789062 0)"/>
       <use xlink:href="#DejaVuSans-30" transform="translate(147.412109 0)"/>
       <use xlink:href="#DejaVuSans-30" transform="translate(211.035156 0)"/>
       <use xlink:href="#DejaVuSans-30" transform="translate(274.658203 0)"/>
      </g>
     </g>
    </g>
    <g id="xtick_7">
     <g id="line2d_7">
      <g>
       <use xlink:href="#m7755a56228" x="582.971476" y="284.4" style="stroke: #000000; stroke-width: 0.8"/>
      </g>
     </g>
     <g id="text_7">
      <!-- −2000 -->
      <g transform="translate(566.056633 298.998438) scale(0.1 -0.1)">
       <use xlink:href="#DejaVuSans-2212"/>
       <use xlink:href="#DejaVuSans-32" transform="translate(83.789062 0)"/>
       <use xlink:href="#DejaVuSans-30" transform="translate(147.412109 0)"/>
       <use xlink:href="#DejaVuSans-30" transform="translate(211.035156 0)"/>
       <use xlink:href="#DejaVuSans-30" transform="translate(274.658203 0)"/>
      </g>
     </g>
    </g>
    <g id="xtick_8">
     <g id="line2d_8">
      <g>
       <use xlink:href="#m7755a56228" x="672.450134" y="284.4" style="stroke: #000000; stroke-width: 0.8"/>
      </g>
     </g>
     <g id="text_8">
      <!-- 0 -->
      <g transform="translate(669.268884 298.998438) scale(0.1 -0.1)">
       <use xlink:href="#DejaVuSans-30"/>
      </g>
     </g>
    </g>
   </g>
   <g id="matplotlib.axis_2">
    <g id="ytick_1">
     <g id="line2d_9">
      <defs>
       <path id="m865df1a8cc" d="M 0 0 
L -3.5 0 
" style="stroke: #000000; stroke-width: 0.8"/>
      </defs>
      <g>
       <use xlink:href="#m865df1a8cc" x="36.465625" y="278.058653" style="stroke: #000000; stroke-width: 0.8"/>
      </g>
     </g>
     <g id="text_9">
      <!-- 0.00 -->
      <g transform="translate(7.2 281.857872) scale(0.1 -0.1)">
       <defs>
        <path id="DejaVuSans-2e" d="M 684 794 
L 1344 794 
L 1344 0 
L 684 0 
L 684 794 
z
" transform="scale(0.015625)"/>
       </defs>
       <use xlink:href="#DejaVuSans-30"/>
       <use xlink:href="#DejaVuSans-2e" transform="translate(63.623047 0)"/>
       <use xlink:href="#DejaVuSans-30" transform="translate(95.410156 0)"/>
       <use xlink:href="#DejaVuSans-30" transform="translate(159.033203 0)"/>
      </g>
     </g>
    </g>
    <g id="ytick_2">
     <g id="line2d_10">
      <g>
       <use xlink:href="#m865df1a8cc" x="36.465625" y="219.422062" style="stroke: #000000; stroke-width: 0.8"/>
      </g>
     </g>
     <g id="text_10">
      <!-- 0.02 -->
      <g transform="translate(7.2 223.221281) scale(0.1 -0.1)">
       <use xlink:href="#DejaVuSans-30"/>
       <use xlink:href="#DejaVuSans-2e" transform="translate(63.623047 0)"/>
       <use xlink:href="#DejaVuSans-30" transform="translate(95.410156 0)"/>
       <use xlink:href="#DejaVuSans-32" transform="translate(159.033203 0)"/>
      </g>
     </g>
    </g>
    <g id="ytick_3">
     <g id="line2d_11">
      <g>
       <use xlink:href="#m865df1a8cc" x="36.465625" y="160.78547" style="stroke: #000000; stroke-width: 0.8"/>
      </g>
     </g>
     <g id="text_11">
      <!-- 0.04 -->
      <g transform="translate(7.2 164.584689) scale(0.1 -0.1)">
       <use xlink:href="#DejaVuSans-30"/>
       <use xlink:href="#DejaVuSans-2e" transform="translate(63.623047 0)"/>
       <use xlink:href="#DejaVuSans-30" transform="translate(95.410156 0)"/>
       <use xlink:href="#DejaVuSans-34" transform="translate(159.033203 0)"/>
      </g>
     </g>
    </g>
    <g id="ytick_4">
     <g id="line2d_12">
      <g>
       <use xlink:href="#m865df1a8cc" x="36.465625" y="102.148879" style="stroke: #000000; stroke-width: 0.8"/>
      </g>
     </g>
     <g id="text_12">
      <!-- 0.06 -->
      <g transform="translate(7.2 105.948098) scale(0.1 -0.1)">
       <use xlink:href="#DejaVuSans-30"/>
       <use xlink:href="#DejaVuSans-2e" transform="translate(63.623047 0)"/>
       <use xlink:href="#DejaVuSans-30" transform="translate(95.410156 0)"/>
       <use xlink:href="#DejaVuSans-36" transform="translate(159.033203 0)"/>
      </g>
     </g>
    </g>
    <g id="ytick_5">
     <g id="line2d_13">
      <g>
       <use xlink:href="#m865df1a8cc" x="36.465625" y="43.512287" style="stroke: #000000; stroke-width: 0.8"/>
      </g>
     </g>
     <g id="text_13">
      <!-- 0.08 -->
      <g transform="translate(7.2 47.311506) scale(0.1 -0.1)">
       <use xlink:href="#DejaVuSans-30"/>
       <use xlink:href="#DejaVuSans-2e" transform="translate(63.623047 0)"/>
       <use xlink:href="#DejaVuSans-30" transform="translate(95.410156 0)"/>
       <use xlink:href="#DejaVuSans-38" transform="translate(159.033203 0)"/>
      </g>
     </g>
    </g>
   </g>
   <g id="line2d_14">
    <path d="M 66.901989 266.255953 
L 67.199255 266.526514 
L 69.05717 268.290372 
L 70.469185 269.335359 
L 71.881201 270.109936 
L 73.664799 270.825635 
L 75.522714 271.349528 
L 77.454946 271.649663 
L 79.907394 271.799674 
L 82.136892 271.701077 
L 84.440706 271.396078 
L 86.149988 270.943147 
L 88.230853 270.149484 
L 89.717185 269.355382 
L 91.054884 268.382994 
L 92.615532 266.959584 
L 95.959779 263.76854 
L 96.702945 263.43914 
L 97.371795 263.385398 
L 98.040644 263.569984 
L 98.78381 264.022614 
L 99.824243 264.960133 
L 103.465756 268.506391 
L 104.877771 269.466177 
L 106.43842 270.239097 
L 108.296335 270.905908 
L 110.079933 271.311117 
L 112.235115 271.553603 
L 114.390296 271.584829 
L 116.768427 271.377592 
L 118.626342 271.013239 
L 120.484257 270.39834 
L 122.267856 269.585324 
L 123.605555 268.737113 
L 125.01757 267.567231 
L 126.801168 265.773564 
L 128.7334 263.865969 
L 129.550883 263.348927 
L 130.219732 263.162226 
L 130.888581 263.217584 
L 131.557431 263.506898 
L 132.374913 264.119497 
L 133.712612 265.465554 
L 136.016427 267.781849 
L 137.428442 268.880728 
L 138.840458 269.70153 
L 140.549739 270.429147 
L 142.333338 270.949041 
L 144.191253 271.248799 
L 146.346434 271.380624 
L 148.427299 271.280908 
L 150.582481 270.964568 
L 152.291762 270.479429 
L 154.149677 269.712941 
L 155.636009 268.864791 
L 156.973708 267.836996 
L 158.534357 266.340738 
L 161.432704 263.459206 
L 162.17587 263.052203 
L 162.84472 262.926414 
L 163.513569 263.047624 
L 164.182418 263.398453 
L 165.074218 264.140309 
L 166.783499 265.94302 
L 168.567098 267.697801 
L 169.979113 268.779043 
L 171.465445 269.622034 
L 173.174727 270.325572 
L 174.884009 270.78983 
L 176.81624 271.068588 
L 178.822789 271.147139 
L 180.903653 270.997698 
L 182.835885 270.650837 
L 184.47085 270.130012 
L 186.180132 269.36333 
L 187.592147 268.496665 
L 188.929846 267.409659 
L 190.564811 265.770419 
L 192.942943 263.352141 
L 193.760425 262.849377 
L 194.429275 262.68709 
L 195.023807 262.753347 
L 195.692657 263.054761 
L 196.510139 263.688296 
L 197.847838 265.071832 
L 200.077336 267.36456 
L 201.489352 268.486137 
L 202.901367 269.325936 
L 204.536332 270.037233 
L 206.171298 270.51376 
L 208.029213 270.809967 
L 209.961444 270.90418 
L 211.967992 270.769405 
L 213.825907 270.439397 
L 215.460873 269.919678 
L 217.170154 269.135921 
L 218.58217 268.248939 
L 219.919869 267.138871 
L 221.554834 265.466228 
L 223.858648 263.096678 
L 224.676131 262.588983 
L 225.34498 262.427257 
L 225.939513 262.497683 
L 226.608363 262.807208 
L 227.425845 263.453506 
L 228.763544 264.858153 
L 230.993042 267.172098 
L 232.405057 268.297095 
L 233.817073 269.139276 
L 235.377721 269.819829 
L 237.012687 270.289894 
L 238.796285 270.565755 
L 240.6542 270.638681 
L 242.586432 270.483419 
L 244.37003 270.128501 
L 245.930679 269.593091 
L 247.565644 268.794054 
L 248.977659 267.850471 
L 250.315358 266.679556 
L 252.02464 264.860392 
L 253.882555 262.922055 
L 254.700037 262.366205 
L 255.368887 262.161231 
L 255.96342 262.195762 
L 256.632269 262.473027 
L 257.449752 263.096254 
L 258.638817 264.333696 
L 261.091265 266.9284 
L 262.503281 268.065903 
L 263.915296 268.91706 
L 265.475945 269.597404 
L 267.036593 270.039054 
L 268.820192 270.304234 
L 270.60379 270.349716 
L 272.461705 270.167784 
L 274.170987 269.781877 
L 275.731635 269.192481 
L 277.292284 268.359885 
L 278.629983 267.395038 
L 279.967682 266.153852 
L 281.97423 263.931862 
L 283.311929 262.575613 
L 284.129411 262.038496 
L 284.798261 261.859383 
L 285.392793 261.922074 
L 286.061643 262.232507 
L 286.879125 262.891916 
L 288.142508 264.248885 
L 290.372006 266.633514 
L 291.784021 267.792624 
L 293.196036 268.658958 
L 294.682368 269.31606 
L 296.243017 269.759913 
L 297.952299 270.009004 
L 299.661581 270.038685 
L 301.445179 269.841308 
L 303.080144 269.439475 
L 304.566476 268.843534 
L 306.052808 268.008501 
L 307.390507 266.997987 
L 308.802522 265.6266 
L 312.444036 261.859976 
L 313.112885 261.580653 
L 313.707418 261.553566 
L 314.301951 261.738652 
L 315.045117 262.233268 
L 316.011233 263.182576 
L 319.57843 266.954233 
L 320.916128 267.931499 
L 322.328144 268.695328 
L 323.814476 269.247159 
L 325.375124 269.58634 
L 327.01009 269.722089 
L 328.645055 269.639934 
L 330.28002 269.34437 
L 331.766352 268.853609 
L 333.252684 268.118015 
L 334.590383 267.216864 
L 335.928082 266.034568 
L 337.48873 264.326285 
L 339.643912 261.954781 
L 340.461394 261.39191 
L 341.130244 261.201233 
L 341.724776 261.262879 
L 342.393626 261.582414 
L 343.211108 262.264199 
L 344.474491 263.665532 
L 346.629672 266.037181 
L 347.967371 267.174122 
L 349.30507 268.032267 
L 350.717085 268.680681 
L 352.203417 269.113044 
L 353.764066 269.336083 
L 355.324714 269.341414 
L 356.959679 269.118864 
L 358.446011 268.695777 
L 359.858027 268.059757 
L 361.270042 267.170198 
L 362.533424 266.114531 
L 363.94544 264.62844 
L 366.918104 261.354375 
L 367.66127 260.929926 
L 368.255803 260.82485 
L 368.850335 260.94347 
L 369.519185 261.325127 
L 370.336667 262.068462 
L 371.897316 263.87494 
L 373.680915 265.815948 
L 375.018613 266.942599 
L 376.356312 267.784551 
L 377.768328 268.405159 
L 379.180343 268.785342 
L 380.666675 268.964125 
L 382.153007 268.927449 
L 383.713656 268.660731 
L 385.125671 268.194055 
L 386.46337 267.521015 
L 387.801069 266.597272 
L 389.064451 265.453738 
L 390.550783 263.784931 
L 392.854597 261.155992 
L 393.597763 260.629635 
L 394.266613 260.425481 
L 394.861146 260.486153 
L 395.455678 260.76751 
L 396.198844 261.376784 
L 397.313593 262.618617 
L 399.766041 265.413823 
L 401.10374 266.565968 
L 402.441439 267.421037 
L 403.779138 268.013592 
L 405.191153 268.390354 
L 406.603168 268.5446 
L 408.015184 268.485523 
L 409.427199 268.21436 
L 410.764898 267.739808 
L 412.102597 267.022025 
L 413.365979 266.095654 
L 414.629361 264.892831 
L 416.19001 263.063699 
L 418.122241 260.809451 
L 418.939724 260.196634 
L 419.534257 259.991999 
L 420.12879 260.020689 
L 420.723322 260.278696 
L 421.466488 260.873679 
L 422.506921 262.031569 
L 425.182318 265.123672 
L 426.520017 266.265802 
L 427.783399 267.061005 
L 429.046782 267.608775 
L 430.384481 267.951353 
L 431.796496 268.076337 
L 433.208511 267.96719 
L 434.54621 267.645932 
L 435.809592 267.123933 
L 437.072975 266.362694 
L 438.336357 265.334929 
L 439.599739 264.015839 
L 441.531971 261.610229 
L 442.795353 260.203197 
L 443.538519 259.674614 
L 444.133052 259.494167 
L 444.727584 259.55494 
L 445.322117 259.848706 
L 446.065283 260.486653 
L 447.180032 261.782966 
L 449.558163 264.58685 
L 450.821546 265.71026 
L 452.084928 266.541206 
L 453.34831 267.106106 
L 454.611692 267.435116 
L 455.949391 267.550318 
L 457.28709 267.433099 
L 458.550472 267.105947 
L 459.813854 266.545271 
L 461.00292 265.779516 
L 462.191985 264.759421 
L 463.455368 263.381064 
L 466.948248 259.298901 
L 467.617097 258.984935 
L 468.21163 258.964528 
L 468.806163 259.190549 
L 469.475012 259.702037 
L 470.441128 260.770554 
L 473.562425 264.463859 
L 474.825807 265.509322 
L 476.014873 266.216051 
L 477.203939 266.678027 
L 478.467321 266.927957 
L 479.730703 266.944377 
L 480.994085 266.729676 
L 482.183151 266.305729 
L 483.372216 265.6428 
L 484.561282 264.718881 
L 485.750348 263.513464 
L 487.23668 261.651123 
L 489.243228 259.143125 
L 489.986394 258.558717 
L 490.580927 258.345175 
L 491.101143 258.3686 
L 491.695676 258.631658 
L 492.364525 259.185728 
L 493.330641 260.305651 
L 496.154672 263.747747 
L 497.343737 264.790084 
L 498.532803 265.542172 
L 499.721869 266.02638 
L 500.910934 266.266738 
L 502.1 266.275933 
L 503.289065 266.056386 
L 504.478131 265.597541 
L 505.59288 264.928653 
L 506.707629 264.00888 
L 507.896695 262.736467 
L 509.383027 260.786919 
L 511.166625 258.497661 
L 511.909791 257.884385 
L 512.504324 257.655778 
L 513.02454 257.673669 
L 513.619073 257.939429 
L 514.287922 258.506239 
L 515.254038 259.654713 
L 518.003752 263.084732 
L 519.192818 264.145979 
L 520.307567 264.856466 
L 521.422316 265.308428 
L 522.537065 265.521183 
L 523.651814 265.506438 
L 524.766563 265.265382 
L 525.881312 264.786998 
L 526.996061 264.05107 
L 528.11081 263.039836 
L 529.299875 261.652337 
L 531.15779 259.060278 
L 532.346856 257.592003 
L 533.090022 257.020091 
L 533.684555 256.847369 
L 534.204771 256.925188 
L 534.799304 257.263107 
L 535.54247 257.988341 
L 536.731535 259.535464 
L 538.663767 262.018225 
L 539.852833 263.174357 
L 540.967582 263.942982 
L 542.008014 264.399966 
L 543.048447 264.626787 
L 544.088879 264.630392 
L 545.129311 264.410671 
L 546.169744 263.964909 
L 547.210176 263.277642 
L 548.250609 262.31305 
L 549.365358 260.968428 
L 551.074639 258.489081 
L 552.338022 256.819386 
L 553.081188 256.180332 
L 553.67572 255.951299 
L 554.195937 255.984841 
L 554.716153 256.232899 
L 555.385002 256.820627 
L 556.351118 258.019145 
L 558.952199 261.412849 
L 560.066948 262.46263 
L 561.10738 263.134365 
L 562.073496 263.506916 
L 563.039612 263.649314 
L 564.005728 263.562275 
L 564.971844 263.2487 
L 565.937959 262.705917 
L 566.978392 261.855683 
L 568.018824 260.717962 
L 569.282206 258.97156 
L 571.660338 255.573624 
L 572.329187 255.023809 
L 572.849403 254.839827 
L 573.369619 254.890181 
L 573.889836 255.166878 
L 574.558685 255.801551 
L 575.524801 257.071933 
L 577.828615 260.19138 
L 578.943364 261.269798 
L 579.90948 261.910594 
L 580.875596 262.282688 
L 581.767395 262.394382 
L 582.659194 262.285784 
L 583.550994 261.955843 
L 584.442793 261.398448 
L 585.408909 260.528728 
L 586.449341 259.277852 
L 587.712723 257.384923 
L 589.644955 254.453594 
L 590.388121 253.748508 
L 590.908337 253.521417 
L 591.428553 253.541819 
L 591.948769 253.803567 
L 592.617619 254.440174 
L 593.583735 255.741699 
L 595.813233 258.835672 
L 596.853665 259.858549 
L 597.745464 260.45209 
L 598.637263 260.783016 
L 599.454746 260.85855 
L 600.272229 260.716985 
L 601.089711 260.356082 
L 601.981511 259.707793 
L 602.87331 258.785663 
L 603.913742 257.37427 
L 605.400074 254.909522 
L 606.737773 252.82332 
L 607.406622 252.136168 
L 607.926839 251.868035 
L 608.372738 251.847647 
L 608.892954 252.066543 
L 609.487487 252.596564 
L 610.30497 253.663595 
L 612.980367 257.393724 
L 613.946483 258.252394 
L 614.763966 258.700334 
L 615.581448 258.889288 
L 616.324614 258.836479 
L 617.06778 258.568447 
L 617.885263 258.019881 
L 618.702746 257.201969 
L 619.668861 255.896154 
L 620.857927 253.872383 
L 622.715842 250.673113 
L 623.384691 249.945252 
L 623.904908 249.671835 
L 624.350807 249.665166 
L 624.796707 249.863919 
L 625.39124 250.405806 
L 626.208722 251.506862 
L 628.586853 254.912322 
L 629.404336 255.661529 
L 630.147502 256.079466 
L 630.890668 256.238931 
L 631.559517 256.157897 
L 632.228367 255.861644 
L 632.971533 255.27755 
L 633.789015 254.328183 
L 634.680815 252.947471 
L 635.944197 250.523255 
L 637.430529 247.750599 
L 638.099378 246.944723 
L 638.619594 246.631036 
L 639.065494 246.600656 
L 639.511394 246.79445 
L 640.105926 247.345626 
L 640.923409 248.462497 
L 642.855641 251.196195 
L 643.673123 251.926695 
L 644.341973 252.252049 
L 644.936505 252.320982 
L 645.531038 252.176284 
L 646.125571 251.807169 
L 646.79442 251.126315 
L 647.537586 250.049676 
L 648.429386 248.353958 
L 649.915718 244.941063 
L 650.95615 242.82927 
L 651.550683 242.042373 
L 652.070899 241.692227 
L 652.516799 241.66383 
L 652.962698 241.865869 
L 653.557231 242.416909 
L 654.969246 244.213277 
L 655.861046 245.128954 
L 656.455578 245.469057 
L 656.975795 245.548424 
L 657.496011 245.409586 
L 658.016227 245.03975 
L 658.61076 244.313874 
L 659.279609 243.120954 
L 660.097092 241.161589 
L 661.137524 237.973625 
L 663.069756 232.250279 
L 663.738605 231.043799 
L 664.481771 230.198177 
L 666.339686 229.041227 
L 666.785586 228.397899 
L 667.826018 225.72272 
L 668.346235 223.408509 
L 668.717818 221.331767 
L 669.386667 216.036705 
L 669.9812 209.41571 
L 670.575733 199.959657 
L 671.095949 187.984909 
L 671.690482 168.539209 
L 672.062065 147.407487 
L 672.433648 111.906136 
L 673.176814 36.741875 
L 673.47408 26.191927 
L 673.771346 22.085612 
L 674.068613 20.599639 
L 674.365879 20.076266 
L 674.737462 19.871106 
L 675.480628 19.801766 
L 675.629261 19.8 
L 675.629261 19.8 
" clip-path="url(#pc28d440290)" style="fill: none; stroke: #1f77b4; stroke-width: 1.5; stroke-linecap: square"/>
   </g>
   <g id="line2d_15">
    <path d="M 36.465625 214.560372 
L 706.065625 214.560372 
" clip-path="url(#pc28d440290)" style="fill: none; stroke-dasharray: 2.22,0.96; stroke-dashoffset: 0; stroke: #ff0000; stroke-width: 0.6"/>
   </g>
   <g id="line2d_16">
    <path d="M 66.901989 266.255953 
L 67.199255 266.526514 
L 69.05717 268.290372 
L 70.469185 269.335359 
L 71.881201 270.109936 
L 73.664799 270.825635 
L 75.522714 271.349528 
L 77.454946 271.649663 
L 79.907394 271.799674 
L 82.136892 271.701077 
L 84.440706 271.396078 
L 86.149988 270.943147 
L 88.230853 270.149484 
L 89.717185 269.355382 
L 91.054884 268.382994 
L 92.615532 266.959584 
L 95.959779 263.76854 
L 96.702945 263.43914 
L 97.371795 263.385398 
L 98.040644 263.569984 
L 98.78381 264.022614 
L 99.824243 264.960133 
L 103.465756 268.506391 
L 104.877771 269.466177 
L 106.43842 270.239097 
L 108.296335 270.905908 
L 110.079933 271.311117 
L 112.235115 271.553603 
L 114.390296 271.584829 
L 116.768427 271.377592 
L 118.626342 271.013239 
L 120.484257 270.39834 
L 122.267856 269.585324 
L 123.605555 268.737113 
L 125.01757 267.567231 
L 126.801168 265.773564 
L 128.7334 263.865969 
L 129.550883 263.348927 
L 130.219732 263.162226 
L 130.888581 263.217584 
L 131.557431 263.506898 
L 132.374913 264.119497 
L 133.712612 265.465554 
L 136.016427 267.781849 
L 137.428442 268.880728 
L 138.840458 269.70153 
L 140.549739 270.429147 
L 142.333338 270.949041 
L 144.191253 271.248799 
L 146.346434 271.380624 
L 148.427299 271.280908 
L 150.582481 270.964568 
L 152.291762 270.479429 
L 154.149677 269.712941 
L 155.636009 268.864791 
L 156.973708 267.836996 
L 158.534357 266.340738 
L 161.432704 263.459206 
L 162.17587 263.052203 
L 162.84472 262.926414 
L 163.513569 263.047624 
L 164.182418 263.398453 
L 165.074218 264.140309 
L 166.783499 265.94302 
L 168.567098 267.697801 
L 169.979113 268.779043 
L 171.465445 269.622034 
L 173.174727 270.325572 
L 174.884009 270.78983 
L 176.81624 271.068588 
L 178.822789 271.147139 
L 180.903653 270.997698 
L 182.835885 270.650837 
L 184.47085 270.130012 
L 186.180132 269.36333 
L 187.592147 268.496665 
L 188.929846 267.409659 
L 190.564811 265.770419 
L 192.942943 263.352141 
L 193.760425 262.849377 
L 194.429275 262.68709 
L 195.023807 262.753347 
L 195.692657 263.054761 
L 196.510139 263.688296 
L 197.847838 265.071832 
L 200.077336 267.36456 
L 201.489352 268.486137 
L 202.901367 269.325936 
L 204.536332 270.037233 
L 206.171298 270.51376 
L 208.029213 270.809967 
L 209.961444 270.90418 
L 211.967992 270.769405 
L 213.825907 270.439397 
L 215.460873 269.919678 
L 217.170154 269.135921 
L 218.58217 268.248939 
L 219.919869 267.138871 
L 221.554834 265.466228 
L 223.858648 263.096678 
L 224.676131 262.588983 
L 225.34498 262.427257 
L 225.939513 262.497683 
L 226.608363 262.807208 
L 227.425845 263.453506 
L 228.763544 264.858153 
L 230.993042 267.172098 
L 232.405057 268.297095 
L 233.817073 269.139276 
L 235.377721 269.819829 
L 237.012687 270.289894 
L 238.796285 270.565755 
L 240.6542 270.638681 
L 242.586432 270.483419 
L 244.37003 270.128501 
L 245.930679 269.593091 
L 247.565644 268.794054 
L 248.977659 267.850471 
L 250.315358 266.679556 
L 252.02464 264.860392 
L 253.882555 262.922055 
L 254.700037 262.366205 
L 255.368887 262.161231 
L 255.96342 262.195762 
L 256.632269 262.473027 
L 257.449752 263.096254 
L 258.638817 264.333696 
L 261.091265 266.9284 
L 262.503281 268.065903 
L 263.915296 268.91706 
L 265.475945 269.597404 
L 267.036593 270.039054 
L 268.820192 270.304234 
L 270.60379 270.349716 
L 272.461705 270.167784 
L 274.170987 269.781877 
L 275.731635 269.192481 
L 277.292284 268.359885 
L 278.629983 267.395038 
L 279.967682 266.153852 
L 281.97423 263.931862 
L 283.311929 262.575613 
L 284.129411 262.038496 
L 284.798261 261.859383 
L 285.392793 261.922074 
L 286.061643 262.232507 
L 286.879125 262.891916 
L 288.142508 264.248885 
L 290.372006 266.633514 
L 291.784021 267.792624 
L 293.196036 268.658958 
L 294.682368 269.31606 
L 296.243017 269.759913 
L 297.952299 270.009004 
L 299.661581 270.038685 
L 301.445179 269.841308 
L 303.080144 269.439475 
L 304.566476 268.843534 
L 306.052808 268.008501 
L 307.390507 266.997987 
L 308.802522 265.6266 
L 312.444036 261.859976 
L 313.112885 261.580653 
L 313.707418 261.553566 
L 314.301951 261.738652 
L 315.045117 262.233268 
L 316.011233 263.182576 
L 319.57843 266.954233 
L 320.916128 267.931499 
L 322.328144 268.695328 
L 323.814476 269.247159 
L 325.375124 269.58634 
L 327.01009 269.722089 
L 328.645055 269.639934 
L 330.28002 269.34437 
L 331.766352 268.853609 
L 333.252684 268.118015 
L 334.590383 267.216864 
L 335.928082 266.034568 
L 337.48873 264.326285 
L 339.643912 261.954781 
L 340.461394 261.39191 
L 341.130244 261.201233 
L 341.724776 261.262879 
L 342.393626 261.582414 
L 343.211108 262.264199 
L 344.474491 263.665532 
L 346.629672 266.037181 
L 347.967371 267.174122 
L 349.30507 268.032267 
L 350.717085 268.680681 
L 352.203417 269.113044 
L 353.764066 269.336083 
L 355.324714 269.341414 
L 356.959679 269.118864 
L 358.446011 268.695777 
L 359.858027 268.059757 
L 361.270042 267.170198 
L 362.533424 266.114531 
L 363.94544 264.62844 
L 366.918104 261.354375 
L 367.66127 260.929926 
L 368.255803 260.82485 
L 368.850335 260.94347 
L 369.519185 261.325127 
L 370.336667 262.068462 
L 371.897316 263.87494 
L 373.680915 265.815948 
L 375.018613 266.942599 
L 376.356312 267.784551 
L 377.768328 268.405159 
L 379.180343 268.785342 
L 380.666675 268.964125 
L 382.153007 268.927449 
L 383.713656 268.660731 
L 385.125671 268.194055 
L 386.46337 267.521015 
L 387.801069 266.597272 
L 389.064451 265.453738 
L 390.550783 263.784931 
L 392.854597 261.155992 
L 393.597763 260.629635 
L 394.266613 260.425481 
L 394.861146 260.486153 
L 395.455678 260.76751 
L 396.198844 261.376784 
L 397.313593 262.618617 
L 399.766041 265.413823 
L 401.10374 266.565968 
L 402.441439 267.421037 
L 403.779138 268.013592 
L 405.191153 268.390354 
L 406.603168 268.5446 
L 408.015184 268.485523 
L 409.427199 268.21436 
L 410.764898 267.739808 
L 412.102597 267.022025 
L 413.365979 266.095654 
L 414.629361 264.892831 
L 416.19001 263.063699 
L 418.122241 260.809451 
L 418.939724 260.196634 
L 419.534257 259.991999 
L 420.12879 260.020689 
L 420.723322 260.278696 
L 421.466488 260.873679 
L 422.506921 262.031569 
L 425.182318 265.123672 
L 426.520017 266.265802 
L 427.783399 267.061005 
L 429.046782 267.608775 
L 430.384481 267.951353 
L 431.796496 268.076337 
L 433.208511 267.96719 
L 434.54621 267.645932 
L 435.809592 267.123933 
L 437.072975 266.362694 
L 438.336357 265.334929 
L 439.599739 264.015839 
L 441.531971 261.610229 
L 442.795353 260.203197 
L 443.538519 259.674614 
L 444.133052 259.494167 
L 444.727584 259.55494 
L 445.322117 259.848706 
L 446.065283 260.486653 
L 447.180032 261.782966 
L 449.558163 264.58685 
L 450.821546 265.71026 
L 452.084928 266.541206 
L 453.34831 267.106106 
L 454.611692 267.435116 
L 455.949391 267.550318 
L 457.28709 267.433099 
L 458.550472 267.105947 
L 459.813854 266.545271 
L 461.00292 265.779516 
L 462.191985 264.759421 
L 463.455368 263.381064 
L 466.948248 259.298901 
L 467.617097 258.984935 
L 468.21163 258.964528 
L 468.806163 259.190549 
L 469.475012 259.702037 
L 470.441128 260.770554 
L 473.562425 264.463859 
L 474.825807 265.509322 
L 476.014873 266.216051 
L 477.203939 266.678027 
L 478.467321 266.927957 
L 479.730703 266.944377 
L 480.994085 266.729676 
L 482.183151 266.305729 
L 483.372216 265.6428 
L 484.561282 264.718881 
L 485.750348 263.513464 
L 487.23668 261.651123 
L 489.243228 259.143125 
L 489.986394 258.558717 
L 490.580927 258.345175 
L 491.101143 258.3686 
L 491.695676 258.631658 
L 492.364525 259.185728 
L 493.330641 260.305651 
L 496.154672 263.747747 
L 497.343737 264.790084 
L 498.532803 265.542172 
L 499.721869 266.02638 
L 500.910934 266.266738 
L 502.1 266.275933 
L 503.289065 266.056386 
L 504.478131 265.597541 
L 505.59288 264.928653 
L 506.707629 264.00888 
L 507.896695 262.736467 
L 509.383027 260.786919 
L 511.166625 258.497661 
L 511.909791 257.884385 
L 512.504324 257.655778 
L 513.02454 257.673669 
L 513.619073 257.939429 
L 514.287922 258.506239 
L 515.254038 259.654713 
L 518.003752 263.084732 
L 519.192818 264.145979 
L 520.307567 264.856466 
L 521.422316 265.308428 
L 522.537065 265.521183 
L 523.651814 265.506438 
L 524.766563 265.265382 
L 525.881312 264.786998 
L 526.996061 264.05107 
L 528.11081 263.039836 
L 529.299875 261.652337 
L 531.15779 259.060278 
L 532.346856 257.592003 
L 533.090022 257.020091 
L 533.684555 256.847369 
L 534.204771 256.925188 
L 534.799304 257.263107 
L 535.54247 257.988341 
L 536.731535 259.535464 
L 538.663767 262.018225 
L 539.852833 263.174357 
L 540.967582 263.942982 
L 542.008014 264.399966 
L 543.048447 264.626787 
L 544.088879 264.630392 
L 545.129311 264.410671 
L 546.169744 263.964909 
L 547.210176 263.277642 
L 548.250609 262.31305 
L 549.365358 260.968428 
L 551.074639 258.489081 
L 552.338022 256.819386 
L 553.081188 256.180332 
L 553.67572 255.951299 
L 554.195937 255.984841 
L 554.716153 256.232899 
L 555.385002 256.820627 
L 556.351118 258.019145 
L 558.952199 261.412849 
L 560.066948 262.46263 
L 561.10738 263.134365 
L 562.073496 263.506916 
L 563.039612 263.649314 
L 564.005728 263.562275 
L 564.971844 263.2487 
L 565.937959 262.705917 
L 566.978392 261.855683 
L 568.018824 260.717962 
L 569.282206 258.97156 
L 571.660338 255.573624 
L 572.329187 255.023809 
L 572.849403 254.839827 
L 573.369619 254.890181 
L 573.889836 255.166878 
L 574.558685 255.801551 
L 575.524801 257.071933 
L 577.828615 260.19138 
L 578.943364 261.269798 
L 579.90948 261.910594 
L 580.875596 262.282688 
L 581.767395 262.394382 
L 582.659194 262.285784 
L 583.550994 261.955843 
L 584.442793 261.398448 
L 585.408909 260.528728 
L 586.449341 259.277852 
L 587.712723 257.384923 
L 589.644955 254.453594 
L 590.388121 253.748508 
L 590.908337 253.521417 
L 591.428553 253.541819 
L 591.948769 253.803567 
L 592.617619 254.440174 
L 593.583735 255.741699 
L 595.813233 258.835672 
L 596.853665 259.858549 
L 597.745464 260.45209 
L 598.637263 260.783016 
L 599.454746 260.85855 
L 600.272229 260.716985 
L 601.089711 260.356082 
L 601.981511 259.707793 
L 602.87331 258.785663 
L 603.913742 257.37427 
L 605.400074 254.909522 
L 606.737773 252.82332 
L 607.406622 252.136168 
L 607.926839 251.868035 
L 608.372738 251.847647 
L 608.892954 252.066543 
L 609.487487 252.596564 
L 610.30497 253.663595 
L 612.980367 257.393724 
L 613.946483 258.252394 
L 614.763966 258.700334 
L 615.581448 258.889288 
L 616.324614 258.836479 
L 617.06778 258.568447 
L 617.885263 258.019881 
L 618.702746 257.201969 
L 619.668861 255.896154 
L 620.857927 253.872383 
L 622.715842 250.673113 
L 623.384691 249.945252 
L 623.904908 249.671835 
L 624.350807 249.665166 
L 624.796707 249.863919 
L 625.39124 250.405806 
L 626.208722 251.506862 
L 628.586853 254.912322 
L 629.404336 255.661529 
L 630.147502 256.079466 
L 630.890668 256.238931 
L 631.559517 256.157897 
L 632.228367 255.861644 
L 632.971533 255.27755 
L 633.789015 254.328183 
L 634.680815 252.947471 
L 635.944197 250.523255 
L 637.430529 247.750599 
L 638.099378 246.944723 
L 638.619594 246.631036 
L 639.065494 246.600656 
L 639.511394 246.79445 
L 640.105926 247.345626 
L 640.923409 248.462497 
L 642.855641 251.196195 
L 643.673123 251.926695 
L 644.341973 252.252049 
L 644.936505 252.320982 
L 645.531038 252.176284 
L 646.125571 251.807169 
L 646.79442 251.126315 
L 647.537586 250.049676 
L 648.429386 248.353958 
L 649.915718 244.941063 
L 650.95615 242.82927 
L 651.550683 242.042373 
L 652.070899 241.692227 
L 652.516799 241.66383 
L 652.962698 241.865869 
L 653.557231 242.416909 
L 654.969246 244.213277 
L 655.861046 245.128954 
L 656.455578 245.469057 
L 656.975795 245.548424 
L 657.496011 245.409586 
L 658.016227 245.03975 
L 658.61076 244.313874 
L 659.279609 243.120954 
L 660.097092 241.161589 
L 661.137524 237.973625 
L 663.069756 232.250279 
L 663.738605 231.043799 
L 664.481771 230.198177 
L 666.339686 229.041227 
L 666.785586 228.397899 
L 667.826018 225.72272 
L 668.346235 223.408509 
L 668.717818 221.331767 
L 669.386667 216.036705 
L 669.5353 214.578439 
L 669.5353 214.578439 
" clip-path="url(#pc28d440290)" style="fill: none; stroke: #ff7f0e; stroke-width: 1.5; stroke-linecap: square"/>
   </g>
   <g id="patch_3">
    <path d="M 36.465625 284.4 
L 36.465625 7.2 
" style="fill: none; stroke: #000000; stroke-width: 0.8; stroke-linejoin: miter; stroke-linecap: square"/>
   </g>
   <g id="patch_4">
    <path d="M 706.065625 284.4 
L 706.065625 7.2 
" style="fill: none; stroke: #000000; stroke-width: 0.8; stroke-linejoin: miter; stroke-linecap: square"/>
   </g>
   <g id="patch_5">
    <path d="M 36.465625 284.4 
L 706.065625 284.4 
" style="fill: none; stroke: #000000; stroke-width: 0.8; stroke-linejoin: miter; stroke-linecap: square"/>
   </g>
   <g id="patch_6">
    <path d="M 36.465625 7.2 
L 706.065625 7.2 
" style="fill: none; stroke: #000000; stroke-width: 0.8; stroke-linejoin: miter; stroke-linecap: square"/>
   </g>
   <g id="legend_1">
    <g id="patch_7">
     <path d="M 43.465625 73.9125 
L 212.865625 73.9125 
Q 214.865625 73.9125 214.865625 71.9125 
L 214.865625 14.2 
Q 214.865625 12.2 212.865625 12.2 
L 43.465625 12.2 
Q 41.465625 12.2 41.465625 14.2 
L 41.465625 71.9125 
Q 41.465625 73.9125 43.465625 73.9125 
z
" style="fill: #ffffff; opacity: 0.8; stroke: #cccccc; stroke-linejoin: miter"/>
    </g>
    <g id="line2d_17">
     <path d="M 45.465625 20.298438 
L 55.465625 20.298438 
L 65.465625 20.298438 
" style="fill: none; stroke: #1f77b4; stroke-width: 1.5; stroke-linecap: square"/>
    </g>
    <g id="text_14">
     <!-- Mf before ISCO cut: $e$=0.16 -->
     <g transform="translate(73.465625 23.798438) scale(0.1 -0.1)">
      <defs>
       <path id="DejaVuSans-4d" d="M 628 4666 
L 1569 4666 
L 2759 1491 
L 3956 4666 
L 4897 4666 
L 4897 0 
L 4281 0 
L 4281 4097 
L 3078 897 
L 2444 897 
L 1241 4097 
L 1241 0 
L 628 0 
L 628 4666 
z
" transform="scale(0.015625)"/>
       <path id="DejaVuSans-66" d="M 2375 4863 
L 2375 4384 
L 1825 4384 
Q 1516 4384 1395 4259 
Q 1275 4134 1275 3809 
L 1275 3500 
L 2222 3500 
L 2222 3053 
L 1275 3053 
L 1275 0 
L 697 0 
L 697 3053 
L 147 3053 
L 147 3500 
L 697 3500 
L 697 3744 
Q 697 4328 969 4595 
Q 1241 4863 1831 4863 
L 2375 4863 
z
" transform="scale(0.015625)"/>
       <path id="DejaVuSans-20" transform="scale(0.015625)"/>
       <path id="DejaVuSans-62" d="M 3116 1747 
Q 3116 2381 2855 2742 
Q 2594 3103 2138 3103 
Q 1681 3103 1420 2742 
Q 1159 2381 1159 1747 
Q 1159 1113 1420 752 
Q 1681 391 2138 391 
Q 2594 391 2855 752 
Q 3116 1113 3116 1747 
z
M 1159 2969 
Q 1341 3281 1617 3432 
Q 1894 3584 2278 3584 
Q 2916 3584 3314 3078 
Q 3713 2572 3713 1747 
Q 3713 922 3314 415 
Q 2916 -91 2278 -91 
Q 1894 -91 1617 61 
Q 1341 213 1159 525 
L 1159 0 
L 581 0 
L 581 4863 
L 1159 4863 
L 1159 2969 
z
" transform="scale(0.015625)"/>
       <path id="DejaVuSans-65" d="M 3597 1894 
L 3597 1613 
L 953 1613 
Q 991 1019 1311 708 
Q 1631 397 2203 397 
Q 2534 397 2845 478 
Q 3156 559 3463 722 
L 3463 178 
Q 3153 47 2828 -22 
Q 2503 -91 2169 -91 
Q 1331 -91 842 396 
Q 353 884 353 1716 
Q 353 2575 817 3079 
Q 1281 3584 2069 3584 
Q 2775 3584 3186 3129 
Q 3597 2675 3597 1894 
z
M 3022 2063 
Q 3016 2534 2758 2815 
Q 2500 3097 2075 3097 
Q 1594 3097 1305 2825 
Q 1016 2553 972 2059 
L 3022 2063 
z
" transform="scale(0.015625)"/>
       <path id="DejaVuSans-6f" d="M 1959 3097 
Q 1497 3097 1228 2736 
Q 959 2375 959 1747 
Q 959 1119 1226 758 
Q 1494 397 1959 397 
Q 2419 397 2687 759 
Q 2956 1122 2956 1747 
Q 2956 2369 2687 2733 
Q 2419 3097 1959 3097 
z
M 1959 3584 
Q 2709 3584 3137 3096 
Q 3566 2609 3566 1747 
Q 3566 888 3137 398 
Q 2709 -91 1959 -91 
Q 1206 -91 779 398 
Q 353 888 353 1747 
Q 353 2609 779 3096 
Q 1206 3584 1959 3584 
z
" transform="scale(0.015625)"/>
       <path id="DejaVuSans-72" d="M 2631 2963 
Q 2534 3019 2420 3045 
Q 2306 3072 2169 3072 
Q 1681 3072 1420 2755 
Q 1159 2438 1159 1844 
L 1159 0 
L 581 0 
L 581 3500 
L 1159 3500 
L 1159 2956 
Q 1341 3275 1631 3429 
Q 1922 3584 2338 3584 
Q 2397 3584 2469 3576 
Q 2541 3569 2628 3553 
L 2631 2963 
z
" transform="scale(0.015625)"/>
       <path id="DejaVuSans-49" d="M 628 4666 
L 1259 4666 
L 1259 0 
L 628 0 
L 628 4666 
z
" transform="scale(0.015625)"/>
       <path id="DejaVuSans-53" d="M 3425 4513 
L 3425 3897 
Q 3066 4069 2747 4153 
Q 2428 4238 2131 4238 
Q 1616 4238 1336 4038 
Q 1056 3838 1056 3469 
Q 1056 3159 1242 3001 
Q 1428 2844 1947 2747 
L 2328 2669 
Q 3034 2534 3370 2195 
Q 3706 1856 3706 1288 
Q 3706 609 3251 259 
Q 2797 -91 1919 -91 
Q 1588 -91 1214 -16 
Q 841 59 441 206 
L 441 856 
Q 825 641 1194 531 
Q 1563 422 1919 422 
Q 2459 422 2753 634 
Q 3047 847 3047 1241 
Q 3047 1584 2836 1778 
Q 2625 1972 2144 2069 
L 1759 2144 
Q 1053 2284 737 2584 
Q 422 2884 422 3419 
Q 422 4038 858 4394 
Q 1294 4750 2059 4750 
Q 2388 4750 2728 4690 
Q 3069 4631 3425 4513 
z
" transform="scale(0.015625)"/>
       <path id="DejaVuSans-43" d="M 4122 4306 
L 4122 3641 
Q 3803 3938 3442 4084 
Q 3081 4231 2675 4231 
Q 1875 4231 1450 3742 
Q 1025 3253 1025 2328 
Q 1025 1406 1450 917 
Q 1875 428 2675 428 
Q 3081 428 3442 575 
Q 3803 722 4122 1019 
L 4122 359 
Q 3791 134 3420 21 
Q 3050 -91 2638 -91 
Q 1578 -91 968 557 
Q 359 1206 359 2328 
Q 359 3453 968 4101 
Q 1578 4750 2638 4750 
Q 3056 4750 3426 4639 
Q 3797 4528 4122 4306 
z
" transform="scale(0.015625)"/>
       <path id="DejaVuSans-4f" d="M 2522 4238 
Q 1834 4238 1429 3725 
Q 1025 3213 1025 2328 
Q 1025 1447 1429 934 
Q 1834 422 2522 422 
Q 3209 422 3611 934 
Q 4013 1447 4013 2328 
Q 4013 3213 3611 3725 
Q 3209 4238 2522 4238 
z
M 2522 4750 
Q 3503 4750 4090 4092 
Q 4678 3434 4678 2328 
Q 4678 1225 4090 567 
Q 3503 -91 2522 -91 
Q 1538 -91 948 565 
Q 359 1222 359 2328 
Q 359 3434 948 4092 
Q 1538 4750 2522 4750 
z
" transform="scale(0.015625)"/>
       <path id="DejaVuSans-63" d="M 3122 3366 
L 3122 2828 
Q 2878 2963 2633 3030 
Q 2388 3097 2138 3097 
Q 1578 3097 1268 2742 
Q 959 2388 959 1747 
Q 959 1106 1268 751 
Q 1578 397 2138 397 
Q 2388 397 2633 464 
Q 2878 531 3122 666 
L 3122 134 
Q 2881 22 2623 -34 
Q 2366 -91 2075 -91 
Q 1284 -91 818 406 
Q 353 903 353 1747 
Q 353 2603 823 3093 
Q 1294 3584 2113 3584 
Q 2378 3584 2631 3529 
Q 2884 3475 3122 3366 
z
" transform="scale(0.015625)"/>
       <path id="DejaVuSans-75" d="M 544 1381 
L 544 3500 
L 1119 3500 
L 1119 1403 
Q 1119 906 1312 657 
Q 1506 409 1894 409 
Q 2359 409 2629 706 
Q 2900 1003 2900 1516 
L 2900 3500 
L 3475 3500 
L 3475 0 
L 2900 0 
L 2900 538 
Q 2691 219 2414 64 
Q 2138 -91 1772 -91 
Q 1169 -91 856 284 
Q 544 659 544 1381 
z
M 1991 3584 
L 1991 3584 
z
" transform="scale(0.015625)"/>
       <path id="DejaVuSans-74" d="M 1172 4494 
L 1172 3500 
L 2356 3500 
L 2356 3053 
L 1172 3053 
L 1172 1153 
Q 1172 725 1289 603 
Q 1406 481 1766 481 
L 2356 481 
L 2356 0 
L 1766 0 
Q 1100 0 847 248 
Q 594 497 594 1153 
L 594 3053 
L 172 3053 
L 172 3500 
L 594 3500 
L 594 4494 
L 1172 4494 
z
" transform="scale(0.015625)"/>
       <path id="DejaVuSans-3a" d="M 750 794 
L 1409 794 
L 1409 0 
L 750 0 
L 750 794 
z
M 750 3309 
L 1409 3309 
L 1409 2516 
L 750 2516 
L 750 3309 
z
" transform="scale(0.015625)"/>
       <path id="DejaVuSans-Oblique-65" d="M 3078 2063 
Q 3088 2113 3092 2166 
Q 3097 2219 3097 2272 
Q 3097 2653 2873 2875 
Q 2650 3097 2266 3097 
Q 1838 3097 1509 2826 
Q 1181 2556 1013 2059 
L 3078 2063 
z
M 3578 1613 
L 903 1613 
Q 884 1494 878 1425 
Q 872 1356 872 1306 
Q 872 872 1139 634 
Q 1406 397 1894 397 
Q 2269 397 2603 481 
Q 2938 566 3225 728 
L 3116 159 
Q 2806 34 2476 -28 
Q 2147 -91 1806 -91 
Q 1078 -91 686 257 
Q 294 606 294 1247 
Q 294 1794 489 2264 
Q 684 2734 1063 3103 
Q 1306 3334 1642 3459 
Q 1978 3584 2356 3584 
Q 2950 3584 3301 3228 
Q 3653 2872 3653 2272 
Q 3653 2128 3634 1964 
Q 3616 1800 3578 1613 
z
" transform="scale(0.015625)"/>
       <path id="DejaVuSans-3d" d="M 678 2906 
L 4684 2906 
L 4684 2381 
L 678 2381 
L 678 2906 
z
M 678 1631 
L 4684 1631 
L 4684 1100 
L 678 1100 
L 678 1631 
z
" transform="scale(0.015625)"/>
      </defs>
      <use xlink:href="#DejaVuSans-4d" transform="translate(0 0.015625)"/>
      <use xlink:href="#DejaVuSans-66" transform="translate(86.279297 0.015625)"/>
      <use xlink:href="#DejaVuSans-20" transform="translate(121.484375 0.015625)"/>
      <use xlink:href="#DejaVuSans-62" transform="translate(153.271484 0.015625)"/>
      <use xlink:href="#DejaVuSans-65" transform="translate(216.748047 0.015625)"/>
      <use xlink:href="#DejaVuSans-66" transform="translate(278.271484 0.015625)"/>
      <use xlink:href="#DejaVuSans-6f" transform="translate(313.476562 0.015625)"/>
      <use xlink:href="#DejaVuSans-72" transform="translate(374.658203 0.015625)"/>
      <use xlink:href="#DejaVuSans-65" transform="translate(415.771484 0.015625)"/>
      <use xlink:href="#DejaVuSans-20" transform="translate(477.294922 0.015625)"/>
      <use xlink:href="#DejaVuSans-49" transform="translate(509.082031 0.015625)"/>
      <use xlink:href="#DejaVuSans-53" transform="translate(538.574219 0.015625)"/>
      <use xlink:href="#DejaVuSans-43" transform="translate(602.050781 0.015625)"/>
      <use xlink:href="#DejaVuSans-4f" transform="translate(671.875 0.015625)"/>
      <use xlink:href="#DejaVuSans-20" transform="translate(750.585938 0.015625)"/>
      <use xlink:href="#DejaVuSans-63" transform="translate(782.373047 0.015625)"/>
      <use xlink:href="#DejaVuSans-75" transform="translate(837.353516 0.015625)"/>
      <use xlink:href="#DejaVuSans-74" transform="translate(900.732422 0.015625)"/>
      <use xlink:href="#DejaVuSans-3a" transform="translate(939.941406 0.015625)"/>
      <use xlink:href="#DejaVuSans-20" transform="translate(973.632812 0.015625)"/>
      <use xlink:href="#DejaVuSans-Oblique-65" transform="translate(1005.419922 0.015625)"/>
      <use xlink:href="#DejaVuSans-3d" transform="translate(1066.943359 0.015625)"/>
      <use xlink:href="#DejaVuSans-30" transform="translate(1150.732422 0.015625)"/>
      <use xlink:href="#DejaVuSans-2e" transform="translate(1214.355469 0.015625)"/>
      <use xlink:href="#DejaVuSans-31" transform="translate(1246.142578 0.015625)"/>
      <use xlink:href="#DejaVuSans-36" transform="translate(1309.765625 0.015625)"/>
     </g>
    </g>
    <g id="line2d_18">
     <path d="M 45.465625 34.976563 
L 55.465625 34.976563 
L 65.465625 34.976563 
" style="fill: none; stroke-dasharray: 2.22,0.96; stroke-dashoffset: 0; stroke: #ff0000; stroke-width: 0.6"/>
    </g>
    <g id="text_15">
     <!-- Mf ISCO $e$=0 -->
     <g transform="translate(73.465625 38.476563) scale(0.1 -0.1)">
      <use xlink:href="#DejaVuSans-4d" transform="translate(0 0.015625)"/>
      <use xlink:href="#DejaVuSans-66" transform="translate(86.279297 0.015625)"/>
      <use xlink:href="#DejaVuSans-20" transform="translate(121.484375 0.015625)"/>
      <use xlink:href="#DejaVuSans-49" transform="translate(153.271484 0.015625)"/>
      <use xlink:href="#DejaVuSans-53" transform="translate(182.763672 0.015625)"/>
      <use xlink:href="#DejaVuSans-43" transform="translate(246.240234 0.015625)"/>
      <use xlink:href="#DejaVuSans-4f" transform="translate(316.064453 0.015625)"/>
      <use xlink:href="#DejaVuSans-20" transform="translate(394.775391 0.015625)"/>
      <use xlink:href="#DejaVuSans-Oblique-65" transform="translate(426.5625 0.015625)"/>
      <use xlink:href="#DejaVuSans-3d" transform="translate(488.085938 0.015625)"/>
      <use xlink:href="#DejaVuSans-30" transform="translate(571.875 0.015625)"/>
     </g>
    </g>
    <g id="PathCollection_2">
     <g>
      <use xlink:href="#mb3c00242c4" x="55.465625" y="50.529688" style="fill: #ff0000; stroke: #ff0000"/>
     </g>
    </g>
    <g id="text_16">
     <!-- ISCO cut -->
     <g transform="translate(73.465625 53.154688) scale(0.1 -0.1)">
      <use xlink:href="#DejaVuSans-49"/>
      <use xlink:href="#DejaVuSans-53" transform="translate(29.492188 0)"/>
      <use xlink:href="#DejaVuSans-43" transform="translate(92.96875 0)"/>
      <use xlink:href="#DejaVuSans-4f" transform="translate(162.792969 0)"/>
      <use xlink:href="#DejaVuSans-20" transform="translate(241.503906 0)"/>
      <use xlink:href="#DejaVuSans-63" transform="translate(273.291016 0)"/>
      <use xlink:href="#DejaVuSans-75" transform="translate(328.271484 0)"/>
      <use xlink:href="#DejaVuSans-74" transform="translate(391.650391 0)"/>
     </g>
    </g>
    <g id="line2d_19">
     <path d="M 45.465625 64.332813 
L 55.465625 64.332813 
L 65.465625 64.332813 
" style="fill: none; stroke: #ff7f0e; stroke-width: 1.5; stroke-linecap: square"/>
    </g>
    <g id="text_17">
     <!-- Mf after ISCO cut: $e$=0.16  -->
     <g transform="translate(73.465625 67.832813) scale(0.1 -0.1)">
      <defs>
       <path id="DejaVuSans-61" d="M 2194 1759 
Q 1497 1759 1228 1600 
Q 959 1441 959 1056 
Q 959 750 1161 570 
Q 1363 391 1709 391 
Q 2188 391 2477 730 
Q 2766 1069 2766 1631 
L 2766 1759 
L 2194 1759 
z
M 3341 1997 
L 3341 0 
L 2766 0 
L 2766 531 
Q 2569 213 2275 61 
Q 1981 -91 1556 -91 
Q 1019 -91 701 211 
Q 384 513 384 1019 
Q 384 1609 779 1909 
Q 1175 2209 1959 2209 
L 2766 2209 
L 2766 2266 
Q 2766 2663 2505 2880 
Q 2244 3097 1772 3097 
Q 1472 3097 1187 3025 
Q 903 2953 641 2809 
L 641 3341 
Q 956 3463 1253 3523 
Q 1550 3584 1831 3584 
Q 2591 3584 2966 3190 
Q 3341 2797 3341 1997 
z
" transform="scale(0.015625)"/>
      </defs>
      <use xlink:href="#DejaVuSans-4d" transform="translate(0 0.015625)"/>
      <use xlink:href="#DejaVuSans-66" transform="translate(86.279297 0.015625)"/>
      <use xlink:href="#DejaVuSans-20" transform="translate(121.484375 0.015625)"/>
      <use xlink:href="#DejaVuSans-61" transform="translate(153.271484 0.015625)"/>
      <use xlink:href="#DejaVuSans-66" transform="translate(214.550781 0.015625)"/>
      <use xlink:href="#DejaVuSans-74" transform="translate(249.755859 0.015625)"/>
      <use xlink:href="#DejaVuSans-65" transform="translate(288.964844 0.015625)"/>
      <use xlink:href="#DejaVuSans-72" transform="translate(350.488281 0.015625)"/>
      <use xlink:href="#DejaVuSans-20" transform="translate(391.601562 0.015625)"/>
      <use xlink:href="#DejaVuSans-49" transform="translate(423.388672 0.015625)"/>
      <use xlink:href="#DejaVuSans-53" transform="translate(452.880859 0.015625)"/>
      <use xlink:href="#DejaVuSans-43" transform="translate(516.357422 0.015625)"/>
      <use xlink:href="#DejaVuSans-4f" transform="translate(586.181641 0.015625)"/>
      <use xlink:href="#DejaVuSans-20" transform="translate(664.892578 0.015625)"/>
      <use xlink:href="#DejaVuSans-63" transform="translate(696.679688 0.015625)"/>
      <use xlink:href="#DejaVuSans-75" transform="translate(751.660156 0.015625)"/>
      <use xlink:href="#DejaVuSans-74" transform="translate(815.039062 0.015625)"/>
      <use xlink:href="#DejaVuSans-3a" transform="translate(854.248047 0.015625)"/>
      <use xlink:href="#DejaVuSans-20" transform="translate(887.939453 0.015625)"/>
      <use xlink:href="#DejaVuSans-Oblique-65" transform="translate(919.726562 0.015625)"/>
      <use xlink:href="#DejaVuSans-3d" transform="translate(981.25 0.015625)"/>
      <use xlink:href="#DejaVuSans-30" transform="translate(1065.039062 0.015625)"/>
      <use xlink:href="#DejaVuSans-2e" transform="translate(1128.662109 0.015625)"/>
      <use xlink:href="#DejaVuSans-31" transform="translate(1160.449219 0.015625)"/>
      <use xlink:href="#DejaVuSans-36" transform="translate(1224.072266 0.015625)"/>
      <use xlink:href="#DejaVuSans-20" transform="translate(1287.695312 0.015625)"/>
     </g>
    </g>
   </g>
  </g>
 </g>
 <defs>
  <clipPath id="pc28d440290">
   <rect x="36.465625" y="7.2" width="669.6" height="277.2"/>
  </clipPath>
 </defs>
</svg>
