<?xml version="1.0" encoding="utf-8" standalone="no"?>
<!DOCTYPE svg PUBLIC "-//W3C//DTD SVG 1.1//EN"
  "http://www.w3.org/Graphics/SVG/1.1/DTD/svg11.dtd">
<svg xmlns:xlink="http://www.w3.org/1999/xlink" width="726.94375pt" height="337.074375pt" viewBox="0 0 726.94375 337.074375" xmlns="http://www.w3.org/2000/svg" version="1.1">
 <metadata>
  <rdf:RDF xmlns:dc="http://purl.org/dc/elements/1.1/" xmlns:cc="http://creativecommons.org/ns#" xmlns:rdf="http://www.w3.org/1999/02/22-rdf-syntax-ns#">
   <cc:Work>
    <dc:type rdf:resource="http://purl.org/dc/dcmitype/StillImage"/>
    <dc:date>2025-07-24T14:39:29.009751</dc:date>
    <dc:format>image/svg+xml</dc:format>
    <dc:creator>
     <cc:Agent>
      <dc:title>Matplotlib v3.10.3, https://matplotlib.org/</dc:title>
     </cc:Agent>
    </dc:creator>
   </cc:Work>
  </rdf:RDF>
 </metadata>
 <defs>
  <style type="text/css">*{stroke-linejoin: round; stroke-linecap: butt}</style>
 </defs>
 <g id="figure_1">
  <g id="patch_1">
   <path d="M 0 337.074375 
L 726.94375 337.074375 
L 726.94375 0 
L 0 0 
z
" style="fill: #ffffff"/>
  </g>
  <g id="axes_1">
   <g id="patch_2">
    <path d="M 50.14375 299.518125 
L 719.74375 299.518125 
L 719.74375 22.318125 
L 50.14375 22.318125 
z
" style="fill: #ffffff"/>
   </g>
   <g id="matplotlib.axis_1">
    <g id="xtick_1">
     <g id="line2d_1">
      <defs>
       <path id="mdb363d49d7" d="M 0 0 
L 0 3.5 
" style="stroke: #000000; stroke-width: 0.8"/>
      </defs>
      <g>
       <use xlink:href="#mdb363d49d7" x="59.775118" y="299.518125" style="stroke: #000000; stroke-width: 0.8"/>
      </g>
     </g>
     <g id="text_1">
      <!-- −14000 -->
      <g transform="translate(39.679025 314.116563) scale(0.1 -0.1)">
       <defs>
        <path id="DejaVuSans-2212" d="M 678 2272 
L 4684 2272 
L 4684 1741 
L 678 1741 
L 678 2272 
z
" transform="scale(0.015625)"/>
        <path id="DejaVuSans-31" d="M 794 531 
L 1825 531 
L 1825 4091 
L 703 3866 
L 703 4441 
L 1819 4666 
L 2450 4666 
L 2450 531 
L 3481 531 
L 3481 0 
L 794 0 
L 794 531 
z
" transform="scale(0.015625)"/>
        <path id="DejaVuSans-34" d="M 2419 4116 
L 825 1625 
L 2419 1625 
L 2419 4116 
z
M 2253 4666 
L 3047 4666 
L 3047 1625 
L 3713 1625 
L 3713 1100 
L 3047 1100 
L 3047 0 
L 2419 0 
L 2419 1100 
L 313 1100 
L 313 1709 
L 2253 4666 
z
" transform="scale(0.015625)"/>
        <path id="DejaVuSans-30" d="M 2034 4250 
Q 1547 4250 1301 3770 
Q 1056 3291 1056 2328 
Q 1056 1369 1301 889 
Q 1547 409 2034 409 
Q 2525 409 2770 889 
Q 3016 1369 3016 2328 
Q 3016 3291 2770 3770 
Q 2525 4250 2034 4250 
z
M 2034 4750 
Q 2819 4750 3233 4129 
Q 3647 3509 3647 2328 
Q 3647 1150 3233 529 
Q 2819 -91 2034 -91 
Q 1250 -91 836 529 
Q 422 1150 422 2328 
Q 422 3509 836 4129 
Q 1250 4750 2034 4750 
z
" transform="scale(0.015625)"/>
       </defs>
       <use xlink:href="#DejaVuSans-2212"/>
       <use xlink:href="#DejaVuSans-31" transform="translate(83.789062 0)"/>
       <use xlink:href="#DejaVuSans-34" transform="translate(147.412109 0)"/>
       <use xlink:href="#DejaVuSans-30" transform="translate(211.035156 0)"/>
       <use xlink:href="#DejaVuSans-30" transform="translate(274.658203 0)"/>
       <use xlink:href="#DejaVuSans-30" transform="translate(338.28125 0)"/>
      </g>
     </g>
    </g>
    <g id="xtick_2">
     <g id="line2d_2">
      <g>
       <use xlink:href="#mdb363d49d7" x="149.264701" y="299.518125" style="stroke: #000000; stroke-width: 0.8"/>
      </g>
     </g>
     <g id="text_2">
      <!-- −12000 -->
      <g transform="translate(129.168607 314.116563) scale(0.1 -0.1)">
       <defs>
        <path id="DejaVuSans-32" d="M 1228 531 
L 3431 531 
L 3431 0 
L 469 0 
L 469 531 
Q 828 903 1448 1529 
Q 2069 2156 2228 2338 
Q 2531 2678 2651 2914 
Q 2772 3150 2772 3378 
Q 2772 3750 2511 3984 
Q 2250 4219 1831 4219 
Q 1534 4219 1204 4116 
Q 875 4013 500 3803 
L 500 4441 
Q 881 4594 1212 4672 
Q 1544 4750 1819 4750 
Q 2544 4750 2975 4387 
Q 3406 4025 3406 3419 
Q 3406 3131 3298 2873 
Q 3191 2616 2906 2266 
Q 2828 2175 2409 1742 
Q 1991 1309 1228 531 
z
" transform="scale(0.015625)"/>
       </defs>
       <use xlink:href="#DejaVuSans-2212"/>
       <use xlink:href="#DejaVuSans-31" transform="translate(83.789062 0)"/>
       <use xlink:href="#DejaVuSans-32" transform="translate(147.412109 0)"/>
       <use xlink:href="#DejaVuSans-30" transform="translate(211.035156 0)"/>
       <use xlink:href="#DejaVuSans-30" transform="translate(274.658203 0)"/>
       <use xlink:href="#DejaVuSans-30" transform="translate(338.28125 0)"/>
      </g>
     </g>
    </g>
    <g id="xtick_3">
     <g id="line2d_3">
      <g>
       <use xlink:href="#mdb363d49d7" x="238.754283" y="299.518125" style="stroke: #000000; stroke-width: 0.8"/>
      </g>
     </g>
     <g id="text_3">
      <!-- −10000 -->
      <g transform="translate(218.65819 314.116563) scale(0.1 -0.1)">
       <use xlink:href="#DejaVuSans-2212"/>
       <use xlink:href="#DejaVuSans-31" transform="translate(83.789062 0)"/>
       <use xlink:href="#DejaVuSans-30" transform="translate(147.412109 0)"/>
       <use xlink:href="#DejaVuSans-30" transform="translate(211.035156 0)"/>
       <use xlink:href="#DejaVuSans-30" transform="translate(274.658203 0)"/>
       <use xlink:href="#DejaVuSans-30" transform="translate(338.28125 0)"/>
      </g>
     </g>
    </g>
    <g id="xtick_4">
     <g id="line2d_4">
      <g>
       <use xlink:href="#mdb363d49d7" x="328.243866" y="299.518125" style="stroke: #000000; stroke-width: 0.8"/>
      </g>
     </g>
     <g id="text_4">
      <!-- −8000 -->
      <g transform="translate(311.329022 314.116563) scale(0.1 -0.1)">
       <defs>
        <path id="DejaVuSans-38" d="M 2034 2216 
Q 1584 2216 1326 1975 
Q 1069 1734 1069 1313 
Q 1069 891 1326 650 
Q 1584 409 2034 409 
Q 2484 409 2743 651 
Q 3003 894 3003 1313 
Q 3003 1734 2745 1975 
Q 2488 2216 2034 2216 
z
M 1403 2484 
Q 997 2584 770 2862 
Q 544 3141 544 3541 
Q 544 4100 942 4425 
Q 1341 4750 2034 4750 
Q 2731 4750 3128 4425 
Q 3525 4100 3525 3541 
Q 3525 3141 3298 2862 
Q 3072 2584 2669 2484 
Q 3125 2378 3379 2068 
Q 3634 1759 3634 1313 
Q 3634 634 3220 271 
Q 2806 -91 2034 -91 
Q 1263 -91 848 271 
Q 434 634 434 1313 
Q 434 1759 690 2068 
Q 947 2378 1403 2484 
z
M 1172 3481 
Q 1172 3119 1398 2916 
Q 1625 2713 2034 2713 
Q 2441 2713 2670 2916 
Q 2900 3119 2900 3481 
Q 2900 3844 2670 4047 
Q 2441 4250 2034 4250 
Q 1625 4250 1398 4047 
Q 1172 3844 1172 3481 
z
" transform="scale(0.015625)"/>
       </defs>
       <use xlink:href="#DejaVuSans-2212"/>
       <use xlink:href="#DejaVuSans-38" transform="translate(83.789062 0)"/>
       <use xlink:href="#DejaVuSans-30" transform="translate(147.412109 0)"/>
       <use xlink:href="#DejaVuSans-30" transform="translate(211.035156 0)"/>
       <use xlink:href="#DejaVuSans-30" transform="translate(274.658203 0)"/>
      </g>
     </g>
    </g>
    <g id="xtick_5">
     <g id="line2d_5">
      <g>
       <use xlink:href="#mdb363d49d7" x="417.733448" y="299.518125" style="stroke: #000000; stroke-width: 0.8"/>
      </g>
     </g>
     <g id="text_5">
      <!-- −6000 -->
      <g transform="translate(400.818605 314.116563) scale(0.1 -0.1)">
       <defs>
        <path id="DejaVuSans-36" d="M 2113 2584 
Q 1688 2584 1439 2293 
Q 1191 2003 1191 1497 
Q 1191 994 1439 701 
Q 1688 409 2113 409 
Q 2538 409 2786 701 
Q 3034 994 3034 1497 
Q 3034 2003 2786 2293 
Q 2538 2584 2113 2584 
z
M 3366 4563 
L 3366 3988 
Q 3128 4100 2886 4159 
Q 2644 4219 2406 4219 
Q 1781 4219 1451 3797 
Q 1122 3375 1075 2522 
Q 1259 2794 1537 2939 
Q 1816 3084 2150 3084 
Q 2853 3084 3261 2657 
Q 3669 2231 3669 1497 
Q 3669 778 3244 343 
Q 2819 -91 2113 -91 
Q 1303 -91 875 529 
Q 447 1150 447 2328 
Q 447 3434 972 4092 
Q 1497 4750 2381 4750 
Q 2619 4750 2861 4703 
Q 3103 4656 3366 4563 
z
" transform="scale(0.015625)"/>
       </defs>
       <use xlink:href="#DejaVuSans-2212"/>
       <use xlink:href="#DejaVuSans-36" transform="translate(83.789062 0)"/>
       <use xlink:href="#DejaVuSans-30" transform="translate(147.412109 0)"/>
       <use xlink:href="#DejaVuSans-30" transform="translate(211.035156 0)"/>
       <use xlink:href="#DejaVuSans-30" transform="translate(274.658203 0)"/>
      </g>
     </g>
    </g>
    <g id="xtick_6">
     <g id="line2d_6">
      <g>
       <use xlink:href="#mdb363d49d7" x="507.223031" y="299.518125" style="stroke: #000000; stroke-width: 0.8"/>
      </g>
     </g>
     <g id="text_6">
      <!-- −4000 -->
      <g transform="translate(490.308187 314.116563) scale(0.1 -0.1)">
       <use xlink:href="#DejaVuSans-2212"/>
       <use xlink:href="#DejaVuSans-34" transform="translate(83.789062 0)"/>
       <use xlink:href="#DejaVuSans-30" transform="translate(147.412109 0)"/>
       <use xlink:href="#DejaVuSans-30" transform="translate(211.035156 0)"/>
       <use xlink:href="#DejaVuSans-30" transform="translate(274.658203 0)"/>
      </g>
     </g>
    </g>
    <g id="xtick_7">
     <g id="line2d_7">
      <g>
       <use xlink:href="#mdb363d49d7" x="596.712614" y="299.518125" style="stroke: #000000; stroke-width: 0.8"/>
      </g>
     </g>
     <g id="text_7">
      <!-- −2000 -->
      <g transform="translate(579.79777 314.116563) scale(0.1 -0.1)">
       <use xlink:href="#DejaVuSans-2212"/>
       <use xlink:href="#DejaVuSans-32" transform="translate(83.789062 0)"/>
       <use xlink:href="#DejaVuSans-30" transform="translate(147.412109 0)"/>
       <use xlink:href="#DejaVuSans-30" transform="translate(211.035156 0)"/>
       <use xlink:href="#DejaVuSans-30" transform="translate(274.658203 0)"/>
      </g>
     </g>
    </g>
    <g id="xtick_8">
     <g id="line2d_8">
      <g>
       <use xlink:href="#mdb363d49d7" x="686.202196" y="299.518125" style="stroke: #000000; stroke-width: 0.8"/>
      </g>
     </g>
     <g id="text_8">
      <!-- 0 -->
      <g transform="translate(683.020946 314.116563) scale(0.1 -0.1)">
       <use xlink:href="#DejaVuSans-30"/>
      </g>
     </g>
    </g>
    <g id="text_9">
     <!-- t [M] -->
     <g transform="translate(373.178906 327.794688) scale(0.1 -0.1)">
      <defs>
       <path id="DejaVuSans-74" d="M 1172 4494 
L 1172 3500 
L 2356 3500 
L 2356 3053 
L 1172 3053 
L 1172 1153 
Q 1172 725 1289 603 
Q 1406 481 1766 481 
L 2356 481 
L 2356 0 
L 1766 0 
Q 1100 0 847 248 
Q 594 497 594 1153 
L 594 3053 
L 172 3053 
L 172 3500 
L 594 3500 
L 594 4494 
L 1172 4494 
z
" transform="scale(0.015625)"/>
       <path id="DejaVuSans-20" transform="scale(0.015625)"/>
       <path id="DejaVuSans-5b" d="M 550 4863 
L 1875 4863 
L 1875 4416 
L 1125 4416 
L 1125 -397 
L 1875 -397 
L 1875 -844 
L 550 -844 
L 550 4863 
z
" transform="scale(0.015625)"/>
       <path id="DejaVuSans-4d" d="M 628 4666 
L 1569 4666 
L 2759 1491 
L 3956 4666 
L 4897 4666 
L 4897 0 
L 4281 0 
L 4281 4097 
L 3078 897 
L 2444 897 
L 1241 4097 
L 1241 0 
L 628 0 
L 628 4666 
z
" transform="scale(0.015625)"/>
       <path id="DejaVuSans-5d" d="M 1947 4863 
L 1947 -844 
L 622 -844 
L 622 -397 
L 1369 -397 
L 1369 4416 
L 622 4416 
L 622 4863 
L 1947 4863 
z
" transform="scale(0.015625)"/>
      </defs>
      <use xlink:href="#DejaVuSans-74"/>
      <use xlink:href="#DejaVuSans-20" transform="translate(39.208984 0)"/>
      <use xlink:href="#DejaVuSans-5b" transform="translate(70.996094 0)"/>
      <use xlink:href="#DejaVuSans-4d" transform="translate(110.009766 0)"/>
      <use xlink:href="#DejaVuSans-5d" transform="translate(196.289062 0)"/>
     </g>
    </g>
   </g>
   <g id="matplotlib.axis_2">
    <g id="ytick_1">
     <g id="line2d_9">
      <defs>
       <path id="m6e3e0e6212" d="M 0 0 
L -3.5 0 
" style="stroke: #000000; stroke-width: 0.8"/>
      </defs>
      <g>
       <use xlink:href="#m6e3e0e6212" x="50.14375" y="293.86165" style="stroke: #000000; stroke-width: 0.8"/>
      </g>
     </g>
     <g id="text_10">
      <!-- 0.00 -->
      <g transform="translate(20.878125 297.660869) scale(0.1 -0.1)">
       <defs>
        <path id="DejaVuSans-2e" d="M 684 794 
L 1344 794 
L 1344 0 
L 684 0 
L 684 794 
z
" transform="scale(0.015625)"/>
       </defs>
       <use xlink:href="#DejaVuSans-30"/>
       <use xlink:href="#DejaVuSans-2e" transform="translate(63.623047 0)"/>
       <use xlink:href="#DejaVuSans-30" transform="translate(95.410156 0)"/>
       <use xlink:href="#DejaVuSans-30" transform="translate(159.033203 0)"/>
      </g>
     </g>
    </g>
    <g id="ytick_2">
     <g id="line2d_10">
      <g>
       <use xlink:href="#m6e3e0e6212" x="50.14375" y="235.069318" style="stroke: #000000; stroke-width: 0.8"/>
      </g>
     </g>
     <g id="text_11">
      <!-- 0.02 -->
      <g transform="translate(20.878125 238.868537) scale(0.1 -0.1)">
       <use xlink:href="#DejaVuSans-30"/>
       <use xlink:href="#DejaVuSans-2e" transform="translate(63.623047 0)"/>
       <use xlink:href="#DejaVuSans-30" transform="translate(95.410156 0)"/>
       <use xlink:href="#DejaVuSans-32" transform="translate(159.033203 0)"/>
      </g>
     </g>
    </g>
    <g id="ytick_3">
     <g id="line2d_11">
      <g>
       <use xlink:href="#m6e3e0e6212" x="50.14375" y="176.276985" style="stroke: #000000; stroke-width: 0.8"/>
      </g>
     </g>
     <g id="text_12">
      <!-- 0.04 -->
      <g transform="translate(20.878125 180.076204) scale(0.1 -0.1)">
       <use xlink:href="#DejaVuSans-30"/>
       <use xlink:href="#DejaVuSans-2e" transform="translate(63.623047 0)"/>
       <use xlink:href="#DejaVuSans-30" transform="translate(95.410156 0)"/>
       <use xlink:href="#DejaVuSans-34" transform="translate(159.033203 0)"/>
      </g>
     </g>
    </g>
    <g id="ytick_4">
     <g id="line2d_12">
      <g>
       <use xlink:href="#m6e3e0e6212" x="50.14375" y="117.484653" style="stroke: #000000; stroke-width: 0.8"/>
      </g>
     </g>
     <g id="text_13">
      <!-- 0.06 -->
      <g transform="translate(20.878125 121.283872) scale(0.1 -0.1)">
       <use xlink:href="#DejaVuSans-30"/>
       <use xlink:href="#DejaVuSans-2e" transform="translate(63.623047 0)"/>
       <use xlink:href="#DejaVuSans-30" transform="translate(95.410156 0)"/>
       <use xlink:href="#DejaVuSans-36" transform="translate(159.033203 0)"/>
      </g>
     </g>
    </g>
    <g id="ytick_5">
     <g id="line2d_13">
      <g>
       <use xlink:href="#m6e3e0e6212" x="50.14375" y="58.69232" style="stroke: #000000; stroke-width: 0.8"/>
      </g>
     </g>
     <g id="text_14">
      <!-- 0.08 -->
      <g transform="translate(20.878125 62.491539) scale(0.1 -0.1)">
       <use xlink:href="#DejaVuSans-30"/>
       <use xlink:href="#DejaVuSans-2e" transform="translate(63.623047 0)"/>
       <use xlink:href="#DejaVuSans-30" transform="translate(95.410156 0)"/>
       <use xlink:href="#DejaVuSans-38" transform="translate(159.033203 0)"/>
      </g>
     </g>
    </g>
    <g id="text_15">
     <!-- Mf -->
     <g transform="translate(14.798437 166.992344) rotate(-90) scale(0.1 -0.1)">
      <defs>
       <path id="DejaVuSans-66" d="M 2375 4863 
L 2375 4384 
L 1825 4384 
Q 1516 4384 1395 4259 
Q 1275 4134 1275 3809 
L 1275 3500 
L 2222 3500 
L 2222 3053 
L 1275 3053 
L 1275 0 
L 697 0 
L 697 3053 
L 147 3053 
L 147 3500 
L 697 3500 
L 697 3744 
Q 697 4328 969 4595 
Q 1241 4863 1831 4863 
L 2375 4863 
z
" transform="scale(0.015625)"/>
      </defs>
      <use xlink:href="#DejaVuSans-4d"/>
      <use xlink:href="#DejaVuSans-66" transform="translate(86.279297 0)"/>
     </g>
    </g>
   </g>
   <g id="line2d_14">
    <path d="M 80.580114 282.247546 
L 80.951742 281.977815 
L 82.661233 280.742248 
L 83.627466 280.299646 
L 84.445049 280.158989 
L 85.262631 280.258291 
L 86.154539 280.620428 
L 87.269424 281.346842 
L 92.249245 284.934799 
L 93.958735 285.716341 
L 95.816877 286.317828 
L 97.749344 286.704452 
L 99.904789 286.901923 
L 102.060234 286.874556 
L 104.215678 286.627603 
L 106.148146 286.185374 
L 108.006287 285.52895 
L 109.715778 284.691871 
L 111.350943 283.632871 
L 113.506387 281.93329 
L 115.364529 280.557699 
L 116.330763 280.106146 
L 117.148345 279.960999 
L 117.891602 280.040745 
L 118.709185 280.347994 
L 119.749744 280.996046 
L 121.682212 282.535275 
L 123.76333 284.077901 
L 125.398495 285.010393 
L 127.107986 285.731004 
L 128.891802 286.250692 
L 130.824269 286.580469 
L 132.905388 286.712207 
L 134.986507 286.621881 
L 137.067626 286.309232 
L 138.925768 285.800341 
L 140.709584 285.081199 
L 142.344749 284.182536 
L 144.05424 282.967614 
L 147.919175 280.076051 
L 148.811083 279.785909 
L 149.554339 279.762525 
L 150.371922 279.971024 
L 151.26383 280.438232 
L 152.527366 281.373928 
L 155.872022 283.960324 
L 157.507187 284.885826 
L 159.216677 285.595824 
L 161.000493 286.096827 
L 162.932961 286.401526 
L 164.939754 286.496183 
L 166.946547 286.371694 
L 168.879015 286.03957 
L 170.662831 285.508889 
L 172.372321 284.774079 
L 173.933161 283.871768 
L 175.642651 282.611763 
L 179.135958 279.930963 
L 180.027866 279.5918 
L 180.771123 279.526585 
L 181.514379 279.670078 
L 182.406287 280.088291 
L 183.595498 280.935896 
L 187.609085 284.023306 
L 189.24425 284.891995 
L 190.95374 285.545531 
L 192.737556 285.985346 
L 194.670024 286.225853 
L 196.602491 286.246738 
L 198.609284 286.040622 
L 200.393101 285.644445 
L 202.102591 285.04167 
L 203.737756 284.236083 
L 205.298595 283.219966 
L 207.231063 281.664361 
L 209.386507 279.956158 
L 210.352741 279.462789 
L 211.170323 279.290406 
L 211.91358 279.356459 
L 212.731163 279.662684 
L 213.697396 280.272821 
L 215.406887 281.672825 
L 217.562331 283.365395 
L 219.197496 284.356329 
L 220.832661 285.085718 
L 222.542152 285.60364 
L 224.325968 285.912563 
L 226.18411 286.017055 
L 228.116577 285.898483 
L 229.974719 285.560816 
L 231.68421 285.022038 
L 233.319374 284.276492 
L 234.880214 283.321173 
L 236.589704 281.99565 
L 239.637057 279.556219 
L 240.528965 279.152434 
L 241.272222 279.033901 
L 242.015478 279.132683 
L 242.833061 279.474755 
L 243.87362 280.177242 
L 246.177716 282.116236 
L 247.961532 283.442325 
L 249.522371 284.331524 
L 251.157536 285.006863 
L 252.867027 285.464851 
L 254.650843 285.71016 
L 256.508985 285.73749 
L 258.367127 285.536408 
L 260.076617 285.13427 
L 261.711782 284.522937 
L 263.272621 283.708588 
L 264.83346 282.637906 
L 266.765928 281.013804 
L 268.698395 279.446607 
L 269.664629 278.938674 
L 270.482212 278.764491 
L 271.225468 278.838199 
L 272.043051 279.161435 
L 273.009284 279.798282 
L 274.793101 281.309108 
L 276.799894 282.916764 
L 278.360733 283.886378 
L 279.921572 284.600575 
L 281.556737 285.10322 
L 283.266228 285.393932 
L 285.050044 285.469299 
L 286.83386 285.318373 
L 288.54335 284.952644 
L 290.178515 284.369235 
L 291.739354 283.574391 
L 293.300194 282.517911 
L 295.158335 280.954186 
L 297.31378 279.161159 
L 298.280014 278.646896 
L 299.02327 278.478254 
L 299.766527 278.535415 
L 300.58411 278.848015 
L 301.550343 279.483233 
L 303.259834 280.946297 
L 305.340953 282.645861 
L 306.901792 283.628998 
L 308.462631 284.347197 
L 310.02347 284.825729 
L 311.658635 285.100895 
L 313.368126 285.164304 
L 315.077616 285.00392 
L 316.712781 284.631845 
L 318.27362 284.049574 
L 319.834459 283.220887 
L 321.320973 282.178556 
L 323.179115 280.575582 
L 325.260234 278.82743 
L 326.226467 278.31863 
L 326.969724 278.162625 
L 327.712981 278.23821 
L 328.530563 278.574326 
L 329.496797 279.23616 
L 331.280613 280.797241 
L 333.213081 282.385287 
L 334.77392 283.374612 
L 336.260433 284.060473 
L 337.821272 284.535306 
L 339.456437 284.794271 
L 341.091602 284.828803 
L 342.726767 284.64259 
L 344.287606 284.247572 
L 345.77412 283.648872 
L 347.260633 282.811168 
L 348.747147 281.7159 
L 350.75394 279.919948 
L 352.46343 278.486738 
L 353.355338 278.002788 
L 354.098595 277.828967 
L 354.841852 277.892047 
L 355.585109 278.182264 
L 356.551342 278.828776 
L 358.186507 280.26862 
L 360.267626 282.030133 
L 361.75414 283.002005 
L 363.240653 283.711526 
L 364.727167 284.179027 
L 366.288006 284.437122 
L 367.848845 284.474285 
L 369.409684 284.294225 
L 370.970523 283.88586 
L 372.457037 283.259654 
L 373.94355 282.379456 
L 375.430064 281.23156 
L 377.808485 279.039351 
L 379.146347 277.981089 
L 380.038255 277.560057 
L 380.781512 277.45812 
L 381.524769 277.600089 
L 382.342351 278.011125 
L 383.382911 278.81199 
L 387.619474 282.36521 
L 389.105988 283.169614 
L 390.592501 283.710823 
L 392.079015 284.013943 
L 393.565528 284.097929 
L 395.052042 283.96823 
L 396.538555 283.618882 
L 397.950743 283.063571 
L 399.362931 282.270207 
L 400.775119 281.224643 
L 402.558935 279.596534 
L 404.565728 277.795227 
L 405.457636 277.270151 
L 406.200893 277.070716 
L 406.869824 277.104355 
L 407.613081 277.372673 
L 408.504989 277.958094 
L 409.842851 279.1453 
L 412.295598 281.325317 
L 413.782112 282.3229 
L 415.194299 283.00271 
L 416.606487 283.438192 
L 418.018675 283.650452 
L 419.505189 283.644936 
L 420.917376 283.423514 
L 422.329564 282.98001 
L 423.741752 282.293661 
L 425.15394 281.346789 
L 426.640453 280.072409 
L 429.985109 277.063536 
L 430.802691 276.701139 
L 431.471622 276.625072 
L 432.140553 276.75862 
L 432.88381 277.130921 
L 433.850044 277.877825 
L 438.38391 281.761398 
L 439.721772 282.46098 
L 441.059634 282.922543 
L 442.471822 283.171375 
L 443.88401 283.188854 
L 445.296198 282.977443 
L 446.63406 282.556699 
L 447.971922 281.903109 
L 449.309784 281.001704 
L 450.796297 279.714187 
L 454.215278 276.571352 
L 455.032861 276.212655 
L 455.701792 276.148363 
L 456.370723 276.300043 
L 457.11398 276.696598 
L 458.154539 277.542797 
L 462.0938 281.0578 
L 463.431662 281.834691 
L 464.769524 282.354215 
L 466.107386 282.633025 
L 467.445249 282.683594 
L 468.783111 282.509126 
L 470.120973 282.102589 
L 471.384509 281.490135 
L 472.722371 280.585274 
L 474.134559 279.34864 
L 477.776517 275.958434 
L 478.519774 275.660128 
L 479.188705 275.621102 
L 479.857636 275.804526 
L 480.600893 276.238271 
L 481.641452 277.129408 
L 485.209085 280.414377 
L 486.546947 281.237861 
L 487.810483 281.760889 
L 489.07402 282.049131 
L 490.337556 282.113059 
L 491.601093 281.955715 
L 492.864629 281.571262 
L 494.128166 280.945822 
L 495.391702 280.068061 
L 496.80389 278.797186 
L 500.371522 275.374985 
L 501.114779 275.064208 
L 501.78371 275.022606 
L 502.452641 275.211904 
L 503.195898 275.660179 
L 504.236457 276.578534 
L 507.581113 279.74856 
L 508.844649 280.565211 
L 510.108186 281.114735 
L 511.297396 281.397508 
L 512.486607 281.461349 
L 513.675818 281.308637 
L 514.865029 280.935019 
L 516.05424 280.32966 
L 517.317776 279.422308 
L 518.655638 278.176157 
L 522.148945 274.713529 
L 522.892202 274.389474 
L 523.561133 274.346042 
L 524.230064 274.543001 
L 524.97332 275.008208 
L 526.01388 275.956793 
L 529.209884 279.063024 
L 530.47342 279.897081 
L 531.662631 280.415765 
L 532.851842 280.683781 
L 533.966727 280.714076 
L 535.081612 280.532538 
L 536.196497 280.135 
L 537.385708 279.462615 
L 538.574919 278.528382 
L 539.987107 277.110004 
L 542.811482 274.144145 
L 543.554739 273.707317 
L 544.22367 273.561542 
L 544.818275 273.645363 
L 545.487207 273.965269 
L 546.304789 274.614256 
L 547.716977 276.078671 
L 549.575119 277.937586 
L 550.838655 278.883507 
L 551.95354 279.454586 
L 553.068425 279.77688 
L 554.18331 279.859745 
L 555.298196 279.711269 
L 556.413081 279.325317 
L 557.527966 278.693056 
L 558.717177 277.750189 
L 559.980713 276.455016 
L 562.95374 273.188911 
L 563.696997 272.780773 
L 564.291602 272.675842 
L 564.886208 272.77944 
L 565.555139 273.116822 
L 566.447047 273.840442 
L 567.784909 275.261425 
L 569.568725 277.106168 
L 570.757936 278.008894 
L 571.872821 278.570593 
L 572.91338 278.843604 
L 573.95394 278.875458 
L 574.920174 278.68704 
L 575.960733 278.259407 
L 577.075618 277.545728 
L 578.190503 276.555797 
L 579.528365 275.053908 
L 581.906787 272.319372 
L 582.650044 271.803346 
L 583.318975 271.607074 
L 583.91358 271.667875 
L 584.582511 271.987745 
L 585.400094 272.669995 
L 586.812281 274.224455 
L 588.521772 276.007407 
L 589.636657 276.864107 
L 590.677217 277.39298 
L 591.64345 277.643612 
L 592.609684 277.66272 
L 593.575918 277.449374 
L 594.542152 277.001472 
L 595.582711 276.258813 
L 596.697596 275.168749 
L 598.109784 273.442614 
L 599.967926 271.187791 
L 600.785508 270.552669 
L 601.380114 270.339023 
L 601.974719 270.361355 
L 602.569324 270.611903 
L 603.312581 271.192063 
L 604.427466 272.399355 
L 606.508585 274.668279 
L 607.62347 275.528385 
L 608.589704 276.000245 
L 609.481612 276.200943 
L 610.37352 276.174004 
L 611.265428 275.91762 
L 612.157336 275.430092 
L 613.12357 274.644944 
L 614.238455 273.425026 
L 615.87362 271.232056 
L 617.211482 269.572711 
L 617.954739 268.969414 
L 618.549344 268.742424 
L 619.14395 268.768869 
L 619.738555 269.038419 
L 620.481812 269.654564 
L 621.671023 271.000449 
L 623.380513 272.898633 
L 624.421073 273.727815 
L 625.312981 274.171732 
L 626.130563 274.348619 
L 626.948146 274.300718 
L 627.765728 274.025972 
L 628.58331 273.524601 
L 629.475219 272.721415 
L 630.515778 271.474071 
L 632.225268 268.990166 
L 633.414479 267.452714 
L 634.157736 266.84966 
L 634.752341 266.653691 
L 635.272621 266.707313 
L 635.867227 267.009592 
L 636.610483 267.673127 
L 638.022671 269.336593 
L 639.360533 270.77542 
L 640.326767 271.493031 
L 641.144349 271.825102 
L 641.887606 271.887854 
L 642.630863 271.725826 
L 643.37412 271.33657 
L 644.191702 270.648041 
L 645.08361 269.601647 
L 646.272821 267.823572 
L 648.279614 264.754938 
L 649.022871 264.052524 
L 649.617476 263.80483 
L 650.137756 263.836262 
L 650.732361 264.134332 
L 651.475618 264.791022 
L 653.185109 266.746455 
L 654.225668 267.711541 
L 655.04325 268.175636 
L 655.712182 268.313673 
L 656.381113 268.228745 
L 657.050044 267.915011 
L 657.7933 267.297369 
L 658.610883 266.301405 
L 659.577117 264.74212 
L 662.327167 260.019943 
L 662.921772 259.507537 
L 663.442052 259.331667 
L 663.962331 259.405635 
L 664.556937 259.747629 
L 665.448845 260.564169 
L 667.009684 262.013789 
L 667.678615 262.35058 
L 668.273221 262.435794 
L 668.867826 262.296113 
L 669.462431 261.91205 
L 670.131362 261.172792 
L 670.874619 259.992001 
L 671.766527 258.120753 
L 674.81388 251.173053 
L 675.482811 250.434863 
L 676.077416 250.082033 
L 677.04365 249.928556 
L 678.08421 249.677239 
L 678.678815 249.398776 
L 680.016677 246.737483 
L 680.834259 243.973482 
L 682.320773 235.717835 
L 682.915378 230.962368 
L 683.658635 223.51549 
L 684.327566 214.435162 
L 684.847846 204.31558 
L 685.2938 191.456996 
L 685.665428 173.370752 
L 686.037057 143.298294 
L 687.077616 45.456247 
L 687.374919 38.764836 
L 687.672222 36.274962 
L 687.969524 35.389058 
L 688.266827 35.078916 
L 688.712781 34.947359 
L 689.307386 34.918125 
L 689.307386 34.918125 
" clip-path="url(#pca2c3fbd15)" style="fill: none; stroke: #1f77b4; stroke-width: 0.6; stroke-linecap: square"/>
   </g>
   <g id="line2d_15">
    <path d="M 50.14375 230.194715 
L 719.74375 230.194715 
" clip-path="url(#pca2c3fbd15)" style="fill: none; stroke-dasharray: 2.22,0.96; stroke-dashoffset: 0; stroke: #ff0000; stroke-width: 0.6"/>
   </g>
   <g id="patch_3">
    <path d="M 50.14375 299.518125 
L 50.14375 22.318125 
" style="fill: none; stroke: #000000; stroke-width: 0.8; stroke-linejoin: miter; stroke-linecap: square"/>
   </g>
   <g id="patch_4">
    <path d="M 719.74375 299.518125 
L 719.74375 22.318125 
" style="fill: none; stroke: #000000; stroke-width: 0.8; stroke-linejoin: miter; stroke-linecap: square"/>
   </g>
   <g id="patch_5">
    <path d="M 50.14375 299.518125 
L 719.74375 299.518125 
" style="fill: none; stroke: #000000; stroke-width: 0.8; stroke-linejoin: miter; stroke-linecap: square"/>
   </g>
   <g id="patch_6">
    <path d="M 50.14375 22.318125 
L 719.74375 22.318125 
" style="fill: none; stroke: #000000; stroke-width: 0.8; stroke-linejoin: miter; stroke-linecap: square"/>
   </g>
   <g id="text_16">
    <!-- Mf vs Time for M=60, e=0.13, f_lower=10 Hz -->
    <g transform="translate(249.127188 16.318125) scale(0.12 -0.12)">
     <defs>
      <path id="DejaVuSans-76" d="M 191 3500 
L 800 3500 
L 1894 563 
L 2988 3500 
L 3597 3500 
L 2284 0 
L 1503 0 
L 191 3500 
z
" transform="scale(0.015625)"/>
      <path id="DejaVuSans-73" d="M 2834 3397 
L 2834 2853 
Q 2591 2978 2328 3040 
Q 2066 3103 1784 3103 
Q 1356 3103 1142 2972 
Q 928 2841 928 2578 
Q 928 2378 1081 2264 
Q 1234 2150 1697 2047 
L 1894 2003 
Q 2506 1872 2764 1633 
Q 3022 1394 3022 966 
Q 3022 478 2636 193 
Q 2250 -91 1575 -91 
Q 1294 -91 989 -36 
Q 684 19 347 128 
L 347 722 
Q 666 556 975 473 
Q 1284 391 1588 391 
Q 1994 391 2212 530 
Q 2431 669 2431 922 
Q 2431 1156 2273 1281 
Q 2116 1406 1581 1522 
L 1381 1569 
Q 847 1681 609 1914 
Q 372 2147 372 2553 
Q 372 3047 722 3315 
Q 1072 3584 1716 3584 
Q 2034 3584 2315 3537 
Q 2597 3491 2834 3397 
z
" transform="scale(0.015625)"/>
      <path id="DejaVuSans-54" d="M -19 4666 
L 3928 4666 
L 3928 4134 
L 2272 4134 
L 2272 0 
L 1638 0 
L 1638 4134 
L -19 4134 
L -19 4666 
z
" transform="scale(0.015625)"/>
      <path id="DejaVuSans-69" d="M 603 3500 
L 1178 3500 
L 1178 0 
L 603 0 
L 603 3500 
z
M 603 4863 
L 1178 4863 
L 1178 4134 
L 603 4134 
L 603 4863 
z
" transform="scale(0.015625)"/>
      <path id="DejaVuSans-6d" d="M 3328 2828 
Q 3544 3216 3844 3400 
Q 4144 3584 4550 3584 
Q 5097 3584 5394 3201 
Q 5691 2819 5691 2113 
L 5691 0 
L 5113 0 
L 5113 2094 
Q 5113 2597 4934 2840 
Q 4756 3084 4391 3084 
Q 3944 3084 3684 2787 
Q 3425 2491 3425 1978 
L 3425 0 
L 2847 0 
L 2847 2094 
Q 2847 2600 2669 2842 
Q 2491 3084 2119 3084 
Q 1678 3084 1418 2786 
Q 1159 2488 1159 1978 
L 1159 0 
L 581 0 
L 581 3500 
L 1159 3500 
L 1159 2956 
Q 1356 3278 1631 3431 
Q 1906 3584 2284 3584 
Q 2666 3584 2933 3390 
Q 3200 3197 3328 2828 
z
" transform="scale(0.015625)"/>
      <path id="DejaVuSans-65" d="M 3597 1894 
L 3597 1613 
L 953 1613 
Q 991 1019 1311 708 
Q 1631 397 2203 397 
Q 2534 397 2845 478 
Q 3156 559 3463 722 
L 3463 178 
Q 3153 47 2828 -22 
Q 2503 -91 2169 -91 
Q 1331 -91 842 396 
Q 353 884 353 1716 
Q 353 2575 817 3079 
Q 1281 3584 2069 3584 
Q 2775 3584 3186 3129 
Q 3597 2675 3597 1894 
z
M 3022 2063 
Q 3016 2534 2758 2815 
Q 2500 3097 2075 3097 
Q 1594 3097 1305 2825 
Q 1016 2553 972 2059 
L 3022 2063 
z
" transform="scale(0.015625)"/>
      <path id="DejaVuSans-6f" d="M 1959 3097 
Q 1497 3097 1228 2736 
Q 959 2375 959 1747 
Q 959 1119 1226 758 
Q 1494 397 1959 397 
Q 2419 397 2687 759 
Q 2956 1122 2956 1747 
Q 2956 2369 2687 2733 
Q 2419 3097 1959 3097 
z
M 1959 3584 
Q 2709 3584 3137 3096 
Q 3566 2609 3566 1747 
Q 3566 888 3137 398 
Q 2709 -91 1959 -91 
Q 1206 -91 779 398 
Q 353 888 353 1747 
Q 353 2609 779 3096 
Q 1206 3584 1959 3584 
z
" transform="scale(0.015625)"/>
      <path id="DejaVuSans-72" d="M 2631 2963 
Q 2534 3019 2420 3045 
Q 2306 3072 2169 3072 
Q 1681 3072 1420 2755 
Q 1159 2438 1159 1844 
L 1159 0 
L 581 0 
L 581 3500 
L 1159 3500 
L 1159 2956 
Q 1341 3275 1631 3429 
Q 1922 3584 2338 3584 
Q 2397 3584 2469 3576 
Q 2541 3569 2628 3553 
L 2631 2963 
z
" transform="scale(0.015625)"/>
      <path id="DejaVuSans-3d" d="M 678 2906 
L 4684 2906 
L 4684 2381 
L 678 2381 
L 678 2906 
z
M 678 1631 
L 4684 1631 
L 4684 1100 
L 678 1100 
L 678 1631 
z
" transform="scale(0.015625)"/>
      <path id="DejaVuSans-2c" d="M 750 794 
L 1409 794 
L 1409 256 
L 897 -744 
L 494 -744 
L 750 256 
L 750 794 
z
" transform="scale(0.015625)"/>
      <path id="DejaVuSans-33" d="M 2597 2516 
Q 3050 2419 3304 2112 
Q 3559 1806 3559 1356 
Q 3559 666 3084 287 
Q 2609 -91 1734 -91 
Q 1441 -91 1130 -33 
Q 819 25 488 141 
L 488 750 
Q 750 597 1062 519 
Q 1375 441 1716 441 
Q 2309 441 2620 675 
Q 2931 909 2931 1356 
Q 2931 1769 2642 2001 
Q 2353 2234 1838 2234 
L 1294 2234 
L 1294 2753 
L 1863 2753 
Q 2328 2753 2575 2939 
Q 2822 3125 2822 3475 
Q 2822 3834 2567 4026 
Q 2313 4219 1838 4219 
Q 1578 4219 1281 4162 
Q 984 4106 628 3988 
L 628 4550 
Q 988 4650 1302 4700 
Q 1616 4750 1894 4750 
Q 2613 4750 3031 4423 
Q 3450 4097 3450 3541 
Q 3450 3153 3228 2886 
Q 3006 2619 2597 2516 
z
" transform="scale(0.015625)"/>
      <path id="DejaVuSans-5f" d="M 3263 -1063 
L 3263 -1509 
L -63 -1509 
L -63 -1063 
L 3263 -1063 
z
" transform="scale(0.015625)"/>
      <path id="DejaVuSans-6c" d="M 603 4863 
L 1178 4863 
L 1178 0 
L 603 0 
L 603 4863 
z
" transform="scale(0.015625)"/>
      <path id="DejaVuSans-77" d="M 269 3500 
L 844 3500 
L 1563 769 
L 2278 3500 
L 2956 3500 
L 3675 769 
L 4391 3500 
L 4966 3500 
L 4050 0 
L 3372 0 
L 2619 2869 
L 1863 0 
L 1184 0 
L 269 3500 
z
" transform="scale(0.015625)"/>
      <path id="DejaVuSans-48" d="M 628 4666 
L 1259 4666 
L 1259 2753 
L 3553 2753 
L 3553 4666 
L 4184 4666 
L 4184 0 
L 3553 0 
L 3553 2222 
L 1259 2222 
L 1259 0 
L 628 0 
L 628 4666 
z
" transform="scale(0.015625)"/>
      <path id="DejaVuSans-7a" d="M 353 3500 
L 3084 3500 
L 3084 2975 
L 922 459 
L 3084 459 
L 3084 0 
L 275 0 
L 275 525 
L 2438 3041 
L 353 3041 
L 353 3500 
z
" transform="scale(0.015625)"/>
     </defs>
     <use xlink:href="#DejaVuSans-4d"/>
     <use xlink:href="#DejaVuSans-66" transform="translate(86.279297 0)"/>
     <use xlink:href="#DejaVuSans-20" transform="translate(121.484375 0)"/>
     <use xlink:href="#DejaVuSans-76" transform="translate(153.271484 0)"/>
     <use xlink:href="#DejaVuSans-73" transform="translate(212.451172 0)"/>
     <use xlink:href="#DejaVuSans-20" transform="translate(264.550781 0)"/>
     <use xlink:href="#DejaVuSans-54" transform="translate(296.337891 0)"/>
     <use xlink:href="#DejaVuSans-69" transform="translate(354.296875 0)"/>
     <use xlink:href="#DejaVuSans-6d" transform="translate(382.080078 0)"/>
     <use xlink:href="#DejaVuSans-65" transform="translate(479.492188 0)"/>
     <use xlink:href="#DejaVuSans-20" transform="translate(541.015625 0)"/>
     <use xlink:href="#DejaVuSans-66" transform="translate(572.802734 0)"/>
     <use xlink:href="#DejaVuSans-6f" transform="translate(608.007812 0)"/>
     <use xlink:href="#DejaVuSans-72" transform="translate(669.189453 0)"/>
     <use xlink:href="#DejaVuSans-20" transform="translate(710.302734 0)"/>
     <use xlink:href="#DejaVuSans-4d" transform="translate(742.089844 0)"/>
     <use xlink:href="#DejaVuSans-3d" transform="translate(828.369141 0)"/>
     <use xlink:href="#DejaVuSans-36" transform="translate(912.158203 0)"/>
     <use xlink:href="#DejaVuSans-30" transform="translate(975.78125 0)"/>
     <use xlink:href="#DejaVuSans-2c" transform="translate(1039.404297 0)"/>
     <use xlink:href="#DejaVuSans-20" transform="translate(1071.191406 0)"/>
     <use xlink:href="#DejaVuSans-65" transform="translate(1102.978516 0)"/>
     <use xlink:href="#DejaVuSans-3d" transform="translate(1164.501953 0)"/>
     <use xlink:href="#DejaVuSans-30" transform="translate(1248.291016 0)"/>
     <use xlink:href="#DejaVuSans-2e" transform="translate(1311.914062 0)"/>
     <use xlink:href="#DejaVuSans-31" transform="translate(1343.701172 0)"/>
     <use xlink:href="#DejaVuSans-33" transform="translate(1407.324219 0)"/>
     <use xlink:href="#DejaVuSans-2c" transform="translate(1470.947266 0)"/>
     <use xlink:href="#DejaVuSans-20" transform="translate(1502.734375 0)"/>
     <use xlink:href="#DejaVuSans-66" transform="translate(1534.521484 0)"/>
     <use xlink:href="#DejaVuSans-5f" transform="translate(1569.726562 0)"/>
     <use xlink:href="#DejaVuSans-6c" transform="translate(1619.726562 0)"/>
     <use xlink:href="#DejaVuSans-6f" transform="translate(1647.509766 0)"/>
     <use xlink:href="#DejaVuSans-77" transform="translate(1708.691406 0)"/>
     <use xlink:href="#DejaVuSans-65" transform="translate(1790.478516 0)"/>
     <use xlink:href="#DejaVuSans-72" transform="translate(1852.001953 0)"/>
     <use xlink:href="#DejaVuSans-3d" transform="translate(1893.115234 0)"/>
     <use xlink:href="#DejaVuSans-31" transform="translate(1976.904297 0)"/>
     <use xlink:href="#DejaVuSans-30" transform="translate(2040.527344 0)"/>
     <use xlink:href="#DejaVuSans-20" transform="translate(2104.150391 0)"/>
     <use xlink:href="#DejaVuSans-48" transform="translate(2135.9375 0)"/>
     <use xlink:href="#DejaVuSans-7a" transform="translate(2211.132812 0)"/>
    </g>
   </g>
   <g id="legend_1">
    <g id="patch_7">
     <path d="M 57.14375 59.9525 
L 153.10625 59.9525 
Q 155.10625 59.9525 155.10625 57.9525 
L 155.10625 29.318125 
Q 155.10625 27.318125 153.10625 27.318125 
L 57.14375 27.318125 
Q 55.14375 27.318125 55.14375 29.318125 
L 55.14375 57.9525 
Q 55.14375 59.9525 57.14375 59.9525 
z
" style="fill: #ffffff; opacity: 0.8; stroke: #cccccc; stroke-linejoin: miter"/>
    </g>
    <g id="line2d_16">
     <path d="M 59.14375 35.416563 
L 69.14375 35.416563 
L 79.14375 35.416563 
" style="fill: none; stroke: #1f77b4; stroke-width: 0.6; stroke-linecap: square"/>
    </g>
    <g id="text_17">
     <!-- Mf -->
     <g transform="translate(87.14375 38.916563) scale(0.1 -0.1)">
      <use xlink:href="#DejaVuSans-4d"/>
      <use xlink:href="#DejaVuSans-66" transform="translate(86.279297 0)"/>
     </g>
    </g>
    <g id="line2d_17">
     <path d="M 59.14375 50.094688 
L 69.14375 50.094688 
L 79.14375 50.094688 
" style="fill: none; stroke-dasharray: 2.22,0.96; stroke-dashoffset: 0; stroke: #ff0000; stroke-width: 0.6"/>
    </g>
    <g id="text_18">
     <!-- Mf_ISCO_circ -->
     <g transform="translate(87.14375 53.594688) scale(0.1 -0.1)">
      <defs>
       <path id="DejaVuSans-49" d="M 628 4666 
L 1259 4666 
L 1259 0 
L 628 0 
L 628 4666 
z
" transform="scale(0.015625)"/>
       <path id="DejaVuSans-53" d="M 3425 4513 
L 3425 3897 
Q 3066 4069 2747 4153 
Q 2428 4238 2131 4238 
Q 1616 4238 1336 4038 
Q 1056 3838 1056 3469 
Q 1056 3159 1242 3001 
Q 1428 2844 1947 2747 
L 2328 2669 
Q 3034 2534 3370 2195 
Q 3706 1856 3706 1288 
Q 3706 609 3251 259 
Q 2797 -91 1919 -91 
Q 1588 -91 1214 -16 
Q 841 59 441 206 
L 441 856 
Q 825 641 1194 531 
Q 1563 422 1919 422 
Q 2459 422 2753 634 
Q 3047 847 3047 1241 
Q 3047 1584 2836 1778 
Q 2625 1972 2144 2069 
L 1759 2144 
Q 1053 2284 737 2584 
Q 422 2884 422 3419 
Q 422 4038 858 4394 
Q 1294 4750 2059 4750 
Q 2388 4750 2728 4690 
Q 3069 4631 3425 4513 
z
" transform="scale(0.015625)"/>
       <path id="DejaVuSans-43" d="M 4122 4306 
L 4122 3641 
Q 3803 3938 3442 4084 
Q 3081 4231 2675 4231 
Q 1875 4231 1450 3742 
Q 1025 3253 1025 2328 
Q 1025 1406 1450 917 
Q 1875 428 2675 428 
Q 3081 428 3442 575 
Q 3803 722 4122 1019 
L 4122 359 
Q 3791 134 3420 21 
Q 3050 -91 2638 -91 
Q 1578 -91 968 557 
Q 359 1206 359 2328 
Q 359 3453 968 4101 
Q 1578 4750 2638 4750 
Q 3056 4750 3426 4639 
Q 3797 4528 4122 4306 
z
" transform="scale(0.015625)"/>
       <path id="DejaVuSans-4f" d="M 2522 4238 
Q 1834 4238 1429 3725 
Q 1025 3213 1025 2328 
Q 1025 1447 1429 934 
Q 1834 422 2522 422 
Q 3209 422 3611 934 
Q 4013 1447 4013 2328 
Q 4013 3213 3611 3725 
Q 3209 4238 2522 4238 
z
M 2522 4750 
Q 3503 4750 4090 4092 
Q 4678 3434 4678 2328 
Q 4678 1225 4090 567 
Q 3503 -91 2522 -91 
Q 1538 -91 948 565 
Q 359 1222 359 2328 
Q 359 3434 948 4092 
Q 1538 4750 2522 4750 
z
" transform="scale(0.015625)"/>
       <path id="DejaVuSans-63" d="M 3122 3366 
L 3122 2828 
Q 2878 2963 2633 3030 
Q 2388 3097 2138 3097 
Q 1578 3097 1268 2742 
Q 959 2388 959 1747 
Q 959 1106 1268 751 
Q 1578 397 2138 397 
Q 2388 397 2633 464 
Q 2878 531 3122 666 
L 3122 134 
Q 2881 22 2623 -34 
Q 2366 -91 2075 -91 
Q 1284 -91 818 406 
Q 353 903 353 1747 
Q 353 2603 823 3093 
Q 1294 3584 2113 3584 
Q 2378 3584 2631 3529 
Q 2884 3475 3122 3366 
z
" transform="scale(0.015625)"/>
      </defs>
      <use xlink:href="#DejaVuSans-4d"/>
      <use xlink:href="#DejaVuSans-66" transform="translate(86.279297 0)"/>
      <use xlink:href="#DejaVuSans-5f" transform="translate(121.484375 0)"/>
      <use xlink:href="#DejaVuSans-49" transform="translate(171.484375 0)"/>
      <use xlink:href="#DejaVuSans-53" transform="translate(200.976562 0)"/>
      <use xlink:href="#DejaVuSans-43" transform="translate(264.453125 0)"/>
      <use xlink:href="#DejaVuSans-4f" transform="translate(334.277344 0)"/>
      <use xlink:href="#DejaVuSans-5f" transform="translate(412.988281 0)"/>
      <use xlink:href="#DejaVuSans-63" transform="translate(462.988281 0)"/>
      <use xlink:href="#DejaVuSans-69" transform="translate(517.96875 0)"/>
      <use xlink:href="#DejaVuSans-72" transform="translate(545.751953 0)"/>
      <use xlink:href="#DejaVuSans-63" transform="translate(584.615234 0)"/>
     </g>
    </g>
   </g>
  </g>
 </g>
 <defs>
  <clipPath id="pca2c3fbd15">
   <rect x="50.14375" y="22.318125" width="669.6" height="277.2"/>
  </clipPath>
 </defs>
</svg>
