<?xml version="1.0" encoding="utf-8" standalone="no"?>
<!DOCTYPE svg PUBLIC "-//W3C//DTD SVG 1.1//EN"
  "http://www.w3.org/Graphics/SVG/1.1/DTD/svg11.dtd">
<svg xmlns:xlink="http://www.w3.org/1999/xlink" width="726.94375pt" height="337.074375pt" viewBox="0 0 726.94375 337.074375" xmlns="http://www.w3.org/2000/svg" version="1.1">
 <metadata>
  <rdf:RDF xmlns:dc="http://purl.org/dc/elements/1.1/" xmlns:cc="http://creativecommons.org/ns#" xmlns:rdf="http://www.w3.org/1999/02/22-rdf-syntax-ns#">
   <cc:Work>
    <dc:type rdf:resource="http://purl.org/dc/dcmitype/StillImage"/>
    <dc:date>2025-07-24T14:39:29.505097</dc:date>
    <dc:format>image/svg+xml</dc:format>
    <dc:creator>
     <cc:Agent>
      <dc:title>Matplotlib v3.10.3, https://matplotlib.org/</dc:title>
     </cc:Agent>
    </dc:creator>
   </cc:Work>
  </rdf:RDF>
 </metadata>
 <defs>
  <style type="text/css">*{stroke-linejoin: round; stroke-linecap: butt}</style>
 </defs>
 <g id="figure_1">
  <g id="patch_1">
   <path d="M 0 337.074375 
L 726.94375 337.074375 
L 726.94375 0 
L 0 0 
z
" style="fill: #ffffff"/>
  </g>
  <g id="axes_1">
   <g id="patch_2">
    <path d="M 50.14375 299.518125 
L 719.74375 299.518125 
L 719.74375 22.318125 
L 50.14375 22.318125 
z
" style="fill: #ffffff"/>
   </g>
   <g id="matplotlib.axis_1">
    <g id="xtick_1">
     <g id="line2d_1">
      <defs>
       <path id="me16a4ca79d" d="M 0 0 
L 0 3.5 
" style="stroke: #000000; stroke-width: 0.8"/>
      </defs>
      <g>
       <use xlink:href="#me16a4ca79d" x="59.767495" y="299.518125" style="stroke: #000000; stroke-width: 0.8"/>
      </g>
     </g>
     <g id="text_1">
      <!-- −14000 -->
      <g transform="translate(39.671401 314.116563) scale(0.1 -0.1)">
       <defs>
        <path id="DejaVuSans-2212" d="M 678 2272 
L 4684 2272 
L 4684 1741 
L 678 1741 
L 678 2272 
z
" transform="scale(0.015625)"/>
        <path id="DejaVuSans-31" d="M 794 531 
L 1825 531 
L 1825 4091 
L 703 3866 
L 703 4441 
L 1819 4666 
L 2450 4666 
L 2450 531 
L 3481 531 
L 3481 0 
L 794 0 
L 794 531 
z
" transform="scale(0.015625)"/>
        <path id="DejaVuSans-34" d="M 2419 4116 
L 825 1625 
L 2419 1625 
L 2419 4116 
z
M 2253 4666 
L 3047 4666 
L 3047 1625 
L 3713 1625 
L 3713 1100 
L 3047 1100 
L 3047 0 
L 2419 0 
L 2419 1100 
L 313 1100 
L 313 1709 
L 2253 4666 
z
" transform="scale(0.015625)"/>
        <path id="DejaVuSans-30" d="M 2034 4250 
Q 1547 4250 1301 3770 
Q 1056 3291 1056 2328 
Q 1056 1369 1301 889 
Q 1547 409 2034 409 
Q 2525 409 2770 889 
Q 3016 1369 3016 2328 
Q 3016 3291 2770 3770 
Q 2525 4250 2034 4250 
z
M 2034 4750 
Q 2819 4750 3233 4129 
Q 3647 3509 3647 2328 
Q 3647 1150 3233 529 
Q 2819 -91 2034 -91 
Q 1250 -91 836 529 
Q 422 1150 422 2328 
Q 422 3509 836 4129 
Q 1250 4750 2034 4750 
z
" transform="scale(0.015625)"/>
       </defs>
       <use xlink:href="#DejaVuSans-2212"/>
       <use xlink:href="#DejaVuSans-31" transform="translate(83.789062 0)"/>
       <use xlink:href="#DejaVuSans-34" transform="translate(147.412109 0)"/>
       <use xlink:href="#DejaVuSans-30" transform="translate(211.035156 0)"/>
       <use xlink:href="#DejaVuSans-30" transform="translate(274.658203 0)"/>
       <use xlink:href="#DejaVuSans-30" transform="translate(338.28125 0)"/>
      </g>
     </g>
    </g>
    <g id="xtick_2">
     <g id="line2d_2">
      <g>
       <use xlink:href="#me16a4ca79d" x="149.289869" y="299.518125" style="stroke: #000000; stroke-width: 0.8"/>
      </g>
     </g>
     <g id="text_2">
      <!-- −12000 -->
      <g transform="translate(129.193775 314.116563) scale(0.1 -0.1)">
       <defs>
        <path id="DejaVuSans-32" d="M 1228 531 
L 3431 531 
L 3431 0 
L 469 0 
L 469 531 
Q 828 903 1448 1529 
Q 2069 2156 2228 2338 
Q 2531 2678 2651 2914 
Q 2772 3150 2772 3378 
Q 2772 3750 2511 3984 
Q 2250 4219 1831 4219 
Q 1534 4219 1204 4116 
Q 875 4013 500 3803 
L 500 4441 
Q 881 4594 1212 4672 
Q 1544 4750 1819 4750 
Q 2544 4750 2975 4387 
Q 3406 4025 3406 3419 
Q 3406 3131 3298 2873 
Q 3191 2616 2906 2266 
Q 2828 2175 2409 1742 
Q 1991 1309 1228 531 
z
" transform="scale(0.015625)"/>
       </defs>
       <use xlink:href="#DejaVuSans-2212"/>
       <use xlink:href="#DejaVuSans-31" transform="translate(83.789062 0)"/>
       <use xlink:href="#DejaVuSans-32" transform="translate(147.412109 0)"/>
       <use xlink:href="#DejaVuSans-30" transform="translate(211.035156 0)"/>
       <use xlink:href="#DejaVuSans-30" transform="translate(274.658203 0)"/>
       <use xlink:href="#DejaVuSans-30" transform="translate(338.28125 0)"/>
      </g>
     </g>
    </g>
    <g id="xtick_3">
     <g id="line2d_3">
      <g>
       <use xlink:href="#me16a4ca79d" x="238.812244" y="299.518125" style="stroke: #000000; stroke-width: 0.8"/>
      </g>
     </g>
     <g id="text_3">
      <!-- −10000 -->
      <g transform="translate(218.71615 314.116563) scale(0.1 -0.1)">
       <use xlink:href="#DejaVuSans-2212"/>
       <use xlink:href="#DejaVuSans-31" transform="translate(83.789062 0)"/>
       <use xlink:href="#DejaVuSans-30" transform="translate(147.412109 0)"/>
       <use xlink:href="#DejaVuSans-30" transform="translate(211.035156 0)"/>
       <use xlink:href="#DejaVuSans-30" transform="translate(274.658203 0)"/>
       <use xlink:href="#DejaVuSans-30" transform="translate(338.28125 0)"/>
      </g>
     </g>
    </g>
    <g id="xtick_4">
     <g id="line2d_4">
      <g>
       <use xlink:href="#me16a4ca79d" x="328.334618" y="299.518125" style="stroke: #000000; stroke-width: 0.8"/>
      </g>
     </g>
     <g id="text_4">
      <!-- −8000 -->
      <g transform="translate(311.419775 314.116563) scale(0.1 -0.1)">
       <defs>
        <path id="DejaVuSans-38" d="M 2034 2216 
Q 1584 2216 1326 1975 
Q 1069 1734 1069 1313 
Q 1069 891 1326 650 
Q 1584 409 2034 409 
Q 2484 409 2743 651 
Q 3003 894 3003 1313 
Q 3003 1734 2745 1975 
Q 2488 2216 2034 2216 
z
M 1403 2484 
Q 997 2584 770 2862 
Q 544 3141 544 3541 
Q 544 4100 942 4425 
Q 1341 4750 2034 4750 
Q 2731 4750 3128 4425 
Q 3525 4100 3525 3541 
Q 3525 3141 3298 2862 
Q 3072 2584 2669 2484 
Q 3125 2378 3379 2068 
Q 3634 1759 3634 1313 
Q 3634 634 3220 271 
Q 2806 -91 2034 -91 
Q 1263 -91 848 271 
Q 434 634 434 1313 
Q 434 1759 690 2068 
Q 947 2378 1403 2484 
z
M 1172 3481 
Q 1172 3119 1398 2916 
Q 1625 2713 2034 2713 
Q 2441 2713 2670 2916 
Q 2900 3119 2900 3481 
Q 2900 3844 2670 4047 
Q 2441 4250 2034 4250 
Q 1625 4250 1398 4047 
Q 1172 3844 1172 3481 
z
" transform="scale(0.015625)"/>
       </defs>
       <use xlink:href="#DejaVuSans-2212"/>
       <use xlink:href="#DejaVuSans-38" transform="translate(83.789062 0)"/>
       <use xlink:href="#DejaVuSans-30" transform="translate(147.412109 0)"/>
       <use xlink:href="#DejaVuSans-30" transform="translate(211.035156 0)"/>
       <use xlink:href="#DejaVuSans-30" transform="translate(274.658203 0)"/>
      </g>
     </g>
    </g>
    <g id="xtick_5">
     <g id="line2d_5">
      <g>
       <use xlink:href="#me16a4ca79d" x="417.856993" y="299.518125" style="stroke: #000000; stroke-width: 0.8"/>
      </g>
     </g>
     <g id="text_5">
      <!-- −6000 -->
      <g transform="translate(400.942149 314.116563) scale(0.1 -0.1)">
       <defs>
        <path id="DejaVuSans-36" d="M 2113 2584 
Q 1688 2584 1439 2293 
Q 1191 2003 1191 1497 
Q 1191 994 1439 701 
Q 1688 409 2113 409 
Q 2538 409 2786 701 
Q 3034 994 3034 1497 
Q 3034 2003 2786 2293 
Q 2538 2584 2113 2584 
z
M 3366 4563 
L 3366 3988 
Q 3128 4100 2886 4159 
Q 2644 4219 2406 4219 
Q 1781 4219 1451 3797 
Q 1122 3375 1075 2522 
Q 1259 2794 1537 2939 
Q 1816 3084 2150 3084 
Q 2853 3084 3261 2657 
Q 3669 2231 3669 1497 
Q 3669 778 3244 343 
Q 2819 -91 2113 -91 
Q 1303 -91 875 529 
Q 447 1150 447 2328 
Q 447 3434 972 4092 
Q 1497 4750 2381 4750 
Q 2619 4750 2861 4703 
Q 3103 4656 3366 4563 
z
" transform="scale(0.015625)"/>
       </defs>
       <use xlink:href="#DejaVuSans-2212"/>
       <use xlink:href="#DejaVuSans-36" transform="translate(83.789062 0)"/>
       <use xlink:href="#DejaVuSans-30" transform="translate(147.412109 0)"/>
       <use xlink:href="#DejaVuSans-30" transform="translate(211.035156 0)"/>
       <use xlink:href="#DejaVuSans-30" transform="translate(274.658203 0)"/>
      </g>
     </g>
    </g>
    <g id="xtick_6">
     <g id="line2d_6">
      <g>
       <use xlink:href="#me16a4ca79d" x="507.379368" y="299.518125" style="stroke: #000000; stroke-width: 0.8"/>
      </g>
     </g>
     <g id="text_6">
      <!-- −4000 -->
      <g transform="translate(490.464524 314.116563) scale(0.1 -0.1)">
       <use xlink:href="#DejaVuSans-2212"/>
       <use xlink:href="#DejaVuSans-34" transform="translate(83.789062 0)"/>
       <use xlink:href="#DejaVuSans-30" transform="translate(147.412109 0)"/>
       <use xlink:href="#DejaVuSans-30" transform="translate(211.035156 0)"/>
       <use xlink:href="#DejaVuSans-30" transform="translate(274.658203 0)"/>
      </g>
     </g>
    </g>
    <g id="xtick_7">
     <g id="line2d_7">
      <g>
       <use xlink:href="#me16a4ca79d" x="596.901742" y="299.518125" style="stroke: #000000; stroke-width: 0.8"/>
      </g>
     </g>
     <g id="text_7">
      <!-- −2000 -->
      <g transform="translate(579.986899 314.116563) scale(0.1 -0.1)">
       <use xlink:href="#DejaVuSans-2212"/>
       <use xlink:href="#DejaVuSans-32" transform="translate(83.789062 0)"/>
       <use xlink:href="#DejaVuSans-30" transform="translate(147.412109 0)"/>
       <use xlink:href="#DejaVuSans-30" transform="translate(211.035156 0)"/>
       <use xlink:href="#DejaVuSans-30" transform="translate(274.658203 0)"/>
      </g>
     </g>
    </g>
    <g id="xtick_8">
     <g id="line2d_8">
      <g>
       <use xlink:href="#me16a4ca79d" x="686.424117" y="299.518125" style="stroke: #000000; stroke-width: 0.8"/>
      </g>
     </g>
     <g id="text_8">
      <!-- 0 -->
      <g transform="translate(683.242867 314.116563) scale(0.1 -0.1)">
       <use xlink:href="#DejaVuSans-30"/>
      </g>
     </g>
    </g>
    <g id="text_9">
     <!-- t [M] -->
     <g transform="translate(373.178906 327.794688) scale(0.1 -0.1)">
      <defs>
       <path id="DejaVuSans-74" d="M 1172 4494 
L 1172 3500 
L 2356 3500 
L 2356 3053 
L 1172 3053 
L 1172 1153 
Q 1172 725 1289 603 
Q 1406 481 1766 481 
L 2356 481 
L 2356 0 
L 1766 0 
Q 1100 0 847 248 
Q 594 497 594 1153 
L 594 3053 
L 172 3053 
L 172 3500 
L 594 3500 
L 594 4494 
L 1172 4494 
z
" transform="scale(0.015625)"/>
       <path id="DejaVuSans-20" transform="scale(0.015625)"/>
       <path id="DejaVuSans-5b" d="M 550 4863 
L 1875 4863 
L 1875 4416 
L 1125 4416 
L 1125 -397 
L 1875 -397 
L 1875 -844 
L 550 -844 
L 550 4863 
z
" transform="scale(0.015625)"/>
       <path id="DejaVuSans-4d" d="M 628 4666 
L 1569 4666 
L 2759 1491 
L 3956 4666 
L 4897 4666 
L 4897 0 
L 4281 0 
L 4281 4097 
L 3078 897 
L 2444 897 
L 1241 4097 
L 1241 0 
L 628 0 
L 628 4666 
z
" transform="scale(0.015625)"/>
       <path id="DejaVuSans-5d" d="M 1947 4863 
L 1947 -844 
L 622 -844 
L 622 -397 
L 1369 -397 
L 1369 4416 
L 622 4416 
L 622 4863 
L 1947 4863 
z
" transform="scale(0.015625)"/>
      </defs>
      <use xlink:href="#DejaVuSans-74"/>
      <use xlink:href="#DejaVuSans-20" transform="translate(39.208984 0)"/>
      <use xlink:href="#DejaVuSans-5b" transform="translate(70.996094 0)"/>
      <use xlink:href="#DejaVuSans-4d" transform="translate(110.009766 0)"/>
      <use xlink:href="#DejaVuSans-5d" transform="translate(196.289062 0)"/>
     </g>
    </g>
   </g>
   <g id="matplotlib.axis_2">
    <g id="ytick_1">
     <g id="line2d_9">
      <defs>
       <path id="m18c23be0e4" d="M 0 0 
L -3.5 0 
" style="stroke: #000000; stroke-width: 0.8"/>
      </defs>
      <g>
       <use xlink:href="#m18c23be0e4" x="50.14375" y="291.74228" style="stroke: #000000; stroke-width: 0.8"/>
      </g>
     </g>
     <g id="text_10">
      <!-- 0.00 -->
      <g transform="translate(20.878125 295.541499) scale(0.1 -0.1)">
       <defs>
        <path id="DejaVuSans-2e" d="M 684 794 
L 1344 794 
L 1344 0 
L 684 0 
L 684 794 
z
" transform="scale(0.015625)"/>
       </defs>
       <use xlink:href="#DejaVuSans-30"/>
       <use xlink:href="#DejaVuSans-2e" transform="translate(63.623047 0)"/>
       <use xlink:href="#DejaVuSans-30" transform="translate(95.410156 0)"/>
       <use xlink:href="#DejaVuSans-30" transform="translate(159.033203 0)"/>
      </g>
     </g>
    </g>
    <g id="ytick_2">
     <g id="line2d_10">
      <g>
       <use xlink:href="#m18c23be0e4" x="50.14375" y="233.429886" style="stroke: #000000; stroke-width: 0.8"/>
      </g>
     </g>
     <g id="text_11">
      <!-- 0.02 -->
      <g transform="translate(20.878125 237.229104) scale(0.1 -0.1)">
       <use xlink:href="#DejaVuSans-30"/>
       <use xlink:href="#DejaVuSans-2e" transform="translate(63.623047 0)"/>
       <use xlink:href="#DejaVuSans-30" transform="translate(95.410156 0)"/>
       <use xlink:href="#DejaVuSans-32" transform="translate(159.033203 0)"/>
      </g>
     </g>
    </g>
    <g id="ytick_3">
     <g id="line2d_11">
      <g>
       <use xlink:href="#m18c23be0e4" x="50.14375" y="175.117491" style="stroke: #000000; stroke-width: 0.8"/>
      </g>
     </g>
     <g id="text_12">
      <!-- 0.04 -->
      <g transform="translate(20.878125 178.91671) scale(0.1 -0.1)">
       <use xlink:href="#DejaVuSans-30"/>
       <use xlink:href="#DejaVuSans-2e" transform="translate(63.623047 0)"/>
       <use xlink:href="#DejaVuSans-30" transform="translate(95.410156 0)"/>
       <use xlink:href="#DejaVuSans-34" transform="translate(159.033203 0)"/>
      </g>
     </g>
    </g>
    <g id="ytick_4">
     <g id="line2d_12">
      <g>
       <use xlink:href="#m18c23be0e4" x="50.14375" y="116.805096" style="stroke: #000000; stroke-width: 0.8"/>
      </g>
     </g>
     <g id="text_13">
      <!-- 0.06 -->
      <g transform="translate(20.878125 120.604315) scale(0.1 -0.1)">
       <use xlink:href="#DejaVuSans-30"/>
       <use xlink:href="#DejaVuSans-2e" transform="translate(63.623047 0)"/>
       <use xlink:href="#DejaVuSans-30" transform="translate(95.410156 0)"/>
       <use xlink:href="#DejaVuSans-36" transform="translate(159.033203 0)"/>
      </g>
     </g>
    </g>
    <g id="ytick_5">
     <g id="line2d_13">
      <g>
       <use xlink:href="#m18c23be0e4" x="50.14375" y="58.492701" style="stroke: #000000; stroke-width: 0.8"/>
      </g>
     </g>
     <g id="text_14">
      <!-- 0.08 -->
      <g transform="translate(20.878125 62.29192) scale(0.1 -0.1)">
       <use xlink:href="#DejaVuSans-30"/>
       <use xlink:href="#DejaVuSans-2e" transform="translate(63.623047 0)"/>
       <use xlink:href="#DejaVuSans-30" transform="translate(95.410156 0)"/>
       <use xlink:href="#DejaVuSans-38" transform="translate(159.033203 0)"/>
      </g>
     </g>
    </g>
    <g id="text_15">
     <!-- Mf -->
     <g transform="translate(14.798437 166.992344) rotate(-90) scale(0.1 -0.1)">
      <defs>
       <path id="DejaVuSans-66" d="M 2375 4863 
L 2375 4384 
L 1825 4384 
Q 1516 4384 1395 4259 
Q 1275 4134 1275 3809 
L 1275 3500 
L 2222 3500 
L 2222 3053 
L 1275 3053 
L 1275 0 
L 697 0 
L 697 3053 
L 147 3053 
L 147 3500 
L 697 3500 
L 697 3744 
Q 697 4328 969 4595 
Q 1241 4863 1831 4863 
L 2375 4863 
z
" transform="scale(0.015625)"/>
      </defs>
      <use xlink:href="#DejaVuSans-4d"/>
      <use xlink:href="#DejaVuSans-66" transform="translate(86.279297 0)"/>
     </g>
    </g>
   </g>
   <g id="line2d_14">
    <path d="M 80.580114 286.070521 
L 81.100584 285.905854 
L 81.918466 285.453402 
L 82.885054 284.646024 
L 84.446465 282.994082 
L 85.85917 281.223911 
L 87.12317 279.231737 
L 88.535875 277.046189 
L 89.205051 276.392226 
L 89.725522 276.166243 
L 90.171639 276.190803 
L 90.692109 276.468527 
L 91.286933 277.071036 
L 92.179168 278.357628 
L 94.484108 281.848279 
L 95.896813 283.481944 
L 97.08646 284.563454 
L 98.053047 285.167124 
L 99.019635 285.514064 
L 102.142457 286.418272 
L 103.406457 286.746492 
L 104.596104 286.809823 
L 107.124102 286.883366 
L 108.685514 286.886351 
L 112.105747 286.694814 
L 113.221041 286.585413 
L 114.261982 286.247201 
L 116.566922 285.400485 
L 118.351392 284.907002 
L 119.243627 284.358479 
L 120.284567 283.41922 
L 121.845979 281.6776 
L 123.109978 279.974027 
L 126.084094 275.627178 
L 126.604565 275.371627 
L 127.050682 275.374005 
L 127.4968 275.579778 
L 128.091623 276.136139 
L 128.909505 277.281399 
L 131.809269 281.674253 
L 133.147621 283.165923 
L 134.262915 284.097985 
L 135.229502 284.621411 
L 136.493502 285.020669 
L 138.352325 285.644562 
L 139.839383 286.098695 
L 141.029029 286.214503 
L 146.308086 286.242359 
L 148.092556 286.19172 
L 149.430908 286.083964 
L 150.471849 285.763726 
L 152.999848 284.86937 
L 154.3382 284.441717 
L 155.230435 283.898956 
L 156.271376 282.963287 
L 157.758434 281.279903 
L 159.022434 279.547203 
L 161.922197 275.296816 
L 162.442667 275.033232 
L 162.888785 275.031276 
L 163.334902 275.235937 
L 163.929726 275.795884 
L 164.747608 276.95315 
L 167.647371 281.415797 
L 168.911371 282.84769 
L 169.952311 283.733986 
L 170.918899 284.284235 
L 172.331604 284.787485 
L 176.04925 285.904245 
L 179.841248 286.132745 
L 181.551365 286.015115 
L 185.417716 285.578611 
L 189.804538 283.856221 
L 190.696773 283.15081 
L 191.88642 281.896431 
L 193.299125 280.090735 
L 194.563124 278.111812 
L 196.198888 275.55125 
L 196.868065 274.928171 
L 197.388535 274.744519 
L 197.834652 274.816931 
L 198.355123 275.159117 
L 198.949946 275.836937 
L 199.916534 277.342153 
L 201.998415 280.648875 
L 203.262415 282.216081 
L 204.377708 283.274363 
L 205.418649 283.948674 
L 206.757002 284.506759 
L 210.02853 285.615462 
L 211.589941 285.759281 
L 215.084528 285.866839 
L 219.24829 285.402784 
L 220.884054 284.747315 
L 223.858171 283.425518 
L 224.824759 282.58144 
L 226.088758 281.138068 
L 227.427111 279.281963 
L 229.137227 276.441154 
L 230.103815 275.080443 
L 230.698639 274.590177 
L 231.144756 274.457912 
L 231.590873 274.541519 
L 232.111344 274.899425 
L 232.78052 275.699762 
L 233.821461 277.379038 
L 235.680284 280.356281 
L 236.944283 281.948409 
L 238.059577 283.00826 
L 239.100517 283.686555 
L 240.661928 284.378846 
L 243.041222 285.247844 
L 244.379574 285.448248 
L 247.799808 285.639176 
L 251.294395 285.350044 
L 252.409688 285.069348 
L 254.342864 284.269092 
L 256.350392 283.336847 
L 257.31698 282.571068 
L 258.432274 281.361634 
L 259.770626 279.568032 
L 261.183332 277.271295 
L 262.596037 275.030269 
L 263.265213 274.373411 
L 263.785683 274.168657 
L 264.231801 274.229771 
L 264.752271 274.567912 
L 265.347095 275.251842 
L 266.313682 276.782508 
L 268.469917 280.275803 
L 269.659563 281.762214 
L 270.700504 282.742883 
L 271.741445 283.429987 
L 273.451562 284.236595 
L 275.236032 284.90565 
L 276.574384 285.148264 
L 279.474147 285.371413 
L 281.258617 285.25441 
L 283.935322 284.906162 
L 285.199321 284.43659 
L 288.024732 283.081946 
L 288.99132 282.326052 
L 290.032261 281.206456 
L 291.29626 279.510602 
L 292.634612 277.346086 
L 294.270376 274.701998 
L 294.939553 274.048937 
L 295.460023 273.853413 
L 295.90614 273.926415 
L 296.426611 274.281457 
L 297.021434 274.985567 
L 297.988022 276.543267 
L 300.069903 279.963847 
L 301.25955 281.471562 
L 302.300491 282.458591 
L 303.415784 283.203132 
L 305.274607 284.112856 
L 306.761665 284.636137 
L 308.248724 284.88722 
L 310.70237 285.067345 
L 312.561192 284.933058 
L 314.79178 284.605446 
L 315.981426 284.172722 
L 318.360719 283.002881 
L 319.40166 282.269251 
L 320.368248 281.306197 
L 321.557894 279.777719 
L 322.896247 277.680064 
L 325.052481 274.184046 
L 325.647304 273.662455 
L 326.093422 273.515852 
L 326.539539 273.595611 
L 327.06001 273.962328 
L 327.654833 274.682316 
L 328.621421 276.264706 
L 330.703302 279.721848 
L 331.892949 281.229977 
L 332.93389 282.207713 
L 334.123536 283.002974 
L 335.908006 283.893588 
L 337.246358 284.338358 
L 338.807769 284.597765 
L 340.889651 284.736741 
L 342.748474 284.5894 
L 344.681649 284.265011 
L 345.871296 283.822973 
L 347.878824 282.786548 
L 348.994118 282.007022 
L 349.960706 281.053937 
L 351.076 279.621626 
L 352.414352 277.513217 
L 354.719292 273.753558 
L 355.314115 273.264137 
L 355.760233 273.150034 
L 356.20635 273.266377 
L 356.726821 273.676143 
L 357.395997 274.551491 
L 358.585643 276.601205 
L 360.221407 279.324985 
L 361.411054 280.865528 
L 362.451995 281.864981 
L 363.641641 282.693004 
L 365.277405 283.542551 
L 366.615758 283.991927 
L 368.251522 284.271388 
L 370.035992 284.376084 
L 371.820461 284.22228 
L 373.604931 283.881561 
L 374.794578 283.416275 
L 376.504695 282.480999 
L 377.694341 281.613879 
L 378.660929 280.629432 
L 379.776223 279.150109 
L 381.114575 276.97095 
L 383.196457 273.488721 
L 383.79128 272.930474 
L 384.237397 272.761958 
L 384.683515 272.827723 
L 385.129632 273.120558 
L 385.724456 273.812292 
L 386.61669 275.269124 
L 388.921631 279.197584 
L 390.036924 280.617508 
L 391.077865 281.60469 
L 392.341865 282.484324 
L 393.75457 283.213661 
L 395.018569 283.628736 
L 396.654333 283.909183 
L 398.215744 283.979466 
L 399.925861 283.809952 
L 401.487272 283.470674 
L 402.676919 282.98096 
L 404.23833 282.070506 
L 405.427977 281.144207 
L 406.394564 280.109541 
L 407.509858 278.563403 
L 408.848211 276.297389 
L 410.707033 273.13553 
L 411.301857 272.5381 
L 411.747974 272.34059 
L 412.194091 272.38125 
L 412.640209 272.655349 
L 413.235032 273.334075 
L 414.052914 274.661831 
L 416.655266 279.111799 
L 417.77056 280.475552 
L 418.885853 281.479406 
L 420.224206 282.365259 
L 421.488205 282.955779 
L 422.826558 283.325064 
L 424.462322 283.536132 
L 425.875027 283.502859 
L 427.585144 283.232348 
L 428.849143 282.830293 
L 430.113143 282.175808 
L 431.525848 281.189015 
L 432.566789 280.197127 
L 433.607729 278.871904 
L 434.797376 276.969179 
L 437.548434 272.33194 
L 438.068904 271.942246 
L 438.515022 271.862471 
L 438.961139 272.026527 
L 439.481609 272.501964 
L 440.150786 273.462893 
L 441.489138 275.907893 
L 442.901843 278.316193 
L 444.017137 279.79195 
L 445.132431 280.888557 
L 446.39643 281.799827 
L 447.660429 282.43806 
L 448.924429 282.822933 
L 450.411487 283.041999 
L 451.749839 283.027899 
L 453.311251 282.779301 
L 454.57525 282.373123 
L 455.764897 281.746728 
L 457.103249 280.775442 
L 458.14419 279.758578 
L 459.18513 278.406507 
L 460.374777 276.455831 
L 463.051482 271.846603 
L 463.571952 271.436691 
L 464.01807 271.343955 
L 464.464187 271.500673 
L 464.984657 271.975276 
L 465.653834 272.945671 
L 466.992186 275.427975 
L 468.404891 277.872045 
L 469.520185 279.36391 
L 470.635479 280.475239 
L 471.825125 281.346503 
L 473.014772 281.948379 
L 474.278771 282.32972 
L 475.617124 282.511304 
L 476.955476 282.464067 
L 478.368181 282.187471 
L 479.557828 281.739533 
L 480.747474 281.032726 
L 481.937121 280.066654 
L 482.978062 278.936731 
L 484.019002 277.454471 
L 485.283002 275.218647 
L 487.29053 271.594301 
L 487.885354 270.970956 
L 488.331471 270.772072 
L 488.777589 270.828209 
L 489.223706 271.132858 
L 489.818529 271.868423 
L 490.710764 273.425702 
L 492.941352 277.47194 
L 494.056645 278.961471 
L 495.171939 280.068628 
L 496.287232 280.875692 
L 497.402526 281.423101 
L 498.592173 281.767173 
L 499.856172 281.90802 
L 501.120172 281.817149 
L 502.384171 281.509738 
L 503.499465 281.020475 
L 504.614758 280.280694 
L 505.730052 279.277027 
L 506.770993 278.029073 
L 507.811933 276.413163 
L 509.150286 273.88589 
L 510.637344 271.13899 
L 511.30652 270.363119 
L 511.752638 270.133263 
L 512.198755 270.164418 
L 512.644873 270.452541 
L 513.165343 271.071556 
L 513.983225 272.467422 
L 516.585577 277.216811 
L 517.626518 278.566388 
L 518.741811 279.643478 
L 519.857105 280.40534 
L 520.972399 280.894121 
L 522.162045 281.166958 
L 523.277339 281.20661 
L 524.466985 281.023645 
L 525.582279 280.641541 
L 526.62322 280.057636 
L 527.66416 279.225778 
L 528.705101 278.116538 
L 529.746042 276.654595 
L 530.861336 274.673621 
L 533.389334 269.978035 
L 533.909805 269.506518 
L 534.355922 269.37874 
L 534.727687 269.478986 
L 535.173804 269.835361 
L 535.768628 270.644985 
L 536.735215 272.448962 
L 538.594038 275.973934 
L 539.709332 277.576828 
L 540.750273 278.692931 
L 541.791213 279.49581 
L 542.832154 280.026241 
L 543.947448 280.337936 
L 545.062741 280.40729 
L 546.178035 280.23849 
L 547.218976 279.864464 
L 548.259916 279.246381 
L 549.300857 278.350341 
L 550.341798 277.140354 
L 551.382739 275.550085 
L 552.572385 273.275819 
L 554.505561 269.486538 
L 555.100384 268.784602 
L 555.546502 268.546738 
L 555.918266 268.560319 
L 556.364384 268.82827 
L 556.884854 269.447232 
L 557.628383 270.73825 
L 560.453794 276.049086 
L 561.494734 277.379397 
L 562.535675 278.345393 
L 563.502263 278.953216 
L 564.468851 279.313643 
L 565.509792 279.458175 
L 566.550732 279.36411 
L 567.591673 279.032429 
L 568.558261 278.489535 
L 569.524849 277.68963 
L 570.491436 276.599591 
L 571.458024 275.160664 
L 572.498965 273.199199 
L 575.026964 268.173874 
L 575.547434 267.672572 
L 575.993552 267.536947 
L 576.365316 267.644287 
L 576.811434 268.023627 
L 577.406257 268.879929 
L 578.372845 270.768061 
L 580.157315 274.275657 
L 581.272608 275.948302 
L 582.239196 277.014019 
L 583.205784 277.742626 
L 584.172372 278.181445 
L 585.064607 278.351262 
L 585.956842 278.300851 
L 586.92343 278.013228 
L 587.815664 277.523717 
L 588.707899 276.791145 
L 589.600134 275.782085 
L 590.566722 274.338913 
L 591.607663 272.358011 
L 594.358721 266.810618 
L 594.879191 266.390858 
L 595.250955 266.336258 
L 595.62272 266.491563 
L 596.068837 266.9353 
L 596.663661 267.877981 
L 597.778954 270.198741 
L 599.266013 273.177785 
L 600.306953 274.761544 
L 601.273541 275.822771 
L 602.165776 276.480012 
L 603.058011 276.857247 
L 603.875893 276.97587 
L 604.693775 276.883469 
L 605.511657 276.57867 
L 606.329539 276.046771 
L 607.221774 275.181639 
L 608.114009 273.992058 
L 609.080597 272.307896 
L 610.270243 269.715742 
L 611.98036 265.957509 
L 612.575183 265.158222 
L 613.021301 264.887002 
L 613.393065 264.901291 
L 613.76483 265.131737 
L 614.2853 265.776327 
L 615.028829 267.163508 
L 617.631181 272.453627 
L 618.597769 273.764297 
L 619.490004 274.592182 
L 620.307886 275.052967 
L 621.051415 275.239537 
L 621.794944 275.209478 
L 622.538473 274.963825 
L 623.282002 274.495584 
L 624.099884 273.705121 
L 624.917766 272.603931 
L 625.810001 271.028141 
L 626.850942 268.720403 
L 628.932824 263.932031 
L 629.453294 263.252314 
L 629.899411 263.001327 
L 630.271176 263.047238 
L 630.642941 263.318667 
L 631.163411 264.027019 
L 631.90694 265.49597 
L 634.21188 270.333317 
L 635.104115 271.607713 
L 635.921997 272.402213 
L 636.665526 272.825918 
L 637.334702 272.973023 
L 638.003879 272.901907 
L 638.673055 272.611568 
L 639.416584 272.024375 
L 640.160113 271.139988 
L 640.977995 269.807864 
L 641.944583 267.752481 
L 643.357288 264.093676 
L 644.398229 261.64854 
L 644.993052 260.772415 
L 645.43917 260.490919 
L 645.810934 260.521631 
L 646.182699 260.790814 
L 646.703169 261.513432 
L 647.446698 263.017545 
L 649.52858 267.453345 
L 650.346462 268.637977 
L 651.089991 269.349463 
L 651.759167 269.689258 
L 652.35399 269.754803 
L 652.948813 269.598015 
L 653.543637 269.21618 
L 654.212813 268.510587 
L 654.881989 267.484272 
L 655.699871 265.806404 
L 656.740812 263.085335 
L 658.673988 257.850608 
L 659.194458 257.030756 
L 659.640575 256.715514 
L 660.01234 256.745931 
L 660.384104 257.029659 
L 660.904575 257.78287 
L 661.722457 259.478387 
L 663.283868 262.76099 
L 664.027397 263.843634 
L 664.62222 264.38659 
L 665.217044 264.633986 
L 665.737514 264.605341 
L 666.257984 264.344619 
L 666.778455 263.845782 
L 667.373278 262.967095 
L 668.116807 261.422135 
L 668.934689 259.179187 
L 670.198689 254.929472 
L 671.239629 251.695454 
L 671.834453 250.473397 
L 672.28057 250.007066 
L 672.652335 249.930273 
L 673.024099 250.11471 
L 673.544569 250.695836 
L 674.436804 252.146426 
L 675.329039 253.520012 
L 675.923863 254.049687 
L 676.36998 254.201034 
L 676.741745 254.120143 
L 677.187862 253.760473 
L 677.708332 252.976928 
L 678.303156 251.667178 
L 678.67492 250.463887 
L 679.641508 246.383991 
L 680.608096 241.022755 
L 684.177036 219.206022 
L 684.697506 213.493403 
L 685.143623 205.73233 
L 685.515388 193.606282 
L 685.961505 167.994922 
L 686.407623 126.505127 
L 687.151152 51.759722 
L 687.448564 41.268104 
L 687.745975 37.184492 
L 688.043387 35.706735 
L 688.340799 35.186256 
L 688.712563 34.982231 
L 689.307386 34.918125 
L 689.307386 34.918125 
" clip-path="url(#pa578f66b7c)" style="fill: none; stroke: #1f77b4; stroke-width: 0.6; stroke-linecap: square"/>
   </g>
   <g id="line2d_15">
    <path d="M 50.14375 228.595075 
L 719.74375 228.595075 
" clip-path="url(#pa578f66b7c)" style="fill: none; stroke-dasharray: 2.22,0.96; stroke-dashoffset: 0; stroke: #ff0000; stroke-width: 0.6"/>
   </g>
   <g id="patch_3">
    <path d="M 50.14375 299.518125 
L 50.14375 22.318125 
" style="fill: none; stroke: #000000; stroke-width: 0.8; stroke-linejoin: miter; stroke-linecap: square"/>
   </g>
   <g id="patch_4">
    <path d="M 719.74375 299.518125 
L 719.74375 22.318125 
" style="fill: none; stroke: #000000; stroke-width: 0.8; stroke-linejoin: miter; stroke-linecap: square"/>
   </g>
   <g id="patch_5">
    <path d="M 50.14375 299.518125 
L 719.74375 299.518125 
" style="fill: none; stroke: #000000; stroke-width: 0.8; stroke-linejoin: miter; stroke-linecap: square"/>
   </g>
   <g id="patch_6">
    <path d="M 50.14375 22.318125 
L 719.74375 22.318125 
" style="fill: none; stroke: #000000; stroke-width: 0.8; stroke-linejoin: miter; stroke-linecap: square"/>
   </g>
   <g id="text_16">
    <!-- Mf vs Time for M=60, e=0.21, f_lower=10 Hz -->
    <g transform="translate(249.127188 16.318125) scale(0.12 -0.12)">
     <defs>
      <path id="DejaVuSans-76" d="M 191 3500 
L 800 3500 
L 1894 563 
L 2988 3500 
L 3597 3500 
L 2284 0 
L 1503 0 
L 191 3500 
z
" transform="scale(0.015625)"/>
      <path id="DejaVuSans-73" d="M 2834 3397 
L 2834 2853 
Q 2591 2978 2328 3040 
Q 2066 3103 1784 3103 
Q 1356 3103 1142 2972 
Q 928 2841 928 2578 
Q 928 2378 1081 2264 
Q 1234 2150 1697 2047 
L 1894 2003 
Q 2506 1872 2764 1633 
Q 3022 1394 3022 966 
Q 3022 478 2636 193 
Q 2250 -91 1575 -91 
Q 1294 -91 989 -36 
Q 684 19 347 128 
L 347 722 
Q 666 556 975 473 
Q 1284 391 1588 391 
Q 1994 391 2212 530 
Q 2431 669 2431 922 
Q 2431 1156 2273 1281 
Q 2116 1406 1581 1522 
L 1381 1569 
Q 847 1681 609 1914 
Q 372 2147 372 2553 
Q 372 3047 722 3315 
Q 1072 3584 1716 3584 
Q 2034 3584 2315 3537 
Q 2597 3491 2834 3397 
z
" transform="scale(0.015625)"/>
      <path id="DejaVuSans-54" d="M -19 4666 
L 3928 4666 
L 3928 4134 
L 2272 4134 
L 2272 0 
L 1638 0 
L 1638 4134 
L -19 4134 
L -19 4666 
z
" transform="scale(0.015625)"/>
      <path id="DejaVuSans-69" d="M 603 3500 
L 1178 3500 
L 1178 0 
L 603 0 
L 603 3500 
z
M 603 4863 
L 1178 4863 
L 1178 4134 
L 603 4134 
L 603 4863 
z
" transform="scale(0.015625)"/>
      <path id="DejaVuSans-6d" d="M 3328 2828 
Q 3544 3216 3844 3400 
Q 4144 3584 4550 3584 
Q 5097 3584 5394 3201 
Q 5691 2819 5691 2113 
L 5691 0 
L 5113 0 
L 5113 2094 
Q 5113 2597 4934 2840 
Q 4756 3084 4391 3084 
Q 3944 3084 3684 2787 
Q 3425 2491 3425 1978 
L 3425 0 
L 2847 0 
L 2847 2094 
Q 2847 2600 2669 2842 
Q 2491 3084 2119 3084 
Q 1678 3084 1418 2786 
Q 1159 2488 1159 1978 
L 1159 0 
L 581 0 
L 581 3500 
L 1159 3500 
L 1159 2956 
Q 1356 3278 1631 3431 
Q 1906 3584 2284 3584 
Q 2666 3584 2933 3390 
Q 3200 3197 3328 2828 
z
" transform="scale(0.015625)"/>
      <path id="DejaVuSans-65" d="M 3597 1894 
L 3597 1613 
L 953 1613 
Q 991 1019 1311 708 
Q 1631 397 2203 397 
Q 2534 397 2845 478 
Q 3156 559 3463 722 
L 3463 178 
Q 3153 47 2828 -22 
Q 2503 -91 2169 -91 
Q 1331 -91 842 396 
Q 353 884 353 1716 
Q 353 2575 817 3079 
Q 1281 3584 2069 3584 
Q 2775 3584 3186 3129 
Q 3597 2675 3597 1894 
z
M 3022 2063 
Q 3016 2534 2758 2815 
Q 2500 3097 2075 3097 
Q 1594 3097 1305 2825 
Q 1016 2553 972 2059 
L 3022 2063 
z
" transform="scale(0.015625)"/>
      <path id="DejaVuSans-6f" d="M 1959 3097 
Q 1497 3097 1228 2736 
Q 959 2375 959 1747 
Q 959 1119 1226 758 
Q 1494 397 1959 397 
Q 2419 397 2687 759 
Q 2956 1122 2956 1747 
Q 2956 2369 2687 2733 
Q 2419 3097 1959 3097 
z
M 1959 3584 
Q 2709 3584 3137 3096 
Q 3566 2609 3566 1747 
Q 3566 888 3137 398 
Q 2709 -91 1959 -91 
Q 1206 -91 779 398 
Q 353 888 353 1747 
Q 353 2609 779 3096 
Q 1206 3584 1959 3584 
z
" transform="scale(0.015625)"/>
      <path id="DejaVuSans-72" d="M 2631 2963 
Q 2534 3019 2420 3045 
Q 2306 3072 2169 3072 
Q 1681 3072 1420 2755 
Q 1159 2438 1159 1844 
L 1159 0 
L 581 0 
L 581 3500 
L 1159 3500 
L 1159 2956 
Q 1341 3275 1631 3429 
Q 1922 3584 2338 3584 
Q 2397 3584 2469 3576 
Q 2541 3569 2628 3553 
L 2631 2963 
z
" transform="scale(0.015625)"/>
      <path id="DejaVuSans-3d" d="M 678 2906 
L 4684 2906 
L 4684 2381 
L 678 2381 
L 678 2906 
z
M 678 1631 
L 4684 1631 
L 4684 1100 
L 678 1100 
L 678 1631 
z
" transform="scale(0.015625)"/>
      <path id="DejaVuSans-2c" d="M 750 794 
L 1409 794 
L 1409 256 
L 897 -744 
L 494 -744 
L 750 256 
L 750 794 
z
" transform="scale(0.015625)"/>
      <path id="DejaVuSans-5f" d="M 3263 -1063 
L 3263 -1509 
L -63 -1509 
L -63 -1063 
L 3263 -1063 
z
" transform="scale(0.015625)"/>
      <path id="DejaVuSans-6c" d="M 603 4863 
L 1178 4863 
L 1178 0 
L 603 0 
L 603 4863 
z
" transform="scale(0.015625)"/>
      <path id="DejaVuSans-77" d="M 269 3500 
L 844 3500 
L 1563 769 
L 2278 3500 
L 2956 3500 
L 3675 769 
L 4391 3500 
L 4966 3500 
L 4050 0 
L 3372 0 
L 2619 2869 
L 1863 0 
L 1184 0 
L 269 3500 
z
" transform="scale(0.015625)"/>
      <path id="DejaVuSans-48" d="M 628 4666 
L 1259 4666 
L 1259 2753 
L 3553 2753 
L 3553 4666 
L 4184 4666 
L 4184 0 
L 3553 0 
L 3553 2222 
L 1259 2222 
L 1259 0 
L 628 0 
L 628 4666 
z
" transform="scale(0.015625)"/>
      <path id="DejaVuSans-7a" d="M 353 3500 
L 3084 3500 
L 3084 2975 
L 922 459 
L 3084 459 
L 3084 0 
L 275 0 
L 275 525 
L 2438 3041 
L 353 3041 
L 353 3500 
z
" transform="scale(0.015625)"/>
     </defs>
     <use xlink:href="#DejaVuSans-4d"/>
     <use xlink:href="#DejaVuSans-66" transform="translate(86.279297 0)"/>
     <use xlink:href="#DejaVuSans-20" transform="translate(121.484375 0)"/>
     <use xlink:href="#DejaVuSans-76" transform="translate(153.271484 0)"/>
     <use xlink:href="#DejaVuSans-73" transform="translate(212.451172 0)"/>
     <use xlink:href="#DejaVuSans-20" transform="translate(264.550781 0)"/>
     <use xlink:href="#DejaVuSans-54" transform="translate(296.337891 0)"/>
     <use xlink:href="#DejaVuSans-69" transform="translate(354.296875 0)"/>
     <use xlink:href="#DejaVuSans-6d" transform="translate(382.080078 0)"/>
     <use xlink:href="#DejaVuSans-65" transform="translate(479.492188 0)"/>
     <use xlink:href="#DejaVuSans-20" transform="translate(541.015625 0)"/>
     <use xlink:href="#DejaVuSans-66" transform="translate(572.802734 0)"/>
     <use xlink:href="#DejaVuSans-6f" transform="translate(608.007812 0)"/>
     <use xlink:href="#DejaVuSans-72" transform="translate(669.189453 0)"/>
     <use xlink:href="#DejaVuSans-20" transform="translate(710.302734 0)"/>
     <use xlink:href="#DejaVuSans-4d" transform="translate(742.089844 0)"/>
     <use xlink:href="#DejaVuSans-3d" transform="translate(828.369141 0)"/>
     <use xlink:href="#DejaVuSans-36" transform="translate(912.158203 0)"/>
     <use xlink:href="#DejaVuSans-30" transform="translate(975.78125 0)"/>
     <use xlink:href="#DejaVuSans-2c" transform="translate(1039.404297 0)"/>
     <use xlink:href="#DejaVuSans-20" transform="translate(1071.191406 0)"/>
     <use xlink:href="#DejaVuSans-65" transform="translate(1102.978516 0)"/>
     <use xlink:href="#DejaVuSans-3d" transform="translate(1164.501953 0)"/>
     <use xlink:href="#DejaVuSans-30" transform="translate(1248.291016 0)"/>
     <use xlink:href="#DejaVuSans-2e" transform="translate(1311.914062 0)"/>
     <use xlink:href="#DejaVuSans-32" transform="translate(1343.701172 0)"/>
     <use xlink:href="#DejaVuSans-31" transform="translate(1407.324219 0)"/>
     <use xlink:href="#DejaVuSans-2c" transform="translate(1470.947266 0)"/>
     <use xlink:href="#DejaVuSans-20" transform="translate(1502.734375 0)"/>
     <use xlink:href="#DejaVuSans-66" transform="translate(1534.521484 0)"/>
     <use xlink:href="#DejaVuSans-5f" transform="translate(1569.726562 0)"/>
     <use xlink:href="#DejaVuSans-6c" transform="translate(1619.726562 0)"/>
     <use xlink:href="#DejaVuSans-6f" transform="translate(1647.509766 0)"/>
     <use xlink:href="#DejaVuSans-77" transform="translate(1708.691406 0)"/>
     <use xlink:href="#DejaVuSans-65" transform="translate(1790.478516 0)"/>
     <use xlink:href="#DejaVuSans-72" transform="translate(1852.001953 0)"/>
     <use xlink:href="#DejaVuSans-3d" transform="translate(1893.115234 0)"/>
     <use xlink:href="#DejaVuSans-31" transform="translate(1976.904297 0)"/>
     <use xlink:href="#DejaVuSans-30" transform="translate(2040.527344 0)"/>
     <use xlink:href="#DejaVuSans-20" transform="translate(2104.150391 0)"/>
     <use xlink:href="#DejaVuSans-48" transform="translate(2135.9375 0)"/>
     <use xlink:href="#DejaVuSans-7a" transform="translate(2211.132812 0)"/>
    </g>
   </g>
   <g id="legend_1">
    <g id="patch_7">
     <path d="M 57.14375 59.9525 
L 153.10625 59.9525 
Q 155.10625 59.9525 155.10625 57.9525 
L 155.10625 29.318125 
Q 155.10625 27.318125 153.10625 27.318125 
L 57.14375 27.318125 
Q 55.14375 27.318125 55.14375 29.318125 
L 55.14375 57.9525 
Q 55.14375 59.9525 57.14375 59.9525 
z
" style="fill: #ffffff; opacity: 0.8; stroke: #cccccc; stroke-linejoin: miter"/>
    </g>
    <g id="line2d_16">
     <path d="M 59.14375 35.416563 
L 69.14375 35.416563 
L 79.14375 35.416563 
" style="fill: none; stroke: #1f77b4; stroke-width: 0.6; stroke-linecap: square"/>
    </g>
    <g id="text_17">
     <!-- Mf -->
     <g transform="translate(87.14375 38.916563) scale(0.1 -0.1)">
      <use xlink:href="#DejaVuSans-4d"/>
      <use xlink:href="#DejaVuSans-66" transform="translate(86.279297 0)"/>
     </g>
    </g>
    <g id="line2d_17">
     <path d="M 59.14375 50.094688 
L 69.14375 50.094688 
L 79.14375 50.094688 
" style="fill: none; stroke-dasharray: 2.22,0.96; stroke-dashoffset: 0; stroke: #ff0000; stroke-width: 0.6"/>
    </g>
    <g id="text_18">
     <!-- Mf_ISCO_circ -->
     <g transform="translate(87.14375 53.594688) scale(0.1 -0.1)">
      <defs>
       <path id="DejaVuSans-49" d="M 628 4666 
L 1259 4666 
L 1259 0 
L 628 0 
L 628 4666 
z
" transform="scale(0.015625)"/>
       <path id="DejaVuSans-53" d="M 3425 4513 
L 3425 3897 
Q 3066 4069 2747 4153 
Q 2428 4238 2131 4238 
Q 1616 4238 1336 4038 
Q 1056 3838 1056 3469 
Q 1056 3159 1242 3001 
Q 1428 2844 1947 2747 
L 2328 2669 
Q 3034 2534 3370 2195 
Q 3706 1856 3706 1288 
Q 3706 609 3251 259 
Q 2797 -91 1919 -91 
Q 1588 -91 1214 -16 
Q 841 59 441 206 
L 441 856 
Q 825 641 1194 531 
Q 1563 422 1919 422 
Q 2459 422 2753 634 
Q 3047 847 3047 1241 
Q 3047 1584 2836 1778 
Q 2625 1972 2144 2069 
L 1759 2144 
Q 1053 2284 737 2584 
Q 422 2884 422 3419 
Q 422 4038 858 4394 
Q 1294 4750 2059 4750 
Q 2388 4750 2728 4690 
Q 3069 4631 3425 4513 
z
" transform="scale(0.015625)"/>
       <path id="DejaVuSans-43" d="M 4122 4306 
L 4122 3641 
Q 3803 3938 3442 4084 
Q 3081 4231 2675 4231 
Q 1875 4231 1450 3742 
Q 1025 3253 1025 2328 
Q 1025 1406 1450 917 
Q 1875 428 2675 428 
Q 3081 428 3442 575 
Q 3803 722 4122 1019 
L 4122 359 
Q 3791 134 3420 21 
Q 3050 -91 2638 -91 
Q 1578 -91 968 557 
Q 359 1206 359 2328 
Q 359 3453 968 4101 
Q 1578 4750 2638 4750 
Q 3056 4750 3426 4639 
Q 3797 4528 4122 4306 
z
" transform="scale(0.015625)"/>
       <path id="DejaVuSans-4f" d="M 2522 4238 
Q 1834 4238 1429 3725 
Q 1025 3213 1025 2328 
Q 1025 1447 1429 934 
Q 1834 422 2522 422 
Q 3209 422 3611 934 
Q 4013 1447 4013 2328 
Q 4013 3213 3611 3725 
Q 3209 4238 2522 4238 
z
M 2522 4750 
Q 3503 4750 4090 4092 
Q 4678 3434 4678 2328 
Q 4678 1225 4090 567 
Q 3503 -91 2522 -91 
Q 1538 -91 948 565 
Q 359 1222 359 2328 
Q 359 3434 948 4092 
Q 1538 4750 2522 4750 
z
" transform="scale(0.015625)"/>
       <path id="DejaVuSans-63" d="M 3122 3366 
L 3122 2828 
Q 2878 2963 2633 3030 
Q 2388 3097 2138 3097 
Q 1578 3097 1268 2742 
Q 959 2388 959 1747 
Q 959 1106 1268 751 
Q 1578 397 2138 397 
Q 2388 397 2633 464 
Q 2878 531 3122 666 
L 3122 134 
Q 2881 22 2623 -34 
Q 2366 -91 2075 -91 
Q 1284 -91 818 406 
Q 353 903 353 1747 
Q 353 2603 823 3093 
Q 1294 3584 2113 3584 
Q 2378 3584 2631 3529 
Q 2884 3475 3122 3366 
z
" transform="scale(0.015625)"/>
      </defs>
      <use xlink:href="#DejaVuSans-4d"/>
      <use xlink:href="#DejaVuSans-66" transform="translate(86.279297 0)"/>
      <use xlink:href="#DejaVuSans-5f" transform="translate(121.484375 0)"/>
      <use xlink:href="#DejaVuSans-49" transform="translate(171.484375 0)"/>
      <use xlink:href="#DejaVuSans-53" transform="translate(200.976562 0)"/>
      <use xlink:href="#DejaVuSans-43" transform="translate(264.453125 0)"/>
      <use xlink:href="#DejaVuSans-4f" transform="translate(334.277344 0)"/>
      <use xlink:href="#DejaVuSans-5f" transform="translate(412.988281 0)"/>
      <use xlink:href="#DejaVuSans-63" transform="translate(462.988281 0)"/>
      <use xlink:href="#DejaVuSans-69" transform="translate(517.96875 0)"/>
      <use xlink:href="#DejaVuSans-72" transform="translate(545.751953 0)"/>
      <use xlink:href="#DejaVuSans-63" transform="translate(584.615234 0)"/>
     </g>
    </g>
   </g>
  </g>
 </g>
 <defs>
  <clipPath id="pa578f66b7c">
   <rect x="50.14375" y="22.318125" width="669.6" height="277.2"/>
  </clipPath>
 </defs>
</svg>
