<?xml version="1.0" encoding="utf-8" standalone="no"?>
<!DOCTYPE svg PUBLIC "-//W3C//DTD SVG 1.1//EN"
  "http://www.w3.org/Graphics/SVG/1.1/DTD/svg11.dtd">
<svg xmlns:xlink="http://www.w3.org/1999/xlink" width="726.94375pt" height="337.074375pt" viewBox="0 0 726.94375 337.074375" xmlns="http://www.w3.org/2000/svg" version="1.1">
 <metadata>
  <rdf:RDF xmlns:dc="http://purl.org/dc/elements/1.1/" xmlns:cc="http://creativecommons.org/ns#" xmlns:rdf="http://www.w3.org/1999/02/22-rdf-syntax-ns#">
   <cc:Work>
    <dc:type rdf:resource="http://purl.org/dc/dcmitype/StillImage"/>
    <dc:date>2025-07-24T14:39:29.346150</dc:date>
    <dc:format>image/svg+xml</dc:format>
    <dc:creator>
     <cc:Agent>
      <dc:title>Matplotlib v3.10.3, https://matplotlib.org/</dc:title>
     </cc:Agent>
    </dc:creator>
   </cc:Work>
  </rdf:RDF>
 </metadata>
 <defs>
  <style type="text/css">*{stroke-linejoin: round; stroke-linecap: butt}</style>
 </defs>
 <g id="figure_1">
  <g id="patch_1">
   <path d="M 0 337.074375 
L 726.94375 337.074375 
L 726.94375 0 
L 0 0 
z
" style="fill: #ffffff"/>
  </g>
  <g id="axes_1">
   <g id="patch_2">
    <path d="M 50.14375 299.518125 
L 719.74375 299.518125 
L 719.74375 22.318125 
L 50.14375 22.318125 
z
" style="fill: #ffffff"/>
   </g>
   <g id="matplotlib.axis_1">
    <g id="xtick_1">
     <g id="line2d_1">
      <defs>
       <path id="mce51d3d356" d="M 0 0 
L 0 3.5 
" style="stroke: #000000; stroke-width: 0.8"/>
      </defs>
      <g>
       <use xlink:href="#mce51d3d356" x="59.770036" y="299.518125" style="stroke: #000000; stroke-width: 0.8"/>
      </g>
     </g>
     <g id="text_1">
      <!-- −14000 -->
      <g transform="translate(39.673943 314.116563) scale(0.1 -0.1)">
       <defs>
        <path id="DejaVuSans-2212" d="M 678 2272 
L 4684 2272 
L 4684 1741 
L 678 1741 
L 678 2272 
z
" transform="scale(0.015625)"/>
        <path id="DejaVuSans-31" d="M 794 531 
L 1825 531 
L 1825 4091 
L 703 3866 
L 703 4441 
L 1819 4666 
L 2450 4666 
L 2450 531 
L 3481 531 
L 3481 0 
L 794 0 
L 794 531 
z
" transform="scale(0.015625)"/>
        <path id="DejaVuSans-34" d="M 2419 4116 
L 825 1625 
L 2419 1625 
L 2419 4116 
z
M 2253 4666 
L 3047 4666 
L 3047 1625 
L 3713 1625 
L 3713 1100 
L 3047 1100 
L 3047 0 
L 2419 0 
L 2419 1100 
L 313 1100 
L 313 1709 
L 2253 4666 
z
" transform="scale(0.015625)"/>
        <path id="DejaVuSans-30" d="M 2034 4250 
Q 1547 4250 1301 3770 
Q 1056 3291 1056 2328 
Q 1056 1369 1301 889 
Q 1547 409 2034 409 
Q 2525 409 2770 889 
Q 3016 1369 3016 2328 
Q 3016 3291 2770 3770 
Q 2525 4250 2034 4250 
z
M 2034 4750 
Q 2819 4750 3233 4129 
Q 3647 3509 3647 2328 
Q 3647 1150 3233 529 
Q 2819 -91 2034 -91 
Q 1250 -91 836 529 
Q 422 1150 422 2328 
Q 422 3509 836 4129 
Q 1250 4750 2034 4750 
z
" transform="scale(0.015625)"/>
       </defs>
       <use xlink:href="#DejaVuSans-2212"/>
       <use xlink:href="#DejaVuSans-31" transform="translate(83.789062 0)"/>
       <use xlink:href="#DejaVuSans-34" transform="translate(147.412109 0)"/>
       <use xlink:href="#DejaVuSans-30" transform="translate(211.035156 0)"/>
       <use xlink:href="#DejaVuSans-30" transform="translate(274.658203 0)"/>
       <use xlink:href="#DejaVuSans-30" transform="translate(338.28125 0)"/>
      </g>
     </g>
    </g>
    <g id="xtick_2">
     <g id="line2d_2">
      <g>
       <use xlink:href="#mce51d3d356" x="149.281478" y="299.518125" style="stroke: #000000; stroke-width: 0.8"/>
      </g>
     </g>
     <g id="text_2">
      <!-- −12000 -->
      <g transform="translate(129.185384 314.116563) scale(0.1 -0.1)">
       <defs>
        <path id="DejaVuSans-32" d="M 1228 531 
L 3431 531 
L 3431 0 
L 469 0 
L 469 531 
Q 828 903 1448 1529 
Q 2069 2156 2228 2338 
Q 2531 2678 2651 2914 
Q 2772 3150 2772 3378 
Q 2772 3750 2511 3984 
Q 2250 4219 1831 4219 
Q 1534 4219 1204 4116 
Q 875 4013 500 3803 
L 500 4441 
Q 881 4594 1212 4672 
Q 1544 4750 1819 4750 
Q 2544 4750 2975 4387 
Q 3406 4025 3406 3419 
Q 3406 3131 3298 2873 
Q 3191 2616 2906 2266 
Q 2828 2175 2409 1742 
Q 1991 1309 1228 531 
z
" transform="scale(0.015625)"/>
       </defs>
       <use xlink:href="#DejaVuSans-2212"/>
       <use xlink:href="#DejaVuSans-31" transform="translate(83.789062 0)"/>
       <use xlink:href="#DejaVuSans-32" transform="translate(147.412109 0)"/>
       <use xlink:href="#DejaVuSans-30" transform="translate(211.035156 0)"/>
       <use xlink:href="#DejaVuSans-30" transform="translate(274.658203 0)"/>
       <use xlink:href="#DejaVuSans-30" transform="translate(338.28125 0)"/>
      </g>
     </g>
    </g>
    <g id="xtick_3">
     <g id="line2d_3">
      <g>
       <use xlink:href="#mce51d3d356" x="238.792919" y="299.518125" style="stroke: #000000; stroke-width: 0.8"/>
      </g>
     </g>
     <g id="text_3">
      <!-- −10000 -->
      <g transform="translate(218.696825 314.116563) scale(0.1 -0.1)">
       <use xlink:href="#DejaVuSans-2212"/>
       <use xlink:href="#DejaVuSans-31" transform="translate(83.789062 0)"/>
       <use xlink:href="#DejaVuSans-30" transform="translate(147.412109 0)"/>
       <use xlink:href="#DejaVuSans-30" transform="translate(211.035156 0)"/>
       <use xlink:href="#DejaVuSans-30" transform="translate(274.658203 0)"/>
       <use xlink:href="#DejaVuSans-30" transform="translate(338.28125 0)"/>
      </g>
     </g>
    </g>
    <g id="xtick_4">
     <g id="line2d_4">
      <g>
       <use xlink:href="#mce51d3d356" x="328.30436" y="299.518125" style="stroke: #000000; stroke-width: 0.8"/>
      </g>
     </g>
     <g id="text_4">
      <!-- −8000 -->
      <g transform="translate(311.389516 314.116563) scale(0.1 -0.1)">
       <defs>
        <path id="DejaVuSans-38" d="M 2034 2216 
Q 1584 2216 1326 1975 
Q 1069 1734 1069 1313 
Q 1069 891 1326 650 
Q 1584 409 2034 409 
Q 2484 409 2743 651 
Q 3003 894 3003 1313 
Q 3003 1734 2745 1975 
Q 2488 2216 2034 2216 
z
M 1403 2484 
Q 997 2584 770 2862 
Q 544 3141 544 3541 
Q 544 4100 942 4425 
Q 1341 4750 2034 4750 
Q 2731 4750 3128 4425 
Q 3525 4100 3525 3541 
Q 3525 3141 3298 2862 
Q 3072 2584 2669 2484 
Q 3125 2378 3379 2068 
Q 3634 1759 3634 1313 
Q 3634 634 3220 271 
Q 2806 -91 2034 -91 
Q 1263 -91 848 271 
Q 434 634 434 1313 
Q 434 1759 690 2068 
Q 947 2378 1403 2484 
z
M 1172 3481 
Q 1172 3119 1398 2916 
Q 1625 2713 2034 2713 
Q 2441 2713 2670 2916 
Q 2900 3119 2900 3481 
Q 2900 3844 2670 4047 
Q 2441 4250 2034 4250 
Q 1625 4250 1398 4047 
Q 1172 3844 1172 3481 
z
" transform="scale(0.015625)"/>
       </defs>
       <use xlink:href="#DejaVuSans-2212"/>
       <use xlink:href="#DejaVuSans-38" transform="translate(83.789062 0)"/>
       <use xlink:href="#DejaVuSans-30" transform="translate(147.412109 0)"/>
       <use xlink:href="#DejaVuSans-30" transform="translate(211.035156 0)"/>
       <use xlink:href="#DejaVuSans-30" transform="translate(274.658203 0)"/>
      </g>
     </g>
    </g>
    <g id="xtick_5">
     <g id="line2d_5">
      <g>
       <use xlink:href="#mce51d3d356" x="417.815802" y="299.518125" style="stroke: #000000; stroke-width: 0.8"/>
      </g>
     </g>
     <g id="text_5">
      <!-- −6000 -->
      <g transform="translate(400.900958 314.116563) scale(0.1 -0.1)">
       <defs>
        <path id="DejaVuSans-36" d="M 2113 2584 
Q 1688 2584 1439 2293 
Q 1191 2003 1191 1497 
Q 1191 994 1439 701 
Q 1688 409 2113 409 
Q 2538 409 2786 701 
Q 3034 994 3034 1497 
Q 3034 2003 2786 2293 
Q 2538 2584 2113 2584 
z
M 3366 4563 
L 3366 3988 
Q 3128 4100 2886 4159 
Q 2644 4219 2406 4219 
Q 1781 4219 1451 3797 
Q 1122 3375 1075 2522 
Q 1259 2794 1537 2939 
Q 1816 3084 2150 3084 
Q 2853 3084 3261 2657 
Q 3669 2231 3669 1497 
Q 3669 778 3244 343 
Q 2819 -91 2113 -91 
Q 1303 -91 875 529 
Q 447 1150 447 2328 
Q 447 3434 972 4092 
Q 1497 4750 2381 4750 
Q 2619 4750 2861 4703 
Q 3103 4656 3366 4563 
z
" transform="scale(0.015625)"/>
       </defs>
       <use xlink:href="#DejaVuSans-2212"/>
       <use xlink:href="#DejaVuSans-36" transform="translate(83.789062 0)"/>
       <use xlink:href="#DejaVuSans-30" transform="translate(147.412109 0)"/>
       <use xlink:href="#DejaVuSans-30" transform="translate(211.035156 0)"/>
       <use xlink:href="#DejaVuSans-30" transform="translate(274.658203 0)"/>
      </g>
     </g>
    </g>
    <g id="xtick_6">
     <g id="line2d_6">
      <g>
       <use xlink:href="#mce51d3d356" x="507.327243" y="299.518125" style="stroke: #000000; stroke-width: 0.8"/>
      </g>
     </g>
     <g id="text_6">
      <!-- −4000 -->
      <g transform="translate(490.412399 314.116563) scale(0.1 -0.1)">
       <use xlink:href="#DejaVuSans-2212"/>
       <use xlink:href="#DejaVuSans-34" transform="translate(83.789062 0)"/>
       <use xlink:href="#DejaVuSans-30" transform="translate(147.412109 0)"/>
       <use xlink:href="#DejaVuSans-30" transform="translate(211.035156 0)"/>
       <use xlink:href="#DejaVuSans-30" transform="translate(274.658203 0)"/>
      </g>
     </g>
    </g>
    <g id="xtick_7">
     <g id="line2d_7">
      <g>
       <use xlink:href="#mce51d3d356" x="596.838684" y="299.518125" style="stroke: #000000; stroke-width: 0.8"/>
      </g>
     </g>
     <g id="text_7">
      <!-- −2000 -->
      <g transform="translate(579.92384 314.116563) scale(0.1 -0.1)">
       <use xlink:href="#DejaVuSans-2212"/>
       <use xlink:href="#DejaVuSans-32" transform="translate(83.789062 0)"/>
       <use xlink:href="#DejaVuSans-30" transform="translate(147.412109 0)"/>
       <use xlink:href="#DejaVuSans-30" transform="translate(211.035156 0)"/>
       <use xlink:href="#DejaVuSans-30" transform="translate(274.658203 0)"/>
      </g>
     </g>
    </g>
    <g id="xtick_8">
     <g id="line2d_8">
      <g>
       <use xlink:href="#mce51d3d356" x="686.350125" y="299.518125" style="stroke: #000000; stroke-width: 0.8"/>
      </g>
     </g>
     <g id="text_8">
      <!-- 0 -->
      <g transform="translate(683.168875 314.116563) scale(0.1 -0.1)">
       <use xlink:href="#DejaVuSans-30"/>
      </g>
     </g>
    </g>
    <g id="text_9">
     <!-- t [M] -->
     <g transform="translate(373.178906 327.794688) scale(0.1 -0.1)">
      <defs>
       <path id="DejaVuSans-74" d="M 1172 4494 
L 1172 3500 
L 2356 3500 
L 2356 3053 
L 1172 3053 
L 1172 1153 
Q 1172 725 1289 603 
Q 1406 481 1766 481 
L 2356 481 
L 2356 0 
L 1766 0 
Q 1100 0 847 248 
Q 594 497 594 1153 
L 594 3053 
L 172 3053 
L 172 3500 
L 594 3500 
L 594 4494 
L 1172 4494 
z
" transform="scale(0.015625)"/>
       <path id="DejaVuSans-20" transform="scale(0.015625)"/>
       <path id="DejaVuSans-5b" d="M 550 4863 
L 1875 4863 
L 1875 4416 
L 1125 4416 
L 1125 -397 
L 1875 -397 
L 1875 -844 
L 550 -844 
L 550 4863 
z
" transform="scale(0.015625)"/>
       <path id="DejaVuSans-4d" d="M 628 4666 
L 1569 4666 
L 2759 1491 
L 3956 4666 
L 4897 4666 
L 4897 0 
L 4281 0 
L 4281 4097 
L 3078 897 
L 2444 897 
L 1241 4097 
L 1241 0 
L 628 0 
L 628 4666 
z
" transform="scale(0.015625)"/>
       <path id="DejaVuSans-5d" d="M 1947 4863 
L 1947 -844 
L 622 -844 
L 622 -397 
L 1369 -397 
L 1369 4416 
L 622 4416 
L 622 4863 
L 1947 4863 
z
" transform="scale(0.015625)"/>
      </defs>
      <use xlink:href="#DejaVuSans-74"/>
      <use xlink:href="#DejaVuSans-20" transform="translate(39.208984 0)"/>
      <use xlink:href="#DejaVuSans-5b" transform="translate(70.996094 0)"/>
      <use xlink:href="#DejaVuSans-4d" transform="translate(110.009766 0)"/>
      <use xlink:href="#DejaVuSans-5d" transform="translate(196.289062 0)"/>
     </g>
    </g>
   </g>
   <g id="matplotlib.axis_2">
    <g id="ytick_1">
     <g id="line2d_9">
      <defs>
       <path id="mcc6d20f4c0" d="M 0 0 
L -3.5 0 
" style="stroke: #000000; stroke-width: 0.8"/>
      </defs>
      <g>
       <use xlink:href="#mcc6d20f4c0" x="50.14375" y="292.50358" style="stroke: #000000; stroke-width: 0.8"/>
      </g>
     </g>
     <g id="text_10">
      <!-- 0.00 -->
      <g transform="translate(20.878125 296.302799) scale(0.1 -0.1)">
       <defs>
        <path id="DejaVuSans-2e" d="M 684 794 
L 1344 794 
L 1344 0 
L 684 0 
L 684 794 
z
" transform="scale(0.015625)"/>
       </defs>
       <use xlink:href="#DejaVuSans-30"/>
       <use xlink:href="#DejaVuSans-2e" transform="translate(63.623047 0)"/>
       <use xlink:href="#DejaVuSans-30" transform="translate(95.410156 0)"/>
       <use xlink:href="#DejaVuSans-30" transform="translate(159.033203 0)"/>
      </g>
     </g>
    </g>
    <g id="ytick_2">
     <g id="line2d_10">
      <g>
       <use xlink:href="#mcc6d20f4c0" x="50.14375" y="234.018866" style="stroke: #000000; stroke-width: 0.8"/>
      </g>
     </g>
     <g id="text_11">
      <!-- 0.02 -->
      <g transform="translate(20.878125 237.818085) scale(0.1 -0.1)">
       <use xlink:href="#DejaVuSans-30"/>
       <use xlink:href="#DejaVuSans-2e" transform="translate(63.623047 0)"/>
       <use xlink:href="#DejaVuSans-30" transform="translate(95.410156 0)"/>
       <use xlink:href="#DejaVuSans-32" transform="translate(159.033203 0)"/>
      </g>
     </g>
    </g>
    <g id="ytick_3">
     <g id="line2d_11">
      <g>
       <use xlink:href="#mcc6d20f4c0" x="50.14375" y="175.534153" style="stroke: #000000; stroke-width: 0.8"/>
      </g>
     </g>
     <g id="text_12">
      <!-- 0.04 -->
      <g transform="translate(20.878125 179.333372) scale(0.1 -0.1)">
       <use xlink:href="#DejaVuSans-30"/>
       <use xlink:href="#DejaVuSans-2e" transform="translate(63.623047 0)"/>
       <use xlink:href="#DejaVuSans-30" transform="translate(95.410156 0)"/>
       <use xlink:href="#DejaVuSans-34" transform="translate(159.033203 0)"/>
      </g>
     </g>
    </g>
    <g id="ytick_4">
     <g id="line2d_12">
      <g>
       <use xlink:href="#mcc6d20f4c0" x="50.14375" y="117.049439" style="stroke: #000000; stroke-width: 0.8"/>
      </g>
     </g>
     <g id="text_13">
      <!-- 0.06 -->
      <g transform="translate(20.878125 120.848658) scale(0.1 -0.1)">
       <use xlink:href="#DejaVuSans-30"/>
       <use xlink:href="#DejaVuSans-2e" transform="translate(63.623047 0)"/>
       <use xlink:href="#DejaVuSans-30" transform="translate(95.410156 0)"/>
       <use xlink:href="#DejaVuSans-36" transform="translate(159.033203 0)"/>
      </g>
     </g>
    </g>
    <g id="ytick_5">
     <g id="line2d_13">
      <g>
       <use xlink:href="#mcc6d20f4c0" x="50.14375" y="58.564726" style="stroke: #000000; stroke-width: 0.8"/>
      </g>
     </g>
     <g id="text_14">
      <!-- 0.08 -->
      <g transform="translate(20.878125 62.363945) scale(0.1 -0.1)">
       <use xlink:href="#DejaVuSans-30"/>
       <use xlink:href="#DejaVuSans-2e" transform="translate(63.623047 0)"/>
       <use xlink:href="#DejaVuSans-30" transform="translate(95.410156 0)"/>
       <use xlink:href="#DejaVuSans-38" transform="translate(159.033203 0)"/>
      </g>
     </g>
    </g>
    <g id="text_15">
     <!-- Mf -->
     <g transform="translate(14.798437 166.992344) rotate(-90) scale(0.1 -0.1)">
      <defs>
       <path id="DejaVuSans-66" d="M 2375 4863 
L 2375 4384 
L 1825 4384 
Q 1516 4384 1395 4259 
Q 1275 4134 1275 3809 
L 1275 3500 
L 2222 3500 
L 2222 3053 
L 1275 3053 
L 1275 0 
L 697 0 
L 697 3053 
L 147 3053 
L 147 3500 
L 697 3500 
L 697 3744 
Q 697 4328 969 4595 
Q 1241 4863 1831 4863 
L 2375 4863 
z
" transform="scale(0.015625)"/>
      </defs>
      <use xlink:href="#DejaVuSans-4d"/>
      <use xlink:href="#DejaVuSans-66" transform="translate(86.279297 0)"/>
     </g>
    </g>
   </g>
   <g id="line2d_14">
    <path d="M 80.580114 286.729876 
L 85.709838 286.830077 
L 89.203998 286.459164 
L 90.839562 285.950119 
L 93.887659 284.785284 
L 95.002816 284.051263 
L 96.266662 282.932823 
L 97.753538 281.318482 
L 99.686478 278.832303 
L 100.727291 277.661521 
L 101.396386 277.186285 
L 101.991136 277.022989 
L 102.511543 277.098892 
L 103.106294 277.424647 
L 103.849732 278.125421 
L 105.039233 279.624448 
L 107.120861 282.221185 
L 108.45905 283.537019 
L 109.648551 284.416021 
L 110.912396 285.06247 
L 113.142711 285.884938 
L 114.852619 286.339865 
L 116.636871 286.549027 
L 119.684968 286.684094 
L 122.807409 286.466733 
L 124.368629 286.209067 
L 126.078537 285.658514 
L 128.680571 284.618305 
L 129.795729 283.899568 
L 130.98523 282.859678 
L 132.472106 281.246421 
L 134.256358 278.940269 
L 135.44586 277.530037 
L 136.189298 276.971181 
L 136.784048 276.797969 
L 137.304455 276.86791 
L 137.899206 277.190634 
L 138.642644 277.892944 
L 139.832145 279.403409 
L 141.913773 282.0297 
L 143.251962 283.354458 
L 144.441463 284.233086 
L 145.705308 284.889751 
L 147.861279 285.719461 
L 149.496843 286.15088 
L 151.355439 286.376915 
L 153.957473 286.498324 
L 156.559507 286.31979 
L 158.343759 286.060321 
L 159.830635 285.603365 
L 162.432669 284.546909 
L 163.622171 283.814277 
L 164.811672 282.793719 
L 166.224205 281.267041 
L 167.934113 279.054811 
L 169.346646 277.322148 
L 170.090084 276.748934 
L 170.684835 276.566643 
L 171.205241 276.631674 
L 171.799992 276.952731 
L 172.54343 277.658167 
L 173.732932 279.181032 
L 175.814559 281.833712 
L 177.152748 283.163573 
L 178.342249 284.039937 
L 179.680438 284.738875 
L 181.762065 285.550013 
L 183.323285 285.939972 
L 185.404913 286.183319 
L 187.560884 286.255351 
L 190.162918 286.053384 
L 191.798482 285.771098 
L 193.359702 285.254111 
L 195.664361 284.246373 
L 196.853862 283.469805 
L 198.043364 282.40319 
L 199.455896 280.814367 
L 201.46318 278.150233 
L 202.503993 276.950932 
L 203.173088 276.470235 
L 203.767838 276.314172 
L 204.288245 276.405846 
L 204.882996 276.757834 
L 205.626434 277.496793 
L 206.890279 279.154636 
L 208.823219 281.633034 
L 210.087064 282.905061 
L 211.276565 283.799868 
L 212.614754 284.523675 
L 214.547694 285.303057 
L 216.108914 285.700507 
L 218.190541 285.953878 
L 220.197825 286.009485 
L 222.651171 285.801735 
L 224.286735 285.492111 
L 225.847956 284.947251 
L 227.855239 284.019771 
L 229.04474 283.230875 
L 230.234242 282.150106 
L 231.572431 280.622753 
L 233.50537 278.026213 
L 234.620528 276.706944 
L 235.289622 276.213162 
L 235.884373 276.048177 
L 236.404779 276.135457 
L 236.99953 276.486831 
L 237.742968 277.230846 
L 239.006813 278.906223 
L 240.939753 281.41336 
L 242.203598 282.692609 
L 243.393099 283.590578 
L 244.805632 284.363387 
L 246.589884 285.085345 
L 248.076761 285.45738 
L 250.084044 285.706306 
L 251.94264 285.746323 
L 254.247298 285.533529 
L 255.882863 285.195604 
L 257.444083 284.619116 
L 259.302679 283.698124 
L 260.49218 282.861579 
L 261.681681 281.729256 
L 263.094214 280.041681 
L 266.142311 276.188623 
L 266.737062 275.843479 
L 267.257469 275.767218 
L 267.777875 275.910725 
L 268.372626 276.322506 
L 269.116064 277.12569 
L 270.602941 279.160913 
L 272.238505 281.260852 
L 273.50235 282.528174 
L 274.691851 283.414742 
L 276.178728 284.224867 
L 277.814292 284.870731 
L 279.301169 285.221615 
L 281.308452 285.451456 
L 283.092704 285.444619 
L 285.323019 285.183376 
L 286.809896 284.805372 
L 288.371116 284.162224 
L 290.00668 283.261941 
L 291.196181 282.340607 
L 292.385683 281.117552 
L 293.798216 279.327593 
L 296.325906 276.038802 
L 296.995 275.580512 
L 297.515407 275.462076 
L 298.035814 275.567499 
L 298.630564 275.945718 
L 299.374003 276.726145 
L 300.637848 278.454193 
L 302.496444 280.917458 
L 303.760289 282.215283 
L 304.94979 283.127031 
L 306.362323 283.927157 
L 307.923543 284.563481 
L 309.41042 284.926742 
L 311.343359 285.152591 
L 313.053267 285.135667 
L 315.060551 284.88183 
L 316.547427 284.486779 
L 318.034304 283.849244 
L 319.595524 282.946409 
L 320.785025 281.992249 
L 321.974527 280.73115 
L 323.387059 278.888991 
L 325.691718 275.818759 
L 326.360813 275.305916 
L 326.881219 275.142652 
L 327.401626 275.20672 
L 327.922033 275.490586 
L 328.591128 276.127213 
L 329.631941 277.496226 
L 332.010944 280.723103 
L 333.274789 282.012067 
L 334.538634 282.965884 
L 335.951167 283.750593 
L 337.438043 284.32512 
L 338.999264 284.6704 
L 340.783516 284.837533 
L 342.41908 284.771827 
L 344.277675 284.47495 
L 345.690208 284.027986 
L 347.177085 283.310891 
L 348.589618 282.390103 
L 349.704775 281.401325 
L 350.894276 280.043215 
L 352.455497 277.884998 
L 354.091061 275.664952 
L 354.834499 275.016307 
L 355.42925 274.79501 
L 355.949657 274.848481 
L 356.470063 275.126857 
L 357.139158 275.764097 
L 358.105628 277.039953 
L 360.633318 280.506196 
L 361.822819 281.722036 
L 363.086664 282.688083 
L 364.499197 283.478355 
L 365.91173 284.014488 
L 367.47295 284.349258 
L 369.108514 284.481498 
L 370.744079 284.384049 
L 372.453987 284.059578 
L 373.792176 283.584965 
L 375.204708 282.845336 
L 376.542897 281.898389 
L 377.658055 280.836811 
L 378.9219 279.296914 
L 380.854839 276.500824 
L 381.969997 275.090361 
L 382.639091 274.569007 
L 383.159498 274.409402 
L 383.679905 274.486319 
L 384.200312 274.790632 
L 384.869406 275.460161 
L 385.91022 276.881721 
L 388.214878 280.092167 
L 389.40438 281.342151 
L 390.668225 282.337724 
L 392.006414 283.10847 
L 393.344603 283.631239 
L 394.831479 283.963823 
L 396.3927 284.089793 
L 397.95392 283.985267 
L 399.515141 283.665981 
L 400.853329 283.166794 
L 402.191518 282.428421 
L 403.455363 281.489621 
L 404.570521 280.388083 
L 405.834366 278.795241 
L 409.179838 274.312244 
L 409.774589 274.02141 
L 410.294996 274.021542 
L 410.815403 274.259958 
L 411.410153 274.788406 
L 412.302279 275.937694 
L 415.350376 280.174345 
L 416.539877 281.334942 
L 417.803722 282.253148 
L 419.141911 282.943217 
L 420.4801 283.377359 
L 421.966977 283.619683 
L 423.453853 283.631439 
L 424.94073 283.420459 
L 426.353263 282.998605 
L 427.617108 282.384812 
L 428.880953 281.533399 
L 430.070454 280.461196 
L 431.259956 279.057353 
L 432.746832 276.900538 
L 434.45674 274.446643 
L 435.200178 273.7684 
L 435.720585 273.554785 
L 436.240992 273.586965 
L 436.761399 273.8608 
L 437.430493 274.515252 
L 438.396963 275.847298 
L 440.850309 279.377023 
L 442.039811 280.64981 
L 443.229312 281.60728 
L 444.493157 282.342255 
L 445.757002 282.823032 
L 447.169535 283.111696 
L 448.582068 283.167393 
L 449.9946 282.994918 
L 451.332789 282.617335 
L 452.596634 282.020588 
L 453.86048 281.164937 
L 455.049981 280.080149 
L 456.165138 278.756156 
L 457.577671 276.691473 
L 459.510611 273.86861 
L 460.179705 273.26577 
L 460.700112 273.052009 
L 461.220519 273.090344 
L 461.740925 273.375815 
L 462.41002 274.050398 
L 463.37649 275.4135 
L 465.755492 278.898081 
L 466.944994 280.197862 
L 468.134495 281.171251 
L 469.323996 281.868459 
L 470.587841 282.345271 
L 471.92603 282.602039 
L 473.264219 282.624391 
L 474.602408 282.41826 
L 475.866253 282.002358 
L 477.055754 281.371879 
L 478.245256 280.484827 
L 479.360413 279.379366 
L 480.47557 277.96246 
L 481.962447 275.675024 
L 483.523667 273.366566 
L 484.192762 272.731806 
L 484.713169 272.497148 
L 485.233575 272.520962 
L 485.753982 272.79982 
L 486.348733 273.387496 
L 487.240859 274.630955 
L 489.991581 278.687123 
L 491.181082 279.938391 
L 492.370583 280.857896 
L 493.560084 281.488713 
L 494.749586 281.869853 
L 496.013431 282.038447 
L 497.277276 281.973143 
L 498.541121 281.677481 
L 499.730622 281.163742 
L 500.84578 280.440575 
L 501.960937 279.45838 
L 503.076094 278.171157 
L 504.33994 276.33106 
L 506.86763 272.501826 
L 507.46238 272.014239 
L 507.982787 271.852789 
L 508.42885 271.928178 
L 508.949257 272.2554 
L 509.618351 272.991307 
L 510.659165 274.556634 
L 512.740792 277.727359 
L 513.930294 279.094482 
L 515.045451 280.047462 
L 516.160608 280.717694 
L 517.275766 281.139547 
L 518.465267 281.349259 
L 519.654768 281.323229 
L 520.84427 281.063614 
L 521.959427 280.59177 
L 523.074584 279.866425 
L 524.189742 278.860409 
L 525.304899 277.533275 
L 526.494401 275.754041 
L 529.022091 271.81045 
L 529.616841 271.306127 
L 530.137248 271.138849 
L 530.583311 271.216566 
L 531.103718 271.554409 
L 531.772812 272.312902 
L 532.813626 273.919631 
L 534.820909 277.043834 
L 535.936067 278.364991 
L 537.051224 279.347026 
L 538.092038 279.985282 
L 539.207195 280.405191 
L 540.322353 280.579955 
L 541.43751 280.519306 
L 542.552668 280.22313 
L 543.593481 279.716916 
L 544.634295 278.959745 
L 545.675109 277.926576 
L 546.790266 276.482359 
L 548.054111 274.448471 
L 550.061394 271.188151 
L 550.730489 270.538844 
L 551.250896 270.328122 
L 551.696959 270.376088 
L 552.217365 270.690736 
L 552.812116 271.340566 
L 553.704242 272.692649 
L 556.157588 276.567142 
L 557.272746 277.839644 
L 558.313559 278.703109 
L 559.354373 279.280695 
L 560.395187 279.600395 
L 561.436 279.678488 
L 562.40247 279.534408 
L 563.36894 279.178412 
L 564.409753 278.550432 
L 565.450567 277.642305 
L 566.491381 276.423615 
L 567.606538 274.760529 
L 570.803323 269.670844 
L 571.32373 269.379028 
L 571.769793 269.369358 
L 572.215856 269.581782 
L 572.736262 270.081297 
L 573.479701 271.147044 
L 576.602141 276.068749 
L 577.642955 277.183856 
L 578.609425 277.923815 
L 579.575895 278.391142 
L 580.542364 278.604319 
L 581.508834 278.576073 
L 582.40096 278.334482 
L 583.36743 277.82947 
L 584.3339 277.059198 
L 585.300369 276.004234 
L 586.341183 274.531805 
L 587.605028 272.315833 
L 589.38928 269.199001 
L 590.058375 268.48042 
L 590.578781 268.239832 
L 591.024844 268.28224 
L 591.470907 268.548766 
L 592.065658 269.203765 
L 592.88344 270.48286 
L 595.41113 274.669423 
L 596.451944 275.872271 
L 597.418414 276.651229 
L 598.31054 277.097404 
L 599.202665 277.296981 
L 600.094791 277.257267 
L 600.986917 276.97835 
L 601.879043 276.451217 
L 602.771169 275.660691 
L 603.737639 274.486572 
L 604.778453 272.843079 
L 606.265329 269.999694 
L 607.454831 267.8862 
L 608.123925 267.115202 
L 608.644332 266.849418 
L 609.090395 266.883442 
L 609.536458 267.153609 
L 610.131208 267.82926 
L 610.94899 269.154684 
L 613.327993 273.210086 
L 614.294463 274.364141 
L 615.186589 275.104048 
L 616.004371 275.516608 
L 616.822153 275.684846 
L 617.639935 275.613028 
L 618.457717 275.300911 
L 619.275499 274.741151 
L 620.093281 273.918626 
L 620.985407 272.708873 
L 622.026221 270.897485 
L 624.92563 265.528647 
L 625.446037 265.14171 
L 625.8921 265.084053 
L 626.338163 265.282585 
L 626.85857 265.804078 
L 627.602008 266.94517 
L 630.501418 271.862635 
L 631.393543 272.793561 
L 632.211326 273.331318 
L 632.954764 273.562938 
L 633.698202 273.55308 
L 634.44164 273.3003 
L 635.185079 272.799607 
L 636.002861 271.952092 
L 636.894987 270.663957 
L 637.861457 268.860721 
L 640.686522 263.236581 
L 641.206929 262.811062 
L 641.652992 262.741127 
L 642.099055 262.945051 
L 642.619462 263.489862 
L 643.3629 264.679683 
L 645.89059 269.097016 
L 646.708372 269.987254 
L 647.451811 270.483877 
L 648.120905 270.67272 
L 648.79 270.616385 
L 649.459094 270.313685 
L 650.128188 269.765436 
L 650.871627 268.854723 
L 651.689409 267.48743 
L 652.730222 265.254424 
L 654.960537 260.2486 
L 655.480944 259.613527 
L 655.927007 259.380279 
L 656.298726 259.416712 
L 656.744789 259.721317 
L 657.265196 260.375719 
L 658.157322 261.936563 
L 659.718542 264.671592 
L 660.536324 265.6537 
L 661.205419 266.129086 
L 661.80017 266.283771 
L 662.320576 266.211795 
L 662.915327 265.888623 
L 663.510078 265.304931 
L 664.179172 264.327498 
L 664.996954 262.682406 
L 666.037768 260.00175 
L 667.896364 255.078367 
L 668.491114 254.137744 
L 668.937177 253.789128 
L 669.308896 253.741419 
L 669.680615 253.903073 
L 670.201022 254.417491 
L 671.093148 255.735866 
L 672.282649 257.413398 
L 672.8774 257.927729 
L 673.397807 258.115658 
L 673.84387 258.062747 
L 674.364277 257.746606 
L 674.884684 257.110705 
L 675.479434 255.968737 
L 676.222872 254.062129 
L 677.040655 251.191551 
L 678.601875 244.657344 
L 679.568345 241.062316 
L 680.460471 238.732418 
L 681.42694 237.032951 
L 682.096035 235.761359 
L 682.39341 234.934813 
L 682.690786 233.889263 
L 683.285536 230.723455 
L 683.805943 226.452812 
L 684.252006 221.087105 
L 684.698069 213.360922 
L 685.144132 201.807758 
L 685.664539 180.909293 
L 686.036258 156.421114 
L 686.482321 109.100057 
L 687.002728 56.140061 
L 687.300103 43.105666 
L 687.597478 37.870136 
L 687.894854 35.952216 
L 688.192229 35.273711 
L 688.563948 35.007312 
L 689.233043 34.919305 
L 689.307386 34.918125 
L 689.307386 34.918125 
" clip-path="url(#p972f77dbe6)" style="fill: none; stroke: #1f77b4; stroke-width: 0.6; stroke-linecap: square"/>
   </g>
   <g id="line2d_15">
    <path d="M 50.14375 229.169769 
L 719.74375 229.169769 
" clip-path="url(#p972f77dbe6)" style="fill: none; stroke-dasharray: 2.22,0.96; stroke-dashoffset: 0; stroke: #ff0000; stroke-width: 0.6"/>
   </g>
   <g id="patch_3">
    <path d="M 50.14375 299.518125 
L 50.14375 22.318125 
" style="fill: none; stroke: #000000; stroke-width: 0.8; stroke-linejoin: miter; stroke-linecap: square"/>
   </g>
   <g id="patch_4">
    <path d="M 719.74375 299.518125 
L 719.74375 22.318125 
" style="fill: none; stroke: #000000; stroke-width: 0.8; stroke-linejoin: miter; stroke-linecap: square"/>
   </g>
   <g id="patch_5">
    <path d="M 50.14375 299.518125 
L 719.74375 299.518125 
" style="fill: none; stroke: #000000; stroke-width: 0.8; stroke-linejoin: miter; stroke-linecap: square"/>
   </g>
   <g id="patch_6">
    <path d="M 50.14375 22.318125 
L 719.74375 22.318125 
" style="fill: none; stroke: #000000; stroke-width: 0.8; stroke-linejoin: miter; stroke-linecap: square"/>
   </g>
   <g id="text_16">
    <!-- Mf vs Time for M=60, e=0.18, f_lower=10 Hz -->
    <g transform="translate(249.127188 16.318125) scale(0.12 -0.12)">
     <defs>
      <path id="DejaVuSans-76" d="M 191 3500 
L 800 3500 
L 1894 563 
L 2988 3500 
L 3597 3500 
L 2284 0 
L 1503 0 
L 191 3500 
z
" transform="scale(0.015625)"/>
      <path id="DejaVuSans-73" d="M 2834 3397 
L 2834 2853 
Q 2591 2978 2328 3040 
Q 2066 3103 1784 3103 
Q 1356 3103 1142 2972 
Q 928 2841 928 2578 
Q 928 2378 1081 2264 
Q 1234 2150 1697 2047 
L 1894 2003 
Q 2506 1872 2764 1633 
Q 3022 1394 3022 966 
Q 3022 478 2636 193 
Q 2250 -91 1575 -91 
Q 1294 -91 989 -36 
Q 684 19 347 128 
L 347 722 
Q 666 556 975 473 
Q 1284 391 1588 391 
Q 1994 391 2212 530 
Q 2431 669 2431 922 
Q 2431 1156 2273 1281 
Q 2116 1406 1581 1522 
L 1381 1569 
Q 847 1681 609 1914 
Q 372 2147 372 2553 
Q 372 3047 722 3315 
Q 1072 3584 1716 3584 
Q 2034 3584 2315 3537 
Q 2597 3491 2834 3397 
z
" transform="scale(0.015625)"/>
      <path id="DejaVuSans-54" d="M -19 4666 
L 3928 4666 
L 3928 4134 
L 2272 4134 
L 2272 0 
L 1638 0 
L 1638 4134 
L -19 4134 
L -19 4666 
z
" transform="scale(0.015625)"/>
      <path id="DejaVuSans-69" d="M 603 3500 
L 1178 3500 
L 1178 0 
L 603 0 
L 603 3500 
z
M 603 4863 
L 1178 4863 
L 1178 4134 
L 603 4134 
L 603 4863 
z
" transform="scale(0.015625)"/>
      <path id="DejaVuSans-6d" d="M 3328 2828 
Q 3544 3216 3844 3400 
Q 4144 3584 4550 3584 
Q 5097 3584 5394 3201 
Q 5691 2819 5691 2113 
L 5691 0 
L 5113 0 
L 5113 2094 
Q 5113 2597 4934 2840 
Q 4756 3084 4391 3084 
Q 3944 3084 3684 2787 
Q 3425 2491 3425 1978 
L 3425 0 
L 2847 0 
L 2847 2094 
Q 2847 2600 2669 2842 
Q 2491 3084 2119 3084 
Q 1678 3084 1418 2786 
Q 1159 2488 1159 1978 
L 1159 0 
L 581 0 
L 581 3500 
L 1159 3500 
L 1159 2956 
Q 1356 3278 1631 3431 
Q 1906 3584 2284 3584 
Q 2666 3584 2933 3390 
Q 3200 3197 3328 2828 
z
" transform="scale(0.015625)"/>
      <path id="DejaVuSans-65" d="M 3597 1894 
L 3597 1613 
L 953 1613 
Q 991 1019 1311 708 
Q 1631 397 2203 397 
Q 2534 397 2845 478 
Q 3156 559 3463 722 
L 3463 178 
Q 3153 47 2828 -22 
Q 2503 -91 2169 -91 
Q 1331 -91 842 396 
Q 353 884 353 1716 
Q 353 2575 817 3079 
Q 1281 3584 2069 3584 
Q 2775 3584 3186 3129 
Q 3597 2675 3597 1894 
z
M 3022 2063 
Q 3016 2534 2758 2815 
Q 2500 3097 2075 3097 
Q 1594 3097 1305 2825 
Q 1016 2553 972 2059 
L 3022 2063 
z
" transform="scale(0.015625)"/>
      <path id="DejaVuSans-6f" d="M 1959 3097 
Q 1497 3097 1228 2736 
Q 959 2375 959 1747 
Q 959 1119 1226 758 
Q 1494 397 1959 397 
Q 2419 397 2687 759 
Q 2956 1122 2956 1747 
Q 2956 2369 2687 2733 
Q 2419 3097 1959 3097 
z
M 1959 3584 
Q 2709 3584 3137 3096 
Q 3566 2609 3566 1747 
Q 3566 888 3137 398 
Q 2709 -91 1959 -91 
Q 1206 -91 779 398 
Q 353 888 353 1747 
Q 353 2609 779 3096 
Q 1206 3584 1959 3584 
z
" transform="scale(0.015625)"/>
      <path id="DejaVuSans-72" d="M 2631 2963 
Q 2534 3019 2420 3045 
Q 2306 3072 2169 3072 
Q 1681 3072 1420 2755 
Q 1159 2438 1159 1844 
L 1159 0 
L 581 0 
L 581 3500 
L 1159 3500 
L 1159 2956 
Q 1341 3275 1631 3429 
Q 1922 3584 2338 3584 
Q 2397 3584 2469 3576 
Q 2541 3569 2628 3553 
L 2631 2963 
z
" transform="scale(0.015625)"/>
      <path id="DejaVuSans-3d" d="M 678 2906 
L 4684 2906 
L 4684 2381 
L 678 2381 
L 678 2906 
z
M 678 1631 
L 4684 1631 
L 4684 1100 
L 678 1100 
L 678 1631 
z
" transform="scale(0.015625)"/>
      <path id="DejaVuSans-2c" d="M 750 794 
L 1409 794 
L 1409 256 
L 897 -744 
L 494 -744 
L 750 256 
L 750 794 
z
" transform="scale(0.015625)"/>
      <path id="DejaVuSans-5f" d="M 3263 -1063 
L 3263 -1509 
L -63 -1509 
L -63 -1063 
L 3263 -1063 
z
" transform="scale(0.015625)"/>
      <path id="DejaVuSans-6c" d="M 603 4863 
L 1178 4863 
L 1178 0 
L 603 0 
L 603 4863 
z
" transform="scale(0.015625)"/>
      <path id="DejaVuSans-77" d="M 269 3500 
L 844 3500 
L 1563 769 
L 2278 3500 
L 2956 3500 
L 3675 769 
L 4391 3500 
L 4966 3500 
L 4050 0 
L 3372 0 
L 2619 2869 
L 1863 0 
L 1184 0 
L 269 3500 
z
" transform="scale(0.015625)"/>
      <path id="DejaVuSans-48" d="M 628 4666 
L 1259 4666 
L 1259 2753 
L 3553 2753 
L 3553 4666 
L 4184 4666 
L 4184 0 
L 3553 0 
L 3553 2222 
L 1259 2222 
L 1259 0 
L 628 0 
L 628 4666 
z
" transform="scale(0.015625)"/>
      <path id="DejaVuSans-7a" d="M 353 3500 
L 3084 3500 
L 3084 2975 
L 922 459 
L 3084 459 
L 3084 0 
L 275 0 
L 275 525 
L 2438 3041 
L 353 3041 
L 353 3500 
z
" transform="scale(0.015625)"/>
     </defs>
     <use xlink:href="#DejaVuSans-4d"/>
     <use xlink:href="#DejaVuSans-66" transform="translate(86.279297 0)"/>
     <use xlink:href="#DejaVuSans-20" transform="translate(121.484375 0)"/>
     <use xlink:href="#DejaVuSans-76" transform="translate(153.271484 0)"/>
     <use xlink:href="#DejaVuSans-73" transform="translate(212.451172 0)"/>
     <use xlink:href="#DejaVuSans-20" transform="translate(264.550781 0)"/>
     <use xlink:href="#DejaVuSans-54" transform="translate(296.337891 0)"/>
     <use xlink:href="#DejaVuSans-69" transform="translate(354.296875 0)"/>
     <use xlink:href="#DejaVuSans-6d" transform="translate(382.080078 0)"/>
     <use xlink:href="#DejaVuSans-65" transform="translate(479.492188 0)"/>
     <use xlink:href="#DejaVuSans-20" transform="translate(541.015625 0)"/>
     <use xlink:href="#DejaVuSans-66" transform="translate(572.802734 0)"/>
     <use xlink:href="#DejaVuSans-6f" transform="translate(608.007812 0)"/>
     <use xlink:href="#DejaVuSans-72" transform="translate(669.189453 0)"/>
     <use xlink:href="#DejaVuSans-20" transform="translate(710.302734 0)"/>
     <use xlink:href="#DejaVuSans-4d" transform="translate(742.089844 0)"/>
     <use xlink:href="#DejaVuSans-3d" transform="translate(828.369141 0)"/>
     <use xlink:href="#DejaVuSans-36" transform="translate(912.158203 0)"/>
     <use xlink:href="#DejaVuSans-30" transform="translate(975.78125 0)"/>
     <use xlink:href="#DejaVuSans-2c" transform="translate(1039.404297 0)"/>
     <use xlink:href="#DejaVuSans-20" transform="translate(1071.191406 0)"/>
     <use xlink:href="#DejaVuSans-65" transform="translate(1102.978516 0)"/>
     <use xlink:href="#DejaVuSans-3d" transform="translate(1164.501953 0)"/>
     <use xlink:href="#DejaVuSans-30" transform="translate(1248.291016 0)"/>
     <use xlink:href="#DejaVuSans-2e" transform="translate(1311.914062 0)"/>
     <use xlink:href="#DejaVuSans-31" transform="translate(1343.701172 0)"/>
     <use xlink:href="#DejaVuSans-38" transform="translate(1407.324219 0)"/>
     <use xlink:href="#DejaVuSans-2c" transform="translate(1470.947266 0)"/>
     <use xlink:href="#DejaVuSans-20" transform="translate(1502.734375 0)"/>
     <use xlink:href="#DejaVuSans-66" transform="translate(1534.521484 0)"/>
     <use xlink:href="#DejaVuSans-5f" transform="translate(1569.726562 0)"/>
     <use xlink:href="#DejaVuSans-6c" transform="translate(1619.726562 0)"/>
     <use xlink:href="#DejaVuSans-6f" transform="translate(1647.509766 0)"/>
     <use xlink:href="#DejaVuSans-77" transform="translate(1708.691406 0)"/>
     <use xlink:href="#DejaVuSans-65" transform="translate(1790.478516 0)"/>
     <use xlink:href="#DejaVuSans-72" transform="translate(1852.001953 0)"/>
     <use xlink:href="#DejaVuSans-3d" transform="translate(1893.115234 0)"/>
     <use xlink:href="#DejaVuSans-31" transform="translate(1976.904297 0)"/>
     <use xlink:href="#DejaVuSans-30" transform="translate(2040.527344 0)"/>
     <use xlink:href="#DejaVuSans-20" transform="translate(2104.150391 0)"/>
     <use xlink:href="#DejaVuSans-48" transform="translate(2135.9375 0)"/>
     <use xlink:href="#DejaVuSans-7a" transform="translate(2211.132812 0)"/>
    </g>
   </g>
   <g id="legend_1">
    <g id="patch_7">
     <path d="M 57.14375 59.9525 
L 153.10625 59.9525 
Q 155.10625 59.9525 155.10625 57.9525 
L 155.10625 29.318125 
Q 155.10625 27.318125 153.10625 27.318125 
L 57.14375 27.318125 
Q 55.14375 27.318125 55.14375 29.318125 
L 55.14375 57.9525 
Q 55.14375 59.9525 57.14375 59.9525 
z
" style="fill: #ffffff; opacity: 0.8; stroke: #cccccc; stroke-linejoin: miter"/>
    </g>
    <g id="line2d_16">
     <path d="M 59.14375 35.416563 
L 69.14375 35.416563 
L 79.14375 35.416563 
" style="fill: none; stroke: #1f77b4; stroke-width: 0.6; stroke-linecap: square"/>
    </g>
    <g id="text_17">
     <!-- Mf -->
     <g transform="translate(87.14375 38.916563) scale(0.1 -0.1)">
      <use xlink:href="#DejaVuSans-4d"/>
      <use xlink:href="#DejaVuSans-66" transform="translate(86.279297 0)"/>
     </g>
    </g>
    <g id="line2d_17">
     <path d="M 59.14375 50.094688 
L 69.14375 50.094688 
L 79.14375 50.094688 
" style="fill: none; stroke-dasharray: 2.22,0.96; stroke-dashoffset: 0; stroke: #ff0000; stroke-width: 0.6"/>
    </g>
    <g id="text_18">
     <!-- Mf_ISCO_circ -->
     <g transform="translate(87.14375 53.594688) scale(0.1 -0.1)">
      <defs>
       <path id="DejaVuSans-49" d="M 628 4666 
L 1259 4666 
L 1259 0 
L 628 0 
L 628 4666 
z
" transform="scale(0.015625)"/>
       <path id="DejaVuSans-53" d="M 3425 4513 
L 3425 3897 
Q 3066 4069 2747 4153 
Q 2428 4238 2131 4238 
Q 1616 4238 1336 4038 
Q 1056 3838 1056 3469 
Q 1056 3159 1242 3001 
Q 1428 2844 1947 2747 
L 2328 2669 
Q 3034 2534 3370 2195 
Q 3706 1856 3706 1288 
Q 3706 609 3251 259 
Q 2797 -91 1919 -91 
Q 1588 -91 1214 -16 
Q 841 59 441 206 
L 441 856 
Q 825 641 1194 531 
Q 1563 422 1919 422 
Q 2459 422 2753 634 
Q 3047 847 3047 1241 
Q 3047 1584 2836 1778 
Q 2625 1972 2144 2069 
L 1759 2144 
Q 1053 2284 737 2584 
Q 422 2884 422 3419 
Q 422 4038 858 4394 
Q 1294 4750 2059 4750 
Q 2388 4750 2728 4690 
Q 3069 4631 3425 4513 
z
" transform="scale(0.015625)"/>
       <path id="DejaVuSans-43" d="M 4122 4306 
L 4122 3641 
Q 3803 3938 3442 4084 
Q 3081 4231 2675 4231 
Q 1875 4231 1450 3742 
Q 1025 3253 1025 2328 
Q 1025 1406 1450 917 
Q 1875 428 2675 428 
Q 3081 428 3442 575 
Q 3803 722 4122 1019 
L 4122 359 
Q 3791 134 3420 21 
Q 3050 -91 2638 -91 
Q 1578 -91 968 557 
Q 359 1206 359 2328 
Q 359 3453 968 4101 
Q 1578 4750 2638 4750 
Q 3056 4750 3426 4639 
Q 3797 4528 4122 4306 
z
" transform="scale(0.015625)"/>
       <path id="DejaVuSans-4f" d="M 2522 4238 
Q 1834 4238 1429 3725 
Q 1025 3213 1025 2328 
Q 1025 1447 1429 934 
Q 1834 422 2522 422 
Q 3209 422 3611 934 
Q 4013 1447 4013 2328 
Q 4013 3213 3611 3725 
Q 3209 4238 2522 4238 
z
M 2522 4750 
Q 3503 4750 4090 4092 
Q 4678 3434 4678 2328 
Q 4678 1225 4090 567 
Q 3503 -91 2522 -91 
Q 1538 -91 948 565 
Q 359 1222 359 2328 
Q 359 3434 948 4092 
Q 1538 4750 2522 4750 
z
" transform="scale(0.015625)"/>
       <path id="DejaVuSans-63" d="M 3122 3366 
L 3122 2828 
Q 2878 2963 2633 3030 
Q 2388 3097 2138 3097 
Q 1578 3097 1268 2742 
Q 959 2388 959 1747 
Q 959 1106 1268 751 
Q 1578 397 2138 397 
Q 2388 397 2633 464 
Q 2878 531 3122 666 
L 3122 134 
Q 2881 22 2623 -34 
Q 2366 -91 2075 -91 
Q 1284 -91 818 406 
Q 353 903 353 1747 
Q 353 2603 823 3093 
Q 1294 3584 2113 3584 
Q 2378 3584 2631 3529 
Q 2884 3475 3122 3366 
z
" transform="scale(0.015625)"/>
      </defs>
      <use xlink:href="#DejaVuSans-4d"/>
      <use xlink:href="#DejaVuSans-66" transform="translate(86.279297 0)"/>
      <use xlink:href="#DejaVuSans-5f" transform="translate(121.484375 0)"/>
      <use xlink:href="#DejaVuSans-49" transform="translate(171.484375 0)"/>
      <use xlink:href="#DejaVuSans-53" transform="translate(200.976562 0)"/>
      <use xlink:href="#DejaVuSans-43" transform="translate(264.453125 0)"/>
      <use xlink:href="#DejaVuSans-4f" transform="translate(334.277344 0)"/>
      <use xlink:href="#DejaVuSans-5f" transform="translate(412.988281 0)"/>
      <use xlink:href="#DejaVuSans-63" transform="translate(462.988281 0)"/>
      <use xlink:href="#DejaVuSans-69" transform="translate(517.96875 0)"/>
      <use xlink:href="#DejaVuSans-72" transform="translate(545.751953 0)"/>
      <use xlink:href="#DejaVuSans-63" transform="translate(584.615234 0)"/>
     </g>
    </g>
   </g>
  </g>
 </g>
 <defs>
  <clipPath id="p972f77dbe6">
   <rect x="50.14375" y="22.318125" width="669.6" height="277.2"/>
  </clipPath>
 </defs>
</svg>
