<?xml version="1.0" encoding="utf-8" standalone="no"?>
<!DOCTYPE svg PUBLIC "-//W3C//DTD SVG 1.1//EN"
  "http://www.w3.org/Graphics/SVG/1.1/DTD/svg11.dtd">
<svg xmlns:xlink="http://www.w3.org/1999/xlink" width="726.94375pt" height="337.074375pt" viewBox="0 0 726.94375 337.074375" xmlns="http://www.w3.org/2000/svg" version="1.1">
 <metadata>
  <rdf:RDF xmlns:dc="http://purl.org/dc/elements/1.1/" xmlns:cc="http://creativecommons.org/ns#" xmlns:rdf="http://www.w3.org/1999/02/22-rdf-syntax-ns#">
   <cc:Work>
    <dc:type rdf:resource="http://purl.org/dc/dcmitype/StillImage"/>
    <dc:date>2025-07-24T14:39:29.824467</dc:date>
    <dc:format>image/svg+xml</dc:format>
    <dc:creator>
     <cc:Agent>
      <dc:title>Matplotlib v3.10.3, https://matplotlib.org/</dc:title>
     </cc:Agent>
    </dc:creator>
   </cc:Work>
  </rdf:RDF>
 </metadata>
 <defs>
  <style type="text/css">*{stroke-linejoin: round; stroke-linecap: butt}</style>
 </defs>
 <g id="figure_1">
  <g id="patch_1">
   <path d="M 0 337.074375 
L 726.94375 337.074375 
L 726.94375 0 
L 0 0 
z
" style="fill: #ffffff"/>
  </g>
  <g id="axes_1">
   <g id="patch_2">
    <path d="M 50.14375 299.518125 
L 719.74375 299.518125 
L 719.74375 22.318125 
L 50.14375 22.318125 
z
" style="fill: #ffffff"/>
   </g>
   <g id="matplotlib.axis_1">
    <g id="xtick_1">
     <g id="line2d_1">
      <defs>
       <path id="m5c8393bb7b" d="M 0 0 
L 0 3.5 
" style="stroke: #000000; stroke-width: 0.8"/>
      </defs>
      <g>
       <use xlink:href="#m5c8393bb7b" x="59.762409" y="299.518125" style="stroke: #000000; stroke-width: 0.8"/>
      </g>
     </g>
     <g id="text_1">
      <!-- −14000 -->
      <g transform="translate(39.666315 314.116563) scale(0.1 -0.1)">
       <defs>
        <path id="DejaVuSans-2212" d="M 678 2272 
L 4684 2272 
L 4684 1741 
L 678 1741 
L 678 2272 
z
" transform="scale(0.015625)"/>
        <path id="DejaVuSans-31" d="M 794 531 
L 1825 531 
L 1825 4091 
L 703 3866 
L 703 4441 
L 1819 4666 
L 2450 4666 
L 2450 531 
L 3481 531 
L 3481 0 
L 794 0 
L 794 531 
z
" transform="scale(0.015625)"/>
        <path id="DejaVuSans-34" d="M 2419 4116 
L 825 1625 
L 2419 1625 
L 2419 4116 
z
M 2253 4666 
L 3047 4666 
L 3047 1625 
L 3713 1625 
L 3713 1100 
L 3047 1100 
L 3047 0 
L 2419 0 
L 2419 1100 
L 313 1100 
L 313 1709 
L 2253 4666 
z
" transform="scale(0.015625)"/>
        <path id="DejaVuSans-30" d="M 2034 4250 
Q 1547 4250 1301 3770 
Q 1056 3291 1056 2328 
Q 1056 1369 1301 889 
Q 1547 409 2034 409 
Q 2525 409 2770 889 
Q 3016 1369 3016 2328 
Q 3016 3291 2770 3770 
Q 2525 4250 2034 4250 
z
M 2034 4750 
Q 2819 4750 3233 4129 
Q 3647 3509 3647 2328 
Q 3647 1150 3233 529 
Q 2819 -91 2034 -91 
Q 1250 -91 836 529 
Q 422 1150 422 2328 
Q 422 3509 836 4129 
Q 1250 4750 2034 4750 
z
" transform="scale(0.015625)"/>
       </defs>
       <use xlink:href="#DejaVuSans-2212"/>
       <use xlink:href="#DejaVuSans-31" transform="translate(83.789062 0)"/>
       <use xlink:href="#DejaVuSans-34" transform="translate(147.412109 0)"/>
       <use xlink:href="#DejaVuSans-30" transform="translate(211.035156 0)"/>
       <use xlink:href="#DejaVuSans-30" transform="translate(274.658203 0)"/>
       <use xlink:href="#DejaVuSans-30" transform="translate(338.28125 0)"/>
      </g>
     </g>
    </g>
    <g id="xtick_2">
     <g id="line2d_2">
      <g>
       <use xlink:href="#m5c8393bb7b" x="149.306658" y="299.518125" style="stroke: #000000; stroke-width: 0.8"/>
      </g>
     </g>
     <g id="text_2">
      <!-- −12000 -->
      <g transform="translate(129.210565 314.116563) scale(0.1 -0.1)">
       <defs>
        <path id="DejaVuSans-32" d="M 1228 531 
L 3431 531 
L 3431 0 
L 469 0 
L 469 531 
Q 828 903 1448 1529 
Q 2069 2156 2228 2338 
Q 2531 2678 2651 2914 
Q 2772 3150 2772 3378 
Q 2772 3750 2511 3984 
Q 2250 4219 1831 4219 
Q 1534 4219 1204 4116 
Q 875 4013 500 3803 
L 500 4441 
Q 881 4594 1212 4672 
Q 1544 4750 1819 4750 
Q 2544 4750 2975 4387 
Q 3406 4025 3406 3419 
Q 3406 3131 3298 2873 
Q 3191 2616 2906 2266 
Q 2828 2175 2409 1742 
Q 1991 1309 1228 531 
z
" transform="scale(0.015625)"/>
       </defs>
       <use xlink:href="#DejaVuSans-2212"/>
       <use xlink:href="#DejaVuSans-31" transform="translate(83.789062 0)"/>
       <use xlink:href="#DejaVuSans-32" transform="translate(147.412109 0)"/>
       <use xlink:href="#DejaVuSans-30" transform="translate(211.035156 0)"/>
       <use xlink:href="#DejaVuSans-30" transform="translate(274.658203 0)"/>
       <use xlink:href="#DejaVuSans-30" transform="translate(338.28125 0)"/>
      </g>
     </g>
    </g>
    <g id="xtick_3">
     <g id="line2d_3">
      <g>
       <use xlink:href="#m5c8393bb7b" x="238.850908" y="299.518125" style="stroke: #000000; stroke-width: 0.8"/>
      </g>
     </g>
     <g id="text_3">
      <!-- −10000 -->
      <g transform="translate(218.754814 314.116563) scale(0.1 -0.1)">
       <use xlink:href="#DejaVuSans-2212"/>
       <use xlink:href="#DejaVuSans-31" transform="translate(83.789062 0)"/>
       <use xlink:href="#DejaVuSans-30" transform="translate(147.412109 0)"/>
       <use xlink:href="#DejaVuSans-30" transform="translate(211.035156 0)"/>
       <use xlink:href="#DejaVuSans-30" transform="translate(274.658203 0)"/>
       <use xlink:href="#DejaVuSans-30" transform="translate(338.28125 0)"/>
      </g>
     </g>
    </g>
    <g id="xtick_4">
     <g id="line2d_4">
      <g>
       <use xlink:href="#m5c8393bb7b" x="328.395157" y="299.518125" style="stroke: #000000; stroke-width: 0.8"/>
      </g>
     </g>
     <g id="text_4">
      <!-- −8000 -->
      <g transform="translate(311.480313 314.116563) scale(0.1 -0.1)">
       <defs>
        <path id="DejaVuSans-38" d="M 2034 2216 
Q 1584 2216 1326 1975 
Q 1069 1734 1069 1313 
Q 1069 891 1326 650 
Q 1584 409 2034 409 
Q 2484 409 2743 651 
Q 3003 894 3003 1313 
Q 3003 1734 2745 1975 
Q 2488 2216 2034 2216 
z
M 1403 2484 
Q 997 2584 770 2862 
Q 544 3141 544 3541 
Q 544 4100 942 4425 
Q 1341 4750 2034 4750 
Q 2731 4750 3128 4425 
Q 3525 4100 3525 3541 
Q 3525 3141 3298 2862 
Q 3072 2584 2669 2484 
Q 3125 2378 3379 2068 
Q 3634 1759 3634 1313 
Q 3634 634 3220 271 
Q 2806 -91 2034 -91 
Q 1263 -91 848 271 
Q 434 634 434 1313 
Q 434 1759 690 2068 
Q 947 2378 1403 2484 
z
M 1172 3481 
Q 1172 3119 1398 2916 
Q 1625 2713 2034 2713 
Q 2441 2713 2670 2916 
Q 2900 3119 2900 3481 
Q 2900 3844 2670 4047 
Q 2441 4250 2034 4250 
Q 1625 4250 1398 4047 
Q 1172 3844 1172 3481 
z
" transform="scale(0.015625)"/>
       </defs>
       <use xlink:href="#DejaVuSans-2212"/>
       <use xlink:href="#DejaVuSans-38" transform="translate(83.789062 0)"/>
       <use xlink:href="#DejaVuSans-30" transform="translate(147.412109 0)"/>
       <use xlink:href="#DejaVuSans-30" transform="translate(211.035156 0)"/>
       <use xlink:href="#DejaVuSans-30" transform="translate(274.658203 0)"/>
      </g>
     </g>
    </g>
    <g id="xtick_5">
     <g id="line2d_5">
      <g>
       <use xlink:href="#m5c8393bb7b" x="417.939407" y="299.518125" style="stroke: #000000; stroke-width: 0.8"/>
      </g>
     </g>
     <g id="text_5">
      <!-- −6000 -->
      <g transform="translate(401.024563 314.116563) scale(0.1 -0.1)">
       <defs>
        <path id="DejaVuSans-36" d="M 2113 2584 
Q 1688 2584 1439 2293 
Q 1191 2003 1191 1497 
Q 1191 994 1439 701 
Q 1688 409 2113 409 
Q 2538 409 2786 701 
Q 3034 994 3034 1497 
Q 3034 2003 2786 2293 
Q 2538 2584 2113 2584 
z
M 3366 4563 
L 3366 3988 
Q 3128 4100 2886 4159 
Q 2644 4219 2406 4219 
Q 1781 4219 1451 3797 
Q 1122 3375 1075 2522 
Q 1259 2794 1537 2939 
Q 1816 3084 2150 3084 
Q 2853 3084 3261 2657 
Q 3669 2231 3669 1497 
Q 3669 778 3244 343 
Q 2819 -91 2113 -91 
Q 1303 -91 875 529 
Q 447 1150 447 2328 
Q 447 3434 972 4092 
Q 1497 4750 2381 4750 
Q 2619 4750 2861 4703 
Q 3103 4656 3366 4563 
z
" transform="scale(0.015625)"/>
       </defs>
       <use xlink:href="#DejaVuSans-2212"/>
       <use xlink:href="#DejaVuSans-36" transform="translate(83.789062 0)"/>
       <use xlink:href="#DejaVuSans-30" transform="translate(147.412109 0)"/>
       <use xlink:href="#DejaVuSans-30" transform="translate(211.035156 0)"/>
       <use xlink:href="#DejaVuSans-30" transform="translate(274.658203 0)"/>
      </g>
     </g>
    </g>
    <g id="xtick_6">
     <g id="line2d_6">
      <g>
       <use xlink:href="#m5c8393bb7b" x="507.483656" y="299.518125" style="stroke: #000000; stroke-width: 0.8"/>
      </g>
     </g>
     <g id="text_6">
      <!-- −4000 -->
      <g transform="translate(490.568812 314.116563) scale(0.1 -0.1)">
       <use xlink:href="#DejaVuSans-2212"/>
       <use xlink:href="#DejaVuSans-34" transform="translate(83.789062 0)"/>
       <use xlink:href="#DejaVuSans-30" transform="translate(147.412109 0)"/>
       <use xlink:href="#DejaVuSans-30" transform="translate(211.035156 0)"/>
       <use xlink:href="#DejaVuSans-30" transform="translate(274.658203 0)"/>
      </g>
     </g>
    </g>
    <g id="xtick_7">
     <g id="line2d_7">
      <g>
       <use xlink:href="#m5c8393bb7b" x="597.027905" y="299.518125" style="stroke: #000000; stroke-width: 0.8"/>
      </g>
     </g>
     <g id="text_7">
      <!-- −2000 -->
      <g transform="translate(580.113062 314.116563) scale(0.1 -0.1)">
       <use xlink:href="#DejaVuSans-2212"/>
       <use xlink:href="#DejaVuSans-32" transform="translate(83.789062 0)"/>
       <use xlink:href="#DejaVuSans-30" transform="translate(147.412109 0)"/>
       <use xlink:href="#DejaVuSans-30" transform="translate(211.035156 0)"/>
       <use xlink:href="#DejaVuSans-30" transform="translate(274.658203 0)"/>
      </g>
     </g>
    </g>
    <g id="xtick_8">
     <g id="line2d_8">
      <g>
       <use xlink:href="#m5c8393bb7b" x="686.572155" y="299.518125" style="stroke: #000000; stroke-width: 0.8"/>
      </g>
     </g>
     <g id="text_8">
      <!-- 0 -->
      <g transform="translate(683.390905 314.116563) scale(0.1 -0.1)">
       <use xlink:href="#DejaVuSans-30"/>
      </g>
     </g>
    </g>
    <g id="text_9">
     <!-- t [M] -->
     <g transform="translate(373.178906 327.794688) scale(0.1 -0.1)">
      <defs>
       <path id="DejaVuSans-74" d="M 1172 4494 
L 1172 3500 
L 2356 3500 
L 2356 3053 
L 1172 3053 
L 1172 1153 
Q 1172 725 1289 603 
Q 1406 481 1766 481 
L 2356 481 
L 2356 0 
L 1766 0 
Q 1100 0 847 248 
Q 594 497 594 1153 
L 594 3053 
L 172 3053 
L 172 3500 
L 594 3500 
L 594 4494 
L 1172 4494 
z
" transform="scale(0.015625)"/>
       <path id="DejaVuSans-20" transform="scale(0.015625)"/>
       <path id="DejaVuSans-5b" d="M 550 4863 
L 1875 4863 
L 1875 4416 
L 1125 4416 
L 1125 -397 
L 1875 -397 
L 1875 -844 
L 550 -844 
L 550 4863 
z
" transform="scale(0.015625)"/>
       <path id="DejaVuSans-4d" d="M 628 4666 
L 1569 4666 
L 2759 1491 
L 3956 4666 
L 4897 4666 
L 4897 0 
L 4281 0 
L 4281 4097 
L 3078 897 
L 2444 897 
L 1241 4097 
L 1241 0 
L 628 0 
L 628 4666 
z
" transform="scale(0.015625)"/>
       <path id="DejaVuSans-5d" d="M 1947 4863 
L 1947 -844 
L 622 -844 
L 622 -397 
L 1369 -397 
L 1369 4416 
L 622 4416 
L 622 4863 
L 1947 4863 
z
" transform="scale(0.015625)"/>
      </defs>
      <use xlink:href="#DejaVuSans-74"/>
      <use xlink:href="#DejaVuSans-20" transform="translate(39.208984 0)"/>
      <use xlink:href="#DejaVuSans-5b" transform="translate(70.996094 0)"/>
      <use xlink:href="#DejaVuSans-4d" transform="translate(110.009766 0)"/>
      <use xlink:href="#DejaVuSans-5d" transform="translate(196.289062 0)"/>
     </g>
    </g>
   </g>
   <g id="matplotlib.axis_2">
    <g id="ytick_1">
     <g id="line2d_9">
      <defs>
       <path id="m34191737d8" d="M 0 0 
L -3.5 0 
" style="stroke: #000000; stroke-width: 0.8"/>
      </defs>
      <g>
       <use xlink:href="#m34191737d8" x="50.14375" y="291.651497" style="stroke: #000000; stroke-width: 0.8"/>
      </g>
     </g>
     <g id="text_10">
      <!-- 0.00 -->
      <g transform="translate(20.878125 295.450716) scale(0.1 -0.1)">
       <defs>
        <path id="DejaVuSans-2e" d="M 684 794 
L 1344 794 
L 1344 0 
L 684 0 
L 684 794 
z
" transform="scale(0.015625)"/>
       </defs>
       <use xlink:href="#DejaVuSans-30"/>
       <use xlink:href="#DejaVuSans-2e" transform="translate(63.623047 0)"/>
       <use xlink:href="#DejaVuSans-30" transform="translate(95.410156 0)"/>
       <use xlink:href="#DejaVuSans-30" transform="translate(159.033203 0)"/>
      </g>
     </g>
    </g>
    <g id="ytick_2">
     <g id="line2d_10">
      <g>
       <use xlink:href="#m34191737d8" x="50.14375" y="233.358113" style="stroke: #000000; stroke-width: 0.8"/>
      </g>
     </g>
     <g id="text_11">
      <!-- 0.02 -->
      <g transform="translate(20.878125 237.157331) scale(0.1 -0.1)">
       <use xlink:href="#DejaVuSans-30"/>
       <use xlink:href="#DejaVuSans-2e" transform="translate(63.623047 0)"/>
       <use xlink:href="#DejaVuSans-30" transform="translate(95.410156 0)"/>
       <use xlink:href="#DejaVuSans-32" transform="translate(159.033203 0)"/>
      </g>
     </g>
    </g>
    <g id="ytick_3">
     <g id="line2d_11">
      <g>
       <use xlink:href="#m34191737d8" x="50.14375" y="175.064729" style="stroke: #000000; stroke-width: 0.8"/>
      </g>
     </g>
     <g id="text_12">
      <!-- 0.04 -->
      <g transform="translate(20.878125 178.863947) scale(0.1 -0.1)">
       <use xlink:href="#DejaVuSans-30"/>
       <use xlink:href="#DejaVuSans-2e" transform="translate(63.623047 0)"/>
       <use xlink:href="#DejaVuSans-30" transform="translate(95.410156 0)"/>
       <use xlink:href="#DejaVuSans-34" transform="translate(159.033203 0)"/>
      </g>
     </g>
    </g>
    <g id="ytick_4">
     <g id="line2d_12">
      <g>
       <use xlink:href="#m34191737d8" x="50.14375" y="116.771345" style="stroke: #000000; stroke-width: 0.8"/>
      </g>
     </g>
     <g id="text_13">
      <!-- 0.06 -->
      <g transform="translate(20.878125 120.570563) scale(0.1 -0.1)">
       <use xlink:href="#DejaVuSans-30"/>
       <use xlink:href="#DejaVuSans-2e" transform="translate(63.623047 0)"/>
       <use xlink:href="#DejaVuSans-30" transform="translate(95.410156 0)"/>
       <use xlink:href="#DejaVuSans-36" transform="translate(159.033203 0)"/>
      </g>
     </g>
    </g>
    <g id="ytick_5">
     <g id="line2d_13">
      <g>
       <use xlink:href="#m34191737d8" x="50.14375" y="58.47796" style="stroke: #000000; stroke-width: 0.8"/>
      </g>
     </g>
     <g id="text_14">
      <!-- 0.08 -->
      <g transform="translate(20.878125 62.277179) scale(0.1 -0.1)">
       <use xlink:href="#DejaVuSans-30"/>
       <use xlink:href="#DejaVuSans-2e" transform="translate(63.623047 0)"/>
       <use xlink:href="#DejaVuSans-30" transform="translate(95.410156 0)"/>
       <use xlink:href="#DejaVuSans-38" transform="translate(159.033203 0)"/>
      </g>
     </g>
    </g>
    <g id="text_15">
     <!-- Mf -->
     <g transform="translate(14.798437 166.992344) rotate(-90) scale(0.1 -0.1)">
      <defs>
       <path id="DejaVuSans-66" d="M 2375 4863 
L 2375 4384 
L 1825 4384 
Q 1516 4384 1395 4259 
Q 1275 4134 1275 3809 
L 1275 3500 
L 2222 3500 
L 2222 3053 
L 1275 3053 
L 1275 0 
L 697 0 
L 697 3053 
L 147 3053 
L 147 3500 
L 697 3500 
L 697 3744 
Q 697 4328 969 4595 
Q 1241 4863 1831 4863 
L 2375 4863 
z
" transform="scale(0.015625)"/>
      </defs>
      <use xlink:href="#DejaVuSans-4d"/>
      <use xlink:href="#DejaVuSans-66" transform="translate(86.279297 0)"/>
     </g>
    </g>
   </g>
   <g id="line2d_14">
    <path d="M 80.580114 276.658609 
L 80.803227 276.183629 
L 81.100711 275.725523 
L 81.323824 275.690026 
L 81.546938 275.930727 
L 81.918793 276.835714 
L 83.406215 281.216599 
L 83.852441 281.791087 
L 84.224296 281.973541 
L 84.596152 281.919486 
L 85.042378 281.589672 
L 85.637347 280.794274 
L 86.5298 279.116979 
L 87.719737 276.907713 
L 88.314706 276.268229 
L 88.984045 275.929152 
L 89.653385 275.577555 
L 90.099612 275.102565 
L 90.620209 274.192193 
L 91.289549 272.489455 
L 93.371939 266.687815 
L 93.818166 266.092334 
L 94.190021 265.896875 
L 94.487505 265.945758 
L 94.859361 266.258707 
L 95.305587 266.97454 
L 95.900556 268.397259 
L 97.164864 272.221041 
L 98.057317 274.558191 
L 98.726657 275.746128 
L 99.470367 276.5989 
L 100.511563 277.775522 
L 101.478387 279.314714 
L 102.668324 281.125434 
L 103.337663 281.777403 
L 103.858261 281.986742 
L 104.230116 281.931217 
L 104.601972 281.678334 
L 105.048198 281.108995 
L 106.53562 278.858315 
L 106.833104 278.905503 
L 107.130588 279.200087 
L 107.651186 280.109276 
L 108.692381 281.989659 
L 109.28735 282.590857 
L 109.733576 282.761956 
L 110.179803 282.692736 
L 110.626029 282.392712 
L 111.295369 281.607794 
L 112.113451 280.652846 
L 112.485306 280.487066 
L 112.857161 280.56448 
L 113.303388 280.913158 
L 114.418954 281.90794 
L 114.865181 282.018895 
L 115.311407 281.90864 
L 115.906376 281.485181 
L 116.8732 280.745781 
L 117.245055 280.727764 
L 117.61691 280.954294 
L 118.137508 281.625293 
L 119.476187 283.536131 
L 119.922414 283.786121 
L 120.36864 283.766723 
L 120.814867 283.484005 
L 121.335464 282.852168 
L 122.153546 281.418868 
L 122.822886 280.377745 
L 123.194741 280.139262 
L 123.492226 280.199751 
L 123.864081 280.573436 
L 124.533421 281.721897 
L 125.277131 282.884892 
L 125.797729 283.300229 
L 126.243955 283.353888 
L 126.690182 283.153014 
L 127.210779 282.65253 
L 127.95449 281.590696 
L 129.590654 279.132045 
L 130.408736 278.41055 
L 131.226818 277.682265 
L 131.821786 276.808926 
L 132.491126 275.358421 
L 134.871001 269.568092 
L 135.317227 269.167175 
L 135.689082 269.116186 
L 136.060938 269.325259 
L 136.507164 269.897749 
L 137.102133 271.113971 
L 138.143328 273.920941 
L 139.258894 276.732182 
L 140.002605 278.055159 
L 141.118171 279.490881 
L 142.382479 281.269913 
L 143.572417 282.870306 
L 144.241756 283.445722 
L 144.762354 283.642622 
L 145.20858 283.605663 
L 145.729178 283.321721 
L 147.365342 282.166813 
L 147.737197 282.305344 
L 148.257795 282.807877 
L 149.819587 284.57239 
L 150.414556 284.828594 
L 150.935153 284.810136 
L 151.530122 284.551474 
L 153.091915 283.72021 
L 153.612512 283.794897 
L 154.430594 284.219954 
L 155.248676 284.558892 
L 155.843644 284.556131 
L 156.512984 284.304802 
L 157.702921 283.799927 
L 158.149148 283.851699 
L 158.669745 284.154488 
L 160.529022 285.530081 
L 160.975249 285.499448 
L 161.495846 285.216506 
L 162.090815 284.611702 
L 163.578237 282.940636 
L 163.950092 282.869055 
L 164.321947 283.017451 
L 164.842545 283.498573 
L 165.88374 284.520603 
L 166.404338 284.700853 
L 166.850564 284.61744 
L 167.371162 284.264143 
L 168.040501 283.493938 
L 170.643489 280.104179 
L 171.535942 279.073885 
L 172.205282 277.904558 
L 173.023363 275.948068 
L 174.510785 272.270987 
L 175.105754 271.410541 
L 175.55198 271.155092 
L 175.923836 271.218479 
L 176.295691 271.527739 
L 176.741917 272.19188 
L 177.411257 273.647911 
L 179.71676 279.136423 
L 180.683585 280.585032 
L 183.584057 284.337644 
L 184.253396 284.754229 
L 184.773994 284.83954 
L 185.368962 284.686226 
L 186.930755 284.08408 
L 187.376982 284.249547 
L 187.97195 284.737231 
L 189.31063 285.925365 
L 189.905598 286.155023 
L 190.500567 286.148733 
L 191.244278 285.888077 
L 192.359844 285.481182 
L 192.954812 285.510231 
L 193.847265 285.826424 
L 194.739718 286.053873 
L 195.409058 285.985687 
L 197.491448 285.500835 
L 198.086417 285.76228 
L 199.648209 286.588512 
L 200.168807 286.553508 
L 200.689404 286.296809 
L 201.358744 285.697631 
L 202.623052 284.500686 
L 203.069279 284.378298 
L 203.515505 284.487686 
L 204.259216 284.984726 
L 205.002927 285.405302 
L 205.523525 285.442944 
L 206.044122 285.222251 
L 206.639091 284.685694 
L 207.531544 283.506867 
L 209.167707 281.314217 
L 210.357645 279.764392 
L 211.101355 278.327428 
L 212.14255 275.699575 
L 213.183746 273.252796 
L 213.704343 272.483495 
L 214.15057 272.181031 
L 214.522425 272.203648 
L 214.89428 272.473226 
L 215.340507 273.093183 
L 216.009847 274.491763 
L 218.464092 280.16463 
L 219.654029 281.956588 
L 221.513306 284.424604 
L 222.257017 285.062155 
L 222.851986 285.309566 
L 223.446954 285.314275 
L 225.380602 285.05719 
L 225.975571 285.415182 
L 227.686106 286.616292 
L 228.355445 286.722066 
L 229.099156 286.577875 
L 230.512207 286.223434 
L 231.255917 286.331642 
L 232.743339 286.648421 
L 233.48705 286.531941 
L 235.123214 286.142998 
L 235.792553 286.306674 
L 237.503088 286.918125 
L 238.023686 286.808983 
L 238.618654 286.452459 
L 240.626673 284.948014 
L 241.147271 284.993098 
L 243.006548 285.49504 
L 243.527145 285.238355 
L 244.122114 284.678798 
L 245.014567 283.488865 
L 248.138152 278.771877 
L 249.104976 276.394117 
L 250.294913 273.494757 
L 250.889882 272.594597 
L 251.336109 272.309124 
L 251.707964 272.351146 
L 252.079819 272.642937 
L 252.526046 273.289248 
L 253.195385 274.715168 
L 255.500889 280.082306 
L 256.690826 281.970785 
L 258.252619 284.070706 
L 259.070701 284.804805 
L 259.74004 285.096626 
L 260.40938 285.122185 
L 261.822431 285.039386 
L 262.417399 285.288915 
L 264.648531 286.515888 
L 265.317871 286.495743 
L 267.474632 286.215855 
L 269.482652 286.457093 
L 270.598218 286.169112 
L 271.4163 286.051817 
L 272.16001 286.194648 
L 273.647432 286.586576 
L 274.242401 286.454225 
L 274.91174 286.047193 
L 276.622275 284.841587 
L 277.217244 284.810971 
L 278.927778 285.001339 
L 279.448376 284.722467 
L 280.043345 284.150329 
L 281.010169 282.840943 
L 283.538785 278.923606 
L 284.356867 277.053002 
L 286.141773 272.754452 
L 286.662371 272.1106 
L 287.034226 271.94783 
L 287.406081 272.046391 
L 287.777937 272.396499 
L 288.298534 273.252543 
L 289.042245 274.978474 
L 290.827151 279.263054 
L 291.942717 281.214561 
L 293.355768 283.24331 
L 294.173849 284.09873 
L 294.843189 284.516108 
L 295.512529 284.677209 
L 297.297435 284.905898 
L 298.189888 285.435295 
L 299.231083 286.011796 
L 299.974793 286.158853 
L 300.867246 286.070491 
L 302.057184 285.961548 
L 303.247121 286.154752 
L 304.213945 286.203462 
L 305.25514 285.990755 
L 306.221964 285.851049 
L 307.040046 285.976311 
L 308.229983 286.193023 
L 308.824952 286.077594 
L 309.494291 285.714037 
L 311.279197 284.569032 
L 311.948537 284.516015 
L 313.212845 284.493327 
L 313.807814 284.181964 
L 314.477154 283.524582 
L 315.443978 282.185584 
L 317.451997 278.974032 
L 318.270079 277.206518 
L 320.501211 272.007015 
L 320.947437 271.606 
L 321.319293 271.560423 
L 321.691148 271.779799 
L 322.137375 272.364081 
L 322.732343 273.571726 
L 325.781558 280.501731 
L 327.045866 282.439375 
L 327.938319 283.458257 
L 328.68203 283.979256 
L 329.42574 284.217493 
L 330.987533 284.604834 
L 332.326212 285.375429 
L 333.144294 285.692955 
L 333.962376 285.755475 
L 336.044766 285.742126 
L 337.532188 285.881828 
L 338.647754 285.690516 
L 339.688949 285.582053 
L 340.953257 285.756878 
L 341.696968 285.731632 
L 342.366308 285.478736 
L 343.407503 284.775699 
L 344.299956 284.280149 
L 345.043667 284.132679 
L 346.159233 283.946175 
L 346.754201 283.590333 
L 347.423541 282.901107 
L 348.390365 281.523103 
L 350.026529 278.784309 
L 350.918982 276.85572 
L 353.150114 271.611283 
L 353.596341 271.198882 
L 353.968196 271.149329 
L 354.340051 271.370419 
L 354.786278 271.963115 
L 355.381247 273.187495 
L 358.430461 280.220279 
L 359.546027 281.958604 
L 360.43848 282.974119 
L 361.182191 283.49704 
L 362.074644 283.826153 
L 363.264581 284.268871 
L 365.495713 285.2995 
L 366.462537 285.341428 
L 367.949959 285.398516 
L 369.511751 285.51991 
L 370.999173 285.291287 
L 372.040368 285.2851 
L 373.304676 285.305805 
L 373.974016 285.088817 
L 374.94084 284.493483 
L 376.056406 283.868741 
L 378.287539 282.955793 
L 378.956878 282.216525 
L 379.923702 280.775444 
L 381.336753 278.262068 
L 382.303577 276.070786 
L 384.237225 271.381942 
L 384.683451 270.84852 
L 385.055307 270.695543 
L 385.427162 270.820743 
L 385.799017 271.211307 
L 386.319615 272.13512 
L 387.137697 274.141845 
L 388.773861 278.200216 
L 389.889427 280.318417 
L 390.930622 281.840852 
L 391.748704 282.663864 
L 392.566785 283.166116 
L 396.508453 284.884867 
L 399.78078 285.134141 
L 400.896346 285.012462 
L 402.309397 284.885447 
L 403.722447 284.810865 
L 404.466158 284.5188 
L 408.482196 282.218976 
L 409.225907 281.28891 
L 410.267102 279.587378 
L 411.457039 277.250946 
L 412.498234 274.677544 
L 413.911285 271.174594 
L 414.431882 270.43615 
L 414.803738 270.222309 
L 415.101222 270.25543 
L 415.473077 270.547281 
L 415.919304 271.225839 
L 416.588644 272.732936 
L 419.042889 278.750331 
L 420.084084 280.566603 
L 420.976537 281.712319 
L 421.794619 282.412199 
L 423.058927 283.131062 
L 425.438802 284.317477 
L 426.479997 284.47426 
L 429.677953 284.636421 
L 433.322136 284.033784 
L 434.586445 283.248164 
L 437.263803 281.455969 
L 438.081885 280.322961 
L 439.197451 278.323899 
L 440.313018 275.871812 
L 442.767263 270.045754 
L 443.21349 269.711672 
L 443.510974 269.718725 
L 443.882829 269.984854 
L 444.329056 270.644473 
L 444.998395 272.146651 
L 447.601383 278.569508 
L 448.568207 280.222429 
L 449.46066 281.32252 
L 450.353113 282.064756 
L 452.361132 283.319536 
L 453.402327 283.766664 
L 454.517893 283.979026 
L 456.972139 284.187365 
L 458.980158 283.944767 
L 460.318837 283.706597 
L 461.21129 283.275806 
L 463.814278 281.547123 
L 464.557989 280.799976 
L 465.376071 279.619963 
L 466.417266 277.669257 
L 467.532832 275.096542 
L 469.763964 269.622646 
L 470.210191 269.184322 
L 470.582046 269.136993 
L 470.953902 269.383213 
L 471.400128 270.029902 
L 471.995097 271.343983 
L 474.96994 278.627055 
L 475.862393 280.036539 
L 476.754846 281.040298 
L 477.870412 281.93232 
L 479.432204 282.911496 
L 480.399029 283.266506 
L 481.960821 283.547603 
L 483.373872 283.632938 
L 484.935664 283.43476 
L 486.571828 283.080359 
L 487.464281 282.616494 
L 489.249187 281.334657 
L 490.216011 280.449592 
L 490.959722 279.464321 
L 491.852175 277.885149 
L 492.967741 275.410045 
L 494.30642 271.798587 
L 495.273244 269.435207 
L 495.793842 268.685983 
L 496.165697 268.48496 
L 496.463181 268.541766 
L 496.835037 268.877681 
L 497.281263 269.622372 
L 497.950603 271.2307 
L 500.256106 277.181744 
L 501.22293 278.940039 
L 502.115383 280.117478 
L 503.156578 281.105467 
L 504.495258 282.065969 
L 505.536453 282.545342 
L 506.800761 282.85163 
L 508.213812 282.997475 
L 509.403749 282.886687 
L 511.188655 282.495759 
L 512.081108 282.071922 
L 513.196674 281.266931 
L 514.535353 280.068136 
L 515.353435 279.036347 
L 516.171517 277.632858 
L 517.212712 275.351476 
L 518.402649 272.16851 
L 519.666958 268.861348 
L 520.187555 268.036048 
L 520.559411 267.779391 
L 520.856895 267.795617 
L 521.22875 268.089913 
L 521.674977 268.801895 
L 522.344316 270.397833 
L 524.798562 276.786197 
L 525.765386 278.501638 
L 526.657839 279.655412 
L 527.773405 280.718525 
L 528.888971 281.48356 
L 529.930166 281.916948 
L 531.268846 282.20793 
L 532.384412 282.245302 
L 533.723091 282.0338 
L 534.9874 281.630794 
L 535.879853 281.106616 
L 536.995419 280.175279 
L 538.110985 278.972518 
L 538.929067 277.751439 
L 539.82152 275.981388 
L 540.862715 273.394454 
L 543.093847 267.554318 
L 543.540074 267.042435 
L 543.911929 266.95201 
L 544.209413 267.107669 
L 544.581269 267.569611 
L 545.101866 268.627835 
L 545.994319 271.071908 
L 547.481741 275.098274 
L 548.448565 277.087228 
L 549.341018 278.453014 
L 550.307842 279.550105 
L 551.349037 280.4101 
L 552.315861 280.93197 
L 553.431427 281.274527 
L 554.546993 281.392949 
L 555.662559 281.267242 
L 556.852497 280.91671 
L 557.74495 280.446638 
L 558.711774 279.666029 
L 559.752969 278.544434 
L 560.645422 277.264636 
L 561.463503 275.701843 
L 562.430327 273.357153 
L 563.99212 268.837987 
L 564.810202 266.843977 
L 565.256428 266.203073 
L 565.628284 266.002012 
L 565.925768 266.0756 
L 566.297623 266.451417 
L 566.74385 267.263344 
L 567.487561 269.199759 
L 569.49558 274.710055 
L 570.462404 276.613106 
L 571.429228 278.010222 
L 572.396052 279.025706 
L 573.362876 279.71966 
L 574.3297 280.142207 
L 575.370895 280.353165 
L 576.337719 280.312158 
L 577.378914 280.041553 
L 578.345738 279.577596 
L 579.238191 278.890636 
L 580.205015 277.850255 
L 581.097468 276.591611 
L 581.91555 275.057047 
L 582.808003 272.88884 
L 584.072311 269.157379 
L 585.187877 266.05654 
L 585.708475 265.1687 
L 586.08033 264.893202 
L 586.377815 264.912485 
L 586.675299 265.143561 
L 587.121525 265.848847 
L 587.716494 267.298113 
L 590.468224 274.700531 
L 591.435048 276.369414 
L 592.401872 277.584538 
L 593.294325 278.360519 
L 594.186778 278.846571 
L 595.079231 279.090838 
L 595.971684 279.101754 
L 596.864137 278.886025 
L 597.756589 278.446284 
L 598.649042 277.737566 
L 599.541495 276.724458 
L 600.433948 275.360242 
L 601.326401 273.543712 
L 602.293225 270.998616 
L 604.747471 264.064043 
L 605.193697 263.581816 
L 605.491182 263.531247 
L 605.788666 263.702643 
L 606.160521 264.208142 
L 606.681119 265.357483 
L 607.647943 268.209667 
L 608.986622 272.029306 
L 609.953446 274.117912 
L 610.845899 275.532985 
L 611.738352 276.525905 
L 612.556434 277.117097 
L 613.374516 277.447848 
L 614.192598 277.538839 
L 615.01068 277.39242 
L 615.828761 277.010868 
L 616.646843 276.365662 
L 617.464925 275.412398 
L 618.283007 274.118401 
L 619.101089 272.424522 
L 619.993542 270.056735 
L 621.406592 265.518628 
L 622.299045 262.975049 
L 622.819643 262.079478 
L 623.191498 261.833979 
L 623.488982 261.896409 
L 623.786467 262.183512 
L 624.232693 262.985726 
L 624.902033 264.780188 
L 627.133165 271.233903 
L 628.025618 273.002336 
L 628.8437 274.1656 
L 629.661782 274.941152 
L 630.405493 275.350226 
L 631.149203 275.498811 
L 631.818543 275.415591 
L 632.562254 275.084074 
L 633.305965 274.486614 
L 634.049675 273.589839 
L 634.867757 272.218036 
L 635.685839 270.392424 
L 636.578292 267.839653 
L 639.106909 260.08926 
L 639.478764 259.66838 
L 639.776248 259.597645 
L 640.073733 259.767071 
L 640.445588 260.292654 
L 640.966186 261.50043 
L 641.93301 264.48908 
L 643.197318 268.229499 
L 644.089771 270.203427 
L 644.907853 271.476534 
L 645.651564 272.22011 
L 646.320903 272.57986 
L 646.915872 272.669763 
L 647.510841 272.546936 
L 648.105809 272.210499 
L 648.775149 271.565045 
L 649.444489 270.612661 
L 650.188199 269.160999 
L 651.006281 267.022841 
L 651.973105 263.809534 
L 653.758011 257.646635 
L 654.278609 256.667196 
L 654.650464 256.413594 
L 654.947948 256.49602 
L 655.245433 256.821132 
L 655.691659 257.700094 
L 656.360999 259.611785 
L 658.220276 265.207012 
L 658.963987 266.725494 
L 659.633326 267.663919 
L 660.228295 268.17038 
L 660.748892 268.36941 
L 661.26949 268.34515 
L 661.790088 268.082744 
L 662.385056 267.492069 
L 662.980025 266.583955 
L 663.649364 265.159979 
L 664.393075 263.053617 
L 665.285528 259.821466 
L 667.219176 252.491017 
L 667.665403 251.581957 
L 668.037258 251.26283 
L 668.334742 251.307484 
L 668.632227 251.603331 
L 669.078453 252.44128 
L 669.822164 254.474665 
L 671.235214 258.409742 
L 671.904554 259.652977 
L 672.499523 260.309381 
L 672.945749 260.507465 
L 673.391976 260.443689 
L 673.838202 260.120453 
L 674.3588 259.412343 
L 674.879397 258.329751 
L 675.474366 256.580561 
L 676.292448 253.411476 
L 677.259272 248.565249 
L 678.746693 241.121867 
L 679.267291 239.527221 
L 679.862259 238.408008 
L 680.457228 238.178383 
L 681.498423 238.437346 
L 681.721536 238.332871 
L 682.093392 238.061662 
L 682.390876 237.573492 
L 682.68836 236.797645 
L 682.985845 235.639056 
L 683.506442 232.516155 
L 684.02704 227.667276 
L 684.547637 220.278443 
L 684.993864 210.725156 
L 685.514461 194.447771 
L 686.035059 171.577665 
L 686.406914 142.372329 
L 687.448109 45.354216 
L 687.745594 38.719593 
L 688.043078 36.250849 
L 688.340562 35.372464 
L 688.638047 35.064954 
L 689.084273 34.934513 
L 689.307386 34.918125 
L 689.307386 34.918125 
" clip-path="url(#pc62c5416d5)" style="fill: none; stroke: #1f77b4; stroke-width: 0.6; stroke-linecap: square"/>
   </g>
   <g id="line2d_15">
    <path d="M 50.14375 228.524879 
L 719.74375 228.524879 
" clip-path="url(#pc62c5416d5)" style="fill: none; stroke-dasharray: 2.22,0.96; stroke-dashoffset: 0; stroke: #ff0000; stroke-width: 0.6"/>
   </g>
   <g id="patch_3">
    <path d="M 50.14375 299.518125 
L 50.14375 22.318125 
" style="fill: none; stroke: #000000; stroke-width: 0.8; stroke-linejoin: miter; stroke-linecap: square"/>
   </g>
   <g id="patch_4">
    <path d="M 719.74375 299.518125 
L 719.74375 22.318125 
" style="fill: none; stroke: #000000; stroke-width: 0.8; stroke-linejoin: miter; stroke-linecap: square"/>
   </g>
   <g id="patch_5">
    <path d="M 50.14375 299.518125 
L 719.74375 299.518125 
" style="fill: none; stroke: #000000; stroke-width: 0.8; stroke-linejoin: miter; stroke-linecap: square"/>
   </g>
   <g id="patch_6">
    <path d="M 50.14375 22.318125 
L 719.74375 22.318125 
" style="fill: none; stroke: #000000; stroke-width: 0.8; stroke-linejoin: miter; stroke-linecap: square"/>
   </g>
   <g id="text_16">
    <!-- Mf vs Time for M=60, e=0.27, f_lower=10 Hz -->
    <g transform="translate(249.127188 16.318125) scale(0.12 -0.12)">
     <defs>
      <path id="DejaVuSans-76" d="M 191 3500 
L 800 3500 
L 1894 563 
L 2988 3500 
L 3597 3500 
L 2284 0 
L 1503 0 
L 191 3500 
z
" transform="scale(0.015625)"/>
      <path id="DejaVuSans-73" d="M 2834 3397 
L 2834 2853 
Q 2591 2978 2328 3040 
Q 2066 3103 1784 3103 
Q 1356 3103 1142 2972 
Q 928 2841 928 2578 
Q 928 2378 1081 2264 
Q 1234 2150 1697 2047 
L 1894 2003 
Q 2506 1872 2764 1633 
Q 3022 1394 3022 966 
Q 3022 478 2636 193 
Q 2250 -91 1575 -91 
Q 1294 -91 989 -36 
Q 684 19 347 128 
L 347 722 
Q 666 556 975 473 
Q 1284 391 1588 391 
Q 1994 391 2212 530 
Q 2431 669 2431 922 
Q 2431 1156 2273 1281 
Q 2116 1406 1581 1522 
L 1381 1569 
Q 847 1681 609 1914 
Q 372 2147 372 2553 
Q 372 3047 722 3315 
Q 1072 3584 1716 3584 
Q 2034 3584 2315 3537 
Q 2597 3491 2834 3397 
z
" transform="scale(0.015625)"/>
      <path id="DejaVuSans-54" d="M -19 4666 
L 3928 4666 
L 3928 4134 
L 2272 4134 
L 2272 0 
L 1638 0 
L 1638 4134 
L -19 4134 
L -19 4666 
z
" transform="scale(0.015625)"/>
      <path id="DejaVuSans-69" d="M 603 3500 
L 1178 3500 
L 1178 0 
L 603 0 
L 603 3500 
z
M 603 4863 
L 1178 4863 
L 1178 4134 
L 603 4134 
L 603 4863 
z
" transform="scale(0.015625)"/>
      <path id="DejaVuSans-6d" d="M 3328 2828 
Q 3544 3216 3844 3400 
Q 4144 3584 4550 3584 
Q 5097 3584 5394 3201 
Q 5691 2819 5691 2113 
L 5691 0 
L 5113 0 
L 5113 2094 
Q 5113 2597 4934 2840 
Q 4756 3084 4391 3084 
Q 3944 3084 3684 2787 
Q 3425 2491 3425 1978 
L 3425 0 
L 2847 0 
L 2847 2094 
Q 2847 2600 2669 2842 
Q 2491 3084 2119 3084 
Q 1678 3084 1418 2786 
Q 1159 2488 1159 1978 
L 1159 0 
L 581 0 
L 581 3500 
L 1159 3500 
L 1159 2956 
Q 1356 3278 1631 3431 
Q 1906 3584 2284 3584 
Q 2666 3584 2933 3390 
Q 3200 3197 3328 2828 
z
" transform="scale(0.015625)"/>
      <path id="DejaVuSans-65" d="M 3597 1894 
L 3597 1613 
L 953 1613 
Q 991 1019 1311 708 
Q 1631 397 2203 397 
Q 2534 397 2845 478 
Q 3156 559 3463 722 
L 3463 178 
Q 3153 47 2828 -22 
Q 2503 -91 2169 -91 
Q 1331 -91 842 396 
Q 353 884 353 1716 
Q 353 2575 817 3079 
Q 1281 3584 2069 3584 
Q 2775 3584 3186 3129 
Q 3597 2675 3597 1894 
z
M 3022 2063 
Q 3016 2534 2758 2815 
Q 2500 3097 2075 3097 
Q 1594 3097 1305 2825 
Q 1016 2553 972 2059 
L 3022 2063 
z
" transform="scale(0.015625)"/>
      <path id="DejaVuSans-6f" d="M 1959 3097 
Q 1497 3097 1228 2736 
Q 959 2375 959 1747 
Q 959 1119 1226 758 
Q 1494 397 1959 397 
Q 2419 397 2687 759 
Q 2956 1122 2956 1747 
Q 2956 2369 2687 2733 
Q 2419 3097 1959 3097 
z
M 1959 3584 
Q 2709 3584 3137 3096 
Q 3566 2609 3566 1747 
Q 3566 888 3137 398 
Q 2709 -91 1959 -91 
Q 1206 -91 779 398 
Q 353 888 353 1747 
Q 353 2609 779 3096 
Q 1206 3584 1959 3584 
z
" transform="scale(0.015625)"/>
      <path id="DejaVuSans-72" d="M 2631 2963 
Q 2534 3019 2420 3045 
Q 2306 3072 2169 3072 
Q 1681 3072 1420 2755 
Q 1159 2438 1159 1844 
L 1159 0 
L 581 0 
L 581 3500 
L 1159 3500 
L 1159 2956 
Q 1341 3275 1631 3429 
Q 1922 3584 2338 3584 
Q 2397 3584 2469 3576 
Q 2541 3569 2628 3553 
L 2631 2963 
z
" transform="scale(0.015625)"/>
      <path id="DejaVuSans-3d" d="M 678 2906 
L 4684 2906 
L 4684 2381 
L 678 2381 
L 678 2906 
z
M 678 1631 
L 4684 1631 
L 4684 1100 
L 678 1100 
L 678 1631 
z
" transform="scale(0.015625)"/>
      <path id="DejaVuSans-2c" d="M 750 794 
L 1409 794 
L 1409 256 
L 897 -744 
L 494 -744 
L 750 256 
L 750 794 
z
" transform="scale(0.015625)"/>
      <path id="DejaVuSans-37" d="M 525 4666 
L 3525 4666 
L 3525 4397 
L 1831 0 
L 1172 0 
L 2766 4134 
L 525 4134 
L 525 4666 
z
" transform="scale(0.015625)"/>
      <path id="DejaVuSans-5f" d="M 3263 -1063 
L 3263 -1509 
L -63 -1509 
L -63 -1063 
L 3263 -1063 
z
" transform="scale(0.015625)"/>
      <path id="DejaVuSans-6c" d="M 603 4863 
L 1178 4863 
L 1178 0 
L 603 0 
L 603 4863 
z
" transform="scale(0.015625)"/>
      <path id="DejaVuSans-77" d="M 269 3500 
L 844 3500 
L 1563 769 
L 2278 3500 
L 2956 3500 
L 3675 769 
L 4391 3500 
L 4966 3500 
L 4050 0 
L 3372 0 
L 2619 2869 
L 1863 0 
L 1184 0 
L 269 3500 
z
" transform="scale(0.015625)"/>
      <path id="DejaVuSans-48" d="M 628 4666 
L 1259 4666 
L 1259 2753 
L 3553 2753 
L 3553 4666 
L 4184 4666 
L 4184 0 
L 3553 0 
L 3553 2222 
L 1259 2222 
L 1259 0 
L 628 0 
L 628 4666 
z
" transform="scale(0.015625)"/>
      <path id="DejaVuSans-7a" d="M 353 3500 
L 3084 3500 
L 3084 2975 
L 922 459 
L 3084 459 
L 3084 0 
L 275 0 
L 275 525 
L 2438 3041 
L 353 3041 
L 353 3500 
z
" transform="scale(0.015625)"/>
     </defs>
     <use xlink:href="#DejaVuSans-4d"/>
     <use xlink:href="#DejaVuSans-66" transform="translate(86.279297 0)"/>
     <use xlink:href="#DejaVuSans-20" transform="translate(121.484375 0)"/>
     <use xlink:href="#DejaVuSans-76" transform="translate(153.271484 0)"/>
     <use xlink:href="#DejaVuSans-73" transform="translate(212.451172 0)"/>
     <use xlink:href="#DejaVuSans-20" transform="translate(264.550781 0)"/>
     <use xlink:href="#DejaVuSans-54" transform="translate(296.337891 0)"/>
     <use xlink:href="#DejaVuSans-69" transform="translate(354.296875 0)"/>
     <use xlink:href="#DejaVuSans-6d" transform="translate(382.080078 0)"/>
     <use xlink:href="#DejaVuSans-65" transform="translate(479.492188 0)"/>
     <use xlink:href="#DejaVuSans-20" transform="translate(541.015625 0)"/>
     <use xlink:href="#DejaVuSans-66" transform="translate(572.802734 0)"/>
     <use xlink:href="#DejaVuSans-6f" transform="translate(608.007812 0)"/>
     <use xlink:href="#DejaVuSans-72" transform="translate(669.189453 0)"/>
     <use xlink:href="#DejaVuSans-20" transform="translate(710.302734 0)"/>
     <use xlink:href="#DejaVuSans-4d" transform="translate(742.089844 0)"/>
     <use xlink:href="#DejaVuSans-3d" transform="translate(828.369141 0)"/>
     <use xlink:href="#DejaVuSans-36" transform="translate(912.158203 0)"/>
     <use xlink:href="#DejaVuSans-30" transform="translate(975.78125 0)"/>
     <use xlink:href="#DejaVuSans-2c" transform="translate(1039.404297 0)"/>
     <use xlink:href="#DejaVuSans-20" transform="translate(1071.191406 0)"/>
     <use xlink:href="#DejaVuSans-65" transform="translate(1102.978516 0)"/>
     <use xlink:href="#DejaVuSans-3d" transform="translate(1164.501953 0)"/>
     <use xlink:href="#DejaVuSans-30" transform="translate(1248.291016 0)"/>
     <use xlink:href="#DejaVuSans-2e" transform="translate(1311.914062 0)"/>
     <use xlink:href="#DejaVuSans-32" transform="translate(1343.701172 0)"/>
     <use xlink:href="#DejaVuSans-37" transform="translate(1407.324219 0)"/>
     <use xlink:href="#DejaVuSans-2c" transform="translate(1470.947266 0)"/>
     <use xlink:href="#DejaVuSans-20" transform="translate(1502.734375 0)"/>
     <use xlink:href="#DejaVuSans-66" transform="translate(1534.521484 0)"/>
     <use xlink:href="#DejaVuSans-5f" transform="translate(1569.726562 0)"/>
     <use xlink:href="#DejaVuSans-6c" transform="translate(1619.726562 0)"/>
     <use xlink:href="#DejaVuSans-6f" transform="translate(1647.509766 0)"/>
     <use xlink:href="#DejaVuSans-77" transform="translate(1708.691406 0)"/>
     <use xlink:href="#DejaVuSans-65" transform="translate(1790.478516 0)"/>
     <use xlink:href="#DejaVuSans-72" transform="translate(1852.001953 0)"/>
     <use xlink:href="#DejaVuSans-3d" transform="translate(1893.115234 0)"/>
     <use xlink:href="#DejaVuSans-31" transform="translate(1976.904297 0)"/>
     <use xlink:href="#DejaVuSans-30" transform="translate(2040.527344 0)"/>
     <use xlink:href="#DejaVuSans-20" transform="translate(2104.150391 0)"/>
     <use xlink:href="#DejaVuSans-48" transform="translate(2135.9375 0)"/>
     <use xlink:href="#DejaVuSans-7a" transform="translate(2211.132812 0)"/>
    </g>
   </g>
   <g id="legend_1">
    <g id="patch_7">
     <path d="M 57.14375 59.9525 
L 153.10625 59.9525 
Q 155.10625 59.9525 155.10625 57.9525 
L 155.10625 29.318125 
Q 155.10625 27.318125 153.10625 27.318125 
L 57.14375 27.318125 
Q 55.14375 27.318125 55.14375 29.318125 
L 55.14375 57.9525 
Q 55.14375 59.9525 57.14375 59.9525 
z
" style="fill: #ffffff; opacity: 0.8; stroke: #cccccc; stroke-linejoin: miter"/>
    </g>
    <g id="line2d_16">
     <path d="M 59.14375 35.416563 
L 69.14375 35.416563 
L 79.14375 35.416563 
" style="fill: none; stroke: #1f77b4; stroke-width: 0.6; stroke-linecap: square"/>
    </g>
    <g id="text_17">
     <!-- Mf -->
     <g transform="translate(87.14375 38.916563) scale(0.1 -0.1)">
      <use xlink:href="#DejaVuSans-4d"/>
      <use xlink:href="#DejaVuSans-66" transform="translate(86.279297 0)"/>
     </g>
    </g>
    <g id="line2d_17">
     <path d="M 59.14375 50.094688 
L 69.14375 50.094688 
L 79.14375 50.094688 
" style="fill: none; stroke-dasharray: 2.22,0.96; stroke-dashoffset: 0; stroke: #ff0000; stroke-width: 0.6"/>
    </g>
    <g id="text_18">
     <!-- Mf_ISCO_circ -->
     <g transform="translate(87.14375 53.594688) scale(0.1 -0.1)">
      <defs>
       <path id="DejaVuSans-49" d="M 628 4666 
L 1259 4666 
L 1259 0 
L 628 0 
L 628 4666 
z
" transform="scale(0.015625)"/>
       <path id="DejaVuSans-53" d="M 3425 4513 
L 3425 3897 
Q 3066 4069 2747 4153 
Q 2428 4238 2131 4238 
Q 1616 4238 1336 4038 
Q 1056 3838 1056 3469 
Q 1056 3159 1242 3001 
Q 1428 2844 1947 2747 
L 2328 2669 
Q 3034 2534 3370 2195 
Q 3706 1856 3706 1288 
Q 3706 609 3251 259 
Q 2797 -91 1919 -91 
Q 1588 -91 1214 -16 
Q 841 59 441 206 
L 441 856 
Q 825 641 1194 531 
Q 1563 422 1919 422 
Q 2459 422 2753 634 
Q 3047 847 3047 1241 
Q 3047 1584 2836 1778 
Q 2625 1972 2144 2069 
L 1759 2144 
Q 1053 2284 737 2584 
Q 422 2884 422 3419 
Q 422 4038 858 4394 
Q 1294 4750 2059 4750 
Q 2388 4750 2728 4690 
Q 3069 4631 3425 4513 
z
" transform="scale(0.015625)"/>
       <path id="DejaVuSans-43" d="M 4122 4306 
L 4122 3641 
Q 3803 3938 3442 4084 
Q 3081 4231 2675 4231 
Q 1875 4231 1450 3742 
Q 1025 3253 1025 2328 
Q 1025 1406 1450 917 
Q 1875 428 2675 428 
Q 3081 428 3442 575 
Q 3803 722 4122 1019 
L 4122 359 
Q 3791 134 3420 21 
Q 3050 -91 2638 -91 
Q 1578 -91 968 557 
Q 359 1206 359 2328 
Q 359 3453 968 4101 
Q 1578 4750 2638 4750 
Q 3056 4750 3426 4639 
Q 3797 4528 4122 4306 
z
" transform="scale(0.015625)"/>
       <path id="DejaVuSans-4f" d="M 2522 4238 
Q 1834 4238 1429 3725 
Q 1025 3213 1025 2328 
Q 1025 1447 1429 934 
Q 1834 422 2522 422 
Q 3209 422 3611 934 
Q 4013 1447 4013 2328 
Q 4013 3213 3611 3725 
Q 3209 4238 2522 4238 
z
M 2522 4750 
Q 3503 4750 4090 4092 
Q 4678 3434 4678 2328 
Q 4678 1225 4090 567 
Q 3503 -91 2522 -91 
Q 1538 -91 948 565 
Q 359 1222 359 2328 
Q 359 3434 948 4092 
Q 1538 4750 2522 4750 
z
" transform="scale(0.015625)"/>
       <path id="DejaVuSans-63" d="M 3122 3366 
L 3122 2828 
Q 2878 2963 2633 3030 
Q 2388 3097 2138 3097 
Q 1578 3097 1268 2742 
Q 959 2388 959 1747 
Q 959 1106 1268 751 
Q 1578 397 2138 397 
Q 2388 397 2633 464 
Q 2878 531 3122 666 
L 3122 134 
Q 2881 22 2623 -34 
Q 2366 -91 2075 -91 
Q 1284 -91 818 406 
Q 353 903 353 1747 
Q 353 2603 823 3093 
Q 1294 3584 2113 3584 
Q 2378 3584 2631 3529 
Q 2884 3475 3122 3366 
z
" transform="scale(0.015625)"/>
      </defs>
      <use xlink:href="#DejaVuSans-4d"/>
      <use xlink:href="#DejaVuSans-66" transform="translate(86.279297 0)"/>
      <use xlink:href="#DejaVuSans-5f" transform="translate(121.484375 0)"/>
      <use xlink:href="#DejaVuSans-49" transform="translate(171.484375 0)"/>
      <use xlink:href="#DejaVuSans-53" transform="translate(200.976562 0)"/>
      <use xlink:href="#DejaVuSans-43" transform="translate(264.453125 0)"/>
      <use xlink:href="#DejaVuSans-4f" transform="translate(334.277344 0)"/>
      <use xlink:href="#DejaVuSans-5f" transform="translate(412.988281 0)"/>
      <use xlink:href="#DejaVuSans-63" transform="translate(462.988281 0)"/>
      <use xlink:href="#DejaVuSans-69" transform="translate(517.96875 0)"/>
      <use xlink:href="#DejaVuSans-72" transform="translate(545.751953 0)"/>
      <use xlink:href="#DejaVuSans-63" transform="translate(584.615234 0)"/>
     </g>
    </g>
   </g>
  </g>
 </g>
 <defs>
  <clipPath id="pc62c5416d5">
   <rect x="50.14375" y="22.318125" width="669.6" height="277.2"/>
  </clipPath>
 </defs>
</svg>
