<?xml version="1.0" encoding="utf-8" standalone="no"?>
<!DOCTYPE svg PUBLIC "-//W3C//DTD SVG 1.1//EN"
  "http://www.w3.org/Graphics/SVG/1.1/DTD/svg11.dtd">
<svg xmlns:xlink="http://www.w3.org/1999/xlink" width="726.94375pt" height="337.074375pt" viewBox="0 0 726.94375 337.074375" xmlns="http://www.w3.org/2000/svg" version="1.1">
 <metadata>
  <rdf:RDF xmlns:dc="http://purl.org/dc/elements/1.1/" xmlns:cc="http://creativecommons.org/ns#" xmlns:rdf="http://www.w3.org/1999/02/22-rdf-syntax-ns#">
   <cc:Work>
    <dc:type rdf:resource="http://purl.org/dc/dcmitype/StillImage"/>
    <dc:date>2025-07-24T14:39:29.990939</dc:date>
    <dc:format>image/svg+xml</dc:format>
    <dc:creator>
     <cc:Agent>
      <dc:title>Matplotlib v3.10.3, https://matplotlib.org/</dc:title>
     </cc:Agent>
    </dc:creator>
   </cc:Work>
  </rdf:RDF>
 </metadata>
 <defs>
  <style type="text/css">*{stroke-linejoin: round; stroke-linecap: butt}</style>
 </defs>
 <g id="figure_1">
  <g id="patch_1">
   <path d="M 0 337.074375 
L 726.94375 337.074375 
L 726.94375 0 
L 0 0 
z
" style="fill: #ffffff"/>
  </g>
  <g id="axes_1">
   <g id="patch_2">
    <path d="M 50.14375 299.518125 
L 719.74375 299.518125 
L 719.74375 22.318125 
L 50.14375 22.318125 
z
" style="fill: #ffffff"/>
   </g>
   <g id="matplotlib.axis_1">
    <g id="xtick_1">
     <g id="line2d_1">
      <defs>
       <path id="m90e100f2e2" d="M 0 0 
L 0 3.5 
" style="stroke: #000000; stroke-width: 0.8"/>
      </defs>
      <g>
       <use xlink:href="#m90e100f2e2" x="59.759865" y="299.518125" style="stroke: #000000; stroke-width: 0.8"/>
      </g>
     </g>
     <g id="text_1">
      <!-- −14000 -->
      <g transform="translate(39.663772 314.116563) scale(0.1 -0.1)">
       <defs>
        <path id="DejaVuSans-2212" d="M 678 2272 
L 4684 2272 
L 4684 1741 
L 678 1741 
L 678 2272 
z
" transform="scale(0.015625)"/>
        <path id="DejaVuSans-31" d="M 794 531 
L 1825 531 
L 1825 4091 
L 703 3866 
L 703 4441 
L 1819 4666 
L 2450 4666 
L 2450 531 
L 3481 531 
L 3481 0 
L 794 0 
L 794 531 
z
" transform="scale(0.015625)"/>
        <path id="DejaVuSans-34" d="M 2419 4116 
L 825 1625 
L 2419 1625 
L 2419 4116 
z
M 2253 4666 
L 3047 4666 
L 3047 1625 
L 3713 1625 
L 3713 1100 
L 3047 1100 
L 3047 0 
L 2419 0 
L 2419 1100 
L 313 1100 
L 313 1709 
L 2253 4666 
z
" transform="scale(0.015625)"/>
        <path id="DejaVuSans-30" d="M 2034 4250 
Q 1547 4250 1301 3770 
Q 1056 3291 1056 2328 
Q 1056 1369 1301 889 
Q 1547 409 2034 409 
Q 2525 409 2770 889 
Q 3016 1369 3016 2328 
Q 3016 3291 2770 3770 
Q 2525 4250 2034 4250 
z
M 2034 4750 
Q 2819 4750 3233 4129 
Q 3647 3509 3647 2328 
Q 3647 1150 3233 529 
Q 2819 -91 2034 -91 
Q 1250 -91 836 529 
Q 422 1150 422 2328 
Q 422 3509 836 4129 
Q 1250 4750 2034 4750 
z
" transform="scale(0.015625)"/>
       </defs>
       <use xlink:href="#DejaVuSans-2212"/>
       <use xlink:href="#DejaVuSans-31" transform="translate(83.789062 0)"/>
       <use xlink:href="#DejaVuSans-34" transform="translate(147.412109 0)"/>
       <use xlink:href="#DejaVuSans-30" transform="translate(211.035156 0)"/>
       <use xlink:href="#DejaVuSans-30" transform="translate(274.658203 0)"/>
       <use xlink:href="#DejaVuSans-30" transform="translate(338.28125 0)"/>
      </g>
     </g>
    </g>
    <g id="xtick_2">
     <g id="line2d_2">
      <g>
       <use xlink:href="#m90e100f2e2" x="149.315056" y="299.518125" style="stroke: #000000; stroke-width: 0.8"/>
      </g>
     </g>
     <g id="text_2">
      <!-- −12000 -->
      <g transform="translate(129.218962 314.116563) scale(0.1 -0.1)">
       <defs>
        <path id="DejaVuSans-32" d="M 1228 531 
L 3431 531 
L 3431 0 
L 469 0 
L 469 531 
Q 828 903 1448 1529 
Q 2069 2156 2228 2338 
Q 2531 2678 2651 2914 
Q 2772 3150 2772 3378 
Q 2772 3750 2511 3984 
Q 2250 4219 1831 4219 
Q 1534 4219 1204 4116 
Q 875 4013 500 3803 
L 500 4441 
Q 881 4594 1212 4672 
Q 1544 4750 1819 4750 
Q 2544 4750 2975 4387 
Q 3406 4025 3406 3419 
Q 3406 3131 3298 2873 
Q 3191 2616 2906 2266 
Q 2828 2175 2409 1742 
Q 1991 1309 1228 531 
z
" transform="scale(0.015625)"/>
       </defs>
       <use xlink:href="#DejaVuSans-2212"/>
       <use xlink:href="#DejaVuSans-31" transform="translate(83.789062 0)"/>
       <use xlink:href="#DejaVuSans-32" transform="translate(147.412109 0)"/>
       <use xlink:href="#DejaVuSans-30" transform="translate(211.035156 0)"/>
       <use xlink:href="#DejaVuSans-30" transform="translate(274.658203 0)"/>
       <use xlink:href="#DejaVuSans-30" transform="translate(338.28125 0)"/>
      </g>
     </g>
    </g>
    <g id="xtick_3">
     <g id="line2d_3">
      <g>
       <use xlink:href="#m90e100f2e2" x="238.870247" y="299.518125" style="stroke: #000000; stroke-width: 0.8"/>
      </g>
     </g>
     <g id="text_3">
      <!-- −10000 -->
      <g transform="translate(218.774153 314.116563) scale(0.1 -0.1)">
       <use xlink:href="#DejaVuSans-2212"/>
       <use xlink:href="#DejaVuSans-31" transform="translate(83.789062 0)"/>
       <use xlink:href="#DejaVuSans-30" transform="translate(147.412109 0)"/>
       <use xlink:href="#DejaVuSans-30" transform="translate(211.035156 0)"/>
       <use xlink:href="#DejaVuSans-30" transform="translate(274.658203 0)"/>
       <use xlink:href="#DejaVuSans-30" transform="translate(338.28125 0)"/>
      </g>
     </g>
    </g>
    <g id="xtick_4">
     <g id="line2d_4">
      <g>
       <use xlink:href="#m90e100f2e2" x="328.425438" y="299.518125" style="stroke: #000000; stroke-width: 0.8"/>
      </g>
     </g>
     <g id="text_4">
      <!-- −8000 -->
      <g transform="translate(311.510594 314.116563) scale(0.1 -0.1)">
       <defs>
        <path id="DejaVuSans-38" d="M 2034 2216 
Q 1584 2216 1326 1975 
Q 1069 1734 1069 1313 
Q 1069 891 1326 650 
Q 1584 409 2034 409 
Q 2484 409 2743 651 
Q 3003 894 3003 1313 
Q 3003 1734 2745 1975 
Q 2488 2216 2034 2216 
z
M 1403 2484 
Q 997 2584 770 2862 
Q 544 3141 544 3541 
Q 544 4100 942 4425 
Q 1341 4750 2034 4750 
Q 2731 4750 3128 4425 
Q 3525 4100 3525 3541 
Q 3525 3141 3298 2862 
Q 3072 2584 2669 2484 
Q 3125 2378 3379 2068 
Q 3634 1759 3634 1313 
Q 3634 634 3220 271 
Q 2806 -91 2034 -91 
Q 1263 -91 848 271 
Q 434 634 434 1313 
Q 434 1759 690 2068 
Q 947 2378 1403 2484 
z
M 1172 3481 
Q 1172 3119 1398 2916 
Q 1625 2713 2034 2713 
Q 2441 2713 2670 2916 
Q 2900 3119 2900 3481 
Q 2900 3844 2670 4047 
Q 2441 4250 2034 4250 
Q 1625 4250 1398 4047 
Q 1172 3844 1172 3481 
z
" transform="scale(0.015625)"/>
       </defs>
       <use xlink:href="#DejaVuSans-2212"/>
       <use xlink:href="#DejaVuSans-38" transform="translate(83.789062 0)"/>
       <use xlink:href="#DejaVuSans-30" transform="translate(147.412109 0)"/>
       <use xlink:href="#DejaVuSans-30" transform="translate(211.035156 0)"/>
       <use xlink:href="#DejaVuSans-30" transform="translate(274.658203 0)"/>
      </g>
     </g>
    </g>
    <g id="xtick_5">
     <g id="line2d_5">
      <g>
       <use xlink:href="#m90e100f2e2" x="417.980628" y="299.518125" style="stroke: #000000; stroke-width: 0.8"/>
      </g>
     </g>
     <g id="text_5">
      <!-- −6000 -->
      <g transform="translate(401.065785 314.116563) scale(0.1 -0.1)">
       <defs>
        <path id="DejaVuSans-36" d="M 2113 2584 
Q 1688 2584 1439 2293 
Q 1191 2003 1191 1497 
Q 1191 994 1439 701 
Q 1688 409 2113 409 
Q 2538 409 2786 701 
Q 3034 994 3034 1497 
Q 3034 2003 2786 2293 
Q 2538 2584 2113 2584 
z
M 3366 4563 
L 3366 3988 
Q 3128 4100 2886 4159 
Q 2644 4219 2406 4219 
Q 1781 4219 1451 3797 
Q 1122 3375 1075 2522 
Q 1259 2794 1537 2939 
Q 1816 3084 2150 3084 
Q 2853 3084 3261 2657 
Q 3669 2231 3669 1497 
Q 3669 778 3244 343 
Q 2819 -91 2113 -91 
Q 1303 -91 875 529 
Q 447 1150 447 2328 
Q 447 3434 972 4092 
Q 1497 4750 2381 4750 
Q 2619 4750 2861 4703 
Q 3103 4656 3366 4563 
z
" transform="scale(0.015625)"/>
       </defs>
       <use xlink:href="#DejaVuSans-2212"/>
       <use xlink:href="#DejaVuSans-36" transform="translate(83.789062 0)"/>
       <use xlink:href="#DejaVuSans-30" transform="translate(147.412109 0)"/>
       <use xlink:href="#DejaVuSans-30" transform="translate(211.035156 0)"/>
       <use xlink:href="#DejaVuSans-30" transform="translate(274.658203 0)"/>
      </g>
     </g>
    </g>
    <g id="xtick_6">
     <g id="line2d_6">
      <g>
       <use xlink:href="#m90e100f2e2" x="507.535819" y="299.518125" style="stroke: #000000; stroke-width: 0.8"/>
      </g>
     </g>
     <g id="text_6">
      <!-- −4000 -->
      <g transform="translate(490.620975 314.116563) scale(0.1 -0.1)">
       <use xlink:href="#DejaVuSans-2212"/>
       <use xlink:href="#DejaVuSans-34" transform="translate(83.789062 0)"/>
       <use xlink:href="#DejaVuSans-30" transform="translate(147.412109 0)"/>
       <use xlink:href="#DejaVuSans-30" transform="translate(211.035156 0)"/>
       <use xlink:href="#DejaVuSans-30" transform="translate(274.658203 0)"/>
      </g>
     </g>
    </g>
    <g id="xtick_7">
     <g id="line2d_7">
      <g>
       <use xlink:href="#m90e100f2e2" x="597.09101" y="299.518125" style="stroke: #000000; stroke-width: 0.8"/>
      </g>
     </g>
     <g id="text_7">
      <!-- −2000 -->
      <g transform="translate(580.176166 314.116563) scale(0.1 -0.1)">
       <use xlink:href="#DejaVuSans-2212"/>
       <use xlink:href="#DejaVuSans-32" transform="translate(83.789062 0)"/>
       <use xlink:href="#DejaVuSans-30" transform="translate(147.412109 0)"/>
       <use xlink:href="#DejaVuSans-30" transform="translate(211.035156 0)"/>
       <use xlink:href="#DejaVuSans-30" transform="translate(274.658203 0)"/>
      </g>
     </g>
    </g>
    <g id="xtick_8">
     <g id="line2d_8">
      <g>
       <use xlink:href="#m90e100f2e2" x="686.646201" y="299.518125" style="stroke: #000000; stroke-width: 0.8"/>
      </g>
     </g>
     <g id="text_8">
      <!-- 0 -->
      <g transform="translate(683.464951 314.116563) scale(0.1 -0.1)">
       <use xlink:href="#DejaVuSans-30"/>
      </g>
     </g>
    </g>
    <g id="text_9">
     <!-- t [M] -->
     <g transform="translate(373.178906 327.794688) scale(0.1 -0.1)">
      <defs>
       <path id="DejaVuSans-74" d="M 1172 4494 
L 1172 3500 
L 2356 3500 
L 2356 3053 
L 1172 3053 
L 1172 1153 
Q 1172 725 1289 603 
Q 1406 481 1766 481 
L 2356 481 
L 2356 0 
L 1766 0 
Q 1100 0 847 248 
Q 594 497 594 1153 
L 594 3053 
L 172 3053 
L 172 3500 
L 594 3500 
L 594 4494 
L 1172 4494 
z
" transform="scale(0.015625)"/>
       <path id="DejaVuSans-20" transform="scale(0.015625)"/>
       <path id="DejaVuSans-5b" d="M 550 4863 
L 1875 4863 
L 1875 4416 
L 1125 4416 
L 1125 -397 
L 1875 -397 
L 1875 -844 
L 550 -844 
L 550 4863 
z
" transform="scale(0.015625)"/>
       <path id="DejaVuSans-4d" d="M 628 4666 
L 1569 4666 
L 2759 1491 
L 3956 4666 
L 4897 4666 
L 4897 0 
L 4281 0 
L 4281 4097 
L 3078 897 
L 2444 897 
L 1241 4097 
L 1241 0 
L 628 0 
L 628 4666 
z
" transform="scale(0.015625)"/>
       <path id="DejaVuSans-5d" d="M 1947 4863 
L 1947 -844 
L 622 -844 
L 622 -397 
L 1369 -397 
L 1369 4416 
L 622 4416 
L 622 4863 
L 1947 4863 
z
" transform="scale(0.015625)"/>
      </defs>
      <use xlink:href="#DejaVuSans-74"/>
      <use xlink:href="#DejaVuSans-20" transform="translate(39.208984 0)"/>
      <use xlink:href="#DejaVuSans-5b" transform="translate(70.996094 0)"/>
      <use xlink:href="#DejaVuSans-4d" transform="translate(110.009766 0)"/>
      <use xlink:href="#DejaVuSans-5d" transform="translate(196.289062 0)"/>
     </g>
    </g>
   </g>
   <g id="matplotlib.axis_2">
    <g id="ytick_1">
     <g id="line2d_9">
      <defs>
       <path id="mf7b6c729fd" d="M 0 0 
L -3.5 0 
" style="stroke: #000000; stroke-width: 0.8"/>
      </defs>
      <g>
       <use xlink:href="#mf7b6c729fd" x="50.14375" y="253.916301" style="stroke: #000000; stroke-width: 0.8"/>
      </g>
     </g>
     <g id="text_10">
      <!-- 0.00 -->
      <g transform="translate(20.878125 257.715519) scale(0.1 -0.1)">
       <defs>
        <path id="DejaVuSans-2e" d="M 684 794 
L 1344 794 
L 1344 0 
L 684 0 
L 684 794 
z
" transform="scale(0.015625)"/>
       </defs>
       <use xlink:href="#DejaVuSans-30"/>
       <use xlink:href="#DejaVuSans-2e" transform="translate(63.623047 0)"/>
       <use xlink:href="#DejaVuSans-30" transform="translate(95.410156 0)"/>
       <use xlink:href="#DejaVuSans-30" transform="translate(159.033203 0)"/>
      </g>
     </g>
    </g>
    <g id="ytick_2">
     <g id="line2d_10">
      <g>
       <use xlink:href="#mf7b6c729fd" x="50.14375" y="204.18999" style="stroke: #000000; stroke-width: 0.8"/>
      </g>
     </g>
     <g id="text_11">
      <!-- 0.02 -->
      <g transform="translate(20.878125 207.989209) scale(0.1 -0.1)">
       <use xlink:href="#DejaVuSans-30"/>
       <use xlink:href="#DejaVuSans-2e" transform="translate(63.623047 0)"/>
       <use xlink:href="#DejaVuSans-30" transform="translate(95.410156 0)"/>
       <use xlink:href="#DejaVuSans-32" transform="translate(159.033203 0)"/>
      </g>
     </g>
    </g>
    <g id="ytick_3">
     <g id="line2d_11">
      <g>
       <use xlink:href="#mf7b6c729fd" x="50.14375" y="154.46368" style="stroke: #000000; stroke-width: 0.8"/>
      </g>
     </g>
     <g id="text_12">
      <!-- 0.04 -->
      <g transform="translate(20.878125 158.262898) scale(0.1 -0.1)">
       <use xlink:href="#DejaVuSans-30"/>
       <use xlink:href="#DejaVuSans-2e" transform="translate(63.623047 0)"/>
       <use xlink:href="#DejaVuSans-30" transform="translate(95.410156 0)"/>
       <use xlink:href="#DejaVuSans-34" transform="translate(159.033203 0)"/>
      </g>
     </g>
    </g>
    <g id="ytick_4">
     <g id="line2d_12">
      <g>
       <use xlink:href="#mf7b6c729fd" x="50.14375" y="104.737369" style="stroke: #000000; stroke-width: 0.8"/>
      </g>
     </g>
     <g id="text_13">
      <!-- 0.06 -->
      <g transform="translate(20.878125 108.536588) scale(0.1 -0.1)">
       <use xlink:href="#DejaVuSans-30"/>
       <use xlink:href="#DejaVuSans-2e" transform="translate(63.623047 0)"/>
       <use xlink:href="#DejaVuSans-30" transform="translate(95.410156 0)"/>
       <use xlink:href="#DejaVuSans-36" transform="translate(159.033203 0)"/>
      </g>
     </g>
    </g>
    <g id="ytick_5">
     <g id="line2d_13">
      <g>
       <use xlink:href="#mf7b6c729fd" x="50.14375" y="55.011059" style="stroke: #000000; stroke-width: 0.8"/>
      </g>
     </g>
     <g id="text_14">
      <!-- 0.08 -->
      <g transform="translate(20.878125 58.810277) scale(0.1 -0.1)">
       <use xlink:href="#DejaVuSans-30"/>
       <use xlink:href="#DejaVuSans-2e" transform="translate(63.623047 0)"/>
       <use xlink:href="#DejaVuSans-30" transform="translate(95.410156 0)"/>
       <use xlink:href="#DejaVuSans-38" transform="translate(159.033203 0)"/>
      </g>
     </g>
    </g>
    <g id="text_15">
     <!-- Mf -->
     <g transform="translate(14.798437 166.992344) rotate(-90) scale(0.1 -0.1)">
      <defs>
       <path id="DejaVuSans-66" d="M 2375 4863 
L 2375 4384 
L 1825 4384 
Q 1516 4384 1395 4259 
Q 1275 4134 1275 3809 
L 1275 3500 
L 2222 3500 
L 2222 3053 
L 1275 3053 
L 1275 0 
L 697 0 
L 697 3053 
L 147 3053 
L 147 3500 
L 697 3500 
L 697 3744 
Q 697 4328 969 4595 
Q 1241 4863 1831 4863 
L 2375 4863 
z
" transform="scale(0.015625)"/>
      </defs>
      <use xlink:href="#DejaVuSans-4d"/>
      <use xlink:href="#DejaVuSans-66" transform="translate(86.279297 0)"/>
     </g>
    </g>
   </g>
   <g id="line2d_14">
    <path d="M 80.580114 286.588998 
L 83.33218 286.884634 
L 84.894163 286.612706 
L 87.423089 286.191273 
L 89.728874 285.783991 
L 92.33218 285.026066 
L 95.902428 283.818733 
L 99.770196 282.167036 
L 102.001601 281.006982 
L 104.456147 279.465681 
L 106.241271 278.109655 
L 107.803254 276.63473 
L 109.365238 274.850655 
L 111.001601 272.633453 
L 113.307386 269.471684 
L 114.125568 268.728703 
L 114.79499 268.399118 
L 115.390031 268.338942 
L 115.985072 268.490354 
L 116.728874 268.930268 
L 117.770196 269.843436 
L 120.224742 272.063065 
L 121.637965 273.003625 
L 122.902428 273.592747 
L 124.01813 273.867702 
L 125.208213 273.912227 
L 127.960279 273.890068 
L 130.042924 273.995648 
L 131.307386 273.798484 
L 137.927221 272.115416 
L 139.340444 271.69934 
L 142.464411 271.036288 
L 143.431353 270.421435 
L 145.662758 268.861748 
L 146.48094 268.670097 
L 148.191684 268.401784 
L 148.935486 267.989609 
L 149.753667 267.267675 
L 150.94375 265.869567 
L 154.365238 261.395931 
L 155.48094 259.223214 
L 156.819783 256.697956 
L 157.489205 255.898384 
L 158.009866 255.609798 
L 158.456147 255.612874 
L 158.902428 255.83813 
L 159.497469 256.434713 
L 160.390031 257.742211 
L 162.026395 260.183389 
L 163.067717 261.28595 
L 165.671023 263.568169 
L 166.563585 264.050665 
L 167.307386 264.197874 
L 167.976808 264.106068 
L 168.86937 263.724916 
L 169.836312 263.357646 
L 170.431353 263.375278 
L 171.175155 263.665661 
L 172.662758 264.312747 
L 173.40656 264.367652 
L 174.150362 264.205751 
L 175.340444 263.664274 
L 176.307386 263.313691 
L 177.125568 263.254087 
L 178.836312 263.219586 
L 179.728874 262.901265 
L 181.662758 262.0827 
L 182.33218 262.127642 
L 184.340444 262.484576 
L 184.935486 262.253999 
L 185.604907 261.732375 
L 186.497469 260.702211 
L 187.464411 259.639833 
L 187.985072 259.398533 
L 188.431353 259.447079 
L 189.100775 259.813819 
L 189.993337 260.262342 
L 190.513998 260.275204 
L 191.034659 260.059017 
L 191.6297 259.55553 
L 192.447882 258.525159 
L 194.604907 255.607449 
L 195.94375 254.118744 
L 196.613171 252.954098 
L 197.505733 250.876465 
L 198.918957 247.578405 
L 199.513998 246.730931 
L 199.960279 246.435352 
L 200.33218 246.428888 
L 200.704081 246.635875 
L 201.150362 247.139393 
L 201.819783 248.298175 
L 204.125568 252.701289 
L 205.01813 253.670405 
L 206.654494 255.371416 
L 207.918957 256.64089 
L 208.662758 257.069699 
L 209.2578 257.153431 
L 209.778461 257.002905 
L 210.373502 256.586941 
L 211.637965 255.614703 
L 212.084246 255.616208 
L 212.530527 255.858564 
L 214.613171 257.369256 
L 215.208213 257.377078 
L 215.803254 257.163072 
L 216.695816 256.565534 
L 217.588378 256.057249 
L 218.183419 255.995446 
L 219.001601 256.197102 
L 219.894163 256.346754 
L 220.489205 256.226652 
L 221.233006 255.824546 
L 222.423089 255.124316 
L 222.94375 255.097394 
L 223.464411 255.313087 
L 225.175155 256.245519 
L 225.695816 256.150781 
L 226.216477 255.802658 
L 226.811519 255.117053 
L 228.522262 252.879842 
L 228.894163 252.847896 
L 229.266064 253.060274 
L 230.009866 253.864354 
L 230.679287 254.455479 
L 231.125568 254.595224 
L 231.571849 254.504185 
L 232.09251 254.131503 
L 232.761932 253.318488 
L 235.439618 249.613992 
L 236.33218 248.691149 
L 236.927221 247.724852 
L 237.671023 246.003098 
L 239.604907 241.17667 
L 240.125568 240.551261 
L 240.497469 240.400147 
L 240.86937 240.503196 
L 241.241271 240.848289 
L 241.761932 241.681985 
L 242.580114 243.536953 
L 243.993337 246.769483 
L 244.737138 247.903326 
L 246.001601 249.281382 
L 248.679287 252.174301 
L 249.199948 252.338497 
L 249.72061 252.261025 
L 250.241271 251.932742 
L 251.803254 250.706035 
L 252.175155 250.798803 
L 252.695816 251.228851 
L 254.109039 252.593879 
L 254.704081 252.795698 
L 255.224742 252.741198 
L 255.819783 252.446315 
L 257.456147 251.454882 
L 257.976808 251.496561 
L 259.836312 251.940492 
L 260.431353 251.707263 
L 262.067717 250.862347 
L 262.513998 250.962102 
L 263.109039 251.370482 
L 264.224742 252.178574 
L 264.745403 252.243841 
L 265.191684 252.075977 
L 265.712345 251.624447 
L 266.456147 250.608158 
L 267.348709 249.391107 
L 267.79499 249.149428 
L 268.16689 249.234957 
L 268.613171 249.618993 
L 269.803254 250.795203 
L 270.249535 250.904846 
L 270.695816 250.771695 
L 271.216477 250.341955 
L 271.885899 249.461882 
L 273.968543 246.451494 
L 275.233006 245.036876 
L 275.828048 243.944305 
L 276.571849 242.077548 
L 278.133833 238.044175 
L 278.654494 237.307378 
L 279.026395 237.090042 
L 279.398295 237.1456 
L 279.770196 237.465587 
L 280.216477 238.158987 
L 280.885899 239.662598 
L 282.745403 244.112407 
L 283.563585 245.344419 
L 286.613171 249.074777 
L 287.208213 249.437229 
L 287.728874 249.512925 
L 288.249535 249.346598 
L 288.993337 248.814548 
L 289.662758 248.429827 
L 290.109039 248.447969 
L 290.55532 248.719354 
L 292.563585 250.32725 
L 293.084246 250.343812 
L 293.679287 250.137522 
L 295.315651 249.40801 
L 295.910692 249.512785 
L 297.398295 249.91879 
L 297.993337 249.787941 
L 299.852841 249.148596 
L 300.373502 249.361766 
L 302.084246 250.311454 
L 302.530527 250.228832 
L 303.051188 249.89054 
L 303.72061 249.151531 
L 304.761932 247.985452 
L 305.208213 247.826651 
L 305.580114 247.92548 
L 306.175155 248.386708 
L 306.993337 249.012003 
L 307.439618 249.110042 
L 307.885899 248.982526 
L 308.40656 248.568783 
L 309.075981 247.720573 
L 311.233006 244.746552 
L 312.125568 243.604769 
L 312.79499 242.321648 
L 313.687552 239.999717 
L 314.803254 237.14043 
L 315.323915 236.303188 
L 315.695816 236.011575 
L 316.067717 236.000404 
L 316.439618 236.267337 
L 316.885899 236.919875 
L 317.55532 238.410034 
L 319.637965 243.452383 
L 320.604907 244.947307 
L 322.836312 247.88306 
L 323.505733 248.392314 
L 324.026395 248.552451 
L 324.547056 248.498795 
L 326.2578 248.054725 
L 326.778461 248.338272 
L 328.637965 249.668688 
L 329.233006 249.708124 
L 329.976808 249.489189 
L 331.09251 249.132585 
L 331.761932 249.199306 
L 333.398295 249.53159 
L 334.142097 249.338061 
L 335.33218 248.965763 
L 335.927221 249.05809 
L 336.745403 249.480423 
L 337.489205 249.787071 
L 338.009866 249.773562 
L 338.530527 249.527444 
L 339.199948 248.92743 
L 340.315651 247.880766 
L 340.761932 247.748895 
L 341.208213 247.845471 
L 342.844576 248.478374 
L 343.290857 248.2984 
L 343.811519 247.844492 
L 344.55532 246.865829 
L 347.828048 241.807796 
L 348.72061 239.463376 
L 349.836312 236.635584 
L 350.356973 235.848634 
L 350.728874 235.608008 
L 351.026395 235.624258 
L 351.398295 235.901275 
L 351.844576 236.572898 
L 352.513998 238.092346 
L 354.522262 243.019192 
L 355.563585 244.738327 
L 357.125568 246.905904 
L 357.86937 247.616242 
L 358.464411 247.915895 
L 359.059452 247.966705 
L 360.695816 247.86707 
L 361.290857 248.195343 
L 362.852841 249.188551 
L 363.522262 249.264789 
L 364.340444 249.091908 
L 365.381767 248.908175 
L 366.199948 249.042203 
L 367.315651 249.221937 
L 368.059452 249.095908 
L 369.472676 248.775528 
L 370.142097 248.919102 
L 371.55532 249.329673 
L 372.075981 249.20772 
L 372.671023 248.831247 
L 374.307386 247.591239 
L 374.828048 247.567533 
L 376.538791 247.794025 
L 377.059452 247.463047 
L 377.728874 246.710232 
L 379.142097 244.611261 
L 380.6297 242.25221 
L 381.373502 240.556587 
L 383.307386 235.744524 
L 383.753667 235.263846 
L 384.125568 235.183371 
L 384.423089 235.333252 
L 384.79499 235.771847 
L 385.315651 236.77653 
L 386.282593 239.298073 
L 387.472676 242.223278 
L 388.513998 244.123187 
L 389.852841 246.090035 
L 390.671023 246.942399 
L 391.340444 247.326125 
L 392.009866 247.44236 
L 393.348709 247.589352 
L 394.09251 247.999047 
L 395.356973 248.715952 
L 396.026395 248.824428 
L 396.993337 248.704749 
L 397.960279 248.649668 
L 400.340444 248.783332 
L 401.828048 248.528943 
L 402.646229 248.692823 
L 403.613171 248.851736 
L 404.208213 248.70641 
L 404.877634 248.289516 
L 406.290857 247.323503 
L 406.885899 247.239344 
L 408.224742 247.204217 
L 408.745403 246.900983 
L 409.340444 246.283899 
L 410.307386 244.88151 
L 412.16689 241.755303 
L 412.985072 239.823916 
L 414.770196 235.346062 
L 415.216477 234.835864 
L 415.588378 234.736946 
L 415.885899 234.877871 
L 416.2578 235.312679 
L 416.778461 236.322683 
L 417.745403 238.865196 
L 418.935486 241.832957 
L 419.976808 243.806251 
L 421.09251 245.48107 
L 421.910692 246.343854 
L 422.580114 246.749726 
L 423.398295 246.967293 
L 424.439618 247.276363 
L 426.894163 248.358404 
L 428.084246 248.30577 
L 429.125568 248.379251 
L 430.464411 248.493662 
L 431.654494 248.281522 
L 432.547056 248.220438 
L 434.48094 248.262984 
L 435.150362 247.915468 
L 436.861105 246.884293 
L 438.79499 246.298442 
L 439.390031 245.691769 
L 440.282593 244.396162 
L 441.770196 241.805508 
L 442.662758 239.793141 
L 444.745403 234.660829 
L 445.191684 234.275492 
L 445.489205 234.266547 
L 445.786725 234.456649 
L 446.158626 234.952673 
L 446.679287 236.035582 
L 447.79499 239.046582 
L 448.910692 241.765535 
L 449.952014 243.723165 
L 450.918957 245.117203 
L 451.662758 245.847347 
L 452.40656 246.278314 
L 454.712345 247.366192 
L 455.679287 247.781704 
L 456.571849 247.89195 
L 458.580114 248.034926 
L 459.621436 248.059155 
L 462.447882 247.863378 
L 463.191684 247.752429 
L 463.935486 247.390438 
L 465.79499 246.326109 
L 467.059452 245.7984 
L 467.654494 245.259903 
L 468.398295 244.255034 
L 469.588378 242.191813 
L 470.6297 239.98388 
L 471.671023 237.173385 
L 472.637965 234.71355 
L 473.158626 233.928995 
L 473.530527 233.724106 
L 473.828048 233.79138 
L 474.199948 234.154783 
L 474.646229 234.94547 
L 475.390031 236.823861 
L 477.100775 241.277251 
L 478.142097 243.282417 
L 479.034659 244.563949 
L 479.852841 245.349262 
L 480.819783 245.924013 
L 483.72061 247.307365 
L 485.208213 247.456074 
L 487.142097 247.570212 
L 490.563585 247.115947 
L 491.381767 246.659678 
L 493.09251 245.643378 
L 494.059452 245.045326 
L 494.728874 244.332714 
L 495.547056 243.084331 
L 496.662758 240.935825 
L 497.6297 238.62565 
L 499.563585 233.681719 
L 500.009866 233.202242 
L 500.307386 233.138235 
L 500.604907 233.284445 
L 500.976808 233.744293 
L 501.497469 234.810424 
L 502.464411 237.45829 
L 503.728874 240.733984 
L 504.695816 242.652725 
L 505.588378 243.958101 
L 506.40656 244.771902 
L 507.596643 245.58875 
L 509.233006 246.510723 
L 510.199948 246.771746 
L 512.505733 247.035839 
L 513.621436 246.938106 
L 516.299122 246.437463 
L 517.191684 245.903548 
L 519.646229 244.09865 
L 520.390031 243.121179 
L 521.282593 241.526286 
L 522.323915 239.212744 
L 523.439618 236.151877 
L 524.48094 233.440026 
L 525.001601 232.661432 
L 525.373502 232.479191 
L 525.671023 232.575714 
L 526.042924 232.986018 
L 526.563585 234.011516 
L 527.456147 236.450834 
L 528.86937 240.20944 
L 529.836312 242.139691 
L 530.728874 243.426091 
L 531.621436 244.316335 
L 533.034659 245.355057 
L 534.075981 245.889337 
L 535.191684 246.180983 
L 536.902428 246.386404 
L 538.09251 246.278126 
L 540.100775 245.858343 
L 540.918957 245.432559 
L 542.40656 244.323271 
L 543.447882 243.35163 
L 544.191684 242.325666 
L 545.084246 240.650759 
L 546.125568 238.181603 
L 548.505733 232.072854 
L 548.877634 231.762667 
L 549.175155 231.760167 
L 549.472676 231.97609 
L 549.844576 232.52636 
L 550.439618 233.902363 
L 553.117304 240.888696 
L 554.009866 242.359027 
L 554.902428 243.407516 
L 556.01813 244.370976 
L 557.059452 245.007598 
L 558.100775 245.371037 
L 559.513998 245.607928 
L 560.6297 245.563996 
L 562.191684 245.239946 
L 563.084246 244.871218 
L 563.976808 244.257638 
L 565.315651 243.034212 
L 566.133833 242.01968 
L 566.952014 240.610499 
L 567.918957 238.424601 
L 569.034659 235.308947 
L 570.299122 231.845406 
L 570.819783 231.050458 
L 571.191684 230.874585 
L 571.489205 230.988011 
L 571.861105 231.431898 
L 572.381767 232.517099 
L 573.274329 235.054172 
L 574.613171 238.741178 
L 575.505733 240.597346 
L 576.398295 241.961094 
L 577.365238 243.03418 
L 578.40656 243.859451 
L 579.373502 244.333907 
L 580.489205 244.624114 
L 581.530527 244.684323 
L 582.646229 244.510434 
L 583.836312 244.106081 
L 584.728874 243.549122 
L 585.695816 242.662764 
L 586.662758 241.497222 
L 587.48094 240.147699 
L 588.373502 238.188757 
L 589.489205 235.116738 
L 591.051188 230.738126 
L 591.497469 230.0366 
L 591.86937 229.831798 
L 592.16689 229.936493 
L 592.538791 230.387725 
L 593.059452 231.504749 
L 594.026395 234.330829 
L 595.290857 237.82839 
L 596.2578 239.825778 
L 597.150362 241.200901 
L 598.042924 242.198413 
L 598.935486 242.886887 
L 599.902428 243.338804 
L 600.86937 243.546389 
L 601.761932 243.518802 
L 602.803254 243.25621 
L 603.770196 242.785007 
L 604.588378 242.136845 
L 605.48094 241.147785 
L 606.373502 239.828259 
L 607.191684 238.199315 
L 608.084246 235.901876 
L 610.613171 228.910636 
L 610.985072 228.612422 
L 611.282593 228.641 
L 611.580114 228.904523 
L 612.026395 229.689411 
L 612.695816 231.476289 
L 614.704081 237.221546 
L 615.596643 239.004208 
L 616.489205 240.299831 
L 617.381767 241.19834 
L 618.199948 241.728858 
L 619.09251 242.039808 
L 619.910692 242.09629 
L 620.728874 241.938277 
L 621.621436 241.52895 
L 622.439618 240.893593 
L 623.2578 239.961005 
L 624.075981 238.705439 
L 624.894163 237.043429 
L 625.786725 234.682156 
L 627.199948 230.142239 
L 628.01813 227.898327 
L 628.464411 227.196698 
L 628.761932 227.016899 
L 629.059452 227.084795 
L 629.356973 227.393019 
L 629.803254 228.245802 
L 630.472676 230.114872 
L 632.33218 235.570018 
L 633.224742 237.420251 
L 634.042924 238.641287 
L 634.861105 239.469761 
L 635.604907 239.931442 
L 636.348709 240.146641 
L 637.09251 240.124318 
L 637.836312 239.869153 
L 638.580114 239.373014 
L 639.323915 238.599432 
L 640.067717 237.511396 
L 640.885899 235.904057 
L 641.704081 233.795315 
L 642.745403 230.431986 
L 644.084246 226.127021 
L 644.604907 225.148491 
L 644.976808 224.888229 
L 645.274329 224.969049 
L 645.571849 225.297718 
L 646.01813 226.188627 
L 646.761932 228.349369 
L 648.398295 233.23929 
L 649.290857 235.139392 
L 650.034659 236.251252 
L 650.778461 236.9772 
L 651.447882 237.334247 
L 652.042924 237.421136 
L 652.637965 237.290653 
L 653.307386 236.896232 
L 653.976808 236.223841 
L 654.646229 235.243243 
L 655.390031 233.753812 
L 656.208213 231.586172 
L 657.175155 228.327656 
L 658.737138 222.971283 
L 659.183419 222.099399 
L 659.55532 221.790274 
L 659.852841 221.83643 
L 660.150362 222.142767 
L 660.596643 223.015832 
L 661.266064 224.931771 
L 662.902428 229.804992 
L 663.72061 231.470722 
L 664.390031 232.366446 
L 664.985072 232.825001 
L 665.505733 232.966563 
L 666.026395 232.874685 
L 666.547056 232.551839 
L 667.142097 231.892474 
L 667.737138 230.900452 
L 668.40656 229.351976 
L 669.224742 226.82946 
L 670.191684 223.052987 
L 671.530527 217.851451 
L 672.051188 216.626387 
L 672.423089 216.235195 
L 672.72061 216.232328 
L 673.01813 216.48809 
L 673.464411 217.272976 
L 674.208213 219.172994 
L 675.398295 222.16596 
L 675.993337 223.136596 
L 676.513998 223.598743 
L 676.885899 223.697062 
L 677.2578 223.586596 
L 677.704081 223.171508 
L 678.224742 222.313323 
L 678.819783 220.850133 
L 679.637965 217.734855 
L 680.307386 214.282894 
L 681.571849 206.385059 
L 682.538791 200.644138 
L 683.059452 198.280226 
L 684.398295 191.867254 
L 684.918957 187.875205 
L 685.290857 183.367521 
L 685.588378 176.68615 
L 685.960279 161.50158 
L 686.40656 132.697562 
L 687.596643 41.867077 
L 687.894163 37.415596 
L 688.191684 35.784894 
L 688.489205 35.208 
L 688.861105 34.981495 
L 689.307386 34.918125 
L 689.307386 34.918125 
" clip-path="url(#p41a582fd6a)" style="fill: none; stroke: #1f77b4; stroke-width: 0.6; stroke-linecap: square"/>
   </g>
   <g id="line2d_15">
    <path d="M 50.14375 200.067071 
L 719.74375 200.067071 
" clip-path="url(#p41a582fd6a)" style="fill: none; stroke-dasharray: 2.22,0.96; stroke-dashoffset: 0; stroke: #ff0000; stroke-width: 0.6"/>
   </g>
   <g id="patch_3">
    <path d="M 50.14375 299.518125 
L 50.14375 22.318125 
" style="fill: none; stroke: #000000; stroke-width: 0.8; stroke-linejoin: miter; stroke-linecap: square"/>
   </g>
   <g id="patch_4">
    <path d="M 719.74375 299.518125 
L 719.74375 22.318125 
" style="fill: none; stroke: #000000; stroke-width: 0.8; stroke-linejoin: miter; stroke-linecap: square"/>
   </g>
   <g id="patch_5">
    <path d="M 50.14375 299.518125 
L 719.74375 299.518125 
" style="fill: none; stroke: #000000; stroke-width: 0.8; stroke-linejoin: miter; stroke-linecap: square"/>
   </g>
   <g id="patch_6">
    <path d="M 50.14375 22.318125 
L 719.74375 22.318125 
" style="fill: none; stroke: #000000; stroke-width: 0.8; stroke-linejoin: miter; stroke-linecap: square"/>
   </g>
   <g id="text_16">
    <!-- Mf vs Time for M=60, e=0.29, f_lower=10 Hz -->
    <g transform="translate(249.127188 16.318125) scale(0.12 -0.12)">
     <defs>
      <path id="DejaVuSans-76" d="M 191 3500 
L 800 3500 
L 1894 563 
L 2988 3500 
L 3597 3500 
L 2284 0 
L 1503 0 
L 191 3500 
z
" transform="scale(0.015625)"/>
      <path id="DejaVuSans-73" d="M 2834 3397 
L 2834 2853 
Q 2591 2978 2328 3040 
Q 2066 3103 1784 3103 
Q 1356 3103 1142 2972 
Q 928 2841 928 2578 
Q 928 2378 1081 2264 
Q 1234 2150 1697 2047 
L 1894 2003 
Q 2506 1872 2764 1633 
Q 3022 1394 3022 966 
Q 3022 478 2636 193 
Q 2250 -91 1575 -91 
Q 1294 -91 989 -36 
Q 684 19 347 128 
L 347 722 
Q 666 556 975 473 
Q 1284 391 1588 391 
Q 1994 391 2212 530 
Q 2431 669 2431 922 
Q 2431 1156 2273 1281 
Q 2116 1406 1581 1522 
L 1381 1569 
Q 847 1681 609 1914 
Q 372 2147 372 2553 
Q 372 3047 722 3315 
Q 1072 3584 1716 3584 
Q 2034 3584 2315 3537 
Q 2597 3491 2834 3397 
z
" transform="scale(0.015625)"/>
      <path id="DejaVuSans-54" d="M -19 4666 
L 3928 4666 
L 3928 4134 
L 2272 4134 
L 2272 0 
L 1638 0 
L 1638 4134 
L -19 4134 
L -19 4666 
z
" transform="scale(0.015625)"/>
      <path id="DejaVuSans-69" d="M 603 3500 
L 1178 3500 
L 1178 0 
L 603 0 
L 603 3500 
z
M 603 4863 
L 1178 4863 
L 1178 4134 
L 603 4134 
L 603 4863 
z
" transform="scale(0.015625)"/>
      <path id="DejaVuSans-6d" d="M 3328 2828 
Q 3544 3216 3844 3400 
Q 4144 3584 4550 3584 
Q 5097 3584 5394 3201 
Q 5691 2819 5691 2113 
L 5691 0 
L 5113 0 
L 5113 2094 
Q 5113 2597 4934 2840 
Q 4756 3084 4391 3084 
Q 3944 3084 3684 2787 
Q 3425 2491 3425 1978 
L 3425 0 
L 2847 0 
L 2847 2094 
Q 2847 2600 2669 2842 
Q 2491 3084 2119 3084 
Q 1678 3084 1418 2786 
Q 1159 2488 1159 1978 
L 1159 0 
L 581 0 
L 581 3500 
L 1159 3500 
L 1159 2956 
Q 1356 3278 1631 3431 
Q 1906 3584 2284 3584 
Q 2666 3584 2933 3390 
Q 3200 3197 3328 2828 
z
" transform="scale(0.015625)"/>
      <path id="DejaVuSans-65" d="M 3597 1894 
L 3597 1613 
L 953 1613 
Q 991 1019 1311 708 
Q 1631 397 2203 397 
Q 2534 397 2845 478 
Q 3156 559 3463 722 
L 3463 178 
Q 3153 47 2828 -22 
Q 2503 -91 2169 -91 
Q 1331 -91 842 396 
Q 353 884 353 1716 
Q 353 2575 817 3079 
Q 1281 3584 2069 3584 
Q 2775 3584 3186 3129 
Q 3597 2675 3597 1894 
z
M 3022 2063 
Q 3016 2534 2758 2815 
Q 2500 3097 2075 3097 
Q 1594 3097 1305 2825 
Q 1016 2553 972 2059 
L 3022 2063 
z
" transform="scale(0.015625)"/>
      <path id="DejaVuSans-6f" d="M 1959 3097 
Q 1497 3097 1228 2736 
Q 959 2375 959 1747 
Q 959 1119 1226 758 
Q 1494 397 1959 397 
Q 2419 397 2687 759 
Q 2956 1122 2956 1747 
Q 2956 2369 2687 2733 
Q 2419 3097 1959 3097 
z
M 1959 3584 
Q 2709 3584 3137 3096 
Q 3566 2609 3566 1747 
Q 3566 888 3137 398 
Q 2709 -91 1959 -91 
Q 1206 -91 779 398 
Q 353 888 353 1747 
Q 353 2609 779 3096 
Q 1206 3584 1959 3584 
z
" transform="scale(0.015625)"/>
      <path id="DejaVuSans-72" d="M 2631 2963 
Q 2534 3019 2420 3045 
Q 2306 3072 2169 3072 
Q 1681 3072 1420 2755 
Q 1159 2438 1159 1844 
L 1159 0 
L 581 0 
L 581 3500 
L 1159 3500 
L 1159 2956 
Q 1341 3275 1631 3429 
Q 1922 3584 2338 3584 
Q 2397 3584 2469 3576 
Q 2541 3569 2628 3553 
L 2631 2963 
z
" transform="scale(0.015625)"/>
      <path id="DejaVuSans-3d" d="M 678 2906 
L 4684 2906 
L 4684 2381 
L 678 2381 
L 678 2906 
z
M 678 1631 
L 4684 1631 
L 4684 1100 
L 678 1100 
L 678 1631 
z
" transform="scale(0.015625)"/>
      <path id="DejaVuSans-2c" d="M 750 794 
L 1409 794 
L 1409 256 
L 897 -744 
L 494 -744 
L 750 256 
L 750 794 
z
" transform="scale(0.015625)"/>
      <path id="DejaVuSans-39" d="M 703 97 
L 703 672 
Q 941 559 1184 500 
Q 1428 441 1663 441 
Q 2288 441 2617 861 
Q 2947 1281 2994 2138 
Q 2813 1869 2534 1725 
Q 2256 1581 1919 1581 
Q 1219 1581 811 2004 
Q 403 2428 403 3163 
Q 403 3881 828 4315 
Q 1253 4750 1959 4750 
Q 2769 4750 3195 4129 
Q 3622 3509 3622 2328 
Q 3622 1225 3098 567 
Q 2575 -91 1691 -91 
Q 1453 -91 1209 -44 
Q 966 3 703 97 
z
M 1959 2075 
Q 2384 2075 2632 2365 
Q 2881 2656 2881 3163 
Q 2881 3666 2632 3958 
Q 2384 4250 1959 4250 
Q 1534 4250 1286 3958 
Q 1038 3666 1038 3163 
Q 1038 2656 1286 2365 
Q 1534 2075 1959 2075 
z
" transform="scale(0.015625)"/>
      <path id="DejaVuSans-5f" d="M 3263 -1063 
L 3263 -1509 
L -63 -1509 
L -63 -1063 
L 3263 -1063 
z
" transform="scale(0.015625)"/>
      <path id="DejaVuSans-6c" d="M 603 4863 
L 1178 4863 
L 1178 0 
L 603 0 
L 603 4863 
z
" transform="scale(0.015625)"/>
      <path id="DejaVuSans-77" d="M 269 3500 
L 844 3500 
L 1563 769 
L 2278 3500 
L 2956 3500 
L 3675 769 
L 4391 3500 
L 4966 3500 
L 4050 0 
L 3372 0 
L 2619 2869 
L 1863 0 
L 1184 0 
L 269 3500 
z
" transform="scale(0.015625)"/>
      <path id="DejaVuSans-48" d="M 628 4666 
L 1259 4666 
L 1259 2753 
L 3553 2753 
L 3553 4666 
L 4184 4666 
L 4184 0 
L 3553 0 
L 3553 2222 
L 1259 2222 
L 1259 0 
L 628 0 
L 628 4666 
z
" transform="scale(0.015625)"/>
      <path id="DejaVuSans-7a" d="M 353 3500 
L 3084 3500 
L 3084 2975 
L 922 459 
L 3084 459 
L 3084 0 
L 275 0 
L 275 525 
L 2438 3041 
L 353 3041 
L 353 3500 
z
" transform="scale(0.015625)"/>
     </defs>
     <use xlink:href="#DejaVuSans-4d"/>
     <use xlink:href="#DejaVuSans-66" transform="translate(86.279297 0)"/>
     <use xlink:href="#DejaVuSans-20" transform="translate(121.484375 0)"/>
     <use xlink:href="#DejaVuSans-76" transform="translate(153.271484 0)"/>
     <use xlink:href="#DejaVuSans-73" transform="translate(212.451172 0)"/>
     <use xlink:href="#DejaVuSans-20" transform="translate(264.550781 0)"/>
     <use xlink:href="#DejaVuSans-54" transform="translate(296.337891 0)"/>
     <use xlink:href="#DejaVuSans-69" transform="translate(354.296875 0)"/>
     <use xlink:href="#DejaVuSans-6d" transform="translate(382.080078 0)"/>
     <use xlink:href="#DejaVuSans-65" transform="translate(479.492188 0)"/>
     <use xlink:href="#DejaVuSans-20" transform="translate(541.015625 0)"/>
     <use xlink:href="#DejaVuSans-66" transform="translate(572.802734 0)"/>
     <use xlink:href="#DejaVuSans-6f" transform="translate(608.007812 0)"/>
     <use xlink:href="#DejaVuSans-72" transform="translate(669.189453 0)"/>
     <use xlink:href="#DejaVuSans-20" transform="translate(710.302734 0)"/>
     <use xlink:href="#DejaVuSans-4d" transform="translate(742.089844 0)"/>
     <use xlink:href="#DejaVuSans-3d" transform="translate(828.369141 0)"/>
     <use xlink:href="#DejaVuSans-36" transform="translate(912.158203 0)"/>
     <use xlink:href="#DejaVuSans-30" transform="translate(975.78125 0)"/>
     <use xlink:href="#DejaVuSans-2c" transform="translate(1039.404297 0)"/>
     <use xlink:href="#DejaVuSans-20" transform="translate(1071.191406 0)"/>
     <use xlink:href="#DejaVuSans-65" transform="translate(1102.978516 0)"/>
     <use xlink:href="#DejaVuSans-3d" transform="translate(1164.501953 0)"/>
     <use xlink:href="#DejaVuSans-30" transform="translate(1248.291016 0)"/>
     <use xlink:href="#DejaVuSans-2e" transform="translate(1311.914062 0)"/>
     <use xlink:href="#DejaVuSans-32" transform="translate(1343.701172 0)"/>
     <use xlink:href="#DejaVuSans-39" transform="translate(1407.324219 0)"/>
     <use xlink:href="#DejaVuSans-2c" transform="translate(1470.947266 0)"/>
     <use xlink:href="#DejaVuSans-20" transform="translate(1502.734375 0)"/>
     <use xlink:href="#DejaVuSans-66" transform="translate(1534.521484 0)"/>
     <use xlink:href="#DejaVuSans-5f" transform="translate(1569.726562 0)"/>
     <use xlink:href="#DejaVuSans-6c" transform="translate(1619.726562 0)"/>
     <use xlink:href="#DejaVuSans-6f" transform="translate(1647.509766 0)"/>
     <use xlink:href="#DejaVuSans-77" transform="translate(1708.691406 0)"/>
     <use xlink:href="#DejaVuSans-65" transform="translate(1790.478516 0)"/>
     <use xlink:href="#DejaVuSans-72" transform="translate(1852.001953 0)"/>
     <use xlink:href="#DejaVuSans-3d" transform="translate(1893.115234 0)"/>
     <use xlink:href="#DejaVuSans-31" transform="translate(1976.904297 0)"/>
     <use xlink:href="#DejaVuSans-30" transform="translate(2040.527344 0)"/>
     <use xlink:href="#DejaVuSans-20" transform="translate(2104.150391 0)"/>
     <use xlink:href="#DejaVuSans-48" transform="translate(2135.9375 0)"/>
     <use xlink:href="#DejaVuSans-7a" transform="translate(2211.132812 0)"/>
    </g>
   </g>
   <g id="legend_1">
    <g id="patch_7">
     <path d="M 57.14375 59.9525 
L 153.10625 59.9525 
Q 155.10625 59.9525 155.10625 57.9525 
L 155.10625 29.318125 
Q 155.10625 27.318125 153.10625 27.318125 
L 57.14375 27.318125 
Q 55.14375 27.318125 55.14375 29.318125 
L 55.14375 57.9525 
Q 55.14375 59.9525 57.14375 59.9525 
z
" style="fill: #ffffff; opacity: 0.8; stroke: #cccccc; stroke-linejoin: miter"/>
    </g>
    <g id="line2d_16">
     <path d="M 59.14375 35.416563 
L 69.14375 35.416563 
L 79.14375 35.416563 
" style="fill: none; stroke: #1f77b4; stroke-width: 0.6; stroke-linecap: square"/>
    </g>
    <g id="text_17">
     <!-- Mf -->
     <g transform="translate(87.14375 38.916563) scale(0.1 -0.1)">
      <use xlink:href="#DejaVuSans-4d"/>
      <use xlink:href="#DejaVuSans-66" transform="translate(86.279297 0)"/>
     </g>
    </g>
    <g id="line2d_17">
     <path d="M 59.14375 50.094688 
L 69.14375 50.094688 
L 79.14375 50.094688 
" style="fill: none; stroke-dasharray: 2.22,0.96; stroke-dashoffset: 0; stroke: #ff0000; stroke-width: 0.6"/>
    </g>
    <g id="text_18">
     <!-- Mf_ISCO_circ -->
     <g transform="translate(87.14375 53.594688) scale(0.1 -0.1)">
      <defs>
       <path id="DejaVuSans-49" d="M 628 4666 
L 1259 4666 
L 1259 0 
L 628 0 
L 628 4666 
z
" transform="scale(0.015625)"/>
       <path id="DejaVuSans-53" d="M 3425 4513 
L 3425 3897 
Q 3066 4069 2747 4153 
Q 2428 4238 2131 4238 
Q 1616 4238 1336 4038 
Q 1056 3838 1056 3469 
Q 1056 3159 1242 3001 
Q 1428 2844 1947 2747 
L 2328 2669 
Q 3034 2534 3370 2195 
Q 3706 1856 3706 1288 
Q 3706 609 3251 259 
Q 2797 -91 1919 -91 
Q 1588 -91 1214 -16 
Q 841 59 441 206 
L 441 856 
Q 825 641 1194 531 
Q 1563 422 1919 422 
Q 2459 422 2753 634 
Q 3047 847 3047 1241 
Q 3047 1584 2836 1778 
Q 2625 1972 2144 2069 
L 1759 2144 
Q 1053 2284 737 2584 
Q 422 2884 422 3419 
Q 422 4038 858 4394 
Q 1294 4750 2059 4750 
Q 2388 4750 2728 4690 
Q 3069 4631 3425 4513 
z
" transform="scale(0.015625)"/>
       <path id="DejaVuSans-43" d="M 4122 4306 
L 4122 3641 
Q 3803 3938 3442 4084 
Q 3081 4231 2675 4231 
Q 1875 4231 1450 3742 
Q 1025 3253 1025 2328 
Q 1025 1406 1450 917 
Q 1875 428 2675 428 
Q 3081 428 3442 575 
Q 3803 722 4122 1019 
L 4122 359 
Q 3791 134 3420 21 
Q 3050 -91 2638 -91 
Q 1578 -91 968 557 
Q 359 1206 359 2328 
Q 359 3453 968 4101 
Q 1578 4750 2638 4750 
Q 3056 4750 3426 4639 
Q 3797 4528 4122 4306 
z
" transform="scale(0.015625)"/>
       <path id="DejaVuSans-4f" d="M 2522 4238 
Q 1834 4238 1429 3725 
Q 1025 3213 1025 2328 
Q 1025 1447 1429 934 
Q 1834 422 2522 422 
Q 3209 422 3611 934 
Q 4013 1447 4013 2328 
Q 4013 3213 3611 3725 
Q 3209 4238 2522 4238 
z
M 2522 4750 
Q 3503 4750 4090 4092 
Q 4678 3434 4678 2328 
Q 4678 1225 4090 567 
Q 3503 -91 2522 -91 
Q 1538 -91 948 565 
Q 359 1222 359 2328 
Q 359 3434 948 4092 
Q 1538 4750 2522 4750 
z
" transform="scale(0.015625)"/>
       <path id="DejaVuSans-63" d="M 3122 3366 
L 3122 2828 
Q 2878 2963 2633 3030 
Q 2388 3097 2138 3097 
Q 1578 3097 1268 2742 
Q 959 2388 959 1747 
Q 959 1106 1268 751 
Q 1578 397 2138 397 
Q 2388 397 2633 464 
Q 2878 531 3122 666 
L 3122 134 
Q 2881 22 2623 -34 
Q 2366 -91 2075 -91 
Q 1284 -91 818 406 
Q 353 903 353 1747 
Q 353 2603 823 3093 
Q 1294 3584 2113 3584 
Q 2378 3584 2631 3529 
Q 2884 3475 3122 3366 
z
" transform="scale(0.015625)"/>
      </defs>
      <use xlink:href="#DejaVuSans-4d"/>
      <use xlink:href="#DejaVuSans-66" transform="translate(86.279297 0)"/>
      <use xlink:href="#DejaVuSans-5f" transform="translate(121.484375 0)"/>
      <use xlink:href="#DejaVuSans-49" transform="translate(171.484375 0)"/>
      <use xlink:href="#DejaVuSans-53" transform="translate(200.976562 0)"/>
      <use xlink:href="#DejaVuSans-43" transform="translate(264.453125 0)"/>
      <use xlink:href="#DejaVuSans-4f" transform="translate(334.277344 0)"/>
      <use xlink:href="#DejaVuSans-5f" transform="translate(412.988281 0)"/>
      <use xlink:href="#DejaVuSans-63" transform="translate(462.988281 0)"/>
      <use xlink:href="#DejaVuSans-69" transform="translate(517.96875 0)"/>
      <use xlink:href="#DejaVuSans-72" transform="translate(545.751953 0)"/>
      <use xlink:href="#DejaVuSans-63" transform="translate(584.615234 0)"/>
     </g>
    </g>
   </g>
  </g>
 </g>
 <defs>
  <clipPath id="p41a582fd6a">
   <rect x="50.14375" y="22.318125" width="669.6" height="277.2"/>
  </clipPath>
 </defs>
</svg>
