<?xml version="1.0" encoding="utf-8" standalone="no"?>
<!DOCTYPE svg PUBLIC "-//W3C//DTD SVG 1.1//EN"
  "http://www.w3.org/Graphics/SVG/1.1/DTD/svg11.dtd">
<svg xmlns:xlink="http://www.w3.org/1999/xlink" width="726.94375pt" height="337.074375pt" viewBox="0 0 726.94375 337.074375" xmlns="http://www.w3.org/2000/svg" version="1.1">
 <metadata>
  <rdf:RDF xmlns:dc="http://purl.org/dc/elements/1.1/" xmlns:cc="http://creativecommons.org/ns#" xmlns:rdf="http://www.w3.org/1999/02/22-rdf-syntax-ns#">
   <cc:Work>
    <dc:type rdf:resource="http://purl.org/dc/dcmitype/StillImage"/>
    <dc:date>2025-07-24T14:39:29.175435</dc:date>
    <dc:format>image/svg+xml</dc:format>
    <dc:creator>
     <cc:Agent>
      <dc:title>Matplotlib v3.10.3, https://matplotlib.org/</dc:title>
     </cc:Agent>
    </dc:creator>
   </cc:Work>
  </rdf:RDF>
 </metadata>
 <defs>
  <style type="text/css">*{stroke-linejoin: round; stroke-linecap: butt}</style>
 </defs>
 <g id="figure_1">
  <g id="patch_1">
   <path d="M 0 337.074375 
L 726.94375 337.074375 
L 726.94375 0 
L 0 0 
z
" style="fill: #ffffff"/>
  </g>
  <g id="axes_1">
   <g id="patch_2">
    <path d="M 50.14375 299.518125 
L 719.74375 299.518125 
L 719.74375 22.318125 
L 50.14375 22.318125 
z
" style="fill: #ffffff"/>
   </g>
   <g id="matplotlib.axis_1">
    <g id="xtick_1">
     <g id="line2d_1">
      <defs>
       <path id="mfbe6db9edf" d="M 0 0 
L 0 3.5 
" style="stroke: #000000; stroke-width: 0.8"/>
      </defs>
      <g>
       <use xlink:href="#mfbe6db9edf" x="59.772578" y="299.518125" style="stroke: #000000; stroke-width: 0.8"/>
      </g>
     </g>
     <g id="text_1">
      <!-- −14000 -->
      <g transform="translate(39.676484 314.116563) scale(0.1 -0.1)">
       <defs>
        <path id="DejaVuSans-2212" d="M 678 2272 
L 4684 2272 
L 4684 1741 
L 678 1741 
L 678 2272 
z
" transform="scale(0.015625)"/>
        <path id="DejaVuSans-31" d="M 794 531 
L 1825 531 
L 1825 4091 
L 703 3866 
L 703 4441 
L 1819 4666 
L 2450 4666 
L 2450 531 
L 3481 531 
L 3481 0 
L 794 0 
L 794 531 
z
" transform="scale(0.015625)"/>
        <path id="DejaVuSans-34" d="M 2419 4116 
L 825 1625 
L 2419 1625 
L 2419 4116 
z
M 2253 4666 
L 3047 4666 
L 3047 1625 
L 3713 1625 
L 3713 1100 
L 3047 1100 
L 3047 0 
L 2419 0 
L 2419 1100 
L 313 1100 
L 313 1709 
L 2253 4666 
z
" transform="scale(0.015625)"/>
        <path id="DejaVuSans-30" d="M 2034 4250 
Q 1547 4250 1301 3770 
Q 1056 3291 1056 2328 
Q 1056 1369 1301 889 
Q 1547 409 2034 409 
Q 2525 409 2770 889 
Q 3016 1369 3016 2328 
Q 3016 3291 2770 3770 
Q 2525 4250 2034 4250 
z
M 2034 4750 
Q 2819 4750 3233 4129 
Q 3647 3509 3647 2328 
Q 3647 1150 3233 529 
Q 2819 -91 2034 -91 
Q 1250 -91 836 529 
Q 422 1150 422 2328 
Q 422 3509 836 4129 
Q 1250 4750 2034 4750 
z
" transform="scale(0.015625)"/>
       </defs>
       <use xlink:href="#DejaVuSans-2212"/>
       <use xlink:href="#DejaVuSans-31" transform="translate(83.789062 0)"/>
       <use xlink:href="#DejaVuSans-34" transform="translate(147.412109 0)"/>
       <use xlink:href="#DejaVuSans-30" transform="translate(211.035156 0)"/>
       <use xlink:href="#DejaVuSans-30" transform="translate(274.658203 0)"/>
       <use xlink:href="#DejaVuSans-30" transform="translate(338.28125 0)"/>
      </g>
     </g>
    </g>
    <g id="xtick_2">
     <g id="line2d_2">
      <g>
       <use xlink:href="#mfbe6db9edf" x="149.273088" y="299.518125" style="stroke: #000000; stroke-width: 0.8"/>
      </g>
     </g>
     <g id="text_2">
      <!-- −12000 -->
      <g transform="translate(129.176994 314.116563) scale(0.1 -0.1)">
       <defs>
        <path id="DejaVuSans-32" d="M 1228 531 
L 3431 531 
L 3431 0 
L 469 0 
L 469 531 
Q 828 903 1448 1529 
Q 2069 2156 2228 2338 
Q 2531 2678 2651 2914 
Q 2772 3150 2772 3378 
Q 2772 3750 2511 3984 
Q 2250 4219 1831 4219 
Q 1534 4219 1204 4116 
Q 875 4013 500 3803 
L 500 4441 
Q 881 4594 1212 4672 
Q 1544 4750 1819 4750 
Q 2544 4750 2975 4387 
Q 3406 4025 3406 3419 
Q 3406 3131 3298 2873 
Q 3191 2616 2906 2266 
Q 2828 2175 2409 1742 
Q 1991 1309 1228 531 
z
" transform="scale(0.015625)"/>
       </defs>
       <use xlink:href="#DejaVuSans-2212"/>
       <use xlink:href="#DejaVuSans-31" transform="translate(83.789062 0)"/>
       <use xlink:href="#DejaVuSans-32" transform="translate(147.412109 0)"/>
       <use xlink:href="#DejaVuSans-30" transform="translate(211.035156 0)"/>
       <use xlink:href="#DejaVuSans-30" transform="translate(274.658203 0)"/>
       <use xlink:href="#DejaVuSans-30" transform="translate(338.28125 0)"/>
      </g>
     </g>
    </g>
    <g id="xtick_3">
     <g id="line2d_3">
      <g>
       <use xlink:href="#mfbe6db9edf" x="238.773599" y="299.518125" style="stroke: #000000; stroke-width: 0.8"/>
      </g>
     </g>
     <g id="text_3">
      <!-- −10000 -->
      <g transform="translate(218.677505 314.116563) scale(0.1 -0.1)">
       <use xlink:href="#DejaVuSans-2212"/>
       <use xlink:href="#DejaVuSans-31" transform="translate(83.789062 0)"/>
       <use xlink:href="#DejaVuSans-30" transform="translate(147.412109 0)"/>
       <use xlink:href="#DejaVuSans-30" transform="translate(211.035156 0)"/>
       <use xlink:href="#DejaVuSans-30" transform="translate(274.658203 0)"/>
       <use xlink:href="#DejaVuSans-30" transform="translate(338.28125 0)"/>
      </g>
     </g>
    </g>
    <g id="xtick_4">
     <g id="line2d_4">
      <g>
       <use xlink:href="#mfbe6db9edf" x="328.274109" y="299.518125" style="stroke: #000000; stroke-width: 0.8"/>
      </g>
     </g>
     <g id="text_4">
      <!-- −8000 -->
      <g transform="translate(311.359266 314.116563) scale(0.1 -0.1)">
       <defs>
        <path id="DejaVuSans-38" d="M 2034 2216 
Q 1584 2216 1326 1975 
Q 1069 1734 1069 1313 
Q 1069 891 1326 650 
Q 1584 409 2034 409 
Q 2484 409 2743 651 
Q 3003 894 3003 1313 
Q 3003 1734 2745 1975 
Q 2488 2216 2034 2216 
z
M 1403 2484 
Q 997 2584 770 2862 
Q 544 3141 544 3541 
Q 544 4100 942 4425 
Q 1341 4750 2034 4750 
Q 2731 4750 3128 4425 
Q 3525 4100 3525 3541 
Q 3525 3141 3298 2862 
Q 3072 2584 2669 2484 
Q 3125 2378 3379 2068 
Q 3634 1759 3634 1313 
Q 3634 634 3220 271 
Q 2806 -91 2034 -91 
Q 1263 -91 848 271 
Q 434 634 434 1313 
Q 434 1759 690 2068 
Q 947 2378 1403 2484 
z
M 1172 3481 
Q 1172 3119 1398 2916 
Q 1625 2713 2034 2713 
Q 2441 2713 2670 2916 
Q 2900 3119 2900 3481 
Q 2900 3844 2670 4047 
Q 2441 4250 2034 4250 
Q 1625 4250 1398 4047 
Q 1172 3844 1172 3481 
z
" transform="scale(0.015625)"/>
       </defs>
       <use xlink:href="#DejaVuSans-2212"/>
       <use xlink:href="#DejaVuSans-38" transform="translate(83.789062 0)"/>
       <use xlink:href="#DejaVuSans-30" transform="translate(147.412109 0)"/>
       <use xlink:href="#DejaVuSans-30" transform="translate(211.035156 0)"/>
       <use xlink:href="#DejaVuSans-30" transform="translate(274.658203 0)"/>
      </g>
     </g>
    </g>
    <g id="xtick_5">
     <g id="line2d_5">
      <g>
       <use xlink:href="#mfbe6db9edf" x="417.77462" y="299.518125" style="stroke: #000000; stroke-width: 0.8"/>
      </g>
     </g>
     <g id="text_5">
      <!-- −6000 -->
      <g transform="translate(400.859776 314.116563) scale(0.1 -0.1)">
       <defs>
        <path id="DejaVuSans-36" d="M 2113 2584 
Q 1688 2584 1439 2293 
Q 1191 2003 1191 1497 
Q 1191 994 1439 701 
Q 1688 409 2113 409 
Q 2538 409 2786 701 
Q 3034 994 3034 1497 
Q 3034 2003 2786 2293 
Q 2538 2584 2113 2584 
z
M 3366 4563 
L 3366 3988 
Q 3128 4100 2886 4159 
Q 2644 4219 2406 4219 
Q 1781 4219 1451 3797 
Q 1122 3375 1075 2522 
Q 1259 2794 1537 2939 
Q 1816 3084 2150 3084 
Q 2853 3084 3261 2657 
Q 3669 2231 3669 1497 
Q 3669 778 3244 343 
Q 2819 -91 2113 -91 
Q 1303 -91 875 529 
Q 447 1150 447 2328 
Q 447 3434 972 4092 
Q 1497 4750 2381 4750 
Q 2619 4750 2861 4703 
Q 3103 4656 3366 4563 
z
" transform="scale(0.015625)"/>
       </defs>
       <use xlink:href="#DejaVuSans-2212"/>
       <use xlink:href="#DejaVuSans-36" transform="translate(83.789062 0)"/>
       <use xlink:href="#DejaVuSans-30" transform="translate(147.412109 0)"/>
       <use xlink:href="#DejaVuSans-30" transform="translate(211.035156 0)"/>
       <use xlink:href="#DejaVuSans-30" transform="translate(274.658203 0)"/>
      </g>
     </g>
    </g>
    <g id="xtick_6">
     <g id="line2d_6">
      <g>
       <use xlink:href="#mfbe6db9edf" x="507.275131" y="299.518125" style="stroke: #000000; stroke-width: 0.8"/>
      </g>
     </g>
     <g id="text_6">
      <!-- −4000 -->
      <g transform="translate(490.360287 314.116563) scale(0.1 -0.1)">
       <use xlink:href="#DejaVuSans-2212"/>
       <use xlink:href="#DejaVuSans-34" transform="translate(83.789062 0)"/>
       <use xlink:href="#DejaVuSans-30" transform="translate(147.412109 0)"/>
       <use xlink:href="#DejaVuSans-30" transform="translate(211.035156 0)"/>
       <use xlink:href="#DejaVuSans-30" transform="translate(274.658203 0)"/>
      </g>
     </g>
    </g>
    <g id="xtick_7">
     <g id="line2d_7">
      <g>
       <use xlink:href="#mfbe6db9edf" x="596.775641" y="299.518125" style="stroke: #000000; stroke-width: 0.8"/>
      </g>
     </g>
     <g id="text_7">
      <!-- −2000 -->
      <g transform="translate(579.860797 314.116563) scale(0.1 -0.1)">
       <use xlink:href="#DejaVuSans-2212"/>
       <use xlink:href="#DejaVuSans-32" transform="translate(83.789062 0)"/>
       <use xlink:href="#DejaVuSans-30" transform="translate(147.412109 0)"/>
       <use xlink:href="#DejaVuSans-30" transform="translate(211.035156 0)"/>
       <use xlink:href="#DejaVuSans-30" transform="translate(274.658203 0)"/>
      </g>
     </g>
    </g>
    <g id="xtick_8">
     <g id="line2d_8">
      <g>
       <use xlink:href="#mfbe6db9edf" x="686.276152" y="299.518125" style="stroke: #000000; stroke-width: 0.8"/>
      </g>
     </g>
     <g id="text_8">
      <!-- 0 -->
      <g transform="translate(683.094902 314.116563) scale(0.1 -0.1)">
       <use xlink:href="#DejaVuSans-30"/>
      </g>
     </g>
    </g>
    <g id="text_9">
     <!-- t [M] -->
     <g transform="translate(373.178906 327.794688) scale(0.1 -0.1)">
      <defs>
       <path id="DejaVuSans-74" d="M 1172 4494 
L 1172 3500 
L 2356 3500 
L 2356 3053 
L 1172 3053 
L 1172 1153 
Q 1172 725 1289 603 
Q 1406 481 1766 481 
L 2356 481 
L 2356 0 
L 1766 0 
Q 1100 0 847 248 
Q 594 497 594 1153 
L 594 3053 
L 172 3053 
L 172 3500 
L 594 3500 
L 594 4494 
L 1172 4494 
z
" transform="scale(0.015625)"/>
       <path id="DejaVuSans-20" transform="scale(0.015625)"/>
       <path id="DejaVuSans-5b" d="M 550 4863 
L 1875 4863 
L 1875 4416 
L 1125 4416 
L 1125 -397 
L 1875 -397 
L 1875 -844 
L 550 -844 
L 550 4863 
z
" transform="scale(0.015625)"/>
       <path id="DejaVuSans-4d" d="M 628 4666 
L 1569 4666 
L 2759 1491 
L 3956 4666 
L 4897 4666 
L 4897 0 
L 4281 0 
L 4281 4097 
L 3078 897 
L 2444 897 
L 1241 4097 
L 1241 0 
L 628 0 
L 628 4666 
z
" transform="scale(0.015625)"/>
       <path id="DejaVuSans-5d" d="M 1947 4863 
L 1947 -844 
L 622 -844 
L 622 -397 
L 1369 -397 
L 1369 4416 
L 622 4416 
L 622 4863 
L 1947 4863 
z
" transform="scale(0.015625)"/>
      </defs>
      <use xlink:href="#DejaVuSans-74"/>
      <use xlink:href="#DejaVuSans-20" transform="translate(39.208984 0)"/>
      <use xlink:href="#DejaVuSans-5b" transform="translate(70.996094 0)"/>
      <use xlink:href="#DejaVuSans-4d" transform="translate(110.009766 0)"/>
      <use xlink:href="#DejaVuSans-5d" transform="translate(196.289062 0)"/>
     </g>
    </g>
   </g>
   <g id="matplotlib.axis_2">
    <g id="ytick_1">
     <g id="line2d_9">
      <defs>
       <path id="m4d3aaff4e9" d="M 0 0 
L -3.5 0 
" style="stroke: #000000; stroke-width: 0.8"/>
      </defs>
      <g>
       <use xlink:href="#m4d3aaff4e9" x="50.14375" y="293.17684" style="stroke: #000000; stroke-width: 0.8"/>
      </g>
     </g>
     <g id="text_10">
      <!-- 0.00 -->
      <g transform="translate(20.878125 296.976058) scale(0.1 -0.1)">
       <defs>
        <path id="DejaVuSans-2e" d="M 684 794 
L 1344 794 
L 1344 0 
L 684 0 
L 684 794 
z
" transform="scale(0.015625)"/>
       </defs>
       <use xlink:href="#DejaVuSans-30"/>
       <use xlink:href="#DejaVuSans-2e" transform="translate(63.623047 0)"/>
       <use xlink:href="#DejaVuSans-30" transform="translate(95.410156 0)"/>
       <use xlink:href="#DejaVuSans-30" transform="translate(159.033203 0)"/>
      </g>
     </g>
    </g>
    <g id="ytick_2">
     <g id="line2d_10">
      <g>
       <use xlink:href="#m4d3aaff4e9" x="50.14375" y="234.539675" style="stroke: #000000; stroke-width: 0.8"/>
      </g>
     </g>
     <g id="text_11">
      <!-- 0.02 -->
      <g transform="translate(20.878125 238.338894) scale(0.1 -0.1)">
       <use xlink:href="#DejaVuSans-30"/>
       <use xlink:href="#DejaVuSans-2e" transform="translate(63.623047 0)"/>
       <use xlink:href="#DejaVuSans-30" transform="translate(95.410156 0)"/>
       <use xlink:href="#DejaVuSans-32" transform="translate(159.033203 0)"/>
      </g>
     </g>
    </g>
    <g id="ytick_3">
     <g id="line2d_11">
      <g>
       <use xlink:href="#m4d3aaff4e9" x="50.14375" y="175.90251" style="stroke: #000000; stroke-width: 0.8"/>
      </g>
     </g>
     <g id="text_12">
      <!-- 0.04 -->
      <g transform="translate(20.878125 179.701729) scale(0.1 -0.1)">
       <use xlink:href="#DejaVuSans-30"/>
       <use xlink:href="#DejaVuSans-2e" transform="translate(63.623047 0)"/>
       <use xlink:href="#DejaVuSans-30" transform="translate(95.410156 0)"/>
       <use xlink:href="#DejaVuSans-34" transform="translate(159.033203 0)"/>
      </g>
     </g>
    </g>
    <g id="ytick_4">
     <g id="line2d_12">
      <g>
       <use xlink:href="#m4d3aaff4e9" x="50.14375" y="117.265346" style="stroke: #000000; stroke-width: 0.8"/>
      </g>
     </g>
     <g id="text_13">
      <!-- 0.06 -->
      <g transform="translate(20.878125 121.064564) scale(0.1 -0.1)">
       <use xlink:href="#DejaVuSans-30"/>
       <use xlink:href="#DejaVuSans-2e" transform="translate(63.623047 0)"/>
       <use xlink:href="#DejaVuSans-30" transform="translate(95.410156 0)"/>
       <use xlink:href="#DejaVuSans-36" transform="translate(159.033203 0)"/>
      </g>
     </g>
    </g>
    <g id="ytick_5">
     <g id="line2d_13">
      <g>
       <use xlink:href="#m4d3aaff4e9" x="50.14375" y="58.628181" style="stroke: #000000; stroke-width: 0.8"/>
      </g>
     </g>
     <g id="text_14">
      <!-- 0.08 -->
      <g transform="translate(20.878125 62.4274) scale(0.1 -0.1)">
       <use xlink:href="#DejaVuSans-30"/>
       <use xlink:href="#DejaVuSans-2e" transform="translate(63.623047 0)"/>
       <use xlink:href="#DejaVuSans-30" transform="translate(95.410156 0)"/>
       <use xlink:href="#DejaVuSans-38" transform="translate(159.033203 0)"/>
      </g>
     </g>
    </g>
    <g id="text_15">
     <!-- Mf -->
     <g transform="translate(14.798437 166.992344) rotate(-90) scale(0.1 -0.1)">
      <defs>
       <path id="DejaVuSans-66" d="M 2375 4863 
L 2375 4384 
L 1825 4384 
Q 1516 4384 1395 4259 
Q 1275 4134 1275 3809 
L 1275 3500 
L 2222 3500 
L 2222 3053 
L 1275 3053 
L 1275 0 
L 697 0 
L 697 3053 
L 147 3053 
L 147 3500 
L 697 3500 
L 697 3744 
Q 697 4328 969 4595 
Q 1241 4863 1831 4863 
L 2375 4863 
z
" transform="scale(0.015625)"/>
      </defs>
      <use xlink:href="#DejaVuSans-4d"/>
      <use xlink:href="#DejaVuSans-66" transform="translate(86.279297 0)"/>
     </g>
    </g>
   </g>
   <g id="line2d_14">
    <path d="M 80.580114 281.374024 
L 80.877453 281.644588 
L 82.735821 283.408463 
L 84.148182 284.453459 
L 85.560542 285.228044 
L 87.344576 285.943751 
L 89.202945 286.467648 
L 91.135648 286.767786 
L 93.588695 286.917799 
L 95.818738 286.819201 
L 98.123115 286.514199 
L 99.832814 286.061263 
L 101.914187 285.267593 
L 103.400882 284.473483 
L 104.738908 283.501085 
L 106.299937 282.077662 
L 109.645001 278.886586 
L 110.388349 278.557183 
L 111.057361 278.503441 
L 111.726374 278.688029 
L 112.469722 279.140663 
L 113.510408 280.078191 
L 117.152811 283.624484 
L 118.565171 284.584279 
L 120.126201 285.357206 
L 121.98457 286.024024 
L 123.768604 286.429237 
L 125.924312 286.671725 
L 128.080019 286.702952 
L 130.458731 286.495713 
L 132.3171 286.131356 
L 134.175469 285.516451 
L 135.959503 284.703427 
L 137.297528 283.855208 
L 138.709889 282.685315 
L 140.493923 280.89163 
L 142.426626 278.984017 
L 143.244308 278.46697 
L 143.913321 278.280266 
L 144.582334 278.335625 
L 145.251347 278.624942 
L 146.069029 279.237547 
L 147.407054 280.583617 
L 149.711432 282.899935 
L 151.123792 283.998825 
L 152.536152 284.819635 
L 154.245851 285.547259 
L 156.029886 286.067158 
L 157.888254 286.366919 
L 160.043962 286.498745 
L 162.125335 286.399028 
L 164.281043 286.082684 
L 165.990742 285.597541 
L 167.849111 284.831046 
L 169.335806 283.982888 
L 170.673831 282.955082 
L 172.234861 281.458809 
L 175.133916 278.57725 
L 175.877264 278.170243 
L 176.546277 278.044452 
L 177.215289 278.165664 
L 177.884302 278.516495 
L 178.776319 279.258359 
L 180.486018 281.061088 
L 182.270052 282.815886 
L 183.682413 283.897139 
L 185.169108 284.740138 
L 186.878807 285.443682 
L 188.588506 285.907945 
L 190.52121 286.186706 
L 192.528248 286.265258 
L 194.609621 286.115815 
L 196.542325 285.76895 
L 198.177689 285.24812 
L 199.887388 284.481431 
L 201.299749 283.614758 
L 202.637774 282.527741 
L 204.273139 280.888485 
L 206.651851 278.470184 
L 207.469533 277.967415 
L 208.138546 277.805126 
L 208.733224 277.871384 
L 209.402236 278.172801 
L 210.219919 278.806342 
L 211.557944 280.189891 
L 213.787987 282.482642 
L 215.200347 283.604229 
L 216.612707 284.444037 
L 218.248072 285.15534 
L 219.883436 285.631872 
L 221.741805 285.928083 
L 223.674509 286.022296 
L 225.681547 285.88752 
L 227.539916 285.557509 
L 229.17528 285.037785 
L 230.884979 284.25402 
L 232.29734 283.367029 
L 233.635365 282.256951 
L 235.27073 280.584291 
L 237.575107 278.214718 
L 238.392789 277.707018 
L 239.061802 277.54529 
L 239.65648 277.615717 
L 240.325493 277.925245 
L 241.143175 278.57155 
L 242.4812 279.97621 
L 244.711243 282.290178 
L 246.123603 283.415186 
L 247.535964 284.257375 
L 249.096993 284.937935 
L 250.732358 285.408004 
L 252.516392 285.683868 
L 254.374761 285.756795 
L 256.307464 285.601531 
L 258.091498 285.24661 
L 259.652528 284.711194 
L 261.287892 283.91215 
L 262.700253 282.968558 
L 264.038278 281.797631 
L 265.747977 279.97845 
L 267.606346 278.040093 
L 268.424028 277.484237 
L 269.093041 277.279261 
L 269.687719 277.313793 
L 270.356732 277.591061 
L 271.174414 278.214294 
L 272.36377 279.451748 
L 274.816817 282.046477 
L 276.229177 283.183992 
L 277.641537 284.035157 
L 279.202567 284.715507 
L 280.763597 285.157162 
L 282.547631 285.422344 
L 284.331665 285.467827 
L 286.190034 285.285893 
L 287.899733 284.899983 
L 289.460763 284.31058 
L 291.021793 283.477976 
L 292.359818 282.51312 
L 293.697844 281.271922 
L 295.704882 279.049911 
L 297.042907 277.693647 
L 297.86059 277.156525 
L 298.529602 276.977411 
L 299.12428 277.040102 
L 299.793293 277.350539 
L 300.610975 278.009954 
L 301.874666 279.366936 
L 304.104709 281.751588 
L 305.517069 282.91071 
L 306.929429 283.777053 
L 308.416124 284.434161 
L 309.977154 284.878018 
L 311.686853 285.127111 
L 313.396553 285.156792 
L 315.180587 284.959414 
L 316.815951 284.557577 
L 318.302646 283.96163 
L 319.789341 283.126589 
L 321.127367 282.116065 
L 322.539727 280.744665 
L 326.18213 276.978004 
L 326.851142 276.698678 
L 327.44582 276.671591 
L 328.040498 276.856678 
L 328.783846 277.351299 
L 329.750198 278.300617 
L 333.318266 282.072311 
L 334.656291 283.049586 
L 336.068651 283.813422 
L 337.555346 284.365259 
L 339.116376 284.704444 
L 340.751741 284.840193 
L 342.387105 284.758038 
L 344.02247 284.462471 
L 345.509165 283.971705 
L 346.99586 283.236104 
L 348.333885 282.334944 
L 349.671911 281.152637 
L 351.232941 279.444337 
L 353.388648 277.072809 
L 354.206331 276.509933 
L 354.875343 276.319254 
L 355.470021 276.380901 
L 356.139034 276.700439 
L 356.956716 277.38223 
L 358.220407 278.783577 
L 360.376115 281.15525 
L 361.71414 282.292202 
L 363.052166 283.150355 
L 364.464526 283.798775 
L 365.951221 284.231142 
L 367.512251 284.454184 
L 369.073281 284.459515 
L 370.708645 284.236963 
L 372.19534 283.813871 
L 373.607701 283.177846 
L 375.020061 282.288278 
L 376.283752 281.232601 
L 377.696112 279.746495 
L 380.669502 276.472398 
L 381.412849 276.047945 
L 382.007527 275.942867 
L 382.602205 276.061489 
L 383.271218 276.44315 
L 384.0889 277.186491 
L 385.64993 278.992987 
L 387.433964 280.934014 
L 388.77199 282.060676 
L 390.110015 282.902637 
L 391.522375 283.523251 
L 392.934736 283.903438 
L 394.421431 284.082223 
L 395.908126 284.045546 
L 397.469155 283.778825 
L 398.881516 283.312145 
L 400.219541 282.639099 
L 401.557567 281.715346 
L 402.821258 280.571801 
L 404.307953 278.902977 
L 406.61233 276.274013 
L 407.355677 275.747651 
L 408.02469 275.543495 
L 408.619368 275.604167 
L 409.214046 275.885528 
L 409.957394 276.494807 
L 411.072415 277.736652 
L 413.525462 280.531886 
L 414.863487 281.684042 
L 416.201513 282.539119 
L 417.539538 283.13168 
L 418.951898 283.508446 
L 420.364259 283.662693 
L 421.776619 283.603615 
L 423.188979 283.33245 
L 424.527005 282.857893 
L 425.86503 282.140103 
L 427.128721 281.213723 
L 428.392412 280.010888 
L 429.953441 278.181739 
L 431.886145 275.927469 
L 432.703827 275.314645 
L 433.298505 275.110008 
L 433.893183 275.138699 
L 434.487861 275.396708 
L 435.231209 275.991697 
L 436.271895 277.149598 
L 438.947946 280.241732 
L 440.285972 281.383873 
L 441.549663 282.179084 
L 442.813353 282.726859 
L 444.151379 283.069441 
L 445.563739 283.194426 
L 446.976099 283.085278 
L 448.314125 282.764017 
L 449.577816 282.242012 
L 450.841506 281.480766 
L 452.105197 280.45299 
L 453.368888 279.133888 
L 455.301591 276.728254 
L 456.565282 275.321209 
L 457.30863 274.792621 
L 457.903308 274.612172 
L 458.497986 274.672945 
L 459.092664 274.966714 
L 459.836011 275.604668 
L 460.951032 276.900993 
L 463.329745 279.704905 
L 464.593435 280.828325 
L 465.857126 281.659279 
L 467.120817 282.224185 
L 468.384508 282.553198 
L 469.722533 282.668401 
L 471.060559 282.551182 
L 472.324249 282.224026 
L 473.58794 281.663345 
L 474.777296 280.897582 
L 475.966652 279.877477 
L 477.230343 278.499107 
L 480.724076 274.416903 
L 481.393089 274.102935 
L 481.987767 274.082527 
L 482.582445 274.308551 
L 483.251458 274.820044 
L 484.217809 275.888571 
L 487.339869 279.581912 
L 488.60356 280.627386 
L 489.792916 281.334121 
L 490.982272 281.796102 
L 492.245963 282.046035 
L 493.509653 282.062455 
L 494.773344 281.847751 
L 495.9627 281.4238 
L 497.152056 280.760865 
L 498.341412 279.836936 
L 499.530768 278.631508 
L 501.017463 276.769149 
L 503.024501 274.261126 
L 503.767849 273.676713 
L 504.362527 273.463168 
L 504.88287 273.486593 
L 505.477548 273.749654 
L 506.146561 274.303729 
L 507.112913 275.423664 
L 509.937633 278.865793 
L 511.126989 279.90814 
L 512.316345 280.660236 
L 513.505701 281.144448 
L 514.695057 281.384809 
L 515.884413 281.394004 
L 517.073769 281.174455 
L 518.263125 280.715605 
L 519.378146 280.046711 
L 520.493168 279.126929 
L 521.682524 277.854503 
L 523.169219 275.904937 
L 524.953253 273.615656 
L 525.6966 273.002374 
L 526.291278 272.773765 
L 526.811622 272.791656 
L 527.4063 273.057419 
L 528.075312 273.624234 
L 529.041664 274.772719 
L 531.79205 278.202772 
L 532.981406 279.26403 
L 534.096427 279.974523 
L 535.211448 280.42649 
L 536.32647 280.639246 
L 537.441491 280.624501 
L 538.556512 280.383443 
L 539.671533 279.905055 
L 540.786555 279.169119 
L 541.901576 278.157875 
L 543.090932 276.770363 
L 544.949301 274.178278 
L 546.138657 272.709989 
L 546.882004 272.138071 
L 547.476682 271.965347 
L 547.997025 272.043168 
L 548.591703 272.38109 
L 549.335051 273.106331 
L 550.524407 274.653469 
L 552.45711 277.136255 
L 553.646467 278.292398 
L 554.761488 279.06103 
L 555.802174 279.518018 
L 556.842861 279.744842 
L 557.883547 279.748447 
L 558.924234 279.528724 
L 559.96492 279.082958 
L 561.005607 278.395684 
L 562.046293 277.431082 
L 563.161315 276.086448 
L 564.871014 273.607076 
L 566.134705 271.937365 
L 566.878052 271.298304 
L 567.47273 271.069269 
L 567.993073 271.102811 
L 568.513417 271.350872 
L 569.182429 271.938606 
L 570.148781 273.137135 
L 572.750497 276.530873 
L 573.865519 277.580664 
L 574.906205 278.252405 
L 575.872557 278.62496 
L 576.838909 278.767359 
L 577.80526 278.680319 
L 578.771612 278.366742 
L 579.737964 277.823953 
L 580.77865 276.97371 
L 581.819337 275.835979 
L 583.083028 274.089559 
L 585.46174 270.69159 
L 586.130753 270.14177 
L 586.651096 269.957786 
L 587.171439 270.008141 
L 587.691782 270.28484 
L 588.360795 270.91952 
L 589.327147 272.189914 
L 591.631524 275.309391 
L 592.746545 276.38782 
L 593.712897 277.028622 
L 594.679249 277.40072 
L 595.571266 277.512415 
L 596.463283 277.403816 
L 597.3553 277.073871 
L 598.247317 276.516471 
L 599.213669 275.646743 
L 600.254355 274.395855 
L 601.518046 272.502907 
L 603.450749 269.571549 
L 604.194097 268.866456 
L 604.71444 268.639364 
L 605.234783 268.659766 
L 605.755127 268.921516 
L 606.424139 269.558129 
L 607.390491 270.859667 
L 609.620534 273.95367 
L 610.66122 274.976557 
L 611.553237 275.570104 
L 612.445254 275.901033 
L 613.262936 275.976568 
L 614.080619 275.835002 
L 614.898301 275.474095 
L 615.790318 274.8258 
L 616.682335 273.90366 
L 617.723022 272.492254 
L 619.209717 270.027482 
L 620.547742 267.941259 
L 621.216755 267.2541 
L 621.737098 266.985965 
L 622.183107 266.965577 
L 622.70345 267.184475 
L 623.298128 267.714501 
L 624.11581 268.781543 
L 626.791861 272.511708 
L 627.758213 273.370386 
L 628.575895 273.818331 
L 629.393577 274.007287 
L 630.136925 273.954477 
L 630.880272 273.686443 
L 631.697955 273.137872 
L 632.515637 272.319951 
L 633.481989 271.014124 
L 634.671345 268.990333 
L 636.529713 265.791031 
L 637.198726 265.063163 
L 637.719069 264.789743 
L 638.165078 264.783074 
L 638.611086 264.981829 
L 639.205764 265.523722 
L 640.023447 266.624789 
L 642.402159 270.030281 
L 643.219841 270.779496 
L 643.963188 271.197437 
L 644.706536 271.356904 
L 645.375549 271.275869 
L 646.044562 270.979613 
L 646.787909 270.395514 
L 647.605591 269.446138 
L 648.497608 268.065411 
L 649.761299 265.641172 
L 651.247994 262.868489 
L 651.917007 262.062605 
L 652.43735 261.748915 
L 652.883359 261.718534 
L 653.329367 261.912331 
L 653.924045 262.463512 
L 654.741727 263.580394 
L 656.674431 266.314118 
L 657.492113 267.044626 
L 658.161126 267.369983 
L 658.755804 267.438917 
L 659.350482 267.294217 
L 659.94516 266.925098 
L 660.614173 266.244238 
L 661.35752 265.167588 
L 662.249537 263.471854 
L 663.736232 260.058925 
L 664.776919 257.947112 
L 665.371597 257.160207 
L 665.89194 256.810058 
L 666.337948 256.78166 
L 666.783957 256.983701 
L 667.378635 257.534747 
L 668.790995 259.331133 
L 669.683012 260.246818 
L 670.27769 260.586925 
L 670.798033 260.666292 
L 671.318377 260.527453 
L 671.83872 260.157613 
L 672.433398 259.43173 
L 673.102411 258.238799 
L 673.920093 256.279415 
L 674.960779 253.09142 
L 676.893483 247.368017 
L 677.562496 246.161525 
L 678.305843 245.315896 
L 680.164212 244.158934 
L 680.610221 243.5156 
L 681.650907 240.840395 
L 682.17125 238.526161 
L 682.542924 236.449399 
L 683.211937 231.154285 
L 683.806615 224.533225 
L 684.401293 215.07708 
L 684.921636 203.102215 
L 685.516314 183.656325 
L 685.887988 162.524396 
L 686.259662 127.022698 
L 687.003009 51.857703 
L 687.300348 41.307651 
L 687.597687 37.201296 
L 687.895026 35.715308 
L 688.192365 35.191931 
L 688.564039 34.986769 
L 689.307386 34.918125 
L 689.307386 34.918125 
" clip-path="url(#p7e5b88cc63)" style="fill: none; stroke: #1f77b4; stroke-width: 0.6; stroke-linecap: square"/>
   </g>
   <g id="line2d_15">
    <path d="M 50.14375 229.677937 
L 719.74375 229.677937 
" clip-path="url(#p7e5b88cc63)" style="fill: none; stroke-dasharray: 2.22,0.96; stroke-dashoffset: 0; stroke: #ff0000; stroke-width: 0.6"/>
   </g>
   <g id="patch_3">
    <path d="M 50.14375 299.518125 
L 50.14375 22.318125 
" style="fill: none; stroke: #000000; stroke-width: 0.8; stroke-linejoin: miter; stroke-linecap: square"/>
   </g>
   <g id="patch_4">
    <path d="M 719.74375 299.518125 
L 719.74375 22.318125 
" style="fill: none; stroke: #000000; stroke-width: 0.8; stroke-linejoin: miter; stroke-linecap: square"/>
   </g>
   <g id="patch_5">
    <path d="M 50.14375 299.518125 
L 719.74375 299.518125 
" style="fill: none; stroke: #000000; stroke-width: 0.8; stroke-linejoin: miter; stroke-linecap: square"/>
   </g>
   <g id="patch_6">
    <path d="M 50.14375 22.318125 
L 719.74375 22.318125 
" style="fill: none; stroke: #000000; stroke-width: 0.8; stroke-linejoin: miter; stroke-linecap: square"/>
   </g>
   <g id="text_16">
    <!-- Mf vs Time for M=60, e=0.16, f_lower=10 Hz -->
    <g transform="translate(249.127188 16.318125) scale(0.12 -0.12)">
     <defs>
      <path id="DejaVuSans-76" d="M 191 3500 
L 800 3500 
L 1894 563 
L 2988 3500 
L 3597 3500 
L 2284 0 
L 1503 0 
L 191 3500 
z
" transform="scale(0.015625)"/>
      <path id="DejaVuSans-73" d="M 2834 3397 
L 2834 2853 
Q 2591 2978 2328 3040 
Q 2066 3103 1784 3103 
Q 1356 3103 1142 2972 
Q 928 2841 928 2578 
Q 928 2378 1081 2264 
Q 1234 2150 1697 2047 
L 1894 2003 
Q 2506 1872 2764 1633 
Q 3022 1394 3022 966 
Q 3022 478 2636 193 
Q 2250 -91 1575 -91 
Q 1294 -91 989 -36 
Q 684 19 347 128 
L 347 722 
Q 666 556 975 473 
Q 1284 391 1588 391 
Q 1994 391 2212 530 
Q 2431 669 2431 922 
Q 2431 1156 2273 1281 
Q 2116 1406 1581 1522 
L 1381 1569 
Q 847 1681 609 1914 
Q 372 2147 372 2553 
Q 372 3047 722 3315 
Q 1072 3584 1716 3584 
Q 2034 3584 2315 3537 
Q 2597 3491 2834 3397 
z
" transform="scale(0.015625)"/>
      <path id="DejaVuSans-54" d="M -19 4666 
L 3928 4666 
L 3928 4134 
L 2272 4134 
L 2272 0 
L 1638 0 
L 1638 4134 
L -19 4134 
L -19 4666 
z
" transform="scale(0.015625)"/>
      <path id="DejaVuSans-69" d="M 603 3500 
L 1178 3500 
L 1178 0 
L 603 0 
L 603 3500 
z
M 603 4863 
L 1178 4863 
L 1178 4134 
L 603 4134 
L 603 4863 
z
" transform="scale(0.015625)"/>
      <path id="DejaVuSans-6d" d="M 3328 2828 
Q 3544 3216 3844 3400 
Q 4144 3584 4550 3584 
Q 5097 3584 5394 3201 
Q 5691 2819 5691 2113 
L 5691 0 
L 5113 0 
L 5113 2094 
Q 5113 2597 4934 2840 
Q 4756 3084 4391 3084 
Q 3944 3084 3684 2787 
Q 3425 2491 3425 1978 
L 3425 0 
L 2847 0 
L 2847 2094 
Q 2847 2600 2669 2842 
Q 2491 3084 2119 3084 
Q 1678 3084 1418 2786 
Q 1159 2488 1159 1978 
L 1159 0 
L 581 0 
L 581 3500 
L 1159 3500 
L 1159 2956 
Q 1356 3278 1631 3431 
Q 1906 3584 2284 3584 
Q 2666 3584 2933 3390 
Q 3200 3197 3328 2828 
z
" transform="scale(0.015625)"/>
      <path id="DejaVuSans-65" d="M 3597 1894 
L 3597 1613 
L 953 1613 
Q 991 1019 1311 708 
Q 1631 397 2203 397 
Q 2534 397 2845 478 
Q 3156 559 3463 722 
L 3463 178 
Q 3153 47 2828 -22 
Q 2503 -91 2169 -91 
Q 1331 -91 842 396 
Q 353 884 353 1716 
Q 353 2575 817 3079 
Q 1281 3584 2069 3584 
Q 2775 3584 3186 3129 
Q 3597 2675 3597 1894 
z
M 3022 2063 
Q 3016 2534 2758 2815 
Q 2500 3097 2075 3097 
Q 1594 3097 1305 2825 
Q 1016 2553 972 2059 
L 3022 2063 
z
" transform="scale(0.015625)"/>
      <path id="DejaVuSans-6f" d="M 1959 3097 
Q 1497 3097 1228 2736 
Q 959 2375 959 1747 
Q 959 1119 1226 758 
Q 1494 397 1959 397 
Q 2419 397 2687 759 
Q 2956 1122 2956 1747 
Q 2956 2369 2687 2733 
Q 2419 3097 1959 3097 
z
M 1959 3584 
Q 2709 3584 3137 3096 
Q 3566 2609 3566 1747 
Q 3566 888 3137 398 
Q 2709 -91 1959 -91 
Q 1206 -91 779 398 
Q 353 888 353 1747 
Q 353 2609 779 3096 
Q 1206 3584 1959 3584 
z
" transform="scale(0.015625)"/>
      <path id="DejaVuSans-72" d="M 2631 2963 
Q 2534 3019 2420 3045 
Q 2306 3072 2169 3072 
Q 1681 3072 1420 2755 
Q 1159 2438 1159 1844 
L 1159 0 
L 581 0 
L 581 3500 
L 1159 3500 
L 1159 2956 
Q 1341 3275 1631 3429 
Q 1922 3584 2338 3584 
Q 2397 3584 2469 3576 
Q 2541 3569 2628 3553 
L 2631 2963 
z
" transform="scale(0.015625)"/>
      <path id="DejaVuSans-3d" d="M 678 2906 
L 4684 2906 
L 4684 2381 
L 678 2381 
L 678 2906 
z
M 678 1631 
L 4684 1631 
L 4684 1100 
L 678 1100 
L 678 1631 
z
" transform="scale(0.015625)"/>
      <path id="DejaVuSans-2c" d="M 750 794 
L 1409 794 
L 1409 256 
L 897 -744 
L 494 -744 
L 750 256 
L 750 794 
z
" transform="scale(0.015625)"/>
      <path id="DejaVuSans-5f" d="M 3263 -1063 
L 3263 -1509 
L -63 -1509 
L -63 -1063 
L 3263 -1063 
z
" transform="scale(0.015625)"/>
      <path id="DejaVuSans-6c" d="M 603 4863 
L 1178 4863 
L 1178 0 
L 603 0 
L 603 4863 
z
" transform="scale(0.015625)"/>
      <path id="DejaVuSans-77" d="M 269 3500 
L 844 3500 
L 1563 769 
L 2278 3500 
L 2956 3500 
L 3675 769 
L 4391 3500 
L 4966 3500 
L 4050 0 
L 3372 0 
L 2619 2869 
L 1863 0 
L 1184 0 
L 269 3500 
z
" transform="scale(0.015625)"/>
      <path id="DejaVuSans-48" d="M 628 4666 
L 1259 4666 
L 1259 2753 
L 3553 2753 
L 3553 4666 
L 4184 4666 
L 4184 0 
L 3553 0 
L 3553 2222 
L 1259 2222 
L 1259 0 
L 628 0 
L 628 4666 
z
" transform="scale(0.015625)"/>
      <path id="DejaVuSans-7a" d="M 353 3500 
L 3084 3500 
L 3084 2975 
L 922 459 
L 3084 459 
L 3084 0 
L 275 0 
L 275 525 
L 2438 3041 
L 353 3041 
L 353 3500 
z
" transform="scale(0.015625)"/>
     </defs>
     <use xlink:href="#DejaVuSans-4d"/>
     <use xlink:href="#DejaVuSans-66" transform="translate(86.279297 0)"/>
     <use xlink:href="#DejaVuSans-20" transform="translate(121.484375 0)"/>
     <use xlink:href="#DejaVuSans-76" transform="translate(153.271484 0)"/>
     <use xlink:href="#DejaVuSans-73" transform="translate(212.451172 0)"/>
     <use xlink:href="#DejaVuSans-20" transform="translate(264.550781 0)"/>
     <use xlink:href="#DejaVuSans-54" transform="translate(296.337891 0)"/>
     <use xlink:href="#DejaVuSans-69" transform="translate(354.296875 0)"/>
     <use xlink:href="#DejaVuSans-6d" transform="translate(382.080078 0)"/>
     <use xlink:href="#DejaVuSans-65" transform="translate(479.492188 0)"/>
     <use xlink:href="#DejaVuSans-20" transform="translate(541.015625 0)"/>
     <use xlink:href="#DejaVuSans-66" transform="translate(572.802734 0)"/>
     <use xlink:href="#DejaVuSans-6f" transform="translate(608.007812 0)"/>
     <use xlink:href="#DejaVuSans-72" transform="translate(669.189453 0)"/>
     <use xlink:href="#DejaVuSans-20" transform="translate(710.302734 0)"/>
     <use xlink:href="#DejaVuSans-4d" transform="translate(742.089844 0)"/>
     <use xlink:href="#DejaVuSans-3d" transform="translate(828.369141 0)"/>
     <use xlink:href="#DejaVuSans-36" transform="translate(912.158203 0)"/>
     <use xlink:href="#DejaVuSans-30" transform="translate(975.78125 0)"/>
     <use xlink:href="#DejaVuSans-2c" transform="translate(1039.404297 0)"/>
     <use xlink:href="#DejaVuSans-20" transform="translate(1071.191406 0)"/>
     <use xlink:href="#DejaVuSans-65" transform="translate(1102.978516 0)"/>
     <use xlink:href="#DejaVuSans-3d" transform="translate(1164.501953 0)"/>
     <use xlink:href="#DejaVuSans-30" transform="translate(1248.291016 0)"/>
     <use xlink:href="#DejaVuSans-2e" transform="translate(1311.914062 0)"/>
     <use xlink:href="#DejaVuSans-31" transform="translate(1343.701172 0)"/>
     <use xlink:href="#DejaVuSans-36" transform="translate(1407.324219 0)"/>
     <use xlink:href="#DejaVuSans-2c" transform="translate(1470.947266 0)"/>
     <use xlink:href="#DejaVuSans-20" transform="translate(1502.734375 0)"/>
     <use xlink:href="#DejaVuSans-66" transform="translate(1534.521484 0)"/>
     <use xlink:href="#DejaVuSans-5f" transform="translate(1569.726562 0)"/>
     <use xlink:href="#DejaVuSans-6c" transform="translate(1619.726562 0)"/>
     <use xlink:href="#DejaVuSans-6f" transform="translate(1647.509766 0)"/>
     <use xlink:href="#DejaVuSans-77" transform="translate(1708.691406 0)"/>
     <use xlink:href="#DejaVuSans-65" transform="translate(1790.478516 0)"/>
     <use xlink:href="#DejaVuSans-72" transform="translate(1852.001953 0)"/>
     <use xlink:href="#DejaVuSans-3d" transform="translate(1893.115234 0)"/>
     <use xlink:href="#DejaVuSans-31" transform="translate(1976.904297 0)"/>
     <use xlink:href="#DejaVuSans-30" transform="translate(2040.527344 0)"/>
     <use xlink:href="#DejaVuSans-20" transform="translate(2104.150391 0)"/>
     <use xlink:href="#DejaVuSans-48" transform="translate(2135.9375 0)"/>
     <use xlink:href="#DejaVuSans-7a" transform="translate(2211.132812 0)"/>
    </g>
   </g>
   <g id="legend_1">
    <g id="patch_7">
     <path d="M 57.14375 59.9525 
L 153.10625 59.9525 
Q 155.10625 59.9525 155.10625 57.9525 
L 155.10625 29.318125 
Q 155.10625 27.318125 153.10625 27.318125 
L 57.14375 27.318125 
Q 55.14375 27.318125 55.14375 29.318125 
L 55.14375 57.9525 
Q 55.14375 59.9525 57.14375 59.9525 
z
" style="fill: #ffffff; opacity: 0.8; stroke: #cccccc; stroke-linejoin: miter"/>
    </g>
    <g id="line2d_16">
     <path d="M 59.14375 35.416563 
L 69.14375 35.416563 
L 79.14375 35.416563 
" style="fill: none; stroke: #1f77b4; stroke-width: 0.6; stroke-linecap: square"/>
    </g>
    <g id="text_17">
     <!-- Mf -->
     <g transform="translate(87.14375 38.916563) scale(0.1 -0.1)">
      <use xlink:href="#DejaVuSans-4d"/>
      <use xlink:href="#DejaVuSans-66" transform="translate(86.279297 0)"/>
     </g>
    </g>
    <g id="line2d_17">
     <path d="M 59.14375 50.094688 
L 69.14375 50.094688 
L 79.14375 50.094688 
" style="fill: none; stroke-dasharray: 2.22,0.96; stroke-dashoffset: 0; stroke: #ff0000; stroke-width: 0.6"/>
    </g>
    <g id="text_18">
     <!-- Mf_ISCO_circ -->
     <g transform="translate(87.14375 53.594688) scale(0.1 -0.1)">
      <defs>
       <path id="DejaVuSans-49" d="M 628 4666 
L 1259 4666 
L 1259 0 
L 628 0 
L 628 4666 
z
" transform="scale(0.015625)"/>
       <path id="DejaVuSans-53" d="M 3425 4513 
L 3425 3897 
Q 3066 4069 2747 4153 
Q 2428 4238 2131 4238 
Q 1616 4238 1336 4038 
Q 1056 3838 1056 3469 
Q 1056 3159 1242 3001 
Q 1428 2844 1947 2747 
L 2328 2669 
Q 3034 2534 3370 2195 
Q 3706 1856 3706 1288 
Q 3706 609 3251 259 
Q 2797 -91 1919 -91 
Q 1588 -91 1214 -16 
Q 841 59 441 206 
L 441 856 
Q 825 641 1194 531 
Q 1563 422 1919 422 
Q 2459 422 2753 634 
Q 3047 847 3047 1241 
Q 3047 1584 2836 1778 
Q 2625 1972 2144 2069 
L 1759 2144 
Q 1053 2284 737 2584 
Q 422 2884 422 3419 
Q 422 4038 858 4394 
Q 1294 4750 2059 4750 
Q 2388 4750 2728 4690 
Q 3069 4631 3425 4513 
z
" transform="scale(0.015625)"/>
       <path id="DejaVuSans-43" d="M 4122 4306 
L 4122 3641 
Q 3803 3938 3442 4084 
Q 3081 4231 2675 4231 
Q 1875 4231 1450 3742 
Q 1025 3253 1025 2328 
Q 1025 1406 1450 917 
Q 1875 428 2675 428 
Q 3081 428 3442 575 
Q 3803 722 4122 1019 
L 4122 359 
Q 3791 134 3420 21 
Q 3050 -91 2638 -91 
Q 1578 -91 968 557 
Q 359 1206 359 2328 
Q 359 3453 968 4101 
Q 1578 4750 2638 4750 
Q 3056 4750 3426 4639 
Q 3797 4528 4122 4306 
z
" transform="scale(0.015625)"/>
       <path id="DejaVuSans-4f" d="M 2522 4238 
Q 1834 4238 1429 3725 
Q 1025 3213 1025 2328 
Q 1025 1447 1429 934 
Q 1834 422 2522 422 
Q 3209 422 3611 934 
Q 4013 1447 4013 2328 
Q 4013 3213 3611 3725 
Q 3209 4238 2522 4238 
z
M 2522 4750 
Q 3503 4750 4090 4092 
Q 4678 3434 4678 2328 
Q 4678 1225 4090 567 
Q 3503 -91 2522 -91 
Q 1538 -91 948 565 
Q 359 1222 359 2328 
Q 359 3434 948 4092 
Q 1538 4750 2522 4750 
z
" transform="scale(0.015625)"/>
       <path id="DejaVuSans-63" d="M 3122 3366 
L 3122 2828 
Q 2878 2963 2633 3030 
Q 2388 3097 2138 3097 
Q 1578 3097 1268 2742 
Q 959 2388 959 1747 
Q 959 1106 1268 751 
Q 1578 397 2138 397 
Q 2388 397 2633 464 
Q 2878 531 3122 666 
L 3122 134 
Q 2881 22 2623 -34 
Q 2366 -91 2075 -91 
Q 1284 -91 818 406 
Q 353 903 353 1747 
Q 353 2603 823 3093 
Q 1294 3584 2113 3584 
Q 2378 3584 2631 3529 
Q 2884 3475 3122 3366 
z
" transform="scale(0.015625)"/>
      </defs>
      <use xlink:href="#DejaVuSans-4d"/>
      <use xlink:href="#DejaVuSans-66" transform="translate(86.279297 0)"/>
      <use xlink:href="#DejaVuSans-5f" transform="translate(121.484375 0)"/>
      <use xlink:href="#DejaVuSans-49" transform="translate(171.484375 0)"/>
      <use xlink:href="#DejaVuSans-53" transform="translate(200.976562 0)"/>
      <use xlink:href="#DejaVuSans-43" transform="translate(264.453125 0)"/>
      <use xlink:href="#DejaVuSans-4f" transform="translate(334.277344 0)"/>
      <use xlink:href="#DejaVuSans-5f" transform="translate(412.988281 0)"/>
      <use xlink:href="#DejaVuSans-63" transform="translate(462.988281 0)"/>
      <use xlink:href="#DejaVuSans-69" transform="translate(517.96875 0)"/>
      <use xlink:href="#DejaVuSans-72" transform="translate(545.751953 0)"/>
      <use xlink:href="#DejaVuSans-63" transform="translate(584.615234 0)"/>
     </g>
    </g>
   </g>
  </g>
 </g>
 <defs>
  <clipPath id="p7e5b88cc63">
   <rect x="50.14375" y="22.318125" width="669.6" height="277.2"/>
  </clipPath>
 </defs>
</svg>
