<?xml version="1.0" encoding="utf-8" standalone="no"?>
<!DOCTYPE svg PUBLIC "-//W3C//DTD SVG 1.1//EN"
  "http://www.w3.org/Graphics/SVG/1.1/DTD/svg11.dtd">
<svg xmlns:xlink="http://www.w3.org/1999/xlink" width="726.94375pt" height="337.074375pt" viewBox="0 0 726.94375 337.074375" xmlns="http://www.w3.org/2000/svg" version="1.1">
 <metadata>
  <rdf:RDF xmlns:dc="http://purl.org/dc/elements/1.1/" xmlns:cc="http://creativecommons.org/ns#" xmlns:rdf="http://www.w3.org/1999/02/22-rdf-syntax-ns#">
   <cc:Work>
    <dc:type rdf:resource="http://purl.org/dc/dcmitype/StillImage"/>
    <dc:date>2025-07-24T14:39:30.158931</dc:date>
    <dc:format>image/svg+xml</dc:format>
    <dc:creator>
     <cc:Agent>
      <dc:title>Matplotlib v3.10.3, https://matplotlib.org/</dc:title>
     </cc:Agent>
    </dc:creator>
   </cc:Work>
  </rdf:RDF>
 </metadata>
 <defs>
  <style type="text/css">*{stroke-linejoin: round; stroke-linecap: butt}</style>
 </defs>
 <g id="figure_1">
  <g id="patch_1">
   <path d="M 0 337.074375 
L 726.94375 337.074375 
L 726.94375 0 
L 0 0 
z
" style="fill: #ffffff"/>
  </g>
  <g id="axes_1">
   <g id="patch_2">
    <path d="M 50.14375 299.518125 
L 719.74375 299.518125 
L 719.74375 22.318125 
L 50.14375 22.318125 
z
" style="fill: #ffffff"/>
   </g>
   <g id="matplotlib.axis_1">
    <g id="xtick_1">
     <g id="line2d_1">
      <defs>
       <path id="mf735aaf5db" d="M 0 0 
L 0 3.5 
" style="stroke: #000000; stroke-width: 0.8"/>
      </defs>
      <g>
       <use xlink:href="#mf735aaf5db" x="59.757321" y="299.518125" style="stroke: #000000; stroke-width: 0.8"/>
      </g>
     </g>
     <g id="text_1">
      <!-- −14000 -->
      <g transform="translate(39.661227 314.116563) scale(0.1 -0.1)">
       <defs>
        <path id="DejaVuSans-2212" d="M 678 2272 
L 4684 2272 
L 4684 1741 
L 678 1741 
L 678 2272 
z
" transform="scale(0.015625)"/>
        <path id="DejaVuSans-31" d="M 794 531 
L 1825 531 
L 1825 4091 
L 703 3866 
L 703 4441 
L 1819 4666 
L 2450 4666 
L 2450 531 
L 3481 531 
L 3481 0 
L 794 0 
L 794 531 
z
" transform="scale(0.015625)"/>
        <path id="DejaVuSans-34" d="M 2419 4116 
L 825 1625 
L 2419 1625 
L 2419 4116 
z
M 2253 4666 
L 3047 4666 
L 3047 1625 
L 3713 1625 
L 3713 1100 
L 3047 1100 
L 3047 0 
L 2419 0 
L 2419 1100 
L 313 1100 
L 313 1709 
L 2253 4666 
z
" transform="scale(0.015625)"/>
        <path id="DejaVuSans-30" d="M 2034 4250 
Q 1547 4250 1301 3770 
Q 1056 3291 1056 2328 
Q 1056 1369 1301 889 
Q 1547 409 2034 409 
Q 2525 409 2770 889 
Q 3016 1369 3016 2328 
Q 3016 3291 2770 3770 
Q 2525 4250 2034 4250 
z
M 2034 4750 
Q 2819 4750 3233 4129 
Q 3647 3509 3647 2328 
Q 3647 1150 3233 529 
Q 2819 -91 2034 -91 
Q 1250 -91 836 529 
Q 422 1150 422 2328 
Q 422 3509 836 4129 
Q 1250 4750 2034 4750 
z
" transform="scale(0.015625)"/>
       </defs>
       <use xlink:href="#DejaVuSans-2212"/>
       <use xlink:href="#DejaVuSans-31" transform="translate(83.789062 0)"/>
       <use xlink:href="#DejaVuSans-34" transform="translate(147.412109 0)"/>
       <use xlink:href="#DejaVuSans-30" transform="translate(211.035156 0)"/>
       <use xlink:href="#DejaVuSans-30" transform="translate(274.658203 0)"/>
       <use xlink:href="#DejaVuSans-30" transform="translate(338.28125 0)"/>
      </g>
     </g>
    </g>
    <g id="xtick_2">
     <g id="line2d_2">
      <g>
       <use xlink:href="#mf735aaf5db" x="149.323456" y="299.518125" style="stroke: #000000; stroke-width: 0.8"/>
      </g>
     </g>
     <g id="text_2">
      <!-- −12000 -->
      <g transform="translate(129.227362 314.116563) scale(0.1 -0.1)">
       <defs>
        <path id="DejaVuSans-32" d="M 1228 531 
L 3431 531 
L 3431 0 
L 469 0 
L 469 531 
Q 828 903 1448 1529 
Q 2069 2156 2228 2338 
Q 2531 2678 2651 2914 
Q 2772 3150 2772 3378 
Q 2772 3750 2511 3984 
Q 2250 4219 1831 4219 
Q 1534 4219 1204 4116 
Q 875 4013 500 3803 
L 500 4441 
Q 881 4594 1212 4672 
Q 1544 4750 1819 4750 
Q 2544 4750 2975 4387 
Q 3406 4025 3406 3419 
Q 3406 3131 3298 2873 
Q 3191 2616 2906 2266 
Q 2828 2175 2409 1742 
Q 1991 1309 1228 531 
z
" transform="scale(0.015625)"/>
       </defs>
       <use xlink:href="#DejaVuSans-2212"/>
       <use xlink:href="#DejaVuSans-31" transform="translate(83.789062 0)"/>
       <use xlink:href="#DejaVuSans-32" transform="translate(147.412109 0)"/>
       <use xlink:href="#DejaVuSans-30" transform="translate(211.035156 0)"/>
       <use xlink:href="#DejaVuSans-30" transform="translate(274.658203 0)"/>
       <use xlink:href="#DejaVuSans-30" transform="translate(338.28125 0)"/>
      </g>
     </g>
    </g>
    <g id="xtick_3">
     <g id="line2d_3">
      <g>
       <use xlink:href="#mf735aaf5db" x="238.889591" y="299.518125" style="stroke: #000000; stroke-width: 0.8"/>
      </g>
     </g>
     <g id="text_3">
      <!-- −10000 -->
      <g transform="translate(218.793497 314.116563) scale(0.1 -0.1)">
       <use xlink:href="#DejaVuSans-2212"/>
       <use xlink:href="#DejaVuSans-31" transform="translate(83.789062 0)"/>
       <use xlink:href="#DejaVuSans-30" transform="translate(147.412109 0)"/>
       <use xlink:href="#DejaVuSans-30" transform="translate(211.035156 0)"/>
       <use xlink:href="#DejaVuSans-30" transform="translate(274.658203 0)"/>
       <use xlink:href="#DejaVuSans-30" transform="translate(338.28125 0)"/>
      </g>
     </g>
    </g>
    <g id="xtick_4">
     <g id="line2d_4">
      <g>
       <use xlink:href="#mf735aaf5db" x="328.455725" y="299.518125" style="stroke: #000000; stroke-width: 0.8"/>
      </g>
     </g>
     <g id="text_4">
      <!-- −8000 -->
      <g transform="translate(311.540882 314.116563) scale(0.1 -0.1)">
       <defs>
        <path id="DejaVuSans-38" d="M 2034 2216 
Q 1584 2216 1326 1975 
Q 1069 1734 1069 1313 
Q 1069 891 1326 650 
Q 1584 409 2034 409 
Q 2484 409 2743 651 
Q 3003 894 3003 1313 
Q 3003 1734 2745 1975 
Q 2488 2216 2034 2216 
z
M 1403 2484 
Q 997 2584 770 2862 
Q 544 3141 544 3541 
Q 544 4100 942 4425 
Q 1341 4750 2034 4750 
Q 2731 4750 3128 4425 
Q 3525 4100 3525 3541 
Q 3525 3141 3298 2862 
Q 3072 2584 2669 2484 
Q 3125 2378 3379 2068 
Q 3634 1759 3634 1313 
Q 3634 634 3220 271 
Q 2806 -91 2034 -91 
Q 1263 -91 848 271 
Q 434 634 434 1313 
Q 434 1759 690 2068 
Q 947 2378 1403 2484 
z
M 1172 3481 
Q 1172 3119 1398 2916 
Q 1625 2713 2034 2713 
Q 2441 2713 2670 2916 
Q 2900 3119 2900 3481 
Q 2900 3844 2670 4047 
Q 2441 4250 2034 4250 
Q 1625 4250 1398 4047 
Q 1172 3844 1172 3481 
z
" transform="scale(0.015625)"/>
       </defs>
       <use xlink:href="#DejaVuSans-2212"/>
       <use xlink:href="#DejaVuSans-38" transform="translate(83.789062 0)"/>
       <use xlink:href="#DejaVuSans-30" transform="translate(147.412109 0)"/>
       <use xlink:href="#DejaVuSans-30" transform="translate(211.035156 0)"/>
       <use xlink:href="#DejaVuSans-30" transform="translate(274.658203 0)"/>
      </g>
     </g>
    </g>
    <g id="xtick_5">
     <g id="line2d_5">
      <g>
       <use xlink:href="#mf735aaf5db" x="418.02186" y="299.518125" style="stroke: #000000; stroke-width: 0.8"/>
      </g>
     </g>
     <g id="text_5">
      <!-- −6000 -->
      <g transform="translate(401.107016 314.116563) scale(0.1 -0.1)">
       <defs>
        <path id="DejaVuSans-36" d="M 2113 2584 
Q 1688 2584 1439 2293 
Q 1191 2003 1191 1497 
Q 1191 994 1439 701 
Q 1688 409 2113 409 
Q 2538 409 2786 701 
Q 3034 994 3034 1497 
Q 3034 2003 2786 2293 
Q 2538 2584 2113 2584 
z
M 3366 4563 
L 3366 3988 
Q 3128 4100 2886 4159 
Q 2644 4219 2406 4219 
Q 1781 4219 1451 3797 
Q 1122 3375 1075 2522 
Q 1259 2794 1537 2939 
Q 1816 3084 2150 3084 
Q 2853 3084 3261 2657 
Q 3669 2231 3669 1497 
Q 3669 778 3244 343 
Q 2819 -91 2113 -91 
Q 1303 -91 875 529 
Q 447 1150 447 2328 
Q 447 3434 972 4092 
Q 1497 4750 2381 4750 
Q 2619 4750 2861 4703 
Q 3103 4656 3366 4563 
z
" transform="scale(0.015625)"/>
       </defs>
       <use xlink:href="#DejaVuSans-2212"/>
       <use xlink:href="#DejaVuSans-36" transform="translate(83.789062 0)"/>
       <use xlink:href="#DejaVuSans-30" transform="translate(147.412109 0)"/>
       <use xlink:href="#DejaVuSans-30" transform="translate(211.035156 0)"/>
       <use xlink:href="#DejaVuSans-30" transform="translate(274.658203 0)"/>
      </g>
     </g>
    </g>
    <g id="xtick_6">
     <g id="line2d_6">
      <g>
       <use xlink:href="#mf735aaf5db" x="507.587995" y="299.518125" style="stroke: #000000; stroke-width: 0.8"/>
      </g>
     </g>
     <g id="text_6">
      <!-- −4000 -->
      <g transform="translate(490.673151 314.116563) scale(0.1 -0.1)">
       <use xlink:href="#DejaVuSans-2212"/>
       <use xlink:href="#DejaVuSans-34" transform="translate(83.789062 0)"/>
       <use xlink:href="#DejaVuSans-30" transform="translate(147.412109 0)"/>
       <use xlink:href="#DejaVuSans-30" transform="translate(211.035156 0)"/>
       <use xlink:href="#DejaVuSans-30" transform="translate(274.658203 0)"/>
      </g>
     </g>
    </g>
    <g id="xtick_7">
     <g id="line2d_7">
      <g>
       <use xlink:href="#mf735aaf5db" x="597.15413" y="299.518125" style="stroke: #000000; stroke-width: 0.8"/>
      </g>
     </g>
     <g id="text_7">
      <!-- −2000 -->
      <g transform="translate(580.239286 314.116563) scale(0.1 -0.1)">
       <use xlink:href="#DejaVuSans-2212"/>
       <use xlink:href="#DejaVuSans-32" transform="translate(83.789062 0)"/>
       <use xlink:href="#DejaVuSans-30" transform="translate(147.412109 0)"/>
       <use xlink:href="#DejaVuSans-30" transform="translate(211.035156 0)"/>
       <use xlink:href="#DejaVuSans-30" transform="translate(274.658203 0)"/>
      </g>
     </g>
    </g>
    <g id="xtick_8">
     <g id="line2d_8">
      <g>
       <use xlink:href="#mf735aaf5db" x="686.720265" y="299.518125" style="stroke: #000000; stroke-width: 0.8"/>
      </g>
     </g>
     <g id="text_8">
      <!-- 0 -->
      <g transform="translate(683.539015 314.116563) scale(0.1 -0.1)">
       <use xlink:href="#DejaVuSans-30"/>
      </g>
     </g>
    </g>
    <g id="text_9">
     <!-- t [M] -->
     <g transform="translate(373.178906 327.794688) scale(0.1 -0.1)">
      <defs>
       <path id="DejaVuSans-74" d="M 1172 4494 
L 1172 3500 
L 2356 3500 
L 2356 3053 
L 1172 3053 
L 1172 1153 
Q 1172 725 1289 603 
Q 1406 481 1766 481 
L 2356 481 
L 2356 0 
L 1766 0 
Q 1100 0 847 248 
Q 594 497 594 1153 
L 594 3053 
L 172 3053 
L 172 3500 
L 594 3500 
L 594 4494 
L 1172 4494 
z
" transform="scale(0.015625)"/>
       <path id="DejaVuSans-20" transform="scale(0.015625)"/>
       <path id="DejaVuSans-5b" d="M 550 4863 
L 1875 4863 
L 1875 4416 
L 1125 4416 
L 1125 -397 
L 1875 -397 
L 1875 -844 
L 550 -844 
L 550 4863 
z
" transform="scale(0.015625)"/>
       <path id="DejaVuSans-4d" d="M 628 4666 
L 1569 4666 
L 2759 1491 
L 3956 4666 
L 4897 4666 
L 4897 0 
L 4281 0 
L 4281 4097 
L 3078 897 
L 2444 897 
L 1241 4097 
L 1241 0 
L 628 0 
L 628 4666 
z
" transform="scale(0.015625)"/>
       <path id="DejaVuSans-5d" d="M 1947 4863 
L 1947 -844 
L 622 -844 
L 622 -397 
L 1369 -397 
L 1369 4416 
L 622 4416 
L 622 4863 
L 1947 4863 
z
" transform="scale(0.015625)"/>
      </defs>
      <use xlink:href="#DejaVuSans-74"/>
      <use xlink:href="#DejaVuSans-20" transform="translate(39.208984 0)"/>
      <use xlink:href="#DejaVuSans-5b" transform="translate(70.996094 0)"/>
      <use xlink:href="#DejaVuSans-4d" transform="translate(110.009766 0)"/>
      <use xlink:href="#DejaVuSans-5d" transform="translate(196.289062 0)"/>
     </g>
    </g>
   </g>
   <g id="matplotlib.axis_2">
    <g id="ytick_1">
     <g id="line2d_9">
      <defs>
       <path id="ma7b8aa2d04" d="M 0 0 
L -3.5 0 
" style="stroke: #000000; stroke-width: 0.8"/>
      </defs>
      <g>
       <use xlink:href="#ma7b8aa2d04" x="50.14375" y="250.698912" style="stroke: #000000; stroke-width: 0.8"/>
      </g>
     </g>
     <g id="text_10">
      <!-- 0.00 -->
      <g transform="translate(20.878125 254.498131) scale(0.1 -0.1)">
       <defs>
        <path id="DejaVuSans-2e" d="M 684 794 
L 1344 794 
L 1344 0 
L 684 0 
L 684 794 
z
" transform="scale(0.015625)"/>
       </defs>
       <use xlink:href="#DejaVuSans-30"/>
       <use xlink:href="#DejaVuSans-2e" transform="translate(63.623047 0)"/>
       <use xlink:href="#DejaVuSans-30" transform="translate(95.410156 0)"/>
       <use xlink:href="#DejaVuSans-30" transform="translate(159.033203 0)"/>
      </g>
     </g>
    </g>
    <g id="ytick_2">
     <g id="line2d_10">
      <g>
       <use xlink:href="#ma7b8aa2d04" x="50.14375" y="201.701857" style="stroke: #000000; stroke-width: 0.8"/>
      </g>
     </g>
     <g id="text_11">
      <!-- 0.02 -->
      <g transform="translate(20.878125 205.501076) scale(0.1 -0.1)">
       <use xlink:href="#DejaVuSans-30"/>
       <use xlink:href="#DejaVuSans-2e" transform="translate(63.623047 0)"/>
       <use xlink:href="#DejaVuSans-30" transform="translate(95.410156 0)"/>
       <use xlink:href="#DejaVuSans-32" transform="translate(159.033203 0)"/>
      </g>
     </g>
    </g>
    <g id="ytick_3">
     <g id="line2d_11">
      <g>
       <use xlink:href="#ma7b8aa2d04" x="50.14375" y="152.704803" style="stroke: #000000; stroke-width: 0.8"/>
      </g>
     </g>
     <g id="text_12">
      <!-- 0.04 -->
      <g transform="translate(20.878125 156.504021) scale(0.1 -0.1)">
       <use xlink:href="#DejaVuSans-30"/>
       <use xlink:href="#DejaVuSans-2e" transform="translate(63.623047 0)"/>
       <use xlink:href="#DejaVuSans-30" transform="translate(95.410156 0)"/>
       <use xlink:href="#DejaVuSans-34" transform="translate(159.033203 0)"/>
      </g>
     </g>
    </g>
    <g id="ytick_4">
     <g id="line2d_12">
      <g>
       <use xlink:href="#ma7b8aa2d04" x="50.14375" y="103.707748" style="stroke: #000000; stroke-width: 0.8"/>
      </g>
     </g>
     <g id="text_13">
      <!-- 0.06 -->
      <g transform="translate(20.878125 107.506967) scale(0.1 -0.1)">
       <use xlink:href="#DejaVuSans-30"/>
       <use xlink:href="#DejaVuSans-2e" transform="translate(63.623047 0)"/>
       <use xlink:href="#DejaVuSans-30" transform="translate(95.410156 0)"/>
       <use xlink:href="#DejaVuSans-36" transform="translate(159.033203 0)"/>
      </g>
     </g>
    </g>
    <g id="ytick_5">
     <g id="line2d_13">
      <g>
       <use xlink:href="#ma7b8aa2d04" x="50.14375" y="54.710694" style="stroke: #000000; stroke-width: 0.8"/>
      </g>
     </g>
     <g id="text_14">
      <!-- 0.08 -->
      <g transform="translate(20.878125 58.509912) scale(0.1 -0.1)">
       <use xlink:href="#DejaVuSans-30"/>
       <use xlink:href="#DejaVuSans-2e" transform="translate(63.623047 0)"/>
       <use xlink:href="#DejaVuSans-30" transform="translate(95.410156 0)"/>
       <use xlink:href="#DejaVuSans-38" transform="translate(159.033203 0)"/>
      </g>
     </g>
    </g>
    <g id="text_15">
     <!-- Mf -->
     <g transform="translate(14.798437 166.992344) rotate(-90) scale(0.1 -0.1)">
      <defs>
       <path id="DejaVuSans-66" d="M 2375 4863 
L 2375 4384 
L 1825 4384 
Q 1516 4384 1395 4259 
Q 1275 4134 1275 3809 
L 1275 3500 
L 2222 3500 
L 2222 3053 
L 1275 3053 
L 1275 0 
L 697 0 
L 697 3053 
L 147 3053 
L 147 3500 
L 697 3500 
L 697 3744 
Q 697 4328 969 4595 
Q 1241 4863 1831 4863 
L 2375 4863 
z
" transform="scale(0.015625)"/>
      </defs>
      <use xlink:href="#DejaVuSans-4d"/>
      <use xlink:href="#DejaVuSans-66" transform="translate(86.279297 0)"/>
     </g>
    </g>
   </g>
   <g id="line2d_14">
    <path d="M 80.580114 286.918125 
L 81.026449 286.708488 
L 82.291066 285.837381 
L 83.258127 285.307813 
L 86.084918 284.054578 
L 87.200757 283.593822 
L 88.019039 283.500783 
L 88.91171 283.637948 
L 96.499414 285.542667 
L 97.764032 285.47941 
L 99.549374 285.127211 
L 101.706662 284.76748 
L 104.533454 284.316761 
L 107.657802 283.501245 
L 110.633373 282.572779 
L 116.510124 280.31885 
L 118.518634 279.248209 
L 122.610043 276.760233 
L 124.097828 275.550477 
L 125.734391 273.912801 
L 128.040458 271.246363 
L 130.197747 268.815359 
L 131.164807 268.029733 
L 131.983089 267.639072 
L 132.726981 267.537977 
L 133.470874 267.675226 
L 134.289156 268.058009 
L 135.479384 268.88828 
L 138.752511 271.287798 
L 140.091518 271.981957 
L 141.207356 272.329204 
L 142.248806 272.434965 
L 143.587813 272.322386 
L 145.224376 272.205275 
L 146.637772 272.379847 
L 148.199946 272.529771 
L 149.390174 272.404989 
L 150.952349 271.974598 
L 152.663302 271.556548 
L 155.936429 270.948114 
L 158.83761 270.032214 
L 160.474173 269.97611 
L 161.515623 269.802976 
L 162.408294 269.412978 
L 163.375354 268.722342 
L 165.532643 267.046948 
L 166.202146 266.913794 
L 167.094817 267.010214 
L 168.061877 267.056877 
L 168.731381 266.873621 
L 169.475273 266.424095 
L 170.367944 265.58474 
L 171.632562 264.028347 
L 173.269125 262.064911 
L 174.75691 260.332542 
L 175.649581 258.85513 
L 178.030038 254.577382 
L 178.625152 254.060474 
L 179.071487 253.923603 
L 179.517823 254.005992 
L 180.038547 254.358858 
L 180.708051 255.138614 
L 182.121447 257.291071 
L 183.162896 258.626015 
L 184.278735 259.642374 
L 185.840909 261.105589 
L 187.105527 262.225456 
L 187.923808 262.686725 
L 188.667701 262.858161 
L 189.262815 262.788277 
L 189.932318 262.466565 
L 191.866439 261.253017 
L 192.312774 261.352022 
L 192.907889 261.731718 
L 194.321284 262.725125 
L 195.065177 262.932731 
L 195.73468 262.897022 
L 196.478573 262.631726 
L 197.594412 261.948143 
L 198.487083 261.501248 
L 199.156586 261.414408 
L 200.198035 261.572555 
L 201.090707 261.618788 
L 201.834599 261.427944 
L 202.72727 260.932172 
L 203.991887 260.19574 
L 204.587002 260.132045 
L 205.182116 260.32496 
L 206.967458 261.136177 
L 207.562572 261.056705 
L 208.157686 260.719866 
L 208.7528 260.118539 
L 209.496692 259.014168 
L 210.76131 257.041143 
L 211.133256 256.848148 
L 211.430813 256.90999 
L 211.802759 257.223283 
L 213.513712 259.057411 
L 213.960048 259.108276 
L 214.406383 258.950096 
L 215.001497 258.464215 
L 215.74539 257.509982 
L 216.861229 255.632485 
L 217.828289 254.139683 
L 218.497792 253.514121 
L 219.76241 252.538979 
L 220.283134 251.762992 
L 220.952638 250.317577 
L 223.333094 244.613263 
L 223.779429 244.167716 
L 224.151376 244.048833 
L 224.523322 244.16195 
L 224.969657 244.586119 
L 225.490382 245.419732 
L 226.308664 247.205156 
L 227.647671 250.115675 
L 228.317174 251.059218 
L 229.061066 251.687669 
L 230.028127 252.470455 
L 230.846409 253.487558 
L 232.185415 255.160147 
L 232.929308 255.760909 
L 233.524422 255.993667 
L 234.045146 255.954211 
L 234.491482 255.687389 
L 235.012207 255.064684 
L 235.904878 253.481462 
L 236.425603 252.829598 
L 236.72316 252.755789 
L 237.020717 252.925532 
L 237.467052 253.522246 
L 238.73167 255.437503 
L 239.326784 255.894765 
L 239.847508 256.037078 
L 240.368233 255.956868 
L 240.888958 255.661198 
L 241.558461 255.003029 
L 242.748689 253.786874 
L 243.195025 253.676408 
L 243.64136 253.811382 
L 245.277924 254.565244 
L 245.798649 254.427202 
L 246.393763 253.992714 
L 248.030326 252.531247 
L 248.402273 252.601616 
L 248.848608 252.988082 
L 250.63395 254.959337 
L 251.080286 254.995684 
L 251.526621 254.786839 
L 251.972957 254.332023 
L 252.493682 253.48139 
L 253.163185 251.899071 
L 254.130245 249.596124 
L 254.427802 249.374386 
L 254.65097 249.460251 
L 254.948527 249.884885 
L 255.543641 251.328247 
L 256.287534 252.955882 
L 256.733869 253.481369 
L 257.105815 253.644513 
L 257.477762 253.586349 
L 257.924097 253.270803 
L 258.519211 252.519058 
L 259.337493 251.042138 
L 260.825278 248.208926 
L 261.346003 247.701026 
L 262.015506 247.40799 
L 262.536231 247.117658 
L 262.982567 246.610022 
L 263.503291 245.620612 
L 264.172795 243.793745 
L 265.958137 238.568373 
L 266.478862 237.752674 
L 266.850808 237.501018 
L 267.148365 237.508472 
L 267.520311 237.77332 
L 267.966647 238.433808 
L 268.561761 239.776202 
L 270.793438 245.394041 
L 271.388552 246.108338 
L 273.099505 247.690209 
L 275.405572 250.838679 
L 276.000686 251.174158 
L 276.447022 251.184079 
L 276.818968 250.983425 
L 277.265304 250.441201 
L 277.786028 249.395365 
L 278.678699 247.497804 
L 278.976256 247.299828 
L 279.199424 247.381834 
L 279.496981 247.762935 
L 280.166484 249.175055 
L 280.910377 250.532368 
L 281.431102 251.076681 
L 281.951827 251.298377 
L 282.398162 251.24892 
L 282.844498 250.980896 
L 283.365222 250.405433 
L 284.778618 248.638708 
L 285.150565 248.617037 
L 285.522511 248.834319 
L 286.861517 249.853945 
L 287.307853 249.829167 
L 287.754188 249.564074 
L 288.349303 248.907393 
L 289.316363 247.820725 
L 289.61392 247.75204 
L 289.911477 247.89163 
L 290.283423 248.336795 
L 291.919987 250.751921 
L 292.291933 250.869468 
L 292.663879 250.771034 
L 293.110215 250.372802 
L 293.63094 249.525708 
L 294.226054 248.082839 
L 295.267503 245.49885 
L 295.56506 245.324725 
L 295.788228 245.470382 
L 296.085785 245.988831 
L 297.722349 249.580991 
L 298.094295 249.776771 
L 298.466241 249.72093 
L 298.912577 249.374379 
L 299.433302 248.664481 
L 300.251583 247.096062 
L 301.516201 244.609914 
L 302.036925 244.038677 
L 302.706429 243.672681 
L 303.227154 243.319956 
L 303.673489 242.7397 
L 304.194214 241.637995 
L 304.938106 239.398582 
L 306.351502 234.969566 
L 306.872227 233.998143 
L 307.244173 233.664667 
L 307.54173 233.630643 
L 307.839287 233.802522 
L 308.211234 234.289693 
L 308.731958 235.404219 
L 309.55024 237.791041 
L 310.740468 241.175691 
L 311.409972 242.40333 
L 312.079475 243.149062 
L 313.046535 244.191654 
L 314.013595 245.712684 
L 315.055045 247.212778 
L 315.724548 247.803686 
L 316.170884 247.952867 
L 316.54283 247.88107 
L 316.914776 247.59774 
L 317.361112 246.966759 
L 318.625729 244.892786 
L 318.923286 244.906626 
L 319.220843 245.201747 
L 319.741568 246.133167 
L 320.634239 247.692162 
L 321.154964 248.199721 
L 321.601299 248.371873 
L 322.047635 248.310544 
L 322.493971 248.026297 
L 323.163474 247.271239 
L 323.981756 246.369535 
L 324.353702 246.238646 
L 324.725648 246.341148 
L 325.320762 246.804619 
L 325.990266 247.27224 
L 326.436601 247.350161 
L 326.882937 247.200337 
L 327.403661 246.778272 
L 328.5195 245.780692 
L 328.891446 245.786319 
L 329.263393 246.065849 
L 329.858507 246.910599 
L 330.676789 248.037306 
L 331.123124 248.324269 
L 331.49507 248.330939 
L 331.867017 248.123098 
L 332.313352 247.600071 
L 332.908466 246.488505 
L 334.098694 244.102905 
L 334.396251 243.980451 
L 334.619419 244.099644 
L 334.991365 244.640834 
L 336.404761 247.166178 
L 336.776707 247.344322 
L 337.148654 247.277054 
L 337.594989 246.915988 
L 338.190103 246.064451 
L 339.231553 244.039699 
L 340.049835 242.643076 
L 340.644949 242.024789 
L 341.612009 241.152635 
L 342.132734 240.270662 
L 342.727848 238.739549 
L 344.959525 232.306411 
L 345.331472 231.957398 
L 345.629029 231.924071 
L 345.926586 232.10893 
L 346.298532 232.627751 
L 346.819257 233.805434 
L 347.711928 236.528106 
L 348.753377 239.54252 
L 349.422881 240.865991 
L 350.315552 242.072899 
L 351.282612 243.478576 
L 352.696008 245.585347 
L 353.291122 246.119726 
L 353.737458 246.288031 
L 354.183793 246.211687 
L 354.630129 245.875629 
L 356.117914 244.427315 
L 356.415471 244.549842 
L 356.861806 245.054199 
L 358.275202 246.919331 
L 358.795927 247.167037 
L 359.242262 247.147989 
L 359.762987 246.884691 
L 361.325162 245.821754 
L 361.771497 245.908034 
L 362.664168 246.436982 
L 363.259282 246.629365 
L 363.780007 246.541421 
L 364.375121 246.183348 
L 365.342181 245.570353 
L 365.714128 245.569616 
L 366.086074 245.769769 
L 366.681188 246.39212 
L 367.49947 247.215234 
L 367.945805 247.381237 
L 368.317752 247.311709 
L 368.764087 246.976437 
L 369.284812 246.276992 
L 370.698208 244.144949 
L 370.995765 244.093642 
L 371.293322 244.265009 
L 371.739657 244.826232 
L 372.632328 246.020594 
L 373.078664 246.256408 
L 373.45061 246.207057 
L 373.896946 245.875604 
L 374.49206 245.066691 
L 376.946905 241.186801 
L 377.690798 240.231479 
L 378.211522 239.187584 
L 378.881026 237.288416 
L 380.517589 232.303197 
L 380.963925 231.614552 
L 381.335871 231.417142 
L 381.633428 231.51649 
L 382.005374 231.949052 
L 382.45171 232.86246 
L 383.195603 235.02403 
L 384.608998 239.196419 
L 385.352891 240.660237 
L 387.658958 244.244438 
L 388.40285 245.100349 
L 388.923575 245.419055 
L 389.369911 245.463425 
L 389.816246 245.293465 
L 391.304031 244.485151 
L 391.675978 244.670674 
L 392.271092 245.294274 
L 393.238152 246.30487 
L 393.758877 246.554029 
L 394.279601 246.552979 
L 394.874716 246.300521 
L 396.064944 245.727274 
L 396.585668 245.779872 
L 398.296621 246.252522 
L 398.891735 246.039421 
L 400.156353 245.496601 
L 400.602688 245.59536 
L 401.197802 246.005875 
L 402.090473 246.640971 
L 402.536809 246.710396 
L 402.983144 246.541963 
L 403.503869 246.058689 
L 405.214822 244.145548 
L 405.586768 244.211732 
L 406.107493 244.624644 
L 406.925775 245.303689 
L 407.37211 245.377917 
L 407.744057 245.223859 
L 408.190392 244.797787 
L 408.859895 243.789391 
L 410.794016 240.625192 
L 411.612298 239.318972 
L 412.207412 237.914933 
L 413.025694 235.334519 
L 414.067143 232.137633 
L 414.587868 231.189689 
L 414.959814 230.924853 
L 415.257371 230.979567 
L 415.554928 231.265765 
L 416.001264 232.083257 
L 416.670767 233.942068 
L 418.38172 238.988525 
L 419.274391 240.73288 
L 420.985344 243.489711 
L 421.729237 244.319233 
L 422.249961 244.62271 
L 422.770686 244.670441 
L 423.440189 244.458326 
L 424.109693 244.292021 
L 424.556028 244.408178 
L 425.076753 244.792068 
L 426.34137 245.843381 
L 426.936484 245.999197 
L 427.531598 245.903554 
L 429.019384 245.507345 
L 429.763276 245.68686 
L 430.655947 245.888105 
L 431.251061 245.802853 
L 432.962014 245.346853 
L 433.557128 245.577683 
L 434.672967 246.077051 
L 435.119302 246.026955 
L 435.640027 245.713205 
L 436.38392 244.91805 
L 437.202202 244.119395 
L 437.648537 243.986099 
L 438.094873 244.098128 
L 439.285101 244.54847 
L 439.731436 244.390529 
L 440.177772 243.986768 
L 440.847275 243.015499 
L 443.450899 238.403454 
L 444.120402 236.633772 
L 446.128912 230.796853 
L 446.500858 230.425133 
L 446.798415 230.401136 
L 447.095972 230.620016 
L 447.467919 231.208541 
L 447.988644 232.502755 
L 450.592267 239.793011 
L 451.856885 242.049798 
L 452.749556 243.258055 
L 453.34467 243.744147 
L 453.939784 243.938779 
L 455.725126 244.180993 
L 456.692186 244.915092 
L 457.436079 245.334482 
L 458.031193 245.425038 
L 458.849475 245.290279 
L 459.742146 245.197551 
L 460.709206 245.389978 
L 461.527488 245.457975 
L 462.34577 245.261214 
L 463.31283 245.045833 
L 463.982333 245.163194 
L 465.172561 245.456666 
L 465.693286 245.30967 
L 466.2884 244.876257 
L 467.701796 243.711218 
L 468.222521 243.644066 
L 469.487138 243.683452 
L 469.933474 243.406175 
L 470.454198 242.811618 
L 471.27248 241.463145 
L 473.206601 237.719889 
L 473.950493 235.660291 
L 475.735836 230.36034 
L 476.107782 229.901193 
L 476.405339 229.811829 
L 476.702896 229.974683 
L 477.074842 230.510475 
L 477.595567 231.76478 
L 478.711406 235.327045 
L 479.678466 238.060949 
L 480.645526 240.141851 
L 481.686976 241.892685 
L 482.430869 242.739553 
L 483.025983 243.119809 
L 483.844264 243.3497 
L 484.662546 243.640799 
L 485.703996 244.334251 
L 486.522278 244.740857 
L 487.191781 244.828178 
L 489.27468 244.893705 
L 490.24174 244.975969 
L 491.208801 244.783345 
L 492.101472 244.657714 
L 493.142921 244.806153 
L 493.812425 244.784382 
L 494.407539 244.516232 
L 495.30021 243.787828 
L 496.118491 243.237348 
L 496.787995 243.070248 
L 497.606277 242.862887 
L 498.127001 242.477344 
L 498.722115 241.717377 
L 499.614786 240.132497 
L 500.953793 237.321183 
L 501.772075 235.044461 
L 503.557417 229.716361 
L 503.929363 229.259489 
L 504.22692 229.18004 
L 504.524477 229.359888 
L 504.896424 229.924078 
L 505.417148 231.220971 
L 506.756155 235.536958 
L 507.723215 238.151897 
L 508.690276 240.155053 
L 509.508557 241.416103 
L 510.25245 242.160021 
L 511.070732 242.625986 
L 512.335349 243.324933 
L 513.599966 244.043951 
L 514.343859 244.196051 
L 517.691375 244.340024 
L 519.17916 244.145327 
L 520.443778 244.08618 
L 521.038892 243.812845 
L 522.080341 243.01408 
L 522.973012 242.47242 
L 524.163241 241.828842 
L 524.758355 241.162543 
L 525.502247 239.922272 
L 526.618086 237.557483 
L 527.510757 235.219778 
L 528.700985 231.303677 
L 529.444878 229.244469 
L 529.891213 228.58931 
L 530.18877 228.472513 
L 530.486327 228.62272 
L 530.858273 229.163115 
L 531.378998 230.450221 
L 532.494837 234.105097 
L 533.536287 237.147783 
L 534.503347 239.281923 
L 535.321629 240.590551 
L 536.065521 241.387652 
L 537.18136 242.18798 
L 538.966702 243.286304 
L 539.859373 243.509955 
L 542.314219 243.754277 
L 543.876393 243.518996 
L 545.438567 243.259202 
L 546.18246 242.820792 
L 548.934862 240.637204 
L 549.604366 239.651628 
L 550.422647 238.007067 
L 551.464097 235.400117 
L 552.431157 232.345522 
L 553.621385 228.635277 
L 554.067721 227.873299 
L 554.365278 227.684131 
L 554.662835 227.76884 
L 554.960392 228.11849 
L 555.406728 229.070899 
L 556.15062 231.381529 
L 557.638405 236.107806 
L 558.531076 238.210977 
L 559.349358 239.619394 
L 560.16764 240.592942 
L 561.357868 241.615734 
L 562.473707 242.350063 
L 563.366378 242.672327 
L 565.002941 242.957864 
L 565.970002 242.942448 
L 567.978512 242.572232 
L 568.796793 242.242011 
L 569.615075 241.647604 
L 571.474807 239.934371 
L 572.14431 238.994904 
L 572.888202 237.540066 
L 573.855263 235.096374 
L 574.896712 231.798019 
L 576.16133 227.754698 
L 576.607665 226.962503 
L 576.905222 226.759013 
L 577.202779 226.836461 
L 577.500336 227.186398 
L 577.946672 228.151205 
L 578.616175 230.243056 
L 580.252739 235.516562 
L 581.14541 237.587324 
L 581.963692 238.952043 
L 582.856363 240.017896 
L 583.972201 241.001716 
L 584.864873 241.516586 
L 585.906322 241.850471 
L 587.09655 242.015819 
L 588.06361 241.92127 
L 589.477006 241.542814 
L 590.295288 241.122895 
L 591.187959 240.380903 
L 592.452577 239.009288 
L 593.196469 237.900336 
L 593.940362 236.353154 
L 594.833033 233.918324 
L 595.948871 230.186655 
L 596.990321 226.811032 
L 597.436657 225.940906 
L 597.734214 225.684155 
L 598.031771 225.713516 
L 598.329328 226.024647 
L 598.701274 226.767747 
L 599.296388 228.545183 
L 601.230509 234.806268 
L 602.12318 236.833082 
L 602.941461 238.19167 
L 603.834133 239.26995 
L 604.726804 240.028287 
L 605.619475 240.494675 
L 606.586535 240.753641 
L 607.553595 240.780434 
L 608.595045 240.564117 
L 609.562105 240.15779 
L 610.380387 239.555526 
L 611.273058 238.593616 
L 612.165729 237.332241 
L 612.909622 235.912446 
L 613.727903 233.828435 
L 614.694964 230.710903 
L 616.331527 225.21915 
L 616.777863 224.466404 
L 617.07542 224.312923 
L 617.372977 224.455555 
L 617.670534 224.879697 
L 618.116869 225.956474 
L 618.935151 228.715194 
L 620.274158 233.152334 
L 621.166829 235.326828 
L 621.985111 236.784642 
L 622.803392 237.840024 
L 623.621674 238.56035 
L 624.439956 239.002563 
L 625.258238 239.214512 
L 626.07652 239.196288 
L 626.969191 238.928731 
L 627.787473 238.457445 
L 628.531365 237.776514 
L 629.349647 236.712479 
L 630.167929 235.288375 
L 630.911821 233.56649 
L 631.730103 231.114951 
L 632.99472 226.4708 
L 633.813002 223.750899 
L 634.259338 222.851586 
L 634.556895 222.597929 
L 634.780063 222.60721 
L 635.07762 222.882603 
L 635.449566 223.607389 
L 636.04468 225.403676 
L 638.201968 232.531242 
L 639.02025 234.319584 
L 639.838532 235.594201 
L 640.582424 236.375423 
L 641.326317 236.85494 
L 642.07021 237.068646 
L 642.739713 237.039834 
L 643.483605 236.769378 
L 644.227498 236.240997 
L 644.97139 235.405289 
L 645.715283 234.21731 
L 646.533565 232.446175 
L 647.351847 230.08192 
L 648.318907 226.53896 
L 649.732303 221.351602 
L 650.178638 220.447895 
L 650.476195 220.209079 
L 650.699363 220.236898 
L 650.99692 220.543591 
L 651.368866 221.311515 
L 651.96398 223.168116 
L 653.97249 229.93909 
L 654.790772 231.745043 
L 655.534665 232.865233 
L 656.204168 233.499373 
L 656.799282 233.797098 
L 657.394396 233.858634 
L 657.98951 233.689524 
L 658.584624 233.285456 
L 659.254127 232.530715 
L 659.923631 231.41943 
L 660.667523 229.716403 
L 661.411416 227.432153 
L 662.378476 223.661525 
L 663.866261 217.797027 
L 664.312597 216.825211 
L 664.610154 216.556197 
L 664.833322 216.567797 
L 665.130879 216.858879 
L 665.502825 217.611878 
L 666.097939 219.441058 
L 667.883281 225.340415 
L 668.627174 226.952515 
L 669.222288 227.777661 
L 669.743012 228.185666 
L 670.263737 228.312251 
L 670.710073 228.194555 
L 671.230797 227.787601 
L 671.751522 227.093797 
L 672.346636 225.928535 
L 673.01614 224.086774 
L 673.760032 221.370484 
L 674.727092 216.898794 
L 675.99171 211.047028 
L 676.512435 209.55963 
L 676.884381 209.058624 
L 677.181938 209.017672 
L 677.479495 209.250707 
L 677.92583 209.996198 
L 678.818501 212.117615 
L 679.413615 213.332108 
L 680.083119 214.108706 
L 680.603844 214.10447 
L 680.901401 213.81612 
L 681.273347 213.152437 
L 681.645293 212.225741 
L 682.240407 209.942277 
L 682.835521 206.582917 
L 683.356246 202.440096 
L 684.025749 195.446538 
L 684.695253 185.871115 
L 685.439145 170.955822 
L 686.034259 155.774386 
L 686.331816 141.476322 
L 686.703762 111.86288 
L 687.447655 49.0533 
L 687.745212 40.237706 
L 688.042769 36.806447 
L 688.340326 35.56476 
L 688.637883 35.127427 
L 689.009829 34.955994 
L 689.307386 34.918125 
L 689.307386 34.918125 
" clip-path="url(#pade810d10a)" style="fill: none; stroke: #1f77b4; stroke-width: 0.6; stroke-linecap: square"/>
   </g>
   <g id="line2d_15">
    <path d="M 50.14375 197.639402 
L 719.74375 197.639402 
" clip-path="url(#pade810d10a)" style="fill: none; stroke-dasharray: 2.22,0.96; stroke-dashoffset: 0; stroke: #ff0000; stroke-width: 0.6"/>
   </g>
   <g id="patch_3">
    <path d="M 50.14375 299.518125 
L 50.14375 22.318125 
" style="fill: none; stroke: #000000; stroke-width: 0.8; stroke-linejoin: miter; stroke-linecap: square"/>
   </g>
   <g id="patch_4">
    <path d="M 719.74375 299.518125 
L 719.74375 22.318125 
" style="fill: none; stroke: #000000; stroke-width: 0.8; stroke-linejoin: miter; stroke-linecap: square"/>
   </g>
   <g id="patch_5">
    <path d="M 50.14375 299.518125 
L 719.74375 299.518125 
" style="fill: none; stroke: #000000; stroke-width: 0.8; stroke-linejoin: miter; stroke-linecap: square"/>
   </g>
   <g id="patch_6">
    <path d="M 50.14375 22.318125 
L 719.74375 22.318125 
" style="fill: none; stroke: #000000; stroke-width: 0.8; stroke-linejoin: miter; stroke-linecap: square"/>
   </g>
   <g id="text_16">
    <!-- Mf vs Time for M=60, e=0.32, f_lower=10 Hz -->
    <g transform="translate(249.127188 16.318125) scale(0.12 -0.12)">
     <defs>
      <path id="DejaVuSans-76" d="M 191 3500 
L 800 3500 
L 1894 563 
L 2988 3500 
L 3597 3500 
L 2284 0 
L 1503 0 
L 191 3500 
z
" transform="scale(0.015625)"/>
      <path id="DejaVuSans-73" d="M 2834 3397 
L 2834 2853 
Q 2591 2978 2328 3040 
Q 2066 3103 1784 3103 
Q 1356 3103 1142 2972 
Q 928 2841 928 2578 
Q 928 2378 1081 2264 
Q 1234 2150 1697 2047 
L 1894 2003 
Q 2506 1872 2764 1633 
Q 3022 1394 3022 966 
Q 3022 478 2636 193 
Q 2250 -91 1575 -91 
Q 1294 -91 989 -36 
Q 684 19 347 128 
L 347 722 
Q 666 556 975 473 
Q 1284 391 1588 391 
Q 1994 391 2212 530 
Q 2431 669 2431 922 
Q 2431 1156 2273 1281 
Q 2116 1406 1581 1522 
L 1381 1569 
Q 847 1681 609 1914 
Q 372 2147 372 2553 
Q 372 3047 722 3315 
Q 1072 3584 1716 3584 
Q 2034 3584 2315 3537 
Q 2597 3491 2834 3397 
z
" transform="scale(0.015625)"/>
      <path id="DejaVuSans-54" d="M -19 4666 
L 3928 4666 
L 3928 4134 
L 2272 4134 
L 2272 0 
L 1638 0 
L 1638 4134 
L -19 4134 
L -19 4666 
z
" transform="scale(0.015625)"/>
      <path id="DejaVuSans-69" d="M 603 3500 
L 1178 3500 
L 1178 0 
L 603 0 
L 603 3500 
z
M 603 4863 
L 1178 4863 
L 1178 4134 
L 603 4134 
L 603 4863 
z
" transform="scale(0.015625)"/>
      <path id="DejaVuSans-6d" d="M 3328 2828 
Q 3544 3216 3844 3400 
Q 4144 3584 4550 3584 
Q 5097 3584 5394 3201 
Q 5691 2819 5691 2113 
L 5691 0 
L 5113 0 
L 5113 2094 
Q 5113 2597 4934 2840 
Q 4756 3084 4391 3084 
Q 3944 3084 3684 2787 
Q 3425 2491 3425 1978 
L 3425 0 
L 2847 0 
L 2847 2094 
Q 2847 2600 2669 2842 
Q 2491 3084 2119 3084 
Q 1678 3084 1418 2786 
Q 1159 2488 1159 1978 
L 1159 0 
L 581 0 
L 581 3500 
L 1159 3500 
L 1159 2956 
Q 1356 3278 1631 3431 
Q 1906 3584 2284 3584 
Q 2666 3584 2933 3390 
Q 3200 3197 3328 2828 
z
" transform="scale(0.015625)"/>
      <path id="DejaVuSans-65" d="M 3597 1894 
L 3597 1613 
L 953 1613 
Q 991 1019 1311 708 
Q 1631 397 2203 397 
Q 2534 397 2845 478 
Q 3156 559 3463 722 
L 3463 178 
Q 3153 47 2828 -22 
Q 2503 -91 2169 -91 
Q 1331 -91 842 396 
Q 353 884 353 1716 
Q 353 2575 817 3079 
Q 1281 3584 2069 3584 
Q 2775 3584 3186 3129 
Q 3597 2675 3597 1894 
z
M 3022 2063 
Q 3016 2534 2758 2815 
Q 2500 3097 2075 3097 
Q 1594 3097 1305 2825 
Q 1016 2553 972 2059 
L 3022 2063 
z
" transform="scale(0.015625)"/>
      <path id="DejaVuSans-6f" d="M 1959 3097 
Q 1497 3097 1228 2736 
Q 959 2375 959 1747 
Q 959 1119 1226 758 
Q 1494 397 1959 397 
Q 2419 397 2687 759 
Q 2956 1122 2956 1747 
Q 2956 2369 2687 2733 
Q 2419 3097 1959 3097 
z
M 1959 3584 
Q 2709 3584 3137 3096 
Q 3566 2609 3566 1747 
Q 3566 888 3137 398 
Q 2709 -91 1959 -91 
Q 1206 -91 779 398 
Q 353 888 353 1747 
Q 353 2609 779 3096 
Q 1206 3584 1959 3584 
z
" transform="scale(0.015625)"/>
      <path id="DejaVuSans-72" d="M 2631 2963 
Q 2534 3019 2420 3045 
Q 2306 3072 2169 3072 
Q 1681 3072 1420 2755 
Q 1159 2438 1159 1844 
L 1159 0 
L 581 0 
L 581 3500 
L 1159 3500 
L 1159 2956 
Q 1341 3275 1631 3429 
Q 1922 3584 2338 3584 
Q 2397 3584 2469 3576 
Q 2541 3569 2628 3553 
L 2631 2963 
z
" transform="scale(0.015625)"/>
      <path id="DejaVuSans-3d" d="M 678 2906 
L 4684 2906 
L 4684 2381 
L 678 2381 
L 678 2906 
z
M 678 1631 
L 4684 1631 
L 4684 1100 
L 678 1100 
L 678 1631 
z
" transform="scale(0.015625)"/>
      <path id="DejaVuSans-2c" d="M 750 794 
L 1409 794 
L 1409 256 
L 897 -744 
L 494 -744 
L 750 256 
L 750 794 
z
" transform="scale(0.015625)"/>
      <path id="DejaVuSans-33" d="M 2597 2516 
Q 3050 2419 3304 2112 
Q 3559 1806 3559 1356 
Q 3559 666 3084 287 
Q 2609 -91 1734 -91 
Q 1441 -91 1130 -33 
Q 819 25 488 141 
L 488 750 
Q 750 597 1062 519 
Q 1375 441 1716 441 
Q 2309 441 2620 675 
Q 2931 909 2931 1356 
Q 2931 1769 2642 2001 
Q 2353 2234 1838 2234 
L 1294 2234 
L 1294 2753 
L 1863 2753 
Q 2328 2753 2575 2939 
Q 2822 3125 2822 3475 
Q 2822 3834 2567 4026 
Q 2313 4219 1838 4219 
Q 1578 4219 1281 4162 
Q 984 4106 628 3988 
L 628 4550 
Q 988 4650 1302 4700 
Q 1616 4750 1894 4750 
Q 2613 4750 3031 4423 
Q 3450 4097 3450 3541 
Q 3450 3153 3228 2886 
Q 3006 2619 2597 2516 
z
" transform="scale(0.015625)"/>
      <path id="DejaVuSans-5f" d="M 3263 -1063 
L 3263 -1509 
L -63 -1509 
L -63 -1063 
L 3263 -1063 
z
" transform="scale(0.015625)"/>
      <path id="DejaVuSans-6c" d="M 603 4863 
L 1178 4863 
L 1178 0 
L 603 0 
L 603 4863 
z
" transform="scale(0.015625)"/>
      <path id="DejaVuSans-77" d="M 269 3500 
L 844 3500 
L 1563 769 
L 2278 3500 
L 2956 3500 
L 3675 769 
L 4391 3500 
L 4966 3500 
L 4050 0 
L 3372 0 
L 2619 2869 
L 1863 0 
L 1184 0 
L 269 3500 
z
" transform="scale(0.015625)"/>
      <path id="DejaVuSans-48" d="M 628 4666 
L 1259 4666 
L 1259 2753 
L 3553 2753 
L 3553 4666 
L 4184 4666 
L 4184 0 
L 3553 0 
L 3553 2222 
L 1259 2222 
L 1259 0 
L 628 0 
L 628 4666 
z
" transform="scale(0.015625)"/>
      <path id="DejaVuSans-7a" d="M 353 3500 
L 3084 3500 
L 3084 2975 
L 922 459 
L 3084 459 
L 3084 0 
L 275 0 
L 275 525 
L 2438 3041 
L 353 3041 
L 353 3500 
z
" transform="scale(0.015625)"/>
     </defs>
     <use xlink:href="#DejaVuSans-4d"/>
     <use xlink:href="#DejaVuSans-66" transform="translate(86.279297 0)"/>
     <use xlink:href="#DejaVuSans-20" transform="translate(121.484375 0)"/>
     <use xlink:href="#DejaVuSans-76" transform="translate(153.271484 0)"/>
     <use xlink:href="#DejaVuSans-73" transform="translate(212.451172 0)"/>
     <use xlink:href="#DejaVuSans-20" transform="translate(264.550781 0)"/>
     <use xlink:href="#DejaVuSans-54" transform="translate(296.337891 0)"/>
     <use xlink:href="#DejaVuSans-69" transform="translate(354.296875 0)"/>
     <use xlink:href="#DejaVuSans-6d" transform="translate(382.080078 0)"/>
     <use xlink:href="#DejaVuSans-65" transform="translate(479.492188 0)"/>
     <use xlink:href="#DejaVuSans-20" transform="translate(541.015625 0)"/>
     <use xlink:href="#DejaVuSans-66" transform="translate(572.802734 0)"/>
     <use xlink:href="#DejaVuSans-6f" transform="translate(608.007812 0)"/>
     <use xlink:href="#DejaVuSans-72" transform="translate(669.189453 0)"/>
     <use xlink:href="#DejaVuSans-20" transform="translate(710.302734 0)"/>
     <use xlink:href="#DejaVuSans-4d" transform="translate(742.089844 0)"/>
     <use xlink:href="#DejaVuSans-3d" transform="translate(828.369141 0)"/>
     <use xlink:href="#DejaVuSans-36" transform="translate(912.158203 0)"/>
     <use xlink:href="#DejaVuSans-30" transform="translate(975.78125 0)"/>
     <use xlink:href="#DejaVuSans-2c" transform="translate(1039.404297 0)"/>
     <use xlink:href="#DejaVuSans-20" transform="translate(1071.191406 0)"/>
     <use xlink:href="#DejaVuSans-65" transform="translate(1102.978516 0)"/>
     <use xlink:href="#DejaVuSans-3d" transform="translate(1164.501953 0)"/>
     <use xlink:href="#DejaVuSans-30" transform="translate(1248.291016 0)"/>
     <use xlink:href="#DejaVuSans-2e" transform="translate(1311.914062 0)"/>
     <use xlink:href="#DejaVuSans-33" transform="translate(1343.701172 0)"/>
     <use xlink:href="#DejaVuSans-32" transform="translate(1407.324219 0)"/>
     <use xlink:href="#DejaVuSans-2c" transform="translate(1470.947266 0)"/>
     <use xlink:href="#DejaVuSans-20" transform="translate(1502.734375 0)"/>
     <use xlink:href="#DejaVuSans-66" transform="translate(1534.521484 0)"/>
     <use xlink:href="#DejaVuSans-5f" transform="translate(1569.726562 0)"/>
     <use xlink:href="#DejaVuSans-6c" transform="translate(1619.726562 0)"/>
     <use xlink:href="#DejaVuSans-6f" transform="translate(1647.509766 0)"/>
     <use xlink:href="#DejaVuSans-77" transform="translate(1708.691406 0)"/>
     <use xlink:href="#DejaVuSans-65" transform="translate(1790.478516 0)"/>
     <use xlink:href="#DejaVuSans-72" transform="translate(1852.001953 0)"/>
     <use xlink:href="#DejaVuSans-3d" transform="translate(1893.115234 0)"/>
     <use xlink:href="#DejaVuSans-31" transform="translate(1976.904297 0)"/>
     <use xlink:href="#DejaVuSans-30" transform="translate(2040.527344 0)"/>
     <use xlink:href="#DejaVuSans-20" transform="translate(2104.150391 0)"/>
     <use xlink:href="#DejaVuSans-48" transform="translate(2135.9375 0)"/>
     <use xlink:href="#DejaVuSans-7a" transform="translate(2211.132812 0)"/>
    </g>
   </g>
   <g id="legend_1">
    <g id="patch_7">
     <path d="M 57.14375 59.9525 
L 153.10625 59.9525 
Q 155.10625 59.9525 155.10625 57.9525 
L 155.10625 29.318125 
Q 155.10625 27.318125 153.10625 27.318125 
L 57.14375 27.318125 
Q 55.14375 27.318125 55.14375 29.318125 
L 55.14375 57.9525 
Q 55.14375 59.9525 57.14375 59.9525 
z
" style="fill: #ffffff; opacity: 0.8; stroke: #cccccc; stroke-linejoin: miter"/>
    </g>
    <g id="line2d_16">
     <path d="M 59.14375 35.416563 
L 69.14375 35.416563 
L 79.14375 35.416563 
" style="fill: none; stroke: #1f77b4; stroke-width: 0.6; stroke-linecap: square"/>
    </g>
    <g id="text_17">
     <!-- Mf -->
     <g transform="translate(87.14375 38.916563) scale(0.1 -0.1)">
      <use xlink:href="#DejaVuSans-4d"/>
      <use xlink:href="#DejaVuSans-66" transform="translate(86.279297 0)"/>
     </g>
    </g>
    <g id="line2d_17">
     <path d="M 59.14375 50.094688 
L 69.14375 50.094688 
L 79.14375 50.094688 
" style="fill: none; stroke-dasharray: 2.22,0.96; stroke-dashoffset: 0; stroke: #ff0000; stroke-width: 0.6"/>
    </g>
    <g id="text_18">
     <!-- Mf_ISCO_circ -->
     <g transform="translate(87.14375 53.594688) scale(0.1 -0.1)">
      <defs>
       <path id="DejaVuSans-49" d="M 628 4666 
L 1259 4666 
L 1259 0 
L 628 0 
L 628 4666 
z
" transform="scale(0.015625)"/>
       <path id="DejaVuSans-53" d="M 3425 4513 
L 3425 3897 
Q 3066 4069 2747 4153 
Q 2428 4238 2131 4238 
Q 1616 4238 1336 4038 
Q 1056 3838 1056 3469 
Q 1056 3159 1242 3001 
Q 1428 2844 1947 2747 
L 2328 2669 
Q 3034 2534 3370 2195 
Q 3706 1856 3706 1288 
Q 3706 609 3251 259 
Q 2797 -91 1919 -91 
Q 1588 -91 1214 -16 
Q 841 59 441 206 
L 441 856 
Q 825 641 1194 531 
Q 1563 422 1919 422 
Q 2459 422 2753 634 
Q 3047 847 3047 1241 
Q 3047 1584 2836 1778 
Q 2625 1972 2144 2069 
L 1759 2144 
Q 1053 2284 737 2584 
Q 422 2884 422 3419 
Q 422 4038 858 4394 
Q 1294 4750 2059 4750 
Q 2388 4750 2728 4690 
Q 3069 4631 3425 4513 
z
" transform="scale(0.015625)"/>
       <path id="DejaVuSans-43" d="M 4122 4306 
L 4122 3641 
Q 3803 3938 3442 4084 
Q 3081 4231 2675 4231 
Q 1875 4231 1450 3742 
Q 1025 3253 1025 2328 
Q 1025 1406 1450 917 
Q 1875 428 2675 428 
Q 3081 428 3442 575 
Q 3803 722 4122 1019 
L 4122 359 
Q 3791 134 3420 21 
Q 3050 -91 2638 -91 
Q 1578 -91 968 557 
Q 359 1206 359 2328 
Q 359 3453 968 4101 
Q 1578 4750 2638 4750 
Q 3056 4750 3426 4639 
Q 3797 4528 4122 4306 
z
" transform="scale(0.015625)"/>
       <path id="DejaVuSans-4f" d="M 2522 4238 
Q 1834 4238 1429 3725 
Q 1025 3213 1025 2328 
Q 1025 1447 1429 934 
Q 1834 422 2522 422 
Q 3209 422 3611 934 
Q 4013 1447 4013 2328 
Q 4013 3213 3611 3725 
Q 3209 4238 2522 4238 
z
M 2522 4750 
Q 3503 4750 4090 4092 
Q 4678 3434 4678 2328 
Q 4678 1225 4090 567 
Q 3503 -91 2522 -91 
Q 1538 -91 948 565 
Q 359 1222 359 2328 
Q 359 3434 948 4092 
Q 1538 4750 2522 4750 
z
" transform="scale(0.015625)"/>
       <path id="DejaVuSans-63" d="M 3122 3366 
L 3122 2828 
Q 2878 2963 2633 3030 
Q 2388 3097 2138 3097 
Q 1578 3097 1268 2742 
Q 959 2388 959 1747 
Q 959 1106 1268 751 
Q 1578 397 2138 397 
Q 2388 397 2633 464 
Q 2878 531 3122 666 
L 3122 134 
Q 2881 22 2623 -34 
Q 2366 -91 2075 -91 
Q 1284 -91 818 406 
Q 353 903 353 1747 
Q 353 2603 823 3093 
Q 1294 3584 2113 3584 
Q 2378 3584 2631 3529 
Q 2884 3475 3122 3366 
z
" transform="scale(0.015625)"/>
      </defs>
      <use xlink:href="#DejaVuSans-4d"/>
      <use xlink:href="#DejaVuSans-66" transform="translate(86.279297 0)"/>
      <use xlink:href="#DejaVuSans-5f" transform="translate(121.484375 0)"/>
      <use xlink:href="#DejaVuSans-49" transform="translate(171.484375 0)"/>
      <use xlink:href="#DejaVuSans-53" transform="translate(200.976562 0)"/>
      <use xlink:href="#DejaVuSans-43" transform="translate(264.453125 0)"/>
      <use xlink:href="#DejaVuSans-4f" transform="translate(334.277344 0)"/>
      <use xlink:href="#DejaVuSans-5f" transform="translate(412.988281 0)"/>
      <use xlink:href="#DejaVuSans-63" transform="translate(462.988281 0)"/>
      <use xlink:href="#DejaVuSans-69" transform="translate(517.96875 0)"/>
      <use xlink:href="#DejaVuSans-72" transform="translate(545.751953 0)"/>
      <use xlink:href="#DejaVuSans-63" transform="translate(584.615234 0)"/>
     </g>
    </g>
   </g>
  </g>
 </g>
 <defs>
  <clipPath id="pade810d10a">
   <rect x="50.14375" y="22.318125" width="669.6" height="277.2"/>
  </clipPath>
 </defs>
</svg>
