<?xml version="1.0" encoding="utf-8" standalone="no"?>
<!DOCTYPE svg PUBLIC "-//W3C//DTD SVG 1.1//EN"
  "http://www.w3.org/Graphics/SVG/1.1/DTD/svg11.dtd">
<svg xmlns:xlink="http://www.w3.org/1999/xlink" width="726.94375pt" height="337.074375pt" viewBox="0 0 726.94375 337.074375" xmlns="http://www.w3.org/2000/svg" version="1.1">
 <metadata>
  <rdf:RDF xmlns:dc="http://purl.org/dc/elements/1.1/" xmlns:cc="http://creativecommons.org/ns#" xmlns:rdf="http://www.w3.org/1999/02/22-rdf-syntax-ns#">
   <cc:Work>
    <dc:type rdf:resource="http://purl.org/dc/dcmitype/StillImage"/>
    <dc:date>2025-07-24T14:39:30.310948</dc:date>
    <dc:format>image/svg+xml</dc:format>
    <dc:creator>
     <cc:Agent>
      <dc:title>Matplotlib v3.10.3, https://matplotlib.org/</dc:title>
     </cc:Agent>
    </dc:creator>
   </cc:Work>
  </rdf:RDF>
 </metadata>
 <defs>
  <style type="text/css">*{stroke-linejoin: round; stroke-linecap: butt}</style>
 </defs>
 <g id="figure_1">
  <g id="patch_1">
   <path d="M 0 337.074375 
L 726.94375 337.074375 
L 726.94375 0 
L 0 0 
z
" style="fill: #ffffff"/>
  </g>
  <g id="axes_1">
   <g id="patch_2">
    <path d="M 50.14375 299.518125 
L 719.74375 299.518125 
L 719.74375 22.318125 
L 50.14375 22.318125 
z
" style="fill: #ffffff"/>
   </g>
   <g id="matplotlib.axis_1">
    <g id="xtick_1">
     <g id="line2d_1">
      <defs>
       <path id="m7a5fa6ef91" d="M 0 0 
L 0 3.5 
" style="stroke: #000000; stroke-width: 0.8"/>
      </defs>
      <g>
       <use xlink:href="#m7a5fa6ef91" x="59.754776" y="299.518125" style="stroke: #000000; stroke-width: 0.8"/>
      </g>
     </g>
     <g id="text_1">
      <!-- −14000 -->
      <g transform="translate(39.658682 314.116563) scale(0.1 -0.1)">
       <defs>
        <path id="DejaVuSans-2212" d="M 678 2272 
L 4684 2272 
L 4684 1741 
L 678 1741 
L 678 2272 
z
" transform="scale(0.015625)"/>
        <path id="DejaVuSans-31" d="M 794 531 
L 1825 531 
L 1825 4091 
L 703 3866 
L 703 4441 
L 1819 4666 
L 2450 4666 
L 2450 531 
L 3481 531 
L 3481 0 
L 794 0 
L 794 531 
z
" transform="scale(0.015625)"/>
        <path id="DejaVuSans-34" d="M 2419 4116 
L 825 1625 
L 2419 1625 
L 2419 4116 
z
M 2253 4666 
L 3047 4666 
L 3047 1625 
L 3713 1625 
L 3713 1100 
L 3047 1100 
L 3047 0 
L 2419 0 
L 2419 1100 
L 313 1100 
L 313 1709 
L 2253 4666 
z
" transform="scale(0.015625)"/>
        <path id="DejaVuSans-30" d="M 2034 4250 
Q 1547 4250 1301 3770 
Q 1056 3291 1056 2328 
Q 1056 1369 1301 889 
Q 1547 409 2034 409 
Q 2525 409 2770 889 
Q 3016 1369 3016 2328 
Q 3016 3291 2770 3770 
Q 2525 4250 2034 4250 
z
M 2034 4750 
Q 2819 4750 3233 4129 
Q 3647 3509 3647 2328 
Q 3647 1150 3233 529 
Q 2819 -91 2034 -91 
Q 1250 -91 836 529 
Q 422 1150 422 2328 
Q 422 3509 836 4129 
Q 1250 4750 2034 4750 
z
" transform="scale(0.015625)"/>
       </defs>
       <use xlink:href="#DejaVuSans-2212"/>
       <use xlink:href="#DejaVuSans-31" transform="translate(83.789062 0)"/>
       <use xlink:href="#DejaVuSans-34" transform="translate(147.412109 0)"/>
       <use xlink:href="#DejaVuSans-30" transform="translate(211.035156 0)"/>
       <use xlink:href="#DejaVuSans-30" transform="translate(274.658203 0)"/>
       <use xlink:href="#DejaVuSans-30" transform="translate(338.28125 0)"/>
      </g>
     </g>
    </g>
    <g id="xtick_2">
     <g id="line2d_2">
      <g>
       <use xlink:href="#m7a5fa6ef91" x="149.331858" y="299.518125" style="stroke: #000000; stroke-width: 0.8"/>
      </g>
     </g>
     <g id="text_2">
      <!-- −12000 -->
      <g transform="translate(129.235764 314.116563) scale(0.1 -0.1)">
       <defs>
        <path id="DejaVuSans-32" d="M 1228 531 
L 3431 531 
L 3431 0 
L 469 0 
L 469 531 
Q 828 903 1448 1529 
Q 2069 2156 2228 2338 
Q 2531 2678 2651 2914 
Q 2772 3150 2772 3378 
Q 2772 3750 2511 3984 
Q 2250 4219 1831 4219 
Q 1534 4219 1204 4116 
Q 875 4013 500 3803 
L 500 4441 
Q 881 4594 1212 4672 
Q 1544 4750 1819 4750 
Q 2544 4750 2975 4387 
Q 3406 4025 3406 3419 
Q 3406 3131 3298 2873 
Q 3191 2616 2906 2266 
Q 2828 2175 2409 1742 
Q 1991 1309 1228 531 
z
" transform="scale(0.015625)"/>
       </defs>
       <use xlink:href="#DejaVuSans-2212"/>
       <use xlink:href="#DejaVuSans-31" transform="translate(83.789062 0)"/>
       <use xlink:href="#DejaVuSans-32" transform="translate(147.412109 0)"/>
       <use xlink:href="#DejaVuSans-30" transform="translate(211.035156 0)"/>
       <use xlink:href="#DejaVuSans-30" transform="translate(274.658203 0)"/>
       <use xlink:href="#DejaVuSans-30" transform="translate(338.28125 0)"/>
      </g>
     </g>
    </g>
    <g id="xtick_3">
     <g id="line2d_3">
      <g>
       <use xlink:href="#m7a5fa6ef91" x="238.908939" y="299.518125" style="stroke: #000000; stroke-width: 0.8"/>
      </g>
     </g>
     <g id="text_3">
      <!-- −10000 -->
      <g transform="translate(218.812845 314.116563) scale(0.1 -0.1)">
       <use xlink:href="#DejaVuSans-2212"/>
       <use xlink:href="#DejaVuSans-31" transform="translate(83.789062 0)"/>
       <use xlink:href="#DejaVuSans-30" transform="translate(147.412109 0)"/>
       <use xlink:href="#DejaVuSans-30" transform="translate(211.035156 0)"/>
       <use xlink:href="#DejaVuSans-30" transform="translate(274.658203 0)"/>
       <use xlink:href="#DejaVuSans-30" transform="translate(338.28125 0)"/>
      </g>
     </g>
    </g>
    <g id="xtick_4">
     <g id="line2d_4">
      <g>
       <use xlink:href="#m7a5fa6ef91" x="328.486021" y="299.518125" style="stroke: #000000; stroke-width: 0.8"/>
      </g>
     </g>
     <g id="text_4">
      <!-- −8000 -->
      <g transform="translate(311.571177 314.116563) scale(0.1 -0.1)">
       <defs>
        <path id="DejaVuSans-38" d="M 2034 2216 
Q 1584 2216 1326 1975 
Q 1069 1734 1069 1313 
Q 1069 891 1326 650 
Q 1584 409 2034 409 
Q 2484 409 2743 651 
Q 3003 894 3003 1313 
Q 3003 1734 2745 1975 
Q 2488 2216 2034 2216 
z
M 1403 2484 
Q 997 2584 770 2862 
Q 544 3141 544 3541 
Q 544 4100 942 4425 
Q 1341 4750 2034 4750 
Q 2731 4750 3128 4425 
Q 3525 4100 3525 3541 
Q 3525 3141 3298 2862 
Q 3072 2584 2669 2484 
Q 3125 2378 3379 2068 
Q 3634 1759 3634 1313 
Q 3634 634 3220 271 
Q 2806 -91 2034 -91 
Q 1263 -91 848 271 
Q 434 634 434 1313 
Q 434 1759 690 2068 
Q 947 2378 1403 2484 
z
M 1172 3481 
Q 1172 3119 1398 2916 
Q 1625 2713 2034 2713 
Q 2441 2713 2670 2916 
Q 2900 3119 2900 3481 
Q 2900 3844 2670 4047 
Q 2441 4250 2034 4250 
Q 1625 4250 1398 4047 
Q 1172 3844 1172 3481 
z
" transform="scale(0.015625)"/>
       </defs>
       <use xlink:href="#DejaVuSans-2212"/>
       <use xlink:href="#DejaVuSans-38" transform="translate(83.789062 0)"/>
       <use xlink:href="#DejaVuSans-30" transform="translate(147.412109 0)"/>
       <use xlink:href="#DejaVuSans-30" transform="translate(211.035156 0)"/>
       <use xlink:href="#DejaVuSans-30" transform="translate(274.658203 0)"/>
      </g>
     </g>
    </g>
    <g id="xtick_5">
     <g id="line2d_5">
      <g>
       <use xlink:href="#m7a5fa6ef91" x="418.063102" y="299.518125" style="stroke: #000000; stroke-width: 0.8"/>
      </g>
     </g>
     <g id="text_5">
      <!-- −6000 -->
      <g transform="translate(401.148258 314.116563) scale(0.1 -0.1)">
       <defs>
        <path id="DejaVuSans-36" d="M 2113 2584 
Q 1688 2584 1439 2293 
Q 1191 2003 1191 1497 
Q 1191 994 1439 701 
Q 1688 409 2113 409 
Q 2538 409 2786 701 
Q 3034 994 3034 1497 
Q 3034 2003 2786 2293 
Q 2538 2584 2113 2584 
z
M 3366 4563 
L 3366 3988 
Q 3128 4100 2886 4159 
Q 2644 4219 2406 4219 
Q 1781 4219 1451 3797 
Q 1122 3375 1075 2522 
Q 1259 2794 1537 2939 
Q 1816 3084 2150 3084 
Q 2853 3084 3261 2657 
Q 3669 2231 3669 1497 
Q 3669 778 3244 343 
Q 2819 -91 2113 -91 
Q 1303 -91 875 529 
Q 447 1150 447 2328 
Q 447 3434 972 4092 
Q 1497 4750 2381 4750 
Q 2619 4750 2861 4703 
Q 3103 4656 3366 4563 
z
" transform="scale(0.015625)"/>
       </defs>
       <use xlink:href="#DejaVuSans-2212"/>
       <use xlink:href="#DejaVuSans-36" transform="translate(83.789062 0)"/>
       <use xlink:href="#DejaVuSans-30" transform="translate(147.412109 0)"/>
       <use xlink:href="#DejaVuSans-30" transform="translate(211.035156 0)"/>
       <use xlink:href="#DejaVuSans-30" transform="translate(274.658203 0)"/>
      </g>
     </g>
    </g>
    <g id="xtick_6">
     <g id="line2d_6">
      <g>
       <use xlink:href="#m7a5fa6ef91" x="507.640184" y="299.518125" style="stroke: #000000; stroke-width: 0.8"/>
      </g>
     </g>
     <g id="text_6">
      <!-- −4000 -->
      <g transform="translate(490.72534 314.116563) scale(0.1 -0.1)">
       <use xlink:href="#DejaVuSans-2212"/>
       <use xlink:href="#DejaVuSans-34" transform="translate(83.789062 0)"/>
       <use xlink:href="#DejaVuSans-30" transform="translate(147.412109 0)"/>
       <use xlink:href="#DejaVuSans-30" transform="translate(211.035156 0)"/>
       <use xlink:href="#DejaVuSans-30" transform="translate(274.658203 0)"/>
      </g>
     </g>
    </g>
    <g id="xtick_7">
     <g id="line2d_7">
      <g>
       <use xlink:href="#m7a5fa6ef91" x="597.217265" y="299.518125" style="stroke: #000000; stroke-width: 0.8"/>
      </g>
     </g>
     <g id="text_7">
      <!-- −2000 -->
      <g transform="translate(580.302421 314.116563) scale(0.1 -0.1)">
       <use xlink:href="#DejaVuSans-2212"/>
       <use xlink:href="#DejaVuSans-32" transform="translate(83.789062 0)"/>
       <use xlink:href="#DejaVuSans-30" transform="translate(147.412109 0)"/>
       <use xlink:href="#DejaVuSans-30" transform="translate(211.035156 0)"/>
       <use xlink:href="#DejaVuSans-30" transform="translate(274.658203 0)"/>
      </g>
     </g>
    </g>
    <g id="xtick_8">
     <g id="line2d_8">
      <g>
       <use xlink:href="#m7a5fa6ef91" x="686.794347" y="299.518125" style="stroke: #000000; stroke-width: 0.8"/>
      </g>
     </g>
     <g id="text_8">
      <!-- 0 -->
      <g transform="translate(683.613097 314.116563) scale(0.1 -0.1)">
       <use xlink:href="#DejaVuSans-30"/>
      </g>
     </g>
    </g>
    <g id="text_9">
     <!-- t [M] -->
     <g transform="translate(373.178906 327.794688) scale(0.1 -0.1)">
      <defs>
       <path id="DejaVuSans-74" d="M 1172 4494 
L 1172 3500 
L 2356 3500 
L 2356 3053 
L 1172 3053 
L 1172 1153 
Q 1172 725 1289 603 
Q 1406 481 1766 481 
L 2356 481 
L 2356 0 
L 1766 0 
Q 1100 0 847 248 
Q 594 497 594 1153 
L 594 3053 
L 172 3053 
L 172 3500 
L 594 3500 
L 594 4494 
L 1172 4494 
z
" transform="scale(0.015625)"/>
       <path id="DejaVuSans-20" transform="scale(0.015625)"/>
       <path id="DejaVuSans-5b" d="M 550 4863 
L 1875 4863 
L 1875 4416 
L 1125 4416 
L 1125 -397 
L 1875 -397 
L 1875 -844 
L 550 -844 
L 550 4863 
z
" transform="scale(0.015625)"/>
       <path id="DejaVuSans-4d" d="M 628 4666 
L 1569 4666 
L 2759 1491 
L 3956 4666 
L 4897 4666 
L 4897 0 
L 4281 0 
L 4281 4097 
L 3078 897 
L 2444 897 
L 1241 4097 
L 1241 0 
L 628 0 
L 628 4666 
z
" transform="scale(0.015625)"/>
       <path id="DejaVuSans-5d" d="M 1947 4863 
L 1947 -844 
L 622 -844 
L 622 -397 
L 1369 -397 
L 1369 4416 
L 622 4416 
L 622 4863 
L 1947 4863 
z
" transform="scale(0.015625)"/>
      </defs>
      <use xlink:href="#DejaVuSans-74"/>
      <use xlink:href="#DejaVuSans-20" transform="translate(39.208984 0)"/>
      <use xlink:href="#DejaVuSans-5b" transform="translate(70.996094 0)"/>
      <use xlink:href="#DejaVuSans-4d" transform="translate(110.009766 0)"/>
      <use xlink:href="#DejaVuSans-5d" transform="translate(196.289062 0)"/>
     </g>
    </g>
   </g>
   <g id="matplotlib.axis_2">
    <g id="ytick_1">
     <g id="line2d_9">
      <defs>
       <path id="me1342c3caa" d="M 0 0 
L -3.5 0 
" style="stroke: #000000; stroke-width: 0.8"/>
      </defs>
      <g>
       <use xlink:href="#me1342c3caa" x="50.14375" y="272.511441" style="stroke: #000000; stroke-width: 0.8"/>
      </g>
     </g>
     <g id="text_10">
      <!-- 0.00 -->
      <g transform="translate(20.878125 276.31066) scale(0.1 -0.1)">
       <defs>
        <path id="DejaVuSans-2e" d="M 684 794 
L 1344 794 
L 1344 0 
L 684 0 
L 684 794 
z
" transform="scale(0.015625)"/>
       </defs>
       <use xlink:href="#DejaVuSans-30"/>
       <use xlink:href="#DejaVuSans-2e" transform="translate(63.623047 0)"/>
       <use xlink:href="#DejaVuSans-30" transform="translate(95.410156 0)"/>
       <use xlink:href="#DejaVuSans-30" transform="translate(159.033203 0)"/>
      </g>
     </g>
    </g>
    <g id="ytick_2">
     <g id="line2d_10">
      <g>
       <use xlink:href="#me1342c3caa" x="50.14375" y="218.55959" style="stroke: #000000; stroke-width: 0.8"/>
      </g>
     </g>
     <g id="text_11">
      <!-- 0.02 -->
      <g transform="translate(20.878125 222.358809) scale(0.1 -0.1)">
       <use xlink:href="#DejaVuSans-30"/>
       <use xlink:href="#DejaVuSans-2e" transform="translate(63.623047 0)"/>
       <use xlink:href="#DejaVuSans-30" transform="translate(95.410156 0)"/>
       <use xlink:href="#DejaVuSans-32" transform="translate(159.033203 0)"/>
      </g>
     </g>
    </g>
    <g id="ytick_3">
     <g id="line2d_11">
      <g>
       <use xlink:href="#me1342c3caa" x="50.14375" y="164.607739" style="stroke: #000000; stroke-width: 0.8"/>
      </g>
     </g>
     <g id="text_12">
      <!-- 0.04 -->
      <g transform="translate(20.878125 168.406957) scale(0.1 -0.1)">
       <use xlink:href="#DejaVuSans-30"/>
       <use xlink:href="#DejaVuSans-2e" transform="translate(63.623047 0)"/>
       <use xlink:href="#DejaVuSans-30" transform="translate(95.410156 0)"/>
       <use xlink:href="#DejaVuSans-34" transform="translate(159.033203 0)"/>
      </g>
     </g>
    </g>
    <g id="ytick_4">
     <g id="line2d_12">
      <g>
       <use xlink:href="#me1342c3caa" x="50.14375" y="110.655887" style="stroke: #000000; stroke-width: 0.8"/>
      </g>
     </g>
     <g id="text_13">
      <!-- 0.06 -->
      <g transform="translate(20.878125 114.455106) scale(0.1 -0.1)">
       <use xlink:href="#DejaVuSans-30"/>
       <use xlink:href="#DejaVuSans-2e" transform="translate(63.623047 0)"/>
       <use xlink:href="#DejaVuSans-30" transform="translate(95.410156 0)"/>
       <use xlink:href="#DejaVuSans-36" transform="translate(159.033203 0)"/>
      </g>
     </g>
    </g>
    <g id="ytick_5">
     <g id="line2d_13">
      <g>
       <use xlink:href="#me1342c3caa" x="50.14375" y="56.704036" style="stroke: #000000; stroke-width: 0.8"/>
      </g>
     </g>
     <g id="text_14">
      <!-- 0.08 -->
      <g transform="translate(20.878125 60.503255) scale(0.1 -0.1)">
       <use xlink:href="#DejaVuSans-30"/>
       <use xlink:href="#DejaVuSans-2e" transform="translate(63.623047 0)"/>
       <use xlink:href="#DejaVuSans-30" transform="translate(95.410156 0)"/>
       <use xlink:href="#DejaVuSans-38" transform="translate(159.033203 0)"/>
      </g>
     </g>
    </g>
    <g id="text_15">
     <!-- Mf -->
     <g transform="translate(14.798437 166.992344) rotate(-90) scale(0.1 -0.1)">
      <defs>
       <path id="DejaVuSans-66" d="M 2375 4863 
L 2375 4384 
L 1825 4384 
Q 1516 4384 1395 4259 
Q 1275 4134 1275 3809 
L 1275 3500 
L 2222 3500 
L 2222 3053 
L 1275 3053 
L 1275 0 
L 697 0 
L 697 3053 
L 147 3053 
L 147 3500 
L 697 3500 
L 697 3744 
Q 697 4328 969 4595 
Q 1241 4863 1831 4863 
L 2375 4863 
z
" transform="scale(0.015625)"/>
      </defs>
      <use xlink:href="#DejaVuSans-4d"/>
      <use xlink:href="#DejaVuSans-66" transform="translate(86.279297 0)"/>
     </g>
    </g>
   </g>
   <g id="line2d_14">
    <path d="M 80.580114 285.424643 
L 80.877707 285.266947 
L 81.398495 284.722351 
L 82.737666 283.10783 
L 83.035259 283.136585 
L 83.407251 283.477033 
L 84.002438 284.470447 
L 84.969616 286.051701 
L 85.564803 286.625539 
L 86.15999 286.888858 
L 86.755176 286.884539 
L 87.350363 286.640606 
L 88.094347 286.064805 
L 89.210322 285.189722 
L 89.73111 285.085362 
L 90.251899 285.224063 
L 91.963061 285.895414 
L 92.558247 285.791816 
L 93.227833 285.421569 
L 94.864596 284.311718 
L 95.310986 284.359567 
L 95.757376 284.638565 
L 97.691733 286.174059 
L 98.212522 286.154899 
L 98.73331 285.888553 
L 99.254099 285.35972 
L 99.849285 284.385188 
L 100.518871 282.783871 
L 101.411651 280.584244 
L 101.709244 280.280754 
L 101.932439 280.300091 
L 102.230033 280.645127 
L 102.750821 281.81088 
L 103.569203 283.598676 
L 104.015593 284.115146 
L 104.387585 284.275852 
L 104.759576 284.227095 
L 105.205966 283.946417 
L 105.801153 283.282572 
L 106.545137 282.079232 
L 107.363518 280.316676 
L 108.777087 277.136986 
L 109.372274 276.414458 
L 110.413851 275.391486 
L 110.934639 274.451375 
L 111.604224 272.725241 
L 113.240988 268.222725 
L 113.761776 267.42804 
L 114.133768 267.177472 
L 114.50576 267.206569 
L 114.877751 267.50811 
L 115.324142 268.192783 
L 115.993727 269.715768 
L 117.779287 274.065521 
L 118.448872 274.988993 
L 119.490449 276.271936 
L 120.160034 277.615646 
L 121.648001 280.750025 
L 122.391984 281.759355 
L 123.135968 282.398178 
L 123.656756 282.596604 
L 124.103146 282.533899 
L 124.475138 282.254659 
L 124.84713 281.713111 
L 125.29352 280.677489 
L 126.483894 277.575359 
L 126.707089 277.537677 
L 126.930284 277.782225 
L 127.302275 278.674298 
L 128.567047 282.142183 
L 129.087836 282.885844 
L 129.608624 283.280738 
L 130.129413 283.416929 
L 130.650201 283.334119 
L 131.170989 283.031706 
L 131.766176 282.410784 
L 133.328541 280.531489 
L 133.700533 280.497189 
L 134.146923 280.741587 
L 135.709289 281.942256 
L 136.230077 281.949948 
L 136.750865 281.70439 
L 137.346052 281.140783 
L 138.834019 279.526453 
L 139.131612 279.538355 
L 139.503604 279.827744 
L 140.024393 280.623393 
L 141.140368 282.425526 
L 141.661156 282.849043 
L 142.107546 282.952486 
L 142.553936 282.833239 
L 143.000327 282.498357 
L 143.521115 281.802735 
L 144.041903 280.67099 
L 144.562692 278.934307 
L 145.827464 273.974704 
L 145.97626 273.948766 
L 146.125057 274.144385 
L 146.42265 275.105263 
L 147.836219 280.882437 
L 148.282609 281.56519 
L 148.654601 281.759212 
L 149.026593 281.694964 
L 149.472983 281.364895 
L 150.068169 280.617089 
L 150.812153 279.29526 
L 151.556136 277.515782 
L 153.1929 273.270087 
L 153.564892 273.015587 
L 153.936883 273.060922 
L 154.606469 273.190766 
L 154.904062 273.026836 
L 155.276054 272.531846 
L 155.722444 271.520351 
L 156.392029 269.368408 
L 157.954394 264.123069 
L 158.475183 263.100954 
L 158.847174 262.734583 
L 159.144768 262.674643 
L 159.442361 262.821778 
L 159.814353 263.283169 
L 160.335141 264.383585 
L 161.079125 266.599917 
L 162.492693 270.909633 
L 163.013482 271.856732 
L 163.459872 272.258792 
L 163.98066 272.403866 
L 164.42705 272.568744 
L 164.799042 272.967956 
L 165.245432 273.843978 
L 167.179789 278.247902 
L 167.998171 279.306158 
L 168.742154 279.934912 
L 169.262943 280.104452 
L 169.634935 279.994732 
L 170.006926 279.591817 
L 170.378918 278.776815 
L 170.825308 277.082625 
L 171.494893 273.252907 
L 171.941283 271.361463 
L 172.09008 271.219985 
L 172.238877 271.375485 
L 172.462072 272.098894 
L 173.057259 275.308159 
L 173.652445 277.93516 
L 174.173234 279.258631 
L 174.694022 279.961296 
L 175.214811 280.287763 
L 175.735599 280.357181 
L 176.256387 280.188431 
L 176.702778 279.82021 
L 177.223566 279.072805 
L 177.893151 277.632818 
L 178.637135 276.0934 
L 178.934728 275.831231 
L 179.232321 275.870313 
L 179.529915 276.176307 
L 180.273898 277.43665 
L 180.869085 278.213934 
L 181.315475 278.463967 
L 181.687467 278.447 
L 182.133857 278.166608 
L 182.580247 277.608813 
L 183.175434 276.474895 
L 184.068214 274.715142 
L 184.365807 274.536106 
L 184.589002 274.643707 
L 184.886596 275.109922 
L 185.407384 276.531505 
L 186.300164 279.009054 
L 186.820953 279.861856 
L 187.267343 280.206929 
L 187.639335 280.259016 
L 188.085725 280.077688 
L 188.532115 279.643767 
L 188.978505 278.916806 
L 189.424895 277.767781 
L 189.871285 275.944484 
L 190.317675 273.120012 
L 191.210455 266.867233 
L 191.359252 266.848552 
L 191.508049 267.332009 
L 191.805642 269.441177 
L 192.698422 276.500723 
L 193.144812 278.365301 
L 193.591202 279.322929 
L 193.963194 279.633842 
L 194.335186 279.625657 
L 194.707177 279.380139 
L 195.227966 278.747354 
L 195.897551 277.575413 
L 196.641534 275.843539 
L 197.385518 273.554719 
L 198.501493 270.06955 
L 198.799087 269.717148 
L 199.022282 269.700792 
L 199.319875 269.939636 
L 200.212655 270.8839 
L 200.510249 270.844354 
L 200.807842 270.539912 
L 201.179834 269.800027 
L 201.700622 268.208818 
L 202.742199 264.054541 
L 203.634979 260.845834 
L 204.230166 259.482866 
L 204.602158 259.055613 
L 204.899751 258.967022 
L 205.197344 259.104047 
L 205.569336 259.579621 
L 206.015726 260.551734 
L 206.685311 262.639601 
L 208.54527 268.909487 
L 208.99166 269.676666 
L 209.363652 269.941777 
L 209.735644 269.909435 
L 210.554025 269.6803 
L 210.851619 269.931835 
L 211.22361 270.628364 
L 211.967594 272.709146 
L 212.860374 274.921298 
L 213.678756 276.33125 
L 214.571536 277.463372 
L 215.166723 277.952162 
L 215.613113 278.047851 
L 215.910706 277.895585 
L 216.2083 277.486094 
L 216.505893 276.716824 
L 216.877885 275.043201 
L 217.324275 271.649062 
L 218.142657 264.830102 
L 218.217055 264.769374 
L 218.365852 265.106668 
L 218.589047 266.549437 
L 219.630624 274.603058 
L 220.077014 276.181036 
L 220.523404 277.051096 
L 221.044192 277.576877 
L 221.564981 277.792736 
L 222.085769 277.755551 
L 222.532159 277.477916 
L 222.978549 276.880976 
L 223.424939 275.857487 
L 224.020126 273.791426 
L 224.689711 271.4713 
L 224.987305 271.087407 
L 225.136101 271.124375 
L 225.359296 271.4449 
L 225.805686 272.686897 
L 226.54967 274.711274 
L 226.99606 275.317328 
L 227.368052 275.450723 
L 227.665645 275.334326 
L 228.037637 274.919161 
L 228.484027 274.01226 
L 229.004815 272.393946 
L 229.823197 269.737126 
L 230.046392 269.517528 
L 230.195189 269.591895 
L 230.418384 270.040866 
L 230.790376 271.491135 
L 231.906351 276.339018 
L 232.427139 277.536072 
L 232.873529 278.017215 
L 233.245521 278.108415 
L 233.617513 277.966482 
L 234.063903 277.519419 
L 234.510293 276.744668 
L 234.956683 275.502599 
L 235.403073 273.45589 
L 235.775065 270.705532 
L 236.295853 264.841064 
L 236.667845 261.171604 
L 236.816642 260.798278 
L 236.965438 261.290784 
L 237.263032 264.285854 
L 238.007015 272.73842 
L 238.453405 275.460371 
L 238.899795 276.908239 
L 239.271787 277.487114 
L 239.643779 277.668053 
L 240.015771 277.549791 
L 240.462161 277.107591 
L 241.057347 276.141063 
L 241.801331 274.469476 
L 242.545314 272.268199 
L 244.10768 267.224701 
L 244.405273 267.049402 
L 244.628468 267.179352 
L 245.074858 267.83964 
L 245.670045 268.631799 
L 245.967638 268.701419 
L 246.265232 268.487627 
L 246.637223 267.826611 
L 247.158012 266.270447 
L 247.976394 262.907323 
L 249.166767 258.119947 
L 249.761954 256.602804 
L 250.208344 256.047182 
L 250.505938 255.977108 
L 250.803531 256.147482 
L 251.175523 256.683332 
L 251.621913 257.74988 
L 252.291498 260.007416 
L 254.151456 266.693095 
L 254.597847 267.500573 
L 254.969838 267.769694 
L 255.267432 267.743542 
L 256.309009 267.407872 
L 256.606602 267.754965 
L 257.052992 268.760883 
L 258.764154 273.167455 
L 259.731332 274.776105 
L 260.549714 275.740351 
L 260.996104 275.981253 
L 261.293698 275.939437 
L 261.591291 275.654762 
L 261.888885 275.026638 
L 262.260876 273.54276 
L 262.632868 270.952634 
L 263.153656 265.261328 
L 263.525648 261.647554 
L 263.674445 261.166586 
L 263.748843 261.210222 
L 263.89764 261.837494 
L 264.269632 265.356449 
L 264.864818 270.784201 
L 265.311209 273.056606 
L 265.757599 274.310864 
L 266.278387 275.090557 
L 266.799175 275.468208 
L 267.245566 275.556246 
L 267.617557 275.443469 
L 267.989549 275.101517 
L 268.361541 274.441265 
L 268.807931 273.082272 
L 269.328719 270.645822 
L 269.998304 267.605236 
L 270.221499 267.302295 
L 270.370296 267.394416 
L 270.593491 267.921848 
L 271.188678 270.355299 
L 271.709466 272.052048 
L 272.081458 272.666622 
L 272.379051 272.821985 
L 272.676645 272.707822 
L 272.974238 272.335771 
L 273.34623 271.498515 
L 273.79262 269.924241 
L 274.834197 265.919491 
L 274.982994 265.901216 
L 275.13179 266.135112 
L 275.429384 267.277029 
L 276.991749 274.933925 
L 277.438139 275.758054 
L 277.810131 276.03251 
L 278.107724 276.028597 
L 278.479716 275.780937 
L 278.926106 275.144743 
L 279.372496 274.079028 
L 279.818886 272.369603 
L 280.265276 269.568795 
L 280.711666 265.167559 
L 281.306853 259.389285 
L 281.45565 259.232392 
L 281.604446 259.863995 
L 281.90204 262.840343 
L 282.646023 270.776728 
L 283.092413 273.359731 
L 283.538803 274.746306 
L 283.910795 275.294313 
L 284.208389 275.441835 
L 284.505982 275.383244 
L 284.877974 275.073052 
L 285.398762 274.288136 
L 286.068347 272.816419 
L 286.886729 270.407877 
L 288.449094 265.462451 
L 288.746688 265.236855 
L 288.969883 265.306296 
L 289.341874 265.723235 
L 290.01146 266.475827 
L 290.309053 266.496727 
L 290.606646 266.24186 
L 290.978638 265.531251 
L 291.499427 263.89822 
L 292.317808 260.405494 
L 293.433784 255.784844 
L 294.02897 254.226443 
L 294.400962 253.731027 
L 294.698555 253.622527 
L 294.996149 253.770997 
L 295.368141 254.302735 
L 295.814531 255.394984 
L 296.484116 257.734291 
L 298.269676 264.413387 
L 298.790465 265.404819 
L 299.162456 265.689191 
L 299.534448 265.690449 
L 300.204033 265.59118 
L 300.501626 265.797892 
L 300.873618 266.398597 
L 301.543203 268.11123 
L 302.58478 270.705754 
L 303.47756 272.322458 
L 304.221544 273.264973 
L 304.667934 273.544962 
L 304.965527 273.531499 
L 305.263121 273.284364 
L 305.560714 272.716752 
L 305.932706 271.38776 
L 306.304698 269.16045 
L 307.420673 261.531198 
L 307.569469 261.873329 
L 307.867063 263.691377 
L 308.759843 269.90739 
L 309.206233 271.553937 
L 309.652623 272.506936 
L 310.099013 273.034367 
L 310.545403 273.262029 
L 310.917395 273.235796 
L 311.289387 272.974997 
L 311.661378 272.40929 
L 312.107769 271.210802 
L 312.628557 269.060477 
L 313.298142 266.347545 
L 313.521337 266.027939 
L 313.670134 266.062824 
L 313.893329 266.455838 
L 314.339719 267.962452 
L 315.009304 270.024783 
L 315.381296 270.563148 
L 315.678889 270.665053 
L 315.976483 270.49481 
L 316.348474 269.915213 
L 316.794864 268.697252 
L 317.985238 264.996552 
L 318.134035 265.038239 
L 318.35723 265.477994 
L 318.729221 267.012476 
L 319.845197 272.184324 
L 320.291587 273.254118 
L 320.663578 273.683891 
L 320.961172 273.765868 
L 321.258765 273.64064 
L 321.630757 273.211147 
L 322.077147 272.278599 
L 322.523537 270.778748 
L 322.969927 268.47977 
L 323.565114 264.006301 
L 324.011504 261.070103 
L 324.234699 260.73161 
L 324.383496 261.083528 
L 324.681089 262.91454 
L 325.722666 270.524025 
L 326.169056 272.124522 
L 326.541048 272.812525 
L 326.91304 273.054518 
L 327.210633 272.992046 
L 327.582625 272.655307 
L 328.103413 271.800586 
L 328.772998 270.197549 
L 329.665778 267.403611 
L 330.558559 264.698282 
L 330.93055 264.110465 
L 331.228144 263.977146 
L 331.525737 264.080552 
L 332.344119 264.504031 
L 332.641712 264.357641 
L 332.939306 263.953323 
L 333.385696 262.857627 
L 333.980883 260.645482 
L 335.840841 253.060274 
L 336.287231 252.158881 
L 336.659223 251.863152 
L 336.956816 251.935504 
L 337.25441 252.275535 
L 337.626401 253.048057 
L 338.14719 254.668374 
L 339.188767 258.894816 
L 340.081547 262.13549 
L 340.602335 263.323692 
L 341.048725 263.847653 
L 341.569514 264.076419 
L 342.090302 264.35515 
L 342.462294 264.831591 
L 342.983082 265.915745 
L 344.619846 269.607952 
L 345.36383 270.680933 
L 345.884618 271.081843 
L 346.25661 271.089041 
L 346.554203 270.8536 
L 346.851796 270.336231 
L 347.223788 269.198155 
L 347.744577 266.645884 
L 348.414162 263.362434 
L 348.637357 263.06802 
L 348.786154 263.206312 
L 349.009349 263.853542 
L 349.604535 266.744835 
L 350.199722 269.159134 
L 350.720511 270.395116 
L 351.166901 270.958237 
L 351.613291 271.168437 
L 351.985282 271.089755 
L 352.357274 270.757582 
L 352.803664 269.977369 
L 353.398851 268.32361 
L 354.068436 266.489278 
L 354.36603 266.187928 
L 354.589225 266.267979 
L 354.886818 266.720275 
L 356.077191 269.029287 
L 356.374785 269.175515 
L 356.672378 269.098809 
L 357.04437 268.705613 
L 357.49076 267.848291 
L 358.606735 265.486356 
L 358.82993 265.485582 
L 359.053125 265.763924 
L 359.425117 266.761375 
L 360.764287 270.99156 
L 361.136279 271.475051 
L 361.433872 271.600678 
L 361.731466 271.508559 
L 362.103458 271.101241 
L 362.549848 270.178901 
L 363.070636 268.438886 
L 363.740221 265.181028 
L 364.26101 262.898089 
L 364.484205 262.533821 
L 364.633001 262.594602 
L 364.856196 263.132449 
L 365.228188 264.867008 
L 366.120968 269.178125 
L 366.567358 270.320939 
L 366.93935 270.746297 
L 367.236943 270.796852 
L 367.534537 270.631636 
L 367.980927 270.052844 
L 368.576114 268.805503 
L 369.468894 266.274407 
L 370.361674 263.840568 
L 370.808064 263.178113 
L 371.180056 262.981767 
L 372.147234 262.74826 
L 372.519226 262.240025 
L 372.965616 261.135208 
L 373.560803 258.924482 
L 375.346363 251.685442 
L 375.792753 250.831761 
L 376.090347 250.615586 
L 376.38794 250.69133 
L 376.685534 251.051066 
L 377.057525 251.866255 
L 377.652712 253.842805 
L 379.661467 261.330962 
L 380.182256 262.288605 
L 380.851841 263.004867 
L 381.447028 263.747563 
L 382.042214 264.902109 
L 383.60458 268.111247 
L 384.199767 268.845088 
L 384.646157 269.092652 
L 384.94375 269.060261 
L 385.241343 268.828181 
L 385.613335 268.20921 
L 386.059725 266.98014 
L 386.952505 264.390288 
L 387.1757 264.249088 
L 387.398895 264.42765 
L 387.696489 265.079172 
L 389.184456 269.024681 
L 389.630846 269.48228 
L 390.002838 269.600458 
L 390.374829 269.488942 
L 390.746821 269.148183 
L 391.267609 268.321878 
L 392.234788 266.654292 
L 392.532381 266.510645 
L 392.829975 266.633233 
L 393.276365 267.171147 
L 394.094747 268.171169 
L 394.466738 268.306495 
L 394.83873 268.186723 
L 395.28512 267.736213 
L 396.62429 266.003997 
L 396.847485 266.050262 
L 397.145079 266.375747 
L 397.591469 267.304951 
L 398.558647 269.459414 
L 399.005038 269.917761 
L 399.302631 269.969303 
L 399.600224 269.818634 
L 399.972216 269.353385 
L 400.418606 268.401121 
L 401.013793 266.547507 
L 401.832175 264.06024 
L 402.05537 263.823222 
L 402.278565 263.900106 
L 402.50176 264.279881 
L 402.94815 265.648582 
L 403.766532 268.182178 
L 404.212922 268.870287 
L 404.510515 269.015223 
L 404.808109 268.934262 
L 405.1801 268.560183 
L 405.700889 267.631891 
L 406.519271 265.568708 
L 407.486449 263.179738 
L 408.007237 262.435084 
L 409.346408 261.043212 
L 409.792798 259.911401 
L 410.387985 257.702159 
L 412.099147 250.822342 
L 412.545537 250.011276 
L 412.84313 249.845478 
L 413.066325 249.923748 
L 413.363918 250.290155 
L 413.73591 251.132556 
L 414.331097 253.170578 
L 416.191056 260.226418 
L 416.786242 261.487133 
L 418.646201 264.807282 
L 419.687778 266.770046 
L 420.282965 267.464016 
L 420.729355 267.667491 
L 421.101346 267.572276 
L 421.473338 267.206861 
L 421.994127 266.304067 
L 422.663712 265.139597 
L 422.961305 264.974099 
L 423.1845 265.066223 
L 423.482094 265.450916 
L 424.151679 266.852926 
L 424.821264 268.043239 
L 425.267654 268.474669 
L 425.714044 268.599595 
L 426.086036 268.480838 
L 426.532426 268.10386 
L 427.871596 266.766903 
L 428.243588 266.818348 
L 428.764376 267.212707 
L 429.50836 267.777798 
L 429.95475 267.832389 
L 430.40114 267.621806 
L 431.070725 266.962008 
L 431.665912 266.439754 
L 432.037903 266.392607 
L 432.335497 266.574902 
L 432.781887 267.161831 
L 433.823464 268.68202 
L 434.195456 268.87071 
L 434.493049 268.824173 
L 434.865041 268.516771 
L 435.311431 267.806807 
L 435.981016 266.236905 
L 436.650601 264.795896 
L 436.948194 264.540038 
L 437.171389 264.577865 
L 437.468983 264.918043 
L 437.989771 265.989736 
L 438.659356 267.237258 
L 439.031348 267.543928 
L 439.328941 267.552153 
L 439.700933 267.285274 
L 440.147323 266.622098 
L 440.816908 265.146005 
L 442.156079 262.116629 
L 443.048859 260.878771 
L 443.569647 259.937407 
L 444.090436 258.460363 
L 444.760021 255.78348 
L 446.024793 250.561154 
L 446.471183 249.505997 
L 446.843174 249.148646 
L 447.066369 249.177141 
L 447.363963 249.493603 
L 447.735955 250.299998 
L 448.256743 252.036876 
L 450.414295 260.013951 
L 451.307075 261.859304 
L 453.539026 265.945831 
L 454.059814 266.352522 
L 454.431806 266.40249 
L 454.803798 266.242137 
L 455.398984 265.666708 
L 455.994171 265.167228 
L 456.291764 265.149872 
L 456.589358 265.33568 
L 457.035748 265.909815 
L 458.077325 267.36709 
L 458.598113 267.689658 
L 459.044503 267.693743 
L 459.565292 267.432157 
L 460.755665 266.689136 
L 461.202055 266.741704 
L 462.020437 267.185677 
L 462.541226 267.348807 
L 462.987616 267.282298 
L 463.582802 266.93093 
L 464.475583 266.398429 
L 464.847574 266.426132 
L 465.293964 266.725524 
L 466.633135 267.875658 
L 467.005126 267.827924 
L 467.377118 267.546808 
L 467.897907 266.808344 
L 469.162678 264.780438 
L 469.460272 264.692309 
L 469.757865 264.831229 
L 470.278654 265.430275 
L 470.948239 266.144381 
L 471.320231 266.238944 
L 471.692222 266.055897 
L 472.138612 265.49558 
L 472.733799 264.317603 
L 474.519359 260.496794 
L 475.263343 258.993385 
L 475.85853 257.188853 
L 476.676911 253.759517 
L 477.64409 249.840641 
L 478.09048 248.768317 
L 478.388073 248.445424 
L 478.611268 248.424992 
L 478.834464 248.594021 
L 479.132057 249.098531 
L 479.578447 250.36893 
L 480.32243 253.338602 
L 481.512804 258.002766 
L 482.331186 260.224468 
L 483.819153 263.408089 
L 484.563136 264.603996 
L 485.083925 265.099673 
L 485.530315 265.254603 
L 485.976705 265.18395 
L 487.018282 264.896826 
L 487.390273 265.063186 
L 487.911062 265.575503 
L 488.952639 266.660749 
L 489.473427 266.872314 
L 489.994216 266.824715 
L 491.630979 266.405552 
L 492.598158 266.741482 
L 493.193344 266.794131 
L 493.788531 266.598283 
L 494.904506 266.149487 
L 495.350897 266.233642 
L 496.020482 266.640573 
L 496.690067 266.955875 
L 497.136457 266.893218 
L 497.582847 266.559633 
L 498.178034 265.785111 
L 499.070814 264.641516 
L 499.442806 264.470097 
L 499.814797 264.529542 
L 501.079569 264.982813 
L 501.451561 264.749463 
L 501.897951 264.165414 
L 502.567536 262.822532 
L 504.948283 257.119058 
L 505.617868 254.597314 
L 507.105835 248.593248 
L 507.552225 247.758634 
L 507.849819 247.627913 
L 508.073014 247.760811 
L 508.370607 248.23166 
L 508.816997 249.480352 
L 509.560981 252.460546 
L 510.751354 257.20643 
L 511.644134 259.77606 
L 512.76011 262.277597 
L 513.504093 263.474224 
L 514.09928 264.024793 
L 514.620068 264.215932 
L 515.88484 264.505122 
L 516.554425 265.065574 
L 517.521604 265.864984 
L 518.116791 266.043061 
L 518.786376 265.981068 
L 519.753554 265.895372 
L 521.836708 266.054485 
L 523.175878 265.709419 
L 523.845463 265.879896 
L 524.589447 266.057993 
L 525.035837 265.95232 
L 525.556625 265.56023 
L 527.267787 263.925688 
L 527.862974 263.887866 
L 528.458161 263.82489 
L 528.904551 263.528811 
L 529.350941 262.944201 
L 530.020526 261.610789 
L 531.508493 257.928804 
L 532.252476 255.63228 
L 533.070858 252.25989 
L 534.112435 248.026702 
L 534.558825 247.014637 
L 534.856419 246.766244 
L 535.079614 246.81927 
L 535.377207 247.200952 
L 535.749199 248.124614 
L 536.344386 250.341733 
L 538.055548 257.192713 
L 538.948328 259.707159 
L 539.841108 261.609227 
L 540.510693 262.5677 
L 541.10588 263.072634 
L 543.189033 264.469536 
L 544.007415 265.013963 
L 544.677 265.176456 
L 547.950528 265.306227 
L 549.2153 265.056651 
L 550.703266 265.004237 
L 551.224055 264.661035 
L 553.381607 262.888026 
L 554.051192 262.484342 
L 554.57198 261.8611 
L 555.167167 260.738464 
L 556.059947 258.50384 
L 557.101524 255.366943 
L 557.919906 252.122858 
L 559.184678 246.924858 
L 559.631068 245.975275 
L 559.928661 245.787092 
L 560.151856 245.892873 
L 560.44945 246.350089 
L 560.89584 247.617505 
L 561.639823 250.671278 
L 562.904595 255.850917 
L 563.797375 258.559307 
L 564.615757 260.385804 
L 565.359741 261.504472 
L 566.178123 262.294598 
L 568.410073 264.009686 
L 569.228455 264.233481 
L 571.534804 264.496736 
L 574.064347 264.054216 
L 574.659534 263.770504 
L 575.329119 263.181703 
L 578.00746 260.298534 
L 578.677045 258.837805 
L 579.569825 256.296374 
L 580.462605 253.148551 
L 582.620157 244.919647 
L 582.917751 244.676536 
L 583.140946 244.747828 
L 583.438539 245.171336 
L 583.810531 246.165153 
L 584.405718 248.493732 
L 586.116879 255.558841 
L 586.935261 257.938833 
L 587.679245 259.511813 
L 588.497627 260.710632 
L 589.688 261.98573 
L 590.58078 262.68404 
L 591.399162 263.043411 
L 592.812731 263.364576 
L 593.705511 263.35801 
L 595.119079 263.034544 
L 596.086258 262.674687 
L 596.755843 262.162567 
L 597.871818 260.932141 
L 598.987793 259.488348 
L 599.657379 258.191189 
L 600.401362 256.18669 
L 601.294142 253.101031 
L 602.261321 248.904343 
L 603.302898 244.58647 
L 603.749288 243.575124 
L 604.046881 243.353161 
L 604.270076 243.441939 
L 604.567669 243.896746 
L 604.939661 244.945098 
L 605.609246 247.711247 
L 607.022815 253.710144 
L 607.915595 256.4709 
L 608.733977 258.289794 
L 609.626757 259.705492 
L 610.519537 260.735466 
L 611.337919 261.362349 
L 612.230699 261.75359 
L 613.197878 261.942034 
L 614.016259 261.884244 
L 615.057836 261.58065 
L 615.950617 261.120387 
L 616.620202 260.52365 
L 617.512982 259.392355 
L 618.48016 257.817389 
L 619.149745 256.311313 
L 619.893729 254.065963 
L 620.786509 250.620999 
L 622.869663 242.114412 
L 623.167256 241.743159 
L 623.390451 241.729407 
L 623.613646 241.943011 
L 623.91124 242.556879 
L 624.35763 244.050206 
L 625.324808 248.383838 
L 626.366385 252.666454 
L 627.184767 255.163914 
L 628.003149 256.97618 
L 628.82153 258.278547 
L 629.639912 259.169403 
L 630.458294 259.715967 
L 631.276676 259.993276 
L 632.020659 260.010732 
L 632.839041 259.780114 
L 633.657423 259.317137 
L 634.327008 258.701749 
L 635.070992 257.698704 
L 635.889373 256.216652 
L 636.633357 254.424939 
L 637.37734 252.025961 
L 638.270121 248.318156 
L 640.055681 240.445046 
L 640.427673 239.710177 
L 640.650868 239.568724 
L 640.874063 239.662414 
L 641.171656 240.138834 
L 641.543648 241.22234 
L 642.213233 244.045152 
L 643.7012 250.520585 
L 644.519582 253.082259 
L 645.337963 254.92214 
L 646.081947 256.074743 
L 646.82593 256.816437 
L 647.495516 257.190885 
L 648.165101 257.304949 
L 648.760287 257.18954 
L 649.429873 256.827625 
L 650.099458 256.205421 
L 650.769043 255.265643 
L 651.513026 253.797572 
L 652.25701 251.819003 
L 653.000993 249.193168 
L 653.893773 245.161169 
L 655.456139 237.818616 
L 655.902529 236.765998 
L 656.200122 236.565379 
L 656.423317 236.689259 
L 656.720911 237.206773 
L 657.167301 238.612799 
L 657.985682 242.248566 
L 659.176056 247.343088 
L 659.994438 249.884797 
L 660.738421 251.483169 
L 661.408006 252.409221 
L 662.003193 252.8764 
L 662.523982 253.029951 
L 662.970372 252.962824 
L 663.49116 252.653324 
L 664.086347 252.018038 
L 664.681534 251.054041 
L 665.351119 249.523517 
L 666.020704 247.434535 
L 666.764687 244.403016 
L 667.731866 239.431677 
L 668.922239 233.347217 
L 669.368629 231.992439 
L 669.666223 231.586517 
L 669.889418 231.56383 
L 670.112613 231.773381 
L 670.410206 232.386104 
L 670.856596 233.864242 
L 673.237343 242.859993 
L 673.83253 243.983162 
L 674.353319 244.512219 
L 674.799709 244.644762 
L 675.1717 244.534265 
L 675.543692 244.204504 
L 675.990082 243.514091 
L 676.585269 242.145967 
L 677.180456 240.162954 
L 677.850041 237.128041 
L 678.668423 232.343119 
L 680.677178 219.637221 
L 681.123568 218.278241 
L 681.49556 217.6799 
L 681.644357 217.639367 
L 681.867552 217.693688 
L 682.016348 217.707052 
L 682.983527 218.124261 
L 683.653112 216.963765 
L 684.099502 214.929764 
L 684.545892 211.442732 
L 684.917884 206.904587 
L 685.289876 200.317903 
L 685.661867 189.909503 
L 686.108257 170.709562 
L 686.554648 141.01127 
L 687.745021 42.443132 
L 688.042614 37.613382 
L 688.340208 35.84411 
L 688.637801 35.218193 
L 689.009793 34.972441 
L 689.307386 34.918125 
L 689.307386 34.918125 
" clip-path="url(#p46d2cc4918)" style="fill: none; stroke: #1f77b4; stroke-width: 0.6; stroke-linecap: square"/>
   </g>
   <g id="line2d_15">
    <path d="M 50.14375 214.086322 
L 719.74375 214.086322 
" clip-path="url(#p46d2cc4918)" style="fill: none; stroke-dasharray: 2.22,0.96; stroke-dashoffset: 0; stroke: #ff0000; stroke-width: 0.6"/>
   </g>
   <g id="patch_3">
    <path d="M 50.14375 299.518125 
L 50.14375 22.318125 
" style="fill: none; stroke: #000000; stroke-width: 0.8; stroke-linejoin: miter; stroke-linecap: square"/>
   </g>
   <g id="patch_4">
    <path d="M 719.74375 299.518125 
L 719.74375 22.318125 
" style="fill: none; stroke: #000000; stroke-width: 0.8; stroke-linejoin: miter; stroke-linecap: square"/>
   </g>
   <g id="patch_5">
    <path d="M 50.14375 299.518125 
L 719.74375 299.518125 
" style="fill: none; stroke: #000000; stroke-width: 0.8; stroke-linejoin: miter; stroke-linecap: square"/>
   </g>
   <g id="patch_6">
    <path d="M 50.14375 22.318125 
L 719.74375 22.318125 
" style="fill: none; stroke: #000000; stroke-width: 0.8; stroke-linejoin: miter; stroke-linecap: square"/>
   </g>
   <g id="text_16">
    <!-- Mf vs Time for M=60, e=0.35, f_lower=10 Hz -->
    <g transform="translate(249.127188 16.318125) scale(0.12 -0.12)">
     <defs>
      <path id="DejaVuSans-76" d="M 191 3500 
L 800 3500 
L 1894 563 
L 2988 3500 
L 3597 3500 
L 2284 0 
L 1503 0 
L 191 3500 
z
" transform="scale(0.015625)"/>
      <path id="DejaVuSans-73" d="M 2834 3397 
L 2834 2853 
Q 2591 2978 2328 3040 
Q 2066 3103 1784 3103 
Q 1356 3103 1142 2972 
Q 928 2841 928 2578 
Q 928 2378 1081 2264 
Q 1234 2150 1697 2047 
L 1894 2003 
Q 2506 1872 2764 1633 
Q 3022 1394 3022 966 
Q 3022 478 2636 193 
Q 2250 -91 1575 -91 
Q 1294 -91 989 -36 
Q 684 19 347 128 
L 347 722 
Q 666 556 975 473 
Q 1284 391 1588 391 
Q 1994 391 2212 530 
Q 2431 669 2431 922 
Q 2431 1156 2273 1281 
Q 2116 1406 1581 1522 
L 1381 1569 
Q 847 1681 609 1914 
Q 372 2147 372 2553 
Q 372 3047 722 3315 
Q 1072 3584 1716 3584 
Q 2034 3584 2315 3537 
Q 2597 3491 2834 3397 
z
" transform="scale(0.015625)"/>
      <path id="DejaVuSans-54" d="M -19 4666 
L 3928 4666 
L 3928 4134 
L 2272 4134 
L 2272 0 
L 1638 0 
L 1638 4134 
L -19 4134 
L -19 4666 
z
" transform="scale(0.015625)"/>
      <path id="DejaVuSans-69" d="M 603 3500 
L 1178 3500 
L 1178 0 
L 603 0 
L 603 3500 
z
M 603 4863 
L 1178 4863 
L 1178 4134 
L 603 4134 
L 603 4863 
z
" transform="scale(0.015625)"/>
      <path id="DejaVuSans-6d" d="M 3328 2828 
Q 3544 3216 3844 3400 
Q 4144 3584 4550 3584 
Q 5097 3584 5394 3201 
Q 5691 2819 5691 2113 
L 5691 0 
L 5113 0 
L 5113 2094 
Q 5113 2597 4934 2840 
Q 4756 3084 4391 3084 
Q 3944 3084 3684 2787 
Q 3425 2491 3425 1978 
L 3425 0 
L 2847 0 
L 2847 2094 
Q 2847 2600 2669 2842 
Q 2491 3084 2119 3084 
Q 1678 3084 1418 2786 
Q 1159 2488 1159 1978 
L 1159 0 
L 581 0 
L 581 3500 
L 1159 3500 
L 1159 2956 
Q 1356 3278 1631 3431 
Q 1906 3584 2284 3584 
Q 2666 3584 2933 3390 
Q 3200 3197 3328 2828 
z
" transform="scale(0.015625)"/>
      <path id="DejaVuSans-65" d="M 3597 1894 
L 3597 1613 
L 953 1613 
Q 991 1019 1311 708 
Q 1631 397 2203 397 
Q 2534 397 2845 478 
Q 3156 559 3463 722 
L 3463 178 
Q 3153 47 2828 -22 
Q 2503 -91 2169 -91 
Q 1331 -91 842 396 
Q 353 884 353 1716 
Q 353 2575 817 3079 
Q 1281 3584 2069 3584 
Q 2775 3584 3186 3129 
Q 3597 2675 3597 1894 
z
M 3022 2063 
Q 3016 2534 2758 2815 
Q 2500 3097 2075 3097 
Q 1594 3097 1305 2825 
Q 1016 2553 972 2059 
L 3022 2063 
z
" transform="scale(0.015625)"/>
      <path id="DejaVuSans-6f" d="M 1959 3097 
Q 1497 3097 1228 2736 
Q 959 2375 959 1747 
Q 959 1119 1226 758 
Q 1494 397 1959 397 
Q 2419 397 2687 759 
Q 2956 1122 2956 1747 
Q 2956 2369 2687 2733 
Q 2419 3097 1959 3097 
z
M 1959 3584 
Q 2709 3584 3137 3096 
Q 3566 2609 3566 1747 
Q 3566 888 3137 398 
Q 2709 -91 1959 -91 
Q 1206 -91 779 398 
Q 353 888 353 1747 
Q 353 2609 779 3096 
Q 1206 3584 1959 3584 
z
" transform="scale(0.015625)"/>
      <path id="DejaVuSans-72" d="M 2631 2963 
Q 2534 3019 2420 3045 
Q 2306 3072 2169 3072 
Q 1681 3072 1420 2755 
Q 1159 2438 1159 1844 
L 1159 0 
L 581 0 
L 581 3500 
L 1159 3500 
L 1159 2956 
Q 1341 3275 1631 3429 
Q 1922 3584 2338 3584 
Q 2397 3584 2469 3576 
Q 2541 3569 2628 3553 
L 2631 2963 
z
" transform="scale(0.015625)"/>
      <path id="DejaVuSans-3d" d="M 678 2906 
L 4684 2906 
L 4684 2381 
L 678 2381 
L 678 2906 
z
M 678 1631 
L 4684 1631 
L 4684 1100 
L 678 1100 
L 678 1631 
z
" transform="scale(0.015625)"/>
      <path id="DejaVuSans-2c" d="M 750 794 
L 1409 794 
L 1409 256 
L 897 -744 
L 494 -744 
L 750 256 
L 750 794 
z
" transform="scale(0.015625)"/>
      <path id="DejaVuSans-33" d="M 2597 2516 
Q 3050 2419 3304 2112 
Q 3559 1806 3559 1356 
Q 3559 666 3084 287 
Q 2609 -91 1734 -91 
Q 1441 -91 1130 -33 
Q 819 25 488 141 
L 488 750 
Q 750 597 1062 519 
Q 1375 441 1716 441 
Q 2309 441 2620 675 
Q 2931 909 2931 1356 
Q 2931 1769 2642 2001 
Q 2353 2234 1838 2234 
L 1294 2234 
L 1294 2753 
L 1863 2753 
Q 2328 2753 2575 2939 
Q 2822 3125 2822 3475 
Q 2822 3834 2567 4026 
Q 2313 4219 1838 4219 
Q 1578 4219 1281 4162 
Q 984 4106 628 3988 
L 628 4550 
Q 988 4650 1302 4700 
Q 1616 4750 1894 4750 
Q 2613 4750 3031 4423 
Q 3450 4097 3450 3541 
Q 3450 3153 3228 2886 
Q 3006 2619 2597 2516 
z
" transform="scale(0.015625)"/>
      <path id="DejaVuSans-35" d="M 691 4666 
L 3169 4666 
L 3169 4134 
L 1269 4134 
L 1269 2991 
Q 1406 3038 1543 3061 
Q 1681 3084 1819 3084 
Q 2600 3084 3056 2656 
Q 3513 2228 3513 1497 
Q 3513 744 3044 326 
Q 2575 -91 1722 -91 
Q 1428 -91 1123 -41 
Q 819 9 494 109 
L 494 744 
Q 775 591 1075 516 
Q 1375 441 1709 441 
Q 2250 441 2565 725 
Q 2881 1009 2881 1497 
Q 2881 1984 2565 2268 
Q 2250 2553 1709 2553 
Q 1456 2553 1204 2497 
Q 953 2441 691 2322 
L 691 4666 
z
" transform="scale(0.015625)"/>
      <path id="DejaVuSans-5f" d="M 3263 -1063 
L 3263 -1509 
L -63 -1509 
L -63 -1063 
L 3263 -1063 
z
" transform="scale(0.015625)"/>
      <path id="DejaVuSans-6c" d="M 603 4863 
L 1178 4863 
L 1178 0 
L 603 0 
L 603 4863 
z
" transform="scale(0.015625)"/>
      <path id="DejaVuSans-77" d="M 269 3500 
L 844 3500 
L 1563 769 
L 2278 3500 
L 2956 3500 
L 3675 769 
L 4391 3500 
L 4966 3500 
L 4050 0 
L 3372 0 
L 2619 2869 
L 1863 0 
L 1184 0 
L 269 3500 
z
" transform="scale(0.015625)"/>
      <path id="DejaVuSans-48" d="M 628 4666 
L 1259 4666 
L 1259 2753 
L 3553 2753 
L 3553 4666 
L 4184 4666 
L 4184 0 
L 3553 0 
L 3553 2222 
L 1259 2222 
L 1259 0 
L 628 0 
L 628 4666 
z
" transform="scale(0.015625)"/>
      <path id="DejaVuSans-7a" d="M 353 3500 
L 3084 3500 
L 3084 2975 
L 922 459 
L 3084 459 
L 3084 0 
L 275 0 
L 275 525 
L 2438 3041 
L 353 3041 
L 353 3500 
z
" transform="scale(0.015625)"/>
     </defs>
     <use xlink:href="#DejaVuSans-4d"/>
     <use xlink:href="#DejaVuSans-66" transform="translate(86.279297 0)"/>
     <use xlink:href="#DejaVuSans-20" transform="translate(121.484375 0)"/>
     <use xlink:href="#DejaVuSans-76" transform="translate(153.271484 0)"/>
     <use xlink:href="#DejaVuSans-73" transform="translate(212.451172 0)"/>
     <use xlink:href="#DejaVuSans-20" transform="translate(264.550781 0)"/>
     <use xlink:href="#DejaVuSans-54" transform="translate(296.337891 0)"/>
     <use xlink:href="#DejaVuSans-69" transform="translate(354.296875 0)"/>
     <use xlink:href="#DejaVuSans-6d" transform="translate(382.080078 0)"/>
     <use xlink:href="#DejaVuSans-65" transform="translate(479.492188 0)"/>
     <use xlink:href="#DejaVuSans-20" transform="translate(541.015625 0)"/>
     <use xlink:href="#DejaVuSans-66" transform="translate(572.802734 0)"/>
     <use xlink:href="#DejaVuSans-6f" transform="translate(608.007812 0)"/>
     <use xlink:href="#DejaVuSans-72" transform="translate(669.189453 0)"/>
     <use xlink:href="#DejaVuSans-20" transform="translate(710.302734 0)"/>
     <use xlink:href="#DejaVuSans-4d" transform="translate(742.089844 0)"/>
     <use xlink:href="#DejaVuSans-3d" transform="translate(828.369141 0)"/>
     <use xlink:href="#DejaVuSans-36" transform="translate(912.158203 0)"/>
     <use xlink:href="#DejaVuSans-30" transform="translate(975.78125 0)"/>
     <use xlink:href="#DejaVuSans-2c" transform="translate(1039.404297 0)"/>
     <use xlink:href="#DejaVuSans-20" transform="translate(1071.191406 0)"/>
     <use xlink:href="#DejaVuSans-65" transform="translate(1102.978516 0)"/>
     <use xlink:href="#DejaVuSans-3d" transform="translate(1164.501953 0)"/>
     <use xlink:href="#DejaVuSans-30" transform="translate(1248.291016 0)"/>
     <use xlink:href="#DejaVuSans-2e" transform="translate(1311.914062 0)"/>
     <use xlink:href="#DejaVuSans-33" transform="translate(1343.701172 0)"/>
     <use xlink:href="#DejaVuSans-35" transform="translate(1407.324219 0)"/>
     <use xlink:href="#DejaVuSans-2c" transform="translate(1470.947266 0)"/>
     <use xlink:href="#DejaVuSans-20" transform="translate(1502.734375 0)"/>
     <use xlink:href="#DejaVuSans-66" transform="translate(1534.521484 0)"/>
     <use xlink:href="#DejaVuSans-5f" transform="translate(1569.726562 0)"/>
     <use xlink:href="#DejaVuSans-6c" transform="translate(1619.726562 0)"/>
     <use xlink:href="#DejaVuSans-6f" transform="translate(1647.509766 0)"/>
     <use xlink:href="#DejaVuSans-77" transform="translate(1708.691406 0)"/>
     <use xlink:href="#DejaVuSans-65" transform="translate(1790.478516 0)"/>
     <use xlink:href="#DejaVuSans-72" transform="translate(1852.001953 0)"/>
     <use xlink:href="#DejaVuSans-3d" transform="translate(1893.115234 0)"/>
     <use xlink:href="#DejaVuSans-31" transform="translate(1976.904297 0)"/>
     <use xlink:href="#DejaVuSans-30" transform="translate(2040.527344 0)"/>
     <use xlink:href="#DejaVuSans-20" transform="translate(2104.150391 0)"/>
     <use xlink:href="#DejaVuSans-48" transform="translate(2135.9375 0)"/>
     <use xlink:href="#DejaVuSans-7a" transform="translate(2211.132812 0)"/>
    </g>
   </g>
   <g id="legend_1">
    <g id="patch_7">
     <path d="M 57.14375 59.9525 
L 153.10625 59.9525 
Q 155.10625 59.9525 155.10625 57.9525 
L 155.10625 29.318125 
Q 155.10625 27.318125 153.10625 27.318125 
L 57.14375 27.318125 
Q 55.14375 27.318125 55.14375 29.318125 
L 55.14375 57.9525 
Q 55.14375 59.9525 57.14375 59.9525 
z
" style="fill: #ffffff; opacity: 0.8; stroke: #cccccc; stroke-linejoin: miter"/>
    </g>
    <g id="line2d_16">
     <path d="M 59.14375 35.416563 
L 69.14375 35.416563 
L 79.14375 35.416563 
" style="fill: none; stroke: #1f77b4; stroke-width: 0.6; stroke-linecap: square"/>
    </g>
    <g id="text_17">
     <!-- Mf -->
     <g transform="translate(87.14375 38.916563) scale(0.1 -0.1)">
      <use xlink:href="#DejaVuSans-4d"/>
      <use xlink:href="#DejaVuSans-66" transform="translate(86.279297 0)"/>
     </g>
    </g>
    <g id="line2d_17">
     <path d="M 59.14375 50.094688 
L 69.14375 50.094688 
L 79.14375 50.094688 
" style="fill: none; stroke-dasharray: 2.22,0.96; stroke-dashoffset: 0; stroke: #ff0000; stroke-width: 0.6"/>
    </g>
    <g id="text_18">
     <!-- Mf_ISCO_circ -->
     <g transform="translate(87.14375 53.594688) scale(0.1 -0.1)">
      <defs>
       <path id="DejaVuSans-49" d="M 628 4666 
L 1259 4666 
L 1259 0 
L 628 0 
L 628 4666 
z
" transform="scale(0.015625)"/>
       <path id="DejaVuSans-53" d="M 3425 4513 
L 3425 3897 
Q 3066 4069 2747 4153 
Q 2428 4238 2131 4238 
Q 1616 4238 1336 4038 
Q 1056 3838 1056 3469 
Q 1056 3159 1242 3001 
Q 1428 2844 1947 2747 
L 2328 2669 
Q 3034 2534 3370 2195 
Q 3706 1856 3706 1288 
Q 3706 609 3251 259 
Q 2797 -91 1919 -91 
Q 1588 -91 1214 -16 
Q 841 59 441 206 
L 441 856 
Q 825 641 1194 531 
Q 1563 422 1919 422 
Q 2459 422 2753 634 
Q 3047 847 3047 1241 
Q 3047 1584 2836 1778 
Q 2625 1972 2144 2069 
L 1759 2144 
Q 1053 2284 737 2584 
Q 422 2884 422 3419 
Q 422 4038 858 4394 
Q 1294 4750 2059 4750 
Q 2388 4750 2728 4690 
Q 3069 4631 3425 4513 
z
" transform="scale(0.015625)"/>
       <path id="DejaVuSans-43" d="M 4122 4306 
L 4122 3641 
Q 3803 3938 3442 4084 
Q 3081 4231 2675 4231 
Q 1875 4231 1450 3742 
Q 1025 3253 1025 2328 
Q 1025 1406 1450 917 
Q 1875 428 2675 428 
Q 3081 428 3442 575 
Q 3803 722 4122 1019 
L 4122 359 
Q 3791 134 3420 21 
Q 3050 -91 2638 -91 
Q 1578 -91 968 557 
Q 359 1206 359 2328 
Q 359 3453 968 4101 
Q 1578 4750 2638 4750 
Q 3056 4750 3426 4639 
Q 3797 4528 4122 4306 
z
" transform="scale(0.015625)"/>
       <path id="DejaVuSans-4f" d="M 2522 4238 
Q 1834 4238 1429 3725 
Q 1025 3213 1025 2328 
Q 1025 1447 1429 934 
Q 1834 422 2522 422 
Q 3209 422 3611 934 
Q 4013 1447 4013 2328 
Q 4013 3213 3611 3725 
Q 3209 4238 2522 4238 
z
M 2522 4750 
Q 3503 4750 4090 4092 
Q 4678 3434 4678 2328 
Q 4678 1225 4090 567 
Q 3503 -91 2522 -91 
Q 1538 -91 948 565 
Q 359 1222 359 2328 
Q 359 3434 948 4092 
Q 1538 4750 2522 4750 
z
" transform="scale(0.015625)"/>
       <path id="DejaVuSans-63" d="M 3122 3366 
L 3122 2828 
Q 2878 2963 2633 3030 
Q 2388 3097 2138 3097 
Q 1578 3097 1268 2742 
Q 959 2388 959 1747 
Q 959 1106 1268 751 
Q 1578 397 2138 397 
Q 2388 397 2633 464 
Q 2878 531 3122 666 
L 3122 134 
Q 2881 22 2623 -34 
Q 2366 -91 2075 -91 
Q 1284 -91 818 406 
Q 353 903 353 1747 
Q 353 2603 823 3093 
Q 1294 3584 2113 3584 
Q 2378 3584 2631 3529 
Q 2884 3475 3122 3366 
z
" transform="scale(0.015625)"/>
      </defs>
      <use xlink:href="#DejaVuSans-4d"/>
      <use xlink:href="#DejaVuSans-66" transform="translate(86.279297 0)"/>
      <use xlink:href="#DejaVuSans-5f" transform="translate(121.484375 0)"/>
      <use xlink:href="#DejaVuSans-49" transform="translate(171.484375 0)"/>
      <use xlink:href="#DejaVuSans-53" transform="translate(200.976562 0)"/>
      <use xlink:href="#DejaVuSans-43" transform="translate(264.453125 0)"/>
      <use xlink:href="#DejaVuSans-4f" transform="translate(334.277344 0)"/>
      <use xlink:href="#DejaVuSans-5f" transform="translate(412.988281 0)"/>
      <use xlink:href="#DejaVuSans-63" transform="translate(462.988281 0)"/>
      <use xlink:href="#DejaVuSans-69" transform="translate(517.96875 0)"/>
      <use xlink:href="#DejaVuSans-72" transform="translate(545.751953 0)"/>
      <use xlink:href="#DejaVuSans-63" transform="translate(584.615234 0)"/>
     </g>
    </g>
   </g>
  </g>
 </g>
 <defs>
  <clipPath id="p46d2cc4918">
   <rect x="50.14375" y="22.318125" width="669.6" height="277.2"/>
  </clipPath>
 </defs>
</svg>
