<?xml version="1.0" encoding="utf-8" standalone="no"?>
<!DOCTYPE svg PUBLIC "-//W3C//DTD SVG 1.1//EN"
  "http://www.w3.org/Graphics/SVG/1.1/DTD/svg11.dtd">
<svg xmlns:xlink="http://www.w3.org/1999/xlink" width="726.94375pt" height="337.074375pt" viewBox="0 0 726.94375 337.074375" xmlns="http://www.w3.org/2000/svg" version="1.1">
 <metadata>
  <rdf:RDF xmlns:dc="http://purl.org/dc/elements/1.1/" xmlns:cc="http://creativecommons.org/ns#" xmlns:rdf="http://www.w3.org/1999/02/22-rdf-syntax-ns#">
   <cc:Work>
    <dc:type rdf:resource="http://purl.org/dc/dcmitype/StillImage"/>
    <dc:date>2025-07-24T14:39:29.665179</dc:date>
    <dc:format>image/svg+xml</dc:format>
    <dc:creator>
     <cc:Agent>
      <dc:title>Matplotlib v3.10.3, https://matplotlib.org/</dc:title>
     </cc:Agent>
    </dc:creator>
   </cc:Work>
  </rdf:RDF>
 </metadata>
 <defs>
  <style type="text/css">*{stroke-linejoin: round; stroke-linecap: butt}</style>
 </defs>
 <g id="figure_1">
  <g id="patch_1">
   <path d="M 0 337.074375 
L 726.94375 337.074375 
L 726.94375 0 
L 0 0 
z
" style="fill: #ffffff"/>
  </g>
  <g id="axes_1">
   <g id="patch_2">
    <path d="M 50.14375 299.518125 
L 719.74375 299.518125 
L 719.74375 22.318125 
L 50.14375 22.318125 
z
" style="fill: #ffffff"/>
   </g>
   <g id="matplotlib.axis_1">
    <g id="xtick_1">
     <g id="line2d_1">
      <defs>
       <path id="m6f44b49011" d="M 0 0 
L 0 3.5 
" style="stroke: #000000; stroke-width: 0.8"/>
      </defs>
      <g>
       <use xlink:href="#m6f44b49011" x="59.764952" y="299.518125" style="stroke: #000000; stroke-width: 0.8"/>
      </g>
     </g>
     <g id="text_1">
      <!-- −14000 -->
      <g transform="translate(39.668858 314.116563) scale(0.1 -0.1)">
       <defs>
        <path id="DejaVuSans-2212" d="M 678 2272 
L 4684 2272 
L 4684 1741 
L 678 1741 
L 678 2272 
z
" transform="scale(0.015625)"/>
        <path id="DejaVuSans-31" d="M 794 531 
L 1825 531 
L 1825 4091 
L 703 3866 
L 703 4441 
L 1819 4666 
L 2450 4666 
L 2450 531 
L 3481 531 
L 3481 0 
L 794 0 
L 794 531 
z
" transform="scale(0.015625)"/>
        <path id="DejaVuSans-34" d="M 2419 4116 
L 825 1625 
L 2419 1625 
L 2419 4116 
z
M 2253 4666 
L 3047 4666 
L 3047 1625 
L 3713 1625 
L 3713 1100 
L 3047 1100 
L 3047 0 
L 2419 0 
L 2419 1100 
L 313 1100 
L 313 1709 
L 2253 4666 
z
" transform="scale(0.015625)"/>
        <path id="DejaVuSans-30" d="M 2034 4250 
Q 1547 4250 1301 3770 
Q 1056 3291 1056 2328 
Q 1056 1369 1301 889 
Q 1547 409 2034 409 
Q 2525 409 2770 889 
Q 3016 1369 3016 2328 
Q 3016 3291 2770 3770 
Q 2525 4250 2034 4250 
z
M 2034 4750 
Q 2819 4750 3233 4129 
Q 3647 3509 3647 2328 
Q 3647 1150 3233 529 
Q 2819 -91 2034 -91 
Q 1250 -91 836 529 
Q 422 1150 422 2328 
Q 422 3509 836 4129 
Q 1250 4750 2034 4750 
z
" transform="scale(0.015625)"/>
       </defs>
       <use xlink:href="#DejaVuSans-2212"/>
       <use xlink:href="#DejaVuSans-31" transform="translate(83.789062 0)"/>
       <use xlink:href="#DejaVuSans-34" transform="translate(147.412109 0)"/>
       <use xlink:href="#DejaVuSans-30" transform="translate(211.035156 0)"/>
       <use xlink:href="#DejaVuSans-30" transform="translate(274.658203 0)"/>
       <use xlink:href="#DejaVuSans-30" transform="translate(338.28125 0)"/>
      </g>
     </g>
    </g>
    <g id="xtick_2">
     <g id="line2d_2">
      <g>
       <use xlink:href="#m6f44b49011" x="149.298263" y="299.518125" style="stroke: #000000; stroke-width: 0.8"/>
      </g>
     </g>
     <g id="text_2">
      <!-- −12000 -->
      <g transform="translate(129.202169 314.116563) scale(0.1 -0.1)">
       <defs>
        <path id="DejaVuSans-32" d="M 1228 531 
L 3431 531 
L 3431 0 
L 469 0 
L 469 531 
Q 828 903 1448 1529 
Q 2069 2156 2228 2338 
Q 2531 2678 2651 2914 
Q 2772 3150 2772 3378 
Q 2772 3750 2511 3984 
Q 2250 4219 1831 4219 
Q 1534 4219 1204 4116 
Q 875 4013 500 3803 
L 500 4441 
Q 881 4594 1212 4672 
Q 1544 4750 1819 4750 
Q 2544 4750 2975 4387 
Q 3406 4025 3406 3419 
Q 3406 3131 3298 2873 
Q 3191 2616 2906 2266 
Q 2828 2175 2409 1742 
Q 1991 1309 1228 531 
z
" transform="scale(0.015625)"/>
       </defs>
       <use xlink:href="#DejaVuSans-2212"/>
       <use xlink:href="#DejaVuSans-31" transform="translate(83.789062 0)"/>
       <use xlink:href="#DejaVuSans-32" transform="translate(147.412109 0)"/>
       <use xlink:href="#DejaVuSans-30" transform="translate(211.035156 0)"/>
       <use xlink:href="#DejaVuSans-30" transform="translate(274.658203 0)"/>
       <use xlink:href="#DejaVuSans-30" transform="translate(338.28125 0)"/>
      </g>
     </g>
    </g>
    <g id="xtick_3">
     <g id="line2d_3">
      <g>
       <use xlink:href="#m6f44b49011" x="238.831573" y="299.518125" style="stroke: #000000; stroke-width: 0.8"/>
      </g>
     </g>
     <g id="text_3">
      <!-- −10000 -->
      <g transform="translate(218.73548 314.116563) scale(0.1 -0.1)">
       <use xlink:href="#DejaVuSans-2212"/>
       <use xlink:href="#DejaVuSans-31" transform="translate(83.789062 0)"/>
       <use xlink:href="#DejaVuSans-30" transform="translate(147.412109 0)"/>
       <use xlink:href="#DejaVuSans-30" transform="translate(211.035156 0)"/>
       <use xlink:href="#DejaVuSans-30" transform="translate(274.658203 0)"/>
       <use xlink:href="#DejaVuSans-30" transform="translate(338.28125 0)"/>
      </g>
     </g>
    </g>
    <g id="xtick_4">
     <g id="line2d_4">
      <g>
       <use xlink:href="#m6f44b49011" x="328.364884" y="299.518125" style="stroke: #000000; stroke-width: 0.8"/>
      </g>
     </g>
     <g id="text_4">
      <!-- −8000 -->
      <g transform="translate(311.45004 314.116563) scale(0.1 -0.1)">
       <defs>
        <path id="DejaVuSans-38" d="M 2034 2216 
Q 1584 2216 1326 1975 
Q 1069 1734 1069 1313 
Q 1069 891 1326 650 
Q 1584 409 2034 409 
Q 2484 409 2743 651 
Q 3003 894 3003 1313 
Q 3003 1734 2745 1975 
Q 2488 2216 2034 2216 
z
M 1403 2484 
Q 997 2584 770 2862 
Q 544 3141 544 3541 
Q 544 4100 942 4425 
Q 1341 4750 2034 4750 
Q 2731 4750 3128 4425 
Q 3525 4100 3525 3541 
Q 3525 3141 3298 2862 
Q 3072 2584 2669 2484 
Q 3125 2378 3379 2068 
Q 3634 1759 3634 1313 
Q 3634 634 3220 271 
Q 2806 -91 2034 -91 
Q 1263 -91 848 271 
Q 434 634 434 1313 
Q 434 1759 690 2068 
Q 947 2378 1403 2484 
z
M 1172 3481 
Q 1172 3119 1398 2916 
Q 1625 2713 2034 2713 
Q 2441 2713 2670 2916 
Q 2900 3119 2900 3481 
Q 2900 3844 2670 4047 
Q 2441 4250 2034 4250 
Q 1625 4250 1398 4047 
Q 1172 3844 1172 3481 
z
" transform="scale(0.015625)"/>
       </defs>
       <use xlink:href="#DejaVuSans-2212"/>
       <use xlink:href="#DejaVuSans-38" transform="translate(83.789062 0)"/>
       <use xlink:href="#DejaVuSans-30" transform="translate(147.412109 0)"/>
       <use xlink:href="#DejaVuSans-30" transform="translate(211.035156 0)"/>
       <use xlink:href="#DejaVuSans-30" transform="translate(274.658203 0)"/>
      </g>
     </g>
    </g>
    <g id="xtick_5">
     <g id="line2d_5">
      <g>
       <use xlink:href="#m6f44b49011" x="417.898195" y="299.518125" style="stroke: #000000; stroke-width: 0.8"/>
      </g>
     </g>
     <g id="text_5">
      <!-- −6000 -->
      <g transform="translate(400.983351 314.116563) scale(0.1 -0.1)">
       <defs>
        <path id="DejaVuSans-36" d="M 2113 2584 
Q 1688 2584 1439 2293 
Q 1191 2003 1191 1497 
Q 1191 994 1439 701 
Q 1688 409 2113 409 
Q 2538 409 2786 701 
Q 3034 994 3034 1497 
Q 3034 2003 2786 2293 
Q 2538 2584 2113 2584 
z
M 3366 4563 
L 3366 3988 
Q 3128 4100 2886 4159 
Q 2644 4219 2406 4219 
Q 1781 4219 1451 3797 
Q 1122 3375 1075 2522 
Q 1259 2794 1537 2939 
Q 1816 3084 2150 3084 
Q 2853 3084 3261 2657 
Q 3669 2231 3669 1497 
Q 3669 778 3244 343 
Q 2819 -91 2113 -91 
Q 1303 -91 875 529 
Q 447 1150 447 2328 
Q 447 3434 972 4092 
Q 1497 4750 2381 4750 
Q 2619 4750 2861 4703 
Q 3103 4656 3366 4563 
z
" transform="scale(0.015625)"/>
       </defs>
       <use xlink:href="#DejaVuSans-2212"/>
       <use xlink:href="#DejaVuSans-36" transform="translate(83.789062 0)"/>
       <use xlink:href="#DejaVuSans-30" transform="translate(147.412109 0)"/>
       <use xlink:href="#DejaVuSans-30" transform="translate(211.035156 0)"/>
       <use xlink:href="#DejaVuSans-30" transform="translate(274.658203 0)"/>
      </g>
     </g>
    </g>
    <g id="xtick_6">
     <g id="line2d_6">
      <g>
       <use xlink:href="#m6f44b49011" x="507.431505" y="299.518125" style="stroke: #000000; stroke-width: 0.8"/>
      </g>
     </g>
     <g id="text_6">
      <!-- −4000 -->
      <g transform="translate(490.516662 314.116563) scale(0.1 -0.1)">
       <use xlink:href="#DejaVuSans-2212"/>
       <use xlink:href="#DejaVuSans-34" transform="translate(83.789062 0)"/>
       <use xlink:href="#DejaVuSans-30" transform="translate(147.412109 0)"/>
       <use xlink:href="#DejaVuSans-30" transform="translate(211.035156 0)"/>
       <use xlink:href="#DejaVuSans-30" transform="translate(274.658203 0)"/>
      </g>
     </g>
    </g>
    <g id="xtick_7">
     <g id="line2d_7">
      <g>
       <use xlink:href="#m6f44b49011" x="596.964816" y="299.518125" style="stroke: #000000; stroke-width: 0.8"/>
      </g>
     </g>
     <g id="text_7">
      <!-- −2000 -->
      <g transform="translate(580.049972 314.116563) scale(0.1 -0.1)">
       <use xlink:href="#DejaVuSans-2212"/>
       <use xlink:href="#DejaVuSans-32" transform="translate(83.789062 0)"/>
       <use xlink:href="#DejaVuSans-30" transform="translate(147.412109 0)"/>
       <use xlink:href="#DejaVuSans-30" transform="translate(211.035156 0)"/>
       <use xlink:href="#DejaVuSans-30" transform="translate(274.658203 0)"/>
      </g>
     </g>
    </g>
    <g id="xtick_8">
     <g id="line2d_8">
      <g>
       <use xlink:href="#m6f44b49011" x="686.498127" y="299.518125" style="stroke: #000000; stroke-width: 0.8"/>
      </g>
     </g>
     <g id="text_8">
      <!-- 0 -->
      <g transform="translate(683.316877 314.116563) scale(0.1 -0.1)">
       <use xlink:href="#DejaVuSans-30"/>
      </g>
     </g>
    </g>
    <g id="text_9">
     <!-- t [M] -->
     <g transform="translate(373.178906 327.794688) scale(0.1 -0.1)">
      <defs>
       <path id="DejaVuSans-74" d="M 1172 4494 
L 1172 3500 
L 2356 3500 
L 2356 3053 
L 1172 3053 
L 1172 1153 
Q 1172 725 1289 603 
Q 1406 481 1766 481 
L 2356 481 
L 2356 0 
L 1766 0 
Q 1100 0 847 248 
Q 594 497 594 1153 
L 594 3053 
L 172 3053 
L 172 3500 
L 594 3500 
L 594 4494 
L 1172 4494 
z
" transform="scale(0.015625)"/>
       <path id="DejaVuSans-20" transform="scale(0.015625)"/>
       <path id="DejaVuSans-5b" d="M 550 4863 
L 1875 4863 
L 1875 4416 
L 1125 4416 
L 1125 -397 
L 1875 -397 
L 1875 -844 
L 550 -844 
L 550 4863 
z
" transform="scale(0.015625)"/>
       <path id="DejaVuSans-4d" d="M 628 4666 
L 1569 4666 
L 2759 1491 
L 3956 4666 
L 4897 4666 
L 4897 0 
L 4281 0 
L 4281 4097 
L 3078 897 
L 2444 897 
L 1241 4097 
L 1241 0 
L 628 0 
L 628 4666 
z
" transform="scale(0.015625)"/>
       <path id="DejaVuSans-5d" d="M 1947 4863 
L 1947 -844 
L 622 -844 
L 622 -397 
L 1369 -397 
L 1369 4416 
L 622 4416 
L 622 4863 
L 1947 4863 
z
" transform="scale(0.015625)"/>
      </defs>
      <use xlink:href="#DejaVuSans-74"/>
      <use xlink:href="#DejaVuSans-20" transform="translate(39.208984 0)"/>
      <use xlink:href="#DejaVuSans-5b" transform="translate(70.996094 0)"/>
      <use xlink:href="#DejaVuSans-4d" transform="translate(110.009766 0)"/>
      <use xlink:href="#DejaVuSans-5d" transform="translate(196.289062 0)"/>
     </g>
    </g>
   </g>
   <g id="matplotlib.axis_2">
    <g id="ytick_1">
     <g id="line2d_9">
      <defs>
       <path id="m748f77c595" d="M 0 0 
L -3.5 0 
" style="stroke: #000000; stroke-width: 0.8"/>
      </defs>
      <g>
       <use xlink:href="#m748f77c595" x="50.14375" y="287.230886" style="stroke: #000000; stroke-width: 0.8"/>
      </g>
     </g>
     <g id="text_10">
      <!-- 0.00 -->
      <g transform="translate(20.878125 291.030105) scale(0.1 -0.1)">
       <defs>
        <path id="DejaVuSans-2e" d="M 684 794 
L 1344 794 
L 1344 0 
L 684 0 
L 684 794 
z
" transform="scale(0.015625)"/>
       </defs>
       <use xlink:href="#DejaVuSans-30"/>
       <use xlink:href="#DejaVuSans-2e" transform="translate(63.623047 0)"/>
       <use xlink:href="#DejaVuSans-30" transform="translate(95.410156 0)"/>
       <use xlink:href="#DejaVuSans-30" transform="translate(159.033203 0)"/>
      </g>
     </g>
    </g>
    <g id="ytick_2">
     <g id="line2d_10">
      <g>
       <use xlink:href="#m748f77c595" x="50.14375" y="229.942128" style="stroke: #000000; stroke-width: 0.8"/>
      </g>
     </g>
     <g id="text_11">
      <!-- 0.02 -->
      <g transform="translate(20.878125 233.741347) scale(0.1 -0.1)">
       <use xlink:href="#DejaVuSans-30"/>
       <use xlink:href="#DejaVuSans-2e" transform="translate(63.623047 0)"/>
       <use xlink:href="#DejaVuSans-30" transform="translate(95.410156 0)"/>
       <use xlink:href="#DejaVuSans-32" transform="translate(159.033203 0)"/>
      </g>
     </g>
    </g>
    <g id="ytick_3">
     <g id="line2d_11">
      <g>
       <use xlink:href="#m748f77c595" x="50.14375" y="172.65337" style="stroke: #000000; stroke-width: 0.8"/>
      </g>
     </g>
     <g id="text_12">
      <!-- 0.04 -->
      <g transform="translate(20.878125 176.452589) scale(0.1 -0.1)">
       <use xlink:href="#DejaVuSans-30"/>
       <use xlink:href="#DejaVuSans-2e" transform="translate(63.623047 0)"/>
       <use xlink:href="#DejaVuSans-30" transform="translate(95.410156 0)"/>
       <use xlink:href="#DejaVuSans-34" transform="translate(159.033203 0)"/>
      </g>
     </g>
    </g>
    <g id="ytick_4">
     <g id="line2d_12">
      <g>
       <use xlink:href="#m748f77c595" x="50.14375" y="115.364612" style="stroke: #000000; stroke-width: 0.8"/>
      </g>
     </g>
     <g id="text_13">
      <!-- 0.06 -->
      <g transform="translate(20.878125 119.163831) scale(0.1 -0.1)">
       <use xlink:href="#DejaVuSans-30"/>
       <use xlink:href="#DejaVuSans-2e" transform="translate(63.623047 0)"/>
       <use xlink:href="#DejaVuSans-30" transform="translate(95.410156 0)"/>
       <use xlink:href="#DejaVuSans-36" transform="translate(159.033203 0)"/>
      </g>
     </g>
    </g>
    <g id="ytick_5">
     <g id="line2d_13">
      <g>
       <use xlink:href="#m748f77c595" x="50.14375" y="58.075854" style="stroke: #000000; stroke-width: 0.8"/>
      </g>
     </g>
     <g id="text_14">
      <!-- 0.08 -->
      <g transform="translate(20.878125 61.875073) scale(0.1 -0.1)">
       <use xlink:href="#DejaVuSans-30"/>
       <use xlink:href="#DejaVuSans-2e" transform="translate(63.623047 0)"/>
       <use xlink:href="#DejaVuSans-30" transform="translate(95.410156 0)"/>
       <use xlink:href="#DejaVuSans-38" transform="translate(159.033203 0)"/>
      </g>
     </g>
    </g>
    <g id="text_15">
     <!-- Mf -->
     <g transform="translate(14.798437 166.992344) rotate(-90) scale(0.1 -0.1)">
      <defs>
       <path id="DejaVuSans-66" d="M 2375 4863 
L 2375 4384 
L 1825 4384 
Q 1516 4384 1395 4259 
Q 1275 4134 1275 3809 
L 1275 3500 
L 2222 3500 
L 2222 3053 
L 1275 3053 
L 1275 0 
L 697 0 
L 697 3053 
L 147 3053 
L 147 3500 
L 697 3500 
L 697 3744 
Q 697 4328 969 4595 
Q 1241 4863 1831 4863 
L 2375 4863 
z
" transform="scale(0.015625)"/>
      </defs>
      <use xlink:href="#DejaVuSans-4d"/>
      <use xlink:href="#DejaVuSans-66" transform="translate(86.279297 0)"/>
     </g>
    </g>
   </g>
   <g id="line2d_14">
    <path d="M 80.580114 285.079898 
L 80.951924 285.335631 
L 81.769906 285.782363 
L 82.513525 285.943068 
L 83.405869 285.891616 
L 84.595661 285.837639 
L 85.339281 286.040401 
L 87.718865 286.909819 
L 88.611209 286.85446 
L 90.990793 286.515684 
L 93.221652 286.563807 
L 94.857616 286.156409 
L 95.74996 286.086587 
L 96.939752 286.268973 
L 97.906458 286.316656 
L 98.650078 286.112332 
L 99.46806 285.639986 
L 101.104024 284.629462 
L 101.773282 284.518895 
L 104.004141 284.452297 
L 104.673399 284.035551 
L 105.491381 283.246272 
L 107.945327 280.353188 
L 108.986395 278.906667 
L 109.953101 277.129245 
L 111.737789 273.745218 
L 112.332685 273.110902 
L 112.778857 272.915711 
L 113.225028 272.977702 
L 113.6712 273.287308 
L 114.266096 274.029733 
L 115.15844 275.599752 
L 116.868766 278.669199 
L 117.984196 280.163372 
L 119.694522 282.060889 
L 120.661228 282.8674 
L 121.404848 283.237284 
L 122.148468 283.365879 
L 124.602413 283.51298 
L 127.130721 284.438704 
L 128.023065 284.361607 
L 129.882115 284.112681 
L 132.707871 284.138274 
L 134.56692 283.810931 
L 135.607988 283.957848 
L 136.723418 284.072862 
L 137.467038 283.904517 
L 138.28502 283.465872 
L 139.920984 282.508885 
L 140.590242 282.409059 
L 142.598016 282.341592 
L 143.267274 281.952991 
L 144.085255 281.183242 
L 145.869943 279.057051 
L 147.282821 277.194141 
L 148.175165 275.618915 
L 150.331663 271.547355 
L 150.852197 271.059678 
L 151.298369 270.91942 
L 151.744541 271.046571 
L 152.190713 271.426033 
L 152.785609 272.257777 
L 153.752315 274.075234 
L 155.239554 276.820628 
L 156.429346 278.49121 
L 157.990948 280.290857 
L 158.957654 281.108841 
L 159.701274 281.477774 
L 160.519256 281.620723 
L 162.378306 281.795813 
L 163.419374 282.266253 
L 164.609165 282.740697 
L 165.427147 282.823116 
L 166.691301 282.668013 
L 167.806731 282.622345 
L 170.335039 282.716187 
L 172.491537 282.439761 
L 174.87112 282.564852 
L 175.689102 282.211131 
L 177.696876 281.182005 
L 178.514858 281.132263 
L 179.70465 281.068525 
L 180.373908 280.780422 
L 181.117528 280.187439 
L 182.158596 279.024516 
L 184.315094 276.242751 
L 185.281799 274.578438 
L 187.587021 270.292659 
L 188.107555 269.873659 
L 188.553727 269.80384 
L 188.999899 270.006388 
L 189.520433 270.556609 
L 190.189691 271.645337 
L 193.238533 277.136677 
L 194.651411 278.912669 
L 195.692478 279.917793 
L 196.51046 280.414475 
L 197.328442 280.644756 
L 199.336216 281.046367 
L 201.790162 281.980771 
L 202.756868 281.973514 
L 204.467194 281.934246 
L 206.698053 282.065351 
L 209.226361 281.868516 
L 210.862325 281.980013 
L 211.605945 281.778899 
L 212.647013 281.233082 
L 213.762443 280.713551 
L 214.654787 280.578459 
L 215.91894 280.410483 
L 216.588198 280.073588 
L 217.331818 279.441212 
L 218.447248 278.155214 
L 220.231936 275.761714 
L 221.198642 274.075739 
L 223.429502 269.917322 
L 223.950036 269.482053 
L 224.396208 269.401632 
L 224.768018 269.54717 
L 225.21419 269.960244 
L 225.809085 270.843921 
L 226.850153 272.89202 
L 228.263031 275.581436 
L 229.452823 277.362174 
L 230.716977 278.890119 
L 231.609321 279.671892 
L 232.427303 280.107881 
L 233.468371 280.373303 
L 234.732525 280.731084 
L 237.260832 281.665663 
L 238.376262 281.674854 
L 239.937864 281.717619 
L 241.796914 281.826497 
L 244.845756 281.673483 
L 245.961186 281.664174 
L 246.779167 281.41818 
L 249.604923 280.277691 
L 250.794715 280.007805 
L 251.538335 279.573645 
L 252.356317 278.801979 
L 253.620471 277.238407 
L 255.033349 275.187212 
L 256.074417 273.252443 
L 257.859104 269.830848 
L 258.379638 269.275977 
L 258.82581 269.086377 
L 259.19762 269.145076 
L 259.643792 269.46754 
L 260.164326 270.145815 
L 260.982308 271.654594 
L 263.064444 275.680157 
L 264.328598 277.528806 
L 265.444028 278.800858 
L 266.336372 279.49525 
L 267.228715 279.897191 
L 269.757023 280.829215 
L 271.021177 281.294364 
L 272.062245 281.407177 
L 274.664915 281.552929 
L 275.929069 281.555196 
L 278.680462 281.389782 
L 279.795892 281.333772 
L 280.688236 281.04071 
L 283.365268 279.925118 
L 284.480698 279.553806 
L 285.224318 279.050801 
L 286.0423 278.217923 
L 287.306454 276.568917 
L 288.570607 274.603794 
L 289.686037 272.426218 
L 291.098915 269.677086 
L 291.693811 268.97753 
L 292.139983 268.758506 
L 292.511793 268.795998 
L 292.957965 269.099168 
L 293.478499 269.764574 
L 294.222119 271.120685 
L 296.601703 275.726538 
L 297.791494 277.438461 
L 298.832562 278.574667 
L 299.724906 279.222462 
L 300.765974 279.678102 
L 302.699386 280.491686 
L 303.96354 280.954746 
L 305.07897 281.092042 
L 309.466327 281.169283 
L 311.102291 281.075684 
L 312.366445 280.9831 
L 313.258789 280.68305 
L 317.571785 278.597033 
L 318.464128 277.642917 
L 319.728282 275.902327 
L 320.918074 273.921656 
L 322.25659 271.180598 
L 323.297658 269.239286 
L 323.892554 268.579127 
L 324.338726 268.400706 
L 324.710536 268.476508 
L 325.156708 268.826742 
L 325.677242 269.54181 
L 326.495224 271.101345 
L 328.577359 275.212756 
L 329.767151 276.992876 
L 330.808219 278.160204 
L 331.700563 278.835697 
L 332.890355 279.417342 
L 336.013559 280.663186 
L 337.500799 280.805214 
L 340.400916 280.921618 
L 344.342102 280.414025 
L 345.680618 279.758073 
L 348.72946 278.099813 
L 349.621803 277.097943 
L 350.811595 275.38524 
L 352.001387 273.302087 
L 354.604057 268.393105 
L 355.050229 268.074611 
L 355.422039 268.033472 
L 355.793849 268.19935 
L 356.240021 268.651437 
L 356.834917 269.599028 
L 357.950347 271.906604 
L 359.363224 274.693794 
L 360.478654 276.43814 
L 361.44536 277.592267 
L 362.337704 278.343609 
L 363.527496 279.020435 
L 365.981442 280.142036 
L 367.096872 280.368282 
L 369.996989 280.610617 
L 371.558591 280.476227 
L 374.309985 280.073617 
L 375.425415 279.551074 
L 378.399895 277.847381 
L 379.217877 276.986712 
L 380.258944 275.537997 
L 381.448736 273.510165 
L 382.787252 270.739443 
L 383.902682 268.561145 
L 384.497578 267.84372 
L 384.94375 267.626808 
L 385.31556 267.678141 
L 385.761732 268.010794 
L 386.282266 268.721649 
L 387.100248 270.302011 
L 389.256746 274.667159 
L 390.372175 276.354792 
L 391.338881 277.43186 
L 392.305587 278.180441 
L 394.015913 279.149944 
L 395.354429 279.727195 
L 396.544221 279.983057 
L 398.998167 280.219876 
L 400.411044 280.121042 
L 403.088076 279.698799 
L 404.129144 279.233026 
L 406.58309 277.803712 
L 407.475434 277.007013 
L 408.367778 275.887644 
L 409.483208 274.107423 
L 410.672999 271.793565 
L 412.606411 267.909506 
L 413.126945 267.347923 
L 413.573117 267.18019 
L 413.944927 267.277508 
L 414.391099 267.665818 
L 414.985995 268.566089 
L 415.952701 270.562948 
L 417.663027 274.070599 
L 418.778457 275.824061 
L 419.745163 276.944855 
L 420.786231 277.796056 
L 422.347832 278.74562 
L 423.611986 279.294103 
L 424.87614 279.576521 
L 426.958276 279.787963 
L 428.371154 279.690222 
L 430.602014 279.314513 
L 431.643081 278.882236 
L 433.353407 277.866274 
L 434.543199 276.964496 
L 435.435543 275.972813 
L 436.402249 274.540374 
L 437.592041 272.351004 
L 440.269073 267.083582 
L 440.715245 266.747777 
L 441.087055 266.704642 
L 441.458864 266.880575 
L 441.905036 267.358428 
L 442.499932 268.354741 
L 443.689724 270.926767 
L 445.102602 273.793167 
L 446.14367 275.427592 
L 447.110376 276.551258 
L 448.225806 277.480902 
L 449.638684 278.364176 
L 450.828476 278.859963 
L 452.166991 279.154225 
L 453.802955 279.309132 
L 455.215833 279.201088 
L 457.074883 278.844253 
L 458.115951 278.412614 
L 459.528829 277.537021 
L 460.792983 276.540684 
L 461.685327 275.545426 
L 462.652032 274.098071 
L 463.767462 272.0088 
L 466.518856 266.527791 
L 466.965028 266.205332 
L 467.336838 266.1792 
L 467.708648 266.376167 
L 468.15482 266.881911 
L 468.749716 267.914105 
L 470.01387 270.703233 
L 471.352386 273.427114 
L 472.393453 275.05431 
L 473.360159 276.169905 
L 474.475589 277.114708 
L 475.739743 277.908861 
L 476.855173 278.35994 
L 478.268051 278.666468 
L 479.680929 278.761421 
L 481.093807 278.611364 
L 482.581046 278.258046 
L 483.622114 277.780797 
L 484.886268 276.932396 
L 486.07606 275.894889 
L 486.968404 274.820681 
L 487.93511 273.279354 
L 489.05054 271.064944 
L 491.430124 266.124844 
L 491.950658 265.64822 
L 492.322468 265.572595 
L 492.694278 265.72638 
L 493.140449 266.193097 
L 493.735345 267.198935 
L 494.850775 269.672506 
L 496.263653 272.671134 
L 497.304721 274.37565 
L 498.271427 275.554869 
L 499.386857 276.5595 
L 500.576649 277.333684 
L 501.692079 277.79163 
L 503.030595 278.084834 
L 504.294748 278.144889 
L 505.633264 277.969836 
L 506.97178 277.583003 
L 508.012848 277.040254 
L 509.20264 276.148868 
L 510.31807 275.041192 
L 511.210414 273.836892 
L 512.17712 272.144269 
L 513.366911 269.58688 
L 515.077237 265.860839 
L 515.672133 265.110769 
L 516.118305 264.906452 
L 516.490115 264.994331 
L 516.861925 265.309079 
L 517.382459 266.076624 
L 518.200441 267.787555 
L 520.282577 272.338948 
L 521.323645 274.003113 
L 522.364713 275.229227 
L 523.480143 276.187341 
L 524.52121 276.807854 
L 525.63664 277.21457 
L 526.900794 277.432027 
L 528.016224 277.40811 
L 529.280378 277.156068 
L 530.395808 276.719095 
L 531.436876 276.051403 
L 532.552306 275.058317 
L 533.519012 273.916089 
L 534.411355 272.522173 
L 535.452423 270.454835 
L 538.278179 264.490566 
L 538.724351 264.174901 
L 539.096161 264.173663 
L 539.467971 264.410906 
L 539.914143 264.979207 
L 540.583401 266.265241 
L 543.632243 272.751047 
L 544.598948 274.073403 
L 545.640016 275.125663 
L 546.681084 275.864077 
L 547.722152 276.329594 
L 548.837582 276.587377 
L 549.87865 276.615733 
L 550.99408 276.422301 
L 552.10951 276.00011 
L 553.076216 275.391329 
L 554.117284 274.453802 
L 555.083989 273.293835 
L 555.976333 271.886492 
L 557.017401 269.78221 
L 559.843157 263.642254 
L 560.289329 263.306377 
L 560.661139 263.295043 
L 561.032949 263.529225 
L 561.479121 264.102894 
L 562.148379 265.411698 
L 565.122858 271.895387 
L 566.089564 273.263335 
L 567.05627 274.272107 
L 568.022976 274.974816 
L 568.989682 275.414065 
L 570.03075 275.635383 
L 571.071818 275.611035 
L 572.112886 275.35717 
L 573.079592 274.899912 
L 574.046298 274.17823 
L 575.013003 273.172189 
L 575.905347 271.933459 
L 576.797691 270.297794 
L 577.913121 267.744483 
L 579.846533 263.188237 
L 580.367067 262.481612 
L 580.738877 262.2563 
L 581.110687 262.288605 
L 581.482497 262.574866 
L 582.003031 263.339001 
L 582.746651 264.92231 
L 585.200597 270.483639 
L 586.167302 272.011202 
L 587.134008 273.124003 
L 588.026352 273.831452 
L 588.918696 274.27527 
L 589.81104 274.484001 
L 590.703384 274.469065 
L 591.67009 274.225816 
L 592.562434 273.778727 
L 593.454778 273.074299 
L 594.347122 272.076635 
L 595.239466 270.748486 
L 596.131809 269.029966 
L 597.247239 266.348977 
L 599.031927 261.984214 
L 599.552461 261.245717 
L 599.924271 261.00604 
L 600.296081 261.032069 
L 600.667891 261.319904 
L 601.114063 261.97006 
L 601.783321 263.39447 
L 604.385991 269.440512 
L 605.352697 270.944476 
L 606.24504 271.936699 
L 607.137384 272.595128 
L 608.029728 272.964508 
L 608.84771 273.066617 
L 609.665692 272.946774 
L 610.483674 272.604826 
L 611.301656 272.022068 
L 612.119638 271.166653 
L 613.011982 269.889008 
L 613.904326 268.2049 
L 614.945394 265.707498 
L 617.101891 260.270935 
L 617.622425 259.607494 
L 617.994235 259.446436 
L 618.366045 259.56351 
L 618.737855 259.945313 
L 619.258389 260.851355 
L 620.076371 262.815007 
L 621.861059 267.17079 
L 622.827765 268.899813 
L 623.720109 270.040778 
L 624.538091 270.734515 
L 625.281711 271.101547 
L 626.025331 271.233191 
L 626.76895 271.135202 
L 627.51257 270.807235 
L 628.25619 270.236517 
L 629.074172 269.29935 
L 629.892154 268.007524 
L 630.784498 266.156545 
L 631.825566 263.433972 
L 633.684616 258.460553 
L 634.20515 257.687902 
L 634.57696 257.458036 
L 634.874408 257.484421 
L 635.246218 257.774275 
L 635.69239 258.454631 
L 636.361648 259.959509 
L 638.815593 265.920925 
L 639.707937 267.323213 
L 640.451557 268.116454 
L 641.195177 268.591329 
L 641.864435 268.758679 
L 642.533693 268.684292 
L 643.202951 268.371832 
L 643.872209 267.813119 
L 644.615829 266.882837 
L 645.433811 265.454091 
L 646.326155 263.387142 
L 647.441584 260.147104 
L 648.854462 256.059952 
L 649.449358 255.008766 
L 649.821168 254.713176 
L 650.118616 254.699065 
L 650.416064 254.880375 
L 650.862236 255.482785 
L 651.457132 256.754649 
L 654.208526 263.348869 
L 654.952146 264.371824 
L 655.621404 264.942194 
L 656.2163 265.157958 
L 656.811196 265.120286 
L 657.406091 264.83421 
L 658.000987 264.294729 
L 658.670245 263.371754 
L 659.413865 261.928759 
L 660.231847 259.812073 
L 661.347277 256.211876 
L 662.685793 251.971483 
L 663.206327 250.914206 
L 663.578137 250.515441 
L 663.875585 250.433294 
L 664.173033 250.560007 
L 664.544843 250.986639 
L 665.065377 251.980125 
L 666.106445 254.604441 
L 667.221875 257.182743 
L 667.891132 258.256969 
L 668.486028 258.848855 
L 669.006562 259.080734 
L 669.452734 259.064317 
L 669.898906 258.837716 
L 670.41944 258.306703 
L 671.014336 257.348271 
L 671.683594 255.808443 
L 672.501576 253.255744 
L 673.617006 248.876946 
L 674.88116 243.978846 
L 675.476056 242.523112 
L 675.922228 241.94491 
L 676.294038 241.817336 
L 676.665848 241.996019 
L 677.186382 242.568713 
L 678.896707 244.733125 
L 679.714689 244.520331 
L 680.309585 243.619206 
L 680.830119 242.139264 
L 681.425015 239.806492 
L 682.094273 236.132576 
L 683.655875 222.034422 
L 684.399495 212.022286 
L 684.994391 201.332213 
L 685.589287 186.298703 
L 685.961097 169.649568 
L 686.332907 140.488449 
L 687.373975 45.178284 
L 687.671423 38.658001 
L 687.96887 36.231804 
L 688.266318 35.368556 
L 688.563766 35.066346 
L 689.009938 34.938153 
L 689.307386 34.918125 
L 689.307386 34.918125 
" clip-path="url(#p638558bcc9)" style="fill: none; stroke: #1f77b4; stroke-width: 0.6; stroke-linecap: square"/>
   </g>
   <g id="line2d_15">
    <path d="M 50.14375 225.19219 
L 719.74375 225.19219 
" clip-path="url(#p638558bcc9)" style="fill: none; stroke-dasharray: 2.22,0.96; stroke-dashoffset: 0; stroke: #ff0000; stroke-width: 0.6"/>
   </g>
   <g id="patch_3">
    <path d="M 50.14375 299.518125 
L 50.14375 22.318125 
" style="fill: none; stroke: #000000; stroke-width: 0.8; stroke-linejoin: miter; stroke-linecap: square"/>
   </g>
   <g id="patch_4">
    <path d="M 719.74375 299.518125 
L 719.74375 22.318125 
" style="fill: none; stroke: #000000; stroke-width: 0.8; stroke-linejoin: miter; stroke-linecap: square"/>
   </g>
   <g id="patch_5">
    <path d="M 50.14375 299.518125 
L 719.74375 299.518125 
" style="fill: none; stroke: #000000; stroke-width: 0.8; stroke-linejoin: miter; stroke-linecap: square"/>
   </g>
   <g id="patch_6">
    <path d="M 50.14375 22.318125 
L 719.74375 22.318125 
" style="fill: none; stroke: #000000; stroke-width: 0.8; stroke-linejoin: miter; stroke-linecap: square"/>
   </g>
   <g id="text_16">
    <!-- Mf vs Time for M=60, e=0.24, f_lower=10 Hz -->
    <g transform="translate(249.127188 16.318125) scale(0.12 -0.12)">
     <defs>
      <path id="DejaVuSans-76" d="M 191 3500 
L 800 3500 
L 1894 563 
L 2988 3500 
L 3597 3500 
L 2284 0 
L 1503 0 
L 191 3500 
z
" transform="scale(0.015625)"/>
      <path id="DejaVuSans-73" d="M 2834 3397 
L 2834 2853 
Q 2591 2978 2328 3040 
Q 2066 3103 1784 3103 
Q 1356 3103 1142 2972 
Q 928 2841 928 2578 
Q 928 2378 1081 2264 
Q 1234 2150 1697 2047 
L 1894 2003 
Q 2506 1872 2764 1633 
Q 3022 1394 3022 966 
Q 3022 478 2636 193 
Q 2250 -91 1575 -91 
Q 1294 -91 989 -36 
Q 684 19 347 128 
L 347 722 
Q 666 556 975 473 
Q 1284 391 1588 391 
Q 1994 391 2212 530 
Q 2431 669 2431 922 
Q 2431 1156 2273 1281 
Q 2116 1406 1581 1522 
L 1381 1569 
Q 847 1681 609 1914 
Q 372 2147 372 2553 
Q 372 3047 722 3315 
Q 1072 3584 1716 3584 
Q 2034 3584 2315 3537 
Q 2597 3491 2834 3397 
z
" transform="scale(0.015625)"/>
      <path id="DejaVuSans-54" d="M -19 4666 
L 3928 4666 
L 3928 4134 
L 2272 4134 
L 2272 0 
L 1638 0 
L 1638 4134 
L -19 4134 
L -19 4666 
z
" transform="scale(0.015625)"/>
      <path id="DejaVuSans-69" d="M 603 3500 
L 1178 3500 
L 1178 0 
L 603 0 
L 603 3500 
z
M 603 4863 
L 1178 4863 
L 1178 4134 
L 603 4134 
L 603 4863 
z
" transform="scale(0.015625)"/>
      <path id="DejaVuSans-6d" d="M 3328 2828 
Q 3544 3216 3844 3400 
Q 4144 3584 4550 3584 
Q 5097 3584 5394 3201 
Q 5691 2819 5691 2113 
L 5691 0 
L 5113 0 
L 5113 2094 
Q 5113 2597 4934 2840 
Q 4756 3084 4391 3084 
Q 3944 3084 3684 2787 
Q 3425 2491 3425 1978 
L 3425 0 
L 2847 0 
L 2847 2094 
Q 2847 2600 2669 2842 
Q 2491 3084 2119 3084 
Q 1678 3084 1418 2786 
Q 1159 2488 1159 1978 
L 1159 0 
L 581 0 
L 581 3500 
L 1159 3500 
L 1159 2956 
Q 1356 3278 1631 3431 
Q 1906 3584 2284 3584 
Q 2666 3584 2933 3390 
Q 3200 3197 3328 2828 
z
" transform="scale(0.015625)"/>
      <path id="DejaVuSans-65" d="M 3597 1894 
L 3597 1613 
L 953 1613 
Q 991 1019 1311 708 
Q 1631 397 2203 397 
Q 2534 397 2845 478 
Q 3156 559 3463 722 
L 3463 178 
Q 3153 47 2828 -22 
Q 2503 -91 2169 -91 
Q 1331 -91 842 396 
Q 353 884 353 1716 
Q 353 2575 817 3079 
Q 1281 3584 2069 3584 
Q 2775 3584 3186 3129 
Q 3597 2675 3597 1894 
z
M 3022 2063 
Q 3016 2534 2758 2815 
Q 2500 3097 2075 3097 
Q 1594 3097 1305 2825 
Q 1016 2553 972 2059 
L 3022 2063 
z
" transform="scale(0.015625)"/>
      <path id="DejaVuSans-6f" d="M 1959 3097 
Q 1497 3097 1228 2736 
Q 959 2375 959 1747 
Q 959 1119 1226 758 
Q 1494 397 1959 397 
Q 2419 397 2687 759 
Q 2956 1122 2956 1747 
Q 2956 2369 2687 2733 
Q 2419 3097 1959 3097 
z
M 1959 3584 
Q 2709 3584 3137 3096 
Q 3566 2609 3566 1747 
Q 3566 888 3137 398 
Q 2709 -91 1959 -91 
Q 1206 -91 779 398 
Q 353 888 353 1747 
Q 353 2609 779 3096 
Q 1206 3584 1959 3584 
z
" transform="scale(0.015625)"/>
      <path id="DejaVuSans-72" d="M 2631 2963 
Q 2534 3019 2420 3045 
Q 2306 3072 2169 3072 
Q 1681 3072 1420 2755 
Q 1159 2438 1159 1844 
L 1159 0 
L 581 0 
L 581 3500 
L 1159 3500 
L 1159 2956 
Q 1341 3275 1631 3429 
Q 1922 3584 2338 3584 
Q 2397 3584 2469 3576 
Q 2541 3569 2628 3553 
L 2631 2963 
z
" transform="scale(0.015625)"/>
      <path id="DejaVuSans-3d" d="M 678 2906 
L 4684 2906 
L 4684 2381 
L 678 2381 
L 678 2906 
z
M 678 1631 
L 4684 1631 
L 4684 1100 
L 678 1100 
L 678 1631 
z
" transform="scale(0.015625)"/>
      <path id="DejaVuSans-2c" d="M 750 794 
L 1409 794 
L 1409 256 
L 897 -744 
L 494 -744 
L 750 256 
L 750 794 
z
" transform="scale(0.015625)"/>
      <path id="DejaVuSans-5f" d="M 3263 -1063 
L 3263 -1509 
L -63 -1509 
L -63 -1063 
L 3263 -1063 
z
" transform="scale(0.015625)"/>
      <path id="DejaVuSans-6c" d="M 603 4863 
L 1178 4863 
L 1178 0 
L 603 0 
L 603 4863 
z
" transform="scale(0.015625)"/>
      <path id="DejaVuSans-77" d="M 269 3500 
L 844 3500 
L 1563 769 
L 2278 3500 
L 2956 3500 
L 3675 769 
L 4391 3500 
L 4966 3500 
L 4050 0 
L 3372 0 
L 2619 2869 
L 1863 0 
L 1184 0 
L 269 3500 
z
" transform="scale(0.015625)"/>
      <path id="DejaVuSans-48" d="M 628 4666 
L 1259 4666 
L 1259 2753 
L 3553 2753 
L 3553 4666 
L 4184 4666 
L 4184 0 
L 3553 0 
L 3553 2222 
L 1259 2222 
L 1259 0 
L 628 0 
L 628 4666 
z
" transform="scale(0.015625)"/>
      <path id="DejaVuSans-7a" d="M 353 3500 
L 3084 3500 
L 3084 2975 
L 922 459 
L 3084 459 
L 3084 0 
L 275 0 
L 275 525 
L 2438 3041 
L 353 3041 
L 353 3500 
z
" transform="scale(0.015625)"/>
     </defs>
     <use xlink:href="#DejaVuSans-4d"/>
     <use xlink:href="#DejaVuSans-66" transform="translate(86.279297 0)"/>
     <use xlink:href="#DejaVuSans-20" transform="translate(121.484375 0)"/>
     <use xlink:href="#DejaVuSans-76" transform="translate(153.271484 0)"/>
     <use xlink:href="#DejaVuSans-73" transform="translate(212.451172 0)"/>
     <use xlink:href="#DejaVuSans-20" transform="translate(264.550781 0)"/>
     <use xlink:href="#DejaVuSans-54" transform="translate(296.337891 0)"/>
     <use xlink:href="#DejaVuSans-69" transform="translate(354.296875 0)"/>
     <use xlink:href="#DejaVuSans-6d" transform="translate(382.080078 0)"/>
     <use xlink:href="#DejaVuSans-65" transform="translate(479.492188 0)"/>
     <use xlink:href="#DejaVuSans-20" transform="translate(541.015625 0)"/>
     <use xlink:href="#DejaVuSans-66" transform="translate(572.802734 0)"/>
     <use xlink:href="#DejaVuSans-6f" transform="translate(608.007812 0)"/>
     <use xlink:href="#DejaVuSans-72" transform="translate(669.189453 0)"/>
     <use xlink:href="#DejaVuSans-20" transform="translate(710.302734 0)"/>
     <use xlink:href="#DejaVuSans-4d" transform="translate(742.089844 0)"/>
     <use xlink:href="#DejaVuSans-3d" transform="translate(828.369141 0)"/>
     <use xlink:href="#DejaVuSans-36" transform="translate(912.158203 0)"/>
     <use xlink:href="#DejaVuSans-30" transform="translate(975.78125 0)"/>
     <use xlink:href="#DejaVuSans-2c" transform="translate(1039.404297 0)"/>
     <use xlink:href="#DejaVuSans-20" transform="translate(1071.191406 0)"/>
     <use xlink:href="#DejaVuSans-65" transform="translate(1102.978516 0)"/>
     <use xlink:href="#DejaVuSans-3d" transform="translate(1164.501953 0)"/>
     <use xlink:href="#DejaVuSans-30" transform="translate(1248.291016 0)"/>
     <use xlink:href="#DejaVuSans-2e" transform="translate(1311.914062 0)"/>
     <use xlink:href="#DejaVuSans-32" transform="translate(1343.701172 0)"/>
     <use xlink:href="#DejaVuSans-34" transform="translate(1407.324219 0)"/>
     <use xlink:href="#DejaVuSans-2c" transform="translate(1470.947266 0)"/>
     <use xlink:href="#DejaVuSans-20" transform="translate(1502.734375 0)"/>
     <use xlink:href="#DejaVuSans-66" transform="translate(1534.521484 0)"/>
     <use xlink:href="#DejaVuSans-5f" transform="translate(1569.726562 0)"/>
     <use xlink:href="#DejaVuSans-6c" transform="translate(1619.726562 0)"/>
     <use xlink:href="#DejaVuSans-6f" transform="translate(1647.509766 0)"/>
     <use xlink:href="#DejaVuSans-77" transform="translate(1708.691406 0)"/>
     <use xlink:href="#DejaVuSans-65" transform="translate(1790.478516 0)"/>
     <use xlink:href="#DejaVuSans-72" transform="translate(1852.001953 0)"/>
     <use xlink:href="#DejaVuSans-3d" transform="translate(1893.115234 0)"/>
     <use xlink:href="#DejaVuSans-31" transform="translate(1976.904297 0)"/>
     <use xlink:href="#DejaVuSans-30" transform="translate(2040.527344 0)"/>
     <use xlink:href="#DejaVuSans-20" transform="translate(2104.150391 0)"/>
     <use xlink:href="#DejaVuSans-48" transform="translate(2135.9375 0)"/>
     <use xlink:href="#DejaVuSans-7a" transform="translate(2211.132812 0)"/>
    </g>
   </g>
   <g id="legend_1">
    <g id="patch_7">
     <path d="M 57.14375 59.9525 
L 153.10625 59.9525 
Q 155.10625 59.9525 155.10625 57.9525 
L 155.10625 29.318125 
Q 155.10625 27.318125 153.10625 27.318125 
L 57.14375 27.318125 
Q 55.14375 27.318125 55.14375 29.318125 
L 55.14375 57.9525 
Q 55.14375 59.9525 57.14375 59.9525 
z
" style="fill: #ffffff; opacity: 0.8; stroke: #cccccc; stroke-linejoin: miter"/>
    </g>
    <g id="line2d_16">
     <path d="M 59.14375 35.416563 
L 69.14375 35.416563 
L 79.14375 35.416563 
" style="fill: none; stroke: #1f77b4; stroke-width: 0.6; stroke-linecap: square"/>
    </g>
    <g id="text_17">
     <!-- Mf -->
     <g transform="translate(87.14375 38.916563) scale(0.1 -0.1)">
      <use xlink:href="#DejaVuSans-4d"/>
      <use xlink:href="#DejaVuSans-66" transform="translate(86.279297 0)"/>
     </g>
    </g>
    <g id="line2d_17">
     <path d="M 59.14375 50.094688 
L 69.14375 50.094688 
L 79.14375 50.094688 
" style="fill: none; stroke-dasharray: 2.22,0.96; stroke-dashoffset: 0; stroke: #ff0000; stroke-width: 0.6"/>
    </g>
    <g id="text_18">
     <!-- Mf_ISCO_circ -->
     <g transform="translate(87.14375 53.594688) scale(0.1 -0.1)">
      <defs>
       <path id="DejaVuSans-49" d="M 628 4666 
L 1259 4666 
L 1259 0 
L 628 0 
L 628 4666 
z
" transform="scale(0.015625)"/>
       <path id="DejaVuSans-53" d="M 3425 4513 
L 3425 3897 
Q 3066 4069 2747 4153 
Q 2428 4238 2131 4238 
Q 1616 4238 1336 4038 
Q 1056 3838 1056 3469 
Q 1056 3159 1242 3001 
Q 1428 2844 1947 2747 
L 2328 2669 
Q 3034 2534 3370 2195 
Q 3706 1856 3706 1288 
Q 3706 609 3251 259 
Q 2797 -91 1919 -91 
Q 1588 -91 1214 -16 
Q 841 59 441 206 
L 441 856 
Q 825 641 1194 531 
Q 1563 422 1919 422 
Q 2459 422 2753 634 
Q 3047 847 3047 1241 
Q 3047 1584 2836 1778 
Q 2625 1972 2144 2069 
L 1759 2144 
Q 1053 2284 737 2584 
Q 422 2884 422 3419 
Q 422 4038 858 4394 
Q 1294 4750 2059 4750 
Q 2388 4750 2728 4690 
Q 3069 4631 3425 4513 
z
" transform="scale(0.015625)"/>
       <path id="DejaVuSans-43" d="M 4122 4306 
L 4122 3641 
Q 3803 3938 3442 4084 
Q 3081 4231 2675 4231 
Q 1875 4231 1450 3742 
Q 1025 3253 1025 2328 
Q 1025 1406 1450 917 
Q 1875 428 2675 428 
Q 3081 428 3442 575 
Q 3803 722 4122 1019 
L 4122 359 
Q 3791 134 3420 21 
Q 3050 -91 2638 -91 
Q 1578 -91 968 557 
Q 359 1206 359 2328 
Q 359 3453 968 4101 
Q 1578 4750 2638 4750 
Q 3056 4750 3426 4639 
Q 3797 4528 4122 4306 
z
" transform="scale(0.015625)"/>
       <path id="DejaVuSans-4f" d="M 2522 4238 
Q 1834 4238 1429 3725 
Q 1025 3213 1025 2328 
Q 1025 1447 1429 934 
Q 1834 422 2522 422 
Q 3209 422 3611 934 
Q 4013 1447 4013 2328 
Q 4013 3213 3611 3725 
Q 3209 4238 2522 4238 
z
M 2522 4750 
Q 3503 4750 4090 4092 
Q 4678 3434 4678 2328 
Q 4678 1225 4090 567 
Q 3503 -91 2522 -91 
Q 1538 -91 948 565 
Q 359 1222 359 2328 
Q 359 3434 948 4092 
Q 1538 4750 2522 4750 
z
" transform="scale(0.015625)"/>
       <path id="DejaVuSans-63" d="M 3122 3366 
L 3122 2828 
Q 2878 2963 2633 3030 
Q 2388 3097 2138 3097 
Q 1578 3097 1268 2742 
Q 959 2388 959 1747 
Q 959 1106 1268 751 
Q 1578 397 2138 397 
Q 2388 397 2633 464 
Q 2878 531 3122 666 
L 3122 134 
Q 2881 22 2623 -34 
Q 2366 -91 2075 -91 
Q 1284 -91 818 406 
Q 353 903 353 1747 
Q 353 2603 823 3093 
Q 1294 3584 2113 3584 
Q 2378 3584 2631 3529 
Q 2884 3475 3122 3366 
z
" transform="scale(0.015625)"/>
      </defs>
      <use xlink:href="#DejaVuSans-4d"/>
      <use xlink:href="#DejaVuSans-66" transform="translate(86.279297 0)"/>
      <use xlink:href="#DejaVuSans-5f" transform="translate(121.484375 0)"/>
      <use xlink:href="#DejaVuSans-49" transform="translate(171.484375 0)"/>
      <use xlink:href="#DejaVuSans-53" transform="translate(200.976562 0)"/>
      <use xlink:href="#DejaVuSans-43" transform="translate(264.453125 0)"/>
      <use xlink:href="#DejaVuSans-4f" transform="translate(334.277344 0)"/>
      <use xlink:href="#DejaVuSans-5f" transform="translate(412.988281 0)"/>
      <use xlink:href="#DejaVuSans-63" transform="translate(462.988281 0)"/>
      <use xlink:href="#DejaVuSans-69" transform="translate(517.96875 0)"/>
      <use xlink:href="#DejaVuSans-72" transform="translate(545.751953 0)"/>
      <use xlink:href="#DejaVuSans-63" transform="translate(584.615234 0)"/>
     </g>
    </g>
   </g>
  </g>
 </g>
 <defs>
  <clipPath id="p638558bcc9">
   <rect x="50.14375" y="22.318125" width="669.6" height="277.2"/>
  </clipPath>
 </defs>
</svg>
