<?xml version="1.0" encoding="utf-8" standalone="no"?>
<!DOCTYPE svg PUBLIC "-//W3C//DTD SVG 1.1//EN"
  "http://www.w3.org/Graphics/SVG/1.1/DTD/svg11.dtd">
<svg xmlns:xlink="http://www.w3.org/1999/xlink" width="713.265625pt" height="308.278125pt" viewBox="0 0 713.265625 308.278125" xmlns="http://www.w3.org/2000/svg" version="1.1">
 <metadata>
  <rdf:RDF xmlns:dc="http://purl.org/dc/elements/1.1/" xmlns:cc="http://creativecommons.org/ns#" xmlns:rdf="http://www.w3.org/1999/02/22-rdf-syntax-ns#">
   <cc:Work>
    <dc:type rdf:resource="http://purl.org/dc/dcmitype/StillImage"/>
    <dc:date>2025-07-25T16:41:26.750720</dc:date>
    <dc:format>image/svg+xml</dc:format>
    <dc:creator>
     <cc:Agent>
      <dc:title>Matplotlib v3.10.3, https://matplotlib.org/</dc:title>
     </cc:Agent>
    </dc:creator>
   </cc:Work>
  </rdf:RDF>
 </metadata>
 <defs>
  <style type="text/css">*{stroke-linejoin: round; stroke-linecap: butt}</style>
 </defs>
 <g id="figure_1">
  <g id="patch_1">
   <path d="M 0 308.278125 
L 713.265625 308.278125 
L 713.265625 0 
L 0 0 
z
" style="fill: #ffffff"/>
  </g>
  <g id="axes_1">
   <g id="patch_2">
    <path d="M 36.465625 284.4 
L 706.065625 284.4 
L 706.065625 7.2 
L 36.465625 7.2 
z
" style="fill: #ffffff"/>
   </g>
   <g id="PathCollection_1">
    <defs>
     <path id="mc9f6dfe58a" d="M 0 1.224745 
C 0.324806 1.224745 0.636353 1.095698 0.866025 0.866025 
C 1.095698 0.636353 1.224745 0.324806 1.224745 0 
C 1.224745 -0.324806 1.095698 -0.636353 0.866025 -0.866025 
C 0.636353 -1.095698 0.324806 -1.224745 0 -1.224745 
C -0.324806 -1.224745 -0.636353 -1.095698 -0.866025 -0.866025 
C -1.095698 -0.636353 -1.224745 -0.324806 -1.224745 0 
C -1.224745 0.324806 -1.095698 0.636353 -0.866025 0.866025 
C -0.636353 1.095698 -0.324806 1.224745 0 1.224745 
z
" style="stroke: #ff0000"/>
    </defs>
    <g clip-path="url(#p60f48af504)">
     <use xlink:href="#mc9f6dfe58a" x="669.163717" y="213.094612" style="fill: #ff0000; stroke: #ff0000"/>
    </g>
   </g>
   <g id="matplotlib.axis_1">
    <g id="xtick_1">
     <g id="line2d_1">
      <defs>
       <path id="mdfa5452f48" d="M 0 0 
L 0 3.5 
" style="stroke: #000000; stroke-width: 0.8"/>
      </defs>
      <g>
       <use xlink:href="#mdfa5452f48" x="46.099533" y="284.4" style="stroke: #000000; stroke-width: 0.8"/>
      </g>
     </g>
     <g id="text_1">
      <!-- −14000 -->
      <g transform="translate(26.00344 298.998438) scale(0.1 -0.1)">
       <defs>
        <path id="DejaVuSans-2212" d="M 678 2272 
L 4684 2272 
L 4684 1741 
L 678 1741 
L 678 2272 
z
" transform="scale(0.015625)"/>
        <path id="DejaVuSans-31" d="M 794 531 
L 1825 531 
L 1825 4091 
L 703 3866 
L 703 4441 
L 1819 4666 
L 2450 4666 
L 2450 531 
L 3481 531 
L 3481 0 
L 794 0 
L 794 531 
z
" transform="scale(0.015625)"/>
        <path id="DejaVuSans-34" d="M 2419 4116 
L 825 1625 
L 2419 1625 
L 2419 4116 
z
M 2253 4666 
L 3047 4666 
L 3047 1625 
L 3713 1625 
L 3713 1100 
L 3047 1100 
L 3047 0 
L 2419 0 
L 2419 1100 
L 313 1100 
L 313 1709 
L 2253 4666 
z
" transform="scale(0.015625)"/>
        <path id="DejaVuSans-30" d="M 2034 4250 
Q 1547 4250 1301 3770 
Q 1056 3291 1056 2328 
Q 1056 1369 1301 889 
Q 1547 409 2034 409 
Q 2525 409 2770 889 
Q 3016 1369 3016 2328 
Q 3016 3291 2770 3770 
Q 2525 4250 2034 4250 
z
M 2034 4750 
Q 2819 4750 3233 4129 
Q 3647 3509 3647 2328 
Q 3647 1150 3233 529 
Q 2819 -91 2034 -91 
Q 1250 -91 836 529 
Q 422 1150 422 2328 
Q 422 3509 836 4129 
Q 1250 4750 2034 4750 
z
" transform="scale(0.015625)"/>
       </defs>
       <use xlink:href="#DejaVuSans-2212"/>
       <use xlink:href="#DejaVuSans-31" transform="translate(83.789062 0)"/>
       <use xlink:href="#DejaVuSans-34" transform="translate(147.412109 0)"/>
       <use xlink:href="#DejaVuSans-30" transform="translate(211.035156 0)"/>
       <use xlink:href="#DejaVuSans-30" transform="translate(274.658203 0)"/>
       <use xlink:href="#DejaVuSans-30" transform="translate(338.28125 0)"/>
      </g>
     </g>
    </g>
    <g id="xtick_2">
     <g id="line2d_2">
      <g>
       <use xlink:href="#mdfa5452f48" x="135.57819" y="284.4" style="stroke: #000000; stroke-width: 0.8"/>
      </g>
     </g>
     <g id="text_2">
      <!-- −12000 -->
      <g transform="translate(115.482097 298.998438) scale(0.1 -0.1)">
       <defs>
        <path id="DejaVuSans-32" d="M 1228 531 
L 3431 531 
L 3431 0 
L 469 0 
L 469 531 
Q 828 903 1448 1529 
Q 2069 2156 2228 2338 
Q 2531 2678 2651 2914 
Q 2772 3150 2772 3378 
Q 2772 3750 2511 3984 
Q 2250 4219 1831 4219 
Q 1534 4219 1204 4116 
Q 875 4013 500 3803 
L 500 4441 
Q 881 4594 1212 4672 
Q 1544 4750 1819 4750 
Q 2544 4750 2975 4387 
Q 3406 4025 3406 3419 
Q 3406 3131 3298 2873 
Q 3191 2616 2906 2266 
Q 2828 2175 2409 1742 
Q 1991 1309 1228 531 
z
" transform="scale(0.015625)"/>
       </defs>
       <use xlink:href="#DejaVuSans-2212"/>
       <use xlink:href="#DejaVuSans-31" transform="translate(83.789062 0)"/>
       <use xlink:href="#DejaVuSans-32" transform="translate(147.412109 0)"/>
       <use xlink:href="#DejaVuSans-30" transform="translate(211.035156 0)"/>
       <use xlink:href="#DejaVuSans-30" transform="translate(274.658203 0)"/>
       <use xlink:href="#DejaVuSans-30" transform="translate(338.28125 0)"/>
      </g>
     </g>
    </g>
    <g id="xtick_3">
     <g id="line2d_3">
      <g>
       <use xlink:href="#mdfa5452f48" x="225.056848" y="284.4" style="stroke: #000000; stroke-width: 0.8"/>
      </g>
     </g>
     <g id="text_3">
      <!-- −10000 -->
      <g transform="translate(204.960754 298.998438) scale(0.1 -0.1)">
       <use xlink:href="#DejaVuSans-2212"/>
       <use xlink:href="#DejaVuSans-31" transform="translate(83.789062 0)"/>
       <use xlink:href="#DejaVuSans-30" transform="translate(147.412109 0)"/>
       <use xlink:href="#DejaVuSans-30" transform="translate(211.035156 0)"/>
       <use xlink:href="#DejaVuSans-30" transform="translate(274.658203 0)"/>
       <use xlink:href="#DejaVuSans-30" transform="translate(338.28125 0)"/>
      </g>
     </g>
    </g>
    <g id="xtick_4">
     <g id="line2d_4">
      <g>
       <use xlink:href="#mdfa5452f48" x="314.535505" y="284.4" style="stroke: #000000; stroke-width: 0.8"/>
      </g>
     </g>
     <g id="text_4">
      <!-- −8000 -->
      <g transform="translate(297.620661 298.998438) scale(0.1 -0.1)">
       <defs>
        <path id="DejaVuSans-38" d="M 2034 2216 
Q 1584 2216 1326 1975 
Q 1069 1734 1069 1313 
Q 1069 891 1326 650 
Q 1584 409 2034 409 
Q 2484 409 2743 651 
Q 3003 894 3003 1313 
Q 3003 1734 2745 1975 
Q 2488 2216 2034 2216 
z
M 1403 2484 
Q 997 2584 770 2862 
Q 544 3141 544 3541 
Q 544 4100 942 4425 
Q 1341 4750 2034 4750 
Q 2731 4750 3128 4425 
Q 3525 4100 3525 3541 
Q 3525 3141 3298 2862 
Q 3072 2584 2669 2484 
Q 3125 2378 3379 2068 
Q 3634 1759 3634 1313 
Q 3634 634 3220 271 
Q 2806 -91 2034 -91 
Q 1263 -91 848 271 
Q 434 634 434 1313 
Q 434 1759 690 2068 
Q 947 2378 1403 2484 
z
M 1172 3481 
Q 1172 3119 1398 2916 
Q 1625 2713 2034 2713 
Q 2441 2713 2670 2916 
Q 2900 3119 2900 3481 
Q 2900 3844 2670 4047 
Q 2441 4250 2034 4250 
Q 1625 4250 1398 4047 
Q 1172 3844 1172 3481 
z
" transform="scale(0.015625)"/>
       </defs>
       <use xlink:href="#DejaVuSans-2212"/>
       <use xlink:href="#DejaVuSans-38" transform="translate(83.789062 0)"/>
       <use xlink:href="#DejaVuSans-30" transform="translate(147.412109 0)"/>
       <use xlink:href="#DejaVuSans-30" transform="translate(211.035156 0)"/>
       <use xlink:href="#DejaVuSans-30" transform="translate(274.658203 0)"/>
      </g>
     </g>
    </g>
    <g id="xtick_5">
     <g id="line2d_5">
      <g>
       <use xlink:href="#mdfa5452f48" x="404.014162" y="284.4" style="stroke: #000000; stroke-width: 0.8"/>
      </g>
     </g>
     <g id="text_5">
      <!-- −6000 -->
      <g transform="translate(387.099318 298.998438) scale(0.1 -0.1)">
       <defs>
        <path id="DejaVuSans-36" d="M 2113 2584 
Q 1688 2584 1439 2293 
Q 1191 2003 1191 1497 
Q 1191 994 1439 701 
Q 1688 409 2113 409 
Q 2538 409 2786 701 
Q 3034 994 3034 1497 
Q 3034 2003 2786 2293 
Q 2538 2584 2113 2584 
z
M 3366 4563 
L 3366 3988 
Q 3128 4100 2886 4159 
Q 2644 4219 2406 4219 
Q 1781 4219 1451 3797 
Q 1122 3375 1075 2522 
Q 1259 2794 1537 2939 
Q 1816 3084 2150 3084 
Q 2853 3084 3261 2657 
Q 3669 2231 3669 1497 
Q 3669 778 3244 343 
Q 2819 -91 2113 -91 
Q 1303 -91 875 529 
Q 447 1150 447 2328 
Q 447 3434 972 4092 
Q 1497 4750 2381 4750 
Q 2619 4750 2861 4703 
Q 3103 4656 3366 4563 
z
" transform="scale(0.015625)"/>
       </defs>
       <use xlink:href="#DejaVuSans-2212"/>
       <use xlink:href="#DejaVuSans-36" transform="translate(83.789062 0)"/>
       <use xlink:href="#DejaVuSans-30" transform="translate(147.412109 0)"/>
       <use xlink:href="#DejaVuSans-30" transform="translate(211.035156 0)"/>
       <use xlink:href="#DejaVuSans-30" transform="translate(274.658203 0)"/>
      </g>
     </g>
    </g>
    <g id="xtick_6">
     <g id="line2d_6">
      <g>
       <use xlink:href="#mdfa5452f48" x="493.492819" y="284.4" style="stroke: #000000; stroke-width: 0.8"/>
      </g>
     </g>
     <g id="text_6">
      <!-- −4000 -->
      <g transform="translate(476.577975 298.998438) scale(0.1 -0.1)">
       <use xlink:href="#DejaVuSans-2212"/>
       <use xlink:href="#DejaVuSans-34" transform="translate(83.789062 0)"/>
       <use xlink:href="#DejaVuSans-30" transform="translate(147.412109 0)"/>
       <use xlink:href="#DejaVuSans-30" transform="translate(211.035156 0)"/>
       <use xlink:href="#DejaVuSans-30" transform="translate(274.658203 0)"/>
      </g>
     </g>
    </g>
    <g id="xtick_7">
     <g id="line2d_7">
      <g>
       <use xlink:href="#mdfa5452f48" x="582.971476" y="284.4" style="stroke: #000000; stroke-width: 0.8"/>
      </g>
     </g>
     <g id="text_7">
      <!-- −2000 -->
      <g transform="translate(566.056633 298.998438) scale(0.1 -0.1)">
       <use xlink:href="#DejaVuSans-2212"/>
       <use xlink:href="#DejaVuSans-32" transform="translate(83.789062 0)"/>
       <use xlink:href="#DejaVuSans-30" transform="translate(147.412109 0)"/>
       <use xlink:href="#DejaVuSans-30" transform="translate(211.035156 0)"/>
       <use xlink:href="#DejaVuSans-30" transform="translate(274.658203 0)"/>
      </g>
     </g>
    </g>
    <g id="xtick_8">
     <g id="line2d_8">
      <g>
       <use xlink:href="#mdfa5452f48" x="672.450134" y="284.4" style="stroke: #000000; stroke-width: 0.8"/>
      </g>
     </g>
     <g id="text_8">
      <!-- 0 -->
      <g transform="translate(669.268884 298.998438) scale(0.1 -0.1)">
       <use xlink:href="#DejaVuSans-30"/>
      </g>
     </g>
    </g>
   </g>
   <g id="matplotlib.axis_2">
    <g id="ytick_1">
     <g id="line2d_9">
      <defs>
       <path id="mc589b24733" d="M 0 0 
L -3.5 0 
" style="stroke: #000000; stroke-width: 0.8"/>
      </defs>
      <g>
       <use xlink:href="#mc589b24733" x="36.465625" y="276.356807" style="stroke: #000000; stroke-width: 0.8"/>
      </g>
     </g>
     <g id="text_9">
      <!-- 0.00 -->
      <g transform="translate(7.2 280.156026) scale(0.1 -0.1)">
       <defs>
        <path id="DejaVuSans-2e" d="M 684 794 
L 1344 794 
L 1344 0 
L 684 0 
L 684 794 
z
" transform="scale(0.015625)"/>
       </defs>
       <use xlink:href="#DejaVuSans-30"/>
       <use xlink:href="#DejaVuSans-2e" transform="translate(63.623047 0)"/>
       <use xlink:href="#DejaVuSans-30" transform="translate(95.410156 0)"/>
       <use xlink:href="#DejaVuSans-30" transform="translate(159.033203 0)"/>
      </g>
     </g>
    </g>
    <g id="ytick_2">
     <g id="line2d_10">
      <g>
       <use xlink:href="#mc589b24733" x="36.465625" y="218.106613" style="stroke: #000000; stroke-width: 0.8"/>
      </g>
     </g>
     <g id="text_10">
      <!-- 0.02 -->
      <g transform="translate(7.2 221.905832) scale(0.1 -0.1)">
       <use xlink:href="#DejaVuSans-30"/>
       <use xlink:href="#DejaVuSans-2e" transform="translate(63.623047 0)"/>
       <use xlink:href="#DejaVuSans-30" transform="translate(95.410156 0)"/>
       <use xlink:href="#DejaVuSans-32" transform="translate(159.033203 0)"/>
      </g>
     </g>
    </g>
    <g id="ytick_3">
     <g id="line2d_11">
      <g>
       <use xlink:href="#mc589b24733" x="36.465625" y="159.856419" style="stroke: #000000; stroke-width: 0.8"/>
      </g>
     </g>
     <g id="text_11">
      <!-- 0.04 -->
      <g transform="translate(7.2 163.655638) scale(0.1 -0.1)">
       <use xlink:href="#DejaVuSans-30"/>
       <use xlink:href="#DejaVuSans-2e" transform="translate(63.623047 0)"/>
       <use xlink:href="#DejaVuSans-30" transform="translate(95.410156 0)"/>
       <use xlink:href="#DejaVuSans-34" transform="translate(159.033203 0)"/>
      </g>
     </g>
    </g>
    <g id="ytick_4">
     <g id="line2d_12">
      <g>
       <use xlink:href="#mc589b24733" x="36.465625" y="101.606225" style="stroke: #000000; stroke-width: 0.8"/>
      </g>
     </g>
     <g id="text_12">
      <!-- 0.06 -->
      <g transform="translate(7.2 105.405443) scale(0.1 -0.1)">
       <use xlink:href="#DejaVuSans-30"/>
       <use xlink:href="#DejaVuSans-2e" transform="translate(63.623047 0)"/>
       <use xlink:href="#DejaVuSans-30" transform="translate(95.410156 0)"/>
       <use xlink:href="#DejaVuSans-36" transform="translate(159.033203 0)"/>
      </g>
     </g>
    </g>
    <g id="ytick_5">
     <g id="line2d_13">
      <g>
       <use xlink:href="#mc589b24733" x="36.465625" y="43.35603" style="stroke: #000000; stroke-width: 0.8"/>
      </g>
     </g>
     <g id="text_13">
      <!-- 0.08 -->
      <g transform="translate(7.2 47.155249) scale(0.1 -0.1)">
       <use xlink:href="#DejaVuSans-30"/>
       <use xlink:href="#DejaVuSans-2e" transform="translate(63.623047 0)"/>
       <use xlink:href="#DejaVuSans-30" transform="translate(95.410156 0)"/>
       <use xlink:href="#DejaVuSans-38" transform="translate(159.033203 0)"/>
      </g>
     </g>
    </g>
   </g>
   <g id="line2d_14">
    <path d="M 66.901989 271.8 
L 67.942421 271.652303 
L 69.131487 271.263713 
L 71.583934 270.392361 
L 72.99595 269.901575 
L 73.962066 269.307663 
L 75.076815 268.330981 
L 76.637463 266.638092 
L 77.975162 264.876897 
L 80.501926 261.355493 
L 81.096459 260.950468 
L 81.616675 260.847937 
L 82.136892 260.990459 
L 82.731424 261.429216 
L 83.47459 262.296262 
L 85.332506 264.99309 
L 86.744521 266.775588 
L 88.08222 268.123476 
L 89.196969 268.952557 
L 90.237401 269.456497 
L 92.169633 270.059699 
L 94.84503 270.819702 
L 96.331362 270.9198 
L 100.790358 270.942186 
L 105.175038 270.408989 
L 109.70835 268.694 
L 110.674466 267.960036 
L 111.937848 266.705413 
L 113.42418 264.920922 
L 114.910512 262.745876 
L 116.173895 260.994977 
L 116.842744 260.400919 
L 117.36296 260.192678 
L 117.883176 260.232505 
L 118.403393 260.514704 
L 119.072242 261.180334 
L 120.038358 262.524384 
L 122.342172 265.823803 
L 123.679871 267.311024 
L 124.79462 268.256459 
L 125.835053 268.866115 
L 127.321385 269.438231 
L 130.516998 270.448129 
L 132.151964 270.600747 
L 135.793477 270.717978 
L 140.10384 270.285345 
L 141.813122 269.667756 
L 144.860102 268.4336 
L 145.900535 267.617253 
L 147.163917 266.31475 
L 148.575932 264.549732 
L 150.359531 261.882335 
L 151.325647 260.634982 
L 151.994496 260.114601 
L 152.514712 259.978207 
L 153.034928 260.094373 
L 153.555145 260.448799 
L 154.223994 261.189035 
L 155.338743 262.818272 
L 157.196658 265.497162 
L 158.534357 267.024156 
L 159.649106 267.989352 
L 160.763855 268.654918 
L 162.39882 269.31777 
L 164.851268 270.135882 
L 166.263283 270.329743 
L 169.83048 270.509979 
L 173.471993 270.229844 
L 174.661059 269.949506 
L 177.03919 269.055017 
L 178.674155 268.339996 
L 179.640271 267.65667 
L 180.75502 266.581729 
L 182.167036 264.892243 
L 183.579051 262.847487 
L 185.214016 260.504084 
L 185.882866 259.915749 
L 186.403082 259.72097 
L 186.923298 259.781684 
L 187.443514 260.089794 
L 188.112364 260.790288 
L 189.152796 262.290476 
L 191.233661 265.339644 
L 192.497043 266.791808 
L 193.611792 267.759721 
L 194.726541 268.433203 
L 196.584456 269.228429 
L 198.442371 269.854486 
L 199.854387 270.078443 
L 202.975684 270.281719 
L 205.130865 270.135065 
L 207.43468 269.848037 
L 208.772379 269.400312 
L 211.745043 268.106543 
L 212.785475 267.361982 
L 213.900224 266.262349 
L 215.237923 264.620312 
L 216.724255 262.423201 
L 218.210587 260.276348 
L 218.879436 259.665744 
L 219.399652 259.454512 
L 219.845552 259.479388 
L 220.365768 259.744719 
L 220.960301 260.319078 
L 221.8521 261.547883 
L 224.601814 265.567277 
L 225.79088 266.852382 
L 226.905629 267.736722 
L 228.169011 268.431173 
L 230.398509 269.353739 
L 231.810525 269.71194 
L 233.891389 269.947586 
L 235.897938 270.009788 
L 238.721968 269.766561 
L 240.059667 269.497223 
L 241.545999 268.938703 
L 243.92413 267.812954 
L 244.964563 267.043552 
L 246.079312 265.913657 
L 247.417011 264.217014 
L 248.977659 261.846637 
L 250.315358 259.935783 
L 250.984207 259.346018 
L 251.504424 259.159364 
L 251.950323 259.209228 
L 252.470539 259.505227 
L 253.065072 260.11209 
L 253.956871 261.376286 
L 256.557952 265.236805 
L 257.747018 266.549103 
L 258.861767 267.453295 
L 260.125149 268.179206 
L 262.057381 269.020595 
L 263.469396 269.407849 
L 265.401628 269.658012 
L 267.33386 269.733843 
L 269.637674 269.539045 
L 271.272639 269.24621 
L 272.610338 268.760011 
L 274.839836 267.681234 
L 275.954585 266.896019 
L 276.995018 265.877082 
L 278.2584 264.305473 
L 279.744732 262.072733 
L 281.379697 259.655118 
L 282.048546 259.04965 
L 282.568763 258.85346 
L 283.014662 258.898355 
L 283.534878 259.192887 
L 284.129411 259.803342 
L 285.02121 261.080225 
L 287.622291 264.987132 
L 288.811357 266.304315 
L 289.926106 267.2101 
L 291.263805 267.992498 
L 292.973087 268.745962 
L 294.385102 269.126397 
L 296.317334 269.379792 
L 298.100932 269.42266 
L 300.33043 269.203466 
L 301.816762 268.887076 
L 303.228777 268.329151 
L 305.161009 267.312149 
L 306.275758 266.472168 
L 307.31619 265.399381 
L 308.579573 263.753618 
L 310.140221 261.32249 
L 311.47792 259.350983 
L 312.146769 258.729915 
L 312.666986 258.524602 
L 313.112885 258.565096 
L 313.633101 258.859016 
L 314.227634 259.474193 
L 315.119434 260.765452 
L 317.720515 264.719871 
L 318.90958 266.042287 
L 320.024329 266.952691 
L 321.436345 267.792597 
L 322.996993 268.473391 
L 324.409009 268.837391 
L 326.34124 269.078915 
L 327.976205 269.078398 
L 330.131387 268.818635 
L 331.469086 268.471664 
L 332.881101 267.856732 
L 334.516066 266.916848 
L 335.630815 266.019471 
L 336.671248 264.888895 
L 337.93463 263.164752 
L 341.20456 258.436969 
L 341.724776 258.183544 
L 342.170676 258.184932 
L 342.690892 258.440743 
L 343.285425 259.026815 
L 344.102908 260.187772 
L 347.075572 264.708179 
L 348.190321 265.897861 
L 349.379386 266.830307 
L 350.791402 267.646431 
L 352.203417 268.220136 
L 353.615432 268.548402 
L 355.473347 268.743081 
L 357.033996 268.685312 
L 358.966228 268.386268 
L 360.22961 267.986217 
L 361.641625 267.294117 
L 363.053641 266.381503 
L 364.094073 265.459352 
L 365.208822 264.149012 
L 366.472204 262.302473 
L 369.073285 258.331549 
L 369.667818 257.8809 
L 370.188034 257.773631 
L 370.633934 257.907191 
L 371.15415 258.308208 
L 371.823 259.133951 
L 373.012065 261.046806 
L 374.721347 263.715576 
L 375.910413 265.152094 
L 377.025162 266.156579 
L 378.36286 267.044006 
L 379.700559 267.68223 
L 381.038258 268.076625 
L 382.673223 268.320324 
L 384.159555 268.336725 
L 385.868837 268.122937 
L 387.280852 267.750545 
L 388.544235 267.182297 
L 390.030567 266.256134 
L 391.145316 265.31541 
L 392.185748 264.143597 
L 393.374814 262.454772 
L 396.570427 257.661323 
L 397.090644 257.383146 
L 397.536543 257.371065 
L 397.982443 257.569587 
L 398.502659 258.041308 
L 399.245825 259.05276 
L 402.887338 264.572798 
L 404.002087 265.648875 
L 405.26547 266.551176 
L 406.603168 267.231843 
L 407.940867 267.650157 
L 409.501516 267.891194 
L 410.913531 267.898515 
L 412.548496 267.669637 
L 413.886195 267.279289 
L 415.149577 266.667568 
L 416.487276 265.770488 
L 417.602025 264.765783 
L 418.642458 263.525095 
L 419.831523 261.751916 
L 422.655554 257.349092 
L 423.250087 256.950452 
L 423.695986 256.895734 
L 424.141886 257.057701 
L 424.662102 257.498505 
L 425.330952 258.377534 
L 426.594334 260.496353 
L 428.154982 262.983783 
L 429.269732 264.366269 
L 430.384481 265.41063 
L 431.647863 266.282731 
L 432.911245 266.882347 
L 434.248944 267.25771 
L 435.660959 267.430757 
L 437.072975 267.375491 
L 438.559307 267.090769 
L 439.822689 266.626268 
L 441.086071 265.902376 
L 442.349453 264.911034 
L 443.389886 263.817151 
L 444.504635 262.299079 
L 445.91665 259.949028 
L 447.551615 257.281982 
L 448.220465 256.607432 
L 448.740681 256.38876 
L 449.18658 256.440883 
L 449.63248 256.709329 
L 450.227013 257.357189 
L 451.118812 258.742821 
L 453.645576 262.875014 
L 454.760325 264.19622 
L 455.875074 265.189341 
L 457.06414 265.96305 
L 458.253206 266.479072 
L 459.590904 266.804886 
L 460.928603 266.901447 
L 462.266302 266.769917 
L 463.604001 266.419405 
L 464.793066 265.871344 
L 465.982132 265.068006 
L 467.096881 264.058124 
L 468.137313 262.816579 
L 469.252062 261.132577 
L 472.299043 256.218454 
L 472.819259 255.873324 
L 473.265159 255.816926 
L 473.711058 255.987933 
L 474.231275 256.450919 
L 474.900124 257.370333 
L 476.237823 259.703763 
L 477.724155 262.124933 
L 478.838904 263.528137 
L 479.953653 264.58301 
L 481.068402 265.350285 
L 482.257467 265.893094 
L 483.52085 266.210936 
L 484.784232 266.294964 
L 486.047614 266.14909 
L 487.310996 265.775937 
L 488.425745 265.214546 
L 489.540494 264.40464 
L 490.655243 263.315667 
L 491.695676 261.979769 
L 492.884741 260.058266 
L 495.411506 255.794136 
L 496.006039 255.292746 
L 496.451938 255.173141 
L 496.897838 255.288213 
L 497.418054 255.70178 
L 498.086903 256.588307 
L 499.201652 258.534458 
L 500.910934 261.438056 
L 502.025683 262.890771 
L 503.140432 263.978555 
L 504.255181 264.755505 
L 505.36993 265.262347 
L 506.558996 265.55184 
L 507.748061 265.60362 
L 508.937127 265.421788 
L 510.051876 265.035477 
L 511.092308 264.452029 
L 512.207057 263.557468 
L 513.24749 262.437253 
L 514.287922 260.984341 
L 515.551304 258.791292 
L 517.483536 255.374411 
L 518.152385 254.667059 
L 518.598285 254.463495 
L 519.044185 254.500579 
L 519.490084 254.773724 
L 520.084617 255.454595 
L 520.9021 256.790548 
L 523.428864 261.165632 
L 524.543613 262.54937 
L 525.584045 263.503886 
L 526.624478 264.173175 
L 527.66491 264.593986 
L 528.779659 264.803519 
L 529.894408 264.773946 
L 531.009157 264.509326 
L 532.04959 264.033545 
L 533.090022 263.301196 
L 534.130454 262.286275 
L 535.170887 260.945003 
L 536.285636 259.111695 
L 539.183983 254.057682 
L 539.704199 253.683387 
L 540.150099 253.624773 
L 540.595999 253.814753 
L 541.116215 254.322397 
L 541.785064 255.321116 
L 543.271396 258.092767 
L 544.609095 260.338099 
L 545.649528 261.679079 
L 546.68996 262.668983 
L 547.730392 263.345122 
L 548.770825 263.74517 
L 549.736941 263.887484 
L 550.703056 263.818106 
L 551.743489 263.519689 
L 552.709605 263.017531 
L 553.67572 262.264785 
L 554.716153 261.152289 
L 555.756585 259.690563 
L 556.797018 257.825056 
L 559.100832 253.47639 
L 559.695365 252.849768 
L 560.141265 252.649071 
L 560.587164 252.703481 
L 561.033064 253.011334 
L 561.627597 253.7605 
L 562.519396 255.34751 
L 564.525944 259.004242 
L 565.640693 260.573535 
L 566.606809 261.574202 
L 567.572925 262.255452 
L 568.53904 262.660326 
L 569.43084 262.805866 
L 570.322639 262.737998 
L 571.214438 262.459547 
L 572.180554 261.914282 
L 573.14667 261.097871 
L 574.112785 259.964886 
L 575.078901 258.483475 
L 576.267967 256.211153 
L 578.200198 252.435196 
L 578.794731 251.734038 
L 579.240631 251.488582 
L 579.612214 251.489447 
L 580.058113 251.735509 
L 580.57833 252.324272 
L 581.321496 253.570997 
L 584.145526 258.742075 
L 585.111642 259.926615 
L 586.003441 260.702652 
L 586.895241 261.197823 
L 587.78704 261.433158 
L 588.604522 261.430157 
L 589.496322 261.192956 
L 590.388121 260.703138 
L 591.27992 259.93426 
L 592.171719 258.862785 
L 593.137835 257.337773 
L 594.252584 255.132451 
L 596.333449 250.912212 
L 596.927982 250.238927 
L 597.373881 250.039572 
L 597.745464 250.091507 
L 598.191364 250.406429 
L 598.71158 251.073516 
L 599.529063 252.556477 
L 601.832877 256.951855 
L 602.798993 258.242785 
L 603.690792 259.074752 
L 604.508275 259.549568 
L 605.325758 259.765862 
L 606.068924 259.744563 
L 606.81209 259.51483 
L 607.629572 259.0142 
L 608.447055 258.237239 
L 609.338854 257.052864 
L 610.30497 255.359658 
L 611.494035 252.773949 
L 613.054684 249.401847 
L 613.649217 248.575154 
L 614.095116 248.260941 
L 614.466699 248.226655 
L 614.838282 248.400071 
L 615.284182 248.858346 
L 615.953031 249.94156 
L 617.365047 252.855783 
L 618.554112 255.039529 
L 619.445912 256.25474 
L 620.263394 257.020631 
L 621.00656 257.434035 
L 621.749726 257.586183 
L 622.418576 257.502762 
L 623.087425 257.209378 
L 623.830591 256.629842 
L 624.573757 255.770943 
L 625.39124 254.489797 
L 626.357355 252.527439 
L 629.255703 246.202058 
L 629.701602 245.841779 
L 630.073185 245.784864 
L 630.444768 245.95133 
L 630.890668 246.416372 
L 631.485201 247.381023 
L 632.674266 249.853842 
L 633.863332 252.139761 
L 634.755131 253.393674 
L 635.498297 254.081695 
L 636.167147 254.424339 
L 636.761679 254.506482 
L 637.356212 254.378238 
L 637.950745 254.037395 
L 638.619594 253.394095 
L 639.36276 252.347656 
L 640.180243 250.789435 
L 641.220675 248.228912 
L 643.152907 243.334058 
L 643.74744 242.479488 
L 644.193339 242.210821 
L 644.564922 242.250432 
L 644.936505 242.51884 
L 645.456722 243.216495 
L 646.274204 244.789421 
L 647.909169 247.990469 
L 648.652335 248.983391 
L 649.321185 249.533107 
L 649.915718 249.732648 
L 650.435934 249.668734 
L 650.95615 249.385977 
L 651.550683 248.792646 
L 652.219532 247.776164 
L 652.962698 246.204945 
L 653.854497 243.76737 
L 656.232629 236.907515 
L 656.752845 236.185229 
L 657.124428 235.969791 
L 657.496011 236.00497 
L 657.867594 236.264192 
L 658.38781 236.914344 
L 660.617308 240.11454 
L 661.137524 240.34756 
L 661.583424 240.286329 
L 662.029324 240.049132 
L 662.475223 239.524606 
L 662.995439 238.537155 
L 663.664289 236.757988 
L 664.407455 234.09498 
L 665.893787 226.898113 
L 667.157169 220.639882 
L 669.163717 213.094612 
L 669.683933 210.230339 
L 670.20415 206.02835 
L 670.724366 199.609459 
L 671.170265 190.566884 
L 671.541848 177.730482 
L 671.987748 152.556395 
L 672.433648 111.259532 
L 673.176814 36.630233 
L 673.47408 26.149806 
L 673.771346 22.07055 
L 674.068613 20.594369 
L 674.365879 20.074446 
L 674.737462 19.870638 
L 675.480628 19.801755 
L 675.629261 19.8 
L 675.629261 19.8 
" clip-path="url(#p60f48af504)" style="fill: none; stroke: #1f77b4; stroke-width: 1.5; stroke-linecap: square"/>
   </g>
   <g id="line2d_15">
    <path d="M 36.465625 213.27696 
L 706.065625 213.27696 
" clip-path="url(#p60f48af504)" style="fill: none; stroke-dasharray: 2.22,0.96; stroke-dashoffset: 0; stroke: #ff0000; stroke-width: 0.6"/>
   </g>
   <g id="line2d_16">
    <path d="M 66.901989 271.8 
L 67.942421 271.652303 
L 69.131487 271.263713 
L 71.583934 270.392361 
L 72.99595 269.901575 
L 73.962066 269.307663 
L 75.076815 268.330981 
L 76.637463 266.638092 
L 77.975162 264.876897 
L 80.501926 261.355493 
L 81.096459 260.950468 
L 81.616675 260.847937 
L 82.136892 260.990459 
L 82.731424 261.429216 
L 83.47459 262.296262 
L 85.332506 264.99309 
L 86.744521 266.775588 
L 88.08222 268.123476 
L 89.196969 268.952557 
L 90.237401 269.456497 
L 92.169633 270.059699 
L 94.84503 270.819702 
L 96.331362 270.9198 
L 100.790358 270.942186 
L 105.175038 270.408989 
L 109.70835 268.694 
L 110.674466 267.960036 
L 111.937848 266.705413 
L 113.42418 264.920922 
L 114.910512 262.745876 
L 116.173895 260.994977 
L 116.842744 260.400919 
L 117.36296 260.192678 
L 117.883176 260.232505 
L 118.403393 260.514704 
L 119.072242 261.180334 
L 120.038358 262.524384 
L 122.342172 265.823803 
L 123.679871 267.311024 
L 124.79462 268.256459 
L 125.835053 268.866115 
L 127.321385 269.438231 
L 130.516998 270.448129 
L 132.151964 270.600747 
L 135.793477 270.717978 
L 140.10384 270.285345 
L 141.813122 269.667756 
L 144.860102 268.4336 
L 145.900535 267.617253 
L 147.163917 266.31475 
L 148.575932 264.549732 
L 150.359531 261.882335 
L 151.325647 260.634982 
L 151.994496 260.114601 
L 152.514712 259.978207 
L 153.034928 260.094373 
L 153.555145 260.448799 
L 154.223994 261.189035 
L 155.338743 262.818272 
L 157.196658 265.497162 
L 158.534357 267.024156 
L 159.649106 267.989352 
L 160.763855 268.654918 
L 162.39882 269.31777 
L 164.851268 270.135882 
L 166.263283 270.329743 
L 169.83048 270.509979 
L 173.471993 270.229844 
L 174.661059 269.949506 
L 177.03919 269.055017 
L 178.674155 268.339996 
L 179.640271 267.65667 
L 180.75502 266.581729 
L 182.167036 264.892243 
L 183.579051 262.847487 
L 185.214016 260.504084 
L 185.882866 259.915749 
L 186.403082 259.72097 
L 186.923298 259.781684 
L 187.443514 260.089794 
L 188.112364 260.790288 
L 189.152796 262.290476 
L 191.233661 265.339644 
L 192.497043 266.791808 
L 193.611792 267.759721 
L 194.726541 268.433203 
L 196.584456 269.228429 
L 198.442371 269.854486 
L 199.854387 270.078443 
L 202.975684 270.281719 
L 205.130865 270.135065 
L 207.43468 269.848037 
L 208.772379 269.400312 
L 211.745043 268.106543 
L 212.785475 267.361982 
L 213.900224 266.262349 
L 215.237923 264.620312 
L 216.724255 262.423201 
L 218.210587 260.276348 
L 218.879436 259.665744 
L 219.399652 259.454512 
L 219.845552 259.479388 
L 220.365768 259.744719 
L 220.960301 260.319078 
L 221.8521 261.547883 
L 224.601814 265.567277 
L 225.79088 266.852382 
L 226.905629 267.736722 
L 228.169011 268.431173 
L 230.398509 269.353739 
L 231.810525 269.71194 
L 233.891389 269.947586 
L 235.897938 270.009788 
L 238.721968 269.766561 
L 240.059667 269.497223 
L 241.545999 268.938703 
L 243.92413 267.812954 
L 244.964563 267.043552 
L 246.079312 265.913657 
L 247.417011 264.217014 
L 248.977659 261.846637 
L 250.315358 259.935783 
L 250.984207 259.346018 
L 251.504424 259.159364 
L 251.950323 259.209228 
L 252.470539 259.505227 
L 253.065072 260.11209 
L 253.956871 261.376286 
L 256.557952 265.236805 
L 257.747018 266.549103 
L 258.861767 267.453295 
L 260.125149 268.179206 
L 262.057381 269.020595 
L 263.469396 269.407849 
L 265.401628 269.658012 
L 267.33386 269.733843 
L 269.637674 269.539045 
L 271.272639 269.24621 
L 272.610338 268.760011 
L 274.839836 267.681234 
L 275.954585 266.896019 
L 276.995018 265.877082 
L 278.2584 264.305473 
L 279.744732 262.072733 
L 281.379697 259.655118 
L 282.048546 259.04965 
L 282.568763 258.85346 
L 283.014662 258.898355 
L 283.534878 259.192887 
L 284.129411 259.803342 
L 285.02121 261.080225 
L 287.622291 264.987132 
L 288.811357 266.304315 
L 289.926106 267.2101 
L 291.263805 267.992498 
L 292.973087 268.745962 
L 294.385102 269.126397 
L 296.317334 269.379792 
L 298.100932 269.42266 
L 300.33043 269.203466 
L 301.816762 268.887076 
L 303.228777 268.329151 
L 305.161009 267.312149 
L 306.275758 266.472168 
L 307.31619 265.399381 
L 308.579573 263.753618 
L 310.140221 261.32249 
L 311.47792 259.350983 
L 312.146769 258.729915 
L 312.666986 258.524602 
L 313.112885 258.565096 
L 313.633101 258.859016 
L 314.227634 259.474193 
L 315.119434 260.765452 
L 317.720515 264.719871 
L 318.90958 266.042287 
L 320.024329 266.952691 
L 321.436345 267.792597 
L 322.996993 268.473391 
L 324.409009 268.837391 
L 326.34124 269.078915 
L 327.976205 269.078398 
L 330.131387 268.818635 
L 331.469086 268.471664 
L 332.881101 267.856732 
L 334.516066 266.916848 
L 335.630815 266.019471 
L 336.671248 264.888895 
L 337.93463 263.164752 
L 341.20456 258.436969 
L 341.724776 258.183544 
L 342.170676 258.184932 
L 342.690892 258.440743 
L 343.285425 259.026815 
L 344.102908 260.187772 
L 347.075572 264.708179 
L 348.190321 265.897861 
L 349.379386 266.830307 
L 350.791402 267.646431 
L 352.203417 268.220136 
L 353.615432 268.548402 
L 355.473347 268.743081 
L 357.033996 268.685312 
L 358.966228 268.386268 
L 360.22961 267.986217 
L 361.641625 267.294117 
L 363.053641 266.381503 
L 364.094073 265.459352 
L 365.208822 264.149012 
L 366.472204 262.302473 
L 369.073285 258.331549 
L 369.667818 257.8809 
L 370.188034 257.773631 
L 370.633934 257.907191 
L 371.15415 258.308208 
L 371.823 259.133951 
L 373.012065 261.046806 
L 374.721347 263.715576 
L 375.910413 265.152094 
L 377.025162 266.156579 
L 378.36286 267.044006 
L 379.700559 267.68223 
L 381.038258 268.076625 
L 382.673223 268.320324 
L 384.159555 268.336725 
L 385.868837 268.122937 
L 387.280852 267.750545 
L 388.544235 267.182297 
L 390.030567 266.256134 
L 391.145316 265.31541 
L 392.185748 264.143597 
L 393.374814 262.454772 
L 396.570427 257.661323 
L 397.090644 257.383146 
L 397.536543 257.371065 
L 397.982443 257.569587 
L 398.502659 258.041308 
L 399.245825 259.05276 
L 402.887338 264.572798 
L 404.002087 265.648875 
L 405.26547 266.551176 
L 406.603168 267.231843 
L 407.940867 267.650157 
L 409.501516 267.891194 
L 410.913531 267.898515 
L 412.548496 267.669637 
L 413.886195 267.279289 
L 415.149577 266.667568 
L 416.487276 265.770488 
L 417.602025 264.765783 
L 418.642458 263.525095 
L 419.831523 261.751916 
L 422.655554 257.349092 
L 423.250087 256.950452 
L 423.695986 256.895734 
L 424.141886 257.057701 
L 424.662102 257.498505 
L 425.330952 258.377534 
L 426.594334 260.496353 
L 428.154982 262.983783 
L 429.269732 264.366269 
L 430.384481 265.41063 
L 431.647863 266.282731 
L 432.911245 266.882347 
L 434.248944 267.25771 
L 435.660959 267.430757 
L 437.072975 267.375491 
L 438.559307 267.090769 
L 439.822689 266.626268 
L 441.086071 265.902376 
L 442.349453 264.911034 
L 443.389886 263.817151 
L 444.504635 262.299079 
L 445.91665 259.949028 
L 447.551615 257.281982 
L 448.220465 256.607432 
L 448.740681 256.38876 
L 449.18658 256.440883 
L 449.63248 256.709329 
L 450.227013 257.357189 
L 451.118812 258.742821 
L 453.645576 262.875014 
L 454.760325 264.19622 
L 455.875074 265.189341 
L 457.06414 265.96305 
L 458.253206 266.479072 
L 459.590904 266.804886 
L 460.928603 266.901447 
L 462.266302 266.769917 
L 463.604001 266.419405 
L 464.793066 265.871344 
L 465.982132 265.068006 
L 467.096881 264.058124 
L 468.137313 262.816579 
L 469.252062 261.132577 
L 472.299043 256.218454 
L 472.819259 255.873324 
L 473.265159 255.816926 
L 473.711058 255.987933 
L 474.231275 256.450919 
L 474.900124 257.370333 
L 476.237823 259.703763 
L 477.724155 262.124933 
L 478.838904 263.528137 
L 479.953653 264.58301 
L 481.068402 265.350285 
L 482.257467 265.893094 
L 483.52085 266.210936 
L 484.784232 266.294964 
L 486.047614 266.14909 
L 487.310996 265.775937 
L 488.425745 265.214546 
L 489.540494 264.40464 
L 490.655243 263.315667 
L 491.695676 261.979769 
L 492.884741 260.058266 
L 495.411506 255.794136 
L 496.006039 255.292746 
L 496.451938 255.173141 
L 496.897838 255.288213 
L 497.418054 255.70178 
L 498.086903 256.588307 
L 499.201652 258.534458 
L 500.910934 261.438056 
L 502.025683 262.890771 
L 503.140432 263.978555 
L 504.255181 264.755505 
L 505.36993 265.262347 
L 506.558996 265.55184 
L 507.748061 265.60362 
L 508.937127 265.421788 
L 510.051876 265.035477 
L 511.092308 264.452029 
L 512.207057 263.557468 
L 513.24749 262.437253 
L 514.287922 260.984341 
L 515.551304 258.791292 
L 517.483536 255.374411 
L 518.152385 254.667059 
L 518.598285 254.463495 
L 519.044185 254.500579 
L 519.490084 254.773724 
L 520.084617 255.454595 
L 520.9021 256.790548 
L 523.428864 261.165632 
L 524.543613 262.54937 
L 525.584045 263.503886 
L 526.624478 264.173175 
L 527.66491 264.593986 
L 528.779659 264.803519 
L 529.894408 264.773946 
L 531.009157 264.509326 
L 532.04959 264.033545 
L 533.090022 263.301196 
L 534.130454 262.286275 
L 535.170887 260.945003 
L 536.285636 259.111695 
L 539.183983 254.057682 
L 539.704199 253.683387 
L 540.150099 253.624773 
L 540.595999 253.814753 
L 541.116215 254.322397 
L 541.785064 255.321116 
L 543.271396 258.092767 
L 544.609095 260.338099 
L 545.649528 261.679079 
L 546.68996 262.668983 
L 547.730392 263.345122 
L 548.770825 263.74517 
L 549.736941 263.887484 
L 550.703056 263.818106 
L 551.743489 263.519689 
L 552.709605 263.017531 
L 553.67572 262.264785 
L 554.716153 261.152289 
L 555.756585 259.690563 
L 556.797018 257.825056 
L 559.100832 253.47639 
L 559.695365 252.849768 
L 560.141265 252.649071 
L 560.587164 252.703481 
L 561.033064 253.011334 
L 561.627597 253.7605 
L 562.519396 255.34751 
L 564.525944 259.004242 
L 565.640693 260.573535 
L 566.606809 261.574202 
L 567.572925 262.255452 
L 568.53904 262.660326 
L 569.43084 262.805866 
L 570.322639 262.737998 
L 571.214438 262.459547 
L 572.180554 261.914282 
L 573.14667 261.097871 
L 574.112785 259.964886 
L 575.078901 258.483475 
L 576.267967 256.211153 
L 578.200198 252.435196 
L 578.794731 251.734038 
L 579.240631 251.488582 
L 579.612214 251.489447 
L 580.058113 251.735509 
L 580.57833 252.324272 
L 581.321496 253.570997 
L 584.145526 258.742075 
L 585.111642 259.926615 
L 586.003441 260.702652 
L 586.895241 261.197823 
L 587.78704 261.433158 
L 588.604522 261.430157 
L 589.496322 261.192956 
L 590.388121 260.703138 
L 591.27992 259.93426 
L 592.171719 258.862785 
L 593.137835 257.337773 
L 594.252584 255.132451 
L 596.333449 250.912212 
L 596.927982 250.238927 
L 597.373881 250.039572 
L 597.745464 250.091507 
L 598.191364 250.406429 
L 598.71158 251.073516 
L 599.529063 252.556477 
L 601.832877 256.951855 
L 602.798993 258.242785 
L 603.690792 259.074752 
L 604.508275 259.549568 
L 605.325758 259.765862 
L 606.068924 259.744563 
L 606.81209 259.51483 
L 607.629572 259.0142 
L 608.447055 258.237239 
L 609.338854 257.052864 
L 610.30497 255.359658 
L 611.494035 252.773949 
L 613.054684 249.401847 
L 613.649217 248.575154 
L 614.095116 248.260941 
L 614.466699 248.226655 
L 614.838282 248.400071 
L 615.284182 248.858346 
L 615.953031 249.94156 
L 617.365047 252.855783 
L 618.554112 255.039529 
L 619.445912 256.25474 
L 620.263394 257.020631 
L 621.00656 257.434035 
L 621.749726 257.586183 
L 622.418576 257.502762 
L 623.087425 257.209378 
L 623.830591 256.629842 
L 624.573757 255.770943 
L 625.39124 254.489797 
L 626.357355 252.527439 
L 629.255703 246.202058 
L 629.701602 245.841779 
L 630.073185 245.784864 
L 630.444768 245.95133 
L 630.890668 246.416372 
L 631.485201 247.381023 
L 632.674266 249.853842 
L 633.863332 252.139761 
L 634.755131 253.393674 
L 635.498297 254.081695 
L 636.167147 254.424339 
L 636.761679 254.506482 
L 637.356212 254.378238 
L 637.950745 254.037395 
L 638.619594 253.394095 
L 639.36276 252.347656 
L 640.180243 250.789435 
L 641.220675 248.228912 
L 643.152907 243.334058 
L 643.74744 242.479488 
L 644.193339 242.210821 
L 644.564922 242.250432 
L 644.936505 242.51884 
L 645.456722 243.216495 
L 646.274204 244.789421 
L 647.909169 247.990469 
L 648.652335 248.983391 
L 649.321185 249.533107 
L 649.915718 249.732648 
L 650.435934 249.668734 
L 650.95615 249.385977 
L 651.550683 248.792646 
L 652.219532 247.776164 
L 652.962698 246.204945 
L 653.854497 243.76737 
L 656.232629 236.907515 
L 656.752845 236.185229 
L 657.124428 235.969791 
L 657.496011 236.00497 
L 657.867594 236.264192 
L 658.38781 236.914344 
L 660.617308 240.11454 
L 661.137524 240.34756 
L 661.583424 240.286329 
L 662.029324 240.049132 
L 662.475223 239.524606 
L 662.995439 238.537155 
L 663.664289 236.757988 
L 664.407455 234.09498 
L 665.893787 226.898113 
L 667.157169 220.639882 
L 669.089401 213.426979 
L 669.089401 213.426979 
" clip-path="url(#p60f48af504)" style="fill: none; stroke: #ff7f0e; stroke-width: 1.5; stroke-linecap: square"/>
   </g>
   <g id="patch_3">
    <path d="M 36.465625 284.4 
L 36.465625 7.2 
" style="fill: none; stroke: #000000; stroke-width: 0.8; stroke-linejoin: miter; stroke-linecap: square"/>
   </g>
   <g id="patch_4">
    <path d="M 706.065625 284.4 
L 706.065625 7.2 
" style="fill: none; stroke: #000000; stroke-width: 0.8; stroke-linejoin: miter; stroke-linecap: square"/>
   </g>
   <g id="patch_5">
    <path d="M 36.465625 284.4 
L 706.065625 284.4 
" style="fill: none; stroke: #000000; stroke-width: 0.8; stroke-linejoin: miter; stroke-linecap: square"/>
   </g>
   <g id="patch_6">
    <path d="M 36.465625 7.2 
L 706.065625 7.2 
" style="fill: none; stroke: #000000; stroke-width: 0.8; stroke-linejoin: miter; stroke-linecap: square"/>
   </g>
   <g id="legend_1">
    <g id="patch_7">
     <path d="M 43.465625 73.9125 
L 205.965625 73.9125 
Q 207.965625 73.9125 207.965625 71.9125 
L 207.965625 14.2 
Q 207.965625 12.2 205.965625 12.2 
L 43.465625 12.2 
Q 41.465625 12.2 41.465625 14.2 
L 41.465625 71.9125 
Q 41.465625 73.9125 43.465625 73.9125 
z
" style="fill: #ffffff; opacity: 0.8; stroke: #cccccc; stroke-linejoin: miter"/>
    </g>
    <g id="line2d_17">
     <path d="M 45.465625 20.298438 
L 55.465625 20.298438 
L 65.465625 20.298438 
" style="fill: none; stroke: #1f77b4; stroke-width: 1.5; stroke-linecap: square"/>
    </g>
    <g id="text_14">
     <!-- Mf before ISCO cut: $e$=0.2 -->
     <g transform="translate(73.465625 23.798438) scale(0.1 -0.1)">
      <defs>
       <path id="DejaVuSans-4d" d="M 628 4666 
L 1569 4666 
L 2759 1491 
L 3956 4666 
L 4897 4666 
L 4897 0 
L 4281 0 
L 4281 4097 
L 3078 897 
L 2444 897 
L 1241 4097 
L 1241 0 
L 628 0 
L 628 4666 
z
" transform="scale(0.015625)"/>
       <path id="DejaVuSans-66" d="M 2375 4863 
L 2375 4384 
L 1825 4384 
Q 1516 4384 1395 4259 
Q 1275 4134 1275 3809 
L 1275 3500 
L 2222 3500 
L 2222 3053 
L 1275 3053 
L 1275 0 
L 697 0 
L 697 3053 
L 147 3053 
L 147 3500 
L 697 3500 
L 697 3744 
Q 697 4328 969 4595 
Q 1241 4863 1831 4863 
L 2375 4863 
z
" transform="scale(0.015625)"/>
       <path id="DejaVuSans-20" transform="scale(0.015625)"/>
       <path id="DejaVuSans-62" d="M 3116 1747 
Q 3116 2381 2855 2742 
Q 2594 3103 2138 3103 
Q 1681 3103 1420 2742 
Q 1159 2381 1159 1747 
Q 1159 1113 1420 752 
Q 1681 391 2138 391 
Q 2594 391 2855 752 
Q 3116 1113 3116 1747 
z
M 1159 2969 
Q 1341 3281 1617 3432 
Q 1894 3584 2278 3584 
Q 2916 3584 3314 3078 
Q 3713 2572 3713 1747 
Q 3713 922 3314 415 
Q 2916 -91 2278 -91 
Q 1894 -91 1617 61 
Q 1341 213 1159 525 
L 1159 0 
L 581 0 
L 581 4863 
L 1159 4863 
L 1159 2969 
z
" transform="scale(0.015625)"/>
       <path id="DejaVuSans-65" d="M 3597 1894 
L 3597 1613 
L 953 1613 
Q 991 1019 1311 708 
Q 1631 397 2203 397 
Q 2534 397 2845 478 
Q 3156 559 3463 722 
L 3463 178 
Q 3153 47 2828 -22 
Q 2503 -91 2169 -91 
Q 1331 -91 842 396 
Q 353 884 353 1716 
Q 353 2575 817 3079 
Q 1281 3584 2069 3584 
Q 2775 3584 3186 3129 
Q 3597 2675 3597 1894 
z
M 3022 2063 
Q 3016 2534 2758 2815 
Q 2500 3097 2075 3097 
Q 1594 3097 1305 2825 
Q 1016 2553 972 2059 
L 3022 2063 
z
" transform="scale(0.015625)"/>
       <path id="DejaVuSans-6f" d="M 1959 3097 
Q 1497 3097 1228 2736 
Q 959 2375 959 1747 
Q 959 1119 1226 758 
Q 1494 397 1959 397 
Q 2419 397 2687 759 
Q 2956 1122 2956 1747 
Q 2956 2369 2687 2733 
Q 2419 3097 1959 3097 
z
M 1959 3584 
Q 2709 3584 3137 3096 
Q 3566 2609 3566 1747 
Q 3566 888 3137 398 
Q 2709 -91 1959 -91 
Q 1206 -91 779 398 
Q 353 888 353 1747 
Q 353 2609 779 3096 
Q 1206 3584 1959 3584 
z
" transform="scale(0.015625)"/>
       <path id="DejaVuSans-72" d="M 2631 2963 
Q 2534 3019 2420 3045 
Q 2306 3072 2169 3072 
Q 1681 3072 1420 2755 
Q 1159 2438 1159 1844 
L 1159 0 
L 581 0 
L 581 3500 
L 1159 3500 
L 1159 2956 
Q 1341 3275 1631 3429 
Q 1922 3584 2338 3584 
Q 2397 3584 2469 3576 
Q 2541 3569 2628 3553 
L 2631 2963 
z
" transform="scale(0.015625)"/>
       <path id="DejaVuSans-49" d="M 628 4666 
L 1259 4666 
L 1259 0 
L 628 0 
L 628 4666 
z
" transform="scale(0.015625)"/>
       <path id="DejaVuSans-53" d="M 3425 4513 
L 3425 3897 
Q 3066 4069 2747 4153 
Q 2428 4238 2131 4238 
Q 1616 4238 1336 4038 
Q 1056 3838 1056 3469 
Q 1056 3159 1242 3001 
Q 1428 2844 1947 2747 
L 2328 2669 
Q 3034 2534 3370 2195 
Q 3706 1856 3706 1288 
Q 3706 609 3251 259 
Q 2797 -91 1919 -91 
Q 1588 -91 1214 -16 
Q 841 59 441 206 
L 441 856 
Q 825 641 1194 531 
Q 1563 422 1919 422 
Q 2459 422 2753 634 
Q 3047 847 3047 1241 
Q 3047 1584 2836 1778 
Q 2625 1972 2144 2069 
L 1759 2144 
Q 1053 2284 737 2584 
Q 422 2884 422 3419 
Q 422 4038 858 4394 
Q 1294 4750 2059 4750 
Q 2388 4750 2728 4690 
Q 3069 4631 3425 4513 
z
" transform="scale(0.015625)"/>
       <path id="DejaVuSans-43" d="M 4122 4306 
L 4122 3641 
Q 3803 3938 3442 4084 
Q 3081 4231 2675 4231 
Q 1875 4231 1450 3742 
Q 1025 3253 1025 2328 
Q 1025 1406 1450 917 
Q 1875 428 2675 428 
Q 3081 428 3442 575 
Q 3803 722 4122 1019 
L 4122 359 
Q 3791 134 3420 21 
Q 3050 -91 2638 -91 
Q 1578 -91 968 557 
Q 359 1206 359 2328 
Q 359 3453 968 4101 
Q 1578 4750 2638 4750 
Q 3056 4750 3426 4639 
Q 3797 4528 4122 4306 
z
" transform="scale(0.015625)"/>
       <path id="DejaVuSans-4f" d="M 2522 4238 
Q 1834 4238 1429 3725 
Q 1025 3213 1025 2328 
Q 1025 1447 1429 934 
Q 1834 422 2522 422 
Q 3209 422 3611 934 
Q 4013 1447 4013 2328 
Q 4013 3213 3611 3725 
Q 3209 4238 2522 4238 
z
M 2522 4750 
Q 3503 4750 4090 4092 
Q 4678 3434 4678 2328 
Q 4678 1225 4090 567 
Q 3503 -91 2522 -91 
Q 1538 -91 948 565 
Q 359 1222 359 2328 
Q 359 3434 948 4092 
Q 1538 4750 2522 4750 
z
" transform="scale(0.015625)"/>
       <path id="DejaVuSans-63" d="M 3122 3366 
L 3122 2828 
Q 2878 2963 2633 3030 
Q 2388 3097 2138 3097 
Q 1578 3097 1268 2742 
Q 959 2388 959 1747 
Q 959 1106 1268 751 
Q 1578 397 2138 397 
Q 2388 397 2633 464 
Q 2878 531 3122 666 
L 3122 134 
Q 2881 22 2623 -34 
Q 2366 -91 2075 -91 
Q 1284 -91 818 406 
Q 353 903 353 1747 
Q 353 2603 823 3093 
Q 1294 3584 2113 3584 
Q 2378 3584 2631 3529 
Q 2884 3475 3122 3366 
z
" transform="scale(0.015625)"/>
       <path id="DejaVuSans-75" d="M 544 1381 
L 544 3500 
L 1119 3500 
L 1119 1403 
Q 1119 906 1312 657 
Q 1506 409 1894 409 
Q 2359 409 2629 706 
Q 2900 1003 2900 1516 
L 2900 3500 
L 3475 3500 
L 3475 0 
L 2900 0 
L 2900 538 
Q 2691 219 2414 64 
Q 2138 -91 1772 -91 
Q 1169 -91 856 284 
Q 544 659 544 1381 
z
M 1991 3584 
L 1991 3584 
z
" transform="scale(0.015625)"/>
       <path id="DejaVuSans-74" d="M 1172 4494 
L 1172 3500 
L 2356 3500 
L 2356 3053 
L 1172 3053 
L 1172 1153 
Q 1172 725 1289 603 
Q 1406 481 1766 481 
L 2356 481 
L 2356 0 
L 1766 0 
Q 1100 0 847 248 
Q 594 497 594 1153 
L 594 3053 
L 172 3053 
L 172 3500 
L 594 3500 
L 594 4494 
L 1172 4494 
z
" transform="scale(0.015625)"/>
       <path id="DejaVuSans-3a" d="M 750 794 
L 1409 794 
L 1409 0 
L 750 0 
L 750 794 
z
M 750 3309 
L 1409 3309 
L 1409 2516 
L 750 2516 
L 750 3309 
z
" transform="scale(0.015625)"/>
       <path id="DejaVuSans-Oblique-65" d="M 3078 2063 
Q 3088 2113 3092 2166 
Q 3097 2219 3097 2272 
Q 3097 2653 2873 2875 
Q 2650 3097 2266 3097 
Q 1838 3097 1509 2826 
Q 1181 2556 1013 2059 
L 3078 2063 
z
M 3578 1613 
L 903 1613 
Q 884 1494 878 1425 
Q 872 1356 872 1306 
Q 872 872 1139 634 
Q 1406 397 1894 397 
Q 2269 397 2603 481 
Q 2938 566 3225 728 
L 3116 159 
Q 2806 34 2476 -28 
Q 2147 -91 1806 -91 
Q 1078 -91 686 257 
Q 294 606 294 1247 
Q 294 1794 489 2264 
Q 684 2734 1063 3103 
Q 1306 3334 1642 3459 
Q 1978 3584 2356 3584 
Q 2950 3584 3301 3228 
Q 3653 2872 3653 2272 
Q 3653 2128 3634 1964 
Q 3616 1800 3578 1613 
z
" transform="scale(0.015625)"/>
       <path id="DejaVuSans-3d" d="M 678 2906 
L 4684 2906 
L 4684 2381 
L 678 2381 
L 678 2906 
z
M 678 1631 
L 4684 1631 
L 4684 1100 
L 678 1100 
L 678 1631 
z
" transform="scale(0.015625)"/>
      </defs>
      <use xlink:href="#DejaVuSans-4d" transform="translate(0 0.015625)"/>
      <use xlink:href="#DejaVuSans-66" transform="translate(86.279297 0.015625)"/>
      <use xlink:href="#DejaVuSans-20" transform="translate(121.484375 0.015625)"/>
      <use xlink:href="#DejaVuSans-62" transform="translate(153.271484 0.015625)"/>
      <use xlink:href="#DejaVuSans-65" transform="translate(216.748047 0.015625)"/>
      <use xlink:href="#DejaVuSans-66" transform="translate(278.271484 0.015625)"/>
      <use xlink:href="#DejaVuSans-6f" transform="translate(313.476562 0.015625)"/>
      <use xlink:href="#DejaVuSans-72" transform="translate(374.658203 0.015625)"/>
      <use xlink:href="#DejaVuSans-65" transform="translate(415.771484 0.015625)"/>
      <use xlink:href="#DejaVuSans-20" transform="translate(477.294922 0.015625)"/>
      <use xlink:href="#DejaVuSans-49" transform="translate(509.082031 0.015625)"/>
      <use xlink:href="#DejaVuSans-53" transform="translate(538.574219 0.015625)"/>
      <use xlink:href="#DejaVuSans-43" transform="translate(602.050781 0.015625)"/>
      <use xlink:href="#DejaVuSans-4f" transform="translate(671.875 0.015625)"/>
      <use xlink:href="#DejaVuSans-20" transform="translate(750.585938 0.015625)"/>
      <use xlink:href="#DejaVuSans-63" transform="translate(782.373047 0.015625)"/>
      <use xlink:href="#DejaVuSans-75" transform="translate(837.353516 0.015625)"/>
      <use xlink:href="#DejaVuSans-74" transform="translate(900.732422 0.015625)"/>
      <use xlink:href="#DejaVuSans-3a" transform="translate(939.941406 0.015625)"/>
      <use xlink:href="#DejaVuSans-20" transform="translate(973.632812 0.015625)"/>
      <use xlink:href="#DejaVuSans-Oblique-65" transform="translate(1005.419922 0.015625)"/>
      <use xlink:href="#DejaVuSans-3d" transform="translate(1066.943359 0.015625)"/>
      <use xlink:href="#DejaVuSans-30" transform="translate(1150.732422 0.015625)"/>
      <use xlink:href="#DejaVuSans-2e" transform="translate(1214.355469 0.015625)"/>
      <use xlink:href="#DejaVuSans-32" transform="translate(1240.642578 0.015625)"/>
     </g>
    </g>
    <g id="line2d_18">
     <path d="M 45.465625 34.976563 
L 55.465625 34.976563 
L 65.465625 34.976563 
" style="fill: none; stroke-dasharray: 2.22,0.96; stroke-dashoffset: 0; stroke: #ff0000; stroke-width: 0.6"/>
    </g>
    <g id="text_15">
     <!-- Mf ISCO $e$=0 -->
     <g transform="translate(73.465625 38.476563) scale(0.1 -0.1)">
      <use xlink:href="#DejaVuSans-4d" transform="translate(0 0.015625)"/>
      <use xlink:href="#DejaVuSans-66" transform="translate(86.279297 0.015625)"/>
      <use xlink:href="#DejaVuSans-20" transform="translate(121.484375 0.015625)"/>
      <use xlink:href="#DejaVuSans-49" transform="translate(153.271484 0.015625)"/>
      <use xlink:href="#DejaVuSans-53" transform="translate(182.763672 0.015625)"/>
      <use xlink:href="#DejaVuSans-43" transform="translate(246.240234 0.015625)"/>
      <use xlink:href="#DejaVuSans-4f" transform="translate(316.064453 0.015625)"/>
      <use xlink:href="#DejaVuSans-20" transform="translate(394.775391 0.015625)"/>
      <use xlink:href="#DejaVuSans-Oblique-65" transform="translate(426.5625 0.015625)"/>
      <use xlink:href="#DejaVuSans-3d" transform="translate(488.085938 0.015625)"/>
      <use xlink:href="#DejaVuSans-30" transform="translate(571.875 0.015625)"/>
     </g>
    </g>
    <g id="PathCollection_2">
     <g>
      <use xlink:href="#mc9f6dfe58a" x="55.465625" y="50.529688" style="fill: #ff0000; stroke: #ff0000"/>
     </g>
    </g>
    <g id="text_16">
     <!-- ISCO cut -->
     <g transform="translate(73.465625 53.154688) scale(0.1 -0.1)">
      <use xlink:href="#DejaVuSans-49"/>
      <use xlink:href="#DejaVuSans-53" transform="translate(29.492188 0)"/>
      <use xlink:href="#DejaVuSans-43" transform="translate(92.96875 0)"/>
      <use xlink:href="#DejaVuSans-4f" transform="translate(162.792969 0)"/>
      <use xlink:href="#DejaVuSans-20" transform="translate(241.503906 0)"/>
      <use xlink:href="#DejaVuSans-63" transform="translate(273.291016 0)"/>
      <use xlink:href="#DejaVuSans-75" transform="translate(328.271484 0)"/>
      <use xlink:href="#DejaVuSans-74" transform="translate(391.650391 0)"/>
     </g>
    </g>
    <g id="line2d_19">
     <path d="M 45.465625 64.332813 
L 55.465625 64.332813 
L 65.465625 64.332813 
" style="fill: none; stroke: #ff7f0e; stroke-width: 1.5; stroke-linecap: square"/>
    </g>
    <g id="text_17">
     <!-- Mf after ISCO cut: $e$=0.2  -->
     <g transform="translate(73.465625 67.832813) scale(0.1 -0.1)">
      <defs>
       <path id="DejaVuSans-61" d="M 2194 1759 
Q 1497 1759 1228 1600 
Q 959 1441 959 1056 
Q 959 750 1161 570 
Q 1363 391 1709 391 
Q 2188 391 2477 730 
Q 2766 1069 2766 1631 
L 2766 1759 
L 2194 1759 
z
M 3341 1997 
L 3341 0 
L 2766 0 
L 2766 531 
Q 2569 213 2275 61 
Q 1981 -91 1556 -91 
Q 1019 -91 701 211 
Q 384 513 384 1019 
Q 384 1609 779 1909 
Q 1175 2209 1959 2209 
L 2766 2209 
L 2766 2266 
Q 2766 2663 2505 2880 
Q 2244 3097 1772 3097 
Q 1472 3097 1187 3025 
Q 903 2953 641 2809 
L 641 3341 
Q 956 3463 1253 3523 
Q 1550 3584 1831 3584 
Q 2591 3584 2966 3190 
Q 3341 2797 3341 1997 
z
" transform="scale(0.015625)"/>
      </defs>
      <use xlink:href="#DejaVuSans-4d" transform="translate(0 0.015625)"/>
      <use xlink:href="#DejaVuSans-66" transform="translate(86.279297 0.015625)"/>
      <use xlink:href="#DejaVuSans-20" transform="translate(121.484375 0.015625)"/>
      <use xlink:href="#DejaVuSans-61" transform="translate(153.271484 0.015625)"/>
      <use xlink:href="#DejaVuSans-66" transform="translate(214.550781 0.015625)"/>
      <use xlink:href="#DejaVuSans-74" transform="translate(249.755859 0.015625)"/>
      <use xlink:href="#DejaVuSans-65" transform="translate(288.964844 0.015625)"/>
      <use xlink:href="#DejaVuSans-72" transform="translate(350.488281 0.015625)"/>
      <use xlink:href="#DejaVuSans-20" transform="translate(391.601562 0.015625)"/>
      <use xlink:href="#DejaVuSans-49" transform="translate(423.388672 0.015625)"/>
      <use xlink:href="#DejaVuSans-53" transform="translate(452.880859 0.015625)"/>
      <use xlink:href="#DejaVuSans-43" transform="translate(516.357422 0.015625)"/>
      <use xlink:href="#DejaVuSans-4f" transform="translate(586.181641 0.015625)"/>
      <use xlink:href="#DejaVuSans-20" transform="translate(664.892578 0.015625)"/>
      <use xlink:href="#DejaVuSans-63" transform="translate(696.679688 0.015625)"/>
      <use xlink:href="#DejaVuSans-75" transform="translate(751.660156 0.015625)"/>
      <use xlink:href="#DejaVuSans-74" transform="translate(815.039062 0.015625)"/>
      <use xlink:href="#DejaVuSans-3a" transform="translate(854.248047 0.015625)"/>
      <use xlink:href="#DejaVuSans-20" transform="translate(887.939453 0.015625)"/>
      <use xlink:href="#DejaVuSans-Oblique-65" transform="translate(919.726562 0.015625)"/>
      <use xlink:href="#DejaVuSans-3d" transform="translate(981.25 0.015625)"/>
      <use xlink:href="#DejaVuSans-30" transform="translate(1065.039062 0.015625)"/>
      <use xlink:href="#DejaVuSans-2e" transform="translate(1128.662109 0.015625)"/>
      <use xlink:href="#DejaVuSans-32" transform="translate(1154.949219 0.015625)"/>
      <use xlink:href="#DejaVuSans-20" transform="translate(1218.572266 0.015625)"/>
     </g>
    </g>
   </g>
  </g>
 </g>
 <defs>
  <clipPath id="p60f48af504">
   <rect x="36.465625" y="7.2" width="669.6" height="277.2"/>
  </clipPath>
 </defs>
</svg>
