<?xml version="1.0" encoding="utf-8" standalone="no"?>
<!DOCTYPE svg PUBLIC "-//W3C//DTD SVG 1.1//EN"
  "http://www.w3.org/Graphics/SVG/1.1/DTD/svg11.dtd">
<svg xmlns:xlink="http://www.w3.org/1999/xlink" width="715.282813pt" height="308.278125pt" viewBox="0 0 715.282813 308.278125" xmlns="http://www.w3.org/2000/svg" version="1.1">
 <metadata>
  <rdf:RDF xmlns:dc="http://purl.org/dc/elements/1.1/" xmlns:cc="http://creativecommons.org/ns#" xmlns:rdf="http://www.w3.org/1999/02/22-rdf-syntax-ns#">
   <cc:Work>
    <dc:type rdf:resource="http://purl.org/dc/dcmitype/StillImage"/>
    <dc:date>2025-07-25T16:34:07.067164</dc:date>
    <dc:format>image/svg+xml</dc:format>
    <dc:creator>
     <cc:Agent>
      <dc:title>Matplotlib v3.10.3, https://matplotlib.org/</dc:title>
     </cc:Agent>
    </dc:creator>
   </cc:Work>
  </rdf:RDF>
 </metadata>
 <defs>
  <style type="text/css">*{stroke-linejoin: round; stroke-linecap: butt}</style>
 </defs>
 <g id="figure_1">
  <g id="patch_1">
   <path d="M 0 308.278125 
L 715.282813 308.278125 
L 715.282813 0 
L 0 0 
z
" style="fill: #ffffff"/>
  </g>
  <g id="axes_1">
   <g id="patch_2">
    <path d="M 38.482813 284.4 
L 708.082813 284.4 
L 708.082813 7.2 
L 38.482813 7.2 
z
" style="fill: #ffffff"/>
   </g>
   <g id="PathCollection_1">
    <defs>
     <path id="m3f79e69548" d="M 0 1.224745 
C 0.324806 1.224745 0.636353 1.095698 0.866025 0.866025 
C 1.095698 0.636353 1.224745 0.324806 1.224745 0 
C 1.224745 -0.324806 1.095698 -0.636353 0.866025 -0.866025 
C 0.636353 -1.095698 0.324806 -1.224745 0 -1.224745 
C -0.324806 -1.224745 -0.636353 -1.095698 -0.866025 -0.866025 
C -1.095698 -0.636353 -1.224745 -0.324806 -1.224745 0 
C -1.224745 0.324806 -1.095698 0.636353 -0.866025 0.866025 
C -0.636353 1.095698 -0.324806 1.224745 0 1.224745 
z
" style="stroke: #ff0000"/>
    </defs>
    <g clip-path="url(#pe9490dde82)">
     <use xlink:href="#m3f79e69548" x="69.216443" y="121.52325" style="fill: #ff0000; stroke: #ff0000"/>
    </g>
   </g>
   <g id="matplotlib.axis_1">
    <g id="xtick_1">
     <g id="line2d_1">
      <defs>
       <path id="mf2ed99acbb" d="M 0 0 
L 0 3.5 
" style="stroke: #000000; stroke-width: 0.8"/>
      </defs>
      <g>
       <use xlink:href="#mf2ed99acbb" x="48.116721" y="284.4" style="stroke: #000000; stroke-width: 0.8"/>
      </g>
     </g>
     <g id="text_1">
      <!-- −14000 -->
      <g transform="translate(28.020627 298.998438) scale(0.1 -0.1)">
       <defs>
        <path id="DejaVuSans-2212" d="M 678 2272 
L 4684 2272 
L 4684 1741 
L 678 1741 
L 678 2272 
z
" transform="scale(0.015625)"/>
        <path id="DejaVuSans-31" d="M 794 531 
L 1825 531 
L 1825 4091 
L 703 3866 
L 703 4441 
L 1819 4666 
L 2450 4666 
L 2450 531 
L 3481 531 
L 3481 0 
L 794 0 
L 794 531 
z
" transform="scale(0.015625)"/>
        <path id="DejaVuSans-34" d="M 2419 4116 
L 825 1625 
L 2419 1625 
L 2419 4116 
z
M 2253 4666 
L 3047 4666 
L 3047 1625 
L 3713 1625 
L 3713 1100 
L 3047 1100 
L 3047 0 
L 2419 0 
L 2419 1100 
L 313 1100 
L 313 1709 
L 2253 4666 
z
" transform="scale(0.015625)"/>
        <path id="DejaVuSans-30" d="M 2034 4250 
Q 1547 4250 1301 3770 
Q 1056 3291 1056 2328 
Q 1056 1369 1301 889 
Q 1547 409 2034 409 
Q 2525 409 2770 889 
Q 3016 1369 3016 2328 
Q 3016 3291 2770 3770 
Q 2525 4250 2034 4250 
z
M 2034 4750 
Q 2819 4750 3233 4129 
Q 3647 3509 3647 2328 
Q 3647 1150 3233 529 
Q 2819 -91 2034 -91 
Q 1250 -91 836 529 
Q 422 1150 422 2328 
Q 422 3509 836 4129 
Q 1250 4750 2034 4750 
z
" transform="scale(0.015625)"/>
       </defs>
       <use xlink:href="#DejaVuSans-2212"/>
       <use xlink:href="#DejaVuSans-31" transform="translate(83.789062 0)"/>
       <use xlink:href="#DejaVuSans-34" transform="translate(147.412109 0)"/>
       <use xlink:href="#DejaVuSans-30" transform="translate(211.035156 0)"/>
       <use xlink:href="#DejaVuSans-30" transform="translate(274.658203 0)"/>
       <use xlink:href="#DejaVuSans-30" transform="translate(338.28125 0)"/>
      </g>
     </g>
    </g>
    <g id="xtick_2">
     <g id="line2d_2">
      <g>
       <use xlink:href="#mf2ed99acbb" x="137.595378" y="284.4" style="stroke: #000000; stroke-width: 0.8"/>
      </g>
     </g>
     <g id="text_2">
      <!-- −12000 -->
      <g transform="translate(117.499284 298.998438) scale(0.1 -0.1)">
       <defs>
        <path id="DejaVuSans-32" d="M 1228 531 
L 3431 531 
L 3431 0 
L 469 0 
L 469 531 
Q 828 903 1448 1529 
Q 2069 2156 2228 2338 
Q 2531 2678 2651 2914 
Q 2772 3150 2772 3378 
Q 2772 3750 2511 3984 
Q 2250 4219 1831 4219 
Q 1534 4219 1204 4116 
Q 875 4013 500 3803 
L 500 4441 
Q 881 4594 1212 4672 
Q 1544 4750 1819 4750 
Q 2544 4750 2975 4387 
Q 3406 4025 3406 3419 
Q 3406 3131 3298 2873 
Q 3191 2616 2906 2266 
Q 2828 2175 2409 1742 
Q 1991 1309 1228 531 
z
" transform="scale(0.015625)"/>
       </defs>
       <use xlink:href="#DejaVuSans-2212"/>
       <use xlink:href="#DejaVuSans-31" transform="translate(83.789062 0)"/>
       <use xlink:href="#DejaVuSans-32" transform="translate(147.412109 0)"/>
       <use xlink:href="#DejaVuSans-30" transform="translate(211.035156 0)"/>
       <use xlink:href="#DejaVuSans-30" transform="translate(274.658203 0)"/>
       <use xlink:href="#DejaVuSans-30" transform="translate(338.28125 0)"/>
      </g>
     </g>
    </g>
    <g id="xtick_3">
     <g id="line2d_3">
      <g>
       <use xlink:href="#mf2ed99acbb" x="227.074035" y="284.4" style="stroke: #000000; stroke-width: 0.8"/>
      </g>
     </g>
     <g id="text_3">
      <!-- −10000 -->
      <g transform="translate(206.977941 298.998438) scale(0.1 -0.1)">
       <use xlink:href="#DejaVuSans-2212"/>
       <use xlink:href="#DejaVuSans-31" transform="translate(83.789062 0)"/>
       <use xlink:href="#DejaVuSans-30" transform="translate(147.412109 0)"/>
       <use xlink:href="#DejaVuSans-30" transform="translate(211.035156 0)"/>
       <use xlink:href="#DejaVuSans-30" transform="translate(274.658203 0)"/>
       <use xlink:href="#DejaVuSans-30" transform="translate(338.28125 0)"/>
      </g>
     </g>
    </g>
    <g id="xtick_4">
     <g id="line2d_4">
      <g>
       <use xlink:href="#mf2ed99acbb" x="316.552692" y="284.4" style="stroke: #000000; stroke-width: 0.8"/>
      </g>
     </g>
     <g id="text_4">
      <!-- −8000 -->
      <g transform="translate(299.637849 298.998438) scale(0.1 -0.1)">
       <defs>
        <path id="DejaVuSans-38" d="M 2034 2216 
Q 1584 2216 1326 1975 
Q 1069 1734 1069 1313 
Q 1069 891 1326 650 
Q 1584 409 2034 409 
Q 2484 409 2743 651 
Q 3003 894 3003 1313 
Q 3003 1734 2745 1975 
Q 2488 2216 2034 2216 
z
M 1403 2484 
Q 997 2584 770 2862 
Q 544 3141 544 3541 
Q 544 4100 942 4425 
Q 1341 4750 2034 4750 
Q 2731 4750 3128 4425 
Q 3525 4100 3525 3541 
Q 3525 3141 3298 2862 
Q 3072 2584 2669 2484 
Q 3125 2378 3379 2068 
Q 3634 1759 3634 1313 
Q 3634 634 3220 271 
Q 2806 -91 2034 -91 
Q 1263 -91 848 271 
Q 434 634 434 1313 
Q 434 1759 690 2068 
Q 947 2378 1403 2484 
z
M 1172 3481 
Q 1172 3119 1398 2916 
Q 1625 2713 2034 2713 
Q 2441 2713 2670 2916 
Q 2900 3119 2900 3481 
Q 2900 3844 2670 4047 
Q 2441 4250 2034 4250 
Q 1625 4250 1398 4047 
Q 1172 3844 1172 3481 
z
" transform="scale(0.015625)"/>
       </defs>
       <use xlink:href="#DejaVuSans-2212"/>
       <use xlink:href="#DejaVuSans-38" transform="translate(83.789062 0)"/>
       <use xlink:href="#DejaVuSans-30" transform="translate(147.412109 0)"/>
       <use xlink:href="#DejaVuSans-30" transform="translate(211.035156 0)"/>
       <use xlink:href="#DejaVuSans-30" transform="translate(274.658203 0)"/>
      </g>
     </g>
    </g>
    <g id="xtick_5">
     <g id="line2d_5">
      <g>
       <use xlink:href="#mf2ed99acbb" x="406.03135" y="284.4" style="stroke: #000000; stroke-width: 0.8"/>
      </g>
     </g>
     <g id="text_5">
      <!-- −6000 -->
      <g transform="translate(389.116506 298.998438) scale(0.1 -0.1)">
       <defs>
        <path id="DejaVuSans-36" d="M 2113 2584 
Q 1688 2584 1439 2293 
Q 1191 2003 1191 1497 
Q 1191 994 1439 701 
Q 1688 409 2113 409 
Q 2538 409 2786 701 
Q 3034 994 3034 1497 
Q 3034 2003 2786 2293 
Q 2538 2584 2113 2584 
z
M 3366 4563 
L 3366 3988 
Q 3128 4100 2886 4159 
Q 2644 4219 2406 4219 
Q 1781 4219 1451 3797 
Q 1122 3375 1075 2522 
Q 1259 2794 1537 2939 
Q 1816 3084 2150 3084 
Q 2853 3084 3261 2657 
Q 3669 2231 3669 1497 
Q 3669 778 3244 343 
Q 2819 -91 2113 -91 
Q 1303 -91 875 529 
Q 447 1150 447 2328 
Q 447 3434 972 4092 
Q 1497 4750 2381 4750 
Q 2619 4750 2861 4703 
Q 3103 4656 3366 4563 
z
" transform="scale(0.015625)"/>
       </defs>
       <use xlink:href="#DejaVuSans-2212"/>
       <use xlink:href="#DejaVuSans-36" transform="translate(83.789062 0)"/>
       <use xlink:href="#DejaVuSans-30" transform="translate(147.412109 0)"/>
       <use xlink:href="#DejaVuSans-30" transform="translate(211.035156 0)"/>
       <use xlink:href="#DejaVuSans-30" transform="translate(274.658203 0)"/>
      </g>
     </g>
    </g>
    <g id="xtick_6">
     <g id="line2d_6">
      <g>
       <use xlink:href="#mf2ed99acbb" x="495.510007" y="284.4" style="stroke: #000000; stroke-width: 0.8"/>
      </g>
     </g>
     <g id="text_6">
      <!-- −4000 -->
      <g transform="translate(478.595163 298.998438) scale(0.1 -0.1)">
       <use xlink:href="#DejaVuSans-2212"/>
       <use xlink:href="#DejaVuSans-34" transform="translate(83.789062 0)"/>
       <use xlink:href="#DejaVuSans-30" transform="translate(147.412109 0)"/>
       <use xlink:href="#DejaVuSans-30" transform="translate(211.035156 0)"/>
       <use xlink:href="#DejaVuSans-30" transform="translate(274.658203 0)"/>
      </g>
     </g>
    </g>
    <g id="xtick_7">
     <g id="line2d_7">
      <g>
       <use xlink:href="#mf2ed99acbb" x="584.988664" y="284.4" style="stroke: #000000; stroke-width: 0.8"/>
      </g>
     </g>
     <g id="text_7">
      <!-- −2000 -->
      <g transform="translate(568.07382 298.998438) scale(0.1 -0.1)">
       <use xlink:href="#DejaVuSans-2212"/>
       <use xlink:href="#DejaVuSans-32" transform="translate(83.789062 0)"/>
       <use xlink:href="#DejaVuSans-30" transform="translate(147.412109 0)"/>
       <use xlink:href="#DejaVuSans-30" transform="translate(211.035156 0)"/>
       <use xlink:href="#DejaVuSans-30" transform="translate(274.658203 0)"/>
      </g>
     </g>
    </g>
    <g id="xtick_8">
     <g id="line2d_8">
      <g>
       <use xlink:href="#mf2ed99acbb" x="674.467321" y="284.4" style="stroke: #000000; stroke-width: 0.8"/>
      </g>
     </g>
     <g id="text_8">
      <!-- 0 -->
      <g transform="translate(671.286071 298.998438) scale(0.1 -0.1)">
       <use xlink:href="#DejaVuSans-30"/>
      </g>
     </g>
    </g>
   </g>
   <g id="matplotlib.axis_2">
    <g id="ytick_1">
     <g id="line2d_9">
      <defs>
       <path id="me938940ef1" d="M 0 0 
L -3.5 0 
" style="stroke: #000000; stroke-width: 0.8"/>
      </defs>
      <g>
       <use xlink:href="#me938940ef1" x="38.482813" y="272.733707" style="stroke: #000000; stroke-width: 0.8"/>
      </g>
     </g>
     <g id="text_9">
      <!-- −0.3 -->
      <g transform="translate(7.2 276.532926) scale(0.1 -0.1)">
       <defs>
        <path id="DejaVuSans-2e" d="M 684 794 
L 1344 794 
L 1344 0 
L 684 0 
L 684 794 
z
" transform="scale(0.015625)"/>
        <path id="DejaVuSans-33" d="M 2597 2516 
Q 3050 2419 3304 2112 
Q 3559 1806 3559 1356 
Q 3559 666 3084 287 
Q 2609 -91 1734 -91 
Q 1441 -91 1130 -33 
Q 819 25 488 141 
L 488 750 
Q 750 597 1062 519 
Q 1375 441 1716 441 
Q 2309 441 2620 675 
Q 2931 909 2931 1356 
Q 2931 1769 2642 2001 
Q 2353 2234 1838 2234 
L 1294 2234 
L 1294 2753 
L 1863 2753 
Q 2328 2753 2575 2939 
Q 2822 3125 2822 3475 
Q 2822 3834 2567 4026 
Q 2313 4219 1838 4219 
Q 1578 4219 1281 4162 
Q 984 4106 628 3988 
L 628 4550 
Q 988 4650 1302 4700 
Q 1616 4750 1894 4750 
Q 2613 4750 3031 4423 
Q 3450 4097 3450 3541 
Q 3450 3153 3228 2886 
Q 3006 2619 2597 2516 
z
" transform="scale(0.015625)"/>
       </defs>
       <use xlink:href="#DejaVuSans-2212"/>
       <use xlink:href="#DejaVuSans-30" transform="translate(83.789062 0)"/>
       <use xlink:href="#DejaVuSans-2e" transform="translate(147.412109 0)"/>
       <use xlink:href="#DejaVuSans-33" transform="translate(179.199219 0)"/>
      </g>
     </g>
    </g>
    <g id="ytick_2">
     <g id="line2d_10">
      <g>
       <use xlink:href="#me938940ef1" x="38.482813" y="230.532237" style="stroke: #000000; stroke-width: 0.8"/>
      </g>
     </g>
     <g id="text_10">
      <!-- −0.2 -->
      <g transform="translate(7.2 234.331455) scale(0.1 -0.1)">
       <use xlink:href="#DejaVuSans-2212"/>
       <use xlink:href="#DejaVuSans-30" transform="translate(83.789062 0)"/>
       <use xlink:href="#DejaVuSans-2e" transform="translate(147.412109 0)"/>
       <use xlink:href="#DejaVuSans-32" transform="translate(179.199219 0)"/>
      </g>
     </g>
    </g>
    <g id="ytick_3">
     <g id="line2d_11">
      <g>
       <use xlink:href="#me938940ef1" x="38.482813" y="188.330766" style="stroke: #000000; stroke-width: 0.8"/>
      </g>
     </g>
     <g id="text_11">
      <!-- −0.1 -->
      <g transform="translate(7.2 192.129985) scale(0.1 -0.1)">
       <use xlink:href="#DejaVuSans-2212"/>
       <use xlink:href="#DejaVuSans-30" transform="translate(83.789062 0)"/>
       <use xlink:href="#DejaVuSans-2e" transform="translate(147.412109 0)"/>
       <use xlink:href="#DejaVuSans-31" transform="translate(179.199219 0)"/>
      </g>
     </g>
    </g>
    <g id="ytick_4">
     <g id="line2d_12">
      <g>
       <use xlink:href="#me938940ef1" x="38.482813" y="146.129295" style="stroke: #000000; stroke-width: 0.8"/>
      </g>
     </g>
     <g id="text_12">
      <!-- 0.0 -->
      <g transform="translate(15.579688 149.928514) scale(0.1 -0.1)">
       <use xlink:href="#DejaVuSans-30"/>
       <use xlink:href="#DejaVuSans-2e" transform="translate(63.623047 0)"/>
       <use xlink:href="#DejaVuSans-30" transform="translate(95.410156 0)"/>
      </g>
     </g>
    </g>
    <g id="ytick_5">
     <g id="line2d_13">
      <g>
       <use xlink:href="#me938940ef1" x="38.482813" y="103.927825" style="stroke: #000000; stroke-width: 0.8"/>
      </g>
     </g>
     <g id="text_13">
      <!-- 0.1 -->
      <g transform="translate(15.579688 107.727044) scale(0.1 -0.1)">
       <use xlink:href="#DejaVuSans-30"/>
       <use xlink:href="#DejaVuSans-2e" transform="translate(63.623047 0)"/>
       <use xlink:href="#DejaVuSans-31" transform="translate(95.410156 0)"/>
      </g>
     </g>
    </g>
    <g id="ytick_6">
     <g id="line2d_14">
      <g>
       <use xlink:href="#me938940ef1" x="38.482813" y="61.726354" style="stroke: #000000; stroke-width: 0.8"/>
      </g>
     </g>
     <g id="text_14">
      <!-- 0.2 -->
      <g transform="translate(15.579688 65.525573) scale(0.1 -0.1)">
       <use xlink:href="#DejaVuSans-30"/>
       <use xlink:href="#DejaVuSans-2e" transform="translate(63.623047 0)"/>
       <use xlink:href="#DejaVuSans-32" transform="translate(95.410156 0)"/>
      </g>
     </g>
    </g>
    <g id="ytick_7">
     <g id="line2d_15">
      <g>
       <use xlink:href="#me938940ef1" x="38.482813" y="19.524884" style="stroke: #000000; stroke-width: 0.8"/>
      </g>
     </g>
     <g id="text_15">
      <!-- 0.3 -->
      <g transform="translate(15.579688 23.324102) scale(0.1 -0.1)">
       <use xlink:href="#DejaVuSans-30"/>
       <use xlink:href="#DejaVuSans-2e" transform="translate(63.623047 0)"/>
       <use xlink:href="#DejaVuSans-33" transform="translate(95.410156 0)"/>
      </g>
     </g>
    </g>
   </g>
   <g id="line2d_16">
    <path d="M 68.919176 238.055712 
L 69.067809 219.543779 
L 69.142126 221.165045 
L 69.365076 26.051315 
L 69.588026 61.742897 
L 69.662342 45.33492 
L 69.810975 162.674742 
L 69.885292 148.393982 
L 70.033925 204.298877 
L 70.108242 196.815333 
L 70.182558 108.433368 
L 70.256875 112.145239 
L 70.479825 211.293307 
L 70.554141 174.286999 
L 70.628458 184.630395 
L 70.702775 190.670141 
L 70.777091 176.791206 
L 70.851408 127.08897 
L 70.925724 142.812211 
L 71.074358 219.387845 
L 71.222991 133.795631 
L 71.297307 161.803 
L 71.371624 206.80533 
L 71.520257 170.095834 
L 71.594574 217.518286 
L 71.66889 211.447273 
L 71.743207 138.483631 
L 71.89184 189.311191 
L 71.966157 95.849706 
L 72.040473 169.170248 
L 72.11479 167.316188 
L 72.33774 75.45033 
L 72.486373 168.531473 
L 72.635006 118.243743 
L 72.783639 238.369206 
L 72.857956 178.967153 
L 72.932273 145.449626 
L 73.080906 183.060424 
L 73.229539 63.104224 
L 73.378172 161.519428 
L 73.526805 125.942997 
L 73.675439 249.08105 
L 73.749755 188.688017 
L 73.824072 151.120245 
L 73.898388 165.517107 
L 73.972705 150.610593 
L 74.047022 190.979143 
L 74.195655 143.989187 
L 74.344288 236.820917 
L 74.492921 91.894325 
L 74.567238 96.341121 
L 74.715871 176.224163 
L 74.790188 244.317722 
L 75.087454 67.972752 
L 75.161771 160.246802 
L 75.236087 116.779759 
L 75.310404 35.70848 
L 75.459037 194.201215 
L 75.533354 171.597911 
L 75.60767 180.169932 
L 75.681987 252.058356 
L 75.756303 218.539563 
L 75.904937 110.217278 
L 76.127886 255.784875 
L 76.27652 215.619576 
L 76.350836 117.033713 
L 76.425153 121.501457 
L 76.499469 219.443137 
L 76.573786 176.228402 
L 76.648103 149.624259 
L 76.722419 186.43605 
L 76.871052 120.431564 
L 76.945369 225.859925 
L 77.094002 124.376875 
L 77.168319 169.925187 
L 77.316952 63.762893 
L 77.465585 213.655706 
L 77.539902 202.373273 
L 77.614218 153.893059 
L 77.688535 170.837504 
L 77.762852 181.441214 
L 77.911485 44.012861 
L 78.060118 103.130112 
L 78.134435 57.925701 
L 78.283068 207.311284 
L 78.431701 170.918069 
L 78.506018 185.328943 
L 78.580334 228.971388 
L 78.728967 69.827705 
L 78.951917 140.86939 
L 79.10055 109.062809 
L 79.249184 265.422184 
L 79.3235 206.906937 
L 79.472133 169.520162 
L 79.54645 168.361828 
L 79.695083 269.462431 
L 79.918033 87.833092 
L 79.99235 165.127547 
L 80.066666 153.956709 
L 80.140983 145.603237 
L 80.289616 241.49594 
L 80.363933 199.12097 
L 80.438249 215.672521 
L 80.512566 220.466239 
L 80.586882 104.410844 
L 80.661199 124.788781 
L 80.809832 181.229676 
L 80.884149 149.830175 
L 80.958465 150.102716 
L 81.181415 268.872836 
L 81.330048 108.573553 
L 81.478682 165.272787 
L 81.552998 134.939217 
L 81.627315 55.480585 
L 81.775948 180.538461 
L 81.850265 175.095392 
L 81.998898 139.126464 
L 82.147531 248.66767 
L 82.593431 42.719466 
L 82.742064 193.216688 
L 82.81638 131.213296 
L 82.890697 118.428143 
L 83.03933 149.944742 
L 83.113647 123.117702 
L 83.187963 127.887833 
L 83.336597 145.310591 
L 83.410913 124.701404 
L 83.48523 147.077202 
L 83.559546 235.57139 
L 83.70818 89.93216 
L 83.856813 271.022022 
L 84.154079 64.130086 
L 84.228396 148.93085 
L 84.302712 141.209953 
L 84.377029 106.352424 
L 84.451346 210.625313 
L 84.525662 204.501972 
L 84.599979 184.597424 
L 84.748612 242.00633 
L 84.897245 123.343644 
L 85.045878 228.999485 
L 85.120195 206.757505 
L 85.194512 174.768596 
L 85.343145 216.462209 
L 85.417461 118.646681 
L 85.491778 155.934038 
L 85.566095 161.314016 
L 85.714728 63.541279 
L 85.789044 74.671295 
L 85.863361 188.884273 
L 85.937678 144.924614 
L 86.011994 100.390713 
L 86.086311 117.797153 
L 86.234944 153.465952 
L 86.309261 59.159393 
L 86.383577 147.291783 
L 86.457894 144.68903 
L 86.53221 116.061242 
L 86.680844 225.904734 
L 86.829477 95.080649 
L 86.97811 238.128432 
L 87.052427 231.798123 
L 87.126743 152.222449 
L 87.20106 168.850059 
L 87.275376 182.206667 
L 87.349693 174.252751 
L 87.42401 183.898291 
L 87.498326 166.679721 
L 87.646959 112.121058 
L 87.721276 156.125567 
L 87.795593 145.455242 
L 87.944226 106.234599 
L 88.167176 205.21702 
L 88.241492 176.191357 
L 88.315809 70.93309 
L 88.390125 119.51295 
L 88.464442 132.232827 
L 88.687392 47.715989 
L 88.836025 179.567534 
L 88.910342 170.233404 
L 88.984658 203.282874 
L 89.207608 107.796031 
L 89.356241 183.022609 
L 89.504874 84.264693 
L 89.579191 94.436429 
L 89.727824 230.692544 
L 89.876457 130.634473 
L 89.950774 182.703578 
L 90.099407 64.101077 
L 90.24804 161.286626 
L 90.322357 152.660652 
L 90.396674 146.56311 
L 90.545307 247.078592 
L 90.768257 60.216052 
L 90.842573 72.600399 
L 90.91689 48.365745 
L 91.13984 105.927535 
L 91.214156 155.000138 
L 91.288473 149.97799 
L 91.362789 149.875862 
L 91.511423 255.256845 
L 91.734372 60.659504 
L 91.808689 70.344129 
L 91.957322 169.345422 
L 92.031639 165.364159 
L 92.180272 140.926837 
L 92.254589 195.424424 
L 92.328905 125.600159 
L 92.403222 128.952606 
L 92.477538 135.258099 
L 92.626172 238.187878 
L 92.774805 111.51317 
L 92.997755 199.889349 
L 93.146388 126.16403 
L 93.220704 220.857198 
L 93.369338 90.545621 
L 93.517971 204.799548 
L 93.592287 201.650416 
L 93.815237 92.043169 
L 93.96387 250.342399 
L 94.18682 83.133751 
L 94.261137 98.044877 
L 94.40977 210.918526 
L 94.484087 222.088312 
L 94.707036 96.045234 
L 94.781353 108.711438 
L 94.929986 203.927522 
L 95.078619 140.361848 
L 95.152936 60.097208 
L 95.227253 64.347181 
L 95.375886 200.658618 
L 95.524519 112.636832 
L 95.598836 94.110254 
L 95.747469 253.470683 
L 95.821785 201.73109 
L 96.044735 133.630937 
L 96.193368 239.718743 
L 96.267685 238.599674 
L 96.342002 133.042806 
L 96.416318 153.522861 
L 96.490635 177.280534 
L 96.564951 107.370254 
L 96.639268 119.427554 
L 96.713585 142.699254 
L 96.862218 34.063071 
L 96.936534 79.999151 
L 97.010851 101.989865 
L 97.159484 54.629153 
L 97.308117 149.491999 
L 97.382434 55.35597 
L 97.6797 230.042353 
L 97.90265 55.381338 
L 98.051283 231.01933 
L 98.199917 185.668587 
L 98.34855 27.644061 
L 98.497183 164.244241 
L 98.5715 151.210332 
L 98.720133 79.985918 
L 98.868766 197.838932 
L 99.017399 89.793818 
L 99.166032 166.722992 
L 99.240349 152.382029 
L 99.314666 130.402879 
L 99.388982 174.436261 
L 99.463299 137.305481 
L 99.611932 199.465685 
L 99.760565 51.43743 
L 99.909198 114.000858 
L 99.983515 122.421771 
L 100.280781 224.887251 
L 100.355098 205.954459 
L 100.429415 96.200345 
L 100.503731 124.086223 
L 100.578048 179.169527 
L 100.652364 81.96999 
L 100.726681 99.50497 
L 100.875314 200.797958 
L 100.949631 193.652529 
L 101.023947 204.931146 
L 101.172581 123.016557 
L 101.246897 230.582581 
L 101.321214 227.894708 
L 101.61848 124.29109 
L 101.767113 218.890506 
L 101.84143 197.979505 
L 101.990063 100.11114 
L 102.06438 107.502308 
L 102.213013 67.589053 
L 102.361646 229.489283 
L 102.510279 127.437938 
L 102.584596 139.675713 
L 102.881862 257.997833 
L 103.030496 180.590884 
L 103.104812 227.299167 
L 103.253445 78.396369 
L 103.327762 95.107402 
L 103.402079 80.650054 
L 103.550712 201.327262 
L 103.699345 117.791769 
L 103.773662 165.060467 
L 103.847978 137.556227 
L 103.922295 142.517754 
L 103.996611 179.231784 
L 104.070928 139.094726 
L 104.219561 226.327828 
L 104.368194 92.546894 
L 104.442511 95.603719 
L 104.591144 239.465827 
L 104.739777 150.388905 
L 104.888411 249.855823 
L 104.962727 213.533935 
L 105.037044 198.766467 
L 105.11136 227.669115 
L 105.259994 204.534984 
L 105.33431 126.214556 
L 105.408627 146.218106 
L 105.55726 167.592333 
L 105.631577 141.07358 
L 105.705893 32.10337 
L 105.854526 201.459218 
L 106.00316 84.856415 
L 106.151793 174.824456 
L 106.300426 76.852295 
L 106.449059 153.929506 
L 106.523376 81.88026 
L 106.597692 99.570043 
L 106.672009 87.760349 
L 106.820642 151.752742 
L 106.894959 147.787703 
L 106.969275 232.686285 
L 107.117909 100.054229 
L 107.192225 163.662 
L 107.266542 146.656675 
L 107.415175 188.961654 
L 107.489492 150.027864 
L 107.638125 210.867401 
L 107.712441 214.289725 
L 107.786758 193.602777 
L 107.935391 101.424362 
L 108.009708 181.730368 
L 108.084024 164.152537 
L 108.158341 93.768135 
L 108.232658 126.463719 
L 108.306974 163.313019 
L 108.455607 60.102517 
L 108.529924 84.439557 
L 108.678557 43.23228 
L 108.901507 86.823576 
L 109.05014 42.220191 
L 109.198773 176.688642 
L 109.421723 133.93041 
L 109.570356 227.026368 
L 109.644673 192.346209 
L 109.71899 198.865214 
L 109.867623 76.51105 
L 110.016256 157.132431 
L 110.090573 113.379027 
L 110.164889 156.326045 
L 110.239206 150.087236 
L 110.313522 71.063765 
L 110.610789 246.748699 
L 110.685105 216.017551 
L 110.833739 66.942783 
L 110.982372 199.862621 
L 111.056688 189.789314 
L 111.131005 124.051012 
L 111.205322 142.366174 
L 111.279638 114.390613 
L 111.428271 212.676971 
L 111.502588 142.805823 
L 111.576905 155.102868 
L 111.651221 219.367701 
L 111.725538 191.61142 
L 111.799854 198.711352 
L 111.874171 257.88833 
L 112.022804 34.456662 
L 112.097121 90.298306 
L 112.171437 97.503411 
L 112.245754 79.594046 
L 112.394387 221.012799 
L 112.54302 189.395066 
L 112.691654 90.88309 
L 112.840287 215.815291 
L 113.063237 32.29829 
L 113.21187 94.001507 
L 113.360503 65.14534 
L 113.509136 194.058265 
L 113.583453 161.423694 
L 113.732086 36.221395 
L 113.955036 136.923041 
L 114.177986 197.442467 
L 114.252302 96.303087 
L 114.326619 97.520731 
L 114.475252 211.228668 
L 114.549569 182.388644 
L 114.698202 209.375901 
L 114.921152 77.227854 
L 115.069785 205.731735 
L 115.144101 193.272031 
L 115.441368 77.45728 
L 115.590001 244.39975 
L 115.738634 48.441575 
L 115.887268 124.960871 
L 115.961584 106.788907 
L 116.110217 220.893161 
L 116.333167 104.584939 
L 116.407484 125.014928 
L 116.4818 194.238966 
L 116.556117 178.122376 
L 116.70475 62.01095 
L 116.779067 140.363325 
L 116.9277 97.154872 
L 117.076333 164.206969 
L 117.15065 116.310575 
L 117.224966 125.90628 
L 117.299283 168.259758 
L 117.3736 86.028911 
L 117.447916 102.767747 
L 117.596549 214.319414 
L 117.670866 162.800642 
L 117.745183 174.905506 
L 117.893816 98.255224 
L 118.042449 208.698347 
L 118.116766 159.067075 
L 118.191082 182.296061 
L 118.265399 147.349861 
L 118.339715 164.794863 
L 118.414032 208.4103 
L 118.488349 119.616619 
L 118.562665 121.018846 
L 118.636982 186.784555 
L 118.711298 174.344409 
L 118.785615 208.486621 
L 118.934248 95.321393 
L 119.008565 132.349387 
L 119.082881 194.257067 
L 119.157198 187.135917 
L 119.231515 135.071833 
L 119.305831 175.413167 
L 119.380148 175.05286 
L 119.528781 75.72724 
L 119.677414 162.014147 
L 119.751731 71.507587 
L 119.826047 106.694027 
L 119.974681 168.233927 
L 120.123314 48.782008 
L 120.346264 254.832254 
L 120.42058 253.155169 
L 120.569213 267.335307 
L 120.64353 246.761919 
L 120.792163 97.113894 
L 120.86648 164.291104 
L 121.015113 84.604108 
L 121.08943 152.97945 
L 121.163746 140.009364 
L 121.238063 161.919323 
L 121.312379 242.758855 
L 121.461013 67.844018 
L 121.535329 116.731775 
L 121.609646 177.874883 
L 121.758279 59.72633 
L 121.906912 214.140755 
L 122.055545 68.344376 
L 122.204179 171.170219 
L 122.278495 103.146983 
L 122.352812 123.131537 
L 122.427128 181.632609 
L 122.575762 58.874904 
L 122.650078 132.944863 
L 122.724395 116.606586 
L 122.798711 48.29671 
L 123.021661 193.38074 
L 123.095978 162.76113 
L 123.244611 218.431258 
L 123.393244 93.044964 
L 123.541877 183.503625 
L 123.616194 147.688946 
L 123.690511 166.722906 
L 123.764827 114.761496 
L 123.839144 131.484588 
L 123.987777 81.816829 
L 124.13641 226.687458 
L 124.210727 187.277703 
L 124.285043 211.977475 
L 124.35936 169.172764 
L 124.433677 171.453663 
L 124.507993 197.057335 
L 124.656626 90.06134 
L 124.80526 183.01502 
L 124.879576 137.464822 
L 124.953893 164.412343 
L 125.028209 153.43423 
L 125.176843 111.446219 
L 125.251159 129.383881 
L 125.399792 203.672181 
L 125.548426 130.32835 
L 125.771375 177.99639 
L 125.845692 137.212533 
L 125.920009 161.64495 
L 125.994325 116.771089 
L 126.068642 133.260717 
L 126.142958 225.629491 
L 126.291592 101.705557 
L 126.440225 222.962863 
L 126.514541 194.547881 
L 126.663175 113.324232 
L 126.737491 159.588458 
L 126.811808 99.16362 
L 126.886124 149.128391 
L 126.960441 144.706533 
L 127.034758 53.301463 
L 127.183391 172.318073 
L 127.257707 132.83792 
L 127.332024 144.44315 
L 127.406341 124.428268 
L 127.480657 128.088 
L 127.554974 215.289533 
L 127.62929 188.975578 
L 127.777924 92.06682 
L 127.926557 231.90868 
L 128.149507 89.297661 
L 128.223823 123.47363 
L 128.29814 146.627365 
L 128.372456 87.445958 
L 128.52109 169.648831 
L 128.818356 122.275993 
L 128.892673 43.154924 
L 129.115622 189.920757 
L 129.189939 189.195509 
L 129.264256 152.215331 
L 129.338572 202.398466 
L 129.412889 187.531611 
L 129.487205 192.336958 
L 129.561522 163.548984 
L 129.635839 171.015539 
L 129.710155 160.665661 
L 129.784472 87.685699 
L 129.858788 175.138559 
L 129.933105 154.295218 
L 130.007422 154.087991 
L 130.081738 191.109019 
L 130.230371 112.482486 
L 130.304688 65.439496 
L 130.453321 232.133539 
L 130.527638 225.885287 
L 130.676271 160.982946 
L 130.750588 198.205852 
L 130.824904 123.048519 
L 130.973537 168.096213 
L 131.196487 95.765113 
L 131.34512 129.854323 
L 131.493754 117.890435 
L 131.56807 148.771754 
L 131.716703 230.110698 
L 131.865337 133.557754 
L 131.939653 134.957624 
L 132.01397 144.262007 
L 132.088286 140.480799 
L 132.162603 104.77313 
L 132.23692 150.314168 
L 132.311236 143.272929 
L 132.385553 84.887969 
L 132.459869 111.245804 
L 132.534186 110.801862 
L 132.608503 103.111641 
L 132.682819 108.837783 
L 132.905769 239.35373 
L 133.054402 148.053712 
L 133.128719 149.338062 
L 133.203035 156.233941 
L 133.277352 147.040842 
L 133.351669 101.966904 
L 133.425985 133.195445 
L 133.500302 106.163651 
L 133.574618 149.005751 
L 133.648935 144.514248 
L 133.723252 110.004247 
L 133.797568 194.938353 
L 133.871885 169.595109 
L 133.946201 183.620256 
L 134.020518 254.400484 
L 134.169151 85.199162 
L 134.243468 87.444576 
L 134.466418 182.623742 
L 134.540734 145.156001 
L 134.615051 155.389382 
L 134.689367 198.131679 
L 134.838001 130.050044 
L 134.986634 211.243412 
L 135.135267 127.316431 
L 135.209584 109.990663 
L 135.2839 120.87238 
L 135.432533 185.857541 
L 135.581167 60.135156 
L 135.7298 209.338783 
L 135.804116 156.535387 
L 135.878433 140.249891 
L 136.027066 234.262192 
L 136.175699 38.690261 
L 136.398649 224.553666 
L 136.472966 172.258017 
L 136.547282 82.292682 
L 136.695916 176.171148 
L 136.770232 87.536253 
L 136.918865 180.259407 
L 137.141815 54.800394 
L 137.290448 189.673209 
L 137.364765 139.152972 
L 137.439082 41.968919 
L 137.513398 124.543675 
L 137.587715 117.643497 
L 137.662031 146.172887 
L 137.736348 220.068993 
L 137.884981 80.715565 
L 137.959298 175.881413 
L 138.033614 163.251711 
L 138.107931 64.781992 
L 138.256564 167.188496 
L 138.405197 110.150283 
L 138.628147 176.985348 
L 138.702464 159.731751 
L 138.77678 96.872205 
L 138.851097 109.124482 
L 138.925414 70.607552 
L 139.074047 133.745808 
L 139.22268 152.74269 
L 139.296997 62.868496 
L 139.44563 255.851671 
L 139.66858 94.061125 
L 139.742896 85.707658 
L 139.817213 200.755929 
L 139.891529 168.841069 
L 139.965846 103.604501 
L 140.040163 123.461259 
L 140.114479 98.718256 
L 140.337429 201.718958 
L 140.411746 212.225748 
L 140.486062 110.768894 
L 140.634695 260.595251 
L 140.783329 73.53386 
L 140.857645 163.285145 
L 140.931962 147.943777 
L 141.080595 116.478632 
L 141.154912 66.577783 
L 141.452178 180.547955 
L 141.526495 173.530393 
L 141.675128 138.274758 
L 141.749444 148.581868 
L 141.898078 50.036636 
L 141.972394 83.098217 
L 142.046711 168.233029 
L 142.121027 166.401096 
L 142.269661 203.419363 
L 142.343977 193.929392 
L 142.49261 131.884697 
L 142.566927 176.786746 
L 142.641244 140.530052 
L 142.71556 159.909242 
L 142.93851 37.288382 
L 143.012827 53.052665 
L 143.087143 160.598329 
L 143.16146 138.327438 
L 143.235776 136.398902 
L 143.310093 165.520781 
L 143.38441 95.020907 
L 143.533043 202.369952 
L 143.755993 95.738407 
L 143.830309 59.052608 
L 143.978942 146.843846 
L 144.127576 74.62304 
L 144.276209 122.290112 
L 144.350525 122.989335 
L 144.499159 191.659764 
L 144.647792 107.521198 
L 144.722108 216.383883 
L 144.796425 211.556181 
L 144.945058 24.999726 
L 145.093691 122.582257 
L 145.168008 115.612021 
L 145.390958 204.585743 
L 145.465274 164.76668 
L 145.539591 181.994953 
L 145.613908 249.384502 
L 145.688224 242.83368 
L 145.762541 173.854108 
L 145.836857 187.475028 
L 145.985491 169.564757 
L 146.059807 181.489681 
L 146.20844 73.385602 
L 146.282757 94.097659 
L 146.357074 162.189372 
L 146.43139 140.942365 
L 146.505707 143.155044 
L 146.580023 152.101184 
L 146.65434 150.813918 
L 146.951606 60.766291 
L 147.174556 190.80607 
L 147.248873 214.259262 
L 147.471823 31.4537 
L 147.546139 40.101303 
L 147.694772 161.04654 
L 147.769089 129.965834 
L 147.843406 106.461749 
L 147.917722 203.983722 
L 147.992039 155.774253 
L 148.066355 78.670774 
L 148.140672 93.314693 
L 148.214989 70.89307 
L 148.363622 185.409928 
L 148.437938 86.576622 
L 148.512255 111.90597 
L 148.586572 147.628267 
L 148.809521 39.633273 
L 148.958155 141.933506 
L 149.032471 105.085398 
L 149.106788 79.234155 
L 149.181104 177.654436 
L 149.255421 132.58765 
L 149.329738 59.17441 
L 149.404054 75.93171 
L 149.478371 51.861696 
L 149.701321 152.678747 
L 149.775637 151.654122 
L 149.849954 157.640141 
L 149.92427 185.735681 
L 150.072904 100.938665 
L 150.14722 126.851529 
L 150.221537 196.455033 
L 150.295853 173.75948 
L 150.37017 171.569353 
L 150.444487 171.869126 
L 150.518803 154.86401 
L 150.667436 249.053888 
L 150.741753 205.924963 
L 150.890386 46.923536 
L 150.964703 74.316627 
L 151.039019 69.96288 
L 151.113336 59.937276 
L 151.187653 74.199131 
L 151.410602 178.98295 
L 151.633552 204.003009 
L 151.707869 196.842655 
L 151.856502 146.524165 
L 151.930819 154.799076 
L 152.005135 128.441473 
L 152.228085 206.49508 
L 152.302402 187.58763 
L 152.376718 123.846024 
L 152.451035 147.356114 
L 152.525351 148.295392 
L 152.599668 154.481823 
L 152.748301 204.619846 
L 152.822618 205.283754 
L 152.971251 104.248188 
L 153.045568 192.879083 
L 153.194201 102.164459 
L 153.268517 180.698678 
L 153.342834 115.851445 
L 153.417151 140.680355 
L 153.491467 228.73257 
L 153.565784 223.860557 
L 153.6401 224.173257 
L 153.714417 203.616552 
L 153.788734 141.2213 
L 153.86305 149.712575 
L 154.011683 232.570219 
L 154.160317 101.645763 
L 154.234633 116.763361 
L 154.383266 141.605904 
L 154.457583 183.424696 
L 154.606216 124.710514 
L 154.754849 227.105632 
L 154.829166 197.748057 
L 155.052116 152.917296 
L 155.126432 236.881469 
L 155.349382 37.156312 
L 155.498015 168.975141 
L 155.572332 81.59351 
L 155.646649 118.553754 
L 155.720965 164.27481 
L 155.943915 60.409413 
L 156.092548 139.623863 
L 156.166865 214.274283 
L 156.315498 135.230449 
L 156.389815 214.562979 
L 156.538448 56.773545 
L 156.612764 62.40915 
L 156.761398 239.934941 
L 156.910031 81.831078 
L 156.984347 121.534856 
L 157.058664 169.526988 
L 157.281614 65.11826 
L 157.430247 139.455404 
L 157.504564 211.698452 
L 157.653197 129.240405 
L 157.727513 207.189909 
L 157.950463 43.63408 
L 158.099096 198.749651 
L 158.173413 108.847381 
L 158.24773 130.409112 
L 158.396363 173.276464 
L 158.470679 218.434105 
L 158.619313 149.185281 
L 158.693629 170.638146 
L 158.767946 228.07664 
L 159.065212 121.311519 
L 159.213845 228.942357 
L 159.288162 213.419725 
L 159.362479 142.91993 
L 159.436795 144.865425 
L 159.511112 225.847902 
L 159.659745 45.553334 
L 159.734062 78.043072 
L 159.808378 138.836972 
L 159.882695 124.910963 
L 159.957011 58.104384 
L 160.031328 82.994168 
L 160.105645 83.968453 
L 160.179961 64.934588 
L 160.328594 195.025299 
L 160.402911 183.896107 
L 160.477228 215.279071 
L 160.625861 23.525138 
L 160.774494 118.995462 
L 160.997444 161.782448 
L 161.146077 145.916592 
L 161.220394 151.610332 
L 161.369027 58.498562 
L 161.51766 248.988091 
L 161.666293 84.652591 
L 161.814926 130.248217 
L 161.889243 115.699018 
L 161.96356 74.780228 
L 162.260826 254.013338 
L 162.409459 169.968018 
L 162.483776 92.289958 
L 162.558092 99.192456 
L 162.706726 215.646757 
L 162.781042 199.914473 
L 162.855359 144.128973 
L 163.003992 214.280447 
L 163.078309 113.53473 
L 163.152625 151.562883 
L 163.226942 212.070306 
L 163.375575 172.83176 
L 163.449892 203.662729 
L 163.598525 93.171385 
L 163.672841 189.641148 
L 163.747158 162.104435 
L 163.821475 127.266691 
L 163.895791 202.970228 
L 164.044424 25.183327 
L 164.193058 242.052647 
L 164.341691 117.551087 
L 164.490324 220.364256 
L 164.713274 87.568081 
L 164.78759 89.797993 
L 164.936224 165.725628 
L 165.01054 230.791491 
L 165.159173 125.828395 
L 165.307807 246.703274 
L 165.45644 34.572462 
L 165.605073 234.522002 
L 165.753706 107.68665 
L 165.902339 215.876748 
L 166.125289 91.811001 
L 166.199606 95.49895 
L 166.348239 172.010887 
L 166.422556 236.444326 
L 166.571189 128.543434 
L 166.719822 242.929364 
L 166.794139 143.196763 
L 166.868455 144.560504 
L 166.942772 245.760417 
L 167.091405 121.763562 
L 167.165722 161.771516 
L 167.240038 195.827756 
L 167.314355 106.242964 
L 167.462988 227.13595 
L 167.537305 197.839005 
L 167.611621 198.853558 
L 167.685938 230.374221 
L 167.834571 114.908193 
L 167.908888 206.458092 
L 167.983204 171.745196 
L 168.057521 125.882074 
L 168.206154 209.741101 
L 168.280471 194.788259 
L 168.354787 135.463805 
L 168.429104 159.075806 
L 168.50342 143.406306 
L 168.577737 97.70455 
L 168.72637 226.083673 
L 168.875003 170.998409 
L 168.94932 215.123384 
L 169.023637 200.739561 
L 169.097953 138.790942 
L 169.17227 162.175725 
L 169.246586 143.912025 
L 169.320903 77.907821 
L 169.39522 79.11555 
L 169.543853 209.11396 
L 169.618169 164.490032 
L 169.692486 97.371874 
L 169.766803 109.445849 
L 169.841119 177.681584 
L 169.915436 155.953718 
L 169.989752 157.475529 
L 170.138386 206.788965 
L 170.212702 259.801655 
L 170.287019 219.049507 
L 170.435652 58.59156 
L 170.584285 162.0675 
L 170.732918 90.733829 
L 171.030185 235.222752 
L 171.104501 218.191504 
L 171.253135 128.313414 
L 171.327451 153.745444 
L 171.401768 76.551275 
L 171.550401 181.504069 
L 171.699034 72.685846 
L 171.847667 192.273104 
L 171.921984 191.464713 
L 172.070617 93.631058 
L 172.21925 182.545702 
L 172.293567 100.711074 
L 172.4422 238.03187 
L 172.516517 215.2482 
L 172.590833 219.777894 
L 172.66515 250.758779 
L 172.813783 121.935387 
L 172.8881 203.402097 
L 173.036733 111.254645 
L 173.259683 249.393425 
L 173.334 251.418556 
L 173.482633 191.175746 
L 173.631266 73.932444 
L 173.779899 203.996734 
L 174.002849 110.225809 
L 174.077166 117.404083 
L 174.225799 187.447102 
L 174.374432 51.514128 
L 174.671698 248.305827 
L 174.746015 260.049258 
L 174.820332 252.079706 
L 174.968965 182.206414 
L 175.117598 65.698698 
L 175.266231 201.224769 
L 175.489181 114.594755 
L 175.563498 122.820697 
L 175.712131 193.009525 
L 175.860764 55.256497 
L 176.15803 240.645175 
L 176.232347 246.396307 
L 176.38098 193.743373 
L 176.529613 69.966171 
L 176.678247 170.078937 
L 176.752563 98.833073 
L 176.901196 254.677901 
L 176.975513 237.324636 
L 177.04983 244.361531 
L 177.198463 73.274706 
L 177.347096 217.969388 
L 177.495729 110.0581 
L 177.644362 188.132971 
L 177.718679 183.50914 
L 177.867312 69.388549 
L 177.941629 88.761387 
L 178.015945 208.021614 
L 178.090262 181.849453 
L 178.313212 113.282098 
L 178.387528 139.106211 
L 178.461845 84.105453 
L 178.536162 85.797301 
L 178.684795 158.263135 
L 178.759111 105.202013 
L 178.833428 114.586759 
L 178.907745 177.280894 
L 178.982061 153.295889 
L 179.056378 153.580578 
L 179.130694 159.870089 
L 179.205011 152.816986 
L 179.353644 23.064814 
L 179.502277 141.042728 
L 179.576594 75.225052 
L 179.725227 186.5446 
L 179.87386 106.110398 
L 180.022494 186.865402 
L 180.171127 187.994048 
L 180.245443 78.301782 
L 180.31976 129.3321 
L 180.394077 227.711139 
L 180.54271 95.090636 
L 180.617026 126.404649 
L 180.691343 94.457075 
L 180.76566 120.581409 
L 180.839976 195.980059 
L 180.914293 182.497722 
L 181.062926 219.235414 
L 181.137243 116.759703 
L 181.211559 129.899378 
L 181.285876 122.28427 
L 181.360192 87.083151 
L 181.508826 174.825844 
L 181.583142 171.273054 
L 181.731775 89.151167 
L 181.880409 206.771439 
L 182.029042 77.544428 
L 182.177675 260.27669 
L 182.251992 255.336861 
L 182.400625 53.695995 
L 182.549258 169.180931 
L 182.697891 52.980809 
L 182.995158 223.593573 
L 183.069474 224.569902 
L 183.218107 175.895024 
L 183.366741 80.715513 
L 183.515374 230.031432 
L 183.738324 135.863462 
L 183.81264 133.430415 
L 183.961273 174.783068 
L 184.03559 214.690445 
L 184.184223 61.174437 
L 184.48149 221.454388 
L 184.555806 231.667855 
L 184.630123 226.440484 
L 184.778756 173.000148 
L 184.927389 79.750775 
L 185.076022 232.85607 
L 185.298972 140.535342 
L 185.373289 137.2128 
L 185.521922 175.385901 
L 185.596239 213.499128 
L 185.744872 56.971298 
L 186.042138 212.346878 
L 186.116455 219.95787 
L 186.190771 210.771528 
L 186.339405 144.102664 
L 186.413721 91.1512 
L 186.562354 219.932296 
L 186.859621 31.459483 
L 186.933937 21.851965 
L 187.008254 31.351068 
L 187.156887 103.297412 
L 187.30552 222.644024 
L 187.454154 90.816439 
L 187.677103 169.038671 
L 187.825737 97.93867 
L 188.048686 184.807335 
L 188.19732 177.843502 
L 188.271636 180.708622 
L 188.345953 74.32773 
L 188.420269 122.786441 
L 188.568903 210.948195 
L 188.717536 114.719734 
L 188.791852 145.384043 
L 188.940486 94.469222 
L 189.089119 178.503626 
L 189.237752 48.336417 
L 189.386385 100.803913 
L 189.460702 66.999459 
L 189.535018 105.574449 
L 189.683652 244.284964 
L 189.757968 210.943011 
L 189.906601 74.729949 
L 189.980918 111.921771 
L 190.055235 105.417482 
L 190.129551 67.558832 
L 190.278184 206.286613 
L 190.426818 128.458342 
L 190.501134 133.517327 
L 190.575451 180.0104 
L 190.649767 146.820785 
L 190.724084 164.064237 
L 190.798401 231.970073 
L 190.872717 221.01859 
L 191.02135 67.901515 
L 191.095667 164.486224 
L 191.169984 152.720532 
L 191.318617 147.436758 
L 191.46725 110.089496 
L 191.541567 63.186016 
L 191.764516 156.596354 
L 191.91315 105.994716 
L 191.987466 57.86418 
L 192.136099 197.445759 
L 192.433366 41.915129 
L 192.507682 38.945722 
L 192.656316 81.062103 
L 192.879265 228.748582 
L 193.027899 84.891625 
L 193.250848 190.271469 
L 193.325165 199.575173 
L 193.399482 194.825876 
L 193.548115 147.994676 
L 193.696748 68.216163 
L 193.845381 236.961898 
L 193.919698 201.1328 
L 194.142648 152.733291 
L 194.216964 160.402631 
L 194.439914 245.64655 
L 194.588547 75.898269 
L 194.662864 116.749976 
L 194.885814 197.804052 
L 194.96013 204.045033 
L 195.034447 198.428655 
L 195.18308 154.409198 
L 195.331713 79.412687 
L 195.480346 250.494981 
L 195.554663 214.060016 
L 195.777613 156.673966 
L 195.851929 159.829323 
L 196.000563 199.433399 
L 196.074879 232.75519 
L 196.223512 59.320817 
L 196.297829 100.112239 
L 196.595095 193.26197 
L 196.669412 188.209366 
L 196.818045 140.52915 
L 196.966678 53.384411 
L 197.115312 204.10005 
L 197.412578 62.928621 
L 197.486895 57.872824 
L 197.635528 90.895592 
L 197.858478 222.418962 
L 198.007111 69.265365 
L 198.230061 150.051293 
L 198.304377 142.821837 
L 198.45301 65.888228 
L 198.750277 216.094608 
L 198.824593 109.881418 
L 198.89891 137.035777 
L 198.973227 177.876188 
L 199.196176 69.688539 
L 199.567759 240.60593 
L 199.716393 185.95404 
L 199.790709 184.020575 
L 199.865026 186.650379 
L 199.939342 183.772223 
L 200.087976 121.423395 
L 200.236609 178.172455 
L 200.310925 138.666034 
L 200.385242 175.394737 
L 200.459559 159.870385 
L 200.533875 92.890185 
L 200.608192 104.486532 
L 200.682508 199.707696 
L 200.831142 34.621556 
L 200.905458 45.891467 
L 201.054091 50.568295 
L 201.202725 94.761319 
L 201.277041 152.289042 
L 201.425674 113.064674 
L 201.499991 149.567204 
L 201.648624 82.11863 
L 201.722941 100.405562 
L 201.871574 218.227957 
L 201.945891 178.625365 
L 202.16884 94.22686 
L 202.243157 183.981409 
L 202.39179 67.247433 
L 202.61474 136.906606 
L 202.763373 98.017491 
L 202.83769 60.757051 
L 202.986323 223.893549 
L 203.283589 83.100665 
L 203.357906 72.917753 
L 203.432223 75.24768 
L 203.580856 115.264782 
L 203.803806 235.883004 
L 203.952439 70.536355 
L 204.026755 108.612759 
L 204.249705 171.865773 
L 204.324022 172.406699 
L 204.472655 143.834153 
L 204.695605 51.14716 
L 204.844238 237.671588 
L 204.918555 209.648129 
L 205.141504 170.418105 
L 205.215821 175.20561 
L 205.364454 210.212146 
L 205.438771 237.892152 
L 205.587404 49.908929 
L 205.661721 83.702135 
L 205.958987 173.248861 
L 206.033304 176.602738 
L 206.10762 171.087788 
L 206.256253 135.652302 
L 206.479203 43.150717 
L 206.627836 233.5479 
L 206.702153 207.73068 
L 206.925103 173.818685 
L 207.073736 193.753886 
L 207.222369 242.730588 
L 207.371002 53.233369 
L 207.445319 85.779906 
L 207.742585 166.081641 
L 207.816902 165.640138 
L 207.965535 136.219701 
L 208.114168 74.253779 
L 208.262802 247.988497 
L 208.337118 206.991894 
L 208.634385 95.441372 
L 208.708701 90.086432 
L 208.783018 95.581601 
L 208.931651 137.184621 
L 209.154601 250.552784 
L 209.303234 73.987416 
L 209.377551 103.627778 
L 209.526184 130.083599 
L 209.6005 122.585088 
L 209.749134 61.138804 
L 209.897767 196.005861 
L 209.972083 119.962445 
L 210.120717 207.014377 
L 210.195033 125.15736 
L 210.343666 243.809027 
L 210.4923 178.343353 
L 210.566616 182.000317 
L 210.640933 213.664467 
L 210.863883 103.633788 
L 211.012516 162.491639 
L 211.086832 93.645524 
L 211.235466 239.081397 
L 211.384099 124.420694 
L 211.607049 203.755694 
L 211.978632 57.681929 
L 212.127265 99.825843 
L 212.201581 77.059413 
L 212.350215 225.400629 
L 212.498848 82.975042 
L 212.647481 211.318312 
L 212.796114 149.182682 
L 212.870431 152.975586 
L 213.019064 242.61816 
L 213.093381 202.72765 
L 213.167697 189.925356 
L 213.242014 202.018616 
L 213.31633 235.908537 
L 213.464964 99.25159 
L 213.53928 173.846709 
L 213.687913 77.798999 
L 213.836547 219.918157 
L 213.98518 66.930827 
L 214.059496 97.52972 
L 214.20813 117.104502 
L 214.356763 87.870305 
L 214.431079 59.76444 
L 214.579713 243.637991 
L 214.654029 207.137417 
L 214.951296 108.048423 
L 215.025612 102.981134 
L 215.099929 107.077964 
L 215.248562 140.75018 
L 215.471512 235.202251 
L 215.620145 51.43772 
L 215.694462 82.732583 
L 215.917411 142.197892 
L 215.991728 147.438008 
L 216.066045 144.959204 
L 216.214678 119.010507 
L 216.437628 45.408481 
L 216.586261 246.236651 
L 216.660577 223.483818 
L 216.883527 186.322518 
L 216.957844 186.726939 
L 217.106477 206.932889 
L 217.25511 248.097839 
L 217.403743 46.176739 
L 217.47806 72.495143 
L 217.775326 145.004884 
L 217.849643 149.58604 
L 217.92396 147.717093 
L 218.072593 125.53406 
L 218.369859 32.311599 
L 218.518492 237.219194 
L 218.592809 217.198016 
L 218.815759 188.51681 
L 218.890075 191.295035 
L 219.038709 214.901188 
L 219.187342 257.299867 
L 219.335975 54.272641 
L 219.410292 79.154407 
L 219.707558 140.13568 
L 219.781875 140.434765 
L 219.930508 120.309954 
L 220.153458 46.762523 
L 220.302091 237.166464 
L 220.376407 205.90807 
L 220.673674 122.967212 
L 220.74799 118.828842 
L 220.822307 122.515987 
L 220.97094 152.227037 
L 221.19389 236.79566 
L 221.342523 45.343813 
L 221.41684 72.090385 
L 221.63979 109.727749 
L 221.714106 102.938333 
L 221.862739 55.913497 
L 222.011373 221.002586 
L 222.160006 101.643844 
L 222.308639 225.835464 
L 222.605905 37.07509 
L 222.680222 23.241675 
L 222.754539 27.920173 
L 222.903172 98.66315 
L 222.977488 165.816752 
L 223.200438 103.08767 
L 223.349071 134.711132 
L 223.497705 191.036894 
L 223.572021 90.293727 
L 223.646338 109.136172 
L 223.720654 116.035585 
L 223.794971 106.809398 
L 223.869288 204.778145 
L 224.017921 75.510713 
L 224.092237 98.419343 
L 224.166554 93.813358 
L 224.240871 61.913109 
L 224.46382 198.664867 
L 224.538137 203.590493 
L 224.68677 174.693916 
L 224.90972 100.433446 
L 224.984037 211.955058 
L 225.058353 207.589761 
L 225.13267 90.524482 
L 225.206986 117.372126 
L 225.281303 162.958182 
L 225.504253 38.419086 
L 225.578569 35.623425 
L 225.727203 79.086651 
L 225.950152 228.596946 
L 226.098786 95.870589 
L 226.247419 207.929234 
L 226.396052 39.122736 
L 226.470369 68.175119 
L 226.619002 96.555777 
L 226.693318 96.359886 
L 226.841952 71.664888 
L 226.916268 49.983476 
L 227.064901 250.610581 
L 227.139218 222.532398 
L 227.436484 139.215552 
L 227.585118 130.189848 
L 227.733751 146.595158 
L 228.031017 235.584378 
L 228.17965 35.541719 
L 228.253967 60.299256 
L 228.551233 119.899678 
L 228.62555 121.944393 
L 228.699867 118.598034 
L 228.922816 81.013352 
L 229.07145 41.44392 
L 229.220083 254.447501 
L 229.294399 236.168547 
L 229.517349 201.28794 
L 229.591666 198.285389 
L 229.665982 200.006955 
L 229.814616 216.903777 
L 229.963249 248.307078 
L 230.111882 33.613931 
L 230.186199 53.780065 
L 230.557782 121.193216 
L 230.632098 123.208323 
L 230.706415 120.696797 
L 230.855048 102.885909 
L 231.152315 32.6744 
L 231.300948 248.454845 
L 231.375264 231.930038 
L 231.598214 202.243196 
L 231.672531 200.633182 
L 231.746847 203.474742 
L 231.895481 221.689834 
L 232.044114 253.15972 
L 232.192747 37.369699 
L 232.267064 56.584956 
L 232.56433 111.110379 
L 232.638647 115.248315 
L 232.712963 114.629194 
L 232.861596 98.960455 
L 233.084546 44.88011 
L 233.233179 251.424757 
L 233.307496 227.34794 
L 233.679079 146.379113 
L 233.753396 143.708561 
L 233.827712 146.477805 
L 233.976345 167.619891 
L 234.273612 252.879601 
L 234.422245 44.691865 
L 234.496562 63.634955 
L 234.719511 89.315728 
L 234.793828 84.327495 
L 234.942461 51.20609 
L 235.091094 242.605974 
L 235.165411 202.03409 
L 235.388361 59.975047 
L 235.536994 221.089452 
L 235.611311 181.445837 
L 235.83426 114.413487 
L 235.908577 115.141452 
L 236.05721 158.342267 
L 236.131527 201.795461 
L 236.28016 77.34331 
L 236.354477 161.674355 
L 236.428793 130.026948 
L 236.651743 79.822552 
L 236.72606 196.392003 
L 236.800376 184.300851 
L 236.949009 143.498842 
L 237.023326 109.195605 
L 237.097643 189.281494 
L 237.246276 49.316654 
L 237.320592 80.284509 
L 237.394909 92.631059 
L 237.469226 86.065819 
L 237.543542 60.819306 
L 237.692175 211.790619 
L 237.766492 136.846678 
L 237.915125 204.425087 
L 237.989442 97.882252 
L 238.063758 113.146255 
L 238.361025 178.124014 
L 238.435341 208.357595 
L 238.509658 121.526674 
L 238.658291 237.781591 
L 238.881241 132.055229 
L 238.955558 123.756371 
L 239.029874 127.760446 
L 239.178507 167.526472 
L 239.327141 238.705271 
L 239.475774 72.327334 
L 239.77304 239.158587 
L 239.921673 41.666305 
L 239.99599 60.275096 
L 240.144623 77.201171 
L 240.21894 75.992201 
L 240.367573 57.245928 
L 240.44189 41.491923 
L 240.590523 256.636735 
L 240.664839 235.773788 
L 241.036422 158.536008 
L 241.185056 153.181678 
L 241.333689 165.097153 
L 241.630955 228.414271 
L 241.705272 248.463401 
L 241.853905 33.784672 
L 241.928222 51.505254 
L 242.225488 94.682299 
L 242.299805 96.743564 
L 242.374121 95.133298 
L 242.522754 81.797014 
L 242.820021 27.993432 
L 242.968654 251.976194 
L 243.042971 238.569431 
L 243.340237 208.393251 
L 243.414554 208.307688 
L 243.563187 217.452259 
L 243.860453 264.476355 
L 244.009086 40.049347 
L 244.083403 54.211858 
L 244.380669 93.265151 
L 244.529303 96.852808 
L 244.677936 88.468607 
L 244.975202 43.473098 
L 245.049519 29.042479 
L 245.198152 254.544337 
L 245.272469 241.628795 
L 245.569735 210.743231 
L 245.644052 209.838171 
L 245.792685 216.861241 
L 246.015635 246.277753 
L 246.089951 259.5104 
L 246.238584 33.711293 
L 246.312901 47.486304 
L 246.610167 86.446268 
L 246.758801 90.022825 
L 246.907434 80.797795 
L 247.130384 45.446829 
L 247.2047 29.466857 
L 247.353333 248.706403 
L 247.42765 231.208834 
L 247.799233 168.906375 
L 247.947866 164.828991 
L 248.096499 175.007395 
L 248.393766 229.473685 
L 248.542399 264.283313 
L 248.691032 41.597063 
L 248.765349 53.892555 
L 248.988299 68.51182 
L 249.136932 54.792018 
L 249.211248 40.26295 
L 249.359882 250.751267 
L 249.434198 222.631856 
L 249.805781 52.679841 
L 249.954414 246.583472 
L 250.028731 223.236272 
L 250.251681 193.807649 
L 250.400314 216.572875 
L 250.474631 242.18168 
L 250.623264 67.921427 
L 250.771897 182.986805 
L 250.92053 72.392524 
L 250.994847 151.666899 
L 251.14348 63.567538 
L 251.292113 228.015947 
L 251.440746 122.957527 
L 251.58938 243.557658 
L 251.738013 71.100475 
L 251.812329 94.883441 
L 251.886646 106.551382 
L 251.960963 105.870607 
L 252.109596 67.939492 
L 252.258229 238.833094 
L 252.406862 118.110358 
L 252.555495 224.694655 
L 252.704129 63.254679 
L 252.852762 155.322907 
L 252.927078 78.153292 
L 253.075712 192.633433 
L 253.224345 80.27125 
L 253.372978 255.294983 
L 253.447295 229.18477 
L 253.670244 203.307073 
L 253.818878 224.65196 
L 253.893194 244.487559 
L 254.041827 43.241336 
L 254.116144 73.970514 
L 254.562044 251.541403 
L 254.710677 34.242257 
L 254.784993 46.212531 
L 254.933627 57.025157 
L 255.007943 56.193379 
L 255.156576 43.839342 
L 255.230893 33.343486 
L 255.379526 260.85521 
L 255.453843 246.146311 
L 255.899742 176.865295 
L 256.048376 171.567265 
L 256.122692 173.161133 
L 256.271325 184.388398 
L 256.568592 230.856911 
L 256.717225 259.28636 
L 256.865858 31.968322 
L 256.940175 43.582798 
L 257.237441 70.730319 
L 257.311758 71.80387 
L 257.386074 70.530056 
L 257.534708 61.477768 
L 257.831974 24.883695 
L 257.980607 257.30113 
L 258.054924 247.071055 
L 258.35219 218.319453 
L 258.500823 214.59155 
L 258.57514 215.763762 
L 258.723773 223.904885 
L 259.02104 257.75105 
L 259.169673 24.502766 
L 259.243989 34.615288 
L 259.615572 69.08627 
L 259.764206 71.164116 
L 259.912839 65.624374 
L 260.135789 45.07213 
L 260.284422 26.014328 
L 260.433055 259.738523 
L 260.507372 249.973004 
L 260.878955 217.604502 
L 260.953271 215.982877 
L 261.027588 216.241806 
L 261.176221 222.28121 
L 261.473487 252.156801 
L 261.547804 261.837988 
L 261.696437 27.463822 
L 261.770754 36.748233 
L 262.06802 62.543827 
L 262.216653 65.23867 
L 262.365287 59.878775 
L 262.588236 37.827581 
L 262.662553 27.50274 
L 262.811186 258.227621 
L 262.885503 245.94296 
L 263.331402 187.348465 
L 263.480036 181.087335 
L 263.554352 181.29234 
L 263.702985 188.372198 
L 264.000252 224.449062 
L 264.223202 260.261969 
L 264.371835 27.574654 
L 264.446151 36.092836 
L 264.669101 48.059778 
L 264.743418 46.476664 
L 264.892051 33.879421 
L 265.040684 262.789986 
L 265.115001 245.891062 
L 265.858167 30.891514 
L 266.0068 265.719597 
L 266.081117 263.225199 
L 266.155433 266.070768 
L 266.304066 34.880378 
L 266.378383 55.18372 
L 266.675649 192.880267 
L 266.749966 239.582338 
L 266.898599 89.451556 
L 267.047232 201.981648 
L 267.195866 61.712059 
L 267.418815 217.849217 
L 267.567449 47.538431 
L 267.641765 80.94548 
L 267.864715 140.530142 
L 267.939032 145.687702 
L 268.013348 143.253555 
L 268.161981 116.013248 
L 268.310615 60.966058 
L 268.459248 236.309011 
L 268.682198 86.754116 
L 268.830831 230.333007 
L 269.053781 66.815862 
L 269.202414 223.228269 
L 269.573997 55.321097 
L 269.72263 25.257593 
L 269.871263 270.501879 
L 270.019896 26.613492 
L 270.094213 37.737718 
L 270.465796 131.192411 
L 270.986012 262.352478 
L 271.134645 27.510578 
L 271.208962 33.122623 
L 271.357595 36.543199 
L 271.506228 30.598625 
L 271.580545 24.715591 
L 271.729178 262.754864 
L 271.803495 253.325639 
L 272.323711 193.469056 
L 272.546661 185.740526 
L 272.620977 186.552066 
L 272.769611 193.083132 
L 273.066877 221.789021 
L 273.43846 268.254876 
L 273.587093 29.581285 
L 273.66141 35.724334 
L 273.88436 46.37146 
L 273.958676 47.112531 
L 274.032993 46.444682 
L 274.181626 41.147987 
L 274.404576 25.197621 
L 274.553209 265.373955 
L 274.627526 258.09556 
L 275.073425 222.926692 
L 275.296375 217.903882 
L 275.370692 218.625774 
L 275.519325 223.542633 
L 275.816591 244.490039 
L 276.039541 264.978106 
L 276.188174 24.01129 
L 276.262491 29.82388 
L 276.559757 44.703979 
L 276.634074 45.825263 
L 276.70839 45.80618 
L 276.857024 42.395551 
L 277.079973 29.826407 
L 277.15429 24.098669 
L 277.302923 265.320366 
L 277.37724 258.569162 
L 277.823139 224.738016 
L 278.046089 218.646768 
L 278.120406 218.786713 
L 278.269039 222.323102 
L 278.566305 240.371428 
L 278.863572 265.749656 
L 279.012205 23.594248 
L 279.086522 28.717551 
L 279.383788 40.329402 
L 279.458105 40.518901 
L 279.606738 37.34754 
L 279.829688 24.241802 
L 279.978321 265.094793 
L 280.052637 257.588095 
L 280.721487 197.004952 
L 280.944437 192.685002 
L 281.09307 196.273591 
L 281.31602 210.435196 
L 281.910552 268.192381 
L 282.059186 23.333874 
L 282.133502 25.924123 
L 282.207819 26.952321 
L 282.282135 26.291832 
L 282.356452 23.853357 
L 282.505085 267.547973 
L 282.579402 259.65764 
L 282.950985 197.800839 
L 283.619834 76.750252 
L 283.842784 67.770806 
L 283.991417 77.019113 
L 284.214367 115.973225 
L 284.58595 243.138595 
L 284.734583 56.236342 
L 284.8089 91.837166 
L 285.106166 236.982217 
L 285.254799 50.349989 
L 285.329116 81.113229 
L 285.700699 189.473621 
L 285.923649 208.185791 
L 285.997965 205.881409 
L 286.146599 188.639298 
L 286.443865 108.601762 
L 286.592498 50.491419 
L 286.741131 238.551808 
L 286.815448 203.715615 
L 287.112714 62.880843 
L 287.261348 251.762703 
L 287.335664 221.853592 
L 287.781564 96.658807 
L 288.004514 74.42394 
L 288.07883 72.896147 
L 288.153147 74.075521 
L 288.30178 83.729839 
L 288.599047 124.941754 
L 289.416529 255.246967 
L 289.639479 268.290711 
L 289.788112 269.725906 
L 289.936745 266.00073 
L 290.234012 247.311194 
L 290.902861 199.430506 
L 291.125811 195.02137 
L 291.200128 195.424365 
L 291.348761 198.959836 
L 291.646027 215.190374 
L 292.46351 271.511788 
L 292.612143 21.552458 
L 292.68646 22.443109 
L 292.760776 22.554789 
L 292.909409 20.522982 
L 293.058043 269.835525 
L 293.132359 266.60895 
L 294.172792 217.952654 
L 294.247108 217.595262 
L 294.321425 217.893331 
L 294.470058 220.396003 
L 294.767324 231.866232 
L 295.584807 271.8 
L 295.73344 20.381732 
L 295.807757 20.800231 
L 295.882073 20.604314 
L 295.95639 19.8 
L 296.105023 270.511372 
L 296.17934 268.044455 
L 296.550923 250.169636 
L 297.145456 221.831626 
L 297.368405 217.80882 
L 297.442722 217.620141 
L 297.591355 218.998689 
L 297.814305 225.110449 
L 298.260205 246.519449 
L 298.780421 267.857035 
L 299.003371 270.009669 
L 299.152004 268.360298 
L 299.374954 261.38818 
L 299.746537 240.763736 
L 300.415386 203.54456 
L 300.638336 199.303352 
L 300.712652 199.229347 
L 300.861286 201.121535 
L 301.084235 208.666863 
L 301.604452 238.95287 
L 301.976035 256.584175 
L 302.198984 259.472411 
L 302.347618 257.020737 
L 302.570567 246.279641 
L 302.94215 211.572665 
L 303.83395 117.561782 
L 303.982583 113.596772 
L 304.056899 113.868282 
L 304.205533 119.31042 
L 304.428482 140.2956 
L 304.725749 191.525037 
L 304.948699 244.516883 
L 305.097332 30.608286 
L 305.171648 51.585742 
L 305.989131 258.000914 
L 306.137764 24.898385 
L 306.212081 32.413131 
L 306.435031 42.265907 
L 306.509347 41.220951 
L 306.65798 32.707408 
L 306.732297 25.343447 
L 306.88093 258.883785 
L 306.955247 245.961866 
L 307.401146 140.946847 
L 307.772729 38.27044 
L 307.921363 253.353556 
L 307.995679 235.030469 
L 308.441579 149.773162 
L 308.738845 122.055055 
L 308.961795 117.073992 
L 309.110428 120.469253 
L 309.333378 133.72985 
L 309.853594 185.495339 
L 310.448127 236.985932 
L 310.745393 247.610849 
L 310.894027 248.594394 
L 311.04266 246.978353 
L 311.26561 240.587754 
L 312.380359 199.358647 
L 312.454675 198.999601 
L 312.528992 199.101103 
L 312.677625 200.652532 
L 312.900575 206.03398 
L 313.346474 224.002607 
L 313.941007 247.017195 
L 314.238274 251.936425 
L 314.31259 252.238102 
L 314.386907 252.165229 
L 314.53554 250.937648 
L 314.75849 246.692473 
L 315.278706 230.252452 
L 315.798922 216.039888 
L 316.021872 213.555934 
L 316.096189 213.342185 
L 316.170505 213.441393 
L 316.319138 214.557006 
L 316.542088 218.316204 
L 316.987988 230.809617 
L 317.582521 246.730028 
L 317.879787 249.824067 
L 317.954104 249.892636 
L 318.102737 249.165342 
L 318.325687 246.040559 
L 318.69727 236.692409 
L 319.514752 215.031747 
L 319.737702 212.837208 
L 319.812019 212.643522 
L 319.886335 212.724655 
L 320.034968 213.695901 
L 320.257918 217.00972 
L 320.703818 228.189467 
L 321.298351 242.709653 
L 321.595617 245.469281 
L 321.669934 245.476015 
L 321.818567 244.62637 
L 322.041517 241.258427 
L 322.4131 231.078783 
L 323.379215 202.220819 
L 323.602165 200.279786 
L 323.676482 200.2463 
L 323.825115 201.106275 
L 324.048065 204.575916 
L 324.419648 214.774124 
L 325.162814 235.711687 
L 325.385764 237.510786 
L 325.46008 237.35423 
L 325.608713 235.806102 
L 325.831663 230.318669 
L 326.203246 213.407191 
L 327.392312 148.218068 
L 327.540945 146.46406 
L 327.615262 146.590842 
L 327.763895 148.994108 
L 327.986845 158.210727 
L 328.284111 180.922374 
L 328.730011 233.808633 
L 328.95296 265.699055 
L 329.101594 33.6517 
L 329.17591 44.648172 
L 329.84476 129.383226 
L 330.216343 153.81053 
L 330.439292 157.723547 
L 330.513609 157.149608 
L 330.662242 153.216194 
L 330.885192 140.670871 
L 331.256775 104.622345 
L 331.776991 34.753777 
L 331.925624 267.645826 
L 331.999941 257.223172 
L 332.66879 179.163281 
L 333.040373 155.352525 
L 333.33764 148.09115 
L 333.411956 147.827022 
L 333.486273 148.13556 
L 333.634906 150.341924 
L 333.932173 160.033297 
L 334.526705 190.463433 
L 335.121238 217.23327 
L 335.492821 225.521934 
L 335.715771 226.830961 
L 335.790088 226.695061 
L 335.938721 225.652855 
L 336.235987 221.05646 
L 337.425053 197.956361 
L 337.648003 197.187212 
L 337.796636 197.615467 
L 338.019586 199.580662 
L 338.391169 205.670834 
L 339.505918 226.251315 
L 339.803184 227.85188 
L 339.877501 227.871162 
L 340.026134 227.463322 
L 340.249084 225.819517 
L 340.620667 220.950077 
L 341.661099 206.083848 
L 341.958365 204.801326 
L 342.032682 204.789946 
L 342.181315 205.135654 
L 342.404265 206.518557 
L 342.775848 210.658488 
L 343.81628 223.786048 
L 344.113547 225.028159 
L 344.26218 224.979727 
L 344.410813 224.482358 
L 344.70808 222.246898 
L 345.153979 216.615413 
L 346.045779 205.142772 
L 346.343045 203.511159 
L 346.491678 203.313914 
L 346.640311 203.537034 
L 346.863261 204.619803 
L 347.234844 208.064158 
L 348.349593 220.179114 
L 348.572543 220.944385 
L 348.721176 220.930386 
L 348.869809 220.482433 
L 349.092759 219.01679 
L 349.464342 214.741245 
L 350.876358 195.895963 
L 351.099307 195.308555 
L 351.247941 195.490725 
L 351.47089 196.59611 
L 351.842473 200.321091 
L 353.031539 214.501931 
L 353.254489 214.888783 
L 353.403122 214.429799 
L 353.626072 212.59959 
L 353.923338 208.055046 
L 354.369238 197.472998 
L 355.483987 168.580494 
L 355.781253 165.542932 
L 355.85557 165.340382 
L 355.929886 165.381094 
L 356.07852 166.222408 
L 356.301469 169.457177 
L 356.598736 177.488153 
L 357.044635 196.807941 
L 357.862118 245.698067 
L 358.233701 267.733146 
L 358.382334 21.5302 
L 358.456651 25.170049 
L 358.90255 41.919622 
L 359.199817 47.308912 
L 359.34845 48.084781 
L 359.422767 47.984597 
L 359.5714 46.814899 
L 359.79435 42.707123 
L 360.165933 30.177978 
L 360.314566 23.480007 
L 360.463199 270.071661 
L 360.537516 266.097492 
L 362.246797 176.56911 
L 362.61838 167.803674 
L 362.915647 164.805191 
L 363.06428 164.562001 
L 363.212913 165.079671 
L 363.435863 167.115927 
L 363.807446 173.110807 
L 365.368095 202.207681 
L 365.665361 204.119373 
L 365.888311 204.498411 
L 366.036944 204.288567 
L 366.259894 203.368657 
L 366.631477 200.611391 
L 367.894859 190.13 
L 368.192125 189.362718 
L 368.340759 189.34279 
L 368.489392 189.561176 
L 368.712342 190.306634 
L 369.083925 192.475138 
L 370.644573 203.147928 
L 370.94184 203.597865 
L 371.090473 203.534941 
L 371.313423 203.096535 
L 371.610689 201.942896 
L 372.130905 198.849432 
L 373.097021 193.063406 
L 373.468604 191.968372 
L 373.691554 191.758352 
L 373.914504 191.888361 
L 374.21177 192.54977 
L 374.65767 194.352597 
L 375.846735 199.784998 
L 376.144002 200.366261 
L 376.366951 200.459741 
L 376.589901 200.248682 
L 376.887168 199.51446 
L 377.333067 197.611197 
L 378.893716 190.047178 
L 379.190982 189.588256 
L 379.413932 189.565907 
L 379.636882 189.810643 
L 379.934148 190.506453 
L 380.454364 192.437139 
L 381.42048 196.057199 
L 381.792063 196.629482 
L 382.015013 196.626962 
L 382.237963 196.348167 
L 382.535229 195.556949 
L 382.981129 193.597228 
L 384.690411 184.865667 
L 384.987677 184.396681 
L 385.210627 184.377137 
L 385.433577 184.635841 
L 385.730843 185.371218 
L 386.251059 187.433828 
L 387.217175 191.359441 
L 387.514441 191.880289 
L 387.737391 191.907249 
L 387.960341 191.583573 
L 388.257607 190.579799 
L 388.62919 188.430202 
L 389.223723 183.337009 
L 390.487105 171.855832 
L 390.858688 170.226109 
L 391.081638 169.935916 
L 391.230271 170.062022 
L 391.453221 170.754983 
L 391.750488 172.638107 
L 392.196387 177.444875 
L 392.79092 186.905547 
L 394.574518 217.990013 
L 395.020418 221.722069 
L 395.317684 222.65957 
L 395.466318 222.641828 
L 395.614951 222.300208 
L 395.837901 221.193902 
L 396.209484 217.867089 
L 396.7297 210.607252 
L 397.695816 192.843222 
L 398.661931 176.636497 
L 399.256464 170.277187 
L 399.628047 168.083337 
L 399.925314 167.303285 
L 400.148263 167.244625 
L 400.371213 167.589921 
L 400.66848 168.585927 
L 401.188696 171.385842 
L 402.675028 180.244192 
L 403.120928 181.625302 
L 403.418194 182.05706 
L 403.641144 182.131357 
L 403.864094 182.008866 
L 404.16136 181.579735 
L 404.681576 180.298503 
L 406.093592 176.480344 
L 406.539491 175.962056 
L 406.836758 175.889971 
L 407.134024 176.028424 
L 407.505607 176.457887 
L 408.10014 177.545914 
L 409.214889 179.62847 
L 409.660788 180.044644 
L 410.032371 180.109824 
L 410.403954 179.912107 
L 410.849854 179.364471 
L 411.518703 178.107162 
L 412.782086 175.698684 
L 413.302302 175.169613 
L 413.748201 175.028348 
L 414.194101 175.158159 
L 414.714317 175.569291 
L 416.274966 176.967956 
L 416.720865 177.020517 
L 417.166765 176.825679 
L 417.686981 176.299918 
L 418.430147 175.149282 
L 419.767846 173.028887 
L 420.362379 172.513291 
L 420.808278 172.379096 
L 421.328495 172.476312 
L 421.997344 172.87983 
L 423.18641 173.622331 
L 423.706626 173.663942 
L 424.152525 173.481794 
L 424.672742 173.009297 
L 425.341591 172.067561 
L 427.125189 169.348642 
L 427.645406 168.954832 
L 428.165622 168.841307 
L 428.685838 168.98006 
L 429.503321 169.502628 
L 430.320803 169.971988 
L 430.841019 170.0149 
L 431.286919 169.805968 
L 431.732819 169.341376 
L 432.327351 168.340862 
L 433.219151 166.275827 
L 434.408216 163.605375 
L 434.928432 162.912186 
L 435.300015 162.701962 
L 435.671598 162.759754 
L 436.043181 163.093754 
L 436.489081 163.843493 
L 437.083614 165.342631 
L 438.346996 169.3997 
L 439.164479 171.579049 
L 439.684695 172.388699 
L 440.056278 172.616042 
L 440.353544 172.577909 
L 440.725127 172.26612 
L 441.171027 171.546767 
L 441.76556 170.117004 
L 442.657359 167.29301 
L 444.292324 161.987601 
L 444.961173 160.558929 
L 445.48139 159.909432 
L 445.927289 159.674213 
L 446.373189 159.703287 
L 446.893405 159.999399 
L 447.859521 160.915134 
L 448.52837 161.428322 
L 448.899953 161.499165 
L 449.19722 161.358677 
L 449.494486 160.980782 
L 450.237652 159.789586 
L 450.386285 159.893698 
L 450.757868 160.633878 
L 451.278084 161.512923 
L 451.649667 161.743486 
L 452.095567 161.743531 
L 452.838733 161.463843 
L 454.027799 161.032545 
L 454.919598 160.960472 
L 457.223412 160.956146 
L 457.669312 160.629708 
L 458.040895 160.042436 
L 458.338161 159.15813 
L 458.709744 157.223736 
L 459.007011 155.8605 
L 459.081327 155.822107 
L 459.229961 156.176079 
L 459.89881 158.723561 
L 460.270393 159.14647 
L 460.641976 159.235111 
L 461.310826 159.103395 
L 464.878022 157.881988 
L 466.067088 157.50697 
L 469.039752 156.848016 
L 471.120617 156.033613 
L 473.127165 155.135265 
L 473.944648 155.174079 
L 475.133713 155.214135 
L 476.248462 154.999777 
L 478.329327 154.332218 
L 479.815659 153.663889 
L 481.599257 152.807916 
L 482.714006 152.624898 
L 484.126022 152.342805 
L 485.612354 151.796594 
L 487.321636 150.93392 
L 489.179551 149.736943 
L 490.963149 148.643044 
L 491.854948 148.340886 
L 492.672431 148.283233 
L 493.56423 148.447979 
L 496.611211 149.265706 
L 498.246176 149.307811 
L 500.401357 149.692128 
L 503.448338 149.764275 
L 503.968554 149.535651 
L 504.340137 149.106132 
L 504.637403 148.400407 
L 504.93467 147.107762 
L 505.380569 145.040334 
L 505.454886 145.084324 
L 505.677836 145.998448 
L 506.123735 148.072131 
L 506.495318 148.823983 
L 506.866901 149.110055 
L 507.387118 149.204591 
L 508.724816 149.098164 
L 511.474531 148.791594 
L 511.846114 148.416977 
L 512.14338 147.805225 
L 512.514963 146.409129 
L 512.886546 145.139598 
L 512.960863 145.141758 
L 513.109496 145.461538 
L 513.852662 147.866847 
L 514.224245 148.22916 
L 514.670144 148.314671 
L 515.338994 148.185123 
L 516.007843 147.860667 
L 516.379426 147.417495 
L 516.602376 146.83765 
L 516.825326 145.591155 
L 517.048276 142.693309 
L 517.345542 138.716809 
L 517.568492 142.641858 
L 517.865758 146.224679 
L 518.163025 147.458918 
L 518.534608 148.077363 
L 519.054824 148.473728 
L 519.79799 148.75658 
L 520.541156 148.819284 
L 522.324754 148.731219 
L 522.622021 149.016046 
L 522.919287 149.645532 
L 523.216554 150.929087 
L 523.662453 153.372902 
L 523.73677 153.348788 
L 523.885403 152.735941 
L 524.479936 149.525402 
L 524.851519 148.761064 
L 525.297418 148.374707 
L 525.891951 148.17942 
L 528.121449 147.686664 
L 529.310515 146.935687 
L 529.979364 146.350611 
L 530.350947 145.742372 
L 530.648214 144.814867 
L 531.019797 142.658014 
L 531.317063 141.460595 
L 531.465696 141.925132 
L 532.134546 145.316324 
L 532.506129 145.916765 
L 532.877712 146.079779 
L 533.249295 145.998008 
L 533.695194 145.662313 
L 534.289727 144.882463 
L 536.370592 141.759614 
L 536.890808 141.488708 
L 537.336708 141.495856 
L 537.782607 141.713896 
L 538.37714 142.282269 
L 539.343256 143.610441 
L 540.383688 144.948406 
L 540.829588 145.226499 
L 541.126854 145.204947 
L 541.424121 144.935989 
L 541.795704 144.184048 
L 542.241603 143.300037 
L 542.390236 143.326621 
L 542.613186 143.7186 
L 543.356352 145.31428 
L 543.802252 145.723394 
L 544.619734 146.08102 
L 545.734483 146.623742 
L 547.592398 147.678454 
L 548.261248 147.874677 
L 548.484198 148.261854 
L 548.632831 149.134101 
L 548.781464 152.613454 
L 549.004414 176.99275 
L 549.227364 150.902786 
L 549.450313 147.920153 
L 549.74758 147.107238 
L 550.119163 146.76176 
L 550.713696 146.549822 
L 551.531178 146.511196 
L 552.79456 146.468605 
L 553.166143 146.200161 
L 553.46341 145.707707 
L 553.834993 144.5418 
L 554.206576 143.333413 
L 554.355209 143.302496 
L 554.578159 143.836292 
L 555.172692 145.50178 
L 555.544275 145.866646 
L 555.915858 145.939825 
L 556.436074 145.800439 
L 556.95629 145.433014 
L 557.40219 144.858576 
L 558.071039 143.895651 
L 558.293989 143.948397 
L 558.591255 144.432559 
L 559.408738 146.028364 
L 559.928954 146.506067 
L 560.44917 146.658242 
L 561.043703 146.582114 
L 561.861186 146.225509 
L 562.381402 145.7562 
L 562.678668 145.205367 
L 562.975935 144.111369 
L 563.570467 140.758052 
L 563.644784 140.98319 
L 564.536583 145.765409 
L 564.908166 146.286646 
L 565.354066 146.522617 
L 565.874282 146.510221 
L 566.468815 146.259244 
L 567.360614 145.623743 
L 568.10378 144.850829 
L 569.069896 143.716479 
L 569.367162 143.743087 
L 570.481911 144.312278 
L 570.853494 144.098567 
L 571.299394 143.563703 
L 573.231625 140.814077 
L 573.677525 140.708729 
L 574.049108 140.841007 
L 574.495008 141.233034 
L 575.238174 142.256388 
L 576.278606 143.652278 
L 576.798822 143.982745 
L 577.541988 144.086447 
L 577.987888 144.274328 
L 579.771486 145.360839 
L 580.663286 145.531397 
L 581.183502 145.425739 
L 581.629401 145.100653 
L 582.521201 144.31376 
L 582.818467 144.46116 
L 584.081849 145.543246 
L 584.750699 145.659447 
L 585.568181 145.576027 
L 587.277463 145.247177 
L 588.838112 145.45716 
L 589.878544 145.204628 
L 590.62171 145.124443 
L 591.216243 145.310915 
L 592.256675 145.674 
L 592.851208 145.629646 
L 593.520057 145.346657 
L 595.080706 144.49723 
L 595.526606 144.756181 
L 596.269772 145.224408 
L 596.789988 145.265213 
L 597.384521 145.042373 
L 598.202003 144.455342 
L 599.242436 143.717426 
L 600.357185 143.16375 
L 600.877401 142.515977 
L 602.438049 140.301979 
L 602.809632 140.198505 
L 603.181215 140.337334 
L 603.627115 140.780127 
L 604.518914 142.117108 
L 605.336397 143.151132 
L 606.153879 143.778847 
L 607.491578 144.535074 
L 608.309061 144.739236 
L 609.20086 144.721096 
L 610.018343 144.767519 
L 612.024891 145.171416 
L 618.490435 145.012454 
L 620.34835 144.535206 
L 621.388782 144.438215 
L 622.057632 144.103176 
L 623.321014 143.125215 
L 624.138497 142.317954 
L 624.881663 141.194709 
L 625.699145 139.978558 
L 626.070728 139.728436 
L 626.442311 139.746141 
L 626.813894 140.013814 
L 627.33411 140.718551 
L 628.671809 142.687133 
L 629.489292 143.428454 
L 630.381091 143.929213 
L 631.49584 144.280522 
L 633.502388 144.674131 
L 635.731886 144.757097 
L 638.481601 144.529688 
L 639.819299 144.11584 
L 641.156998 143.57691 
L 641.974481 142.938363 
L 642.86628 141.961684 
L 643.683763 140.736713 
L 644.575562 139.407761 
L 644.947145 139.162502 
L 645.244411 139.172147 
L 645.615994 139.433761 
L 646.13621 140.134682 
L 647.548226 142.1921 
L 648.365708 142.918911 
L 649.331824 143.465507 
L 650.372257 143.808461 
L 651.709955 143.988758 
L 652.973338 143.958377 
L 654.45967 143.686836 
L 655.425785 143.297474 
L 656.466218 142.654328 
L 657.2837 141.881398 
L 658.1755 140.671091 
L 659.661832 138.498741 
L 660.033415 138.349679 
L 660.404998 138.479871 
L 660.850897 138.938652 
L 662.931762 141.519692 
L 663.674928 141.962309 
L 664.418094 142.151192 
L 665.309893 142.147805 
L 666.276009 141.916771 
L 667.242125 141.490123 
L 667.836658 141.038988 
L 668.65414 139.927748 
L 669.768889 137.793562 
L 670.883638 135.864369 
L 671.255221 135.543237 
L 671.775437 135.309902 
L 672.964503 135.083384 
L 673.187453 134.7854 
L 673.410403 134.004715 
L 673.707669 131.789588 
L 674.227885 125.587863 
L 675.416951 110.137126 
L 675.714217 109.381554 
L 676.0858 109.070016 
L 676.680333 108.968402 
L 677.646449 108.954915 
L 677.646449 108.954915 
" clip-path="url(#pe9490dde82)" style="fill: none; stroke: #1f77b4; stroke-width: 1.5; stroke-linecap: square"/>
   </g>
   <g id="line2d_17">
    <path d="M 38.482813 136.989198 
L 708.082813 136.989198 
" clip-path="url(#pe9490dde82)" style="fill: none; stroke-dasharray: 2.22,0.96; stroke-dashoffset: 0; stroke: #ff0000; stroke-width: 0.6"/>
   </g>
   <g id="line2d_18">
    <path d="M 68.919176 238.055712 
L 68.993493 219.979844 
L 69.067809 219.543779 
L 69.142126 221.165045 
" clip-path="url(#pe9490dde82)" style="fill: none; stroke: #ff7f0e; stroke-width: 1.5; stroke-linecap: square"/>
   </g>
   <g id="patch_3">
    <path d="M 38.482813 284.4 
L 38.482813 7.2 
" style="fill: none; stroke: #000000; stroke-width: 0.8; stroke-linejoin: miter; stroke-linecap: square"/>
   </g>
   <g id="patch_4">
    <path d="M 708.082813 284.4 
L 708.082813 7.2 
" style="fill: none; stroke: #000000; stroke-width: 0.8; stroke-linejoin: miter; stroke-linecap: square"/>
   </g>
   <g id="patch_5">
    <path d="M 38.482813 284.4 
L 708.082813 284.4 
" style="fill: none; stroke: #000000; stroke-width: 0.8; stroke-linejoin: miter; stroke-linecap: square"/>
   </g>
   <g id="patch_6">
    <path d="M 38.482813 7.2 
L 708.082813 7.2 
" style="fill: none; stroke: #000000; stroke-width: 0.8; stroke-linejoin: miter; stroke-linecap: square"/>
   </g>
   <g id="legend_1">
    <g id="patch_7">
     <path d="M 538.082813 73.9125 
L 701.082813 73.9125 
Q 703.082813 73.9125 703.082813 71.9125 
L 703.082813 14.2 
Q 703.082813 12.2 701.082813 12.2 
L 538.082813 12.2 
Q 536.082813 12.2 536.082813 14.2 
L 536.082813 71.9125 
Q 536.082813 73.9125 538.082813 73.9125 
z
" style="fill: #ffffff; opacity: 0.8; stroke: #cccccc; stroke-linejoin: miter"/>
    </g>
    <g id="line2d_19">
     <path d="M 540.082813 20.298438 
L 550.082813 20.298438 
L 560.082813 20.298438 
" style="fill: none; stroke: #1f77b4; stroke-width: 1.5; stroke-linecap: square"/>
    </g>
    <g id="text_16">
     <!-- Mf before ISCO cut: $e$=0.5 -->
     <g transform="translate(568.082813 23.798438) scale(0.1 -0.1)">
      <defs>
       <path id="DejaVuSans-4d" d="M 628 4666 
L 1569 4666 
L 2759 1491 
L 3956 4666 
L 4897 4666 
L 4897 0 
L 4281 0 
L 4281 4097 
L 3078 897 
L 2444 897 
L 1241 4097 
L 1241 0 
L 628 0 
L 628 4666 
z
" transform="scale(0.015625)"/>
       <path id="DejaVuSans-66" d="M 2375 4863 
L 2375 4384 
L 1825 4384 
Q 1516 4384 1395 4259 
Q 1275 4134 1275 3809 
L 1275 3500 
L 2222 3500 
L 2222 3053 
L 1275 3053 
L 1275 0 
L 697 0 
L 697 3053 
L 147 3053 
L 147 3500 
L 697 3500 
L 697 3744 
Q 697 4328 969 4595 
Q 1241 4863 1831 4863 
L 2375 4863 
z
" transform="scale(0.015625)"/>
       <path id="DejaVuSans-20" transform="scale(0.015625)"/>
       <path id="DejaVuSans-62" d="M 3116 1747 
Q 3116 2381 2855 2742 
Q 2594 3103 2138 3103 
Q 1681 3103 1420 2742 
Q 1159 2381 1159 1747 
Q 1159 1113 1420 752 
Q 1681 391 2138 391 
Q 2594 391 2855 752 
Q 3116 1113 3116 1747 
z
M 1159 2969 
Q 1341 3281 1617 3432 
Q 1894 3584 2278 3584 
Q 2916 3584 3314 3078 
Q 3713 2572 3713 1747 
Q 3713 922 3314 415 
Q 2916 -91 2278 -91 
Q 1894 -91 1617 61 
Q 1341 213 1159 525 
L 1159 0 
L 581 0 
L 581 4863 
L 1159 4863 
L 1159 2969 
z
" transform="scale(0.015625)"/>
       <path id="DejaVuSans-65" d="M 3597 1894 
L 3597 1613 
L 953 1613 
Q 991 1019 1311 708 
Q 1631 397 2203 397 
Q 2534 397 2845 478 
Q 3156 559 3463 722 
L 3463 178 
Q 3153 47 2828 -22 
Q 2503 -91 2169 -91 
Q 1331 -91 842 396 
Q 353 884 353 1716 
Q 353 2575 817 3079 
Q 1281 3584 2069 3584 
Q 2775 3584 3186 3129 
Q 3597 2675 3597 1894 
z
M 3022 2063 
Q 3016 2534 2758 2815 
Q 2500 3097 2075 3097 
Q 1594 3097 1305 2825 
Q 1016 2553 972 2059 
L 3022 2063 
z
" transform="scale(0.015625)"/>
       <path id="DejaVuSans-6f" d="M 1959 3097 
Q 1497 3097 1228 2736 
Q 959 2375 959 1747 
Q 959 1119 1226 758 
Q 1494 397 1959 397 
Q 2419 397 2687 759 
Q 2956 1122 2956 1747 
Q 2956 2369 2687 2733 
Q 2419 3097 1959 3097 
z
M 1959 3584 
Q 2709 3584 3137 3096 
Q 3566 2609 3566 1747 
Q 3566 888 3137 398 
Q 2709 -91 1959 -91 
Q 1206 -91 779 398 
Q 353 888 353 1747 
Q 353 2609 779 3096 
Q 1206 3584 1959 3584 
z
" transform="scale(0.015625)"/>
       <path id="DejaVuSans-72" d="M 2631 2963 
Q 2534 3019 2420 3045 
Q 2306 3072 2169 3072 
Q 1681 3072 1420 2755 
Q 1159 2438 1159 1844 
L 1159 0 
L 581 0 
L 581 3500 
L 1159 3500 
L 1159 2956 
Q 1341 3275 1631 3429 
Q 1922 3584 2338 3584 
Q 2397 3584 2469 3576 
Q 2541 3569 2628 3553 
L 2631 2963 
z
" transform="scale(0.015625)"/>
       <path id="DejaVuSans-49" d="M 628 4666 
L 1259 4666 
L 1259 0 
L 628 0 
L 628 4666 
z
" transform="scale(0.015625)"/>
       <path id="DejaVuSans-53" d="M 3425 4513 
L 3425 3897 
Q 3066 4069 2747 4153 
Q 2428 4238 2131 4238 
Q 1616 4238 1336 4038 
Q 1056 3838 1056 3469 
Q 1056 3159 1242 3001 
Q 1428 2844 1947 2747 
L 2328 2669 
Q 3034 2534 3370 2195 
Q 3706 1856 3706 1288 
Q 3706 609 3251 259 
Q 2797 -91 1919 -91 
Q 1588 -91 1214 -16 
Q 841 59 441 206 
L 441 856 
Q 825 641 1194 531 
Q 1563 422 1919 422 
Q 2459 422 2753 634 
Q 3047 847 3047 1241 
Q 3047 1584 2836 1778 
Q 2625 1972 2144 2069 
L 1759 2144 
Q 1053 2284 737 2584 
Q 422 2884 422 3419 
Q 422 4038 858 4394 
Q 1294 4750 2059 4750 
Q 2388 4750 2728 4690 
Q 3069 4631 3425 4513 
z
" transform="scale(0.015625)"/>
       <path id="DejaVuSans-43" d="M 4122 4306 
L 4122 3641 
Q 3803 3938 3442 4084 
Q 3081 4231 2675 4231 
Q 1875 4231 1450 3742 
Q 1025 3253 1025 2328 
Q 1025 1406 1450 917 
Q 1875 428 2675 428 
Q 3081 428 3442 575 
Q 3803 722 4122 1019 
L 4122 359 
Q 3791 134 3420 21 
Q 3050 -91 2638 -91 
Q 1578 -91 968 557 
Q 359 1206 359 2328 
Q 359 3453 968 4101 
Q 1578 4750 2638 4750 
Q 3056 4750 3426 4639 
Q 3797 4528 4122 4306 
z
" transform="scale(0.015625)"/>
       <path id="DejaVuSans-4f" d="M 2522 4238 
Q 1834 4238 1429 3725 
Q 1025 3213 1025 2328 
Q 1025 1447 1429 934 
Q 1834 422 2522 422 
Q 3209 422 3611 934 
Q 4013 1447 4013 2328 
Q 4013 3213 3611 3725 
Q 3209 4238 2522 4238 
z
M 2522 4750 
Q 3503 4750 4090 4092 
Q 4678 3434 4678 2328 
Q 4678 1225 4090 567 
Q 3503 -91 2522 -91 
Q 1538 -91 948 565 
Q 359 1222 359 2328 
Q 359 3434 948 4092 
Q 1538 4750 2522 4750 
z
" transform="scale(0.015625)"/>
       <path id="DejaVuSans-63" d="M 3122 3366 
L 3122 2828 
Q 2878 2963 2633 3030 
Q 2388 3097 2138 3097 
Q 1578 3097 1268 2742 
Q 959 2388 959 1747 
Q 959 1106 1268 751 
Q 1578 397 2138 397 
Q 2388 397 2633 464 
Q 2878 531 3122 666 
L 3122 134 
Q 2881 22 2623 -34 
Q 2366 -91 2075 -91 
Q 1284 -91 818 406 
Q 353 903 353 1747 
Q 353 2603 823 3093 
Q 1294 3584 2113 3584 
Q 2378 3584 2631 3529 
Q 2884 3475 3122 3366 
z
" transform="scale(0.015625)"/>
       <path id="DejaVuSans-75" d="M 544 1381 
L 544 3500 
L 1119 3500 
L 1119 1403 
Q 1119 906 1312 657 
Q 1506 409 1894 409 
Q 2359 409 2629 706 
Q 2900 1003 2900 1516 
L 2900 3500 
L 3475 3500 
L 3475 0 
L 2900 0 
L 2900 538 
Q 2691 219 2414 64 
Q 2138 -91 1772 -91 
Q 1169 -91 856 284 
Q 544 659 544 1381 
z
M 1991 3584 
L 1991 3584 
z
" transform="scale(0.015625)"/>
       <path id="DejaVuSans-74" d="M 1172 4494 
L 1172 3500 
L 2356 3500 
L 2356 3053 
L 1172 3053 
L 1172 1153 
Q 1172 725 1289 603 
Q 1406 481 1766 481 
L 2356 481 
L 2356 0 
L 1766 0 
Q 1100 0 847 248 
Q 594 497 594 1153 
L 594 3053 
L 172 3053 
L 172 3500 
L 594 3500 
L 594 4494 
L 1172 4494 
z
" transform="scale(0.015625)"/>
       <path id="DejaVuSans-3a" d="M 750 794 
L 1409 794 
L 1409 0 
L 750 0 
L 750 794 
z
M 750 3309 
L 1409 3309 
L 1409 2516 
L 750 2516 
L 750 3309 
z
" transform="scale(0.015625)"/>
       <path id="DejaVuSans-Oblique-65" d="M 3078 2063 
Q 3088 2113 3092 2166 
Q 3097 2219 3097 2272 
Q 3097 2653 2873 2875 
Q 2650 3097 2266 3097 
Q 1838 3097 1509 2826 
Q 1181 2556 1013 2059 
L 3078 2063 
z
M 3578 1613 
L 903 1613 
Q 884 1494 878 1425 
Q 872 1356 872 1306 
Q 872 872 1139 634 
Q 1406 397 1894 397 
Q 2269 397 2603 481 
Q 2938 566 3225 728 
L 3116 159 
Q 2806 34 2476 -28 
Q 2147 -91 1806 -91 
Q 1078 -91 686 257 
Q 294 606 294 1247 
Q 294 1794 489 2264 
Q 684 2734 1063 3103 
Q 1306 3334 1642 3459 
Q 1978 3584 2356 3584 
Q 2950 3584 3301 3228 
Q 3653 2872 3653 2272 
Q 3653 2128 3634 1964 
Q 3616 1800 3578 1613 
z
" transform="scale(0.015625)"/>
       <path id="DejaVuSans-3d" d="M 678 2906 
L 4684 2906 
L 4684 2381 
L 678 2381 
L 678 2906 
z
M 678 1631 
L 4684 1631 
L 4684 1100 
L 678 1100 
L 678 1631 
z
" transform="scale(0.015625)"/>
       <path id="DejaVuSans-35" d="M 691 4666 
L 3169 4666 
L 3169 4134 
L 1269 4134 
L 1269 2991 
Q 1406 3038 1543 3061 
Q 1681 3084 1819 3084 
Q 2600 3084 3056 2656 
Q 3513 2228 3513 1497 
Q 3513 744 3044 326 
Q 2575 -91 1722 -91 
Q 1428 -91 1123 -41 
Q 819 9 494 109 
L 494 744 
Q 775 591 1075 516 
Q 1375 441 1709 441 
Q 2250 441 2565 725 
Q 2881 1009 2881 1497 
Q 2881 1984 2565 2268 
Q 2250 2553 1709 2553 
Q 1456 2553 1204 2497 
Q 953 2441 691 2322 
L 691 4666 
z
" transform="scale(0.015625)"/>
      </defs>
      <use xlink:href="#DejaVuSans-4d" transform="translate(0 0.015625)"/>
      <use xlink:href="#DejaVuSans-66" transform="translate(86.279297 0.015625)"/>
      <use xlink:href="#DejaVuSans-20" transform="translate(121.484375 0.015625)"/>
      <use xlink:href="#DejaVuSans-62" transform="translate(153.271484 0.015625)"/>
      <use xlink:href="#DejaVuSans-65" transform="translate(216.748047 0.015625)"/>
      <use xlink:href="#DejaVuSans-66" transform="translate(278.271484 0.015625)"/>
      <use xlink:href="#DejaVuSans-6f" transform="translate(313.476562 0.015625)"/>
      <use xlink:href="#DejaVuSans-72" transform="translate(374.658203 0.015625)"/>
      <use xlink:href="#DejaVuSans-65" transform="translate(415.771484 0.015625)"/>
      <use xlink:href="#DejaVuSans-20" transform="translate(477.294922 0.015625)"/>
      <use xlink:href="#DejaVuSans-49" transform="translate(509.082031 0.015625)"/>
      <use xlink:href="#DejaVuSans-53" transform="translate(538.574219 0.015625)"/>
      <use xlink:href="#DejaVuSans-43" transform="translate(602.050781 0.015625)"/>
      <use xlink:href="#DejaVuSans-4f" transform="translate(671.875 0.015625)"/>
      <use xlink:href="#DejaVuSans-20" transform="translate(750.585938 0.015625)"/>
      <use xlink:href="#DejaVuSans-63" transform="translate(782.373047 0.015625)"/>
      <use xlink:href="#DejaVuSans-75" transform="translate(837.353516 0.015625)"/>
      <use xlink:href="#DejaVuSans-74" transform="translate(900.732422 0.015625)"/>
      <use xlink:href="#DejaVuSans-3a" transform="translate(939.941406 0.015625)"/>
      <use xlink:href="#DejaVuSans-20" transform="translate(973.632812 0.015625)"/>
      <use xlink:href="#DejaVuSans-Oblique-65" transform="translate(1005.419922 0.015625)"/>
      <use xlink:href="#DejaVuSans-3d" transform="translate(1066.943359 0.015625)"/>
      <use xlink:href="#DejaVuSans-30" transform="translate(1150.732422 0.015625)"/>
      <use xlink:href="#DejaVuSans-2e" transform="translate(1214.355469 0.015625)"/>
      <use xlink:href="#DejaVuSans-35" transform="translate(1246.142578 0.015625)"/>
     </g>
    </g>
    <g id="line2d_20">
     <path d="M 540.082813 34.976563 
L 550.082813 34.976563 
L 560.082813 34.976563 
" style="fill: none; stroke-dasharray: 2.22,0.96; stroke-dashoffset: 0; stroke: #ff0000; stroke-width: 0.6"/>
    </g>
    <g id="text_17">
     <!-- Mf ISCO $e$=0 -->
     <g transform="translate(568.082813 38.476563) scale(0.1 -0.1)">
      <use xlink:href="#DejaVuSans-4d" transform="translate(0 0.015625)"/>
      <use xlink:href="#DejaVuSans-66" transform="translate(86.279297 0.015625)"/>
      <use xlink:href="#DejaVuSans-20" transform="translate(121.484375 0.015625)"/>
      <use xlink:href="#DejaVuSans-49" transform="translate(153.271484 0.015625)"/>
      <use xlink:href="#DejaVuSans-53" transform="translate(182.763672 0.015625)"/>
      <use xlink:href="#DejaVuSans-43" transform="translate(246.240234 0.015625)"/>
      <use xlink:href="#DejaVuSans-4f" transform="translate(316.064453 0.015625)"/>
      <use xlink:href="#DejaVuSans-20" transform="translate(394.775391 0.015625)"/>
      <use xlink:href="#DejaVuSans-Oblique-65" transform="translate(426.5625 0.015625)"/>
      <use xlink:href="#DejaVuSans-3d" transform="translate(488.085938 0.015625)"/>
      <use xlink:href="#DejaVuSans-30" transform="translate(571.875 0.015625)"/>
     </g>
    </g>
    <g id="PathCollection_2">
     <g>
      <use xlink:href="#m3f79e69548" x="550.082813" y="50.529688" style="fill: #ff0000; stroke: #ff0000"/>
     </g>
    </g>
    <g id="text_18">
     <!-- ISCO cut -->
     <g transform="translate(568.082813 53.154688) scale(0.1 -0.1)">
      <use xlink:href="#DejaVuSans-49"/>
      <use xlink:href="#DejaVuSans-53" transform="translate(29.492188 0)"/>
      <use xlink:href="#DejaVuSans-43" transform="translate(92.96875 0)"/>
      <use xlink:href="#DejaVuSans-4f" transform="translate(162.792969 0)"/>
      <use xlink:href="#DejaVuSans-20" transform="translate(241.503906 0)"/>
      <use xlink:href="#DejaVuSans-63" transform="translate(273.291016 0)"/>
      <use xlink:href="#DejaVuSans-75" transform="translate(328.271484 0)"/>
      <use xlink:href="#DejaVuSans-74" transform="translate(391.650391 0)"/>
     </g>
    </g>
    <g id="line2d_21">
     <path d="M 540.082813 64.332813 
L 550.082813 64.332813 
L 560.082813 64.332813 
" style="fill: none; stroke: #ff7f0e; stroke-width: 1.5; stroke-linecap: square"/>
    </g>
    <g id="text_19">
     <!-- Mf after ISCO cut: $e$=0.5  -->
     <g transform="translate(568.082813 67.832813) scale(0.1 -0.1)">
      <defs>
       <path id="DejaVuSans-61" d="M 2194 1759 
Q 1497 1759 1228 1600 
Q 959 1441 959 1056 
Q 959 750 1161 570 
Q 1363 391 1709 391 
Q 2188 391 2477 730 
Q 2766 1069 2766 1631 
L 2766 1759 
L 2194 1759 
z
M 3341 1997 
L 3341 0 
L 2766 0 
L 2766 531 
Q 2569 213 2275 61 
Q 1981 -91 1556 -91 
Q 1019 -91 701 211 
Q 384 513 384 1019 
Q 384 1609 779 1909 
Q 1175 2209 1959 2209 
L 2766 2209 
L 2766 2266 
Q 2766 2663 2505 2880 
Q 2244 3097 1772 3097 
Q 1472 3097 1187 3025 
Q 903 2953 641 2809 
L 641 3341 
Q 956 3463 1253 3523 
Q 1550 3584 1831 3584 
Q 2591 3584 2966 3190 
Q 3341 2797 3341 1997 
z
" transform="scale(0.015625)"/>
      </defs>
      <use xlink:href="#DejaVuSans-4d" transform="translate(0 0.015625)"/>
      <use xlink:href="#DejaVuSans-66" transform="translate(86.279297 0.015625)"/>
      <use xlink:href="#DejaVuSans-20" transform="translate(121.484375 0.015625)"/>
      <use xlink:href="#DejaVuSans-61" transform="translate(153.271484 0.015625)"/>
      <use xlink:href="#DejaVuSans-66" transform="translate(214.550781 0.015625)"/>
      <use xlink:href="#DejaVuSans-74" transform="translate(249.755859 0.015625)"/>
      <use xlink:href="#DejaVuSans-65" transform="translate(288.964844 0.015625)"/>
      <use xlink:href="#DejaVuSans-72" transform="translate(350.488281 0.015625)"/>
      <use xlink:href="#DejaVuSans-20" transform="translate(391.601562 0.015625)"/>
      <use xlink:href="#DejaVuSans-49" transform="translate(423.388672 0.015625)"/>
      <use xlink:href="#DejaVuSans-53" transform="translate(452.880859 0.015625)"/>
      <use xlink:href="#DejaVuSans-43" transform="translate(516.357422 0.015625)"/>
      <use xlink:href="#DejaVuSans-4f" transform="translate(586.181641 0.015625)"/>
      <use xlink:href="#DejaVuSans-20" transform="translate(664.892578 0.015625)"/>
      <use xlink:href="#DejaVuSans-63" transform="translate(696.679688 0.015625)"/>
      <use xlink:href="#DejaVuSans-75" transform="translate(751.660156 0.015625)"/>
      <use xlink:href="#DejaVuSans-74" transform="translate(815.039062 0.015625)"/>
      <use xlink:href="#DejaVuSans-3a" transform="translate(854.248047 0.015625)"/>
      <use xlink:href="#DejaVuSans-20" transform="translate(887.939453 0.015625)"/>
      <use xlink:href="#DejaVuSans-Oblique-65" transform="translate(919.726562 0.015625)"/>
      <use xlink:href="#DejaVuSans-3d" transform="translate(981.25 0.015625)"/>
      <use xlink:href="#DejaVuSans-30" transform="translate(1065.039062 0.015625)"/>
      <use xlink:href="#DejaVuSans-2e" transform="translate(1128.662109 0.015625)"/>
      <use xlink:href="#DejaVuSans-35" transform="translate(1160.449219 0.015625)"/>
      <use xlink:href="#DejaVuSans-20" transform="translate(1224.072266 0.015625)"/>
     </g>
    </g>
   </g>
  </g>
 </g>
 <defs>
  <clipPath id="pe9490dde82">
   <rect x="38.482813" y="7.2" width="669.6" height="277.2"/>
  </clipPath>
 </defs>
</svg>
