<?xml version="1.0" encoding="utf-8" standalone="no"?>
<!DOCTYPE svg PUBLIC "-//W3C//DTD SVG 1.1//EN"
  "http://www.w3.org/Graphics/SVG/1.1/DTD/svg11.dtd">
<svg xmlns:xlink="http://www.w3.org/1999/xlink" width="713.265625pt" height="308.278125pt" viewBox="0 0 713.265625 308.278125" xmlns="http://www.w3.org/2000/svg" version="1.1">
 <metadata>
  <rdf:RDF xmlns:dc="http://purl.org/dc/elements/1.1/" xmlns:cc="http://creativecommons.org/ns#" xmlns:rdf="http://www.w3.org/1999/02/22-rdf-syntax-ns#">
   <cc:Work>
    <dc:type rdf:resource="http://purl.org/dc/dcmitype/StillImage"/>
    <dc:date>2025-07-25T16:40:35.962036</dc:date>
    <dc:format>image/svg+xml</dc:format>
    <dc:creator>
     <cc:Agent>
      <dc:title>Matplotlib v3.10.3, https://matplotlib.org/</dc:title>
     </cc:Agent>
    </dc:creator>
   </cc:Work>
  </rdf:RDF>
 </metadata>
 <defs>
  <style type="text/css">*{stroke-linejoin: round; stroke-linecap: butt}</style>
 </defs>
 <g id="figure_1">
  <g id="patch_1">
   <path d="M 0 308.278125 
L 713.265625 308.278125 
L 713.265625 0 
L 0 0 
z
" style="fill: #ffffff"/>
  </g>
  <g id="axes_1">
   <g id="patch_2">
    <path d="M 36.465625 284.4 
L 706.065625 284.4 
L 706.065625 7.2 
L 36.465625 7.2 
z
" style="fill: #ffffff"/>
   </g>
   <g id="PathCollection_1">
    <defs>
     <path id="m44c69274d7" d="M 0 1.224745 
C 0.324806 1.224745 0.636353 1.095698 0.866025 0.866025 
C 1.095698 0.636353 1.224745 0.324806 1.224745 0 
C 1.224745 -0.324806 1.095698 -0.636353 0.866025 -0.866025 
C 0.636353 -1.095698 0.324806 -1.224745 0 -1.224745 
C -0.324806 -1.224745 -0.636353 -1.095698 -0.866025 -0.866025 
C -1.095698 -0.636353 -1.224745 -0.324806 -1.224745 0 
C -1.224745 0.324806 -1.095698 0.636353 -0.866025 0.866025 
C -0.636353 1.095698 -0.324806 1.224745 0 1.224745 
z
" style="stroke: #ff0000"/>
    </defs>
    <g clip-path="url(#paa788ec88c)">
     <use xlink:href="#m44c69274d7" x="668.717818" y="212.422377" style="fill: #ff0000; stroke: #ff0000"/>
    </g>
   </g>
   <g id="matplotlib.axis_1">
    <g id="xtick_1">
     <g id="line2d_1">
      <defs>
       <path id="mb555b3c6d3" d="M 0 0 
L 0 3.5 
" style="stroke: #000000; stroke-width: 0.8"/>
      </defs>
      <g>
       <use xlink:href="#mb555b3c6d3" x="46.099533" y="284.4" style="stroke: #000000; stroke-width: 0.8"/>
      </g>
     </g>
     <g id="text_1">
      <!-- −14000 -->
      <g transform="translate(26.00344 298.998438) scale(0.1 -0.1)">
       <defs>
        <path id="DejaVuSans-2212" d="M 678 2272 
L 4684 2272 
L 4684 1741 
L 678 1741 
L 678 2272 
z
" transform="scale(0.015625)"/>
        <path id="DejaVuSans-31" d="M 794 531 
L 1825 531 
L 1825 4091 
L 703 3866 
L 703 4441 
L 1819 4666 
L 2450 4666 
L 2450 531 
L 3481 531 
L 3481 0 
L 794 0 
L 794 531 
z
" transform="scale(0.015625)"/>
        <path id="DejaVuSans-34" d="M 2419 4116 
L 825 1625 
L 2419 1625 
L 2419 4116 
z
M 2253 4666 
L 3047 4666 
L 3047 1625 
L 3713 1625 
L 3713 1100 
L 3047 1100 
L 3047 0 
L 2419 0 
L 2419 1100 
L 313 1100 
L 313 1709 
L 2253 4666 
z
" transform="scale(0.015625)"/>
        <path id="DejaVuSans-30" d="M 2034 4250 
Q 1547 4250 1301 3770 
Q 1056 3291 1056 2328 
Q 1056 1369 1301 889 
Q 1547 409 2034 409 
Q 2525 409 2770 889 
Q 3016 1369 3016 2328 
Q 3016 3291 2770 3770 
Q 2525 4250 2034 4250 
z
M 2034 4750 
Q 2819 4750 3233 4129 
Q 3647 3509 3647 2328 
Q 3647 1150 3233 529 
Q 2819 -91 2034 -91 
Q 1250 -91 836 529 
Q 422 1150 422 2328 
Q 422 3509 836 4129 
Q 1250 4750 2034 4750 
z
" transform="scale(0.015625)"/>
       </defs>
       <use xlink:href="#DejaVuSans-2212"/>
       <use xlink:href="#DejaVuSans-31" transform="translate(83.789062 0)"/>
       <use xlink:href="#DejaVuSans-34" transform="translate(147.412109 0)"/>
       <use xlink:href="#DejaVuSans-30" transform="translate(211.035156 0)"/>
       <use xlink:href="#DejaVuSans-30" transform="translate(274.658203 0)"/>
       <use xlink:href="#DejaVuSans-30" transform="translate(338.28125 0)"/>
      </g>
     </g>
    </g>
    <g id="xtick_2">
     <g id="line2d_2">
      <g>
       <use xlink:href="#mb555b3c6d3" x="135.57819" y="284.4" style="stroke: #000000; stroke-width: 0.8"/>
      </g>
     </g>
     <g id="text_2">
      <!-- −12000 -->
      <g transform="translate(115.482097 298.998438) scale(0.1 -0.1)">
       <defs>
        <path id="DejaVuSans-32" d="M 1228 531 
L 3431 531 
L 3431 0 
L 469 0 
L 469 531 
Q 828 903 1448 1529 
Q 2069 2156 2228 2338 
Q 2531 2678 2651 2914 
Q 2772 3150 2772 3378 
Q 2772 3750 2511 3984 
Q 2250 4219 1831 4219 
Q 1534 4219 1204 4116 
Q 875 4013 500 3803 
L 500 4441 
Q 881 4594 1212 4672 
Q 1544 4750 1819 4750 
Q 2544 4750 2975 4387 
Q 3406 4025 3406 3419 
Q 3406 3131 3298 2873 
Q 3191 2616 2906 2266 
Q 2828 2175 2409 1742 
Q 1991 1309 1228 531 
z
" transform="scale(0.015625)"/>
       </defs>
       <use xlink:href="#DejaVuSans-2212"/>
       <use xlink:href="#DejaVuSans-31" transform="translate(83.789062 0)"/>
       <use xlink:href="#DejaVuSans-32" transform="translate(147.412109 0)"/>
       <use xlink:href="#DejaVuSans-30" transform="translate(211.035156 0)"/>
       <use xlink:href="#DejaVuSans-30" transform="translate(274.658203 0)"/>
       <use xlink:href="#DejaVuSans-30" transform="translate(338.28125 0)"/>
      </g>
     </g>
    </g>
    <g id="xtick_3">
     <g id="line2d_3">
      <g>
       <use xlink:href="#mb555b3c6d3" x="225.056848" y="284.4" style="stroke: #000000; stroke-width: 0.8"/>
      </g>
     </g>
     <g id="text_3">
      <!-- −10000 -->
      <g transform="translate(204.960754 298.998438) scale(0.1 -0.1)">
       <use xlink:href="#DejaVuSans-2212"/>
       <use xlink:href="#DejaVuSans-31" transform="translate(83.789062 0)"/>
       <use xlink:href="#DejaVuSans-30" transform="translate(147.412109 0)"/>
       <use xlink:href="#DejaVuSans-30" transform="translate(211.035156 0)"/>
       <use xlink:href="#DejaVuSans-30" transform="translate(274.658203 0)"/>
       <use xlink:href="#DejaVuSans-30" transform="translate(338.28125 0)"/>
      </g>
     </g>
    </g>
    <g id="xtick_4">
     <g id="line2d_4">
      <g>
       <use xlink:href="#mb555b3c6d3" x="314.535505" y="284.4" style="stroke: #000000; stroke-width: 0.8"/>
      </g>
     </g>
     <g id="text_4">
      <!-- −8000 -->
      <g transform="translate(297.620661 298.998438) scale(0.1 -0.1)">
       <defs>
        <path id="DejaVuSans-38" d="M 2034 2216 
Q 1584 2216 1326 1975 
Q 1069 1734 1069 1313 
Q 1069 891 1326 650 
Q 1584 409 2034 409 
Q 2484 409 2743 651 
Q 3003 894 3003 1313 
Q 3003 1734 2745 1975 
Q 2488 2216 2034 2216 
z
M 1403 2484 
Q 997 2584 770 2862 
Q 544 3141 544 3541 
Q 544 4100 942 4425 
Q 1341 4750 2034 4750 
Q 2731 4750 3128 4425 
Q 3525 4100 3525 3541 
Q 3525 3141 3298 2862 
Q 3072 2584 2669 2484 
Q 3125 2378 3379 2068 
Q 3634 1759 3634 1313 
Q 3634 634 3220 271 
Q 2806 -91 2034 -91 
Q 1263 -91 848 271 
Q 434 634 434 1313 
Q 434 1759 690 2068 
Q 947 2378 1403 2484 
z
M 1172 3481 
Q 1172 3119 1398 2916 
Q 1625 2713 2034 2713 
Q 2441 2713 2670 2916 
Q 2900 3119 2900 3481 
Q 2900 3844 2670 4047 
Q 2441 4250 2034 4250 
Q 1625 4250 1398 4047 
Q 1172 3844 1172 3481 
z
" transform="scale(0.015625)"/>
       </defs>
       <use xlink:href="#DejaVuSans-2212"/>
       <use xlink:href="#DejaVuSans-38" transform="translate(83.789062 0)"/>
       <use xlink:href="#DejaVuSans-30" transform="translate(147.412109 0)"/>
       <use xlink:href="#DejaVuSans-30" transform="translate(211.035156 0)"/>
       <use xlink:href="#DejaVuSans-30" transform="translate(274.658203 0)"/>
      </g>
     </g>
    </g>
    <g id="xtick_5">
     <g id="line2d_5">
      <g>
       <use xlink:href="#mb555b3c6d3" x="404.014162" y="284.4" style="stroke: #000000; stroke-width: 0.8"/>
      </g>
     </g>
     <g id="text_5">
      <!-- −6000 -->
      <g transform="translate(387.099318 298.998438) scale(0.1 -0.1)">
       <defs>
        <path id="DejaVuSans-36" d="M 2113 2584 
Q 1688 2584 1439 2293 
Q 1191 2003 1191 1497 
Q 1191 994 1439 701 
Q 1688 409 2113 409 
Q 2538 409 2786 701 
Q 3034 994 3034 1497 
Q 3034 2003 2786 2293 
Q 2538 2584 2113 2584 
z
M 3366 4563 
L 3366 3988 
Q 3128 4100 2886 4159 
Q 2644 4219 2406 4219 
Q 1781 4219 1451 3797 
Q 1122 3375 1075 2522 
Q 1259 2794 1537 2939 
Q 1816 3084 2150 3084 
Q 2853 3084 3261 2657 
Q 3669 2231 3669 1497 
Q 3669 778 3244 343 
Q 2819 -91 2113 -91 
Q 1303 -91 875 529 
Q 447 1150 447 2328 
Q 447 3434 972 4092 
Q 1497 4750 2381 4750 
Q 2619 4750 2861 4703 
Q 3103 4656 3366 4563 
z
" transform="scale(0.015625)"/>
       </defs>
       <use xlink:href="#DejaVuSans-2212"/>
       <use xlink:href="#DejaVuSans-36" transform="translate(83.789062 0)"/>
       <use xlink:href="#DejaVuSans-30" transform="translate(147.412109 0)"/>
       <use xlink:href="#DejaVuSans-30" transform="translate(211.035156 0)"/>
       <use xlink:href="#DejaVuSans-30" transform="translate(274.658203 0)"/>
      </g>
     </g>
    </g>
    <g id="xtick_6">
     <g id="line2d_6">
      <g>
       <use xlink:href="#mb555b3c6d3" x="493.492819" y="284.4" style="stroke: #000000; stroke-width: 0.8"/>
      </g>
     </g>
     <g id="text_6">
      <!-- −4000 -->
      <g transform="translate(476.577975 298.998438) scale(0.1 -0.1)">
       <use xlink:href="#DejaVuSans-2212"/>
       <use xlink:href="#DejaVuSans-34" transform="translate(83.789062 0)"/>
       <use xlink:href="#DejaVuSans-30" transform="translate(147.412109 0)"/>
       <use xlink:href="#DejaVuSans-30" transform="translate(211.035156 0)"/>
       <use xlink:href="#DejaVuSans-30" transform="translate(274.658203 0)"/>
      </g>
     </g>
    </g>
    <g id="xtick_7">
     <g id="line2d_7">
      <g>
       <use xlink:href="#mb555b3c6d3" x="582.971476" y="284.4" style="stroke: #000000; stroke-width: 0.8"/>
      </g>
     </g>
     <g id="text_7">
      <!-- −2000 -->
      <g transform="translate(566.056633 298.998438) scale(0.1 -0.1)">
       <use xlink:href="#DejaVuSans-2212"/>
       <use xlink:href="#DejaVuSans-32" transform="translate(83.789062 0)"/>
       <use xlink:href="#DejaVuSans-30" transform="translate(147.412109 0)"/>
       <use xlink:href="#DejaVuSans-30" transform="translate(211.035156 0)"/>
       <use xlink:href="#DejaVuSans-30" transform="translate(274.658203 0)"/>
      </g>
     </g>
    </g>
    <g id="xtick_8">
     <g id="line2d_8">
      <g>
       <use xlink:href="#mb555b3c6d3" x="672.450134" y="284.4" style="stroke: #000000; stroke-width: 0.8"/>
      </g>
     </g>
     <g id="text_8">
      <!-- 0 -->
      <g transform="translate(669.268884 298.998438) scale(0.1 -0.1)">
       <use xlink:href="#DejaVuSans-30"/>
      </g>
     </g>
    </g>
   </g>
   <g id="matplotlib.axis_2">
    <g id="ytick_1">
     <g id="line2d_9">
      <defs>
       <path id="mb0ab3637c8" d="M 0 0 
L -3.5 0 
" style="stroke: #000000; stroke-width: 0.8"/>
      </defs>
      <g>
       <use xlink:href="#mb0ab3637c8" x="36.465625" y="275.849437" style="stroke: #000000; stroke-width: 0.8"/>
      </g>
     </g>
     <g id="text_9">
      <!-- 0.00 -->
      <g transform="translate(7.2 279.648656) scale(0.1 -0.1)">
       <defs>
        <path id="DejaVuSans-2e" d="M 684 794 
L 1344 794 
L 1344 0 
L 684 0 
L 684 794 
z
" transform="scale(0.015625)"/>
       </defs>
       <use xlink:href="#DejaVuSans-30"/>
       <use xlink:href="#DejaVuSans-2e" transform="translate(63.623047 0)"/>
       <use xlink:href="#DejaVuSans-30" transform="translate(95.410156 0)"/>
       <use xlink:href="#DejaVuSans-30" transform="translate(159.033203 0)"/>
      </g>
     </g>
    </g>
    <g id="ytick_2">
     <g id="line2d_10">
      <g>
       <use xlink:href="#mb0ab3637c8" x="36.465625" y="217.714439" style="stroke: #000000; stroke-width: 0.8"/>
      </g>
     </g>
     <g id="text_10">
      <!-- 0.02 -->
      <g transform="translate(7.2 221.513658) scale(0.1 -0.1)">
       <use xlink:href="#DejaVuSans-30"/>
       <use xlink:href="#DejaVuSans-2e" transform="translate(63.623047 0)"/>
       <use xlink:href="#DejaVuSans-30" transform="translate(95.410156 0)"/>
       <use xlink:href="#DejaVuSans-32" transform="translate(159.033203 0)"/>
      </g>
     </g>
    </g>
    <g id="ytick_3">
     <g id="line2d_11">
      <g>
       <use xlink:href="#mb0ab3637c8" x="36.465625" y="159.579441" style="stroke: #000000; stroke-width: 0.8"/>
      </g>
     </g>
     <g id="text_11">
      <!-- 0.04 -->
      <g transform="translate(7.2 163.37866) scale(0.1 -0.1)">
       <use xlink:href="#DejaVuSans-30"/>
       <use xlink:href="#DejaVuSans-2e" transform="translate(63.623047 0)"/>
       <use xlink:href="#DejaVuSans-30" transform="translate(95.410156 0)"/>
       <use xlink:href="#DejaVuSans-34" transform="translate(159.033203 0)"/>
      </g>
     </g>
    </g>
    <g id="ytick_4">
     <g id="line2d_12">
      <g>
       <use xlink:href="#mb0ab3637c8" x="36.465625" y="101.444443" style="stroke: #000000; stroke-width: 0.8"/>
      </g>
     </g>
     <g id="text_12">
      <!-- 0.06 -->
      <g transform="translate(7.2 105.243662) scale(0.1 -0.1)">
       <use xlink:href="#DejaVuSans-30"/>
       <use xlink:href="#DejaVuSans-2e" transform="translate(63.623047 0)"/>
       <use xlink:href="#DejaVuSans-30" transform="translate(95.410156 0)"/>
       <use xlink:href="#DejaVuSans-36" transform="translate(159.033203 0)"/>
      </g>
     </g>
    </g>
    <g id="ytick_5">
     <g id="line2d_13">
      <g>
       <use xlink:href="#mb0ab3637c8" x="36.465625" y="43.309446" style="stroke: #000000; stroke-width: 0.8"/>
      </g>
     </g>
     <g id="text_13">
      <!-- 0.08 -->
      <g transform="translate(7.2 47.108664) scale(0.1 -0.1)">
       <use xlink:href="#DejaVuSans-30"/>
       <use xlink:href="#DejaVuSans-2e" transform="translate(63.623047 0)"/>
       <use xlink:href="#DejaVuSans-30" transform="translate(95.410156 0)"/>
       <use xlink:href="#DejaVuSans-38" transform="translate(159.033203 0)"/>
      </g>
     </g>
    </g>
   </g>
   <g id="line2d_14">
    <path d="M 66.901989 250.565159 
L 67.199255 250.880717 
L 67.942421 251.593884 
L 68.536954 251.881205 
L 69.131487 251.901733 
L 69.800336 251.672196 
L 71.435301 250.962718 
L 71.955517 251.005194 
L 72.55005 251.301702 
L 73.367533 252.026518 
L 74.556598 253.076644 
L 75.151131 253.318183 
L 75.671347 253.293851 
L 76.191564 253.041146 
L 76.860413 252.435011 
L 78.198112 251.117329 
L 78.644011 251.021595 
L 79.015594 251.176162 
L 79.461494 251.636566 
L 80.130343 252.715502 
L 81.468042 254.909568 
L 82.062575 255.481614 
L 82.582791 255.699481 
L 83.028691 255.672963 
L 83.548907 255.403079 
L 84.14344 254.800631 
L 84.812289 253.782939 
L 86.595888 250.782186 
L 86.893154 250.762291 
L 87.190421 251.00408 
L 87.63632 251.774561 
L 89.122652 254.759401 
L 89.568552 255.153889 
L 90.014451 255.252937 
L 90.386034 255.097882 
L 90.757617 254.675044 
L 91.1292 253.882192 
L 91.5751 252.26743 
L 92.095316 249.378342 
L 93.953231 237.874704 
L 94.399131 236.601549 
L 94.696397 236.21261 
L 94.919347 236.162251 
L 95.142297 236.314327 
L 95.439563 236.819988 
L 95.811146 237.906261 
L 96.331362 240.16716 
L 97.074528 244.505518 
L 98.78381 254.988048 
L 99.304026 256.776661 
L 99.675609 257.344252 
L 99.898559 257.39612 
L 100.121509 257.244482 
L 100.418775 256.758433 
L 100.864675 255.548924 
L 101.979424 252.24442 
L 102.27669 252.046373 
L 102.49964 252.217487 
L 102.796907 252.835523 
L 103.317123 254.614191 
L 104.506188 258.840867 
L 105.100721 260.221835 
L 105.620937 260.962205 
L 106.066837 261.275683 
L 106.512737 261.323238 
L 106.958636 261.132001 
L 107.478852 260.633698 
L 108.073385 259.722716 
L 108.816551 258.110342 
L 110.079933 255.260924 
L 110.3772 255.057548 
L 110.60015 255.126793 
L 110.897416 255.514 
L 111.343316 256.577275 
L 112.606698 259.909983 
L 113.126914 260.671063 
L 113.572814 260.989687 
L 114.018713 261.041354 
L 114.464613 260.872093 
L 115.059146 260.387514 
L 116.694111 258.846311 
L 117.065694 258.825515 
L 117.437277 259.030487 
L 117.883176 259.551722 
L 118.849292 261.178013 
L 119.666775 262.322254 
L 120.186991 262.72806 
L 120.632891 262.84393 
L 121.07879 262.732297 
L 121.52469 262.371143 
L 121.970589 261.722168 
L 122.490806 260.541353 
L 123.308288 257.934104 
L 123.754188 256.784171 
L 123.977138 256.558082 
L 124.200087 256.651398 
L 124.423037 257.065688 
L 124.79462 258.302648 
L 126.132319 263.243303 
L 126.726852 264.519876 
L 127.321385 265.340537 
L 127.990234 265.883479 
L 128.51045 266.060294 
L 128.95635 266.007879 
L 129.402249 265.705719 
L 129.848149 265.083876 
L 130.368365 263.885692 
L 130.962898 261.895519 
L 132.44923 256.450311 
L 132.746496 256.103218 
L 132.969446 256.11474 
L 133.266713 256.427196 
L 134.530095 258.275741 
L 134.827361 258.245735 
L 135.124628 257.946318 
L 135.496211 257.194792 
L 136.016427 255.507728 
L 136.759593 252.198714 
L 138.171608 245.843603 
L 138.766141 244.199695 
L 139.137724 243.66389 
L 139.43499 243.529551 
L 139.732257 243.658852 
L 140.029523 244.044315 
L 140.475423 245.066233 
L 141.069956 247.117058 
L 142.110388 251.754387 
L 143.150821 256.055314 
L 143.745353 257.608619 
L 144.116936 258.093924 
L 144.414203 258.208222 
L 144.785786 258.074132 
L 145.603268 257.612584 
L 145.900535 257.766266 
L 146.197801 258.197068 
L 146.643701 259.278185 
L 149.319098 266.69246 
L 149.913631 267.662298 
L 150.359531 268.016409 
L 150.656797 268.007344 
L 150.954064 267.752979 
L 151.25133 267.202371 
L 151.622913 265.993999 
L 151.994496 264.028535 
L 152.440396 260.324019 
L 153.406511 251.086327 
L 153.480828 251.088201 
L 153.629461 251.619672 
L 153.926728 254.252534 
L 154.818527 263.049146 
L 155.41306 266.380082 
L 156.081909 268.840488 
L 156.750758 270.568577 
L 157.270975 271.377591 
L 157.568241 271.540946 
L 157.791191 271.478236 
L 158.088457 271.09283 
L 158.385724 270.275184 
L 158.68299 268.85531 
L 158.980256 266.448858 
L 159.277523 262.061724 
L 159.500473 255.92753 
L 159.723422 244.624761 
L 160.169322 217.475574 
L 160.317955 225.587605 
L 160.689538 248.907229 
L 160.986805 255.290078 
L 161.209754 256.339728 
L 161.284071 256.240382 
L 161.432704 255.491524 
L 161.729971 252.091449 
L 162.324503 244.270464 
L 162.39882 244.390712 
L 162.547453 245.778004 
L 162.993353 254.50166 
L 163.513569 262.492783 
L 163.959469 266.182135 
L 164.405368 268.289793 
L 164.851268 269.503304 
L 165.297167 270.113029 
L 165.66875 270.245072 
L 165.966017 270.125102 
L 166.3376 269.701669 
L 166.783499 268.784409 
L 167.303716 267.075435 
L 167.823932 264.480119 
L 168.492781 259.711125 
L 169.012997 256.561973 
L 169.235947 256.265468 
L 169.38458 256.54233 
L 169.681847 258.04667 
L 170.945229 266.115145 
L 171.465445 267.6854 
L 171.911345 268.348767 
L 172.282928 268.524472 
L 172.654511 268.416277 
L 173.10041 267.97218 
L 173.620627 267.100539 
L 174.363793 265.358081 
L 176.221708 260.705089 
L 176.593291 260.389852 
L 176.964874 260.361523 
L 178.005306 260.542789 
L 178.376889 260.249218 
L 178.748472 259.647499 
L 179.268688 258.305912 
L 180.011854 255.667181 
L 181.349553 250.873471 
L 181.869769 249.704603 
L 182.315669 249.206104 
L 182.612935 249.155009 
L 182.910202 249.330424 
L 183.281785 249.854403 
L 183.802001 251.089952 
L 184.545167 253.580076 
L 186.180132 259.243975 
L 186.774665 260.467265 
L 187.294881 261.057362 
L 188.63258 262.204332 
L 189.227113 263.285737 
L 191.159344 267.13557 
L 191.828194 267.90663 
L 192.274093 268.120848 
L 192.645676 268.040861 
L 193.017259 267.656404 
L 193.388842 266.906867 
L 193.909058 265.230724 
L 194.800858 262.207815 
L 195.023807 261.996205 
L 195.172441 262.051834 
L 195.39539 262.41159 
L 195.766973 263.538244 
L 196.881722 267.183917 
L 197.401939 268.138258 
L 197.847838 268.574204 
L 198.219421 268.690973 
L 198.591004 268.582474 
L 198.962587 268.236464 
L 199.408487 267.501697 
L 200.894819 264.632013 
L 201.117769 264.657257 
L 201.415035 264.95524 
L 202.009568 266.034255 
L 202.604101 266.977705 
L 203.05 267.290491 
L 203.421583 267.254505 
L 203.793166 266.965132 
L 204.313383 266.222751 
L 205.205182 264.90239 
L 205.502448 264.822076 
L 205.725398 264.965371 
L 206.022664 265.424876 
L 206.542881 266.737997 
L 207.43468 269.007678 
L 207.954896 269.74162 
L 208.326479 269.934285 
L 208.698062 269.859321 
L 209.069645 269.528257 
L 209.515545 268.802679 
L 210.110077 267.304946 
L 211.299143 263.960458 
L 211.522093 263.783681 
L 211.745043 263.878636 
L 212.042309 264.404736 
L 212.562525 266.011972 
L 213.380008 268.463952 
L 213.825907 269.23627 
L 214.19749 269.537746 
L 214.569073 269.560499 
L 214.940656 269.34463 
L 215.460873 268.717773 
L 216.129722 267.50395 
L 217.987637 263.885226 
L 218.507853 263.462945 
L 219.622602 262.803555 
L 220.068502 262.161148 
L 220.588718 260.977648 
L 221.331884 258.634996 
L 222.743899 254.080985 
L 223.264116 253.083395 
L 223.635699 252.739139 
L 223.932965 252.702843 
L 224.230231 252.879694 
L 224.601814 253.385895 
L 225.122031 254.557394 
L 225.939513 257.124452 
L 227.277212 261.38371 
L 227.946061 262.807563 
L 228.614911 263.728958 
L 229.72966 265.168317 
L 230.844409 267.176062 
L 231.810525 268.713273 
L 232.479374 269.373373 
L 232.925274 269.545745 
L 233.296857 269.482431 
L 233.66844 269.204997 
L 234.114339 268.591841 
L 235.377721 266.631208 
L 235.674988 266.637892 
L 235.972254 266.915253 
L 236.418154 267.693826 
L 237.607219 269.898768 
L 238.127436 270.406318 
L 238.573335 270.573903 
L 239.019235 270.502349 
L 239.539451 270.140919 
L 240.43125 269.120392 
L 240.951466 268.672245 
L 241.323049 268.590434 
L 241.694632 268.728707 
L 242.363482 269.306783 
L 243.032331 269.816138 
L 243.478231 269.926991 
L 243.92413 269.818585 
L 244.444347 269.455325 
L 245.559096 268.561742 
L 245.930679 268.557337 
L 246.302262 268.803981 
L 246.822478 269.491604 
L 247.937227 271.057915 
L 248.383126 271.319803 
L 248.754709 271.312706 
L 249.126292 271.098808 
L 249.572192 270.58168 
L 250.166725 269.515574 
L 251.281474 267.39174 
L 251.57874 267.193195 
L 251.876007 267.270417 
L 252.24759 267.724037 
L 253.065072 269.33965 
L 253.659605 270.238931 
L 254.105505 270.53247 
L 254.477088 270.517705 
L 254.922987 270.221875 
L 255.443203 269.564154 
L 256.260686 268.088428 
L 257.524068 265.812985 
L 258.192918 265.077756 
L 259.159034 264.092417 
L 259.67925 263.172557 
L 260.273783 261.637171 
L 261.462848 257.705434 
L 262.206014 255.609319 
L 262.72623 254.714872 
L 263.097813 254.450927 
L 263.39508 254.479681 
L 263.692346 254.719025 
L 264.138246 255.442807 
L 264.732779 256.957222 
L 267.185226 263.993811 
L 268.002709 265.274248 
L 269.266091 267.23312 
L 270.678107 269.454197 
L 271.346956 270.083324 
L 271.792856 270.253694 
L 272.238755 270.18751 
L 272.684655 269.881941 
L 274.170987 268.548387 
L 274.468253 268.631111 
L 274.839836 268.968619 
L 275.657319 270.157417 
L 276.400485 271.057268 
L 276.920701 271.376126 
L 277.366601 271.426252 
L 277.886817 271.24448 
L 278.629983 270.684331 
L 279.373149 270.187816 
L 279.819048 270.128761 
L 280.339265 270.315371 
L 281.676963 270.968773 
L 282.19718 270.912891 
L 282.791712 270.604257 
L 283.906461 269.960211 
L 284.352361 270.000157 
L 284.798261 270.292744 
L 286.507542 271.78527 
L 286.953442 271.742915 
L 287.399342 271.442593 
L 287.919558 270.799501 
L 289.480206 268.562382 
L 289.777473 268.511171 
L 290.074739 268.656646 
L 290.520639 269.154857 
L 291.561071 270.429345 
L 292.006971 270.611752 
L 292.378554 270.535225 
L 292.824453 270.188309 
L 293.418986 269.376279 
L 294.533735 267.324942 
L 295.425534 265.887874 
L 297.0605 263.545223 
L 297.655032 262.050436 
L 298.621148 258.889875 
L 299.587264 255.981742 
L 300.10748 255.035429 
L 300.479063 254.740311 
L 300.77633 254.750363 
L 301.073596 254.977092 
L 301.445179 255.544055 
L 301.965395 256.778096 
L 302.931511 259.812904 
L 303.971943 262.878858 
L 304.789426 264.582142 
L 307.018924 268.236276 
L 307.836407 269.323183 
L 308.430939 269.791403 
L 308.876839 269.910868 
L 309.322739 269.819509 
L 309.917271 269.438545 
L 310.734754 268.924856 
L 311.106337 268.925109 
L 311.552237 269.191091 
L 312.221086 269.937511 
L 313.112885 270.858092 
L 313.633101 271.116317 
L 314.153318 271.130822 
L 314.747851 270.895707 
L 316.085549 270.240057 
L 316.605766 270.288386 
L 318.537997 270.781888 
L 319.206847 270.50494 
L 320.247279 270.032179 
L 320.693179 270.061202 
L 321.213395 270.338355 
L 322.62541 271.285084 
L 323.07131 271.263042 
L 323.517209 271.011894 
L 324.111742 270.36403 
L 325.449441 268.702577 
L 325.821024 268.585497 
L 326.192607 268.701323 
L 326.78714 269.203312 
L 327.530306 269.783198 
L 327.976205 269.85467 
L 328.422105 269.658154 
L 328.942321 269.11549 
L 329.685487 267.921411 
L 331.469086 264.889853 
L 332.435201 263.320684 
L 333.104051 261.710706 
L 333.99585 258.844659 
L 335.036282 255.615107 
L 335.556499 254.614873 
L 335.928082 254.287287 
L 336.225348 254.278585 
L 336.522614 254.494023 
L 336.894197 255.056813 
L 337.414414 256.298162 
L 338.380529 259.351666 
L 339.420962 262.43014 
L 340.238444 264.204807 
L 341.947726 267.181869 
L 342.839525 268.441004 
L 343.434058 268.970375 
L 343.954274 269.167274 
L 344.474491 269.120216 
L 345.960823 268.759773 
L 346.406722 268.992128 
L 347.149888 269.69027 
L 347.967371 270.387234 
L 348.561904 270.611143 
L 349.156436 270.569026 
L 350.196869 270.164656 
L 350.865718 270.047658 
L 351.534568 270.18701 
L 352.723633 270.483037 
L 353.392483 270.360397 
L 355.027448 269.87496 
L 355.547664 270.041416 
L 357.108313 270.716284 
L 357.554212 270.594735 
L 358.074428 270.208072 
L 358.966228 269.176818 
L 359.635077 268.551356 
L 360.080977 268.419174 
L 360.526876 268.531026 
L 361.864575 269.069796 
L 362.310475 268.907213 
L 362.830691 268.417334 
L 363.49954 267.412212 
L 366.323571 262.28145 
L 367.066737 260.240539 
L 368.998969 254.40537 
L 369.444868 253.838997 
L 369.742135 253.745436 
L 370.039401 253.884729 
L 370.410984 254.369746 
L 370.9312 255.540054 
L 371.748683 258.07678 
L 373.012065 261.9328 
L 373.903864 263.942608 
L 375.31588 266.510846 
L 376.207679 267.750604 
L 376.802212 268.257366 
L 377.322428 268.45469 
L 377.991277 268.444393 
L 378.883077 268.425511 
L 379.403293 268.65282 
L 380.220775 269.312838 
L 381.038258 269.895134 
L 381.632791 270.069447 
L 382.30164 270.01211 
L 383.787972 269.766855 
L 384.754088 269.988458 
L 385.571571 270.081948 
L 386.314737 269.92 
L 387.503802 269.607984 
L 388.098335 269.701528 
L 389.658984 270.122706 
L 390.1792 269.929971 
L 390.773733 269.44906 
L 392.111431 268.237003 
L 392.631648 268.118866 
L 393.300497 268.247752 
L 393.969346 268.319921 
L 394.415246 268.15748 
L 394.935462 267.693327 
L 395.604312 266.720629 
L 397.239277 263.710438 
L 398.279709 261.53494 
L 399.022875 259.407987 
L 400.806474 253.955423 
L 401.252373 253.332811 
L 401.54964 253.206605 
L 401.846906 253.320071 
L 402.218489 253.783948 
L 402.664389 254.74787 
L 403.407555 256.996988 
L 404.893887 261.602964 
L 405.860002 263.820026 
L 407.049068 266.007189 
L 407.866551 267.097101 
L 408.5354 267.618539 
L 409.204249 267.830528 
L 410.467632 268.124211 
L 411.210798 268.617248 
L 412.325547 269.357266 
L 412.994396 269.518549 
L 413.811879 269.456172 
L 414.852311 269.405022 
L 417.081809 269.55948 
L 418.642458 269.267718 
L 419.534257 269.450841 
L 420.277423 269.531454 
L 420.797639 269.382705 
L 421.392172 268.979644 
L 422.95282 267.757929 
L 423.547353 267.64526 
L 424.587786 267.502775 
L 425.108002 267.147515 
L 425.702535 266.417438 
L 426.520017 264.998767 
L 428.154982 261.648123 
L 428.972465 259.451504 
L 431.127647 253.06062 
L 431.49923 252.681325 
L 431.796496 252.651314 
L 432.093762 252.865274 
L 432.465345 253.450826 
L 432.985562 254.751083 
L 434.100311 258.394686 
L 435.140743 261.469988 
L 436.181175 263.841246 
L 437.147291 265.559075 
L 437.890457 266.482566 
L 438.559307 266.977226 
L 439.599739 267.389147 
L 440.491538 267.872654 
L 442.052187 268.816327 
L 442.795353 268.938704 
L 445.024851 269.08434 
L 445.990967 269.129277 
L 447.254349 268.875558 
L 448.071831 268.836755 
L 449.558163 268.852729 
L 450.152696 268.567363 
L 451.118812 267.786633 
L 451.936295 267.235861 
L 452.90241 266.916737 
L 453.57126 266.572905 
L 454.165793 265.96222 
L 454.834642 264.914486 
L 455.949391 262.672166 
L 457.06414 259.986172 
L 457.955939 257.195803 
L 459.219321 253.183554 
L 459.739538 252.240585 
L 460.111121 252.00416 
L 460.408387 252.098147 
L 460.705653 252.43601 
L 461.151553 253.344138 
L 461.820402 255.334361 
L 463.678317 261.171909 
L 464.71875 263.546233 
L 465.610549 265.066323 
L 466.353715 265.917828 
L 467.171198 266.491656 
L 468.954796 267.623385 
L 469.920912 268.149475 
L 470.738394 268.323053 
L 474.008325 268.515013 
L 475.86624 268.284387 
L 476.906672 268.183024 
L 477.575522 267.862473 
L 478.690271 266.989379 
L 479.656386 266.376911 
L 480.696819 265.726471 
L 481.291352 265.054048 
L 482.034518 263.811083 
L 483.07495 261.563266 
L 484.115382 258.812109 
L 485.230131 255.098783 
L 486.121931 252.389988 
L 486.56783 251.580526 
L 486.939413 251.315719 
L 487.23668 251.393568 
L 487.533946 251.722249 
L 487.979846 252.62886 
L 488.648695 254.635736 
L 490.580927 260.772456 
L 491.547043 262.985442 
L 492.364525 264.365907 
L 493.107691 265.23003 
L 494.148124 266.057485 
L 496.154672 267.383474 
L 497.046471 267.633679 
L 499.424602 267.928409 
L 500.465035 267.799655 
L 503.289065 267.155358 
L 504.255181 266.414567 
L 506.707629 264.257735 
L 507.376478 263.144301 
L 508.268278 261.19562 
L 509.30871 258.393241 
L 510.423459 254.666569 
L 511.389575 251.652851 
L 511.835474 250.819821 
L 512.207057 250.541931 
L 512.504324 250.615871 
L 512.80159 250.946799 
L 513.24749 251.866311 
L 513.916339 253.903678 
L 515.848571 260.140289 
L 516.74037 262.216657 
L 517.557853 263.614425 
L 518.375335 264.59412 
L 519.638717 265.715413 
L 520.753466 266.475471 
L 521.645266 266.813835 
L 523.280231 267.1262 
L 524.320663 267.1411 
L 526.029945 266.842617 
L 527.070377 266.543619 
L 527.813543 266.089982 
L 529.151242 264.928592 
L 530.340308 263.710675 
L 531.009157 262.687036 
L 531.82664 260.974512 
L 532.792756 258.406219 
L 533.833188 255.004591 
L 535.09657 250.854507 
L 535.616786 249.879642 
L 535.914053 249.662281 
L 536.211319 249.715126 
L 536.508586 250.032618 
L 536.954485 250.94657 
L 537.623335 253.001349 
L 539.629883 259.553622 
L 540.521682 261.601428 
L 541.339165 262.966378 
L 542.30528 264.126435 
L 543.494346 265.192725 
L 544.386145 265.717809 
L 545.426578 266.058684 
L 546.68996 266.254306 
L 547.656076 266.182192 
L 549.216724 265.803752 
L 550.034207 265.42233 
L 550.85169 264.787036 
L 552.115072 263.488904 
L 553.006871 262.293912 
L 553.750037 260.890936 
L 554.641836 258.652682 
L 555.682269 255.375229 
L 557.465867 249.479282 
L 557.911767 248.766561 
L 558.209033 248.620044 
L 558.506299 248.751117 
L 558.803566 249.148245 
L 559.249465 250.171224 
L 559.992631 252.604561 
L 561.627597 258.117839 
L 562.519396 260.328038 
L 563.411195 261.936424 
L 564.377311 263.195007 
L 565.343427 264.109614 
L 566.235226 264.660322 
L 567.275658 265.027973 
L 568.316091 265.165378 
L 569.282206 265.04928 
L 570.471272 264.664552 
L 571.363071 264.138719 
L 572.25487 263.311567 
L 573.295303 262.029044 
L 574.112785 260.697461 
L 574.930268 258.892588 
L 575.822067 256.296402 
L 577.011133 252.023273 
L 577.977249 248.776444 
L 578.497465 247.704143 
L 578.869048 247.412093 
L 579.166314 247.496181 
L 579.463581 247.860151 
L 579.90948 248.862586 
L 580.57833 251.054791 
L 582.361928 257.114524 
L 583.328044 259.513523 
L 584.219843 261.109869 
L 585.111642 262.262882 
L 586.003441 263.055116 
L 586.895241 263.534869 
L 587.78704 263.768754 
L 588.678839 263.772724 
L 589.644955 263.5414 
L 590.536754 263.103583 
L 591.354237 262.435674 
L 592.171719 261.471192 
L 593.063518 260.081315 
L 593.881001 258.372975 
L 594.698484 256.113281 
L 595.738916 252.505088 
L 597.299565 247.01503 
L 597.745464 246.163636 
L 598.042731 245.933049 
L 598.339997 245.995178 
L 598.637263 246.343339 
L 599.083163 247.333785 
L 599.752012 249.532744 
L 601.609928 255.990907 
L 602.501727 258.192156 
L 603.393526 259.796869 
L 604.211009 260.838511 
L 605.028491 261.532138 
L 605.845974 261.937251 
L 606.58914 262.081058 
L 607.332306 262.011075 
L 608.149788 261.700986 
L 608.892954 261.196413 
L 609.63612 260.427516 
L 610.453603 259.238589 
L 611.271086 257.647642 
L 612.088568 255.535601 
L 612.980367 252.564997 
L 615.209865 244.645411 
L 615.581448 244.121899 
L 615.878715 244.035179 
L 616.175981 244.250525 
L 616.547564 244.91222 
L 617.06778 246.413317 
L 618.256846 250.852928 
L 619.297278 254.307398 
L 620.189078 256.51645 
L 621.00656 257.968566 
L 621.749726 258.878541 
L 622.492892 259.454649 
L 623.161742 259.719828 
L 623.830591 259.754585 
L 624.49944 259.56351 
L 625.16829 259.147581 
L 625.837139 258.483402 
L 626.580305 257.408887 
L 627.323471 255.940773 
L 628.140954 253.797601 
L 629.032753 250.74581 
L 631.410884 241.990116 
L 631.782467 241.532004 
L 632.079734 241.515521 
L 632.377 241.809007 
L 632.748583 242.564928 
L 633.343116 244.437686 
L 635.64693 252.506876 
L 636.464413 254.344753 
L 637.207579 255.490764 
L 637.876428 256.11934 
L 638.470961 256.397125 
L 639.065494 256.423837 
L 639.660027 256.203141 
L 640.25456 255.732348 
L 640.923409 254.882396 
L 641.592258 253.660949 
L 642.335424 251.816069 
L 643.152907 249.132279 
L 644.193339 244.800783 
L 645.531038 239.254891 
L 646.051254 238.018367 
L 646.348521 237.728039 
L 646.571471 237.726201 
L 646.868737 238.005135 
L 647.24032 238.758719 
L 647.834853 240.645041 
L 649.915718 247.925934 
L 650.658884 249.578197 
L 651.253416 250.43434 
L 651.773633 250.866979 
L 652.293849 251.016326 
L 652.739748 250.922318 
L 653.259965 250.550066 
L 653.780181 249.877225 
L 654.374714 248.737524 
L 655.043563 246.950115 
L 655.786729 244.287181 
L 656.752845 239.850475 
L 658.313494 232.5392 
L 658.759393 231.340721 
L 659.130976 230.885167 
L 659.353926 230.858815 
L 659.651192 231.098547 
L 660.022775 231.777327 
L 660.617308 233.455032 
L 662.029324 237.643702 
L 662.623856 238.770552 
L 663.069756 239.197742 
L 663.441339 239.291964 
L 663.812922 239.150823 
L 664.184505 238.767194 
L 664.556088 238.058256 
L 665.224937 236.164078 
L 665.59652 234.605917 
L 666.339686 230.641137 
L 667.082852 225.433615 
L 670.872999 194.777277 
L 671.244582 188.508506 
L 671.541848 178.865248 
L 671.913431 158.101583 
L 672.359331 119.238843 
L 673.25113 33.071357 
L 673.548397 24.716503 
L 673.845663 21.545235 
L 674.142929 20.408513 
L 674.440196 20.009515 
L 674.886095 19.840101 
L 675.629261 19.8 
L 675.629261 19.8 
" clip-path="url(#paa788ec88c)" style="fill: none; stroke: #1f77b4; stroke-width: 1.5; stroke-linecap: square"/>
   </g>
   <g id="line2d_15">
    <path d="M 36.465625 212.894337 
L 706.065625 212.894337 
" clip-path="url(#paa788ec88c)" style="fill: none; stroke-dasharray: 2.22,0.96; stroke-dashoffset: 0; stroke: #ff0000; stroke-width: 0.6"/>
   </g>
   <g id="line2d_16">
    <path d="M 66.901989 250.565159 
L 67.199255 250.880717 
L 67.942421 251.593884 
L 68.536954 251.881205 
L 69.131487 251.901733 
L 69.800336 251.672196 
L 71.435301 250.962718 
L 71.955517 251.005194 
L 72.55005 251.301702 
L 73.367533 252.026518 
L 74.556598 253.076644 
L 75.151131 253.318183 
L 75.671347 253.293851 
L 76.191564 253.041146 
L 76.860413 252.435011 
L 78.198112 251.117329 
L 78.644011 251.021595 
L 79.015594 251.176162 
L 79.461494 251.636566 
L 80.130343 252.715502 
L 81.468042 254.909568 
L 82.062575 255.481614 
L 82.582791 255.699481 
L 83.028691 255.672963 
L 83.548907 255.403079 
L 84.14344 254.800631 
L 84.812289 253.782939 
L 86.595888 250.782186 
L 86.893154 250.762291 
L 87.190421 251.00408 
L 87.63632 251.774561 
L 89.122652 254.759401 
L 89.568552 255.153889 
L 90.014451 255.252937 
L 90.386034 255.097882 
L 90.757617 254.675044 
L 91.1292 253.882192 
L 91.5751 252.26743 
L 92.095316 249.378342 
L 93.953231 237.874704 
L 94.399131 236.601549 
L 94.696397 236.21261 
L 94.919347 236.162251 
L 95.142297 236.314327 
L 95.439563 236.819988 
L 95.811146 237.906261 
L 96.331362 240.16716 
L 97.074528 244.505518 
L 98.78381 254.988048 
L 99.304026 256.776661 
L 99.675609 257.344252 
L 99.898559 257.39612 
L 100.121509 257.244482 
L 100.418775 256.758433 
L 100.864675 255.548924 
L 101.979424 252.24442 
L 102.27669 252.046373 
L 102.49964 252.217487 
L 102.796907 252.835523 
L 103.317123 254.614191 
L 104.506188 258.840867 
L 105.100721 260.221835 
L 105.620937 260.962205 
L 106.066837 261.275683 
L 106.512737 261.323238 
L 106.958636 261.132001 
L 107.478852 260.633698 
L 108.073385 259.722716 
L 108.816551 258.110342 
L 110.079933 255.260924 
L 110.3772 255.057548 
L 110.60015 255.126793 
L 110.897416 255.514 
L 111.343316 256.577275 
L 112.606698 259.909983 
L 113.126914 260.671063 
L 113.572814 260.989687 
L 114.018713 261.041354 
L 114.464613 260.872093 
L 115.059146 260.387514 
L 116.694111 258.846311 
L 117.065694 258.825515 
L 117.437277 259.030487 
L 117.883176 259.551722 
L 118.849292 261.178013 
L 119.666775 262.322254 
L 120.186991 262.72806 
L 120.632891 262.84393 
L 121.07879 262.732297 
L 121.52469 262.371143 
L 121.970589 261.722168 
L 122.490806 260.541353 
L 123.308288 257.934104 
L 123.754188 256.784171 
L 123.977138 256.558082 
L 124.200087 256.651398 
L 124.423037 257.065688 
L 124.79462 258.302648 
L 126.132319 263.243303 
L 126.726852 264.519876 
L 127.321385 265.340537 
L 127.990234 265.883479 
L 128.51045 266.060294 
L 128.95635 266.007879 
L 129.402249 265.705719 
L 129.848149 265.083876 
L 130.368365 263.885692 
L 130.962898 261.895519 
L 132.44923 256.450311 
L 132.746496 256.103218 
L 132.969446 256.11474 
L 133.266713 256.427196 
L 134.530095 258.275741 
L 134.827361 258.245735 
L 135.124628 257.946318 
L 135.496211 257.194792 
L 136.016427 255.507728 
L 136.759593 252.198714 
L 138.171608 245.843603 
L 138.766141 244.199695 
L 139.137724 243.66389 
L 139.43499 243.529551 
L 139.732257 243.658852 
L 140.029523 244.044315 
L 140.475423 245.066233 
L 141.069956 247.117058 
L 142.110388 251.754387 
L 143.150821 256.055314 
L 143.745353 257.608619 
L 144.116936 258.093924 
L 144.414203 258.208222 
L 144.785786 258.074132 
L 145.603268 257.612584 
L 145.900535 257.766266 
L 146.197801 258.197068 
L 146.643701 259.278185 
L 149.319098 266.69246 
L 149.913631 267.662298 
L 150.359531 268.016409 
L 150.656797 268.007344 
L 150.954064 267.752979 
L 151.25133 267.202371 
L 151.622913 265.993999 
L 151.994496 264.028535 
L 152.440396 260.324019 
L 153.406511 251.086327 
L 153.480828 251.088201 
L 153.629461 251.619672 
L 153.926728 254.252534 
L 154.818527 263.049146 
L 155.41306 266.380082 
L 156.081909 268.840488 
L 156.750758 270.568577 
L 157.270975 271.377591 
L 157.568241 271.540946 
L 157.791191 271.478236 
L 158.088457 271.09283 
L 158.385724 270.275184 
L 158.68299 268.85531 
L 158.980256 266.448858 
L 159.277523 262.061724 
L 159.500473 255.92753 
L 159.723422 244.624761 
L 160.169322 217.475574 
L 160.317955 225.587605 
L 160.689538 248.907229 
L 160.986805 255.290078 
L 161.209754 256.339728 
L 161.284071 256.240382 
L 161.432704 255.491524 
L 161.729971 252.091449 
L 162.324503 244.270464 
L 162.39882 244.390712 
L 162.547453 245.778004 
L 162.993353 254.50166 
L 163.513569 262.492783 
L 163.959469 266.182135 
L 164.405368 268.289793 
L 164.851268 269.503304 
L 165.297167 270.113029 
L 165.66875 270.245072 
L 165.966017 270.125102 
L 166.3376 269.701669 
L 166.783499 268.784409 
L 167.303716 267.075435 
L 167.823932 264.480119 
L 168.492781 259.711125 
L 169.012997 256.561973 
L 169.235947 256.265468 
L 169.38458 256.54233 
L 169.681847 258.04667 
L 170.945229 266.115145 
L 171.465445 267.6854 
L 171.911345 268.348767 
L 172.282928 268.524472 
L 172.654511 268.416277 
L 173.10041 267.97218 
L 173.620627 267.100539 
L 174.363793 265.358081 
L 176.221708 260.705089 
L 176.593291 260.389852 
L 176.964874 260.361523 
L 178.005306 260.542789 
L 178.376889 260.249218 
L 178.748472 259.647499 
L 179.268688 258.305912 
L 180.011854 255.667181 
L 181.349553 250.873471 
L 181.869769 249.704603 
L 182.315669 249.206104 
L 182.612935 249.155009 
L 182.910202 249.330424 
L 183.281785 249.854403 
L 183.802001 251.089952 
L 184.545167 253.580076 
L 186.180132 259.243975 
L 186.774665 260.467265 
L 187.294881 261.057362 
L 188.63258 262.204332 
L 189.227113 263.285737 
L 191.159344 267.13557 
L 191.828194 267.90663 
L 192.274093 268.120848 
L 192.645676 268.040861 
L 193.017259 267.656404 
L 193.388842 266.906867 
L 193.909058 265.230724 
L 194.800858 262.207815 
L 195.023807 261.996205 
L 195.172441 262.051834 
L 195.39539 262.41159 
L 195.766973 263.538244 
L 196.881722 267.183917 
L 197.401939 268.138258 
L 197.847838 268.574204 
L 198.219421 268.690973 
L 198.591004 268.582474 
L 198.962587 268.236464 
L 199.408487 267.501697 
L 200.894819 264.632013 
L 201.117769 264.657257 
L 201.415035 264.95524 
L 202.009568 266.034255 
L 202.604101 266.977705 
L 203.05 267.290491 
L 203.421583 267.254505 
L 203.793166 266.965132 
L 204.313383 266.222751 
L 205.205182 264.90239 
L 205.502448 264.822076 
L 205.725398 264.965371 
L 206.022664 265.424876 
L 206.542881 266.737997 
L 207.43468 269.007678 
L 207.954896 269.74162 
L 208.326479 269.934285 
L 208.698062 269.859321 
L 209.069645 269.528257 
L 209.515545 268.802679 
L 210.110077 267.304946 
L 211.299143 263.960458 
L 211.522093 263.783681 
L 211.745043 263.878636 
L 212.042309 264.404736 
L 212.562525 266.011972 
L 213.380008 268.463952 
L 213.825907 269.23627 
L 214.19749 269.537746 
L 214.569073 269.560499 
L 214.940656 269.34463 
L 215.460873 268.717773 
L 216.129722 267.50395 
L 217.987637 263.885226 
L 218.507853 263.462945 
L 219.622602 262.803555 
L 220.068502 262.161148 
L 220.588718 260.977648 
L 221.331884 258.634996 
L 222.743899 254.080985 
L 223.264116 253.083395 
L 223.635699 252.739139 
L 223.932965 252.702843 
L 224.230231 252.879694 
L 224.601814 253.385895 
L 225.122031 254.557394 
L 225.939513 257.124452 
L 227.277212 261.38371 
L 227.946061 262.807563 
L 228.614911 263.728958 
L 229.72966 265.168317 
L 230.844409 267.176062 
L 231.810525 268.713273 
L 232.479374 269.373373 
L 232.925274 269.545745 
L 233.296857 269.482431 
L 233.66844 269.204997 
L 234.114339 268.591841 
L 235.377721 266.631208 
L 235.674988 266.637892 
L 235.972254 266.915253 
L 236.418154 267.693826 
L 237.607219 269.898768 
L 238.127436 270.406318 
L 238.573335 270.573903 
L 239.019235 270.502349 
L 239.539451 270.140919 
L 240.43125 269.120392 
L 240.951466 268.672245 
L 241.323049 268.590434 
L 241.694632 268.728707 
L 242.363482 269.306783 
L 243.032331 269.816138 
L 243.478231 269.926991 
L 243.92413 269.818585 
L 244.444347 269.455325 
L 245.559096 268.561742 
L 245.930679 268.557337 
L 246.302262 268.803981 
L 246.822478 269.491604 
L 247.937227 271.057915 
L 248.383126 271.319803 
L 248.754709 271.312706 
L 249.126292 271.098808 
L 249.572192 270.58168 
L 250.166725 269.515574 
L 251.281474 267.39174 
L 251.57874 267.193195 
L 251.876007 267.270417 
L 252.24759 267.724037 
L 253.065072 269.33965 
L 253.659605 270.238931 
L 254.105505 270.53247 
L 254.477088 270.517705 
L 254.922987 270.221875 
L 255.443203 269.564154 
L 256.260686 268.088428 
L 257.524068 265.812985 
L 258.192918 265.077756 
L 259.159034 264.092417 
L 259.67925 263.172557 
L 260.273783 261.637171 
L 261.462848 257.705434 
L 262.206014 255.609319 
L 262.72623 254.714872 
L 263.097813 254.450927 
L 263.39508 254.479681 
L 263.692346 254.719025 
L 264.138246 255.442807 
L 264.732779 256.957222 
L 267.185226 263.993811 
L 268.002709 265.274248 
L 269.266091 267.23312 
L 270.678107 269.454197 
L 271.346956 270.083324 
L 271.792856 270.253694 
L 272.238755 270.18751 
L 272.684655 269.881941 
L 274.170987 268.548387 
L 274.468253 268.631111 
L 274.839836 268.968619 
L 275.657319 270.157417 
L 276.400485 271.057268 
L 276.920701 271.376126 
L 277.366601 271.426252 
L 277.886817 271.24448 
L 278.629983 270.684331 
L 279.373149 270.187816 
L 279.819048 270.128761 
L 280.339265 270.315371 
L 281.676963 270.968773 
L 282.19718 270.912891 
L 282.791712 270.604257 
L 283.906461 269.960211 
L 284.352361 270.000157 
L 284.798261 270.292744 
L 286.507542 271.78527 
L 286.953442 271.742915 
L 287.399342 271.442593 
L 287.919558 270.799501 
L 289.480206 268.562382 
L 289.777473 268.511171 
L 290.074739 268.656646 
L 290.520639 269.154857 
L 291.561071 270.429345 
L 292.006971 270.611752 
L 292.378554 270.535225 
L 292.824453 270.188309 
L 293.418986 269.376279 
L 294.533735 267.324942 
L 295.425534 265.887874 
L 297.0605 263.545223 
L 297.655032 262.050436 
L 298.621148 258.889875 
L 299.587264 255.981742 
L 300.10748 255.035429 
L 300.479063 254.740311 
L 300.77633 254.750363 
L 301.073596 254.977092 
L 301.445179 255.544055 
L 301.965395 256.778096 
L 302.931511 259.812904 
L 303.971943 262.878858 
L 304.789426 264.582142 
L 307.018924 268.236276 
L 307.836407 269.323183 
L 308.430939 269.791403 
L 308.876839 269.910868 
L 309.322739 269.819509 
L 309.917271 269.438545 
L 310.734754 268.924856 
L 311.106337 268.925109 
L 311.552237 269.191091 
L 312.221086 269.937511 
L 313.112885 270.858092 
L 313.633101 271.116317 
L 314.153318 271.130822 
L 314.747851 270.895707 
L 316.085549 270.240057 
L 316.605766 270.288386 
L 318.537997 270.781888 
L 319.206847 270.50494 
L 320.247279 270.032179 
L 320.693179 270.061202 
L 321.213395 270.338355 
L 322.62541 271.285084 
L 323.07131 271.263042 
L 323.517209 271.011894 
L 324.111742 270.36403 
L 325.449441 268.702577 
L 325.821024 268.585497 
L 326.192607 268.701323 
L 326.78714 269.203312 
L 327.530306 269.783198 
L 327.976205 269.85467 
L 328.422105 269.658154 
L 328.942321 269.11549 
L 329.685487 267.921411 
L 331.469086 264.889853 
L 332.435201 263.320684 
L 333.104051 261.710706 
L 333.99585 258.844659 
L 335.036282 255.615107 
L 335.556499 254.614873 
L 335.928082 254.287287 
L 336.225348 254.278585 
L 336.522614 254.494023 
L 336.894197 255.056813 
L 337.414414 256.298162 
L 338.380529 259.351666 
L 339.420962 262.43014 
L 340.238444 264.204807 
L 341.947726 267.181869 
L 342.839525 268.441004 
L 343.434058 268.970375 
L 343.954274 269.167274 
L 344.474491 269.120216 
L 345.960823 268.759773 
L 346.406722 268.992128 
L 347.149888 269.69027 
L 347.967371 270.387234 
L 348.561904 270.611143 
L 349.156436 270.569026 
L 350.196869 270.164656 
L 350.865718 270.047658 
L 351.534568 270.18701 
L 352.723633 270.483037 
L 353.392483 270.360397 
L 355.027448 269.87496 
L 355.547664 270.041416 
L 357.108313 270.716284 
L 357.554212 270.594735 
L 358.074428 270.208072 
L 358.966228 269.176818 
L 359.635077 268.551356 
L 360.080977 268.419174 
L 360.526876 268.531026 
L 361.864575 269.069796 
L 362.310475 268.907213 
L 362.830691 268.417334 
L 363.49954 267.412212 
L 366.323571 262.28145 
L 367.066737 260.240539 
L 368.998969 254.40537 
L 369.444868 253.838997 
L 369.742135 253.745436 
L 370.039401 253.884729 
L 370.410984 254.369746 
L 370.9312 255.540054 
L 371.748683 258.07678 
L 373.012065 261.9328 
L 373.903864 263.942608 
L 375.31588 266.510846 
L 376.207679 267.750604 
L 376.802212 268.257366 
L 377.322428 268.45469 
L 377.991277 268.444393 
L 378.883077 268.425511 
L 379.403293 268.65282 
L 380.220775 269.312838 
L 381.038258 269.895134 
L 381.632791 270.069447 
L 382.30164 270.01211 
L 383.787972 269.766855 
L 384.754088 269.988458 
L 385.571571 270.081948 
L 386.314737 269.92 
L 387.503802 269.607984 
L 388.098335 269.701528 
L 389.658984 270.122706 
L 390.1792 269.929971 
L 390.773733 269.44906 
L 392.111431 268.237003 
L 392.631648 268.118866 
L 393.300497 268.247752 
L 393.969346 268.319921 
L 394.415246 268.15748 
L 394.935462 267.693327 
L 395.604312 266.720629 
L 397.239277 263.710438 
L 398.279709 261.53494 
L 399.022875 259.407987 
L 400.806474 253.955423 
L 401.252373 253.332811 
L 401.54964 253.206605 
L 401.846906 253.320071 
L 402.218489 253.783948 
L 402.664389 254.74787 
L 403.407555 256.996988 
L 404.893887 261.602964 
L 405.860002 263.820026 
L 407.049068 266.007189 
L 407.866551 267.097101 
L 408.5354 267.618539 
L 409.204249 267.830528 
L 410.467632 268.124211 
L 411.210798 268.617248 
L 412.325547 269.357266 
L 412.994396 269.518549 
L 413.811879 269.456172 
L 414.852311 269.405022 
L 417.081809 269.55948 
L 418.642458 269.267718 
L 419.534257 269.450841 
L 420.277423 269.531454 
L 420.797639 269.382705 
L 421.392172 268.979644 
L 422.95282 267.757929 
L 423.547353 267.64526 
L 424.587786 267.502775 
L 425.108002 267.147515 
L 425.702535 266.417438 
L 426.520017 264.998767 
L 428.154982 261.648123 
L 428.972465 259.451504 
L 431.127647 253.06062 
L 431.49923 252.681325 
L 431.796496 252.651314 
L 432.093762 252.865274 
L 432.465345 253.450826 
L 432.985562 254.751083 
L 434.100311 258.394686 
L 435.140743 261.469988 
L 436.181175 263.841246 
L 437.147291 265.559075 
L 437.890457 266.482566 
L 438.559307 266.977226 
L 439.599739 267.389147 
L 440.491538 267.872654 
L 442.052187 268.816327 
L 442.795353 268.938704 
L 445.024851 269.08434 
L 445.990967 269.129277 
L 447.254349 268.875558 
L 448.071831 268.836755 
L 449.558163 268.852729 
L 450.152696 268.567363 
L 451.118812 267.786633 
L 451.936295 267.235861 
L 452.90241 266.916737 
L 453.57126 266.572905 
L 454.165793 265.96222 
L 454.834642 264.914486 
L 455.949391 262.672166 
L 457.06414 259.986172 
L 457.955939 257.195803 
L 459.219321 253.183554 
L 459.739538 252.240585 
L 460.111121 252.00416 
L 460.408387 252.098147 
L 460.705653 252.43601 
L 461.151553 253.344138 
L 461.820402 255.334361 
L 463.678317 261.171909 
L 464.71875 263.546233 
L 465.610549 265.066323 
L 466.353715 265.917828 
L 467.171198 266.491656 
L 468.954796 267.623385 
L 469.920912 268.149475 
L 470.738394 268.323053 
L 474.008325 268.515013 
L 475.86624 268.284387 
L 476.906672 268.183024 
L 477.575522 267.862473 
L 478.690271 266.989379 
L 479.656386 266.376911 
L 480.696819 265.726471 
L 481.291352 265.054048 
L 482.034518 263.811083 
L 483.07495 261.563266 
L 484.115382 258.812109 
L 485.230131 255.098783 
L 486.121931 252.389988 
L 486.56783 251.580526 
L 486.939413 251.315719 
L 487.23668 251.393568 
L 487.533946 251.722249 
L 487.979846 252.62886 
L 488.648695 254.635736 
L 490.580927 260.772456 
L 491.547043 262.985442 
L 492.364525 264.365907 
L 493.107691 265.23003 
L 494.148124 266.057485 
L 496.154672 267.383474 
L 497.046471 267.633679 
L 499.424602 267.928409 
L 500.465035 267.799655 
L 503.289065 267.155358 
L 504.255181 266.414567 
L 506.707629 264.257735 
L 507.376478 263.144301 
L 508.268278 261.19562 
L 509.30871 258.393241 
L 510.423459 254.666569 
L 511.389575 251.652851 
L 511.835474 250.819821 
L 512.207057 250.541931 
L 512.504324 250.615871 
L 512.80159 250.946799 
L 513.24749 251.866311 
L 513.916339 253.903678 
L 515.848571 260.140289 
L 516.74037 262.216657 
L 517.557853 263.614425 
L 518.375335 264.59412 
L 519.638717 265.715413 
L 520.753466 266.475471 
L 521.645266 266.813835 
L 523.280231 267.1262 
L 524.320663 267.1411 
L 526.029945 266.842617 
L 527.070377 266.543619 
L 527.813543 266.089982 
L 529.151242 264.928592 
L 530.340308 263.710675 
L 531.009157 262.687036 
L 531.82664 260.974512 
L 532.792756 258.406219 
L 533.833188 255.004591 
L 535.09657 250.854507 
L 535.616786 249.879642 
L 535.914053 249.662281 
L 536.211319 249.715126 
L 536.508586 250.032618 
L 536.954485 250.94657 
L 537.623335 253.001349 
L 539.629883 259.553622 
L 540.521682 261.601428 
L 541.339165 262.966378 
L 542.30528 264.126435 
L 543.494346 265.192725 
L 544.386145 265.717809 
L 545.426578 266.058684 
L 546.68996 266.254306 
L 547.656076 266.182192 
L 549.216724 265.803752 
L 550.034207 265.42233 
L 550.85169 264.787036 
L 552.115072 263.488904 
L 553.006871 262.293912 
L 553.750037 260.890936 
L 554.641836 258.652682 
L 555.682269 255.375229 
L 557.465867 249.479282 
L 557.911767 248.766561 
L 558.209033 248.620044 
L 558.506299 248.751117 
L 558.803566 249.148245 
L 559.249465 250.171224 
L 559.992631 252.604561 
L 561.627597 258.117839 
L 562.519396 260.328038 
L 563.411195 261.936424 
L 564.377311 263.195007 
L 565.343427 264.109614 
L 566.235226 264.660322 
L 567.275658 265.027973 
L 568.316091 265.165378 
L 569.282206 265.04928 
L 570.471272 264.664552 
L 571.363071 264.138719 
L 572.25487 263.311567 
L 573.295303 262.029044 
L 574.112785 260.697461 
L 574.930268 258.892588 
L 575.822067 256.296402 
L 577.011133 252.023273 
L 577.977249 248.776444 
L 578.497465 247.704143 
L 578.869048 247.412093 
L 579.166314 247.496181 
L 579.463581 247.860151 
L 579.90948 248.862586 
L 580.57833 251.054791 
L 582.361928 257.114524 
L 583.328044 259.513523 
L 584.219843 261.109869 
L 585.111642 262.262882 
L 586.003441 263.055116 
L 586.895241 263.534869 
L 587.78704 263.768754 
L 588.678839 263.772724 
L 589.644955 263.5414 
L 590.536754 263.103583 
L 591.354237 262.435674 
L 592.171719 261.471192 
L 593.063518 260.081315 
L 593.881001 258.372975 
L 594.698484 256.113281 
L 595.738916 252.505088 
L 597.299565 247.01503 
L 597.745464 246.163636 
L 598.042731 245.933049 
L 598.339997 245.995178 
L 598.637263 246.343339 
L 599.083163 247.333785 
L 599.752012 249.532744 
L 601.609928 255.990907 
L 602.501727 258.192156 
L 603.393526 259.796869 
L 604.211009 260.838511 
L 605.028491 261.532138 
L 605.845974 261.937251 
L 606.58914 262.081058 
L 607.332306 262.011075 
L 608.149788 261.700986 
L 608.892954 261.196413 
L 609.63612 260.427516 
L 610.453603 259.238589 
L 611.271086 257.647642 
L 612.088568 255.535601 
L 612.980367 252.564997 
L 615.209865 244.645411 
L 615.581448 244.121899 
L 615.878715 244.035179 
L 616.175981 244.250525 
L 616.547564 244.91222 
L 617.06778 246.413317 
L 618.256846 250.852928 
L 619.297278 254.307398 
L 620.189078 256.51645 
L 621.00656 257.968566 
L 621.749726 258.878541 
L 622.492892 259.454649 
L 623.161742 259.719828 
L 623.830591 259.754585 
L 624.49944 259.56351 
L 625.16829 259.147581 
L 625.837139 258.483402 
L 626.580305 257.408887 
L 627.323471 255.940773 
L 628.140954 253.797601 
L 629.032753 250.74581 
L 631.410884 241.990116 
L 631.782467 241.532004 
L 632.079734 241.515521 
L 632.377 241.809007 
L 632.748583 242.564928 
L 633.343116 244.437686 
L 635.64693 252.506876 
L 636.464413 254.344753 
L 637.207579 255.490764 
L 637.876428 256.11934 
L 638.470961 256.397125 
L 639.065494 256.423837 
L 639.660027 256.203141 
L 640.25456 255.732348 
L 640.923409 254.882396 
L 641.592258 253.660949 
L 642.335424 251.816069 
L 643.152907 249.132279 
L 644.193339 244.800783 
L 645.531038 239.254891 
L 646.051254 238.018367 
L 646.348521 237.728039 
L 646.571471 237.726201 
L 646.868737 238.005135 
L 647.24032 238.758719 
L 647.834853 240.645041 
L 649.915718 247.925934 
L 650.658884 249.578197 
L 651.253416 250.43434 
L 651.773633 250.866979 
L 652.293849 251.016326 
L 652.739748 250.922318 
L 653.259965 250.550066 
L 653.780181 249.877225 
L 654.374714 248.737524 
L 655.043563 246.950115 
L 655.786729 244.287181 
L 656.752845 239.850475 
L 658.313494 232.5392 
L 658.759393 231.340721 
L 659.130976 230.885167 
L 659.353926 230.858815 
L 659.651192 231.098547 
L 660.022775 231.777327 
L 660.617308 233.455032 
L 662.029324 237.643702 
L 662.623856 238.770552 
L 663.069756 239.197742 
L 663.441339 239.291964 
L 663.812922 239.150823 
L 664.184505 238.767194 
L 664.556088 238.058256 
L 665.224937 236.164078 
L 665.59652 234.605917 
L 666.339686 230.641137 
L 667.082852 225.433615 
L 668.643501 212.979626 
L 668.643501 212.979626 
" clip-path="url(#paa788ec88c)" style="fill: none; stroke: #ff7f0e; stroke-width: 1.5; stroke-linecap: square"/>
   </g>
   <g id="patch_3">
    <path d="M 36.465625 284.4 
L 36.465625 7.2 
" style="fill: none; stroke: #000000; stroke-width: 0.8; stroke-linejoin: miter; stroke-linecap: square"/>
   </g>
   <g id="patch_4">
    <path d="M 706.065625 284.4 
L 706.065625 7.2 
" style="fill: none; stroke: #000000; stroke-width: 0.8; stroke-linejoin: miter; stroke-linecap: square"/>
   </g>
   <g id="patch_5">
    <path d="M 36.465625 284.4 
L 706.065625 284.4 
" style="fill: none; stroke: #000000; stroke-width: 0.8; stroke-linejoin: miter; stroke-linecap: square"/>
   </g>
   <g id="patch_6">
    <path d="M 36.465625 7.2 
L 706.065625 7.2 
" style="fill: none; stroke: #000000; stroke-width: 0.8; stroke-linejoin: miter; stroke-linecap: square"/>
   </g>
   <g id="legend_1">
    <g id="patch_7">
     <path d="M 43.465625 73.9125 
L 206.465625 73.9125 
Q 208.465625 73.9125 208.465625 71.9125 
L 208.465625 14.2 
Q 208.465625 12.2 206.465625 12.2 
L 43.465625 12.2 
Q 41.465625 12.2 41.465625 14.2 
L 41.465625 71.9125 
Q 41.465625 73.9125 43.465625 73.9125 
z
" style="fill: #ffffff; opacity: 0.8; stroke: #cccccc; stroke-linejoin: miter"/>
    </g>
    <g id="line2d_17">
     <path d="M 45.465625 20.298438 
L 55.465625 20.298438 
L 65.465625 20.298438 
" style="fill: none; stroke: #1f77b4; stroke-width: 1.5; stroke-linecap: square"/>
    </g>
    <g id="text_14">
     <!-- Mf before ISCO cut: $e$=0.3 -->
     <g transform="translate(73.465625 23.798438) scale(0.1 -0.1)">
      <defs>
       <path id="DejaVuSans-4d" d="M 628 4666 
L 1569 4666 
L 2759 1491 
L 3956 4666 
L 4897 4666 
L 4897 0 
L 4281 0 
L 4281 4097 
L 3078 897 
L 2444 897 
L 1241 4097 
L 1241 0 
L 628 0 
L 628 4666 
z
" transform="scale(0.015625)"/>
       <path id="DejaVuSans-66" d="M 2375 4863 
L 2375 4384 
L 1825 4384 
Q 1516 4384 1395 4259 
Q 1275 4134 1275 3809 
L 1275 3500 
L 2222 3500 
L 2222 3053 
L 1275 3053 
L 1275 0 
L 697 0 
L 697 3053 
L 147 3053 
L 147 3500 
L 697 3500 
L 697 3744 
Q 697 4328 969 4595 
Q 1241 4863 1831 4863 
L 2375 4863 
z
" transform="scale(0.015625)"/>
       <path id="DejaVuSans-20" transform="scale(0.015625)"/>
       <path id="DejaVuSans-62" d="M 3116 1747 
Q 3116 2381 2855 2742 
Q 2594 3103 2138 3103 
Q 1681 3103 1420 2742 
Q 1159 2381 1159 1747 
Q 1159 1113 1420 752 
Q 1681 391 2138 391 
Q 2594 391 2855 752 
Q 3116 1113 3116 1747 
z
M 1159 2969 
Q 1341 3281 1617 3432 
Q 1894 3584 2278 3584 
Q 2916 3584 3314 3078 
Q 3713 2572 3713 1747 
Q 3713 922 3314 415 
Q 2916 -91 2278 -91 
Q 1894 -91 1617 61 
Q 1341 213 1159 525 
L 1159 0 
L 581 0 
L 581 4863 
L 1159 4863 
L 1159 2969 
z
" transform="scale(0.015625)"/>
       <path id="DejaVuSans-65" d="M 3597 1894 
L 3597 1613 
L 953 1613 
Q 991 1019 1311 708 
Q 1631 397 2203 397 
Q 2534 397 2845 478 
Q 3156 559 3463 722 
L 3463 178 
Q 3153 47 2828 -22 
Q 2503 -91 2169 -91 
Q 1331 -91 842 396 
Q 353 884 353 1716 
Q 353 2575 817 3079 
Q 1281 3584 2069 3584 
Q 2775 3584 3186 3129 
Q 3597 2675 3597 1894 
z
M 3022 2063 
Q 3016 2534 2758 2815 
Q 2500 3097 2075 3097 
Q 1594 3097 1305 2825 
Q 1016 2553 972 2059 
L 3022 2063 
z
" transform="scale(0.015625)"/>
       <path id="DejaVuSans-6f" d="M 1959 3097 
Q 1497 3097 1228 2736 
Q 959 2375 959 1747 
Q 959 1119 1226 758 
Q 1494 397 1959 397 
Q 2419 397 2687 759 
Q 2956 1122 2956 1747 
Q 2956 2369 2687 2733 
Q 2419 3097 1959 3097 
z
M 1959 3584 
Q 2709 3584 3137 3096 
Q 3566 2609 3566 1747 
Q 3566 888 3137 398 
Q 2709 -91 1959 -91 
Q 1206 -91 779 398 
Q 353 888 353 1747 
Q 353 2609 779 3096 
Q 1206 3584 1959 3584 
z
" transform="scale(0.015625)"/>
       <path id="DejaVuSans-72" d="M 2631 2963 
Q 2534 3019 2420 3045 
Q 2306 3072 2169 3072 
Q 1681 3072 1420 2755 
Q 1159 2438 1159 1844 
L 1159 0 
L 581 0 
L 581 3500 
L 1159 3500 
L 1159 2956 
Q 1341 3275 1631 3429 
Q 1922 3584 2338 3584 
Q 2397 3584 2469 3576 
Q 2541 3569 2628 3553 
L 2631 2963 
z
" transform="scale(0.015625)"/>
       <path id="DejaVuSans-49" d="M 628 4666 
L 1259 4666 
L 1259 0 
L 628 0 
L 628 4666 
z
" transform="scale(0.015625)"/>
       <path id="DejaVuSans-53" d="M 3425 4513 
L 3425 3897 
Q 3066 4069 2747 4153 
Q 2428 4238 2131 4238 
Q 1616 4238 1336 4038 
Q 1056 3838 1056 3469 
Q 1056 3159 1242 3001 
Q 1428 2844 1947 2747 
L 2328 2669 
Q 3034 2534 3370 2195 
Q 3706 1856 3706 1288 
Q 3706 609 3251 259 
Q 2797 -91 1919 -91 
Q 1588 -91 1214 -16 
Q 841 59 441 206 
L 441 856 
Q 825 641 1194 531 
Q 1563 422 1919 422 
Q 2459 422 2753 634 
Q 3047 847 3047 1241 
Q 3047 1584 2836 1778 
Q 2625 1972 2144 2069 
L 1759 2144 
Q 1053 2284 737 2584 
Q 422 2884 422 3419 
Q 422 4038 858 4394 
Q 1294 4750 2059 4750 
Q 2388 4750 2728 4690 
Q 3069 4631 3425 4513 
z
" transform="scale(0.015625)"/>
       <path id="DejaVuSans-43" d="M 4122 4306 
L 4122 3641 
Q 3803 3938 3442 4084 
Q 3081 4231 2675 4231 
Q 1875 4231 1450 3742 
Q 1025 3253 1025 2328 
Q 1025 1406 1450 917 
Q 1875 428 2675 428 
Q 3081 428 3442 575 
Q 3803 722 4122 1019 
L 4122 359 
Q 3791 134 3420 21 
Q 3050 -91 2638 -91 
Q 1578 -91 968 557 
Q 359 1206 359 2328 
Q 359 3453 968 4101 
Q 1578 4750 2638 4750 
Q 3056 4750 3426 4639 
Q 3797 4528 4122 4306 
z
" transform="scale(0.015625)"/>
       <path id="DejaVuSans-4f" d="M 2522 4238 
Q 1834 4238 1429 3725 
Q 1025 3213 1025 2328 
Q 1025 1447 1429 934 
Q 1834 422 2522 422 
Q 3209 422 3611 934 
Q 4013 1447 4013 2328 
Q 4013 3213 3611 3725 
Q 3209 4238 2522 4238 
z
M 2522 4750 
Q 3503 4750 4090 4092 
Q 4678 3434 4678 2328 
Q 4678 1225 4090 567 
Q 3503 -91 2522 -91 
Q 1538 -91 948 565 
Q 359 1222 359 2328 
Q 359 3434 948 4092 
Q 1538 4750 2522 4750 
z
" transform="scale(0.015625)"/>
       <path id="DejaVuSans-63" d="M 3122 3366 
L 3122 2828 
Q 2878 2963 2633 3030 
Q 2388 3097 2138 3097 
Q 1578 3097 1268 2742 
Q 959 2388 959 1747 
Q 959 1106 1268 751 
Q 1578 397 2138 397 
Q 2388 397 2633 464 
Q 2878 531 3122 666 
L 3122 134 
Q 2881 22 2623 -34 
Q 2366 -91 2075 -91 
Q 1284 -91 818 406 
Q 353 903 353 1747 
Q 353 2603 823 3093 
Q 1294 3584 2113 3584 
Q 2378 3584 2631 3529 
Q 2884 3475 3122 3366 
z
" transform="scale(0.015625)"/>
       <path id="DejaVuSans-75" d="M 544 1381 
L 544 3500 
L 1119 3500 
L 1119 1403 
Q 1119 906 1312 657 
Q 1506 409 1894 409 
Q 2359 409 2629 706 
Q 2900 1003 2900 1516 
L 2900 3500 
L 3475 3500 
L 3475 0 
L 2900 0 
L 2900 538 
Q 2691 219 2414 64 
Q 2138 -91 1772 -91 
Q 1169 -91 856 284 
Q 544 659 544 1381 
z
M 1991 3584 
L 1991 3584 
z
" transform="scale(0.015625)"/>
       <path id="DejaVuSans-74" d="M 1172 4494 
L 1172 3500 
L 2356 3500 
L 2356 3053 
L 1172 3053 
L 1172 1153 
Q 1172 725 1289 603 
Q 1406 481 1766 481 
L 2356 481 
L 2356 0 
L 1766 0 
Q 1100 0 847 248 
Q 594 497 594 1153 
L 594 3053 
L 172 3053 
L 172 3500 
L 594 3500 
L 594 4494 
L 1172 4494 
z
" transform="scale(0.015625)"/>
       <path id="DejaVuSans-3a" d="M 750 794 
L 1409 794 
L 1409 0 
L 750 0 
L 750 794 
z
M 750 3309 
L 1409 3309 
L 1409 2516 
L 750 2516 
L 750 3309 
z
" transform="scale(0.015625)"/>
       <path id="DejaVuSans-Oblique-65" d="M 3078 2063 
Q 3088 2113 3092 2166 
Q 3097 2219 3097 2272 
Q 3097 2653 2873 2875 
Q 2650 3097 2266 3097 
Q 1838 3097 1509 2826 
Q 1181 2556 1013 2059 
L 3078 2063 
z
M 3578 1613 
L 903 1613 
Q 884 1494 878 1425 
Q 872 1356 872 1306 
Q 872 872 1139 634 
Q 1406 397 1894 397 
Q 2269 397 2603 481 
Q 2938 566 3225 728 
L 3116 159 
Q 2806 34 2476 -28 
Q 2147 -91 1806 -91 
Q 1078 -91 686 257 
Q 294 606 294 1247 
Q 294 1794 489 2264 
Q 684 2734 1063 3103 
Q 1306 3334 1642 3459 
Q 1978 3584 2356 3584 
Q 2950 3584 3301 3228 
Q 3653 2872 3653 2272 
Q 3653 2128 3634 1964 
Q 3616 1800 3578 1613 
z
" transform="scale(0.015625)"/>
       <path id="DejaVuSans-3d" d="M 678 2906 
L 4684 2906 
L 4684 2381 
L 678 2381 
L 678 2906 
z
M 678 1631 
L 4684 1631 
L 4684 1100 
L 678 1100 
L 678 1631 
z
" transform="scale(0.015625)"/>
       <path id="DejaVuSans-33" d="M 2597 2516 
Q 3050 2419 3304 2112 
Q 3559 1806 3559 1356 
Q 3559 666 3084 287 
Q 2609 -91 1734 -91 
Q 1441 -91 1130 -33 
Q 819 25 488 141 
L 488 750 
Q 750 597 1062 519 
Q 1375 441 1716 441 
Q 2309 441 2620 675 
Q 2931 909 2931 1356 
Q 2931 1769 2642 2001 
Q 2353 2234 1838 2234 
L 1294 2234 
L 1294 2753 
L 1863 2753 
Q 2328 2753 2575 2939 
Q 2822 3125 2822 3475 
Q 2822 3834 2567 4026 
Q 2313 4219 1838 4219 
Q 1578 4219 1281 4162 
Q 984 4106 628 3988 
L 628 4550 
Q 988 4650 1302 4700 
Q 1616 4750 1894 4750 
Q 2613 4750 3031 4423 
Q 3450 4097 3450 3541 
Q 3450 3153 3228 2886 
Q 3006 2619 2597 2516 
z
" transform="scale(0.015625)"/>
      </defs>
      <use xlink:href="#DejaVuSans-4d" transform="translate(0 0.015625)"/>
      <use xlink:href="#DejaVuSans-66" transform="translate(86.279297 0.015625)"/>
      <use xlink:href="#DejaVuSans-20" transform="translate(121.484375 0.015625)"/>
      <use xlink:href="#DejaVuSans-62" transform="translate(153.271484 0.015625)"/>
      <use xlink:href="#DejaVuSans-65" transform="translate(216.748047 0.015625)"/>
      <use xlink:href="#DejaVuSans-66" transform="translate(278.271484 0.015625)"/>
      <use xlink:href="#DejaVuSans-6f" transform="translate(313.476562 0.015625)"/>
      <use xlink:href="#DejaVuSans-72" transform="translate(374.658203 0.015625)"/>
      <use xlink:href="#DejaVuSans-65" transform="translate(415.771484 0.015625)"/>
      <use xlink:href="#DejaVuSans-20" transform="translate(477.294922 0.015625)"/>
      <use xlink:href="#DejaVuSans-49" transform="translate(509.082031 0.015625)"/>
      <use xlink:href="#DejaVuSans-53" transform="translate(538.574219 0.015625)"/>
      <use xlink:href="#DejaVuSans-43" transform="translate(602.050781 0.015625)"/>
      <use xlink:href="#DejaVuSans-4f" transform="translate(671.875 0.015625)"/>
      <use xlink:href="#DejaVuSans-20" transform="translate(750.585938 0.015625)"/>
      <use xlink:href="#DejaVuSans-63" transform="translate(782.373047 0.015625)"/>
      <use xlink:href="#DejaVuSans-75" transform="translate(837.353516 0.015625)"/>
      <use xlink:href="#DejaVuSans-74" transform="translate(900.732422 0.015625)"/>
      <use xlink:href="#DejaVuSans-3a" transform="translate(939.941406 0.015625)"/>
      <use xlink:href="#DejaVuSans-20" transform="translate(973.632812 0.015625)"/>
      <use xlink:href="#DejaVuSans-Oblique-65" transform="translate(1005.419922 0.015625)"/>
      <use xlink:href="#DejaVuSans-3d" transform="translate(1066.943359 0.015625)"/>
      <use xlink:href="#DejaVuSans-30" transform="translate(1150.732422 0.015625)"/>
      <use xlink:href="#DejaVuSans-2e" transform="translate(1214.355469 0.015625)"/>
      <use xlink:href="#DejaVuSans-33" transform="translate(1246.142578 0.015625)"/>
     </g>
    </g>
    <g id="line2d_18">
     <path d="M 45.465625 34.976563 
L 55.465625 34.976563 
L 65.465625 34.976563 
" style="fill: none; stroke-dasharray: 2.22,0.96; stroke-dashoffset: 0; stroke: #ff0000; stroke-width: 0.6"/>
    </g>
    <g id="text_15">
     <!-- Mf ISCO $e$=0 -->
     <g transform="translate(73.465625 38.476563) scale(0.1 -0.1)">
      <use xlink:href="#DejaVuSans-4d" transform="translate(0 0.015625)"/>
      <use xlink:href="#DejaVuSans-66" transform="translate(86.279297 0.015625)"/>
      <use xlink:href="#DejaVuSans-20" transform="translate(121.484375 0.015625)"/>
      <use xlink:href="#DejaVuSans-49" transform="translate(153.271484 0.015625)"/>
      <use xlink:href="#DejaVuSans-53" transform="translate(182.763672 0.015625)"/>
      <use xlink:href="#DejaVuSans-43" transform="translate(246.240234 0.015625)"/>
      <use xlink:href="#DejaVuSans-4f" transform="translate(316.064453 0.015625)"/>
      <use xlink:href="#DejaVuSans-20" transform="translate(394.775391 0.015625)"/>
      <use xlink:href="#DejaVuSans-Oblique-65" transform="translate(426.5625 0.015625)"/>
      <use xlink:href="#DejaVuSans-3d" transform="translate(488.085938 0.015625)"/>
      <use xlink:href="#DejaVuSans-30" transform="translate(571.875 0.015625)"/>
     </g>
    </g>
    <g id="PathCollection_2">
     <g>
      <use xlink:href="#m44c69274d7" x="55.465625" y="50.529688" style="fill: #ff0000; stroke: #ff0000"/>
     </g>
    </g>
    <g id="text_16">
     <!-- ISCO cut -->
     <g transform="translate(73.465625 53.154688) scale(0.1 -0.1)">
      <use xlink:href="#DejaVuSans-49"/>
      <use xlink:href="#DejaVuSans-53" transform="translate(29.492188 0)"/>
      <use xlink:href="#DejaVuSans-43" transform="translate(92.96875 0)"/>
      <use xlink:href="#DejaVuSans-4f" transform="translate(162.792969 0)"/>
      <use xlink:href="#DejaVuSans-20" transform="translate(241.503906 0)"/>
      <use xlink:href="#DejaVuSans-63" transform="translate(273.291016 0)"/>
      <use xlink:href="#DejaVuSans-75" transform="translate(328.271484 0)"/>
      <use xlink:href="#DejaVuSans-74" transform="translate(391.650391 0)"/>
     </g>
    </g>
    <g id="line2d_19">
     <path d="M 45.465625 64.332813 
L 55.465625 64.332813 
L 65.465625 64.332813 
" style="fill: none; stroke: #ff7f0e; stroke-width: 1.5; stroke-linecap: square"/>
    </g>
    <g id="text_17">
     <!-- Mf after ISCO cut: $e$=0.3  -->
     <g transform="translate(73.465625 67.832813) scale(0.1 -0.1)">
      <defs>
       <path id="DejaVuSans-61" d="M 2194 1759 
Q 1497 1759 1228 1600 
Q 959 1441 959 1056 
Q 959 750 1161 570 
Q 1363 391 1709 391 
Q 2188 391 2477 730 
Q 2766 1069 2766 1631 
L 2766 1759 
L 2194 1759 
z
M 3341 1997 
L 3341 0 
L 2766 0 
L 2766 531 
Q 2569 213 2275 61 
Q 1981 -91 1556 -91 
Q 1019 -91 701 211 
Q 384 513 384 1019 
Q 384 1609 779 1909 
Q 1175 2209 1959 2209 
L 2766 2209 
L 2766 2266 
Q 2766 2663 2505 2880 
Q 2244 3097 1772 3097 
Q 1472 3097 1187 3025 
Q 903 2953 641 2809 
L 641 3341 
Q 956 3463 1253 3523 
Q 1550 3584 1831 3584 
Q 2591 3584 2966 3190 
Q 3341 2797 3341 1997 
z
" transform="scale(0.015625)"/>
      </defs>
      <use xlink:href="#DejaVuSans-4d" transform="translate(0 0.015625)"/>
      <use xlink:href="#DejaVuSans-66" transform="translate(86.279297 0.015625)"/>
      <use xlink:href="#DejaVuSans-20" transform="translate(121.484375 0.015625)"/>
      <use xlink:href="#DejaVuSans-61" transform="translate(153.271484 0.015625)"/>
      <use xlink:href="#DejaVuSans-66" transform="translate(214.550781 0.015625)"/>
      <use xlink:href="#DejaVuSans-74" transform="translate(249.755859 0.015625)"/>
      <use xlink:href="#DejaVuSans-65" transform="translate(288.964844 0.015625)"/>
      <use xlink:href="#DejaVuSans-72" transform="translate(350.488281 0.015625)"/>
      <use xlink:href="#DejaVuSans-20" transform="translate(391.601562 0.015625)"/>
      <use xlink:href="#DejaVuSans-49" transform="translate(423.388672 0.015625)"/>
      <use xlink:href="#DejaVuSans-53" transform="translate(452.880859 0.015625)"/>
      <use xlink:href="#DejaVuSans-43" transform="translate(516.357422 0.015625)"/>
      <use xlink:href="#DejaVuSans-4f" transform="translate(586.181641 0.015625)"/>
      <use xlink:href="#DejaVuSans-20" transform="translate(664.892578 0.015625)"/>
      <use xlink:href="#DejaVuSans-63" transform="translate(696.679688 0.015625)"/>
      <use xlink:href="#DejaVuSans-75" transform="translate(751.660156 0.015625)"/>
      <use xlink:href="#DejaVuSans-74" transform="translate(815.039062 0.015625)"/>
      <use xlink:href="#DejaVuSans-3a" transform="translate(854.248047 0.015625)"/>
      <use xlink:href="#DejaVuSans-20" transform="translate(887.939453 0.015625)"/>
      <use xlink:href="#DejaVuSans-Oblique-65" transform="translate(919.726562 0.015625)"/>
      <use xlink:href="#DejaVuSans-3d" transform="translate(981.25 0.015625)"/>
      <use xlink:href="#DejaVuSans-30" transform="translate(1065.039062 0.015625)"/>
      <use xlink:href="#DejaVuSans-2e" transform="translate(1128.662109 0.015625)"/>
      <use xlink:href="#DejaVuSans-33" transform="translate(1160.449219 0.015625)"/>
      <use xlink:href="#DejaVuSans-20" transform="translate(1224.072266 0.015625)"/>
     </g>
    </g>
   </g>
  </g>
 </g>
 <defs>
  <clipPath id="paa788ec88c">
   <rect x="36.465625" y="7.2" width="669.6" height="277.2"/>
  </clipPath>
 </defs>
</svg>
