<?xml version="1.0" encoding="utf-8" standalone="no"?>
<!DOCTYPE svg PUBLIC "-//W3C//DTD SVG 1.1//EN"
  "http://www.w3.org/Graphics/SVG/1.1/DTD/svg11.dtd">
<svg xmlns:xlink="http://www.w3.org/1999/xlink" width="725.990625pt" height="309.866602pt" viewBox="0 0 725.990625 309.866602" xmlns="http://www.w3.org/2000/svg" version="1.1">
 <metadata>
  <rdf:RDF xmlns:dc="http://purl.org/dc/elements/1.1/" xmlns:cc="http://creativecommons.org/ns#" xmlns:rdf="http://www.w3.org/1999/02/22-rdf-syntax-ns#">
   <cc:Work>
    <dc:type rdf:resource="http://purl.org/dc/dcmitype/StillImage"/>
    <dc:date>2025-12-02T11:43:42.395917</dc:date>
    <dc:format>image/svg+xml</dc:format>
    <dc:creator>
     <cc:Agent>
      <dc:title>Matplotlib v3.10.5, https://matplotlib.org/</dc:title>
     </cc:Agent>
    </dc:creator>
   </cc:Work>
  </rdf:RDF>
 </metadata>
 <defs>
  <style type="text/css">*{stroke-linejoin: round; stroke-linecap: butt}</style>
 </defs>
 <g id="figure_1">
  <g id="patch_1">
   <path d="M 0 309.866602 
L 725.990625 309.866602 
L 725.990625 0 
L 0 0 
z
" style="fill: #ffffff"/>
  </g>
  <g id="axes_1">
   <g id="patch_2">
    <path d="M 49.190625 285.988477 
L 718.790625 285.988477 
L 718.790625 8.788477 
L 49.190625 8.788477 
z
" style="fill: #ffffff"/>
   </g>
   <g id="PathCollection_1">
    <defs>
     <path id="m89c8a2fa15" d="M 0 1.224745 
C 0.324806 1.224745 0.636353 1.095698 0.866025 0.866025 
C 1.095698 0.636353 1.224745 0.324806 1.224745 0 
C 1.224745 -0.324806 1.095698 -0.636353 0.866025 -0.866025 
C 0.636353 -1.095698 0.324806 -1.224745 0 -1.224745 
C -0.324806 -1.224745 -0.636353 -1.095698 -0.866025 -0.866025 
C -1.095698 -0.636353 -1.224745 -0.324806 -1.224745 0 
C -1.224745 0.324806 -1.095698 0.636353 -0.866025 0.866025 
C -0.636353 1.095698 -0.324806 1.224745 0 1.224745 
z
" style="stroke: #ff0000"/>
    </defs>
    <g clip-path="url(#p953ebdfeb5)">
     <use xlink:href="#m89c8a2fa15" x="688.354261" y="21.388477" style="fill: #ff0000; stroke: #ff0000"/>
    </g>
   </g>
   <g id="matplotlib.axis_1">
    <g id="xtick_1">
     <g id="line2d_1">
      <defs>
       <path id="m97505b338e" d="M 0 0 
L 0 3.5 
" style="stroke: #000000; stroke-width: 0.8"/>
      </defs>
      <g>
       <use xlink:href="#m97505b338e" x="108.99069" y="285.988477" style="stroke: #000000; stroke-width: 0.8"/>
      </g>
     </g>
     <g id="text_1">
      <!-- −8000 -->
      <g transform="translate(92.075846 300.586915) scale(0.1 -0.1)">
       <defs>
        <path id="DejaVuSans-2212" d="M 678 2272 
L 4684 2272 
L 4684 1741 
L 678 1741 
L 678 2272 
z
" transform="scale(0.015625)"/>
        <path id="DejaVuSans-38" d="M 2034 2216 
Q 1584 2216 1326 1975 
Q 1069 1734 1069 1313 
Q 1069 891 1326 650 
Q 1584 409 2034 409 
Q 2484 409 2743 651 
Q 3003 894 3003 1313 
Q 3003 1734 2745 1975 
Q 2488 2216 2034 2216 
z
M 1403 2484 
Q 997 2584 770 2862 
Q 544 3141 544 3541 
Q 544 4100 942 4425 
Q 1341 4750 2034 4750 
Q 2731 4750 3128 4425 
Q 3525 4100 3525 3541 
Q 3525 3141 3298 2862 
Q 3072 2584 2669 2484 
Q 3125 2378 3379 2068 
Q 3634 1759 3634 1313 
Q 3634 634 3220 271 
Q 2806 -91 2034 -91 
Q 1263 -91 848 271 
Q 434 634 434 1313 
Q 434 1759 690 2068 
Q 947 2378 1403 2484 
z
M 1172 3481 
Q 1172 3119 1398 2916 
Q 1625 2713 2034 2713 
Q 2441 2713 2670 2916 
Q 2900 3119 2900 3481 
Q 2900 3844 2670 4047 
Q 2441 4250 2034 4250 
Q 1625 4250 1398 4047 
Q 1172 3844 1172 3481 
z
" transform="scale(0.015625)"/>
        <path id="DejaVuSans-30" d="M 2034 4250 
Q 1547 4250 1301 3770 
Q 1056 3291 1056 2328 
Q 1056 1369 1301 889 
Q 1547 409 2034 409 
Q 2525 409 2770 889 
Q 3016 1369 3016 2328 
Q 3016 3291 2770 3770 
Q 2525 4250 2034 4250 
z
M 2034 4750 
Q 2819 4750 3233 4129 
Q 3647 3509 3647 2328 
Q 3647 1150 3233 529 
Q 2819 -91 2034 -91 
Q 1250 -91 836 529 
Q 422 1150 422 2328 
Q 422 3509 836 4129 
Q 1250 4750 2034 4750 
z
" transform="scale(0.015625)"/>
       </defs>
       <use xlink:href="#DejaVuSans-2212"/>
       <use xlink:href="#DejaVuSans-38" transform="translate(83.789062 0)"/>
       <use xlink:href="#DejaVuSans-30" transform="translate(147.412109 0)"/>
       <use xlink:href="#DejaVuSans-30" transform="translate(211.035156 0)"/>
       <use xlink:href="#DejaVuSans-30" transform="translate(274.658203 0)"/>
      </g>
     </g>
    </g>
    <g id="xtick_2">
     <g id="line2d_2">
      <g>
       <use xlink:href="#m97505b338e" x="255.465344" y="285.988477" style="stroke: #000000; stroke-width: 0.8"/>
      </g>
     </g>
     <g id="text_2">
      <!-- −6000 -->
      <g transform="translate(238.5505 300.586915) scale(0.1 -0.1)">
       <defs>
        <path id="DejaVuSans-36" d="M 2113 2584 
Q 1688 2584 1439 2293 
Q 1191 2003 1191 1497 
Q 1191 994 1439 701 
Q 1688 409 2113 409 
Q 2538 409 2786 701 
Q 3034 994 3034 1497 
Q 3034 2003 2786 2293 
Q 2538 2584 2113 2584 
z
M 3366 4563 
L 3366 3988 
Q 3128 4100 2886 4159 
Q 2644 4219 2406 4219 
Q 1781 4219 1451 3797 
Q 1122 3375 1075 2522 
Q 1259 2794 1537 2939 
Q 1816 3084 2150 3084 
Q 2853 3084 3261 2657 
Q 3669 2231 3669 1497 
Q 3669 778 3244 343 
Q 2819 -91 2113 -91 
Q 1303 -91 875 529 
Q 447 1150 447 2328 
Q 447 3434 972 4092 
Q 1497 4750 2381 4750 
Q 2619 4750 2861 4703 
Q 3103 4656 3366 4563 
z
" transform="scale(0.015625)"/>
       </defs>
       <use xlink:href="#DejaVuSans-2212"/>
       <use xlink:href="#DejaVuSans-36" transform="translate(83.789062 0)"/>
       <use xlink:href="#DejaVuSans-30" transform="translate(147.412109 0)"/>
       <use xlink:href="#DejaVuSans-30" transform="translate(211.035156 0)"/>
       <use xlink:href="#DejaVuSans-30" transform="translate(274.658203 0)"/>
      </g>
     </g>
    </g>
    <g id="xtick_3">
     <g id="line2d_3">
      <g>
       <use xlink:href="#m97505b338e" x="401.939998" y="285.988477" style="stroke: #000000; stroke-width: 0.8"/>
      </g>
     </g>
     <g id="text_3">
      <!-- −4000 -->
      <g transform="translate(385.025154 300.586915) scale(0.1 -0.1)">
       <defs>
        <path id="DejaVuSans-34" d="M 2419 4116 
L 825 1625 
L 2419 1625 
L 2419 4116 
z
M 2253 4666 
L 3047 4666 
L 3047 1625 
L 3713 1625 
L 3713 1100 
L 3047 1100 
L 3047 0 
L 2419 0 
L 2419 1100 
L 313 1100 
L 313 1709 
L 2253 4666 
z
" transform="scale(0.015625)"/>
       </defs>
       <use xlink:href="#DejaVuSans-2212"/>
       <use xlink:href="#DejaVuSans-34" transform="translate(83.789062 0)"/>
       <use xlink:href="#DejaVuSans-30" transform="translate(147.412109 0)"/>
       <use xlink:href="#DejaVuSans-30" transform="translate(211.035156 0)"/>
       <use xlink:href="#DejaVuSans-30" transform="translate(274.658203 0)"/>
      </g>
     </g>
    </g>
    <g id="xtick_4">
     <g id="line2d_4">
      <g>
       <use xlink:href="#m97505b338e" x="548.414652" y="285.988477" style="stroke: #000000; stroke-width: 0.8"/>
      </g>
     </g>
     <g id="text_4">
      <!-- −2000 -->
      <g transform="translate(531.499808 300.586915) scale(0.1 -0.1)">
       <defs>
        <path id="DejaVuSans-32" d="M 1228 531 
L 3431 531 
L 3431 0 
L 469 0 
L 469 531 
Q 828 903 1448 1529 
Q 2069 2156 2228 2338 
Q 2531 2678 2651 2914 
Q 2772 3150 2772 3378 
Q 2772 3750 2511 3984 
Q 2250 4219 1831 4219 
Q 1534 4219 1204 4116 
Q 875 4013 500 3803 
L 500 4441 
Q 881 4594 1212 4672 
Q 1544 4750 1819 4750 
Q 2544 4750 2975 4387 
Q 3406 4025 3406 3419 
Q 3406 3131 3298 2873 
Q 3191 2616 2906 2266 
Q 2828 2175 2409 1742 
Q 1991 1309 1228 531 
z
" transform="scale(0.015625)"/>
       </defs>
       <use xlink:href="#DejaVuSans-2212"/>
       <use xlink:href="#DejaVuSans-32" transform="translate(83.789062 0)"/>
       <use xlink:href="#DejaVuSans-30" transform="translate(147.412109 0)"/>
       <use xlink:href="#DejaVuSans-30" transform="translate(211.035156 0)"/>
       <use xlink:href="#DejaVuSans-30" transform="translate(274.658203 0)"/>
      </g>
     </g>
    </g>
    <g id="xtick_5">
     <g id="line2d_5">
      <g>
       <use xlink:href="#m97505b338e" x="694.889306" y="285.988477" style="stroke: #000000; stroke-width: 0.8"/>
      </g>
     </g>
     <g id="text_5">
      <!-- 0 -->
      <g transform="translate(691.708056 300.586915) scale(0.1 -0.1)">
       <use xlink:href="#DejaVuSans-30"/>
      </g>
     </g>
    </g>
   </g>
   <g id="matplotlib.axis_2">
    <g id="ytick_1">
     <g id="line2d_6">
      <defs>
       <path id="m4abbdc96a1" d="M 0 0 
L -3.5 0 
" style="stroke: #000000; stroke-width: 0.8"/>
      </defs>
      <g>
       <use xlink:href="#m4abbdc96a1" x="49.190625" y="261.403223" style="stroke: #000000; stroke-width: 0.8"/>
      </g>
     </g>
     <g id="text_6">
      <!-- 0.0025 -->
      <g transform="translate(7.2 265.202442) scale(0.1 -0.1)">
       <defs>
        <path id="DejaVuSans-2e" d="M 684 794 
L 1344 794 
L 1344 0 
L 684 0 
L 684 794 
z
" transform="scale(0.015625)"/>
        <path id="DejaVuSans-35" d="M 691 4666 
L 3169 4666 
L 3169 4134 
L 1269 4134 
L 1269 2991 
Q 1406 3038 1543 3061 
Q 1681 3084 1819 3084 
Q 2600 3084 3056 2656 
Q 3513 2228 3513 1497 
Q 3513 744 3044 326 
Q 2575 -91 1722 -91 
Q 1428 -91 1123 -41 
Q 819 9 494 109 
L 494 744 
Q 775 591 1075 516 
Q 1375 441 1709 441 
Q 2250 441 2565 725 
Q 2881 1009 2881 1497 
Q 2881 1984 2565 2268 
Q 2250 2553 1709 2553 
Q 1456 2553 1204 2497 
Q 953 2441 691 2322 
L 691 4666 
z
" transform="scale(0.015625)"/>
       </defs>
       <use xlink:href="#DejaVuSans-30"/>
       <use xlink:href="#DejaVuSans-2e" transform="translate(63.623047 0)"/>
       <use xlink:href="#DejaVuSans-30" transform="translate(95.410156 0)"/>
       <use xlink:href="#DejaVuSans-30" transform="translate(159.033203 0)"/>
       <use xlink:href="#DejaVuSans-32" transform="translate(222.65625 0)"/>
       <use xlink:href="#DejaVuSans-35" transform="translate(286.279297 0)"/>
      </g>
     </g>
    </g>
    <g id="ytick_2">
     <g id="line2d_7">
      <g>
       <use xlink:href="#m4abbdc96a1" x="49.190625" y="230.102723" style="stroke: #000000; stroke-width: 0.8"/>
      </g>
     </g>
     <g id="text_7">
      <!-- 0.0050 -->
      <g transform="translate(7.2 233.901941) scale(0.1 -0.1)">
       <use xlink:href="#DejaVuSans-30"/>
       <use xlink:href="#DejaVuSans-2e" transform="translate(63.623047 0)"/>
       <use xlink:href="#DejaVuSans-30" transform="translate(95.410156 0)"/>
       <use xlink:href="#DejaVuSans-30" transform="translate(159.033203 0)"/>
       <use xlink:href="#DejaVuSans-35" transform="translate(222.65625 0)"/>
       <use xlink:href="#DejaVuSans-30" transform="translate(286.279297 0)"/>
      </g>
     </g>
    </g>
    <g id="ytick_3">
     <g id="line2d_8">
      <g>
       <use xlink:href="#m4abbdc96a1" x="49.190625" y="198.802222" style="stroke: #000000; stroke-width: 0.8"/>
      </g>
     </g>
     <g id="text_8">
      <!-- 0.0075 -->
      <g transform="translate(7.2 202.601441) scale(0.1 -0.1)">
       <defs>
        <path id="DejaVuSans-37" d="M 525 4666 
L 3525 4666 
L 3525 4397 
L 1831 0 
L 1172 0 
L 2766 4134 
L 525 4134 
L 525 4666 
z
" transform="scale(0.015625)"/>
       </defs>
       <use xlink:href="#DejaVuSans-30"/>
       <use xlink:href="#DejaVuSans-2e" transform="translate(63.623047 0)"/>
       <use xlink:href="#DejaVuSans-30" transform="translate(95.410156 0)"/>
       <use xlink:href="#DejaVuSans-30" transform="translate(159.033203 0)"/>
       <use xlink:href="#DejaVuSans-37" transform="translate(222.65625 0)"/>
       <use xlink:href="#DejaVuSans-35" transform="translate(286.279297 0)"/>
      </g>
     </g>
    </g>
    <g id="ytick_4">
     <g id="line2d_9">
      <g>
       <use xlink:href="#m4abbdc96a1" x="49.190625" y="167.501721" style="stroke: #000000; stroke-width: 0.8"/>
      </g>
     </g>
     <g id="text_9">
      <!-- 0.0100 -->
      <g transform="translate(7.2 171.30094) scale(0.1 -0.1)">
       <defs>
        <path id="DejaVuSans-31" d="M 794 531 
L 1825 531 
L 1825 4091 
L 703 3866 
L 703 4441 
L 1819 4666 
L 2450 4666 
L 2450 531 
L 3481 531 
L 3481 0 
L 794 0 
L 794 531 
z
" transform="scale(0.015625)"/>
       </defs>
       <use xlink:href="#DejaVuSans-30"/>
       <use xlink:href="#DejaVuSans-2e" transform="translate(63.623047 0)"/>
       <use xlink:href="#DejaVuSans-30" transform="translate(95.410156 0)"/>
       <use xlink:href="#DejaVuSans-31" transform="translate(159.033203 0)"/>
       <use xlink:href="#DejaVuSans-30" transform="translate(222.65625 0)"/>
       <use xlink:href="#DejaVuSans-30" transform="translate(286.279297 0)"/>
      </g>
     </g>
    </g>
    <g id="ytick_5">
     <g id="line2d_10">
      <g>
       <use xlink:href="#m4abbdc96a1" x="49.190625" y="136.201221" style="stroke: #000000; stroke-width: 0.8"/>
      </g>
     </g>
     <g id="text_10">
      <!-- 0.0125 -->
      <g transform="translate(7.2 140.00044) scale(0.1 -0.1)">
       <use xlink:href="#DejaVuSans-30"/>
       <use xlink:href="#DejaVuSans-2e" transform="translate(63.623047 0)"/>
       <use xlink:href="#DejaVuSans-30" transform="translate(95.410156 0)"/>
       <use xlink:href="#DejaVuSans-31" transform="translate(159.033203 0)"/>
       <use xlink:href="#DejaVuSans-32" transform="translate(222.65625 0)"/>
       <use xlink:href="#DejaVuSans-35" transform="translate(286.279297 0)"/>
      </g>
     </g>
    </g>
    <g id="ytick_6">
     <g id="line2d_11">
      <g>
       <use xlink:href="#m4abbdc96a1" x="49.190625" y="104.90072" style="stroke: #000000; stroke-width: 0.8"/>
      </g>
     </g>
     <g id="text_11">
      <!-- 0.0150 -->
      <g transform="translate(7.2 108.699939) scale(0.1 -0.1)">
       <use xlink:href="#DejaVuSans-30"/>
       <use xlink:href="#DejaVuSans-2e" transform="translate(63.623047 0)"/>
       <use xlink:href="#DejaVuSans-30" transform="translate(95.410156 0)"/>
       <use xlink:href="#DejaVuSans-31" transform="translate(159.033203 0)"/>
       <use xlink:href="#DejaVuSans-35" transform="translate(222.65625 0)"/>
       <use xlink:href="#DejaVuSans-30" transform="translate(286.279297 0)"/>
      </g>
     </g>
    </g>
    <g id="ytick_7">
     <g id="line2d_12">
      <g>
       <use xlink:href="#m4abbdc96a1" x="49.190625" y="73.60022" style="stroke: #000000; stroke-width: 0.8"/>
      </g>
     </g>
     <g id="text_12">
      <!-- 0.0175 -->
      <g transform="translate(7.2 77.399439) scale(0.1 -0.1)">
       <use xlink:href="#DejaVuSans-30"/>
       <use xlink:href="#DejaVuSans-2e" transform="translate(63.623047 0)"/>
       <use xlink:href="#DejaVuSans-30" transform="translate(95.410156 0)"/>
       <use xlink:href="#DejaVuSans-31" transform="translate(159.033203 0)"/>
       <use xlink:href="#DejaVuSans-37" transform="translate(222.65625 0)"/>
       <use xlink:href="#DejaVuSans-35" transform="translate(286.279297 0)"/>
      </g>
     </g>
    </g>
    <g id="ytick_8">
     <g id="line2d_13">
      <g>
       <use xlink:href="#m4abbdc96a1" x="49.190625" y="42.299719" style="stroke: #000000; stroke-width: 0.8"/>
      </g>
     </g>
     <g id="text_13">
      <!-- 0.0200 -->
      <g transform="translate(7.2 46.098938) scale(0.1 -0.1)">
       <use xlink:href="#DejaVuSans-30"/>
       <use xlink:href="#DejaVuSans-2e" transform="translate(63.623047 0)"/>
       <use xlink:href="#DejaVuSans-30" transform="translate(95.410156 0)"/>
       <use xlink:href="#DejaVuSans-32" transform="translate(159.033203 0)"/>
       <use xlink:href="#DejaVuSans-30" transform="translate(222.65625 0)"/>
       <use xlink:href="#DejaVuSans-30" transform="translate(286.279297 0)"/>
      </g>
     </g>
    </g>
    <g id="ytick_9">
     <g id="line2d_14">
      <g>
       <use xlink:href="#m4abbdc96a1" x="49.190625" y="10.999219" style="stroke: #000000; stroke-width: 0.8"/>
      </g>
     </g>
     <g id="text_14">
      <!-- 0.0225 -->
      <g transform="translate(7.2 14.798438) scale(0.1 -0.1)">
       <use xlink:href="#DejaVuSans-30"/>
       <use xlink:href="#DejaVuSans-2e" transform="translate(63.623047 0)"/>
       <use xlink:href="#DejaVuSans-30" transform="translate(95.410156 0)"/>
       <use xlink:href="#DejaVuSans-32" transform="translate(159.033203 0)"/>
       <use xlink:href="#DejaVuSans-32" transform="translate(222.65625 0)"/>
       <use xlink:href="#DejaVuSans-35" transform="translate(286.279297 0)"/>
      </g>
     </g>
    </g>
   </g>
   <g id="line2d_15">
    <path d="M 79.626989 207.070218 
L 79.869027 206.026442 
L 80.474124 203.331775 
L 80.958201 202.156191 
L 81.321259 201.882036 
L 81.563298 201.991894 
L 81.926356 202.589254 
L 82.289414 203.686585 
L 82.773491 205.867572 
L 83.499607 210.437233 
L 84.588782 219.183554 
L 86.525091 234.93194 
L 87.493246 240.931044 
L 88.4614 245.587384 
L 92.455039 262.407269 
L 93.302174 265.07166 
L 93.907271 266.402371 
L 94.391348 267.058278 
L 94.754406 267.290516 
L 95.117464 267.292793 
L 95.480522 267.068657 
L 95.964599 266.449498 
L 96.690715 265.039618 
L 97.65887 263.194263 
L 98.021928 262.828113 
L 98.384986 262.756058 
L 98.748044 263.00949 
L 99.111102 263.579449 
L 99.716199 265.0956 
L 101.894547 271.376713 
L 102.499644 272.273623 
L 102.983721 272.601375 
L 103.346779 272.623103 
L 103.830856 272.374611 
L 104.314934 271.854298 
L 105.162069 270.534802 
L 106.130224 269.086544 
L 106.614301 268.679531 
L 106.977359 268.580106 
L 107.340417 268.662576 
L 107.824495 269.018816 
L 108.67163 270.023003 
L 109.518765 270.929842 
L 110.002843 271.190893 
L 110.48692 271.196266 
L 110.970997 270.937596 
L 111.576094 270.291935 
L 113.512403 267.814697 
L 113.875461 267.715003 
L 114.238519 267.831423 
L 114.601577 268.169011 
L 115.085655 268.925203 
L 116.05381 271.022765 
L 116.900945 272.670195 
L 117.385022 273.225634 
L 117.74808 273.387502 
L 118.111138 273.30818 
L 118.474196 272.979768 
L 118.958274 272.160391 
L 119.56337 270.576375 
L 120.410506 267.592922 
L 121.741718 262.886676 
L 122.225796 261.864608 
L 122.588854 261.509801 
L 122.830892 261.48386 
L 123.193951 261.748482 
L 123.678028 262.577377 
L 124.646183 265.01566 
L 125.372299 266.56403 
L 125.856376 267.117422 
L 126.219434 267.212257 
L 126.582492 267.016168 
L 126.94555 266.530955 
L 127.429627 265.458859 
L 128.034724 263.517006 
L 128.881859 259.951246 
L 131.907343 246.289151 
L 133.359575 240.437873 
L 134.085691 236.534172 
L 134.932826 230.662975 
L 136.14302 220.310666 
L 137.716271 207.102792 
L 138.442387 202.78043 
L 138.926465 200.908742 
L 139.289523 200.10591 
L 139.531561 199.869525 
L 139.7736 199.874939 
L 140.015639 200.120871 
L 140.378697 200.930206 
L 140.862774 202.784693 
L 141.467871 206.196168 
L 142.315006 212.493109 
L 145.340489 236.551487 
L 146.429663 242.588887 
L 148.244954 251.010421 
L 150.060244 258.738497 
L 150.907379 261.515877 
L 151.633495 263.180729 
L 152.117572 263.859734 
L 152.60165 264.175662 
L 152.964708 264.181377 
L 153.448785 263.918476 
L 154.174901 263.141317 
L 155.022037 262.257811 
L 155.506114 262.091931 
L 155.869172 262.225955 
L 156.23223 262.601518 
L 156.716307 263.44911 
L 157.563443 265.560848 
L 158.773636 268.603718 
L 159.378733 269.652567 
L 159.86281 270.165732 
L 160.346887 270.377732 
L 160.830965 270.305759 
L 161.315042 269.99256 
L 162.162178 269.08463 
L 163.130332 268.082813 
L 163.61441 267.831444 
L 164.098487 267.820866 
L 164.582564 268.040822 
L 165.30868 268.656113 
L 166.397854 269.552572 
L 166.881932 269.713273 
L 167.366009 269.660409 
L 167.850086 269.393614 
L 168.576202 268.677903 
L 169.907415 267.239059 
L 170.391493 267.016837 
L 170.754551 267.038053 
L 171.238628 267.334082 
L 171.843725 268.075708 
L 173.659015 270.632859 
L 174.143092 270.807425 
L 174.50615 270.698177 
L 174.869208 270.371291 
L 175.353285 269.6023 
L 175.958382 268.1636 
L 176.926537 265.160012 
L 177.894692 262.286562 
L 178.499788 261.150215 
L 178.862846 260.834845 
L 179.225904 260.807618 
L 179.588962 261.040504 
L 180.07304 261.651628 
L 181.404252 263.560832 
L 181.76731 263.773301 
L 182.130368 263.752897 
L 182.493426 263.476324 
L 182.977504 262.698867 
L 183.5826 261.104067 
L 184.308716 258.423877 
L 185.51891 252.84114 
L 187.576239 243.362852 
L 188.907451 237.151144 
L 189.754587 232.033285 
L 190.722741 224.610976 
L 193.506186 201.845182 
L 194.111283 199.080571 
L 194.59536 197.902287 
L 194.837399 197.680983 
L 195.079438 197.708677 
L 195.321476 197.983779 
L 195.684534 198.848366 
L 196.168612 200.792645 
L 196.773708 204.327059 
L 197.620844 210.774194 
L 200.525308 234.178951 
L 201.614482 240.586172 
L 203.187733 248.419757 
L 204.639965 254.778843 
L 205.60812 258.092422 
L 206.334236 259.837182 
L 206.939333 260.735926 
L 207.42341 261.095545 
L 207.907487 261.17818 
L 208.512584 261.016439 
L 209.480739 260.713818 
L 209.964816 260.823214 
L 210.448894 261.226867 
L 210.932971 261.935079 
L 211.659087 263.42781 
L 213.232338 266.776126 
L 213.837435 267.577151 
L 214.321512 267.931439 
L 214.80559 268.035121 
L 215.289667 267.920563 
L 216.015783 267.470949 
L 217.225977 266.678908 
L 217.831073 266.581125 
L 218.43617 266.760258 
L 219.283305 267.322974 
L 220.25146 267.921693 
L 220.856557 268.031376 
L 221.340634 267.919047 
L 221.945731 267.547133 
L 224.003059 265.959784 
L 224.487137 265.965425 
L 224.971214 266.203924 
L 225.69733 266.898636 
L 226.907524 268.117104 
L 227.391601 268.300146 
L 227.754659 268.245066 
L 228.117717 268.005731 
L 228.601794 267.394443 
L 229.206891 266.200312 
L 230.175046 263.635729 
L 231.26422 260.856817 
L 231.869316 259.897175 
L 232.353394 259.561126 
L 232.716452 259.548828 
L 233.200529 259.772599 
L 234.531742 260.560133 
L 234.8948 260.503842 
L 235.257858 260.239592 
L 235.741935 259.52702 
L 236.226013 258.394443 
L 236.831109 256.433399 
L 237.678245 252.893703 
L 239.856593 242.327127 
L 241.429844 234.278969 
L 242.397999 227.973012 
L 243.487173 219.103948 
L 245.544502 201.698556 
L 246.270618 197.620392 
L 246.754695 196.001306 
L 247.117753 195.434914 
L 247.359792 195.376168 
L 247.60183 195.572728 
L 247.964889 196.336275 
L 248.448966 198.179313 
L 249.054063 201.639495 
L 249.901198 208.062616 
L 252.926681 232.64092 
L 254.136875 239.922164 
L 255.589107 247.333269 
L 256.7993 252.486453 
L 257.646436 255.244408 
L 258.372552 256.907863 
L 258.977648 257.787615 
L 259.582745 258.272842 
L 260.308861 258.537369 
L 261.155996 258.855854 
L 261.761093 259.365457 
L 262.36619 260.207461 
L 263.334345 262.064226 
L 264.544538 264.336834 
L 265.270654 265.21936 
L 265.875751 265.584366 
L 266.480847 265.641465 
L 267.206963 265.43388 
L 268.417157 265.029021 
L 269.022253 265.048244 
L 269.748369 265.320829 
L 271.44264 266.11948 
L 272.047737 266.105693 
L 272.652834 265.865712 
L 273.620988 265.176569 
L 274.589143 264.569168 
L 275.19424 264.464054 
L 275.799336 264.630114 
L 276.646472 265.174082 
L 277.493607 265.664169 
L 277.977684 265.722587 
L 278.461762 265.530561 
L 278.945839 265.055531 
L 279.550936 264.075021 
L 280.398071 262.166255 
L 281.729284 259.082065 
L 282.334381 258.162078 
L 282.818458 257.747136 
L 283.302535 257.578218 
L 284.875787 257.301319 
L 285.359864 256.803417 
L 285.843941 255.949369 
L 286.449038 254.346477 
L 287.175154 251.699071 
L 288.264328 246.679593 
L 290.442676 235.307631 
L 291.53185 228.682965 
L 292.500005 221.442755 
L 294.194276 206.494421 
L 295.162431 198.884055 
L 295.767527 195.439656 
L 296.251605 193.688055 
L 296.614663 193.032378 
L 296.856701 192.921537 
L 297.09874 193.073068 
L 297.461798 193.783488 
L 297.824856 195.046722 
L 298.308933 197.50739 
L 299.035049 202.537002 
L 300.245243 212.876407 
L 301.939513 226.967615 
L 303.149707 235.127793 
L 304.48092 242.579361 
L 305.691113 248.167027 
L 306.659268 251.597571 
L 307.385384 253.452458 
L 308.1115 254.71525 
L 308.837616 255.538426 
L 310.410867 257.105039 
L 311.258003 258.418493 
L 313.436351 262.161499 
L 314.041447 262.754662 
L 314.646544 263.067089 
L 315.37266 263.148878 
L 317.308969 263.131694 
L 318.156105 263.45297 
L 319.487318 263.980233 
L 320.092414 264.002597 
L 320.81853 263.77922 
L 322.028724 263.05913 
L 322.875859 262.685096 
L 323.480956 262.635584 
L 324.207072 262.802718 
L 325.417265 263.107584 
L 325.901343 263.006918 
L 326.38542 262.685617 
L 326.990517 261.942586 
L 327.716633 260.606457 
L 330.016 255.969196 
L 330.742116 255.209588 
L 332.315367 253.893435 
L 332.920464 252.884377 
L 333.525561 251.360818 
L 334.251677 248.824932 
L 335.219832 244.450842 
L 336.793083 236.013899 
L 338.245315 227.091264 
L 339.334489 218.882877 
L 341.149779 202.79574 
L 342.117934 195.38112 
L 342.723031 192.174316 
L 343.207108 190.672512 
L 343.570166 190.23246 
L 343.812205 190.275224 
L 344.054243 190.585459 
L 344.417301 191.537593 
L 344.901379 193.651126 
L 345.506475 197.443804 
L 346.47463 205.295433 
L 349.016036 226.742475 
L 350.22623 234.771233 
L 351.436423 241.418349 
L 352.525597 246.191882 
L 353.372732 248.998814 
L 354.219868 251.024942 
L 355.067003 252.470037 
L 357.245351 255.862061 
L 359.060641 258.99802 
L 359.786757 259.830946 
L 360.512873 260.31899 
L 361.360009 260.561787 
L 363.175299 260.938521 
L 365.232628 261.593898 
L 365.958744 261.502741 
L 366.805879 261.140187 
L 368.37913 260.419256 
L 369.226266 260.329104 
L 370.557478 260.272246 
L 371.162575 259.979702 
L 371.767672 259.382678 
L 372.493788 258.248893 
L 373.582962 255.989121 
L 374.793155 253.572157 
L 375.76131 252.144156 
L 376.971503 250.414423 
L 377.5766 249.150719 
L 378.302716 247.023914 
L 379.028832 244.179942 
L 379.996987 239.444349 
L 381.3282 231.778694 
L 382.659412 222.884484 
L 383.869606 213.111471 
L 386.289992 192.491911 
L 386.895089 189.235188 
L 387.379166 187.713107 
L 387.742224 187.273665 
L 387.984263 187.325024 
L 388.226302 187.650304 
L 388.58936 188.63607 
L 389.073437 190.810805 
L 389.678534 194.694125 
L 390.646689 202.685635 
L 393.067075 223.526824 
L 394.277269 231.851739 
L 395.487462 238.623054 
L 396.455617 242.895397 
L 397.302752 245.77656 
L 398.149888 247.96387 
L 399.360081 250.398635 
L 402.385564 255.898974 
L 403.2327 256.870143 
L 403.958816 257.389292 
L 405.04799 257.842754 
L 408.194493 258.826989 
L 408.920609 258.712834 
L 409.888763 258.305306 
L 411.462015 257.640437 
L 413.277305 257.038255 
L 413.882402 256.5338 
L 414.487498 255.752897 
L 415.334634 254.225448 
L 419.570311 245.328463 
L 420.296427 242.976604 
L 421.143562 239.375076 
L 422.111717 234.242868 
L 423.442929 225.867703 
L 424.653123 216.926304 
L 425.984335 205.32624 
L 427.678606 190.629124 
L 428.404722 186.296316 
L 428.8888 184.583645 
L 429.251858 184.008352 
L 429.493896 183.976274 
L 429.735935 184.225682 
L 430.098993 185.114499 
L 430.58307 187.194979 
L 431.188167 191.017255 
L 432.156322 199.024695 
L 434.818747 222.124081 
L 436.028941 230.325434 
L 437.118115 236.250794 
L 438.086269 240.368854 
L 439.054424 243.528482 
L 440.143598 246.320999 
L 441.958888 250.276979 
L 443.048062 252.209919 
L 443.895198 253.301234 
L 444.742333 254.038635 
L 445.952526 254.737636 
L 447.646797 255.46104 
L 448.493932 255.587283 
L 449.220048 255.483154 
L 450.188203 255.095697 
L 453.092667 253.581439 
L 453.818783 252.864719 
L 454.544899 251.795799 
L 455.392035 250.130323 
L 457.449363 245.371299 
L 458.659557 242.295791 
L 459.506692 239.510617 
L 460.353828 235.88285 
L 461.321982 230.655087 
L 462.532176 222.752439 
L 463.863388 212.447846 
L 465.43664 198.179586 
L 466.767853 186.737033 
L 467.493969 182.410468 
L 467.978046 180.737372 
L 468.341104 180.212006 
L 468.583143 180.222393 
L 468.825181 180.520827 
L 469.188239 181.493069 
L 469.672317 183.696164 
L 470.277413 187.673983 
L 471.245568 195.893646 
L 473.786974 218.385067 
L 474.997168 226.788717 
L 476.086342 232.79891 
L 477.054496 236.987696 
L 478.14367 240.676163 
L 479.353864 243.992637 
L 480.564057 246.754772 
L 481.532212 248.476858 
L 482.379347 249.576266 
L 483.347502 250.454083 
L 484.557695 251.218633 
L 485.52585 251.617356 
L 486.372985 251.727617 
L 487.099101 251.607085 
L 488.067256 251.195394 
L 489.640508 250.238178 
L 490.608662 249.415283 
L 491.334778 248.508548 
L 492.060894 247.266718 
L 493.029049 245.127085 
L 494.481281 241.310419 
L 495.691474 237.620445 
L 496.53861 234.385701 
L 497.385745 230.318789 
L 498.3539 224.566076 
L 499.564093 215.88179 
L 500.895306 204.586441 
L 503.557731 180.920333 
L 504.162828 177.622435 
L 504.646905 176.152007 
L 504.888944 175.848086 
L 505.130983 175.840428 
L 505.373022 176.128385 
L 505.73608 177.099263 
L 506.220157 179.325621 
L 506.825254 183.365149 
L 507.793408 191.72841 
L 510.334814 214.633841 
L 511.423988 222.373445 
L 512.513163 228.57273 
L 513.602337 233.415165 
L 514.691511 237.246905 
L 515.901704 240.667522 
L 516.869859 242.822588 
L 517.838013 244.441516 
L 518.806168 245.594524 
L 519.774323 246.410003 
L 520.742478 246.939407 
L 521.468594 247.110142 
L 522.19471 247.056505 
L 523.041845 246.730079 
L 524.01 246.098989 
L 524.978154 245.235986 
L 525.82529 244.194385 
L 526.672425 242.749886 
L 527.51956 240.845095 
L 528.608735 237.818287 
L 529.818928 233.819122 
L 530.787083 229.919613 
L 531.755237 225.020931 
L 532.723392 218.925826 
L 533.812566 210.652657 
L 535.143779 198.706455 
L 537.443146 177.343853 
L 538.048243 173.480809 
L 538.53232 171.506366 
L 538.895378 170.780054 
L 539.137417 170.675029 
L 539.379456 170.8762 
L 539.742514 171.738887 
L 540.226591 173.846941 
L 540.831688 177.778031 
L 541.678823 184.929899 
L 544.946345 214.158058 
L 546.035519 221.271571 
L 547.003674 226.290247 
L 547.971829 230.290107 
L 549.061003 233.857457 
L 550.150177 236.680096 
L 551.118331 238.585164 
L 551.965467 239.804419 
L 552.812602 240.675727 
L 553.659738 241.223282 
L 554.385854 241.419361 
L 555.11197 241.351365 
L 555.838086 241.033954 
L 556.685221 240.388309 
L 557.532356 239.455684 
L 558.379492 238.167142 
L 559.226627 236.416165 
L 560.073763 234.148025 
L 561.162937 230.525994 
L 562.252111 226.121391 
L 563.220265 221.289263 
L 564.18842 215.288878 
L 565.277594 207.023042 
L 566.608807 194.970209 
L 569.271232 169.930773 
L 569.876329 166.390662 
L 570.360406 164.775903 
L 570.602445 164.421523 
L 570.844484 164.379541 
L 571.086522 164.649852 
L 571.44958 165.626255 
L 571.933658 167.916241 
L 572.538754 172.107011 
L 573.506909 180.804278 
L 576.048315 204.546119 
L 577.137489 212.495232 
L 578.226663 218.859412 
L 579.315837 223.85408 
L 580.283992 227.316248 
L 581.252147 229.961613 
L 582.099282 231.676654 
L 582.946418 232.903997 
L 583.672534 233.608903 
L 584.39865 234.000572 
L 585.003746 234.082188 
L 585.608843 233.941998 
L 586.21394 233.587844 
L 586.940056 232.892322 
L 587.666172 231.896957 
L 588.513307 230.30386 
L 589.360442 228.160663 
L 590.207578 225.41194 
L 591.175733 221.509252 
L 592.143887 216.716673 
L 593.112042 210.826719 
L 594.201216 202.642969 
L 595.411409 191.645562 
L 598.678932 160.430084 
L 599.163009 157.918786 
L 599.526067 156.802144 
L 599.768106 156.451804 
L 600.010144 156.424718 
L 600.252183 156.720208 
L 600.615241 157.750578 
L 601.099318 160.134731 
L 601.704415 164.462834 
L 602.67257 173.380044 
L 605.092956 196.491351 
L 606.182131 204.682568 
L 607.271305 211.203159 
L 608.239459 215.723291 
L 609.207614 219.172716 
L 610.054749 221.40669 
L 610.780865 222.799789 
L 611.506981 223.748642 
L 612.112078 224.211761 
L 612.717175 224.379574 
L 613.201252 224.302581 
L 613.806349 223.946409 
L 614.411446 223.305859 
L 615.137562 222.157092 
L 615.863678 220.564248 
L 616.710813 218.078457 
L 617.557948 214.848989 
L 618.526103 210.180759 
L 619.494258 204.360422 
L 620.462412 197.214283 
L 621.551587 187.476053 
L 623.003819 172.212056 
L 624.698089 154.578129 
L 625.424205 149.128906 
L 625.908283 146.820199 
L 626.271341 145.913379 
L 626.513379 145.724366 
L 626.755418 145.871062 
L 626.997457 146.348364 
L 627.360515 147.656545 
L 627.844592 150.39785 
L 628.570708 156.18499 
L 629.901921 169.395539 
L 631.475172 184.519209 
L 632.564346 193.041435 
L 633.532501 199.052114 
L 634.500656 203.673735 
L 635.347791 206.669147 
L 636.073907 208.524606 
L 636.800023 209.767128 
L 637.40512 210.35251 
L 637.889197 210.531611 
L 638.373275 210.454032 
L 638.857352 210.125243 
L 639.341429 209.545904 
L 639.946526 208.423266 
L 640.672642 206.488003 
L 641.398758 203.901414 
L 642.245893 199.997259 
L 643.093029 195.065999 
L 644.061183 188.069832 
L 645.150358 178.340409 
L 646.360551 165.382557 
L 648.901957 137.36209 
L 649.507054 133.026049 
L 649.991131 130.900996 
L 650.354189 130.193417 
L 650.596228 130.157961 
L 650.838266 130.46845 
L 651.201324 131.562526 
L 651.685402 134.079904 
L 652.290498 138.537269 
L 653.258653 147.637137 
L 655.437001 168.603756 
L 656.526175 176.691763 
L 657.373311 181.433378 
L 658.099427 184.467483 
L 658.825543 186.592336 
L 659.430639 187.694107 
L 659.914717 188.147919 
L 660.277775 188.242013 
L 660.640833 188.124893 
L 661.003891 187.787089 
L 661.487968 186.982767 
L 662.093065 185.443945 
L 662.698162 183.294036 
L 663.424278 179.873206 
L 664.271413 174.6591 
L 665.118548 168.014502 
L 666.086703 158.623768 
L 667.296896 144.432742 
L 670.080341 110.141914 
L 670.685438 105.484288 
L 671.169515 103.21223 
L 671.532573 102.41614 
L 671.774612 102.331254 
L 672.016651 102.593119 
L 672.379709 103.598474 
L 672.863786 105.948856 
L 673.468883 110.144679 
L 674.679076 120.568917 
L 675.889269 130.389287 
L 676.857424 136.60857 
L 677.462521 139.316847 
L 677.946598 140.754852 
L 678.430676 141.539045 
L 678.793734 141.769157 
L 679.035772 141.713907 
L 679.39883 141.308945 
L 679.761888 140.514913 
L 680.245966 138.845857 
L 680.851062 135.730685 
L 681.577178 130.666015 
L 682.424314 123.033431 
L 683.15043 113.648892 
L 684.118585 99.215563 
L 685.570817 72.156825 
L 687.386107 36.948314 
L 688.354261 21.388477 
L 688.354261 21.388477 
" clip-path="url(#p953ebdfeb5)" style="fill: none; stroke: #1f77b4; stroke-width: 1.5; stroke-linecap: square"/>
   </g>
   <g id="line2d_16">
    <path d="M 49.190625 21.538166 
L 718.790625 21.538166 
" clip-path="url(#p953ebdfeb5)" style="fill: none; stroke-dasharray: 2.22,0.96; stroke-dashoffset: 0; stroke: #ff0000; stroke-width: 0.6"/>
   </g>
   <g id="line2d_17">
    <path d="M 79.626989 207.070218 
L 79.869027 206.026442 
L 80.474124 203.331775 
L 80.958201 202.156191 
L 81.321259 201.882036 
L 81.563298 201.991894 
L 81.926356 202.589254 
L 82.289414 203.686585 
L 82.773491 205.867572 
L 83.499607 210.437233 
L 84.588782 219.183554 
L 86.525091 234.93194 
L 87.493246 240.931044 
L 88.4614 245.587384 
L 92.455039 262.407269 
L 93.302174 265.07166 
L 93.907271 266.402371 
L 94.391348 267.058278 
L 94.754406 267.290516 
L 95.117464 267.292793 
L 95.480522 267.068657 
L 95.964599 266.449498 
L 96.690715 265.039618 
L 97.65887 263.194263 
L 98.021928 262.828113 
L 98.384986 262.756058 
L 98.748044 263.00949 
L 99.111102 263.579449 
L 99.716199 265.0956 
L 101.894547 271.376713 
L 102.499644 272.273623 
L 102.983721 272.601375 
L 103.346779 272.623103 
L 103.830856 272.374611 
L 104.314934 271.854298 
L 105.162069 270.534802 
L 106.130224 269.086544 
L 106.614301 268.679531 
L 106.977359 268.580106 
L 107.340417 268.662576 
L 107.824495 269.018816 
L 108.67163 270.023003 
L 109.518765 270.929842 
L 110.002843 271.190893 
L 110.48692 271.196266 
L 110.970997 270.937596 
L 111.576094 270.291935 
L 113.512403 267.814697 
L 113.875461 267.715003 
L 114.238519 267.831423 
L 114.601577 268.169011 
L 115.085655 268.925203 
L 116.05381 271.022765 
L 116.900945 272.670195 
L 117.385022 273.225634 
L 117.74808 273.387502 
L 118.111138 273.30818 
L 118.474196 272.979768 
L 118.958274 272.160391 
L 119.56337 270.576375 
L 120.410506 267.592922 
L 121.741718 262.886676 
L 122.225796 261.864608 
L 122.588854 261.509801 
L 122.830892 261.48386 
L 123.193951 261.748482 
L 123.678028 262.577377 
L 124.646183 265.01566 
L 125.372299 266.56403 
L 125.856376 267.117422 
L 126.219434 267.212257 
L 126.582492 267.016168 
L 126.94555 266.530955 
L 127.429627 265.458859 
L 128.034724 263.517006 
L 128.881859 259.951246 
L 131.907343 246.289151 
L 133.359575 240.437873 
L 134.085691 236.534172 
L 134.932826 230.662975 
L 136.14302 220.310666 
L 137.716271 207.102792 
L 138.442387 202.78043 
L 138.926465 200.908742 
L 139.289523 200.10591 
L 139.531561 199.869525 
L 139.7736 199.874939 
L 140.015639 200.120871 
L 140.378697 200.930206 
L 140.862774 202.784693 
L 141.467871 206.196168 
L 142.315006 212.493109 
L 145.340489 236.551487 
L 146.429663 242.588887 
L 148.244954 251.010421 
L 150.060244 258.738497 
L 150.907379 261.515877 
L 151.633495 263.180729 
L 152.117572 263.859734 
L 152.60165 264.175662 
L 152.964708 264.181377 
L 153.448785 263.918476 
L 154.174901 263.141317 
L 155.022037 262.257811 
L 155.506114 262.091931 
L 155.869172 262.225955 
L 156.23223 262.601518 
L 156.716307 263.44911 
L 157.563443 265.560848 
L 158.773636 268.603718 
L 159.378733 269.652567 
L 159.86281 270.165732 
L 160.346887 270.377732 
L 160.830965 270.305759 
L 161.315042 269.99256 
L 162.162178 269.08463 
L 163.130332 268.082813 
L 163.61441 267.831444 
L 164.098487 267.820866 
L 164.582564 268.040822 
L 165.30868 268.656113 
L 166.397854 269.552572 
L 166.881932 269.713273 
L 167.366009 269.660409 
L 167.850086 269.393614 
L 168.576202 268.677903 
L 169.907415 267.239059 
L 170.391493 267.016837 
L 170.754551 267.038053 
L 171.238628 267.334082 
L 171.843725 268.075708 
L 173.659015 270.632859 
L 174.143092 270.807425 
L 174.50615 270.698177 
L 174.869208 270.371291 
L 175.353285 269.6023 
L 175.958382 268.1636 
L 176.926537 265.160012 
L 177.894692 262.286562 
L 178.499788 261.150215 
L 178.862846 260.834845 
L 179.225904 260.807618 
L 179.588962 261.040504 
L 180.07304 261.651628 
L 181.404252 263.560832 
L 181.76731 263.773301 
L 182.130368 263.752897 
L 182.493426 263.476324 
L 182.977504 262.698867 
L 183.5826 261.104067 
L 184.308716 258.423877 
L 185.51891 252.84114 
L 187.576239 243.362852 
L 188.907451 237.151144 
L 189.754587 232.033285 
L 190.722741 224.610976 
L 193.506186 201.845182 
L 194.111283 199.080571 
L 194.59536 197.902287 
L 194.837399 197.680983 
L 195.079438 197.708677 
L 195.321476 197.983779 
L 195.684534 198.848366 
L 196.168612 200.792645 
L 196.773708 204.327059 
L 197.620844 210.774194 
L 200.525308 234.178951 
L 201.614482 240.586172 
L 203.187733 248.419757 
L 204.639965 254.778843 
L 205.60812 258.092422 
L 206.334236 259.837182 
L 206.939333 260.735926 
L 207.42341 261.095545 
L 207.907487 261.17818 
L 208.512584 261.016439 
L 209.480739 260.713818 
L 209.964816 260.823214 
L 210.448894 261.226867 
L 210.932971 261.935079 
L 211.659087 263.42781 
L 213.232338 266.776126 
L 213.837435 267.577151 
L 214.321512 267.931439 
L 214.80559 268.035121 
L 215.289667 267.920563 
L 216.015783 267.470949 
L 217.225977 266.678908 
L 217.831073 266.581125 
L 218.43617 266.760258 
L 219.283305 267.322974 
L 220.25146 267.921693 
L 220.856557 268.031376 
L 221.340634 267.919047 
L 221.945731 267.547133 
L 224.003059 265.959784 
L 224.487137 265.965425 
L 224.971214 266.203924 
L 225.69733 266.898636 
L 226.907524 268.117104 
L 227.391601 268.300146 
L 227.754659 268.245066 
L 228.117717 268.005731 
L 228.601794 267.394443 
L 229.206891 266.200312 
L 230.175046 263.635729 
L 231.26422 260.856817 
L 231.869316 259.897175 
L 232.353394 259.561126 
L 232.716452 259.548828 
L 233.200529 259.772599 
L 234.531742 260.560133 
L 234.8948 260.503842 
L 235.257858 260.239592 
L 235.741935 259.52702 
L 236.226013 258.394443 
L 236.831109 256.433399 
L 237.678245 252.893703 
L 239.856593 242.327127 
L 241.429844 234.278969 
L 242.397999 227.973012 
L 243.487173 219.103948 
L 245.544502 201.698556 
L 246.270618 197.620392 
L 246.754695 196.001306 
L 247.117753 195.434914 
L 247.359792 195.376168 
L 247.60183 195.572728 
L 247.964889 196.336275 
L 248.448966 198.179313 
L 249.054063 201.639495 
L 249.901198 208.062616 
L 252.926681 232.64092 
L 254.136875 239.922164 
L 255.589107 247.333269 
L 256.7993 252.486453 
L 257.646436 255.244408 
L 258.372552 256.907863 
L 258.977648 257.787615 
L 259.582745 258.272842 
L 260.308861 258.537369 
L 261.155996 258.855854 
L 261.761093 259.365457 
L 262.36619 260.207461 
L 263.334345 262.064226 
L 264.544538 264.336834 
L 265.270654 265.21936 
L 265.875751 265.584366 
L 266.480847 265.641465 
L 267.206963 265.43388 
L 268.417157 265.029021 
L 269.022253 265.048244 
L 269.748369 265.320829 
L 271.44264 266.11948 
L 272.047737 266.105693 
L 272.652834 265.865712 
L 273.620988 265.176569 
L 274.589143 264.569168 
L 275.19424 264.464054 
L 275.799336 264.630114 
L 276.646472 265.174082 
L 277.493607 265.664169 
L 277.977684 265.722587 
L 278.461762 265.530561 
L 278.945839 265.055531 
L 279.550936 264.075021 
L 280.398071 262.166255 
L 281.729284 259.082065 
L 282.334381 258.162078 
L 282.818458 257.747136 
L 283.302535 257.578218 
L 284.875787 257.301319 
L 285.359864 256.803417 
L 285.843941 255.949369 
L 286.449038 254.346477 
L 287.175154 251.699071 
L 288.264328 246.679593 
L 290.442676 235.307631 
L 291.53185 228.682965 
L 292.500005 221.442755 
L 294.194276 206.494421 
L 295.162431 198.884055 
L 295.767527 195.439656 
L 296.251605 193.688055 
L 296.614663 193.032378 
L 296.856701 192.921537 
L 297.09874 193.073068 
L 297.461798 193.783488 
L 297.824856 195.046722 
L 298.308933 197.50739 
L 299.035049 202.537002 
L 300.245243 212.876407 
L 301.939513 226.967615 
L 303.149707 235.127793 
L 304.48092 242.579361 
L 305.691113 248.167027 
L 306.659268 251.597571 
L 307.385384 253.452458 
L 308.1115 254.71525 
L 308.837616 255.538426 
L 310.410867 257.105039 
L 311.258003 258.418493 
L 313.436351 262.161499 
L 314.041447 262.754662 
L 314.646544 263.067089 
L 315.37266 263.148878 
L 317.308969 263.131694 
L 318.156105 263.45297 
L 319.487318 263.980233 
L 320.092414 264.002597 
L 320.81853 263.77922 
L 322.028724 263.05913 
L 322.875859 262.685096 
L 323.480956 262.635584 
L 324.207072 262.802718 
L 325.417265 263.107584 
L 325.901343 263.006918 
L 326.38542 262.685617 
L 326.990517 261.942586 
L 327.716633 260.606457 
L 330.016 255.969196 
L 330.742116 255.209588 
L 332.315367 253.893435 
L 332.920464 252.884377 
L 333.525561 251.360818 
L 334.251677 248.824932 
L 335.219832 244.450842 
L 336.793083 236.013899 
L 338.245315 227.091264 
L 339.334489 218.882877 
L 341.149779 202.79574 
L 342.117934 195.38112 
L 342.723031 192.174316 
L 343.207108 190.672512 
L 343.570166 190.23246 
L 343.812205 190.275224 
L 344.054243 190.585459 
L 344.417301 191.537593 
L 344.901379 193.651126 
L 345.506475 197.443804 
L 346.47463 205.295433 
L 349.016036 226.742475 
L 350.22623 234.771233 
L 351.436423 241.418349 
L 352.525597 246.191882 
L 353.372732 248.998814 
L 354.219868 251.024942 
L 355.067003 252.470037 
L 357.245351 255.862061 
L 359.060641 258.99802 
L 359.786757 259.830946 
L 360.512873 260.31899 
L 361.360009 260.561787 
L 363.175299 260.938521 
L 365.232628 261.593898 
L 365.958744 261.502741 
L 366.805879 261.140187 
L 368.37913 260.419256 
L 369.226266 260.329104 
L 370.557478 260.272246 
L 371.162575 259.979702 
L 371.767672 259.382678 
L 372.493788 258.248893 
L 373.582962 255.989121 
L 374.793155 253.572157 
L 375.76131 252.144156 
L 376.971503 250.414423 
L 377.5766 249.150719 
L 378.302716 247.023914 
L 379.028832 244.179942 
L 379.996987 239.444349 
L 381.3282 231.778694 
L 382.659412 222.884484 
L 383.869606 213.111471 
L 386.289992 192.491911 
L 386.895089 189.235188 
L 387.379166 187.713107 
L 387.742224 187.273665 
L 387.984263 187.325024 
L 388.226302 187.650304 
L 388.58936 188.63607 
L 389.073437 190.810805 
L 389.678534 194.694125 
L 390.646689 202.685635 
L 393.067075 223.526824 
L 394.277269 231.851739 
L 395.487462 238.623054 
L 396.455617 242.895397 
L 397.302752 245.77656 
L 398.149888 247.96387 
L 399.360081 250.398635 
L 402.385564 255.898974 
L 403.2327 256.870143 
L 403.958816 257.389292 
L 405.04799 257.842754 
L 408.194493 258.826989 
L 408.920609 258.712834 
L 409.888763 258.305306 
L 411.462015 257.640437 
L 413.277305 257.038255 
L 413.882402 256.5338 
L 414.487498 255.752897 
L 415.334634 254.225448 
L 419.570311 245.328463 
L 420.296427 242.976604 
L 421.143562 239.375076 
L 422.111717 234.242868 
L 423.442929 225.867703 
L 424.653123 216.926304 
L 425.984335 205.32624 
L 427.678606 190.629124 
L 428.404722 186.296316 
L 428.8888 184.583645 
L 429.251858 184.008352 
L 429.493896 183.976274 
L 429.735935 184.225682 
L 430.098993 185.114499 
L 430.58307 187.194979 
L 431.188167 191.017255 
L 432.156322 199.024695 
L 434.818747 222.124081 
L 436.028941 230.325434 
L 437.118115 236.250794 
L 438.086269 240.368854 
L 439.054424 243.528482 
L 440.143598 246.320999 
L 441.958888 250.276979 
L 443.048062 252.209919 
L 443.895198 253.301234 
L 444.742333 254.038635 
L 445.952526 254.737636 
L 447.646797 255.46104 
L 448.493932 255.587283 
L 449.220048 255.483154 
L 450.188203 255.095697 
L 453.092667 253.581439 
L 453.818783 252.864719 
L 454.544899 251.795799 
L 455.392035 250.130323 
L 457.449363 245.371299 
L 458.659557 242.295791 
L 459.506692 239.510617 
L 460.353828 235.88285 
L 461.321982 230.655087 
L 462.532176 222.752439 
L 463.863388 212.447846 
L 465.43664 198.179586 
L 466.767853 186.737033 
L 467.493969 182.410468 
L 467.978046 180.737372 
L 468.341104 180.212006 
L 468.583143 180.222393 
L 468.825181 180.520827 
L 469.188239 181.493069 
L 469.672317 183.696164 
L 470.277413 187.673983 
L 471.245568 195.893646 
L 473.786974 218.385067 
L 474.997168 226.788717 
L 476.086342 232.79891 
L 477.054496 236.987696 
L 478.14367 240.676163 
L 479.353864 243.992637 
L 480.564057 246.754772 
L 481.532212 248.476858 
L 482.379347 249.576266 
L 483.347502 250.454083 
L 484.557695 251.218633 
L 485.52585 251.617356 
L 486.372985 251.727617 
L 487.099101 251.607085 
L 488.067256 251.195394 
L 489.640508 250.238178 
L 490.608662 249.415283 
L 491.334778 248.508548 
L 492.060894 247.266718 
L 493.029049 245.127085 
L 494.481281 241.310419 
L 495.691474 237.620445 
L 496.53861 234.385701 
L 497.385745 230.318789 
L 498.3539 224.566076 
L 499.564093 215.88179 
L 500.895306 204.586441 
L 503.557731 180.920333 
L 504.162828 177.622435 
L 504.646905 176.152007 
L 504.888944 175.848086 
L 505.130983 175.840428 
L 505.373022 176.128385 
L 505.73608 177.099263 
L 506.220157 179.325621 
L 506.825254 183.365149 
L 507.793408 191.72841 
L 510.334814 214.633841 
L 511.423988 222.373445 
L 512.513163 228.57273 
L 513.602337 233.415165 
L 514.691511 237.246905 
L 515.901704 240.667522 
L 516.869859 242.822588 
L 517.838013 244.441516 
L 518.806168 245.594524 
L 519.774323 246.410003 
L 520.742478 246.939407 
L 521.468594 247.110142 
L 522.19471 247.056505 
L 523.041845 246.730079 
L 524.01 246.098989 
L 524.978154 245.235986 
L 525.82529 244.194385 
L 526.672425 242.749886 
L 527.51956 240.845095 
L 528.608735 237.818287 
L 529.818928 233.819122 
L 530.787083 229.919613 
L 531.755237 225.020931 
L 532.723392 218.925826 
L 533.812566 210.652657 
L 535.143779 198.706455 
L 537.443146 177.343853 
L 538.048243 173.480809 
L 538.53232 171.506366 
L 538.895378 170.780054 
L 539.137417 170.675029 
L 539.379456 170.8762 
L 539.742514 171.738887 
L 540.226591 173.846941 
L 540.831688 177.778031 
L 541.678823 184.929899 
L 544.946345 214.158058 
L 546.035519 221.271571 
L 547.003674 226.290247 
L 547.971829 230.290107 
L 549.061003 233.857457 
L 550.150177 236.680096 
L 551.118331 238.585164 
L 551.965467 239.804419 
L 552.812602 240.675727 
L 553.659738 241.223282 
L 554.385854 241.419361 
L 555.11197 241.351365 
L 555.838086 241.033954 
L 556.685221 240.388309 
L 557.532356 239.455684 
L 558.379492 238.167142 
L 559.226627 236.416165 
L 560.073763 234.148025 
L 561.162937 230.525994 
L 562.252111 226.121391 
L 563.220265 221.289263 
L 564.18842 215.288878 
L 565.277594 207.023042 
L 566.608807 194.970209 
L 569.271232 169.930773 
L 569.876329 166.390662 
L 570.360406 164.775903 
L 570.602445 164.421523 
L 570.844484 164.379541 
L 571.086522 164.649852 
L 571.44958 165.626255 
L 571.933658 167.916241 
L 572.538754 172.107011 
L 573.506909 180.804278 
L 576.048315 204.546119 
L 577.137489 212.495232 
L 578.226663 218.859412 
L 579.315837 223.85408 
L 580.283992 227.316248 
L 581.252147 229.961613 
L 582.099282 231.676654 
L 582.946418 232.903997 
L 583.672534 233.608903 
L 584.39865 234.000572 
L 585.003746 234.082188 
L 585.608843 233.941998 
L 586.21394 233.587844 
L 586.940056 232.892322 
L 587.666172 231.896957 
L 588.513307 230.30386 
L 589.360442 228.160663 
L 590.207578 225.41194 
L 591.175733 221.509252 
L 592.143887 216.716673 
L 593.112042 210.826719 
L 594.201216 202.642969 
L 595.411409 191.645562 
L 598.678932 160.430084 
L 599.163009 157.918786 
L 599.526067 156.802144 
L 599.768106 156.451804 
L 600.010144 156.424718 
L 600.252183 156.720208 
L 600.615241 157.750578 
L 601.099318 160.134731 
L 601.704415 164.462834 
L 602.67257 173.380044 
L 605.092956 196.491351 
L 606.182131 204.682568 
L 607.271305 211.203159 
L 608.239459 215.723291 
L 609.207614 219.172716 
L 610.054749 221.40669 
L 610.780865 222.799789 
L 611.506981 223.748642 
L 612.112078 224.211761 
L 612.717175 224.379574 
L 613.201252 224.302581 
L 613.806349 223.946409 
L 614.411446 223.305859 
L 615.137562 222.157092 
L 615.863678 220.564248 
L 616.710813 218.078457 
L 617.557948 214.848989 
L 618.526103 210.180759 
L 619.494258 204.360422 
L 620.462412 197.214283 
L 621.551587 187.476053 
L 623.003819 172.212056 
L 624.698089 154.578129 
L 625.424205 149.128906 
L 625.908283 146.820199 
L 626.271341 145.913379 
L 626.513379 145.724366 
L 626.755418 145.871062 
L 626.997457 146.348364 
L 627.360515 147.656545 
L 627.844592 150.39785 
L 628.570708 156.18499 
L 629.901921 169.395539 
L 631.475172 184.519209 
L 632.564346 193.041435 
L 633.532501 199.052114 
L 634.500656 203.673735 
L 635.347791 206.669147 
L 636.073907 208.524606 
L 636.800023 209.767128 
L 637.40512 210.35251 
L 637.889197 210.531611 
L 638.373275 210.454032 
L 638.857352 210.125243 
L 639.341429 209.545904 
L 639.946526 208.423266 
L 640.672642 206.488003 
L 641.398758 203.901414 
L 642.245893 199.997259 
L 643.093029 195.065999 
L 644.061183 188.069832 
L 645.150358 178.340409 
L 646.360551 165.382557 
L 648.901957 137.36209 
L 649.507054 133.026049 
L 649.991131 130.900996 
L 650.354189 130.193417 
L 650.596228 130.157961 
L 650.838266 130.46845 
L 651.201324 131.562526 
L 651.685402 134.079904 
L 652.290498 138.537269 
L 653.258653 147.637137 
L 655.437001 168.603756 
L 656.526175 176.691763 
L 657.373311 181.433378 
L 658.099427 184.467483 
L 658.825543 186.592336 
L 659.430639 187.694107 
L 659.914717 188.147919 
L 660.277775 188.242013 
L 660.640833 188.124893 
L 661.003891 187.787089 
L 661.487968 186.982767 
L 662.093065 185.443945 
L 662.698162 183.294036 
L 663.424278 179.873206 
L 664.271413 174.6591 
L 665.118548 168.014502 
L 666.086703 158.623768 
L 667.296896 144.432742 
L 670.080341 110.141914 
L 670.685438 105.484288 
L 671.169515 103.21223 
L 671.532573 102.41614 
L 671.774612 102.331254 
L 672.016651 102.593119 
L 672.379709 103.598474 
L 672.863786 105.948856 
L 673.468883 110.144679 
L 674.679076 120.568917 
L 675.889269 130.389287 
L 676.857424 136.60857 
L 677.462521 139.316847 
L 677.946598 140.754852 
L 678.430676 141.539045 
L 678.793734 141.769157 
L 679.035772 141.713907 
L 679.39883 141.308945 
L 679.761888 140.514913 
L 680.245966 138.845857 
L 680.851062 135.730685 
L 681.577178 130.666015 
L 682.424314 123.033431 
L 683.15043 113.648892 
L 684.118585 99.215563 
L 685.570817 72.156825 
L 687.386107 36.948314 
L 688.233242 22.506615 
L 688.233242 22.506615 
" clip-path="url(#p953ebdfeb5)" style="fill: none; stroke: #ff7f0e; stroke-width: 1.5; stroke-linecap: square"/>
   </g>
   <g id="patch_3">
    <path d="M 49.190625 285.988477 
L 49.190625 8.788477 
" style="fill: none; stroke: #000000; stroke-width: 0.8; stroke-linejoin: miter; stroke-linecap: square"/>
   </g>
   <g id="patch_4">
    <path d="M 718.790625 285.988477 
L 718.790625 8.788477 
" style="fill: none; stroke: #000000; stroke-width: 0.8; stroke-linejoin: miter; stroke-linecap: square"/>
   </g>
   <g id="patch_5">
    <path d="M 49.190625 285.988477 
L 718.790625 285.988477 
" style="fill: none; stroke: #000000; stroke-width: 0.8; stroke-linejoin: miter; stroke-linecap: square"/>
   </g>
   <g id="patch_6">
    <path d="M 49.190625 8.788477 
L 718.790625 8.788477 
" style="fill: none; stroke: #000000; stroke-width: 0.8; stroke-linejoin: miter; stroke-linecap: square"/>
   </g>
   <g id="legend_1">
    <g id="patch_7">
     <path d="M 56.190625 178.244727 
L 219.190625 178.244727 
Q 221.190625 178.244727 221.190625 176.244727 
L 221.190625 118.532227 
Q 221.190625 116.532227 219.190625 116.532227 
L 56.190625 116.532227 
Q 54.190625 116.532227 54.190625 118.532227 
L 54.190625 176.244727 
Q 54.190625 178.244727 56.190625 178.244727 
z
" style="fill: #ffffff; opacity: 0.8; stroke: #cccccc; stroke-linejoin: miter"/>
    </g>
    <g id="line2d_18">
     <path d="M 58.190625 124.630665 
L 68.190625 124.630665 
L 78.190625 124.630665 
" style="fill: none; stroke: #1f77b4; stroke-width: 1.5; stroke-linecap: square"/>
    </g>
    <g id="text_15">
     <!-- Mf before ISCO cut: $e$=0.3 -->
     <g transform="translate(86.190625 128.130665) scale(0.1 -0.1)">
      <defs>
       <path id="DejaVuSans-4d" d="M 628 4666 
L 1569 4666 
L 2759 1491 
L 3956 4666 
L 4897 4666 
L 4897 0 
L 4281 0 
L 4281 4097 
L 3078 897 
L 2444 897 
L 1241 4097 
L 1241 0 
L 628 0 
L 628 4666 
z
" transform="scale(0.015625)"/>
       <path id="DejaVuSans-66" d="M 2375 4863 
L 2375 4384 
L 1825 4384 
Q 1516 4384 1395 4259 
Q 1275 4134 1275 3809 
L 1275 3500 
L 2222 3500 
L 2222 3053 
L 1275 3053 
L 1275 0 
L 697 0 
L 697 3053 
L 147 3053 
L 147 3500 
L 697 3500 
L 697 3744 
Q 697 4328 969 4595 
Q 1241 4863 1831 4863 
L 2375 4863 
z
" transform="scale(0.015625)"/>
       <path id="DejaVuSans-20" transform="scale(0.015625)"/>
       <path id="DejaVuSans-62" d="M 3116 1747 
Q 3116 2381 2855 2742 
Q 2594 3103 2138 3103 
Q 1681 3103 1420 2742 
Q 1159 2381 1159 1747 
Q 1159 1113 1420 752 
Q 1681 391 2138 391 
Q 2594 391 2855 752 
Q 3116 1113 3116 1747 
z
M 1159 2969 
Q 1341 3281 1617 3432 
Q 1894 3584 2278 3584 
Q 2916 3584 3314 3078 
Q 3713 2572 3713 1747 
Q 3713 922 3314 415 
Q 2916 -91 2278 -91 
Q 1894 -91 1617 61 
Q 1341 213 1159 525 
L 1159 0 
L 581 0 
L 581 4863 
L 1159 4863 
L 1159 2969 
z
" transform="scale(0.015625)"/>
       <path id="DejaVuSans-65" d="M 3597 1894 
L 3597 1613 
L 953 1613 
Q 991 1019 1311 708 
Q 1631 397 2203 397 
Q 2534 397 2845 478 
Q 3156 559 3463 722 
L 3463 178 
Q 3153 47 2828 -22 
Q 2503 -91 2169 -91 
Q 1331 -91 842 396 
Q 353 884 353 1716 
Q 353 2575 817 3079 
Q 1281 3584 2069 3584 
Q 2775 3584 3186 3129 
Q 3597 2675 3597 1894 
z
M 3022 2063 
Q 3016 2534 2758 2815 
Q 2500 3097 2075 3097 
Q 1594 3097 1305 2825 
Q 1016 2553 972 2059 
L 3022 2063 
z
" transform="scale(0.015625)"/>
       <path id="DejaVuSans-6f" d="M 1959 3097 
Q 1497 3097 1228 2736 
Q 959 2375 959 1747 
Q 959 1119 1226 758 
Q 1494 397 1959 397 
Q 2419 397 2687 759 
Q 2956 1122 2956 1747 
Q 2956 2369 2687 2733 
Q 2419 3097 1959 3097 
z
M 1959 3584 
Q 2709 3584 3137 3096 
Q 3566 2609 3566 1747 
Q 3566 888 3137 398 
Q 2709 -91 1959 -91 
Q 1206 -91 779 398 
Q 353 888 353 1747 
Q 353 2609 779 3096 
Q 1206 3584 1959 3584 
z
" transform="scale(0.015625)"/>
       <path id="DejaVuSans-72" d="M 2631 2963 
Q 2534 3019 2420 3045 
Q 2306 3072 2169 3072 
Q 1681 3072 1420 2755 
Q 1159 2438 1159 1844 
L 1159 0 
L 581 0 
L 581 3500 
L 1159 3500 
L 1159 2956 
Q 1341 3275 1631 3429 
Q 1922 3584 2338 3584 
Q 2397 3584 2469 3576 
Q 2541 3569 2628 3553 
L 2631 2963 
z
" transform="scale(0.015625)"/>
       <path id="DejaVuSans-49" d="M 628 4666 
L 1259 4666 
L 1259 0 
L 628 0 
L 628 4666 
z
" transform="scale(0.015625)"/>
       <path id="DejaVuSans-53" d="M 3425 4513 
L 3425 3897 
Q 3066 4069 2747 4153 
Q 2428 4238 2131 4238 
Q 1616 4238 1336 4038 
Q 1056 3838 1056 3469 
Q 1056 3159 1242 3001 
Q 1428 2844 1947 2747 
L 2328 2669 
Q 3034 2534 3370 2195 
Q 3706 1856 3706 1288 
Q 3706 609 3251 259 
Q 2797 -91 1919 -91 
Q 1588 -91 1214 -16 
Q 841 59 441 206 
L 441 856 
Q 825 641 1194 531 
Q 1563 422 1919 422 
Q 2459 422 2753 634 
Q 3047 847 3047 1241 
Q 3047 1584 2836 1778 
Q 2625 1972 2144 2069 
L 1759 2144 
Q 1053 2284 737 2584 
Q 422 2884 422 3419 
Q 422 4038 858 4394 
Q 1294 4750 2059 4750 
Q 2388 4750 2728 4690 
Q 3069 4631 3425 4513 
z
" transform="scale(0.015625)"/>
       <path id="DejaVuSans-43" d="M 4122 4306 
L 4122 3641 
Q 3803 3938 3442 4084 
Q 3081 4231 2675 4231 
Q 1875 4231 1450 3742 
Q 1025 3253 1025 2328 
Q 1025 1406 1450 917 
Q 1875 428 2675 428 
Q 3081 428 3442 575 
Q 3803 722 4122 1019 
L 4122 359 
Q 3791 134 3420 21 
Q 3050 -91 2638 -91 
Q 1578 -91 968 557 
Q 359 1206 359 2328 
Q 359 3453 968 4101 
Q 1578 4750 2638 4750 
Q 3056 4750 3426 4639 
Q 3797 4528 4122 4306 
z
" transform="scale(0.015625)"/>
       <path id="DejaVuSans-4f" d="M 2522 4238 
Q 1834 4238 1429 3725 
Q 1025 3213 1025 2328 
Q 1025 1447 1429 934 
Q 1834 422 2522 422 
Q 3209 422 3611 934 
Q 4013 1447 4013 2328 
Q 4013 3213 3611 3725 
Q 3209 4238 2522 4238 
z
M 2522 4750 
Q 3503 4750 4090 4092 
Q 4678 3434 4678 2328 
Q 4678 1225 4090 567 
Q 3503 -91 2522 -91 
Q 1538 -91 948 565 
Q 359 1222 359 2328 
Q 359 3434 948 4092 
Q 1538 4750 2522 4750 
z
" transform="scale(0.015625)"/>
       <path id="DejaVuSans-63" d="M 3122 3366 
L 3122 2828 
Q 2878 2963 2633 3030 
Q 2388 3097 2138 3097 
Q 1578 3097 1268 2742 
Q 959 2388 959 1747 
Q 959 1106 1268 751 
Q 1578 397 2138 397 
Q 2388 397 2633 464 
Q 2878 531 3122 666 
L 3122 134 
Q 2881 22 2623 -34 
Q 2366 -91 2075 -91 
Q 1284 -91 818 406 
Q 353 903 353 1747 
Q 353 2603 823 3093 
Q 1294 3584 2113 3584 
Q 2378 3584 2631 3529 
Q 2884 3475 3122 3366 
z
" transform="scale(0.015625)"/>
       <path id="DejaVuSans-75" d="M 544 1381 
L 544 3500 
L 1119 3500 
L 1119 1403 
Q 1119 906 1312 657 
Q 1506 409 1894 409 
Q 2359 409 2629 706 
Q 2900 1003 2900 1516 
L 2900 3500 
L 3475 3500 
L 3475 0 
L 2900 0 
L 2900 538 
Q 2691 219 2414 64 
Q 2138 -91 1772 -91 
Q 1169 -91 856 284 
Q 544 659 544 1381 
z
M 1991 3584 
L 1991 3584 
z
" transform="scale(0.015625)"/>
       <path id="DejaVuSans-74" d="M 1172 4494 
L 1172 3500 
L 2356 3500 
L 2356 3053 
L 1172 3053 
L 1172 1153 
Q 1172 725 1289 603 
Q 1406 481 1766 481 
L 2356 481 
L 2356 0 
L 1766 0 
Q 1100 0 847 248 
Q 594 497 594 1153 
L 594 3053 
L 172 3053 
L 172 3500 
L 594 3500 
L 594 4494 
L 1172 4494 
z
" transform="scale(0.015625)"/>
       <path id="DejaVuSans-3a" d="M 750 794 
L 1409 794 
L 1409 0 
L 750 0 
L 750 794 
z
M 750 3309 
L 1409 3309 
L 1409 2516 
L 750 2516 
L 750 3309 
z
" transform="scale(0.015625)"/>
       <path id="DejaVuSans-Oblique-65" d="M 3078 2063 
Q 3088 2113 3092 2166 
Q 3097 2219 3097 2272 
Q 3097 2653 2873 2875 
Q 2650 3097 2266 3097 
Q 1838 3097 1509 2826 
Q 1181 2556 1013 2059 
L 3078 2063 
z
M 3578 1613 
L 903 1613 
Q 884 1494 878 1425 
Q 872 1356 872 1306 
Q 872 872 1139 634 
Q 1406 397 1894 397 
Q 2269 397 2603 481 
Q 2938 566 3225 728 
L 3116 159 
Q 2806 34 2476 -28 
Q 2147 -91 1806 -91 
Q 1078 -91 686 257 
Q 294 606 294 1247 
Q 294 1794 489 2264 
Q 684 2734 1063 3103 
Q 1306 3334 1642 3459 
Q 1978 3584 2356 3584 
Q 2950 3584 3301 3228 
Q 3653 2872 3653 2272 
Q 3653 2128 3634 1964 
Q 3616 1800 3578 1613 
z
" transform="scale(0.015625)"/>
       <path id="DejaVuSans-3d" d="M 678 2906 
L 4684 2906 
L 4684 2381 
L 678 2381 
L 678 2906 
z
M 678 1631 
L 4684 1631 
L 4684 1100 
L 678 1100 
L 678 1631 
z
" transform="scale(0.015625)"/>
       <path id="DejaVuSans-33" d="M 2597 2516 
Q 3050 2419 3304 2112 
Q 3559 1806 3559 1356 
Q 3559 666 3084 287 
Q 2609 -91 1734 -91 
Q 1441 -91 1130 -33 
Q 819 25 488 141 
L 488 750 
Q 750 597 1062 519 
Q 1375 441 1716 441 
Q 2309 441 2620 675 
Q 2931 909 2931 1356 
Q 2931 1769 2642 2001 
Q 2353 2234 1838 2234 
L 1294 2234 
L 1294 2753 
L 1863 2753 
Q 2328 2753 2575 2939 
Q 2822 3125 2822 3475 
Q 2822 3834 2567 4026 
Q 2313 4219 1838 4219 
Q 1578 4219 1281 4162 
Q 984 4106 628 3988 
L 628 4550 
Q 988 4650 1302 4700 
Q 1616 4750 1894 4750 
Q 2613 4750 3031 4423 
Q 3450 4097 3450 3541 
Q 3450 3153 3228 2886 
Q 3006 2619 2597 2516 
z
" transform="scale(0.015625)"/>
      </defs>
      <use xlink:href="#DejaVuSans-4d" transform="translate(0 0.015625)"/>
      <use xlink:href="#DejaVuSans-66" transform="translate(86.279297 0.015625)"/>
      <use xlink:href="#DejaVuSans-20" transform="translate(121.484375 0.015625)"/>
      <use xlink:href="#DejaVuSans-62" transform="translate(153.271484 0.015625)"/>
      <use xlink:href="#DejaVuSans-65" transform="translate(216.748047 0.015625)"/>
      <use xlink:href="#DejaVuSans-66" transform="translate(278.271484 0.015625)"/>
      <use xlink:href="#DejaVuSans-6f" transform="translate(313.476562 0.015625)"/>
      <use xlink:href="#DejaVuSans-72" transform="translate(374.658203 0.015625)"/>
      <use xlink:href="#DejaVuSans-65" transform="translate(415.771484 0.015625)"/>
      <use xlink:href="#DejaVuSans-20" transform="translate(477.294922 0.015625)"/>
      <use xlink:href="#DejaVuSans-49" transform="translate(509.082031 0.015625)"/>
      <use xlink:href="#DejaVuSans-53" transform="translate(538.574219 0.015625)"/>
      <use xlink:href="#DejaVuSans-43" transform="translate(602.050781 0.015625)"/>
      <use xlink:href="#DejaVuSans-4f" transform="translate(671.875 0.015625)"/>
      <use xlink:href="#DejaVuSans-20" transform="translate(750.585938 0.015625)"/>
      <use xlink:href="#DejaVuSans-63" transform="translate(782.373047 0.015625)"/>
      <use xlink:href="#DejaVuSans-75" transform="translate(837.353516 0.015625)"/>
      <use xlink:href="#DejaVuSans-74" transform="translate(900.732422 0.015625)"/>
      <use xlink:href="#DejaVuSans-3a" transform="translate(939.941406 0.015625)"/>
      <use xlink:href="#DejaVuSans-20" transform="translate(973.632812 0.015625)"/>
      <use xlink:href="#DejaVuSans-Oblique-65" transform="translate(1005.419922 0.015625)"/>
      <use xlink:href="#DejaVuSans-3d" transform="translate(1066.943359 0.015625)"/>
      <use xlink:href="#DejaVuSans-30" transform="translate(1150.732422 0.015625)"/>
      <use xlink:href="#DejaVuSans-2e" transform="translate(1214.355469 0.015625)"/>
      <use xlink:href="#DejaVuSans-33" transform="translate(1246.142578 0.015625)"/>
     </g>
    </g>
    <g id="line2d_19">
     <path d="M 58.190625 139.30879 
L 68.190625 139.30879 
L 78.190625 139.30879 
" style="fill: none; stroke-dasharray: 2.22,0.96; stroke-dashoffset: 0; stroke: #ff0000; stroke-width: 0.6"/>
    </g>
    <g id="text_16">
     <!-- Mf ISCO $e$=0 -->
     <g transform="translate(86.190625 142.80879) scale(0.1 -0.1)">
      <use xlink:href="#DejaVuSans-4d" transform="translate(0 0.015625)"/>
      <use xlink:href="#DejaVuSans-66" transform="translate(86.279297 0.015625)"/>
      <use xlink:href="#DejaVuSans-20" transform="translate(121.484375 0.015625)"/>
      <use xlink:href="#DejaVuSans-49" transform="translate(153.271484 0.015625)"/>
      <use xlink:href="#DejaVuSans-53" transform="translate(182.763672 0.015625)"/>
      <use xlink:href="#DejaVuSans-43" transform="translate(246.240234 0.015625)"/>
      <use xlink:href="#DejaVuSans-4f" transform="translate(316.064453 0.015625)"/>
      <use xlink:href="#DejaVuSans-20" transform="translate(394.775391 0.015625)"/>
      <use xlink:href="#DejaVuSans-Oblique-65" transform="translate(426.5625 0.015625)"/>
      <use xlink:href="#DejaVuSans-3d" transform="translate(488.085938 0.015625)"/>
      <use xlink:href="#DejaVuSans-30" transform="translate(571.875 0.015625)"/>
     </g>
    </g>
    <g id="PathCollection_2">
     <g>
      <use xlink:href="#m89c8a2fa15" x="68.190625" y="154.861915" style="fill: #ff0000; stroke: #ff0000"/>
     </g>
    </g>
    <g id="text_17">
     <!-- ISCO cut -->
     <g transform="translate(86.190625 157.486915) scale(0.1 -0.1)">
      <use xlink:href="#DejaVuSans-49"/>
      <use xlink:href="#DejaVuSans-53" transform="translate(29.492188 0)"/>
      <use xlink:href="#DejaVuSans-43" transform="translate(92.96875 0)"/>
      <use xlink:href="#DejaVuSans-4f" transform="translate(162.792969 0)"/>
      <use xlink:href="#DejaVuSans-20" transform="translate(241.503906 0)"/>
      <use xlink:href="#DejaVuSans-63" transform="translate(273.291016 0)"/>
      <use xlink:href="#DejaVuSans-75" transform="translate(328.271484 0)"/>
      <use xlink:href="#DejaVuSans-74" transform="translate(391.650391 0)"/>
     </g>
    </g>
    <g id="line2d_20">
     <path d="M 58.190625 168.66504 
L 68.190625 168.66504 
L 78.190625 168.66504 
" style="fill: none; stroke: #ff7f0e; stroke-width: 1.5; stroke-linecap: square"/>
    </g>
    <g id="text_18">
     <!-- Mf after ISCO cut: $e$=0.3  -->
     <g transform="translate(86.190625 172.16504) scale(0.1 -0.1)">
      <defs>
       <path id="DejaVuSans-61" d="M 2194 1759 
Q 1497 1759 1228 1600 
Q 959 1441 959 1056 
Q 959 750 1161 570 
Q 1363 391 1709 391 
Q 2188 391 2477 730 
Q 2766 1069 2766 1631 
L 2766 1759 
L 2194 1759 
z
M 3341 1997 
L 3341 0 
L 2766 0 
L 2766 531 
Q 2569 213 2275 61 
Q 1981 -91 1556 -91 
Q 1019 -91 701 211 
Q 384 513 384 1019 
Q 384 1609 779 1909 
Q 1175 2209 1959 2209 
L 2766 2209 
L 2766 2266 
Q 2766 2663 2505 2880 
Q 2244 3097 1772 3097 
Q 1472 3097 1187 3025 
Q 903 2953 641 2809 
L 641 3341 
Q 956 3463 1253 3523 
Q 1550 3584 1831 3584 
Q 2591 3584 2966 3190 
Q 3341 2797 3341 1997 
z
" transform="scale(0.015625)"/>
      </defs>
      <use xlink:href="#DejaVuSans-4d" transform="translate(0 0.015625)"/>
      <use xlink:href="#DejaVuSans-66" transform="translate(86.279297 0.015625)"/>
      <use xlink:href="#DejaVuSans-20" transform="translate(121.484375 0.015625)"/>
      <use xlink:href="#DejaVuSans-61" transform="translate(153.271484 0.015625)"/>
      <use xlink:href="#DejaVuSans-66" transform="translate(214.550781 0.015625)"/>
      <use xlink:href="#DejaVuSans-74" transform="translate(249.755859 0.015625)"/>
      <use xlink:href="#DejaVuSans-65" transform="translate(288.964844 0.015625)"/>
      <use xlink:href="#DejaVuSans-72" transform="translate(350.488281 0.015625)"/>
      <use xlink:href="#DejaVuSans-20" transform="translate(391.601562 0.015625)"/>
      <use xlink:href="#DejaVuSans-49" transform="translate(423.388672 0.015625)"/>
      <use xlink:href="#DejaVuSans-53" transform="translate(452.880859 0.015625)"/>
      <use xlink:href="#DejaVuSans-43" transform="translate(516.357422 0.015625)"/>
      <use xlink:href="#DejaVuSans-4f" transform="translate(586.181641 0.015625)"/>
      <use xlink:href="#DejaVuSans-20" transform="translate(664.892578 0.015625)"/>
      <use xlink:href="#DejaVuSans-63" transform="translate(696.679688 0.015625)"/>
      <use xlink:href="#DejaVuSans-75" transform="translate(751.660156 0.015625)"/>
      <use xlink:href="#DejaVuSans-74" transform="translate(815.039062 0.015625)"/>
      <use xlink:href="#DejaVuSans-3a" transform="translate(854.248047 0.015625)"/>
      <use xlink:href="#DejaVuSans-20" transform="translate(887.939453 0.015625)"/>
      <use xlink:href="#DejaVuSans-Oblique-65" transform="translate(919.726562 0.015625)"/>
      <use xlink:href="#DejaVuSans-3d" transform="translate(981.25 0.015625)"/>
      <use xlink:href="#DejaVuSans-30" transform="translate(1065.039062 0.015625)"/>
      <use xlink:href="#DejaVuSans-2e" transform="translate(1128.662109 0.015625)"/>
      <use xlink:href="#DejaVuSans-33" transform="translate(1160.449219 0.015625)"/>
      <use xlink:href="#DejaVuSans-20" transform="translate(1224.072266 0.015625)"/>
     </g>
    </g>
   </g>
  </g>
 </g>
 <defs>
  <clipPath id="p953ebdfeb5">
   <rect x="49.190625" y="8.788477" width="669.6" height="277.2"/>
  </clipPath>
 </defs>
</svg>
