<?xml version="1.0" encoding="utf-8" standalone="no"?>
<!DOCTYPE svg PUBLIC "-//W3C//DTD SVG 1.1//EN"
  "http://www.w3.org/Graphics/SVG/1.1/DTD/svg11.dtd">
<svg xmlns:xlink="http://www.w3.org/1999/xlink" width="713.265625pt" height="308.278125pt" viewBox="0 0 713.265625 308.278125" xmlns="http://www.w3.org/2000/svg" version="1.1">
 <metadata>
  <rdf:RDF xmlns:dc="http://purl.org/dc/elements/1.1/" xmlns:cc="http://creativecommons.org/ns#" xmlns:rdf="http://www.w3.org/1999/02/22-rdf-syntax-ns#">
   <cc:Work>
    <dc:type rdf:resource="http://purl.org/dc/dcmitype/StillImage"/>
    <dc:date>2025-12-02T11:43:38.697290</dc:date>
    <dc:format>image/svg+xml</dc:format>
    <dc:creator>
     <cc:Agent>
      <dc:title>Matplotlib v3.10.5, https://matplotlib.org/</dc:title>
     </cc:Agent>
    </dc:creator>
   </cc:Work>
  </rdf:RDF>
 </metadata>
 <defs>
  <style type="text/css">*{stroke-linejoin: round; stroke-linecap: butt}</style>
 </defs>
 <g id="figure_1">
  <g id="patch_1">
   <path d="M 0 308.278125 
L 713.265625 308.278125 
L 713.265625 0 
L 0 0 
z
" style="fill: #ffffff"/>
  </g>
  <g id="axes_1">
   <g id="patch_2">
    <path d="M 36.465625 284.4 
L 706.065625 284.4 
L 706.065625 7.2 
L 36.465625 7.2 
z
" style="fill: #ffffff"/>
   </g>
   <g id="PathCollection_1">
    <defs>
     <path id="mcebf0041e5" d="M 0 1.224745 
C 0.324806 1.224745 0.636353 1.095698 0.866025 0.866025 
C 1.095698 0.636353 1.224745 0.324806 1.224745 0 
C 1.224745 -0.324806 1.095698 -0.636353 0.866025 -0.866025 
C 0.636353 -1.095698 0.324806 -1.224745 0 -1.224745 
C -0.324806 -1.224745 -0.636353 -1.095698 -0.866025 -0.866025 
C -1.095698 -0.636353 -1.224745 -0.324806 -1.224745 0 
C -1.224745 0.324806 -1.095698 0.636353 -0.866025 0.866025 
C -0.636353 1.095698 -0.324806 1.224745 0 1.224745 
z
" style="stroke: #ff0000"/>
    </defs>
    <g clip-path="url(#p006e3426e6)">
     <use xlink:href="#mcebf0041e5" x="672.285014" y="181.474587" style="fill: #ff0000; stroke: #ff0000"/>
    </g>
   </g>
   <g id="matplotlib.axis_1">
    <g id="xtick_1">
     <g id="line2d_1">
      <defs>
       <path id="m2cbe2a2f30" d="M 0 0 
L 0 3.5 
" style="stroke: #000000; stroke-width: 0.8"/>
      </defs>
      <g>
       <use xlink:href="#m2cbe2a2f30" x="45.99032" y="284.4" style="stroke: #000000; stroke-width: 0.8"/>
      </g>
     </g>
     <g id="text_1">
      <!-- −14000 -->
      <g transform="translate(25.894227 298.998438) scale(0.1 -0.1)">
       <defs>
        <path id="DejaVuSans-2212" d="M 678 2272 
L 4684 2272 
L 4684 1741 
L 678 1741 
L 678 2272 
z
" transform="scale(0.015625)"/>
        <path id="DejaVuSans-31" d="M 794 531 
L 1825 531 
L 1825 4091 
L 703 3866 
L 703 4441 
L 1819 4666 
L 2450 4666 
L 2450 531 
L 3481 531 
L 3481 0 
L 794 0 
L 794 531 
z
" transform="scale(0.015625)"/>
        <path id="DejaVuSans-34" d="M 2419 4116 
L 825 1625 
L 2419 1625 
L 2419 4116 
z
M 2253 4666 
L 3047 4666 
L 3047 1625 
L 3713 1625 
L 3713 1100 
L 3047 1100 
L 3047 0 
L 2419 0 
L 2419 1100 
L 313 1100 
L 313 1709 
L 2253 4666 
z
" transform="scale(0.015625)"/>
        <path id="DejaVuSans-30" d="M 2034 4250 
Q 1547 4250 1301 3770 
Q 1056 3291 1056 2328 
Q 1056 1369 1301 889 
Q 1547 409 2034 409 
Q 2525 409 2770 889 
Q 3016 1369 3016 2328 
Q 3016 3291 2770 3770 
Q 2525 4250 2034 4250 
z
M 2034 4750 
Q 2819 4750 3233 4129 
Q 3647 3509 3647 2328 
Q 3647 1150 3233 529 
Q 2819 -91 2034 -91 
Q 1250 -91 836 529 
Q 422 1150 422 2328 
Q 422 3509 836 4129 
Q 1250 4750 2034 4750 
z
" transform="scale(0.015625)"/>
       </defs>
       <use xlink:href="#DejaVuSans-2212"/>
       <use xlink:href="#DejaVuSans-31" transform="translate(83.789062 0)"/>
       <use xlink:href="#DejaVuSans-34" transform="translate(147.412109 0)"/>
       <use xlink:href="#DejaVuSans-30" transform="translate(211.035156 0)"/>
       <use xlink:href="#DejaVuSans-30" transform="translate(274.658203 0)"/>
       <use xlink:href="#DejaVuSans-30" transform="translate(338.28125 0)"/>
      </g>
     </g>
    </g>
    <g id="xtick_2">
     <g id="line2d_2">
      <g>
       <use xlink:href="#m2cbe2a2f30" x="135.938741" y="284.4" style="stroke: #000000; stroke-width: 0.8"/>
      </g>
     </g>
     <g id="text_2">
      <!-- −12000 -->
      <g transform="translate(115.842647 298.998438) scale(0.1 -0.1)">
       <defs>
        <path id="DejaVuSans-32" d="M 1228 531 
L 3431 531 
L 3431 0 
L 469 0 
L 469 531 
Q 828 903 1448 1529 
Q 2069 2156 2228 2338 
Q 2531 2678 2651 2914 
Q 2772 3150 2772 3378 
Q 2772 3750 2511 3984 
Q 2250 4219 1831 4219 
Q 1534 4219 1204 4116 
Q 875 4013 500 3803 
L 500 4441 
Q 881 4594 1212 4672 
Q 1544 4750 1819 4750 
Q 2544 4750 2975 4387 
Q 3406 4025 3406 3419 
Q 3406 3131 3298 2873 
Q 3191 2616 2906 2266 
Q 2828 2175 2409 1742 
Q 1991 1309 1228 531 
z
" transform="scale(0.015625)"/>
       </defs>
       <use xlink:href="#DejaVuSans-2212"/>
       <use xlink:href="#DejaVuSans-31" transform="translate(83.789062 0)"/>
       <use xlink:href="#DejaVuSans-32" transform="translate(147.412109 0)"/>
       <use xlink:href="#DejaVuSans-30" transform="translate(211.035156 0)"/>
       <use xlink:href="#DejaVuSans-30" transform="translate(274.658203 0)"/>
       <use xlink:href="#DejaVuSans-30" transform="translate(338.28125 0)"/>
      </g>
     </g>
    </g>
    <g id="xtick_3">
     <g id="line2d_3">
      <g>
       <use xlink:href="#m2cbe2a2f30" x="225.887161" y="284.4" style="stroke: #000000; stroke-width: 0.8"/>
      </g>
     </g>
     <g id="text_3">
      <!-- −10000 -->
      <g transform="translate(205.791067 298.998438) scale(0.1 -0.1)">
       <use xlink:href="#DejaVuSans-2212"/>
       <use xlink:href="#DejaVuSans-31" transform="translate(83.789062 0)"/>
       <use xlink:href="#DejaVuSans-30" transform="translate(147.412109 0)"/>
       <use xlink:href="#DejaVuSans-30" transform="translate(211.035156 0)"/>
       <use xlink:href="#DejaVuSans-30" transform="translate(274.658203 0)"/>
       <use xlink:href="#DejaVuSans-30" transform="translate(338.28125 0)"/>
      </g>
     </g>
    </g>
    <g id="xtick_4">
     <g id="line2d_4">
      <g>
       <use xlink:href="#m2cbe2a2f30" x="315.835581" y="284.4" style="stroke: #000000; stroke-width: 0.8"/>
      </g>
     </g>
     <g id="text_4">
      <!-- −8000 -->
      <g transform="translate(298.920737 298.998438) scale(0.1 -0.1)">
       <defs>
        <path id="DejaVuSans-38" d="M 2034 2216 
Q 1584 2216 1326 1975 
Q 1069 1734 1069 1313 
Q 1069 891 1326 650 
Q 1584 409 2034 409 
Q 2484 409 2743 651 
Q 3003 894 3003 1313 
Q 3003 1734 2745 1975 
Q 2488 2216 2034 2216 
z
M 1403 2484 
Q 997 2584 770 2862 
Q 544 3141 544 3541 
Q 544 4100 942 4425 
Q 1341 4750 2034 4750 
Q 2731 4750 3128 4425 
Q 3525 4100 3525 3541 
Q 3525 3141 3298 2862 
Q 3072 2584 2669 2484 
Q 3125 2378 3379 2068 
Q 3634 1759 3634 1313 
Q 3634 634 3220 271 
Q 2806 -91 2034 -91 
Q 1263 -91 848 271 
Q 434 634 434 1313 
Q 434 1759 690 2068 
Q 947 2378 1403 2484 
z
M 1172 3481 
Q 1172 3119 1398 2916 
Q 1625 2713 2034 2713 
Q 2441 2713 2670 2916 
Q 2900 3119 2900 3481 
Q 2900 3844 2670 4047 
Q 2441 4250 2034 4250 
Q 1625 4250 1398 4047 
Q 1172 3844 1172 3481 
z
" transform="scale(0.015625)"/>
       </defs>
       <use xlink:href="#DejaVuSans-2212"/>
       <use xlink:href="#DejaVuSans-38" transform="translate(83.789062 0)"/>
       <use xlink:href="#DejaVuSans-30" transform="translate(147.412109 0)"/>
       <use xlink:href="#DejaVuSans-30" transform="translate(211.035156 0)"/>
       <use xlink:href="#DejaVuSans-30" transform="translate(274.658203 0)"/>
      </g>
     </g>
    </g>
    <g id="xtick_5">
     <g id="line2d_5">
      <g>
       <use xlink:href="#m2cbe2a2f30" x="405.784001" y="284.4" style="stroke: #000000; stroke-width: 0.8"/>
      </g>
     </g>
     <g id="text_5">
      <!-- −6000 -->
      <g transform="translate(388.869157 298.998438) scale(0.1 -0.1)">
       <defs>
        <path id="DejaVuSans-36" d="M 2113 2584 
Q 1688 2584 1439 2293 
Q 1191 2003 1191 1497 
Q 1191 994 1439 701 
Q 1688 409 2113 409 
Q 2538 409 2786 701 
Q 3034 994 3034 1497 
Q 3034 2003 2786 2293 
Q 2538 2584 2113 2584 
z
M 3366 4563 
L 3366 3988 
Q 3128 4100 2886 4159 
Q 2644 4219 2406 4219 
Q 1781 4219 1451 3797 
Q 1122 3375 1075 2522 
Q 1259 2794 1537 2939 
Q 1816 3084 2150 3084 
Q 2853 3084 3261 2657 
Q 3669 2231 3669 1497 
Q 3669 778 3244 343 
Q 2819 -91 2113 -91 
Q 1303 -91 875 529 
Q 447 1150 447 2328 
Q 447 3434 972 4092 
Q 1497 4750 2381 4750 
Q 2619 4750 2861 4703 
Q 3103 4656 3366 4563 
z
" transform="scale(0.015625)"/>
       </defs>
       <use xlink:href="#DejaVuSans-2212"/>
       <use xlink:href="#DejaVuSans-36" transform="translate(83.789062 0)"/>
       <use xlink:href="#DejaVuSans-30" transform="translate(147.412109 0)"/>
       <use xlink:href="#DejaVuSans-30" transform="translate(211.035156 0)"/>
       <use xlink:href="#DejaVuSans-30" transform="translate(274.658203 0)"/>
      </g>
     </g>
    </g>
    <g id="xtick_6">
     <g id="line2d_6">
      <g>
       <use xlink:href="#m2cbe2a2f30" x="495.732421" y="284.4" style="stroke: #000000; stroke-width: 0.8"/>
      </g>
     </g>
     <g id="text_6">
      <!-- −4000 -->
      <g transform="translate(478.817577 298.998438) scale(0.1 -0.1)">
       <use xlink:href="#DejaVuSans-2212"/>
       <use xlink:href="#DejaVuSans-34" transform="translate(83.789062 0)"/>
       <use xlink:href="#DejaVuSans-30" transform="translate(147.412109 0)"/>
       <use xlink:href="#DejaVuSans-30" transform="translate(211.035156 0)"/>
       <use xlink:href="#DejaVuSans-30" transform="translate(274.658203 0)"/>
      </g>
     </g>
    </g>
    <g id="xtick_7">
     <g id="line2d_7">
      <g>
       <use xlink:href="#m2cbe2a2f30" x="585.680841" y="284.4" style="stroke: #000000; stroke-width: 0.8"/>
      </g>
     </g>
     <g id="text_7">
      <!-- −2000 -->
      <g transform="translate(568.765997 298.998438) scale(0.1 -0.1)">
       <use xlink:href="#DejaVuSans-2212"/>
       <use xlink:href="#DejaVuSans-32" transform="translate(83.789062 0)"/>
       <use xlink:href="#DejaVuSans-30" transform="translate(147.412109 0)"/>
       <use xlink:href="#DejaVuSans-30" transform="translate(211.035156 0)"/>
       <use xlink:href="#DejaVuSans-30" transform="translate(274.658203 0)"/>
      </g>
     </g>
    </g>
    <g id="xtick_8">
     <g id="line2d_8">
      <g>
       <use xlink:href="#m2cbe2a2f30" x="675.629261" y="284.4" style="stroke: #000000; stroke-width: 0.8"/>
      </g>
     </g>
     <g id="text_8">
      <!-- 0 -->
      <g transform="translate(672.448011 298.998438) scale(0.1 -0.1)">
       <use xlink:href="#DejaVuSans-30"/>
      </g>
     </g>
    </g>
   </g>
   <g id="matplotlib.axis_2">
    <g id="ytick_1">
     <g id="line2d_9">
      <defs>
       <path id="m6a26c6501c" d="M 0 0 
L -3.5 0 
" style="stroke: #000000; stroke-width: 0.8"/>
      </defs>
      <g>
       <use xlink:href="#m6a26c6501c" x="36.465625" y="284.074146" style="stroke: #000000; stroke-width: 0.8"/>
      </g>
     </g>
     <g id="text_9">
      <!-- 0.00 -->
      <g transform="translate(7.2 287.873365) scale(0.1 -0.1)">
       <defs>
        <path id="DejaVuSans-2e" d="M 684 794 
L 1344 794 
L 1344 0 
L 684 0 
L 684 794 
z
" transform="scale(0.015625)"/>
       </defs>
       <use xlink:href="#DejaVuSans-30"/>
       <use xlink:href="#DejaVuSans-2e" transform="translate(63.623047 0)"/>
       <use xlink:href="#DejaVuSans-30" transform="translate(95.410156 0)"/>
       <use xlink:href="#DejaVuSans-30" transform="translate(159.033203 0)"/>
      </g>
     </g>
    </g>
    <g id="ytick_2">
     <g id="line2d_10">
      <g>
       <use xlink:href="#m6a26c6501c" x="36.465625" y="236.78468" style="stroke: #000000; stroke-width: 0.8"/>
      </g>
     </g>
     <g id="text_10">
      <!-- 0.01 -->
      <g transform="translate(7.2 240.583898) scale(0.1 -0.1)">
       <use xlink:href="#DejaVuSans-30"/>
       <use xlink:href="#DejaVuSans-2e" transform="translate(63.623047 0)"/>
       <use xlink:href="#DejaVuSans-30" transform="translate(95.410156 0)"/>
       <use xlink:href="#DejaVuSans-31" transform="translate(159.033203 0)"/>
      </g>
     </g>
    </g>
    <g id="ytick_3">
     <g id="line2d_11">
      <g>
       <use xlink:href="#m6a26c6501c" x="36.465625" y="189.495213" style="stroke: #000000; stroke-width: 0.8"/>
      </g>
     </g>
     <g id="text_11">
      <!-- 0.02 -->
      <g transform="translate(7.2 193.294431) scale(0.1 -0.1)">
       <use xlink:href="#DejaVuSans-30"/>
       <use xlink:href="#DejaVuSans-2e" transform="translate(63.623047 0)"/>
       <use xlink:href="#DejaVuSans-30" transform="translate(95.410156 0)"/>
       <use xlink:href="#DejaVuSans-32" transform="translate(159.033203 0)"/>
      </g>
     </g>
    </g>
    <g id="ytick_4">
     <g id="line2d_12">
      <g>
       <use xlink:href="#m6a26c6501c" x="36.465625" y="142.205746" style="stroke: #000000; stroke-width: 0.8"/>
      </g>
     </g>
     <g id="text_12">
      <!-- 0.03 -->
      <g transform="translate(7.2 146.004964) scale(0.1 -0.1)">
       <defs>
        <path id="DejaVuSans-33" d="M 2597 2516 
Q 3050 2419 3304 2112 
Q 3559 1806 3559 1356 
Q 3559 666 3084 287 
Q 2609 -91 1734 -91 
Q 1441 -91 1130 -33 
Q 819 25 488 141 
L 488 750 
Q 750 597 1062 519 
Q 1375 441 1716 441 
Q 2309 441 2620 675 
Q 2931 909 2931 1356 
Q 2931 1769 2642 2001 
Q 2353 2234 1838 2234 
L 1294 2234 
L 1294 2753 
L 1863 2753 
Q 2328 2753 2575 2939 
Q 2822 3125 2822 3475 
Q 2822 3834 2567 4026 
Q 2313 4219 1838 4219 
Q 1578 4219 1281 4162 
Q 984 4106 628 3988 
L 628 4550 
Q 988 4650 1302 4700 
Q 1616 4750 1894 4750 
Q 2613 4750 3031 4423 
Q 3450 4097 3450 3541 
Q 3450 3153 3228 2886 
Q 3006 2619 2597 2516 
z
" transform="scale(0.015625)"/>
       </defs>
       <use xlink:href="#DejaVuSans-30"/>
       <use xlink:href="#DejaVuSans-2e" transform="translate(63.623047 0)"/>
       <use xlink:href="#DejaVuSans-30" transform="translate(95.410156 0)"/>
       <use xlink:href="#DejaVuSans-33" transform="translate(159.033203 0)"/>
      </g>
     </g>
    </g>
    <g id="ytick_5">
     <g id="line2d_13">
      <g>
       <use xlink:href="#m6a26c6501c" x="36.465625" y="94.916279" style="stroke: #000000; stroke-width: 0.8"/>
      </g>
     </g>
     <g id="text_13">
      <!-- 0.04 -->
      <g transform="translate(7.2 98.715498) scale(0.1 -0.1)">
       <use xlink:href="#DejaVuSans-30"/>
       <use xlink:href="#DejaVuSans-2e" transform="translate(63.623047 0)"/>
       <use xlink:href="#DejaVuSans-30" transform="translate(95.410156 0)"/>
       <use xlink:href="#DejaVuSans-34" transform="translate(159.033203 0)"/>
      </g>
     </g>
    </g>
    <g id="ytick_6">
     <g id="line2d_14">
      <g>
       <use xlink:href="#m6a26c6501c" x="36.465625" y="47.626812" style="stroke: #000000; stroke-width: 0.8"/>
      </g>
     </g>
     <g id="text_14">
      <!-- 0.05 -->
      <g transform="translate(7.2 51.426031) scale(0.1 -0.1)">
       <defs>
        <path id="DejaVuSans-35" d="M 691 4666 
L 3169 4666 
L 3169 4134 
L 1269 4134 
L 1269 2991 
Q 1406 3038 1543 3061 
Q 1681 3084 1819 3084 
Q 2600 3084 3056 2656 
Q 3513 2228 3513 1497 
Q 3513 744 3044 326 
Q 2575 -91 1722 -91 
Q 1428 -91 1123 -41 
Q 819 9 494 109 
L 494 744 
Q 775 591 1075 516 
Q 1375 441 1709 441 
Q 2250 441 2565 725 
Q 2881 1009 2881 1497 
Q 2881 1984 2565 2268 
Q 2250 2553 1709 2553 
Q 1456 2553 1204 2497 
Q 953 2441 691 2322 
L 691 4666 
z
" transform="scale(0.015625)"/>
       </defs>
       <use xlink:href="#DejaVuSans-30"/>
       <use xlink:href="#DejaVuSans-2e" transform="translate(63.623047 0)"/>
       <use xlink:href="#DejaVuSans-30" transform="translate(95.410156 0)"/>
       <use xlink:href="#DejaVuSans-35" transform="translate(159.033203 0)"/>
      </g>
     </g>
    </g>
   </g>
   <g id="line2d_15">
    <path d="M 66.901989 270.178681 
L 67.273572 269.97775 
L 68.908537 268.83267 
L 70.692135 267.290537 
L 74.333649 264.035263 
L 75.299764 263.52642 
L 76.117247 263.33631 
L 76.860413 263.376824 
L 77.677896 263.650883 
L 78.644011 264.239392 
L 79.907394 265.300771 
L 84.14344 269.06149 
L 85.778405 270.11035 
L 87.41337 270.888552 
L 89.048336 271.415097 
L 90.683301 271.713533 
L 92.392583 271.798036 
L 94.101864 271.654205 
L 95.73683 271.298692 
L 97.371795 270.710638 
L 98.932443 269.912675 
L 100.493092 268.86754 
L 102.202374 267.43743 
L 106.66137 263.492463 
L 107.553169 263.112623 
L 108.370652 263.013639 
L 109.113818 263.142183 
L 109.9313 263.507672 
L 110.971733 264.244482 
L 112.532381 265.672731 
L 115.356412 268.256969 
L 116.991377 269.432152 
L 118.552026 270.288668 
L 120.112674 270.898617 
L 121.74764 271.294714 
L 123.382605 271.46212 
L 125.01757 271.408286 
L 126.652535 271.132947 
L 128.213184 270.651123 
L 129.773832 269.93521 
L 131.334481 268.968751 
L 132.89513 267.741896 
L 134.901678 265.849167 
L 137.205492 263.705097 
L 138.245925 263.02791 
L 139.063407 262.73379 
L 139.806573 262.682565 
L 140.549739 262.84314 
L 141.367222 263.243928 
L 142.407655 264.019706 
L 144.116936 265.631455 
L 146.569384 267.896781 
L 148.204349 269.096424 
L 149.764998 269.967198 
L 151.325647 270.581293 
L 152.886295 270.958633 
L 154.446944 271.116454 
L 156.081909 271.053287 
L 157.642558 270.774231 
L 159.203206 270.269103 
L 160.689538 269.559646 
L 162.250187 268.559322 
L 163.810835 267.290976 
L 165.8917 265.275951 
L 167.972565 263.330304 
L 169.012997 262.653836 
L 169.83048 262.368172 
L 170.573646 262.33027 
L 171.316812 262.508111 
L 172.134295 262.930047 
L 173.174727 263.731818 
L 174.958325 265.448753 
L 177.26214 267.592047 
L 178.897105 268.798715 
L 180.457754 269.666759 
L 181.944086 270.245798 
L 183.504734 270.613023 
L 185.065383 270.749561 
L 186.626032 270.660995 
L 188.18668 270.345443 
L 189.673012 269.821049 
L 191.159344 269.060734 
L 192.645676 268.051415 
L 194.206325 266.723439 
L 196.584456 264.349454 
L 198.219421 262.857414 
L 199.185537 262.247506 
L 200.00302 261.978996 
L 200.746186 261.963135 
L 201.489352 262.166721 
L 202.306834 262.617804 
L 203.421583 263.52024 
L 205.576765 265.651121 
L 207.508996 267.416173 
L 209.069645 268.548604 
L 210.555977 269.359707 
L 212.042309 269.920139 
L 213.528641 270.247307 
L 215.014973 270.354095 
L 216.501305 270.244741 
L 217.987637 269.916675 
L 219.473969 269.356843 
L 220.960301 268.54824 
L 222.446633 267.479211 
L 224.081598 266.012003 
L 228.243328 262.081369 
L 229.135127 261.659529 
L 229.878293 261.541672 
L 230.621459 261.650661 
L 231.438942 262.01747 
L 232.405057 262.721914 
L 233.817073 264.066665 
L 236.789737 266.942861 
L 238.350385 268.110225 
L 239.836717 268.943883 
L 241.323049 269.514763 
L 242.809381 269.839912 
L 244.295713 269.931769 
L 245.782045 269.794195 
L 247.268377 269.423398 
L 248.680393 268.842198 
L 250.092408 268.023458 
L 251.57874 266.896212 
L 253.213705 265.362155 
L 256.855219 261.808088 
L 257.747018 261.307844 
L 258.490184 261.120827 
L 259.23335 261.165081 
L 259.976516 261.435358 
L 260.868315 262.015885 
L 262.057381 263.089581 
L 266.144794 267.027353 
L 267.631126 268.046656 
L 269.043141 268.753419 
L 270.455157 269.216335 
L 271.867172 269.449556 
L 273.279188 269.460975 
L 274.691203 269.251851 
L 276.103218 268.815902 
L 277.515234 268.139261 
L 278.927249 267.209507 
L 280.413581 265.95569 
L 282.271496 264.06357 
L 284.649627 261.666359 
L 285.615743 260.999333 
L 286.433226 260.696136 
L 287.176392 260.664612 
L 287.919558 260.869374 
L 288.73704 261.339538 
L 289.777473 262.217565 
L 291.784021 264.291129 
L 293.716253 266.153878 
L 295.202585 267.28863 
L 296.6146 268.093162 
L 298.026615 268.636955 
L 299.438631 268.933441 
L 300.850646 268.992137 
L 302.188345 268.830756 
L 303.526044 268.454362 
L 304.863743 267.852368 
L 306.201441 267.01361 
L 307.613457 265.867508 
L 309.248422 264.241102 
L 312.444036 260.97764 
L 313.335835 260.414407 
L 314.079001 260.180172 
L 314.822167 260.18784 
L 315.565333 260.43592 
L 316.382816 260.952477 
L 317.497565 261.953388 
L 322.105194 266.446817 
L 323.517209 267.359217 
L 324.854908 267.96716 
L 326.192607 268.33576 
L 327.530306 268.474761 
L 328.868005 268.38819 
L 330.205703 268.07423 
L 331.543402 267.524194 
L 332.881101 266.726482 
L 334.293116 265.610162 
L 335.853765 264.073689 
L 339.495278 260.316302 
L 340.387078 259.80111 
L 341.130244 259.623835 
L 341.799093 259.679085 
L 342.542259 259.971923 
L 343.434058 260.597319 
L 344.623124 261.743816 
L 348.338954 265.51882 
L 349.750969 266.548182 
L 351.088668 267.252221 
L 352.426367 267.698779 
L 353.689749 267.893244 
L 354.953131 267.871788 
L 356.216513 267.63449 
L 357.479896 267.175632 
L 358.743278 266.485618 
L 360.080977 265.496054 
L 361.492992 264.172234 
L 363.49954 261.945251 
L 365.283139 260.07701 
L 366.249254 259.378345 
L 366.99242 259.090553 
L 367.66127 259.048158 
L 368.330119 259.215028 
L 369.073285 259.625303 
L 370.039401 260.437227 
L 371.60005 262.102272 
L 373.903864 264.505934 
L 375.31588 265.657589 
L 376.653579 266.46524 
L 377.916961 266.974323 
L 379.180343 267.244834 
L 380.443725 267.282636 
L 381.707107 267.089002 
L 382.97049 266.659514 
L 384.233872 265.985331 
L 385.497254 265.059991 
L 386.909269 263.737383 
L 388.767184 261.65004 
L 390.699416 259.539688 
L 391.665532 258.796732 
L 392.408698 258.477173 
L 393.077547 258.411464 
L 393.746397 258.562305 
L 394.489563 258.96452 
L 395.381362 259.70839 
L 396.793377 261.219595 
L 399.320142 263.919614 
L 400.732157 265.081285 
L 401.995539 265.845414 
L 403.258921 266.347751 
L 404.447987 266.587473 
L 405.637053 266.605387 
L 406.826118 266.401775 
L 408.015184 265.973009 
L 409.204249 265.312205 
L 410.467632 264.351686 
L 411.879647 262.976861 
L 413.811879 260.733237 
L 415.52116 258.84247 
L 416.487276 258.09095 
L 417.230442 257.776289 
L 417.899292 257.723781 
L 418.568141 257.894789 
L 419.311307 258.324604 
L 420.277423 259.17801 
L 421.838071 260.918846 
L 423.918936 263.174733 
L 425.330952 264.370271 
L 426.594334 265.148819 
L 427.783399 265.625666 
L 428.972465 265.858951 
L 430.087214 265.859747 
L 431.201963 265.65044 
L 432.391029 265.192401 
L 433.580094 264.485861 
L 434.843477 263.46061 
L 436.255492 262.002399 
L 440.417222 257.421867 
L 441.160388 257.052826 
L 441.829237 256.956251 
L 442.498086 257.092287 
L 443.241252 257.497258 
L 444.133052 258.266504 
L 445.545067 259.842835 
L 447.923198 262.486328 
L 449.260897 263.627649 
L 450.449963 264.366573 
L 451.639028 264.840491 
L 452.753777 265.046999 
L 453.868526 265.025658 
L 454.983275 264.776172 
L 456.098024 264.295236 
L 457.28709 263.522349 
L 458.550472 262.409443 
L 459.962487 260.847445 
L 463.455368 256.802308 
L 464.27285 256.289645 
L 464.9417 256.117859 
L 465.610549 256.187577 
L 466.279398 256.489834 
L 467.096881 257.127314 
L 468.21163 258.316867 
L 471.555877 262.06507 
L 472.819259 263.061991 
L 473.934008 263.677174 
L 475.048757 264.041526 
L 476.08919 264.157 
L 477.129622 264.05626 
L 478.170054 263.737992 
L 479.284803 263.15224 
L 480.399552 262.310892 
L 481.662935 261.059303 
L 483.223583 259.161207 
L 485.601714 256.249933 
L 486.493514 255.521821 
L 487.162363 255.224552 
L 487.831213 255.174438 
L 488.500062 255.374791 
L 489.243228 255.862327 
L 490.209344 256.811644 
L 492.141575 259.148995 
L 493.776541 260.947253 
L 495.039923 262.003947 
L 496.154672 262.652094 
L 497.195104 263.010389 
L 498.235537 263.131906 
L 499.275969 263.017221 
L 500.316401 262.664948 
L 501.356834 262.07235 
L 502.471583 261.171057 
L 503.734965 259.835364 
L 505.36993 257.73768 
L 507.302162 255.299953 
L 508.193961 254.515204 
L 508.86281 254.181295 
L 509.457343 254.099551 
L 510.051876 254.226228 
L 510.720725 254.60133 
L 511.538208 255.333487 
L 512.80159 256.820655 
L 515.179721 259.65434 
L 516.368787 260.726788 
L 517.483536 261.440585 
L 518.523968 261.838528 
L 519.490084 261.972762 
L 520.4562 261.880476 
L 521.422316 261.562428 
L 522.388432 261.017442 
L 523.428864 260.178099 
L 524.61793 258.914689 
L 526.104262 256.975621 
L 528.33376 254.047723 
L 529.225559 253.261818 
L 529.894408 252.94552 
L 530.488941 252.891268 
L 531.083474 253.053756 
L 531.752323 253.474239 
L 532.569806 254.262253 
L 533.907505 255.911954 
L 535.914053 258.350687 
L 537.103118 259.455518 
L 538.143551 260.138429 
L 539.109667 260.511195 
L 540.001466 260.627106 
L 540.893265 260.530185 
L 541.785064 260.222337 
L 542.75118 259.651225 
L 543.791613 258.764169 
L 544.980678 257.438158 
L 546.541327 255.325072 
L 548.547875 252.581447 
L 549.365358 251.845339 
L 550.034207 251.530402 
L 550.62874 251.484656 
L 551.223273 251.660116 
L 551.892122 252.100139 
L 552.709605 252.923751 
L 554.12162 254.738498 
L 555.979535 257.064935 
L 557.094284 258.09416 
L 558.0604 258.700212 
L 558.952199 259.012769 
L 559.769682 259.082539 
L 560.587164 258.944659 
L 561.478963 258.580179 
L 562.445079 257.936771 
L 563.411195 257.020012 
L 564.525944 255.649806 
L 566.160909 253.237879 
L 567.721558 251.045517 
L 568.53904 250.241744 
L 569.20789 249.875588 
L 569.802423 249.804726 
L 570.396955 249.977841 
L 571.065805 250.441154 
L 571.883287 251.307354 
L 573.443936 253.380961 
L 575.004585 255.316192 
L 576.045017 256.284838 
L 577.011133 256.887787 
L 577.902932 257.172916 
L 578.720415 257.199301 
L 579.537897 256.998987 
L 580.35538 256.572145 
L 581.247179 255.855114 
L 582.213295 254.794863 
L 583.40236 253.134825 
L 586.523658 248.55353 
L 587.192507 248.021781 
L 587.78704 247.810643 
L 588.307256 247.841644 
L 588.901789 248.114365 
L 589.570638 248.682697 
L 590.536754 249.84851 
L 593.360785 253.492169 
L 594.326901 254.315692 
L 595.2187 254.782931 
L 596.036182 254.948705 
L 596.779348 254.876064 
L 597.522514 254.588843 
L 598.339997 254.026171 
L 599.231796 253.127812 
L 600.272229 251.739397 
L 601.684244 249.430362 
L 603.393526 246.688428 
L 604.211009 245.783394 
L 604.805541 245.4132 
L 605.325758 245.31808 
L 605.845974 245.43909 
L 606.440507 245.820279 
L 607.183673 246.589685 
L 608.447055 248.30622 
L 610.08202 250.457333 
L 611.048136 251.380509 
L 611.865618 251.878218 
L 612.608784 252.083331 
L 613.35195 252.04341 
L 614.095116 251.754614 
L 614.838282 251.217625 
L 615.655765 250.350592 
L 616.621881 248.981696 
L 617.95958 246.636456 
L 619.743178 243.533506 
L 620.486344 242.641592 
L 621.080877 242.229069 
L 621.601093 242.118647 
L 622.121309 242.241621 
L 622.715842 242.640368 
L 623.459008 243.443805 
L 624.871023 245.40537 
L 626.208722 247.102477 
L 627.100521 247.888443 
L 627.843687 248.26444 
L 628.512537 248.363145 
L 629.10707 248.237831 
L 629.775919 247.867983 
L 630.519085 247.177899 
L 631.336568 246.094674 
L 632.302683 244.433524 
L 635.572614 238.419045 
L 636.167147 237.914441 
L 636.687363 237.748757 
L 637.207579 237.841667 
L 637.727795 238.168783 
L 638.396645 238.858838 
L 641.592258 242.621859 
L 642.261108 242.945979 
L 642.855641 243.011693 
L 643.450173 242.84646 
L 644.044706 242.438509 
L 644.713556 241.70357 
L 645.531038 240.427071 
L 646.497154 238.462431 
L 649.469818 232.036359 
L 650.064351 231.393656 
L 650.584567 231.132429 
L 651.030467 231.131623 
L 651.550683 231.365161 
L 652.219532 231.945913 
L 654.67198 234.366357 
L 655.266513 234.55657 
L 655.786729 234.507057 
L 656.306945 234.217954 
L 656.901478 233.603165 
L 657.570328 232.547707 
L 658.313494 230.934009 
L 659.279609 228.23673 
L 661.955007 220.328928 
L 662.698173 219.020665 
L 663.367022 218.294852 
L 663.812922 218.115875 
L 665.968103 217.559745 
L 666.48832 216.966851 
L 667.231486 215.611198 
L 667.826018 214.098238 
L 669.31235 206.855959 
L 670.352783 199.548441 
L 671.616165 188.746426 
L 672.507964 178.782644 
L 673.25113 167.910705 
L 673.845663 155.658387 
L 674.365879 139.348681 
L 674.737462 120.103362 
L 675.109045 88.817412 
L 675.480628 39.033309 
L 675.629261 19.8 
L 675.629261 19.8 
" clip-path="url(#p006e3426e6)" style="fill: none; stroke: #1f77b4; stroke-width: 1.5; stroke-linecap: square"/>
   </g>
   <g id="line2d_16">
    <path d="M 36.465625 181.653463 
L 706.065625 181.653463 
" clip-path="url(#p006e3426e6)" style="fill: none; stroke-dasharray: 2.22,0.96; stroke-dashoffset: 0; stroke: #ff0000; stroke-width: 0.6"/>
   </g>
   <g id="line2d_17">
    <path d="M 66.901989 270.178681 
L 67.273572 269.97775 
L 68.908537 268.83267 
L 70.692135 267.290537 
L 74.333649 264.035263 
L 75.299764 263.52642 
L 76.117247 263.33631 
L 76.860413 263.376824 
L 77.677896 263.650883 
L 78.644011 264.239392 
L 79.907394 265.300771 
L 84.14344 269.06149 
L 85.778405 270.11035 
L 87.41337 270.888552 
L 89.048336 271.415097 
L 90.683301 271.713533 
L 92.392583 271.798036 
L 94.101864 271.654205 
L 95.73683 271.298692 
L 97.371795 270.710638 
L 98.932443 269.912675 
L 100.493092 268.86754 
L 102.202374 267.43743 
L 106.66137 263.492463 
L 107.553169 263.112623 
L 108.370652 263.013639 
L 109.113818 263.142183 
L 109.9313 263.507672 
L 110.971733 264.244482 
L 112.532381 265.672731 
L 115.356412 268.256969 
L 116.991377 269.432152 
L 118.552026 270.288668 
L 120.112674 270.898617 
L 121.74764 271.294714 
L 123.382605 271.46212 
L 125.01757 271.408286 
L 126.652535 271.132947 
L 128.213184 270.651123 
L 129.773832 269.93521 
L 131.334481 268.968751 
L 132.89513 267.741896 
L 134.901678 265.849167 
L 137.205492 263.705097 
L 138.245925 263.02791 
L 139.063407 262.73379 
L 139.806573 262.682565 
L 140.549739 262.84314 
L 141.367222 263.243928 
L 142.407655 264.019706 
L 144.116936 265.631455 
L 146.569384 267.896781 
L 148.204349 269.096424 
L 149.764998 269.967198 
L 151.325647 270.581293 
L 152.886295 270.958633 
L 154.446944 271.116454 
L 156.081909 271.053287 
L 157.642558 270.774231 
L 159.203206 270.269103 
L 160.689538 269.559646 
L 162.250187 268.559322 
L 163.810835 267.290976 
L 165.8917 265.275951 
L 167.972565 263.330304 
L 169.012997 262.653836 
L 169.83048 262.368172 
L 170.573646 262.33027 
L 171.316812 262.508111 
L 172.134295 262.930047 
L 173.174727 263.731818 
L 174.958325 265.448753 
L 177.26214 267.592047 
L 178.897105 268.798715 
L 180.457754 269.666759 
L 181.944086 270.245798 
L 183.504734 270.613023 
L 185.065383 270.749561 
L 186.626032 270.660995 
L 188.18668 270.345443 
L 189.673012 269.821049 
L 191.159344 269.060734 
L 192.645676 268.051415 
L 194.206325 266.723439 
L 196.584456 264.349454 
L 198.219421 262.857414 
L 199.185537 262.247506 
L 200.00302 261.978996 
L 200.746186 261.963135 
L 201.489352 262.166721 
L 202.306834 262.617804 
L 203.421583 263.52024 
L 205.576765 265.651121 
L 207.508996 267.416173 
L 209.069645 268.548604 
L 210.555977 269.359707 
L 212.042309 269.920139 
L 213.528641 270.247307 
L 215.014973 270.354095 
L 216.501305 270.244741 
L 217.987637 269.916675 
L 219.473969 269.356843 
L 220.960301 268.54824 
L 222.446633 267.479211 
L 224.081598 266.012003 
L 228.243328 262.081369 
L 229.135127 261.659529 
L 229.878293 261.541672 
L 230.621459 261.650661 
L 231.438942 262.01747 
L 232.405057 262.721914 
L 233.817073 264.066665 
L 236.789737 266.942861 
L 238.350385 268.110225 
L 239.836717 268.943883 
L 241.323049 269.514763 
L 242.809381 269.839912 
L 244.295713 269.931769 
L 245.782045 269.794195 
L 247.268377 269.423398 
L 248.680393 268.842198 
L 250.092408 268.023458 
L 251.57874 266.896212 
L 253.213705 265.362155 
L 256.855219 261.808088 
L 257.747018 261.307844 
L 258.490184 261.120827 
L 259.23335 261.165081 
L 259.976516 261.435358 
L 260.868315 262.015885 
L 262.057381 263.089581 
L 266.144794 267.027353 
L 267.631126 268.046656 
L 269.043141 268.753419 
L 270.455157 269.216335 
L 271.867172 269.449556 
L 273.279188 269.460975 
L 274.691203 269.251851 
L 276.103218 268.815902 
L 277.515234 268.139261 
L 278.927249 267.209507 
L 280.413581 265.95569 
L 282.271496 264.06357 
L 284.649627 261.666359 
L 285.615743 260.999333 
L 286.433226 260.696136 
L 287.176392 260.664612 
L 287.919558 260.869374 
L 288.73704 261.339538 
L 289.777473 262.217565 
L 291.784021 264.291129 
L 293.716253 266.153878 
L 295.202585 267.28863 
L 296.6146 268.093162 
L 298.026615 268.636955 
L 299.438631 268.933441 
L 300.850646 268.992137 
L 302.188345 268.830756 
L 303.526044 268.454362 
L 304.863743 267.852368 
L 306.201441 267.01361 
L 307.613457 265.867508 
L 309.248422 264.241102 
L 312.444036 260.97764 
L 313.335835 260.414407 
L 314.079001 260.180172 
L 314.822167 260.18784 
L 315.565333 260.43592 
L 316.382816 260.952477 
L 317.497565 261.953388 
L 322.105194 266.446817 
L 323.517209 267.359217 
L 324.854908 267.96716 
L 326.192607 268.33576 
L 327.530306 268.474761 
L 328.868005 268.38819 
L 330.205703 268.07423 
L 331.543402 267.524194 
L 332.881101 266.726482 
L 334.293116 265.610162 
L 335.853765 264.073689 
L 339.495278 260.316302 
L 340.387078 259.80111 
L 341.130244 259.623835 
L 341.799093 259.679085 
L 342.542259 259.971923 
L 343.434058 260.597319 
L 344.623124 261.743816 
L 348.338954 265.51882 
L 349.750969 266.548182 
L 351.088668 267.252221 
L 352.426367 267.698779 
L 353.689749 267.893244 
L 354.953131 267.871788 
L 356.216513 267.63449 
L 357.479896 267.175632 
L 358.743278 266.485618 
L 360.080977 265.496054 
L 361.492992 264.172234 
L 363.49954 261.945251 
L 365.283139 260.07701 
L 366.249254 259.378345 
L 366.99242 259.090553 
L 367.66127 259.048158 
L 368.330119 259.215028 
L 369.073285 259.625303 
L 370.039401 260.437227 
L 371.60005 262.102272 
L 373.903864 264.505934 
L 375.31588 265.657589 
L 376.653579 266.46524 
L 377.916961 266.974323 
L 379.180343 267.244834 
L 380.443725 267.282636 
L 381.707107 267.089002 
L 382.97049 266.659514 
L 384.233872 265.985331 
L 385.497254 265.059991 
L 386.909269 263.737383 
L 388.767184 261.65004 
L 390.699416 259.539688 
L 391.665532 258.796732 
L 392.408698 258.477173 
L 393.077547 258.411464 
L 393.746397 258.562305 
L 394.489563 258.96452 
L 395.381362 259.70839 
L 396.793377 261.219595 
L 399.320142 263.919614 
L 400.732157 265.081285 
L 401.995539 265.845414 
L 403.258921 266.347751 
L 404.447987 266.587473 
L 405.637053 266.605387 
L 406.826118 266.401775 
L 408.015184 265.973009 
L 409.204249 265.312205 
L 410.467632 264.351686 
L 411.879647 262.976861 
L 413.811879 260.733237 
L 415.52116 258.84247 
L 416.487276 258.09095 
L 417.230442 257.776289 
L 417.899292 257.723781 
L 418.568141 257.894789 
L 419.311307 258.324604 
L 420.277423 259.17801 
L 421.838071 260.918846 
L 423.918936 263.174733 
L 425.330952 264.370271 
L 426.594334 265.148819 
L 427.783399 265.625666 
L 428.972465 265.858951 
L 430.087214 265.859747 
L 431.201963 265.65044 
L 432.391029 265.192401 
L 433.580094 264.485861 
L 434.843477 263.46061 
L 436.255492 262.002399 
L 440.417222 257.421867 
L 441.160388 257.052826 
L 441.829237 256.956251 
L 442.498086 257.092287 
L 443.241252 257.497258 
L 444.133052 258.266504 
L 445.545067 259.842835 
L 447.923198 262.486328 
L 449.260897 263.627649 
L 450.449963 264.366573 
L 451.639028 264.840491 
L 452.753777 265.046999 
L 453.868526 265.025658 
L 454.983275 264.776172 
L 456.098024 264.295236 
L 457.28709 263.522349 
L 458.550472 262.409443 
L 459.962487 260.847445 
L 463.455368 256.802308 
L 464.27285 256.289645 
L 464.9417 256.117859 
L 465.610549 256.187577 
L 466.279398 256.489834 
L 467.096881 257.127314 
L 468.21163 258.316867 
L 471.555877 262.06507 
L 472.819259 263.061991 
L 473.934008 263.677174 
L 475.048757 264.041526 
L 476.08919 264.157 
L 477.129622 264.05626 
L 478.170054 263.737992 
L 479.284803 263.15224 
L 480.399552 262.310892 
L 481.662935 261.059303 
L 483.223583 259.161207 
L 485.601714 256.249933 
L 486.493514 255.521821 
L 487.162363 255.224552 
L 487.831213 255.174438 
L 488.500062 255.374791 
L 489.243228 255.862327 
L 490.209344 256.811644 
L 492.141575 259.148995 
L 493.776541 260.947253 
L 495.039923 262.003947 
L 496.154672 262.652094 
L 497.195104 263.010389 
L 498.235537 263.131906 
L 499.275969 263.017221 
L 500.316401 262.664948 
L 501.356834 262.07235 
L 502.471583 261.171057 
L 503.734965 259.835364 
L 505.36993 257.73768 
L 507.302162 255.299953 
L 508.193961 254.515204 
L 508.86281 254.181295 
L 509.457343 254.099551 
L 510.051876 254.226228 
L 510.720725 254.60133 
L 511.538208 255.333487 
L 512.80159 256.820655 
L 515.179721 259.65434 
L 516.368787 260.726788 
L 517.483536 261.440585 
L 518.523968 261.838528 
L 519.490084 261.972762 
L 520.4562 261.880476 
L 521.422316 261.562428 
L 522.388432 261.017442 
L 523.428864 260.178099 
L 524.61793 258.914689 
L 526.104262 256.975621 
L 528.33376 254.047723 
L 529.225559 253.261818 
L 529.894408 252.94552 
L 530.488941 252.891268 
L 531.083474 253.053756 
L 531.752323 253.474239 
L 532.569806 254.262253 
L 533.907505 255.911954 
L 535.914053 258.350687 
L 537.103118 259.455518 
L 538.143551 260.138429 
L 539.109667 260.511195 
L 540.001466 260.627106 
L 540.893265 260.530185 
L 541.785064 260.222337 
L 542.75118 259.651225 
L 543.791613 258.764169 
L 544.980678 257.438158 
L 546.541327 255.325072 
L 548.547875 252.581447 
L 549.365358 251.845339 
L 550.034207 251.530402 
L 550.62874 251.484656 
L 551.223273 251.660116 
L 551.892122 252.100139 
L 552.709605 252.923751 
L 554.12162 254.738498 
L 555.979535 257.064935 
L 557.094284 258.09416 
L 558.0604 258.700212 
L 558.952199 259.012769 
L 559.769682 259.082539 
L 560.587164 258.944659 
L 561.478963 258.580179 
L 562.445079 257.936771 
L 563.411195 257.020012 
L 564.525944 255.649806 
L 566.160909 253.237879 
L 567.721558 251.045517 
L 568.53904 250.241744 
L 569.20789 249.875588 
L 569.802423 249.804726 
L 570.396955 249.977841 
L 571.065805 250.441154 
L 571.883287 251.307354 
L 573.443936 253.380961 
L 575.004585 255.316192 
L 576.045017 256.284838 
L 577.011133 256.887787 
L 577.902932 257.172916 
L 578.720415 257.199301 
L 579.537897 256.998987 
L 580.35538 256.572145 
L 581.247179 255.855114 
L 582.213295 254.794863 
L 583.40236 253.134825 
L 586.523658 248.55353 
L 587.192507 248.021781 
L 587.78704 247.810643 
L 588.307256 247.841644 
L 588.901789 248.114365 
L 589.570638 248.682697 
L 590.536754 249.84851 
L 593.360785 253.492169 
L 594.326901 254.315692 
L 595.2187 254.782931 
L 596.036182 254.948705 
L 596.779348 254.876064 
L 597.522514 254.588843 
L 598.339997 254.026171 
L 599.231796 253.127812 
L 600.272229 251.739397 
L 601.684244 249.430362 
L 603.393526 246.688428 
L 604.211009 245.783394 
L 604.805541 245.4132 
L 605.325758 245.31808 
L 605.845974 245.43909 
L 606.440507 245.820279 
L 607.183673 246.589685 
L 608.447055 248.30622 
L 610.08202 250.457333 
L 611.048136 251.380509 
L 611.865618 251.878218 
L 612.608784 252.083331 
L 613.35195 252.04341 
L 614.095116 251.754614 
L 614.838282 251.217625 
L 615.655765 250.350592 
L 616.621881 248.981696 
L 617.95958 246.636456 
L 619.743178 243.533506 
L 620.486344 242.641592 
L 621.080877 242.229069 
L 621.601093 242.118647 
L 622.121309 242.241621 
L 622.715842 242.640368 
L 623.459008 243.443805 
L 624.871023 245.40537 
L 626.208722 247.102477 
L 627.100521 247.888443 
L 627.843687 248.26444 
L 628.512537 248.363145 
L 629.10707 248.237831 
L 629.775919 247.867983 
L 630.519085 247.177899 
L 631.336568 246.094674 
L 632.302683 244.433524 
L 635.572614 238.419045 
L 636.167147 237.914441 
L 636.687363 237.748757 
L 637.207579 237.841667 
L 637.727795 238.168783 
L 638.396645 238.858838 
L 641.592258 242.621859 
L 642.261108 242.945979 
L 642.855641 243.011693 
L 643.450173 242.84646 
L 644.044706 242.438509 
L 644.713556 241.70357 
L 645.531038 240.427071 
L 646.497154 238.462431 
L 649.469818 232.036359 
L 650.064351 231.393656 
L 650.584567 231.132429 
L 651.030467 231.131623 
L 651.550683 231.365161 
L 652.219532 231.945913 
L 654.67198 234.366357 
L 655.266513 234.55657 
L 655.786729 234.507057 
L 656.306945 234.217954 
L 656.901478 233.603165 
L 657.570328 232.547707 
L 658.313494 230.934009 
L 659.279609 228.23673 
L 661.955007 220.328928 
L 662.698173 219.020665 
L 663.367022 218.294852 
L 663.812922 218.115875 
L 665.968103 217.559745 
L 666.48832 216.966851 
L 667.231486 215.611198 
L 667.826018 214.098238 
L 669.31235 206.855959 
L 670.352783 199.548441 
L 671.616165 188.746426 
L 672.210698 182.330021 
L 672.210698 182.330021 
" clip-path="url(#p006e3426e6)" style="fill: none; stroke: #ff7f0e; stroke-width: 1.5; stroke-linecap: square"/>
   </g>
   <g id="patch_3">
    <path d="M 36.465625 284.4 
L 36.465625 7.2 
" style="fill: none; stroke: #000000; stroke-width: 0.8; stroke-linejoin: miter; stroke-linecap: square"/>
   </g>
   <g id="patch_4">
    <path d="M 706.065625 284.4 
L 706.065625 7.2 
" style="fill: none; stroke: #000000; stroke-width: 0.8; stroke-linejoin: miter; stroke-linecap: square"/>
   </g>
   <g id="patch_5">
    <path d="M 36.465625 284.4 
L 706.065625 284.4 
" style="fill: none; stroke: #000000; stroke-width: 0.8; stroke-linejoin: miter; stroke-linecap: square"/>
   </g>
   <g id="patch_6">
    <path d="M 36.465625 7.2 
L 706.065625 7.2 
" style="fill: none; stroke: #000000; stroke-width: 0.8; stroke-linejoin: miter; stroke-linecap: square"/>
   </g>
   <g id="legend_1">
    <g id="patch_7">
     <path d="M 43.465625 73.9125 
L 206.465625 73.9125 
Q 208.465625 73.9125 208.465625 71.9125 
L 208.465625 14.2 
Q 208.465625 12.2 206.465625 12.2 
L 43.465625 12.2 
Q 41.465625 12.2 41.465625 14.2 
L 41.465625 71.9125 
Q 41.465625 73.9125 43.465625 73.9125 
z
" style="fill: #ffffff; opacity: 0.8; stroke: #cccccc; stroke-linejoin: miter"/>
    </g>
    <g id="line2d_18">
     <path d="M 45.465625 20.298438 
L 55.465625 20.298438 
L 65.465625 20.298438 
" style="fill: none; stroke: #1f77b4; stroke-width: 1.5; stroke-linecap: square"/>
    </g>
    <g id="text_15">
     <!-- Mf before ISCO cut: $e$=0.1 -->
     <g transform="translate(73.465625 23.798438) scale(0.1 -0.1)">
      <defs>
       <path id="DejaVuSans-4d" d="M 628 4666 
L 1569 4666 
L 2759 1491 
L 3956 4666 
L 4897 4666 
L 4897 0 
L 4281 0 
L 4281 4097 
L 3078 897 
L 2444 897 
L 1241 4097 
L 1241 0 
L 628 0 
L 628 4666 
z
" transform="scale(0.015625)"/>
       <path id="DejaVuSans-66" d="M 2375 4863 
L 2375 4384 
L 1825 4384 
Q 1516 4384 1395 4259 
Q 1275 4134 1275 3809 
L 1275 3500 
L 2222 3500 
L 2222 3053 
L 1275 3053 
L 1275 0 
L 697 0 
L 697 3053 
L 147 3053 
L 147 3500 
L 697 3500 
L 697 3744 
Q 697 4328 969 4595 
Q 1241 4863 1831 4863 
L 2375 4863 
z
" transform="scale(0.015625)"/>
       <path id="DejaVuSans-20" transform="scale(0.015625)"/>
       <path id="DejaVuSans-62" d="M 3116 1747 
Q 3116 2381 2855 2742 
Q 2594 3103 2138 3103 
Q 1681 3103 1420 2742 
Q 1159 2381 1159 1747 
Q 1159 1113 1420 752 
Q 1681 391 2138 391 
Q 2594 391 2855 752 
Q 3116 1113 3116 1747 
z
M 1159 2969 
Q 1341 3281 1617 3432 
Q 1894 3584 2278 3584 
Q 2916 3584 3314 3078 
Q 3713 2572 3713 1747 
Q 3713 922 3314 415 
Q 2916 -91 2278 -91 
Q 1894 -91 1617 61 
Q 1341 213 1159 525 
L 1159 0 
L 581 0 
L 581 4863 
L 1159 4863 
L 1159 2969 
z
" transform="scale(0.015625)"/>
       <path id="DejaVuSans-65" d="M 3597 1894 
L 3597 1613 
L 953 1613 
Q 991 1019 1311 708 
Q 1631 397 2203 397 
Q 2534 397 2845 478 
Q 3156 559 3463 722 
L 3463 178 
Q 3153 47 2828 -22 
Q 2503 -91 2169 -91 
Q 1331 -91 842 396 
Q 353 884 353 1716 
Q 353 2575 817 3079 
Q 1281 3584 2069 3584 
Q 2775 3584 3186 3129 
Q 3597 2675 3597 1894 
z
M 3022 2063 
Q 3016 2534 2758 2815 
Q 2500 3097 2075 3097 
Q 1594 3097 1305 2825 
Q 1016 2553 972 2059 
L 3022 2063 
z
" transform="scale(0.015625)"/>
       <path id="DejaVuSans-6f" d="M 1959 3097 
Q 1497 3097 1228 2736 
Q 959 2375 959 1747 
Q 959 1119 1226 758 
Q 1494 397 1959 397 
Q 2419 397 2687 759 
Q 2956 1122 2956 1747 
Q 2956 2369 2687 2733 
Q 2419 3097 1959 3097 
z
M 1959 3584 
Q 2709 3584 3137 3096 
Q 3566 2609 3566 1747 
Q 3566 888 3137 398 
Q 2709 -91 1959 -91 
Q 1206 -91 779 398 
Q 353 888 353 1747 
Q 353 2609 779 3096 
Q 1206 3584 1959 3584 
z
" transform="scale(0.015625)"/>
       <path id="DejaVuSans-72" d="M 2631 2963 
Q 2534 3019 2420 3045 
Q 2306 3072 2169 3072 
Q 1681 3072 1420 2755 
Q 1159 2438 1159 1844 
L 1159 0 
L 581 0 
L 581 3500 
L 1159 3500 
L 1159 2956 
Q 1341 3275 1631 3429 
Q 1922 3584 2338 3584 
Q 2397 3584 2469 3576 
Q 2541 3569 2628 3553 
L 2631 2963 
z
" transform="scale(0.015625)"/>
       <path id="DejaVuSans-49" d="M 628 4666 
L 1259 4666 
L 1259 0 
L 628 0 
L 628 4666 
z
" transform="scale(0.015625)"/>
       <path id="DejaVuSans-53" d="M 3425 4513 
L 3425 3897 
Q 3066 4069 2747 4153 
Q 2428 4238 2131 4238 
Q 1616 4238 1336 4038 
Q 1056 3838 1056 3469 
Q 1056 3159 1242 3001 
Q 1428 2844 1947 2747 
L 2328 2669 
Q 3034 2534 3370 2195 
Q 3706 1856 3706 1288 
Q 3706 609 3251 259 
Q 2797 -91 1919 -91 
Q 1588 -91 1214 -16 
Q 841 59 441 206 
L 441 856 
Q 825 641 1194 531 
Q 1563 422 1919 422 
Q 2459 422 2753 634 
Q 3047 847 3047 1241 
Q 3047 1584 2836 1778 
Q 2625 1972 2144 2069 
L 1759 2144 
Q 1053 2284 737 2584 
Q 422 2884 422 3419 
Q 422 4038 858 4394 
Q 1294 4750 2059 4750 
Q 2388 4750 2728 4690 
Q 3069 4631 3425 4513 
z
" transform="scale(0.015625)"/>
       <path id="DejaVuSans-43" d="M 4122 4306 
L 4122 3641 
Q 3803 3938 3442 4084 
Q 3081 4231 2675 4231 
Q 1875 4231 1450 3742 
Q 1025 3253 1025 2328 
Q 1025 1406 1450 917 
Q 1875 428 2675 428 
Q 3081 428 3442 575 
Q 3803 722 4122 1019 
L 4122 359 
Q 3791 134 3420 21 
Q 3050 -91 2638 -91 
Q 1578 -91 968 557 
Q 359 1206 359 2328 
Q 359 3453 968 4101 
Q 1578 4750 2638 4750 
Q 3056 4750 3426 4639 
Q 3797 4528 4122 4306 
z
" transform="scale(0.015625)"/>
       <path id="DejaVuSans-4f" d="M 2522 4238 
Q 1834 4238 1429 3725 
Q 1025 3213 1025 2328 
Q 1025 1447 1429 934 
Q 1834 422 2522 422 
Q 3209 422 3611 934 
Q 4013 1447 4013 2328 
Q 4013 3213 3611 3725 
Q 3209 4238 2522 4238 
z
M 2522 4750 
Q 3503 4750 4090 4092 
Q 4678 3434 4678 2328 
Q 4678 1225 4090 567 
Q 3503 -91 2522 -91 
Q 1538 -91 948 565 
Q 359 1222 359 2328 
Q 359 3434 948 4092 
Q 1538 4750 2522 4750 
z
" transform="scale(0.015625)"/>
       <path id="DejaVuSans-63" d="M 3122 3366 
L 3122 2828 
Q 2878 2963 2633 3030 
Q 2388 3097 2138 3097 
Q 1578 3097 1268 2742 
Q 959 2388 959 1747 
Q 959 1106 1268 751 
Q 1578 397 2138 397 
Q 2388 397 2633 464 
Q 2878 531 3122 666 
L 3122 134 
Q 2881 22 2623 -34 
Q 2366 -91 2075 -91 
Q 1284 -91 818 406 
Q 353 903 353 1747 
Q 353 2603 823 3093 
Q 1294 3584 2113 3584 
Q 2378 3584 2631 3529 
Q 2884 3475 3122 3366 
z
" transform="scale(0.015625)"/>
       <path id="DejaVuSans-75" d="M 544 1381 
L 544 3500 
L 1119 3500 
L 1119 1403 
Q 1119 906 1312 657 
Q 1506 409 1894 409 
Q 2359 409 2629 706 
Q 2900 1003 2900 1516 
L 2900 3500 
L 3475 3500 
L 3475 0 
L 2900 0 
L 2900 538 
Q 2691 219 2414 64 
Q 2138 -91 1772 -91 
Q 1169 -91 856 284 
Q 544 659 544 1381 
z
M 1991 3584 
L 1991 3584 
z
" transform="scale(0.015625)"/>
       <path id="DejaVuSans-74" d="M 1172 4494 
L 1172 3500 
L 2356 3500 
L 2356 3053 
L 1172 3053 
L 1172 1153 
Q 1172 725 1289 603 
Q 1406 481 1766 481 
L 2356 481 
L 2356 0 
L 1766 0 
Q 1100 0 847 248 
Q 594 497 594 1153 
L 594 3053 
L 172 3053 
L 172 3500 
L 594 3500 
L 594 4494 
L 1172 4494 
z
" transform="scale(0.015625)"/>
       <path id="DejaVuSans-3a" d="M 750 794 
L 1409 794 
L 1409 0 
L 750 0 
L 750 794 
z
M 750 3309 
L 1409 3309 
L 1409 2516 
L 750 2516 
L 750 3309 
z
" transform="scale(0.015625)"/>
       <path id="DejaVuSans-Oblique-65" d="M 3078 2063 
Q 3088 2113 3092 2166 
Q 3097 2219 3097 2272 
Q 3097 2653 2873 2875 
Q 2650 3097 2266 3097 
Q 1838 3097 1509 2826 
Q 1181 2556 1013 2059 
L 3078 2063 
z
M 3578 1613 
L 903 1613 
Q 884 1494 878 1425 
Q 872 1356 872 1306 
Q 872 872 1139 634 
Q 1406 397 1894 397 
Q 2269 397 2603 481 
Q 2938 566 3225 728 
L 3116 159 
Q 2806 34 2476 -28 
Q 2147 -91 1806 -91 
Q 1078 -91 686 257 
Q 294 606 294 1247 
Q 294 1794 489 2264 
Q 684 2734 1063 3103 
Q 1306 3334 1642 3459 
Q 1978 3584 2356 3584 
Q 2950 3584 3301 3228 
Q 3653 2872 3653 2272 
Q 3653 2128 3634 1964 
Q 3616 1800 3578 1613 
z
" transform="scale(0.015625)"/>
       <path id="DejaVuSans-3d" d="M 678 2906 
L 4684 2906 
L 4684 2381 
L 678 2381 
L 678 2906 
z
M 678 1631 
L 4684 1631 
L 4684 1100 
L 678 1100 
L 678 1631 
z
" transform="scale(0.015625)"/>
      </defs>
      <use xlink:href="#DejaVuSans-4d" transform="translate(0 0.015625)"/>
      <use xlink:href="#DejaVuSans-66" transform="translate(86.279297 0.015625)"/>
      <use xlink:href="#DejaVuSans-20" transform="translate(121.484375 0.015625)"/>
      <use xlink:href="#DejaVuSans-62" transform="translate(153.271484 0.015625)"/>
      <use xlink:href="#DejaVuSans-65" transform="translate(216.748047 0.015625)"/>
      <use xlink:href="#DejaVuSans-66" transform="translate(278.271484 0.015625)"/>
      <use xlink:href="#DejaVuSans-6f" transform="translate(313.476562 0.015625)"/>
      <use xlink:href="#DejaVuSans-72" transform="translate(374.658203 0.015625)"/>
      <use xlink:href="#DejaVuSans-65" transform="translate(415.771484 0.015625)"/>
      <use xlink:href="#DejaVuSans-20" transform="translate(477.294922 0.015625)"/>
      <use xlink:href="#DejaVuSans-49" transform="translate(509.082031 0.015625)"/>
      <use xlink:href="#DejaVuSans-53" transform="translate(538.574219 0.015625)"/>
      <use xlink:href="#DejaVuSans-43" transform="translate(602.050781 0.015625)"/>
      <use xlink:href="#DejaVuSans-4f" transform="translate(671.875 0.015625)"/>
      <use xlink:href="#DejaVuSans-20" transform="translate(750.585938 0.015625)"/>
      <use xlink:href="#DejaVuSans-63" transform="translate(782.373047 0.015625)"/>
      <use xlink:href="#DejaVuSans-75" transform="translate(837.353516 0.015625)"/>
      <use xlink:href="#DejaVuSans-74" transform="translate(900.732422 0.015625)"/>
      <use xlink:href="#DejaVuSans-3a" transform="translate(939.941406 0.015625)"/>
      <use xlink:href="#DejaVuSans-20" transform="translate(973.632812 0.015625)"/>
      <use xlink:href="#DejaVuSans-Oblique-65" transform="translate(1005.419922 0.015625)"/>
      <use xlink:href="#DejaVuSans-3d" transform="translate(1066.943359 0.015625)"/>
      <use xlink:href="#DejaVuSans-30" transform="translate(1150.732422 0.015625)"/>
      <use xlink:href="#DejaVuSans-2e" transform="translate(1214.355469 0.015625)"/>
      <use xlink:href="#DejaVuSans-31" transform="translate(1246.142578 0.015625)"/>
     </g>
    </g>
    <g id="line2d_19">
     <path d="M 45.465625 34.976563 
L 55.465625 34.976563 
L 65.465625 34.976563 
" style="fill: none; stroke-dasharray: 2.22,0.96; stroke-dashoffset: 0; stroke: #ff0000; stroke-width: 0.6"/>
    </g>
    <g id="text_16">
     <!-- Mf ISCO $e$=0 -->
     <g transform="translate(73.465625 38.476563) scale(0.1 -0.1)">
      <use xlink:href="#DejaVuSans-4d" transform="translate(0 0.015625)"/>
      <use xlink:href="#DejaVuSans-66" transform="translate(86.279297 0.015625)"/>
      <use xlink:href="#DejaVuSans-20" transform="translate(121.484375 0.015625)"/>
      <use xlink:href="#DejaVuSans-49" transform="translate(153.271484 0.015625)"/>
      <use xlink:href="#DejaVuSans-53" transform="translate(182.763672 0.015625)"/>
      <use xlink:href="#DejaVuSans-43" transform="translate(246.240234 0.015625)"/>
      <use xlink:href="#DejaVuSans-4f" transform="translate(316.064453 0.015625)"/>
      <use xlink:href="#DejaVuSans-20" transform="translate(394.775391 0.015625)"/>
      <use xlink:href="#DejaVuSans-Oblique-65" transform="translate(426.5625 0.015625)"/>
      <use xlink:href="#DejaVuSans-3d" transform="translate(488.085938 0.015625)"/>
      <use xlink:href="#DejaVuSans-30" transform="translate(571.875 0.015625)"/>
     </g>
    </g>
    <g id="PathCollection_2">
     <g>
      <use xlink:href="#mcebf0041e5" x="55.465625" y="50.529688" style="fill: #ff0000; stroke: #ff0000"/>
     </g>
    </g>
    <g id="text_17">
     <!-- ISCO cut -->
     <g transform="translate(73.465625 53.154688) scale(0.1 -0.1)">
      <use xlink:href="#DejaVuSans-49"/>
      <use xlink:href="#DejaVuSans-53" transform="translate(29.492188 0)"/>
      <use xlink:href="#DejaVuSans-43" transform="translate(92.96875 0)"/>
      <use xlink:href="#DejaVuSans-4f" transform="translate(162.792969 0)"/>
      <use xlink:href="#DejaVuSans-20" transform="translate(241.503906 0)"/>
      <use xlink:href="#DejaVuSans-63" transform="translate(273.291016 0)"/>
      <use xlink:href="#DejaVuSans-75" transform="translate(328.271484 0)"/>
      <use xlink:href="#DejaVuSans-74" transform="translate(391.650391 0)"/>
     </g>
    </g>
    <g id="line2d_20">
     <path d="M 45.465625 64.332813 
L 55.465625 64.332813 
L 65.465625 64.332813 
" style="fill: none; stroke: #ff7f0e; stroke-width: 1.5; stroke-linecap: square"/>
    </g>
    <g id="text_18">
     <!-- Mf after ISCO cut: $e$=0.1  -->
     <g transform="translate(73.465625 67.832813) scale(0.1 -0.1)">
      <defs>
       <path id="DejaVuSans-61" d="M 2194 1759 
Q 1497 1759 1228 1600 
Q 959 1441 959 1056 
Q 959 750 1161 570 
Q 1363 391 1709 391 
Q 2188 391 2477 730 
Q 2766 1069 2766 1631 
L 2766 1759 
L 2194 1759 
z
M 3341 1997 
L 3341 0 
L 2766 0 
L 2766 531 
Q 2569 213 2275 61 
Q 1981 -91 1556 -91 
Q 1019 -91 701 211 
Q 384 513 384 1019 
Q 384 1609 779 1909 
Q 1175 2209 1959 2209 
L 2766 2209 
L 2766 2266 
Q 2766 2663 2505 2880 
Q 2244 3097 1772 3097 
Q 1472 3097 1187 3025 
Q 903 2953 641 2809 
L 641 3341 
Q 956 3463 1253 3523 
Q 1550 3584 1831 3584 
Q 2591 3584 2966 3190 
Q 3341 2797 3341 1997 
z
" transform="scale(0.015625)"/>
      </defs>
      <use xlink:href="#DejaVuSans-4d" transform="translate(0 0.015625)"/>
      <use xlink:href="#DejaVuSans-66" transform="translate(86.279297 0.015625)"/>
      <use xlink:href="#DejaVuSans-20" transform="translate(121.484375 0.015625)"/>
      <use xlink:href="#DejaVuSans-61" transform="translate(153.271484 0.015625)"/>
      <use xlink:href="#DejaVuSans-66" transform="translate(214.550781 0.015625)"/>
      <use xlink:href="#DejaVuSans-74" transform="translate(249.755859 0.015625)"/>
      <use xlink:href="#DejaVuSans-65" transform="translate(288.964844 0.015625)"/>
      <use xlink:href="#DejaVuSans-72" transform="translate(350.488281 0.015625)"/>
      <use xlink:href="#DejaVuSans-20" transform="translate(391.601562 0.015625)"/>
      <use xlink:href="#DejaVuSans-49" transform="translate(423.388672 0.015625)"/>
      <use xlink:href="#DejaVuSans-53" transform="translate(452.880859 0.015625)"/>
      <use xlink:href="#DejaVuSans-43" transform="translate(516.357422 0.015625)"/>
      <use xlink:href="#DejaVuSans-4f" transform="translate(586.181641 0.015625)"/>
      <use xlink:href="#DejaVuSans-20" transform="translate(664.892578 0.015625)"/>
      <use xlink:href="#DejaVuSans-63" transform="translate(696.679688 0.015625)"/>
      <use xlink:href="#DejaVuSans-75" transform="translate(751.660156 0.015625)"/>
      <use xlink:href="#DejaVuSans-74" transform="translate(815.039062 0.015625)"/>
      <use xlink:href="#DejaVuSans-3a" transform="translate(854.248047 0.015625)"/>
      <use xlink:href="#DejaVuSans-20" transform="translate(887.939453 0.015625)"/>
      <use xlink:href="#DejaVuSans-Oblique-65" transform="translate(919.726562 0.015625)"/>
      <use xlink:href="#DejaVuSans-3d" transform="translate(981.25 0.015625)"/>
      <use xlink:href="#DejaVuSans-30" transform="translate(1065.039062 0.015625)"/>
      <use xlink:href="#DejaVuSans-2e" transform="translate(1128.662109 0.015625)"/>
      <use xlink:href="#DejaVuSans-31" transform="translate(1160.449219 0.015625)"/>
      <use xlink:href="#DejaVuSans-20" transform="translate(1224.072266 0.015625)"/>
     </g>
    </g>
   </g>
  </g>
 </g>
 <defs>
  <clipPath id="p006e3426e6">
   <rect x="36.465625" y="7.2" width="669.6" height="277.2"/>
  </clipPath>
 </defs>
</svg>
