<?xml version="1.0" encoding="utf-8" standalone="no"?>
<!DOCTYPE svg PUBLIC "-//W3C//DTD SVG 1.1//EN"
  "http://www.w3.org/Graphics/SVG/1.1/DTD/svg11.dtd">
<svg xmlns:xlink="http://www.w3.org/1999/xlink" width="713.265625pt" height="308.278125pt" viewBox="0 0 713.265625 308.278125" xmlns="http://www.w3.org/2000/svg" version="1.1">
 <metadata>
  <rdf:RDF xmlns:dc="http://purl.org/dc/elements/1.1/" xmlns:cc="http://creativecommons.org/ns#" xmlns:rdf="http://www.w3.org/1999/02/22-rdf-syntax-ns#">
   <cc:Work>
    <dc:type rdf:resource="http://purl.org/dc/dcmitype/StillImage"/>
    <dc:date>2025-09-03T17:24:06.171302</dc:date>
    <dc:format>image/svg+xml</dc:format>
    <dc:creator>
     <cc:Agent>
      <dc:title>Matplotlib v3.10.5, https://matplotlib.org/</dc:title>
     </cc:Agent>
    </dc:creator>
   </cc:Work>
  </rdf:RDF>
 </metadata>
 <defs>
  <style type="text/css">*{stroke-linejoin: round; stroke-linecap: butt}</style>
 </defs>
 <g id="figure_1">
  <g id="patch_1">
   <path d="M 0 308.278125 
L 713.265625 308.278125 
L 713.265625 0 
L 0 0 
z
" style="fill: #ffffff"/>
  </g>
  <g id="axes_1">
   <g id="patch_2">
    <path d="M 36.465625 284.4 
L 706.065625 284.4 
L 706.065625 7.2 
L 36.465625 7.2 
z
" style="fill: #ffffff"/>
   </g>
   <g id="PathCollection_1">
    <defs>
     <path id="m089bbcbdb5" d="M 0 1.224745 
C 0.324806 1.224745 0.636353 1.095698 0.866025 0.866025 
C 1.095698 0.636353 1.224745 0.324806 1.224745 0 
C 1.224745 -0.324806 1.095698 -0.636353 0.866025 -0.866025 
C 0.636353 -1.095698 0.324806 -1.224745 0 -1.224745 
C -0.324806 -1.224745 -0.636353 -1.095698 -0.866025 -0.866025 
C -1.095698 -0.636353 -1.224745 -0.324806 -1.224745 0 
C -1.224745 0.324806 -1.095698 0.636353 -0.866025 0.866025 
C -0.636353 1.095698 -0.324806 1.224745 0 1.224745 
z
" style="stroke: #ff0000"/>
    </defs>
    <g clip-path="url(#p10758bb5e5)">
     <use xlink:href="#m089bbcbdb5" x="662.579622" y="181.726085" style="fill: #ff0000; stroke: #ff0000"/>
    </g>
   </g>
   <g id="matplotlib.axis_1">
    <g id="xtick_1">
     <g id="line2d_1">
      <defs>
       <path id="m64ffca3a3d" d="M 0 0 
L 0 3.5 
" style="stroke: #000000; stroke-width: 0.8"/>
      </defs>
      <g>
       <use xlink:href="#m64ffca3a3d" x="56.236652" y="284.4" style="stroke: #000000; stroke-width: 0.8"/>
      </g>
     </g>
     <g id="text_1">
      <!-- −4000 -->
      <g transform="translate(39.321808 298.998438) scale(0.1 -0.1)">
       <defs>
        <path id="DejaVuSans-2212" d="M 678 2272 
L 4684 2272 
L 4684 1741 
L 678 1741 
L 678 2272 
z
" transform="scale(0.015625)"/>
        <path id="DejaVuSans-34" d="M 2419 4116 
L 825 1625 
L 2419 1625 
L 2419 4116 
z
M 2253 4666 
L 3047 4666 
L 3047 1625 
L 3713 1625 
L 3713 1100 
L 3047 1100 
L 3047 0 
L 2419 0 
L 2419 1100 
L 313 1100 
L 313 1709 
L 2253 4666 
z
" transform="scale(0.015625)"/>
        <path id="DejaVuSans-30" d="M 2034 4250 
Q 1547 4250 1301 3770 
Q 1056 3291 1056 2328 
Q 1056 1369 1301 889 
Q 1547 409 2034 409 
Q 2525 409 2770 889 
Q 3016 1369 3016 2328 
Q 3016 3291 2770 3770 
Q 2525 4250 2034 4250 
z
M 2034 4750 
Q 2819 4750 3233 4129 
Q 3647 3509 3647 2328 
Q 3647 1150 3233 529 
Q 2819 -91 2034 -91 
Q 1250 -91 836 529 
Q 422 1150 422 2328 
Q 422 3509 836 4129 
Q 1250 4750 2034 4750 
z
" transform="scale(0.015625)"/>
       </defs>
       <use xlink:href="#DejaVuSans-2212"/>
       <use xlink:href="#DejaVuSans-34" transform="translate(83.789062 0)"/>
       <use xlink:href="#DejaVuSans-30" transform="translate(147.412109 0)"/>
       <use xlink:href="#DejaVuSans-30" transform="translate(211.035156 0)"/>
       <use xlink:href="#DejaVuSans-30" transform="translate(274.658203 0)"/>
      </g>
     </g>
    </g>
    <g id="xtick_2">
     <g id="line2d_2">
      <g>
       <use xlink:href="#m64ffca3a3d" x="133.660728" y="284.4" style="stroke: #000000; stroke-width: 0.8"/>
      </g>
     </g>
     <g id="text_2">
      <!-- −3500 -->
      <g transform="translate(116.745884 298.998438) scale(0.1 -0.1)">
       <defs>
        <path id="DejaVuSans-33" d="M 2597 2516 
Q 3050 2419 3304 2112 
Q 3559 1806 3559 1356 
Q 3559 666 3084 287 
Q 2609 -91 1734 -91 
Q 1441 -91 1130 -33 
Q 819 25 488 141 
L 488 750 
Q 750 597 1062 519 
Q 1375 441 1716 441 
Q 2309 441 2620 675 
Q 2931 909 2931 1356 
Q 2931 1769 2642 2001 
Q 2353 2234 1838 2234 
L 1294 2234 
L 1294 2753 
L 1863 2753 
Q 2328 2753 2575 2939 
Q 2822 3125 2822 3475 
Q 2822 3834 2567 4026 
Q 2313 4219 1838 4219 
Q 1578 4219 1281 4162 
Q 984 4106 628 3988 
L 628 4550 
Q 988 4650 1302 4700 
Q 1616 4750 1894 4750 
Q 2613 4750 3031 4423 
Q 3450 4097 3450 3541 
Q 3450 3153 3228 2886 
Q 3006 2619 2597 2516 
z
" transform="scale(0.015625)"/>
        <path id="DejaVuSans-35" d="M 691 4666 
L 3169 4666 
L 3169 4134 
L 1269 4134 
L 1269 2991 
Q 1406 3038 1543 3061 
Q 1681 3084 1819 3084 
Q 2600 3084 3056 2656 
Q 3513 2228 3513 1497 
Q 3513 744 3044 326 
Q 2575 -91 1722 -91 
Q 1428 -91 1123 -41 
Q 819 9 494 109 
L 494 744 
Q 775 591 1075 516 
Q 1375 441 1709 441 
Q 2250 441 2565 725 
Q 2881 1009 2881 1497 
Q 2881 1984 2565 2268 
Q 2250 2553 1709 2553 
Q 1456 2553 1204 2497 
Q 953 2441 691 2322 
L 691 4666 
z
" transform="scale(0.015625)"/>
       </defs>
       <use xlink:href="#DejaVuSans-2212"/>
       <use xlink:href="#DejaVuSans-33" transform="translate(83.789062 0)"/>
       <use xlink:href="#DejaVuSans-35" transform="translate(147.412109 0)"/>
       <use xlink:href="#DejaVuSans-30" transform="translate(211.035156 0)"/>
       <use xlink:href="#DejaVuSans-30" transform="translate(274.658203 0)"/>
      </g>
     </g>
    </g>
    <g id="xtick_3">
     <g id="line2d_3">
      <g>
       <use xlink:href="#m64ffca3a3d" x="211.084804" y="284.4" style="stroke: #000000; stroke-width: 0.8"/>
      </g>
     </g>
     <g id="text_3">
      <!-- −3000 -->
      <g transform="translate(194.16996 298.998438) scale(0.1 -0.1)">
       <use xlink:href="#DejaVuSans-2212"/>
       <use xlink:href="#DejaVuSans-33" transform="translate(83.789062 0)"/>
       <use xlink:href="#DejaVuSans-30" transform="translate(147.412109 0)"/>
       <use xlink:href="#DejaVuSans-30" transform="translate(211.035156 0)"/>
       <use xlink:href="#DejaVuSans-30" transform="translate(274.658203 0)"/>
      </g>
     </g>
    </g>
    <g id="xtick_4">
     <g id="line2d_4">
      <g>
       <use xlink:href="#m64ffca3a3d" x="288.50888" y="284.4" style="stroke: #000000; stroke-width: 0.8"/>
      </g>
     </g>
     <g id="text_4">
      <!-- −2500 -->
      <g transform="translate(271.594036 298.998438) scale(0.1 -0.1)">
       <defs>
        <path id="DejaVuSans-32" d="M 1228 531 
L 3431 531 
L 3431 0 
L 469 0 
L 469 531 
Q 828 903 1448 1529 
Q 2069 2156 2228 2338 
Q 2531 2678 2651 2914 
Q 2772 3150 2772 3378 
Q 2772 3750 2511 3984 
Q 2250 4219 1831 4219 
Q 1534 4219 1204 4116 
Q 875 4013 500 3803 
L 500 4441 
Q 881 4594 1212 4672 
Q 1544 4750 1819 4750 
Q 2544 4750 2975 4387 
Q 3406 4025 3406 3419 
Q 3406 3131 3298 2873 
Q 3191 2616 2906 2266 
Q 2828 2175 2409 1742 
Q 1991 1309 1228 531 
z
" transform="scale(0.015625)"/>
       </defs>
       <use xlink:href="#DejaVuSans-2212"/>
       <use xlink:href="#DejaVuSans-32" transform="translate(83.789062 0)"/>
       <use xlink:href="#DejaVuSans-35" transform="translate(147.412109 0)"/>
       <use xlink:href="#DejaVuSans-30" transform="translate(211.035156 0)"/>
       <use xlink:href="#DejaVuSans-30" transform="translate(274.658203 0)"/>
      </g>
     </g>
    </g>
    <g id="xtick_5">
     <g id="line2d_5">
      <g>
       <use xlink:href="#m64ffca3a3d" x="365.932956" y="284.4" style="stroke: #000000; stroke-width: 0.8"/>
      </g>
     </g>
     <g id="text_5">
      <!-- −2000 -->
      <g transform="translate(349.018113 298.998438) scale(0.1 -0.1)">
       <use xlink:href="#DejaVuSans-2212"/>
       <use xlink:href="#DejaVuSans-32" transform="translate(83.789062 0)"/>
       <use xlink:href="#DejaVuSans-30" transform="translate(147.412109 0)"/>
       <use xlink:href="#DejaVuSans-30" transform="translate(211.035156 0)"/>
       <use xlink:href="#DejaVuSans-30" transform="translate(274.658203 0)"/>
      </g>
     </g>
    </g>
    <g id="xtick_6">
     <g id="line2d_6">
      <g>
       <use xlink:href="#m64ffca3a3d" x="443.357033" y="284.4" style="stroke: #000000; stroke-width: 0.8"/>
      </g>
     </g>
     <g id="text_6">
      <!-- −1500 -->
      <g transform="translate(426.442189 298.998438) scale(0.1 -0.1)">
       <defs>
        <path id="DejaVuSans-31" d="M 794 531 
L 1825 531 
L 1825 4091 
L 703 3866 
L 703 4441 
L 1819 4666 
L 2450 4666 
L 2450 531 
L 3481 531 
L 3481 0 
L 794 0 
L 794 531 
z
" transform="scale(0.015625)"/>
       </defs>
       <use xlink:href="#DejaVuSans-2212"/>
       <use xlink:href="#DejaVuSans-31" transform="translate(83.789062 0)"/>
       <use xlink:href="#DejaVuSans-35" transform="translate(147.412109 0)"/>
       <use xlink:href="#DejaVuSans-30" transform="translate(211.035156 0)"/>
       <use xlink:href="#DejaVuSans-30" transform="translate(274.658203 0)"/>
      </g>
     </g>
    </g>
    <g id="xtick_7">
     <g id="line2d_7">
      <g>
       <use xlink:href="#m64ffca3a3d" x="520.781109" y="284.4" style="stroke: #000000; stroke-width: 0.8"/>
      </g>
     </g>
     <g id="text_7">
      <!-- −1000 -->
      <g transform="translate(503.866265 298.998438) scale(0.1 -0.1)">
       <use xlink:href="#DejaVuSans-2212"/>
       <use xlink:href="#DejaVuSans-31" transform="translate(83.789062 0)"/>
       <use xlink:href="#DejaVuSans-30" transform="translate(147.412109 0)"/>
       <use xlink:href="#DejaVuSans-30" transform="translate(211.035156 0)"/>
       <use xlink:href="#DejaVuSans-30" transform="translate(274.658203 0)"/>
      </g>
     </g>
    </g>
    <g id="xtick_8">
     <g id="line2d_8">
      <g>
       <use xlink:href="#m64ffca3a3d" x="598.205185" y="284.4" style="stroke: #000000; stroke-width: 0.8"/>
      </g>
     </g>
     <g id="text_8">
      <!-- −500 -->
      <g transform="translate(584.471591 298.998438) scale(0.1 -0.1)">
       <use xlink:href="#DejaVuSans-2212"/>
       <use xlink:href="#DejaVuSans-35" transform="translate(83.789062 0)"/>
       <use xlink:href="#DejaVuSans-30" transform="translate(147.412109 0)"/>
       <use xlink:href="#DejaVuSans-30" transform="translate(211.035156 0)"/>
      </g>
     </g>
    </g>
    <g id="xtick_9">
     <g id="line2d_9">
      <g>
       <use xlink:href="#m64ffca3a3d" x="675.629261" y="284.4" style="stroke: #000000; stroke-width: 0.8"/>
      </g>
     </g>
     <g id="text_9">
      <!-- 0 -->
      <g transform="translate(672.448011 298.998438) scale(0.1 -0.1)">
       <use xlink:href="#DejaVuSans-30"/>
      </g>
     </g>
    </g>
   </g>
   <g id="matplotlib.axis_2">
    <g id="ytick_1">
     <g id="line2d_10">
      <defs>
       <path id="m0c726b38b1" d="M 0 0 
L -3.5 0 
" style="stroke: #000000; stroke-width: 0.8"/>
      </defs>
      <g>
       <use xlink:href="#m0c726b38b1" x="36.465625" y="237.286099" style="stroke: #000000; stroke-width: 0.8"/>
      </g>
     </g>
     <g id="text_10">
      <!-- 0.01 -->
      <g transform="translate(7.2 241.085318) scale(0.1 -0.1)">
       <defs>
        <path id="DejaVuSans-2e" d="M 684 794 
L 1344 794 
L 1344 0 
L 684 0 
L 684 794 
z
" transform="scale(0.015625)"/>
       </defs>
       <use xlink:href="#DejaVuSans-30"/>
       <use xlink:href="#DejaVuSans-2e" transform="translate(63.623047 0)"/>
       <use xlink:href="#DejaVuSans-30" transform="translate(95.410156 0)"/>
       <use xlink:href="#DejaVuSans-31" transform="translate(159.033203 0)"/>
      </g>
     </g>
    </g>
    <g id="ytick_2">
     <g id="line2d_11">
      <g>
       <use xlink:href="#m0c726b38b1" x="36.465625" y="189.86332" style="stroke: #000000; stroke-width: 0.8"/>
      </g>
     </g>
     <g id="text_11">
      <!-- 0.02 -->
      <g transform="translate(7.2 193.662539) scale(0.1 -0.1)">
       <use xlink:href="#DejaVuSans-30"/>
       <use xlink:href="#DejaVuSans-2e" transform="translate(63.623047 0)"/>
       <use xlink:href="#DejaVuSans-30" transform="translate(95.410156 0)"/>
       <use xlink:href="#DejaVuSans-32" transform="translate(159.033203 0)"/>
      </g>
     </g>
    </g>
    <g id="ytick_3">
     <g id="line2d_12">
      <g>
       <use xlink:href="#m0c726b38b1" x="36.465625" y="142.440542" style="stroke: #000000; stroke-width: 0.8"/>
      </g>
     </g>
     <g id="text_12">
      <!-- 0.03 -->
      <g transform="translate(7.2 146.23976) scale(0.1 -0.1)">
       <use xlink:href="#DejaVuSans-30"/>
       <use xlink:href="#DejaVuSans-2e" transform="translate(63.623047 0)"/>
       <use xlink:href="#DejaVuSans-30" transform="translate(95.410156 0)"/>
       <use xlink:href="#DejaVuSans-33" transform="translate(159.033203 0)"/>
      </g>
     </g>
    </g>
    <g id="ytick_4">
     <g id="line2d_13">
      <g>
       <use xlink:href="#m0c726b38b1" x="36.465625" y="95.017763" style="stroke: #000000; stroke-width: 0.8"/>
      </g>
     </g>
     <g id="text_13">
      <!-- 0.04 -->
      <g transform="translate(7.2 98.816981) scale(0.1 -0.1)">
       <use xlink:href="#DejaVuSans-30"/>
       <use xlink:href="#DejaVuSans-2e" transform="translate(63.623047 0)"/>
       <use xlink:href="#DejaVuSans-30" transform="translate(95.410156 0)"/>
       <use xlink:href="#DejaVuSans-34" transform="translate(159.033203 0)"/>
      </g>
     </g>
    </g>
    <g id="ytick_5">
     <g id="line2d_14">
      <g>
       <use xlink:href="#m0c726b38b1" x="36.465625" y="47.594984" style="stroke: #000000; stroke-width: 0.8"/>
      </g>
     </g>
     <g id="text_14">
      <!-- 0.05 -->
      <g transform="translate(7.2 51.394203) scale(0.1 -0.1)">
       <use xlink:href="#DejaVuSans-30"/>
       <use xlink:href="#DejaVuSans-2e" transform="translate(63.623047 0)"/>
       <use xlink:href="#DejaVuSans-30" transform="translate(95.410156 0)"/>
       <use xlink:href="#DejaVuSans-35" transform="translate(159.033203 0)"/>
      </g>
     </g>
    </g>
   </g>
   <g id="line2d_15">
    <path d="M 66.901989 271.111036 
L 73.29887 271.643549 
L 76.625249 271.8 
L 79.184002 271.690524 
L 88.907262 270.808599 
L 90.954264 270.240935 
L 94.280643 268.993391 
L 101.189275 266.303214 
L 102.724527 265.296206 
L 104.259778 264.031742 
L 106.050905 262.276183 
L 108.353783 259.675082 
L 110.400785 257.046131 
L 112.447787 254.043364 
L 115.774166 248.608586 
L 117.309417 246.307129 
L 118.588794 244.778093 
L 119.612295 243.923804 
L 120.379921 243.538421 
L 121.147546 243.388979 
L 121.915172 243.480579 
L 122.682798 243.808312 
L 123.450424 244.35792 
L 124.473925 245.39624 
L 125.753301 247.084427 
L 127.544428 249.891528 
L 131.382557 256.03747 
L 133.429559 258.847494 
L 135.220686 260.964184 
L 137.011813 262.762069 
L 138.80294 264.24203 
L 140.594067 265.424076 
L 142.641069 266.488492 
L 145.711572 267.790506 
L 149.037951 268.994584 
L 151.340828 269.59721 
L 153.643706 269.973479 
L 157.73771 270.368721 
L 161.319964 270.54262 
L 164.134592 270.426049 
L 171.043224 269.775266 
L 173.090227 269.37852 
L 175.137229 268.746038 
L 178.207732 267.504715 
L 182.813487 265.44496 
L 184.604614 264.366173 
L 186.139866 263.187969 
L 187.930992 261.499035 
L 189.977995 259.204434 
L 192.024997 256.57244 
L 194.071999 253.587632 
L 196.630752 249.404883 
L 199.189504 245.301936 
L 200.468881 243.658918 
L 201.492382 242.696099 
L 202.260008 242.225095 
L 203.027633 241.991039 
L 203.795259 242.002803 
L 204.562885 242.258796 
L 205.330511 242.747287 
L 206.354012 243.723288 
L 207.633388 245.36616 
L 209.424515 248.165971 
L 213.774395 255.204127 
L 215.821397 257.996681 
L 217.612524 260.076793 
L 219.403651 261.819492 
L 221.194778 263.246185 
L 223.24178 264.55729 
L 225.544657 265.758883 
L 228.359285 266.978337 
L 230.662163 267.753485 
L 232.96504 268.293169 
L 235.779668 268.711418 
L 239.361922 269.022646 
L 241.920675 269.04159 
L 244.991178 268.820007 
L 249.341058 268.281297 
L 251.643935 267.779828 
L 253.690937 267.099106 
L 256.24969 265.988963 
L 259.576069 264.301477 
L 261.623071 263.027681 
L 263.414198 261.6188 
L 265.205325 259.870575 
L 266.996452 257.790528 
L 269.043454 255.048857 
L 271.090456 251.939274 
L 273.905084 247.20203 
L 275.952086 243.869914 
L 277.231462 242.153929 
L 278.254964 241.127497 
L 279.022589 240.609268 
L 279.790215 240.331235 
L 280.557841 240.30455 
L 281.325467 240.529375 
L 282.093093 240.995059 
L 283.116594 241.954233 
L 284.140095 243.235568 
L 285.675346 245.577563 
L 291.560478 255.099138 
L 293.351605 257.419465 
L 295.142732 259.382044 
L 296.933858 261.010527 
L 298.724985 262.354434 
L 300.771987 263.624031 
L 303.074865 264.796205 
L 305.377742 265.715632 
L 307.68062 266.378387 
L 310.239373 266.86911 
L 313.054001 267.194178 
L 315.612753 267.279016 
L 318.171506 267.13552 
L 321.242009 266.729767 
L 323.800762 266.202275 
L 325.847764 265.574106 
L 327.894766 264.720347 
L 330.453519 263.383501 
L 332.756397 261.950843 
L 334.547523 260.616151 
L 336.33865 258.992248 
L 337.873902 257.315093 
L 339.665029 255.009179 
L 341.712031 251.951284 
L 344.270784 247.657582 
L 347.597162 242.023189 
L 348.876539 240.259698 
L 349.90004 239.19353 
L 350.667666 238.646829 
L 351.435291 238.346658 
L 352.202917 238.308281 
L 352.970543 238.532346 
L 353.738169 239.008053 
L 354.76167 239.996144 
L 355.785171 241.318652 
L 357.320423 243.709066 
L 362.949679 252.913114 
L 364.996681 255.665325 
L 366.787808 257.684318 
L 368.578935 259.358977 
L 370.370062 260.745818 
L 372.417064 262.047473 
L 374.464066 263.083011 
L 376.511068 263.867295 
L 378.55807 264.427534 
L 380.860948 264.834651 
L 383.163825 265.032339 
L 385.466703 265.026402 
L 388.025455 264.785226 
L 390.584208 264.319313 
L 392.887086 263.664537 
L 394.934088 262.82897 
L 396.98109 261.737627 
L 399.028092 260.404524 
L 401.075094 258.799681 
L 402.866221 257.095684 
L 404.657348 255.041642 
L 406.448475 252.616428 
L 408.495477 249.425097 
L 411.05423 244.95121 
L 414.124733 239.604424 
L 415.404109 237.811172 
L 416.427611 236.741776 
L 417.195236 236.205507 
L 417.962862 235.923392 
L 418.730488 235.90715 
L 419.498114 236.156372 
L 420.26574 236.658721 
L 421.289241 237.681325 
L 422.312742 239.035947 
L 423.847993 241.491801 
L 429.477249 250.958628 
L 431.268376 253.376218 
L 433.059503 255.422162 
L 434.85063 257.128641 
L 436.641757 258.536698 
L 438.432884 259.680309 
L 440.224011 260.582711 
L 442.271013 261.349348 
L 444.318015 261.87082 
L 446.365017 262.170464 
L 448.41202 262.249192 
L 450.459022 262.108249 
L 452.506024 261.760428 
L 454.553026 261.202235 
L 456.344153 260.510824 
L 458.13528 259.598805 
L 459.926407 258.452661 
L 461.717534 257.062588 
L 463.508661 255.39862 
L 465.299788 253.404525 
L 467.090914 251.030144 
L 468.882041 248.268393 
L 470.929044 244.700513 
L 475.790674 235.942784 
L 476.814175 234.549351 
L 477.837676 233.517817 
L 478.605302 233.028035 
L 479.372928 232.80561 
L 480.140553 232.859386 
L 480.908179 233.185267 
L 481.675805 233.766873 
L 482.699306 234.892109 
L 483.978682 236.73952 
L 485.769809 239.815629 
L 489.607938 246.526979 
L 491.399065 249.205353 
L 493.190192 251.491868 
L 494.981319 253.395932 
L 496.772446 254.946891 
L 498.563573 256.176416 
L 500.3547 257.115441 
L 502.145827 257.794125 
L 503.936954 258.235308 
L 505.728081 258.449593 
L 507.519207 258.439792 
L 509.310334 258.209946 
L 511.101461 257.762422 
L 512.892588 257.085322 
L 514.683715 256.151217 
L 516.474842 254.932065 
L 518.265969 253.407246 
L 520.057096 251.549951 
L 521.848223 249.317193 
L 523.63935 246.671961 
L 525.430477 243.61927 
L 527.733354 239.226883 
L 531.059733 232.855531 
L 532.339109 230.873646 
L 533.36261 229.675037 
L 534.130236 229.058776 
L 534.897862 228.714035 
L 535.665487 228.654399 
L 536.433113 228.879791 
L 537.200739 229.376298 
L 537.968365 230.118923 
L 538.991866 231.431862 
L 540.271242 233.45611 
L 542.829995 238.077732 
L 545.388748 242.526646 
L 547.179875 245.218702 
L 548.971002 247.489823 
L 550.506253 249.100019 
L 552.041505 250.412991 
L 553.576756 251.448984 
L 555.112008 252.209225 
L 556.64726 252.71631 
L 558.182511 252.991485 
L 559.717763 253.039072 
L 561.253015 252.861809 
L 562.788266 252.460013 
L 564.323518 251.82849 
L 565.85877 250.953583 
L 567.394021 249.817834 
L 568.929273 248.405296 
L 570.464524 246.694263 
L 571.999776 244.664123 
L 573.535028 242.298118 
L 575.326155 239.115474 
L 577.629032 234.474098 
L 581.211286 227.109389 
L 582.490662 224.960765 
L 583.514163 223.654807 
L 584.281789 222.973692 
L 585.049415 222.578093 
L 585.817041 222.480791 
L 586.584667 222.68071 
L 587.352292 223.162989 
L 588.119918 223.900598 
L 589.143419 225.217016 
L 590.422796 227.255247 
L 596.563802 237.726447 
L 598.099054 239.715623 
L 599.634305 241.337294 
L 600.913682 242.402433 
L 602.193058 243.207457 
L 603.472435 243.770412 
L 604.751811 244.097796 
L 606.031187 244.193806 
L 607.310564 244.060222 
L 608.58994 243.697387 
L 609.869316 243.087307 
L 611.148693 242.231498 
L 612.428069 241.126274 
L 613.707445 239.760467 
L 615.242697 237.762668 
L 616.777949 235.355136 
L 618.3132 232.51912 
L 620.104327 228.731296 
L 622.66308 222.713672 
L 625.221833 216.812878 
L 626.501209 214.37749 
L 627.52471 212.868235 
L 628.292336 212.050374 
L 629.059962 211.526092 
L 629.827588 211.2989 
L 630.595213 211.369616 
L 631.362839 211.719483 
L 632.130465 212.31749 
L 633.153966 213.431032 
L 634.433343 215.18288 
L 638.527347 221.122131 
L 640.318474 223.16764 
L 641.341975 224.026763 
L 642.365476 224.629197 
L 643.388977 224.96698 
L 644.412478 225.067491 
L 645.435979 224.923852 
L 646.45948 224.530823 
L 647.482981 223.885467 
L 648.250607 223.121386 
L 649.785859 221.18076 
L 651.065235 219.225538 
L 652.600487 215.876369 
L 653.623988 213.395069 
L 655.415115 208.116084 
L 657.206242 201.873067 
L 659.509119 193.261444 
L 663.858999 176.987376 
L 668.464754 160.663381 
L 669.488255 156.119969 
L 670.511756 150.341496 
L 671.023506 146.492677 
L 671.535257 141.331944 
L 672.047008 134.374206 
L 672.558758 124.962052 
L 673.326384 106.103314 
L 674.09401 81.644464 
L 674.861636 50.800577 
L 675.629261 19.8 
L 675.629261 19.8 
" clip-path="url(#p10758bb5e5)" style="fill: none; stroke: #1f77b4; stroke-width: 1.5; stroke-linecap: square"/>
   </g>
   <g id="line2d_16">
    <path d="M 36.465625 181.999464 
L 706.065625 181.999464 
" clip-path="url(#p10758bb5e5)" style="fill: none; stroke-dasharray: 2.22,0.96; stroke-dashoffset: 0; stroke: #ff0000; stroke-width: 0.6"/>
   </g>
   <g id="line2d_17">
    <path d="M 66.901989 271.111036 
L 73.29887 271.643549 
L 76.625249 271.8 
L 79.184002 271.690524 
L 88.907262 270.808599 
L 90.954264 270.240935 
L 94.280643 268.993391 
L 101.189275 266.303214 
L 102.724527 265.296206 
L 104.259778 264.031742 
L 106.050905 262.276183 
L 108.353783 259.675082 
L 110.400785 257.046131 
L 112.447787 254.043364 
L 115.774166 248.608586 
L 117.309417 246.307129 
L 118.588794 244.778093 
L 119.612295 243.923804 
L 120.379921 243.538421 
L 121.147546 243.388979 
L 121.915172 243.480579 
L 122.682798 243.808312 
L 123.450424 244.35792 
L 124.473925 245.39624 
L 125.753301 247.084427 
L 127.544428 249.891528 
L 131.382557 256.03747 
L 133.429559 258.847494 
L 135.220686 260.964184 
L 137.011813 262.762069 
L 138.80294 264.24203 
L 140.594067 265.424076 
L 142.641069 266.488492 
L 145.711572 267.790506 
L 149.037951 268.994584 
L 151.340828 269.59721 
L 153.643706 269.973479 
L 157.73771 270.368721 
L 161.319964 270.54262 
L 164.134592 270.426049 
L 171.043224 269.775266 
L 173.090227 269.37852 
L 175.137229 268.746038 
L 178.207732 267.504715 
L 182.813487 265.44496 
L 184.604614 264.366173 
L 186.139866 263.187969 
L 187.930992 261.499035 
L 189.977995 259.204434 
L 192.024997 256.57244 
L 194.071999 253.587632 
L 196.630752 249.404883 
L 199.189504 245.301936 
L 200.468881 243.658918 
L 201.492382 242.696099 
L 202.260008 242.225095 
L 203.027633 241.991039 
L 203.795259 242.002803 
L 204.562885 242.258796 
L 205.330511 242.747287 
L 206.354012 243.723288 
L 207.633388 245.36616 
L 209.424515 248.165971 
L 213.774395 255.204127 
L 215.821397 257.996681 
L 217.612524 260.076793 
L 219.403651 261.819492 
L 221.194778 263.246185 
L 223.24178 264.55729 
L 225.544657 265.758883 
L 228.359285 266.978337 
L 230.662163 267.753485 
L 232.96504 268.293169 
L 235.779668 268.711418 
L 239.361922 269.022646 
L 241.920675 269.04159 
L 244.991178 268.820007 
L 249.341058 268.281297 
L 251.643935 267.779828 
L 253.690937 267.099106 
L 256.24969 265.988963 
L 259.576069 264.301477 
L 261.623071 263.027681 
L 263.414198 261.6188 
L 265.205325 259.870575 
L 266.996452 257.790528 
L 269.043454 255.048857 
L 271.090456 251.939274 
L 273.905084 247.20203 
L 275.952086 243.869914 
L 277.231462 242.153929 
L 278.254964 241.127497 
L 279.022589 240.609268 
L 279.790215 240.331235 
L 280.557841 240.30455 
L 281.325467 240.529375 
L 282.093093 240.995059 
L 283.116594 241.954233 
L 284.140095 243.235568 
L 285.675346 245.577563 
L 291.560478 255.099138 
L 293.351605 257.419465 
L 295.142732 259.382044 
L 296.933858 261.010527 
L 298.724985 262.354434 
L 300.771987 263.624031 
L 303.074865 264.796205 
L 305.377742 265.715632 
L 307.68062 266.378387 
L 310.239373 266.86911 
L 313.054001 267.194178 
L 315.612753 267.279016 
L 318.171506 267.13552 
L 321.242009 266.729767 
L 323.800762 266.202275 
L 325.847764 265.574106 
L 327.894766 264.720347 
L 330.453519 263.383501 
L 332.756397 261.950843 
L 334.547523 260.616151 
L 336.33865 258.992248 
L 337.873902 257.315093 
L 339.665029 255.009179 
L 341.712031 251.951284 
L 344.270784 247.657582 
L 347.597162 242.023189 
L 348.876539 240.259698 
L 349.90004 239.19353 
L 350.667666 238.646829 
L 351.435291 238.346658 
L 352.202917 238.308281 
L 352.970543 238.532346 
L 353.738169 239.008053 
L 354.76167 239.996144 
L 355.785171 241.318652 
L 357.320423 243.709066 
L 362.949679 252.913114 
L 364.996681 255.665325 
L 366.787808 257.684318 
L 368.578935 259.358977 
L 370.370062 260.745818 
L 372.417064 262.047473 
L 374.464066 263.083011 
L 376.511068 263.867295 
L 378.55807 264.427534 
L 380.860948 264.834651 
L 383.163825 265.032339 
L 385.466703 265.026402 
L 388.025455 264.785226 
L 390.584208 264.319313 
L 392.887086 263.664537 
L 394.934088 262.82897 
L 396.98109 261.737627 
L 399.028092 260.404524 
L 401.075094 258.799681 
L 402.866221 257.095684 
L 404.657348 255.041642 
L 406.448475 252.616428 
L 408.495477 249.425097 
L 411.05423 244.95121 
L 414.124733 239.604424 
L 415.404109 237.811172 
L 416.427611 236.741776 
L 417.195236 236.205507 
L 417.962862 235.923392 
L 418.730488 235.90715 
L 419.498114 236.156372 
L 420.26574 236.658721 
L 421.289241 237.681325 
L 422.312742 239.035947 
L 423.847993 241.491801 
L 429.477249 250.958628 
L 431.268376 253.376218 
L 433.059503 255.422162 
L 434.85063 257.128641 
L 436.641757 258.536698 
L 438.432884 259.680309 
L 440.224011 260.582711 
L 442.271013 261.349348 
L 444.318015 261.87082 
L 446.365017 262.170464 
L 448.41202 262.249192 
L 450.459022 262.108249 
L 452.506024 261.760428 
L 454.553026 261.202235 
L 456.344153 260.510824 
L 458.13528 259.598805 
L 459.926407 258.452661 
L 461.717534 257.062588 
L 463.508661 255.39862 
L 465.299788 253.404525 
L 467.090914 251.030144 
L 468.882041 248.268393 
L 470.929044 244.700513 
L 475.790674 235.942784 
L 476.814175 234.549351 
L 477.837676 233.517817 
L 478.605302 233.028035 
L 479.372928 232.80561 
L 480.140553 232.859386 
L 480.908179 233.185267 
L 481.675805 233.766873 
L 482.699306 234.892109 
L 483.978682 236.73952 
L 485.769809 239.815629 
L 489.607938 246.526979 
L 491.399065 249.205353 
L 493.190192 251.491868 
L 494.981319 253.395932 
L 496.772446 254.946891 
L 498.563573 256.176416 
L 500.3547 257.115441 
L 502.145827 257.794125 
L 503.936954 258.235308 
L 505.728081 258.449593 
L 507.519207 258.439792 
L 509.310334 258.209946 
L 511.101461 257.762422 
L 512.892588 257.085322 
L 514.683715 256.151217 
L 516.474842 254.932065 
L 518.265969 253.407246 
L 520.057096 251.549951 
L 521.848223 249.317193 
L 523.63935 246.671961 
L 525.430477 243.61927 
L 527.733354 239.226883 
L 531.059733 232.855531 
L 532.339109 230.873646 
L 533.36261 229.675037 
L 534.130236 229.058776 
L 534.897862 228.714035 
L 535.665487 228.654399 
L 536.433113 228.879791 
L 537.200739 229.376298 
L 537.968365 230.118923 
L 538.991866 231.431862 
L 540.271242 233.45611 
L 542.829995 238.077732 
L 545.388748 242.526646 
L 547.179875 245.218702 
L 548.971002 247.489823 
L 550.506253 249.100019 
L 552.041505 250.412991 
L 553.576756 251.448984 
L 555.112008 252.209225 
L 556.64726 252.71631 
L 558.182511 252.991485 
L 559.717763 253.039072 
L 561.253015 252.861809 
L 562.788266 252.460013 
L 564.323518 251.82849 
L 565.85877 250.953583 
L 567.394021 249.817834 
L 568.929273 248.405296 
L 570.464524 246.694263 
L 571.999776 244.664123 
L 573.535028 242.298118 
L 575.326155 239.115474 
L 577.629032 234.474098 
L 581.211286 227.109389 
L 582.490662 224.960765 
L 583.514163 223.654807 
L 584.281789 222.973692 
L 585.049415 222.578093 
L 585.817041 222.480791 
L 586.584667 222.68071 
L 587.352292 223.162989 
L 588.119918 223.900598 
L 589.143419 225.217016 
L 590.422796 227.255247 
L 596.563802 237.726447 
L 598.099054 239.715623 
L 599.634305 241.337294 
L 600.913682 242.402433 
L 602.193058 243.207457 
L 603.472435 243.770412 
L 604.751811 244.097796 
L 606.031187 244.193806 
L 607.310564 244.060222 
L 608.58994 243.697387 
L 609.869316 243.087307 
L 611.148693 242.231498 
L 612.428069 241.126274 
L 613.707445 239.760467 
L 615.242697 237.762668 
L 616.777949 235.355136 
L 618.3132 232.51912 
L 620.104327 228.731296 
L 622.66308 222.713672 
L 625.221833 216.812878 
L 626.501209 214.37749 
L 627.52471 212.868235 
L 628.292336 212.050374 
L 629.059962 211.526092 
L 629.827588 211.2989 
L 630.595213 211.369616 
L 631.362839 211.719483 
L 632.130465 212.31749 
L 633.153966 213.431032 
L 634.433343 215.18288 
L 638.527347 221.122131 
L 640.318474 223.16764 
L 641.341975 224.026763 
L 642.365476 224.629197 
L 643.388977 224.96698 
L 644.412478 225.067491 
L 645.435979 224.923852 
L 646.45948 224.530823 
L 647.482981 223.885467 
L 648.250607 223.121386 
L 649.785859 221.18076 
L 651.065235 219.225538 
L 652.600487 215.876369 
L 653.623988 213.395069 
L 655.415115 208.116084 
L 657.206242 201.873067 
L 659.509119 193.261444 
L 662.323747 182.672284 
L 662.323747 182.672284 
" clip-path="url(#p10758bb5e5)" style="fill: none; stroke: #ff7f0e; stroke-width: 1.5; stroke-linecap: square"/>
   </g>
   <g id="patch_3">
    <path d="M 36.465625 284.4 
L 36.465625 7.2 
" style="fill: none; stroke: #000000; stroke-width: 0.8; stroke-linejoin: miter; stroke-linecap: square"/>
   </g>
   <g id="patch_4">
    <path d="M 706.065625 284.4 
L 706.065625 7.2 
" style="fill: none; stroke: #000000; stroke-width: 0.8; stroke-linejoin: miter; stroke-linecap: square"/>
   </g>
   <g id="patch_5">
    <path d="M 36.465625 284.4 
L 706.065625 284.4 
" style="fill: none; stroke: #000000; stroke-width: 0.8; stroke-linejoin: miter; stroke-linecap: square"/>
   </g>
   <g id="patch_6">
    <path d="M 36.465625 7.2 
L 706.065625 7.2 
" style="fill: none; stroke: #000000; stroke-width: 0.8; stroke-linejoin: miter; stroke-linecap: square"/>
   </g>
   <g id="legend_1">
    <g id="patch_7">
     <path d="M 43.465625 73.9125 
L 206.465625 73.9125 
Q 208.465625 73.9125 208.465625 71.9125 
L 208.465625 14.2 
Q 208.465625 12.2 206.465625 12.2 
L 43.465625 12.2 
Q 41.465625 12.2 41.465625 14.2 
L 41.465625 71.9125 
Q 41.465625 73.9125 43.465625 73.9125 
z
" style="fill: #ffffff; opacity: 0.8; stroke: #cccccc; stroke-linejoin: miter"/>
    </g>
    <g id="line2d_18">
     <path d="M 45.465625 20.298438 
L 55.465625 20.298438 
L 65.465625 20.298438 
" style="fill: none; stroke: #1f77b4; stroke-width: 1.5; stroke-linecap: square"/>
    </g>
    <g id="text_15">
     <!-- Mf before ISCO cut: $e$=0.3 -->
     <g transform="translate(73.465625 23.798438) scale(0.1 -0.1)">
      <defs>
       <path id="DejaVuSans-4d" d="M 628 4666 
L 1569 4666 
L 2759 1491 
L 3956 4666 
L 4897 4666 
L 4897 0 
L 4281 0 
L 4281 4097 
L 3078 897 
L 2444 897 
L 1241 4097 
L 1241 0 
L 628 0 
L 628 4666 
z
" transform="scale(0.015625)"/>
       <path id="DejaVuSans-66" d="M 2375 4863 
L 2375 4384 
L 1825 4384 
Q 1516 4384 1395 4259 
Q 1275 4134 1275 3809 
L 1275 3500 
L 2222 3500 
L 2222 3053 
L 1275 3053 
L 1275 0 
L 697 0 
L 697 3053 
L 147 3053 
L 147 3500 
L 697 3500 
L 697 3744 
Q 697 4328 969 4595 
Q 1241 4863 1831 4863 
L 2375 4863 
z
" transform="scale(0.015625)"/>
       <path id="DejaVuSans-20" transform="scale(0.015625)"/>
       <path id="DejaVuSans-62" d="M 3116 1747 
Q 3116 2381 2855 2742 
Q 2594 3103 2138 3103 
Q 1681 3103 1420 2742 
Q 1159 2381 1159 1747 
Q 1159 1113 1420 752 
Q 1681 391 2138 391 
Q 2594 391 2855 752 
Q 3116 1113 3116 1747 
z
M 1159 2969 
Q 1341 3281 1617 3432 
Q 1894 3584 2278 3584 
Q 2916 3584 3314 3078 
Q 3713 2572 3713 1747 
Q 3713 922 3314 415 
Q 2916 -91 2278 -91 
Q 1894 -91 1617 61 
Q 1341 213 1159 525 
L 1159 0 
L 581 0 
L 581 4863 
L 1159 4863 
L 1159 2969 
z
" transform="scale(0.015625)"/>
       <path id="DejaVuSans-65" d="M 3597 1894 
L 3597 1613 
L 953 1613 
Q 991 1019 1311 708 
Q 1631 397 2203 397 
Q 2534 397 2845 478 
Q 3156 559 3463 722 
L 3463 178 
Q 3153 47 2828 -22 
Q 2503 -91 2169 -91 
Q 1331 -91 842 396 
Q 353 884 353 1716 
Q 353 2575 817 3079 
Q 1281 3584 2069 3584 
Q 2775 3584 3186 3129 
Q 3597 2675 3597 1894 
z
M 3022 2063 
Q 3016 2534 2758 2815 
Q 2500 3097 2075 3097 
Q 1594 3097 1305 2825 
Q 1016 2553 972 2059 
L 3022 2063 
z
" transform="scale(0.015625)"/>
       <path id="DejaVuSans-6f" d="M 1959 3097 
Q 1497 3097 1228 2736 
Q 959 2375 959 1747 
Q 959 1119 1226 758 
Q 1494 397 1959 397 
Q 2419 397 2687 759 
Q 2956 1122 2956 1747 
Q 2956 2369 2687 2733 
Q 2419 3097 1959 3097 
z
M 1959 3584 
Q 2709 3584 3137 3096 
Q 3566 2609 3566 1747 
Q 3566 888 3137 398 
Q 2709 -91 1959 -91 
Q 1206 -91 779 398 
Q 353 888 353 1747 
Q 353 2609 779 3096 
Q 1206 3584 1959 3584 
z
" transform="scale(0.015625)"/>
       <path id="DejaVuSans-72" d="M 2631 2963 
Q 2534 3019 2420 3045 
Q 2306 3072 2169 3072 
Q 1681 3072 1420 2755 
Q 1159 2438 1159 1844 
L 1159 0 
L 581 0 
L 581 3500 
L 1159 3500 
L 1159 2956 
Q 1341 3275 1631 3429 
Q 1922 3584 2338 3584 
Q 2397 3584 2469 3576 
Q 2541 3569 2628 3553 
L 2631 2963 
z
" transform="scale(0.015625)"/>
       <path id="DejaVuSans-49" d="M 628 4666 
L 1259 4666 
L 1259 0 
L 628 0 
L 628 4666 
z
" transform="scale(0.015625)"/>
       <path id="DejaVuSans-53" d="M 3425 4513 
L 3425 3897 
Q 3066 4069 2747 4153 
Q 2428 4238 2131 4238 
Q 1616 4238 1336 4038 
Q 1056 3838 1056 3469 
Q 1056 3159 1242 3001 
Q 1428 2844 1947 2747 
L 2328 2669 
Q 3034 2534 3370 2195 
Q 3706 1856 3706 1288 
Q 3706 609 3251 259 
Q 2797 -91 1919 -91 
Q 1588 -91 1214 -16 
Q 841 59 441 206 
L 441 856 
Q 825 641 1194 531 
Q 1563 422 1919 422 
Q 2459 422 2753 634 
Q 3047 847 3047 1241 
Q 3047 1584 2836 1778 
Q 2625 1972 2144 2069 
L 1759 2144 
Q 1053 2284 737 2584 
Q 422 2884 422 3419 
Q 422 4038 858 4394 
Q 1294 4750 2059 4750 
Q 2388 4750 2728 4690 
Q 3069 4631 3425 4513 
z
" transform="scale(0.015625)"/>
       <path id="DejaVuSans-43" d="M 4122 4306 
L 4122 3641 
Q 3803 3938 3442 4084 
Q 3081 4231 2675 4231 
Q 1875 4231 1450 3742 
Q 1025 3253 1025 2328 
Q 1025 1406 1450 917 
Q 1875 428 2675 428 
Q 3081 428 3442 575 
Q 3803 722 4122 1019 
L 4122 359 
Q 3791 134 3420 21 
Q 3050 -91 2638 -91 
Q 1578 -91 968 557 
Q 359 1206 359 2328 
Q 359 3453 968 4101 
Q 1578 4750 2638 4750 
Q 3056 4750 3426 4639 
Q 3797 4528 4122 4306 
z
" transform="scale(0.015625)"/>
       <path id="DejaVuSans-4f" d="M 2522 4238 
Q 1834 4238 1429 3725 
Q 1025 3213 1025 2328 
Q 1025 1447 1429 934 
Q 1834 422 2522 422 
Q 3209 422 3611 934 
Q 4013 1447 4013 2328 
Q 4013 3213 3611 3725 
Q 3209 4238 2522 4238 
z
M 2522 4750 
Q 3503 4750 4090 4092 
Q 4678 3434 4678 2328 
Q 4678 1225 4090 567 
Q 3503 -91 2522 -91 
Q 1538 -91 948 565 
Q 359 1222 359 2328 
Q 359 3434 948 4092 
Q 1538 4750 2522 4750 
z
" transform="scale(0.015625)"/>
       <path id="DejaVuSans-63" d="M 3122 3366 
L 3122 2828 
Q 2878 2963 2633 3030 
Q 2388 3097 2138 3097 
Q 1578 3097 1268 2742 
Q 959 2388 959 1747 
Q 959 1106 1268 751 
Q 1578 397 2138 397 
Q 2388 397 2633 464 
Q 2878 531 3122 666 
L 3122 134 
Q 2881 22 2623 -34 
Q 2366 -91 2075 -91 
Q 1284 -91 818 406 
Q 353 903 353 1747 
Q 353 2603 823 3093 
Q 1294 3584 2113 3584 
Q 2378 3584 2631 3529 
Q 2884 3475 3122 3366 
z
" transform="scale(0.015625)"/>
       <path id="DejaVuSans-75" d="M 544 1381 
L 544 3500 
L 1119 3500 
L 1119 1403 
Q 1119 906 1312 657 
Q 1506 409 1894 409 
Q 2359 409 2629 706 
Q 2900 1003 2900 1516 
L 2900 3500 
L 3475 3500 
L 3475 0 
L 2900 0 
L 2900 538 
Q 2691 219 2414 64 
Q 2138 -91 1772 -91 
Q 1169 -91 856 284 
Q 544 659 544 1381 
z
M 1991 3584 
L 1991 3584 
z
" transform="scale(0.015625)"/>
       <path id="DejaVuSans-74" d="M 1172 4494 
L 1172 3500 
L 2356 3500 
L 2356 3053 
L 1172 3053 
L 1172 1153 
Q 1172 725 1289 603 
Q 1406 481 1766 481 
L 2356 481 
L 2356 0 
L 1766 0 
Q 1100 0 847 248 
Q 594 497 594 1153 
L 594 3053 
L 172 3053 
L 172 3500 
L 594 3500 
L 594 4494 
L 1172 4494 
z
" transform="scale(0.015625)"/>
       <path id="DejaVuSans-3a" d="M 750 794 
L 1409 794 
L 1409 0 
L 750 0 
L 750 794 
z
M 750 3309 
L 1409 3309 
L 1409 2516 
L 750 2516 
L 750 3309 
z
" transform="scale(0.015625)"/>
       <path id="DejaVuSans-Oblique-65" d="M 3078 2063 
Q 3088 2113 3092 2166 
Q 3097 2219 3097 2272 
Q 3097 2653 2873 2875 
Q 2650 3097 2266 3097 
Q 1838 3097 1509 2826 
Q 1181 2556 1013 2059 
L 3078 2063 
z
M 3578 1613 
L 903 1613 
Q 884 1494 878 1425 
Q 872 1356 872 1306 
Q 872 872 1139 634 
Q 1406 397 1894 397 
Q 2269 397 2603 481 
Q 2938 566 3225 728 
L 3116 159 
Q 2806 34 2476 -28 
Q 2147 -91 1806 -91 
Q 1078 -91 686 257 
Q 294 606 294 1247 
Q 294 1794 489 2264 
Q 684 2734 1063 3103 
Q 1306 3334 1642 3459 
Q 1978 3584 2356 3584 
Q 2950 3584 3301 3228 
Q 3653 2872 3653 2272 
Q 3653 2128 3634 1964 
Q 3616 1800 3578 1613 
z
" transform="scale(0.015625)"/>
       <path id="DejaVuSans-3d" d="M 678 2906 
L 4684 2906 
L 4684 2381 
L 678 2381 
L 678 2906 
z
M 678 1631 
L 4684 1631 
L 4684 1100 
L 678 1100 
L 678 1631 
z
" transform="scale(0.015625)"/>
      </defs>
      <use xlink:href="#DejaVuSans-4d" transform="translate(0 0.015625)"/>
      <use xlink:href="#DejaVuSans-66" transform="translate(86.279297 0.015625)"/>
      <use xlink:href="#DejaVuSans-20" transform="translate(121.484375 0.015625)"/>
      <use xlink:href="#DejaVuSans-62" transform="translate(153.271484 0.015625)"/>
      <use xlink:href="#DejaVuSans-65" transform="translate(216.748047 0.015625)"/>
      <use xlink:href="#DejaVuSans-66" transform="translate(278.271484 0.015625)"/>
      <use xlink:href="#DejaVuSans-6f" transform="translate(313.476562 0.015625)"/>
      <use xlink:href="#DejaVuSans-72" transform="translate(374.658203 0.015625)"/>
      <use xlink:href="#DejaVuSans-65" transform="translate(415.771484 0.015625)"/>
      <use xlink:href="#DejaVuSans-20" transform="translate(477.294922 0.015625)"/>
      <use xlink:href="#DejaVuSans-49" transform="translate(509.082031 0.015625)"/>
      <use xlink:href="#DejaVuSans-53" transform="translate(538.574219 0.015625)"/>
      <use xlink:href="#DejaVuSans-43" transform="translate(602.050781 0.015625)"/>
      <use xlink:href="#DejaVuSans-4f" transform="translate(671.875 0.015625)"/>
      <use xlink:href="#DejaVuSans-20" transform="translate(750.585938 0.015625)"/>
      <use xlink:href="#DejaVuSans-63" transform="translate(782.373047 0.015625)"/>
      <use xlink:href="#DejaVuSans-75" transform="translate(837.353516 0.015625)"/>
      <use xlink:href="#DejaVuSans-74" transform="translate(900.732422 0.015625)"/>
      <use xlink:href="#DejaVuSans-3a" transform="translate(939.941406 0.015625)"/>
      <use xlink:href="#DejaVuSans-20" transform="translate(973.632812 0.015625)"/>
      <use xlink:href="#DejaVuSans-Oblique-65" transform="translate(1005.419922 0.015625)"/>
      <use xlink:href="#DejaVuSans-3d" transform="translate(1066.943359 0.015625)"/>
      <use xlink:href="#DejaVuSans-30" transform="translate(1150.732422 0.015625)"/>
      <use xlink:href="#DejaVuSans-2e" transform="translate(1214.355469 0.015625)"/>
      <use xlink:href="#DejaVuSans-33" transform="translate(1246.142578 0.015625)"/>
     </g>
    </g>
    <g id="line2d_19">
     <path d="M 45.465625 34.976563 
L 55.465625 34.976563 
L 65.465625 34.976563 
" style="fill: none; stroke-dasharray: 2.22,0.96; stroke-dashoffset: 0; stroke: #ff0000; stroke-width: 0.6"/>
    </g>
    <g id="text_16">
     <!-- Mf ISCO $e$=0 -->
     <g transform="translate(73.465625 38.476563) scale(0.1 -0.1)">
      <use xlink:href="#DejaVuSans-4d" transform="translate(0 0.015625)"/>
      <use xlink:href="#DejaVuSans-66" transform="translate(86.279297 0.015625)"/>
      <use xlink:href="#DejaVuSans-20" transform="translate(121.484375 0.015625)"/>
      <use xlink:href="#DejaVuSans-49" transform="translate(153.271484 0.015625)"/>
      <use xlink:href="#DejaVuSans-53" transform="translate(182.763672 0.015625)"/>
      <use xlink:href="#DejaVuSans-43" transform="translate(246.240234 0.015625)"/>
      <use xlink:href="#DejaVuSans-4f" transform="translate(316.064453 0.015625)"/>
      <use xlink:href="#DejaVuSans-20" transform="translate(394.775391 0.015625)"/>
      <use xlink:href="#DejaVuSans-Oblique-65" transform="translate(426.5625 0.015625)"/>
      <use xlink:href="#DejaVuSans-3d" transform="translate(488.085938 0.015625)"/>
      <use xlink:href="#DejaVuSans-30" transform="translate(571.875 0.015625)"/>
     </g>
    </g>
    <g id="PathCollection_2">
     <g>
      <use xlink:href="#m089bbcbdb5" x="55.465625" y="50.529688" style="fill: #ff0000; stroke: #ff0000"/>
     </g>
    </g>
    <g id="text_17">
     <!-- ISCO cut -->
     <g transform="translate(73.465625 53.154688) scale(0.1 -0.1)">
      <use xlink:href="#DejaVuSans-49"/>
      <use xlink:href="#DejaVuSans-53" transform="translate(29.492188 0)"/>
      <use xlink:href="#DejaVuSans-43" transform="translate(92.96875 0)"/>
      <use xlink:href="#DejaVuSans-4f" transform="translate(162.792969 0)"/>
      <use xlink:href="#DejaVuSans-20" transform="translate(241.503906 0)"/>
      <use xlink:href="#DejaVuSans-63" transform="translate(273.291016 0)"/>
      <use xlink:href="#DejaVuSans-75" transform="translate(328.271484 0)"/>
      <use xlink:href="#DejaVuSans-74" transform="translate(391.650391 0)"/>
     </g>
    </g>
    <g id="line2d_20">
     <path d="M 45.465625 64.332813 
L 55.465625 64.332813 
L 65.465625 64.332813 
" style="fill: none; stroke: #ff7f0e; stroke-width: 1.5; stroke-linecap: square"/>
    </g>
    <g id="text_18">
     <!-- Mf after ISCO cut: $e$=0.3  -->
     <g transform="translate(73.465625 67.832813) scale(0.1 -0.1)">
      <defs>
       <path id="DejaVuSans-61" d="M 2194 1759 
Q 1497 1759 1228 1600 
Q 959 1441 959 1056 
Q 959 750 1161 570 
Q 1363 391 1709 391 
Q 2188 391 2477 730 
Q 2766 1069 2766 1631 
L 2766 1759 
L 2194 1759 
z
M 3341 1997 
L 3341 0 
L 2766 0 
L 2766 531 
Q 2569 213 2275 61 
Q 1981 -91 1556 -91 
Q 1019 -91 701 211 
Q 384 513 384 1019 
Q 384 1609 779 1909 
Q 1175 2209 1959 2209 
L 2766 2209 
L 2766 2266 
Q 2766 2663 2505 2880 
Q 2244 3097 1772 3097 
Q 1472 3097 1187 3025 
Q 903 2953 641 2809 
L 641 3341 
Q 956 3463 1253 3523 
Q 1550 3584 1831 3584 
Q 2591 3584 2966 3190 
Q 3341 2797 3341 1997 
z
" transform="scale(0.015625)"/>
      </defs>
      <use xlink:href="#DejaVuSans-4d" transform="translate(0 0.015625)"/>
      <use xlink:href="#DejaVuSans-66" transform="translate(86.279297 0.015625)"/>
      <use xlink:href="#DejaVuSans-20" transform="translate(121.484375 0.015625)"/>
      <use xlink:href="#DejaVuSans-61" transform="translate(153.271484 0.015625)"/>
      <use xlink:href="#DejaVuSans-66" transform="translate(214.550781 0.015625)"/>
      <use xlink:href="#DejaVuSans-74" transform="translate(249.755859 0.015625)"/>
      <use xlink:href="#DejaVuSans-65" transform="translate(288.964844 0.015625)"/>
      <use xlink:href="#DejaVuSans-72" transform="translate(350.488281 0.015625)"/>
      <use xlink:href="#DejaVuSans-20" transform="translate(391.601562 0.015625)"/>
      <use xlink:href="#DejaVuSans-49" transform="translate(423.388672 0.015625)"/>
      <use xlink:href="#DejaVuSans-53" transform="translate(452.880859 0.015625)"/>
      <use xlink:href="#DejaVuSans-43" transform="translate(516.357422 0.015625)"/>
      <use xlink:href="#DejaVuSans-4f" transform="translate(586.181641 0.015625)"/>
      <use xlink:href="#DejaVuSans-20" transform="translate(664.892578 0.015625)"/>
      <use xlink:href="#DejaVuSans-63" transform="translate(696.679688 0.015625)"/>
      <use xlink:href="#DejaVuSans-75" transform="translate(751.660156 0.015625)"/>
      <use xlink:href="#DejaVuSans-74" transform="translate(815.039062 0.015625)"/>
      <use xlink:href="#DejaVuSans-3a" transform="translate(854.248047 0.015625)"/>
      <use xlink:href="#DejaVuSans-20" transform="translate(887.939453 0.015625)"/>
      <use xlink:href="#DejaVuSans-Oblique-65" transform="translate(919.726562 0.015625)"/>
      <use xlink:href="#DejaVuSans-3d" transform="translate(981.25 0.015625)"/>
      <use xlink:href="#DejaVuSans-30" transform="translate(1065.039062 0.015625)"/>
      <use xlink:href="#DejaVuSans-2e" transform="translate(1128.662109 0.015625)"/>
      <use xlink:href="#DejaVuSans-33" transform="translate(1160.449219 0.015625)"/>
      <use xlink:href="#DejaVuSans-20" transform="translate(1224.072266 0.015625)"/>
     </g>
    </g>
   </g>
  </g>
 </g>
 <defs>
  <clipPath id="p10758bb5e5">
   <rect x="36.465625" y="7.2" width="669.6" height="277.2"/>
  </clipPath>
 </defs>
</svg>
