<?xml version="1.0" encoding="utf-8" standalone="no"?>
<!DOCTYPE svg PUBLIC "-//W3C//DTD SVG 1.1//EN"
  "http://www.w3.org/Graphics/SVG/1.1/DTD/svg11.dtd">
<svg xmlns:xlink="http://www.w3.org/1999/xlink" width="713.265625pt" height="308.278125pt" viewBox="0 0 713.265625 308.278125" xmlns="http://www.w3.org/2000/svg" version="1.1">
 <metadata>
  <rdf:RDF xmlns:dc="http://purl.org/dc/elements/1.1/" xmlns:cc="http://creativecommons.org/ns#" xmlns:rdf="http://www.w3.org/1999/02/22-rdf-syntax-ns#">
   <cc:Work>
    <dc:type rdf:resource="http://purl.org/dc/dcmitype/StillImage"/>
    <dc:date>2025-11-25T16:00:58.569247</dc:date>
    <dc:format>image/svg+xml</dc:format>
    <dc:creator>
     <cc:Agent>
      <dc:title>Matplotlib v3.10.5, https://matplotlib.org/</dc:title>
     </cc:Agent>
    </dc:creator>
   </cc:Work>
  </rdf:RDF>
 </metadata>
 <defs>
  <style type="text/css">*{stroke-linejoin: round; stroke-linecap: butt}</style>
 </defs>
 <g id="figure_1">
  <g id="patch_1">
   <path d="M 0 308.278125 
L 713.265625 308.278125 
L 713.265625 0 
L 0 0 
z
" style="fill: #ffffff"/>
  </g>
  <g id="axes_1">
   <g id="patch_2">
    <path d="M 36.465625 284.4 
L 706.065625 284.4 
L 706.065625 7.2 
L 36.465625 7.2 
z
" style="fill: #ffffff"/>
   </g>
   <g id="PathCollection_1">
    <defs>
     <path id="mb3c0a431fd" d="M 0 1.224745 
C 0.324806 1.224745 0.636353 1.095698 0.866025 0.866025 
C 1.095698 0.636353 1.224745 0.324806 1.224745 0 
C 1.224745 -0.324806 1.095698 -0.636353 0.866025 -0.866025 
C 0.636353 -1.095698 0.324806 -1.224745 0 -1.224745 
C -0.324806 -1.224745 -0.636353 -1.095698 -0.866025 -0.866025 
C -1.095698 -0.636353 -1.224745 -0.324806 -1.224745 0 
C -1.224745 0.324806 -1.095698 0.636353 -0.866025 0.866025 
C -0.636353 1.095698 -0.324806 1.224745 0 1.224745 
z
" style="stroke: #ff0000"/>
    </defs>
    <g clip-path="url(#p734d88671f)">
     <use xlink:href="#mb3c0a431fd" x="672.064357" y="179.617876" style="fill: #ff0000; stroke: #ff0000"/>
    </g>
   </g>
   <g id="matplotlib.axis_1">
    <g id="xtick_1">
     <g id="line2d_1">
      <defs>
       <path id="mcbd8412534" d="M 0 0 
L 0 3.5 
" style="stroke: #000000; stroke-width: 0.8"/>
      </defs>
      <g>
       <use xlink:href="#mcbd8412534" x="100.32928" y="284.4" style="stroke: #000000; stroke-width: 0.8"/>
      </g>
     </g>
     <g id="text_1">
      <!-- −12000 -->
      <g transform="translate(80.233186 298.998438) scale(0.1 -0.1)">
       <defs>
        <path id="DejaVuSans-2212" d="M 678 2272 
L 4684 2272 
L 4684 1741 
L 678 1741 
L 678 2272 
z
" transform="scale(0.015625)"/>
        <path id="DejaVuSans-31" d="M 794 531 
L 1825 531 
L 1825 4091 
L 703 3866 
L 703 4441 
L 1819 4666 
L 2450 4666 
L 2450 531 
L 3481 531 
L 3481 0 
L 794 0 
L 794 531 
z
" transform="scale(0.015625)"/>
        <path id="DejaVuSans-32" d="M 1228 531 
L 3431 531 
L 3431 0 
L 469 0 
L 469 531 
Q 828 903 1448 1529 
Q 2069 2156 2228 2338 
Q 2531 2678 2651 2914 
Q 2772 3150 2772 3378 
Q 2772 3750 2511 3984 
Q 2250 4219 1831 4219 
Q 1534 4219 1204 4116 
Q 875 4013 500 3803 
L 500 4441 
Q 881 4594 1212 4672 
Q 1544 4750 1819 4750 
Q 2544 4750 2975 4387 
Q 3406 4025 3406 3419 
Q 3406 3131 3298 2873 
Q 3191 2616 2906 2266 
Q 2828 2175 2409 1742 
Q 1991 1309 1228 531 
z
" transform="scale(0.015625)"/>
        <path id="DejaVuSans-30" d="M 2034 4250 
Q 1547 4250 1301 3770 
Q 1056 3291 1056 2328 
Q 1056 1369 1301 889 
Q 1547 409 2034 409 
Q 2525 409 2770 889 
Q 3016 1369 3016 2328 
Q 3016 3291 2770 3770 
Q 2525 4250 2034 4250 
z
M 2034 4750 
Q 2819 4750 3233 4129 
Q 3647 3509 3647 2328 
Q 3647 1150 3233 529 
Q 2819 -91 2034 -91 
Q 1250 -91 836 529 
Q 422 1150 422 2328 
Q 422 3509 836 4129 
Q 1250 4750 2034 4750 
z
" transform="scale(0.015625)"/>
       </defs>
       <use xlink:href="#DejaVuSans-2212"/>
       <use xlink:href="#DejaVuSans-31" transform="translate(83.789062 0)"/>
       <use xlink:href="#DejaVuSans-32" transform="translate(147.412109 0)"/>
       <use xlink:href="#DejaVuSans-30" transform="translate(211.035156 0)"/>
       <use xlink:href="#DejaVuSans-30" transform="translate(274.658203 0)"/>
       <use xlink:href="#DejaVuSans-30" transform="translate(338.28125 0)"/>
      </g>
     </g>
    </g>
    <g id="xtick_2">
     <g id="line2d_2">
      <g>
       <use xlink:href="#mcbd8412534" x="196.21261" y="284.4" style="stroke: #000000; stroke-width: 0.8"/>
      </g>
     </g>
     <g id="text_2">
      <!-- −10000 -->
      <g transform="translate(176.116517 298.998438) scale(0.1 -0.1)">
       <use xlink:href="#DejaVuSans-2212"/>
       <use xlink:href="#DejaVuSans-31" transform="translate(83.789062 0)"/>
       <use xlink:href="#DejaVuSans-30" transform="translate(147.412109 0)"/>
       <use xlink:href="#DejaVuSans-30" transform="translate(211.035156 0)"/>
       <use xlink:href="#DejaVuSans-30" transform="translate(274.658203 0)"/>
       <use xlink:href="#DejaVuSans-30" transform="translate(338.28125 0)"/>
      </g>
     </g>
    </g>
    <g id="xtick_3">
     <g id="line2d_3">
      <g>
       <use xlink:href="#mcbd8412534" x="292.09594" y="284.4" style="stroke: #000000; stroke-width: 0.8"/>
      </g>
     </g>
     <g id="text_3">
      <!-- −8000 -->
      <g transform="translate(275.181097 298.998438) scale(0.1 -0.1)">
       <defs>
        <path id="DejaVuSans-38" d="M 2034 2216 
Q 1584 2216 1326 1975 
Q 1069 1734 1069 1313 
Q 1069 891 1326 650 
Q 1584 409 2034 409 
Q 2484 409 2743 651 
Q 3003 894 3003 1313 
Q 3003 1734 2745 1975 
Q 2488 2216 2034 2216 
z
M 1403 2484 
Q 997 2584 770 2862 
Q 544 3141 544 3541 
Q 544 4100 942 4425 
Q 1341 4750 2034 4750 
Q 2731 4750 3128 4425 
Q 3525 4100 3525 3541 
Q 3525 3141 3298 2862 
Q 3072 2584 2669 2484 
Q 3125 2378 3379 2068 
Q 3634 1759 3634 1313 
Q 3634 634 3220 271 
Q 2806 -91 2034 -91 
Q 1263 -91 848 271 
Q 434 634 434 1313 
Q 434 1759 690 2068 
Q 947 2378 1403 2484 
z
M 1172 3481 
Q 1172 3119 1398 2916 
Q 1625 2713 2034 2713 
Q 2441 2713 2670 2916 
Q 2900 3119 2900 3481 
Q 2900 3844 2670 4047 
Q 2441 4250 2034 4250 
Q 1625 4250 1398 4047 
Q 1172 3844 1172 3481 
z
" transform="scale(0.015625)"/>
       </defs>
       <use xlink:href="#DejaVuSans-2212"/>
       <use xlink:href="#DejaVuSans-38" transform="translate(83.789062 0)"/>
       <use xlink:href="#DejaVuSans-30" transform="translate(147.412109 0)"/>
       <use xlink:href="#DejaVuSans-30" transform="translate(211.035156 0)"/>
       <use xlink:href="#DejaVuSans-30" transform="translate(274.658203 0)"/>
      </g>
     </g>
    </g>
    <g id="xtick_4">
     <g id="line2d_4">
      <g>
       <use xlink:href="#mcbd8412534" x="387.979271" y="284.4" style="stroke: #000000; stroke-width: 0.8"/>
      </g>
     </g>
     <g id="text_4">
      <!-- −6000 -->
      <g transform="translate(371.064427 298.998438) scale(0.1 -0.1)">
       <defs>
        <path id="DejaVuSans-36" d="M 2113 2584 
Q 1688 2584 1439 2293 
Q 1191 2003 1191 1497 
Q 1191 994 1439 701 
Q 1688 409 2113 409 
Q 2538 409 2786 701 
Q 3034 994 3034 1497 
Q 3034 2003 2786 2293 
Q 2538 2584 2113 2584 
z
M 3366 4563 
L 3366 3988 
Q 3128 4100 2886 4159 
Q 2644 4219 2406 4219 
Q 1781 4219 1451 3797 
Q 1122 3375 1075 2522 
Q 1259 2794 1537 2939 
Q 1816 3084 2150 3084 
Q 2853 3084 3261 2657 
Q 3669 2231 3669 1497 
Q 3669 778 3244 343 
Q 2819 -91 2113 -91 
Q 1303 -91 875 529 
Q 447 1150 447 2328 
Q 447 3434 972 4092 
Q 1497 4750 2381 4750 
Q 2619 4750 2861 4703 
Q 3103 4656 3366 4563 
z
" transform="scale(0.015625)"/>
       </defs>
       <use xlink:href="#DejaVuSans-2212"/>
       <use xlink:href="#DejaVuSans-36" transform="translate(83.789062 0)"/>
       <use xlink:href="#DejaVuSans-30" transform="translate(147.412109 0)"/>
       <use xlink:href="#DejaVuSans-30" transform="translate(211.035156 0)"/>
       <use xlink:href="#DejaVuSans-30" transform="translate(274.658203 0)"/>
      </g>
     </g>
    </g>
    <g id="xtick_5">
     <g id="line2d_5">
      <g>
       <use xlink:href="#mcbd8412534" x="483.862601" y="284.4" style="stroke: #000000; stroke-width: 0.8"/>
      </g>
     </g>
     <g id="text_5">
      <!-- −4000 -->
      <g transform="translate(466.947757 298.998438) scale(0.1 -0.1)">
       <defs>
        <path id="DejaVuSans-34" d="M 2419 4116 
L 825 1625 
L 2419 1625 
L 2419 4116 
z
M 2253 4666 
L 3047 4666 
L 3047 1625 
L 3713 1625 
L 3713 1100 
L 3047 1100 
L 3047 0 
L 2419 0 
L 2419 1100 
L 313 1100 
L 313 1709 
L 2253 4666 
z
" transform="scale(0.015625)"/>
       </defs>
       <use xlink:href="#DejaVuSans-2212"/>
       <use xlink:href="#DejaVuSans-34" transform="translate(83.789062 0)"/>
       <use xlink:href="#DejaVuSans-30" transform="translate(147.412109 0)"/>
       <use xlink:href="#DejaVuSans-30" transform="translate(211.035156 0)"/>
       <use xlink:href="#DejaVuSans-30" transform="translate(274.658203 0)"/>
      </g>
     </g>
    </g>
    <g id="xtick_6">
     <g id="line2d_6">
      <g>
       <use xlink:href="#mcbd8412534" x="579.745931" y="284.4" style="stroke: #000000; stroke-width: 0.8"/>
      </g>
     </g>
     <g id="text_6">
      <!-- −2000 -->
      <g transform="translate(562.831087 298.998438) scale(0.1 -0.1)">
       <use xlink:href="#DejaVuSans-2212"/>
       <use xlink:href="#DejaVuSans-32" transform="translate(83.789062 0)"/>
       <use xlink:href="#DejaVuSans-30" transform="translate(147.412109 0)"/>
       <use xlink:href="#DejaVuSans-30" transform="translate(211.035156 0)"/>
       <use xlink:href="#DejaVuSans-30" transform="translate(274.658203 0)"/>
      </g>
     </g>
    </g>
    <g id="xtick_7">
     <g id="line2d_7">
      <g>
       <use xlink:href="#mcbd8412534" x="675.629261" y="284.4" style="stroke: #000000; stroke-width: 0.8"/>
      </g>
     </g>
     <g id="text_7">
      <!-- 0 -->
      <g transform="translate(672.448011 298.998438) scale(0.1 -0.1)">
       <use xlink:href="#DejaVuSans-30"/>
      </g>
     </g>
    </g>
   </g>
   <g id="matplotlib.axis_2">
    <g id="ytick_1">
     <g id="line2d_8">
      <defs>
       <path id="meaa9fad14a" d="M 0 0 
L -3.5 0 
" style="stroke: #000000; stroke-width: 0.8"/>
      </defs>
      <g>
       <use xlink:href="#meaa9fad14a" x="36.465625" y="280.771932" style="stroke: #000000; stroke-width: 0.8"/>
      </g>
     </g>
     <g id="text_8">
      <!-- 0.00 -->
      <g transform="translate(7.2 284.571151) scale(0.1 -0.1)">
       <defs>
        <path id="DejaVuSans-2e" d="M 684 794 
L 1344 794 
L 1344 0 
L 684 0 
L 684 794 
z
" transform="scale(0.015625)"/>
       </defs>
       <use xlink:href="#DejaVuSans-30"/>
       <use xlink:href="#DejaVuSans-2e" transform="translate(63.623047 0)"/>
       <use xlink:href="#DejaVuSans-30" transform="translate(95.410156 0)"/>
       <use xlink:href="#DejaVuSans-30" transform="translate(159.033203 0)"/>
      </g>
     </g>
    </g>
    <g id="ytick_2">
     <g id="line2d_9">
      <g>
       <use xlink:href="#meaa9fad14a" x="36.465625" y="234.07503" style="stroke: #000000; stroke-width: 0.8"/>
      </g>
     </g>
     <g id="text_9">
      <!-- 0.01 -->
      <g transform="translate(7.2 237.874249) scale(0.1 -0.1)">
       <use xlink:href="#DejaVuSans-30"/>
       <use xlink:href="#DejaVuSans-2e" transform="translate(63.623047 0)"/>
       <use xlink:href="#DejaVuSans-30" transform="translate(95.410156 0)"/>
       <use xlink:href="#DejaVuSans-31" transform="translate(159.033203 0)"/>
      </g>
     </g>
    </g>
    <g id="ytick_3">
     <g id="line2d_10">
      <g>
       <use xlink:href="#meaa9fad14a" x="36.465625" y="187.378128" style="stroke: #000000; stroke-width: 0.8"/>
      </g>
     </g>
     <g id="text_10">
      <!-- 0.02 -->
      <g transform="translate(7.2 191.177347) scale(0.1 -0.1)">
       <use xlink:href="#DejaVuSans-30"/>
       <use xlink:href="#DejaVuSans-2e" transform="translate(63.623047 0)"/>
       <use xlink:href="#DejaVuSans-30" transform="translate(95.410156 0)"/>
       <use xlink:href="#DejaVuSans-32" transform="translate(159.033203 0)"/>
      </g>
     </g>
    </g>
    <g id="ytick_4">
     <g id="line2d_11">
      <g>
       <use xlink:href="#meaa9fad14a" x="36.465625" y="140.681226" style="stroke: #000000; stroke-width: 0.8"/>
      </g>
     </g>
     <g id="text_11">
      <!-- 0.03 -->
      <g transform="translate(7.2 144.480444) scale(0.1 -0.1)">
       <defs>
        <path id="DejaVuSans-33" d="M 2597 2516 
Q 3050 2419 3304 2112 
Q 3559 1806 3559 1356 
Q 3559 666 3084 287 
Q 2609 -91 1734 -91 
Q 1441 -91 1130 -33 
Q 819 25 488 141 
L 488 750 
Q 750 597 1062 519 
Q 1375 441 1716 441 
Q 2309 441 2620 675 
Q 2931 909 2931 1356 
Q 2931 1769 2642 2001 
Q 2353 2234 1838 2234 
L 1294 2234 
L 1294 2753 
L 1863 2753 
Q 2328 2753 2575 2939 
Q 2822 3125 2822 3475 
Q 2822 3834 2567 4026 
Q 2313 4219 1838 4219 
Q 1578 4219 1281 4162 
Q 984 4106 628 3988 
L 628 4550 
Q 988 4650 1302 4700 
Q 1616 4750 1894 4750 
Q 2613 4750 3031 4423 
Q 3450 4097 3450 3541 
Q 3450 3153 3228 2886 
Q 3006 2619 2597 2516 
z
" transform="scale(0.015625)"/>
       </defs>
       <use xlink:href="#DejaVuSans-30"/>
       <use xlink:href="#DejaVuSans-2e" transform="translate(63.623047 0)"/>
       <use xlink:href="#DejaVuSans-30" transform="translate(95.410156 0)"/>
       <use xlink:href="#DejaVuSans-33" transform="translate(159.033203 0)"/>
      </g>
     </g>
    </g>
    <g id="ytick_5">
     <g id="line2d_12">
      <g>
       <use xlink:href="#meaa9fad14a" x="36.465625" y="93.984323" style="stroke: #000000; stroke-width: 0.8"/>
      </g>
     </g>
     <g id="text_12">
      <!-- 0.04 -->
      <g transform="translate(7.2 97.783542) scale(0.1 -0.1)">
       <use xlink:href="#DejaVuSans-30"/>
       <use xlink:href="#DejaVuSans-2e" transform="translate(63.623047 0)"/>
       <use xlink:href="#DejaVuSans-30" transform="translate(95.410156 0)"/>
       <use xlink:href="#DejaVuSans-34" transform="translate(159.033203 0)"/>
      </g>
     </g>
    </g>
    <g id="ytick_6">
     <g id="line2d_13">
      <g>
       <use xlink:href="#meaa9fad14a" x="36.465625" y="47.287421" style="stroke: #000000; stroke-width: 0.8"/>
      </g>
     </g>
     <g id="text_13">
      <!-- 0.05 -->
      <g transform="translate(7.2 51.08664) scale(0.1 -0.1)">
       <defs>
        <path id="DejaVuSans-35" d="M 691 4666 
L 3169 4666 
L 3169 4134 
L 1269 4134 
L 1269 2991 
Q 1406 3038 1543 3061 
Q 1681 3084 1819 3084 
Q 2600 3084 3056 2656 
Q 3513 2228 3513 1497 
Q 3513 744 3044 326 
Q 2575 -91 1722 -91 
Q 1428 -91 1123 -41 
Q 819 9 494 109 
L 494 744 
Q 775 591 1075 516 
Q 1375 441 1709 441 
Q 2250 441 2565 725 
Q 2881 1009 2881 1497 
Q 2881 1984 2565 2268 
Q 2250 2553 1709 2553 
Q 1456 2553 1204 2497 
Q 953 2441 691 2322 
L 691 4666 
z
" transform="scale(0.015625)"/>
       </defs>
       <use xlink:href="#DejaVuSans-30"/>
       <use xlink:href="#DejaVuSans-2e" transform="translate(63.623047 0)"/>
       <use xlink:href="#DejaVuSans-30" transform="translate(95.410156 0)"/>
       <use xlink:href="#DejaVuSans-35" transform="translate(159.033203 0)"/>
      </g>
     </g>
    </g>
   </g>
   <g id="line2d_14">
    <path d="M 66.901989 271.57535 
L 67.456529 271.363704 
L 68.961711 270.532406 
L 70.546113 269.75715 
L 71.892855 269.057077 
L 72.764276 268.32805 
L 73.714918 267.210383 
L 74.982439 265.319808 
L 76.408401 262.794507 
L 77.755143 259.929819 
L 79.497985 256.210637 
L 80.131746 255.316121 
L 80.686287 254.900125 
L 81.082387 254.840586 
L 81.478488 254.983349 
L 81.953808 255.408587 
L 82.587569 256.346036 
L 83.45899 258.108743 
L 86.310914 264.191013 
L 87.578436 266.271438 
L 88.687517 267.695193 
L 89.638158 268.580178 
L 90.74724 269.294393 
L 94.312144 271.11946 
L 95.421226 271.406731 
L 97.560169 271.638087 
L 99.778331 271.794476 
L 101.600394 271.607264 
L 104.927638 271.140929 
L 106.03672 270.605897 
L 110.156165 268.182616 
L 111.027586 267.235485 
L 112.136668 265.663747 
L 113.562629 263.212389 
L 114.909371 260.437603 
L 117.127534 255.685932 
L 117.761295 254.865214 
L 118.236615 254.556511 
L 118.632716 254.522036 
L 119.028817 254.692048 
L 119.504137 255.150509 
L 120.137898 256.128237 
L 121.088539 258.10873 
L 123.623583 263.601225 
L 124.891104 265.750226 
L 126.000186 267.217895 
L 127.030047 268.203877 
L 128.218348 268.999754 
L 131.149492 270.591492 
L 132.337794 270.968111 
L 133.922196 271.189077 
L 136.85334 271.408175 
L 138.913062 271.188313 
L 141.368886 270.834499 
L 142.398747 270.404518 
L 145.171451 268.836536 
L 146.359752 268.04534 
L 147.231173 267.197911 
L 148.181814 265.958766 
L 149.449336 263.896758 
L 150.796078 261.280038 
L 154.044102 254.608271 
L 154.598643 254.162418 
L 154.994743 254.087005 
L 155.390844 254.219816 
L 155.866164 254.64137 
L 156.420705 255.447913 
L 157.212906 257.022638 
L 160.619371 264.296839 
L 161.807672 266.12654 
L 162.837534 267.319796 
L 163.867395 268.181816 
L 165.610237 269.287712 
L 167.4323 270.247443 
L 168.620601 270.602849 
L 170.601104 270.890791 
L 172.581606 271.03073 
L 174.245228 270.87163 
L 177.176372 270.39032 
L 178.285454 269.892286 
L 180.820497 268.368092 
L 182.008799 267.490809 
L 182.95944 266.481049 
L 183.989301 265.022281 
L 185.256823 262.807166 
L 186.603565 260.004886 
L 189.059388 254.690118 
L 189.693149 253.921066 
L 190.168469 253.668204 
L 190.56457 253.68873 
L 190.96067 253.918177 
L 191.435991 254.448639 
L 192.069752 255.513394 
L 193.099613 257.771668 
L 195.317776 262.701697 
L 196.585298 264.923744 
L 197.694379 266.417837 
L 198.72424 267.434585 
L 200.070982 268.420773 
L 202.051485 269.601157 
L 203.239786 270.061698 
L 204.665748 270.352293 
L 207.121571 270.615171 
L 208.547533 270.526267 
L 211.478677 270.063158 
L 212.587758 269.633493 
L 214.01372 268.793824 
L 216.231883 267.248859 
L 217.182524 266.290829 
L 218.133166 265.007854 
L 219.321467 262.99061 
L 220.668209 260.244195 
L 223.599353 253.952036 
L 224.153893 253.371823 
L 224.629214 253.190676 
L 225.025315 253.275712 
L 225.500635 253.652377 
L 226.055176 254.426661 
L 226.847377 255.992525 
L 230.491502 263.874441 
L 231.600583 265.532941 
L 232.630444 266.687518 
L 233.818746 267.681022 
L 235.561588 268.841595 
L 236.82911 269.452047 
L 238.096632 269.804588 
L 240.235574 270.126051 
L 241.661536 270.145047 
L 243.642039 269.896134 
L 245.305661 269.53259 
L 246.414742 269.044452 
L 247.919924 268.091692 
L 249.662767 266.770252 
L 250.613408 265.776404 
L 251.564049 264.459606 
L 252.673131 262.535199 
L 254.019872 259.730182 
L 256.871796 253.511971 
L 257.426337 252.902963 
L 257.901657 252.699773 
L 258.297758 252.770066 
L 258.773079 253.13469 
L 259.327619 253.903292 
L 260.11982 255.475104 
L 263.843165 263.587769 
L 264.952247 265.221858 
L 265.982108 266.361588 
L 267.24963 267.430075 
L 268.834032 268.483812 
L 270.022333 269.026828 
L 271.369075 269.384836 
L 273.270357 269.657042 
L 274.617099 269.644299 
L 276.597602 269.358108 
L 278.023564 268.980782 
L 279.132645 268.446829 
L 280.637827 267.429802 
L 282.143009 266.182417 
L 283.17287 265.019552 
L 284.202732 263.473599 
L 285.391033 261.243175 
L 286.816995 258.047332 
L 288.797498 253.545729 
L 289.431258 252.618885 
L 289.906579 252.24366 
L 290.30268 252.169215 
L 290.69878 252.316566 
L 291.174101 252.771609 
L 291.728641 253.633327 
L 292.600063 255.484812 
L 295.610426 262.303979 
L 296.719508 264.142076 
L 297.749369 265.448771 
L 298.937671 266.592513 
L 300.363633 267.663779 
L 301.631154 268.353502 
L 302.898676 268.774412 
L 304.641518 269.092163 
L 306.06748 269.136821 
L 307.651882 268.937042 
L 309.315504 268.531381 
L 310.424586 268.031216 
L 311.692107 267.191411 
L 313.276509 265.865016 
L 314.306371 264.728791 
L 315.257012 263.352783 
L 316.366094 261.330974 
L 317.712835 258.3681 
L 320.168658 252.750312 
L 320.802419 251.90986 
L 321.27774 251.619965 
L 321.67384 251.624669 
L 322.069941 251.853226 
L 322.545262 252.401288 
L 323.179022 253.51468 
L 324.208884 255.885531 
L 326.347827 260.895511 
L 327.536128 263.073985 
L 328.565989 264.5317 
L 329.675071 265.732994 
L 331.021813 266.861031 
L 332.289334 267.64352 
L 333.477636 268.115042 
L 334.982818 268.459676 
L 336.40878 268.573877 
L 337.755521 268.45447 
L 339.419144 268.086418 
L 340.607445 267.606876 
L 341.716527 266.913663 
L 343.142488 265.741805 
L 344.33079 264.492207 
L 345.281431 263.177187 
L 346.311293 261.366468 
L 347.578814 258.642842 
L 350.668398 251.682193 
L 351.222939 251.116604 
L 351.619039 250.975169 
L 352.01514 251.064056 
L 352.41124 251.377101 
L 352.965781 252.151559 
L 353.678762 253.586866 
L 355.263164 257.483584 
L 356.689126 260.705264 
L 357.798207 262.703151 
L 358.907289 264.238781 
L 360.09559 265.489307 
L 361.363112 266.509627 
L 362.551414 267.184656 
L 363.818935 267.632094 
L 365.244897 267.90221 
L 366.512419 267.928025 
L 367.938381 267.717536 
L 369.364343 267.292008 
L 370.473424 266.726281 
L 371.661726 265.849102 
L 373.008467 264.562506 
L 374.038329 263.286629 
L 375.06819 261.629219 
L 376.177271 259.393702 
L 377.603233 255.973593 
L 379.346076 251.831262 
L 379.979836 250.825287 
L 380.455157 250.401524 
L 380.851257 250.298517 
L 381.247358 250.430514 
L 381.722679 250.885411 
L 382.277219 251.769862 
L 383.06942 253.500133 
L 386.238224 260.933107 
L 387.347306 262.772314 
L 388.456387 264.179192 
L 389.644689 265.33526 
L 390.83299 266.188903 
L 391.942072 266.723168 
L 393.209594 267.091521 
L 394.477115 267.244405 
L 395.744637 267.162598 
L 397.170599 266.828462 
L 398.3589 266.328364 
L 399.467982 265.6005 
L 400.656283 264.542583 
L 401.844585 263.183273 
L 402.874446 261.643766 
L 403.904308 259.686912 
L 405.171829 256.758369 
L 407.706872 250.689371 
L 408.340633 249.842701 
L 408.815954 249.573389 
L 409.212054 249.611548 
L 409.608155 249.886172 
L 410.083476 250.501249 
L 410.717236 251.712274 
L 411.826318 254.434986 
L 413.7276 259.074513 
L 414.836682 261.206159 
L 415.945763 262.856469 
L 417.054845 264.12036 
L 418.163926 265.078196 
L 419.273008 265.752612 
L 420.461309 266.207222 
L 421.728831 266.44792 
L 422.917132 266.439819 
L 424.184654 266.194134 
L 425.372955 265.748203 
L 426.402817 265.134201 
L 427.511898 264.200679 
L 428.7002 262.890708 
L 429.730061 261.423032 
L 430.759922 259.544162 
L 431.948224 256.860218 
L 435.037808 249.499725 
L 435.592349 248.896452 
L 435.988449 248.744866 
L 436.38455 248.838958 
L 436.78065 249.172038 
L 437.335191 249.995269 
L 438.048172 251.515526 
L 439.791014 256.012053 
L 441.137756 259.103581 
L 442.246837 261.101141 
L 443.355919 262.635576 
L 444.465 263.799021 
L 445.574082 264.63964 
L 446.683163 265.19326 
L 447.871465 265.527285 
L 448.980546 265.612288 
L 450.089628 265.476617 
L 451.277929 265.103811 
L 452.307791 264.559948 
L 453.337652 263.759226 
L 454.446733 262.596888 
L 455.476595 261.20859 
L 456.506456 259.431021 
L 457.615537 257.023618 
L 459.120719 253.122688 
L 460.546681 249.54914 
L 461.259662 248.342003 
L 461.734983 247.916378 
L 462.131083 247.831407 
L 462.527184 247.998306 
L 463.002504 248.513362 
L 463.557045 249.484099 
L 464.428466 251.549982 
L 467.12195 258.283023 
L 468.231031 260.318585 
L 469.340113 261.877042 
L 470.369974 262.966999 
L 471.399835 263.752129 
L 472.429697 264.270602 
L 473.538778 264.577085 
L 474.56864 264.637661 
L 475.598501 264.484418 
L 476.707582 264.089481 
L 477.737444 263.478573 
L 478.767305 262.585072 
L 479.797166 261.390942 
L 480.827028 259.855219 
L 481.856889 257.893847 
L 482.96597 255.279221 
L 486.055554 247.58283 
L 486.610095 246.958733 
L 487.006196 246.808037 
L 487.402296 246.916601 
L 487.798397 247.276359 
L 488.352937 248.152453 
L 489.065918 249.754298 
L 492.630823 258.515858 
L 493.660684 260.203157 
L 494.690546 261.492612 
L 495.720407 262.432843 
L 496.750268 263.064249 
L 497.78013 263.429458 
L 498.730771 263.545886 
L 499.681412 263.451211 
L 500.711274 263.117266 
L 501.661915 262.582273 
L 502.612556 261.792966 
L 503.642417 260.620998 
L 504.672279 259.087429 
L 505.70214 257.12098 
L 506.811222 254.478134 
L 509.980026 246.39804 
L 510.455346 245.839806 
L 510.851447 245.652467 
L 511.247547 245.732091 
L 511.643648 246.07231 
L 512.118968 246.789624 
L 512.831949 248.352343 
L 514.257911 252.24091 
L 515.683873 255.851284 
L 516.792955 258.060887 
L 517.822816 259.633579 
L 518.852677 260.796506 
L 519.803318 261.546431 
L 520.75396 262.02366 
L 521.704601 262.252429 
L 522.655242 262.237815 
L 523.605883 261.984331 
L 524.556525 261.48648 
L 525.507166 260.712795 
L 526.457807 259.630359 
L 527.408448 258.213865 
L 528.43831 256.248317 
L 529.547391 253.581995 
L 531.211013 248.839976 
L 532.320095 245.954762 
L 532.953856 244.836633 
L 533.429176 244.392354 
L 533.825277 244.318424 
L 534.221377 244.51963 
L 534.696698 245.101772 
L 535.251239 246.175189 
L 536.12266 248.417817 
L 538.499263 254.779655 
L 539.529124 256.854284 
L 540.558985 258.440035 
L 541.509627 259.508168 
L 542.460268 260.23536 
L 543.331689 260.631097 
L 544.20311 260.78013 
L 545.074531 260.690285 
L 545.945952 260.374259 
L 546.817374 259.822553 
L 547.688795 259.003438 
L 548.639436 257.772717 
L 549.590077 256.17096 
L 550.619939 253.964733 
L 551.6498 251.199796 
L 554.184843 244.057077 
L 554.739384 243.161937 
L 555.214705 242.781681 
L 555.610805 242.768112 
L 556.006906 243.037916 
L 556.482226 243.717588 
L 557.115987 245.111254 
L 558.225068 248.253861 
L 559.809471 252.571851 
L 560.918552 254.975994 
L 561.948413 256.682398 
L 562.899055 257.828981 
L 563.770476 258.534681 
L 564.562677 258.911201 
L 565.354878 259.051561 
L 566.147079 258.960222 
L 566.93928 258.635622 
L 567.731481 258.069802 
L 568.602902 257.150301 
L 569.474323 255.895496 
L 570.424964 254.122926 
L 571.375606 251.883927 
L 572.563907 248.464841 
L 574.62363 242.443017 
L 575.257391 241.315888 
L 575.732711 240.913865 
L 576.049592 240.882368 
L 576.366472 241.04203 
L 576.762573 241.496378 
L 577.317113 242.542189 
L 578.109314 244.610223 
L 580.802798 252.087463 
L 581.753439 253.960898 
L 582.62486 255.246365 
L 583.496281 256.144586 
L 584.288482 256.649941 
L 585.001463 256.864779 
L 585.714444 256.857793 
L 586.427425 256.630412 
L 587.140406 256.179042 
L 587.932607 255.404319 
L 588.724808 254.32044 
L 589.596229 252.73933 
L 590.546871 250.523022 
L 591.655952 247.311604 
L 594.111775 239.876928 
L 594.666316 238.941468 
L 595.062416 238.615652 
L 595.379297 238.579617 
L 595.696177 238.744635 
L 596.092278 239.218537 
L 596.646819 240.310203 
L 597.43902 242.46022 
L 599.894843 249.513021 
L 600.845484 251.475643 
L 601.716905 252.790789 
L 602.509106 253.601549 
L 603.222087 254.03428 
L 603.855848 254.190549 
L 604.489609 254.136511 
L 605.12337 253.872814 
L 605.83635 253.319452 
L 606.549331 252.480544 
L 607.341532 251.192763 
L 608.212954 249.321233 
L 609.163595 246.728074 
L 610.431116 242.543542 
L 611.936298 237.675854 
L 612.570059 236.306322 
L 613.04538 235.756442 
L 613.36226 235.650188 
L 613.679141 235.757196 
L 614.075241 236.178252 
L 614.550562 237.054491 
L 615.263543 238.923466 
L 618.194687 247.314257 
L 619.066108 248.922699 
L 619.858309 249.927374 
L 620.57129 250.469422 
L 621.20505 250.669502 
L 621.759591 250.629773 
L 622.393352 250.338604 
L 623.027113 249.781045 
L 623.740094 248.824237 
L 624.532295 247.333839 
L 625.403716 245.159471 
L 626.433577 241.899178 
L 629.127061 232.834066 
L 629.602381 232.039889 
L 629.998482 231.749638 
L 630.315362 231.774328 
L 630.632243 232.022769 
L 631.028343 232.621743 
L 631.582884 233.901479 
L 632.533525 236.777529 
L 634.197147 241.745512 
L 635.068569 243.663824 
L 635.781549 244.773377 
L 636.41531 245.403775 
L 636.969851 245.682816 
L 637.524392 245.714047 
L 638.078932 245.489977 
L 638.633473 245.007193 
L 639.267234 244.132336 
L 639.980215 242.725571 
L 640.772416 240.631352 
L 641.723057 237.420042 
L 644.574981 226.978341 
L 645.050302 226.220598 
L 645.367182 226.018304 
L 645.684062 226.05697 
L 646.000943 226.326216 
L 646.397043 226.958547 
L 646.951584 228.282336 
L 648.060665 231.680949 
L 649.248967 235.096879 
L 650.041168 236.741237 
L 650.674929 237.602853 
L 651.22947 238.00554 
L 651.70479 238.08373 
L 652.180111 237.907758 
L 652.655431 237.465049 
L 653.209972 236.622475 
L 653.843733 235.224599 
L 654.556714 233.099815 
L 655.428135 229.73046 
L 656.854097 223.086261 
L 657.883958 218.687671 
L 658.517719 216.866243 
L 658.99304 216.149455 
L 659.30992 215.99948 
L 659.626801 216.092222 
L 660.022901 216.520453 
L 660.577442 217.56683 
L 662.874825 222.51842 
L 663.350145 222.985036 
L 663.746246 223.080623 
L 664.063126 222.954861 
L 664.459227 222.545942 
L 664.934547 221.722096 
L 665.489088 220.189529 
L 666.122849 217.667627 
L 666.99427 213.142431 
L 667.548811 209.38039 
L 670.559175 187.825721 
L 672.222797 178.514931 
L 672.777338 173.599434 
L 673.252658 167.469548 
L 673.807199 156.961299 
L 674.28252 142.270414 
L 674.67862 121.181407 
L 675.153941 80.128304 
L 675.629261 19.8 
L 675.629261 19.8 
" clip-path="url(#p734d88671f)" style="fill: none; stroke: #1f77b4; stroke-width: 1.5; stroke-linecap: square"/>
   </g>
   <g id="line2d_15">
    <path d="M 36.465625 179.63464 
L 706.065625 179.63464 
" clip-path="url(#p734d88671f)" style="fill: none; stroke-dasharray: 2.22,0.96; stroke-dashoffset: 0; stroke: #ff0000; stroke-width: 0.6"/>
   </g>
   <g id="line2d_16">
    <path d="M 66.901989 271.57535 
L 67.456529 271.363704 
L 68.961711 270.532406 
L 70.546113 269.75715 
L 71.892855 269.057077 
L 72.764276 268.32805 
L 73.714918 267.210383 
L 74.982439 265.319808 
L 76.408401 262.794507 
L 77.755143 259.929819 
L 79.497985 256.210637 
L 80.131746 255.316121 
L 80.686287 254.900125 
L 81.082387 254.840586 
L 81.478488 254.983349 
L 81.953808 255.408587 
L 82.587569 256.346036 
L 83.45899 258.108743 
L 86.310914 264.191013 
L 87.578436 266.271438 
L 88.687517 267.695193 
L 89.638158 268.580178 
L 90.74724 269.294393 
L 94.312144 271.11946 
L 95.421226 271.406731 
L 97.560169 271.638087 
L 99.778331 271.794476 
L 101.600394 271.607264 
L 104.927638 271.140929 
L 106.03672 270.605897 
L 110.156165 268.182616 
L 111.027586 267.235485 
L 112.136668 265.663747 
L 113.562629 263.212389 
L 114.909371 260.437603 
L 117.127534 255.685932 
L 117.761295 254.865214 
L 118.236615 254.556511 
L 118.632716 254.522036 
L 119.028817 254.692048 
L 119.504137 255.150509 
L 120.137898 256.128237 
L 121.088539 258.10873 
L 123.623583 263.601225 
L 124.891104 265.750226 
L 126.000186 267.217895 
L 127.030047 268.203877 
L 128.218348 268.999754 
L 131.149492 270.591492 
L 132.337794 270.968111 
L 133.922196 271.189077 
L 136.85334 271.408175 
L 138.913062 271.188313 
L 141.368886 270.834499 
L 142.398747 270.404518 
L 145.171451 268.836536 
L 146.359752 268.04534 
L 147.231173 267.197911 
L 148.181814 265.958766 
L 149.449336 263.896758 
L 150.796078 261.280038 
L 154.044102 254.608271 
L 154.598643 254.162418 
L 154.994743 254.087005 
L 155.390844 254.219816 
L 155.866164 254.64137 
L 156.420705 255.447913 
L 157.212906 257.022638 
L 160.619371 264.296839 
L 161.807672 266.12654 
L 162.837534 267.319796 
L 163.867395 268.181816 
L 165.610237 269.287712 
L 167.4323 270.247443 
L 168.620601 270.602849 
L 170.601104 270.890791 
L 172.581606 271.03073 
L 174.245228 270.87163 
L 177.176372 270.39032 
L 178.285454 269.892286 
L 180.820497 268.368092 
L 182.008799 267.490809 
L 182.95944 266.481049 
L 183.989301 265.022281 
L 185.256823 262.807166 
L 186.603565 260.004886 
L 189.059388 254.690118 
L 189.693149 253.921066 
L 190.168469 253.668204 
L 190.56457 253.68873 
L 190.96067 253.918177 
L 191.435991 254.448639 
L 192.069752 255.513394 
L 193.099613 257.771668 
L 195.317776 262.701697 
L 196.585298 264.923744 
L 197.694379 266.417837 
L 198.72424 267.434585 
L 200.070982 268.420773 
L 202.051485 269.601157 
L 203.239786 270.061698 
L 204.665748 270.352293 
L 207.121571 270.615171 
L 208.547533 270.526267 
L 211.478677 270.063158 
L 212.587758 269.633493 
L 214.01372 268.793824 
L 216.231883 267.248859 
L 217.182524 266.290829 
L 218.133166 265.007854 
L 219.321467 262.99061 
L 220.668209 260.244195 
L 223.599353 253.952036 
L 224.153893 253.371823 
L 224.629214 253.190676 
L 225.025315 253.275712 
L 225.500635 253.652377 
L 226.055176 254.426661 
L 226.847377 255.992525 
L 230.491502 263.874441 
L 231.600583 265.532941 
L 232.630444 266.687518 
L 233.818746 267.681022 
L 235.561588 268.841595 
L 236.82911 269.452047 
L 238.096632 269.804588 
L 240.235574 270.126051 
L 241.661536 270.145047 
L 243.642039 269.896134 
L 245.305661 269.53259 
L 246.414742 269.044452 
L 247.919924 268.091692 
L 249.662767 266.770252 
L 250.613408 265.776404 
L 251.564049 264.459606 
L 252.673131 262.535199 
L 254.019872 259.730182 
L 256.871796 253.511971 
L 257.426337 252.902963 
L 257.901657 252.699773 
L 258.297758 252.770066 
L 258.773079 253.13469 
L 259.327619 253.903292 
L 260.11982 255.475104 
L 263.843165 263.587769 
L 264.952247 265.221858 
L 265.982108 266.361588 
L 267.24963 267.430075 
L 268.834032 268.483812 
L 270.022333 269.026828 
L 271.369075 269.384836 
L 273.270357 269.657042 
L 274.617099 269.644299 
L 276.597602 269.358108 
L 278.023564 268.980782 
L 279.132645 268.446829 
L 280.637827 267.429802 
L 282.143009 266.182417 
L 283.17287 265.019552 
L 284.202732 263.473599 
L 285.391033 261.243175 
L 286.816995 258.047332 
L 288.797498 253.545729 
L 289.431258 252.618885 
L 289.906579 252.24366 
L 290.30268 252.169215 
L 290.69878 252.316566 
L 291.174101 252.771609 
L 291.728641 253.633327 
L 292.600063 255.484812 
L 295.610426 262.303979 
L 296.719508 264.142076 
L 297.749369 265.448771 
L 298.937671 266.592513 
L 300.363633 267.663779 
L 301.631154 268.353502 
L 302.898676 268.774412 
L 304.641518 269.092163 
L 306.06748 269.136821 
L 307.651882 268.937042 
L 309.315504 268.531381 
L 310.424586 268.031216 
L 311.692107 267.191411 
L 313.276509 265.865016 
L 314.306371 264.728791 
L 315.257012 263.352783 
L 316.366094 261.330974 
L 317.712835 258.3681 
L 320.168658 252.750312 
L 320.802419 251.90986 
L 321.27774 251.619965 
L 321.67384 251.624669 
L 322.069941 251.853226 
L 322.545262 252.401288 
L 323.179022 253.51468 
L 324.208884 255.885531 
L 326.347827 260.895511 
L 327.536128 263.073985 
L 328.565989 264.5317 
L 329.675071 265.732994 
L 331.021813 266.861031 
L 332.289334 267.64352 
L 333.477636 268.115042 
L 334.982818 268.459676 
L 336.40878 268.573877 
L 337.755521 268.45447 
L 339.419144 268.086418 
L 340.607445 267.606876 
L 341.716527 266.913663 
L 343.142488 265.741805 
L 344.33079 264.492207 
L 345.281431 263.177187 
L 346.311293 261.366468 
L 347.578814 258.642842 
L 350.668398 251.682193 
L 351.222939 251.116604 
L 351.619039 250.975169 
L 352.01514 251.064056 
L 352.41124 251.377101 
L 352.965781 252.151559 
L 353.678762 253.586866 
L 355.263164 257.483584 
L 356.689126 260.705264 
L 357.798207 262.703151 
L 358.907289 264.238781 
L 360.09559 265.489307 
L 361.363112 266.509627 
L 362.551414 267.184656 
L 363.818935 267.632094 
L 365.244897 267.90221 
L 366.512419 267.928025 
L 367.938381 267.717536 
L 369.364343 267.292008 
L 370.473424 266.726281 
L 371.661726 265.849102 
L 373.008467 264.562506 
L 374.038329 263.286629 
L 375.06819 261.629219 
L 376.177271 259.393702 
L 377.603233 255.973593 
L 379.346076 251.831262 
L 379.979836 250.825287 
L 380.455157 250.401524 
L 380.851257 250.298517 
L 381.247358 250.430514 
L 381.722679 250.885411 
L 382.277219 251.769862 
L 383.06942 253.500133 
L 386.238224 260.933107 
L 387.347306 262.772314 
L 388.456387 264.179192 
L 389.644689 265.33526 
L 390.83299 266.188903 
L 391.942072 266.723168 
L 393.209594 267.091521 
L 394.477115 267.244405 
L 395.744637 267.162598 
L 397.170599 266.828462 
L 398.3589 266.328364 
L 399.467982 265.6005 
L 400.656283 264.542583 
L 401.844585 263.183273 
L 402.874446 261.643766 
L 403.904308 259.686912 
L 405.171829 256.758369 
L 407.706872 250.689371 
L 408.340633 249.842701 
L 408.815954 249.573389 
L 409.212054 249.611548 
L 409.608155 249.886172 
L 410.083476 250.501249 
L 410.717236 251.712274 
L 411.826318 254.434986 
L 413.7276 259.074513 
L 414.836682 261.206159 
L 415.945763 262.856469 
L 417.054845 264.12036 
L 418.163926 265.078196 
L 419.273008 265.752612 
L 420.461309 266.207222 
L 421.728831 266.44792 
L 422.917132 266.439819 
L 424.184654 266.194134 
L 425.372955 265.748203 
L 426.402817 265.134201 
L 427.511898 264.200679 
L 428.7002 262.890708 
L 429.730061 261.423032 
L 430.759922 259.544162 
L 431.948224 256.860218 
L 435.037808 249.499725 
L 435.592349 248.896452 
L 435.988449 248.744866 
L 436.38455 248.838958 
L 436.78065 249.172038 
L 437.335191 249.995269 
L 438.048172 251.515526 
L 439.791014 256.012053 
L 441.137756 259.103581 
L 442.246837 261.101141 
L 443.355919 262.635576 
L 444.465 263.799021 
L 445.574082 264.63964 
L 446.683163 265.19326 
L 447.871465 265.527285 
L 448.980546 265.612288 
L 450.089628 265.476617 
L 451.277929 265.103811 
L 452.307791 264.559948 
L 453.337652 263.759226 
L 454.446733 262.596888 
L 455.476595 261.20859 
L 456.506456 259.431021 
L 457.615537 257.023618 
L 459.120719 253.122688 
L 460.546681 249.54914 
L 461.259662 248.342003 
L 461.734983 247.916378 
L 462.131083 247.831407 
L 462.527184 247.998306 
L 463.002504 248.513362 
L 463.557045 249.484099 
L 464.428466 251.549982 
L 467.12195 258.283023 
L 468.231031 260.318585 
L 469.340113 261.877042 
L 470.369974 262.966999 
L 471.399835 263.752129 
L 472.429697 264.270602 
L 473.538778 264.577085 
L 474.56864 264.637661 
L 475.598501 264.484418 
L 476.707582 264.089481 
L 477.737444 263.478573 
L 478.767305 262.585072 
L 479.797166 261.390942 
L 480.827028 259.855219 
L 481.856889 257.893847 
L 482.96597 255.279221 
L 486.055554 247.58283 
L 486.610095 246.958733 
L 487.006196 246.808037 
L 487.402296 246.916601 
L 487.798397 247.276359 
L 488.352937 248.152453 
L 489.065918 249.754298 
L 492.630823 258.515858 
L 493.660684 260.203157 
L 494.690546 261.492612 
L 495.720407 262.432843 
L 496.750268 263.064249 
L 497.78013 263.429458 
L 498.730771 263.545886 
L 499.681412 263.451211 
L 500.711274 263.117266 
L 501.661915 262.582273 
L 502.612556 261.792966 
L 503.642417 260.620998 
L 504.672279 259.087429 
L 505.70214 257.12098 
L 506.811222 254.478134 
L 509.980026 246.39804 
L 510.455346 245.839806 
L 510.851447 245.652467 
L 511.247547 245.732091 
L 511.643648 246.07231 
L 512.118968 246.789624 
L 512.831949 248.352343 
L 514.257911 252.24091 
L 515.683873 255.851284 
L 516.792955 258.060887 
L 517.822816 259.633579 
L 518.852677 260.796506 
L 519.803318 261.546431 
L 520.75396 262.02366 
L 521.704601 262.252429 
L 522.655242 262.237815 
L 523.605883 261.984331 
L 524.556525 261.48648 
L 525.507166 260.712795 
L 526.457807 259.630359 
L 527.408448 258.213865 
L 528.43831 256.248317 
L 529.547391 253.581995 
L 531.211013 248.839976 
L 532.320095 245.954762 
L 532.953856 244.836633 
L 533.429176 244.392354 
L 533.825277 244.318424 
L 534.221377 244.51963 
L 534.696698 245.101772 
L 535.251239 246.175189 
L 536.12266 248.417817 
L 538.499263 254.779655 
L 539.529124 256.854284 
L 540.558985 258.440035 
L 541.509627 259.508168 
L 542.460268 260.23536 
L 543.331689 260.631097 
L 544.20311 260.78013 
L 545.074531 260.690285 
L 545.945952 260.374259 
L 546.817374 259.822553 
L 547.688795 259.003438 
L 548.639436 257.772717 
L 549.590077 256.17096 
L 550.619939 253.964733 
L 551.6498 251.199796 
L 554.184843 244.057077 
L 554.739384 243.161937 
L 555.214705 242.781681 
L 555.610805 242.768112 
L 556.006906 243.037916 
L 556.482226 243.717588 
L 557.115987 245.111254 
L 558.225068 248.253861 
L 559.809471 252.571851 
L 560.918552 254.975994 
L 561.948413 256.682398 
L 562.899055 257.828981 
L 563.770476 258.534681 
L 564.562677 258.911201 
L 565.354878 259.051561 
L 566.147079 258.960222 
L 566.93928 258.635622 
L 567.731481 258.069802 
L 568.602902 257.150301 
L 569.474323 255.895496 
L 570.424964 254.122926 
L 571.375606 251.883927 
L 572.563907 248.464841 
L 574.62363 242.443017 
L 575.257391 241.315888 
L 575.732711 240.913865 
L 576.049592 240.882368 
L 576.366472 241.04203 
L 576.762573 241.496378 
L 577.317113 242.542189 
L 578.109314 244.610223 
L 580.802798 252.087463 
L 581.753439 253.960898 
L 582.62486 255.246365 
L 583.496281 256.144586 
L 584.288482 256.649941 
L 585.001463 256.864779 
L 585.714444 256.857793 
L 586.427425 256.630412 
L 587.140406 256.179042 
L 587.932607 255.404319 
L 588.724808 254.32044 
L 589.596229 252.73933 
L 590.546871 250.523022 
L 591.655952 247.311604 
L 594.111775 239.876928 
L 594.666316 238.941468 
L 595.062416 238.615652 
L 595.379297 238.579617 
L 595.696177 238.744635 
L 596.092278 239.218537 
L 596.646819 240.310203 
L 597.43902 242.46022 
L 599.894843 249.513021 
L 600.845484 251.475643 
L 601.716905 252.790789 
L 602.509106 253.601549 
L 603.222087 254.03428 
L 603.855848 254.190549 
L 604.489609 254.136511 
L 605.12337 253.872814 
L 605.83635 253.319452 
L 606.549331 252.480544 
L 607.341532 251.192763 
L 608.212954 249.321233 
L 609.163595 246.728074 
L 610.431116 242.543542 
L 611.936298 237.675854 
L 612.570059 236.306322 
L 613.04538 235.756442 
L 613.36226 235.650188 
L 613.679141 235.757196 
L 614.075241 236.178252 
L 614.550562 237.054491 
L 615.263543 238.923466 
L 618.194687 247.314257 
L 619.066108 248.922699 
L 619.858309 249.927374 
L 620.57129 250.469422 
L 621.20505 250.669502 
L 621.759591 250.629773 
L 622.393352 250.338604 
L 623.027113 249.781045 
L 623.740094 248.824237 
L 624.532295 247.333839 
L 625.403716 245.159471 
L 626.433577 241.899178 
L 629.127061 232.834066 
L 629.602381 232.039889 
L 629.998482 231.749638 
L 630.315362 231.774328 
L 630.632243 232.022769 
L 631.028343 232.621743 
L 631.582884 233.901479 
L 632.533525 236.777529 
L 634.197147 241.745512 
L 635.068569 243.663824 
L 635.781549 244.773377 
L 636.41531 245.403775 
L 636.969851 245.682816 
L 637.524392 245.714047 
L 638.078932 245.489977 
L 638.633473 245.007193 
L 639.267234 244.132336 
L 639.980215 242.725571 
L 640.772416 240.631352 
L 641.723057 237.420042 
L 644.574981 226.978341 
L 645.050302 226.220598 
L 645.367182 226.018304 
L 645.684062 226.05697 
L 646.000943 226.326216 
L 646.397043 226.958547 
L 646.951584 228.282336 
L 648.060665 231.680949 
L 649.248967 235.096879 
L 650.041168 236.741237 
L 650.674929 237.602853 
L 651.22947 238.00554 
L 651.70479 238.08373 
L 652.180111 237.907758 
L 652.655431 237.465049 
L 653.209972 236.622475 
L 653.843733 235.224599 
L 654.556714 233.099815 
L 655.428135 229.73046 
L 656.854097 223.086261 
L 657.883958 218.687671 
L 658.517719 216.866243 
L 658.99304 216.149455 
L 659.30992 215.99948 
L 659.626801 216.092222 
L 660.022901 216.520453 
L 660.577442 217.56683 
L 662.874825 222.51842 
L 663.350145 222.985036 
L 663.746246 223.080623 
L 664.063126 222.954861 
L 664.459227 222.545942 
L 664.934547 221.722096 
L 665.489088 220.189529 
L 666.122849 217.667627 
L 666.99427 213.142431 
L 667.548811 209.38039 
L 670.559175 187.825721 
L 671.985137 180.143784 
L 671.985137 180.143784 
" clip-path="url(#p734d88671f)" style="fill: none; stroke: #ff7f0e; stroke-width: 1.5; stroke-linecap: square"/>
   </g>
   <g id="patch_3">
    <path d="M 36.465625 284.4 
L 36.465625 7.2 
" style="fill: none; stroke: #000000; stroke-width: 0.8; stroke-linejoin: miter; stroke-linecap: square"/>
   </g>
   <g id="patch_4">
    <path d="M 706.065625 284.4 
L 706.065625 7.2 
" style="fill: none; stroke: #000000; stroke-width: 0.8; stroke-linejoin: miter; stroke-linecap: square"/>
   </g>
   <g id="patch_5">
    <path d="M 36.465625 284.4 
L 706.065625 284.4 
" style="fill: none; stroke: #000000; stroke-width: 0.8; stroke-linejoin: miter; stroke-linecap: square"/>
   </g>
   <g id="patch_6">
    <path d="M 36.465625 7.2 
L 706.065625 7.2 
" style="fill: none; stroke: #000000; stroke-width: 0.8; stroke-linejoin: miter; stroke-linecap: square"/>
   </g>
   <g id="legend_1">
    <g id="patch_7">
     <path d="M 43.465625 73.9125 
L 205.965625 73.9125 
Q 207.965625 73.9125 207.965625 71.9125 
L 207.965625 14.2 
Q 207.965625 12.2 205.965625 12.2 
L 43.465625 12.2 
Q 41.465625 12.2 41.465625 14.2 
L 41.465625 71.9125 
Q 41.465625 73.9125 43.465625 73.9125 
z
" style="fill: #ffffff; opacity: 0.8; stroke: #cccccc; stroke-linejoin: miter"/>
    </g>
    <g id="line2d_17">
     <path d="M 45.465625 20.298438 
L 55.465625 20.298438 
L 65.465625 20.298438 
" style="fill: none; stroke: #1f77b4; stroke-width: 1.5; stroke-linecap: square"/>
    </g>
    <g id="text_14">
     <!-- Mf before ISCO cut: $e$=0.2 -->
     <g transform="translate(73.465625 23.798438) scale(0.1 -0.1)">
      <defs>
       <path id="DejaVuSans-4d" d="M 628 4666 
L 1569 4666 
L 2759 1491 
L 3956 4666 
L 4897 4666 
L 4897 0 
L 4281 0 
L 4281 4097 
L 3078 897 
L 2444 897 
L 1241 4097 
L 1241 0 
L 628 0 
L 628 4666 
z
" transform="scale(0.015625)"/>
       <path id="DejaVuSans-66" d="M 2375 4863 
L 2375 4384 
L 1825 4384 
Q 1516 4384 1395 4259 
Q 1275 4134 1275 3809 
L 1275 3500 
L 2222 3500 
L 2222 3053 
L 1275 3053 
L 1275 0 
L 697 0 
L 697 3053 
L 147 3053 
L 147 3500 
L 697 3500 
L 697 3744 
Q 697 4328 969 4595 
Q 1241 4863 1831 4863 
L 2375 4863 
z
" transform="scale(0.015625)"/>
       <path id="DejaVuSans-20" transform="scale(0.015625)"/>
       <path id="DejaVuSans-62" d="M 3116 1747 
Q 3116 2381 2855 2742 
Q 2594 3103 2138 3103 
Q 1681 3103 1420 2742 
Q 1159 2381 1159 1747 
Q 1159 1113 1420 752 
Q 1681 391 2138 391 
Q 2594 391 2855 752 
Q 3116 1113 3116 1747 
z
M 1159 2969 
Q 1341 3281 1617 3432 
Q 1894 3584 2278 3584 
Q 2916 3584 3314 3078 
Q 3713 2572 3713 1747 
Q 3713 922 3314 415 
Q 2916 -91 2278 -91 
Q 1894 -91 1617 61 
Q 1341 213 1159 525 
L 1159 0 
L 581 0 
L 581 4863 
L 1159 4863 
L 1159 2969 
z
" transform="scale(0.015625)"/>
       <path id="DejaVuSans-65" d="M 3597 1894 
L 3597 1613 
L 953 1613 
Q 991 1019 1311 708 
Q 1631 397 2203 397 
Q 2534 397 2845 478 
Q 3156 559 3463 722 
L 3463 178 
Q 3153 47 2828 -22 
Q 2503 -91 2169 -91 
Q 1331 -91 842 396 
Q 353 884 353 1716 
Q 353 2575 817 3079 
Q 1281 3584 2069 3584 
Q 2775 3584 3186 3129 
Q 3597 2675 3597 1894 
z
M 3022 2063 
Q 3016 2534 2758 2815 
Q 2500 3097 2075 3097 
Q 1594 3097 1305 2825 
Q 1016 2553 972 2059 
L 3022 2063 
z
" transform="scale(0.015625)"/>
       <path id="DejaVuSans-6f" d="M 1959 3097 
Q 1497 3097 1228 2736 
Q 959 2375 959 1747 
Q 959 1119 1226 758 
Q 1494 397 1959 397 
Q 2419 397 2687 759 
Q 2956 1122 2956 1747 
Q 2956 2369 2687 2733 
Q 2419 3097 1959 3097 
z
M 1959 3584 
Q 2709 3584 3137 3096 
Q 3566 2609 3566 1747 
Q 3566 888 3137 398 
Q 2709 -91 1959 -91 
Q 1206 -91 779 398 
Q 353 888 353 1747 
Q 353 2609 779 3096 
Q 1206 3584 1959 3584 
z
" transform="scale(0.015625)"/>
       <path id="DejaVuSans-72" d="M 2631 2963 
Q 2534 3019 2420 3045 
Q 2306 3072 2169 3072 
Q 1681 3072 1420 2755 
Q 1159 2438 1159 1844 
L 1159 0 
L 581 0 
L 581 3500 
L 1159 3500 
L 1159 2956 
Q 1341 3275 1631 3429 
Q 1922 3584 2338 3584 
Q 2397 3584 2469 3576 
Q 2541 3569 2628 3553 
L 2631 2963 
z
" transform="scale(0.015625)"/>
       <path id="DejaVuSans-49" d="M 628 4666 
L 1259 4666 
L 1259 0 
L 628 0 
L 628 4666 
z
" transform="scale(0.015625)"/>
       <path id="DejaVuSans-53" d="M 3425 4513 
L 3425 3897 
Q 3066 4069 2747 4153 
Q 2428 4238 2131 4238 
Q 1616 4238 1336 4038 
Q 1056 3838 1056 3469 
Q 1056 3159 1242 3001 
Q 1428 2844 1947 2747 
L 2328 2669 
Q 3034 2534 3370 2195 
Q 3706 1856 3706 1288 
Q 3706 609 3251 259 
Q 2797 -91 1919 -91 
Q 1588 -91 1214 -16 
Q 841 59 441 206 
L 441 856 
Q 825 641 1194 531 
Q 1563 422 1919 422 
Q 2459 422 2753 634 
Q 3047 847 3047 1241 
Q 3047 1584 2836 1778 
Q 2625 1972 2144 2069 
L 1759 2144 
Q 1053 2284 737 2584 
Q 422 2884 422 3419 
Q 422 4038 858 4394 
Q 1294 4750 2059 4750 
Q 2388 4750 2728 4690 
Q 3069 4631 3425 4513 
z
" transform="scale(0.015625)"/>
       <path id="DejaVuSans-43" d="M 4122 4306 
L 4122 3641 
Q 3803 3938 3442 4084 
Q 3081 4231 2675 4231 
Q 1875 4231 1450 3742 
Q 1025 3253 1025 2328 
Q 1025 1406 1450 917 
Q 1875 428 2675 428 
Q 3081 428 3442 575 
Q 3803 722 4122 1019 
L 4122 359 
Q 3791 134 3420 21 
Q 3050 -91 2638 -91 
Q 1578 -91 968 557 
Q 359 1206 359 2328 
Q 359 3453 968 4101 
Q 1578 4750 2638 4750 
Q 3056 4750 3426 4639 
Q 3797 4528 4122 4306 
z
" transform="scale(0.015625)"/>
       <path id="DejaVuSans-4f" d="M 2522 4238 
Q 1834 4238 1429 3725 
Q 1025 3213 1025 2328 
Q 1025 1447 1429 934 
Q 1834 422 2522 422 
Q 3209 422 3611 934 
Q 4013 1447 4013 2328 
Q 4013 3213 3611 3725 
Q 3209 4238 2522 4238 
z
M 2522 4750 
Q 3503 4750 4090 4092 
Q 4678 3434 4678 2328 
Q 4678 1225 4090 567 
Q 3503 -91 2522 -91 
Q 1538 -91 948 565 
Q 359 1222 359 2328 
Q 359 3434 948 4092 
Q 1538 4750 2522 4750 
z
" transform="scale(0.015625)"/>
       <path id="DejaVuSans-63" d="M 3122 3366 
L 3122 2828 
Q 2878 2963 2633 3030 
Q 2388 3097 2138 3097 
Q 1578 3097 1268 2742 
Q 959 2388 959 1747 
Q 959 1106 1268 751 
Q 1578 397 2138 397 
Q 2388 397 2633 464 
Q 2878 531 3122 666 
L 3122 134 
Q 2881 22 2623 -34 
Q 2366 -91 2075 -91 
Q 1284 -91 818 406 
Q 353 903 353 1747 
Q 353 2603 823 3093 
Q 1294 3584 2113 3584 
Q 2378 3584 2631 3529 
Q 2884 3475 3122 3366 
z
" transform="scale(0.015625)"/>
       <path id="DejaVuSans-75" d="M 544 1381 
L 544 3500 
L 1119 3500 
L 1119 1403 
Q 1119 906 1312 657 
Q 1506 409 1894 409 
Q 2359 409 2629 706 
Q 2900 1003 2900 1516 
L 2900 3500 
L 3475 3500 
L 3475 0 
L 2900 0 
L 2900 538 
Q 2691 219 2414 64 
Q 2138 -91 1772 -91 
Q 1169 -91 856 284 
Q 544 659 544 1381 
z
M 1991 3584 
L 1991 3584 
z
" transform="scale(0.015625)"/>
       <path id="DejaVuSans-74" d="M 1172 4494 
L 1172 3500 
L 2356 3500 
L 2356 3053 
L 1172 3053 
L 1172 1153 
Q 1172 725 1289 603 
Q 1406 481 1766 481 
L 2356 481 
L 2356 0 
L 1766 0 
Q 1100 0 847 248 
Q 594 497 594 1153 
L 594 3053 
L 172 3053 
L 172 3500 
L 594 3500 
L 594 4494 
L 1172 4494 
z
" transform="scale(0.015625)"/>
       <path id="DejaVuSans-3a" d="M 750 794 
L 1409 794 
L 1409 0 
L 750 0 
L 750 794 
z
M 750 3309 
L 1409 3309 
L 1409 2516 
L 750 2516 
L 750 3309 
z
" transform="scale(0.015625)"/>
       <path id="DejaVuSans-Oblique-65" d="M 3078 2063 
Q 3088 2113 3092 2166 
Q 3097 2219 3097 2272 
Q 3097 2653 2873 2875 
Q 2650 3097 2266 3097 
Q 1838 3097 1509 2826 
Q 1181 2556 1013 2059 
L 3078 2063 
z
M 3578 1613 
L 903 1613 
Q 884 1494 878 1425 
Q 872 1356 872 1306 
Q 872 872 1139 634 
Q 1406 397 1894 397 
Q 2269 397 2603 481 
Q 2938 566 3225 728 
L 3116 159 
Q 2806 34 2476 -28 
Q 2147 -91 1806 -91 
Q 1078 -91 686 257 
Q 294 606 294 1247 
Q 294 1794 489 2264 
Q 684 2734 1063 3103 
Q 1306 3334 1642 3459 
Q 1978 3584 2356 3584 
Q 2950 3584 3301 3228 
Q 3653 2872 3653 2272 
Q 3653 2128 3634 1964 
Q 3616 1800 3578 1613 
z
" transform="scale(0.015625)"/>
       <path id="DejaVuSans-3d" d="M 678 2906 
L 4684 2906 
L 4684 2381 
L 678 2381 
L 678 2906 
z
M 678 1631 
L 4684 1631 
L 4684 1100 
L 678 1100 
L 678 1631 
z
" transform="scale(0.015625)"/>
      </defs>
      <use xlink:href="#DejaVuSans-4d" transform="translate(0 0.015625)"/>
      <use xlink:href="#DejaVuSans-66" transform="translate(86.279297 0.015625)"/>
      <use xlink:href="#DejaVuSans-20" transform="translate(121.484375 0.015625)"/>
      <use xlink:href="#DejaVuSans-62" transform="translate(153.271484 0.015625)"/>
      <use xlink:href="#DejaVuSans-65" transform="translate(216.748047 0.015625)"/>
      <use xlink:href="#DejaVuSans-66" transform="translate(278.271484 0.015625)"/>
      <use xlink:href="#DejaVuSans-6f" transform="translate(313.476562 0.015625)"/>
      <use xlink:href="#DejaVuSans-72" transform="translate(374.658203 0.015625)"/>
      <use xlink:href="#DejaVuSans-65" transform="translate(415.771484 0.015625)"/>
      <use xlink:href="#DejaVuSans-20" transform="translate(477.294922 0.015625)"/>
      <use xlink:href="#DejaVuSans-49" transform="translate(509.082031 0.015625)"/>
      <use xlink:href="#DejaVuSans-53" transform="translate(538.574219 0.015625)"/>
      <use xlink:href="#DejaVuSans-43" transform="translate(602.050781 0.015625)"/>
      <use xlink:href="#DejaVuSans-4f" transform="translate(671.875 0.015625)"/>
      <use xlink:href="#DejaVuSans-20" transform="translate(750.585938 0.015625)"/>
      <use xlink:href="#DejaVuSans-63" transform="translate(782.373047 0.015625)"/>
      <use xlink:href="#DejaVuSans-75" transform="translate(837.353516 0.015625)"/>
      <use xlink:href="#DejaVuSans-74" transform="translate(900.732422 0.015625)"/>
      <use xlink:href="#DejaVuSans-3a" transform="translate(939.941406 0.015625)"/>
      <use xlink:href="#DejaVuSans-20" transform="translate(973.632812 0.015625)"/>
      <use xlink:href="#DejaVuSans-Oblique-65" transform="translate(1005.419922 0.015625)"/>
      <use xlink:href="#DejaVuSans-3d" transform="translate(1066.943359 0.015625)"/>
      <use xlink:href="#DejaVuSans-30" transform="translate(1150.732422 0.015625)"/>
      <use xlink:href="#DejaVuSans-2e" transform="translate(1214.355469 0.015625)"/>
      <use xlink:href="#DejaVuSans-32" transform="translate(1240.642578 0.015625)"/>
     </g>
    </g>
    <g id="line2d_18">
     <path d="M 45.465625 34.976563 
L 55.465625 34.976563 
L 65.465625 34.976563 
" style="fill: none; stroke-dasharray: 2.22,0.96; stroke-dashoffset: 0; stroke: #ff0000; stroke-width: 0.6"/>
    </g>
    <g id="text_15">
     <!-- Mf ISCO $e$=0 -->
     <g transform="translate(73.465625 38.476563) scale(0.1 -0.1)">
      <use xlink:href="#DejaVuSans-4d" transform="translate(0 0.015625)"/>
      <use xlink:href="#DejaVuSans-66" transform="translate(86.279297 0.015625)"/>
      <use xlink:href="#DejaVuSans-20" transform="translate(121.484375 0.015625)"/>
      <use xlink:href="#DejaVuSans-49" transform="translate(153.271484 0.015625)"/>
      <use xlink:href="#DejaVuSans-53" transform="translate(182.763672 0.015625)"/>
      <use xlink:href="#DejaVuSans-43" transform="translate(246.240234 0.015625)"/>
      <use xlink:href="#DejaVuSans-4f" transform="translate(316.064453 0.015625)"/>
      <use xlink:href="#DejaVuSans-20" transform="translate(394.775391 0.015625)"/>
      <use xlink:href="#DejaVuSans-Oblique-65" transform="translate(426.5625 0.015625)"/>
      <use xlink:href="#DejaVuSans-3d" transform="translate(488.085938 0.015625)"/>
      <use xlink:href="#DejaVuSans-30" transform="translate(571.875 0.015625)"/>
     </g>
    </g>
    <g id="PathCollection_2">
     <g>
      <use xlink:href="#mb3c0a431fd" x="55.465625" y="50.529688" style="fill: #ff0000; stroke: #ff0000"/>
     </g>
    </g>
    <g id="text_16">
     <!-- ISCO cut -->
     <g transform="translate(73.465625 53.154688) scale(0.1 -0.1)">
      <use xlink:href="#DejaVuSans-49"/>
      <use xlink:href="#DejaVuSans-53" transform="translate(29.492188 0)"/>
      <use xlink:href="#DejaVuSans-43" transform="translate(92.96875 0)"/>
      <use xlink:href="#DejaVuSans-4f" transform="translate(162.792969 0)"/>
      <use xlink:href="#DejaVuSans-20" transform="translate(241.503906 0)"/>
      <use xlink:href="#DejaVuSans-63" transform="translate(273.291016 0)"/>
      <use xlink:href="#DejaVuSans-75" transform="translate(328.271484 0)"/>
      <use xlink:href="#DejaVuSans-74" transform="translate(391.650391 0)"/>
     </g>
    </g>
    <g id="line2d_19">
     <path d="M 45.465625 64.332813 
L 55.465625 64.332813 
L 65.465625 64.332813 
" style="fill: none; stroke: #ff7f0e; stroke-width: 1.5; stroke-linecap: square"/>
    </g>
    <g id="text_17">
     <!-- Mf after ISCO cut: $e$=0.2  -->
     <g transform="translate(73.465625 67.832813) scale(0.1 -0.1)">
      <defs>
       <path id="DejaVuSans-61" d="M 2194 1759 
Q 1497 1759 1228 1600 
Q 959 1441 959 1056 
Q 959 750 1161 570 
Q 1363 391 1709 391 
Q 2188 391 2477 730 
Q 2766 1069 2766 1631 
L 2766 1759 
L 2194 1759 
z
M 3341 1997 
L 3341 0 
L 2766 0 
L 2766 531 
Q 2569 213 2275 61 
Q 1981 -91 1556 -91 
Q 1019 -91 701 211 
Q 384 513 384 1019 
Q 384 1609 779 1909 
Q 1175 2209 1959 2209 
L 2766 2209 
L 2766 2266 
Q 2766 2663 2505 2880 
Q 2244 3097 1772 3097 
Q 1472 3097 1187 3025 
Q 903 2953 641 2809 
L 641 3341 
Q 956 3463 1253 3523 
Q 1550 3584 1831 3584 
Q 2591 3584 2966 3190 
Q 3341 2797 3341 1997 
z
" transform="scale(0.015625)"/>
      </defs>
      <use xlink:href="#DejaVuSans-4d" transform="translate(0 0.015625)"/>
      <use xlink:href="#DejaVuSans-66" transform="translate(86.279297 0.015625)"/>
      <use xlink:href="#DejaVuSans-20" transform="translate(121.484375 0.015625)"/>
      <use xlink:href="#DejaVuSans-61" transform="translate(153.271484 0.015625)"/>
      <use xlink:href="#DejaVuSans-66" transform="translate(214.550781 0.015625)"/>
      <use xlink:href="#DejaVuSans-74" transform="translate(249.755859 0.015625)"/>
      <use xlink:href="#DejaVuSans-65" transform="translate(288.964844 0.015625)"/>
      <use xlink:href="#DejaVuSans-72" transform="translate(350.488281 0.015625)"/>
      <use xlink:href="#DejaVuSans-20" transform="translate(391.601562 0.015625)"/>
      <use xlink:href="#DejaVuSans-49" transform="translate(423.388672 0.015625)"/>
      <use xlink:href="#DejaVuSans-53" transform="translate(452.880859 0.015625)"/>
      <use xlink:href="#DejaVuSans-43" transform="translate(516.357422 0.015625)"/>
      <use xlink:href="#DejaVuSans-4f" transform="translate(586.181641 0.015625)"/>
      <use xlink:href="#DejaVuSans-20" transform="translate(664.892578 0.015625)"/>
      <use xlink:href="#DejaVuSans-63" transform="translate(696.679688 0.015625)"/>
      <use xlink:href="#DejaVuSans-75" transform="translate(751.660156 0.015625)"/>
      <use xlink:href="#DejaVuSans-74" transform="translate(815.039062 0.015625)"/>
      <use xlink:href="#DejaVuSans-3a" transform="translate(854.248047 0.015625)"/>
      <use xlink:href="#DejaVuSans-20" transform="translate(887.939453 0.015625)"/>
      <use xlink:href="#DejaVuSans-Oblique-65" transform="translate(919.726562 0.015625)"/>
      <use xlink:href="#DejaVuSans-3d" transform="translate(981.25 0.015625)"/>
      <use xlink:href="#DejaVuSans-30" transform="translate(1065.039062 0.015625)"/>
      <use xlink:href="#DejaVuSans-2e" transform="translate(1128.662109 0.015625)"/>
      <use xlink:href="#DejaVuSans-32" transform="translate(1154.949219 0.015625)"/>
      <use xlink:href="#DejaVuSans-20" transform="translate(1218.572266 0.015625)"/>
     </g>
    </g>
   </g>
  </g>
 </g>
 <defs>
  <clipPath id="p734d88671f">
   <rect x="36.465625" y="7.2" width="669.6" height="277.2"/>
  </clipPath>
 </defs>
</svg>
