<?xml version="1.0" encoding="utf-8" standalone="no"?>
<!DOCTYPE svg PUBLIC "-//W3C//DTD SVG 1.1//EN"
  "http://www.w3.org/Graphics/SVG/1.1/DTD/svg11.dtd">
<svg xmlns:xlink="http://www.w3.org/1999/xlink" width="713.265625pt" height="308.278125pt" viewBox="0 0 713.265625 308.278125" xmlns="http://www.w3.org/2000/svg" version="1.1">
 <metadata>
  <rdf:RDF xmlns:dc="http://purl.org/dc/elements/1.1/" xmlns:cc="http://creativecommons.org/ns#" xmlns:rdf="http://www.w3.org/1999/02/22-rdf-syntax-ns#">
   <cc:Work>
    <dc:type rdf:resource="http://purl.org/dc/dcmitype/StillImage"/>
    <dc:date>2025-09-03T18:33:13.218062</dc:date>
    <dc:format>image/svg+xml</dc:format>
    <dc:creator>
     <cc:Agent>
      <dc:title>Matplotlib v3.10.5, https://matplotlib.org/</dc:title>
     </cc:Agent>
    </dc:creator>
   </cc:Work>
  </rdf:RDF>
 </metadata>
 <defs>
  <style type="text/css">*{stroke-linejoin: round; stroke-linecap: butt}</style>
 </defs>
 <g id="figure_1">
  <g id="patch_1">
   <path d="M 0 308.278125 
L 713.265625 308.278125 
L 713.265625 0 
L 0 0 
z
" style="fill: #ffffff"/>
  </g>
  <g id="axes_1">
   <g id="patch_2">
    <path d="M 36.465625 284.4 
L 706.065625 284.4 
L 706.065625 7.2 
L 36.465625 7.2 
z
" style="fill: #ffffff"/>
   </g>
   <g id="PathCollection_1">
    <defs>
     <path id="me8917a331b" d="M 0 1.224745 
C 0.324806 1.224745 0.636353 1.095698 0.866025 0.866025 
C 1.095698 0.636353 1.224745 0.324806 1.224745 0 
C 1.224745 -0.324806 1.095698 -0.636353 0.866025 -0.866025 
C 0.636353 -1.095698 0.324806 -1.224745 0 -1.224745 
C -0.324806 -1.224745 -0.636353 -1.095698 -0.866025 -0.866025 
C -1.095698 -0.636353 -1.224745 -0.324806 -1.224745 0 
C -1.224745 0.324806 -1.095698 0.636353 -0.866025 0.866025 
C -0.636353 1.095698 -0.324806 1.224745 0 1.224745 
z
" style="stroke: #ff0000"/>
    </defs>
    <g clip-path="url(#p768f10ecab)">
     <use xlink:href="#me8917a331b" x="672.285014" y="179.406207" style="fill: #ff0000; stroke: #ff0000"/>
    </g>
   </g>
   <g id="matplotlib.axis_1">
    <g id="xtick_1">
     <g id="line2d_1">
      <defs>
       <path id="maf410f2a28" d="M 0 0 
L 0 3.5 
" style="stroke: #000000; stroke-width: 0.8"/>
      </defs>
      <g>
       <use xlink:href="#maf410f2a28" x="45.99032" y="284.4" style="stroke: #000000; stroke-width: 0.8"/>
      </g>
     </g>
     <g id="text_1">
      <!-- −14000 -->
      <g transform="translate(25.894227 298.998438) scale(0.1 -0.1)">
       <defs>
        <path id="DejaVuSans-2212" d="M 678 2272 
L 4684 2272 
L 4684 1741 
L 678 1741 
L 678 2272 
z
" transform="scale(0.015625)"/>
        <path id="DejaVuSans-31" d="M 794 531 
L 1825 531 
L 1825 4091 
L 703 3866 
L 703 4441 
L 1819 4666 
L 2450 4666 
L 2450 531 
L 3481 531 
L 3481 0 
L 794 0 
L 794 531 
z
" transform="scale(0.015625)"/>
        <path id="DejaVuSans-34" d="M 2419 4116 
L 825 1625 
L 2419 1625 
L 2419 4116 
z
M 2253 4666 
L 3047 4666 
L 3047 1625 
L 3713 1625 
L 3713 1100 
L 3047 1100 
L 3047 0 
L 2419 0 
L 2419 1100 
L 313 1100 
L 313 1709 
L 2253 4666 
z
" transform="scale(0.015625)"/>
        <path id="DejaVuSans-30" d="M 2034 4250 
Q 1547 4250 1301 3770 
Q 1056 3291 1056 2328 
Q 1056 1369 1301 889 
Q 1547 409 2034 409 
Q 2525 409 2770 889 
Q 3016 1369 3016 2328 
Q 3016 3291 2770 3770 
Q 2525 4250 2034 4250 
z
M 2034 4750 
Q 2819 4750 3233 4129 
Q 3647 3509 3647 2328 
Q 3647 1150 3233 529 
Q 2819 -91 2034 -91 
Q 1250 -91 836 529 
Q 422 1150 422 2328 
Q 422 3509 836 4129 
Q 1250 4750 2034 4750 
z
" transform="scale(0.015625)"/>
       </defs>
       <use xlink:href="#DejaVuSans-2212"/>
       <use xlink:href="#DejaVuSans-31" transform="translate(83.789062 0)"/>
       <use xlink:href="#DejaVuSans-34" transform="translate(147.412109 0)"/>
       <use xlink:href="#DejaVuSans-30" transform="translate(211.035156 0)"/>
       <use xlink:href="#DejaVuSans-30" transform="translate(274.658203 0)"/>
       <use xlink:href="#DejaVuSans-30" transform="translate(338.28125 0)"/>
      </g>
     </g>
    </g>
    <g id="xtick_2">
     <g id="line2d_2">
      <g>
       <use xlink:href="#maf410f2a28" x="135.938741" y="284.4" style="stroke: #000000; stroke-width: 0.8"/>
      </g>
     </g>
     <g id="text_2">
      <!-- −12000 -->
      <g transform="translate(115.842647 298.998438) scale(0.1 -0.1)">
       <defs>
        <path id="DejaVuSans-32" d="M 1228 531 
L 3431 531 
L 3431 0 
L 469 0 
L 469 531 
Q 828 903 1448 1529 
Q 2069 2156 2228 2338 
Q 2531 2678 2651 2914 
Q 2772 3150 2772 3378 
Q 2772 3750 2511 3984 
Q 2250 4219 1831 4219 
Q 1534 4219 1204 4116 
Q 875 4013 500 3803 
L 500 4441 
Q 881 4594 1212 4672 
Q 1544 4750 1819 4750 
Q 2544 4750 2975 4387 
Q 3406 4025 3406 3419 
Q 3406 3131 3298 2873 
Q 3191 2616 2906 2266 
Q 2828 2175 2409 1742 
Q 1991 1309 1228 531 
z
" transform="scale(0.015625)"/>
       </defs>
       <use xlink:href="#DejaVuSans-2212"/>
       <use xlink:href="#DejaVuSans-31" transform="translate(83.789062 0)"/>
       <use xlink:href="#DejaVuSans-32" transform="translate(147.412109 0)"/>
       <use xlink:href="#DejaVuSans-30" transform="translate(211.035156 0)"/>
       <use xlink:href="#DejaVuSans-30" transform="translate(274.658203 0)"/>
       <use xlink:href="#DejaVuSans-30" transform="translate(338.28125 0)"/>
      </g>
     </g>
    </g>
    <g id="xtick_3">
     <g id="line2d_3">
      <g>
       <use xlink:href="#maf410f2a28" x="225.887161" y="284.4" style="stroke: #000000; stroke-width: 0.8"/>
      </g>
     </g>
     <g id="text_3">
      <!-- −10000 -->
      <g transform="translate(205.791067 298.998438) scale(0.1 -0.1)">
       <use xlink:href="#DejaVuSans-2212"/>
       <use xlink:href="#DejaVuSans-31" transform="translate(83.789062 0)"/>
       <use xlink:href="#DejaVuSans-30" transform="translate(147.412109 0)"/>
       <use xlink:href="#DejaVuSans-30" transform="translate(211.035156 0)"/>
       <use xlink:href="#DejaVuSans-30" transform="translate(274.658203 0)"/>
       <use xlink:href="#DejaVuSans-30" transform="translate(338.28125 0)"/>
      </g>
     </g>
    </g>
    <g id="xtick_4">
     <g id="line2d_4">
      <g>
       <use xlink:href="#maf410f2a28" x="315.835581" y="284.4" style="stroke: #000000; stroke-width: 0.8"/>
      </g>
     </g>
     <g id="text_4">
      <!-- −8000 -->
      <g transform="translate(298.920737 298.998438) scale(0.1 -0.1)">
       <defs>
        <path id="DejaVuSans-38" d="M 2034 2216 
Q 1584 2216 1326 1975 
Q 1069 1734 1069 1313 
Q 1069 891 1326 650 
Q 1584 409 2034 409 
Q 2484 409 2743 651 
Q 3003 894 3003 1313 
Q 3003 1734 2745 1975 
Q 2488 2216 2034 2216 
z
M 1403 2484 
Q 997 2584 770 2862 
Q 544 3141 544 3541 
Q 544 4100 942 4425 
Q 1341 4750 2034 4750 
Q 2731 4750 3128 4425 
Q 3525 4100 3525 3541 
Q 3525 3141 3298 2862 
Q 3072 2584 2669 2484 
Q 3125 2378 3379 2068 
Q 3634 1759 3634 1313 
Q 3634 634 3220 271 
Q 2806 -91 2034 -91 
Q 1263 -91 848 271 
Q 434 634 434 1313 
Q 434 1759 690 2068 
Q 947 2378 1403 2484 
z
M 1172 3481 
Q 1172 3119 1398 2916 
Q 1625 2713 2034 2713 
Q 2441 2713 2670 2916 
Q 2900 3119 2900 3481 
Q 2900 3844 2670 4047 
Q 2441 4250 2034 4250 
Q 1625 4250 1398 4047 
Q 1172 3844 1172 3481 
z
" transform="scale(0.015625)"/>
       </defs>
       <use xlink:href="#DejaVuSans-2212"/>
       <use xlink:href="#DejaVuSans-38" transform="translate(83.789062 0)"/>
       <use xlink:href="#DejaVuSans-30" transform="translate(147.412109 0)"/>
       <use xlink:href="#DejaVuSans-30" transform="translate(211.035156 0)"/>
       <use xlink:href="#DejaVuSans-30" transform="translate(274.658203 0)"/>
      </g>
     </g>
    </g>
    <g id="xtick_5">
     <g id="line2d_5">
      <g>
       <use xlink:href="#maf410f2a28" x="405.784001" y="284.4" style="stroke: #000000; stroke-width: 0.8"/>
      </g>
     </g>
     <g id="text_5">
      <!-- −6000 -->
      <g transform="translate(388.869157 298.998438) scale(0.1 -0.1)">
       <defs>
        <path id="DejaVuSans-36" d="M 2113 2584 
Q 1688 2584 1439 2293 
Q 1191 2003 1191 1497 
Q 1191 994 1439 701 
Q 1688 409 2113 409 
Q 2538 409 2786 701 
Q 3034 994 3034 1497 
Q 3034 2003 2786 2293 
Q 2538 2584 2113 2584 
z
M 3366 4563 
L 3366 3988 
Q 3128 4100 2886 4159 
Q 2644 4219 2406 4219 
Q 1781 4219 1451 3797 
Q 1122 3375 1075 2522 
Q 1259 2794 1537 2939 
Q 1816 3084 2150 3084 
Q 2853 3084 3261 2657 
Q 3669 2231 3669 1497 
Q 3669 778 3244 343 
Q 2819 -91 2113 -91 
Q 1303 -91 875 529 
Q 447 1150 447 2328 
Q 447 3434 972 4092 
Q 1497 4750 2381 4750 
Q 2619 4750 2861 4703 
Q 3103 4656 3366 4563 
z
" transform="scale(0.015625)"/>
       </defs>
       <use xlink:href="#DejaVuSans-2212"/>
       <use xlink:href="#DejaVuSans-36" transform="translate(83.789062 0)"/>
       <use xlink:href="#DejaVuSans-30" transform="translate(147.412109 0)"/>
       <use xlink:href="#DejaVuSans-30" transform="translate(211.035156 0)"/>
       <use xlink:href="#DejaVuSans-30" transform="translate(274.658203 0)"/>
      </g>
     </g>
    </g>
    <g id="xtick_6">
     <g id="line2d_6">
      <g>
       <use xlink:href="#maf410f2a28" x="495.732421" y="284.4" style="stroke: #000000; stroke-width: 0.8"/>
      </g>
     </g>
     <g id="text_6">
      <!-- −4000 -->
      <g transform="translate(478.817577 298.998438) scale(0.1 -0.1)">
       <use xlink:href="#DejaVuSans-2212"/>
       <use xlink:href="#DejaVuSans-34" transform="translate(83.789062 0)"/>
       <use xlink:href="#DejaVuSans-30" transform="translate(147.412109 0)"/>
       <use xlink:href="#DejaVuSans-30" transform="translate(211.035156 0)"/>
       <use xlink:href="#DejaVuSans-30" transform="translate(274.658203 0)"/>
      </g>
     </g>
    </g>
    <g id="xtick_7">
     <g id="line2d_7">
      <g>
       <use xlink:href="#maf410f2a28" x="585.680841" y="284.4" style="stroke: #000000; stroke-width: 0.8"/>
      </g>
     </g>
     <g id="text_7">
      <!-- −2000 -->
      <g transform="translate(568.765997 298.998438) scale(0.1 -0.1)">
       <use xlink:href="#DejaVuSans-2212"/>
       <use xlink:href="#DejaVuSans-32" transform="translate(83.789062 0)"/>
       <use xlink:href="#DejaVuSans-30" transform="translate(147.412109 0)"/>
       <use xlink:href="#DejaVuSans-30" transform="translate(211.035156 0)"/>
       <use xlink:href="#DejaVuSans-30" transform="translate(274.658203 0)"/>
      </g>
     </g>
    </g>
    <g id="xtick_8">
     <g id="line2d_8">
      <g>
       <use xlink:href="#maf410f2a28" x="675.629261" y="284.4" style="stroke: #000000; stroke-width: 0.8"/>
      </g>
     </g>
     <g id="text_8">
      <!-- 0 -->
      <g transform="translate(672.448011 298.998438) scale(0.1 -0.1)">
       <use xlink:href="#DejaVuSans-30"/>
      </g>
     </g>
    </g>
   </g>
   <g id="matplotlib.axis_2">
    <g id="ytick_1">
     <g id="line2d_9">
      <defs>
       <path id="m52fd1c6b3a" d="M 0 0 
L -3.5 0 
" style="stroke: #000000; stroke-width: 0.8"/>
      </defs>
      <g>
       <use xlink:href="#m52fd1c6b3a" x="36.465625" y="280.419517" style="stroke: #000000; stroke-width: 0.8"/>
      </g>
     </g>
     <g id="text_9">
      <!-- 0.00 -->
      <g transform="translate(7.2 284.218736) scale(0.1 -0.1)">
       <defs>
        <path id="DejaVuSans-2e" d="M 684 794 
L 1344 794 
L 1344 0 
L 684 0 
L 684 794 
z
" transform="scale(0.015625)"/>
       </defs>
       <use xlink:href="#DejaVuSans-30"/>
       <use xlink:href="#DejaVuSans-2e" transform="translate(63.623047 0)"/>
       <use xlink:href="#DejaVuSans-30" transform="translate(95.410156 0)"/>
       <use xlink:href="#DejaVuSans-30" transform="translate(159.033203 0)"/>
      </g>
     </g>
    </g>
    <g id="ytick_2">
     <g id="line2d_10">
      <g>
       <use xlink:href="#m52fd1c6b3a" x="36.465625" y="233.785642" style="stroke: #000000; stroke-width: 0.8"/>
      </g>
     </g>
     <g id="text_10">
      <!-- 0.01 -->
      <g transform="translate(7.2 237.584861) scale(0.1 -0.1)">
       <use xlink:href="#DejaVuSans-30"/>
       <use xlink:href="#DejaVuSans-2e" transform="translate(63.623047 0)"/>
       <use xlink:href="#DejaVuSans-30" transform="translate(95.410156 0)"/>
       <use xlink:href="#DejaVuSans-31" transform="translate(159.033203 0)"/>
      </g>
     </g>
    </g>
    <g id="ytick_3">
     <g id="line2d_11">
      <g>
       <use xlink:href="#m52fd1c6b3a" x="36.465625" y="187.151767" style="stroke: #000000; stroke-width: 0.8"/>
      </g>
     </g>
     <g id="text_11">
      <!-- 0.02 -->
      <g transform="translate(7.2 190.950986) scale(0.1 -0.1)">
       <use xlink:href="#DejaVuSans-30"/>
       <use xlink:href="#DejaVuSans-2e" transform="translate(63.623047 0)"/>
       <use xlink:href="#DejaVuSans-30" transform="translate(95.410156 0)"/>
       <use xlink:href="#DejaVuSans-32" transform="translate(159.033203 0)"/>
      </g>
     </g>
    </g>
    <g id="ytick_4">
     <g id="line2d_12">
      <g>
       <use xlink:href="#m52fd1c6b3a" x="36.465625" y="140.517892" style="stroke: #000000; stroke-width: 0.8"/>
      </g>
     </g>
     <g id="text_12">
      <!-- 0.03 -->
      <g transform="translate(7.2 144.317111) scale(0.1 -0.1)">
       <defs>
        <path id="DejaVuSans-33" d="M 2597 2516 
Q 3050 2419 3304 2112 
Q 3559 1806 3559 1356 
Q 3559 666 3084 287 
Q 2609 -91 1734 -91 
Q 1441 -91 1130 -33 
Q 819 25 488 141 
L 488 750 
Q 750 597 1062 519 
Q 1375 441 1716 441 
Q 2309 441 2620 675 
Q 2931 909 2931 1356 
Q 2931 1769 2642 2001 
Q 2353 2234 1838 2234 
L 1294 2234 
L 1294 2753 
L 1863 2753 
Q 2328 2753 2575 2939 
Q 2822 3125 2822 3475 
Q 2822 3834 2567 4026 
Q 2313 4219 1838 4219 
Q 1578 4219 1281 4162 
Q 984 4106 628 3988 
L 628 4550 
Q 988 4650 1302 4700 
Q 1616 4750 1894 4750 
Q 2613 4750 3031 4423 
Q 3450 4097 3450 3541 
Q 3450 3153 3228 2886 
Q 3006 2619 2597 2516 
z
" transform="scale(0.015625)"/>
       </defs>
       <use xlink:href="#DejaVuSans-30"/>
       <use xlink:href="#DejaVuSans-2e" transform="translate(63.623047 0)"/>
       <use xlink:href="#DejaVuSans-30" transform="translate(95.410156 0)"/>
       <use xlink:href="#DejaVuSans-33" transform="translate(159.033203 0)"/>
      </g>
     </g>
    </g>
    <g id="ytick_5">
     <g id="line2d_13">
      <g>
       <use xlink:href="#m52fd1c6b3a" x="36.465625" y="93.884018" style="stroke: #000000; stroke-width: 0.8"/>
      </g>
     </g>
     <g id="text_13">
      <!-- 0.04 -->
      <g transform="translate(7.2 97.683236) scale(0.1 -0.1)">
       <use xlink:href="#DejaVuSans-30"/>
       <use xlink:href="#DejaVuSans-2e" transform="translate(63.623047 0)"/>
       <use xlink:href="#DejaVuSans-30" transform="translate(95.410156 0)"/>
       <use xlink:href="#DejaVuSans-34" transform="translate(159.033203 0)"/>
      </g>
     </g>
    </g>
    <g id="ytick_6">
     <g id="line2d_14">
      <g>
       <use xlink:href="#m52fd1c6b3a" x="36.465625" y="47.250143" style="stroke: #000000; stroke-width: 0.8"/>
      </g>
     </g>
     <g id="text_14">
      <!-- 0.05 -->
      <g transform="translate(7.2 51.049362) scale(0.1 -0.1)">
       <defs>
        <path id="DejaVuSans-35" d="M 691 4666 
L 3169 4666 
L 3169 4134 
L 1269 4134 
L 1269 2991 
Q 1406 3038 1543 3061 
Q 1681 3084 1819 3084 
Q 2600 3084 3056 2656 
Q 3513 2228 3513 1497 
Q 3513 744 3044 326 
Q 2575 -91 1722 -91 
Q 1428 -91 1123 -41 
Q 819 9 494 109 
L 494 744 
Q 775 591 1075 516 
Q 1375 441 1709 441 
Q 2250 441 2565 725 
Q 2881 1009 2881 1497 
Q 2881 1984 2565 2268 
Q 2250 2553 1709 2553 
Q 1456 2553 1204 2497 
Q 953 2441 691 2322 
L 691 4666 
z
" transform="scale(0.015625)"/>
       </defs>
       <use xlink:href="#DejaVuSans-30"/>
       <use xlink:href="#DejaVuSans-2e" transform="translate(63.623047 0)"/>
       <use xlink:href="#DejaVuSans-30" transform="translate(95.410156 0)"/>
       <use xlink:href="#DejaVuSans-35" transform="translate(159.033203 0)"/>
      </g>
     </g>
    </g>
   </g>
   <g id="line2d_15">
    <path d="M 66.901989 271.8 
L 67.793788 271.663439 
L 68.685587 271.309042 
L 73.441849 268.734748 
L 74.259332 267.850105 
L 75.299764 266.367954 
L 76.71178 263.95764 
L 77.975162 261.365603 
L 80.576243 255.689874 
L 81.096459 255.123056 
L 81.542359 254.930556 
L 81.913942 254.989188 
L 82.359841 255.316374 
L 82.880058 256.016169 
L 83.623224 257.466449 
L 87.339054 265.484218 
L 88.528119 267.276136 
L 89.494235 268.351919 
L 90.386034 269.031513 
L 91.79805 269.771846 
L 95.142297 271.354419 
L 96.405679 271.508151 
L 100.641725 271.6853 
L 102.94554 271.481825 
L 104.208922 271.329155 
L 105.100721 270.996871 
L 106.587053 270.137245 
L 108.147702 269.353823 
L 109.262451 268.731343 
L 110.079933 268.007152 
L 110.971733 266.894627 
L 112.160798 265.011289 
L 113.498497 262.49314 
L 114.761879 259.634134 
L 116.396844 255.92628 
L 117.065694 254.955883 
L 117.511593 254.626014 
L 117.883176 254.569577 
L 118.254759 254.714976 
L 118.700659 255.142546 
L 119.295192 256.081397 
L 120.186991 258.01862 
L 122.639439 263.614771 
L 123.902821 265.856724 
L 124.943253 267.298645 
L 125.909369 268.261928 
L 126.949802 268.967697 
L 130.294049 270.773549 
L 131.334481 271.055739 
L 133.415346 271.290248 
L 135.421894 271.433353 
L 137.131176 271.244019 
L 140.252473 270.774566 
L 141.292905 270.238806 
L 145.231685 267.742165 
L 146.123485 266.667648 
L 147.238234 264.921191 
L 148.575932 262.397578 
L 149.913631 259.363721 
L 151.622913 255.471535 
L 152.217446 254.60383 
L 152.663345 254.252313 
L 153.034928 254.180011 
L 153.406511 254.312642 
L 153.852411 254.729816 
L 154.446944 255.66342 
L 155.264426 257.431176 
L 158.014141 263.713177 
L 159.203206 265.77086 
L 160.243639 267.146142 
L 161.209754 268.052976 
L 162.473137 268.893715 
L 165.148534 270.381069 
L 166.263283 270.691043 
L 168.641414 270.998574 
L 170.127746 271.072395 
L 171.837028 270.883736 
L 174.586742 270.442976 
L 175.627175 269.937896 
L 178.897105 267.892524 
L 179.788904 267.034413 
L 180.680704 265.847993 
L 181.795453 263.975606 
L 183.133151 261.277429 
L 184.6938 257.539463 
L 185.808549 255.078591 
L 186.403082 254.200045 
L 186.848981 253.843841 
L 187.220564 253.770702 
L 187.592147 253.905481 
L 188.038047 254.328831 
L 188.63258 255.275089 
L 189.450062 257.06357 
L 192.199777 263.410952 
L 193.388842 265.47145 
L 194.354958 266.746848 
L 195.321074 267.673301 
L 196.733089 268.665778 
L 198.739637 269.843982 
L 199.854387 270.229952 
L 201.489352 270.501088 
L 203.644533 270.693163 
L 205.130865 270.552779 
L 208.029213 270.051705 
L 209.069645 269.553388 
L 211.447776 268.030571 
L 212.562525 267.153232 
L 213.454324 266.143295 
L 214.42044 264.684951 
L 215.609506 262.471374 
L 216.947205 259.492506 
L 219.176703 254.366646 
L 219.771235 253.601552 
L 220.217135 253.351574 
L 220.588718 253.374251 
L 220.960301 253.605481 
L 221.406201 254.137459 
L 222.000733 255.203034 
L 222.966849 257.45988 
L 225.047714 262.381446 
L 226.23678 264.598665 
L 227.277212 266.089012 
L 228.243328 267.103021 
L 229.50671 268.086994 
L 231.364625 269.264985 
L 232.479374 269.724204 
L 233.817073 270.014131 
L 236.120887 270.27646 
L 237.458586 270.187306 
L 240.2083 269.724519 
L 241.248733 269.294705 
L 242.586432 268.455793 
L 244.667296 266.912386 
L 245.559096 265.954521 
L 246.525211 264.55076 
L 247.63996 262.507698 
L 248.903343 259.735533 
L 251.504424 253.742427 
L 252.02464 253.113009 
L 252.470539 252.883898 
L 252.842122 252.928035 
L 253.213705 253.183075 
L 253.733922 253.862346 
L 254.402771 255.170338 
L 255.666153 258.27921 
L 257.226802 261.950761 
L 258.415868 264.193074 
L 259.4563 265.690045 
L 260.496732 266.786238 
L 261.908748 267.907225 
L 263.39508 268.844869 
L 264.509829 269.296163 
L 265.996161 269.621818 
L 267.854076 269.825314 
L 269.191775 269.735815 
L 271.569906 269.311299 
L 272.610338 268.907875 
L 273.799404 268.179046 
L 275.731635 266.70694 
L 276.697751 265.717563 
L 277.58955 264.48425 
L 278.629983 262.644347 
L 279.893365 259.927857 
L 282.940346 252.980989 
L 283.460562 252.484971 
L 283.832145 252.382613 
L 284.203728 252.49829 
L 284.649627 252.913216 
L 285.169844 253.729809 
L 285.91301 255.343663 
L 289.18294 262.995201 
L 290.223372 264.689775 
L 291.263805 265.955434 
L 292.45287 267.038373 
L 293.939202 268.105072 
L 295.128268 268.691231 
L 296.39165 269.048002 
L 298.175249 269.319041 
L 299.438631 269.305532 
L 301.296546 269.0191 
L 302.634245 268.641865 
L 303.674677 268.108302 
L 305.086692 267.092681 
L 306.498708 265.846726 
L 307.464824 264.684531 
L 308.430939 263.139449 
L 309.545688 260.910642 
L 310.883387 257.717741 
L 312.741302 253.224376 
L 313.335835 252.301314 
L 313.781735 251.928923 
L 314.153318 251.856638 
L 314.524901 252.005818 
L 314.9708 252.462464 
L 315.565333 253.472414 
L 316.457132 255.550869 
L 318.90958 261.531424 
L 320.024329 263.583981 
L 321.064762 265.033124 
L 322.179511 266.194779 
L 323.591526 267.331328 
L 324.780592 268.01919 
L 325.969657 268.43875 
L 327.604622 268.755283 
L 328.942321 268.798983 
L 330.428653 268.598685 
L 331.989302 268.192677 
L 333.029734 267.692628 
L 334.2188 266.853823 
L 335.705132 265.529171 
L 336.671248 264.39387 
L 337.637363 262.888885 
L 338.677796 260.838808 
L 339.941178 257.849878 
L 342.170676 252.430481 
L 342.765209 251.593804 
L 343.211108 251.306649 
L 343.582691 251.31338 
L 343.954274 251.54359 
L 344.400174 252.093006 
L 344.994707 253.206996 
L 345.960823 255.57613 
L 348.041687 260.739054 
L 349.156436 262.877234 
L 350.196869 264.397372 
L 351.311618 265.624986 
L 352.575 266.698163 
L 353.689749 267.386994 
L 354.878815 267.84963 
L 356.365147 268.169193 
L 357.628529 268.230907 
L 358.966228 268.063622 
L 360.45256 267.672429 
L 361.492992 267.185056 
L 362.607741 266.401159 
L 363.94544 265.182911 
L 364.985872 263.962113 
L 365.951988 262.461933 
L 366.99242 260.401003 
L 368.255803 257.370494 
L 370.485301 251.855461 
L 371.079833 250.993204 
L 371.525733 250.691208 
L 371.897316 250.689886 
L 372.268899 250.916579 
L 372.714799 251.467776 
L 373.309332 252.5929 
L 374.275447 254.99354 
L 376.356312 260.226199 
L 377.471061 262.380482 
L 378.511494 263.912637 
L 379.626243 265.160427 
L 380.815308 266.178454 
L 381.930057 266.851677 
L 383.119123 267.297779 
L 384.456822 267.566887 
L 385.645887 267.592428 
L 386.983586 267.382569 
L 388.321285 266.957755 
L 389.361717 266.392526 
L 390.476466 265.515783 
L 391.739848 264.229608 
L 392.780281 262.841156 
L 393.746397 261.152551 
L 394.861146 258.709728 
L 396.347478 254.840819 
L 397.685176 251.511417 
L 398.354026 250.417427 
L 398.799925 250.049195 
L 399.171508 249.995198 
L 399.543091 250.175262 
L 399.988991 250.682289 
L 400.583524 251.772539 
L 401.475323 253.973037 
L 403.779138 259.839224 
L 404.893887 261.972319 
L 405.934319 263.48807 
L 407.049068 264.728021 
L 408.163817 265.65985 
L 409.204249 266.262087 
L 410.393315 266.687258 
L 411.656697 266.901032 
L 412.771446 266.871529 
L 414.034828 266.612291 
L 415.223894 266.154077 
L 416.264326 265.501985 
L 417.379075 264.5177 
L 418.493824 263.24979 
L 419.45994 261.828517 
L 420.426056 260.002396 
L 421.540805 257.396848 
L 424.587786 249.885893 
L 425.108002 249.352669 
L 425.479585 249.248518 
L 425.851168 249.384173 
L 426.297067 249.849277 
L 426.817284 250.75178 
L 427.634766 252.709269 
L 430.384481 259.730455 
L 431.424913 261.645502 
L 432.465345 263.114167 
L 433.580094 264.308408 
L 434.620527 265.120186 
L 435.660959 265.663979 
L 436.850025 266.026134 
L 437.964774 266.140116 
L 439.079523 266.026643 
L 440.268588 265.681993 
L 441.309021 265.161219 
L 442.275137 264.434711 
L 443.389886 263.298824 
L 444.430318 261.927158 
L 445.396434 260.279085 
L 446.436866 258.025249 
L 447.774565 254.510284 
L 449.483847 250.010388 
L 450.152696 248.876413 
L 450.598596 248.497495 
L 450.970179 248.446187 
L 451.341762 248.639439 
L 451.787661 249.174356 
L 452.382194 250.31598 
L 453.273993 252.604213 
L 455.429175 258.293538 
L 456.469607 260.395188 
L 457.51004 262.017208 
L 458.550472 263.25138 
L 459.590904 264.156645 
L 460.631337 264.765445 
L 461.746086 265.148375 
L 462.786518 265.280259 
L 463.826951 265.18997 
L 464.9417 264.86441 
L 465.982132 264.326509 
L 466.948248 263.568122 
L 467.98868 262.452074 
L 469.029113 260.999137 
L 469.995228 259.255425 
L 471.035661 256.885031 
L 472.447676 253.014147 
L 473.934008 249.071195 
L 474.528541 248.029841 
L 474.974441 247.606826 
L 475.346024 247.523777 
L 475.717607 247.692219 
L 476.163506 248.208483 
L 476.758039 249.344899 
L 477.649838 251.65941 
L 479.879336 257.632865 
L 480.919769 259.737775 
L 481.960201 261.356057 
L 483.000633 262.568516 
L 483.966749 263.3751 
L 484.932865 263.911421 
L 485.973298 264.234314 
L 486.939413 264.310566 
L 487.905529 264.172697 
L 488.945962 263.795034 
L 489.912077 263.204209 
L 490.878193 262.333605 
L 491.844309 261.163835 
L 492.810425 259.658082 
L 493.776541 257.733025 
L 494.89129 254.953444 
L 497.789637 247.272228 
L 498.309853 246.651786 
L 498.681436 246.503412 
L 499.053019 246.613708 
L 499.424602 246.974498 
L 499.944818 247.85108 
L 500.687984 249.652337 
L 503.809282 257.900335 
L 504.849714 259.767441 
L 505.890146 261.16842 
L 506.856262 262.10617 
L 507.822378 262.735834 
L 508.788494 263.099844 
L 509.75461 263.216002 
L 510.646409 263.104889 
L 511.612525 262.753507 
L 512.504324 262.199128 
L 513.396123 261.386907 
L 514.362239 260.188795 
L 515.328355 258.625526 
L 516.29447 256.624135 
L 517.409219 253.737156 
L 520.158934 246.211285 
L 520.67915 245.53093 
L 521.050733 245.345622 
L 521.422316 245.426942 
L 521.793899 245.76854 
L 522.314115 246.635499 
L 522.982964 248.250026 
L 526.401528 257.318631 
L 527.367644 258.989601 
L 528.33376 260.239993 
L 529.225559 261.061417 
L 530.117358 261.601507 
L 531.009157 261.889934 
L 531.900956 261.935686 
L 532.792756 261.741808 
L 533.684555 261.307878 
L 534.576354 260.607861 
L 535.468153 259.605383 
L 536.434269 258.149012 
L 537.400385 256.25727 
L 538.440817 253.672877 
L 539.852833 249.442857 
L 541.116215 245.815628 
L 541.785064 244.527987 
L 542.230964 244.087461 
L 542.602547 244.016341 
L 542.97413 244.219923 
L 543.42003 244.803979 
L 544.014562 246.058885 
L 544.906362 248.564418 
L 546.91291 254.288192 
L 547.953342 256.538154 
L 548.919458 258.119812 
L 549.811257 259.185599 
L 550.703056 259.911718 
L 551.520539 260.309364 
L 552.338022 260.461311 
L 553.155504 260.370701 
L 553.972987 260.048717 
L 554.790469 259.492578 
L 555.607952 258.673105 
L 556.499751 257.442248 
L 557.465867 255.681013 
L 558.431983 253.435579 
L 559.472415 250.435266 
L 561.701913 243.719476 
L 562.222129 242.831242 
L 562.668029 242.469547 
L 563.039612 242.479774 
L 563.411195 242.772978 
L 563.857095 243.464614 
L 564.451627 244.841274 
L 565.566376 248.143511 
L 567.127025 252.622501 
L 568.167457 254.966621 
L 569.133573 256.614766 
L 569.951056 257.607634 
L 570.768538 258.272798 
L 571.511704 258.620244 
L 572.25487 258.730293 
L 572.998036 258.605235 
L 573.741202 258.250593 
L 574.484368 257.659862 
L 575.301851 256.720583 
L 576.19365 255.320226 
L 577.085449 253.474222 
L 578.051565 250.935587 
L 579.314947 246.914716 
L 580.801279 242.314463 
L 581.395812 241.114621 
L 581.841712 240.645182 
L 582.213295 240.576494 
L 582.510561 240.736499 
L 582.882144 241.191163 
L 583.40236 242.239607 
L 584.145526 244.315936 
L 586.597974 251.604031 
L 587.56409 253.650695 
L 588.455889 255.028611 
L 589.273372 255.889593 
L 590.016538 256.363339 
L 590.685387 256.550715 
L 591.354237 256.517966 
L 592.023086 256.267009 
L 592.766252 255.728771 
L 593.509418 254.897408 
L 594.326901 253.613745 
L 595.2187 251.74185 
L 596.184816 249.132153 
L 597.373881 245.208319 
L 598.93453 240.118016 
L 599.529063 238.852641 
L 599.974962 238.356772 
L 600.272229 238.272968 
L 600.569495 238.391144 
L 600.941078 238.810385 
L 601.461294 239.838667 
L 602.20446 241.934266 
L 604.731225 249.572623 
L 605.623024 251.438519 
L 606.440507 252.667996 
L 607.183673 253.405556 
L 607.852522 253.775911 
L 608.447055 253.880907 
L 609.041588 253.776013 
L 609.63612 253.459245 
L 610.30497 252.843171 
L 611.048136 251.818987 
L 611.865618 250.253186 
L 612.757418 247.995148 
L 613.79785 244.662598 
L 616.175981 236.613572 
L 616.696197 235.68171 
L 617.06778 235.385502 
L 617.365047 235.387394 
L 617.662313 235.599796 
L 618.033896 236.140853 
L 618.554112 237.328903 
L 619.371595 239.839751 
L 621.303827 245.914964 
L 622.195626 247.952733 
L 622.938792 249.172193 
L 623.607641 249.901317 
L 624.202174 250.26464 
L 624.796707 250.365172 
L 625.316923 250.238972 
L 625.911456 249.848396 
L 626.505989 249.189098 
L 627.174838 248.113468 
L 627.918004 246.48676 
L 628.735487 244.159689 
L 629.775919 240.463517 
L 631.782467 233.104817 
L 632.302683 231.971506 
L 632.674266 231.545672 
L 632.971533 231.458492 
L 633.268799 231.599154 
L 633.640382 232.078246 
L 634.160598 233.219031 
L 634.978081 235.721492 
L 636.835996 241.639437 
L 637.653479 243.501593 
L 638.396645 244.655311 
L 638.991177 245.207437 
L 639.511394 245.4212 
L 640.03161 245.379396 
L 640.551826 245.08172 
L 641.072042 244.524654 
L 641.666575 243.563386 
L 642.335424 242.058057 
L 643.152907 239.606213 
L 644.119023 235.873991 
L 646.199888 227.476744 
L 646.720104 226.264477 
L 647.091687 225.817469 
L 647.388953 225.728231 
L 647.68622 225.882391 
L 648.057803 226.390046 
L 648.578019 227.584975 
L 649.395501 230.147887 
L 650.881833 234.806214 
L 651.624999 236.450629 
L 652.219532 237.313148 
L 652.739748 237.717392 
L 653.185648 237.793318 
L 653.631548 237.606763 
L 654.077447 237.166462 
L 654.597663 236.327596 
L 655.192196 234.934991 
L 655.861046 232.808416 
L 656.752845 229.097084 
L 659.502559 216.776802 
L 659.948459 215.968046 
L 660.320042 215.732334 
L 660.617308 215.826633 
L 660.988891 216.25731 
L 661.509107 217.307801 
L 663.664289 222.278157 
L 664.110188 222.721877 
L 664.481771 222.803346 
L 664.853354 222.607876 
L 665.224937 222.176084 
L 665.670837 221.264573 
L 666.191053 219.638327 
L 666.859903 216.674525 
L 667.603069 212.442999 
L 669.089401 200.789032 
L 670.352783 190.825514 
L 670.650049 188.911667 
L 672.656597 176.424297 
L 673.176814 170.647212 
L 673.69703 161.972408 
L 674.142929 150.481616 
L 674.514512 134.811256 
L 674.886095 109.456494 
L 675.331995 61.120232 
L 675.629261 19.8 
L 675.629261 19.8 
" clip-path="url(#p768f10ecab)" style="fill: none; stroke: #1f77b4; stroke-width: 1.5; stroke-linecap: square"/>
   </g>
   <g id="line2d_16">
    <path d="M 36.465625 179.418731 
L 706.065625 179.418731 
" clip-path="url(#p768f10ecab)" style="fill: none; stroke-dasharray: 2.22,0.96; stroke-dashoffset: 0; stroke: #ff0000; stroke-width: 0.6"/>
   </g>
   <g id="line2d_17">
    <path d="M 66.901989 271.8 
L 67.793788 271.663439 
L 68.685587 271.309042 
L 73.441849 268.734748 
L 74.259332 267.850105 
L 75.299764 266.367954 
L 76.71178 263.95764 
L 77.975162 261.365603 
L 80.576243 255.689874 
L 81.096459 255.123056 
L 81.542359 254.930556 
L 81.913942 254.989188 
L 82.359841 255.316374 
L 82.880058 256.016169 
L 83.623224 257.466449 
L 87.339054 265.484218 
L 88.528119 267.276136 
L 89.494235 268.351919 
L 90.386034 269.031513 
L 91.79805 269.771846 
L 95.142297 271.354419 
L 96.405679 271.508151 
L 100.641725 271.6853 
L 102.94554 271.481825 
L 104.208922 271.329155 
L 105.100721 270.996871 
L 106.587053 270.137245 
L 108.147702 269.353823 
L 109.262451 268.731343 
L 110.079933 268.007152 
L 110.971733 266.894627 
L 112.160798 265.011289 
L 113.498497 262.49314 
L 114.761879 259.634134 
L 116.396844 255.92628 
L 117.065694 254.955883 
L 117.511593 254.626014 
L 117.883176 254.569577 
L 118.254759 254.714976 
L 118.700659 255.142546 
L 119.295192 256.081397 
L 120.186991 258.01862 
L 122.639439 263.614771 
L 123.902821 265.856724 
L 124.943253 267.298645 
L 125.909369 268.261928 
L 126.949802 268.967697 
L 130.294049 270.773549 
L 131.334481 271.055739 
L 133.415346 271.290248 
L 135.421894 271.433353 
L 137.131176 271.244019 
L 140.252473 270.774566 
L 141.292905 270.238806 
L 145.231685 267.742165 
L 146.123485 266.667648 
L 147.238234 264.921191 
L 148.575932 262.397578 
L 149.913631 259.363721 
L 151.622913 255.471535 
L 152.217446 254.60383 
L 152.663345 254.252313 
L 153.034928 254.180011 
L 153.406511 254.312642 
L 153.852411 254.729816 
L 154.446944 255.66342 
L 155.264426 257.431176 
L 158.014141 263.713177 
L 159.203206 265.77086 
L 160.243639 267.146142 
L 161.209754 268.052976 
L 162.473137 268.893715 
L 165.148534 270.381069 
L 166.263283 270.691043 
L 168.641414 270.998574 
L 170.127746 271.072395 
L 171.837028 270.883736 
L 174.586742 270.442976 
L 175.627175 269.937896 
L 178.897105 267.892524 
L 179.788904 267.034413 
L 180.680704 265.847993 
L 181.795453 263.975606 
L 183.133151 261.277429 
L 184.6938 257.539463 
L 185.808549 255.078591 
L 186.403082 254.200045 
L 186.848981 253.843841 
L 187.220564 253.770702 
L 187.592147 253.905481 
L 188.038047 254.328831 
L 188.63258 255.275089 
L 189.450062 257.06357 
L 192.199777 263.410952 
L 193.388842 265.47145 
L 194.354958 266.746848 
L 195.321074 267.673301 
L 196.733089 268.665778 
L 198.739637 269.843982 
L 199.854387 270.229952 
L 201.489352 270.501088 
L 203.644533 270.693163 
L 205.130865 270.552779 
L 208.029213 270.051705 
L 209.069645 269.553388 
L 211.447776 268.030571 
L 212.562525 267.153232 
L 213.454324 266.143295 
L 214.42044 264.684951 
L 215.609506 262.471374 
L 216.947205 259.492506 
L 219.176703 254.366646 
L 219.771235 253.601552 
L 220.217135 253.351574 
L 220.588718 253.374251 
L 220.960301 253.605481 
L 221.406201 254.137459 
L 222.000733 255.203034 
L 222.966849 257.45988 
L 225.047714 262.381446 
L 226.23678 264.598665 
L 227.277212 266.089012 
L 228.243328 267.103021 
L 229.50671 268.086994 
L 231.364625 269.264985 
L 232.479374 269.724204 
L 233.817073 270.014131 
L 236.120887 270.27646 
L 237.458586 270.187306 
L 240.2083 269.724519 
L 241.248733 269.294705 
L 242.586432 268.455793 
L 244.667296 266.912386 
L 245.559096 265.954521 
L 246.525211 264.55076 
L 247.63996 262.507698 
L 248.903343 259.735533 
L 251.504424 253.742427 
L 252.02464 253.113009 
L 252.470539 252.883898 
L 252.842122 252.928035 
L 253.213705 253.183075 
L 253.733922 253.862346 
L 254.402771 255.170338 
L 255.666153 258.27921 
L 257.226802 261.950761 
L 258.415868 264.193074 
L 259.4563 265.690045 
L 260.496732 266.786238 
L 261.908748 267.907225 
L 263.39508 268.844869 
L 264.509829 269.296163 
L 265.996161 269.621818 
L 267.854076 269.825314 
L 269.191775 269.735815 
L 271.569906 269.311299 
L 272.610338 268.907875 
L 273.799404 268.179046 
L 275.731635 266.70694 
L 276.697751 265.717563 
L 277.58955 264.48425 
L 278.629983 262.644347 
L 279.893365 259.927857 
L 282.940346 252.980989 
L 283.460562 252.484971 
L 283.832145 252.382613 
L 284.203728 252.49829 
L 284.649627 252.913216 
L 285.169844 253.729809 
L 285.91301 255.343663 
L 289.18294 262.995201 
L 290.223372 264.689775 
L 291.263805 265.955434 
L 292.45287 267.038373 
L 293.939202 268.105072 
L 295.128268 268.691231 
L 296.39165 269.048002 
L 298.175249 269.319041 
L 299.438631 269.305532 
L 301.296546 269.0191 
L 302.634245 268.641865 
L 303.674677 268.108302 
L 305.086692 267.092681 
L 306.498708 265.846726 
L 307.464824 264.684531 
L 308.430939 263.139449 
L 309.545688 260.910642 
L 310.883387 257.717741 
L 312.741302 253.224376 
L 313.335835 252.301314 
L 313.781735 251.928923 
L 314.153318 251.856638 
L 314.524901 252.005818 
L 314.9708 252.462464 
L 315.565333 253.472414 
L 316.457132 255.550869 
L 318.90958 261.531424 
L 320.024329 263.583981 
L 321.064762 265.033124 
L 322.179511 266.194779 
L 323.591526 267.331328 
L 324.780592 268.01919 
L 325.969657 268.43875 
L 327.604622 268.755283 
L 328.942321 268.798983 
L 330.428653 268.598685 
L 331.989302 268.192677 
L 333.029734 267.692628 
L 334.2188 266.853823 
L 335.705132 265.529171 
L 336.671248 264.39387 
L 337.637363 262.888885 
L 338.677796 260.838808 
L 339.941178 257.849878 
L 342.170676 252.430481 
L 342.765209 251.593804 
L 343.211108 251.306649 
L 343.582691 251.31338 
L 343.954274 251.54359 
L 344.400174 252.093006 
L 344.994707 253.206996 
L 345.960823 255.57613 
L 348.041687 260.739054 
L 349.156436 262.877234 
L 350.196869 264.397372 
L 351.311618 265.624986 
L 352.575 266.698163 
L 353.689749 267.386994 
L 354.878815 267.84963 
L 356.365147 268.169193 
L 357.628529 268.230907 
L 358.966228 268.063622 
L 360.45256 267.672429 
L 361.492992 267.185056 
L 362.607741 266.401159 
L 363.94544 265.182911 
L 364.985872 263.962113 
L 365.951988 262.461933 
L 366.99242 260.401003 
L 368.255803 257.370494 
L 370.485301 251.855461 
L 371.079833 250.993204 
L 371.525733 250.691208 
L 371.897316 250.689886 
L 372.268899 250.916579 
L 372.714799 251.467776 
L 373.309332 252.5929 
L 374.275447 254.99354 
L 376.356312 260.226199 
L 377.471061 262.380482 
L 378.511494 263.912637 
L 379.626243 265.160427 
L 380.815308 266.178454 
L 381.930057 266.851677 
L 383.119123 267.297779 
L 384.456822 267.566887 
L 385.645887 267.592428 
L 386.983586 267.382569 
L 388.321285 266.957755 
L 389.361717 266.392526 
L 390.476466 265.515783 
L 391.739848 264.229608 
L 392.780281 262.841156 
L 393.746397 261.152551 
L 394.861146 258.709728 
L 396.347478 254.840819 
L 397.685176 251.511417 
L 398.354026 250.417427 
L 398.799925 250.049195 
L 399.171508 249.995198 
L 399.543091 250.175262 
L 399.988991 250.682289 
L 400.583524 251.772539 
L 401.475323 253.973037 
L 403.779138 259.839224 
L 404.893887 261.972319 
L 405.934319 263.48807 
L 407.049068 264.728021 
L 408.163817 265.65985 
L 409.204249 266.262087 
L 410.393315 266.687258 
L 411.656697 266.901032 
L 412.771446 266.871529 
L 414.034828 266.612291 
L 415.223894 266.154077 
L 416.264326 265.501985 
L 417.379075 264.5177 
L 418.493824 263.24979 
L 419.45994 261.828517 
L 420.426056 260.002396 
L 421.540805 257.396848 
L 424.587786 249.885893 
L 425.108002 249.352669 
L 425.479585 249.248518 
L 425.851168 249.384173 
L 426.297067 249.849277 
L 426.817284 250.75178 
L 427.634766 252.709269 
L 430.384481 259.730455 
L 431.424913 261.645502 
L 432.465345 263.114167 
L 433.580094 264.308408 
L 434.620527 265.120186 
L 435.660959 265.663979 
L 436.850025 266.026134 
L 437.964774 266.140116 
L 439.079523 266.026643 
L 440.268588 265.681993 
L 441.309021 265.161219 
L 442.275137 264.434711 
L 443.389886 263.298824 
L 444.430318 261.927158 
L 445.396434 260.279085 
L 446.436866 258.025249 
L 447.774565 254.510284 
L 449.483847 250.010388 
L 450.152696 248.876413 
L 450.598596 248.497495 
L 450.970179 248.446187 
L 451.341762 248.639439 
L 451.787661 249.174356 
L 452.382194 250.31598 
L 453.273993 252.604213 
L 455.429175 258.293538 
L 456.469607 260.395188 
L 457.51004 262.017208 
L 458.550472 263.25138 
L 459.590904 264.156645 
L 460.631337 264.765445 
L 461.746086 265.148375 
L 462.786518 265.280259 
L 463.826951 265.18997 
L 464.9417 264.86441 
L 465.982132 264.326509 
L 466.948248 263.568122 
L 467.98868 262.452074 
L 469.029113 260.999137 
L 469.995228 259.255425 
L 471.035661 256.885031 
L 472.447676 253.014147 
L 473.934008 249.071195 
L 474.528541 248.029841 
L 474.974441 247.606826 
L 475.346024 247.523777 
L 475.717607 247.692219 
L 476.163506 248.208483 
L 476.758039 249.344899 
L 477.649838 251.65941 
L 479.879336 257.632865 
L 480.919769 259.737775 
L 481.960201 261.356057 
L 483.000633 262.568516 
L 483.966749 263.3751 
L 484.932865 263.911421 
L 485.973298 264.234314 
L 486.939413 264.310566 
L 487.905529 264.172697 
L 488.945962 263.795034 
L 489.912077 263.204209 
L 490.878193 262.333605 
L 491.844309 261.163835 
L 492.810425 259.658082 
L 493.776541 257.733025 
L 494.89129 254.953444 
L 497.789637 247.272228 
L 498.309853 246.651786 
L 498.681436 246.503412 
L 499.053019 246.613708 
L 499.424602 246.974498 
L 499.944818 247.85108 
L 500.687984 249.652337 
L 503.809282 257.900335 
L 504.849714 259.767441 
L 505.890146 261.16842 
L 506.856262 262.10617 
L 507.822378 262.735834 
L 508.788494 263.099844 
L 509.75461 263.216002 
L 510.646409 263.104889 
L 511.612525 262.753507 
L 512.504324 262.199128 
L 513.396123 261.386907 
L 514.362239 260.188795 
L 515.328355 258.625526 
L 516.29447 256.624135 
L 517.409219 253.737156 
L 520.158934 246.211285 
L 520.67915 245.53093 
L 521.050733 245.345622 
L 521.422316 245.426942 
L 521.793899 245.76854 
L 522.314115 246.635499 
L 522.982964 248.250026 
L 526.401528 257.318631 
L 527.367644 258.989601 
L 528.33376 260.239993 
L 529.225559 261.061417 
L 530.117358 261.601507 
L 531.009157 261.889934 
L 531.900956 261.935686 
L 532.792756 261.741808 
L 533.684555 261.307878 
L 534.576354 260.607861 
L 535.468153 259.605383 
L 536.434269 258.149012 
L 537.400385 256.25727 
L 538.440817 253.672877 
L 539.852833 249.442857 
L 541.116215 245.815628 
L 541.785064 244.527987 
L 542.230964 244.087461 
L 542.602547 244.016341 
L 542.97413 244.219923 
L 543.42003 244.803979 
L 544.014562 246.058885 
L 544.906362 248.564418 
L 546.91291 254.288192 
L 547.953342 256.538154 
L 548.919458 258.119812 
L 549.811257 259.185599 
L 550.703056 259.911718 
L 551.520539 260.309364 
L 552.338022 260.461311 
L 553.155504 260.370701 
L 553.972987 260.048717 
L 554.790469 259.492578 
L 555.607952 258.673105 
L 556.499751 257.442248 
L 557.465867 255.681013 
L 558.431983 253.435579 
L 559.472415 250.435266 
L 561.701913 243.719476 
L 562.222129 242.831242 
L 562.668029 242.469547 
L 563.039612 242.479774 
L 563.411195 242.772978 
L 563.857095 243.464614 
L 564.451627 244.841274 
L 565.566376 248.143511 
L 567.127025 252.622501 
L 568.167457 254.966621 
L 569.133573 256.614766 
L 569.951056 257.607634 
L 570.768538 258.272798 
L 571.511704 258.620244 
L 572.25487 258.730293 
L 572.998036 258.605235 
L 573.741202 258.250593 
L 574.484368 257.659862 
L 575.301851 256.720583 
L 576.19365 255.320226 
L 577.085449 253.474222 
L 578.051565 250.935587 
L 579.314947 246.914716 
L 580.801279 242.314463 
L 581.395812 241.114621 
L 581.841712 240.645182 
L 582.213295 240.576494 
L 582.510561 240.736499 
L 582.882144 241.191163 
L 583.40236 242.239607 
L 584.145526 244.315936 
L 586.597974 251.604031 
L 587.56409 253.650695 
L 588.455889 255.028611 
L 589.273372 255.889593 
L 590.016538 256.363339 
L 590.685387 256.550715 
L 591.354237 256.517966 
L 592.023086 256.267009 
L 592.766252 255.728771 
L 593.509418 254.897408 
L 594.326901 253.613745 
L 595.2187 251.74185 
L 596.184816 249.132153 
L 597.373881 245.208319 
L 598.93453 240.118016 
L 599.529063 238.852641 
L 599.974962 238.356772 
L 600.272229 238.272968 
L 600.569495 238.391144 
L 600.941078 238.810385 
L 601.461294 239.838667 
L 602.20446 241.934266 
L 604.731225 249.572623 
L 605.623024 251.438519 
L 606.440507 252.667996 
L 607.183673 253.405556 
L 607.852522 253.775911 
L 608.447055 253.880907 
L 609.041588 253.776013 
L 609.63612 253.459245 
L 610.30497 252.843171 
L 611.048136 251.818987 
L 611.865618 250.253186 
L 612.757418 247.995148 
L 613.79785 244.662598 
L 616.175981 236.613572 
L 616.696197 235.68171 
L 617.06778 235.385502 
L 617.365047 235.387394 
L 617.662313 235.599796 
L 618.033896 236.140853 
L 618.554112 237.328903 
L 619.371595 239.839751 
L 621.303827 245.914964 
L 622.195626 247.952733 
L 622.938792 249.172193 
L 623.607641 249.901317 
L 624.202174 250.26464 
L 624.796707 250.365172 
L 625.316923 250.238972 
L 625.911456 249.848396 
L 626.505989 249.189098 
L 627.174838 248.113468 
L 627.918004 246.48676 
L 628.735487 244.159689 
L 629.775919 240.463517 
L 631.782467 233.104817 
L 632.302683 231.971506 
L 632.674266 231.545672 
L 632.971533 231.458492 
L 633.268799 231.599154 
L 633.640382 232.078246 
L 634.160598 233.219031 
L 634.978081 235.721492 
L 636.835996 241.639437 
L 637.653479 243.501593 
L 638.396645 244.655311 
L 638.991177 245.207437 
L 639.511394 245.4212 
L 640.03161 245.379396 
L 640.551826 245.08172 
L 641.072042 244.524654 
L 641.666575 243.563386 
L 642.335424 242.058057 
L 643.152907 239.606213 
L 644.119023 235.873991 
L 646.199888 227.476744 
L 646.720104 226.264477 
L 647.091687 225.817469 
L 647.388953 225.728231 
L 647.68622 225.882391 
L 648.057803 226.390046 
L 648.578019 227.584975 
L 649.395501 230.147887 
L 650.881833 234.806214 
L 651.624999 236.450629 
L 652.219532 237.313148 
L 652.739748 237.717392 
L 653.185648 237.793318 
L 653.631548 237.606763 
L 654.077447 237.166462 
L 654.597663 236.327596 
L 655.192196 234.934991 
L 655.861046 232.808416 
L 656.752845 229.097084 
L 659.502559 216.776802 
L 659.948459 215.968046 
L 660.320042 215.732334 
L 660.617308 215.826633 
L 660.988891 216.25731 
L 661.509107 217.307801 
L 663.664289 222.278157 
L 664.110188 222.721877 
L 664.481771 222.803346 
L 664.853354 222.607876 
L 665.224937 222.176084 
L 665.670837 221.264573 
L 666.191053 219.638327 
L 666.859903 216.674525 
L 667.603069 212.442999 
L 669.089401 200.789032 
L 670.352783 190.825514 
L 670.650049 188.911667 
L 672.210698 179.930946 
L 672.210698 179.930946 
" clip-path="url(#p768f10ecab)" style="fill: none; stroke: #ff7f0e; stroke-width: 1.5; stroke-linecap: square"/>
   </g>
   <g id="patch_3">
    <path d="M 36.465625 284.4 
L 36.465625 7.2 
" style="fill: none; stroke: #000000; stroke-width: 0.8; stroke-linejoin: miter; stroke-linecap: square"/>
   </g>
   <g id="patch_4">
    <path d="M 706.065625 284.4 
L 706.065625 7.2 
" style="fill: none; stroke: #000000; stroke-width: 0.8; stroke-linejoin: miter; stroke-linecap: square"/>
   </g>
   <g id="patch_5">
    <path d="M 36.465625 284.4 
L 706.065625 284.4 
" style="fill: none; stroke: #000000; stroke-width: 0.8; stroke-linejoin: miter; stroke-linecap: square"/>
   </g>
   <g id="patch_6">
    <path d="M 36.465625 7.2 
L 706.065625 7.2 
" style="fill: none; stroke: #000000; stroke-width: 0.8; stroke-linejoin: miter; stroke-linecap: square"/>
   </g>
   <g id="legend_1">
    <g id="patch_7">
     <path d="M 43.465625 73.9125 
L 205.965625 73.9125 
Q 207.965625 73.9125 207.965625 71.9125 
L 207.965625 14.2 
Q 207.965625 12.2 205.965625 12.2 
L 43.465625 12.2 
Q 41.465625 12.2 41.465625 14.2 
L 41.465625 71.9125 
Q 41.465625 73.9125 43.465625 73.9125 
z
" style="fill: #ffffff; opacity: 0.8; stroke: #cccccc; stroke-linejoin: miter"/>
    </g>
    <g id="line2d_18">
     <path d="M 45.465625 20.298438 
L 55.465625 20.298438 
L 65.465625 20.298438 
" style="fill: none; stroke: #1f77b4; stroke-width: 1.5; stroke-linecap: square"/>
    </g>
    <g id="text_15">
     <!-- Mf before ISCO cut: $e$=0.2 -->
     <g transform="translate(73.465625 23.798438) scale(0.1 -0.1)">
      <defs>
       <path id="DejaVuSans-4d" d="M 628 4666 
L 1569 4666 
L 2759 1491 
L 3956 4666 
L 4897 4666 
L 4897 0 
L 4281 0 
L 4281 4097 
L 3078 897 
L 2444 897 
L 1241 4097 
L 1241 0 
L 628 0 
L 628 4666 
z
" transform="scale(0.015625)"/>
       <path id="DejaVuSans-66" d="M 2375 4863 
L 2375 4384 
L 1825 4384 
Q 1516 4384 1395 4259 
Q 1275 4134 1275 3809 
L 1275 3500 
L 2222 3500 
L 2222 3053 
L 1275 3053 
L 1275 0 
L 697 0 
L 697 3053 
L 147 3053 
L 147 3500 
L 697 3500 
L 697 3744 
Q 697 4328 969 4595 
Q 1241 4863 1831 4863 
L 2375 4863 
z
" transform="scale(0.015625)"/>
       <path id="DejaVuSans-20" transform="scale(0.015625)"/>
       <path id="DejaVuSans-62" d="M 3116 1747 
Q 3116 2381 2855 2742 
Q 2594 3103 2138 3103 
Q 1681 3103 1420 2742 
Q 1159 2381 1159 1747 
Q 1159 1113 1420 752 
Q 1681 391 2138 391 
Q 2594 391 2855 752 
Q 3116 1113 3116 1747 
z
M 1159 2969 
Q 1341 3281 1617 3432 
Q 1894 3584 2278 3584 
Q 2916 3584 3314 3078 
Q 3713 2572 3713 1747 
Q 3713 922 3314 415 
Q 2916 -91 2278 -91 
Q 1894 -91 1617 61 
Q 1341 213 1159 525 
L 1159 0 
L 581 0 
L 581 4863 
L 1159 4863 
L 1159 2969 
z
" transform="scale(0.015625)"/>
       <path id="DejaVuSans-65" d="M 3597 1894 
L 3597 1613 
L 953 1613 
Q 991 1019 1311 708 
Q 1631 397 2203 397 
Q 2534 397 2845 478 
Q 3156 559 3463 722 
L 3463 178 
Q 3153 47 2828 -22 
Q 2503 -91 2169 -91 
Q 1331 -91 842 396 
Q 353 884 353 1716 
Q 353 2575 817 3079 
Q 1281 3584 2069 3584 
Q 2775 3584 3186 3129 
Q 3597 2675 3597 1894 
z
M 3022 2063 
Q 3016 2534 2758 2815 
Q 2500 3097 2075 3097 
Q 1594 3097 1305 2825 
Q 1016 2553 972 2059 
L 3022 2063 
z
" transform="scale(0.015625)"/>
       <path id="DejaVuSans-6f" d="M 1959 3097 
Q 1497 3097 1228 2736 
Q 959 2375 959 1747 
Q 959 1119 1226 758 
Q 1494 397 1959 397 
Q 2419 397 2687 759 
Q 2956 1122 2956 1747 
Q 2956 2369 2687 2733 
Q 2419 3097 1959 3097 
z
M 1959 3584 
Q 2709 3584 3137 3096 
Q 3566 2609 3566 1747 
Q 3566 888 3137 398 
Q 2709 -91 1959 -91 
Q 1206 -91 779 398 
Q 353 888 353 1747 
Q 353 2609 779 3096 
Q 1206 3584 1959 3584 
z
" transform="scale(0.015625)"/>
       <path id="DejaVuSans-72" d="M 2631 2963 
Q 2534 3019 2420 3045 
Q 2306 3072 2169 3072 
Q 1681 3072 1420 2755 
Q 1159 2438 1159 1844 
L 1159 0 
L 581 0 
L 581 3500 
L 1159 3500 
L 1159 2956 
Q 1341 3275 1631 3429 
Q 1922 3584 2338 3584 
Q 2397 3584 2469 3576 
Q 2541 3569 2628 3553 
L 2631 2963 
z
" transform="scale(0.015625)"/>
       <path id="DejaVuSans-49" d="M 628 4666 
L 1259 4666 
L 1259 0 
L 628 0 
L 628 4666 
z
" transform="scale(0.015625)"/>
       <path id="DejaVuSans-53" d="M 3425 4513 
L 3425 3897 
Q 3066 4069 2747 4153 
Q 2428 4238 2131 4238 
Q 1616 4238 1336 4038 
Q 1056 3838 1056 3469 
Q 1056 3159 1242 3001 
Q 1428 2844 1947 2747 
L 2328 2669 
Q 3034 2534 3370 2195 
Q 3706 1856 3706 1288 
Q 3706 609 3251 259 
Q 2797 -91 1919 -91 
Q 1588 -91 1214 -16 
Q 841 59 441 206 
L 441 856 
Q 825 641 1194 531 
Q 1563 422 1919 422 
Q 2459 422 2753 634 
Q 3047 847 3047 1241 
Q 3047 1584 2836 1778 
Q 2625 1972 2144 2069 
L 1759 2144 
Q 1053 2284 737 2584 
Q 422 2884 422 3419 
Q 422 4038 858 4394 
Q 1294 4750 2059 4750 
Q 2388 4750 2728 4690 
Q 3069 4631 3425 4513 
z
" transform="scale(0.015625)"/>
       <path id="DejaVuSans-43" d="M 4122 4306 
L 4122 3641 
Q 3803 3938 3442 4084 
Q 3081 4231 2675 4231 
Q 1875 4231 1450 3742 
Q 1025 3253 1025 2328 
Q 1025 1406 1450 917 
Q 1875 428 2675 428 
Q 3081 428 3442 575 
Q 3803 722 4122 1019 
L 4122 359 
Q 3791 134 3420 21 
Q 3050 -91 2638 -91 
Q 1578 -91 968 557 
Q 359 1206 359 2328 
Q 359 3453 968 4101 
Q 1578 4750 2638 4750 
Q 3056 4750 3426 4639 
Q 3797 4528 4122 4306 
z
" transform="scale(0.015625)"/>
       <path id="DejaVuSans-4f" d="M 2522 4238 
Q 1834 4238 1429 3725 
Q 1025 3213 1025 2328 
Q 1025 1447 1429 934 
Q 1834 422 2522 422 
Q 3209 422 3611 934 
Q 4013 1447 4013 2328 
Q 4013 3213 3611 3725 
Q 3209 4238 2522 4238 
z
M 2522 4750 
Q 3503 4750 4090 4092 
Q 4678 3434 4678 2328 
Q 4678 1225 4090 567 
Q 3503 -91 2522 -91 
Q 1538 -91 948 565 
Q 359 1222 359 2328 
Q 359 3434 948 4092 
Q 1538 4750 2522 4750 
z
" transform="scale(0.015625)"/>
       <path id="DejaVuSans-63" d="M 3122 3366 
L 3122 2828 
Q 2878 2963 2633 3030 
Q 2388 3097 2138 3097 
Q 1578 3097 1268 2742 
Q 959 2388 959 1747 
Q 959 1106 1268 751 
Q 1578 397 2138 397 
Q 2388 397 2633 464 
Q 2878 531 3122 666 
L 3122 134 
Q 2881 22 2623 -34 
Q 2366 -91 2075 -91 
Q 1284 -91 818 406 
Q 353 903 353 1747 
Q 353 2603 823 3093 
Q 1294 3584 2113 3584 
Q 2378 3584 2631 3529 
Q 2884 3475 3122 3366 
z
" transform="scale(0.015625)"/>
       <path id="DejaVuSans-75" d="M 544 1381 
L 544 3500 
L 1119 3500 
L 1119 1403 
Q 1119 906 1312 657 
Q 1506 409 1894 409 
Q 2359 409 2629 706 
Q 2900 1003 2900 1516 
L 2900 3500 
L 3475 3500 
L 3475 0 
L 2900 0 
L 2900 538 
Q 2691 219 2414 64 
Q 2138 -91 1772 -91 
Q 1169 -91 856 284 
Q 544 659 544 1381 
z
M 1991 3584 
L 1991 3584 
z
" transform="scale(0.015625)"/>
       <path id="DejaVuSans-74" d="M 1172 4494 
L 1172 3500 
L 2356 3500 
L 2356 3053 
L 1172 3053 
L 1172 1153 
Q 1172 725 1289 603 
Q 1406 481 1766 481 
L 2356 481 
L 2356 0 
L 1766 0 
Q 1100 0 847 248 
Q 594 497 594 1153 
L 594 3053 
L 172 3053 
L 172 3500 
L 594 3500 
L 594 4494 
L 1172 4494 
z
" transform="scale(0.015625)"/>
       <path id="DejaVuSans-3a" d="M 750 794 
L 1409 794 
L 1409 0 
L 750 0 
L 750 794 
z
M 750 3309 
L 1409 3309 
L 1409 2516 
L 750 2516 
L 750 3309 
z
" transform="scale(0.015625)"/>
       <path id="DejaVuSans-Oblique-65" d="M 3078 2063 
Q 3088 2113 3092 2166 
Q 3097 2219 3097 2272 
Q 3097 2653 2873 2875 
Q 2650 3097 2266 3097 
Q 1838 3097 1509 2826 
Q 1181 2556 1013 2059 
L 3078 2063 
z
M 3578 1613 
L 903 1613 
Q 884 1494 878 1425 
Q 872 1356 872 1306 
Q 872 872 1139 634 
Q 1406 397 1894 397 
Q 2269 397 2603 481 
Q 2938 566 3225 728 
L 3116 159 
Q 2806 34 2476 -28 
Q 2147 -91 1806 -91 
Q 1078 -91 686 257 
Q 294 606 294 1247 
Q 294 1794 489 2264 
Q 684 2734 1063 3103 
Q 1306 3334 1642 3459 
Q 1978 3584 2356 3584 
Q 2950 3584 3301 3228 
Q 3653 2872 3653 2272 
Q 3653 2128 3634 1964 
Q 3616 1800 3578 1613 
z
" transform="scale(0.015625)"/>
       <path id="DejaVuSans-3d" d="M 678 2906 
L 4684 2906 
L 4684 2381 
L 678 2381 
L 678 2906 
z
M 678 1631 
L 4684 1631 
L 4684 1100 
L 678 1100 
L 678 1631 
z
" transform="scale(0.015625)"/>
      </defs>
      <use xlink:href="#DejaVuSans-4d" transform="translate(0 0.015625)"/>
      <use xlink:href="#DejaVuSans-66" transform="translate(86.279297 0.015625)"/>
      <use xlink:href="#DejaVuSans-20" transform="translate(121.484375 0.015625)"/>
      <use xlink:href="#DejaVuSans-62" transform="translate(153.271484 0.015625)"/>
      <use xlink:href="#DejaVuSans-65" transform="translate(216.748047 0.015625)"/>
      <use xlink:href="#DejaVuSans-66" transform="translate(278.271484 0.015625)"/>
      <use xlink:href="#DejaVuSans-6f" transform="translate(313.476562 0.015625)"/>
      <use xlink:href="#DejaVuSans-72" transform="translate(374.658203 0.015625)"/>
      <use xlink:href="#DejaVuSans-65" transform="translate(415.771484 0.015625)"/>
      <use xlink:href="#DejaVuSans-20" transform="translate(477.294922 0.015625)"/>
      <use xlink:href="#DejaVuSans-49" transform="translate(509.082031 0.015625)"/>
      <use xlink:href="#DejaVuSans-53" transform="translate(538.574219 0.015625)"/>
      <use xlink:href="#DejaVuSans-43" transform="translate(602.050781 0.015625)"/>
      <use xlink:href="#DejaVuSans-4f" transform="translate(671.875 0.015625)"/>
      <use xlink:href="#DejaVuSans-20" transform="translate(750.585938 0.015625)"/>
      <use xlink:href="#DejaVuSans-63" transform="translate(782.373047 0.015625)"/>
      <use xlink:href="#DejaVuSans-75" transform="translate(837.353516 0.015625)"/>
      <use xlink:href="#DejaVuSans-74" transform="translate(900.732422 0.015625)"/>
      <use xlink:href="#DejaVuSans-3a" transform="translate(939.941406 0.015625)"/>
      <use xlink:href="#DejaVuSans-20" transform="translate(973.632812 0.015625)"/>
      <use xlink:href="#DejaVuSans-Oblique-65" transform="translate(1005.419922 0.015625)"/>
      <use xlink:href="#DejaVuSans-3d" transform="translate(1066.943359 0.015625)"/>
      <use xlink:href="#DejaVuSans-30" transform="translate(1150.732422 0.015625)"/>
      <use xlink:href="#DejaVuSans-2e" transform="translate(1214.355469 0.015625)"/>
      <use xlink:href="#DejaVuSans-32" transform="translate(1240.642578 0.015625)"/>
     </g>
    </g>
    <g id="line2d_19">
     <path d="M 45.465625 34.976563 
L 55.465625 34.976563 
L 65.465625 34.976563 
" style="fill: none; stroke-dasharray: 2.22,0.96; stroke-dashoffset: 0; stroke: #ff0000; stroke-width: 0.6"/>
    </g>
    <g id="text_16">
     <!-- Mf ISCO $e$=0 -->
     <g transform="translate(73.465625 38.476563) scale(0.1 -0.1)">
      <use xlink:href="#DejaVuSans-4d" transform="translate(0 0.015625)"/>
      <use xlink:href="#DejaVuSans-66" transform="translate(86.279297 0.015625)"/>
      <use xlink:href="#DejaVuSans-20" transform="translate(121.484375 0.015625)"/>
      <use xlink:href="#DejaVuSans-49" transform="translate(153.271484 0.015625)"/>
      <use xlink:href="#DejaVuSans-53" transform="translate(182.763672 0.015625)"/>
      <use xlink:href="#DejaVuSans-43" transform="translate(246.240234 0.015625)"/>
      <use xlink:href="#DejaVuSans-4f" transform="translate(316.064453 0.015625)"/>
      <use xlink:href="#DejaVuSans-20" transform="translate(394.775391 0.015625)"/>
      <use xlink:href="#DejaVuSans-Oblique-65" transform="translate(426.5625 0.015625)"/>
      <use xlink:href="#DejaVuSans-3d" transform="translate(488.085938 0.015625)"/>
      <use xlink:href="#DejaVuSans-30" transform="translate(571.875 0.015625)"/>
     </g>
    </g>
    <g id="PathCollection_2">
     <g>
      <use xlink:href="#me8917a331b" x="55.465625" y="50.529688" style="fill: #ff0000; stroke: #ff0000"/>
     </g>
    </g>
    <g id="text_17">
     <!-- ISCO cut -->
     <g transform="translate(73.465625 53.154688) scale(0.1 -0.1)">
      <use xlink:href="#DejaVuSans-49"/>
      <use xlink:href="#DejaVuSans-53" transform="translate(29.492188 0)"/>
      <use xlink:href="#DejaVuSans-43" transform="translate(92.96875 0)"/>
      <use xlink:href="#DejaVuSans-4f" transform="translate(162.792969 0)"/>
      <use xlink:href="#DejaVuSans-20" transform="translate(241.503906 0)"/>
      <use xlink:href="#DejaVuSans-63" transform="translate(273.291016 0)"/>
      <use xlink:href="#DejaVuSans-75" transform="translate(328.271484 0)"/>
      <use xlink:href="#DejaVuSans-74" transform="translate(391.650391 0)"/>
     </g>
    </g>
    <g id="line2d_20">
     <path d="M 45.465625 64.332813 
L 55.465625 64.332813 
L 65.465625 64.332813 
" style="fill: none; stroke: #ff7f0e; stroke-width: 1.5; stroke-linecap: square"/>
    </g>
    <g id="text_18">
     <!-- Mf after ISCO cut: $e$=0.2  -->
     <g transform="translate(73.465625 67.832813) scale(0.1 -0.1)">
      <defs>
       <path id="DejaVuSans-61" d="M 2194 1759 
Q 1497 1759 1228 1600 
Q 959 1441 959 1056 
Q 959 750 1161 570 
Q 1363 391 1709 391 
Q 2188 391 2477 730 
Q 2766 1069 2766 1631 
L 2766 1759 
L 2194 1759 
z
M 3341 1997 
L 3341 0 
L 2766 0 
L 2766 531 
Q 2569 213 2275 61 
Q 1981 -91 1556 -91 
Q 1019 -91 701 211 
Q 384 513 384 1019 
Q 384 1609 779 1909 
Q 1175 2209 1959 2209 
L 2766 2209 
L 2766 2266 
Q 2766 2663 2505 2880 
Q 2244 3097 1772 3097 
Q 1472 3097 1187 3025 
Q 903 2953 641 2809 
L 641 3341 
Q 956 3463 1253 3523 
Q 1550 3584 1831 3584 
Q 2591 3584 2966 3190 
Q 3341 2797 3341 1997 
z
" transform="scale(0.015625)"/>
      </defs>
      <use xlink:href="#DejaVuSans-4d" transform="translate(0 0.015625)"/>
      <use xlink:href="#DejaVuSans-66" transform="translate(86.279297 0.015625)"/>
      <use xlink:href="#DejaVuSans-20" transform="translate(121.484375 0.015625)"/>
      <use xlink:href="#DejaVuSans-61" transform="translate(153.271484 0.015625)"/>
      <use xlink:href="#DejaVuSans-66" transform="translate(214.550781 0.015625)"/>
      <use xlink:href="#DejaVuSans-74" transform="translate(249.755859 0.015625)"/>
      <use xlink:href="#DejaVuSans-65" transform="translate(288.964844 0.015625)"/>
      <use xlink:href="#DejaVuSans-72" transform="translate(350.488281 0.015625)"/>
      <use xlink:href="#DejaVuSans-20" transform="translate(391.601562 0.015625)"/>
      <use xlink:href="#DejaVuSans-49" transform="translate(423.388672 0.015625)"/>
      <use xlink:href="#DejaVuSans-53" transform="translate(452.880859 0.015625)"/>
      <use xlink:href="#DejaVuSans-43" transform="translate(516.357422 0.015625)"/>
      <use xlink:href="#DejaVuSans-4f" transform="translate(586.181641 0.015625)"/>
      <use xlink:href="#DejaVuSans-20" transform="translate(664.892578 0.015625)"/>
      <use xlink:href="#DejaVuSans-63" transform="translate(696.679688 0.015625)"/>
      <use xlink:href="#DejaVuSans-75" transform="translate(751.660156 0.015625)"/>
      <use xlink:href="#DejaVuSans-74" transform="translate(815.039062 0.015625)"/>
      <use xlink:href="#DejaVuSans-3a" transform="translate(854.248047 0.015625)"/>
      <use xlink:href="#DejaVuSans-20" transform="translate(887.939453 0.015625)"/>
      <use xlink:href="#DejaVuSans-Oblique-65" transform="translate(919.726562 0.015625)"/>
      <use xlink:href="#DejaVuSans-3d" transform="translate(981.25 0.015625)"/>
      <use xlink:href="#DejaVuSans-30" transform="translate(1065.039062 0.015625)"/>
      <use xlink:href="#DejaVuSans-2e" transform="translate(1128.662109 0.015625)"/>
      <use xlink:href="#DejaVuSans-32" transform="translate(1154.949219 0.015625)"/>
      <use xlink:href="#DejaVuSans-20" transform="translate(1218.572266 0.015625)"/>
     </g>
    </g>
   </g>
  </g>
 </g>
 <defs>
  <clipPath id="p768f10ecab">
   <rect x="36.465625" y="7.2" width="669.6" height="277.2"/>
  </clipPath>
 </defs>
</svg>
