<?xml version="1.0" encoding="utf-8" standalone="no"?>
<!DOCTYPE svg PUBLIC "-//W3C//DTD SVG 1.1//EN"
  "http://www.w3.org/Graphics/SVG/1.1/DTD/svg11.dtd">
<svg xmlns:xlink="http://www.w3.org/1999/xlink" width="713.265625pt" height="308.278125pt" viewBox="0 0 713.265625 308.278125" xmlns="http://www.w3.org/2000/svg" version="1.1">
 <metadata>
  <rdf:RDF xmlns:dc="http://purl.org/dc/elements/1.1/" xmlns:cc="http://creativecommons.org/ns#" xmlns:rdf="http://www.w3.org/1999/02/22-rdf-syntax-ns#">
   <cc:Work>
    <dc:type rdf:resource="http://purl.org/dc/dcmitype/StillImage"/>
    <dc:date>2025-08-29T16:46:47.600563</dc:date>
    <dc:format>image/svg+xml</dc:format>
    <dc:creator>
     <cc:Agent>
      <dc:title>Matplotlib v3.10.5, https://matplotlib.org/</dc:title>
     </cc:Agent>
    </dc:creator>
   </cc:Work>
  </rdf:RDF>
 </metadata>
 <defs>
  <style type="text/css">*{stroke-linejoin: round; stroke-linecap: butt}</style>
 </defs>
 <g id="figure_1">
  <g id="patch_1">
   <path d="M 0 308.278125 
L 713.265625 308.278125 
L 713.265625 0 
L 0 0 
z
" style="fill: #ffffff"/>
  </g>
  <g id="axes_1">
   <g id="patch_2">
    <path d="M 36.465625 284.4 
L 706.065625 284.4 
L 706.065625 7.2 
L 36.465625 7.2 
z
" style="fill: #ffffff"/>
   </g>
   <g id="PathCollection_1">
    <defs>
     <path id="m4aad7ff124" d="M 0 1.224745 
C 0.324806 1.224745 0.636353 1.095698 0.866025 0.866025 
C 1.095698 0.636353 1.224745 0.324806 1.224745 0 
C 1.224745 -0.324806 1.095698 -0.636353 0.866025 -0.866025 
C 0.636353 -1.095698 0.324806 -1.224745 0 -1.224745 
C -0.324806 -1.224745 -0.636353 -1.095698 -0.866025 -0.866025 
C -1.095698 -0.636353 -1.224745 -0.324806 -1.224745 0 
C -1.224745 0.324806 -1.095698 0.636353 -0.866025 0.866025 
C -0.636353 1.095698 -0.324806 1.224745 0 1.224745 
z
" style="stroke: #ff0000"/>
    </defs>
    <g clip-path="url(#pa230c75326)">
     <use xlink:href="#m4aad7ff124" x="669.283363" y="178.452746" style="fill: #ff0000; stroke: #ff0000"/>
    </g>
   </g>
   <g id="matplotlib.axis_1">
    <g id="xtick_1">
     <g id="line2d_1">
      <defs>
       <path id="m514ff5cc73" d="M 0 0 
L 0 3.5 
" style="stroke: #000000; stroke-width: 0.8"/>
      </defs>
      <g>
       <use xlink:href="#m514ff5cc73" x="95.953802" y="284.4" style="stroke: #000000; stroke-width: 0.8"/>
      </g>
     </g>
     <g id="text_1">
      <!-- −8000 -->
      <g transform="translate(79.038958 298.998438) scale(0.1 -0.1)">
       <defs>
        <path id="DejaVuSans-2212" d="M 678 2272 
L 4684 2272 
L 4684 1741 
L 678 1741 
L 678 2272 
z
" transform="scale(0.015625)"/>
        <path id="DejaVuSans-38" d="M 2034 2216 
Q 1584 2216 1326 1975 
Q 1069 1734 1069 1313 
Q 1069 891 1326 650 
Q 1584 409 2034 409 
Q 2484 409 2743 651 
Q 3003 894 3003 1313 
Q 3003 1734 2745 1975 
Q 2488 2216 2034 2216 
z
M 1403 2484 
Q 997 2584 770 2862 
Q 544 3141 544 3541 
Q 544 4100 942 4425 
Q 1341 4750 2034 4750 
Q 2731 4750 3128 4425 
Q 3525 4100 3525 3541 
Q 3525 3141 3298 2862 
Q 3072 2584 2669 2484 
Q 3125 2378 3379 2068 
Q 3634 1759 3634 1313 
Q 3634 634 3220 271 
Q 2806 -91 2034 -91 
Q 1263 -91 848 271 
Q 434 634 434 1313 
Q 434 1759 690 2068 
Q 947 2378 1403 2484 
z
M 1172 3481 
Q 1172 3119 1398 2916 
Q 1625 2713 2034 2713 
Q 2441 2713 2670 2916 
Q 2900 3119 2900 3481 
Q 2900 3844 2670 4047 
Q 2441 4250 2034 4250 
Q 1625 4250 1398 4047 
Q 1172 3844 1172 3481 
z
" transform="scale(0.015625)"/>
        <path id="DejaVuSans-30" d="M 2034 4250 
Q 1547 4250 1301 3770 
Q 1056 3291 1056 2328 
Q 1056 1369 1301 889 
Q 1547 409 2034 409 
Q 2525 409 2770 889 
Q 3016 1369 3016 2328 
Q 3016 3291 2770 3770 
Q 2525 4250 2034 4250 
z
M 2034 4750 
Q 2819 4750 3233 4129 
Q 3647 3509 3647 2328 
Q 3647 1150 3233 529 
Q 2819 -91 2034 -91 
Q 1250 -91 836 529 
Q 422 1150 422 2328 
Q 422 3509 836 4129 
Q 1250 4750 2034 4750 
z
" transform="scale(0.015625)"/>
       </defs>
       <use xlink:href="#DejaVuSans-2212"/>
       <use xlink:href="#DejaVuSans-38" transform="translate(83.789062 0)"/>
       <use xlink:href="#DejaVuSans-30" transform="translate(147.412109 0)"/>
       <use xlink:href="#DejaVuSans-30" transform="translate(211.035156 0)"/>
       <use xlink:href="#DejaVuSans-30" transform="translate(274.658203 0)"/>
      </g>
     </g>
    </g>
    <g id="xtick_2">
     <g id="line2d_2">
      <g>
       <use xlink:href="#m514ff5cc73" x="240.872667" y="284.4" style="stroke: #000000; stroke-width: 0.8"/>
      </g>
     </g>
     <g id="text_2">
      <!-- −6000 -->
      <g transform="translate(223.957823 298.998438) scale(0.1 -0.1)">
       <defs>
        <path id="DejaVuSans-36" d="M 2113 2584 
Q 1688 2584 1439 2293 
Q 1191 2003 1191 1497 
Q 1191 994 1439 701 
Q 1688 409 2113 409 
Q 2538 409 2786 701 
Q 3034 994 3034 1497 
Q 3034 2003 2786 2293 
Q 2538 2584 2113 2584 
z
M 3366 4563 
L 3366 3988 
Q 3128 4100 2886 4159 
Q 2644 4219 2406 4219 
Q 1781 4219 1451 3797 
Q 1122 3375 1075 2522 
Q 1259 2794 1537 2939 
Q 1816 3084 2150 3084 
Q 2853 3084 3261 2657 
Q 3669 2231 3669 1497 
Q 3669 778 3244 343 
Q 2819 -91 2113 -91 
Q 1303 -91 875 529 
Q 447 1150 447 2328 
Q 447 3434 972 4092 
Q 1497 4750 2381 4750 
Q 2619 4750 2861 4703 
Q 3103 4656 3366 4563 
z
" transform="scale(0.015625)"/>
       </defs>
       <use xlink:href="#DejaVuSans-2212"/>
       <use xlink:href="#DejaVuSans-36" transform="translate(83.789062 0)"/>
       <use xlink:href="#DejaVuSans-30" transform="translate(147.412109 0)"/>
       <use xlink:href="#DejaVuSans-30" transform="translate(211.035156 0)"/>
       <use xlink:href="#DejaVuSans-30" transform="translate(274.658203 0)"/>
      </g>
     </g>
    </g>
    <g id="xtick_3">
     <g id="line2d_3">
      <g>
       <use xlink:href="#m514ff5cc73" x="385.791531" y="284.4" style="stroke: #000000; stroke-width: 0.8"/>
      </g>
     </g>
     <g id="text_3">
      <!-- −4000 -->
      <g transform="translate(368.876688 298.998438) scale(0.1 -0.1)">
       <defs>
        <path id="DejaVuSans-34" d="M 2419 4116 
L 825 1625 
L 2419 1625 
L 2419 4116 
z
M 2253 4666 
L 3047 4666 
L 3047 1625 
L 3713 1625 
L 3713 1100 
L 3047 1100 
L 3047 0 
L 2419 0 
L 2419 1100 
L 313 1100 
L 313 1709 
L 2253 4666 
z
" transform="scale(0.015625)"/>
       </defs>
       <use xlink:href="#DejaVuSans-2212"/>
       <use xlink:href="#DejaVuSans-34" transform="translate(83.789062 0)"/>
       <use xlink:href="#DejaVuSans-30" transform="translate(147.412109 0)"/>
       <use xlink:href="#DejaVuSans-30" transform="translate(211.035156 0)"/>
       <use xlink:href="#DejaVuSans-30" transform="translate(274.658203 0)"/>
      </g>
     </g>
    </g>
    <g id="xtick_4">
     <g id="line2d_4">
      <g>
       <use xlink:href="#m514ff5cc73" x="530.710396" y="284.4" style="stroke: #000000; stroke-width: 0.8"/>
      </g>
     </g>
     <g id="text_4">
      <!-- −2000 -->
      <g transform="translate(513.795553 298.998438) scale(0.1 -0.1)">
       <defs>
        <path id="DejaVuSans-32" d="M 1228 531 
L 3431 531 
L 3431 0 
L 469 0 
L 469 531 
Q 828 903 1448 1529 
Q 2069 2156 2228 2338 
Q 2531 2678 2651 2914 
Q 2772 3150 2772 3378 
Q 2772 3750 2511 3984 
Q 2250 4219 1831 4219 
Q 1534 4219 1204 4116 
Q 875 4013 500 3803 
L 500 4441 
Q 881 4594 1212 4672 
Q 1544 4750 1819 4750 
Q 2544 4750 2975 4387 
Q 3406 4025 3406 3419 
Q 3406 3131 3298 2873 
Q 3191 2616 2906 2266 
Q 2828 2175 2409 1742 
Q 1991 1309 1228 531 
z
" transform="scale(0.015625)"/>
       </defs>
       <use xlink:href="#DejaVuSans-2212"/>
       <use xlink:href="#DejaVuSans-32" transform="translate(83.789062 0)"/>
       <use xlink:href="#DejaVuSans-30" transform="translate(147.412109 0)"/>
       <use xlink:href="#DejaVuSans-30" transform="translate(211.035156 0)"/>
       <use xlink:href="#DejaVuSans-30" transform="translate(274.658203 0)"/>
      </g>
     </g>
    </g>
    <g id="xtick_5">
     <g id="line2d_5">
      <g>
       <use xlink:href="#m514ff5cc73" x="675.629261" y="284.4" style="stroke: #000000; stroke-width: 0.8"/>
      </g>
     </g>
     <g id="text_5">
      <!-- 0 -->
      <g transform="translate(672.448011 298.998438) scale(0.1 -0.1)">
       <use xlink:href="#DejaVuSans-30"/>
      </g>
     </g>
    </g>
   </g>
   <g id="matplotlib.axis_2">
    <g id="ytick_1">
     <g id="line2d_6">
      <defs>
       <path id="m543e7bef45" d="M 0 0 
L -3.5 0 
" style="stroke: #000000; stroke-width: 0.8"/>
      </defs>
      <g>
       <use xlink:href="#m543e7bef45" x="36.465625" y="278.930249" style="stroke: #000000; stroke-width: 0.8"/>
      </g>
     </g>
     <g id="text_6">
      <!-- 0.00 -->
      <g transform="translate(7.2 282.729467) scale(0.1 -0.1)">
       <defs>
        <path id="DejaVuSans-2e" d="M 684 794 
L 1344 794 
L 1344 0 
L 684 0 
L 684 794 
z
" transform="scale(0.015625)"/>
       </defs>
       <use xlink:href="#DejaVuSans-30"/>
       <use xlink:href="#DejaVuSans-2e" transform="translate(63.623047 0)"/>
       <use xlink:href="#DejaVuSans-30" transform="translate(95.410156 0)"/>
       <use xlink:href="#DejaVuSans-30" transform="translate(159.033203 0)"/>
      </g>
     </g>
    </g>
    <g id="ytick_2">
     <g id="line2d_7">
      <g>
       <use xlink:href="#m543e7bef45" x="36.465625" y="232.549597" style="stroke: #000000; stroke-width: 0.8"/>
      </g>
     </g>
     <g id="text_7">
      <!-- 0.01 -->
      <g transform="translate(7.2 236.348816) scale(0.1 -0.1)">
       <defs>
        <path id="DejaVuSans-31" d="M 794 531 
L 1825 531 
L 1825 4091 
L 703 3866 
L 703 4441 
L 1819 4666 
L 2450 4666 
L 2450 531 
L 3481 531 
L 3481 0 
L 794 0 
L 794 531 
z
" transform="scale(0.015625)"/>
       </defs>
       <use xlink:href="#DejaVuSans-30"/>
       <use xlink:href="#DejaVuSans-2e" transform="translate(63.623047 0)"/>
       <use xlink:href="#DejaVuSans-30" transform="translate(95.410156 0)"/>
       <use xlink:href="#DejaVuSans-31" transform="translate(159.033203 0)"/>
      </g>
     </g>
    </g>
    <g id="ytick_3">
     <g id="line2d_8">
      <g>
       <use xlink:href="#m543e7bef45" x="36.465625" y="186.168946" style="stroke: #000000; stroke-width: 0.8"/>
      </g>
     </g>
     <g id="text_8">
      <!-- 0.02 -->
      <g transform="translate(7.2 189.968164) scale(0.1 -0.1)">
       <use xlink:href="#DejaVuSans-30"/>
       <use xlink:href="#DejaVuSans-2e" transform="translate(63.623047 0)"/>
       <use xlink:href="#DejaVuSans-30" transform="translate(95.410156 0)"/>
       <use xlink:href="#DejaVuSans-32" transform="translate(159.033203 0)"/>
      </g>
     </g>
    </g>
    <g id="ytick_4">
     <g id="line2d_9">
      <g>
       <use xlink:href="#m543e7bef45" x="36.465625" y="139.788294" style="stroke: #000000; stroke-width: 0.8"/>
      </g>
     </g>
     <g id="text_9">
      <!-- 0.03 -->
      <g transform="translate(7.2 143.587513) scale(0.1 -0.1)">
       <defs>
        <path id="DejaVuSans-33" d="M 2597 2516 
Q 3050 2419 3304 2112 
Q 3559 1806 3559 1356 
Q 3559 666 3084 287 
Q 2609 -91 1734 -91 
Q 1441 -91 1130 -33 
Q 819 25 488 141 
L 488 750 
Q 750 597 1062 519 
Q 1375 441 1716 441 
Q 2309 441 2620 675 
Q 2931 909 2931 1356 
Q 2931 1769 2642 2001 
Q 2353 2234 1838 2234 
L 1294 2234 
L 1294 2753 
L 1863 2753 
Q 2328 2753 2575 2939 
Q 2822 3125 2822 3475 
Q 2822 3834 2567 4026 
Q 2313 4219 1838 4219 
Q 1578 4219 1281 4162 
Q 984 4106 628 3988 
L 628 4550 
Q 988 4650 1302 4700 
Q 1616 4750 1894 4750 
Q 2613 4750 3031 4423 
Q 3450 4097 3450 3541 
Q 3450 3153 3228 2886 
Q 3006 2619 2597 2516 
z
" transform="scale(0.015625)"/>
       </defs>
       <use xlink:href="#DejaVuSans-30"/>
       <use xlink:href="#DejaVuSans-2e" transform="translate(63.623047 0)"/>
       <use xlink:href="#DejaVuSans-30" transform="translate(95.410156 0)"/>
       <use xlink:href="#DejaVuSans-33" transform="translate(159.033203 0)"/>
      </g>
     </g>
    </g>
    <g id="ytick_5">
     <g id="line2d_10">
      <g>
       <use xlink:href="#m543e7bef45" x="36.465625" y="93.407643" style="stroke: #000000; stroke-width: 0.8"/>
      </g>
     </g>
     <g id="text_10">
      <!-- 0.04 -->
      <g transform="translate(7.2 97.206862) scale(0.1 -0.1)">
       <use xlink:href="#DejaVuSans-30"/>
       <use xlink:href="#DejaVuSans-2e" transform="translate(63.623047 0)"/>
       <use xlink:href="#DejaVuSans-30" transform="translate(95.410156 0)"/>
       <use xlink:href="#DejaVuSans-34" transform="translate(159.033203 0)"/>
      </g>
     </g>
    </g>
    <g id="ytick_6">
     <g id="line2d_11">
      <g>
       <use xlink:href="#m543e7bef45" x="36.465625" y="47.026991" style="stroke: #000000; stroke-width: 0.8"/>
      </g>
     </g>
     <g id="text_11">
      <!-- 0.05 -->
      <g transform="translate(7.2 50.82621) scale(0.1 -0.1)">
       <defs>
        <path id="DejaVuSans-35" d="M 691 4666 
L 3169 4666 
L 3169 4134 
L 1269 4134 
L 1269 2991 
Q 1406 3038 1543 3061 
Q 1681 3084 1819 3084 
Q 2600 3084 3056 2656 
Q 3513 2228 3513 1497 
Q 3513 744 3044 326 
Q 2575 -91 1722 -91 
Q 1428 -91 1123 -41 
Q 819 9 494 109 
L 494 744 
Q 775 591 1075 516 
Q 1375 441 1709 441 
Q 2250 441 2565 725 
Q 2881 1009 2881 1497 
Q 2881 1984 2565 2268 
Q 2250 2553 1709 2553 
Q 1456 2553 1204 2497 
Q 953 2441 691 2322 
L 691 4666 
z
" transform="scale(0.015625)"/>
       </defs>
       <use xlink:href="#DejaVuSans-30"/>
       <use xlink:href="#DejaVuSans-2e" transform="translate(63.623047 0)"/>
       <use xlink:href="#DejaVuSans-30" transform="translate(95.410156 0)"/>
       <use xlink:href="#DejaVuSans-35" transform="translate(159.033203 0)"/>
      </g>
     </g>
    </g>
   </g>
   <g id="line2d_12">
    <path d="M 66.901989 250.909691 
L 67.141456 251.482277 
L 69.176933 257.69155 
L 70.134805 259.890876 
L 71.21241 261.787744 
L 75.522831 268.437989 
L 76.360969 269.236767 
L 77.079372 269.601716 
L 77.678042 269.649662 
L 78.276711 269.463416 
L 78.995115 268.988391 
L 80.431922 267.970856 
L 80.910858 267.895418 
L 81.389794 268.036937 
L 81.988463 268.497263 
L 82.946335 269.613464 
L 84.143674 270.928117 
L 84.862077 271.41358 
L 85.460747 271.597162 
L 86.059417 271.581308 
L 86.77782 271.331598 
L 87.975159 270.600308 
L 88.933031 270.126048 
L 89.651434 270.04566 
L 90.369838 270.221507 
L 92.644782 271.016312 
L 93.363186 270.922256 
L 94.201323 270.56424 
L 95.997332 269.688861 
L 96.596002 269.68187 
L 97.194672 269.904413 
L 98.032809 270.516942 
L 99.469616 271.605349 
L 100.068286 271.791285 
L 100.666955 271.732822 
L 101.265625 271.417361 
L 101.984029 270.725268 
L 102.9419 269.427601 
L 104.139239 267.839547 
L 104.737909 267.402124 
L 105.216845 267.326704 
L 105.69578 267.496081 
L 106.29445 267.969695 
L 107.850991 269.359665 
L 108.44966 269.549722 
L 108.928596 269.48848 
L 109.527266 269.143932 
L 110.125935 268.528839 
L 110.964073 267.308709 
L 112.640348 264.30373 
L 113.957421 262.187007 
L 115.873164 259.294678 
L 116.711301 257.467331 
L 117.669173 254.740283 
L 120.423053 246.278074 
L 121.021723 245.212298 
L 121.500658 244.726867 
L 121.85986 244.593135 
L 122.219062 244.660165 
L 122.578264 244.924515 
L 123.057199 245.567334 
L 123.655869 246.784177 
L 124.494006 249.072984 
L 127.607088 258.31396 
L 128.684694 260.519525 
L 130.839904 264.220875 
L 132.396445 266.635887 
L 133.354317 267.731619 
L 134.07272 268.250118 
L 134.67139 268.453665 
L 135.27006 268.449922 
L 135.988463 268.222716 
L 137.545004 267.6382 
L 138.143674 267.70893 
L 138.742343 268.028353 
L 139.580481 268.782655 
L 141.137022 270.230538 
L 141.855425 270.610302 
L 142.573829 270.738254 
L 143.292233 270.63358 
L 144.369838 270.200638 
L 145.567177 269.777119 
L 146.285581 269.754068 
L 147.123718 269.957593 
L 148.799993 270.44914 
L 149.638131 270.414919 
L 150.596002 270.100328 
L 152.272277 269.463036 
L 152.99068 269.475623 
L 153.709084 269.738261 
L 156.103762 270.888615 
L 156.702432 270.811534 
L 157.301102 270.509284 
L 158.019505 269.87734 
L 159.336578 268.310467 
L 160.174716 267.475119 
L 160.773386 267.169575 
L 161.252321 267.141754 
L 161.850991 267.343922 
L 163.886468 268.310638 
L 164.485137 268.201502 
L 165.083807 267.821381 
L 165.80221 267.03376 
L 166.760082 265.557521 
L 171.309971 257.502708 
L 172.148108 255.364622 
L 173.345448 251.579683 
L 175.021723 246.308929 
L 175.740126 244.749875 
L 176.219062 244.100071 
L 176.697998 243.803647 
L 177.057199 243.822002 
L 177.416401 244.044979 
L 177.895337 244.645184 
L 178.494006 245.828723 
L 179.332144 248.101724 
L 182.684694 258.023965 
L 183.882033 260.497314 
L 185.797776 263.902021 
L 186.995115 265.673995 
L 187.833252 266.585917 
L 188.551656 267.087217 
L 189.27006 267.316921 
L 189.988463 267.317379 
L 191.784472 267.165736 
L 192.502876 267.427968 
L 193.341013 268.026446 
L 195.256756 269.521775 
L 195.975159 269.79549 
L 196.693563 269.856261 
L 197.651434 269.680013 
L 199.327709 269.295629 
L 200.165847 269.350261 
L 203.039461 269.802642 
L 203.997332 269.553941 
L 205.673607 269.058822 
L 206.392011 269.080254 
L 207.230148 269.335961 
L 208.906423 269.938522 
L 209.624827 269.905231 
L 210.223496 269.666018 
L 210.9419 269.138828 
L 212.258973 267.795868 
L 213.216845 266.981069 
L 213.815514 266.726801 
L 214.414184 266.695958 
L 215.372055 266.938466 
L 216.329927 267.115175 
L 216.928596 267.000463 
L 217.527266 266.648139 
L 218.245669 265.908763 
L 219.083807 264.684235 
L 220.640348 261.898943 
L 223.394228 256.62682 
L 224.3521 254.100783 
L 225.669173 249.84257 
L 227.10598 245.378736 
L 227.824383 243.836591 
L 228.303319 243.210935 
L 228.782255 242.950114 
L 229.141456 243.002113 
L 229.500658 243.263456 
L 229.979594 243.919217 
L 230.578264 245.172212 
L 231.416401 247.524523 
L 234.529483 256.937864 
L 235.846556 259.834483 
L 237.403097 262.718452 
L 238.600437 264.510498 
L 239.438574 265.421352 
L 240.276711 265.995627 
L 241.114849 266.262637 
L 243.509527 266.747066 
L 244.467399 267.367643 
L 246.263408 268.619112 
L 247.101545 268.912406 
L 247.939683 268.968566 
L 249.496224 268.759028 
L 250.573829 268.741901 
L 251.890902 268.988459 
L 253.088241 269.149694 
L 254.046113 269.05304 
L 256.799993 268.533178 
L 257.757864 268.72046 
L 259.194672 269.017026 
L 259.913075 268.928468 
L 260.631479 268.602876 
L 261.469616 267.960188 
L 263.505093 266.278192 
L 264.223496 266.030511 
L 265.181368 265.985813 
L 266.258973 265.90175 
L 266.857643 265.647326 
L 267.456312 265.1785 
L 268.174716 264.329281 
L 269.132587 262.805583 
L 271.04833 259.179683 
L 272.604871 255.885931 
L 273.682476 252.986428 
L 275.119284 248.28392 
L 276.316623 244.572929 
L 277.035026 242.981921 
L 277.513962 242.32679 
L 277.992898 242.043845 
L 278.3521 242.085613 
L 278.711301 242.342589 
L 279.190237 243.001081 
L 279.788907 244.268162 
L 280.627044 246.649513 
L 283.740126 256.19525 
L 285.057199 259.199465 
L 286.374272 261.698169 
L 287.451878 263.324054 
L 288.290015 264.251526 
L 289.128153 264.867297 
L 290.086024 265.276288 
L 291.882033 265.966487 
L 293.079372 266.751263 
L 294.516179 267.659214 
L 295.474051 267.981503 
L 296.431922 268.057222 
L 299.066068 268.115923 
L 301.101545 268.365042 
L 302.17915 268.228361 
L 304.454095 267.843447 
L 305.771168 267.97841 
L 306.848774 268.021111 
L 307.567177 267.850196 
L 308.405315 267.396839 
L 309.602654 266.428109 
L 310.799993 265.531584 
L 311.638131 265.158562 
L 313.793341 264.408955 
L 314.511745 263.786574 
L 315.349882 262.697701 
L 316.427488 260.837787 
L 318.103762 257.42721 
L 319.420836 254.328438 
L 320.498441 251.213292 
L 323.372055 242.37647 
L 323.970725 241.420874 
L 324.44966 241.075525 
L 324.808862 241.076154 
L 325.168064 241.298579 
L 325.647 241.9226 
L 326.245669 243.165272 
L 327.083807 245.541957 
L 330.436357 255.870772 
L 331.75343 258.864716 
L 332.950769 261.066466 
L 333.908641 262.422831 
L 334.866512 263.388926 
L 335.824383 264.034579 
L 338.697998 265.743674 
L 340.134805 266.621842 
L 341.092676 266.958028 
L 342.290015 267.106299 
L 344.684694 267.337223 
L 346.241235 267.487431 
L 347.438574 267.356071 
L 349.713519 267.017982 
L 351.988463 266.894842 
L 352.826601 266.548924 
L 353.784472 265.89268 
L 355.939683 264.300846 
L 358.454095 262.810452 
L 359.172499 261.99216 
L 360.010636 260.705025 
L 361.207975 258.387549 
L 362.764516 254.8421 
L 363.961856 251.581874 
L 365.278929 247.291016 
L 366.83547 242.339307 
L 367.553873 240.781305 
L 368.032809 240.173684 
L 368.392011 239.975517 
L 368.751213 240.006207 
L 369.110414 240.263316 
L 369.58935 240.93798 
L 370.18802 242.244401 
L 371.026157 244.696135 
L 374.258973 254.846235 
L 375.456312 257.663409 
L 376.533918 259.71329 
L 377.491789 261.1273 
L 378.44966 262.169894 
L 379.647 263.114009 
L 383.239017 265.503861 
L 384.316623 265.879686 
L 385.873164 266.123696 
L 389.225714 266.446479 
L 390.782255 266.212261 
L 392.697998 265.973021 
L 394.015071 265.777188 
L 394.972942 265.386474 
L 396.050547 264.650131 
L 400.600437 260.924285 
L 401.438574 259.687225 
L 402.516179 257.62771 
L 403.833252 254.581752 
L 405.150326 250.981245 
L 406.467399 246.694302 
L 408.143674 241.244224 
L 408.862077 239.628448 
L 409.341013 238.98443 
L 409.700215 238.763267 
L 410.059417 238.776198 
L 410.418618 239.021548 
L 410.897554 239.690085 
L 411.496224 241.002607 
L 412.334361 243.480923 
L 415.686911 254.126981 
L 416.88425 256.918854 
L 417.961856 258.893888 
L 418.919727 260.236519 
L 419.997332 261.380425 
L 421.793341 262.899334 
L 423.349882 263.99211 
L 424.427488 264.497475 
L 425.744561 264.849527 
L 428.258973 265.249593 
L 429.576046 265.235928 
L 431.491789 264.920347 
L 433.886468 264.399204 
L 434.844339 263.911552 
L 436.041678 263.003006 
L 439.035026 260.310609 
L 439.992898 259.093023 
L 440.950769 257.455013 
L 442.028374 255.12332 
L 443.345448 251.697838 
L 444.662521 247.627187 
L 447.296667 239.090164 
L 447.895337 237.942355 
L 448.374272 237.453596 
L 448.733474 237.362323 
L 449.092676 237.511083 
L 449.451878 237.892632 
L 449.930813 238.733693 
L 450.649217 240.578006 
L 451.726822 244.12483 
L 453.762299 250.897761 
L 454.959638 254.122037 
L 456.037244 256.449558 
L 457.114849 258.258583 
L 458.192454 259.646038 
L 459.629261 261.105401 
L 461.066068 262.270831 
L 462.263408 262.953315 
L 463.580481 263.416101 
L 465.37649 263.793818 
L 466.693563 263.871771 
L 468.010636 263.717421 
L 470.285581 263.182102 
L 471.363186 262.74133 
L 472.321057 262.12505 
L 473.638131 260.97131 
L 475.434139 259.099182 
L 476.511745 257.663845 
L 477.469616 255.984786 
L 478.547221 253.579938 
L 479.744561 250.335241 
L 481.061634 246.125993 
L 483.576046 237.753386 
L 484.174716 236.498786 
L 484.653652 235.921418 
L 485.012853 235.7672 
L 485.372055 235.859325 
L 485.731257 236.192776 
L 486.210193 236.985392 
L 486.808862 238.44883 
L 487.766734 241.51486 
L 490.40088 250.352085 
L 491.598219 253.452346 
L 492.675825 255.651958 
L 493.75343 257.369806 
L 494.950769 258.870805 
L 496.267842 260.166902 
L 497.465182 261.024809 
L 498.662521 261.592038 
L 500.099328 262.010703 
L 501.416401 262.176279 
L 502.61374 262.100716 
L 504.170281 261.746747 
L 505.607088 261.205787 
L 506.684694 260.542099 
L 507.762299 259.592203 
L 509.079372 258.126061 
L 510.276711 256.509861 
L 511.234583 254.880517 
L 512.192454 252.832045 
L 513.27006 250.003862 
L 514.587133 245.869854 
L 517.819949 235.21272 
L 518.418618 234.240952 
L 518.77782 233.965625 
L 519.137022 233.9367 
L 519.496224 234.153981 
L 519.975159 234.808244 
L 520.573829 236.154545 
L 521.411966 238.757971 
L 524.644782 249.61519 
L 525.842122 252.53531 
L 526.919727 254.635815 
L 527.997332 256.298537 
L 529.194672 257.736122 
L 530.272277 258.697911 
L 531.349882 259.369289 
L 532.547221 259.832154 
L 533.744561 260.055608 
L 534.9419 260.044015 
L 536.139239 259.803418 
L 537.456312 259.307316 
L 538.533918 258.656285 
L 539.491789 257.826871 
L 540.569394 256.605324 
L 541.766734 254.908695 
L 542.844339 252.98992 
L 543.80221 250.844808 
L 544.879816 247.871504 
L 546.196889 243.510899 
L 549.190237 233.18124 
L 549.788907 232.057135 
L 550.267842 231.632684 
L 550.627044 231.614877 
L 550.986246 231.855468 
L 551.465182 232.556206 
L 552.063851 233.959719 
L 552.901989 236.622461 
L 556.134805 247.672276 
L 557.21241 250.372536 
L 558.290015 252.520751 
L 559.367621 254.20091 
L 560.445226 255.477845 
L 561.522831 256.3984 
L 562.600437 257.014115 
L 563.678042 257.364459 
L 564.635913 257.456505 
L 565.593785 257.341442 
L 566.67139 256.980677 
L 567.748995 256.371132 
L 568.706867 255.577717 
L 569.664738 254.505205 
L 570.742343 252.94803 
L 571.819949 250.985673 
L 572.897554 248.510877 
L 573.975159 245.424302 
L 575.172499 241.301953 
L 578.165847 230.495106 
L 578.764516 229.265887 
L 579.243452 228.765849 
L 579.602654 228.700112 
L 579.961856 228.902365 
L 580.321057 229.361773 
L 580.799993 230.335046 
L 581.518397 232.408599 
L 582.715736 236.741943 
L 584.511745 243.124529 
L 585.709084 246.537766 
L 586.786689 248.958457 
L 587.864295 250.82303 
L 588.822166 252.066854 
L 589.780037 252.967583 
L 590.737909 253.565276 
L 591.69578 253.883301 
L 592.533918 253.93679 
L 593.372055 253.783559 
L 594.329927 253.361073 
L 595.287798 252.664109 
L 596.245669 251.654969 
L 597.203541 250.293817 
L 598.161412 248.552437 
L 599.239017 246.083409 
L 600.316623 242.985501 
L 601.513962 238.77838 
L 604.866512 226.292658 
L 605.465182 225.199836 
L 605.824383 224.891123 
L 606.183585 224.859761 
L 606.542787 225.104873 
L 607.021723 225.83647 
L 607.620392 227.308059 
L 608.45853 230.092843 
L 611.571612 241.132134 
L 612.649217 243.897118 
L 613.607088 245.7978 
L 614.56496 247.214006 
L 615.403097 248.09239 
L 616.241235 248.654418 
L 617.079372 248.922699 
L 617.797776 248.927114 
L 618.516179 248.725479 
L 619.354317 248.22953 
L 620.192454 247.441658 
L 621.030592 246.336857 
L 621.868729 244.885449 
L 622.826601 242.765655 
L 623.784472 240.073567 
L 624.862077 236.357201 
L 626.17915 230.944145 
L 628.214627 222.475042 
L 628.933031 220.413378 
L 629.411966 219.571574 
L 629.771168 219.263944 
L 630.13037 219.24581 
L 630.489572 219.513549 
L 630.968507 220.284197 
L 631.567177 221.808431 
L 632.405315 224.652881 
L 635.159195 234.500142 
L 636.117066 236.991895 
L 637.074938 238.872325 
L 637.913075 240.03175 
L 638.631479 240.683032 
L 639.230148 240.983957 
L 639.828818 241.05663 
L 640.427488 240.920151 
L 641.026157 240.573082 
L 641.744561 239.874767 
L 642.462964 238.858331 
L 643.301102 237.242112 
L 644.139239 235.117923 
L 645.097111 232.061515 
L 646.174716 227.817928 
L 647.611523 221.085756 
L 649.287798 213.398716 
L 650.006201 211.067224 
L 650.485137 210.059876 
L 650.844339 209.641281 
L 651.203541 209.521364 
L 651.562743 209.693274 
L 651.921944 210.136647 
L 652.40088 211.094056 
L 653.119284 213.105253 
L 656.232366 222.615117 
L 656.950769 223.905157 
L 657.549439 224.590676 
L 658.148108 225.001859 
L 658.627044 225.069751 
L 659.10598 224.889879 
L 659.584915 224.460779 
L 660.183585 223.604634 
L 660.782255 222.383439 
L 661.500658 220.364637 
L 662.338796 217.212077 
L 663.416401 212.147642 
L 664.134805 207.92423 
L 667.726822 184.364046 
L 668.56496 180.792278 
L 669.522831 177.93678 
L 670.360969 175.391886 
L 671.079372 172.71065 
L 671.558308 170.199559 
L 672.276711 165.006152 
L 672.875381 158.431813 
L 673.354317 150.718872 
L 673.833252 138.316707 
L 674.312188 117.652766 
L 674.910858 80.170198 
L 675.629261 19.8 
L 675.629261 19.8 
" clip-path="url(#pa230c75326)" style="fill: none; stroke: #1f77b4; stroke-width: 1.5; stroke-linecap: square"/>
   </g>
   <g id="line2d_13">
    <path d="M 36.465625 178.4779 
L 706.065625 178.4779 
" clip-path="url(#pa230c75326)" style="fill: none; stroke-dasharray: 2.22,0.96; stroke-dashoffset: 0; stroke: #ff0000; stroke-width: 0.6"/>
   </g>
   <g id="line2d_14">
    <path d="M 66.901989 250.909691 
L 67.141456 251.482277 
L 69.176933 257.69155 
L 70.134805 259.890876 
L 71.21241 261.787744 
L 75.522831 268.437989 
L 76.360969 269.236767 
L 77.079372 269.601716 
L 77.678042 269.649662 
L 78.276711 269.463416 
L 78.995115 268.988391 
L 80.431922 267.970856 
L 80.910858 267.895418 
L 81.389794 268.036937 
L 81.988463 268.497263 
L 82.946335 269.613464 
L 84.143674 270.928117 
L 84.862077 271.41358 
L 85.460747 271.597162 
L 86.059417 271.581308 
L 86.77782 271.331598 
L 87.975159 270.600308 
L 88.933031 270.126048 
L 89.651434 270.04566 
L 90.369838 270.221507 
L 92.644782 271.016312 
L 93.363186 270.922256 
L 94.201323 270.56424 
L 95.997332 269.688861 
L 96.596002 269.68187 
L 97.194672 269.904413 
L 98.032809 270.516942 
L 99.469616 271.605349 
L 100.068286 271.791285 
L 100.666955 271.732822 
L 101.265625 271.417361 
L 101.984029 270.725268 
L 102.9419 269.427601 
L 104.139239 267.839547 
L 104.737909 267.402124 
L 105.216845 267.326704 
L 105.69578 267.496081 
L 106.29445 267.969695 
L 107.850991 269.359665 
L 108.44966 269.549722 
L 108.928596 269.48848 
L 109.527266 269.143932 
L 110.125935 268.528839 
L 110.964073 267.308709 
L 112.640348 264.30373 
L 113.957421 262.187007 
L 115.873164 259.294678 
L 116.711301 257.467331 
L 117.669173 254.740283 
L 120.423053 246.278074 
L 121.021723 245.212298 
L 121.500658 244.726867 
L 121.85986 244.593135 
L 122.219062 244.660165 
L 122.578264 244.924515 
L 123.057199 245.567334 
L 123.655869 246.784177 
L 124.494006 249.072984 
L 127.607088 258.31396 
L 128.684694 260.519525 
L 130.839904 264.220875 
L 132.396445 266.635887 
L 133.354317 267.731619 
L 134.07272 268.250118 
L 134.67139 268.453665 
L 135.27006 268.449922 
L 135.988463 268.222716 
L 137.545004 267.6382 
L 138.143674 267.70893 
L 138.742343 268.028353 
L 139.580481 268.782655 
L 141.137022 270.230538 
L 141.855425 270.610302 
L 142.573829 270.738254 
L 143.292233 270.63358 
L 144.369838 270.200638 
L 145.567177 269.777119 
L 146.285581 269.754068 
L 147.123718 269.957593 
L 148.799993 270.44914 
L 149.638131 270.414919 
L 150.596002 270.100328 
L 152.272277 269.463036 
L 152.99068 269.475623 
L 153.709084 269.738261 
L 156.103762 270.888615 
L 156.702432 270.811534 
L 157.301102 270.509284 
L 158.019505 269.87734 
L 159.336578 268.310467 
L 160.174716 267.475119 
L 160.773386 267.169575 
L 161.252321 267.141754 
L 161.850991 267.343922 
L 163.886468 268.310638 
L 164.485137 268.201502 
L 165.083807 267.821381 
L 165.80221 267.03376 
L 166.760082 265.557521 
L 171.309971 257.502708 
L 172.148108 255.364622 
L 173.345448 251.579683 
L 175.021723 246.308929 
L 175.740126 244.749875 
L 176.219062 244.100071 
L 176.697998 243.803647 
L 177.057199 243.822002 
L 177.416401 244.044979 
L 177.895337 244.645184 
L 178.494006 245.828723 
L 179.332144 248.101724 
L 182.684694 258.023965 
L 183.882033 260.497314 
L 185.797776 263.902021 
L 186.995115 265.673995 
L 187.833252 266.585917 
L 188.551656 267.087217 
L 189.27006 267.316921 
L 189.988463 267.317379 
L 191.784472 267.165736 
L 192.502876 267.427968 
L 193.341013 268.026446 
L 195.256756 269.521775 
L 195.975159 269.79549 
L 196.693563 269.856261 
L 197.651434 269.680013 
L 199.327709 269.295629 
L 200.165847 269.350261 
L 203.039461 269.802642 
L 203.997332 269.553941 
L 205.673607 269.058822 
L 206.392011 269.080254 
L 207.230148 269.335961 
L 208.906423 269.938522 
L 209.624827 269.905231 
L 210.223496 269.666018 
L 210.9419 269.138828 
L 212.258973 267.795868 
L 213.216845 266.981069 
L 213.815514 266.726801 
L 214.414184 266.695958 
L 215.372055 266.938466 
L 216.329927 267.115175 
L 216.928596 267.000463 
L 217.527266 266.648139 
L 218.245669 265.908763 
L 219.083807 264.684235 
L 220.640348 261.898943 
L 223.394228 256.62682 
L 224.3521 254.100783 
L 225.669173 249.84257 
L 227.10598 245.378736 
L 227.824383 243.836591 
L 228.303319 243.210935 
L 228.782255 242.950114 
L 229.141456 243.002113 
L 229.500658 243.263456 
L 229.979594 243.919217 
L 230.578264 245.172212 
L 231.416401 247.524523 
L 234.529483 256.937864 
L 235.846556 259.834483 
L 237.403097 262.718452 
L 238.600437 264.510498 
L 239.438574 265.421352 
L 240.276711 265.995627 
L 241.114849 266.262637 
L 243.509527 266.747066 
L 244.467399 267.367643 
L 246.263408 268.619112 
L 247.101545 268.912406 
L 247.939683 268.968566 
L 249.496224 268.759028 
L 250.573829 268.741901 
L 251.890902 268.988459 
L 253.088241 269.149694 
L 254.046113 269.05304 
L 256.799993 268.533178 
L 257.757864 268.72046 
L 259.194672 269.017026 
L 259.913075 268.928468 
L 260.631479 268.602876 
L 261.469616 267.960188 
L 263.505093 266.278192 
L 264.223496 266.030511 
L 265.181368 265.985813 
L 266.258973 265.90175 
L 266.857643 265.647326 
L 267.456312 265.1785 
L 268.174716 264.329281 
L 269.132587 262.805583 
L 271.04833 259.179683 
L 272.604871 255.885931 
L 273.682476 252.986428 
L 275.119284 248.28392 
L 276.316623 244.572929 
L 277.035026 242.981921 
L 277.513962 242.32679 
L 277.992898 242.043845 
L 278.3521 242.085613 
L 278.711301 242.342589 
L 279.190237 243.001081 
L 279.788907 244.268162 
L 280.627044 246.649513 
L 283.740126 256.19525 
L 285.057199 259.199465 
L 286.374272 261.698169 
L 287.451878 263.324054 
L 288.290015 264.251526 
L 289.128153 264.867297 
L 290.086024 265.276288 
L 291.882033 265.966487 
L 293.079372 266.751263 
L 294.516179 267.659214 
L 295.474051 267.981503 
L 296.431922 268.057222 
L 299.066068 268.115923 
L 301.101545 268.365042 
L 302.17915 268.228361 
L 304.454095 267.843447 
L 305.771168 267.97841 
L 306.848774 268.021111 
L 307.567177 267.850196 
L 308.405315 267.396839 
L 309.602654 266.428109 
L 310.799993 265.531584 
L 311.638131 265.158562 
L 313.793341 264.408955 
L 314.511745 263.786574 
L 315.349882 262.697701 
L 316.427488 260.837787 
L 318.103762 257.42721 
L 319.420836 254.328438 
L 320.498441 251.213292 
L 323.372055 242.37647 
L 323.970725 241.420874 
L 324.44966 241.075525 
L 324.808862 241.076154 
L 325.168064 241.298579 
L 325.647 241.9226 
L 326.245669 243.165272 
L 327.083807 245.541957 
L 330.436357 255.870772 
L 331.75343 258.864716 
L 332.950769 261.066466 
L 333.908641 262.422831 
L 334.866512 263.388926 
L 335.824383 264.034579 
L 338.697998 265.743674 
L 340.134805 266.621842 
L 341.092676 266.958028 
L 342.290015 267.106299 
L 344.684694 267.337223 
L 346.241235 267.487431 
L 347.438574 267.356071 
L 349.713519 267.017982 
L 351.988463 266.894842 
L 352.826601 266.548924 
L 353.784472 265.89268 
L 355.939683 264.300846 
L 358.454095 262.810452 
L 359.172499 261.99216 
L 360.010636 260.705025 
L 361.207975 258.387549 
L 362.764516 254.8421 
L 363.961856 251.581874 
L 365.278929 247.291016 
L 366.83547 242.339307 
L 367.553873 240.781305 
L 368.032809 240.173684 
L 368.392011 239.975517 
L 368.751213 240.006207 
L 369.110414 240.263316 
L 369.58935 240.93798 
L 370.18802 242.244401 
L 371.026157 244.696135 
L 374.258973 254.846235 
L 375.456312 257.663409 
L 376.533918 259.71329 
L 377.491789 261.1273 
L 378.44966 262.169894 
L 379.647 263.114009 
L 383.239017 265.503861 
L 384.316623 265.879686 
L 385.873164 266.123696 
L 389.225714 266.446479 
L 390.782255 266.212261 
L 392.697998 265.973021 
L 394.015071 265.777188 
L 394.972942 265.386474 
L 396.050547 264.650131 
L 400.600437 260.924285 
L 401.438574 259.687225 
L 402.516179 257.62771 
L 403.833252 254.581752 
L 405.150326 250.981245 
L 406.467399 246.694302 
L 408.143674 241.244224 
L 408.862077 239.628448 
L 409.341013 238.98443 
L 409.700215 238.763267 
L 410.059417 238.776198 
L 410.418618 239.021548 
L 410.897554 239.690085 
L 411.496224 241.002607 
L 412.334361 243.480923 
L 415.686911 254.126981 
L 416.88425 256.918854 
L 417.961856 258.893888 
L 418.919727 260.236519 
L 419.997332 261.380425 
L 421.793341 262.899334 
L 423.349882 263.99211 
L 424.427488 264.497475 
L 425.744561 264.849527 
L 428.258973 265.249593 
L 429.576046 265.235928 
L 431.491789 264.920347 
L 433.886468 264.399204 
L 434.844339 263.911552 
L 436.041678 263.003006 
L 439.035026 260.310609 
L 439.992898 259.093023 
L 440.950769 257.455013 
L 442.028374 255.12332 
L 443.345448 251.697838 
L 444.662521 247.627187 
L 447.296667 239.090164 
L 447.895337 237.942355 
L 448.374272 237.453596 
L 448.733474 237.362323 
L 449.092676 237.511083 
L 449.451878 237.892632 
L 449.930813 238.733693 
L 450.649217 240.578006 
L 451.726822 244.12483 
L 453.762299 250.897761 
L 454.959638 254.122037 
L 456.037244 256.449558 
L 457.114849 258.258583 
L 458.192454 259.646038 
L 459.629261 261.105401 
L 461.066068 262.270831 
L 462.263408 262.953315 
L 463.580481 263.416101 
L 465.37649 263.793818 
L 466.693563 263.871771 
L 468.010636 263.717421 
L 470.285581 263.182102 
L 471.363186 262.74133 
L 472.321057 262.12505 
L 473.638131 260.97131 
L 475.434139 259.099182 
L 476.511745 257.663845 
L 477.469616 255.984786 
L 478.547221 253.579938 
L 479.744561 250.335241 
L 481.061634 246.125993 
L 483.576046 237.753386 
L 484.174716 236.498786 
L 484.653652 235.921418 
L 485.012853 235.7672 
L 485.372055 235.859325 
L 485.731257 236.192776 
L 486.210193 236.985392 
L 486.808862 238.44883 
L 487.766734 241.51486 
L 490.40088 250.352085 
L 491.598219 253.452346 
L 492.675825 255.651958 
L 493.75343 257.369806 
L 494.950769 258.870805 
L 496.267842 260.166902 
L 497.465182 261.024809 
L 498.662521 261.592038 
L 500.099328 262.010703 
L 501.416401 262.176279 
L 502.61374 262.100716 
L 504.170281 261.746747 
L 505.607088 261.205787 
L 506.684694 260.542099 
L 507.762299 259.592203 
L 509.079372 258.126061 
L 510.276711 256.509861 
L 511.234583 254.880517 
L 512.192454 252.832045 
L 513.27006 250.003862 
L 514.587133 245.869854 
L 517.819949 235.21272 
L 518.418618 234.240952 
L 518.77782 233.965625 
L 519.137022 233.9367 
L 519.496224 234.153981 
L 519.975159 234.808244 
L 520.573829 236.154545 
L 521.411966 238.757971 
L 524.644782 249.61519 
L 525.842122 252.53531 
L 526.919727 254.635815 
L 527.997332 256.298537 
L 529.194672 257.736122 
L 530.272277 258.697911 
L 531.349882 259.369289 
L 532.547221 259.832154 
L 533.744561 260.055608 
L 534.9419 260.044015 
L 536.139239 259.803418 
L 537.456312 259.307316 
L 538.533918 258.656285 
L 539.491789 257.826871 
L 540.569394 256.605324 
L 541.766734 254.908695 
L 542.844339 252.98992 
L 543.80221 250.844808 
L 544.879816 247.871504 
L 546.196889 243.510899 
L 549.190237 233.18124 
L 549.788907 232.057135 
L 550.267842 231.632684 
L 550.627044 231.614877 
L 550.986246 231.855468 
L 551.465182 232.556206 
L 552.063851 233.959719 
L 552.901989 236.622461 
L 556.134805 247.672276 
L 557.21241 250.372536 
L 558.290015 252.520751 
L 559.367621 254.20091 
L 560.445226 255.477845 
L 561.522831 256.3984 
L 562.600437 257.014115 
L 563.678042 257.364459 
L 564.635913 257.456505 
L 565.593785 257.341442 
L 566.67139 256.980677 
L 567.748995 256.371132 
L 568.706867 255.577717 
L 569.664738 254.505205 
L 570.742343 252.94803 
L 571.819949 250.985673 
L 572.897554 248.510877 
L 573.975159 245.424302 
L 575.172499 241.301953 
L 578.165847 230.495106 
L 578.764516 229.265887 
L 579.243452 228.765849 
L 579.602654 228.700112 
L 579.961856 228.902365 
L 580.321057 229.361773 
L 580.799993 230.335046 
L 581.518397 232.408599 
L 582.715736 236.741943 
L 584.511745 243.124529 
L 585.709084 246.537766 
L 586.786689 248.958457 
L 587.864295 250.82303 
L 588.822166 252.066854 
L 589.780037 252.967583 
L 590.737909 253.565276 
L 591.69578 253.883301 
L 592.533918 253.93679 
L 593.372055 253.783559 
L 594.329927 253.361073 
L 595.287798 252.664109 
L 596.245669 251.654969 
L 597.203541 250.293817 
L 598.161412 248.552437 
L 599.239017 246.083409 
L 600.316623 242.985501 
L 601.513962 238.77838 
L 604.866512 226.292658 
L 605.465182 225.199836 
L 605.824383 224.891123 
L 606.183585 224.859761 
L 606.542787 225.104873 
L 607.021723 225.83647 
L 607.620392 227.308059 
L 608.45853 230.092843 
L 611.571612 241.132134 
L 612.649217 243.897118 
L 613.607088 245.7978 
L 614.56496 247.214006 
L 615.403097 248.09239 
L 616.241235 248.654418 
L 617.079372 248.922699 
L 617.797776 248.927114 
L 618.516179 248.725479 
L 619.354317 248.22953 
L 620.192454 247.441658 
L 621.030592 246.336857 
L 621.868729 244.885449 
L 622.826601 242.765655 
L 623.784472 240.073567 
L 624.862077 236.357201 
L 626.17915 230.944145 
L 628.214627 222.475042 
L 628.933031 220.413378 
L 629.411966 219.571574 
L 629.771168 219.263944 
L 630.13037 219.24581 
L 630.489572 219.513549 
L 630.968507 220.284197 
L 631.567177 221.808431 
L 632.405315 224.652881 
L 635.159195 234.500142 
L 636.117066 236.991895 
L 637.074938 238.872325 
L 637.913075 240.03175 
L 638.631479 240.683032 
L 639.230148 240.983957 
L 639.828818 241.05663 
L 640.427488 240.920151 
L 641.026157 240.573082 
L 641.744561 239.874767 
L 642.462964 238.858331 
L 643.301102 237.242112 
L 644.139239 235.117923 
L 645.097111 232.061515 
L 646.174716 227.817928 
L 647.611523 221.085756 
L 649.287798 213.398716 
L 650.006201 211.067224 
L 650.485137 210.059876 
L 650.844339 209.641281 
L 651.203541 209.521364 
L 651.562743 209.693274 
L 651.921944 210.136647 
L 652.40088 211.094056 
L 653.119284 213.105253 
L 656.232366 222.615117 
L 656.950769 223.905157 
L 657.549439 224.590676 
L 658.148108 225.001859 
L 658.627044 225.069751 
L 659.10598 224.889879 
L 659.584915 224.460779 
L 660.183585 223.604634 
L 660.782255 222.383439 
L 661.500658 220.364637 
L 662.338796 217.212077 
L 663.416401 212.147642 
L 664.134805 207.92423 
L 667.726822 184.364046 
L 668.56496 180.792278 
L 669.163629 178.648437 
L 669.163629 178.648437 
" clip-path="url(#pa230c75326)" style="fill: none; stroke: #ff7f0e; stroke-width: 1.5; stroke-linecap: square"/>
   </g>
   <g id="patch_3">
    <path d="M 36.465625 284.4 
L 36.465625 7.2 
" style="fill: none; stroke: #000000; stroke-width: 0.8; stroke-linejoin: miter; stroke-linecap: square"/>
   </g>
   <g id="patch_4">
    <path d="M 706.065625 284.4 
L 706.065625 7.2 
" style="fill: none; stroke: #000000; stroke-width: 0.8; stroke-linejoin: miter; stroke-linecap: square"/>
   </g>
   <g id="patch_5">
    <path d="M 36.465625 284.4 
L 706.065625 284.4 
" style="fill: none; stroke: #000000; stroke-width: 0.8; stroke-linejoin: miter; stroke-linecap: square"/>
   </g>
   <g id="patch_6">
    <path d="M 36.465625 7.2 
L 706.065625 7.2 
" style="fill: none; stroke: #000000; stroke-width: 0.8; stroke-linejoin: miter; stroke-linecap: square"/>
   </g>
   <g id="legend_1">
    <g id="patch_7">
     <path d="M 43.465625 73.9125 
L 206.465625 73.9125 
Q 208.465625 73.9125 208.465625 71.9125 
L 208.465625 14.2 
Q 208.465625 12.2 206.465625 12.2 
L 43.465625 12.2 
Q 41.465625 12.2 41.465625 14.2 
L 41.465625 71.9125 
Q 41.465625 73.9125 43.465625 73.9125 
z
" style="fill: #ffffff; opacity: 0.8; stroke: #cccccc; stroke-linejoin: miter"/>
    </g>
    <g id="line2d_15">
     <path d="M 45.465625 20.298438 
L 55.465625 20.298438 
L 65.465625 20.298438 
" style="fill: none; stroke: #1f77b4; stroke-width: 1.5; stroke-linecap: square"/>
    </g>
    <g id="text_12">
     <!-- Mf before ISCO cut: $e$=0.3 -->
     <g transform="translate(73.465625 23.798438) scale(0.1 -0.1)">
      <defs>
       <path id="DejaVuSans-4d" d="M 628 4666 
L 1569 4666 
L 2759 1491 
L 3956 4666 
L 4897 4666 
L 4897 0 
L 4281 0 
L 4281 4097 
L 3078 897 
L 2444 897 
L 1241 4097 
L 1241 0 
L 628 0 
L 628 4666 
z
" transform="scale(0.015625)"/>
       <path id="DejaVuSans-66" d="M 2375 4863 
L 2375 4384 
L 1825 4384 
Q 1516 4384 1395 4259 
Q 1275 4134 1275 3809 
L 1275 3500 
L 2222 3500 
L 2222 3053 
L 1275 3053 
L 1275 0 
L 697 0 
L 697 3053 
L 147 3053 
L 147 3500 
L 697 3500 
L 697 3744 
Q 697 4328 969 4595 
Q 1241 4863 1831 4863 
L 2375 4863 
z
" transform="scale(0.015625)"/>
       <path id="DejaVuSans-20" transform="scale(0.015625)"/>
       <path id="DejaVuSans-62" d="M 3116 1747 
Q 3116 2381 2855 2742 
Q 2594 3103 2138 3103 
Q 1681 3103 1420 2742 
Q 1159 2381 1159 1747 
Q 1159 1113 1420 752 
Q 1681 391 2138 391 
Q 2594 391 2855 752 
Q 3116 1113 3116 1747 
z
M 1159 2969 
Q 1341 3281 1617 3432 
Q 1894 3584 2278 3584 
Q 2916 3584 3314 3078 
Q 3713 2572 3713 1747 
Q 3713 922 3314 415 
Q 2916 -91 2278 -91 
Q 1894 -91 1617 61 
Q 1341 213 1159 525 
L 1159 0 
L 581 0 
L 581 4863 
L 1159 4863 
L 1159 2969 
z
" transform="scale(0.015625)"/>
       <path id="DejaVuSans-65" d="M 3597 1894 
L 3597 1613 
L 953 1613 
Q 991 1019 1311 708 
Q 1631 397 2203 397 
Q 2534 397 2845 478 
Q 3156 559 3463 722 
L 3463 178 
Q 3153 47 2828 -22 
Q 2503 -91 2169 -91 
Q 1331 -91 842 396 
Q 353 884 353 1716 
Q 353 2575 817 3079 
Q 1281 3584 2069 3584 
Q 2775 3584 3186 3129 
Q 3597 2675 3597 1894 
z
M 3022 2063 
Q 3016 2534 2758 2815 
Q 2500 3097 2075 3097 
Q 1594 3097 1305 2825 
Q 1016 2553 972 2059 
L 3022 2063 
z
" transform="scale(0.015625)"/>
       <path id="DejaVuSans-6f" d="M 1959 3097 
Q 1497 3097 1228 2736 
Q 959 2375 959 1747 
Q 959 1119 1226 758 
Q 1494 397 1959 397 
Q 2419 397 2687 759 
Q 2956 1122 2956 1747 
Q 2956 2369 2687 2733 
Q 2419 3097 1959 3097 
z
M 1959 3584 
Q 2709 3584 3137 3096 
Q 3566 2609 3566 1747 
Q 3566 888 3137 398 
Q 2709 -91 1959 -91 
Q 1206 -91 779 398 
Q 353 888 353 1747 
Q 353 2609 779 3096 
Q 1206 3584 1959 3584 
z
" transform="scale(0.015625)"/>
       <path id="DejaVuSans-72" d="M 2631 2963 
Q 2534 3019 2420 3045 
Q 2306 3072 2169 3072 
Q 1681 3072 1420 2755 
Q 1159 2438 1159 1844 
L 1159 0 
L 581 0 
L 581 3500 
L 1159 3500 
L 1159 2956 
Q 1341 3275 1631 3429 
Q 1922 3584 2338 3584 
Q 2397 3584 2469 3576 
Q 2541 3569 2628 3553 
L 2631 2963 
z
" transform="scale(0.015625)"/>
       <path id="DejaVuSans-49" d="M 628 4666 
L 1259 4666 
L 1259 0 
L 628 0 
L 628 4666 
z
" transform="scale(0.015625)"/>
       <path id="DejaVuSans-53" d="M 3425 4513 
L 3425 3897 
Q 3066 4069 2747 4153 
Q 2428 4238 2131 4238 
Q 1616 4238 1336 4038 
Q 1056 3838 1056 3469 
Q 1056 3159 1242 3001 
Q 1428 2844 1947 2747 
L 2328 2669 
Q 3034 2534 3370 2195 
Q 3706 1856 3706 1288 
Q 3706 609 3251 259 
Q 2797 -91 1919 -91 
Q 1588 -91 1214 -16 
Q 841 59 441 206 
L 441 856 
Q 825 641 1194 531 
Q 1563 422 1919 422 
Q 2459 422 2753 634 
Q 3047 847 3047 1241 
Q 3047 1584 2836 1778 
Q 2625 1972 2144 2069 
L 1759 2144 
Q 1053 2284 737 2584 
Q 422 2884 422 3419 
Q 422 4038 858 4394 
Q 1294 4750 2059 4750 
Q 2388 4750 2728 4690 
Q 3069 4631 3425 4513 
z
" transform="scale(0.015625)"/>
       <path id="DejaVuSans-43" d="M 4122 4306 
L 4122 3641 
Q 3803 3938 3442 4084 
Q 3081 4231 2675 4231 
Q 1875 4231 1450 3742 
Q 1025 3253 1025 2328 
Q 1025 1406 1450 917 
Q 1875 428 2675 428 
Q 3081 428 3442 575 
Q 3803 722 4122 1019 
L 4122 359 
Q 3791 134 3420 21 
Q 3050 -91 2638 -91 
Q 1578 -91 968 557 
Q 359 1206 359 2328 
Q 359 3453 968 4101 
Q 1578 4750 2638 4750 
Q 3056 4750 3426 4639 
Q 3797 4528 4122 4306 
z
" transform="scale(0.015625)"/>
       <path id="DejaVuSans-4f" d="M 2522 4238 
Q 1834 4238 1429 3725 
Q 1025 3213 1025 2328 
Q 1025 1447 1429 934 
Q 1834 422 2522 422 
Q 3209 422 3611 934 
Q 4013 1447 4013 2328 
Q 4013 3213 3611 3725 
Q 3209 4238 2522 4238 
z
M 2522 4750 
Q 3503 4750 4090 4092 
Q 4678 3434 4678 2328 
Q 4678 1225 4090 567 
Q 3503 -91 2522 -91 
Q 1538 -91 948 565 
Q 359 1222 359 2328 
Q 359 3434 948 4092 
Q 1538 4750 2522 4750 
z
" transform="scale(0.015625)"/>
       <path id="DejaVuSans-63" d="M 3122 3366 
L 3122 2828 
Q 2878 2963 2633 3030 
Q 2388 3097 2138 3097 
Q 1578 3097 1268 2742 
Q 959 2388 959 1747 
Q 959 1106 1268 751 
Q 1578 397 2138 397 
Q 2388 397 2633 464 
Q 2878 531 3122 666 
L 3122 134 
Q 2881 22 2623 -34 
Q 2366 -91 2075 -91 
Q 1284 -91 818 406 
Q 353 903 353 1747 
Q 353 2603 823 3093 
Q 1294 3584 2113 3584 
Q 2378 3584 2631 3529 
Q 2884 3475 3122 3366 
z
" transform="scale(0.015625)"/>
       <path id="DejaVuSans-75" d="M 544 1381 
L 544 3500 
L 1119 3500 
L 1119 1403 
Q 1119 906 1312 657 
Q 1506 409 1894 409 
Q 2359 409 2629 706 
Q 2900 1003 2900 1516 
L 2900 3500 
L 3475 3500 
L 3475 0 
L 2900 0 
L 2900 538 
Q 2691 219 2414 64 
Q 2138 -91 1772 -91 
Q 1169 -91 856 284 
Q 544 659 544 1381 
z
M 1991 3584 
L 1991 3584 
z
" transform="scale(0.015625)"/>
       <path id="DejaVuSans-74" d="M 1172 4494 
L 1172 3500 
L 2356 3500 
L 2356 3053 
L 1172 3053 
L 1172 1153 
Q 1172 725 1289 603 
Q 1406 481 1766 481 
L 2356 481 
L 2356 0 
L 1766 0 
Q 1100 0 847 248 
Q 594 497 594 1153 
L 594 3053 
L 172 3053 
L 172 3500 
L 594 3500 
L 594 4494 
L 1172 4494 
z
" transform="scale(0.015625)"/>
       <path id="DejaVuSans-3a" d="M 750 794 
L 1409 794 
L 1409 0 
L 750 0 
L 750 794 
z
M 750 3309 
L 1409 3309 
L 1409 2516 
L 750 2516 
L 750 3309 
z
" transform="scale(0.015625)"/>
       <path id="DejaVuSans-Oblique-65" d="M 3078 2063 
Q 3088 2113 3092 2166 
Q 3097 2219 3097 2272 
Q 3097 2653 2873 2875 
Q 2650 3097 2266 3097 
Q 1838 3097 1509 2826 
Q 1181 2556 1013 2059 
L 3078 2063 
z
M 3578 1613 
L 903 1613 
Q 884 1494 878 1425 
Q 872 1356 872 1306 
Q 872 872 1139 634 
Q 1406 397 1894 397 
Q 2269 397 2603 481 
Q 2938 566 3225 728 
L 3116 159 
Q 2806 34 2476 -28 
Q 2147 -91 1806 -91 
Q 1078 -91 686 257 
Q 294 606 294 1247 
Q 294 1794 489 2264 
Q 684 2734 1063 3103 
Q 1306 3334 1642 3459 
Q 1978 3584 2356 3584 
Q 2950 3584 3301 3228 
Q 3653 2872 3653 2272 
Q 3653 2128 3634 1964 
Q 3616 1800 3578 1613 
z
" transform="scale(0.015625)"/>
       <path id="DejaVuSans-3d" d="M 678 2906 
L 4684 2906 
L 4684 2381 
L 678 2381 
L 678 2906 
z
M 678 1631 
L 4684 1631 
L 4684 1100 
L 678 1100 
L 678 1631 
z
" transform="scale(0.015625)"/>
      </defs>
      <use xlink:href="#DejaVuSans-4d" transform="translate(0 0.015625)"/>
      <use xlink:href="#DejaVuSans-66" transform="translate(86.279297 0.015625)"/>
      <use xlink:href="#DejaVuSans-20" transform="translate(121.484375 0.015625)"/>
      <use xlink:href="#DejaVuSans-62" transform="translate(153.271484 0.015625)"/>
      <use xlink:href="#DejaVuSans-65" transform="translate(216.748047 0.015625)"/>
      <use xlink:href="#DejaVuSans-66" transform="translate(278.271484 0.015625)"/>
      <use xlink:href="#DejaVuSans-6f" transform="translate(313.476562 0.015625)"/>
      <use xlink:href="#DejaVuSans-72" transform="translate(374.658203 0.015625)"/>
      <use xlink:href="#DejaVuSans-65" transform="translate(415.771484 0.015625)"/>
      <use xlink:href="#DejaVuSans-20" transform="translate(477.294922 0.015625)"/>
      <use xlink:href="#DejaVuSans-49" transform="translate(509.082031 0.015625)"/>
      <use xlink:href="#DejaVuSans-53" transform="translate(538.574219 0.015625)"/>
      <use xlink:href="#DejaVuSans-43" transform="translate(602.050781 0.015625)"/>
      <use xlink:href="#DejaVuSans-4f" transform="translate(671.875 0.015625)"/>
      <use xlink:href="#DejaVuSans-20" transform="translate(750.585938 0.015625)"/>
      <use xlink:href="#DejaVuSans-63" transform="translate(782.373047 0.015625)"/>
      <use xlink:href="#DejaVuSans-75" transform="translate(837.353516 0.015625)"/>
      <use xlink:href="#DejaVuSans-74" transform="translate(900.732422 0.015625)"/>
      <use xlink:href="#DejaVuSans-3a" transform="translate(939.941406 0.015625)"/>
      <use xlink:href="#DejaVuSans-20" transform="translate(973.632812 0.015625)"/>
      <use xlink:href="#DejaVuSans-Oblique-65" transform="translate(1005.419922 0.015625)"/>
      <use xlink:href="#DejaVuSans-3d" transform="translate(1066.943359 0.015625)"/>
      <use xlink:href="#DejaVuSans-30" transform="translate(1150.732422 0.015625)"/>
      <use xlink:href="#DejaVuSans-2e" transform="translate(1214.355469 0.015625)"/>
      <use xlink:href="#DejaVuSans-33" transform="translate(1246.142578 0.015625)"/>
     </g>
    </g>
    <g id="line2d_16">
     <path d="M 45.465625 34.976563 
L 55.465625 34.976563 
L 65.465625 34.976563 
" style="fill: none; stroke-dasharray: 2.22,0.96; stroke-dashoffset: 0; stroke: #ff0000; stroke-width: 0.6"/>
    </g>
    <g id="text_13">
     <!-- Mf ISCO $e$=0 -->
     <g transform="translate(73.465625 38.476563) scale(0.1 -0.1)">
      <use xlink:href="#DejaVuSans-4d" transform="translate(0 0.015625)"/>
      <use xlink:href="#DejaVuSans-66" transform="translate(86.279297 0.015625)"/>
      <use xlink:href="#DejaVuSans-20" transform="translate(121.484375 0.015625)"/>
      <use xlink:href="#DejaVuSans-49" transform="translate(153.271484 0.015625)"/>
      <use xlink:href="#DejaVuSans-53" transform="translate(182.763672 0.015625)"/>
      <use xlink:href="#DejaVuSans-43" transform="translate(246.240234 0.015625)"/>
      <use xlink:href="#DejaVuSans-4f" transform="translate(316.064453 0.015625)"/>
      <use xlink:href="#DejaVuSans-20" transform="translate(394.775391 0.015625)"/>
      <use xlink:href="#DejaVuSans-Oblique-65" transform="translate(426.5625 0.015625)"/>
      <use xlink:href="#DejaVuSans-3d" transform="translate(488.085938 0.015625)"/>
      <use xlink:href="#DejaVuSans-30" transform="translate(571.875 0.015625)"/>
     </g>
    </g>
    <g id="PathCollection_2">
     <g>
      <use xlink:href="#m4aad7ff124" x="55.465625" y="50.529688" style="fill: #ff0000; stroke: #ff0000"/>
     </g>
    </g>
    <g id="text_14">
     <!-- ISCO cut -->
     <g transform="translate(73.465625 53.154688) scale(0.1 -0.1)">
      <use xlink:href="#DejaVuSans-49"/>
      <use xlink:href="#DejaVuSans-53" transform="translate(29.492188 0)"/>
      <use xlink:href="#DejaVuSans-43" transform="translate(92.96875 0)"/>
      <use xlink:href="#DejaVuSans-4f" transform="translate(162.792969 0)"/>
      <use xlink:href="#DejaVuSans-20" transform="translate(241.503906 0)"/>
      <use xlink:href="#DejaVuSans-63" transform="translate(273.291016 0)"/>
      <use xlink:href="#DejaVuSans-75" transform="translate(328.271484 0)"/>
      <use xlink:href="#DejaVuSans-74" transform="translate(391.650391 0)"/>
     </g>
    </g>
    <g id="line2d_17">
     <path d="M 45.465625 64.332813 
L 55.465625 64.332813 
L 65.465625 64.332813 
" style="fill: none; stroke: #ff7f0e; stroke-width: 1.5; stroke-linecap: square"/>
    </g>
    <g id="text_15">
     <!-- Mf after ISCO cut: $e$=0.3  -->
     <g transform="translate(73.465625 67.832813) scale(0.1 -0.1)">
      <defs>
       <path id="DejaVuSans-61" d="M 2194 1759 
Q 1497 1759 1228 1600 
Q 959 1441 959 1056 
Q 959 750 1161 570 
Q 1363 391 1709 391 
Q 2188 391 2477 730 
Q 2766 1069 2766 1631 
L 2766 1759 
L 2194 1759 
z
M 3341 1997 
L 3341 0 
L 2766 0 
L 2766 531 
Q 2569 213 2275 61 
Q 1981 -91 1556 -91 
Q 1019 -91 701 211 
Q 384 513 384 1019 
Q 384 1609 779 1909 
Q 1175 2209 1959 2209 
L 2766 2209 
L 2766 2266 
Q 2766 2663 2505 2880 
Q 2244 3097 1772 3097 
Q 1472 3097 1187 3025 
Q 903 2953 641 2809 
L 641 3341 
Q 956 3463 1253 3523 
Q 1550 3584 1831 3584 
Q 2591 3584 2966 3190 
Q 3341 2797 3341 1997 
z
" transform="scale(0.015625)"/>
      </defs>
      <use xlink:href="#DejaVuSans-4d" transform="translate(0 0.015625)"/>
      <use xlink:href="#DejaVuSans-66" transform="translate(86.279297 0.015625)"/>
      <use xlink:href="#DejaVuSans-20" transform="translate(121.484375 0.015625)"/>
      <use xlink:href="#DejaVuSans-61" transform="translate(153.271484 0.015625)"/>
      <use xlink:href="#DejaVuSans-66" transform="translate(214.550781 0.015625)"/>
      <use xlink:href="#DejaVuSans-74" transform="translate(249.755859 0.015625)"/>
      <use xlink:href="#DejaVuSans-65" transform="translate(288.964844 0.015625)"/>
      <use xlink:href="#DejaVuSans-72" transform="translate(350.488281 0.015625)"/>
      <use xlink:href="#DejaVuSans-20" transform="translate(391.601562 0.015625)"/>
      <use xlink:href="#DejaVuSans-49" transform="translate(423.388672 0.015625)"/>
      <use xlink:href="#DejaVuSans-53" transform="translate(452.880859 0.015625)"/>
      <use xlink:href="#DejaVuSans-43" transform="translate(516.357422 0.015625)"/>
      <use xlink:href="#DejaVuSans-4f" transform="translate(586.181641 0.015625)"/>
      <use xlink:href="#DejaVuSans-20" transform="translate(664.892578 0.015625)"/>
      <use xlink:href="#DejaVuSans-63" transform="translate(696.679688 0.015625)"/>
      <use xlink:href="#DejaVuSans-75" transform="translate(751.660156 0.015625)"/>
      <use xlink:href="#DejaVuSans-74" transform="translate(815.039062 0.015625)"/>
      <use xlink:href="#DejaVuSans-3a" transform="translate(854.248047 0.015625)"/>
      <use xlink:href="#DejaVuSans-20" transform="translate(887.939453 0.015625)"/>
      <use xlink:href="#DejaVuSans-Oblique-65" transform="translate(919.726562 0.015625)"/>
      <use xlink:href="#DejaVuSans-3d" transform="translate(981.25 0.015625)"/>
      <use xlink:href="#DejaVuSans-30" transform="translate(1065.039062 0.015625)"/>
      <use xlink:href="#DejaVuSans-2e" transform="translate(1128.662109 0.015625)"/>
      <use xlink:href="#DejaVuSans-33" transform="translate(1160.449219 0.015625)"/>
      <use xlink:href="#DejaVuSans-20" transform="translate(1224.072266 0.015625)"/>
     </g>
    </g>
   </g>
  </g>
 </g>
 <defs>
  <clipPath id="pa230c75326">
   <rect x="36.465625" y="7.2" width="669.6" height="277.2"/>
  </clipPath>
 </defs>
</svg>
