<?xml version="1.0" encoding="utf-8" standalone="no"?>
<!DOCTYPE svg PUBLIC "-//W3C//DTD SVG 1.1//EN"
  "http://www.w3.org/Graphics/SVG/1.1/DTD/svg11.dtd">
<svg xmlns:xlink="http://www.w3.org/1999/xlink" width="713.265625pt" height="308.278125pt" viewBox="0 0 713.265625 308.278125" xmlns="http://www.w3.org/2000/svg" version="1.1">
 <metadata>
  <rdf:RDF xmlns:dc="http://purl.org/dc/elements/1.1/" xmlns:cc="http://creativecommons.org/ns#" xmlns:rdf="http://www.w3.org/1999/02/22-rdf-syntax-ns#">
   <cc:Work>
    <dc:type rdf:resource="http://purl.org/dc/dcmitype/StillImage"/>
    <dc:date>2025-09-02T15:19:47.954927</dc:date>
    <dc:format>image/svg+xml</dc:format>
    <dc:creator>
     <cc:Agent>
      <dc:title>Matplotlib v3.10.5, https://matplotlib.org/</dc:title>
     </cc:Agent>
    </dc:creator>
   </cc:Work>
  </rdf:RDF>
 </metadata>
 <defs>
  <style type="text/css">*{stroke-linejoin: round; stroke-linecap: butt}</style>
 </defs>
 <g id="figure_1">
  <g id="patch_1">
   <path d="M 0 308.278125 
L 713.265625 308.278125 
L 713.265625 0 
L 0 0 
z
" style="fill: #ffffff"/>
  </g>
  <g id="axes_1">
   <g id="patch_2">
    <path d="M 36.465625 284.4 
L 706.065625 284.4 
L 706.065625 7.2 
L 36.465625 7.2 
z
" style="fill: #ffffff"/>
   </g>
   <g id="PathCollection_1">
    <defs>
     <path id="m3f90ea09f9" d="M 0 1.224745 
C 0.324806 1.224745 0.636353 1.095698 0.866025 0.866025 
C 1.095698 0.636353 1.224745 0.324806 1.224745 0 
C 1.224745 -0.324806 1.095698 -0.636353 0.866025 -0.866025 
C 0.636353 -1.095698 0.324806 -1.224745 0 -1.224745 
C -0.324806 -1.224745 -0.636353 -1.095698 -0.866025 -0.866025 
C -1.095698 -0.636353 -1.224745 -0.324806 -1.224745 0 
C -1.224745 0.324806 -1.095698 0.636353 -0.866025 0.866025 
C -0.636353 1.095698 -0.324806 1.224745 0 1.224745 
z
" style="stroke: #ff0000"/>
    </defs>
    <g clip-path="url(#pccb4f7cb73)">
     <use xlink:href="#m3f90ea09f9" x="668.142015" y="179.610459" style="fill: #ff0000; stroke: #ff0000"/>
    </g>
   </g>
   <g id="matplotlib.axis_1">
    <g id="xtick_1">
     <g id="line2d_1">
      <defs>
       <path id="m10ab3957bf" d="M 0 0 
L 0 3.5 
" style="stroke: #000000; stroke-width: 0.8"/>
      </defs>
      <g>
       <use xlink:href="#m10ab3957bf" x="77.18733" y="284.4" style="stroke: #000000; stroke-width: 0.8"/>
      </g>
     </g>
     <g id="text_1">
      <!-- −7000 -->
      <g transform="translate(60.272486 298.998438) scale(0.1 -0.1)">
       <defs>
        <path id="DejaVuSans-2212" d="M 678 2272 
L 4684 2272 
L 4684 1741 
L 678 1741 
L 678 2272 
z
" transform="scale(0.015625)"/>
        <path id="DejaVuSans-37" d="M 525 4666 
L 3525 4666 
L 3525 4397 
L 1831 0 
L 1172 0 
L 2766 4134 
L 525 4134 
L 525 4666 
z
" transform="scale(0.015625)"/>
        <path id="DejaVuSans-30" d="M 2034 4250 
Q 1547 4250 1301 3770 
Q 1056 3291 1056 2328 
Q 1056 1369 1301 889 
Q 1547 409 2034 409 
Q 2525 409 2770 889 
Q 3016 1369 3016 2328 
Q 3016 3291 2770 3770 
Q 2525 4250 2034 4250 
z
M 2034 4750 
Q 2819 4750 3233 4129 
Q 3647 3509 3647 2328 
Q 3647 1150 3233 529 
Q 2819 -91 2034 -91 
Q 1250 -91 836 529 
Q 422 1150 422 2328 
Q 422 3509 836 4129 
Q 1250 4750 2034 4750 
z
" transform="scale(0.015625)"/>
       </defs>
       <use xlink:href="#DejaVuSans-2212"/>
       <use xlink:href="#DejaVuSans-37" transform="translate(83.789062 0)"/>
       <use xlink:href="#DejaVuSans-30" transform="translate(147.412109 0)"/>
       <use xlink:href="#DejaVuSans-30" transform="translate(211.035156 0)"/>
       <use xlink:href="#DejaVuSans-30" transform="translate(274.658203 0)"/>
      </g>
     </g>
    </g>
    <g id="xtick_2">
     <g id="line2d_2">
      <g>
       <use xlink:href="#m10ab3957bf" x="162.679034" y="284.4" style="stroke: #000000; stroke-width: 0.8"/>
      </g>
     </g>
     <g id="text_2">
      <!-- −6000 -->
      <g transform="translate(145.764191 298.998438) scale(0.1 -0.1)">
       <defs>
        <path id="DejaVuSans-36" d="M 2113 2584 
Q 1688 2584 1439 2293 
Q 1191 2003 1191 1497 
Q 1191 994 1439 701 
Q 1688 409 2113 409 
Q 2538 409 2786 701 
Q 3034 994 3034 1497 
Q 3034 2003 2786 2293 
Q 2538 2584 2113 2584 
z
M 3366 4563 
L 3366 3988 
Q 3128 4100 2886 4159 
Q 2644 4219 2406 4219 
Q 1781 4219 1451 3797 
Q 1122 3375 1075 2522 
Q 1259 2794 1537 2939 
Q 1816 3084 2150 3084 
Q 2853 3084 3261 2657 
Q 3669 2231 3669 1497 
Q 3669 778 3244 343 
Q 2819 -91 2113 -91 
Q 1303 -91 875 529 
Q 447 1150 447 2328 
Q 447 3434 972 4092 
Q 1497 4750 2381 4750 
Q 2619 4750 2861 4703 
Q 3103 4656 3366 4563 
z
" transform="scale(0.015625)"/>
       </defs>
       <use xlink:href="#DejaVuSans-2212"/>
       <use xlink:href="#DejaVuSans-36" transform="translate(83.789062 0)"/>
       <use xlink:href="#DejaVuSans-30" transform="translate(147.412109 0)"/>
       <use xlink:href="#DejaVuSans-30" transform="translate(211.035156 0)"/>
       <use xlink:href="#DejaVuSans-30" transform="translate(274.658203 0)"/>
      </g>
     </g>
    </g>
    <g id="xtick_3">
     <g id="line2d_3">
      <g>
       <use xlink:href="#m10ab3957bf" x="248.170739" y="284.4" style="stroke: #000000; stroke-width: 0.8"/>
      </g>
     </g>
     <g id="text_3">
      <!-- −5000 -->
      <g transform="translate(231.255895 298.998438) scale(0.1 -0.1)">
       <defs>
        <path id="DejaVuSans-35" d="M 691 4666 
L 3169 4666 
L 3169 4134 
L 1269 4134 
L 1269 2991 
Q 1406 3038 1543 3061 
Q 1681 3084 1819 3084 
Q 2600 3084 3056 2656 
Q 3513 2228 3513 1497 
Q 3513 744 3044 326 
Q 2575 -91 1722 -91 
Q 1428 -91 1123 -41 
Q 819 9 494 109 
L 494 744 
Q 775 591 1075 516 
Q 1375 441 1709 441 
Q 2250 441 2565 725 
Q 2881 1009 2881 1497 
Q 2881 1984 2565 2268 
Q 2250 2553 1709 2553 
Q 1456 2553 1204 2497 
Q 953 2441 691 2322 
L 691 4666 
z
" transform="scale(0.015625)"/>
       </defs>
       <use xlink:href="#DejaVuSans-2212"/>
       <use xlink:href="#DejaVuSans-35" transform="translate(83.789062 0)"/>
       <use xlink:href="#DejaVuSans-30" transform="translate(147.412109 0)"/>
       <use xlink:href="#DejaVuSans-30" transform="translate(211.035156 0)"/>
       <use xlink:href="#DejaVuSans-30" transform="translate(274.658203 0)"/>
      </g>
     </g>
    </g>
    <g id="xtick_4">
     <g id="line2d_4">
      <g>
       <use xlink:href="#m10ab3957bf" x="333.662443" y="284.4" style="stroke: #000000; stroke-width: 0.8"/>
      </g>
     </g>
     <g id="text_4">
      <!-- −4000 -->
      <g transform="translate(316.7476 298.998438) scale(0.1 -0.1)">
       <defs>
        <path id="DejaVuSans-34" d="M 2419 4116 
L 825 1625 
L 2419 1625 
L 2419 4116 
z
M 2253 4666 
L 3047 4666 
L 3047 1625 
L 3713 1625 
L 3713 1100 
L 3047 1100 
L 3047 0 
L 2419 0 
L 2419 1100 
L 313 1100 
L 313 1709 
L 2253 4666 
z
" transform="scale(0.015625)"/>
       </defs>
       <use xlink:href="#DejaVuSans-2212"/>
       <use xlink:href="#DejaVuSans-34" transform="translate(83.789062 0)"/>
       <use xlink:href="#DejaVuSans-30" transform="translate(147.412109 0)"/>
       <use xlink:href="#DejaVuSans-30" transform="translate(211.035156 0)"/>
       <use xlink:href="#DejaVuSans-30" transform="translate(274.658203 0)"/>
      </g>
     </g>
    </g>
    <g id="xtick_5">
     <g id="line2d_5">
      <g>
       <use xlink:href="#m10ab3957bf" x="419.154148" y="284.4" style="stroke: #000000; stroke-width: 0.8"/>
      </g>
     </g>
     <g id="text_5">
      <!-- −3000 -->
      <g transform="translate(402.239304 298.998438) scale(0.1 -0.1)">
       <defs>
        <path id="DejaVuSans-33" d="M 2597 2516 
Q 3050 2419 3304 2112 
Q 3559 1806 3559 1356 
Q 3559 666 3084 287 
Q 2609 -91 1734 -91 
Q 1441 -91 1130 -33 
Q 819 25 488 141 
L 488 750 
Q 750 597 1062 519 
Q 1375 441 1716 441 
Q 2309 441 2620 675 
Q 2931 909 2931 1356 
Q 2931 1769 2642 2001 
Q 2353 2234 1838 2234 
L 1294 2234 
L 1294 2753 
L 1863 2753 
Q 2328 2753 2575 2939 
Q 2822 3125 2822 3475 
Q 2822 3834 2567 4026 
Q 2313 4219 1838 4219 
Q 1578 4219 1281 4162 
Q 984 4106 628 3988 
L 628 4550 
Q 988 4650 1302 4700 
Q 1616 4750 1894 4750 
Q 2613 4750 3031 4423 
Q 3450 4097 3450 3541 
Q 3450 3153 3228 2886 
Q 3006 2619 2597 2516 
z
" transform="scale(0.015625)"/>
       </defs>
       <use xlink:href="#DejaVuSans-2212"/>
       <use xlink:href="#DejaVuSans-33" transform="translate(83.789062 0)"/>
       <use xlink:href="#DejaVuSans-30" transform="translate(147.412109 0)"/>
       <use xlink:href="#DejaVuSans-30" transform="translate(211.035156 0)"/>
       <use xlink:href="#DejaVuSans-30" transform="translate(274.658203 0)"/>
      </g>
     </g>
    </g>
    <g id="xtick_6">
     <g id="line2d_6">
      <g>
       <use xlink:href="#m10ab3957bf" x="504.645852" y="284.4" style="stroke: #000000; stroke-width: 0.8"/>
      </g>
     </g>
     <g id="text_6">
      <!-- −2000 -->
      <g transform="translate(487.731009 298.998438) scale(0.1 -0.1)">
       <defs>
        <path id="DejaVuSans-32" d="M 1228 531 
L 3431 531 
L 3431 0 
L 469 0 
L 469 531 
Q 828 903 1448 1529 
Q 2069 2156 2228 2338 
Q 2531 2678 2651 2914 
Q 2772 3150 2772 3378 
Q 2772 3750 2511 3984 
Q 2250 4219 1831 4219 
Q 1534 4219 1204 4116 
Q 875 4013 500 3803 
L 500 4441 
Q 881 4594 1212 4672 
Q 1544 4750 1819 4750 
Q 2544 4750 2975 4387 
Q 3406 4025 3406 3419 
Q 3406 3131 3298 2873 
Q 3191 2616 2906 2266 
Q 2828 2175 2409 1742 
Q 1991 1309 1228 531 
z
" transform="scale(0.015625)"/>
       </defs>
       <use xlink:href="#DejaVuSans-2212"/>
       <use xlink:href="#DejaVuSans-32" transform="translate(83.789062 0)"/>
       <use xlink:href="#DejaVuSans-30" transform="translate(147.412109 0)"/>
       <use xlink:href="#DejaVuSans-30" transform="translate(211.035156 0)"/>
       <use xlink:href="#DejaVuSans-30" transform="translate(274.658203 0)"/>
      </g>
     </g>
    </g>
    <g id="xtick_7">
     <g id="line2d_7">
      <g>
       <use xlink:href="#m10ab3957bf" x="590.137557" y="284.4" style="stroke: #000000; stroke-width: 0.8"/>
      </g>
     </g>
     <g id="text_7">
      <!-- −1000 -->
      <g transform="translate(573.222713 298.998438) scale(0.1 -0.1)">
       <defs>
        <path id="DejaVuSans-31" d="M 794 531 
L 1825 531 
L 1825 4091 
L 703 3866 
L 703 4441 
L 1819 4666 
L 2450 4666 
L 2450 531 
L 3481 531 
L 3481 0 
L 794 0 
L 794 531 
z
" transform="scale(0.015625)"/>
       </defs>
       <use xlink:href="#DejaVuSans-2212"/>
       <use xlink:href="#DejaVuSans-31" transform="translate(83.789062 0)"/>
       <use xlink:href="#DejaVuSans-30" transform="translate(147.412109 0)"/>
       <use xlink:href="#DejaVuSans-30" transform="translate(211.035156 0)"/>
       <use xlink:href="#DejaVuSans-30" transform="translate(274.658203 0)"/>
      </g>
     </g>
    </g>
    <g id="xtick_8">
     <g id="line2d_8">
      <g>
       <use xlink:href="#m10ab3957bf" x="675.629261" y="284.4" style="stroke: #000000; stroke-width: 0.8"/>
      </g>
     </g>
     <g id="text_8">
      <!-- 0 -->
      <g transform="translate(672.448011 298.998438) scale(0.1 -0.1)">
       <use xlink:href="#DejaVuSans-30"/>
      </g>
     </g>
    </g>
   </g>
   <g id="matplotlib.axis_2">
    <g id="ytick_1">
     <g id="line2d_9">
      <defs>
       <path id="m652e998238" d="M 0 0 
L -3.5 0 
" style="stroke: #000000; stroke-width: 0.8"/>
      </defs>
      <g>
       <use xlink:href="#m652e998238" x="36.465625" y="280.814918" style="stroke: #000000; stroke-width: 0.8"/>
      </g>
     </g>
     <g id="text_9">
      <!-- 0.00 -->
      <g transform="translate(7.2 284.614136) scale(0.1 -0.1)">
       <defs>
        <path id="DejaVuSans-2e" d="M 684 794 
L 1344 794 
L 1344 0 
L 684 0 
L 684 794 
z
" transform="scale(0.015625)"/>
       </defs>
       <use xlink:href="#DejaVuSans-30"/>
       <use xlink:href="#DejaVuSans-2e" transform="translate(63.623047 0)"/>
       <use xlink:href="#DejaVuSans-30" transform="translate(95.410156 0)"/>
       <use xlink:href="#DejaVuSans-30" transform="translate(159.033203 0)"/>
      </g>
     </g>
    </g>
    <g id="ytick_2">
     <g id="line2d_10">
      <g>
       <use xlink:href="#m652e998238" x="36.465625" y="234.096944" style="stroke: #000000; stroke-width: 0.8"/>
      </g>
     </g>
     <g id="text_10">
      <!-- 0.01 -->
      <g transform="translate(7.2 237.896163) scale(0.1 -0.1)">
       <use xlink:href="#DejaVuSans-30"/>
       <use xlink:href="#DejaVuSans-2e" transform="translate(63.623047 0)"/>
       <use xlink:href="#DejaVuSans-30" transform="translate(95.410156 0)"/>
       <use xlink:href="#DejaVuSans-31" transform="translate(159.033203 0)"/>
      </g>
     </g>
    </g>
    <g id="ytick_3">
     <g id="line2d_11">
      <g>
       <use xlink:href="#m652e998238" x="36.465625" y="187.37897" style="stroke: #000000; stroke-width: 0.8"/>
      </g>
     </g>
     <g id="text_11">
      <!-- 0.02 -->
      <g transform="translate(7.2 191.178189) scale(0.1 -0.1)">
       <use xlink:href="#DejaVuSans-30"/>
       <use xlink:href="#DejaVuSans-2e" transform="translate(63.623047 0)"/>
       <use xlink:href="#DejaVuSans-30" transform="translate(95.410156 0)"/>
       <use xlink:href="#DejaVuSans-32" transform="translate(159.033203 0)"/>
      </g>
     </g>
    </g>
    <g id="ytick_4">
     <g id="line2d_12">
      <g>
       <use xlink:href="#m652e998238" x="36.465625" y="140.660997" style="stroke: #000000; stroke-width: 0.8"/>
      </g>
     </g>
     <g id="text_12">
      <!-- 0.03 -->
      <g transform="translate(7.2 144.460216) scale(0.1 -0.1)">
       <use xlink:href="#DejaVuSans-30"/>
       <use xlink:href="#DejaVuSans-2e" transform="translate(63.623047 0)"/>
       <use xlink:href="#DejaVuSans-30" transform="translate(95.410156 0)"/>
       <use xlink:href="#DejaVuSans-33" transform="translate(159.033203 0)"/>
      </g>
     </g>
    </g>
    <g id="ytick_5">
     <g id="line2d_13">
      <g>
       <use xlink:href="#m652e998238" x="36.465625" y="93.943023" style="stroke: #000000; stroke-width: 0.8"/>
      </g>
     </g>
     <g id="text_13">
      <!-- 0.04 -->
      <g transform="translate(7.2 97.742242) scale(0.1 -0.1)">
       <use xlink:href="#DejaVuSans-30"/>
       <use xlink:href="#DejaVuSans-2e" transform="translate(63.623047 0)"/>
       <use xlink:href="#DejaVuSans-30" transform="translate(95.410156 0)"/>
       <use xlink:href="#DejaVuSans-34" transform="translate(159.033203 0)"/>
      </g>
     </g>
    </g>
    <g id="ytick_6">
     <g id="line2d_14">
      <g>
       <use xlink:href="#m652e998238" x="36.465625" y="47.225049" style="stroke: #000000; stroke-width: 0.8"/>
      </g>
     </g>
     <g id="text_14">
      <!-- 0.05 -->
      <g transform="translate(7.2 51.024268) scale(0.1 -0.1)">
       <use xlink:href="#DejaVuSans-30"/>
       <use xlink:href="#DejaVuSans-2e" transform="translate(63.623047 0)"/>
       <use xlink:href="#DejaVuSans-30" transform="translate(95.410156 0)"/>
       <use xlink:href="#DejaVuSans-35" transform="translate(159.033203 0)"/>
      </g>
     </g>
    </g>
   </g>
   <g id="line2d_15">
    <path d="M 66.901989 269.596574 
L 67.325795 269.323432 
L 68.032139 268.967966 
L 68.597214 268.899203 
L 69.303558 269.064843 
L 70.433709 269.646715 
L 71.42259 270.061273 
L 72.128934 270.114281 
L 72.835278 269.901158 
L 73.541622 269.417399 
L 74.389235 268.522641 
L 75.519386 266.953618 
L 79.192375 261.581487 
L 80.322525 259.789124 
L 81.311407 257.773322 
L 82.441557 254.888622 
L 85.125664 247.653637 
L 85.832008 246.380338 
L 86.397083 245.719078 
L 86.962159 245.413337 
L 87.385965 245.426607 
L 87.809772 245.646318 
L 88.374847 246.2449 
L 89.081191 247.430434 
L 89.928804 249.353249 
L 91.624029 253.962258 
L 93.177986 257.910192 
L 94.449405 260.498381 
L 96.003362 263.095098 
L 98.122394 266.219218 
L 99.393813 267.727117 
L 100.382695 268.554654 
L 101.230308 268.971942 
L 102.077921 269.122552 
L 103.066802 269.052016 
L 104.47949 268.929228 
L 105.327103 269.108155 
L 106.174716 269.543017 
L 109.423898 271.554064 
L 110.271511 271.68688 
L 111.260393 271.601116 
L 114.085769 271.126502 
L 115.215919 271.294215 
L 117.334951 271.67748 
L 118.323833 271.601294 
L 119.736521 271.220536 
L 121.149209 270.896611 
L 121.996822 270.918421 
L 122.985703 271.175996 
L 124.963467 271.782043 
L 125.81108 271.747805 
L 126.517424 271.506158 
L 127.365036 270.97419 
L 128.777724 269.744432 
L 129.907875 268.875779 
L 130.614219 268.572799 
L 131.320563 268.49816 
L 132.309444 268.675294 
L 133.580864 268.922808 
L 134.287208 268.848997 
L 134.993552 268.541605 
L 135.699896 267.9888 
L 136.547509 267.037056 
L 137.818928 265.209092 
L 141.774454 258.892603 
L 142.763336 256.824828 
L 143.893486 253.929084 
L 146.577594 246.713201 
L 147.283938 245.463698 
L 147.849013 244.833969 
L 148.272819 244.601785 
L 148.696626 244.583172 
L 149.120432 244.77728 
L 149.685507 245.352367 
L 150.391851 246.524863 
L 151.239464 248.450706 
L 152.793421 252.702087 
L 154.488647 257.106284 
L 155.760066 259.792374 
L 157.314023 262.525974 
L 159.009248 265.077407 
L 160.139399 266.441389 
L 161.12828 267.311727 
L 161.975893 267.786435 
L 162.964775 268.05537 
L 165.790151 268.543993 
L 166.920301 269.169434 
L 169.039333 270.430305 
L 170.028215 270.725768 
L 171.017097 270.782366 
L 172.853591 270.571458 
L 174.12501 270.55436 
L 175.678967 270.802722 
L 177.091655 270.964831 
L 178.221806 270.866895 
L 181.470988 270.341879 
L 182.601138 270.530136 
L 184.296364 270.828057 
L 185.143977 270.73845 
L 185.99159 270.410289 
L 186.980471 269.762897 
L 189.240772 268.134755 
L 190.088385 267.845059 
L 191.077267 267.770659 
L 192.631223 267.690771 
L 193.337567 267.434469 
L 194.043911 266.962168 
L 194.891524 266.106699 
L 196.021675 264.571889 
L 197.999438 261.390046 
L 199.835932 258.164787 
L 200.966083 255.729831 
L 202.237502 252.384646 
L 204.497803 246.207089 
L 205.345416 244.605094 
L 205.910491 243.945662 
L 206.334297 243.695904 
L 206.758104 243.665065 
L 207.18191 243.852826 
L 207.746985 244.428354 
L 208.312061 245.339242 
L 209.159673 247.207195 
L 210.572361 251.058831 
L 212.408856 255.980588 
L 213.821544 259.086322 
L 215.375501 261.913668 
L 216.788189 264.053394 
L 217.918339 265.394746 
L 218.907221 266.23687 
L 219.896102 266.774693 
L 221.167522 267.174175 
L 222.721478 267.689818 
L 223.992898 268.372957 
L 225.970661 269.459505 
L 226.959543 269.758737 
L 228.089693 269.86117 
L 231.480144 269.941144 
L 233.740445 270.172261 
L 235.011864 270.034765 
L 237.695972 269.647676 
L 239.249928 269.784003 
L 240.521348 269.827205 
L 241.368961 269.65514 
L 242.357842 269.198625 
L 243.77053 268.223223 
L 245.183218 267.320756 
L 246.1721 266.945393 
L 248.714938 266.19046 
L 249.562551 265.563356 
L 250.410164 264.645537 
L 251.540314 263.042231 
L 253.23554 260.179052 
L 254.930766 256.948457 
L 256.202185 254.008038 
L 257.614873 250.09943 
L 259.310099 245.452033 
L 260.157711 243.757181 
L 260.722787 243.031052 
L 261.287862 242.683633 
L 261.711668 242.684609 
L 262.135475 242.908994 
L 262.70055 243.537989 
L 263.406894 244.790183 
L 264.254507 246.809654 
L 266.23227 252.363703 
L 267.786227 256.330066 
L 269.198915 259.30893 
L 270.611603 261.778222 
L 271.883022 263.554092 
L 272.871904 264.597991 
L 273.860785 265.34853 
L 275.132204 266.007284 
L 277.392505 267.117584 
L 279.935344 268.473699 
L 281.065494 268.783222 
L 282.478182 268.911987 
L 285.021021 269.118086 
L 286.998784 269.28711 
L 288.411472 269.153917 
L 291.095579 268.81291 
L 293.779686 268.689514 
L 294.768568 268.341303 
L 295.898719 267.680626 
L 298.441557 266.07813 
L 301.408202 264.57747 
L 302.255815 263.753259 
L 303.244696 262.456844 
L 304.516116 260.37477 
L 306.211341 257.141207 
L 307.624029 253.976862 
L 309.036717 250.17877 
L 311.297018 243.959576 
L 312.003362 242.601606 
L 312.568437 241.895814 
L 312.992244 241.620643 
L 313.41605 241.574758 
L 313.839857 241.75865 
L 314.263663 242.163967 
L 314.828738 243.019222 
L 315.535082 244.509947 
L 316.665233 247.524693 
L 319.34934 254.916241 
L 320.762028 258.045565 
L 322.033447 260.36916 
L 323.163598 262.038078 
L 324.293748 263.316373 
L 325.423898 264.247744 
L 327.260393 265.386476 
L 330.650844 267.291054 
L 331.922263 267.669686 
L 333.617489 267.900746 
L 337.714284 268.241794 
L 339.40951 268.028086 
L 341.669811 267.773415 
L 343.365036 267.565191 
L 344.353918 267.234976 
L 345.484068 266.614033 
L 350.711014 263.104006 
L 351.699896 262.00734 
L 352.688777 260.567428 
L 353.960197 258.299262 
L 355.514153 255.044383 
L 356.926841 251.549585 
L 358.763336 246.261796 
L 360.034755 242.855017 
L 360.741099 241.448754 
L 361.306174 240.705394 
L 361.729981 240.405712 
L 362.153787 240.34022 
L 362.577594 240.510435 
L 363.0014 240.908361 
L 363.566475 241.763076 
L 364.272819 243.265514 
L 365.40297 246.317208 
L 368.087077 253.840014 
L 369.499765 257.031014 
L 370.771184 259.361896 
L 371.901335 261.003949 
L 373.031485 262.267701 
L 374.302904 263.357058 
L 376.563205 264.947354 
L 378.117162 265.836447 
L 379.388581 266.319727 
L 380.942538 266.656389 
L 383.909183 267.04511 
L 385.321871 267.023087 
L 387.582172 266.705614 
L 390.407548 266.178785 
L 391.537698 265.686348 
L 392.809117 264.871428 
L 396.199569 262.310853 
L 397.329719 261.175154 
L 398.318601 259.852383 
L 399.448751 257.935294 
L 400.861439 255.026581 
L 402.274127 251.605033 
L 403.828084 247.216362 
L 405.805847 241.620031 
L 406.65346 239.925355 
L 407.218535 239.232728 
L 407.642342 238.980915 
L 408.066148 238.970109 
L 408.489955 239.199722 
L 409.05503 239.860292 
L 409.761374 241.182057 
L 410.608987 243.306993 
L 414.98832 255.229926 
L 416.259739 257.695715 
L 417.389889 259.438846 
L 418.52004 260.811865 
L 419.932728 262.165282 
L 421.627953 263.488509 
L 423.040641 264.345124 
L 424.312061 264.87508 
L 426.007286 265.312686 
L 428.126318 265.625531 
L 429.539006 265.626111 
L 431.375501 265.36926 
L 433.77707 264.826097 
L 435.04849 264.299593 
L 436.319909 263.495381 
L 438.156403 262.008415 
L 439.851629 260.399979 
L 440.981779 259.011506 
L 442.11193 257.211476 
L 443.24208 254.980617 
L 444.654768 251.656031 
L 446.208725 247.357928 
L 448.892832 239.651321 
L 449.599176 238.281479 
L 450.164252 237.598064 
L 450.588058 237.361066 
L 451.011864 237.371529 
L 451.435671 237.627955 
L 452.000746 238.330432 
L 452.70709 239.708923 
L 453.695972 242.301751 
L 457.368961 252.712112 
L 458.64038 255.426789 
L 459.77053 257.369607 
L 461.041949 259.099319 
L 462.454637 260.609202 
L 463.867325 261.80755 
L 465.138745 262.626045 
L 466.410164 263.199455 
L 467.964121 263.653807 
L 469.659346 263.916603 
L 471.072034 263.907909 
L 472.76726 263.640954 
L 474.603754 263.13274 
L 475.875174 262.553943 
L 477.005324 261.798314 
L 478.418012 260.56635 
L 479.971969 258.927792 
L 481.243388 257.254765 
L 482.373539 255.358335 
L 483.503689 253.015139 
L 484.775108 249.879281 
L 486.329065 245.422807 
L 488.871904 237.947829 
L 489.578248 236.505875 
L 490.143323 235.762737 
L 490.567129 235.482782 
L 490.990936 235.453896 
L 491.414742 235.676321 
L 491.838548 236.143855 
L 492.403624 237.113815 
L 493.109968 238.779908 
L 494.240118 242.094085 
L 496.500419 248.818135 
L 497.913107 252.247774 
L 499.184526 254.761303 
L 500.455945 256.766889 
L 501.727365 258.353231 
L 502.998784 259.595933 
L 504.270203 260.518916 
L 505.541622 261.149223 
L 506.95431 261.574003 
L 508.508267 261.799848 
L 509.779686 261.780891 
L 511.192375 261.52608 
L 512.605063 261.056374 
L 513.876482 260.399212 
L 515.006632 259.563404 
L 516.278051 258.331025 
L 517.549471 256.807554 
L 518.82089 254.920385 
L 519.95104 252.814636 
L 521.081191 250.241105 
L 522.493879 246.408245 
L 524.330373 240.672894 
L 525.88433 236.037972 
L 526.731943 234.208363 
L 527.297018 233.453181 
L 527.720824 233.174517 
L 528.144631 233.156357 
L 528.568437 233.398423 
L 528.992244 233.888781 
L 529.557319 234.889089 
L 530.404932 236.974386 
L 531.81762 241.270343 
L 533.795383 247.172933 
L 535.066802 250.301891 
L 536.338221 252.831336 
L 537.609641 254.829338 
L 538.88106 256.379512 
L 540.01121 257.429082 
L 541.141361 258.203388 
L 542.41278 258.791749 
L 543.684199 259.114942 
L 544.81435 259.180691 
L 545.9445 259.038493 
L 547.215919 258.647759 
L 548.487339 258.005051 
L 549.617489 257.174584 
L 550.747639 256.058343 
L 551.87779 254.644944 
L 553.00794 252.910428 
L 554.138091 250.779568 
L 555.268241 248.17156 
L 556.53966 244.651759 
L 558.234886 239.211461 
L 560.07138 233.413586 
L 560.918993 231.456097 
L 561.484068 230.619473 
L 561.907875 230.285641 
L 562.331681 230.219977 
L 562.755488 230.424038 
L 563.179294 230.886926 
L 563.744369 231.867408 
L 564.450713 233.56716 
L 565.580864 236.95857 
L 568.123702 244.749663 
L 569.395121 247.879005 
L 570.525272 250.134596 
L 571.655422 251.935316 
L 572.785573 253.329457 
L 573.915723 254.361593 
L 575.045874 255.074236 
L 576.176024 255.498475 
L 577.164906 255.642499 
L 578.153787 255.576561 
L 579.142669 255.305544 
L 580.272819 254.744888 
L 581.261701 254.015464 
L 582.250582 253.032501 
L 583.380733 251.568313 
L 584.510883 249.713128 
L 585.641034 247.414996 
L 586.771184 244.608081 
L 588.042603 240.826859 
L 589.879098 234.545282 
L 591.433055 229.508228 
L 592.280668 227.520003 
L 592.845743 226.693844 
L 593.269549 226.383256 
L 593.693356 226.352082 
L 594.117162 226.599173 
L 594.540968 227.110695 
L 595.106044 228.159299 
L 595.953656 230.34372 
L 597.366344 234.818663 
L 599.202839 240.50681 
L 600.474258 243.747249 
L 601.604409 246.054778 
L 602.734559 247.843293 
L 603.723441 249.015929 
L 604.712322 249.846478 
L 605.701204 250.369694 
L 606.548817 250.586444 
L 607.396429 250.593503 
L 608.244042 250.393021 
L 609.091655 249.985005 
L 610.080537 249.237706 
L 611.069418 248.175197 
L 612.0583 246.769141 
L 613.047182 244.968416 
L 614.177332 242.395712 
L 615.307482 239.250475 
L 616.578902 235.045481 
L 620.110622 222.805525 
L 620.816966 221.392992 
L 621.382041 220.790655 
L 621.805847 220.67558 
L 622.229654 220.851249 
L 622.65346 221.304859 
L 623.218535 222.297408 
L 623.924879 224.038971 
L 625.05503 227.519204 
L 627.315331 234.563791 
L 628.445481 237.382683 
L 629.434363 239.349957 
L 630.423244 240.848175 
L 631.270857 241.77404 
L 632.11847 242.37308 
L 632.824814 242.618505 
L 633.531158 242.652261 
L 634.237502 242.474307 
L 634.943846 242.084156 
L 635.791459 241.330949 
L 636.639072 240.254115 
L 637.486685 238.817744 
L 638.475566 236.681113 
L 639.464448 234.027765 
L 640.594598 230.355425 
L 642.007286 224.898491 
L 644.550125 214.811211 
L 645.397737 212.453619 
L 645.962813 211.439888 
L 646.386619 211.019565 
L 646.810426 210.900341 
L 647.234232 211.07529 
L 647.658038 211.523922 
L 648.223114 212.491537 
L 649.070726 214.508635 
L 652.602446 223.822408 
L 653.450059 225.194607 
L 654.156403 225.96136 
L 654.862747 226.454181 
L 655.427823 226.574643 
L 655.992898 226.447912 
L 656.557973 226.072456 
L 657.264317 225.293324 
L 657.970661 224.134567 
L 658.677005 222.561701 
L 659.524618 220.101715 
L 660.654768 215.971603 
L 661.64365 211.572834 
L 664.469026 195.188858 
L 665.599176 188.981759 
L 667.153133 182.432632 
L 668.000746 179.806074 
L 668.424552 179.089982 
L 669.413434 176.524099 
L 670.119778 174.348772 
L 670.684853 172.03427 
L 671.532466 167.106079 
L 672.097541 162.274337 
L 672.662616 155.962924 
L 673.227692 146.270969 
L 673.651498 134.724227 
L 674.216573 111.877632 
L 674.922917 71.36768 
L 675.629261 19.8 
L 675.629261 19.8 
" clip-path="url(#pccb4f7cb73)" style="fill: none; stroke: #1f77b4; stroke-width: 1.5; stroke-linecap: square"/>
   </g>
   <g id="line2d_16">
    <path d="M 36.465625 179.631988 
L 706.065625 179.631988 
" clip-path="url(#pccb4f7cb73)" style="fill: none; stroke-dasharray: 2.22,0.96; stroke-dashoffset: 0; stroke: #ff0000; stroke-width: 0.6"/>
   </g>
   <g id="line2d_17">
    <path d="M 66.901989 269.596574 
L 67.325795 269.323432 
L 68.032139 268.967966 
L 68.597214 268.899203 
L 69.303558 269.064843 
L 70.433709 269.646715 
L 71.42259 270.061273 
L 72.128934 270.114281 
L 72.835278 269.901158 
L 73.541622 269.417399 
L 74.389235 268.522641 
L 75.519386 266.953618 
L 79.192375 261.581487 
L 80.322525 259.789124 
L 81.311407 257.773322 
L 82.441557 254.888622 
L 85.125664 247.653637 
L 85.832008 246.380338 
L 86.397083 245.719078 
L 86.962159 245.413337 
L 87.385965 245.426607 
L 87.809772 245.646318 
L 88.374847 246.2449 
L 89.081191 247.430434 
L 89.928804 249.353249 
L 91.624029 253.962258 
L 93.177986 257.910192 
L 94.449405 260.498381 
L 96.003362 263.095098 
L 98.122394 266.219218 
L 99.393813 267.727117 
L 100.382695 268.554654 
L 101.230308 268.971942 
L 102.077921 269.122552 
L 103.066802 269.052016 
L 104.47949 268.929228 
L 105.327103 269.108155 
L 106.174716 269.543017 
L 109.423898 271.554064 
L 110.271511 271.68688 
L 111.260393 271.601116 
L 114.085769 271.126502 
L 115.215919 271.294215 
L 117.334951 271.67748 
L 118.323833 271.601294 
L 119.736521 271.220536 
L 121.149209 270.896611 
L 121.996822 270.918421 
L 122.985703 271.175996 
L 124.963467 271.782043 
L 125.81108 271.747805 
L 126.517424 271.506158 
L 127.365036 270.97419 
L 128.777724 269.744432 
L 129.907875 268.875779 
L 130.614219 268.572799 
L 131.320563 268.49816 
L 132.309444 268.675294 
L 133.580864 268.922808 
L 134.287208 268.848997 
L 134.993552 268.541605 
L 135.699896 267.9888 
L 136.547509 267.037056 
L 137.818928 265.209092 
L 141.774454 258.892603 
L 142.763336 256.824828 
L 143.893486 253.929084 
L 146.577594 246.713201 
L 147.283938 245.463698 
L 147.849013 244.833969 
L 148.272819 244.601785 
L 148.696626 244.583172 
L 149.120432 244.77728 
L 149.685507 245.352367 
L 150.391851 246.524863 
L 151.239464 248.450706 
L 152.793421 252.702087 
L 154.488647 257.106284 
L 155.760066 259.792374 
L 157.314023 262.525974 
L 159.009248 265.077407 
L 160.139399 266.441389 
L 161.12828 267.311727 
L 161.975893 267.786435 
L 162.964775 268.05537 
L 165.790151 268.543993 
L 166.920301 269.169434 
L 169.039333 270.430305 
L 170.028215 270.725768 
L 171.017097 270.782366 
L 172.853591 270.571458 
L 174.12501 270.55436 
L 175.678967 270.802722 
L 177.091655 270.964831 
L 178.221806 270.866895 
L 181.470988 270.341879 
L 182.601138 270.530136 
L 184.296364 270.828057 
L 185.143977 270.73845 
L 185.99159 270.410289 
L 186.980471 269.762897 
L 189.240772 268.134755 
L 190.088385 267.845059 
L 191.077267 267.770659 
L 192.631223 267.690771 
L 193.337567 267.434469 
L 194.043911 266.962168 
L 194.891524 266.106699 
L 196.021675 264.571889 
L 197.999438 261.390046 
L 199.835932 258.164787 
L 200.966083 255.729831 
L 202.237502 252.384646 
L 204.497803 246.207089 
L 205.345416 244.605094 
L 205.910491 243.945662 
L 206.334297 243.695904 
L 206.758104 243.665065 
L 207.18191 243.852826 
L 207.746985 244.428354 
L 208.312061 245.339242 
L 209.159673 247.207195 
L 210.572361 251.058831 
L 212.408856 255.980588 
L 213.821544 259.086322 
L 215.375501 261.913668 
L 216.788189 264.053394 
L 217.918339 265.394746 
L 218.907221 266.23687 
L 219.896102 266.774693 
L 221.167522 267.174175 
L 222.721478 267.689818 
L 223.992898 268.372957 
L 225.970661 269.459505 
L 226.959543 269.758737 
L 228.089693 269.86117 
L 231.480144 269.941144 
L 233.740445 270.172261 
L 235.011864 270.034765 
L 237.695972 269.647676 
L 239.249928 269.784003 
L 240.521348 269.827205 
L 241.368961 269.65514 
L 242.357842 269.198625 
L 243.77053 268.223223 
L 245.183218 267.320756 
L 246.1721 266.945393 
L 248.714938 266.19046 
L 249.562551 265.563356 
L 250.410164 264.645537 
L 251.540314 263.042231 
L 253.23554 260.179052 
L 254.930766 256.948457 
L 256.202185 254.008038 
L 257.614873 250.09943 
L 259.310099 245.452033 
L 260.157711 243.757181 
L 260.722787 243.031052 
L 261.287862 242.683633 
L 261.711668 242.684609 
L 262.135475 242.908994 
L 262.70055 243.537989 
L 263.406894 244.790183 
L 264.254507 246.809654 
L 266.23227 252.363703 
L 267.786227 256.330066 
L 269.198915 259.30893 
L 270.611603 261.778222 
L 271.883022 263.554092 
L 272.871904 264.597991 
L 273.860785 265.34853 
L 275.132204 266.007284 
L 277.392505 267.117584 
L 279.935344 268.473699 
L 281.065494 268.783222 
L 282.478182 268.911987 
L 285.021021 269.118086 
L 286.998784 269.28711 
L 288.411472 269.153917 
L 291.095579 268.81291 
L 293.779686 268.689514 
L 294.768568 268.341303 
L 295.898719 267.680626 
L 298.441557 266.07813 
L 301.408202 264.57747 
L 302.255815 263.753259 
L 303.244696 262.456844 
L 304.516116 260.37477 
L 306.211341 257.141207 
L 307.624029 253.976862 
L 309.036717 250.17877 
L 311.297018 243.959576 
L 312.003362 242.601606 
L 312.568437 241.895814 
L 312.992244 241.620643 
L 313.41605 241.574758 
L 313.839857 241.75865 
L 314.263663 242.163967 
L 314.828738 243.019222 
L 315.535082 244.509947 
L 316.665233 247.524693 
L 319.34934 254.916241 
L 320.762028 258.045565 
L 322.033447 260.36916 
L 323.163598 262.038078 
L 324.293748 263.316373 
L 325.423898 264.247744 
L 327.260393 265.386476 
L 330.650844 267.291054 
L 331.922263 267.669686 
L 333.617489 267.900746 
L 337.714284 268.241794 
L 339.40951 268.028086 
L 341.669811 267.773415 
L 343.365036 267.565191 
L 344.353918 267.234976 
L 345.484068 266.614033 
L 350.711014 263.104006 
L 351.699896 262.00734 
L 352.688777 260.567428 
L 353.960197 258.299262 
L 355.514153 255.044383 
L 356.926841 251.549585 
L 358.763336 246.261796 
L 360.034755 242.855017 
L 360.741099 241.448754 
L 361.306174 240.705394 
L 361.729981 240.405712 
L 362.153787 240.34022 
L 362.577594 240.510435 
L 363.0014 240.908361 
L 363.566475 241.763076 
L 364.272819 243.265514 
L 365.40297 246.317208 
L 368.087077 253.840014 
L 369.499765 257.031014 
L 370.771184 259.361896 
L 371.901335 261.003949 
L 373.031485 262.267701 
L 374.302904 263.357058 
L 376.563205 264.947354 
L 378.117162 265.836447 
L 379.388581 266.319727 
L 380.942538 266.656389 
L 383.909183 267.04511 
L 385.321871 267.023087 
L 387.582172 266.705614 
L 390.407548 266.178785 
L 391.537698 265.686348 
L 392.809117 264.871428 
L 396.199569 262.310853 
L 397.329719 261.175154 
L 398.318601 259.852383 
L 399.448751 257.935294 
L 400.861439 255.026581 
L 402.274127 251.605033 
L 403.828084 247.216362 
L 405.805847 241.620031 
L 406.65346 239.925355 
L 407.218535 239.232728 
L 407.642342 238.980915 
L 408.066148 238.970109 
L 408.489955 239.199722 
L 409.05503 239.860292 
L 409.761374 241.182057 
L 410.608987 243.306993 
L 414.98832 255.229926 
L 416.259739 257.695715 
L 417.389889 259.438846 
L 418.52004 260.811865 
L 419.932728 262.165282 
L 421.627953 263.488509 
L 423.040641 264.345124 
L 424.312061 264.87508 
L 426.007286 265.312686 
L 428.126318 265.625531 
L 429.539006 265.626111 
L 431.375501 265.36926 
L 433.77707 264.826097 
L 435.04849 264.299593 
L 436.319909 263.495381 
L 438.156403 262.008415 
L 439.851629 260.399979 
L 440.981779 259.011506 
L 442.11193 257.211476 
L 443.24208 254.980617 
L 444.654768 251.656031 
L 446.208725 247.357928 
L 448.892832 239.651321 
L 449.599176 238.281479 
L 450.164252 237.598064 
L 450.588058 237.361066 
L 451.011864 237.371529 
L 451.435671 237.627955 
L 452.000746 238.330432 
L 452.70709 239.708923 
L 453.695972 242.301751 
L 457.368961 252.712112 
L 458.64038 255.426789 
L 459.77053 257.369607 
L 461.041949 259.099319 
L 462.454637 260.609202 
L 463.867325 261.80755 
L 465.138745 262.626045 
L 466.410164 263.199455 
L 467.964121 263.653807 
L 469.659346 263.916603 
L 471.072034 263.907909 
L 472.76726 263.640954 
L 474.603754 263.13274 
L 475.875174 262.553943 
L 477.005324 261.798314 
L 478.418012 260.56635 
L 479.971969 258.927792 
L 481.243388 257.254765 
L 482.373539 255.358335 
L 483.503689 253.015139 
L 484.775108 249.879281 
L 486.329065 245.422807 
L 488.871904 237.947829 
L 489.578248 236.505875 
L 490.143323 235.762737 
L 490.567129 235.482782 
L 490.990936 235.453896 
L 491.414742 235.676321 
L 491.838548 236.143855 
L 492.403624 237.113815 
L 493.109968 238.779908 
L 494.240118 242.094085 
L 496.500419 248.818135 
L 497.913107 252.247774 
L 499.184526 254.761303 
L 500.455945 256.766889 
L 501.727365 258.353231 
L 502.998784 259.595933 
L 504.270203 260.518916 
L 505.541622 261.149223 
L 506.95431 261.574003 
L 508.508267 261.799848 
L 509.779686 261.780891 
L 511.192375 261.52608 
L 512.605063 261.056374 
L 513.876482 260.399212 
L 515.006632 259.563404 
L 516.278051 258.331025 
L 517.549471 256.807554 
L 518.82089 254.920385 
L 519.95104 252.814636 
L 521.081191 250.241105 
L 522.493879 246.408245 
L 524.330373 240.672894 
L 525.88433 236.037972 
L 526.731943 234.208363 
L 527.297018 233.453181 
L 527.720824 233.174517 
L 528.144631 233.156357 
L 528.568437 233.398423 
L 528.992244 233.888781 
L 529.557319 234.889089 
L 530.404932 236.974386 
L 531.81762 241.270343 
L 533.795383 247.172933 
L 535.066802 250.301891 
L 536.338221 252.831336 
L 537.609641 254.829338 
L 538.88106 256.379512 
L 540.01121 257.429082 
L 541.141361 258.203388 
L 542.41278 258.791749 
L 543.684199 259.114942 
L 544.81435 259.180691 
L 545.9445 259.038493 
L 547.215919 258.647759 
L 548.487339 258.005051 
L 549.617489 257.174584 
L 550.747639 256.058343 
L 551.87779 254.644944 
L 553.00794 252.910428 
L 554.138091 250.779568 
L 555.268241 248.17156 
L 556.53966 244.651759 
L 558.234886 239.211461 
L 560.07138 233.413586 
L 560.918993 231.456097 
L 561.484068 230.619473 
L 561.907875 230.285641 
L 562.331681 230.219977 
L 562.755488 230.424038 
L 563.179294 230.886926 
L 563.744369 231.867408 
L 564.450713 233.56716 
L 565.580864 236.95857 
L 568.123702 244.749663 
L 569.395121 247.879005 
L 570.525272 250.134596 
L 571.655422 251.935316 
L 572.785573 253.329457 
L 573.915723 254.361593 
L 575.045874 255.074236 
L 576.176024 255.498475 
L 577.164906 255.642499 
L 578.153787 255.576561 
L 579.142669 255.305544 
L 580.272819 254.744888 
L 581.261701 254.015464 
L 582.250582 253.032501 
L 583.380733 251.568313 
L 584.510883 249.713128 
L 585.641034 247.414996 
L 586.771184 244.608081 
L 588.042603 240.826859 
L 589.879098 234.545282 
L 591.433055 229.508228 
L 592.280668 227.520003 
L 592.845743 226.693844 
L 593.269549 226.383256 
L 593.693356 226.352082 
L 594.117162 226.599173 
L 594.540968 227.110695 
L 595.106044 228.159299 
L 595.953656 230.34372 
L 597.366344 234.818663 
L 599.202839 240.50681 
L 600.474258 243.747249 
L 601.604409 246.054778 
L 602.734559 247.843293 
L 603.723441 249.015929 
L 604.712322 249.846478 
L 605.701204 250.369694 
L 606.548817 250.586444 
L 607.396429 250.593503 
L 608.244042 250.393021 
L 609.091655 249.985005 
L 610.080537 249.237706 
L 611.069418 248.175197 
L 612.0583 246.769141 
L 613.047182 244.968416 
L 614.177332 242.395712 
L 615.307482 239.250475 
L 616.578902 235.045481 
L 620.110622 222.805525 
L 620.816966 221.392992 
L 621.382041 220.790655 
L 621.805847 220.67558 
L 622.229654 220.851249 
L 622.65346 221.304859 
L 623.218535 222.297408 
L 623.924879 224.038971 
L 625.05503 227.519204 
L 627.315331 234.563791 
L 628.445481 237.382683 
L 629.434363 239.349957 
L 630.423244 240.848175 
L 631.270857 241.77404 
L 632.11847 242.37308 
L 632.824814 242.618505 
L 633.531158 242.652261 
L 634.237502 242.474307 
L 634.943846 242.084156 
L 635.791459 241.330949 
L 636.639072 240.254115 
L 637.486685 238.817744 
L 638.475566 236.681113 
L 639.464448 234.027765 
L 640.594598 230.355425 
L 642.007286 224.898491 
L 644.550125 214.811211 
L 645.397737 212.453619 
L 645.962813 211.439888 
L 646.386619 211.019565 
L 646.810426 210.900341 
L 647.234232 211.07529 
L 647.658038 211.523922 
L 648.223114 212.491537 
L 649.070726 214.508635 
L 652.602446 223.822408 
L 653.450059 225.194607 
L 654.156403 225.96136 
L 654.862747 226.454181 
L 655.427823 226.574643 
L 655.992898 226.447912 
L 656.557973 226.072456 
L 657.264317 225.293324 
L 657.970661 224.134567 
L 658.677005 222.561701 
L 659.524618 220.101715 
L 660.654768 215.971603 
L 661.64365 211.572834 
L 664.469026 195.188858 
L 665.599176 188.981759 
L 667.153133 182.432632 
L 668.000746 179.806074 
L 668.000746 179.806074 
" clip-path="url(#pccb4f7cb73)" style="fill: none; stroke: #ff7f0e; stroke-width: 1.5; stroke-linecap: square"/>
   </g>
   <g id="patch_3">
    <path d="M 36.465625 284.4 
L 36.465625 7.2 
" style="fill: none; stroke: #000000; stroke-width: 0.8; stroke-linejoin: miter; stroke-linecap: square"/>
   </g>
   <g id="patch_4">
    <path d="M 706.065625 284.4 
L 706.065625 7.2 
" style="fill: none; stroke: #000000; stroke-width: 0.8; stroke-linejoin: miter; stroke-linecap: square"/>
   </g>
   <g id="patch_5">
    <path d="M 36.465625 284.4 
L 706.065625 284.4 
" style="fill: none; stroke: #000000; stroke-width: 0.8; stroke-linejoin: miter; stroke-linecap: square"/>
   </g>
   <g id="patch_6">
    <path d="M 36.465625 7.2 
L 706.065625 7.2 
" style="fill: none; stroke: #000000; stroke-width: 0.8; stroke-linejoin: miter; stroke-linecap: square"/>
   </g>
   <g id="legend_1">
    <g id="patch_7">
     <path d="M 43.465625 73.9125 
L 206.465625 73.9125 
Q 208.465625 73.9125 208.465625 71.9125 
L 208.465625 14.2 
Q 208.465625 12.2 206.465625 12.2 
L 43.465625 12.2 
Q 41.465625 12.2 41.465625 14.2 
L 41.465625 71.9125 
Q 41.465625 73.9125 43.465625 73.9125 
z
" style="fill: #ffffff; opacity: 0.8; stroke: #cccccc; stroke-linejoin: miter"/>
    </g>
    <g id="line2d_18">
     <path d="M 45.465625 20.298438 
L 55.465625 20.298438 
L 65.465625 20.298438 
" style="fill: none; stroke: #1f77b4; stroke-width: 1.5; stroke-linecap: square"/>
    </g>
    <g id="text_15">
     <!-- Mf before ISCO cut: $e$=0.3 -->
     <g transform="translate(73.465625 23.798438) scale(0.1 -0.1)">
      <defs>
       <path id="DejaVuSans-4d" d="M 628 4666 
L 1569 4666 
L 2759 1491 
L 3956 4666 
L 4897 4666 
L 4897 0 
L 4281 0 
L 4281 4097 
L 3078 897 
L 2444 897 
L 1241 4097 
L 1241 0 
L 628 0 
L 628 4666 
z
" transform="scale(0.015625)"/>
       <path id="DejaVuSans-66" d="M 2375 4863 
L 2375 4384 
L 1825 4384 
Q 1516 4384 1395 4259 
Q 1275 4134 1275 3809 
L 1275 3500 
L 2222 3500 
L 2222 3053 
L 1275 3053 
L 1275 0 
L 697 0 
L 697 3053 
L 147 3053 
L 147 3500 
L 697 3500 
L 697 3744 
Q 697 4328 969 4595 
Q 1241 4863 1831 4863 
L 2375 4863 
z
" transform="scale(0.015625)"/>
       <path id="DejaVuSans-20" transform="scale(0.015625)"/>
       <path id="DejaVuSans-62" d="M 3116 1747 
Q 3116 2381 2855 2742 
Q 2594 3103 2138 3103 
Q 1681 3103 1420 2742 
Q 1159 2381 1159 1747 
Q 1159 1113 1420 752 
Q 1681 391 2138 391 
Q 2594 391 2855 752 
Q 3116 1113 3116 1747 
z
M 1159 2969 
Q 1341 3281 1617 3432 
Q 1894 3584 2278 3584 
Q 2916 3584 3314 3078 
Q 3713 2572 3713 1747 
Q 3713 922 3314 415 
Q 2916 -91 2278 -91 
Q 1894 -91 1617 61 
Q 1341 213 1159 525 
L 1159 0 
L 581 0 
L 581 4863 
L 1159 4863 
L 1159 2969 
z
" transform="scale(0.015625)"/>
       <path id="DejaVuSans-65" d="M 3597 1894 
L 3597 1613 
L 953 1613 
Q 991 1019 1311 708 
Q 1631 397 2203 397 
Q 2534 397 2845 478 
Q 3156 559 3463 722 
L 3463 178 
Q 3153 47 2828 -22 
Q 2503 -91 2169 -91 
Q 1331 -91 842 396 
Q 353 884 353 1716 
Q 353 2575 817 3079 
Q 1281 3584 2069 3584 
Q 2775 3584 3186 3129 
Q 3597 2675 3597 1894 
z
M 3022 2063 
Q 3016 2534 2758 2815 
Q 2500 3097 2075 3097 
Q 1594 3097 1305 2825 
Q 1016 2553 972 2059 
L 3022 2063 
z
" transform="scale(0.015625)"/>
       <path id="DejaVuSans-6f" d="M 1959 3097 
Q 1497 3097 1228 2736 
Q 959 2375 959 1747 
Q 959 1119 1226 758 
Q 1494 397 1959 397 
Q 2419 397 2687 759 
Q 2956 1122 2956 1747 
Q 2956 2369 2687 2733 
Q 2419 3097 1959 3097 
z
M 1959 3584 
Q 2709 3584 3137 3096 
Q 3566 2609 3566 1747 
Q 3566 888 3137 398 
Q 2709 -91 1959 -91 
Q 1206 -91 779 398 
Q 353 888 353 1747 
Q 353 2609 779 3096 
Q 1206 3584 1959 3584 
z
" transform="scale(0.015625)"/>
       <path id="DejaVuSans-72" d="M 2631 2963 
Q 2534 3019 2420 3045 
Q 2306 3072 2169 3072 
Q 1681 3072 1420 2755 
Q 1159 2438 1159 1844 
L 1159 0 
L 581 0 
L 581 3500 
L 1159 3500 
L 1159 2956 
Q 1341 3275 1631 3429 
Q 1922 3584 2338 3584 
Q 2397 3584 2469 3576 
Q 2541 3569 2628 3553 
L 2631 2963 
z
" transform="scale(0.015625)"/>
       <path id="DejaVuSans-49" d="M 628 4666 
L 1259 4666 
L 1259 0 
L 628 0 
L 628 4666 
z
" transform="scale(0.015625)"/>
       <path id="DejaVuSans-53" d="M 3425 4513 
L 3425 3897 
Q 3066 4069 2747 4153 
Q 2428 4238 2131 4238 
Q 1616 4238 1336 4038 
Q 1056 3838 1056 3469 
Q 1056 3159 1242 3001 
Q 1428 2844 1947 2747 
L 2328 2669 
Q 3034 2534 3370 2195 
Q 3706 1856 3706 1288 
Q 3706 609 3251 259 
Q 2797 -91 1919 -91 
Q 1588 -91 1214 -16 
Q 841 59 441 206 
L 441 856 
Q 825 641 1194 531 
Q 1563 422 1919 422 
Q 2459 422 2753 634 
Q 3047 847 3047 1241 
Q 3047 1584 2836 1778 
Q 2625 1972 2144 2069 
L 1759 2144 
Q 1053 2284 737 2584 
Q 422 2884 422 3419 
Q 422 4038 858 4394 
Q 1294 4750 2059 4750 
Q 2388 4750 2728 4690 
Q 3069 4631 3425 4513 
z
" transform="scale(0.015625)"/>
       <path id="DejaVuSans-43" d="M 4122 4306 
L 4122 3641 
Q 3803 3938 3442 4084 
Q 3081 4231 2675 4231 
Q 1875 4231 1450 3742 
Q 1025 3253 1025 2328 
Q 1025 1406 1450 917 
Q 1875 428 2675 428 
Q 3081 428 3442 575 
Q 3803 722 4122 1019 
L 4122 359 
Q 3791 134 3420 21 
Q 3050 -91 2638 -91 
Q 1578 -91 968 557 
Q 359 1206 359 2328 
Q 359 3453 968 4101 
Q 1578 4750 2638 4750 
Q 3056 4750 3426 4639 
Q 3797 4528 4122 4306 
z
" transform="scale(0.015625)"/>
       <path id="DejaVuSans-4f" d="M 2522 4238 
Q 1834 4238 1429 3725 
Q 1025 3213 1025 2328 
Q 1025 1447 1429 934 
Q 1834 422 2522 422 
Q 3209 422 3611 934 
Q 4013 1447 4013 2328 
Q 4013 3213 3611 3725 
Q 3209 4238 2522 4238 
z
M 2522 4750 
Q 3503 4750 4090 4092 
Q 4678 3434 4678 2328 
Q 4678 1225 4090 567 
Q 3503 -91 2522 -91 
Q 1538 -91 948 565 
Q 359 1222 359 2328 
Q 359 3434 948 4092 
Q 1538 4750 2522 4750 
z
" transform="scale(0.015625)"/>
       <path id="DejaVuSans-63" d="M 3122 3366 
L 3122 2828 
Q 2878 2963 2633 3030 
Q 2388 3097 2138 3097 
Q 1578 3097 1268 2742 
Q 959 2388 959 1747 
Q 959 1106 1268 751 
Q 1578 397 2138 397 
Q 2388 397 2633 464 
Q 2878 531 3122 666 
L 3122 134 
Q 2881 22 2623 -34 
Q 2366 -91 2075 -91 
Q 1284 -91 818 406 
Q 353 903 353 1747 
Q 353 2603 823 3093 
Q 1294 3584 2113 3584 
Q 2378 3584 2631 3529 
Q 2884 3475 3122 3366 
z
" transform="scale(0.015625)"/>
       <path id="DejaVuSans-75" d="M 544 1381 
L 544 3500 
L 1119 3500 
L 1119 1403 
Q 1119 906 1312 657 
Q 1506 409 1894 409 
Q 2359 409 2629 706 
Q 2900 1003 2900 1516 
L 2900 3500 
L 3475 3500 
L 3475 0 
L 2900 0 
L 2900 538 
Q 2691 219 2414 64 
Q 2138 -91 1772 -91 
Q 1169 -91 856 284 
Q 544 659 544 1381 
z
M 1991 3584 
L 1991 3584 
z
" transform="scale(0.015625)"/>
       <path id="DejaVuSans-74" d="M 1172 4494 
L 1172 3500 
L 2356 3500 
L 2356 3053 
L 1172 3053 
L 1172 1153 
Q 1172 725 1289 603 
Q 1406 481 1766 481 
L 2356 481 
L 2356 0 
L 1766 0 
Q 1100 0 847 248 
Q 594 497 594 1153 
L 594 3053 
L 172 3053 
L 172 3500 
L 594 3500 
L 594 4494 
L 1172 4494 
z
" transform="scale(0.015625)"/>
       <path id="DejaVuSans-3a" d="M 750 794 
L 1409 794 
L 1409 0 
L 750 0 
L 750 794 
z
M 750 3309 
L 1409 3309 
L 1409 2516 
L 750 2516 
L 750 3309 
z
" transform="scale(0.015625)"/>
       <path id="DejaVuSans-Oblique-65" d="M 3078 2063 
Q 3088 2113 3092 2166 
Q 3097 2219 3097 2272 
Q 3097 2653 2873 2875 
Q 2650 3097 2266 3097 
Q 1838 3097 1509 2826 
Q 1181 2556 1013 2059 
L 3078 2063 
z
M 3578 1613 
L 903 1613 
Q 884 1494 878 1425 
Q 872 1356 872 1306 
Q 872 872 1139 634 
Q 1406 397 1894 397 
Q 2269 397 2603 481 
Q 2938 566 3225 728 
L 3116 159 
Q 2806 34 2476 -28 
Q 2147 -91 1806 -91 
Q 1078 -91 686 257 
Q 294 606 294 1247 
Q 294 1794 489 2264 
Q 684 2734 1063 3103 
Q 1306 3334 1642 3459 
Q 1978 3584 2356 3584 
Q 2950 3584 3301 3228 
Q 3653 2872 3653 2272 
Q 3653 2128 3634 1964 
Q 3616 1800 3578 1613 
z
" transform="scale(0.015625)"/>
       <path id="DejaVuSans-3d" d="M 678 2906 
L 4684 2906 
L 4684 2381 
L 678 2381 
L 678 2906 
z
M 678 1631 
L 4684 1631 
L 4684 1100 
L 678 1100 
L 678 1631 
z
" transform="scale(0.015625)"/>
      </defs>
      <use xlink:href="#DejaVuSans-4d" transform="translate(0 0.015625)"/>
      <use xlink:href="#DejaVuSans-66" transform="translate(86.279297 0.015625)"/>
      <use xlink:href="#DejaVuSans-20" transform="translate(121.484375 0.015625)"/>
      <use xlink:href="#DejaVuSans-62" transform="translate(153.271484 0.015625)"/>
      <use xlink:href="#DejaVuSans-65" transform="translate(216.748047 0.015625)"/>
      <use xlink:href="#DejaVuSans-66" transform="translate(278.271484 0.015625)"/>
      <use xlink:href="#DejaVuSans-6f" transform="translate(313.476562 0.015625)"/>
      <use xlink:href="#DejaVuSans-72" transform="translate(374.658203 0.015625)"/>
      <use xlink:href="#DejaVuSans-65" transform="translate(415.771484 0.015625)"/>
      <use xlink:href="#DejaVuSans-20" transform="translate(477.294922 0.015625)"/>
      <use xlink:href="#DejaVuSans-49" transform="translate(509.082031 0.015625)"/>
      <use xlink:href="#DejaVuSans-53" transform="translate(538.574219 0.015625)"/>
      <use xlink:href="#DejaVuSans-43" transform="translate(602.050781 0.015625)"/>
      <use xlink:href="#DejaVuSans-4f" transform="translate(671.875 0.015625)"/>
      <use xlink:href="#DejaVuSans-20" transform="translate(750.585938 0.015625)"/>
      <use xlink:href="#DejaVuSans-63" transform="translate(782.373047 0.015625)"/>
      <use xlink:href="#DejaVuSans-75" transform="translate(837.353516 0.015625)"/>
      <use xlink:href="#DejaVuSans-74" transform="translate(900.732422 0.015625)"/>
      <use xlink:href="#DejaVuSans-3a" transform="translate(939.941406 0.015625)"/>
      <use xlink:href="#DejaVuSans-20" transform="translate(973.632812 0.015625)"/>
      <use xlink:href="#DejaVuSans-Oblique-65" transform="translate(1005.419922 0.015625)"/>
      <use xlink:href="#DejaVuSans-3d" transform="translate(1066.943359 0.015625)"/>
      <use xlink:href="#DejaVuSans-30" transform="translate(1150.732422 0.015625)"/>
      <use xlink:href="#DejaVuSans-2e" transform="translate(1214.355469 0.015625)"/>
      <use xlink:href="#DejaVuSans-33" transform="translate(1246.142578 0.015625)"/>
     </g>
    </g>
    <g id="line2d_19">
     <path d="M 45.465625 34.976563 
L 55.465625 34.976563 
L 65.465625 34.976563 
" style="fill: none; stroke-dasharray: 2.22,0.96; stroke-dashoffset: 0; stroke: #ff0000; stroke-width: 0.6"/>
    </g>
    <g id="text_16">
     <!-- Mf ISCO $e$=0 -->
     <g transform="translate(73.465625 38.476563) scale(0.1 -0.1)">
      <use xlink:href="#DejaVuSans-4d" transform="translate(0 0.015625)"/>
      <use xlink:href="#DejaVuSans-66" transform="translate(86.279297 0.015625)"/>
      <use xlink:href="#DejaVuSans-20" transform="translate(121.484375 0.015625)"/>
      <use xlink:href="#DejaVuSans-49" transform="translate(153.271484 0.015625)"/>
      <use xlink:href="#DejaVuSans-53" transform="translate(182.763672 0.015625)"/>
      <use xlink:href="#DejaVuSans-43" transform="translate(246.240234 0.015625)"/>
      <use xlink:href="#DejaVuSans-4f" transform="translate(316.064453 0.015625)"/>
      <use xlink:href="#DejaVuSans-20" transform="translate(394.775391 0.015625)"/>
      <use xlink:href="#DejaVuSans-Oblique-65" transform="translate(426.5625 0.015625)"/>
      <use xlink:href="#DejaVuSans-3d" transform="translate(488.085938 0.015625)"/>
      <use xlink:href="#DejaVuSans-30" transform="translate(571.875 0.015625)"/>
     </g>
    </g>
    <g id="PathCollection_2">
     <g>
      <use xlink:href="#m3f90ea09f9" x="55.465625" y="50.529688" style="fill: #ff0000; stroke: #ff0000"/>
     </g>
    </g>
    <g id="text_17">
     <!-- ISCO cut -->
     <g transform="translate(73.465625 53.154688) scale(0.1 -0.1)">
      <use xlink:href="#DejaVuSans-49"/>
      <use xlink:href="#DejaVuSans-53" transform="translate(29.492188 0)"/>
      <use xlink:href="#DejaVuSans-43" transform="translate(92.96875 0)"/>
      <use xlink:href="#DejaVuSans-4f" transform="translate(162.792969 0)"/>
      <use xlink:href="#DejaVuSans-20" transform="translate(241.503906 0)"/>
      <use xlink:href="#DejaVuSans-63" transform="translate(273.291016 0)"/>
      <use xlink:href="#DejaVuSans-75" transform="translate(328.271484 0)"/>
      <use xlink:href="#DejaVuSans-74" transform="translate(391.650391 0)"/>
     </g>
    </g>
    <g id="line2d_20">
     <path d="M 45.465625 64.332813 
L 55.465625 64.332813 
L 65.465625 64.332813 
" style="fill: none; stroke: #ff7f0e; stroke-width: 1.5; stroke-linecap: square"/>
    </g>
    <g id="text_18">
     <!-- Mf after ISCO cut: $e$=0.3  -->
     <g transform="translate(73.465625 67.832813) scale(0.1 -0.1)">
      <defs>
       <path id="DejaVuSans-61" d="M 2194 1759 
Q 1497 1759 1228 1600 
Q 959 1441 959 1056 
Q 959 750 1161 570 
Q 1363 391 1709 391 
Q 2188 391 2477 730 
Q 2766 1069 2766 1631 
L 2766 1759 
L 2194 1759 
z
M 3341 1997 
L 3341 0 
L 2766 0 
L 2766 531 
Q 2569 213 2275 61 
Q 1981 -91 1556 -91 
Q 1019 -91 701 211 
Q 384 513 384 1019 
Q 384 1609 779 1909 
Q 1175 2209 1959 2209 
L 2766 2209 
L 2766 2266 
Q 2766 2663 2505 2880 
Q 2244 3097 1772 3097 
Q 1472 3097 1187 3025 
Q 903 2953 641 2809 
L 641 3341 
Q 956 3463 1253 3523 
Q 1550 3584 1831 3584 
Q 2591 3584 2966 3190 
Q 3341 2797 3341 1997 
z
" transform="scale(0.015625)"/>
      </defs>
      <use xlink:href="#DejaVuSans-4d" transform="translate(0 0.015625)"/>
      <use xlink:href="#DejaVuSans-66" transform="translate(86.279297 0.015625)"/>
      <use xlink:href="#DejaVuSans-20" transform="translate(121.484375 0.015625)"/>
      <use xlink:href="#DejaVuSans-61" transform="translate(153.271484 0.015625)"/>
      <use xlink:href="#DejaVuSans-66" transform="translate(214.550781 0.015625)"/>
      <use xlink:href="#DejaVuSans-74" transform="translate(249.755859 0.015625)"/>
      <use xlink:href="#DejaVuSans-65" transform="translate(288.964844 0.015625)"/>
      <use xlink:href="#DejaVuSans-72" transform="translate(350.488281 0.015625)"/>
      <use xlink:href="#DejaVuSans-20" transform="translate(391.601562 0.015625)"/>
      <use xlink:href="#DejaVuSans-49" transform="translate(423.388672 0.015625)"/>
      <use xlink:href="#DejaVuSans-53" transform="translate(452.880859 0.015625)"/>
      <use xlink:href="#DejaVuSans-43" transform="translate(516.357422 0.015625)"/>
      <use xlink:href="#DejaVuSans-4f" transform="translate(586.181641 0.015625)"/>
      <use xlink:href="#DejaVuSans-20" transform="translate(664.892578 0.015625)"/>
      <use xlink:href="#DejaVuSans-63" transform="translate(696.679688 0.015625)"/>
      <use xlink:href="#DejaVuSans-75" transform="translate(751.660156 0.015625)"/>
      <use xlink:href="#DejaVuSans-74" transform="translate(815.039062 0.015625)"/>
      <use xlink:href="#DejaVuSans-3a" transform="translate(854.248047 0.015625)"/>
      <use xlink:href="#DejaVuSans-20" transform="translate(887.939453 0.015625)"/>
      <use xlink:href="#DejaVuSans-Oblique-65" transform="translate(919.726562 0.015625)"/>
      <use xlink:href="#DejaVuSans-3d" transform="translate(981.25 0.015625)"/>
      <use xlink:href="#DejaVuSans-30" transform="translate(1065.039062 0.015625)"/>
      <use xlink:href="#DejaVuSans-2e" transform="translate(1128.662109 0.015625)"/>
      <use xlink:href="#DejaVuSans-33" transform="translate(1160.449219 0.015625)"/>
      <use xlink:href="#DejaVuSans-20" transform="translate(1224.072266 0.015625)"/>
     </g>
    </g>
   </g>
  </g>
 </g>
 <defs>
  <clipPath id="pccb4f7cb73">
   <rect x="36.465625" y="7.2" width="669.6" height="277.2"/>
  </clipPath>
 </defs>
</svg>
