<?xml version="1.0" encoding="utf-8" standalone="no"?>
<!DOCTYPE svg PUBLIC "-//W3C//DTD SVG 1.1//EN"
  "http://www.w3.org/Graphics/SVG/1.1/DTD/svg11.dtd">
<svg xmlns:xlink="http://www.w3.org/1999/xlink" width="713.265625pt" height="308.278125pt" viewBox="0 0 713.265625 308.278125" xmlns="http://www.w3.org/2000/svg" version="1.1">
 <metadata>
  <rdf:RDF xmlns:dc="http://purl.org/dc/elements/1.1/" xmlns:cc="http://creativecommons.org/ns#" xmlns:rdf="http://www.w3.org/1999/02/22-rdf-syntax-ns#">
   <cc:Work>
    <dc:type rdf:resource="http://purl.org/dc/dcmitype/StillImage"/>
    <dc:date>2025-09-05T11:26:42.650940</dc:date>
    <dc:format>image/svg+xml</dc:format>
    <dc:creator>
     <cc:Agent>
      <dc:title>Matplotlib v3.10.5, https://matplotlib.org/</dc:title>
     </cc:Agent>
    </dc:creator>
   </cc:Work>
  </rdf:RDF>
 </metadata>
 <defs>
  <style type="text/css">*{stroke-linejoin: round; stroke-linecap: butt}</style>
 </defs>
 <g id="figure_1">
  <g id="patch_1">
   <path d="M 0 308.278125 
L 713.265625 308.278125 
L 713.265625 0 
L 0 0 
z
" style="fill: #ffffff"/>
  </g>
  <g id="axes_1">
   <g id="patch_2">
    <path d="M 36.465625 284.4 
L 706.065625 284.4 
L 706.065625 7.2 
L 36.465625 7.2 
z
" style="fill: #ffffff"/>
   </g>
   <g id="PathCollection_1">
    <defs>
     <path id="mc820e87dc0" d="M 0 1.224745 
C 0.324806 1.224745 0.636353 1.095698 0.866025 0.866025 
C 1.095698 0.636353 1.224745 0.324806 1.224745 0 
C 1.224745 -0.324806 1.095698 -0.636353 0.866025 -0.866025 
C 0.636353 -1.095698 0.324806 -1.224745 0 -1.224745 
C -0.324806 -1.224745 -0.636353 -1.095698 -0.866025 -0.866025 
C -1.095698 -0.636353 -1.224745 -0.324806 -1.224745 0 
C -1.224745 0.324806 -1.095698 0.636353 -0.866025 0.866025 
C -0.636353 1.095698 -0.324806 1.224745 0 1.224745 
z
" style="stroke: #ff0000"/>
    </defs>
    <g clip-path="url(#p416ea833e8)">
     <use xlink:href="#mc820e87dc0" x="672.143577" y="179.102001" style="fill: #ff0000; stroke: #ff0000"/>
    </g>
   </g>
   <g id="matplotlib.axis_1">
    <g id="xtick_1">
     <g id="line2d_1">
      <defs>
       <path id="m5b0a3f4423" d="M 0 0 
L 0 3.5 
" style="stroke: #000000; stroke-width: 0.8"/>
      </defs>
      <g>
       <use xlink:href="#m5b0a3f4423" x="100.32928" y="284.4" style="stroke: #000000; stroke-width: 0.8"/>
      </g>
     </g>
     <g id="text_1">
      <!-- −12000 -->
      <g transform="translate(80.233186 298.998438) scale(0.1 -0.1)">
       <defs>
        <path id="DejaVuSans-2212" d="M 678 2272 
L 4684 2272 
L 4684 1741 
L 678 1741 
L 678 2272 
z
" transform="scale(0.015625)"/>
        <path id="DejaVuSans-31" d="M 794 531 
L 1825 531 
L 1825 4091 
L 703 3866 
L 703 4441 
L 1819 4666 
L 2450 4666 
L 2450 531 
L 3481 531 
L 3481 0 
L 794 0 
L 794 531 
z
" transform="scale(0.015625)"/>
        <path id="DejaVuSans-32" d="M 1228 531 
L 3431 531 
L 3431 0 
L 469 0 
L 469 531 
Q 828 903 1448 1529 
Q 2069 2156 2228 2338 
Q 2531 2678 2651 2914 
Q 2772 3150 2772 3378 
Q 2772 3750 2511 3984 
Q 2250 4219 1831 4219 
Q 1534 4219 1204 4116 
Q 875 4013 500 3803 
L 500 4441 
Q 881 4594 1212 4672 
Q 1544 4750 1819 4750 
Q 2544 4750 2975 4387 
Q 3406 4025 3406 3419 
Q 3406 3131 3298 2873 
Q 3191 2616 2906 2266 
Q 2828 2175 2409 1742 
Q 1991 1309 1228 531 
z
" transform="scale(0.015625)"/>
        <path id="DejaVuSans-30" d="M 2034 4250 
Q 1547 4250 1301 3770 
Q 1056 3291 1056 2328 
Q 1056 1369 1301 889 
Q 1547 409 2034 409 
Q 2525 409 2770 889 
Q 3016 1369 3016 2328 
Q 3016 3291 2770 3770 
Q 2525 4250 2034 4250 
z
M 2034 4750 
Q 2819 4750 3233 4129 
Q 3647 3509 3647 2328 
Q 3647 1150 3233 529 
Q 2819 -91 2034 -91 
Q 1250 -91 836 529 
Q 422 1150 422 2328 
Q 422 3509 836 4129 
Q 1250 4750 2034 4750 
z
" transform="scale(0.015625)"/>
       </defs>
       <use xlink:href="#DejaVuSans-2212"/>
       <use xlink:href="#DejaVuSans-31" transform="translate(83.789062 0)"/>
       <use xlink:href="#DejaVuSans-32" transform="translate(147.412109 0)"/>
       <use xlink:href="#DejaVuSans-30" transform="translate(211.035156 0)"/>
       <use xlink:href="#DejaVuSans-30" transform="translate(274.658203 0)"/>
       <use xlink:href="#DejaVuSans-30" transform="translate(338.28125 0)"/>
      </g>
     </g>
    </g>
    <g id="xtick_2">
     <g id="line2d_2">
      <g>
       <use xlink:href="#m5b0a3f4423" x="196.21261" y="284.4" style="stroke: #000000; stroke-width: 0.8"/>
      </g>
     </g>
     <g id="text_2">
      <!-- −10000 -->
      <g transform="translate(176.116517 298.998438) scale(0.1 -0.1)">
       <use xlink:href="#DejaVuSans-2212"/>
       <use xlink:href="#DejaVuSans-31" transform="translate(83.789062 0)"/>
       <use xlink:href="#DejaVuSans-30" transform="translate(147.412109 0)"/>
       <use xlink:href="#DejaVuSans-30" transform="translate(211.035156 0)"/>
       <use xlink:href="#DejaVuSans-30" transform="translate(274.658203 0)"/>
       <use xlink:href="#DejaVuSans-30" transform="translate(338.28125 0)"/>
      </g>
     </g>
    </g>
    <g id="xtick_3">
     <g id="line2d_3">
      <g>
       <use xlink:href="#m5b0a3f4423" x="292.09594" y="284.4" style="stroke: #000000; stroke-width: 0.8"/>
      </g>
     </g>
     <g id="text_3">
      <!-- −8000 -->
      <g transform="translate(275.181097 298.998438) scale(0.1 -0.1)">
       <defs>
        <path id="DejaVuSans-38" d="M 2034 2216 
Q 1584 2216 1326 1975 
Q 1069 1734 1069 1313 
Q 1069 891 1326 650 
Q 1584 409 2034 409 
Q 2484 409 2743 651 
Q 3003 894 3003 1313 
Q 3003 1734 2745 1975 
Q 2488 2216 2034 2216 
z
M 1403 2484 
Q 997 2584 770 2862 
Q 544 3141 544 3541 
Q 544 4100 942 4425 
Q 1341 4750 2034 4750 
Q 2731 4750 3128 4425 
Q 3525 4100 3525 3541 
Q 3525 3141 3298 2862 
Q 3072 2584 2669 2484 
Q 3125 2378 3379 2068 
Q 3634 1759 3634 1313 
Q 3634 634 3220 271 
Q 2806 -91 2034 -91 
Q 1263 -91 848 271 
Q 434 634 434 1313 
Q 434 1759 690 2068 
Q 947 2378 1403 2484 
z
M 1172 3481 
Q 1172 3119 1398 2916 
Q 1625 2713 2034 2713 
Q 2441 2713 2670 2916 
Q 2900 3119 2900 3481 
Q 2900 3844 2670 4047 
Q 2441 4250 2034 4250 
Q 1625 4250 1398 4047 
Q 1172 3844 1172 3481 
z
" transform="scale(0.015625)"/>
       </defs>
       <use xlink:href="#DejaVuSans-2212"/>
       <use xlink:href="#DejaVuSans-38" transform="translate(83.789062 0)"/>
       <use xlink:href="#DejaVuSans-30" transform="translate(147.412109 0)"/>
       <use xlink:href="#DejaVuSans-30" transform="translate(211.035156 0)"/>
       <use xlink:href="#DejaVuSans-30" transform="translate(274.658203 0)"/>
      </g>
     </g>
    </g>
    <g id="xtick_4">
     <g id="line2d_4">
      <g>
       <use xlink:href="#m5b0a3f4423" x="387.979271" y="284.4" style="stroke: #000000; stroke-width: 0.8"/>
      </g>
     </g>
     <g id="text_4">
      <!-- −6000 -->
      <g transform="translate(371.064427 298.998438) scale(0.1 -0.1)">
       <defs>
        <path id="DejaVuSans-36" d="M 2113 2584 
Q 1688 2584 1439 2293 
Q 1191 2003 1191 1497 
Q 1191 994 1439 701 
Q 1688 409 2113 409 
Q 2538 409 2786 701 
Q 3034 994 3034 1497 
Q 3034 2003 2786 2293 
Q 2538 2584 2113 2584 
z
M 3366 4563 
L 3366 3988 
Q 3128 4100 2886 4159 
Q 2644 4219 2406 4219 
Q 1781 4219 1451 3797 
Q 1122 3375 1075 2522 
Q 1259 2794 1537 2939 
Q 1816 3084 2150 3084 
Q 2853 3084 3261 2657 
Q 3669 2231 3669 1497 
Q 3669 778 3244 343 
Q 2819 -91 2113 -91 
Q 1303 -91 875 529 
Q 447 1150 447 2328 
Q 447 3434 972 4092 
Q 1497 4750 2381 4750 
Q 2619 4750 2861 4703 
Q 3103 4656 3366 4563 
z
" transform="scale(0.015625)"/>
       </defs>
       <use xlink:href="#DejaVuSans-2212"/>
       <use xlink:href="#DejaVuSans-36" transform="translate(83.789062 0)"/>
       <use xlink:href="#DejaVuSans-30" transform="translate(147.412109 0)"/>
       <use xlink:href="#DejaVuSans-30" transform="translate(211.035156 0)"/>
       <use xlink:href="#DejaVuSans-30" transform="translate(274.658203 0)"/>
      </g>
     </g>
    </g>
    <g id="xtick_5">
     <g id="line2d_5">
      <g>
       <use xlink:href="#m5b0a3f4423" x="483.862601" y="284.4" style="stroke: #000000; stroke-width: 0.8"/>
      </g>
     </g>
     <g id="text_5">
      <!-- −4000 -->
      <g transform="translate(466.947757 298.998438) scale(0.1 -0.1)">
       <defs>
        <path id="DejaVuSans-34" d="M 2419 4116 
L 825 1625 
L 2419 1625 
L 2419 4116 
z
M 2253 4666 
L 3047 4666 
L 3047 1625 
L 3713 1625 
L 3713 1100 
L 3047 1100 
L 3047 0 
L 2419 0 
L 2419 1100 
L 313 1100 
L 313 1709 
L 2253 4666 
z
" transform="scale(0.015625)"/>
       </defs>
       <use xlink:href="#DejaVuSans-2212"/>
       <use xlink:href="#DejaVuSans-34" transform="translate(83.789062 0)"/>
       <use xlink:href="#DejaVuSans-30" transform="translate(147.412109 0)"/>
       <use xlink:href="#DejaVuSans-30" transform="translate(211.035156 0)"/>
       <use xlink:href="#DejaVuSans-30" transform="translate(274.658203 0)"/>
      </g>
     </g>
    </g>
    <g id="xtick_6">
     <g id="line2d_6">
      <g>
       <use xlink:href="#m5b0a3f4423" x="579.745931" y="284.4" style="stroke: #000000; stroke-width: 0.8"/>
      </g>
     </g>
     <g id="text_6">
      <!-- −2000 -->
      <g transform="translate(562.831087 298.998438) scale(0.1 -0.1)">
       <use xlink:href="#DejaVuSans-2212"/>
       <use xlink:href="#DejaVuSans-32" transform="translate(83.789062 0)"/>
       <use xlink:href="#DejaVuSans-30" transform="translate(147.412109 0)"/>
       <use xlink:href="#DejaVuSans-30" transform="translate(211.035156 0)"/>
       <use xlink:href="#DejaVuSans-30" transform="translate(274.658203 0)"/>
      </g>
     </g>
    </g>
    <g id="xtick_7">
     <g id="line2d_7">
      <g>
       <use xlink:href="#m5b0a3f4423" x="675.629261" y="284.4" style="stroke: #000000; stroke-width: 0.8"/>
      </g>
     </g>
     <g id="text_7">
      <!-- 0 -->
      <g transform="translate(672.448011 298.998438) scale(0.1 -0.1)">
       <use xlink:href="#DejaVuSans-30"/>
      </g>
     </g>
    </g>
   </g>
   <g id="matplotlib.axis_2">
    <g id="ytick_1">
     <g id="line2d_8">
      <defs>
       <path id="mbc5bffc876" d="M 0 0 
L -3.5 0 
" style="stroke: #000000; stroke-width: 0.8"/>
      </defs>
      <g>
       <use xlink:href="#mbc5bffc876" x="36.465625" y="280.773513" style="stroke: #000000; stroke-width: 0.8"/>
      </g>
     </g>
     <g id="text_8">
      <!-- 0.00 -->
      <g transform="translate(7.2 284.572731) scale(0.1 -0.1)">
       <defs>
        <path id="DejaVuSans-2e" d="M 684 794 
L 1344 794 
L 1344 0 
L 684 0 
L 684 794 
z
" transform="scale(0.015625)"/>
       </defs>
       <use xlink:href="#DejaVuSans-30"/>
       <use xlink:href="#DejaVuSans-2e" transform="translate(63.623047 0)"/>
       <use xlink:href="#DejaVuSans-30" transform="translate(95.410156 0)"/>
       <use xlink:href="#DejaVuSans-30" transform="translate(159.033203 0)"/>
      </g>
     </g>
    </g>
    <g id="ytick_2">
     <g id="line2d_9">
      <g>
       <use xlink:href="#mbc5bffc876" x="36.465625" y="234.080291" style="stroke: #000000; stroke-width: 0.8"/>
      </g>
     </g>
     <g id="text_9">
      <!-- 0.01 -->
      <g transform="translate(7.2 237.87951) scale(0.1 -0.1)">
       <use xlink:href="#DejaVuSans-30"/>
       <use xlink:href="#DejaVuSans-2e" transform="translate(63.623047 0)"/>
       <use xlink:href="#DejaVuSans-30" transform="translate(95.410156 0)"/>
       <use xlink:href="#DejaVuSans-31" transform="translate(159.033203 0)"/>
      </g>
     </g>
    </g>
    <g id="ytick_3">
     <g id="line2d_10">
      <g>
       <use xlink:href="#mbc5bffc876" x="36.465625" y="187.38707" style="stroke: #000000; stroke-width: 0.8"/>
      </g>
     </g>
     <g id="text_10">
      <!-- 0.02 -->
      <g transform="translate(7.2 191.186289) scale(0.1 -0.1)">
       <use xlink:href="#DejaVuSans-30"/>
       <use xlink:href="#DejaVuSans-2e" transform="translate(63.623047 0)"/>
       <use xlink:href="#DejaVuSans-30" transform="translate(95.410156 0)"/>
       <use xlink:href="#DejaVuSans-32" transform="translate(159.033203 0)"/>
      </g>
     </g>
    </g>
    <g id="ytick_4">
     <g id="line2d_11">
      <g>
       <use xlink:href="#mbc5bffc876" x="36.465625" y="140.693848" style="stroke: #000000; stroke-width: 0.8"/>
      </g>
     </g>
     <g id="text_11">
      <!-- 0.03 -->
      <g transform="translate(7.2 144.493067) scale(0.1 -0.1)">
       <defs>
        <path id="DejaVuSans-33" d="M 2597 2516 
Q 3050 2419 3304 2112 
Q 3559 1806 3559 1356 
Q 3559 666 3084 287 
Q 2609 -91 1734 -91 
Q 1441 -91 1130 -33 
Q 819 25 488 141 
L 488 750 
Q 750 597 1062 519 
Q 1375 441 1716 441 
Q 2309 441 2620 675 
Q 2931 909 2931 1356 
Q 2931 1769 2642 2001 
Q 2353 2234 1838 2234 
L 1294 2234 
L 1294 2753 
L 1863 2753 
Q 2328 2753 2575 2939 
Q 2822 3125 2822 3475 
Q 2822 3834 2567 4026 
Q 2313 4219 1838 4219 
Q 1578 4219 1281 4162 
Q 984 4106 628 3988 
L 628 4550 
Q 988 4650 1302 4700 
Q 1616 4750 1894 4750 
Q 2613 4750 3031 4423 
Q 3450 4097 3450 3541 
Q 3450 3153 3228 2886 
Q 3006 2619 2597 2516 
z
" transform="scale(0.015625)"/>
       </defs>
       <use xlink:href="#DejaVuSans-30"/>
       <use xlink:href="#DejaVuSans-2e" transform="translate(63.623047 0)"/>
       <use xlink:href="#DejaVuSans-30" transform="translate(95.410156 0)"/>
       <use xlink:href="#DejaVuSans-33" transform="translate(159.033203 0)"/>
      </g>
     </g>
    </g>
    <g id="ytick_5">
     <g id="line2d_12">
      <g>
       <use xlink:href="#mbc5bffc876" x="36.465625" y="94.000627" style="stroke: #000000; stroke-width: 0.8"/>
      </g>
     </g>
     <g id="text_12">
      <!-- 0.04 -->
      <g transform="translate(7.2 97.799846) scale(0.1 -0.1)">
       <use xlink:href="#DejaVuSans-30"/>
       <use xlink:href="#DejaVuSans-2e" transform="translate(63.623047 0)"/>
       <use xlink:href="#DejaVuSans-30" transform="translate(95.410156 0)"/>
       <use xlink:href="#DejaVuSans-34" transform="translate(159.033203 0)"/>
      </g>
     </g>
    </g>
    <g id="ytick_6">
     <g id="line2d_13">
      <g>
       <use xlink:href="#mbc5bffc876" x="36.465625" y="47.307406" style="stroke: #000000; stroke-width: 0.8"/>
      </g>
     </g>
     <g id="text_13">
      <!-- 0.05 -->
      <g transform="translate(7.2 51.106624) scale(0.1 -0.1)">
       <defs>
        <path id="DejaVuSans-35" d="M 691 4666 
L 3169 4666 
L 3169 4134 
L 1269 4134 
L 1269 2991 
Q 1406 3038 1543 3061 
Q 1681 3084 1819 3084 
Q 2600 3084 3056 2656 
Q 3513 2228 3513 1497 
Q 3513 744 3044 326 
Q 2575 -91 1722 -91 
Q 1428 -91 1123 -41 
Q 819 9 494 109 
L 494 744 
Q 775 591 1075 516 
Q 1375 441 1709 441 
Q 2250 441 2565 725 
Q 2881 1009 2881 1497 
Q 2881 1984 2565 2268 
Q 2250 2553 1709 2553 
Q 1456 2553 1204 2497 
Q 953 2441 691 2322 
L 691 4666 
z
" transform="scale(0.015625)"/>
       </defs>
       <use xlink:href="#DejaVuSans-30"/>
       <use xlink:href="#DejaVuSans-2e" transform="translate(63.623047 0)"/>
       <use xlink:href="#DejaVuSans-30" transform="translate(95.410156 0)"/>
       <use xlink:href="#DejaVuSans-35" transform="translate(159.033203 0)"/>
      </g>
     </g>
    </g>
   </g>
   <g id="line2d_14">
    <path d="M 66.901989 271.596767 
L 67.456529 271.383671 
L 68.961711 270.548577 
L 70.546113 269.769893 
L 71.892855 269.066917 
L 72.764276 268.336037 
L 73.714918 267.216516 
L 74.982439 265.323833 
L 76.408401 262.79649 
L 77.755143 259.930158 
L 79.497985 256.209993 
L 80.131746 255.31551 
L 80.686287 254.899653 
L 81.082387 254.840243 
L 81.478488 254.983133 
L 81.953808 255.408495 
L 82.587569 256.346015 
L 83.45899 258.108604 
L 86.310914 264.189815 
L 87.578436 266.270083 
L 88.687517 267.69388 
L 89.638158 268.578943 
L 90.74724 269.293335 
L 94.312144 271.119117 
L 95.421226 271.406448 
L 97.560169 271.638041 
L 99.778331 271.794471 
L 101.600394 271.607379 
L 104.927638 271.14133 
L 106.03672 270.606398 
L 110.156165 268.183897 
L 111.027586 267.236803 
L 112.136668 265.665195 
L 113.562629 263.214085 
L 114.909371 260.439515 
L 117.127534 255.688999 
L 117.761295 254.868898 
L 118.236615 254.560694 
L 118.632716 254.526633 
L 119.028817 254.697034 
L 119.504137 255.155898 
L 120.137898 256.134019 
L 121.088539 258.114748 
L 123.623583 263.606634 
L 124.891104 265.755179 
L 126.000186 267.222401 
L 127.030047 268.207969 
L 128.218348 269.003472 
L 131.149492 270.594518 
L 132.337794 270.970831 
L 133.922196 271.191585 
L 136.85334 271.410486 
L 138.913062 271.190673 
L 141.368886 270.836839 
L 142.398747 270.406775 
L 145.171451 268.83891 
L 146.359752 268.0476 
L 147.231173 267.200011 
L 148.181814 265.960724 
L 149.449336 263.89863 
L 150.796078 261.281842 
L 154.044102 254.611118 
L 154.598643 254.165732 
L 154.994743 254.090657 
L 155.390844 254.223784 
L 155.866164 254.645663 
L 156.420705 255.452476 
L 157.212906 257.02735 
L 160.619371 264.30053 
L 161.807672 266.129821 
L 162.837534 267.322757 
L 163.867395 268.184561 
L 165.610237 269.290379 
L 167.4323 270.250031 
L 168.620601 270.60535 
L 170.601104 270.893314 
L 172.581606 271.033211 
L 174.245228 270.874094 
L 177.176372 270.392708 
L 178.285454 269.894571 
L 180.820497 268.370411 
L 182.008799 267.492997 
L 182.95944 266.483062 
L 183.989301 265.024146 
L 185.256823 262.808951 
L 186.603565 260.006628 
L 189.059388 254.692691 
L 189.693149 253.924163 
L 190.168469 253.671728 
L 190.56457 253.692601 
L 190.96067 253.922366 
L 191.435991 254.453146 
L 192.069752 255.518182 
L 193.099613 257.776543 
L 195.238556 262.550222 
L 196.506077 264.804132 
L 197.615159 266.328912 
L 198.64502 267.370006 
L 199.912542 268.317812 
L 201.972265 269.564228 
L 203.160566 270.040773 
L 204.586528 270.342183 
L 207.042351 270.616032 
L 208.468313 270.538069 
L 211.399457 270.08751 
L 212.508538 269.675155 
L 213.85528 268.897857 
L 216.152663 267.318624 
L 217.103304 266.385316 
L 218.053945 265.129373 
L 219.163027 263.284616 
L 220.509769 260.594008 
L 223.757793 253.75163 
L 224.312334 253.28097 
L 224.708434 253.194293 
L 225.104535 253.322343 
L 225.579855 253.746841 
L 226.134396 254.567083 
L 226.926597 256.174021 
L 230.333061 263.605653 
L 231.442143 265.326708 
L 232.472004 266.53465 
L 233.660306 267.564837 
L 235.403148 268.750557 
L 236.74989 269.424332 
L 238.017411 269.790325 
L 240.156354 270.12062 
L 241.582316 270.151922 
L 243.483599 269.922184 
L 245.305661 269.534629 
L 246.414742 269.046567 
L 247.919924 268.094091 
L 249.662767 266.772902 
L 250.613408 265.779033 
L 251.564049 264.462172 
L 252.673131 262.537709 
L 254.019872 259.732621 
L 256.871796 253.515112 
L 257.426337 252.906522 
L 257.901657 252.703714 
L 258.297758 252.774314 
L 258.773079 253.139261 
L 259.327619 253.908142 
L 260.11982 255.480131 
L 263.843165 263.591702 
L 264.952247 265.225378 
L 265.982108 266.364793 
L 267.24963 267.433022 
L 268.834032 268.486493 
L 270.022333 269.029293 
L 271.369075 269.387135 
L 273.270357 269.659198 
L 274.617099 269.646348 
L 276.597602 269.36012 
L 278.023564 268.982765 
L 279.132645 268.448801 
L 280.637827 267.431914 
L 282.143009 266.184701 
L 283.17287 265.021895 
L 284.202732 263.47598 
L 285.391033 261.245624 
L 286.816995 258.049889 
L 288.797498 253.548964 
L 289.431258 252.62256 
L 289.906579 252.247706 
L 290.30268 252.173573 
L 290.69878 252.321214 
L 291.174101 252.776551 
L 291.728641 253.638506 
L 292.600063 255.490101 
L 295.610426 262.30829 
L 296.719508 264.145949 
L 297.749369 265.452287 
L 298.937671 266.595721 
L 300.363633 267.666694 
L 301.631154 268.356139 
L 302.898676 268.776807 
L 304.641518 269.094327 
L 306.06748 269.138799 
L 307.651882 268.938887 
L 309.315504 268.53311 
L 310.424586 268.032874 
L 311.692107 267.193098 
L 313.276509 265.866853 
L 314.306371 264.7307 
L 315.257012 263.354762 
L 316.366094 261.333056 
L 317.712835 258.370337 
L 320.168658 252.753454 
L 320.802419 251.913478 
L 321.27774 251.623968 
L 321.67384 251.628987 
L 322.069941 251.85783 
L 322.545262 252.406174 
L 323.179022 253.519801 
L 324.208884 255.890688 
L 326.347827 260.900002 
L 327.536128 263.07803 
L 328.565989 264.535388 
L 329.675071 265.736377 
L 331.021813 266.864116 
L 332.289334 267.646315 
L 333.477636 268.117597 
L 334.982818 268.462046 
L 336.40878 268.576117 
L 337.755521 268.456652 
L 339.419144 268.088613 
L 340.607445 267.609061 
L 341.716527 266.91587 
L 343.142488 265.744128 
L 344.33079 264.494589 
L 345.281431 263.179546 
L 346.311293 261.368793 
L 347.578814 258.645156 
L 350.668398 251.68538 
L 351.222939 251.12021 
L 351.619039 250.979087 
L 352.01514 251.068273 
L 352.41124 251.381582 
L 352.965781 252.156323 
L 353.678762 253.591811 
L 355.263164 257.488313 
L 356.689126 260.709463 
L 357.798207 262.706909 
L 358.907289 264.242149 
L 360.09559 265.492346 
L 361.363112 266.512417 
L 362.551414 267.187304 
L 363.818935 267.634722 
L 365.244897 267.904954 
L 366.512419 267.930875 
L 367.938381 267.720481 
L 369.364343 267.294979 
L 370.473424 266.729197 
L 371.661726 265.851952 
L 373.008467 264.565257 
L 374.038329 263.289221 
L 375.06819 261.631608 
L 376.177271 259.395918 
L 377.603233 255.975762 
L 379.346076 251.833979 
L 379.979836 250.828438 
L 380.455157 250.405049 
L 380.851257 250.302354 
L 381.247358 250.434641 
L 381.722679 250.889829 
L 382.277219 251.77451 
L 383.06942 253.50488 
L 386.238224 260.936776 
L 387.347306 262.77564 
L 388.456387 264.182336 
L 389.644689 265.338376 
L 390.83299 266.192046 
L 391.942072 266.726337 
L 393.209594 267.094735 
L 394.477115 267.247636 
L 395.744637 267.165805 
L 397.170599 266.831601 
L 398.3589 266.331362 
L 399.467982 265.603323 
L 400.656283 264.545259 
L 401.844585 263.185796 
L 402.874446 261.64613 
L 403.904308 259.68914 
L 405.171829 256.760489 
L 407.706872 250.691962 
L 408.340633 249.84566 
L 408.815954 249.576664 
L 409.212054 249.615083 
L 409.608155 249.889944 
L 410.083476 250.505249 
L 410.717236 251.716458 
L 411.826318 254.439169 
L 413.7276 259.078239 
L 414.836682 261.209624 
L 415.945763 262.85978 
L 417.054845 264.123611 
L 418.163926 265.081371 
L 419.273008 265.755677 
L 420.461309 266.210149 
L 421.728831 266.450706 
L 422.917132 266.442511 
L 424.184654 266.196784 
L 425.372955 265.750819 
L 426.402817 265.136741 
L 427.511898 264.20312 
L 428.7002 262.893013 
L 429.730061 261.425245 
L 430.759922 259.546384 
L 431.948224 256.862648 
L 435.037808 249.503813 
L 435.592349 248.901 
L 435.988449 248.749736 
L 436.38455 248.844119 
L 436.78065 249.177444 
L 437.335191 250.000914 
L 438.048172 251.521274 
L 439.791014 256.017261 
L 441.137756 259.108059 
L 442.246837 261.105075 
L 443.355919 262.639082 
L 444.465 263.802192 
L 445.574082 264.642498 
L 446.683163 265.195825 
L 447.871465 265.529559 
L 448.980546 265.614415 
L 450.089628 265.478768 
L 451.277929 265.106172 
L 452.307791 264.562499 
L 453.337652 263.761913 
L 454.446733 262.599676 
L 455.476595 261.211402 
L 456.506456 259.433782 
L 457.615537 257.026296 
L 459.120719 253.125361 
L 460.546681 249.552269 
L 461.259662 248.345581 
L 461.734983 247.920303 
L 462.131083 247.835614 
L 462.527184 248.002763 
L 463.002504 248.518051 
L 463.557045 249.488937 
L 464.428466 251.554771 
L 467.12195 258.286795 
L 468.231031 260.322161 
L 469.340113 261.880556 
L 470.369974 262.97048 
L 471.399835 263.755587 
L 472.429697 264.274017 
L 473.538778 264.580385 
L 474.56864 264.640775 
L 475.598501 264.487335 
L 476.707582 264.092243 
L 477.737444 263.481229 
L 478.767305 262.587619 
L 479.797166 261.393345 
L 480.827028 259.857417 
L 481.856889 257.895909 
L 482.96597 255.281402 
L 486.055554 247.5868 
L 486.610095 246.963153 
L 487.006196 246.812762 
L 487.402296 246.921602 
L 487.798397 247.281588 
L 488.352937 248.157889 
L 489.065918 249.759786 
L 492.630823 258.519889 
L 493.660684 260.20677 
L 494.690546 261.4958 
L 495.720407 262.435607 
L 496.750268 263.066851 
L 497.78013 263.432226 
L 498.730771 263.549005 
L 499.681412 263.45457 
L 500.711274 263.120725 
L 501.661915 262.585687 
L 502.612556 261.796242 
L 503.642417 260.624035 
L 504.672279 259.090218 
L 505.70214 257.12357 
L 506.811222 254.480576 
L 509.980026 246.400801 
L 510.455346 245.842999 
L 510.851447 245.65609 
L 511.247547 245.736186 
L 511.643648 246.076856 
L 512.118968 246.794603 
L 512.831949 248.357725 
L 514.257911 252.246309 
L 515.683873 255.856149 
L 516.792955 258.065227 
L 517.822816 259.637518 
L 518.852677 260.800134 
L 519.803318 261.549693 
L 520.75396 262.026412 
L 521.704601 262.254748 
L 522.655242 262.2403 
L 523.605883 261.987535 
L 524.556525 261.490098 
L 525.507166 260.71625 
L 526.457807 259.633384 
L 527.408448 258.216604 
L 528.43831 256.250873 
L 529.547391 253.584394 
L 531.211013 248.842405 
L 532.320095 245.957605 
L 532.953856 244.840005 
L 533.429176 244.3963 
L 533.825277 244.322937 
L 534.221377 244.524769 
L 534.696698 245.107624 
L 535.251239 246.181517 
L 536.12266 248.424075 
L 538.499263 254.784149 
L 539.529124 256.858258 
L 540.558985 258.44311 
L 541.509627 259.511019 
L 542.460268 260.239522 
L 543.331689 260.636699 
L 544.20311 260.785722 
L 545.074531 260.694711 
L 545.945952 260.377461 
L 546.817374 259.82456 
L 547.688795 259.004233 
L 548.639436 257.772234 
L 549.590077 256.170322 
L 550.619939 253.965671 
L 551.6498 251.204685 
L 554.184843 244.055202 
L 554.739384 243.160475 
L 555.214705 242.786077 
L 555.610805 242.781225 
L 556.006906 243.0595 
L 556.482226 243.742587 
L 557.115987 245.129194 
L 558.225068 248.242323 
L 559.809471 252.54365 
L 560.997772 255.140325 
L 561.948413 256.719915 
L 562.819834 257.774249 
L 563.691256 258.497527 
L 564.483457 258.893943 
L 565.275658 259.050945 
L 566.067859 258.972996 
L 566.86006 258.663708 
L 567.652261 258.118162 
L 568.523682 257.238949 
L 569.395103 256.037405 
L 570.345744 254.304829 
L 571.296385 252.098614 
L 572.484687 248.71625 
L 574.62363 242.443673 
L 575.257391 241.314642 
L 575.732711 240.910882 
L 576.049592 240.878042 
L 576.366472 241.036274 
L 576.762573 241.490428 
L 577.317113 242.540119 
L 578.109314 244.619439 
L 580.723578 251.917056 
L 581.753439 253.967215 
L 582.62486 255.250695 
L 583.496281 256.147025 
L 584.288482 256.650469 
L 585.001463 256.863589 
L 585.714444 256.855371 
L 586.427425 256.629327 
L 587.140406 256.183848 
L 587.932607 255.412714 
L 588.724808 254.326997 
L 589.596229 252.744655 
L 590.546871 250.527372 
L 591.655952 247.314623 
L 594.111775 239.877892 
L 594.666316 238.942422 
L 595.062416 238.618017 
L 595.379297 238.583906 
L 595.696177 238.750736 
L 596.092278 239.226219 
L 596.646819 240.318854 
L 597.43902 242.468427 
L 599.894843 249.517619 
L 600.845484 251.479088 
L 601.716905 252.793474 
L 602.509106 253.603423 
L 603.222087 254.035803 
L 603.935068 254.199553 
L 604.568829 254.121285 
L 605.20259 253.831352 
L 605.915571 253.246277 
L 606.628552 252.373713 
L 607.420753 251.046612 
L 608.292174 249.130007 
L 609.242815 246.489597 
L 610.589557 241.9924 
L 611.936298 237.679503 
L 612.570059 236.311999 
L 613.04538 235.762366 
L 613.36226 235.656117 
L 613.679141 235.763215 
L 614.075241 236.184425 
L 614.550562 237.060724 
L 615.263543 238.929579 
L 618.194687 247.3186 
L 619.066108 248.927593 
L 619.858309 249.93242 
L 620.57129 250.473569 
L 621.20505 250.673208 
L 621.759591 250.633212 
L 622.393352 250.341909 
L 623.027113 249.784413 
L 623.740094 248.827841 
L 624.532295 247.338173 
L 625.403716 245.162313 
L 626.433577 241.897592 
L 629.127061 232.845975 
L 629.602381 232.054633 
L 629.998482 231.766451 
L 630.315362 231.792991 
L 630.632243 232.044316 
L 631.028343 232.644371 
L 631.582884 233.913363 
L 632.533525 236.769187 
L 634.197147 241.73979 
L 635.068569 243.659965 
L 635.781549 244.770994 
L 636.41531 245.407482 
L 636.969851 245.695375 
L 637.524392 245.727302 
L 638.078932 245.503587 
L 638.633473 245.021317 
L 639.267234 244.147212 
L 639.980215 242.741583 
L 640.772416 240.649353 
L 641.643837 237.697107 
L 643.307459 231.03036 
L 644.258101 227.767631 
L 644.812641 226.552311 
L 645.208742 226.101719 
L 645.525622 226.011209 
L 645.842503 226.164697 
L 646.238603 226.671882 
L 646.793144 227.867279 
L 647.664565 230.432934 
L 649.248967 235.097293 
L 650.041168 236.745252 
L 650.674929 237.610297 
L 651.22947 238.016574 
L 651.70479 238.09224 
L 652.180111 237.905969 
L 652.655431 237.465862 
L 653.209972 236.626905 
L 653.843733 235.233724 
L 654.556714 233.104089 
L 655.428135 229.732279 
L 656.854097 223.095506 
L 657.883958 218.691338 
L 658.517719 216.87611 
L 658.99304 216.160108 
L 659.30992 216.002216 
L 659.626801 216.09579 
L 660.022901 216.52626 
L 660.577442 217.577638 
L 662.874825 222.581818 
L 663.350145 222.991105 
L 663.746246 223.041357 
L 664.221567 222.811517 
L 664.617667 222.344054 
L 665.092988 221.355482 
L 665.647528 219.6169 
L 666.360509 216.602355 
L 667.07349 212.596617 
L 668.578672 201.676225 
L 669.925414 191.604145 
L 670.321514 189.157704 
L 671.668256 182.072865 
L 672.302017 177.929757 
L 672.856558 172.73832 
L 673.331878 166.297987 
L 673.886419 155.060039 
L 674.36174 138.81756 
L 674.75784 115.613661 
L 675.233161 71.080345 
L 675.629261 19.8 
L 675.629261 19.8 
" clip-path="url(#p416ea833e8)" style="fill: none; stroke: #1f77b4; stroke-width: 1.5; stroke-linecap: square"/>
   </g>
   <g id="line2d_15">
    <path d="M 36.465625 179.644192 
L 706.065625 179.644192 
" clip-path="url(#p416ea833e8)" style="fill: none; stroke-dasharray: 2.22,0.96; stroke-dashoffset: 0; stroke: #ff0000; stroke-width: 0.6"/>
   </g>
   <g id="line2d_16">
    <path d="M 66.901989 271.596767 
L 67.456529 271.383671 
L 68.961711 270.548577 
L 70.546113 269.769893 
L 71.892855 269.066917 
L 72.764276 268.336037 
L 73.714918 267.216516 
L 74.982439 265.323833 
L 76.408401 262.79649 
L 77.755143 259.930158 
L 79.497985 256.209993 
L 80.131746 255.31551 
L 80.686287 254.899653 
L 81.082387 254.840243 
L 81.478488 254.983133 
L 81.953808 255.408495 
L 82.587569 256.346015 
L 83.45899 258.108604 
L 86.310914 264.189815 
L 87.578436 266.270083 
L 88.687517 267.69388 
L 89.638158 268.578943 
L 90.74724 269.293335 
L 94.312144 271.119117 
L 95.421226 271.406448 
L 97.560169 271.638041 
L 99.778331 271.794471 
L 101.600394 271.607379 
L 104.927638 271.14133 
L 106.03672 270.606398 
L 110.156165 268.183897 
L 111.027586 267.236803 
L 112.136668 265.665195 
L 113.562629 263.214085 
L 114.909371 260.439515 
L 117.127534 255.688999 
L 117.761295 254.868898 
L 118.236615 254.560694 
L 118.632716 254.526633 
L 119.028817 254.697034 
L 119.504137 255.155898 
L 120.137898 256.134019 
L 121.088539 258.114748 
L 123.623583 263.606634 
L 124.891104 265.755179 
L 126.000186 267.222401 
L 127.030047 268.207969 
L 128.218348 269.003472 
L 131.149492 270.594518 
L 132.337794 270.970831 
L 133.922196 271.191585 
L 136.85334 271.410486 
L 138.913062 271.190673 
L 141.368886 270.836839 
L 142.398747 270.406775 
L 145.171451 268.83891 
L 146.359752 268.0476 
L 147.231173 267.200011 
L 148.181814 265.960724 
L 149.449336 263.89863 
L 150.796078 261.281842 
L 154.044102 254.611118 
L 154.598643 254.165732 
L 154.994743 254.090657 
L 155.390844 254.223784 
L 155.866164 254.645663 
L 156.420705 255.452476 
L 157.212906 257.02735 
L 160.619371 264.30053 
L 161.807672 266.129821 
L 162.837534 267.322757 
L 163.867395 268.184561 
L 165.610237 269.290379 
L 167.4323 270.250031 
L 168.620601 270.60535 
L 170.601104 270.893314 
L 172.581606 271.033211 
L 174.245228 270.874094 
L 177.176372 270.392708 
L 178.285454 269.894571 
L 180.820497 268.370411 
L 182.008799 267.492997 
L 182.95944 266.483062 
L 183.989301 265.024146 
L 185.256823 262.808951 
L 186.603565 260.006628 
L 189.059388 254.692691 
L 189.693149 253.924163 
L 190.168469 253.671728 
L 190.56457 253.692601 
L 190.96067 253.922366 
L 191.435991 254.453146 
L 192.069752 255.518182 
L 193.099613 257.776543 
L 195.238556 262.550222 
L 196.506077 264.804132 
L 197.615159 266.328912 
L 198.64502 267.370006 
L 199.912542 268.317812 
L 201.972265 269.564228 
L 203.160566 270.040773 
L 204.586528 270.342183 
L 207.042351 270.616032 
L 208.468313 270.538069 
L 211.399457 270.08751 
L 212.508538 269.675155 
L 213.85528 268.897857 
L 216.152663 267.318624 
L 217.103304 266.385316 
L 218.053945 265.129373 
L 219.163027 263.284616 
L 220.509769 260.594008 
L 223.757793 253.75163 
L 224.312334 253.28097 
L 224.708434 253.194293 
L 225.104535 253.322343 
L 225.579855 253.746841 
L 226.134396 254.567083 
L 226.926597 256.174021 
L 230.333061 263.605653 
L 231.442143 265.326708 
L 232.472004 266.53465 
L 233.660306 267.564837 
L 235.403148 268.750557 
L 236.74989 269.424332 
L 238.017411 269.790325 
L 240.156354 270.12062 
L 241.582316 270.151922 
L 243.483599 269.922184 
L 245.305661 269.534629 
L 246.414742 269.046567 
L 247.919924 268.094091 
L 249.662767 266.772902 
L 250.613408 265.779033 
L 251.564049 264.462172 
L 252.673131 262.537709 
L 254.019872 259.732621 
L 256.871796 253.515112 
L 257.426337 252.906522 
L 257.901657 252.703714 
L 258.297758 252.774314 
L 258.773079 253.139261 
L 259.327619 253.908142 
L 260.11982 255.480131 
L 263.843165 263.591702 
L 264.952247 265.225378 
L 265.982108 266.364793 
L 267.24963 267.433022 
L 268.834032 268.486493 
L 270.022333 269.029293 
L 271.369075 269.387135 
L 273.270357 269.659198 
L 274.617099 269.646348 
L 276.597602 269.36012 
L 278.023564 268.982765 
L 279.132645 268.448801 
L 280.637827 267.431914 
L 282.143009 266.184701 
L 283.17287 265.021895 
L 284.202732 263.47598 
L 285.391033 261.245624 
L 286.816995 258.049889 
L 288.797498 253.548964 
L 289.431258 252.62256 
L 289.906579 252.247706 
L 290.30268 252.173573 
L 290.69878 252.321214 
L 291.174101 252.776551 
L 291.728641 253.638506 
L 292.600063 255.490101 
L 295.610426 262.30829 
L 296.719508 264.145949 
L 297.749369 265.452287 
L 298.937671 266.595721 
L 300.363633 267.666694 
L 301.631154 268.356139 
L 302.898676 268.776807 
L 304.641518 269.094327 
L 306.06748 269.138799 
L 307.651882 268.938887 
L 309.315504 268.53311 
L 310.424586 268.032874 
L 311.692107 267.193098 
L 313.276509 265.866853 
L 314.306371 264.7307 
L 315.257012 263.354762 
L 316.366094 261.333056 
L 317.712835 258.370337 
L 320.168658 252.753454 
L 320.802419 251.913478 
L 321.27774 251.623968 
L 321.67384 251.628987 
L 322.069941 251.85783 
L 322.545262 252.406174 
L 323.179022 253.519801 
L 324.208884 255.890688 
L 326.347827 260.900002 
L 327.536128 263.07803 
L 328.565989 264.535388 
L 329.675071 265.736377 
L 331.021813 266.864116 
L 332.289334 267.646315 
L 333.477636 268.117597 
L 334.982818 268.462046 
L 336.40878 268.576117 
L 337.755521 268.456652 
L 339.419144 268.088613 
L 340.607445 267.609061 
L 341.716527 266.91587 
L 343.142488 265.744128 
L 344.33079 264.494589 
L 345.281431 263.179546 
L 346.311293 261.368793 
L 347.578814 258.645156 
L 350.668398 251.68538 
L 351.222939 251.12021 
L 351.619039 250.979087 
L 352.01514 251.068273 
L 352.41124 251.381582 
L 352.965781 252.156323 
L 353.678762 253.591811 
L 355.263164 257.488313 
L 356.689126 260.709463 
L 357.798207 262.706909 
L 358.907289 264.242149 
L 360.09559 265.492346 
L 361.363112 266.512417 
L 362.551414 267.187304 
L 363.818935 267.634722 
L 365.244897 267.904954 
L 366.512419 267.930875 
L 367.938381 267.720481 
L 369.364343 267.294979 
L 370.473424 266.729197 
L 371.661726 265.851952 
L 373.008467 264.565257 
L 374.038329 263.289221 
L 375.06819 261.631608 
L 376.177271 259.395918 
L 377.603233 255.975762 
L 379.346076 251.833979 
L 379.979836 250.828438 
L 380.455157 250.405049 
L 380.851257 250.302354 
L 381.247358 250.434641 
L 381.722679 250.889829 
L 382.277219 251.77451 
L 383.06942 253.50488 
L 386.238224 260.936776 
L 387.347306 262.77564 
L 388.456387 264.182336 
L 389.644689 265.338376 
L 390.83299 266.192046 
L 391.942072 266.726337 
L 393.209594 267.094735 
L 394.477115 267.247636 
L 395.744637 267.165805 
L 397.170599 266.831601 
L 398.3589 266.331362 
L 399.467982 265.603323 
L 400.656283 264.545259 
L 401.844585 263.185796 
L 402.874446 261.64613 
L 403.904308 259.68914 
L 405.171829 256.760489 
L 407.706872 250.691962 
L 408.340633 249.84566 
L 408.815954 249.576664 
L 409.212054 249.615083 
L 409.608155 249.889944 
L 410.083476 250.505249 
L 410.717236 251.716458 
L 411.826318 254.439169 
L 413.7276 259.078239 
L 414.836682 261.209624 
L 415.945763 262.85978 
L 417.054845 264.123611 
L 418.163926 265.081371 
L 419.273008 265.755677 
L 420.461309 266.210149 
L 421.728831 266.450706 
L 422.917132 266.442511 
L 424.184654 266.196784 
L 425.372955 265.750819 
L 426.402817 265.136741 
L 427.511898 264.20312 
L 428.7002 262.893013 
L 429.730061 261.425245 
L 430.759922 259.546384 
L 431.948224 256.862648 
L 435.037808 249.503813 
L 435.592349 248.901 
L 435.988449 248.749736 
L 436.38455 248.844119 
L 436.78065 249.177444 
L 437.335191 250.000914 
L 438.048172 251.521274 
L 439.791014 256.017261 
L 441.137756 259.108059 
L 442.246837 261.105075 
L 443.355919 262.639082 
L 444.465 263.802192 
L 445.574082 264.642498 
L 446.683163 265.195825 
L 447.871465 265.529559 
L 448.980546 265.614415 
L 450.089628 265.478768 
L 451.277929 265.106172 
L 452.307791 264.562499 
L 453.337652 263.761913 
L 454.446733 262.599676 
L 455.476595 261.211402 
L 456.506456 259.433782 
L 457.615537 257.026296 
L 459.120719 253.125361 
L 460.546681 249.552269 
L 461.259662 248.345581 
L 461.734983 247.920303 
L 462.131083 247.835614 
L 462.527184 248.002763 
L 463.002504 248.518051 
L 463.557045 249.488937 
L 464.428466 251.554771 
L 467.12195 258.286795 
L 468.231031 260.322161 
L 469.340113 261.880556 
L 470.369974 262.97048 
L 471.399835 263.755587 
L 472.429697 264.274017 
L 473.538778 264.580385 
L 474.56864 264.640775 
L 475.598501 264.487335 
L 476.707582 264.092243 
L 477.737444 263.481229 
L 478.767305 262.587619 
L 479.797166 261.393345 
L 480.827028 259.857417 
L 481.856889 257.895909 
L 482.96597 255.281402 
L 486.055554 247.5868 
L 486.610095 246.963153 
L 487.006196 246.812762 
L 487.402296 246.921602 
L 487.798397 247.281588 
L 488.352937 248.157889 
L 489.065918 249.759786 
L 492.630823 258.519889 
L 493.660684 260.20677 
L 494.690546 261.4958 
L 495.720407 262.435607 
L 496.750268 263.066851 
L 497.78013 263.432226 
L 498.730771 263.549005 
L 499.681412 263.45457 
L 500.711274 263.120725 
L 501.661915 262.585687 
L 502.612556 261.796242 
L 503.642417 260.624035 
L 504.672279 259.090218 
L 505.70214 257.12357 
L 506.811222 254.480576 
L 509.980026 246.400801 
L 510.455346 245.842999 
L 510.851447 245.65609 
L 511.247547 245.736186 
L 511.643648 246.076856 
L 512.118968 246.794603 
L 512.831949 248.357725 
L 514.257911 252.246309 
L 515.683873 255.856149 
L 516.792955 258.065227 
L 517.822816 259.637518 
L 518.852677 260.800134 
L 519.803318 261.549693 
L 520.75396 262.026412 
L 521.704601 262.254748 
L 522.655242 262.2403 
L 523.605883 261.987535 
L 524.556525 261.490098 
L 525.507166 260.71625 
L 526.457807 259.633384 
L 527.408448 258.216604 
L 528.43831 256.250873 
L 529.547391 253.584394 
L 531.211013 248.842405 
L 532.320095 245.957605 
L 532.953856 244.840005 
L 533.429176 244.3963 
L 533.825277 244.322937 
L 534.221377 244.524769 
L 534.696698 245.107624 
L 535.251239 246.181517 
L 536.12266 248.424075 
L 538.499263 254.784149 
L 539.529124 256.858258 
L 540.558985 258.44311 
L 541.509627 259.511019 
L 542.460268 260.239522 
L 543.331689 260.636699 
L 544.20311 260.785722 
L 545.074531 260.694711 
L 545.945952 260.377461 
L 546.817374 259.82456 
L 547.688795 259.004233 
L 548.639436 257.772234 
L 549.590077 256.170322 
L 550.619939 253.965671 
L 551.6498 251.204685 
L 554.184843 244.055202 
L 554.739384 243.160475 
L 555.214705 242.786077 
L 555.610805 242.781225 
L 556.006906 243.0595 
L 556.482226 243.742587 
L 557.115987 245.129194 
L 558.225068 248.242323 
L 559.809471 252.54365 
L 560.997772 255.140325 
L 561.948413 256.719915 
L 562.819834 257.774249 
L 563.691256 258.497527 
L 564.483457 258.893943 
L 565.275658 259.050945 
L 566.067859 258.972996 
L 566.86006 258.663708 
L 567.652261 258.118162 
L 568.523682 257.238949 
L 569.395103 256.037405 
L 570.345744 254.304829 
L 571.296385 252.098614 
L 572.484687 248.71625 
L 574.62363 242.443673 
L 575.257391 241.314642 
L 575.732711 240.910882 
L 576.049592 240.878042 
L 576.366472 241.036274 
L 576.762573 241.490428 
L 577.317113 242.540119 
L 578.109314 244.619439 
L 580.723578 251.917056 
L 581.753439 253.967215 
L 582.62486 255.250695 
L 583.496281 256.147025 
L 584.288482 256.650469 
L 585.001463 256.863589 
L 585.714444 256.855371 
L 586.427425 256.629327 
L 587.140406 256.183848 
L 587.932607 255.412714 
L 588.724808 254.326997 
L 589.596229 252.744655 
L 590.546871 250.527372 
L 591.655952 247.314623 
L 594.111775 239.877892 
L 594.666316 238.942422 
L 595.062416 238.618017 
L 595.379297 238.583906 
L 595.696177 238.750736 
L 596.092278 239.226219 
L 596.646819 240.318854 
L 597.43902 242.468427 
L 599.894843 249.517619 
L 600.845484 251.479088 
L 601.716905 252.793474 
L 602.509106 253.603423 
L 603.222087 254.035803 
L 603.935068 254.199553 
L 604.568829 254.121285 
L 605.20259 253.831352 
L 605.915571 253.246277 
L 606.628552 252.373713 
L 607.420753 251.046612 
L 608.292174 249.130007 
L 609.242815 246.489597 
L 610.589557 241.9924 
L 611.936298 237.679503 
L 612.570059 236.311999 
L 613.04538 235.762366 
L 613.36226 235.656117 
L 613.679141 235.763215 
L 614.075241 236.184425 
L 614.550562 237.060724 
L 615.263543 238.929579 
L 618.194687 247.3186 
L 619.066108 248.927593 
L 619.858309 249.93242 
L 620.57129 250.473569 
L 621.20505 250.673208 
L 621.759591 250.633212 
L 622.393352 250.341909 
L 623.027113 249.784413 
L 623.740094 248.827841 
L 624.532295 247.338173 
L 625.403716 245.162313 
L 626.433577 241.897592 
L 629.127061 232.845975 
L 629.602381 232.054633 
L 629.998482 231.766451 
L 630.315362 231.792991 
L 630.632243 232.044316 
L 631.028343 232.644371 
L 631.582884 233.913363 
L 632.533525 236.769187 
L 634.197147 241.73979 
L 635.068569 243.659965 
L 635.781549 244.770994 
L 636.41531 245.407482 
L 636.969851 245.695375 
L 637.524392 245.727302 
L 638.078932 245.503587 
L 638.633473 245.021317 
L 639.267234 244.147212 
L 639.980215 242.741583 
L 640.772416 240.649353 
L 641.643837 237.697107 
L 643.307459 231.03036 
L 644.258101 227.767631 
L 644.812641 226.552311 
L 645.208742 226.101719 
L 645.525622 226.011209 
L 645.842503 226.164697 
L 646.238603 226.671882 
L 646.793144 227.867279 
L 647.664565 230.432934 
L 649.248967 235.097293 
L 650.041168 236.745252 
L 650.674929 237.610297 
L 651.22947 238.016574 
L 651.70479 238.09224 
L 652.180111 237.905969 
L 652.655431 237.465862 
L 653.209972 236.626905 
L 653.843733 235.233724 
L 654.556714 233.104089 
L 655.428135 229.732279 
L 656.854097 223.095506 
L 657.883958 218.691338 
L 658.517719 216.87611 
L 658.99304 216.160108 
L 659.30992 216.002216 
L 659.626801 216.09579 
L 660.022901 216.52626 
L 660.577442 217.577638 
L 662.874825 222.581818 
L 663.350145 222.991105 
L 663.746246 223.041357 
L 664.221567 222.811517 
L 664.617667 222.344054 
L 665.092988 221.355482 
L 665.647528 219.6169 
L 666.360509 216.602355 
L 667.07349 212.596617 
L 668.578672 201.676225 
L 669.925414 191.604145 
L 670.321514 189.157704 
L 671.668256 182.072865 
L 672.064357 179.644771 
L 672.064357 179.644771 
" clip-path="url(#p416ea833e8)" style="fill: none; stroke: #ff7f0e; stroke-width: 1.5; stroke-linecap: square"/>
   </g>
   <g id="patch_3">
    <path d="M 36.465625 284.4 
L 36.465625 7.2 
" style="fill: none; stroke: #000000; stroke-width: 0.8; stroke-linejoin: miter; stroke-linecap: square"/>
   </g>
   <g id="patch_4">
    <path d="M 706.065625 284.4 
L 706.065625 7.2 
" style="fill: none; stroke: #000000; stroke-width: 0.8; stroke-linejoin: miter; stroke-linecap: square"/>
   </g>
   <g id="patch_5">
    <path d="M 36.465625 284.4 
L 706.065625 284.4 
" style="fill: none; stroke: #000000; stroke-width: 0.8; stroke-linejoin: miter; stroke-linecap: square"/>
   </g>
   <g id="patch_6">
    <path d="M 36.465625 7.2 
L 706.065625 7.2 
" style="fill: none; stroke: #000000; stroke-width: 0.8; stroke-linejoin: miter; stroke-linecap: square"/>
   </g>
   <g id="legend_1">
    <g id="patch_7">
     <path d="M 43.465625 73.9125 
L 205.965625 73.9125 
Q 207.965625 73.9125 207.965625 71.9125 
L 207.965625 14.2 
Q 207.965625 12.2 205.965625 12.2 
L 43.465625 12.2 
Q 41.465625 12.2 41.465625 14.2 
L 41.465625 71.9125 
Q 41.465625 73.9125 43.465625 73.9125 
z
" style="fill: #ffffff; opacity: 0.8; stroke: #cccccc; stroke-linejoin: miter"/>
    </g>
    <g id="line2d_17">
     <path d="M 45.465625 20.298438 
L 55.465625 20.298438 
L 65.465625 20.298438 
" style="fill: none; stroke: #1f77b4; stroke-width: 1.5; stroke-linecap: square"/>
    </g>
    <g id="text_14">
     <!-- Mf before ISCO cut: $e$=0.2 -->
     <g transform="translate(73.465625 23.798438) scale(0.1 -0.1)">
      <defs>
       <path id="DejaVuSans-4d" d="M 628 4666 
L 1569 4666 
L 2759 1491 
L 3956 4666 
L 4897 4666 
L 4897 0 
L 4281 0 
L 4281 4097 
L 3078 897 
L 2444 897 
L 1241 4097 
L 1241 0 
L 628 0 
L 628 4666 
z
" transform="scale(0.015625)"/>
       <path id="DejaVuSans-66" d="M 2375 4863 
L 2375 4384 
L 1825 4384 
Q 1516 4384 1395 4259 
Q 1275 4134 1275 3809 
L 1275 3500 
L 2222 3500 
L 2222 3053 
L 1275 3053 
L 1275 0 
L 697 0 
L 697 3053 
L 147 3053 
L 147 3500 
L 697 3500 
L 697 3744 
Q 697 4328 969 4595 
Q 1241 4863 1831 4863 
L 2375 4863 
z
" transform="scale(0.015625)"/>
       <path id="DejaVuSans-20" transform="scale(0.015625)"/>
       <path id="DejaVuSans-62" d="M 3116 1747 
Q 3116 2381 2855 2742 
Q 2594 3103 2138 3103 
Q 1681 3103 1420 2742 
Q 1159 2381 1159 1747 
Q 1159 1113 1420 752 
Q 1681 391 2138 391 
Q 2594 391 2855 752 
Q 3116 1113 3116 1747 
z
M 1159 2969 
Q 1341 3281 1617 3432 
Q 1894 3584 2278 3584 
Q 2916 3584 3314 3078 
Q 3713 2572 3713 1747 
Q 3713 922 3314 415 
Q 2916 -91 2278 -91 
Q 1894 -91 1617 61 
Q 1341 213 1159 525 
L 1159 0 
L 581 0 
L 581 4863 
L 1159 4863 
L 1159 2969 
z
" transform="scale(0.015625)"/>
       <path id="DejaVuSans-65" d="M 3597 1894 
L 3597 1613 
L 953 1613 
Q 991 1019 1311 708 
Q 1631 397 2203 397 
Q 2534 397 2845 478 
Q 3156 559 3463 722 
L 3463 178 
Q 3153 47 2828 -22 
Q 2503 -91 2169 -91 
Q 1331 -91 842 396 
Q 353 884 353 1716 
Q 353 2575 817 3079 
Q 1281 3584 2069 3584 
Q 2775 3584 3186 3129 
Q 3597 2675 3597 1894 
z
M 3022 2063 
Q 3016 2534 2758 2815 
Q 2500 3097 2075 3097 
Q 1594 3097 1305 2825 
Q 1016 2553 972 2059 
L 3022 2063 
z
" transform="scale(0.015625)"/>
       <path id="DejaVuSans-6f" d="M 1959 3097 
Q 1497 3097 1228 2736 
Q 959 2375 959 1747 
Q 959 1119 1226 758 
Q 1494 397 1959 397 
Q 2419 397 2687 759 
Q 2956 1122 2956 1747 
Q 2956 2369 2687 2733 
Q 2419 3097 1959 3097 
z
M 1959 3584 
Q 2709 3584 3137 3096 
Q 3566 2609 3566 1747 
Q 3566 888 3137 398 
Q 2709 -91 1959 -91 
Q 1206 -91 779 398 
Q 353 888 353 1747 
Q 353 2609 779 3096 
Q 1206 3584 1959 3584 
z
" transform="scale(0.015625)"/>
       <path id="DejaVuSans-72" d="M 2631 2963 
Q 2534 3019 2420 3045 
Q 2306 3072 2169 3072 
Q 1681 3072 1420 2755 
Q 1159 2438 1159 1844 
L 1159 0 
L 581 0 
L 581 3500 
L 1159 3500 
L 1159 2956 
Q 1341 3275 1631 3429 
Q 1922 3584 2338 3584 
Q 2397 3584 2469 3576 
Q 2541 3569 2628 3553 
L 2631 2963 
z
" transform="scale(0.015625)"/>
       <path id="DejaVuSans-49" d="M 628 4666 
L 1259 4666 
L 1259 0 
L 628 0 
L 628 4666 
z
" transform="scale(0.015625)"/>
       <path id="DejaVuSans-53" d="M 3425 4513 
L 3425 3897 
Q 3066 4069 2747 4153 
Q 2428 4238 2131 4238 
Q 1616 4238 1336 4038 
Q 1056 3838 1056 3469 
Q 1056 3159 1242 3001 
Q 1428 2844 1947 2747 
L 2328 2669 
Q 3034 2534 3370 2195 
Q 3706 1856 3706 1288 
Q 3706 609 3251 259 
Q 2797 -91 1919 -91 
Q 1588 -91 1214 -16 
Q 841 59 441 206 
L 441 856 
Q 825 641 1194 531 
Q 1563 422 1919 422 
Q 2459 422 2753 634 
Q 3047 847 3047 1241 
Q 3047 1584 2836 1778 
Q 2625 1972 2144 2069 
L 1759 2144 
Q 1053 2284 737 2584 
Q 422 2884 422 3419 
Q 422 4038 858 4394 
Q 1294 4750 2059 4750 
Q 2388 4750 2728 4690 
Q 3069 4631 3425 4513 
z
" transform="scale(0.015625)"/>
       <path id="DejaVuSans-43" d="M 4122 4306 
L 4122 3641 
Q 3803 3938 3442 4084 
Q 3081 4231 2675 4231 
Q 1875 4231 1450 3742 
Q 1025 3253 1025 2328 
Q 1025 1406 1450 917 
Q 1875 428 2675 428 
Q 3081 428 3442 575 
Q 3803 722 4122 1019 
L 4122 359 
Q 3791 134 3420 21 
Q 3050 -91 2638 -91 
Q 1578 -91 968 557 
Q 359 1206 359 2328 
Q 359 3453 968 4101 
Q 1578 4750 2638 4750 
Q 3056 4750 3426 4639 
Q 3797 4528 4122 4306 
z
" transform="scale(0.015625)"/>
       <path id="DejaVuSans-4f" d="M 2522 4238 
Q 1834 4238 1429 3725 
Q 1025 3213 1025 2328 
Q 1025 1447 1429 934 
Q 1834 422 2522 422 
Q 3209 422 3611 934 
Q 4013 1447 4013 2328 
Q 4013 3213 3611 3725 
Q 3209 4238 2522 4238 
z
M 2522 4750 
Q 3503 4750 4090 4092 
Q 4678 3434 4678 2328 
Q 4678 1225 4090 567 
Q 3503 -91 2522 -91 
Q 1538 -91 948 565 
Q 359 1222 359 2328 
Q 359 3434 948 4092 
Q 1538 4750 2522 4750 
z
" transform="scale(0.015625)"/>
       <path id="DejaVuSans-63" d="M 3122 3366 
L 3122 2828 
Q 2878 2963 2633 3030 
Q 2388 3097 2138 3097 
Q 1578 3097 1268 2742 
Q 959 2388 959 1747 
Q 959 1106 1268 751 
Q 1578 397 2138 397 
Q 2388 397 2633 464 
Q 2878 531 3122 666 
L 3122 134 
Q 2881 22 2623 -34 
Q 2366 -91 2075 -91 
Q 1284 -91 818 406 
Q 353 903 353 1747 
Q 353 2603 823 3093 
Q 1294 3584 2113 3584 
Q 2378 3584 2631 3529 
Q 2884 3475 3122 3366 
z
" transform="scale(0.015625)"/>
       <path id="DejaVuSans-75" d="M 544 1381 
L 544 3500 
L 1119 3500 
L 1119 1403 
Q 1119 906 1312 657 
Q 1506 409 1894 409 
Q 2359 409 2629 706 
Q 2900 1003 2900 1516 
L 2900 3500 
L 3475 3500 
L 3475 0 
L 2900 0 
L 2900 538 
Q 2691 219 2414 64 
Q 2138 -91 1772 -91 
Q 1169 -91 856 284 
Q 544 659 544 1381 
z
M 1991 3584 
L 1991 3584 
z
" transform="scale(0.015625)"/>
       <path id="DejaVuSans-74" d="M 1172 4494 
L 1172 3500 
L 2356 3500 
L 2356 3053 
L 1172 3053 
L 1172 1153 
Q 1172 725 1289 603 
Q 1406 481 1766 481 
L 2356 481 
L 2356 0 
L 1766 0 
Q 1100 0 847 248 
Q 594 497 594 1153 
L 594 3053 
L 172 3053 
L 172 3500 
L 594 3500 
L 594 4494 
L 1172 4494 
z
" transform="scale(0.015625)"/>
       <path id="DejaVuSans-3a" d="M 750 794 
L 1409 794 
L 1409 0 
L 750 0 
L 750 794 
z
M 750 3309 
L 1409 3309 
L 1409 2516 
L 750 2516 
L 750 3309 
z
" transform="scale(0.015625)"/>
       <path id="DejaVuSans-Oblique-65" d="M 3078 2063 
Q 3088 2113 3092 2166 
Q 3097 2219 3097 2272 
Q 3097 2653 2873 2875 
Q 2650 3097 2266 3097 
Q 1838 3097 1509 2826 
Q 1181 2556 1013 2059 
L 3078 2063 
z
M 3578 1613 
L 903 1613 
Q 884 1494 878 1425 
Q 872 1356 872 1306 
Q 872 872 1139 634 
Q 1406 397 1894 397 
Q 2269 397 2603 481 
Q 2938 566 3225 728 
L 3116 159 
Q 2806 34 2476 -28 
Q 2147 -91 1806 -91 
Q 1078 -91 686 257 
Q 294 606 294 1247 
Q 294 1794 489 2264 
Q 684 2734 1063 3103 
Q 1306 3334 1642 3459 
Q 1978 3584 2356 3584 
Q 2950 3584 3301 3228 
Q 3653 2872 3653 2272 
Q 3653 2128 3634 1964 
Q 3616 1800 3578 1613 
z
" transform="scale(0.015625)"/>
       <path id="DejaVuSans-3d" d="M 678 2906 
L 4684 2906 
L 4684 2381 
L 678 2381 
L 678 2906 
z
M 678 1631 
L 4684 1631 
L 4684 1100 
L 678 1100 
L 678 1631 
z
" transform="scale(0.015625)"/>
      </defs>
      <use xlink:href="#DejaVuSans-4d" transform="translate(0 0.015625)"/>
      <use xlink:href="#DejaVuSans-66" transform="translate(86.279297 0.015625)"/>
      <use xlink:href="#DejaVuSans-20" transform="translate(121.484375 0.015625)"/>
      <use xlink:href="#DejaVuSans-62" transform="translate(153.271484 0.015625)"/>
      <use xlink:href="#DejaVuSans-65" transform="translate(216.748047 0.015625)"/>
      <use xlink:href="#DejaVuSans-66" transform="translate(278.271484 0.015625)"/>
      <use xlink:href="#DejaVuSans-6f" transform="translate(313.476562 0.015625)"/>
      <use xlink:href="#DejaVuSans-72" transform="translate(374.658203 0.015625)"/>
      <use xlink:href="#DejaVuSans-65" transform="translate(415.771484 0.015625)"/>
      <use xlink:href="#DejaVuSans-20" transform="translate(477.294922 0.015625)"/>
      <use xlink:href="#DejaVuSans-49" transform="translate(509.082031 0.015625)"/>
      <use xlink:href="#DejaVuSans-53" transform="translate(538.574219 0.015625)"/>
      <use xlink:href="#DejaVuSans-43" transform="translate(602.050781 0.015625)"/>
      <use xlink:href="#DejaVuSans-4f" transform="translate(671.875 0.015625)"/>
      <use xlink:href="#DejaVuSans-20" transform="translate(750.585938 0.015625)"/>
      <use xlink:href="#DejaVuSans-63" transform="translate(782.373047 0.015625)"/>
      <use xlink:href="#DejaVuSans-75" transform="translate(837.353516 0.015625)"/>
      <use xlink:href="#DejaVuSans-74" transform="translate(900.732422 0.015625)"/>
      <use xlink:href="#DejaVuSans-3a" transform="translate(939.941406 0.015625)"/>
      <use xlink:href="#DejaVuSans-20" transform="translate(973.632812 0.015625)"/>
      <use xlink:href="#DejaVuSans-Oblique-65" transform="translate(1005.419922 0.015625)"/>
      <use xlink:href="#DejaVuSans-3d" transform="translate(1066.943359 0.015625)"/>
      <use xlink:href="#DejaVuSans-30" transform="translate(1150.732422 0.015625)"/>
      <use xlink:href="#DejaVuSans-2e" transform="translate(1214.355469 0.015625)"/>
      <use xlink:href="#DejaVuSans-32" transform="translate(1240.642578 0.015625)"/>
     </g>
    </g>
    <g id="line2d_18">
     <path d="M 45.465625 34.976563 
L 55.465625 34.976563 
L 65.465625 34.976563 
" style="fill: none; stroke-dasharray: 2.22,0.96; stroke-dashoffset: 0; stroke: #ff0000; stroke-width: 0.6"/>
    </g>
    <g id="text_15">
     <!-- Mf ISCO $e$=0 -->
     <g transform="translate(73.465625 38.476563) scale(0.1 -0.1)">
      <use xlink:href="#DejaVuSans-4d" transform="translate(0 0.015625)"/>
      <use xlink:href="#DejaVuSans-66" transform="translate(86.279297 0.015625)"/>
      <use xlink:href="#DejaVuSans-20" transform="translate(121.484375 0.015625)"/>
      <use xlink:href="#DejaVuSans-49" transform="translate(153.271484 0.015625)"/>
      <use xlink:href="#DejaVuSans-53" transform="translate(182.763672 0.015625)"/>
      <use xlink:href="#DejaVuSans-43" transform="translate(246.240234 0.015625)"/>
      <use xlink:href="#DejaVuSans-4f" transform="translate(316.064453 0.015625)"/>
      <use xlink:href="#DejaVuSans-20" transform="translate(394.775391 0.015625)"/>
      <use xlink:href="#DejaVuSans-Oblique-65" transform="translate(426.5625 0.015625)"/>
      <use xlink:href="#DejaVuSans-3d" transform="translate(488.085938 0.015625)"/>
      <use xlink:href="#DejaVuSans-30" transform="translate(571.875 0.015625)"/>
     </g>
    </g>
    <g id="PathCollection_2">
     <g>
      <use xlink:href="#mc820e87dc0" x="55.465625" y="50.529688" style="fill: #ff0000; stroke: #ff0000"/>
     </g>
    </g>
    <g id="text_16">
     <!-- ISCO cut -->
     <g transform="translate(73.465625 53.154688) scale(0.1 -0.1)">
      <use xlink:href="#DejaVuSans-49"/>
      <use xlink:href="#DejaVuSans-53" transform="translate(29.492188 0)"/>
      <use xlink:href="#DejaVuSans-43" transform="translate(92.96875 0)"/>
      <use xlink:href="#DejaVuSans-4f" transform="translate(162.792969 0)"/>
      <use xlink:href="#DejaVuSans-20" transform="translate(241.503906 0)"/>
      <use xlink:href="#DejaVuSans-63" transform="translate(273.291016 0)"/>
      <use xlink:href="#DejaVuSans-75" transform="translate(328.271484 0)"/>
      <use xlink:href="#DejaVuSans-74" transform="translate(391.650391 0)"/>
     </g>
    </g>
    <g id="line2d_19">
     <path d="M 45.465625 64.332813 
L 55.465625 64.332813 
L 65.465625 64.332813 
" style="fill: none; stroke: #ff7f0e; stroke-width: 1.5; stroke-linecap: square"/>
    </g>
    <g id="text_17">
     <!-- Mf after ISCO cut: $e$=0.2  -->
     <g transform="translate(73.465625 67.832813) scale(0.1 -0.1)">
      <defs>
       <path id="DejaVuSans-61" d="M 2194 1759 
Q 1497 1759 1228 1600 
Q 959 1441 959 1056 
Q 959 750 1161 570 
Q 1363 391 1709 391 
Q 2188 391 2477 730 
Q 2766 1069 2766 1631 
L 2766 1759 
L 2194 1759 
z
M 3341 1997 
L 3341 0 
L 2766 0 
L 2766 531 
Q 2569 213 2275 61 
Q 1981 -91 1556 -91 
Q 1019 -91 701 211 
Q 384 513 384 1019 
Q 384 1609 779 1909 
Q 1175 2209 1959 2209 
L 2766 2209 
L 2766 2266 
Q 2766 2663 2505 2880 
Q 2244 3097 1772 3097 
Q 1472 3097 1187 3025 
Q 903 2953 641 2809 
L 641 3341 
Q 956 3463 1253 3523 
Q 1550 3584 1831 3584 
Q 2591 3584 2966 3190 
Q 3341 2797 3341 1997 
z
" transform="scale(0.015625)"/>
      </defs>
      <use xlink:href="#DejaVuSans-4d" transform="translate(0 0.015625)"/>
      <use xlink:href="#DejaVuSans-66" transform="translate(86.279297 0.015625)"/>
      <use xlink:href="#DejaVuSans-20" transform="translate(121.484375 0.015625)"/>
      <use xlink:href="#DejaVuSans-61" transform="translate(153.271484 0.015625)"/>
      <use xlink:href="#DejaVuSans-66" transform="translate(214.550781 0.015625)"/>
      <use xlink:href="#DejaVuSans-74" transform="translate(249.755859 0.015625)"/>
      <use xlink:href="#DejaVuSans-65" transform="translate(288.964844 0.015625)"/>
      <use xlink:href="#DejaVuSans-72" transform="translate(350.488281 0.015625)"/>
      <use xlink:href="#DejaVuSans-20" transform="translate(391.601562 0.015625)"/>
      <use xlink:href="#DejaVuSans-49" transform="translate(423.388672 0.015625)"/>
      <use xlink:href="#DejaVuSans-53" transform="translate(452.880859 0.015625)"/>
      <use xlink:href="#DejaVuSans-43" transform="translate(516.357422 0.015625)"/>
      <use xlink:href="#DejaVuSans-4f" transform="translate(586.181641 0.015625)"/>
      <use xlink:href="#DejaVuSans-20" transform="translate(664.892578 0.015625)"/>
      <use xlink:href="#DejaVuSans-63" transform="translate(696.679688 0.015625)"/>
      <use xlink:href="#DejaVuSans-75" transform="translate(751.660156 0.015625)"/>
      <use xlink:href="#DejaVuSans-74" transform="translate(815.039062 0.015625)"/>
      <use xlink:href="#DejaVuSans-3a" transform="translate(854.248047 0.015625)"/>
      <use xlink:href="#DejaVuSans-20" transform="translate(887.939453 0.015625)"/>
      <use xlink:href="#DejaVuSans-Oblique-65" transform="translate(919.726562 0.015625)"/>
      <use xlink:href="#DejaVuSans-3d" transform="translate(981.25 0.015625)"/>
      <use xlink:href="#DejaVuSans-30" transform="translate(1065.039062 0.015625)"/>
      <use xlink:href="#DejaVuSans-2e" transform="translate(1128.662109 0.015625)"/>
      <use xlink:href="#DejaVuSans-32" transform="translate(1154.949219 0.015625)"/>
      <use xlink:href="#DejaVuSans-20" transform="translate(1218.572266 0.015625)"/>
     </g>
    </g>
   </g>
  </g>
 </g>
 <defs>
  <clipPath id="p416ea833e8">
   <rect x="36.465625" y="7.2" width="669.6" height="277.2"/>
  </clipPath>
 </defs>
</svg>
