<?xml version="1.0" encoding="utf-8" standalone="no"?>
<!DOCTYPE svg PUBLIC "-//W3C//DTD SVG 1.1//EN"
  "http://www.w3.org/Graphics/SVG/1.1/DTD/svg11.dtd">
<svg xmlns:xlink="http://www.w3.org/1999/xlink" width="713.265625pt" height="308.278125pt" viewBox="0 0 713.265625 308.278125" xmlns="http://www.w3.org/2000/svg" version="1.1">
 <metadata>
  <rdf:RDF xmlns:dc="http://purl.org/dc/elements/1.1/" xmlns:cc="http://creativecommons.org/ns#" xmlns:rdf="http://www.w3.org/1999/02/22-rdf-syntax-ns#">
   <cc:Work>
    <dc:type rdf:resource="http://purl.org/dc/dcmitype/StillImage"/>
    <dc:date>2025-09-01T18:24:27.344243</dc:date>
    <dc:format>image/svg+xml</dc:format>
    <dc:creator>
     <cc:Agent>
      <dc:title>Matplotlib v3.10.5, https://matplotlib.org/</dc:title>
     </cc:Agent>
    </dc:creator>
   </cc:Work>
  </rdf:RDF>
 </metadata>
 <defs>
  <style type="text/css">*{stroke-linejoin: round; stroke-linecap: butt}</style>
 </defs>
 <g id="figure_1">
  <g id="patch_1">
   <path d="M 0 308.278125 
L 713.265625 308.278125 
L 713.265625 0 
L 0 0 
z
" style="fill: #ffffff"/>
  </g>
  <g id="axes_1">
   <g id="patch_2">
    <path d="M 36.465625 284.4 
L 706.065625 284.4 
L 706.065625 7.2 
L 36.465625 7.2 
z
" style="fill: #ffffff"/>
   </g>
   <g id="PathCollection_1">
    <defs>
     <path id="m5d9a60c726" d="M 0 1.224745 
C 0.324806 1.224745 0.636353 1.095698 0.866025 0.866025 
C 1.095698 0.636353 1.224745 0.324806 1.224745 0 
C 1.224745 -0.324806 1.095698 -0.636353 0.866025 -0.866025 
C 0.636353 -1.095698 0.324806 -1.224745 0 -1.224745 
C -0.324806 -1.224745 -0.636353 -1.095698 -0.866025 -0.866025 
C -1.095698 -0.636353 -1.224745 -0.324806 -1.224745 0 
C -1.224745 0.324806 -1.095698 0.636353 -0.866025 0.866025 
C -0.636353 1.095698 -0.324806 1.224745 0 1.224745 
z
" style="stroke: #ff0000"/>
    </defs>
    <g clip-path="url(#p27dbdbadd8)">
     <use xlink:href="#m5d9a60c726" x="662.323747" y="181.897692" style="fill: #ff0000; stroke: #ff0000"/>
    </g>
   </g>
   <g id="matplotlib.axis_1">
    <g id="xtick_1">
     <g id="line2d_1">
      <defs>
       <path id="mf3284dad98" d="M 0 0 
L 0 3.5 
" style="stroke: #000000; stroke-width: 0.8"/>
      </defs>
      <g>
       <use xlink:href="#mf3284dad98" x="56.236652" y="284.4" style="stroke: #000000; stroke-width: 0.8"/>
      </g>
     </g>
     <g id="text_1">
      <!-- −4000 -->
      <g transform="translate(39.321808 298.998438) scale(0.1 -0.1)">
       <defs>
        <path id="DejaVuSans-2212" d="M 678 2272 
L 4684 2272 
L 4684 1741 
L 678 1741 
L 678 2272 
z
" transform="scale(0.015625)"/>
        <path id="DejaVuSans-34" d="M 2419 4116 
L 825 1625 
L 2419 1625 
L 2419 4116 
z
M 2253 4666 
L 3047 4666 
L 3047 1625 
L 3713 1625 
L 3713 1100 
L 3047 1100 
L 3047 0 
L 2419 0 
L 2419 1100 
L 313 1100 
L 313 1709 
L 2253 4666 
z
" transform="scale(0.015625)"/>
        <path id="DejaVuSans-30" d="M 2034 4250 
Q 1547 4250 1301 3770 
Q 1056 3291 1056 2328 
Q 1056 1369 1301 889 
Q 1547 409 2034 409 
Q 2525 409 2770 889 
Q 3016 1369 3016 2328 
Q 3016 3291 2770 3770 
Q 2525 4250 2034 4250 
z
M 2034 4750 
Q 2819 4750 3233 4129 
Q 3647 3509 3647 2328 
Q 3647 1150 3233 529 
Q 2819 -91 2034 -91 
Q 1250 -91 836 529 
Q 422 1150 422 2328 
Q 422 3509 836 4129 
Q 1250 4750 2034 4750 
z
" transform="scale(0.015625)"/>
       </defs>
       <use xlink:href="#DejaVuSans-2212"/>
       <use xlink:href="#DejaVuSans-34" transform="translate(83.789062 0)"/>
       <use xlink:href="#DejaVuSans-30" transform="translate(147.412109 0)"/>
       <use xlink:href="#DejaVuSans-30" transform="translate(211.035156 0)"/>
       <use xlink:href="#DejaVuSans-30" transform="translate(274.658203 0)"/>
      </g>
     </g>
    </g>
    <g id="xtick_2">
     <g id="line2d_2">
      <g>
       <use xlink:href="#mf3284dad98" x="133.660728" y="284.4" style="stroke: #000000; stroke-width: 0.8"/>
      </g>
     </g>
     <g id="text_2">
      <!-- −3500 -->
      <g transform="translate(116.745884 298.998438) scale(0.1 -0.1)">
       <defs>
        <path id="DejaVuSans-33" d="M 2597 2516 
Q 3050 2419 3304 2112 
Q 3559 1806 3559 1356 
Q 3559 666 3084 287 
Q 2609 -91 1734 -91 
Q 1441 -91 1130 -33 
Q 819 25 488 141 
L 488 750 
Q 750 597 1062 519 
Q 1375 441 1716 441 
Q 2309 441 2620 675 
Q 2931 909 2931 1356 
Q 2931 1769 2642 2001 
Q 2353 2234 1838 2234 
L 1294 2234 
L 1294 2753 
L 1863 2753 
Q 2328 2753 2575 2939 
Q 2822 3125 2822 3475 
Q 2822 3834 2567 4026 
Q 2313 4219 1838 4219 
Q 1578 4219 1281 4162 
Q 984 4106 628 3988 
L 628 4550 
Q 988 4650 1302 4700 
Q 1616 4750 1894 4750 
Q 2613 4750 3031 4423 
Q 3450 4097 3450 3541 
Q 3450 3153 3228 2886 
Q 3006 2619 2597 2516 
z
" transform="scale(0.015625)"/>
        <path id="DejaVuSans-35" d="M 691 4666 
L 3169 4666 
L 3169 4134 
L 1269 4134 
L 1269 2991 
Q 1406 3038 1543 3061 
Q 1681 3084 1819 3084 
Q 2600 3084 3056 2656 
Q 3513 2228 3513 1497 
Q 3513 744 3044 326 
Q 2575 -91 1722 -91 
Q 1428 -91 1123 -41 
Q 819 9 494 109 
L 494 744 
Q 775 591 1075 516 
Q 1375 441 1709 441 
Q 2250 441 2565 725 
Q 2881 1009 2881 1497 
Q 2881 1984 2565 2268 
Q 2250 2553 1709 2553 
Q 1456 2553 1204 2497 
Q 953 2441 691 2322 
L 691 4666 
z
" transform="scale(0.015625)"/>
       </defs>
       <use xlink:href="#DejaVuSans-2212"/>
       <use xlink:href="#DejaVuSans-33" transform="translate(83.789062 0)"/>
       <use xlink:href="#DejaVuSans-35" transform="translate(147.412109 0)"/>
       <use xlink:href="#DejaVuSans-30" transform="translate(211.035156 0)"/>
       <use xlink:href="#DejaVuSans-30" transform="translate(274.658203 0)"/>
      </g>
     </g>
    </g>
    <g id="xtick_3">
     <g id="line2d_3">
      <g>
       <use xlink:href="#mf3284dad98" x="211.084804" y="284.4" style="stroke: #000000; stroke-width: 0.8"/>
      </g>
     </g>
     <g id="text_3">
      <!-- −3000 -->
      <g transform="translate(194.16996 298.998438) scale(0.1 -0.1)">
       <use xlink:href="#DejaVuSans-2212"/>
       <use xlink:href="#DejaVuSans-33" transform="translate(83.789062 0)"/>
       <use xlink:href="#DejaVuSans-30" transform="translate(147.412109 0)"/>
       <use xlink:href="#DejaVuSans-30" transform="translate(211.035156 0)"/>
       <use xlink:href="#DejaVuSans-30" transform="translate(274.658203 0)"/>
      </g>
     </g>
    </g>
    <g id="xtick_4">
     <g id="line2d_4">
      <g>
       <use xlink:href="#mf3284dad98" x="288.50888" y="284.4" style="stroke: #000000; stroke-width: 0.8"/>
      </g>
     </g>
     <g id="text_4">
      <!-- −2500 -->
      <g transform="translate(271.594036 298.998438) scale(0.1 -0.1)">
       <defs>
        <path id="DejaVuSans-32" d="M 1228 531 
L 3431 531 
L 3431 0 
L 469 0 
L 469 531 
Q 828 903 1448 1529 
Q 2069 2156 2228 2338 
Q 2531 2678 2651 2914 
Q 2772 3150 2772 3378 
Q 2772 3750 2511 3984 
Q 2250 4219 1831 4219 
Q 1534 4219 1204 4116 
Q 875 4013 500 3803 
L 500 4441 
Q 881 4594 1212 4672 
Q 1544 4750 1819 4750 
Q 2544 4750 2975 4387 
Q 3406 4025 3406 3419 
Q 3406 3131 3298 2873 
Q 3191 2616 2906 2266 
Q 2828 2175 2409 1742 
Q 1991 1309 1228 531 
z
" transform="scale(0.015625)"/>
       </defs>
       <use xlink:href="#DejaVuSans-2212"/>
       <use xlink:href="#DejaVuSans-32" transform="translate(83.789062 0)"/>
       <use xlink:href="#DejaVuSans-35" transform="translate(147.412109 0)"/>
       <use xlink:href="#DejaVuSans-30" transform="translate(211.035156 0)"/>
       <use xlink:href="#DejaVuSans-30" transform="translate(274.658203 0)"/>
      </g>
     </g>
    </g>
    <g id="xtick_5">
     <g id="line2d_5">
      <g>
       <use xlink:href="#mf3284dad98" x="365.932956" y="284.4" style="stroke: #000000; stroke-width: 0.8"/>
      </g>
     </g>
     <g id="text_5">
      <!-- −2000 -->
      <g transform="translate(349.018113 298.998438) scale(0.1 -0.1)">
       <use xlink:href="#DejaVuSans-2212"/>
       <use xlink:href="#DejaVuSans-32" transform="translate(83.789062 0)"/>
       <use xlink:href="#DejaVuSans-30" transform="translate(147.412109 0)"/>
       <use xlink:href="#DejaVuSans-30" transform="translate(211.035156 0)"/>
       <use xlink:href="#DejaVuSans-30" transform="translate(274.658203 0)"/>
      </g>
     </g>
    </g>
    <g id="xtick_6">
     <g id="line2d_6">
      <g>
       <use xlink:href="#mf3284dad98" x="443.357033" y="284.4" style="stroke: #000000; stroke-width: 0.8"/>
      </g>
     </g>
     <g id="text_6">
      <!-- −1500 -->
      <g transform="translate(426.442189 298.998438) scale(0.1 -0.1)">
       <defs>
        <path id="DejaVuSans-31" d="M 794 531 
L 1825 531 
L 1825 4091 
L 703 3866 
L 703 4441 
L 1819 4666 
L 2450 4666 
L 2450 531 
L 3481 531 
L 3481 0 
L 794 0 
L 794 531 
z
" transform="scale(0.015625)"/>
       </defs>
       <use xlink:href="#DejaVuSans-2212"/>
       <use xlink:href="#DejaVuSans-31" transform="translate(83.789062 0)"/>
       <use xlink:href="#DejaVuSans-35" transform="translate(147.412109 0)"/>
       <use xlink:href="#DejaVuSans-30" transform="translate(211.035156 0)"/>
       <use xlink:href="#DejaVuSans-30" transform="translate(274.658203 0)"/>
      </g>
     </g>
    </g>
    <g id="xtick_7">
     <g id="line2d_7">
      <g>
       <use xlink:href="#mf3284dad98" x="520.781109" y="284.4" style="stroke: #000000; stroke-width: 0.8"/>
      </g>
     </g>
     <g id="text_7">
      <!-- −1000 -->
      <g transform="translate(503.866265 298.998438) scale(0.1 -0.1)">
       <use xlink:href="#DejaVuSans-2212"/>
       <use xlink:href="#DejaVuSans-31" transform="translate(83.789062 0)"/>
       <use xlink:href="#DejaVuSans-30" transform="translate(147.412109 0)"/>
       <use xlink:href="#DejaVuSans-30" transform="translate(211.035156 0)"/>
       <use xlink:href="#DejaVuSans-30" transform="translate(274.658203 0)"/>
      </g>
     </g>
    </g>
    <g id="xtick_8">
     <g id="line2d_8">
      <g>
       <use xlink:href="#mf3284dad98" x="598.205185" y="284.4" style="stroke: #000000; stroke-width: 0.8"/>
      </g>
     </g>
     <g id="text_8">
      <!-- −500 -->
      <g transform="translate(584.471591 298.998438) scale(0.1 -0.1)">
       <use xlink:href="#DejaVuSans-2212"/>
       <use xlink:href="#DejaVuSans-35" transform="translate(83.789062 0)"/>
       <use xlink:href="#DejaVuSans-30" transform="translate(147.412109 0)"/>
       <use xlink:href="#DejaVuSans-30" transform="translate(211.035156 0)"/>
      </g>
     </g>
    </g>
    <g id="xtick_9">
     <g id="line2d_9">
      <g>
       <use xlink:href="#mf3284dad98" x="675.629261" y="284.4" style="stroke: #000000; stroke-width: 0.8"/>
      </g>
     </g>
     <g id="text_9">
      <!-- 0 -->
      <g transform="translate(672.448011 298.998438) scale(0.1 -0.1)">
       <use xlink:href="#DejaVuSans-30"/>
      </g>
     </g>
    </g>
   </g>
   <g id="matplotlib.axis_2">
    <g id="ytick_1">
     <g id="line2d_10">
      <defs>
       <path id="m50f67fc30f" d="M 0 0 
L -3.5 0 
" style="stroke: #000000; stroke-width: 0.8"/>
      </defs>
      <g>
       <use xlink:href="#m50f67fc30f" x="36.465625" y="237.417222" style="stroke: #000000; stroke-width: 0.8"/>
      </g>
     </g>
     <g id="text_10">
      <!-- 0.01 -->
      <g transform="translate(7.2 241.216441) scale(0.1 -0.1)">
       <defs>
        <path id="DejaVuSans-2e" d="M 684 794 
L 1344 794 
L 1344 0 
L 684 0 
L 684 794 
z
" transform="scale(0.015625)"/>
       </defs>
       <use xlink:href="#DejaVuSans-30"/>
       <use xlink:href="#DejaVuSans-2e" transform="translate(63.623047 0)"/>
       <use xlink:href="#DejaVuSans-30" transform="translate(95.410156 0)"/>
       <use xlink:href="#DejaVuSans-31" transform="translate(159.033203 0)"/>
      </g>
     </g>
    </g>
    <g id="ytick_2">
     <g id="line2d_11">
      <g>
       <use xlink:href="#m50f67fc30f" x="36.465625" y="189.989276" style="stroke: #000000; stroke-width: 0.8"/>
      </g>
     </g>
     <g id="text_11">
      <!-- 0.02 -->
      <g transform="translate(7.2 193.788495) scale(0.1 -0.1)">
       <use xlink:href="#DejaVuSans-30"/>
       <use xlink:href="#DejaVuSans-2e" transform="translate(63.623047 0)"/>
       <use xlink:href="#DejaVuSans-30" transform="translate(95.410156 0)"/>
       <use xlink:href="#DejaVuSans-32" transform="translate(159.033203 0)"/>
      </g>
     </g>
    </g>
    <g id="ytick_3">
     <g id="line2d_12">
      <g>
       <use xlink:href="#m50f67fc30f" x="36.465625" y="142.56133" style="stroke: #000000; stroke-width: 0.8"/>
      </g>
     </g>
     <g id="text_12">
      <!-- 0.03 -->
      <g transform="translate(7.2 146.360549) scale(0.1 -0.1)">
       <use xlink:href="#DejaVuSans-30"/>
       <use xlink:href="#DejaVuSans-2e" transform="translate(63.623047 0)"/>
       <use xlink:href="#DejaVuSans-30" transform="translate(95.410156 0)"/>
       <use xlink:href="#DejaVuSans-33" transform="translate(159.033203 0)"/>
      </g>
     </g>
    </g>
    <g id="ytick_4">
     <g id="line2d_13">
      <g>
       <use xlink:href="#m50f67fc30f" x="36.465625" y="95.133384" style="stroke: #000000; stroke-width: 0.8"/>
      </g>
     </g>
     <g id="text_13">
      <!-- 0.04 -->
      <g transform="translate(7.2 98.932603) scale(0.1 -0.1)">
       <use xlink:href="#DejaVuSans-30"/>
       <use xlink:href="#DejaVuSans-2e" transform="translate(63.623047 0)"/>
       <use xlink:href="#DejaVuSans-30" transform="translate(95.410156 0)"/>
       <use xlink:href="#DejaVuSans-34" transform="translate(159.033203 0)"/>
      </g>
     </g>
    </g>
    <g id="ytick_5">
     <g id="line2d_14">
      <g>
       <use xlink:href="#m50f67fc30f" x="36.465625" y="47.705438" style="stroke: #000000; stroke-width: 0.8"/>
      </g>
     </g>
     <g id="text_14">
      <!-- 0.05 -->
      <g transform="translate(7.2 51.504657) scale(0.1 -0.1)">
       <use xlink:href="#DejaVuSans-30"/>
       <use xlink:href="#DejaVuSans-2e" transform="translate(63.623047 0)"/>
       <use xlink:href="#DejaVuSans-30" transform="translate(95.410156 0)"/>
       <use xlink:href="#DejaVuSans-35" transform="translate(159.033203 0)"/>
      </g>
     </g>
    </g>
   </g>
   <g id="line2d_15">
    <path d="M 66.901989 271.8 
L 73.554746 271.425131 
L 75.345873 271.124455 
L 77.137 270.615663 
L 80.207503 269.455297 
L 83.533881 268.286365 
L 86.092634 267.352328 
L 87.627886 266.578949 
L 89.163137 265.559784 
L 90.698389 264.288434 
L 92.745391 262.267987 
L 95.048269 259.65632 
L 97.095271 257.012908 
L 99.142273 253.980158 
L 104.259778 245.987893 
L 105.283279 244.874891 
L 106.306781 244.112745 
L 107.074406 243.8033 
L 107.842032 243.731983 
L 108.609658 243.900358 
L 109.377284 244.300329 
L 110.400785 245.163396 
L 111.424286 246.346824 
L 112.703662 248.160086 
L 115.262415 252.303144 
L 117.821168 256.321631 
L 119.86817 259.128259 
L 121.659297 261.248401 
L 123.450424 263.053957 
L 125.241551 264.543026 
L 127.032678 265.730171 
L 129.07968 266.789701 
L 132.150183 268.071885 
L 135.732437 269.362514 
L 138.035314 269.961598 
L 140.338192 270.331069 
L 144.688071 270.733006 
L 148.270325 270.897255 
L 151.084953 270.772113 
L 158.505336 270.070483 
L 160.552338 269.63078 
L 162.59934 268.955367 
L 166.94922 267.176767 
L 170.019723 265.802808 
L 171.81085 264.736307 
L 173.346102 263.564895 
L 175.137229 261.884701 
L 177.184231 259.606738 
L 179.231233 256.999335 
L 181.278235 254.04195 
L 183.836988 249.882988 
L 186.395741 245.773327 
L 187.675117 244.111373 
L 188.698618 243.126218 
L 189.466244 242.634975 
L 190.23387 242.378498 
L 191.001496 242.366565 
L 191.769122 242.598596 
L 192.536747 243.063889 
L 193.560248 244.011777 
L 194.583749 245.271742 
L 196.119001 247.568986 
L 202.004132 256.888145 
L 203.795259 259.173151 
L 205.586386 261.12085 
L 207.377513 262.737898 
L 209.16864 264.052245 
L 211.215642 265.262736 
L 213.774395 266.505053 
L 216.589023 267.636507 
L 218.8919 268.331865 
L 221.194778 268.799847 
L 224.521156 269.219896 
L 227.847535 269.44215 
L 230.406288 269.398381 
L 233.988541 269.080655 
L 237.826671 268.564842 
L 239.873673 268.07794 
L 241.920675 267.365603 
L 244.735303 266.121626 
L 248.061681 264.422724 
L 249.852808 263.285651 
L 251.38806 262.08164 
L 253.179187 260.361856 
L 254.970314 258.313237 
L 257.017316 255.612203 
L 259.064318 252.544957 
L 261.623071 248.279924 
L 264.181824 244.109332 
L 265.4612 242.434841 
L 266.484701 241.451163 
L 267.252327 240.968867 
L 268.019953 240.72832 
L 268.787578 240.738957 
L 269.555204 240.999279 
L 270.32283 241.497164 
L 271.346331 242.492186 
L 272.625708 244.16542 
L 274.416834 247.011892 
L 278.766714 254.153846 
L 280.813716 256.979265 
L 282.604843 259.073487 
L 284.39597 260.823157 
L 286.187097 262.263764 
L 288.234099 263.610508 
L 290.536977 264.850813 
L 292.839854 265.849882 
L 295.142732 266.596215 
L 297.445609 267.109476 
L 300.260237 267.51426 
L 303.074865 267.7079 
L 305.633618 267.655573 
L 308.704121 267.349271 
L 311.774624 266.840166 
L 313.821626 266.300871 
L 315.868629 265.53087 
L 318.171506 264.418129 
L 320.730259 262.951466 
L 322.777261 261.543508 
L 324.568388 260.026215 
L 326.359515 258.170542 
L 328.150642 255.97035 
L 330.197644 253.070821 
L 332.500521 249.370439 
L 337.106276 241.660655 
L 338.385653 240.087293 
L 339.409154 239.229027 
L 340.176779 238.861985 
L 340.944405 238.749638 
L 341.712031 238.897005 
L 342.479657 239.299233 
L 343.247283 239.938148 
L 344.270784 241.110242 
L 345.55016 242.973987 
L 347.853038 246.889756 
L 350.667666 251.575909 
L 352.714668 254.532176 
L 354.505795 256.761807 
L 356.296922 258.659403 
L 358.088048 260.240468 
L 360.135051 261.725994 
L 362.182053 262.920972 
L 364.229055 263.847128 
L 366.276057 264.528065 
L 368.578935 265.054646 
L 371.393563 265.443798 
L 373.952315 265.573329 
L 376.255193 265.461575 
L 378.813946 265.110919 
L 381.116823 264.602064 
L 383.163825 263.936379 
L 385.210827 263.0208 
L 387.25783 261.860028 
L 389.304832 260.462691 
L 391.095959 259.006297 
L 392.887086 257.262304 
L 394.678212 255.170572 
L 396.469339 252.715155 
L 398.516341 249.500825 
L 401.075094 245.021643 
L 403.889722 240.158816 
L 405.169099 238.370454 
L 406.1926 237.302772 
L 406.960225 236.766267 
L 407.727851 236.482452 
L 408.495477 236.463093 
L 409.263103 236.707928 
L 410.030729 237.204831 
L 411.05423 238.219063 
L 412.077731 239.564727 
L 413.612983 242.007402 
L 419.242239 251.447572 
L 421.033365 253.869212 
L 422.824492 255.918123 
L 424.615619 257.625717 
L 426.406746 259.037048 
L 428.197873 260.188634 
L 429.989 261.104263 
L 432.036002 261.889777 
L 434.083004 262.4338 
L 436.130007 262.764086 
L 438.177009 262.883743 
L 440.224011 262.790578 
L 442.526888 262.448865 
L 444.573891 261.939893 
L 446.620893 261.197705 
L 448.41202 260.318936 
L 450.203146 259.211842 
L 451.994273 257.8717 
L 453.7854 256.271634 
L 455.576527 254.354564 
L 457.367654 252.06561 
L 459.158781 249.390599 
L 461.205783 245.910843 
L 466.835039 235.9821 
L 467.85854 234.738445 
L 468.626166 234.060447 
L 469.393792 233.63307 
L 470.161418 233.474379 
L 470.929044 233.590239 
L 471.696669 233.973882 
L 472.464295 234.606629 
L 473.487796 235.787246 
L 474.767173 237.680708 
L 476.814175 241.240936 
L 480.140553 247.029715 
L 481.93168 249.721445 
L 483.722807 252.024977 
L 485.513934 253.949254 
L 487.305061 255.524973 
L 489.096188 256.785209 
L 490.887315 257.759544 
L 492.678442 258.477071 
L 494.469569 258.963504 
L 496.260696 259.232453 
L 498.051822 259.28709 
L 499.842949 259.130456 
L 501.634076 258.767432 
L 503.425203 258.192473 
L 505.21633 257.382012 
L 507.007457 256.306211 
L 508.798584 254.943339 
L 510.589711 253.272855 
L 512.380838 251.258256 
L 514.171965 248.853076 
L 515.963091 246.035573 
L 518.010094 242.359643 
L 523.383474 232.370583 
L 524.406975 231.01989 
L 525.430477 230.068932 
L 526.198102 229.660726 
L 526.965728 229.533362 
L 527.733354 229.690272 
L 528.50098 230.121686 
L 529.268606 230.805777 
L 530.292107 232.055168 
L 531.571483 234.026546 
L 533.618485 237.676876 
L 536.688989 243.101102 
L 538.480115 245.835702 
L 540.271242 248.156011 
L 541.806494 249.811822 
L 543.341746 251.174193 
L 544.876997 252.254735 
L 546.412249 253.077722 
L 547.947501 253.666223 
L 549.482752 254.032891 
L 551.018004 254.184458 
L 552.553255 254.123927 
L 554.088507 253.853087 
L 555.623759 253.370351 
L 557.15901 252.666177 
L 558.694262 251.724773 
L 560.229514 250.514273 
L 561.764765 249.008338 
L 563.300017 247.207715 
L 564.835268 245.090587 
L 566.626395 242.20164 
L 568.417522 238.880653 
L 570.976275 233.613644 
L 573.535028 228.454349 
L 574.814404 226.324923 
L 575.837905 225.016833 
L 576.605531 224.326125 
L 577.373157 223.915105 
L 578.140783 223.798428 
L 578.908408 223.976963 
L 579.676034 224.437731 
L 580.44366 225.155379 
L 581.467161 226.450249 
L 582.746538 228.470706 
L 585.30529 233.098758 
L 587.608168 237.067273 
L 589.399295 239.738711 
L 590.934546 241.662692 
L 592.469798 243.234021 
L 594.00505 244.458814 
L 595.284426 245.218983 
L 596.563802 245.736035 
L 597.843179 246.03202 
L 599.122555 246.111153 
L 600.401931 245.975539 
L 601.681308 245.625011 
L 602.960684 245.056762 
L 604.24006 244.261689 
L 605.519437 243.218431 
L 607.054688 241.640135 
L 608.58994 239.689179 
L 610.125192 237.35103 
L 611.660443 234.621934 
L 613.45157 230.951674 
L 616.010323 225.090799 
L 618.569076 219.33938 
L 619.848452 216.943789 
L 620.871953 215.442134 
L 621.639579 214.622914 
L 622.407205 214.096306 
L 623.174831 213.874653 
L 623.942456 213.955836 
L 624.710082 214.32336 
L 625.477708 214.947659 
L 626.501209 216.097781 
L 627.780585 217.914892 
L 633.153966 226.101641 
L 634.433343 227.494074 
L 635.712719 228.541804 
L 636.992095 229.307345 
L 638.015596 229.668311 
L 639.039097 229.781621 
L 640.062599 229.646067 
L 641.0861 229.264555 
L 642.109601 228.672153 
L 643.133102 227.823088 
L 644.156603 226.710456 
L 645.435979 224.94136 
L 646.715356 222.735439 
L 648.250607 219.624351 
L 649.529984 216.651322 
L 650.80936 212.900103 
L 653.112237 205.675754 
L 656.950366 192.993845 
L 659.509119 186.44194 
L 660.53262 184.491116 
L 661.044371 183.754652 
L 661.556121 182.628968 
L 662.579622 181.585558 
L 664.626625 178.579199 
L 665.650126 176.759702 
L 666.673627 174.39456 
L 667.697128 171.278484 
L 668.976504 165.960139 
L 669.74413 161.61461 
L 670.511756 156.081248 
L 671.023506 151.251853 
L 671.791132 140.956134 
L 672.558758 126.039706 
L 673.326384 106.191764 
L 674.09401 81.671237 
L 674.861636 50.964178 
L 675.629261 19.8 
L 675.629261 19.8 
" clip-path="url(#p27dbdbadd8)" style="fill: none; stroke: #1f77b4; stroke-width: 1.5; stroke-linecap: square"/>
   </g>
   <g id="line2d_16">
    <path d="M 36.465625 182.124563 
L 706.065625 182.124563 
" clip-path="url(#p27dbdbadd8)" style="fill: none; stroke-dasharray: 2.22,0.96; stroke-dashoffset: 0; stroke: #ff0000; stroke-width: 0.6"/>
   </g>
   <g id="line2d_17">
    <path d="M 66.901989 271.8 
L 73.554746 271.425131 
L 75.345873 271.124455 
L 77.137 270.615663 
L 80.207503 269.455297 
L 83.533881 268.286365 
L 86.092634 267.352328 
L 87.627886 266.578949 
L 89.163137 265.559784 
L 90.698389 264.288434 
L 92.745391 262.267987 
L 95.048269 259.65632 
L 97.095271 257.012908 
L 99.142273 253.980158 
L 104.259778 245.987893 
L 105.283279 244.874891 
L 106.306781 244.112745 
L 107.074406 243.8033 
L 107.842032 243.731983 
L 108.609658 243.900358 
L 109.377284 244.300329 
L 110.400785 245.163396 
L 111.424286 246.346824 
L 112.703662 248.160086 
L 115.262415 252.303144 
L 117.821168 256.321631 
L 119.86817 259.128259 
L 121.659297 261.248401 
L 123.450424 263.053957 
L 125.241551 264.543026 
L 127.032678 265.730171 
L 129.07968 266.789701 
L 132.150183 268.071885 
L 135.732437 269.362514 
L 138.035314 269.961598 
L 140.338192 270.331069 
L 144.688071 270.733006 
L 148.270325 270.897255 
L 151.084953 270.772113 
L 158.505336 270.070483 
L 160.552338 269.63078 
L 162.59934 268.955367 
L 166.94922 267.176767 
L 170.019723 265.802808 
L 171.81085 264.736307 
L 173.346102 263.564895 
L 175.137229 261.884701 
L 177.184231 259.606738 
L 179.231233 256.999335 
L 181.278235 254.04195 
L 183.836988 249.882988 
L 186.395741 245.773327 
L 187.675117 244.111373 
L 188.698618 243.126218 
L 189.466244 242.634975 
L 190.23387 242.378498 
L 191.001496 242.366565 
L 191.769122 242.598596 
L 192.536747 243.063889 
L 193.560248 244.011777 
L 194.583749 245.271742 
L 196.119001 247.568986 
L 202.004132 256.888145 
L 203.795259 259.173151 
L 205.586386 261.12085 
L 207.377513 262.737898 
L 209.16864 264.052245 
L 211.215642 265.262736 
L 213.774395 266.505053 
L 216.589023 267.636507 
L 218.8919 268.331865 
L 221.194778 268.799847 
L 224.521156 269.219896 
L 227.847535 269.44215 
L 230.406288 269.398381 
L 233.988541 269.080655 
L 237.826671 268.564842 
L 239.873673 268.07794 
L 241.920675 267.365603 
L 244.735303 266.121626 
L 248.061681 264.422724 
L 249.852808 263.285651 
L 251.38806 262.08164 
L 253.179187 260.361856 
L 254.970314 258.313237 
L 257.017316 255.612203 
L 259.064318 252.544957 
L 261.623071 248.279924 
L 264.181824 244.109332 
L 265.4612 242.434841 
L 266.484701 241.451163 
L 267.252327 240.968867 
L 268.019953 240.72832 
L 268.787578 240.738957 
L 269.555204 240.999279 
L 270.32283 241.497164 
L 271.346331 242.492186 
L 272.625708 244.16542 
L 274.416834 247.011892 
L 278.766714 254.153846 
L 280.813716 256.979265 
L 282.604843 259.073487 
L 284.39597 260.823157 
L 286.187097 262.263764 
L 288.234099 263.610508 
L 290.536977 264.850813 
L 292.839854 265.849882 
L 295.142732 266.596215 
L 297.445609 267.109476 
L 300.260237 267.51426 
L 303.074865 267.7079 
L 305.633618 267.655573 
L 308.704121 267.349271 
L 311.774624 266.840166 
L 313.821626 266.300871 
L 315.868629 265.53087 
L 318.171506 264.418129 
L 320.730259 262.951466 
L 322.777261 261.543508 
L 324.568388 260.026215 
L 326.359515 258.170542 
L 328.150642 255.97035 
L 330.197644 253.070821 
L 332.500521 249.370439 
L 337.106276 241.660655 
L 338.385653 240.087293 
L 339.409154 239.229027 
L 340.176779 238.861985 
L 340.944405 238.749638 
L 341.712031 238.897005 
L 342.479657 239.299233 
L 343.247283 239.938148 
L 344.270784 241.110242 
L 345.55016 242.973987 
L 347.853038 246.889756 
L 350.667666 251.575909 
L 352.714668 254.532176 
L 354.505795 256.761807 
L 356.296922 258.659403 
L 358.088048 260.240468 
L 360.135051 261.725994 
L 362.182053 262.920972 
L 364.229055 263.847128 
L 366.276057 264.528065 
L 368.578935 265.054646 
L 371.393563 265.443798 
L 373.952315 265.573329 
L 376.255193 265.461575 
L 378.813946 265.110919 
L 381.116823 264.602064 
L 383.163825 263.936379 
L 385.210827 263.0208 
L 387.25783 261.860028 
L 389.304832 260.462691 
L 391.095959 259.006297 
L 392.887086 257.262304 
L 394.678212 255.170572 
L 396.469339 252.715155 
L 398.516341 249.500825 
L 401.075094 245.021643 
L 403.889722 240.158816 
L 405.169099 238.370454 
L 406.1926 237.302772 
L 406.960225 236.766267 
L 407.727851 236.482452 
L 408.495477 236.463093 
L 409.263103 236.707928 
L 410.030729 237.204831 
L 411.05423 238.219063 
L 412.077731 239.564727 
L 413.612983 242.007402 
L 419.242239 251.447572 
L 421.033365 253.869212 
L 422.824492 255.918123 
L 424.615619 257.625717 
L 426.406746 259.037048 
L 428.197873 260.188634 
L 429.989 261.104263 
L 432.036002 261.889777 
L 434.083004 262.4338 
L 436.130007 262.764086 
L 438.177009 262.883743 
L 440.224011 262.790578 
L 442.526888 262.448865 
L 444.573891 261.939893 
L 446.620893 261.197705 
L 448.41202 260.318936 
L 450.203146 259.211842 
L 451.994273 257.8717 
L 453.7854 256.271634 
L 455.576527 254.354564 
L 457.367654 252.06561 
L 459.158781 249.390599 
L 461.205783 245.910843 
L 466.835039 235.9821 
L 467.85854 234.738445 
L 468.626166 234.060447 
L 469.393792 233.63307 
L 470.161418 233.474379 
L 470.929044 233.590239 
L 471.696669 233.973882 
L 472.464295 234.606629 
L 473.487796 235.787246 
L 474.767173 237.680708 
L 476.814175 241.240936 
L 480.140553 247.029715 
L 481.93168 249.721445 
L 483.722807 252.024977 
L 485.513934 253.949254 
L 487.305061 255.524973 
L 489.096188 256.785209 
L 490.887315 257.759544 
L 492.678442 258.477071 
L 494.469569 258.963504 
L 496.260696 259.232453 
L 498.051822 259.28709 
L 499.842949 259.130456 
L 501.634076 258.767432 
L 503.425203 258.192473 
L 505.21633 257.382012 
L 507.007457 256.306211 
L 508.798584 254.943339 
L 510.589711 253.272855 
L 512.380838 251.258256 
L 514.171965 248.853076 
L 515.963091 246.035573 
L 518.010094 242.359643 
L 523.383474 232.370583 
L 524.406975 231.01989 
L 525.430477 230.068932 
L 526.198102 229.660726 
L 526.965728 229.533362 
L 527.733354 229.690272 
L 528.50098 230.121686 
L 529.268606 230.805777 
L 530.292107 232.055168 
L 531.571483 234.026546 
L 533.618485 237.676876 
L 536.688989 243.101102 
L 538.480115 245.835702 
L 540.271242 248.156011 
L 541.806494 249.811822 
L 543.341746 251.174193 
L 544.876997 252.254735 
L 546.412249 253.077722 
L 547.947501 253.666223 
L 549.482752 254.032891 
L 551.018004 254.184458 
L 552.553255 254.123927 
L 554.088507 253.853087 
L 555.623759 253.370351 
L 557.15901 252.666177 
L 558.694262 251.724773 
L 560.229514 250.514273 
L 561.764765 249.008338 
L 563.300017 247.207715 
L 564.835268 245.090587 
L 566.626395 242.20164 
L 568.417522 238.880653 
L 570.976275 233.613644 
L 573.535028 228.454349 
L 574.814404 226.324923 
L 575.837905 225.016833 
L 576.605531 224.326125 
L 577.373157 223.915105 
L 578.140783 223.798428 
L 578.908408 223.976963 
L 579.676034 224.437731 
L 580.44366 225.155379 
L 581.467161 226.450249 
L 582.746538 228.470706 
L 585.30529 233.098758 
L 587.608168 237.067273 
L 589.399295 239.738711 
L 590.934546 241.662692 
L 592.469798 243.234021 
L 594.00505 244.458814 
L 595.284426 245.218983 
L 596.563802 245.736035 
L 597.843179 246.03202 
L 599.122555 246.111153 
L 600.401931 245.975539 
L 601.681308 245.625011 
L 602.960684 245.056762 
L 604.24006 244.261689 
L 605.519437 243.218431 
L 607.054688 241.640135 
L 608.58994 239.689179 
L 610.125192 237.35103 
L 611.660443 234.621934 
L 613.45157 230.951674 
L 616.010323 225.090799 
L 618.569076 219.33938 
L 619.848452 216.943789 
L 620.871953 215.442134 
L 621.639579 214.622914 
L 622.407205 214.096306 
L 623.174831 213.874653 
L 623.942456 213.955836 
L 624.710082 214.32336 
L 625.477708 214.947659 
L 626.501209 216.097781 
L 627.780585 217.914892 
L 633.153966 226.101641 
L 634.433343 227.494074 
L 635.712719 228.541804 
L 636.992095 229.307345 
L 638.015596 229.668311 
L 639.039097 229.781621 
L 640.062599 229.646067 
L 641.0861 229.264555 
L 642.109601 228.672153 
L 643.133102 227.823088 
L 644.156603 226.710456 
L 645.435979 224.94136 
L 646.715356 222.735439 
L 648.250607 219.624351 
L 649.529984 216.651322 
L 650.80936 212.900103 
L 653.112237 205.675754 
L 656.950366 192.993845 
L 659.509119 186.44194 
L 660.53262 184.491116 
L 661.044371 183.754652 
L 661.556121 182.628968 
L 662.067872 182.167553 
L 662.067872 182.167553 
" clip-path="url(#p27dbdbadd8)" style="fill: none; stroke: #ff7f0e; stroke-width: 1.5; stroke-linecap: square"/>
   </g>
   <g id="patch_3">
    <path d="M 36.465625 284.4 
L 36.465625 7.2 
" style="fill: none; stroke: #000000; stroke-width: 0.8; stroke-linejoin: miter; stroke-linecap: square"/>
   </g>
   <g id="patch_4">
    <path d="M 706.065625 284.4 
L 706.065625 7.2 
" style="fill: none; stroke: #000000; stroke-width: 0.8; stroke-linejoin: miter; stroke-linecap: square"/>
   </g>
   <g id="patch_5">
    <path d="M 36.465625 284.4 
L 706.065625 284.4 
" style="fill: none; stroke: #000000; stroke-width: 0.8; stroke-linejoin: miter; stroke-linecap: square"/>
   </g>
   <g id="patch_6">
    <path d="M 36.465625 7.2 
L 706.065625 7.2 
" style="fill: none; stroke: #000000; stroke-width: 0.8; stroke-linejoin: miter; stroke-linecap: square"/>
   </g>
   <g id="legend_1">
    <g id="patch_7">
     <path d="M 43.465625 73.9125 
L 206.465625 73.9125 
Q 208.465625 73.9125 208.465625 71.9125 
L 208.465625 14.2 
Q 208.465625 12.2 206.465625 12.2 
L 43.465625 12.2 
Q 41.465625 12.2 41.465625 14.2 
L 41.465625 71.9125 
Q 41.465625 73.9125 43.465625 73.9125 
z
" style="fill: #ffffff; opacity: 0.8; stroke: #cccccc; stroke-linejoin: miter"/>
    </g>
    <g id="line2d_18">
     <path d="M 45.465625 20.298438 
L 55.465625 20.298438 
L 65.465625 20.298438 
" style="fill: none; stroke: #1f77b4; stroke-width: 1.5; stroke-linecap: square"/>
    </g>
    <g id="text_15">
     <!-- Mf before ISCO cut: $e$=0.3 -->
     <g transform="translate(73.465625 23.798438) scale(0.1 -0.1)">
      <defs>
       <path id="DejaVuSans-4d" d="M 628 4666 
L 1569 4666 
L 2759 1491 
L 3956 4666 
L 4897 4666 
L 4897 0 
L 4281 0 
L 4281 4097 
L 3078 897 
L 2444 897 
L 1241 4097 
L 1241 0 
L 628 0 
L 628 4666 
z
" transform="scale(0.015625)"/>
       <path id="DejaVuSans-66" d="M 2375 4863 
L 2375 4384 
L 1825 4384 
Q 1516 4384 1395 4259 
Q 1275 4134 1275 3809 
L 1275 3500 
L 2222 3500 
L 2222 3053 
L 1275 3053 
L 1275 0 
L 697 0 
L 697 3053 
L 147 3053 
L 147 3500 
L 697 3500 
L 697 3744 
Q 697 4328 969 4595 
Q 1241 4863 1831 4863 
L 2375 4863 
z
" transform="scale(0.015625)"/>
       <path id="DejaVuSans-20" transform="scale(0.015625)"/>
       <path id="DejaVuSans-62" d="M 3116 1747 
Q 3116 2381 2855 2742 
Q 2594 3103 2138 3103 
Q 1681 3103 1420 2742 
Q 1159 2381 1159 1747 
Q 1159 1113 1420 752 
Q 1681 391 2138 391 
Q 2594 391 2855 752 
Q 3116 1113 3116 1747 
z
M 1159 2969 
Q 1341 3281 1617 3432 
Q 1894 3584 2278 3584 
Q 2916 3584 3314 3078 
Q 3713 2572 3713 1747 
Q 3713 922 3314 415 
Q 2916 -91 2278 -91 
Q 1894 -91 1617 61 
Q 1341 213 1159 525 
L 1159 0 
L 581 0 
L 581 4863 
L 1159 4863 
L 1159 2969 
z
" transform="scale(0.015625)"/>
       <path id="DejaVuSans-65" d="M 3597 1894 
L 3597 1613 
L 953 1613 
Q 991 1019 1311 708 
Q 1631 397 2203 397 
Q 2534 397 2845 478 
Q 3156 559 3463 722 
L 3463 178 
Q 3153 47 2828 -22 
Q 2503 -91 2169 -91 
Q 1331 -91 842 396 
Q 353 884 353 1716 
Q 353 2575 817 3079 
Q 1281 3584 2069 3584 
Q 2775 3584 3186 3129 
Q 3597 2675 3597 1894 
z
M 3022 2063 
Q 3016 2534 2758 2815 
Q 2500 3097 2075 3097 
Q 1594 3097 1305 2825 
Q 1016 2553 972 2059 
L 3022 2063 
z
" transform="scale(0.015625)"/>
       <path id="DejaVuSans-6f" d="M 1959 3097 
Q 1497 3097 1228 2736 
Q 959 2375 959 1747 
Q 959 1119 1226 758 
Q 1494 397 1959 397 
Q 2419 397 2687 759 
Q 2956 1122 2956 1747 
Q 2956 2369 2687 2733 
Q 2419 3097 1959 3097 
z
M 1959 3584 
Q 2709 3584 3137 3096 
Q 3566 2609 3566 1747 
Q 3566 888 3137 398 
Q 2709 -91 1959 -91 
Q 1206 -91 779 398 
Q 353 888 353 1747 
Q 353 2609 779 3096 
Q 1206 3584 1959 3584 
z
" transform="scale(0.015625)"/>
       <path id="DejaVuSans-72" d="M 2631 2963 
Q 2534 3019 2420 3045 
Q 2306 3072 2169 3072 
Q 1681 3072 1420 2755 
Q 1159 2438 1159 1844 
L 1159 0 
L 581 0 
L 581 3500 
L 1159 3500 
L 1159 2956 
Q 1341 3275 1631 3429 
Q 1922 3584 2338 3584 
Q 2397 3584 2469 3576 
Q 2541 3569 2628 3553 
L 2631 2963 
z
" transform="scale(0.015625)"/>
       <path id="DejaVuSans-49" d="M 628 4666 
L 1259 4666 
L 1259 0 
L 628 0 
L 628 4666 
z
" transform="scale(0.015625)"/>
       <path id="DejaVuSans-53" d="M 3425 4513 
L 3425 3897 
Q 3066 4069 2747 4153 
Q 2428 4238 2131 4238 
Q 1616 4238 1336 4038 
Q 1056 3838 1056 3469 
Q 1056 3159 1242 3001 
Q 1428 2844 1947 2747 
L 2328 2669 
Q 3034 2534 3370 2195 
Q 3706 1856 3706 1288 
Q 3706 609 3251 259 
Q 2797 -91 1919 -91 
Q 1588 -91 1214 -16 
Q 841 59 441 206 
L 441 856 
Q 825 641 1194 531 
Q 1563 422 1919 422 
Q 2459 422 2753 634 
Q 3047 847 3047 1241 
Q 3047 1584 2836 1778 
Q 2625 1972 2144 2069 
L 1759 2144 
Q 1053 2284 737 2584 
Q 422 2884 422 3419 
Q 422 4038 858 4394 
Q 1294 4750 2059 4750 
Q 2388 4750 2728 4690 
Q 3069 4631 3425 4513 
z
" transform="scale(0.015625)"/>
       <path id="DejaVuSans-43" d="M 4122 4306 
L 4122 3641 
Q 3803 3938 3442 4084 
Q 3081 4231 2675 4231 
Q 1875 4231 1450 3742 
Q 1025 3253 1025 2328 
Q 1025 1406 1450 917 
Q 1875 428 2675 428 
Q 3081 428 3442 575 
Q 3803 722 4122 1019 
L 4122 359 
Q 3791 134 3420 21 
Q 3050 -91 2638 -91 
Q 1578 -91 968 557 
Q 359 1206 359 2328 
Q 359 3453 968 4101 
Q 1578 4750 2638 4750 
Q 3056 4750 3426 4639 
Q 3797 4528 4122 4306 
z
" transform="scale(0.015625)"/>
       <path id="DejaVuSans-4f" d="M 2522 4238 
Q 1834 4238 1429 3725 
Q 1025 3213 1025 2328 
Q 1025 1447 1429 934 
Q 1834 422 2522 422 
Q 3209 422 3611 934 
Q 4013 1447 4013 2328 
Q 4013 3213 3611 3725 
Q 3209 4238 2522 4238 
z
M 2522 4750 
Q 3503 4750 4090 4092 
Q 4678 3434 4678 2328 
Q 4678 1225 4090 567 
Q 3503 -91 2522 -91 
Q 1538 -91 948 565 
Q 359 1222 359 2328 
Q 359 3434 948 4092 
Q 1538 4750 2522 4750 
z
" transform="scale(0.015625)"/>
       <path id="DejaVuSans-63" d="M 3122 3366 
L 3122 2828 
Q 2878 2963 2633 3030 
Q 2388 3097 2138 3097 
Q 1578 3097 1268 2742 
Q 959 2388 959 1747 
Q 959 1106 1268 751 
Q 1578 397 2138 397 
Q 2388 397 2633 464 
Q 2878 531 3122 666 
L 3122 134 
Q 2881 22 2623 -34 
Q 2366 -91 2075 -91 
Q 1284 -91 818 406 
Q 353 903 353 1747 
Q 353 2603 823 3093 
Q 1294 3584 2113 3584 
Q 2378 3584 2631 3529 
Q 2884 3475 3122 3366 
z
" transform="scale(0.015625)"/>
       <path id="DejaVuSans-75" d="M 544 1381 
L 544 3500 
L 1119 3500 
L 1119 1403 
Q 1119 906 1312 657 
Q 1506 409 1894 409 
Q 2359 409 2629 706 
Q 2900 1003 2900 1516 
L 2900 3500 
L 3475 3500 
L 3475 0 
L 2900 0 
L 2900 538 
Q 2691 219 2414 64 
Q 2138 -91 1772 -91 
Q 1169 -91 856 284 
Q 544 659 544 1381 
z
M 1991 3584 
L 1991 3584 
z
" transform="scale(0.015625)"/>
       <path id="DejaVuSans-74" d="M 1172 4494 
L 1172 3500 
L 2356 3500 
L 2356 3053 
L 1172 3053 
L 1172 1153 
Q 1172 725 1289 603 
Q 1406 481 1766 481 
L 2356 481 
L 2356 0 
L 1766 0 
Q 1100 0 847 248 
Q 594 497 594 1153 
L 594 3053 
L 172 3053 
L 172 3500 
L 594 3500 
L 594 4494 
L 1172 4494 
z
" transform="scale(0.015625)"/>
       <path id="DejaVuSans-3a" d="M 750 794 
L 1409 794 
L 1409 0 
L 750 0 
L 750 794 
z
M 750 3309 
L 1409 3309 
L 1409 2516 
L 750 2516 
L 750 3309 
z
" transform="scale(0.015625)"/>
       <path id="DejaVuSans-Oblique-65" d="M 3078 2063 
Q 3088 2113 3092 2166 
Q 3097 2219 3097 2272 
Q 3097 2653 2873 2875 
Q 2650 3097 2266 3097 
Q 1838 3097 1509 2826 
Q 1181 2556 1013 2059 
L 3078 2063 
z
M 3578 1613 
L 903 1613 
Q 884 1494 878 1425 
Q 872 1356 872 1306 
Q 872 872 1139 634 
Q 1406 397 1894 397 
Q 2269 397 2603 481 
Q 2938 566 3225 728 
L 3116 159 
Q 2806 34 2476 -28 
Q 2147 -91 1806 -91 
Q 1078 -91 686 257 
Q 294 606 294 1247 
Q 294 1794 489 2264 
Q 684 2734 1063 3103 
Q 1306 3334 1642 3459 
Q 1978 3584 2356 3584 
Q 2950 3584 3301 3228 
Q 3653 2872 3653 2272 
Q 3653 2128 3634 1964 
Q 3616 1800 3578 1613 
z
" transform="scale(0.015625)"/>
       <path id="DejaVuSans-3d" d="M 678 2906 
L 4684 2906 
L 4684 2381 
L 678 2381 
L 678 2906 
z
M 678 1631 
L 4684 1631 
L 4684 1100 
L 678 1100 
L 678 1631 
z
" transform="scale(0.015625)"/>
      </defs>
      <use xlink:href="#DejaVuSans-4d" transform="translate(0 0.015625)"/>
      <use xlink:href="#DejaVuSans-66" transform="translate(86.279297 0.015625)"/>
      <use xlink:href="#DejaVuSans-20" transform="translate(121.484375 0.015625)"/>
      <use xlink:href="#DejaVuSans-62" transform="translate(153.271484 0.015625)"/>
      <use xlink:href="#DejaVuSans-65" transform="translate(216.748047 0.015625)"/>
      <use xlink:href="#DejaVuSans-66" transform="translate(278.271484 0.015625)"/>
      <use xlink:href="#DejaVuSans-6f" transform="translate(313.476562 0.015625)"/>
      <use xlink:href="#DejaVuSans-72" transform="translate(374.658203 0.015625)"/>
      <use xlink:href="#DejaVuSans-65" transform="translate(415.771484 0.015625)"/>
      <use xlink:href="#DejaVuSans-20" transform="translate(477.294922 0.015625)"/>
      <use xlink:href="#DejaVuSans-49" transform="translate(509.082031 0.015625)"/>
      <use xlink:href="#DejaVuSans-53" transform="translate(538.574219 0.015625)"/>
      <use xlink:href="#DejaVuSans-43" transform="translate(602.050781 0.015625)"/>
      <use xlink:href="#DejaVuSans-4f" transform="translate(671.875 0.015625)"/>
      <use xlink:href="#DejaVuSans-20" transform="translate(750.585938 0.015625)"/>
      <use xlink:href="#DejaVuSans-63" transform="translate(782.373047 0.015625)"/>
      <use xlink:href="#DejaVuSans-75" transform="translate(837.353516 0.015625)"/>
      <use xlink:href="#DejaVuSans-74" transform="translate(900.732422 0.015625)"/>
      <use xlink:href="#DejaVuSans-3a" transform="translate(939.941406 0.015625)"/>
      <use xlink:href="#DejaVuSans-20" transform="translate(973.632812 0.015625)"/>
      <use xlink:href="#DejaVuSans-Oblique-65" transform="translate(1005.419922 0.015625)"/>
      <use xlink:href="#DejaVuSans-3d" transform="translate(1066.943359 0.015625)"/>
      <use xlink:href="#DejaVuSans-30" transform="translate(1150.732422 0.015625)"/>
      <use xlink:href="#DejaVuSans-2e" transform="translate(1214.355469 0.015625)"/>
      <use xlink:href="#DejaVuSans-33" transform="translate(1246.142578 0.015625)"/>
     </g>
    </g>
    <g id="line2d_19">
     <path d="M 45.465625 34.976563 
L 55.465625 34.976563 
L 65.465625 34.976563 
" style="fill: none; stroke-dasharray: 2.22,0.96; stroke-dashoffset: 0; stroke: #ff0000; stroke-width: 0.6"/>
    </g>
    <g id="text_16">
     <!-- Mf ISCO $e$=0 -->
     <g transform="translate(73.465625 38.476563) scale(0.1 -0.1)">
      <use xlink:href="#DejaVuSans-4d" transform="translate(0 0.015625)"/>
      <use xlink:href="#DejaVuSans-66" transform="translate(86.279297 0.015625)"/>
      <use xlink:href="#DejaVuSans-20" transform="translate(121.484375 0.015625)"/>
      <use xlink:href="#DejaVuSans-49" transform="translate(153.271484 0.015625)"/>
      <use xlink:href="#DejaVuSans-53" transform="translate(182.763672 0.015625)"/>
      <use xlink:href="#DejaVuSans-43" transform="translate(246.240234 0.015625)"/>
      <use xlink:href="#DejaVuSans-4f" transform="translate(316.064453 0.015625)"/>
      <use xlink:href="#DejaVuSans-20" transform="translate(394.775391 0.015625)"/>
      <use xlink:href="#DejaVuSans-Oblique-65" transform="translate(426.5625 0.015625)"/>
      <use xlink:href="#DejaVuSans-3d" transform="translate(488.085938 0.015625)"/>
      <use xlink:href="#DejaVuSans-30" transform="translate(571.875 0.015625)"/>
     </g>
    </g>
    <g id="PathCollection_2">
     <g>
      <use xlink:href="#m5d9a60c726" x="55.465625" y="50.529688" style="fill: #ff0000; stroke: #ff0000"/>
     </g>
    </g>
    <g id="text_17">
     <!-- ISCO cut -->
     <g transform="translate(73.465625 53.154688) scale(0.1 -0.1)">
      <use xlink:href="#DejaVuSans-49"/>
      <use xlink:href="#DejaVuSans-53" transform="translate(29.492188 0)"/>
      <use xlink:href="#DejaVuSans-43" transform="translate(92.96875 0)"/>
      <use xlink:href="#DejaVuSans-4f" transform="translate(162.792969 0)"/>
      <use xlink:href="#DejaVuSans-20" transform="translate(241.503906 0)"/>
      <use xlink:href="#DejaVuSans-63" transform="translate(273.291016 0)"/>
      <use xlink:href="#DejaVuSans-75" transform="translate(328.271484 0)"/>
      <use xlink:href="#DejaVuSans-74" transform="translate(391.650391 0)"/>
     </g>
    </g>
    <g id="line2d_20">
     <path d="M 45.465625 64.332813 
L 55.465625 64.332813 
L 65.465625 64.332813 
" style="fill: none; stroke: #ff7f0e; stroke-width: 1.5; stroke-linecap: square"/>
    </g>
    <g id="text_18">
     <!-- Mf after ISCO cut: $e$=0.3  -->
     <g transform="translate(73.465625 67.832813) scale(0.1 -0.1)">
      <defs>
       <path id="DejaVuSans-61" d="M 2194 1759 
Q 1497 1759 1228 1600 
Q 959 1441 959 1056 
Q 959 750 1161 570 
Q 1363 391 1709 391 
Q 2188 391 2477 730 
Q 2766 1069 2766 1631 
L 2766 1759 
L 2194 1759 
z
M 3341 1997 
L 3341 0 
L 2766 0 
L 2766 531 
Q 2569 213 2275 61 
Q 1981 -91 1556 -91 
Q 1019 -91 701 211 
Q 384 513 384 1019 
Q 384 1609 779 1909 
Q 1175 2209 1959 2209 
L 2766 2209 
L 2766 2266 
Q 2766 2663 2505 2880 
Q 2244 3097 1772 3097 
Q 1472 3097 1187 3025 
Q 903 2953 641 2809 
L 641 3341 
Q 956 3463 1253 3523 
Q 1550 3584 1831 3584 
Q 2591 3584 2966 3190 
Q 3341 2797 3341 1997 
z
" transform="scale(0.015625)"/>
      </defs>
      <use xlink:href="#DejaVuSans-4d" transform="translate(0 0.015625)"/>
      <use xlink:href="#DejaVuSans-66" transform="translate(86.279297 0.015625)"/>
      <use xlink:href="#DejaVuSans-20" transform="translate(121.484375 0.015625)"/>
      <use xlink:href="#DejaVuSans-61" transform="translate(153.271484 0.015625)"/>
      <use xlink:href="#DejaVuSans-66" transform="translate(214.550781 0.015625)"/>
      <use xlink:href="#DejaVuSans-74" transform="translate(249.755859 0.015625)"/>
      <use xlink:href="#DejaVuSans-65" transform="translate(288.964844 0.015625)"/>
      <use xlink:href="#DejaVuSans-72" transform="translate(350.488281 0.015625)"/>
      <use xlink:href="#DejaVuSans-20" transform="translate(391.601562 0.015625)"/>
      <use xlink:href="#DejaVuSans-49" transform="translate(423.388672 0.015625)"/>
      <use xlink:href="#DejaVuSans-53" transform="translate(452.880859 0.015625)"/>
      <use xlink:href="#DejaVuSans-43" transform="translate(516.357422 0.015625)"/>
      <use xlink:href="#DejaVuSans-4f" transform="translate(586.181641 0.015625)"/>
      <use xlink:href="#DejaVuSans-20" transform="translate(664.892578 0.015625)"/>
      <use xlink:href="#DejaVuSans-63" transform="translate(696.679688 0.015625)"/>
      <use xlink:href="#DejaVuSans-75" transform="translate(751.660156 0.015625)"/>
      <use xlink:href="#DejaVuSans-74" transform="translate(815.039062 0.015625)"/>
      <use xlink:href="#DejaVuSans-3a" transform="translate(854.248047 0.015625)"/>
      <use xlink:href="#DejaVuSans-20" transform="translate(887.939453 0.015625)"/>
      <use xlink:href="#DejaVuSans-Oblique-65" transform="translate(919.726562 0.015625)"/>
      <use xlink:href="#DejaVuSans-3d" transform="translate(981.25 0.015625)"/>
      <use xlink:href="#DejaVuSans-30" transform="translate(1065.039062 0.015625)"/>
      <use xlink:href="#DejaVuSans-2e" transform="translate(1128.662109 0.015625)"/>
      <use xlink:href="#DejaVuSans-33" transform="translate(1160.449219 0.015625)"/>
      <use xlink:href="#DejaVuSans-20" transform="translate(1224.072266 0.015625)"/>
     </g>
    </g>
   </g>
  </g>
 </g>
 <defs>
  <clipPath id="p27dbdbadd8">
   <rect x="36.465625" y="7.2" width="669.6" height="277.2"/>
  </clipPath>
 </defs>
</svg>
