<?xml version="1.0" encoding="utf-8" standalone="no"?>
<!DOCTYPE svg PUBLIC "-//W3C//DTD SVG 1.1//EN"
  "http://www.w3.org/Graphics/SVG/1.1/DTD/svg11.dtd">
<svg xmlns:xlink="http://www.w3.org/1999/xlink" width="713.265625pt" height="308.278125pt" viewBox="0 0 713.265625 308.278125" xmlns="http://www.w3.org/2000/svg" version="1.1">
 <metadata>
  <rdf:RDF xmlns:dc="http://purl.org/dc/elements/1.1/" xmlns:cc="http://creativecommons.org/ns#" xmlns:rdf="http://www.w3.org/1999/02/22-rdf-syntax-ns#">
   <cc:Work>
    <dc:type rdf:resource="http://purl.org/dc/dcmitype/StillImage"/>
    <dc:date>2025-09-29T11:02:19.290926</dc:date>
    <dc:format>image/svg+xml</dc:format>
    <dc:creator>
     <cc:Agent>
      <dc:title>Matplotlib v3.10.5, https://matplotlib.org/</dc:title>
     </cc:Agent>
    </dc:creator>
   </cc:Work>
  </rdf:RDF>
 </metadata>
 <defs>
  <style type="text/css">*{stroke-linejoin: round; stroke-linecap: butt}</style>
 </defs>
 <g id="figure_1">
  <g id="patch_1">
   <path d="M 0 308.278125 
L 713.265625 308.278125 
L 713.265625 0 
L 0 0 
z
" style="fill: #ffffff"/>
  </g>
  <g id="axes_1">
   <g id="patch_2">
    <path d="M 36.465625 284.4 
L 706.065625 284.4 
L 706.065625 7.2 
L 36.465625 7.2 
z
" style="fill: #ffffff"/>
   </g>
   <g id="PathCollection_1">
    <defs>
     <path id="mdf22888fa5" d="M 0 1.224745 
C 0.324806 1.224745 0.636353 1.095698 0.866025 0.866025 
C 1.095698 0.636353 1.224745 0.324806 1.224745 0 
C 1.224745 -0.324806 1.095698 -0.636353 0.866025 -0.866025 
C 0.636353 -1.095698 0.324806 -1.224745 0 -1.224745 
C -0.324806 -1.224745 -0.636353 -1.095698 -0.866025 -0.866025 
C -1.095698 -0.636353 -1.224745 -0.324806 -1.224745 0 
C -1.224745 0.324806 -1.095698 0.636353 -0.866025 0.866025 
C -0.636353 1.095698 -0.324806 1.224745 0 1.224745 
z
" style="stroke: #ff0000"/>
    </defs>
    <g clip-path="url(#p684865d453)">
     <use xlink:href="#mdf22888fa5" x="669.522831" y="178.26342" style="fill: #ff0000; stroke: #ff0000"/>
    </g>
   </g>
   <g id="matplotlib.axis_1">
    <g id="xtick_1">
     <g id="line2d_1">
      <defs>
       <path id="m48c11c33ac" d="M 0 0 
L 0 3.5 
" style="stroke: #000000; stroke-width: 0.8"/>
      </defs>
      <g>
       <use xlink:href="#m48c11c33ac" x="95.953802" y="284.4" style="stroke: #000000; stroke-width: 0.8"/>
      </g>
     </g>
     <g id="text_1">
      <!-- −8000 -->
      <g transform="translate(79.038958 298.998438) scale(0.1 -0.1)">
       <defs>
        <path id="DejaVuSans-2212" d="M 678 2272 
L 4684 2272 
L 4684 1741 
L 678 1741 
L 678 2272 
z
" transform="scale(0.015625)"/>
        <path id="DejaVuSans-38" d="M 2034 2216 
Q 1584 2216 1326 1975 
Q 1069 1734 1069 1313 
Q 1069 891 1326 650 
Q 1584 409 2034 409 
Q 2484 409 2743 651 
Q 3003 894 3003 1313 
Q 3003 1734 2745 1975 
Q 2488 2216 2034 2216 
z
M 1403 2484 
Q 997 2584 770 2862 
Q 544 3141 544 3541 
Q 544 4100 942 4425 
Q 1341 4750 2034 4750 
Q 2731 4750 3128 4425 
Q 3525 4100 3525 3541 
Q 3525 3141 3298 2862 
Q 3072 2584 2669 2484 
Q 3125 2378 3379 2068 
Q 3634 1759 3634 1313 
Q 3634 634 3220 271 
Q 2806 -91 2034 -91 
Q 1263 -91 848 271 
Q 434 634 434 1313 
Q 434 1759 690 2068 
Q 947 2378 1403 2484 
z
M 1172 3481 
Q 1172 3119 1398 2916 
Q 1625 2713 2034 2713 
Q 2441 2713 2670 2916 
Q 2900 3119 2900 3481 
Q 2900 3844 2670 4047 
Q 2441 4250 2034 4250 
Q 1625 4250 1398 4047 
Q 1172 3844 1172 3481 
z
" transform="scale(0.015625)"/>
        <path id="DejaVuSans-30" d="M 2034 4250 
Q 1547 4250 1301 3770 
Q 1056 3291 1056 2328 
Q 1056 1369 1301 889 
Q 1547 409 2034 409 
Q 2525 409 2770 889 
Q 3016 1369 3016 2328 
Q 3016 3291 2770 3770 
Q 2525 4250 2034 4250 
z
M 2034 4750 
Q 2819 4750 3233 4129 
Q 3647 3509 3647 2328 
Q 3647 1150 3233 529 
Q 2819 -91 2034 -91 
Q 1250 -91 836 529 
Q 422 1150 422 2328 
Q 422 3509 836 4129 
Q 1250 4750 2034 4750 
z
" transform="scale(0.015625)"/>
       </defs>
       <use xlink:href="#DejaVuSans-2212"/>
       <use xlink:href="#DejaVuSans-38" transform="translate(83.789062 0)"/>
       <use xlink:href="#DejaVuSans-30" transform="translate(147.412109 0)"/>
       <use xlink:href="#DejaVuSans-30" transform="translate(211.035156 0)"/>
       <use xlink:href="#DejaVuSans-30" transform="translate(274.658203 0)"/>
      </g>
     </g>
    </g>
    <g id="xtick_2">
     <g id="line2d_2">
      <g>
       <use xlink:href="#m48c11c33ac" x="240.872667" y="284.4" style="stroke: #000000; stroke-width: 0.8"/>
      </g>
     </g>
     <g id="text_2">
      <!-- −6000 -->
      <g transform="translate(223.957823 298.998438) scale(0.1 -0.1)">
       <defs>
        <path id="DejaVuSans-36" d="M 2113 2584 
Q 1688 2584 1439 2293 
Q 1191 2003 1191 1497 
Q 1191 994 1439 701 
Q 1688 409 2113 409 
Q 2538 409 2786 701 
Q 3034 994 3034 1497 
Q 3034 2003 2786 2293 
Q 2538 2584 2113 2584 
z
M 3366 4563 
L 3366 3988 
Q 3128 4100 2886 4159 
Q 2644 4219 2406 4219 
Q 1781 4219 1451 3797 
Q 1122 3375 1075 2522 
Q 1259 2794 1537 2939 
Q 1816 3084 2150 3084 
Q 2853 3084 3261 2657 
Q 3669 2231 3669 1497 
Q 3669 778 3244 343 
Q 2819 -91 2113 -91 
Q 1303 -91 875 529 
Q 447 1150 447 2328 
Q 447 3434 972 4092 
Q 1497 4750 2381 4750 
Q 2619 4750 2861 4703 
Q 3103 4656 3366 4563 
z
" transform="scale(0.015625)"/>
       </defs>
       <use xlink:href="#DejaVuSans-2212"/>
       <use xlink:href="#DejaVuSans-36" transform="translate(83.789062 0)"/>
       <use xlink:href="#DejaVuSans-30" transform="translate(147.412109 0)"/>
       <use xlink:href="#DejaVuSans-30" transform="translate(211.035156 0)"/>
       <use xlink:href="#DejaVuSans-30" transform="translate(274.658203 0)"/>
      </g>
     </g>
    </g>
    <g id="xtick_3">
     <g id="line2d_3">
      <g>
       <use xlink:href="#m48c11c33ac" x="385.791531" y="284.4" style="stroke: #000000; stroke-width: 0.8"/>
      </g>
     </g>
     <g id="text_3">
      <!-- −4000 -->
      <g transform="translate(368.876688 298.998438) scale(0.1 -0.1)">
       <defs>
        <path id="DejaVuSans-34" d="M 2419 4116 
L 825 1625 
L 2419 1625 
L 2419 4116 
z
M 2253 4666 
L 3047 4666 
L 3047 1625 
L 3713 1625 
L 3713 1100 
L 3047 1100 
L 3047 0 
L 2419 0 
L 2419 1100 
L 313 1100 
L 313 1709 
L 2253 4666 
z
" transform="scale(0.015625)"/>
       </defs>
       <use xlink:href="#DejaVuSans-2212"/>
       <use xlink:href="#DejaVuSans-34" transform="translate(83.789062 0)"/>
       <use xlink:href="#DejaVuSans-30" transform="translate(147.412109 0)"/>
       <use xlink:href="#DejaVuSans-30" transform="translate(211.035156 0)"/>
       <use xlink:href="#DejaVuSans-30" transform="translate(274.658203 0)"/>
      </g>
     </g>
    </g>
    <g id="xtick_4">
     <g id="line2d_4">
      <g>
       <use xlink:href="#m48c11c33ac" x="530.710396" y="284.4" style="stroke: #000000; stroke-width: 0.8"/>
      </g>
     </g>
     <g id="text_4">
      <!-- −2000 -->
      <g transform="translate(513.795553 298.998438) scale(0.1 -0.1)">
       <defs>
        <path id="DejaVuSans-32" d="M 1228 531 
L 3431 531 
L 3431 0 
L 469 0 
L 469 531 
Q 828 903 1448 1529 
Q 2069 2156 2228 2338 
Q 2531 2678 2651 2914 
Q 2772 3150 2772 3378 
Q 2772 3750 2511 3984 
Q 2250 4219 1831 4219 
Q 1534 4219 1204 4116 
Q 875 4013 500 3803 
L 500 4441 
Q 881 4594 1212 4672 
Q 1544 4750 1819 4750 
Q 2544 4750 2975 4387 
Q 3406 4025 3406 3419 
Q 3406 3131 3298 2873 
Q 3191 2616 2906 2266 
Q 2828 2175 2409 1742 
Q 1991 1309 1228 531 
z
" transform="scale(0.015625)"/>
       </defs>
       <use xlink:href="#DejaVuSans-2212"/>
       <use xlink:href="#DejaVuSans-32" transform="translate(83.789062 0)"/>
       <use xlink:href="#DejaVuSans-30" transform="translate(147.412109 0)"/>
       <use xlink:href="#DejaVuSans-30" transform="translate(211.035156 0)"/>
       <use xlink:href="#DejaVuSans-30" transform="translate(274.658203 0)"/>
      </g>
     </g>
    </g>
    <g id="xtick_5">
     <g id="line2d_5">
      <g>
       <use xlink:href="#m48c11c33ac" x="675.629261" y="284.4" style="stroke: #000000; stroke-width: 0.8"/>
      </g>
     </g>
     <g id="text_5">
      <!-- 0 -->
      <g transform="translate(672.448011 298.998438) scale(0.1 -0.1)">
       <use xlink:href="#DejaVuSans-30"/>
      </g>
     </g>
    </g>
   </g>
   <g id="matplotlib.axis_2">
    <g id="ytick_1">
     <g id="line2d_6">
      <defs>
       <path id="mb229330992" d="M 0 0 
L -3.5 0 
" style="stroke: #000000; stroke-width: 0.8"/>
      </defs>
      <g>
       <use xlink:href="#mb229330992" x="36.465625" y="279.058264" style="stroke: #000000; stroke-width: 0.8"/>
      </g>
     </g>
     <g id="text_6">
      <!-- 0.00 -->
      <g transform="translate(7.2 282.857483) scale(0.1 -0.1)">
       <defs>
        <path id="DejaVuSans-2e" d="M 684 794 
L 1344 794 
L 1344 0 
L 684 0 
L 684 794 
z
" transform="scale(0.015625)"/>
       </defs>
       <use xlink:href="#DejaVuSans-30"/>
       <use xlink:href="#DejaVuSans-2e" transform="translate(63.623047 0)"/>
       <use xlink:href="#DejaVuSans-30" transform="translate(95.410156 0)"/>
       <use xlink:href="#DejaVuSans-30" transform="translate(159.033203 0)"/>
      </g>
     </g>
    </g>
    <g id="ytick_2">
     <g id="line2d_7">
      <g>
       <use xlink:href="#mb229330992" x="36.465625" y="232.654743" style="stroke: #000000; stroke-width: 0.8"/>
      </g>
     </g>
     <g id="text_7">
      <!-- 0.01 -->
      <g transform="translate(7.2 236.453962) scale(0.1 -0.1)">
       <defs>
        <path id="DejaVuSans-31" d="M 794 531 
L 1825 531 
L 1825 4091 
L 703 3866 
L 703 4441 
L 1819 4666 
L 2450 4666 
L 2450 531 
L 3481 531 
L 3481 0 
L 794 0 
L 794 531 
z
" transform="scale(0.015625)"/>
       </defs>
       <use xlink:href="#DejaVuSans-30"/>
       <use xlink:href="#DejaVuSans-2e" transform="translate(63.623047 0)"/>
       <use xlink:href="#DejaVuSans-30" transform="translate(95.410156 0)"/>
       <use xlink:href="#DejaVuSans-31" transform="translate(159.033203 0)"/>
      </g>
     </g>
    </g>
    <g id="ytick_3">
     <g id="line2d_8">
      <g>
       <use xlink:href="#mb229330992" x="36.465625" y="186.251222" style="stroke: #000000; stroke-width: 0.8"/>
      </g>
     </g>
     <g id="text_8">
      <!-- 0.02 -->
      <g transform="translate(7.2 190.050441) scale(0.1 -0.1)">
       <use xlink:href="#DejaVuSans-30"/>
       <use xlink:href="#DejaVuSans-2e" transform="translate(63.623047 0)"/>
       <use xlink:href="#DejaVuSans-30" transform="translate(95.410156 0)"/>
       <use xlink:href="#DejaVuSans-32" transform="translate(159.033203 0)"/>
      </g>
     </g>
    </g>
    <g id="ytick_4">
     <g id="line2d_9">
      <g>
       <use xlink:href="#mb229330992" x="36.465625" y="139.847701" style="stroke: #000000; stroke-width: 0.8"/>
      </g>
     </g>
     <g id="text_9">
      <!-- 0.03 -->
      <g transform="translate(7.2 143.64692) scale(0.1 -0.1)">
       <defs>
        <path id="DejaVuSans-33" d="M 2597 2516 
Q 3050 2419 3304 2112 
Q 3559 1806 3559 1356 
Q 3559 666 3084 287 
Q 2609 -91 1734 -91 
Q 1441 -91 1130 -33 
Q 819 25 488 141 
L 488 750 
Q 750 597 1062 519 
Q 1375 441 1716 441 
Q 2309 441 2620 675 
Q 2931 909 2931 1356 
Q 2931 1769 2642 2001 
Q 2353 2234 1838 2234 
L 1294 2234 
L 1294 2753 
L 1863 2753 
Q 2328 2753 2575 2939 
Q 2822 3125 2822 3475 
Q 2822 3834 2567 4026 
Q 2313 4219 1838 4219 
Q 1578 4219 1281 4162 
Q 984 4106 628 3988 
L 628 4550 
Q 988 4650 1302 4700 
Q 1616 4750 1894 4750 
Q 2613 4750 3031 4423 
Q 3450 4097 3450 3541 
Q 3450 3153 3228 2886 
Q 3006 2619 2597 2516 
z
" transform="scale(0.015625)"/>
       </defs>
       <use xlink:href="#DejaVuSans-30"/>
       <use xlink:href="#DejaVuSans-2e" transform="translate(63.623047 0)"/>
       <use xlink:href="#DejaVuSans-30" transform="translate(95.410156 0)"/>
       <use xlink:href="#DejaVuSans-33" transform="translate(159.033203 0)"/>
      </g>
     </g>
    </g>
    <g id="ytick_5">
     <g id="line2d_10">
      <g>
       <use xlink:href="#mb229330992" x="36.465625" y="93.44418" style="stroke: #000000; stroke-width: 0.8"/>
      </g>
     </g>
     <g id="text_10">
      <!-- 0.04 -->
      <g transform="translate(7.2 97.243399) scale(0.1 -0.1)">
       <use xlink:href="#DejaVuSans-30"/>
       <use xlink:href="#DejaVuSans-2e" transform="translate(63.623047 0)"/>
       <use xlink:href="#DejaVuSans-30" transform="translate(95.410156 0)"/>
       <use xlink:href="#DejaVuSans-34" transform="translate(159.033203 0)"/>
      </g>
     </g>
    </g>
    <g id="ytick_6">
     <g id="line2d_11">
      <g>
       <use xlink:href="#mb229330992" x="36.465625" y="47.040659" style="stroke: #000000; stroke-width: 0.8"/>
      </g>
     </g>
     <g id="text_11">
      <!-- 0.05 -->
      <g transform="translate(7.2 50.839877) scale(0.1 -0.1)">
       <defs>
        <path id="DejaVuSans-35" d="M 691 4666 
L 3169 4666 
L 3169 4134 
L 1269 4134 
L 1269 2991 
Q 1406 3038 1543 3061 
Q 1681 3084 1819 3084 
Q 2600 3084 3056 2656 
Q 3513 2228 3513 1497 
Q 3513 744 3044 326 
Q 2575 -91 1722 -91 
Q 1428 -91 1123 -41 
Q 819 9 494 109 
L 494 744 
Q 775 591 1075 516 
Q 1375 441 1709 441 
Q 2250 441 2565 725 
Q 2881 1009 2881 1497 
Q 2881 1984 2565 2268 
Q 2250 2553 1709 2553 
Q 1456 2553 1204 2497 
Q 953 2441 691 2322 
L 691 4666 
z
" transform="scale(0.015625)"/>
       </defs>
       <use xlink:href="#DejaVuSans-30"/>
       <use xlink:href="#DejaVuSans-2e" transform="translate(63.623047 0)"/>
       <use xlink:href="#DejaVuSans-30" transform="translate(95.410156 0)"/>
       <use xlink:href="#DejaVuSans-35" transform="translate(159.033203 0)"/>
      </g>
     </g>
    </g>
   </g>
   <g id="line2d_12">
    <path d="M 66.901989 260.665512 
L 67.141456 260.373058 
L 67.85986 258.963978 
L 68.697998 256.787997 
L 69.895337 252.941356 
L 71.451878 248.063561 
L 72.170281 246.461137 
L 72.768951 245.630932 
L 73.247887 245.34237 
L 73.607088 245.35367 
L 73.96629 245.558719 
L 74.445226 246.12056 
L 75.043896 247.24114 
L 75.882033 249.424651 
L 77.558308 254.724525 
L 78.755647 258.130817 
L 79.713519 260.240377 
L 80.910858 262.28564 
L 84.981811 268.509526 
L 85.819949 269.246147 
L 86.418618 269.522324 
L 87.017288 269.567393 
L 87.615958 269.385014 
L 88.454095 268.839273 
L 89.651434 268.050791 
L 90.13037 267.963639 
L 90.609306 268.081824 
L 91.207975 268.505775 
L 92.165847 269.572862 
L 93.363186 270.863526 
L 94.08159 271.350268 
L 94.799993 271.554723 
L 95.518397 271.482629 
L 96.356534 271.11737 
L 98.272277 270.135813 
L 98.99068 270.111884 
L 99.828818 270.370887 
L 101.505093 270.999517 
L 102.223496 271.00765 
L 102.9419 270.805308 
L 104.139239 270.18309 
L 105.097111 269.791258 
L 105.69578 269.767723 
L 106.29445 269.965109 
L 107.132587 270.541493 
L 108.569394 271.601284 
L 109.168064 271.789816 
L 109.766734 271.739995 
L 110.365403 271.437664 
L 111.083807 270.766326 
L 112.041678 269.504351 
L 113.239017 267.964394 
L 113.837687 267.54121 
L 114.316623 267.466615 
L 114.795558 267.625585 
L 115.513962 268.180725 
L 116.831035 269.289662 
L 117.429705 269.492588 
L 117.908641 269.448282 
L 118.50731 269.127358 
L 119.10598 268.53442 
L 119.944117 267.338262 
L 121.500658 264.560441 
L 122.937465 262.199125 
L 124.853208 259.233504 
L 125.691346 257.379386 
L 126.649217 254.631149 
L 129.403097 246.194877 
L 130.001767 245.155891 
L 130.480703 244.696408 
L 130.839904 244.584037 
L 131.199106 244.673383 
L 131.678042 245.098294 
L 132.156978 245.848245 
L 132.875381 247.488022 
L 133.833252 250.326396 
L 136.108197 257.257561 
L 137.185802 259.702781 
L 138.622609 262.31325 
L 141.017288 266.234887 
L 141.975159 267.425807 
L 142.693563 268.035764 
L 143.411966 268.3564 
L 144.010636 268.397843 
L 144.72904 268.221923 
L 146.405315 267.683509 
L 147.003984 267.791078 
L 147.602654 268.133704 
L 148.560525 269.0096 
L 149.877598 270.194404 
L 150.596002 270.578192 
L 151.314405 270.716401 
L 152.032809 270.62673 
L 153.110414 270.222277 
L 154.307754 269.827973 
L 155.026157 269.813327 
L 155.984029 270.054823 
L 157.54057 270.478974 
L 158.378707 270.434435 
L 159.336578 270.120697 
L 160.893119 269.540931 
L 161.611523 269.531471 
L 162.329927 269.763983 
L 164.724605 270.862468 
L 165.323275 270.790477 
L 165.921944 270.498189 
L 166.640348 269.883107 
L 168.077155 268.219498 
L 168.915292 267.457532 
L 169.513962 267.213275 
L 170.112632 267.253295 
L 170.831035 267.577487 
L 172.028374 268.174892 
L 172.627044 268.233297 
L 173.225714 268.037146 
L 173.824383 267.575381 
L 174.542787 266.707066 
L 175.500658 265.16523 
L 179.930813 257.16189 
L 180.888685 254.580522 
L 182.325492 249.870316 
L 183.522831 246.227862 
L 184.241235 244.68852 
L 184.72017 244.056473 
L 185.199106 243.780752 
L 185.558308 243.815951 
L 185.91751 244.056294 
L 186.396445 244.679389 
L 186.995115 245.88898 
L 187.833252 248.189038 
L 191.066068 257.828731 
L 192.263408 260.356999 
L 194.059417 263.601635 
L 195.37649 265.58337 
L 196.214627 266.502312 
L 196.933031 267.011884 
L 197.651434 267.254678 
L 198.489572 267.265012 
L 200.046113 267.182179 
L 200.764516 267.427349 
L 201.602654 267.999235 
L 203.638131 269.541541 
L 204.356534 269.791746 
L 205.074938 269.836357 
L 206.032809 269.658928 
L 207.58935 269.335455 
L 208.427488 269.391238 
L 211.301102 269.819976 
L 212.378707 269.534114 
L 213.935248 269.105512 
L 214.653652 269.134655 
L 215.611523 269.433345 
L 217.04833 269.914721 
L 217.766734 269.89042 
L 218.365403 269.66467 
L 219.083807 269.156963 
L 220.281146 267.967418 
L 221.239017 267.114524 
L 221.957421 266.77239 
L 222.556091 266.72236 
L 223.513962 266.921107 
L 224.471833 267.050816 
L 225.070503 266.909523 
L 225.669173 266.534041 
L 226.387576 265.77208 
L 227.225714 264.5289 
L 228.901989 261.5039 
L 231.296667 256.887856 
L 232.254539 254.42729 
L 233.451878 250.629761 
L 235.128153 245.349193 
L 235.846556 243.803775 
L 236.325492 243.17739 
L 236.804428 242.917503 
L 237.163629 242.971375 
L 237.522831 243.23553 
L 238.001767 243.896208 
L 238.600437 245.1564 
L 239.438574 247.518411 
L 242.551656 256.953128 
L 243.868729 259.867709 
L 245.42527 262.757251 
L 246.502876 264.375201 
L 247.341013 265.30893 
L 248.17915 265.910102 
L 249.017288 266.208233 
L 251.411966 266.769596 
L 252.369838 267.393153 
L 254.165847 268.618173 
L 255.003984 268.900132 
L 255.842122 268.953381 
L 258.955204 268.849095 
L 261.110414 269.151901 
L 262.18802 268.979865 
L 264.223496 268.543538 
L 265.181368 268.641038 
L 267.097111 268.980318 
L 267.815514 268.83517 
L 268.533918 268.458428 
L 269.491789 267.674027 
L 271.04833 266.382965 
L 271.766734 266.069254 
L 272.604871 265.957163 
L 273.921944 265.830554 
L 274.640348 265.48601 
L 275.358751 264.834928 
L 276.196889 263.701286 
L 277.394228 261.601948 
L 279.669173 257.064025 
L 280.746778 254.450704 
L 281.824383 251.213081 
L 284.099328 244.036681 
L 284.697998 242.814007 
L 285.176933 242.216643 
L 285.536135 242.015586 
L 285.895337 242.033449 
L 286.254539 242.268204 
L 286.733474 242.900885 
L 287.332144 244.143332 
L 288.170281 246.505916 
L 291.403097 256.400487 
L 292.72017 259.382074 
L 294.037244 261.846667 
L 295.114849 263.420347 
L 295.952986 264.300099 
L 296.791124 264.878432 
L 297.868729 265.32263 
L 299.305536 265.926018 
L 300.622609 266.793395 
L 301.939683 267.613095 
L 302.897554 267.940822 
L 303.855425 268.028544 
L 306.489572 268.119923 
L 308.525049 268.352606 
L 309.602654 268.209808 
L 311.757864 267.846421 
L 313.074938 267.955959 
L 314.152543 267.984028 
L 314.99068 267.761758 
L 315.828818 267.275542 
L 318.9419 265.124772 
L 320.977377 264.360397 
L 321.69578 263.744419 
L 322.533918 262.666123 
L 323.491789 261.03584 
L 325.04833 257.889775 
L 326.485137 254.54874 
L 327.562743 251.475702 
L 330.556091 242.272523 
L 331.15476 241.335777 
L 331.633696 241.008968 
L 331.992898 241.024879 
L 332.3521 241.26316 
L 332.831035 241.908153 
L 333.429705 243.174704 
L 334.267842 245.576332 
L 337.620392 255.921625 
L 338.937465 258.914087 
L 340.134805 261.099901 
L 341.092676 262.434768 
L 342.050547 263.383769 
L 343.128153 264.100747 
L 345.522831 265.56259 
L 347.199106 266.595688 
L 348.156978 266.923557 
L 349.354317 267.074315 
L 351.748995 267.323918 
L 353.305536 267.448844 
L 354.502876 267.300821 
L 356.658086 266.986337 
L 358.933031 266.818307 
L 359.771168 266.45423 
L 360.848774 265.692373 
L 362.764516 264.27029 
L 365.278929 262.70208 
L 366.117066 261.703981 
L 367.074938 260.137218 
L 368.272277 257.709476 
L 369.709084 254.323498 
L 370.906423 250.944327 
L 372.582698 245.344841 
L 373.660303 242.077904 
L 374.378707 240.588341 
L 374.857643 240.038332 
L 375.216845 239.887136 
L 375.576046 239.966001 
L 375.935248 240.270583 
L 376.414184 241.004309 
L 377.012853 242.37267 
L 377.970725 245.274191 
L 380.724605 254.060443 
L 381.921944 257.022196 
L 383.119284 259.405542 
L 384.196889 261.036271 
L 385.15476 262.09317 
L 386.3521 263.065144 
L 389.584915 265.297658 
L 390.662521 265.742657 
L 391.979594 266.009075 
L 395.571612 266.408375 
L 396.888685 266.243619 
L 399.403097 265.888705 
L 400.600437 265.664738 
L 401.558308 265.238159 
L 402.635913 264.475654 
L 406.946335 260.879502 
L 407.784472 259.653831 
L 408.742343 257.852985 
L 410.059417 254.843653 
L 411.37649 251.280998 
L 412.693563 247.037208 
L 414.489572 241.162056 
L 415.207975 239.540306 
L 415.686911 238.893212 
L 416.046113 238.670562 
L 416.405315 238.682836 
L 416.764516 238.928381 
L 417.243452 239.598366 
L 417.842122 240.914184 
L 418.680259 243.398507 
L 422.032809 254.068994 
L 423.230148 256.864252 
L 424.307754 258.837433 
L 425.385359 260.324753 
L 426.582698 261.559581 
L 428.498441 263.160914 
L 429.815514 264.027094 
L 430.893119 264.488959 
L 432.329927 264.844178 
L 434.604871 265.183606 
L 435.80221 265.147414 
L 437.837687 264.79671 
L 439.873164 264.32544 
L 440.831035 263.852041 
L 441.908641 263.05679 
L 444.542787 260.706113 
L 445.620392 259.484075 
L 446.578264 258.000411 
L 447.536135 256.086296 
L 448.733474 253.174457 
L 450.050547 249.370524 
L 451.607088 244.093088 
L 452.924162 239.807339 
L 453.642565 238.150512 
L 454.121501 237.486832 
L 454.480703 237.257505 
L 454.839904 237.268827 
L 455.199106 237.519245 
L 455.678042 238.203923 
L 456.276711 239.547807 
L 457.114849 242.079463 
L 460.347665 252.60165 
L 461.545004 255.475695 
L 462.622609 257.49378 
L 463.700215 259.044608 
L 465.017288 260.515185 
L 466.454095 261.804177 
L 467.651434 262.605552 
L 468.848774 263.128179 
L 470.405315 263.539724 
L 471.961856 263.740992 
L 473.159195 263.678788 
L 474.955204 263.322451 
L 476.511745 262.846785 
L 477.58935 262.269218 
L 478.666955 261.418386 
L 480.34323 259.757128 
L 481.660303 258.182802 
L 482.618175 256.682828 
L 483.576046 254.755853 
L 484.653652 252.083206 
L 485.970725 248.175655 
L 487.647 242.358519 
L 488.964073 238.041624 
L 489.682476 236.413821 
L 490.161412 235.788975 
L 490.520614 235.598096 
L 490.879816 235.654449 
L 491.239017 235.954603 
L 491.717953 236.708956 
L 492.316623 238.13739 
L 493.15476 240.767263 
L 496.267842 251.100254 
L 497.345448 253.762767 
L 498.423053 255.869917 
L 499.500658 257.518477 
L 500.697998 258.968235 
L 501.895337 260.106861 
L 503.092676 260.933041 
L 504.290015 261.479479 
L 505.726822 261.878394 
L 506.924162 262.001949 
L 508.121501 261.899268 
L 509.558308 261.541026 
L 510.875381 261.008861 
L 511.952986 260.330494 
L 513.030592 259.376996 
L 514.347665 257.899832 
L 515.545004 256.255318 
L 516.622609 254.370292 
L 517.700215 251.954955 
L 518.77782 248.952167 
L 520.094893 244.546922 
L 522.609306 235.871905 
L 523.207975 234.527784 
L 523.686911 233.874505 
L 524.046113 233.665006 
L 524.405315 233.707521 
L 524.764516 234.003468 
L 525.243452 234.767404 
L 525.842122 236.229225 
L 526.680259 238.931288 
L 529.553873 248.666859 
L 530.751213 251.798889 
L 531.828818 254.033457 
L 532.906423 255.782851 
L 534.103762 257.290015 
L 535.181368 258.306451 
L 536.258973 259.025618 
L 537.456312 259.536901 
L 538.653652 259.789124 
L 539.850991 259.790054 
L 541.04833 259.560187 
L 542.245669 259.107477 
L 543.323275 258.466895 
L 544.281146 257.650277 
L 545.358751 256.433056 
L 546.556091 254.725107 
L 547.633696 252.793986 
L 548.591567 250.641913 
L 549.669173 247.655722 
L 550.986246 243.261922 
L 553.85986 233.168063 
L 554.45853 231.920396 
L 554.937465 231.38453 
L 555.296667 231.281406 
L 555.655869 231.43947 
L 556.015071 231.850455 
L 556.494006 232.757368 
L 557.21241 234.738679 
L 558.409749 238.963808 
L 560.325492 245.665768 
L 561.522831 249.008054 
L 562.600437 251.393692 
L 563.678042 253.26937 
L 564.755647 254.708179 
L 565.833252 255.762541 
L 566.910858 256.483869 
L 567.988463 256.91915 
L 568.946335 257.0776 
L 569.904206 257.019087 
L 570.862077 256.753362 
L 571.939683 256.213549 
L 572.897554 255.48921 
L 573.855425 254.487878 
L 574.933031 253.002608 
L 576.010636 251.111872 
L 577.088241 248.727657 
L 578.165847 245.740385 
L 579.363186 241.702437 
L 582.715736 229.688443 
L 583.314405 228.620102 
L 583.673607 228.313781 
L 584.032809 228.27615 
L 584.392011 228.507356 
L 584.870947 229.211221 
L 585.469616 230.639999 
L 586.307754 233.364093 
L 589.54057 244.660557 
L 590.618175 247.39755 
L 591.69578 249.53541 
L 592.653652 250.98509 
L 593.611523 252.057858 
L 594.569394 252.797733 
L 595.527266 253.236455 
L 596.365403 253.383325 
L 597.203541 253.311702 
L 598.041678 253.026039 
L 598.879816 252.525857 
L 599.837687 251.66936 
L 600.795558 250.468102 
L 601.75343 248.886941 
L 602.711301 246.892237 
L 603.788907 244.082303 
L 604.866512 240.605228 
L 606.183585 235.54003 
L 608.338796 227.10242 
L 609.057199 225.207957 
L 609.536135 224.461868 
L 609.895337 224.216417 
L 610.254539 224.251573 
L 610.61374 224.562883 
L 611.092676 225.374245 
L 611.691346 226.924376 
L 612.649217 230.222457 
L 615.163629 239.336752 
L 616.241235 242.347842 
L 617.199106 244.450008 
L 618.156978 246.041536 
L 618.995115 247.039173 
L 619.833252 247.686241 
L 620.551656 247.992709 
L 621.27006 248.076003 
L 621.988463 247.938935 
L 622.706867 247.582395 
L 623.545004 246.883329 
L 624.383142 245.859961 
L 625.221279 244.487001 
L 626.17915 242.45293 
L 627.137022 239.875251 
L 628.214627 236.278747 
L 629.411966 231.46994 
L 631.926379 220.973158 
L 632.525049 219.315382 
L 633.003984 218.48811 
L 633.363186 218.197762 
L 633.722388 218.200492 
L 634.08159 218.490646 
L 634.560525 219.290624 
L 635.159195 220.845364 
L 636.117066 224.15961 
L 638.511745 232.726894 
L 639.469616 235.321714 
L 640.427488 237.276367 
L 641.265625 238.448341 
L 641.984029 239.081596 
L 642.582698 239.356679 
L 643.181368 239.405996 
L 643.780037 239.230829 
L 644.378707 238.829794 
L 645.097111 238.024895 
L 645.815514 236.875143 
L 646.653652 235.076263 
L 647.491789 232.757667 
L 648.44966 229.42659 
L 649.527266 224.841447 
L 651.443009 215.411088 
L 652.520614 210.672823 
L 653.239017 208.464534 
L 653.717953 207.588291 
L 654.077155 207.267154 
L 654.436357 207.240318 
L 654.795558 207.494352 
L 655.274494 208.222385 
L 655.873164 209.629061 
L 656.950769 212.926777 
L 658.387576 217.148215 
L 659.225714 219.0738 
L 659.824383 220.00685 
L 660.423053 220.539815 
L 660.901989 220.69562 
L 661.380924 220.6167 
L 661.85986 220.294419 
L 662.45853 219.544371 
L 662.937465 218.502009 
L 663.775603 216.18059 
L 664.254539 214.468967 
L 665.451878 208.572244 
L 666.529483 201.611668 
L 667.726822 192.465429 
L 670.480703 171.067042 
L 672.276711 157.787977 
L 673.114849 149.122729 
L 673.593785 141.496365 
L 673.952986 131.929716 
L 674.431922 111.067426 
L 675.030592 71.076761 
L 675.629261 19.8 
L 675.629261 19.8 
" clip-path="url(#p684865d453)" style="fill: none; stroke: #1f77b4; stroke-width: 1.5; stroke-linecap: square"/>
   </g>
   <g id="line2d_13">
    <path d="M 36.465625 178.556384 
L 706.065625 178.556384 
" clip-path="url(#p684865d453)" style="fill: none; stroke-dasharray: 2.22,0.96; stroke-dashoffset: 0; stroke: #ff0000; stroke-width: 0.6"/>
   </g>
   <g id="line2d_14">
    <path d="M 66.901989 260.665512 
L 67.141456 260.373058 
L 67.85986 258.963978 
L 68.697998 256.787997 
L 69.895337 252.941356 
L 71.451878 248.063561 
L 72.170281 246.461137 
L 72.768951 245.630932 
L 73.247887 245.34237 
L 73.607088 245.35367 
L 73.96629 245.558719 
L 74.445226 246.12056 
L 75.043896 247.24114 
L 75.882033 249.424651 
L 77.558308 254.724525 
L 78.755647 258.130817 
L 79.713519 260.240377 
L 80.910858 262.28564 
L 84.981811 268.509526 
L 85.819949 269.246147 
L 86.418618 269.522324 
L 87.017288 269.567393 
L 87.615958 269.385014 
L 88.454095 268.839273 
L 89.651434 268.050791 
L 90.13037 267.963639 
L 90.609306 268.081824 
L 91.207975 268.505775 
L 92.165847 269.572862 
L 93.363186 270.863526 
L 94.08159 271.350268 
L 94.799993 271.554723 
L 95.518397 271.482629 
L 96.356534 271.11737 
L 98.272277 270.135813 
L 98.99068 270.111884 
L 99.828818 270.370887 
L 101.505093 270.999517 
L 102.223496 271.00765 
L 102.9419 270.805308 
L 104.139239 270.18309 
L 105.097111 269.791258 
L 105.69578 269.767723 
L 106.29445 269.965109 
L 107.132587 270.541493 
L 108.569394 271.601284 
L 109.168064 271.789816 
L 109.766734 271.739995 
L 110.365403 271.437664 
L 111.083807 270.766326 
L 112.041678 269.504351 
L 113.239017 267.964394 
L 113.837687 267.54121 
L 114.316623 267.466615 
L 114.795558 267.625585 
L 115.513962 268.180725 
L 116.831035 269.289662 
L 117.429705 269.492588 
L 117.908641 269.448282 
L 118.50731 269.127358 
L 119.10598 268.53442 
L 119.944117 267.338262 
L 121.500658 264.560441 
L 122.937465 262.199125 
L 124.853208 259.233504 
L 125.691346 257.379386 
L 126.649217 254.631149 
L 129.403097 246.194877 
L 130.001767 245.155891 
L 130.480703 244.696408 
L 130.839904 244.584037 
L 131.199106 244.673383 
L 131.678042 245.098294 
L 132.156978 245.848245 
L 132.875381 247.488022 
L 133.833252 250.326396 
L 136.108197 257.257561 
L 137.185802 259.702781 
L 138.622609 262.31325 
L 141.017288 266.234887 
L 141.975159 267.425807 
L 142.693563 268.035764 
L 143.411966 268.3564 
L 144.010636 268.397843 
L 144.72904 268.221923 
L 146.405315 267.683509 
L 147.003984 267.791078 
L 147.602654 268.133704 
L 148.560525 269.0096 
L 149.877598 270.194404 
L 150.596002 270.578192 
L 151.314405 270.716401 
L 152.032809 270.62673 
L 153.110414 270.222277 
L 154.307754 269.827973 
L 155.026157 269.813327 
L 155.984029 270.054823 
L 157.54057 270.478974 
L 158.378707 270.434435 
L 159.336578 270.120697 
L 160.893119 269.540931 
L 161.611523 269.531471 
L 162.329927 269.763983 
L 164.724605 270.862468 
L 165.323275 270.790477 
L 165.921944 270.498189 
L 166.640348 269.883107 
L 168.077155 268.219498 
L 168.915292 267.457532 
L 169.513962 267.213275 
L 170.112632 267.253295 
L 170.831035 267.577487 
L 172.028374 268.174892 
L 172.627044 268.233297 
L 173.225714 268.037146 
L 173.824383 267.575381 
L 174.542787 266.707066 
L 175.500658 265.16523 
L 179.930813 257.16189 
L 180.888685 254.580522 
L 182.325492 249.870316 
L 183.522831 246.227862 
L 184.241235 244.68852 
L 184.72017 244.056473 
L 185.199106 243.780752 
L 185.558308 243.815951 
L 185.91751 244.056294 
L 186.396445 244.679389 
L 186.995115 245.88898 
L 187.833252 248.189038 
L 191.066068 257.828731 
L 192.263408 260.356999 
L 194.059417 263.601635 
L 195.37649 265.58337 
L 196.214627 266.502312 
L 196.933031 267.011884 
L 197.651434 267.254678 
L 198.489572 267.265012 
L 200.046113 267.182179 
L 200.764516 267.427349 
L 201.602654 267.999235 
L 203.638131 269.541541 
L 204.356534 269.791746 
L 205.074938 269.836357 
L 206.032809 269.658928 
L 207.58935 269.335455 
L 208.427488 269.391238 
L 211.301102 269.819976 
L 212.378707 269.534114 
L 213.935248 269.105512 
L 214.653652 269.134655 
L 215.611523 269.433345 
L 217.04833 269.914721 
L 217.766734 269.89042 
L 218.365403 269.66467 
L 219.083807 269.156963 
L 220.281146 267.967418 
L 221.239017 267.114524 
L 221.957421 266.77239 
L 222.556091 266.72236 
L 223.513962 266.921107 
L 224.471833 267.050816 
L 225.070503 266.909523 
L 225.669173 266.534041 
L 226.387576 265.77208 
L 227.225714 264.5289 
L 228.901989 261.5039 
L 231.296667 256.887856 
L 232.254539 254.42729 
L 233.451878 250.629761 
L 235.128153 245.349193 
L 235.846556 243.803775 
L 236.325492 243.17739 
L 236.804428 242.917503 
L 237.163629 242.971375 
L 237.522831 243.23553 
L 238.001767 243.896208 
L 238.600437 245.1564 
L 239.438574 247.518411 
L 242.551656 256.953128 
L 243.868729 259.867709 
L 245.42527 262.757251 
L 246.502876 264.375201 
L 247.341013 265.30893 
L 248.17915 265.910102 
L 249.017288 266.208233 
L 251.411966 266.769596 
L 252.369838 267.393153 
L 254.165847 268.618173 
L 255.003984 268.900132 
L 255.842122 268.953381 
L 258.955204 268.849095 
L 261.110414 269.151901 
L 262.18802 268.979865 
L 264.223496 268.543538 
L 265.181368 268.641038 
L 267.097111 268.980318 
L 267.815514 268.83517 
L 268.533918 268.458428 
L 269.491789 267.674027 
L 271.04833 266.382965 
L 271.766734 266.069254 
L 272.604871 265.957163 
L 273.921944 265.830554 
L 274.640348 265.48601 
L 275.358751 264.834928 
L 276.196889 263.701286 
L 277.394228 261.601948 
L 279.669173 257.064025 
L 280.746778 254.450704 
L 281.824383 251.213081 
L 284.099328 244.036681 
L 284.697998 242.814007 
L 285.176933 242.216643 
L 285.536135 242.015586 
L 285.895337 242.033449 
L 286.254539 242.268204 
L 286.733474 242.900885 
L 287.332144 244.143332 
L 288.170281 246.505916 
L 291.403097 256.400487 
L 292.72017 259.382074 
L 294.037244 261.846667 
L 295.114849 263.420347 
L 295.952986 264.300099 
L 296.791124 264.878432 
L 297.868729 265.32263 
L 299.305536 265.926018 
L 300.622609 266.793395 
L 301.939683 267.613095 
L 302.897554 267.940822 
L 303.855425 268.028544 
L 306.489572 268.119923 
L 308.525049 268.352606 
L 309.602654 268.209808 
L 311.757864 267.846421 
L 313.074938 267.955959 
L 314.152543 267.984028 
L 314.99068 267.761758 
L 315.828818 267.275542 
L 318.9419 265.124772 
L 320.977377 264.360397 
L 321.69578 263.744419 
L 322.533918 262.666123 
L 323.491789 261.03584 
L 325.04833 257.889775 
L 326.485137 254.54874 
L 327.562743 251.475702 
L 330.556091 242.272523 
L 331.15476 241.335777 
L 331.633696 241.008968 
L 331.992898 241.024879 
L 332.3521 241.26316 
L 332.831035 241.908153 
L 333.429705 243.174704 
L 334.267842 245.576332 
L 337.620392 255.921625 
L 338.937465 258.914087 
L 340.134805 261.099901 
L 341.092676 262.434768 
L 342.050547 263.383769 
L 343.128153 264.100747 
L 345.522831 265.56259 
L 347.199106 266.595688 
L 348.156978 266.923557 
L 349.354317 267.074315 
L 351.748995 267.323918 
L 353.305536 267.448844 
L 354.502876 267.300821 
L 356.658086 266.986337 
L 358.933031 266.818307 
L 359.771168 266.45423 
L 360.848774 265.692373 
L 362.764516 264.27029 
L 365.278929 262.70208 
L 366.117066 261.703981 
L 367.074938 260.137218 
L 368.272277 257.709476 
L 369.709084 254.323498 
L 370.906423 250.944327 
L 372.582698 245.344841 
L 373.660303 242.077904 
L 374.378707 240.588341 
L 374.857643 240.038332 
L 375.216845 239.887136 
L 375.576046 239.966001 
L 375.935248 240.270583 
L 376.414184 241.004309 
L 377.012853 242.37267 
L 377.970725 245.274191 
L 380.724605 254.060443 
L 381.921944 257.022196 
L 383.119284 259.405542 
L 384.196889 261.036271 
L 385.15476 262.09317 
L 386.3521 263.065144 
L 389.584915 265.297658 
L 390.662521 265.742657 
L 391.979594 266.009075 
L 395.571612 266.408375 
L 396.888685 266.243619 
L 399.403097 265.888705 
L 400.600437 265.664738 
L 401.558308 265.238159 
L 402.635913 264.475654 
L 406.946335 260.879502 
L 407.784472 259.653831 
L 408.742343 257.852985 
L 410.059417 254.843653 
L 411.37649 251.280998 
L 412.693563 247.037208 
L 414.489572 241.162056 
L 415.207975 239.540306 
L 415.686911 238.893212 
L 416.046113 238.670562 
L 416.405315 238.682836 
L 416.764516 238.928381 
L 417.243452 239.598366 
L 417.842122 240.914184 
L 418.680259 243.398507 
L 422.032809 254.068994 
L 423.230148 256.864252 
L 424.307754 258.837433 
L 425.385359 260.324753 
L 426.582698 261.559581 
L 428.498441 263.160914 
L 429.815514 264.027094 
L 430.893119 264.488959 
L 432.329927 264.844178 
L 434.604871 265.183606 
L 435.80221 265.147414 
L 437.837687 264.79671 
L 439.873164 264.32544 
L 440.831035 263.852041 
L 441.908641 263.05679 
L 444.542787 260.706113 
L 445.620392 259.484075 
L 446.578264 258.000411 
L 447.536135 256.086296 
L 448.733474 253.174457 
L 450.050547 249.370524 
L 451.607088 244.093088 
L 452.924162 239.807339 
L 453.642565 238.150512 
L 454.121501 237.486832 
L 454.480703 237.257505 
L 454.839904 237.268827 
L 455.199106 237.519245 
L 455.678042 238.203923 
L 456.276711 239.547807 
L 457.114849 242.079463 
L 460.347665 252.60165 
L 461.545004 255.475695 
L 462.622609 257.49378 
L 463.700215 259.044608 
L 465.017288 260.515185 
L 466.454095 261.804177 
L 467.651434 262.605552 
L 468.848774 263.128179 
L 470.405315 263.539724 
L 471.961856 263.740992 
L 473.159195 263.678788 
L 474.955204 263.322451 
L 476.511745 262.846785 
L 477.58935 262.269218 
L 478.666955 261.418386 
L 480.34323 259.757128 
L 481.660303 258.182802 
L 482.618175 256.682828 
L 483.576046 254.755853 
L 484.653652 252.083206 
L 485.970725 248.175655 
L 487.647 242.358519 
L 488.964073 238.041624 
L 489.682476 236.413821 
L 490.161412 235.788975 
L 490.520614 235.598096 
L 490.879816 235.654449 
L 491.239017 235.954603 
L 491.717953 236.708956 
L 492.316623 238.13739 
L 493.15476 240.767263 
L 496.267842 251.100254 
L 497.345448 253.762767 
L 498.423053 255.869917 
L 499.500658 257.518477 
L 500.697998 258.968235 
L 501.895337 260.106861 
L 503.092676 260.933041 
L 504.290015 261.479479 
L 505.726822 261.878394 
L 506.924162 262.001949 
L 508.121501 261.899268 
L 509.558308 261.541026 
L 510.875381 261.008861 
L 511.952986 260.330494 
L 513.030592 259.376996 
L 514.347665 257.899832 
L 515.545004 256.255318 
L 516.622609 254.370292 
L 517.700215 251.954955 
L 518.77782 248.952167 
L 520.094893 244.546922 
L 522.609306 235.871905 
L 523.207975 234.527784 
L 523.686911 233.874505 
L 524.046113 233.665006 
L 524.405315 233.707521 
L 524.764516 234.003468 
L 525.243452 234.767404 
L 525.842122 236.229225 
L 526.680259 238.931288 
L 529.553873 248.666859 
L 530.751213 251.798889 
L 531.828818 254.033457 
L 532.906423 255.782851 
L 534.103762 257.290015 
L 535.181368 258.306451 
L 536.258973 259.025618 
L 537.456312 259.536901 
L 538.653652 259.789124 
L 539.850991 259.790054 
L 541.04833 259.560187 
L 542.245669 259.107477 
L 543.323275 258.466895 
L 544.281146 257.650277 
L 545.358751 256.433056 
L 546.556091 254.725107 
L 547.633696 252.793986 
L 548.591567 250.641913 
L 549.669173 247.655722 
L 550.986246 243.261922 
L 553.85986 233.168063 
L 554.45853 231.920396 
L 554.937465 231.38453 
L 555.296667 231.281406 
L 555.655869 231.43947 
L 556.015071 231.850455 
L 556.494006 232.757368 
L 557.21241 234.738679 
L 558.409749 238.963808 
L 560.325492 245.665768 
L 561.522831 249.008054 
L 562.600437 251.393692 
L 563.678042 253.26937 
L 564.755647 254.708179 
L 565.833252 255.762541 
L 566.910858 256.483869 
L 567.988463 256.91915 
L 568.946335 257.0776 
L 569.904206 257.019087 
L 570.862077 256.753362 
L 571.939683 256.213549 
L 572.897554 255.48921 
L 573.855425 254.487878 
L 574.933031 253.002608 
L 576.010636 251.111872 
L 577.088241 248.727657 
L 578.165847 245.740385 
L 579.363186 241.702437 
L 582.715736 229.688443 
L 583.314405 228.620102 
L 583.673607 228.313781 
L 584.032809 228.27615 
L 584.392011 228.507356 
L 584.870947 229.211221 
L 585.469616 230.639999 
L 586.307754 233.364093 
L 589.54057 244.660557 
L 590.618175 247.39755 
L 591.69578 249.53541 
L 592.653652 250.98509 
L 593.611523 252.057858 
L 594.569394 252.797733 
L 595.527266 253.236455 
L 596.365403 253.383325 
L 597.203541 253.311702 
L 598.041678 253.026039 
L 598.879816 252.525857 
L 599.837687 251.66936 
L 600.795558 250.468102 
L 601.75343 248.886941 
L 602.711301 246.892237 
L 603.788907 244.082303 
L 604.866512 240.605228 
L 606.183585 235.54003 
L 608.338796 227.10242 
L 609.057199 225.207957 
L 609.536135 224.461868 
L 609.895337 224.216417 
L 610.254539 224.251573 
L 610.61374 224.562883 
L 611.092676 225.374245 
L 611.691346 226.924376 
L 612.649217 230.222457 
L 615.163629 239.336752 
L 616.241235 242.347842 
L 617.199106 244.450008 
L 618.156978 246.041536 
L 618.995115 247.039173 
L 619.833252 247.686241 
L 620.551656 247.992709 
L 621.27006 248.076003 
L 621.988463 247.938935 
L 622.706867 247.582395 
L 623.545004 246.883329 
L 624.383142 245.859961 
L 625.221279 244.487001 
L 626.17915 242.45293 
L 627.137022 239.875251 
L 628.214627 236.278747 
L 629.411966 231.46994 
L 631.926379 220.973158 
L 632.525049 219.315382 
L 633.003984 218.48811 
L 633.363186 218.197762 
L 633.722388 218.200492 
L 634.08159 218.490646 
L 634.560525 219.290624 
L 635.159195 220.845364 
L 636.117066 224.15961 
L 638.511745 232.726894 
L 639.469616 235.321714 
L 640.427488 237.276367 
L 641.265625 238.448341 
L 641.984029 239.081596 
L 642.582698 239.356679 
L 643.181368 239.405996 
L 643.780037 239.230829 
L 644.378707 238.829794 
L 645.097111 238.024895 
L 645.815514 236.875143 
L 646.653652 235.076263 
L 647.491789 232.757667 
L 648.44966 229.42659 
L 649.527266 224.841447 
L 651.443009 215.411088 
L 652.520614 210.672823 
L 653.239017 208.464534 
L 653.717953 207.588291 
L 654.077155 207.267154 
L 654.436357 207.240318 
L 654.795558 207.494352 
L 655.274494 208.222385 
L 655.873164 209.629061 
L 656.950769 212.926777 
L 658.387576 217.148215 
L 659.225714 219.0738 
L 659.824383 220.00685 
L 660.423053 220.539815 
L 660.901989 220.69562 
L 661.380924 220.6167 
L 661.85986 220.294419 
L 662.45853 219.544371 
L 662.937465 218.502009 
L 663.775603 216.18059 
L 664.254539 214.468967 
L 665.451878 208.572244 
L 666.529483 201.611668 
L 667.726822 192.465429 
L 669.403097 179.127484 
L 669.403097 179.127484 
" clip-path="url(#p684865d453)" style="fill: none; stroke: #ff7f0e; stroke-width: 1.5; stroke-linecap: square"/>
   </g>
   <g id="patch_3">
    <path d="M 36.465625 284.4 
L 36.465625 7.2 
" style="fill: none; stroke: #000000; stroke-width: 0.8; stroke-linejoin: miter; stroke-linecap: square"/>
   </g>
   <g id="patch_4">
    <path d="M 706.065625 284.4 
L 706.065625 7.2 
" style="fill: none; stroke: #000000; stroke-width: 0.8; stroke-linejoin: miter; stroke-linecap: square"/>
   </g>
   <g id="patch_5">
    <path d="M 36.465625 284.4 
L 706.065625 284.4 
" style="fill: none; stroke: #000000; stroke-width: 0.8; stroke-linejoin: miter; stroke-linecap: square"/>
   </g>
   <g id="patch_6">
    <path d="M 36.465625 7.2 
L 706.065625 7.2 
" style="fill: none; stroke: #000000; stroke-width: 0.8; stroke-linejoin: miter; stroke-linecap: square"/>
   </g>
   <g id="legend_1">
    <g id="patch_7">
     <path d="M 43.465625 73.9125 
L 206.465625 73.9125 
Q 208.465625 73.9125 208.465625 71.9125 
L 208.465625 14.2 
Q 208.465625 12.2 206.465625 12.2 
L 43.465625 12.2 
Q 41.465625 12.2 41.465625 14.2 
L 41.465625 71.9125 
Q 41.465625 73.9125 43.465625 73.9125 
z
" style="fill: #ffffff; opacity: 0.8; stroke: #cccccc; stroke-linejoin: miter"/>
    </g>
    <g id="line2d_15">
     <path d="M 45.465625 20.298438 
L 55.465625 20.298438 
L 65.465625 20.298438 
" style="fill: none; stroke: #1f77b4; stroke-width: 1.5; stroke-linecap: square"/>
    </g>
    <g id="text_12">
     <!-- Mf before ISCO cut: $e$=0.3 -->
     <g transform="translate(73.465625 23.798438) scale(0.1 -0.1)">
      <defs>
       <path id="DejaVuSans-4d" d="M 628 4666 
L 1569 4666 
L 2759 1491 
L 3956 4666 
L 4897 4666 
L 4897 0 
L 4281 0 
L 4281 4097 
L 3078 897 
L 2444 897 
L 1241 4097 
L 1241 0 
L 628 0 
L 628 4666 
z
" transform="scale(0.015625)"/>
       <path id="DejaVuSans-66" d="M 2375 4863 
L 2375 4384 
L 1825 4384 
Q 1516 4384 1395 4259 
Q 1275 4134 1275 3809 
L 1275 3500 
L 2222 3500 
L 2222 3053 
L 1275 3053 
L 1275 0 
L 697 0 
L 697 3053 
L 147 3053 
L 147 3500 
L 697 3500 
L 697 3744 
Q 697 4328 969 4595 
Q 1241 4863 1831 4863 
L 2375 4863 
z
" transform="scale(0.015625)"/>
       <path id="DejaVuSans-20" transform="scale(0.015625)"/>
       <path id="DejaVuSans-62" d="M 3116 1747 
Q 3116 2381 2855 2742 
Q 2594 3103 2138 3103 
Q 1681 3103 1420 2742 
Q 1159 2381 1159 1747 
Q 1159 1113 1420 752 
Q 1681 391 2138 391 
Q 2594 391 2855 752 
Q 3116 1113 3116 1747 
z
M 1159 2969 
Q 1341 3281 1617 3432 
Q 1894 3584 2278 3584 
Q 2916 3584 3314 3078 
Q 3713 2572 3713 1747 
Q 3713 922 3314 415 
Q 2916 -91 2278 -91 
Q 1894 -91 1617 61 
Q 1341 213 1159 525 
L 1159 0 
L 581 0 
L 581 4863 
L 1159 4863 
L 1159 2969 
z
" transform="scale(0.015625)"/>
       <path id="DejaVuSans-65" d="M 3597 1894 
L 3597 1613 
L 953 1613 
Q 991 1019 1311 708 
Q 1631 397 2203 397 
Q 2534 397 2845 478 
Q 3156 559 3463 722 
L 3463 178 
Q 3153 47 2828 -22 
Q 2503 -91 2169 -91 
Q 1331 -91 842 396 
Q 353 884 353 1716 
Q 353 2575 817 3079 
Q 1281 3584 2069 3584 
Q 2775 3584 3186 3129 
Q 3597 2675 3597 1894 
z
M 3022 2063 
Q 3016 2534 2758 2815 
Q 2500 3097 2075 3097 
Q 1594 3097 1305 2825 
Q 1016 2553 972 2059 
L 3022 2063 
z
" transform="scale(0.015625)"/>
       <path id="DejaVuSans-6f" d="M 1959 3097 
Q 1497 3097 1228 2736 
Q 959 2375 959 1747 
Q 959 1119 1226 758 
Q 1494 397 1959 397 
Q 2419 397 2687 759 
Q 2956 1122 2956 1747 
Q 2956 2369 2687 2733 
Q 2419 3097 1959 3097 
z
M 1959 3584 
Q 2709 3584 3137 3096 
Q 3566 2609 3566 1747 
Q 3566 888 3137 398 
Q 2709 -91 1959 -91 
Q 1206 -91 779 398 
Q 353 888 353 1747 
Q 353 2609 779 3096 
Q 1206 3584 1959 3584 
z
" transform="scale(0.015625)"/>
       <path id="DejaVuSans-72" d="M 2631 2963 
Q 2534 3019 2420 3045 
Q 2306 3072 2169 3072 
Q 1681 3072 1420 2755 
Q 1159 2438 1159 1844 
L 1159 0 
L 581 0 
L 581 3500 
L 1159 3500 
L 1159 2956 
Q 1341 3275 1631 3429 
Q 1922 3584 2338 3584 
Q 2397 3584 2469 3576 
Q 2541 3569 2628 3553 
L 2631 2963 
z
" transform="scale(0.015625)"/>
       <path id="DejaVuSans-49" d="M 628 4666 
L 1259 4666 
L 1259 0 
L 628 0 
L 628 4666 
z
" transform="scale(0.015625)"/>
       <path id="DejaVuSans-53" d="M 3425 4513 
L 3425 3897 
Q 3066 4069 2747 4153 
Q 2428 4238 2131 4238 
Q 1616 4238 1336 4038 
Q 1056 3838 1056 3469 
Q 1056 3159 1242 3001 
Q 1428 2844 1947 2747 
L 2328 2669 
Q 3034 2534 3370 2195 
Q 3706 1856 3706 1288 
Q 3706 609 3251 259 
Q 2797 -91 1919 -91 
Q 1588 -91 1214 -16 
Q 841 59 441 206 
L 441 856 
Q 825 641 1194 531 
Q 1563 422 1919 422 
Q 2459 422 2753 634 
Q 3047 847 3047 1241 
Q 3047 1584 2836 1778 
Q 2625 1972 2144 2069 
L 1759 2144 
Q 1053 2284 737 2584 
Q 422 2884 422 3419 
Q 422 4038 858 4394 
Q 1294 4750 2059 4750 
Q 2388 4750 2728 4690 
Q 3069 4631 3425 4513 
z
" transform="scale(0.015625)"/>
       <path id="DejaVuSans-43" d="M 4122 4306 
L 4122 3641 
Q 3803 3938 3442 4084 
Q 3081 4231 2675 4231 
Q 1875 4231 1450 3742 
Q 1025 3253 1025 2328 
Q 1025 1406 1450 917 
Q 1875 428 2675 428 
Q 3081 428 3442 575 
Q 3803 722 4122 1019 
L 4122 359 
Q 3791 134 3420 21 
Q 3050 -91 2638 -91 
Q 1578 -91 968 557 
Q 359 1206 359 2328 
Q 359 3453 968 4101 
Q 1578 4750 2638 4750 
Q 3056 4750 3426 4639 
Q 3797 4528 4122 4306 
z
" transform="scale(0.015625)"/>
       <path id="DejaVuSans-4f" d="M 2522 4238 
Q 1834 4238 1429 3725 
Q 1025 3213 1025 2328 
Q 1025 1447 1429 934 
Q 1834 422 2522 422 
Q 3209 422 3611 934 
Q 4013 1447 4013 2328 
Q 4013 3213 3611 3725 
Q 3209 4238 2522 4238 
z
M 2522 4750 
Q 3503 4750 4090 4092 
Q 4678 3434 4678 2328 
Q 4678 1225 4090 567 
Q 3503 -91 2522 -91 
Q 1538 -91 948 565 
Q 359 1222 359 2328 
Q 359 3434 948 4092 
Q 1538 4750 2522 4750 
z
" transform="scale(0.015625)"/>
       <path id="DejaVuSans-63" d="M 3122 3366 
L 3122 2828 
Q 2878 2963 2633 3030 
Q 2388 3097 2138 3097 
Q 1578 3097 1268 2742 
Q 959 2388 959 1747 
Q 959 1106 1268 751 
Q 1578 397 2138 397 
Q 2388 397 2633 464 
Q 2878 531 3122 666 
L 3122 134 
Q 2881 22 2623 -34 
Q 2366 -91 2075 -91 
Q 1284 -91 818 406 
Q 353 903 353 1747 
Q 353 2603 823 3093 
Q 1294 3584 2113 3584 
Q 2378 3584 2631 3529 
Q 2884 3475 3122 3366 
z
" transform="scale(0.015625)"/>
       <path id="DejaVuSans-75" d="M 544 1381 
L 544 3500 
L 1119 3500 
L 1119 1403 
Q 1119 906 1312 657 
Q 1506 409 1894 409 
Q 2359 409 2629 706 
Q 2900 1003 2900 1516 
L 2900 3500 
L 3475 3500 
L 3475 0 
L 2900 0 
L 2900 538 
Q 2691 219 2414 64 
Q 2138 -91 1772 -91 
Q 1169 -91 856 284 
Q 544 659 544 1381 
z
M 1991 3584 
L 1991 3584 
z
" transform="scale(0.015625)"/>
       <path id="DejaVuSans-74" d="M 1172 4494 
L 1172 3500 
L 2356 3500 
L 2356 3053 
L 1172 3053 
L 1172 1153 
Q 1172 725 1289 603 
Q 1406 481 1766 481 
L 2356 481 
L 2356 0 
L 1766 0 
Q 1100 0 847 248 
Q 594 497 594 1153 
L 594 3053 
L 172 3053 
L 172 3500 
L 594 3500 
L 594 4494 
L 1172 4494 
z
" transform="scale(0.015625)"/>
       <path id="DejaVuSans-3a" d="M 750 794 
L 1409 794 
L 1409 0 
L 750 0 
L 750 794 
z
M 750 3309 
L 1409 3309 
L 1409 2516 
L 750 2516 
L 750 3309 
z
" transform="scale(0.015625)"/>
       <path id="DejaVuSans-Oblique-65" d="M 3078 2063 
Q 3088 2113 3092 2166 
Q 3097 2219 3097 2272 
Q 3097 2653 2873 2875 
Q 2650 3097 2266 3097 
Q 1838 3097 1509 2826 
Q 1181 2556 1013 2059 
L 3078 2063 
z
M 3578 1613 
L 903 1613 
Q 884 1494 878 1425 
Q 872 1356 872 1306 
Q 872 872 1139 634 
Q 1406 397 1894 397 
Q 2269 397 2603 481 
Q 2938 566 3225 728 
L 3116 159 
Q 2806 34 2476 -28 
Q 2147 -91 1806 -91 
Q 1078 -91 686 257 
Q 294 606 294 1247 
Q 294 1794 489 2264 
Q 684 2734 1063 3103 
Q 1306 3334 1642 3459 
Q 1978 3584 2356 3584 
Q 2950 3584 3301 3228 
Q 3653 2872 3653 2272 
Q 3653 2128 3634 1964 
Q 3616 1800 3578 1613 
z
" transform="scale(0.015625)"/>
       <path id="DejaVuSans-3d" d="M 678 2906 
L 4684 2906 
L 4684 2381 
L 678 2381 
L 678 2906 
z
M 678 1631 
L 4684 1631 
L 4684 1100 
L 678 1100 
L 678 1631 
z
" transform="scale(0.015625)"/>
      </defs>
      <use xlink:href="#DejaVuSans-4d" transform="translate(0 0.015625)"/>
      <use xlink:href="#DejaVuSans-66" transform="translate(86.279297 0.015625)"/>
      <use xlink:href="#DejaVuSans-20" transform="translate(121.484375 0.015625)"/>
      <use xlink:href="#DejaVuSans-62" transform="translate(153.271484 0.015625)"/>
      <use xlink:href="#DejaVuSans-65" transform="translate(216.748047 0.015625)"/>
      <use xlink:href="#DejaVuSans-66" transform="translate(278.271484 0.015625)"/>
      <use xlink:href="#DejaVuSans-6f" transform="translate(313.476562 0.015625)"/>
      <use xlink:href="#DejaVuSans-72" transform="translate(374.658203 0.015625)"/>
      <use xlink:href="#DejaVuSans-65" transform="translate(415.771484 0.015625)"/>
      <use xlink:href="#DejaVuSans-20" transform="translate(477.294922 0.015625)"/>
      <use xlink:href="#DejaVuSans-49" transform="translate(509.082031 0.015625)"/>
      <use xlink:href="#DejaVuSans-53" transform="translate(538.574219 0.015625)"/>
      <use xlink:href="#DejaVuSans-43" transform="translate(602.050781 0.015625)"/>
      <use xlink:href="#DejaVuSans-4f" transform="translate(671.875 0.015625)"/>
      <use xlink:href="#DejaVuSans-20" transform="translate(750.585938 0.015625)"/>
      <use xlink:href="#DejaVuSans-63" transform="translate(782.373047 0.015625)"/>
      <use xlink:href="#DejaVuSans-75" transform="translate(837.353516 0.015625)"/>
      <use xlink:href="#DejaVuSans-74" transform="translate(900.732422 0.015625)"/>
      <use xlink:href="#DejaVuSans-3a" transform="translate(939.941406 0.015625)"/>
      <use xlink:href="#DejaVuSans-20" transform="translate(973.632812 0.015625)"/>
      <use xlink:href="#DejaVuSans-Oblique-65" transform="translate(1005.419922 0.015625)"/>
      <use xlink:href="#DejaVuSans-3d" transform="translate(1066.943359 0.015625)"/>
      <use xlink:href="#DejaVuSans-30" transform="translate(1150.732422 0.015625)"/>
      <use xlink:href="#DejaVuSans-2e" transform="translate(1214.355469 0.015625)"/>
      <use xlink:href="#DejaVuSans-33" transform="translate(1246.142578 0.015625)"/>
     </g>
    </g>
    <g id="line2d_16">
     <path d="M 45.465625 34.976563 
L 55.465625 34.976563 
L 65.465625 34.976563 
" style="fill: none; stroke-dasharray: 2.22,0.96; stroke-dashoffset: 0; stroke: #ff0000; stroke-width: 0.6"/>
    </g>
    <g id="text_13">
     <!-- Mf ISCO $e$=0 -->
     <g transform="translate(73.465625 38.476563) scale(0.1 -0.1)">
      <use xlink:href="#DejaVuSans-4d" transform="translate(0 0.015625)"/>
      <use xlink:href="#DejaVuSans-66" transform="translate(86.279297 0.015625)"/>
      <use xlink:href="#DejaVuSans-20" transform="translate(121.484375 0.015625)"/>
      <use xlink:href="#DejaVuSans-49" transform="translate(153.271484 0.015625)"/>
      <use xlink:href="#DejaVuSans-53" transform="translate(182.763672 0.015625)"/>
      <use xlink:href="#DejaVuSans-43" transform="translate(246.240234 0.015625)"/>
      <use xlink:href="#DejaVuSans-4f" transform="translate(316.064453 0.015625)"/>
      <use xlink:href="#DejaVuSans-20" transform="translate(394.775391 0.015625)"/>
      <use xlink:href="#DejaVuSans-Oblique-65" transform="translate(426.5625 0.015625)"/>
      <use xlink:href="#DejaVuSans-3d" transform="translate(488.085938 0.015625)"/>
      <use xlink:href="#DejaVuSans-30" transform="translate(571.875 0.015625)"/>
     </g>
    </g>
    <g id="PathCollection_2">
     <g>
      <use xlink:href="#mdf22888fa5" x="55.465625" y="50.529688" style="fill: #ff0000; stroke: #ff0000"/>
     </g>
    </g>
    <g id="text_14">
     <!-- ISCO cut -->
     <g transform="translate(73.465625 53.154688) scale(0.1 -0.1)">
      <use xlink:href="#DejaVuSans-49"/>
      <use xlink:href="#DejaVuSans-53" transform="translate(29.492188 0)"/>
      <use xlink:href="#DejaVuSans-43" transform="translate(92.96875 0)"/>
      <use xlink:href="#DejaVuSans-4f" transform="translate(162.792969 0)"/>
      <use xlink:href="#DejaVuSans-20" transform="translate(241.503906 0)"/>
      <use xlink:href="#DejaVuSans-63" transform="translate(273.291016 0)"/>
      <use xlink:href="#DejaVuSans-75" transform="translate(328.271484 0)"/>
      <use xlink:href="#DejaVuSans-74" transform="translate(391.650391 0)"/>
     </g>
    </g>
    <g id="line2d_17">
     <path d="M 45.465625 64.332813 
L 55.465625 64.332813 
L 65.465625 64.332813 
" style="fill: none; stroke: #ff7f0e; stroke-width: 1.5; stroke-linecap: square"/>
    </g>
    <g id="text_15">
     <!-- Mf after ISCO cut: $e$=0.3  -->
     <g transform="translate(73.465625 67.832813) scale(0.1 -0.1)">
      <defs>
       <path id="DejaVuSans-61" d="M 2194 1759 
Q 1497 1759 1228 1600 
Q 959 1441 959 1056 
Q 959 750 1161 570 
Q 1363 391 1709 391 
Q 2188 391 2477 730 
Q 2766 1069 2766 1631 
L 2766 1759 
L 2194 1759 
z
M 3341 1997 
L 3341 0 
L 2766 0 
L 2766 531 
Q 2569 213 2275 61 
Q 1981 -91 1556 -91 
Q 1019 -91 701 211 
Q 384 513 384 1019 
Q 384 1609 779 1909 
Q 1175 2209 1959 2209 
L 2766 2209 
L 2766 2266 
Q 2766 2663 2505 2880 
Q 2244 3097 1772 3097 
Q 1472 3097 1187 3025 
Q 903 2953 641 2809 
L 641 3341 
Q 956 3463 1253 3523 
Q 1550 3584 1831 3584 
Q 2591 3584 2966 3190 
Q 3341 2797 3341 1997 
z
" transform="scale(0.015625)"/>
      </defs>
      <use xlink:href="#DejaVuSans-4d" transform="translate(0 0.015625)"/>
      <use xlink:href="#DejaVuSans-66" transform="translate(86.279297 0.015625)"/>
      <use xlink:href="#DejaVuSans-20" transform="translate(121.484375 0.015625)"/>
      <use xlink:href="#DejaVuSans-61" transform="translate(153.271484 0.015625)"/>
      <use xlink:href="#DejaVuSans-66" transform="translate(214.550781 0.015625)"/>
      <use xlink:href="#DejaVuSans-74" transform="translate(249.755859 0.015625)"/>
      <use xlink:href="#DejaVuSans-65" transform="translate(288.964844 0.015625)"/>
      <use xlink:href="#DejaVuSans-72" transform="translate(350.488281 0.015625)"/>
      <use xlink:href="#DejaVuSans-20" transform="translate(391.601562 0.015625)"/>
      <use xlink:href="#DejaVuSans-49" transform="translate(423.388672 0.015625)"/>
      <use xlink:href="#DejaVuSans-53" transform="translate(452.880859 0.015625)"/>
      <use xlink:href="#DejaVuSans-43" transform="translate(516.357422 0.015625)"/>
      <use xlink:href="#DejaVuSans-4f" transform="translate(586.181641 0.015625)"/>
      <use xlink:href="#DejaVuSans-20" transform="translate(664.892578 0.015625)"/>
      <use xlink:href="#DejaVuSans-63" transform="translate(696.679688 0.015625)"/>
      <use xlink:href="#DejaVuSans-75" transform="translate(751.660156 0.015625)"/>
      <use xlink:href="#DejaVuSans-74" transform="translate(815.039062 0.015625)"/>
      <use xlink:href="#DejaVuSans-3a" transform="translate(854.248047 0.015625)"/>
      <use xlink:href="#DejaVuSans-20" transform="translate(887.939453 0.015625)"/>
      <use xlink:href="#DejaVuSans-Oblique-65" transform="translate(919.726562 0.015625)"/>
      <use xlink:href="#DejaVuSans-3d" transform="translate(981.25 0.015625)"/>
      <use xlink:href="#DejaVuSans-30" transform="translate(1065.039062 0.015625)"/>
      <use xlink:href="#DejaVuSans-2e" transform="translate(1128.662109 0.015625)"/>
      <use xlink:href="#DejaVuSans-33" transform="translate(1160.449219 0.015625)"/>
      <use xlink:href="#DejaVuSans-20" transform="translate(1224.072266 0.015625)"/>
     </g>
    </g>
   </g>
  </g>
 </g>
 <defs>
  <clipPath id="p684865d453">
   <rect x="36.465625" y="7.2" width="669.6" height="277.2"/>
  </clipPath>
 </defs>
</svg>
