<?xml version="1.0" encoding="utf-8" standalone="no"?>
<!DOCTYPE svg PUBLIC "-//W3C//DTD SVG 1.1//EN"
  "http://www.w3.org/Graphics/SVG/1.1/DTD/svg11.dtd">
<svg xmlns:xlink="http://www.w3.org/1999/xlink" width="713.265625pt" height="308.278125pt" viewBox="0 0 713.265625 308.278125" xmlns="http://www.w3.org/2000/svg" version="1.1">
 <metadata>
  <rdf:RDF xmlns:dc="http://purl.org/dc/elements/1.1/" xmlns:cc="http://creativecommons.org/ns#" xmlns:rdf="http://www.w3.org/1999/02/22-rdf-syntax-ns#">
   <cc:Work>
    <dc:type rdf:resource="http://purl.org/dc/dcmitype/StillImage"/>
    <dc:date>2025-09-03T17:24:57.057004</dc:date>
    <dc:format>image/svg+xml</dc:format>
    <dc:creator>
     <cc:Agent>
      <dc:title>Matplotlib v3.10.5, https://matplotlib.org/</dc:title>
     </cc:Agent>
    </dc:creator>
   </cc:Work>
  </rdf:RDF>
 </metadata>
 <defs>
  <style type="text/css">*{stroke-linejoin: round; stroke-linecap: butt}</style>
 </defs>
 <g id="figure_1">
  <g id="patch_1">
   <path d="M 0 308.278125 
L 713.265625 308.278125 
L 713.265625 0 
L 0 0 
z
" style="fill: #ffffff"/>
  </g>
  <g id="axes_1">
   <g id="patch_2">
    <path d="M 36.465625 284.4 
L 706.065625 284.4 
L 706.065625 7.2 
L 36.465625 7.2 
z
" style="fill: #ffffff"/>
   </g>
   <g id="PathCollection_1">
    <defs>
     <path id="m4bafa9f124" d="M 0 1.224745 
C 0.324806 1.224745 0.636353 1.095698 0.866025 0.866025 
C 1.095698 0.636353 1.224745 0.324806 1.224745 0 
C 1.224745 -0.324806 1.095698 -0.636353 0.866025 -0.866025 
C 0.636353 -1.095698 0.324806 -1.224745 0 -1.224745 
C -0.324806 -1.224745 -0.636353 -1.095698 -0.866025 -0.866025 
C -1.095698 -0.636353 -1.224745 -0.324806 -1.224745 0 
C -1.224745 0.324806 -1.095698 0.636353 -0.866025 0.866025 
C -0.636353 1.095698 -0.324806 1.224745 0 1.224745 
z
" style="stroke: #ff0000"/>
    </defs>
    <g clip-path="url(#p70d86ee522)">
     <use xlink:href="#m4bafa9f124" x="671.361308" y="175.292108" style="fill: #ff0000; stroke: #ff0000"/>
    </g>
   </g>
   <g id="matplotlib.axis_1">
    <g id="xtick_1">
     <g id="line2d_1">
      <defs>
       <path id="m8ae0286425" d="M 0 0 
L 0 3.5 
" style="stroke: #000000; stroke-width: 0.8"/>
      </defs>
      <g>
       <use xlink:href="#m8ae0286425" x="67.902418" y="284.4" style="stroke: #000000; stroke-width: 0.8"/>
      </g>
     </g>
     <g id="text_1">
      <!-- −12000 -->
      <g transform="translate(47.806325 298.998438) scale(0.1 -0.1)">
       <defs>
        <path id="DejaVuSans-2212" d="M 678 2272 
L 4684 2272 
L 4684 1741 
L 678 1741 
L 678 2272 
z
" transform="scale(0.015625)"/>
        <path id="DejaVuSans-31" d="M 794 531 
L 1825 531 
L 1825 4091 
L 703 3866 
L 703 4441 
L 1819 4666 
L 2450 4666 
L 2450 531 
L 3481 531 
L 3481 0 
L 794 0 
L 794 531 
z
" transform="scale(0.015625)"/>
        <path id="DejaVuSans-32" d="M 1228 531 
L 3431 531 
L 3431 0 
L 469 0 
L 469 531 
Q 828 903 1448 1529 
Q 2069 2156 2228 2338 
Q 2531 2678 2651 2914 
Q 2772 3150 2772 3378 
Q 2772 3750 2511 3984 
Q 2250 4219 1831 4219 
Q 1534 4219 1204 4116 
Q 875 4013 500 3803 
L 500 4441 
Q 881 4594 1212 4672 
Q 1544 4750 1819 4750 
Q 2544 4750 2975 4387 
Q 3406 4025 3406 3419 
Q 3406 3131 3298 2873 
Q 3191 2616 2906 2266 
Q 2828 2175 2409 1742 
Q 1991 1309 1228 531 
z
" transform="scale(0.015625)"/>
        <path id="DejaVuSans-30" d="M 2034 4250 
Q 1547 4250 1301 3770 
Q 1056 3291 1056 2328 
Q 1056 1369 1301 889 
Q 1547 409 2034 409 
Q 2525 409 2770 889 
Q 3016 1369 3016 2328 
Q 3016 3291 2770 3770 
Q 2525 4250 2034 4250 
z
M 2034 4750 
Q 2819 4750 3233 4129 
Q 3647 3509 3647 2328 
Q 3647 1150 3233 529 
Q 2819 -91 2034 -91 
Q 1250 -91 836 529 
Q 422 1150 422 2328 
Q 422 3509 836 4129 
Q 1250 4750 2034 4750 
z
" transform="scale(0.015625)"/>
       </defs>
       <use xlink:href="#DejaVuSans-2212"/>
       <use xlink:href="#DejaVuSans-31" transform="translate(83.789062 0)"/>
       <use xlink:href="#DejaVuSans-32" transform="translate(147.412109 0)"/>
       <use xlink:href="#DejaVuSans-30" transform="translate(211.035156 0)"/>
       <use xlink:href="#DejaVuSans-30" transform="translate(274.658203 0)"/>
       <use xlink:href="#DejaVuSans-30" transform="translate(338.28125 0)"/>
      </g>
     </g>
    </g>
    <g id="xtick_2">
     <g id="line2d_2">
      <g>
       <use xlink:href="#m8ae0286425" x="169.190225" y="284.4" style="stroke: #000000; stroke-width: 0.8"/>
      </g>
     </g>
     <g id="text_2">
      <!-- −10000 -->
      <g transform="translate(149.094132 298.998438) scale(0.1 -0.1)">
       <use xlink:href="#DejaVuSans-2212"/>
       <use xlink:href="#DejaVuSans-31" transform="translate(83.789062 0)"/>
       <use xlink:href="#DejaVuSans-30" transform="translate(147.412109 0)"/>
       <use xlink:href="#DejaVuSans-30" transform="translate(211.035156 0)"/>
       <use xlink:href="#DejaVuSans-30" transform="translate(274.658203 0)"/>
       <use xlink:href="#DejaVuSans-30" transform="translate(338.28125 0)"/>
      </g>
     </g>
    </g>
    <g id="xtick_3">
     <g id="line2d_3">
      <g>
       <use xlink:href="#m8ae0286425" x="270.478033" y="284.4" style="stroke: #000000; stroke-width: 0.8"/>
      </g>
     </g>
     <g id="text_3">
      <!-- −8000 -->
      <g transform="translate(253.563189 298.998438) scale(0.1 -0.1)">
       <defs>
        <path id="DejaVuSans-38" d="M 2034 2216 
Q 1584 2216 1326 1975 
Q 1069 1734 1069 1313 
Q 1069 891 1326 650 
Q 1584 409 2034 409 
Q 2484 409 2743 651 
Q 3003 894 3003 1313 
Q 3003 1734 2745 1975 
Q 2488 2216 2034 2216 
z
M 1403 2484 
Q 997 2584 770 2862 
Q 544 3141 544 3541 
Q 544 4100 942 4425 
Q 1341 4750 2034 4750 
Q 2731 4750 3128 4425 
Q 3525 4100 3525 3541 
Q 3525 3141 3298 2862 
Q 3072 2584 2669 2484 
Q 3125 2378 3379 2068 
Q 3634 1759 3634 1313 
Q 3634 634 3220 271 
Q 2806 -91 2034 -91 
Q 1263 -91 848 271 
Q 434 634 434 1313 
Q 434 1759 690 2068 
Q 947 2378 1403 2484 
z
M 1172 3481 
Q 1172 3119 1398 2916 
Q 1625 2713 2034 2713 
Q 2441 2713 2670 2916 
Q 2900 3119 2900 3481 
Q 2900 3844 2670 4047 
Q 2441 4250 2034 4250 
Q 1625 4250 1398 4047 
Q 1172 3844 1172 3481 
z
" transform="scale(0.015625)"/>
       </defs>
       <use xlink:href="#DejaVuSans-2212"/>
       <use xlink:href="#DejaVuSans-38" transform="translate(83.789062 0)"/>
       <use xlink:href="#DejaVuSans-30" transform="translate(147.412109 0)"/>
       <use xlink:href="#DejaVuSans-30" transform="translate(211.035156 0)"/>
       <use xlink:href="#DejaVuSans-30" transform="translate(274.658203 0)"/>
      </g>
     </g>
    </g>
    <g id="xtick_4">
     <g id="line2d_4">
      <g>
       <use xlink:href="#m8ae0286425" x="371.76584" y="284.4" style="stroke: #000000; stroke-width: 0.8"/>
      </g>
     </g>
     <g id="text_4">
      <!-- −6000 -->
      <g transform="translate(354.850996 298.998438) scale(0.1 -0.1)">
       <defs>
        <path id="DejaVuSans-36" d="M 2113 2584 
Q 1688 2584 1439 2293 
Q 1191 2003 1191 1497 
Q 1191 994 1439 701 
Q 1688 409 2113 409 
Q 2538 409 2786 701 
Q 3034 994 3034 1497 
Q 3034 2003 2786 2293 
Q 2538 2584 2113 2584 
z
M 3366 4563 
L 3366 3988 
Q 3128 4100 2886 4159 
Q 2644 4219 2406 4219 
Q 1781 4219 1451 3797 
Q 1122 3375 1075 2522 
Q 1259 2794 1537 2939 
Q 1816 3084 2150 3084 
Q 2853 3084 3261 2657 
Q 3669 2231 3669 1497 
Q 3669 778 3244 343 
Q 2819 -91 2113 -91 
Q 1303 -91 875 529 
Q 447 1150 447 2328 
Q 447 3434 972 4092 
Q 1497 4750 2381 4750 
Q 2619 4750 2861 4703 
Q 3103 4656 3366 4563 
z
" transform="scale(0.015625)"/>
       </defs>
       <use xlink:href="#DejaVuSans-2212"/>
       <use xlink:href="#DejaVuSans-36" transform="translate(83.789062 0)"/>
       <use xlink:href="#DejaVuSans-30" transform="translate(147.412109 0)"/>
       <use xlink:href="#DejaVuSans-30" transform="translate(211.035156 0)"/>
       <use xlink:href="#DejaVuSans-30" transform="translate(274.658203 0)"/>
      </g>
     </g>
    </g>
    <g id="xtick_5">
     <g id="line2d_5">
      <g>
       <use xlink:href="#m8ae0286425" x="473.053647" y="284.4" style="stroke: #000000; stroke-width: 0.8"/>
      </g>
     </g>
     <g id="text_5">
      <!-- −4000 -->
      <g transform="translate(456.138803 298.998438) scale(0.1 -0.1)">
       <defs>
        <path id="DejaVuSans-34" d="M 2419 4116 
L 825 1625 
L 2419 1625 
L 2419 4116 
z
M 2253 4666 
L 3047 4666 
L 3047 1625 
L 3713 1625 
L 3713 1100 
L 3047 1100 
L 3047 0 
L 2419 0 
L 2419 1100 
L 313 1100 
L 313 1709 
L 2253 4666 
z
" transform="scale(0.015625)"/>
       </defs>
       <use xlink:href="#DejaVuSans-2212"/>
       <use xlink:href="#DejaVuSans-34" transform="translate(83.789062 0)"/>
       <use xlink:href="#DejaVuSans-30" transform="translate(147.412109 0)"/>
       <use xlink:href="#DejaVuSans-30" transform="translate(211.035156 0)"/>
       <use xlink:href="#DejaVuSans-30" transform="translate(274.658203 0)"/>
      </g>
     </g>
    </g>
    <g id="xtick_6">
     <g id="line2d_6">
      <g>
       <use xlink:href="#m8ae0286425" x="574.341454" y="284.4" style="stroke: #000000; stroke-width: 0.8"/>
      </g>
     </g>
     <g id="text_6">
      <!-- −2000 -->
      <g transform="translate(557.42661 298.998438) scale(0.1 -0.1)">
       <use xlink:href="#DejaVuSans-2212"/>
       <use xlink:href="#DejaVuSans-32" transform="translate(83.789062 0)"/>
       <use xlink:href="#DejaVuSans-30" transform="translate(147.412109 0)"/>
       <use xlink:href="#DejaVuSans-30" transform="translate(211.035156 0)"/>
       <use xlink:href="#DejaVuSans-30" transform="translate(274.658203 0)"/>
      </g>
     </g>
    </g>
    <g id="xtick_7">
     <g id="line2d_7">
      <g>
       <use xlink:href="#m8ae0286425" x="675.629261" y="284.4" style="stroke: #000000; stroke-width: 0.8"/>
      </g>
     </g>
     <g id="text_7">
      <!-- 0 -->
      <g transform="translate(672.448011 298.998438) scale(0.1 -0.1)">
       <use xlink:href="#DejaVuSans-30"/>
      </g>
     </g>
    </g>
   </g>
   <g id="matplotlib.axis_2">
    <g id="ytick_1">
     <g id="line2d_8">
      <defs>
       <path id="md3161e30ff" d="M 0 0 
L -3.5 0 
" style="stroke: #000000; stroke-width: 0.8"/>
      </defs>
      <g>
       <use xlink:href="#md3161e30ff" x="36.465625" y="274.605794" style="stroke: #000000; stroke-width: 0.8"/>
      </g>
     </g>
     <g id="text_8">
      <!-- 0.00 -->
      <g transform="translate(7.2 278.405013) scale(0.1 -0.1)">
       <defs>
        <path id="DejaVuSans-2e" d="M 684 794 
L 1344 794 
L 1344 0 
L 684 0 
L 684 794 
z
" transform="scale(0.015625)"/>
       </defs>
       <use xlink:href="#DejaVuSans-30"/>
       <use xlink:href="#DejaVuSans-2e" transform="translate(63.623047 0)"/>
       <use xlink:href="#DejaVuSans-30" transform="translate(95.410156 0)"/>
       <use xlink:href="#DejaVuSans-30" transform="translate(159.033203 0)"/>
      </g>
     </g>
    </g>
    <g id="ytick_2">
     <g id="line2d_9">
      <g>
       <use xlink:href="#md3161e30ff" x="36.465625" y="228.98241" style="stroke: #000000; stroke-width: 0.8"/>
      </g>
     </g>
     <g id="text_9">
      <!-- 0.01 -->
      <g transform="translate(7.2 232.781628) scale(0.1 -0.1)">
       <use xlink:href="#DejaVuSans-30"/>
       <use xlink:href="#DejaVuSans-2e" transform="translate(63.623047 0)"/>
       <use xlink:href="#DejaVuSans-30" transform="translate(95.410156 0)"/>
       <use xlink:href="#DejaVuSans-31" transform="translate(159.033203 0)"/>
      </g>
     </g>
    </g>
    <g id="ytick_3">
     <g id="line2d_10">
      <g>
       <use xlink:href="#md3161e30ff" x="36.465625" y="183.359025" style="stroke: #000000; stroke-width: 0.8"/>
      </g>
     </g>
     <g id="text_10">
      <!-- 0.02 -->
      <g transform="translate(7.2 187.158244) scale(0.1 -0.1)">
       <use xlink:href="#DejaVuSans-30"/>
       <use xlink:href="#DejaVuSans-2e" transform="translate(63.623047 0)"/>
       <use xlink:href="#DejaVuSans-30" transform="translate(95.410156 0)"/>
       <use xlink:href="#DejaVuSans-32" transform="translate(159.033203 0)"/>
      </g>
     </g>
    </g>
    <g id="ytick_4">
     <g id="line2d_11">
      <g>
       <use xlink:href="#md3161e30ff" x="36.465625" y="137.735641" style="stroke: #000000; stroke-width: 0.8"/>
      </g>
     </g>
     <g id="text_11">
      <!-- 0.03 -->
      <g transform="translate(7.2 141.53486) scale(0.1 -0.1)">
       <defs>
        <path id="DejaVuSans-33" d="M 2597 2516 
Q 3050 2419 3304 2112 
Q 3559 1806 3559 1356 
Q 3559 666 3084 287 
Q 2609 -91 1734 -91 
Q 1441 -91 1130 -33 
Q 819 25 488 141 
L 488 750 
Q 750 597 1062 519 
Q 1375 441 1716 441 
Q 2309 441 2620 675 
Q 2931 909 2931 1356 
Q 2931 1769 2642 2001 
Q 2353 2234 1838 2234 
L 1294 2234 
L 1294 2753 
L 1863 2753 
Q 2328 2753 2575 2939 
Q 2822 3125 2822 3475 
Q 2822 3834 2567 4026 
Q 2313 4219 1838 4219 
Q 1578 4219 1281 4162 
Q 984 4106 628 3988 
L 628 4550 
Q 988 4650 1302 4700 
Q 1616 4750 1894 4750 
Q 2613 4750 3031 4423 
Q 3450 4097 3450 3541 
Q 3450 3153 3228 2886 
Q 3006 2619 2597 2516 
z
" transform="scale(0.015625)"/>
       </defs>
       <use xlink:href="#DejaVuSans-30"/>
       <use xlink:href="#DejaVuSans-2e" transform="translate(63.623047 0)"/>
       <use xlink:href="#DejaVuSans-30" transform="translate(95.410156 0)"/>
       <use xlink:href="#DejaVuSans-33" transform="translate(159.033203 0)"/>
      </g>
     </g>
    </g>
    <g id="ytick_5">
     <g id="line2d_12">
      <g>
       <use xlink:href="#md3161e30ff" x="36.465625" y="92.112257" style="stroke: #000000; stroke-width: 0.8"/>
      </g>
     </g>
     <g id="text_12">
      <!-- 0.04 -->
      <g transform="translate(7.2 95.911476) scale(0.1 -0.1)">
       <use xlink:href="#DejaVuSans-30"/>
       <use xlink:href="#DejaVuSans-2e" transform="translate(63.623047 0)"/>
       <use xlink:href="#DejaVuSans-30" transform="translate(95.410156 0)"/>
       <use xlink:href="#DejaVuSans-34" transform="translate(159.033203 0)"/>
      </g>
     </g>
    </g>
    <g id="ytick_6">
     <g id="line2d_13">
      <g>
       <use xlink:href="#md3161e30ff" x="36.465625" y="46.488873" style="stroke: #000000; stroke-width: 0.8"/>
      </g>
     </g>
     <g id="text_13">
      <!-- 0.05 -->
      <g transform="translate(7.2 50.288091) scale(0.1 -0.1)">
       <defs>
        <path id="DejaVuSans-35" d="M 691 4666 
L 3169 4666 
L 3169 4134 
L 1269 4134 
L 1269 2991 
Q 1406 3038 1543 3061 
Q 1681 3084 1819 3084 
Q 2600 3084 3056 2656 
Q 3513 2228 3513 1497 
Q 3513 744 3044 326 
Q 2575 -91 1722 -91 
Q 1428 -91 1123 -41 
Q 819 9 494 109 
L 494 744 
Q 775 591 1075 516 
Q 1375 441 1709 441 
Q 2250 441 2565 725 
Q 2881 1009 2881 1497 
Q 2881 1984 2565 2268 
Q 2250 2553 1709 2553 
Q 1456 2553 1204 2497 
Q 953 2441 691 2322 
L 691 4666 
z
" transform="scale(0.015625)"/>
       </defs>
       <use xlink:href="#DejaVuSans-30"/>
       <use xlink:href="#DejaVuSans-2e" transform="translate(63.623047 0)"/>
       <use xlink:href="#DejaVuSans-30" transform="translate(95.410156 0)"/>
       <use xlink:href="#DejaVuSans-35" transform="translate(159.033203 0)"/>
      </g>
     </g>
    </g>
   </g>
   <g id="line2d_14">
    <path d="M 66.901989 259.108827 
L 67.069359 258.723544 
L 67.738842 256.187 
L 70.333088 245.340847 
L 70.8352 244.413867 
L 71.169942 244.152152 
L 71.504683 244.184269 
L 71.839425 244.506082 
L 72.257851 245.293251 
L 72.843649 247.022086 
L 73.680502 250.385631 
L 75.437895 257.688661 
L 76.107378 259.4664 
L 76.60949 260.27674 
L 77.195287 260.811628 
L 78.032141 261.536499 
L 78.534253 262.334483 
L 79.203736 263.888424 
L 81.128499 268.642632 
L 81.881667 269.875184 
L 82.467465 270.443156 
L 82.885891 270.562996 
L 83.220633 270.435998 
L 83.555374 270.066757 
L 83.973801 269.203977 
L 84.475913 267.525325 
L 85.98225 261.690163 
L 86.14962 261.623749 
L 86.316991 261.757642 
L 86.568047 262.299639 
L 86.986474 263.845368 
L 88.241754 268.815162 
L 88.827552 270.180122 
L 89.329664 270.855769 
L 89.748091 271.112007 
L 90.166517 271.101805 
L 90.584944 270.819097 
L 91.003371 270.251891 
L 91.589168 268.992977 
L 93.011819 265.511963 
L 93.346561 265.298949 
L 93.597617 265.391337 
L 93.932358 265.803186 
L 94.601841 267.134594 
L 95.271324 268.300288 
L 95.689751 268.67866 
L 96.024492 268.747497 
L 96.359234 268.606921 
L 96.77766 268.15161 
L 97.363458 267.076418 
L 98.535053 264.743716 
L 98.869794 264.577832 
L 99.12085 264.721669 
L 99.455592 265.274473 
L 99.957704 266.697427 
L 101.212984 270.57761 
L 101.715096 271.448761 
L 102.133523 271.771969 
L 102.468265 271.771473 
L 102.803006 271.547891 
L 103.221433 270.960261 
L 103.723545 269.798155 
L 104.309342 267.796435 
L 105.313567 263.255874 
L 105.815679 261.514465 
L 106.066735 261.152482 
L 106.234106 261.154121 
L 106.485162 261.526067 
L 106.819903 262.61184 
L 107.740442 266.925956 
L 108.409925 269.340903 
L 108.912037 270.349031 
L 109.330464 270.691241 
L 109.665205 270.679763 
L 109.999946 270.448669 
L 110.418373 269.89585 
L 111.004171 268.719532 
L 111.841024 266.442938 
L 113.514731 261.626681 
L 114.016844 260.813649 
L 114.518956 260.410644 
L 115.690551 259.737859 
L 116.108977 259.082987 
L 116.61109 257.819274 
L 117.280572 255.368356 
L 118.535853 249.546596 
L 119.456392 245.782347 
L 120.042189 244.207013 
L 120.460616 243.603759 
L 120.795357 243.461379 
L 121.046413 243.555628 
L 121.381155 243.943 
L 121.799582 244.820898 
L 122.385379 246.675834 
L 123.305918 250.538116 
L 124.728569 256.468741 
L 125.398052 258.385353 
L 125.983849 259.479653 
L 126.988074 260.744465 
L 127.657556 261.837245 
L 128.49441 263.764528 
L 130.000746 267.30641 
L 130.753915 268.515332 
L 131.256027 268.989787 
L 131.674453 269.120944 
L 132.009195 269.014238 
L 132.343936 268.689026 
L 132.762363 267.945517 
L 133.348161 266.310704 
L 134.352385 263.271873 
L 134.687126 262.87248 
L 134.938182 262.92198 
L 135.189238 263.26283 
L 135.607665 264.32567 
L 137.114002 268.752792 
L 137.699799 269.662267 
L 138.118226 269.98416 
L 138.536653 270.044738 
L 138.955079 269.84833 
L 139.373506 269.40066 
L 139.959304 268.404547 
L 141.214584 266.070872 
L 141.549325 265.839937 
L 141.884067 265.881998 
L 142.218808 266.166124 
L 142.888291 267.120411 
L 143.557774 267.970528 
L 143.976201 268.230143 
L 144.394627 268.226091 
L 144.813054 267.959144 
L 145.315166 267.338555 
L 146.737817 265.287741 
L 147.072559 265.237091 
L 147.4073 265.492145 
L 147.825727 266.209242 
L 148.662581 268.314296 
L 149.415749 269.909608 
L 149.917861 270.462222 
L 150.252602 270.56488 
L 150.587344 270.452755 
L 151.00577 270.015347 
L 151.507883 269.065674 
L 152.09368 267.410186 
L 153.683702 262.447143 
L 153.934758 262.286872 
L 154.185814 262.442252 
L 154.520555 263.101041 
L 155.106353 265.032255 
L 156.026892 267.988832 
L 156.529004 268.899004 
L 156.947431 269.207485 
L 157.282172 269.180637 
L 157.616914 268.937023 
L 158.119026 268.224021 
L 158.788508 266.763573 
L 159.876418 263.690326 
L 160.880642 261.107716 
L 161.46644 260.16349 
L 162.219608 259.445153 
L 162.805406 258.812257 
L 163.307518 257.898175 
L 163.80963 256.507847 
L 164.479113 253.942233 
L 166.822303 244.082183 
L 167.324415 243.105136 
L 167.659156 242.83748 
L 167.910212 242.845765 
L 168.244954 243.132547 
L 168.66338 243.910651 
L 169.165493 245.382274 
L 169.918661 248.376698 
L 171.759739 256.039927 
L 172.429221 257.868299 
L 173.18239 259.268707 
L 174.43767 261.47612 
L 175.776636 264.615618 
L 176.697174 266.490612 
L 177.366657 267.400024 
L 177.868769 267.73283 
L 178.287196 267.725848 
L 178.621938 267.507843 
L 179.040364 266.957444 
L 179.626162 265.744139 
L 180.546701 263.788235 
L 180.881442 263.506116 
L 181.132498 263.540712 
L 181.46724 263.909089 
L 181.969352 264.969909 
L 183.308318 268.075769 
L 183.894115 268.807305 
L 184.312542 269.033269 
L 184.730969 269.01701 
L 185.149395 268.769524 
L 185.651507 268.204811 
L 187.241529 266.100362 
L 187.576271 266.024186 
L 187.911012 266.144223 
L 188.413124 266.594245 
L 189.501034 267.644604 
L 189.919461 267.772031 
L 190.337887 267.680781 
L 190.839999 267.301065 
L 191.676853 266.27368 
L 192.346336 265.611199 
L 192.681077 265.527285 
L 193.015819 265.671527 
L 193.434245 266.166013 
L 194.103728 267.419644 
L 194.940582 268.904442 
L 195.442694 269.375958 
L 195.777435 269.4541 
L 196.112177 269.334172 
L 196.530604 268.90844 
L 197.032716 268.015012 
L 197.702199 266.292222 
L 198.790108 263.406422 
L 199.12485 262.990567 
L 199.375906 262.938944 
L 199.626962 263.11865 
L 199.961703 263.673071 
L 200.631186 265.373995 
L 201.384354 267.098686 
L 201.802781 267.635874 
L 202.137522 267.805097 
L 202.472264 267.748286 
L 202.890691 267.386763 
L 203.392803 266.589494 
L 204.062286 265.063628 
L 206.238105 259.725597 
L 207.158644 258.464064 
L 207.744441 257.525958 
L 208.330239 256.099316 
L 208.999722 253.726671 
L 210.087631 248.74936 
L 211.091855 244.491496 
L 211.677653 242.864538 
L 212.09608 242.25871 
L 212.430821 242.140652 
L 212.681877 242.268573 
L 213.016619 242.718873 
L 213.435045 243.695912 
L 214.020843 245.697913 
L 215.108752 250.452965 
L 216.196662 254.874455 
L 216.94983 257.070752 
L 217.870369 258.992989 
L 219.125649 261.630708 
L 220.715671 265.091536 
L 221.385154 266.046287 
L 221.887266 266.426352 
L 222.305693 266.478453 
L 222.72412 266.269379 
L 223.226232 265.694313 
L 224.648883 263.777325 
L 224.983624 263.785253 
L 225.318366 264.067084 
L 225.820478 264.887005 
L 227.243129 267.504448 
L 227.745241 267.979874 
L 228.163668 268.132416 
L 228.582095 268.068997 
L 229.084207 267.738858 
L 229.92106 266.814064 
L 230.590543 266.171374 
L 231.00897 266.01384 
L 231.427397 266.090498 
L 232.013194 266.490037 
L 233.017418 267.204119 
L 233.519531 267.273314 
L 234.021643 267.08571 
L 234.691126 266.521906 
L 235.69535 265.668695 
L 236.113777 265.612106 
L 236.532203 265.83307 
L 237.034315 266.42022 
L 238.456967 268.285905 
L 238.875393 268.441042 
L 239.210135 268.367322 
L 239.628561 268.023852 
L 240.130674 267.267428 
L 240.883842 265.613974 
L 241.804381 263.647918 
L 242.222807 263.239245 
L 242.473864 263.222291 
L 242.808605 263.46374 
L 243.310717 264.249364 
L 244.398627 266.117986 
L 244.817054 266.434581 
L 245.151795 266.456233 
L 245.486536 266.273863 
L 245.904963 265.782761 
L 246.490761 264.688997 
L 247.4113 262.385549 
L 248.66658 259.34699 
L 249.754489 257.439744 
L 250.423972 256.043591 
L 251.00977 254.298502 
L 251.762938 251.261645 
L 253.687701 243.002246 
L 254.189813 241.852182 
L 254.524555 241.485982 
L 254.775611 241.434399 
L 255.026667 241.574506 
L 255.361408 242.049599 
L 255.779835 243.067167 
L 256.365632 245.129067 
L 257.620913 250.678728 
L 258.625137 254.593558 
L 259.461991 256.950567 
L 261.805181 262.290083 
L 262.725719 264.096576 
L 263.395202 264.953477 
L 263.897314 265.252727 
L 264.315741 265.251531 
L 264.734168 265.031912 
L 265.403651 264.376202 
L 266.073134 263.789064 
L 266.49156 263.718024 
L 266.826302 263.889731 
L 267.244729 264.363016 
L 269.253177 267.109255 
L 269.755289 267.264422 
L 270.257401 267.152818 
L 270.843199 266.763524 
L 272.014794 265.902287 
L 272.516906 265.838914 
L 273.019018 266.014774 
L 274.525355 266.752329 
L 275.027467 266.686608 
L 275.613264 266.366825 
L 276.95223 265.504922 
L 277.370657 265.523115 
L 277.789083 265.757418 
L 278.458566 266.451121 
L 279.29542 267.290315 
L 279.797532 267.479887 
L 280.215959 267.376599 
L 280.634385 267.026101 
L 281.220183 266.167345 
L 282.89389 263.327811 
L 283.228631 263.195415 
L 283.563373 263.298228 
L 283.9818 263.693098 
L 285.23708 265.100938 
L 285.655507 265.187789 
L 285.990248 265.048384 
L 286.408675 264.619099 
L 286.994472 263.607425 
L 287.831326 261.618561 
L 289.337662 258.00427 
L 290.760313 254.855821 
L 291.429796 252.642505 
L 292.26665 249.018184 
L 293.689301 242.798867 
L 294.275098 241.246225 
L 294.693525 240.739076 
L 294.944581 240.696975 
L 295.195637 240.852494 
L 295.530379 241.355989 
L 295.948805 242.4171 
L 296.534603 244.539849 
L 299.29622 255.569954 
L 300.5515 258.744372 
L 302.141522 262.324034 
L 302.89469 263.502272 
L 303.480487 264.011065 
L 303.9826 264.130677 
L 304.484712 263.991967 
L 305.823677 263.426258 
L 306.242104 263.580955 
L 306.744216 264.058413 
L 308.668979 266.271403 
L 309.171092 266.406095 
L 309.673204 266.316913 
L 310.426372 265.918531 
L 311.263225 265.531557 
L 311.765338 265.51795 
L 312.43482 265.75598 
L 313.52273 266.17195 
L 314.108527 266.12711 
L 314.77801 265.817799 
L 315.949605 265.230692 
L 316.451717 265.262598 
L 316.95383 265.527278 
L 318.460166 266.537368 
L 318.878593 266.50785 
L 319.29702 266.262247 
L 319.799132 265.699416 
L 320.719671 264.215922 
L 321.389153 263.278719 
L 321.80758 262.984044 
L 322.226007 262.971458 
L 322.728119 263.253984 
L 323.732343 263.935074 
L 324.15077 263.943975 
L 324.569197 263.696895 
L 325.071309 263.06116 
L 325.740792 261.738473 
L 327.414499 257.588908 
L 329.004521 253.605318 
L 329.757689 250.877925 
L 330.929284 245.503987 
L 331.849823 241.745281 
L 332.351935 240.456431 
L 332.770362 239.954196 
L 333.021418 239.922776 
L 333.272474 240.094588 
L 333.607215 240.627055 
L 334.025642 241.73127 
L 334.695125 244.267045 
L 337.038315 254.01475 
L 338.126224 257.118084 
L 339.548875 260.541708 
L 340.385729 262.039929 
L 340.971526 262.699505 
L 341.473639 262.979287 
L 342.059436 263.021909 
L 343.314716 262.953503 
L 343.816829 263.23654 
L 344.486311 263.931515 
L 345.657906 265.189861 
L 346.243704 265.49568 
L 346.829501 265.528536 
L 347.58267 265.299477 
L 348.503208 265.045992 
L 349.172691 265.123722 
L 350.930084 265.548544 
L 351.599567 265.356463 
L 353.105903 264.807944 
L 353.6917 264.931481 
L 355.532778 265.611583 
L 356.03489 265.366491 
L 356.620688 264.76239 
L 358.37808 262.601992 
L 358.796507 262.473383 
L 359.298619 262.553659 
L 360.302843 262.80134 
L 360.72127 262.661766 
L 361.139697 262.291801 
L 361.641809 261.541681 
L 362.394977 259.919517 
L 364.570797 254.291962 
L 365.40765 251.66288 
L 366.244504 248.210422 
L 368.001896 240.616704 
L 368.504008 239.446416 
L 368.83875 239.101105 
L 369.089806 239.085857 
L 369.340862 239.27917 
L 369.675603 239.846757 
L 370.177715 241.281565 
L 370.930884 244.349903 
L 372.855647 252.587691 
L 373.943556 255.979787 
L 375.198837 259.156287 
L 376.03569 260.735381 
L 376.705173 261.544074 
L 377.290971 261.912728 
L 378.127824 262.107793 
L 378.880992 262.36221 
L 379.550475 262.882543 
L 381.307868 264.488264 
L 381.893665 264.663434 
L 382.563148 264.626081 
L 383.902114 264.474745 
L 384.738967 264.666099 
L 385.743191 264.87119 
L 386.412674 264.780012 
L 388.421123 264.290273 
L 389.257976 264.539146 
L 390.011145 264.701743 
L 390.513257 264.594819 
L 391.015369 264.260332 
L 391.684852 263.518467 
L 392.940132 262.075362 
L 393.525929 261.781619 
L 394.279098 261.713898 
L 394.864895 261.600023 
L 395.367007 261.26001 
L 395.869119 260.618487 
L 396.538602 259.315963 
L 397.542826 256.762976 
L 399.216534 251.900038 
L 400.053387 248.707828 
L 402.396577 238.964425 
L 402.815004 238.290019 
L 403.06606 238.165429 
L 403.317116 238.256256 
L 403.651857 238.703425 
L 404.070284 239.739361 
L 404.656082 241.88803 
L 407.668754 254.264148 
L 408.756664 257.288026 
L 409.677203 259.236202 
L 410.346686 260.198273 
L 411.016169 260.784525 
L 413.359359 262.382621 
L 414.530954 263.40922 
L 415.200436 263.698066 
L 415.953605 263.759268 
L 417.459941 263.815409 
L 419.133648 264.074371 
L 419.970502 263.886734 
L 421.225782 263.584331 
L 422.062636 263.661822 
L 422.983174 263.716773 
L 423.568972 263.497211 
L 424.154769 263.018167 
L 426.330589 260.90466 
L 427.75324 260.154228 
L 428.255352 259.548305 
L 428.841149 258.487805 
L 429.678003 256.437577 
L 431.016969 252.493743 
L 432.021193 248.896576 
L 433.109102 243.970001 
L 434.197012 239.22873 
L 434.699124 237.816839 
L 435.117551 237.239537 
L 435.368607 237.183102 
L 435.619663 237.346825 
L 435.954404 237.893676 
L 436.372831 239.047827 
L 437.042314 241.695452 
L 439.469189 252.157095 
L 440.557099 255.503436 
L 441.477638 257.656035 
L 442.230806 258.887338 
L 442.983974 259.691062 
L 446.582445 262.61475 
L 447.335613 262.797926 
L 450.934083 263.109181 
L 452.942532 262.731793 
L 454.114127 262.631893 
L 454.699924 262.338186 
L 455.369407 261.738335 
L 457.29417 259.806434 
L 458.465765 258.83692 
L 459.051562 258.004246 
L 459.721045 256.622916 
L 460.641584 254.116917 
L 461.813179 250.278623 
L 462.817403 246.213475 
L 464.909537 237.18823 
L 465.327964 236.342041 
L 465.662706 236.096568 
L 465.913762 236.17584 
L 466.248503 236.624511 
L 466.66693 237.685603 
L 467.252727 239.895097 
L 470.349085 252.946611 
L 471.269624 255.49036 
L 472.106478 257.181006 
L 472.943331 258.340869 
L 474.533353 259.990515 
L 475.788633 261.137225 
L 476.541802 261.546414 
L 477.546026 261.805965 
L 479.972901 262.161897 
L 480.977125 261.964006 
L 482.567147 261.659379 
L 483.404001 261.438171 
L 484.073484 261.017809 
L 484.910337 260.172522 
L 487.92301 256.578368 
L 488.592493 255.117425 
L 489.429346 252.736319 
L 490.517256 248.957417 
L 491.52148 244.702937 
L 493.446243 236.19856 
L 493.86467 235.234706 
L 494.199412 234.895446 
L 494.450468 234.909681 
L 494.701524 235.153212 
L 495.036265 235.814566 
L 495.538377 237.422496 
L 496.291545 240.736007 
L 498.132623 249.098004 
L 499.136848 252.54392 
L 500.057386 254.913865 
L 500.89424 256.460206 
L 501.898464 257.822476 
L 503.404801 259.477793 
L 504.241654 260.107165 
L 505.162193 260.505461 
L 506.8359 260.922913 
L 507.756439 260.960742 
L 508.844349 260.740251 
L 510.936483 260.07591 
L 511.605965 259.580456 
L 512.526504 258.571383 
L 514.534953 255.938098 
L 515.288121 254.494853 
L 516.041289 252.522345 
L 516.961828 249.458697 
L 518.049738 245.034249 
L 520.560298 234.184824 
L 520.978725 233.558274 
L 521.229781 233.492062 
L 521.480837 233.662343 
L 521.815579 234.241793 
L 522.234006 235.466465 
L 522.903488 238.258274 
L 525.330364 249.219121 
L 526.250903 252.142462 
L 527.087756 254.134052 
L 528.008295 255.760152 
L 529.17989 257.352806 
L 530.184114 258.361327 
L 531.020968 258.901673 
L 532.108877 259.326132 
L 533.196787 259.543293 
L 534.117326 259.486086 
L 535.372606 259.134962 
L 536.460516 258.666261 
L 537.213684 258.097471 
L 538.050538 257.15362 
L 539.389503 255.237667 
L 540.310042 253.566426 
L 541.06321 251.707208 
L 541.900064 249.01071 
L 542.904288 244.98784 
L 544.159569 238.93873 
L 545.247478 233.958499 
L 545.74959 232.484419 
L 546.084332 231.973177 
L 546.335388 231.86751 
L 546.586444 232.004955 
L 546.921185 232.553002 
L 547.339612 233.759439 
L 548.009095 236.564971 
L 550.519656 248.057392 
L 551.440194 250.9562 
L 552.360733 253.107872 
L 553.364958 254.857607 
L 554.369182 256.162492 
L 555.206035 256.913769 
L 556.126574 257.442445 
L 557.130799 257.770356 
L 557.967652 257.829976 
L 558.804506 257.67159 
L 559.892415 257.223633 
L 560.729269 256.670202 
L 561.482437 255.908355 
L 562.402976 254.622772 
L 563.490886 252.700416 
L 564.327739 250.773785 
L 565.164593 248.217624 
L 566.085132 244.625532 
L 567.173041 239.443688 
L 568.763063 231.803724 
L 569.265175 230.413256 
L 569.599916 229.987789 
L 569.850973 229.956479 
L 570.102029 230.173479 
L 570.43677 230.829592 
L 570.938882 232.486883 
L 571.69205 235.968483 
L 573.533128 244.825944 
L 574.453667 248.107719 
L 575.374206 250.579848 
L 576.37843 252.604011 
L 577.298969 253.977329 
L 578.135823 254.83009 
L 578.972676 255.378049 
L 579.80953 255.676765 
L 580.562698 255.722641 
L 581.315866 255.554922 
L 582.15272 255.150642 
L 582.989573 254.50958 
L 583.742742 253.653597 
L 584.579595 252.344616 
L 585.500134 250.481226 
L 586.336988 248.289866 
L 587.173841 245.434744 
L 588.09438 241.470836 
L 589.433346 234.574339 
L 590.43757 229.789439 
L 590.939682 228.249853 
L 591.274423 227.722936 
L 591.52548 227.622512 
L 591.776536 227.779671 
L 592.111277 228.37404 
L 592.529704 229.660792 
L 593.199187 232.614524 
L 595.626062 244.163745 
L 596.546601 247.182857 
L 597.46714 249.432798 
L 598.303993 250.926 
L 599.140847 251.966814 
L 599.894015 252.579253 
L 600.647183 252.920082 
L 601.316666 252.996913 
L 601.986149 252.862538 
L 602.739317 252.473717 
L 603.492485 251.823705 
L 604.245653 250.854595 
L 604.998822 249.517458 
L 605.835675 247.576013 
L 606.672529 245.066336 
L 607.509382 241.840234 
L 608.513607 236.999904 
L 610.689426 226.06384 
L 611.107853 225.0156 
L 611.442594 224.674082 
L 611.69365 224.726847 
L 611.944706 225.041083 
L 612.279448 225.83802 
L 612.78156 227.703813 
L 613.618413 231.864651 
L 615.208435 239.755689 
L 616.128974 243.213045 
L 616.965827 245.583113 
L 617.802681 247.304304 
L 618.555849 248.370361 
L 619.225332 248.982934 
L 619.894815 249.306375 
L 620.480612 249.357877 
L 621.06641 249.196644 
L 621.735893 248.755956 
L 622.405376 248.029519 
L 623.074858 246.979847 
L 623.828027 245.36449 
L 624.66488 242.976844 
L 625.501734 239.866193 
L 626.422273 235.512469 
L 627.844924 227.439973 
L 628.765463 222.809877 
L 629.267575 221.234731 
L 629.602316 220.734424 
L 629.853372 220.677499 
L 630.104428 220.894681 
L 630.43917 221.587118 
L 630.941282 223.356206 
L 631.69445 227.051621 
L 633.451842 235.917701 
L 634.372381 239.336981 
L 635.209235 241.587452 
L 635.962403 242.975573 
L 636.631886 243.754651 
L 637.217683 244.110356 
L 637.719796 244.170806 
L 638.221908 243.995199 
L 638.807705 243.519069 
L 639.393503 242.738545 
L 640.062985 241.444872 
L 640.816154 239.42542 
L 641.569322 236.751089 
L 642.406175 232.950493 
L 643.4104 227.277445 
L 645.167792 217.131972 
L 645.669904 215.441561 
L 646.004646 214.877638 
L 646.255702 214.77666 
L 646.506758 214.95987 
L 646.841499 215.624642 
L 647.259926 217.030035 
L 647.929409 220.175853 
L 649.854172 229.757294 
L 650.691026 232.640452 
L 651.360508 234.239158 
L 651.946306 235.14071 
L 652.448418 235.54516 
L 652.866845 235.630821 
L 653.285272 235.495262 
L 653.703698 235.138255 
L 654.20581 234.413528 
L 654.791608 233.142859 
L 655.461091 231.069023 
L 656.214259 227.927952 
L 657.051113 223.408785 
L 658.139022 216.13591 
L 659.477988 207.373054 
L 660.063785 204.930886 
L 660.482212 204.087309 
L 660.733268 203.971618 
L 660.984324 204.14044 
L 661.319066 204.767068 
L 661.821178 206.360156 
L 662.741717 210.289801 
L 663.745941 214.386065 
L 664.415424 216.208578 
L 664.917536 217.012431 
L 665.252277 217.234058 
L 665.587019 217.199202 
L 665.92176 216.892527 
L 666.340187 216.180487 
L 666.842299 214.879797 
L 667.260726 213.191344 
L 668.097579 208.458551 
L 669.018118 200.894458 
L 670.106028 189.460257 
L 672.365533 165.120917 
L 673.369757 154.334601 
L 673.955554 145.314217 
L 674.290296 136.737245 
L 674.625037 120.928927 
L 675.043464 87.729567 
L 675.629261 19.8 
L 675.629261 19.8 
" clip-path="url(#p70d86ee522)" style="fill: none; stroke: #1f77b4; stroke-width: 1.5; stroke-linecap: square"/>
   </g>
   <g id="line2d_15">
    <path d="M 36.465625 175.793553 
L 706.065625 175.793553 
" clip-path="url(#p70d86ee522)" style="fill: none; stroke-dasharray: 2.22,0.96; stroke-dashoffset: 0; stroke: #ff0000; stroke-width: 0.6"/>
   </g>
   <g id="line2d_16">
    <path d="M 66.901989 259.108827 
L 67.069359 258.723544 
L 67.738842 256.187 
L 70.333088 245.340847 
L 70.8352 244.413867 
L 71.169942 244.152152 
L 71.504683 244.184269 
L 71.839425 244.506082 
L 72.257851 245.293251 
L 72.843649 247.022086 
L 73.680502 250.385631 
L 75.437895 257.688661 
L 76.107378 259.4664 
L 76.60949 260.27674 
L 77.195287 260.811628 
L 78.032141 261.536499 
L 78.534253 262.334483 
L 79.203736 263.888424 
L 81.128499 268.642632 
L 81.881667 269.875184 
L 82.467465 270.443156 
L 82.885891 270.562996 
L 83.220633 270.435998 
L 83.555374 270.066757 
L 83.973801 269.203977 
L 84.475913 267.525325 
L 85.98225 261.690163 
L 86.14962 261.623749 
L 86.316991 261.757642 
L 86.568047 262.299639 
L 86.986474 263.845368 
L 88.241754 268.815162 
L 88.827552 270.180122 
L 89.329664 270.855769 
L 89.748091 271.112007 
L 90.166517 271.101805 
L 90.584944 270.819097 
L 91.003371 270.251891 
L 91.589168 268.992977 
L 93.011819 265.511963 
L 93.346561 265.298949 
L 93.597617 265.391337 
L 93.932358 265.803186 
L 94.601841 267.134594 
L 95.271324 268.300288 
L 95.689751 268.67866 
L 96.024492 268.747497 
L 96.359234 268.606921 
L 96.77766 268.15161 
L 97.363458 267.076418 
L 98.535053 264.743716 
L 98.869794 264.577832 
L 99.12085 264.721669 
L 99.455592 265.274473 
L 99.957704 266.697427 
L 101.212984 270.57761 
L 101.715096 271.448761 
L 102.133523 271.771969 
L 102.468265 271.771473 
L 102.803006 271.547891 
L 103.221433 270.960261 
L 103.723545 269.798155 
L 104.309342 267.796435 
L 105.313567 263.255874 
L 105.815679 261.514465 
L 106.066735 261.152482 
L 106.234106 261.154121 
L 106.485162 261.526067 
L 106.819903 262.61184 
L 107.740442 266.925956 
L 108.409925 269.340903 
L 108.912037 270.349031 
L 109.330464 270.691241 
L 109.665205 270.679763 
L 109.999946 270.448669 
L 110.418373 269.89585 
L 111.004171 268.719532 
L 111.841024 266.442938 
L 113.514731 261.626681 
L 114.016844 260.813649 
L 114.518956 260.410644 
L 115.690551 259.737859 
L 116.108977 259.082987 
L 116.61109 257.819274 
L 117.280572 255.368356 
L 118.535853 249.546596 
L 119.456392 245.782347 
L 120.042189 244.207013 
L 120.460616 243.603759 
L 120.795357 243.461379 
L 121.046413 243.555628 
L 121.381155 243.943 
L 121.799582 244.820898 
L 122.385379 246.675834 
L 123.305918 250.538116 
L 124.728569 256.468741 
L 125.398052 258.385353 
L 125.983849 259.479653 
L 126.988074 260.744465 
L 127.657556 261.837245 
L 128.49441 263.764528 
L 130.000746 267.30641 
L 130.753915 268.515332 
L 131.256027 268.989787 
L 131.674453 269.120944 
L 132.009195 269.014238 
L 132.343936 268.689026 
L 132.762363 267.945517 
L 133.348161 266.310704 
L 134.352385 263.271873 
L 134.687126 262.87248 
L 134.938182 262.92198 
L 135.189238 263.26283 
L 135.607665 264.32567 
L 137.114002 268.752792 
L 137.699799 269.662267 
L 138.118226 269.98416 
L 138.536653 270.044738 
L 138.955079 269.84833 
L 139.373506 269.40066 
L 139.959304 268.404547 
L 141.214584 266.070872 
L 141.549325 265.839937 
L 141.884067 265.881998 
L 142.218808 266.166124 
L 142.888291 267.120411 
L 143.557774 267.970528 
L 143.976201 268.230143 
L 144.394627 268.226091 
L 144.813054 267.959144 
L 145.315166 267.338555 
L 146.737817 265.287741 
L 147.072559 265.237091 
L 147.4073 265.492145 
L 147.825727 266.209242 
L 148.662581 268.314296 
L 149.415749 269.909608 
L 149.917861 270.462222 
L 150.252602 270.56488 
L 150.587344 270.452755 
L 151.00577 270.015347 
L 151.507883 269.065674 
L 152.09368 267.410186 
L 153.683702 262.447143 
L 153.934758 262.286872 
L 154.185814 262.442252 
L 154.520555 263.101041 
L 155.106353 265.032255 
L 156.026892 267.988832 
L 156.529004 268.899004 
L 156.947431 269.207485 
L 157.282172 269.180637 
L 157.616914 268.937023 
L 158.119026 268.224021 
L 158.788508 266.763573 
L 159.876418 263.690326 
L 160.880642 261.107716 
L 161.46644 260.16349 
L 162.219608 259.445153 
L 162.805406 258.812257 
L 163.307518 257.898175 
L 163.80963 256.507847 
L 164.479113 253.942233 
L 166.822303 244.082183 
L 167.324415 243.105136 
L 167.659156 242.83748 
L 167.910212 242.845765 
L 168.244954 243.132547 
L 168.66338 243.910651 
L 169.165493 245.382274 
L 169.918661 248.376698 
L 171.759739 256.039927 
L 172.429221 257.868299 
L 173.18239 259.268707 
L 174.43767 261.47612 
L 175.776636 264.615618 
L 176.697174 266.490612 
L 177.366657 267.400024 
L 177.868769 267.73283 
L 178.287196 267.725848 
L 178.621938 267.507843 
L 179.040364 266.957444 
L 179.626162 265.744139 
L 180.546701 263.788235 
L 180.881442 263.506116 
L 181.132498 263.540712 
L 181.46724 263.909089 
L 181.969352 264.969909 
L 183.308318 268.075769 
L 183.894115 268.807305 
L 184.312542 269.033269 
L 184.730969 269.01701 
L 185.149395 268.769524 
L 185.651507 268.204811 
L 187.241529 266.100362 
L 187.576271 266.024186 
L 187.911012 266.144223 
L 188.413124 266.594245 
L 189.501034 267.644604 
L 189.919461 267.772031 
L 190.337887 267.680781 
L 190.839999 267.301065 
L 191.676853 266.27368 
L 192.346336 265.611199 
L 192.681077 265.527285 
L 193.015819 265.671527 
L 193.434245 266.166013 
L 194.103728 267.419644 
L 194.940582 268.904442 
L 195.442694 269.375958 
L 195.777435 269.4541 
L 196.112177 269.334172 
L 196.530604 268.90844 
L 197.032716 268.015012 
L 197.702199 266.292222 
L 198.790108 263.406422 
L 199.12485 262.990567 
L 199.375906 262.938944 
L 199.626962 263.11865 
L 199.961703 263.673071 
L 200.631186 265.373995 
L 201.384354 267.098686 
L 201.802781 267.635874 
L 202.137522 267.805097 
L 202.472264 267.748286 
L 202.890691 267.386763 
L 203.392803 266.589494 
L 204.062286 265.063628 
L 206.238105 259.725597 
L 207.158644 258.464064 
L 207.744441 257.525958 
L 208.330239 256.099316 
L 208.999722 253.726671 
L 210.087631 248.74936 
L 211.091855 244.491496 
L 211.677653 242.864538 
L 212.09608 242.25871 
L 212.430821 242.140652 
L 212.681877 242.268573 
L 213.016619 242.718873 
L 213.435045 243.695912 
L 214.020843 245.697913 
L 215.108752 250.452965 
L 216.196662 254.874455 
L 216.94983 257.070752 
L 217.870369 258.992989 
L 219.125649 261.630708 
L 220.715671 265.091536 
L 221.385154 266.046287 
L 221.887266 266.426352 
L 222.305693 266.478453 
L 222.72412 266.269379 
L 223.226232 265.694313 
L 224.648883 263.777325 
L 224.983624 263.785253 
L 225.318366 264.067084 
L 225.820478 264.887005 
L 227.243129 267.504448 
L 227.745241 267.979874 
L 228.163668 268.132416 
L 228.582095 268.068997 
L 229.084207 267.738858 
L 229.92106 266.814064 
L 230.590543 266.171374 
L 231.00897 266.01384 
L 231.427397 266.090498 
L 232.013194 266.490037 
L 233.017418 267.204119 
L 233.519531 267.273314 
L 234.021643 267.08571 
L 234.691126 266.521906 
L 235.69535 265.668695 
L 236.113777 265.612106 
L 236.532203 265.83307 
L 237.034315 266.42022 
L 238.456967 268.285905 
L 238.875393 268.441042 
L 239.210135 268.367322 
L 239.628561 268.023852 
L 240.130674 267.267428 
L 240.883842 265.613974 
L 241.804381 263.647918 
L 242.222807 263.239245 
L 242.473864 263.222291 
L 242.808605 263.46374 
L 243.310717 264.249364 
L 244.398627 266.117986 
L 244.817054 266.434581 
L 245.151795 266.456233 
L 245.486536 266.273863 
L 245.904963 265.782761 
L 246.490761 264.688997 
L 247.4113 262.385549 
L 248.66658 259.34699 
L 249.754489 257.439744 
L 250.423972 256.043591 
L 251.00977 254.298502 
L 251.762938 251.261645 
L 253.687701 243.002246 
L 254.189813 241.852182 
L 254.524555 241.485982 
L 254.775611 241.434399 
L 255.026667 241.574506 
L 255.361408 242.049599 
L 255.779835 243.067167 
L 256.365632 245.129067 
L 257.620913 250.678728 
L 258.625137 254.593558 
L 259.461991 256.950567 
L 261.805181 262.290083 
L 262.725719 264.096576 
L 263.395202 264.953477 
L 263.897314 265.252727 
L 264.315741 265.251531 
L 264.734168 265.031912 
L 265.403651 264.376202 
L 266.073134 263.789064 
L 266.49156 263.718024 
L 266.826302 263.889731 
L 267.244729 264.363016 
L 269.253177 267.109255 
L 269.755289 267.264422 
L 270.257401 267.152818 
L 270.843199 266.763524 
L 272.014794 265.902287 
L 272.516906 265.838914 
L 273.019018 266.014774 
L 274.525355 266.752329 
L 275.027467 266.686608 
L 275.613264 266.366825 
L 276.95223 265.504922 
L 277.370657 265.523115 
L 277.789083 265.757418 
L 278.458566 266.451121 
L 279.29542 267.290315 
L 279.797532 267.479887 
L 280.215959 267.376599 
L 280.634385 267.026101 
L 281.220183 266.167345 
L 282.89389 263.327811 
L 283.228631 263.195415 
L 283.563373 263.298228 
L 283.9818 263.693098 
L 285.23708 265.100938 
L 285.655507 265.187789 
L 285.990248 265.048384 
L 286.408675 264.619099 
L 286.994472 263.607425 
L 287.831326 261.618561 
L 289.337662 258.00427 
L 290.760313 254.855821 
L 291.429796 252.642505 
L 292.26665 249.018184 
L 293.689301 242.798867 
L 294.275098 241.246225 
L 294.693525 240.739076 
L 294.944581 240.696975 
L 295.195637 240.852494 
L 295.530379 241.355989 
L 295.948805 242.4171 
L 296.534603 244.539849 
L 299.29622 255.569954 
L 300.5515 258.744372 
L 302.141522 262.324034 
L 302.89469 263.502272 
L 303.480487 264.011065 
L 303.9826 264.130677 
L 304.484712 263.991967 
L 305.823677 263.426258 
L 306.242104 263.580955 
L 306.744216 264.058413 
L 308.668979 266.271403 
L 309.171092 266.406095 
L 309.673204 266.316913 
L 310.426372 265.918531 
L 311.263225 265.531557 
L 311.765338 265.51795 
L 312.43482 265.75598 
L 313.52273 266.17195 
L 314.108527 266.12711 
L 314.77801 265.817799 
L 315.949605 265.230692 
L 316.451717 265.262598 
L 316.95383 265.527278 
L 318.460166 266.537368 
L 318.878593 266.50785 
L 319.29702 266.262247 
L 319.799132 265.699416 
L 320.719671 264.215922 
L 321.389153 263.278719 
L 321.80758 262.984044 
L 322.226007 262.971458 
L 322.728119 263.253984 
L 323.732343 263.935074 
L 324.15077 263.943975 
L 324.569197 263.696895 
L 325.071309 263.06116 
L 325.740792 261.738473 
L 327.414499 257.588908 
L 329.004521 253.605318 
L 329.757689 250.877925 
L 330.929284 245.503987 
L 331.849823 241.745281 
L 332.351935 240.456431 
L 332.770362 239.954196 
L 333.021418 239.922776 
L 333.272474 240.094588 
L 333.607215 240.627055 
L 334.025642 241.73127 
L 334.695125 244.267045 
L 337.038315 254.01475 
L 338.126224 257.118084 
L 339.548875 260.541708 
L 340.385729 262.039929 
L 340.971526 262.699505 
L 341.473639 262.979287 
L 342.059436 263.021909 
L 343.314716 262.953503 
L 343.816829 263.23654 
L 344.486311 263.931515 
L 345.657906 265.189861 
L 346.243704 265.49568 
L 346.829501 265.528536 
L 347.58267 265.299477 
L 348.503208 265.045992 
L 349.172691 265.123722 
L 350.930084 265.548544 
L 351.599567 265.356463 
L 353.105903 264.807944 
L 353.6917 264.931481 
L 355.532778 265.611583 
L 356.03489 265.366491 
L 356.620688 264.76239 
L 358.37808 262.601992 
L 358.796507 262.473383 
L 359.298619 262.553659 
L 360.302843 262.80134 
L 360.72127 262.661766 
L 361.139697 262.291801 
L 361.641809 261.541681 
L 362.394977 259.919517 
L 364.570797 254.291962 
L 365.40765 251.66288 
L 366.244504 248.210422 
L 368.001896 240.616704 
L 368.504008 239.446416 
L 368.83875 239.101105 
L 369.089806 239.085857 
L 369.340862 239.27917 
L 369.675603 239.846757 
L 370.177715 241.281565 
L 370.930884 244.349903 
L 372.855647 252.587691 
L 373.943556 255.979787 
L 375.198837 259.156287 
L 376.03569 260.735381 
L 376.705173 261.544074 
L 377.290971 261.912728 
L 378.127824 262.107793 
L 378.880992 262.36221 
L 379.550475 262.882543 
L 381.307868 264.488264 
L 381.893665 264.663434 
L 382.563148 264.626081 
L 383.902114 264.474745 
L 384.738967 264.666099 
L 385.743191 264.87119 
L 386.412674 264.780012 
L 388.421123 264.290273 
L 389.257976 264.539146 
L 390.011145 264.701743 
L 390.513257 264.594819 
L 391.015369 264.260332 
L 391.684852 263.518467 
L 392.940132 262.075362 
L 393.525929 261.781619 
L 394.279098 261.713898 
L 394.864895 261.600023 
L 395.367007 261.26001 
L 395.869119 260.618487 
L 396.538602 259.315963 
L 397.542826 256.762976 
L 399.216534 251.900038 
L 400.053387 248.707828 
L 402.396577 238.964425 
L 402.815004 238.290019 
L 403.06606 238.165429 
L 403.317116 238.256256 
L 403.651857 238.703425 
L 404.070284 239.739361 
L 404.656082 241.88803 
L 407.668754 254.264148 
L 408.756664 257.288026 
L 409.677203 259.236202 
L 410.346686 260.198273 
L 411.016169 260.784525 
L 413.359359 262.382621 
L 414.530954 263.40922 
L 415.200436 263.698066 
L 415.953605 263.759268 
L 417.459941 263.815409 
L 419.133648 264.074371 
L 419.970502 263.886734 
L 421.225782 263.584331 
L 422.062636 263.661822 
L 422.983174 263.716773 
L 423.568972 263.497211 
L 424.154769 263.018167 
L 426.330589 260.90466 
L 427.75324 260.154228 
L 428.255352 259.548305 
L 428.841149 258.487805 
L 429.678003 256.437577 
L 431.016969 252.493743 
L 432.021193 248.896576 
L 433.109102 243.970001 
L 434.197012 239.22873 
L 434.699124 237.816839 
L 435.117551 237.239537 
L 435.368607 237.183102 
L 435.619663 237.346825 
L 435.954404 237.893676 
L 436.372831 239.047827 
L 437.042314 241.695452 
L 439.469189 252.157095 
L 440.557099 255.503436 
L 441.477638 257.656035 
L 442.230806 258.887338 
L 442.983974 259.691062 
L 446.582445 262.61475 
L 447.335613 262.797926 
L 450.934083 263.109181 
L 452.942532 262.731793 
L 454.114127 262.631893 
L 454.699924 262.338186 
L 455.369407 261.738335 
L 457.29417 259.806434 
L 458.465765 258.83692 
L 459.051562 258.004246 
L 459.721045 256.622916 
L 460.641584 254.116917 
L 461.813179 250.278623 
L 462.817403 246.213475 
L 464.909537 237.18823 
L 465.327964 236.342041 
L 465.662706 236.096568 
L 465.913762 236.17584 
L 466.248503 236.624511 
L 466.66693 237.685603 
L 467.252727 239.895097 
L 470.349085 252.946611 
L 471.269624 255.49036 
L 472.106478 257.181006 
L 472.943331 258.340869 
L 474.533353 259.990515 
L 475.788633 261.137225 
L 476.541802 261.546414 
L 477.546026 261.805965 
L 479.972901 262.161897 
L 480.977125 261.964006 
L 482.567147 261.659379 
L 483.404001 261.438171 
L 484.073484 261.017809 
L 484.910337 260.172522 
L 487.92301 256.578368 
L 488.592493 255.117425 
L 489.429346 252.736319 
L 490.517256 248.957417 
L 491.52148 244.702937 
L 493.446243 236.19856 
L 493.86467 235.234706 
L 494.199412 234.895446 
L 494.450468 234.909681 
L 494.701524 235.153212 
L 495.036265 235.814566 
L 495.538377 237.422496 
L 496.291545 240.736007 
L 498.132623 249.098004 
L 499.136848 252.54392 
L 500.057386 254.913865 
L 500.89424 256.460206 
L 501.898464 257.822476 
L 503.404801 259.477793 
L 504.241654 260.107165 
L 505.162193 260.505461 
L 506.8359 260.922913 
L 507.756439 260.960742 
L 508.844349 260.740251 
L 510.936483 260.07591 
L 511.605965 259.580456 
L 512.526504 258.571383 
L 514.534953 255.938098 
L 515.288121 254.494853 
L 516.041289 252.522345 
L 516.961828 249.458697 
L 518.049738 245.034249 
L 520.560298 234.184824 
L 520.978725 233.558274 
L 521.229781 233.492062 
L 521.480837 233.662343 
L 521.815579 234.241793 
L 522.234006 235.466465 
L 522.903488 238.258274 
L 525.330364 249.219121 
L 526.250903 252.142462 
L 527.087756 254.134052 
L 528.008295 255.760152 
L 529.17989 257.352806 
L 530.184114 258.361327 
L 531.020968 258.901673 
L 532.108877 259.326132 
L 533.196787 259.543293 
L 534.117326 259.486086 
L 535.372606 259.134962 
L 536.460516 258.666261 
L 537.213684 258.097471 
L 538.050538 257.15362 
L 539.389503 255.237667 
L 540.310042 253.566426 
L 541.06321 251.707208 
L 541.900064 249.01071 
L 542.904288 244.98784 
L 544.159569 238.93873 
L 545.247478 233.958499 
L 545.74959 232.484419 
L 546.084332 231.973177 
L 546.335388 231.86751 
L 546.586444 232.004955 
L 546.921185 232.553002 
L 547.339612 233.759439 
L 548.009095 236.564971 
L 550.519656 248.057392 
L 551.440194 250.9562 
L 552.360733 253.107872 
L 553.364958 254.857607 
L 554.369182 256.162492 
L 555.206035 256.913769 
L 556.126574 257.442445 
L 557.130799 257.770356 
L 557.967652 257.829976 
L 558.804506 257.67159 
L 559.892415 257.223633 
L 560.729269 256.670202 
L 561.482437 255.908355 
L 562.402976 254.622772 
L 563.490886 252.700416 
L 564.327739 250.773785 
L 565.164593 248.217624 
L 566.085132 244.625532 
L 567.173041 239.443688 
L 568.763063 231.803724 
L 569.265175 230.413256 
L 569.599916 229.987789 
L 569.850973 229.956479 
L 570.102029 230.173479 
L 570.43677 230.829592 
L 570.938882 232.486883 
L 571.69205 235.968483 
L 573.533128 244.825944 
L 574.453667 248.107719 
L 575.374206 250.579848 
L 576.37843 252.604011 
L 577.298969 253.977329 
L 578.135823 254.83009 
L 578.972676 255.378049 
L 579.80953 255.676765 
L 580.562698 255.722641 
L 581.315866 255.554922 
L 582.15272 255.150642 
L 582.989573 254.50958 
L 583.742742 253.653597 
L 584.579595 252.344616 
L 585.500134 250.481226 
L 586.336988 248.289866 
L 587.173841 245.434744 
L 588.09438 241.470836 
L 589.433346 234.574339 
L 590.43757 229.789439 
L 590.939682 228.249853 
L 591.274423 227.722936 
L 591.52548 227.622512 
L 591.776536 227.779671 
L 592.111277 228.37404 
L 592.529704 229.660792 
L 593.199187 232.614524 
L 595.626062 244.163745 
L 596.546601 247.182857 
L 597.46714 249.432798 
L 598.303993 250.926 
L 599.140847 251.966814 
L 599.894015 252.579253 
L 600.647183 252.920082 
L 601.316666 252.996913 
L 601.986149 252.862538 
L 602.739317 252.473717 
L 603.492485 251.823705 
L 604.245653 250.854595 
L 604.998822 249.517458 
L 605.835675 247.576013 
L 606.672529 245.066336 
L 607.509382 241.840234 
L 608.513607 236.999904 
L 610.689426 226.06384 
L 611.107853 225.0156 
L 611.442594 224.674082 
L 611.69365 224.726847 
L 611.944706 225.041083 
L 612.279448 225.83802 
L 612.78156 227.703813 
L 613.618413 231.864651 
L 615.208435 239.755689 
L 616.128974 243.213045 
L 616.965827 245.583113 
L 617.802681 247.304304 
L 618.555849 248.370361 
L 619.225332 248.982934 
L 619.894815 249.306375 
L 620.480612 249.357877 
L 621.06641 249.196644 
L 621.735893 248.755956 
L 622.405376 248.029519 
L 623.074858 246.979847 
L 623.828027 245.36449 
L 624.66488 242.976844 
L 625.501734 239.866193 
L 626.422273 235.512469 
L 627.844924 227.439973 
L 628.765463 222.809877 
L 629.267575 221.234731 
L 629.602316 220.734424 
L 629.853372 220.677499 
L 630.104428 220.894681 
L 630.43917 221.587118 
L 630.941282 223.356206 
L 631.69445 227.051621 
L 633.451842 235.917701 
L 634.372381 239.336981 
L 635.209235 241.587452 
L 635.962403 242.975573 
L 636.631886 243.754651 
L 637.217683 244.110356 
L 637.719796 244.170806 
L 638.221908 243.995199 
L 638.807705 243.519069 
L 639.393503 242.738545 
L 640.062985 241.444872 
L 640.816154 239.42542 
L 641.569322 236.751089 
L 642.406175 232.950493 
L 643.4104 227.277445 
L 645.167792 217.131972 
L 645.669904 215.441561 
L 646.004646 214.877638 
L 646.255702 214.77666 
L 646.506758 214.95987 
L 646.841499 215.624642 
L 647.259926 217.030035 
L 647.929409 220.175853 
L 649.854172 229.757294 
L 650.691026 232.640452 
L 651.360508 234.239158 
L 651.946306 235.14071 
L 652.448418 235.54516 
L 652.866845 235.630821 
L 653.285272 235.495262 
L 653.703698 235.138255 
L 654.20581 234.413528 
L 654.791608 233.142859 
L 655.461091 231.069023 
L 656.214259 227.927952 
L 657.051113 223.408785 
L 658.139022 216.13591 
L 659.477988 207.373054 
L 660.063785 204.930886 
L 660.482212 204.087309 
L 660.733268 203.971618 
L 660.984324 204.14044 
L 661.319066 204.767068 
L 661.821178 206.360156 
L 662.741717 210.289801 
L 663.745941 214.386065 
L 664.415424 216.208578 
L 664.917536 217.012431 
L 665.252277 217.234058 
L 665.587019 217.199202 
L 665.92176 216.892527 
L 666.340187 216.180487 
L 666.842299 214.879797 
L 667.260726 213.191344 
L 668.097579 208.458551 
L 669.018118 200.894458 
L 670.106028 189.460257 
L 671.277623 176.189574 
L 671.277623 176.189574 
" clip-path="url(#p70d86ee522)" style="fill: none; stroke: #ff7f0e; stroke-width: 1.5; stroke-linecap: square"/>
   </g>
   <g id="patch_3">
    <path d="M 36.465625 284.4 
L 36.465625 7.2 
" style="fill: none; stroke: #000000; stroke-width: 0.8; stroke-linejoin: miter; stroke-linecap: square"/>
   </g>
   <g id="patch_4">
    <path d="M 706.065625 284.4 
L 706.065625 7.2 
" style="fill: none; stroke: #000000; stroke-width: 0.8; stroke-linejoin: miter; stroke-linecap: square"/>
   </g>
   <g id="patch_5">
    <path d="M 36.465625 284.4 
L 706.065625 284.4 
" style="fill: none; stroke: #000000; stroke-width: 0.8; stroke-linejoin: miter; stroke-linecap: square"/>
   </g>
   <g id="patch_6">
    <path d="M 36.465625 7.2 
L 706.065625 7.2 
" style="fill: none; stroke: #000000; stroke-width: 0.8; stroke-linejoin: miter; stroke-linecap: square"/>
   </g>
   <g id="legend_1">
    <g id="patch_7">
     <path d="M 43.465625 73.9125 
L 206.465625 73.9125 
Q 208.465625 73.9125 208.465625 71.9125 
L 208.465625 14.2 
Q 208.465625 12.2 206.465625 12.2 
L 43.465625 12.2 
Q 41.465625 12.2 41.465625 14.2 
L 41.465625 71.9125 
Q 41.465625 73.9125 43.465625 73.9125 
z
" style="fill: #ffffff; opacity: 0.8; stroke: #cccccc; stroke-linejoin: miter"/>
    </g>
    <g id="line2d_17">
     <path d="M 45.465625 20.298438 
L 55.465625 20.298438 
L 65.465625 20.298438 
" style="fill: none; stroke: #1f77b4; stroke-width: 1.5; stroke-linecap: square"/>
    </g>
    <g id="text_14">
     <!-- Mf before ISCO cut: $e$=0.3 -->
     <g transform="translate(73.465625 23.798438) scale(0.1 -0.1)">
      <defs>
       <path id="DejaVuSans-4d" d="M 628 4666 
L 1569 4666 
L 2759 1491 
L 3956 4666 
L 4897 4666 
L 4897 0 
L 4281 0 
L 4281 4097 
L 3078 897 
L 2444 897 
L 1241 4097 
L 1241 0 
L 628 0 
L 628 4666 
z
" transform="scale(0.015625)"/>
       <path id="DejaVuSans-66" d="M 2375 4863 
L 2375 4384 
L 1825 4384 
Q 1516 4384 1395 4259 
Q 1275 4134 1275 3809 
L 1275 3500 
L 2222 3500 
L 2222 3053 
L 1275 3053 
L 1275 0 
L 697 0 
L 697 3053 
L 147 3053 
L 147 3500 
L 697 3500 
L 697 3744 
Q 697 4328 969 4595 
Q 1241 4863 1831 4863 
L 2375 4863 
z
" transform="scale(0.015625)"/>
       <path id="DejaVuSans-20" transform="scale(0.015625)"/>
       <path id="DejaVuSans-62" d="M 3116 1747 
Q 3116 2381 2855 2742 
Q 2594 3103 2138 3103 
Q 1681 3103 1420 2742 
Q 1159 2381 1159 1747 
Q 1159 1113 1420 752 
Q 1681 391 2138 391 
Q 2594 391 2855 752 
Q 3116 1113 3116 1747 
z
M 1159 2969 
Q 1341 3281 1617 3432 
Q 1894 3584 2278 3584 
Q 2916 3584 3314 3078 
Q 3713 2572 3713 1747 
Q 3713 922 3314 415 
Q 2916 -91 2278 -91 
Q 1894 -91 1617 61 
Q 1341 213 1159 525 
L 1159 0 
L 581 0 
L 581 4863 
L 1159 4863 
L 1159 2969 
z
" transform="scale(0.015625)"/>
       <path id="DejaVuSans-65" d="M 3597 1894 
L 3597 1613 
L 953 1613 
Q 991 1019 1311 708 
Q 1631 397 2203 397 
Q 2534 397 2845 478 
Q 3156 559 3463 722 
L 3463 178 
Q 3153 47 2828 -22 
Q 2503 -91 2169 -91 
Q 1331 -91 842 396 
Q 353 884 353 1716 
Q 353 2575 817 3079 
Q 1281 3584 2069 3584 
Q 2775 3584 3186 3129 
Q 3597 2675 3597 1894 
z
M 3022 2063 
Q 3016 2534 2758 2815 
Q 2500 3097 2075 3097 
Q 1594 3097 1305 2825 
Q 1016 2553 972 2059 
L 3022 2063 
z
" transform="scale(0.015625)"/>
       <path id="DejaVuSans-6f" d="M 1959 3097 
Q 1497 3097 1228 2736 
Q 959 2375 959 1747 
Q 959 1119 1226 758 
Q 1494 397 1959 397 
Q 2419 397 2687 759 
Q 2956 1122 2956 1747 
Q 2956 2369 2687 2733 
Q 2419 3097 1959 3097 
z
M 1959 3584 
Q 2709 3584 3137 3096 
Q 3566 2609 3566 1747 
Q 3566 888 3137 398 
Q 2709 -91 1959 -91 
Q 1206 -91 779 398 
Q 353 888 353 1747 
Q 353 2609 779 3096 
Q 1206 3584 1959 3584 
z
" transform="scale(0.015625)"/>
       <path id="DejaVuSans-72" d="M 2631 2963 
Q 2534 3019 2420 3045 
Q 2306 3072 2169 3072 
Q 1681 3072 1420 2755 
Q 1159 2438 1159 1844 
L 1159 0 
L 581 0 
L 581 3500 
L 1159 3500 
L 1159 2956 
Q 1341 3275 1631 3429 
Q 1922 3584 2338 3584 
Q 2397 3584 2469 3576 
Q 2541 3569 2628 3553 
L 2631 2963 
z
" transform="scale(0.015625)"/>
       <path id="DejaVuSans-49" d="M 628 4666 
L 1259 4666 
L 1259 0 
L 628 0 
L 628 4666 
z
" transform="scale(0.015625)"/>
       <path id="DejaVuSans-53" d="M 3425 4513 
L 3425 3897 
Q 3066 4069 2747 4153 
Q 2428 4238 2131 4238 
Q 1616 4238 1336 4038 
Q 1056 3838 1056 3469 
Q 1056 3159 1242 3001 
Q 1428 2844 1947 2747 
L 2328 2669 
Q 3034 2534 3370 2195 
Q 3706 1856 3706 1288 
Q 3706 609 3251 259 
Q 2797 -91 1919 -91 
Q 1588 -91 1214 -16 
Q 841 59 441 206 
L 441 856 
Q 825 641 1194 531 
Q 1563 422 1919 422 
Q 2459 422 2753 634 
Q 3047 847 3047 1241 
Q 3047 1584 2836 1778 
Q 2625 1972 2144 2069 
L 1759 2144 
Q 1053 2284 737 2584 
Q 422 2884 422 3419 
Q 422 4038 858 4394 
Q 1294 4750 2059 4750 
Q 2388 4750 2728 4690 
Q 3069 4631 3425 4513 
z
" transform="scale(0.015625)"/>
       <path id="DejaVuSans-43" d="M 4122 4306 
L 4122 3641 
Q 3803 3938 3442 4084 
Q 3081 4231 2675 4231 
Q 1875 4231 1450 3742 
Q 1025 3253 1025 2328 
Q 1025 1406 1450 917 
Q 1875 428 2675 428 
Q 3081 428 3442 575 
Q 3803 722 4122 1019 
L 4122 359 
Q 3791 134 3420 21 
Q 3050 -91 2638 -91 
Q 1578 -91 968 557 
Q 359 1206 359 2328 
Q 359 3453 968 4101 
Q 1578 4750 2638 4750 
Q 3056 4750 3426 4639 
Q 3797 4528 4122 4306 
z
" transform="scale(0.015625)"/>
       <path id="DejaVuSans-4f" d="M 2522 4238 
Q 1834 4238 1429 3725 
Q 1025 3213 1025 2328 
Q 1025 1447 1429 934 
Q 1834 422 2522 422 
Q 3209 422 3611 934 
Q 4013 1447 4013 2328 
Q 4013 3213 3611 3725 
Q 3209 4238 2522 4238 
z
M 2522 4750 
Q 3503 4750 4090 4092 
Q 4678 3434 4678 2328 
Q 4678 1225 4090 567 
Q 3503 -91 2522 -91 
Q 1538 -91 948 565 
Q 359 1222 359 2328 
Q 359 3434 948 4092 
Q 1538 4750 2522 4750 
z
" transform="scale(0.015625)"/>
       <path id="DejaVuSans-63" d="M 3122 3366 
L 3122 2828 
Q 2878 2963 2633 3030 
Q 2388 3097 2138 3097 
Q 1578 3097 1268 2742 
Q 959 2388 959 1747 
Q 959 1106 1268 751 
Q 1578 397 2138 397 
Q 2388 397 2633 464 
Q 2878 531 3122 666 
L 3122 134 
Q 2881 22 2623 -34 
Q 2366 -91 2075 -91 
Q 1284 -91 818 406 
Q 353 903 353 1747 
Q 353 2603 823 3093 
Q 1294 3584 2113 3584 
Q 2378 3584 2631 3529 
Q 2884 3475 3122 3366 
z
" transform="scale(0.015625)"/>
       <path id="DejaVuSans-75" d="M 544 1381 
L 544 3500 
L 1119 3500 
L 1119 1403 
Q 1119 906 1312 657 
Q 1506 409 1894 409 
Q 2359 409 2629 706 
Q 2900 1003 2900 1516 
L 2900 3500 
L 3475 3500 
L 3475 0 
L 2900 0 
L 2900 538 
Q 2691 219 2414 64 
Q 2138 -91 1772 -91 
Q 1169 -91 856 284 
Q 544 659 544 1381 
z
M 1991 3584 
L 1991 3584 
z
" transform="scale(0.015625)"/>
       <path id="DejaVuSans-74" d="M 1172 4494 
L 1172 3500 
L 2356 3500 
L 2356 3053 
L 1172 3053 
L 1172 1153 
Q 1172 725 1289 603 
Q 1406 481 1766 481 
L 2356 481 
L 2356 0 
L 1766 0 
Q 1100 0 847 248 
Q 594 497 594 1153 
L 594 3053 
L 172 3053 
L 172 3500 
L 594 3500 
L 594 4494 
L 1172 4494 
z
" transform="scale(0.015625)"/>
       <path id="DejaVuSans-3a" d="M 750 794 
L 1409 794 
L 1409 0 
L 750 0 
L 750 794 
z
M 750 3309 
L 1409 3309 
L 1409 2516 
L 750 2516 
L 750 3309 
z
" transform="scale(0.015625)"/>
       <path id="DejaVuSans-Oblique-65" d="M 3078 2063 
Q 3088 2113 3092 2166 
Q 3097 2219 3097 2272 
Q 3097 2653 2873 2875 
Q 2650 3097 2266 3097 
Q 1838 3097 1509 2826 
Q 1181 2556 1013 2059 
L 3078 2063 
z
M 3578 1613 
L 903 1613 
Q 884 1494 878 1425 
Q 872 1356 872 1306 
Q 872 872 1139 634 
Q 1406 397 1894 397 
Q 2269 397 2603 481 
Q 2938 566 3225 728 
L 3116 159 
Q 2806 34 2476 -28 
Q 2147 -91 1806 -91 
Q 1078 -91 686 257 
Q 294 606 294 1247 
Q 294 1794 489 2264 
Q 684 2734 1063 3103 
Q 1306 3334 1642 3459 
Q 1978 3584 2356 3584 
Q 2950 3584 3301 3228 
Q 3653 2872 3653 2272 
Q 3653 2128 3634 1964 
Q 3616 1800 3578 1613 
z
" transform="scale(0.015625)"/>
       <path id="DejaVuSans-3d" d="M 678 2906 
L 4684 2906 
L 4684 2381 
L 678 2381 
L 678 2906 
z
M 678 1631 
L 4684 1631 
L 4684 1100 
L 678 1100 
L 678 1631 
z
" transform="scale(0.015625)"/>
      </defs>
      <use xlink:href="#DejaVuSans-4d" transform="translate(0 0.015625)"/>
      <use xlink:href="#DejaVuSans-66" transform="translate(86.279297 0.015625)"/>
      <use xlink:href="#DejaVuSans-20" transform="translate(121.484375 0.015625)"/>
      <use xlink:href="#DejaVuSans-62" transform="translate(153.271484 0.015625)"/>
      <use xlink:href="#DejaVuSans-65" transform="translate(216.748047 0.015625)"/>
      <use xlink:href="#DejaVuSans-66" transform="translate(278.271484 0.015625)"/>
      <use xlink:href="#DejaVuSans-6f" transform="translate(313.476562 0.015625)"/>
      <use xlink:href="#DejaVuSans-72" transform="translate(374.658203 0.015625)"/>
      <use xlink:href="#DejaVuSans-65" transform="translate(415.771484 0.015625)"/>
      <use xlink:href="#DejaVuSans-20" transform="translate(477.294922 0.015625)"/>
      <use xlink:href="#DejaVuSans-49" transform="translate(509.082031 0.015625)"/>
      <use xlink:href="#DejaVuSans-53" transform="translate(538.574219 0.015625)"/>
      <use xlink:href="#DejaVuSans-43" transform="translate(602.050781 0.015625)"/>
      <use xlink:href="#DejaVuSans-4f" transform="translate(671.875 0.015625)"/>
      <use xlink:href="#DejaVuSans-20" transform="translate(750.585938 0.015625)"/>
      <use xlink:href="#DejaVuSans-63" transform="translate(782.373047 0.015625)"/>
      <use xlink:href="#DejaVuSans-75" transform="translate(837.353516 0.015625)"/>
      <use xlink:href="#DejaVuSans-74" transform="translate(900.732422 0.015625)"/>
      <use xlink:href="#DejaVuSans-3a" transform="translate(939.941406 0.015625)"/>
      <use xlink:href="#DejaVuSans-20" transform="translate(973.632812 0.015625)"/>
      <use xlink:href="#DejaVuSans-Oblique-65" transform="translate(1005.419922 0.015625)"/>
      <use xlink:href="#DejaVuSans-3d" transform="translate(1066.943359 0.015625)"/>
      <use xlink:href="#DejaVuSans-30" transform="translate(1150.732422 0.015625)"/>
      <use xlink:href="#DejaVuSans-2e" transform="translate(1214.355469 0.015625)"/>
      <use xlink:href="#DejaVuSans-33" transform="translate(1246.142578 0.015625)"/>
     </g>
    </g>
    <g id="line2d_18">
     <path d="M 45.465625 34.976563 
L 55.465625 34.976563 
L 65.465625 34.976563 
" style="fill: none; stroke-dasharray: 2.22,0.96; stroke-dashoffset: 0; stroke: #ff0000; stroke-width: 0.6"/>
    </g>
    <g id="text_15">
     <!-- Mf ISCO $e$=0 -->
     <g transform="translate(73.465625 38.476563) scale(0.1 -0.1)">
      <use xlink:href="#DejaVuSans-4d" transform="translate(0 0.015625)"/>
      <use xlink:href="#DejaVuSans-66" transform="translate(86.279297 0.015625)"/>
      <use xlink:href="#DejaVuSans-20" transform="translate(121.484375 0.015625)"/>
      <use xlink:href="#DejaVuSans-49" transform="translate(153.271484 0.015625)"/>
      <use xlink:href="#DejaVuSans-53" transform="translate(182.763672 0.015625)"/>
      <use xlink:href="#DejaVuSans-43" transform="translate(246.240234 0.015625)"/>
      <use xlink:href="#DejaVuSans-4f" transform="translate(316.064453 0.015625)"/>
      <use xlink:href="#DejaVuSans-20" transform="translate(394.775391 0.015625)"/>
      <use xlink:href="#DejaVuSans-Oblique-65" transform="translate(426.5625 0.015625)"/>
      <use xlink:href="#DejaVuSans-3d" transform="translate(488.085938 0.015625)"/>
      <use xlink:href="#DejaVuSans-30" transform="translate(571.875 0.015625)"/>
     </g>
    </g>
    <g id="PathCollection_2">
     <g>
      <use xlink:href="#m4bafa9f124" x="55.465625" y="50.529688" style="fill: #ff0000; stroke: #ff0000"/>
     </g>
    </g>
    <g id="text_16">
     <!-- ISCO cut -->
     <g transform="translate(73.465625 53.154688) scale(0.1 -0.1)">
      <use xlink:href="#DejaVuSans-49"/>
      <use xlink:href="#DejaVuSans-53" transform="translate(29.492188 0)"/>
      <use xlink:href="#DejaVuSans-43" transform="translate(92.96875 0)"/>
      <use xlink:href="#DejaVuSans-4f" transform="translate(162.792969 0)"/>
      <use xlink:href="#DejaVuSans-20" transform="translate(241.503906 0)"/>
      <use xlink:href="#DejaVuSans-63" transform="translate(273.291016 0)"/>
      <use xlink:href="#DejaVuSans-75" transform="translate(328.271484 0)"/>
      <use xlink:href="#DejaVuSans-74" transform="translate(391.650391 0)"/>
     </g>
    </g>
    <g id="line2d_19">
     <path d="M 45.465625 64.332813 
L 55.465625 64.332813 
L 65.465625 64.332813 
" style="fill: none; stroke: #ff7f0e; stroke-width: 1.5; stroke-linecap: square"/>
    </g>
    <g id="text_17">
     <!-- Mf after ISCO cut: $e$=0.3  -->
     <g transform="translate(73.465625 67.832813) scale(0.1 -0.1)">
      <defs>
       <path id="DejaVuSans-61" d="M 2194 1759 
Q 1497 1759 1228 1600 
Q 959 1441 959 1056 
Q 959 750 1161 570 
Q 1363 391 1709 391 
Q 2188 391 2477 730 
Q 2766 1069 2766 1631 
L 2766 1759 
L 2194 1759 
z
M 3341 1997 
L 3341 0 
L 2766 0 
L 2766 531 
Q 2569 213 2275 61 
Q 1981 -91 1556 -91 
Q 1019 -91 701 211 
Q 384 513 384 1019 
Q 384 1609 779 1909 
Q 1175 2209 1959 2209 
L 2766 2209 
L 2766 2266 
Q 2766 2663 2505 2880 
Q 2244 3097 1772 3097 
Q 1472 3097 1187 3025 
Q 903 2953 641 2809 
L 641 3341 
Q 956 3463 1253 3523 
Q 1550 3584 1831 3584 
Q 2591 3584 2966 3190 
Q 3341 2797 3341 1997 
z
" transform="scale(0.015625)"/>
      </defs>
      <use xlink:href="#DejaVuSans-4d" transform="translate(0 0.015625)"/>
      <use xlink:href="#DejaVuSans-66" transform="translate(86.279297 0.015625)"/>
      <use xlink:href="#DejaVuSans-20" transform="translate(121.484375 0.015625)"/>
      <use xlink:href="#DejaVuSans-61" transform="translate(153.271484 0.015625)"/>
      <use xlink:href="#DejaVuSans-66" transform="translate(214.550781 0.015625)"/>
      <use xlink:href="#DejaVuSans-74" transform="translate(249.755859 0.015625)"/>
      <use xlink:href="#DejaVuSans-65" transform="translate(288.964844 0.015625)"/>
      <use xlink:href="#DejaVuSans-72" transform="translate(350.488281 0.015625)"/>
      <use xlink:href="#DejaVuSans-20" transform="translate(391.601562 0.015625)"/>
      <use xlink:href="#DejaVuSans-49" transform="translate(423.388672 0.015625)"/>
      <use xlink:href="#DejaVuSans-53" transform="translate(452.880859 0.015625)"/>
      <use xlink:href="#DejaVuSans-43" transform="translate(516.357422 0.015625)"/>
      <use xlink:href="#DejaVuSans-4f" transform="translate(586.181641 0.015625)"/>
      <use xlink:href="#DejaVuSans-20" transform="translate(664.892578 0.015625)"/>
      <use xlink:href="#DejaVuSans-63" transform="translate(696.679688 0.015625)"/>
      <use xlink:href="#DejaVuSans-75" transform="translate(751.660156 0.015625)"/>
      <use xlink:href="#DejaVuSans-74" transform="translate(815.039062 0.015625)"/>
      <use xlink:href="#DejaVuSans-3a" transform="translate(854.248047 0.015625)"/>
      <use xlink:href="#DejaVuSans-20" transform="translate(887.939453 0.015625)"/>
      <use xlink:href="#DejaVuSans-Oblique-65" transform="translate(919.726562 0.015625)"/>
      <use xlink:href="#DejaVuSans-3d" transform="translate(981.25 0.015625)"/>
      <use xlink:href="#DejaVuSans-30" transform="translate(1065.039062 0.015625)"/>
      <use xlink:href="#DejaVuSans-2e" transform="translate(1128.662109 0.015625)"/>
      <use xlink:href="#DejaVuSans-33" transform="translate(1160.449219 0.015625)"/>
      <use xlink:href="#DejaVuSans-20" transform="translate(1224.072266 0.015625)"/>
     </g>
    </g>
   </g>
  </g>
 </g>
 <defs>
  <clipPath id="p70d86ee522">
   <rect x="36.465625" y="7.2" width="669.6" height="277.2"/>
  </clipPath>
 </defs>
</svg>
