<?xml version="1.0" encoding="utf-8" standalone="no"?>
<!DOCTYPE svg PUBLIC "-//W3C//DTD SVG 1.1//EN"
  "http://www.w3.org/Graphics/SVG/1.1/DTD/svg11.dtd">
<svg xmlns:xlink="http://www.w3.org/1999/xlink" width="713.265625pt" height="308.278125pt" viewBox="0 0 713.265625 308.278125" xmlns="http://www.w3.org/2000/svg" version="1.1">
 <metadata>
  <rdf:RDF xmlns:dc="http://purl.org/dc/elements/1.1/" xmlns:cc="http://creativecommons.org/ns#" xmlns:rdf="http://www.w3.org/1999/02/22-rdf-syntax-ns#">
   <cc:Work>
    <dc:type rdf:resource="http://purl.org/dc/dcmitype/StillImage"/>
    <dc:date>2025-08-07T14:16:48.817467</dc:date>
    <dc:format>image/svg+xml</dc:format>
    <dc:creator>
     <cc:Agent>
      <dc:title>Matplotlib v3.10.3, https://matplotlib.org/</dc:title>
     </cc:Agent>
    </dc:creator>
   </cc:Work>
  </rdf:RDF>
 </metadata>
 <defs>
  <style type="text/css">*{stroke-linejoin: round; stroke-linecap: butt}</style>
 </defs>
 <g id="figure_1">
  <g id="patch_1">
   <path d="M 0 308.278125 
L 713.265625 308.278125 
L 713.265625 0 
L 0 0 
z
" style="fill: #ffffff"/>
  </g>
  <g id="axes_1">
   <g id="patch_2">
    <path d="M 36.465625 284.4 
L 706.065625 284.4 
L 706.065625 7.2 
L 36.465625 7.2 
z
" style="fill: #ffffff"/>
   </g>
   <g id="PathCollection_1">
    <defs>
     <path id="m25b096c0e4" d="M 0 1.224745 
C 0.324806 1.224745 0.636353 1.095698 0.866025 0.866025 
C 1.095698 0.636353 1.224745 0.324806 1.224745 0 
C 1.224745 -0.324806 1.095698 -0.636353 0.866025 -0.866025 
C 0.636353 -1.095698 0.324806 -1.224745 0 -1.224745 
C -0.324806 -1.224745 -0.636353 -1.095698 -0.866025 -0.866025 
C -1.095698 -0.636353 -1.224745 -0.324806 -1.224745 0 
C -1.224745 0.324806 -1.095698 0.636353 -0.866025 0.866025 
C -0.636353 1.095698 -0.324806 1.224745 0 1.224745 
z
" style="stroke: #ff0000"/>
    </defs>
    <g clip-path="url(#p63701c9bc7)">
     <use xlink:href="#m25b096c0e4" x="672.064357" y="179.64389" style="fill: #ff0000; stroke: #ff0000"/>
    </g>
   </g>
   <g id="matplotlib.axis_1">
    <g id="xtick_1">
     <g id="line2d_1">
      <defs>
       <path id="m89b8dc26c3" d="M 0 0 
L 0 3.5 
" style="stroke: #000000; stroke-width: 0.8"/>
      </defs>
      <g>
       <use xlink:href="#m89b8dc26c3" x="100.305868" y="284.4" style="stroke: #000000; stroke-width: 0.8"/>
      </g>
     </g>
     <g id="text_1">
      <!-- −12000 -->
      <g transform="translate(80.209774 298.998438) scale(0.1 -0.1)">
       <defs>
        <path id="DejaVuSans-2212" d="M 678 2272 
L 4684 2272 
L 4684 1741 
L 678 1741 
L 678 2272 
z
" transform="scale(0.015625)"/>
        <path id="DejaVuSans-31" d="M 794 531 
L 1825 531 
L 1825 4091 
L 703 3866 
L 703 4441 
L 1819 4666 
L 2450 4666 
L 2450 531 
L 3481 531 
L 3481 0 
L 794 0 
L 794 531 
z
" transform="scale(0.015625)"/>
        <path id="DejaVuSans-32" d="M 1228 531 
L 3431 531 
L 3431 0 
L 469 0 
L 469 531 
Q 828 903 1448 1529 
Q 2069 2156 2228 2338 
Q 2531 2678 2651 2914 
Q 2772 3150 2772 3378 
Q 2772 3750 2511 3984 
Q 2250 4219 1831 4219 
Q 1534 4219 1204 4116 
Q 875 4013 500 3803 
L 500 4441 
Q 881 4594 1212 4672 
Q 1544 4750 1819 4750 
Q 2544 4750 2975 4387 
Q 3406 4025 3406 3419 
Q 3406 3131 3298 2873 
Q 3191 2616 2906 2266 
Q 2828 2175 2409 1742 
Q 1991 1309 1228 531 
z
" transform="scale(0.015625)"/>
        <path id="DejaVuSans-30" d="M 2034 4250 
Q 1547 4250 1301 3770 
Q 1056 3291 1056 2328 
Q 1056 1369 1301 889 
Q 1547 409 2034 409 
Q 2525 409 2770 889 
Q 3016 1369 3016 2328 
Q 3016 3291 2770 3770 
Q 2525 4250 2034 4250 
z
M 2034 4750 
Q 2819 4750 3233 4129 
Q 3647 3509 3647 2328 
Q 3647 1150 3233 529 
Q 2819 -91 2034 -91 
Q 1250 -91 836 529 
Q 422 1150 422 2328 
Q 422 3509 836 4129 
Q 1250 4750 2034 4750 
z
" transform="scale(0.015625)"/>
       </defs>
       <use xlink:href="#DejaVuSans-2212"/>
       <use xlink:href="#DejaVuSans-31" transform="translate(83.789062 0)"/>
       <use xlink:href="#DejaVuSans-32" transform="translate(147.412109 0)"/>
       <use xlink:href="#DejaVuSans-30" transform="translate(211.035156 0)"/>
       <use xlink:href="#DejaVuSans-30" transform="translate(274.658203 0)"/>
       <use xlink:href="#DejaVuSans-30" transform="translate(338.28125 0)"/>
      </g>
     </g>
    </g>
    <g id="xtick_2">
     <g id="line2d_2">
      <g>
       <use xlink:href="#m89b8dc26c3" x="196.1931" y="284.4" style="stroke: #000000; stroke-width: 0.8"/>
      </g>
     </g>
     <g id="text_2">
      <!-- −10000 -->
      <g transform="translate(176.097007 298.998438) scale(0.1 -0.1)">
       <use xlink:href="#DejaVuSans-2212"/>
       <use xlink:href="#DejaVuSans-31" transform="translate(83.789062 0)"/>
       <use xlink:href="#DejaVuSans-30" transform="translate(147.412109 0)"/>
       <use xlink:href="#DejaVuSans-30" transform="translate(211.035156 0)"/>
       <use xlink:href="#DejaVuSans-30" transform="translate(274.658203 0)"/>
       <use xlink:href="#DejaVuSans-30" transform="translate(338.28125 0)"/>
      </g>
     </g>
    </g>
    <g id="xtick_3">
     <g id="line2d_3">
      <g>
       <use xlink:href="#m89b8dc26c3" x="292.080333" y="284.4" style="stroke: #000000; stroke-width: 0.8"/>
      </g>
     </g>
     <g id="text_3">
      <!-- −8000 -->
      <g transform="translate(275.165489 298.998438) scale(0.1 -0.1)">
       <defs>
        <path id="DejaVuSans-38" d="M 2034 2216 
Q 1584 2216 1326 1975 
Q 1069 1734 1069 1313 
Q 1069 891 1326 650 
Q 1584 409 2034 409 
Q 2484 409 2743 651 
Q 3003 894 3003 1313 
Q 3003 1734 2745 1975 
Q 2488 2216 2034 2216 
z
M 1403 2484 
Q 997 2584 770 2862 
Q 544 3141 544 3541 
Q 544 4100 942 4425 
Q 1341 4750 2034 4750 
Q 2731 4750 3128 4425 
Q 3525 4100 3525 3541 
Q 3525 3141 3298 2862 
Q 3072 2584 2669 2484 
Q 3125 2378 3379 2068 
Q 3634 1759 3634 1313 
Q 3634 634 3220 271 
Q 2806 -91 2034 -91 
Q 1263 -91 848 271 
Q 434 634 434 1313 
Q 434 1759 690 2068 
Q 947 2378 1403 2484 
z
M 1172 3481 
Q 1172 3119 1398 2916 
Q 1625 2713 2034 2713 
Q 2441 2713 2670 2916 
Q 2900 3119 2900 3481 
Q 2900 3844 2670 4047 
Q 2441 4250 2034 4250 
Q 1625 4250 1398 4047 
Q 1172 3844 1172 3481 
z
" transform="scale(0.015625)"/>
       </defs>
       <use xlink:href="#DejaVuSans-2212"/>
       <use xlink:href="#DejaVuSans-38" transform="translate(83.789062 0)"/>
       <use xlink:href="#DejaVuSans-30" transform="translate(147.412109 0)"/>
       <use xlink:href="#DejaVuSans-30" transform="translate(211.035156 0)"/>
       <use xlink:href="#DejaVuSans-30" transform="translate(274.658203 0)"/>
      </g>
     </g>
    </g>
    <g id="xtick_4">
     <g id="line2d_4">
      <g>
       <use xlink:href="#m89b8dc26c3" x="387.967565" y="284.4" style="stroke: #000000; stroke-width: 0.8"/>
      </g>
     </g>
     <g id="text_4">
      <!-- −6000 -->
      <g transform="translate(371.052721 298.998438) scale(0.1 -0.1)">
       <defs>
        <path id="DejaVuSans-36" d="M 2113 2584 
Q 1688 2584 1439 2293 
Q 1191 2003 1191 1497 
Q 1191 994 1439 701 
Q 1688 409 2113 409 
Q 2538 409 2786 701 
Q 3034 994 3034 1497 
Q 3034 2003 2786 2293 
Q 2538 2584 2113 2584 
z
M 3366 4563 
L 3366 3988 
Q 3128 4100 2886 4159 
Q 2644 4219 2406 4219 
Q 1781 4219 1451 3797 
Q 1122 3375 1075 2522 
Q 1259 2794 1537 2939 
Q 1816 3084 2150 3084 
Q 2853 3084 3261 2657 
Q 3669 2231 3669 1497 
Q 3669 778 3244 343 
Q 2819 -91 2113 -91 
Q 1303 -91 875 529 
Q 447 1150 447 2328 
Q 447 3434 972 4092 
Q 1497 4750 2381 4750 
Q 2619 4750 2861 4703 
Q 3103 4656 3366 4563 
z
" transform="scale(0.015625)"/>
       </defs>
       <use xlink:href="#DejaVuSans-2212"/>
       <use xlink:href="#DejaVuSans-36" transform="translate(83.789062 0)"/>
       <use xlink:href="#DejaVuSans-30" transform="translate(147.412109 0)"/>
       <use xlink:href="#DejaVuSans-30" transform="translate(211.035156 0)"/>
       <use xlink:href="#DejaVuSans-30" transform="translate(274.658203 0)"/>
      </g>
     </g>
    </g>
    <g id="xtick_5">
     <g id="line2d_5">
      <g>
       <use xlink:href="#m89b8dc26c3" x="483.854797" y="284.4" style="stroke: #000000; stroke-width: 0.8"/>
      </g>
     </g>
     <g id="text_5">
      <!-- −4000 -->
      <g transform="translate(466.939953 298.998438) scale(0.1 -0.1)">
       <defs>
        <path id="DejaVuSans-34" d="M 2419 4116 
L 825 1625 
L 2419 1625 
L 2419 4116 
z
M 2253 4666 
L 3047 4666 
L 3047 1625 
L 3713 1625 
L 3713 1100 
L 3047 1100 
L 3047 0 
L 2419 0 
L 2419 1100 
L 313 1100 
L 313 1709 
L 2253 4666 
z
" transform="scale(0.015625)"/>
       </defs>
       <use xlink:href="#DejaVuSans-2212"/>
       <use xlink:href="#DejaVuSans-34" transform="translate(83.789062 0)"/>
       <use xlink:href="#DejaVuSans-30" transform="translate(147.412109 0)"/>
       <use xlink:href="#DejaVuSans-30" transform="translate(211.035156 0)"/>
       <use xlink:href="#DejaVuSans-30" transform="translate(274.658203 0)"/>
      </g>
     </g>
    </g>
    <g id="xtick_6">
     <g id="line2d_6">
      <g>
       <use xlink:href="#m89b8dc26c3" x="579.742029" y="284.4" style="stroke: #000000; stroke-width: 0.8"/>
      </g>
     </g>
     <g id="text_6">
      <!-- −2000 -->
      <g transform="translate(562.827185 298.998438) scale(0.1 -0.1)">
       <use xlink:href="#DejaVuSans-2212"/>
       <use xlink:href="#DejaVuSans-32" transform="translate(83.789062 0)"/>
       <use xlink:href="#DejaVuSans-30" transform="translate(147.412109 0)"/>
       <use xlink:href="#DejaVuSans-30" transform="translate(211.035156 0)"/>
       <use xlink:href="#DejaVuSans-30" transform="translate(274.658203 0)"/>
      </g>
     </g>
    </g>
    <g id="xtick_7">
     <g id="line2d_7">
      <g>
       <use xlink:href="#m89b8dc26c3" x="675.629261" y="284.4" style="stroke: #000000; stroke-width: 0.8"/>
      </g>
     </g>
     <g id="text_7">
      <!-- 0 -->
      <g transform="translate(672.448011 298.998438) scale(0.1 -0.1)">
       <use xlink:href="#DejaVuSans-30"/>
      </g>
     </g>
    </g>
   </g>
   <g id="matplotlib.axis_2">
    <g id="ytick_1">
     <g id="line2d_8">
      <defs>
       <path id="mec43ef680d" d="M 0 0 
L -3.5 0 
" style="stroke: #000000; stroke-width: 0.8"/>
      </defs>
      <g>
       <use xlink:href="#mec43ef680d" x="36.465625" y="280.773482" style="stroke: #000000; stroke-width: 0.8"/>
      </g>
     </g>
     <g id="text_8">
      <!-- 0.00 -->
      <g transform="translate(7.2 284.572701) scale(0.1 -0.1)">
       <defs>
        <path id="DejaVuSans-2e" d="M 684 794 
L 1344 794 
L 1344 0 
L 684 0 
L 684 794 
z
" transform="scale(0.015625)"/>
       </defs>
       <use xlink:href="#DejaVuSans-30"/>
       <use xlink:href="#DejaVuSans-2e" transform="translate(63.623047 0)"/>
       <use xlink:href="#DejaVuSans-30" transform="translate(95.410156 0)"/>
       <use xlink:href="#DejaVuSans-30" transform="translate(159.033203 0)"/>
      </g>
     </g>
    </g>
    <g id="ytick_2">
     <g id="line2d_9">
      <g>
       <use xlink:href="#mec43ef680d" x="36.465625" y="234.080315" style="stroke: #000000; stroke-width: 0.8"/>
      </g>
     </g>
     <g id="text_9">
      <!-- 0.01 -->
      <g transform="translate(7.2 237.879534) scale(0.1 -0.1)">
       <use xlink:href="#DejaVuSans-30"/>
       <use xlink:href="#DejaVuSans-2e" transform="translate(63.623047 0)"/>
       <use xlink:href="#DejaVuSans-30" transform="translate(95.410156 0)"/>
       <use xlink:href="#DejaVuSans-31" transform="translate(159.033203 0)"/>
      </g>
     </g>
    </g>
    <g id="ytick_3">
     <g id="line2d_10">
      <g>
       <use xlink:href="#mec43ef680d" x="36.465625" y="187.387148" style="stroke: #000000; stroke-width: 0.8"/>
      </g>
     </g>
     <g id="text_10">
      <!-- 0.02 -->
      <g transform="translate(7.2 191.186366) scale(0.1 -0.1)">
       <use xlink:href="#DejaVuSans-30"/>
       <use xlink:href="#DejaVuSans-2e" transform="translate(63.623047 0)"/>
       <use xlink:href="#DejaVuSans-30" transform="translate(95.410156 0)"/>
       <use xlink:href="#DejaVuSans-32" transform="translate(159.033203 0)"/>
      </g>
     </g>
    </g>
    <g id="ytick_4">
     <g id="line2d_11">
      <g>
       <use xlink:href="#mec43ef680d" x="36.465625" y="140.69398" style="stroke: #000000; stroke-width: 0.8"/>
      </g>
     </g>
     <g id="text_11">
      <!-- 0.03 -->
      <g transform="translate(7.2 144.493199) scale(0.1 -0.1)">
       <defs>
        <path id="DejaVuSans-33" d="M 2597 2516 
Q 3050 2419 3304 2112 
Q 3559 1806 3559 1356 
Q 3559 666 3084 287 
Q 2609 -91 1734 -91 
Q 1441 -91 1130 -33 
Q 819 25 488 141 
L 488 750 
Q 750 597 1062 519 
Q 1375 441 1716 441 
Q 2309 441 2620 675 
Q 2931 909 2931 1356 
Q 2931 1769 2642 2001 
Q 2353 2234 1838 2234 
L 1294 2234 
L 1294 2753 
L 1863 2753 
Q 2328 2753 2575 2939 
Q 2822 3125 2822 3475 
Q 2822 3834 2567 4026 
Q 2313 4219 1838 4219 
Q 1578 4219 1281 4162 
Q 984 4106 628 3988 
L 628 4550 
Q 988 4650 1302 4700 
Q 1616 4750 1894 4750 
Q 2613 4750 3031 4423 
Q 3450 4097 3450 3541 
Q 3450 3153 3228 2886 
Q 3006 2619 2597 2516 
z
" transform="scale(0.015625)"/>
       </defs>
       <use xlink:href="#DejaVuSans-30"/>
       <use xlink:href="#DejaVuSans-2e" transform="translate(63.623047 0)"/>
       <use xlink:href="#DejaVuSans-30" transform="translate(95.410156 0)"/>
       <use xlink:href="#DejaVuSans-33" transform="translate(159.033203 0)"/>
      </g>
     </g>
    </g>
    <g id="ytick_5">
     <g id="line2d_12">
      <g>
       <use xlink:href="#mec43ef680d" x="36.465625" y="94.000813" style="stroke: #000000; stroke-width: 0.8"/>
      </g>
     </g>
     <g id="text_12">
      <!-- 0.04 -->
      <g transform="translate(7.2 97.800032) scale(0.1 -0.1)">
       <use xlink:href="#DejaVuSans-30"/>
       <use xlink:href="#DejaVuSans-2e" transform="translate(63.623047 0)"/>
       <use xlink:href="#DejaVuSans-30" transform="translate(95.410156 0)"/>
       <use xlink:href="#DejaVuSans-34" transform="translate(159.033203 0)"/>
      </g>
     </g>
    </g>
    <g id="ytick_6">
     <g id="line2d_13">
      <g>
       <use xlink:href="#mec43ef680d" x="36.465625" y="47.307645" style="stroke: #000000; stroke-width: 0.8"/>
      </g>
     </g>
     <g id="text_13">
      <!-- 0.05 -->
      <g transform="translate(7.2 51.106864) scale(0.1 -0.1)">
       <defs>
        <path id="DejaVuSans-35" d="M 691 4666 
L 3169 4666 
L 3169 4134 
L 1269 4134 
L 1269 2991 
Q 1406 3038 1543 3061 
Q 1681 3084 1819 3084 
Q 2600 3084 3056 2656 
Q 3513 2228 3513 1497 
Q 3513 744 3044 326 
Q 2575 -91 1722 -91 
Q 1428 -91 1123 -41 
Q 819 9 494 109 
L 494 744 
Q 775 591 1075 516 
Q 1375 441 1709 441 
Q 2250 441 2565 725 
Q 2881 1009 2881 1497 
Q 2881 1984 2565 2268 
Q 2250 2553 1709 2553 
Q 1456 2553 1204 2497 
Q 953 2441 691 2322 
L 691 4666 
z
" transform="scale(0.015625)"/>
       </defs>
       <use xlink:href="#DejaVuSans-30"/>
       <use xlink:href="#DejaVuSans-2e" transform="translate(63.623047 0)"/>
       <use xlink:href="#DejaVuSans-30" transform="translate(95.410156 0)"/>
       <use xlink:href="#DejaVuSans-35" transform="translate(159.033203 0)"/>
      </g>
     </g>
    </g>
   </g>
   <g id="line2d_14">
    <path d="M 66.901989 271.587901 
L 67.377309 271.408914 
L 68.803271 270.625227 
L 70.466893 269.793715 
L 71.892855 269.050072 
L 72.764276 268.311264 
L 73.714918 267.183676 
L 74.982439 265.284039 
L 76.408401 262.748975 
L 77.755143 259.87474 
L 79.497985 256.168763 
L 80.131746 255.289651 
L 80.607066 254.923893 
L 81.003167 254.836334 
L 81.399268 254.951386 
L 81.874588 255.345925 
L 82.429129 256.116964 
L 83.22133 257.642922 
L 86.707014 264.927615 
L 87.974536 266.857102 
L 89.004397 268.046466 
L 89.955039 268.827053 
L 91.22256 269.558964 
L 94.708245 271.254566 
L 95.896546 271.474209 
L 99.778331 271.793552 
L 101.600394 271.604759 
L 104.927638 271.132506 
L 106.03672 270.593364 
L 110.156165 268.162558 
L 111.027586 267.208051 
L 112.136668 265.629242 
L 113.562629 263.171029 
L 114.909371 260.388463 
L 117.127534 255.652527 
L 117.761295 254.847807 
L 118.236615 254.553191 
L 118.632716 254.530916 
L 119.028817 254.712795 
L 119.504137 255.184133 
L 120.137898 256.175265 
L 121.088539 258.165909 
L 123.544362 263.499704 
L 124.811884 265.66906 
L 125.920965 267.157495 
L 126.950827 268.162247 
L 128.059908 268.923059 
L 130.991052 270.535028 
L 132.179354 270.940336 
L 133.605316 271.159013 
L 136.85334 271.409367 
L 138.992283 271.180376 
L 141.289666 270.854199 
L 142.319527 270.436146 
L 144.53769 269.175961 
L 146.201312 268.156524 
L 147.072733 267.351802 
L 148.023374 266.157908 
L 149.211676 264.277688 
L 150.558418 261.734074 
L 152.0636 258.373736 
L 153.410341 255.506587 
L 154.044102 254.587189 
L 154.598643 254.156448 
L 154.994743 254.092531 
L 155.390844 254.236652 
L 155.866164 254.670622 
L 156.499925 255.628774 
L 157.371346 257.427653 
L 160.22327 263.630272 
L 161.411572 265.602916 
L 162.441433 266.930828 
L 163.471294 267.901563 
L 164.818036 268.821766 
L 167.194639 270.158374 
L 168.382941 270.55751 
L 169.967343 270.814638 
L 172.502386 271.034531 
L 174.086788 270.891687 
L 177.176372 270.385798 
L 178.285454 269.883464 
L 180.899717 268.307295 
L 182.008799 267.47497 
L 182.95944 266.458158 
L 183.989301 264.992446 
L 185.256823 262.770855 
L 186.603565 259.961766 
L 189.059388 254.662073 
L 189.693149 253.907808 
L 190.168469 253.66774 
L 190.56457 253.699176 
L 190.96067 253.939063 
L 191.435991 254.480608 
L 192.069752 255.556486 
L 193.099613 257.822629 
L 195.238556 262.588802 
L 196.506077 264.834673 
L 197.615159 266.351743 
L 198.64502 267.386678 
L 199.991762 268.383706 
L 201.972265 269.573862 
L 203.160566 270.046459 
L 204.586528 270.34515 
L 207.042351 270.616427 
L 208.468313 270.535839 
L 211.399457 270.082475 
L 212.508538 269.666016 
L 213.85528 268.885884 
L 216.152663 267.30295 
L 217.103304 266.363857 
L 218.053945 265.101534 
L 219.242247 263.105243 
L 220.588989 260.380207 
L 223.599353 253.929864 
L 224.153893 253.362525 
L 224.629214 253.193616 
L 225.025315 253.288884 
L 225.500635 253.676949 
L 226.055176 254.462207 
L 226.847377 256.037897 
L 230.412282 263.774147 
L 231.521363 265.456497 
L 232.551224 266.63118 
L 233.739526 267.638175 
L 235.482368 268.808299 
L 236.74989 269.431188 
L 238.017411 269.794047 
L 240.156354 270.122311 
L 241.582316 270.150847 
L 243.483599 269.919518 
L 245.226441 269.5547 
L 246.335522 269.07988 
L 247.761484 268.190357 
L 249.583547 266.828038 
L 250.534188 265.853184 
L 251.484829 264.557993 
L 252.59391 262.65498 
L 253.940652 259.872337 
L 256.871796 253.491002 
L 257.426337 252.893965 
L 257.901657 252.702252 
L 258.297758 252.782196 
L 258.773079 253.157617 
L 259.327619 253.936658 
L 260.11982 255.517882 
L 263.763945 263.48623 
L 264.873026 265.145213 
L 265.902888 266.30422 
L 267.170409 267.385615 
L 268.754812 268.451097 
L 269.943113 269.006771 
L 271.289855 269.374388 
L 273.191137 269.65465 
L 274.617099 269.644931 
L 276.597602 269.35703 
L 278.023564 268.976683 
L 279.132645 268.439331 
L 280.637827 267.419984 
L 282.143009 266.169159 
L 283.09365 265.103944 
L 284.044291 263.712895 
L 285.153373 261.694215 
L 286.500115 258.764223 
L 288.955938 253.251816 
L 289.589699 252.450436 
L 290.065019 252.187744 
L 290.46112 252.211419 
L 290.85722 252.454248 
L 291.332541 253.012329 
L 291.966302 254.127082 
L 292.996163 256.476981 
L 295.135106 261.413336 
L 296.323407 263.567387 
L 297.353269 265.010582 
L 298.46235 266.187879 
L 299.888312 267.35118 
L 301.235054 268.179096 
L 302.423355 268.649825 
L 304.007757 269.007721 
L 305.592159 269.151449 
L 307.018121 269.038771 
L 308.919404 268.653227 
L 310.107705 268.193065 
L 311.296007 267.469378 
L 312.880409 266.218486 
L 313.98949 265.098195 
L 314.940132 263.829294 
L 315.969993 262.075422 
L 317.237515 259.439064 
L 320.485539 252.255073 
L 321.04008 251.720651 
L 321.43618 251.598251 
L 321.832281 251.701885 
L 322.307601 252.113725 
L 322.862142 252.941331 
L 323.654343 254.591477 
L 327.060807 262.296684 
L 328.169889 264.039091 
L 329.27897 265.357252 
L 330.546492 266.510753 
L 331.893234 267.441669 
L 333.081535 267.990609 
L 334.507497 268.378708 
L 336.012679 268.570019 
L 337.359421 268.509922 
L 339.023043 268.195533 
L 340.290565 267.756548 
L 341.399646 267.127746 
L 342.746388 266.085595 
L 344.01391 264.848299 
L 345.043771 263.520182 
L 346.073632 261.796407 
L 347.261934 259.341077 
L 348.925556 255.307704 
L 350.193078 252.43865 
L 350.826838 251.467446 
L 351.302159 251.066908 
L 351.69826 250.979286 
L 352.09436 251.12184 
L 352.569681 251.582262 
L 353.124221 252.463568 
L 353.916422 254.17507 
L 357.085227 261.502306 
L 358.194308 263.323228 
L 359.303389 264.71045 
L 360.570911 265.920429 
L 361.838433 266.823369 
L 363.026734 267.38783 
L 364.373476 267.768988 
L 365.799438 267.944133 
L 367.06696 267.873037 
L 368.572141 267.559058 
L 369.839663 267.077046 
L 370.948745 266.400497 
L 372.216266 265.349531 
L 373.404568 264.098385 
L 374.434429 262.681583 
L 375.46429 260.860108 
L 376.652592 258.283678 
L 379.821396 251.01976 
L 380.375937 250.445566 
L 380.772037 250.303211 
L 381.168138 250.395831 
L 381.564238 250.716964 
L 382.118779 251.508583 
L 382.83176 252.971731 
L 384.416162 256.929831 
L 385.842124 260.185561 
L 386.951205 262.192404 
L 388.060287 263.736385 
L 389.248588 264.998093 
L 390.43689 265.948869 
L 391.545971 266.567205 
L 392.813493 267.005623 
L 394.160235 267.231874 
L 395.348536 267.214485 
L 396.695278 266.966587 
L 397.9628 266.522019 
L 399.071881 265.886154 
L 400.260183 264.917386 
L 401.448484 263.666806 
L 402.478346 262.268794 
L 403.508207 260.469685 
L 404.696509 257.890317 
L 406.597791 253.082155 
L 407.627652 250.811917 
L 408.261413 249.911539 
L 408.736734 249.594422 
L 409.132834 249.591286 
L 409.528935 249.826217 
L 410.004255 250.399242 
L 410.638016 251.568476 
L 411.667878 254.056561 
L 413.7276 259.101095 
L 414.836682 261.227588 
L 415.945763 262.873455 
L 417.054845 264.134061 
L 418.163926 265.089028 
L 419.273008 265.760757 
L 420.461309 266.213093 
L 421.728831 266.451623 
L 422.917132 266.441432 
L 424.184654 266.193883 
L 425.372955 265.745882 
L 426.402817 265.129464 
L 427.511898 264.193356 
L 428.7002 262.880378 
L 429.730061 261.409069 
L 430.759922 259.52607 
L 431.948224 256.838251 
L 435.037808 249.489548 
L 435.592349 248.894367 
L 435.988449 248.749112 
L 436.38455 248.849515 
L 436.78065 249.188474 
L 437.335191 250.018544 
L 438.048172 251.544433 
L 439.870234 256.240489 
L 441.137756 259.127414 
L 442.246837 261.120035 
L 443.355919 262.650442 
L 444.465 263.810631 
L 445.574082 264.648285 
L 446.683163 265.199407 
L 447.871465 265.531177 
L 448.980546 265.614164 
L 450.089628 265.476771 
L 451.277929 265.102336 
L 452.307791 264.556595 
L 453.337652 263.753679 
L 454.446733 262.588927 
L 455.476595 261.197753 
L 456.506456 259.416453 
L 457.615537 257.005099 
L 459.120719 253.101529 
L 460.546681 249.534064 
L 461.180442 248.436745 
L 461.655763 247.961653 
L 462.051863 247.832199 
L 462.447964 247.954876 
L 462.844064 248.320883 
L 463.398605 249.192913 
L 464.190806 250.969007 
L 467.51805 259.089314 
L 468.627132 260.941224 
L 469.736213 262.346836 
L 470.766075 263.313465 
L 471.795936 263.988252 
L 472.905017 264.438153 
L 474.014099 264.635885 
L 475.04396 264.594544 
L 476.153042 264.31741 
L 477.182903 263.838179 
L 478.212764 263.09861 
L 479.242626 262.065601 
L 480.272487 260.720096 
L 481.302348 258.994289 
L 482.33221 256.817041 
L 483.599731 253.578517 
L 485.580234 248.433121 
L 486.213995 247.352687 
L 486.689315 246.908203 
L 487.085416 246.814453 
L 487.481516 246.979688 
L 487.956837 247.501825 
L 488.511378 248.491183 
L 489.382799 250.599505 
L 491.997062 257.274298 
L 493.106144 259.364122 
L 494.136005 260.856974 
L 495.165866 261.977434 
L 496.195728 262.767006 
L 497.225589 263.269271 
L 498.25545 263.518031 
L 499.206092 263.52708 
L 500.235953 263.302358 
L 501.265814 262.83314 
L 502.216456 262.152238 
L 503.167097 261.199145 
L 504.196958 259.836454 
L 505.226819 258.076392 
L 506.256681 255.850741 
L 507.524202 252.525548 
L 509.504705 247.256875 
L 510.138466 246.168223 
L 510.613786 245.733009 
L 511.009887 245.656969 
L 511.405988 245.847566 
L 511.881308 246.407057 
L 512.435849 247.444095 
L 513.30727 249.622201 
L 515.763093 256.046901 
L 516.872175 258.212912 
L 517.902036 259.749145 
L 518.931897 260.87976 
L 519.882539 261.603242 
L 520.83318 262.056942 
L 521.783821 262.263335 
L 522.734462 262.227247 
L 523.685103 261.953147 
L 524.635745 261.432494 
L 525.586386 260.631988 
L 526.537027 259.520397 
L 527.487668 258.071828 
L 528.51753 256.066195 
L 529.626611 253.357647 
L 532.795415 245.058849 
L 533.270736 244.497756 
L 533.666836 244.31843 
L 534.062937 244.414943 
L 534.459038 244.779502 
L 534.934358 245.533106 
L 535.647339 247.155683 
L 537.231741 251.584667 
L 538.578483 254.974101 
L 539.608344 257.006612 
L 540.638206 258.553059 
L 541.588847 259.589085 
L 542.539488 260.289229 
L 543.410909 260.661921 
L 544.28233 260.787168 
L 545.153751 260.673806 
L 546.025173 260.334526 
L 546.896594 259.757292 
L 547.768015 258.909412 
L 548.718656 257.645386 
L 549.669297 256.009062 
L 550.699159 253.760287 
L 551.80824 250.721946 
L 554.026403 244.376385 
L 554.660164 243.253536 
L 555.135484 242.818539 
L 555.531585 242.760549 
L 555.927685 242.986033 
L 556.403006 243.612861 
L 557.036767 244.944062 
L 558.066628 247.793734 
L 559.809471 252.555145 
L 560.997772 255.149228 
L 561.948413 256.726472 
L 562.819834 257.778886 
L 563.691256 258.500496 
L 564.483457 258.895509 
L 565.275658 259.051157 
L 566.067859 258.971897 
L 566.86006 258.66132 
L 567.652261 258.114473 
L 568.523682 257.233773 
L 569.395103 256.030552 
L 570.345744 254.295963 
L 571.296385 252.087693 
L 572.484687 248.703359 
L 574.62363 242.43451 
L 575.257391 241.309452 
L 575.732711 240.909259 
L 576.049592 240.878884 
L 576.366472 241.039516 
L 576.762573 241.496424 
L 577.317113 242.549185 
L 578.109314 244.630929 
L 580.723578 251.925846 
L 581.753439 253.973729 
L 582.62486 255.255403 
L 583.496281 256.150087 
L 584.288482 256.65216 
L 585.001463 256.864111 
L 585.714444 256.854761 
L 586.427425 256.627619 
L 587.140406 256.181018 
L 587.932607 255.408544 
L 588.724808 254.321414 
L 589.596229 252.737446 
L 590.546871 250.518351 
L 591.655952 247.303866 
L 594.111775 239.870834 
L 594.666316 238.938493 
L 595.062416 238.616645 
L 595.379297 238.584628 
L 595.696177 238.753483 
L 596.092278 239.23126 
L 596.646819 240.326418 
L 597.43902 242.477927 
L 599.894843 249.524872 
L 600.845484 251.48448 
L 601.716905 252.797231 
L 602.509106 253.605801 
L 603.222087 254.037028 
L 603.935068 254.199676 
L 604.568829 254.120445 
L 605.20259 253.829556 
L 605.915571 253.243387 
L 606.628552 252.369688 
L 607.420753 251.041281 
L 608.292174 249.123217 
L 609.242815 246.481334 
L 610.589557 241.983191 
L 611.936298 237.672701 
L 612.570059 236.307864 
L 613.04538 235.760685 
L 613.36226 235.656152 
L 613.679141 235.76493 
L 614.075241 236.188064 
L 614.550562 237.066245 
L 615.263543 238.936827 
L 618.194687 247.32363 
L 619.066108 248.931147 
L 619.858309 249.934687 
L 620.57129 250.474743 
L 621.20505 250.673451 
L 621.759591 250.632661 
L 622.393352 250.340465 
L 623.027113 249.782076 
L 623.740094 248.824482 
L 624.532295 247.333665 
L 625.403716 245.156556 
L 626.433577 241.89064 
L 629.127061 232.841966 
L 629.602381 232.052473 
L 629.998482 231.765964 
L 630.315362 231.79384 
L 630.632243 232.046419 
L 631.028343 232.6478 
L 631.582884 233.918131 
L 632.533525 236.774835 
L 634.117927 241.540823 
L 634.989348 243.513641 
L 635.781549 244.773053 
L 636.41531 245.408684 
L 636.969851 245.695838 
L 637.524392 245.727044 
L 638.078932 245.502626 
L 638.633473 245.019663 
L 639.267234 244.144774 
L 639.980215 242.738275 
L 640.772416 240.645131 
L 641.643837 237.691975 
L 643.307459 231.025221 
L 644.258101 227.764156 
L 644.812641 226.550345 
L 645.208742 226.10092 
L 645.525622 226.011372 
L 645.842503 226.165766 
L 646.238603 226.67393 
L 646.793144 227.870319 
L 647.664565 230.436568 
L 649.248967 235.099942 
L 650.041168 236.747036 
L 650.674929 237.611363 
L 651.22947 238.017024 
L 651.70479 238.092141 
L 652.180111 237.905361 
L 652.655431 237.464764 
L 653.209972 236.625254 
L 653.843733 235.231473 
L 654.556714 233.101181 
L 655.428135 229.728785 
L 656.854097 223.09191 
L 657.883958 218.68882 
L 658.517719 216.874681 
L 658.99304 216.15954 
L 659.30992 216.0022 
L 659.626801 216.096271 
L 660.022901 216.52724 
L 660.577442 217.579055 
L 662.874825 222.582498 
L 663.350145 222.991377 
L 663.746246 223.041284 
L 664.221567 222.811192 
L 664.617667 222.343381 
L 665.092988 221.354416 
L 665.647528 219.61547 
L 666.360509 216.60058 
L 667.07349 212.59431 
L 668.578672 201.674074 
L 669.925414 191.602998 
L 670.321514 189.156522 
L 671.668256 182.072067 
L 672.302017 177.928793 
L 672.856558 172.737144 
L 673.331878 166.296515 
L 673.886419 155.058262 
L 674.36174 138.815392 
L 674.75784 115.611225 
L 675.233161 71.078651 
L 675.629261 19.8 
L 675.629261 19.8 
" clip-path="url(#p63701c9bc7)" style="fill: none; stroke: #1f77b4; stroke-width: 1.5; stroke-linecap: square"/>
   </g>
   <g id="line2d_15">
    <path d="M 36.465625 179.644279 
L 706.065625 179.644279 
" clip-path="url(#p63701c9bc7)" style="fill: none; stroke-dasharray: 2.22,0.96; stroke-dashoffset: 0; stroke: #ff0000; stroke-width: 0.6"/>
   </g>
   <g id="line2d_16">
    <path d="M 66.901989 271.587901 
L 67.377309 271.408914 
L 68.803271 270.625227 
L 70.466893 269.793715 
L 71.892855 269.050072 
L 72.764276 268.311264 
L 73.714918 267.183676 
L 74.982439 265.284039 
L 76.408401 262.748975 
L 77.755143 259.87474 
L 79.497985 256.168763 
L 80.131746 255.289651 
L 80.607066 254.923893 
L 81.003167 254.836334 
L 81.399268 254.951386 
L 81.874588 255.345925 
L 82.429129 256.116964 
L 83.22133 257.642922 
L 86.707014 264.927615 
L 87.974536 266.857102 
L 89.004397 268.046466 
L 89.955039 268.827053 
L 91.22256 269.558964 
L 94.708245 271.254566 
L 95.896546 271.474209 
L 99.778331 271.793552 
L 101.600394 271.604759 
L 104.927638 271.132506 
L 106.03672 270.593364 
L 110.156165 268.162558 
L 111.027586 267.208051 
L 112.136668 265.629242 
L 113.562629 263.171029 
L 114.909371 260.388463 
L 117.127534 255.652527 
L 117.761295 254.847807 
L 118.236615 254.553191 
L 118.632716 254.530916 
L 119.028817 254.712795 
L 119.504137 255.184133 
L 120.137898 256.175265 
L 121.088539 258.165909 
L 123.544362 263.499704 
L 124.811884 265.66906 
L 125.920965 267.157495 
L 126.950827 268.162247 
L 128.059908 268.923059 
L 130.991052 270.535028 
L 132.179354 270.940336 
L 133.605316 271.159013 
L 136.85334 271.409367 
L 138.992283 271.180376 
L 141.289666 270.854199 
L 142.319527 270.436146 
L 144.53769 269.175961 
L 146.201312 268.156524 
L 147.072733 267.351802 
L 148.023374 266.157908 
L 149.211676 264.277688 
L 150.558418 261.734074 
L 152.0636 258.373736 
L 153.410341 255.506587 
L 154.044102 254.587189 
L 154.598643 254.156448 
L 154.994743 254.092531 
L 155.390844 254.236652 
L 155.866164 254.670622 
L 156.499925 255.628774 
L 157.371346 257.427653 
L 160.22327 263.630272 
L 161.411572 265.602916 
L 162.441433 266.930828 
L 163.471294 267.901563 
L 164.818036 268.821766 
L 167.194639 270.158374 
L 168.382941 270.55751 
L 169.967343 270.814638 
L 172.502386 271.034531 
L 174.086788 270.891687 
L 177.176372 270.385798 
L 178.285454 269.883464 
L 180.899717 268.307295 
L 182.008799 267.47497 
L 182.95944 266.458158 
L 183.989301 264.992446 
L 185.256823 262.770855 
L 186.603565 259.961766 
L 189.059388 254.662073 
L 189.693149 253.907808 
L 190.168469 253.66774 
L 190.56457 253.699176 
L 190.96067 253.939063 
L 191.435991 254.480608 
L 192.069752 255.556486 
L 193.099613 257.822629 
L 195.238556 262.588802 
L 196.506077 264.834673 
L 197.615159 266.351743 
L 198.64502 267.386678 
L 199.991762 268.383706 
L 201.972265 269.573862 
L 203.160566 270.046459 
L 204.586528 270.34515 
L 207.042351 270.616427 
L 208.468313 270.535839 
L 211.399457 270.082475 
L 212.508538 269.666016 
L 213.85528 268.885884 
L 216.152663 267.30295 
L 217.103304 266.363857 
L 218.053945 265.101534 
L 219.242247 263.105243 
L 220.588989 260.380207 
L 223.599353 253.929864 
L 224.153893 253.362525 
L 224.629214 253.193616 
L 225.025315 253.288884 
L 225.500635 253.676949 
L 226.055176 254.462207 
L 226.847377 256.037897 
L 230.412282 263.774147 
L 231.521363 265.456497 
L 232.551224 266.63118 
L 233.739526 267.638175 
L 235.482368 268.808299 
L 236.74989 269.431188 
L 238.017411 269.794047 
L 240.156354 270.122311 
L 241.582316 270.150847 
L 243.483599 269.919518 
L 245.226441 269.5547 
L 246.335522 269.07988 
L 247.761484 268.190357 
L 249.583547 266.828038 
L 250.534188 265.853184 
L 251.484829 264.557993 
L 252.59391 262.65498 
L 253.940652 259.872337 
L 256.871796 253.491002 
L 257.426337 252.893965 
L 257.901657 252.702252 
L 258.297758 252.782196 
L 258.773079 253.157617 
L 259.327619 253.936658 
L 260.11982 255.517882 
L 263.763945 263.48623 
L 264.873026 265.145213 
L 265.902888 266.30422 
L 267.170409 267.385615 
L 268.754812 268.451097 
L 269.943113 269.006771 
L 271.289855 269.374388 
L 273.191137 269.65465 
L 274.617099 269.644931 
L 276.597602 269.35703 
L 278.023564 268.976683 
L 279.132645 268.439331 
L 280.637827 267.419984 
L 282.143009 266.169159 
L 283.09365 265.103944 
L 284.044291 263.712895 
L 285.153373 261.694215 
L 286.500115 258.764223 
L 288.955938 253.251816 
L 289.589699 252.450436 
L 290.065019 252.187744 
L 290.46112 252.211419 
L 290.85722 252.454248 
L 291.332541 253.012329 
L 291.966302 254.127082 
L 292.996163 256.476981 
L 295.135106 261.413336 
L 296.323407 263.567387 
L 297.353269 265.010582 
L 298.46235 266.187879 
L 299.888312 267.35118 
L 301.235054 268.179096 
L 302.423355 268.649825 
L 304.007757 269.007721 
L 305.592159 269.151449 
L 307.018121 269.038771 
L 308.919404 268.653227 
L 310.107705 268.193065 
L 311.296007 267.469378 
L 312.880409 266.218486 
L 313.98949 265.098195 
L 314.940132 263.829294 
L 315.969993 262.075422 
L 317.237515 259.439064 
L 320.485539 252.255073 
L 321.04008 251.720651 
L 321.43618 251.598251 
L 321.832281 251.701885 
L 322.307601 252.113725 
L 322.862142 252.941331 
L 323.654343 254.591477 
L 327.060807 262.296684 
L 328.169889 264.039091 
L 329.27897 265.357252 
L 330.546492 266.510753 
L 331.893234 267.441669 
L 333.081535 267.990609 
L 334.507497 268.378708 
L 336.012679 268.570019 
L 337.359421 268.509922 
L 339.023043 268.195533 
L 340.290565 267.756548 
L 341.399646 267.127746 
L 342.746388 266.085595 
L 344.01391 264.848299 
L 345.043771 263.520182 
L 346.073632 261.796407 
L 347.261934 259.341077 
L 348.925556 255.307704 
L 350.193078 252.43865 
L 350.826838 251.467446 
L 351.302159 251.066908 
L 351.69826 250.979286 
L 352.09436 251.12184 
L 352.569681 251.582262 
L 353.124221 252.463568 
L 353.916422 254.17507 
L 357.085227 261.502306 
L 358.194308 263.323228 
L 359.303389 264.71045 
L 360.570911 265.920429 
L 361.838433 266.823369 
L 363.026734 267.38783 
L 364.373476 267.768988 
L 365.799438 267.944133 
L 367.06696 267.873037 
L 368.572141 267.559058 
L 369.839663 267.077046 
L 370.948745 266.400497 
L 372.216266 265.349531 
L 373.404568 264.098385 
L 374.434429 262.681583 
L 375.46429 260.860108 
L 376.652592 258.283678 
L 379.821396 251.01976 
L 380.375937 250.445566 
L 380.772037 250.303211 
L 381.168138 250.395831 
L 381.564238 250.716964 
L 382.118779 251.508583 
L 382.83176 252.971731 
L 384.416162 256.929831 
L 385.842124 260.185561 
L 386.951205 262.192404 
L 388.060287 263.736385 
L 389.248588 264.998093 
L 390.43689 265.948869 
L 391.545971 266.567205 
L 392.813493 267.005623 
L 394.160235 267.231874 
L 395.348536 267.214485 
L 396.695278 266.966587 
L 397.9628 266.522019 
L 399.071881 265.886154 
L 400.260183 264.917386 
L 401.448484 263.666806 
L 402.478346 262.268794 
L 403.508207 260.469685 
L 404.696509 257.890317 
L 406.597791 253.082155 
L 407.627652 250.811917 
L 408.261413 249.911539 
L 408.736734 249.594422 
L 409.132834 249.591286 
L 409.528935 249.826217 
L 410.004255 250.399242 
L 410.638016 251.568476 
L 411.667878 254.056561 
L 413.7276 259.101095 
L 414.836682 261.227588 
L 415.945763 262.873455 
L 417.054845 264.134061 
L 418.163926 265.089028 
L 419.273008 265.760757 
L 420.461309 266.213093 
L 421.728831 266.451623 
L 422.917132 266.441432 
L 424.184654 266.193883 
L 425.372955 265.745882 
L 426.402817 265.129464 
L 427.511898 264.193356 
L 428.7002 262.880378 
L 429.730061 261.409069 
L 430.759922 259.52607 
L 431.948224 256.838251 
L 435.037808 249.489548 
L 435.592349 248.894367 
L 435.988449 248.749112 
L 436.38455 248.849515 
L 436.78065 249.188474 
L 437.335191 250.018544 
L 438.048172 251.544433 
L 439.870234 256.240489 
L 441.137756 259.127414 
L 442.246837 261.120035 
L 443.355919 262.650442 
L 444.465 263.810631 
L 445.574082 264.648285 
L 446.683163 265.199407 
L 447.871465 265.531177 
L 448.980546 265.614164 
L 450.089628 265.476771 
L 451.277929 265.102336 
L 452.307791 264.556595 
L 453.337652 263.753679 
L 454.446733 262.588927 
L 455.476595 261.197753 
L 456.506456 259.416453 
L 457.615537 257.005099 
L 459.120719 253.101529 
L 460.546681 249.534064 
L 461.180442 248.436745 
L 461.655763 247.961653 
L 462.051863 247.832199 
L 462.447964 247.954876 
L 462.844064 248.320883 
L 463.398605 249.192913 
L 464.190806 250.969007 
L 467.51805 259.089314 
L 468.627132 260.941224 
L 469.736213 262.346836 
L 470.766075 263.313465 
L 471.795936 263.988252 
L 472.905017 264.438153 
L 474.014099 264.635885 
L 475.04396 264.594544 
L 476.153042 264.31741 
L 477.182903 263.838179 
L 478.212764 263.09861 
L 479.242626 262.065601 
L 480.272487 260.720096 
L 481.302348 258.994289 
L 482.33221 256.817041 
L 483.599731 253.578517 
L 485.580234 248.433121 
L 486.213995 247.352687 
L 486.689315 246.908203 
L 487.085416 246.814453 
L 487.481516 246.979688 
L 487.956837 247.501825 
L 488.511378 248.491183 
L 489.382799 250.599505 
L 491.997062 257.274298 
L 493.106144 259.364122 
L 494.136005 260.856974 
L 495.165866 261.977434 
L 496.195728 262.767006 
L 497.225589 263.269271 
L 498.25545 263.518031 
L 499.206092 263.52708 
L 500.235953 263.302358 
L 501.265814 262.83314 
L 502.216456 262.152238 
L 503.167097 261.199145 
L 504.196958 259.836454 
L 505.226819 258.076392 
L 506.256681 255.850741 
L 507.524202 252.525548 
L 509.504705 247.256875 
L 510.138466 246.168223 
L 510.613786 245.733009 
L 511.009887 245.656969 
L 511.405988 245.847566 
L 511.881308 246.407057 
L 512.435849 247.444095 
L 513.30727 249.622201 
L 515.763093 256.046901 
L 516.872175 258.212912 
L 517.902036 259.749145 
L 518.931897 260.87976 
L 519.882539 261.603242 
L 520.83318 262.056942 
L 521.783821 262.263335 
L 522.734462 262.227247 
L 523.685103 261.953147 
L 524.635745 261.432494 
L 525.586386 260.631988 
L 526.537027 259.520397 
L 527.487668 258.071828 
L 528.51753 256.066195 
L 529.626611 253.357647 
L 532.795415 245.058849 
L 533.270736 244.497756 
L 533.666836 244.31843 
L 534.062937 244.414943 
L 534.459038 244.779502 
L 534.934358 245.533106 
L 535.647339 247.155683 
L 537.231741 251.584667 
L 538.578483 254.974101 
L 539.608344 257.006612 
L 540.638206 258.553059 
L 541.588847 259.589085 
L 542.539488 260.289229 
L 543.410909 260.661921 
L 544.28233 260.787168 
L 545.153751 260.673806 
L 546.025173 260.334526 
L 546.896594 259.757292 
L 547.768015 258.909412 
L 548.718656 257.645386 
L 549.669297 256.009062 
L 550.699159 253.760287 
L 551.80824 250.721946 
L 554.026403 244.376385 
L 554.660164 243.253536 
L 555.135484 242.818539 
L 555.531585 242.760549 
L 555.927685 242.986033 
L 556.403006 243.612861 
L 557.036767 244.944062 
L 558.066628 247.793734 
L 559.809471 252.555145 
L 560.997772 255.149228 
L 561.948413 256.726472 
L 562.819834 257.778886 
L 563.691256 258.500496 
L 564.483457 258.895509 
L 565.275658 259.051157 
L 566.067859 258.971897 
L 566.86006 258.66132 
L 567.652261 258.114473 
L 568.523682 257.233773 
L 569.395103 256.030552 
L 570.345744 254.295963 
L 571.296385 252.087693 
L 572.484687 248.703359 
L 574.62363 242.43451 
L 575.257391 241.309452 
L 575.732711 240.909259 
L 576.049592 240.878884 
L 576.366472 241.039516 
L 576.762573 241.496424 
L 577.317113 242.549185 
L 578.109314 244.630929 
L 580.723578 251.925846 
L 581.753439 253.973729 
L 582.62486 255.255403 
L 583.496281 256.150087 
L 584.288482 256.65216 
L 585.001463 256.864111 
L 585.714444 256.854761 
L 586.427425 256.627619 
L 587.140406 256.181018 
L 587.932607 255.408544 
L 588.724808 254.321414 
L 589.596229 252.737446 
L 590.546871 250.518351 
L 591.655952 247.303866 
L 594.111775 239.870834 
L 594.666316 238.938493 
L 595.062416 238.616645 
L 595.379297 238.584628 
L 595.696177 238.753483 
L 596.092278 239.23126 
L 596.646819 240.326418 
L 597.43902 242.477927 
L 599.894843 249.524872 
L 600.845484 251.48448 
L 601.716905 252.797231 
L 602.509106 253.605801 
L 603.222087 254.037028 
L 603.935068 254.199676 
L 604.568829 254.120445 
L 605.20259 253.829556 
L 605.915571 253.243387 
L 606.628552 252.369688 
L 607.420753 251.041281 
L 608.292174 249.123217 
L 609.242815 246.481334 
L 610.589557 241.983191 
L 611.936298 237.672701 
L 612.570059 236.307864 
L 613.04538 235.760685 
L 613.36226 235.656152 
L 613.679141 235.76493 
L 614.075241 236.188064 
L 614.550562 237.066245 
L 615.263543 238.936827 
L 618.194687 247.32363 
L 619.066108 248.931147 
L 619.858309 249.934687 
L 620.57129 250.474743 
L 621.20505 250.673451 
L 621.759591 250.632661 
L 622.393352 250.340465 
L 623.027113 249.782076 
L 623.740094 248.824482 
L 624.532295 247.333665 
L 625.403716 245.156556 
L 626.433577 241.89064 
L 629.127061 232.841966 
L 629.602381 232.052473 
L 629.998482 231.765964 
L 630.315362 231.79384 
L 630.632243 232.046419 
L 631.028343 232.6478 
L 631.582884 233.918131 
L 632.533525 236.774835 
L 634.117927 241.540823 
L 634.989348 243.513641 
L 635.781549 244.773053 
L 636.41531 245.408684 
L 636.969851 245.695838 
L 637.524392 245.727044 
L 638.078932 245.502626 
L 638.633473 245.019663 
L 639.267234 244.144774 
L 639.980215 242.738275 
L 640.772416 240.645131 
L 641.643837 237.691975 
L 643.307459 231.025221 
L 644.258101 227.764156 
L 644.812641 226.550345 
L 645.208742 226.10092 
L 645.525622 226.011372 
L 645.842503 226.165766 
L 646.238603 226.67393 
L 646.793144 227.870319 
L 647.664565 230.436568 
L 649.248967 235.099942 
L 650.041168 236.747036 
L 650.674929 237.611363 
L 651.22947 238.017024 
L 651.70479 238.092141 
L 652.180111 237.905361 
L 652.655431 237.464764 
L 653.209972 236.625254 
L 653.843733 235.231473 
L 654.556714 233.101181 
L 655.428135 229.728785 
L 656.854097 223.09191 
L 657.883958 218.68882 
L 658.517719 216.874681 
L 658.99304 216.15954 
L 659.30992 216.0022 
L 659.626801 216.096271 
L 660.022901 216.52724 
L 660.577442 217.579055 
L 662.874825 222.582498 
L 663.350145 222.991377 
L 663.746246 223.041284 
L 664.221567 222.811192 
L 664.617667 222.343381 
L 665.092988 221.354416 
L 665.647528 219.61547 
L 666.360509 216.60058 
L 667.07349 212.59431 
L 668.578672 201.674074 
L 669.925414 191.602998 
L 670.321514 189.156522 
L 671.668256 182.072067 
L 671.985137 180.161496 
L 671.985137 180.161496 
" clip-path="url(#p63701c9bc7)" style="fill: none; stroke: #ff7f0e; stroke-width: 1.5; stroke-linecap: square"/>
   </g>
   <g id="patch_3">
    <path d="M 36.465625 284.4 
L 36.465625 7.2 
" style="fill: none; stroke: #000000; stroke-width: 0.8; stroke-linejoin: miter; stroke-linecap: square"/>
   </g>
   <g id="patch_4">
    <path d="M 706.065625 284.4 
L 706.065625 7.2 
" style="fill: none; stroke: #000000; stroke-width: 0.8; stroke-linejoin: miter; stroke-linecap: square"/>
   </g>
   <g id="patch_5">
    <path d="M 36.465625 284.4 
L 706.065625 284.4 
" style="fill: none; stroke: #000000; stroke-width: 0.8; stroke-linejoin: miter; stroke-linecap: square"/>
   </g>
   <g id="patch_6">
    <path d="M 36.465625 7.2 
L 706.065625 7.2 
" style="fill: none; stroke: #000000; stroke-width: 0.8; stroke-linejoin: miter; stroke-linecap: square"/>
   </g>
   <g id="legend_1">
    <g id="patch_7">
     <path d="M 43.465625 73.9125 
L 205.965625 73.9125 
Q 207.965625 73.9125 207.965625 71.9125 
L 207.965625 14.2 
Q 207.965625 12.2 205.965625 12.2 
L 43.465625 12.2 
Q 41.465625 12.2 41.465625 14.2 
L 41.465625 71.9125 
Q 41.465625 73.9125 43.465625 73.9125 
z
" style="fill: #ffffff; opacity: 0.8; stroke: #cccccc; stroke-linejoin: miter"/>
    </g>
    <g id="line2d_17">
     <path d="M 45.465625 20.298438 
L 55.465625 20.298438 
L 65.465625 20.298438 
" style="fill: none; stroke: #1f77b4; stroke-width: 1.5; stroke-linecap: square"/>
    </g>
    <g id="text_14">
     <!-- Mf before ISCO cut: $e$=0.2 -->
     <g transform="translate(73.465625 23.798438) scale(0.1 -0.1)">
      <defs>
       <path id="DejaVuSans-4d" d="M 628 4666 
L 1569 4666 
L 2759 1491 
L 3956 4666 
L 4897 4666 
L 4897 0 
L 4281 0 
L 4281 4097 
L 3078 897 
L 2444 897 
L 1241 4097 
L 1241 0 
L 628 0 
L 628 4666 
z
" transform="scale(0.015625)"/>
       <path id="DejaVuSans-66" d="M 2375 4863 
L 2375 4384 
L 1825 4384 
Q 1516 4384 1395 4259 
Q 1275 4134 1275 3809 
L 1275 3500 
L 2222 3500 
L 2222 3053 
L 1275 3053 
L 1275 0 
L 697 0 
L 697 3053 
L 147 3053 
L 147 3500 
L 697 3500 
L 697 3744 
Q 697 4328 969 4595 
Q 1241 4863 1831 4863 
L 2375 4863 
z
" transform="scale(0.015625)"/>
       <path id="DejaVuSans-20" transform="scale(0.015625)"/>
       <path id="DejaVuSans-62" d="M 3116 1747 
Q 3116 2381 2855 2742 
Q 2594 3103 2138 3103 
Q 1681 3103 1420 2742 
Q 1159 2381 1159 1747 
Q 1159 1113 1420 752 
Q 1681 391 2138 391 
Q 2594 391 2855 752 
Q 3116 1113 3116 1747 
z
M 1159 2969 
Q 1341 3281 1617 3432 
Q 1894 3584 2278 3584 
Q 2916 3584 3314 3078 
Q 3713 2572 3713 1747 
Q 3713 922 3314 415 
Q 2916 -91 2278 -91 
Q 1894 -91 1617 61 
Q 1341 213 1159 525 
L 1159 0 
L 581 0 
L 581 4863 
L 1159 4863 
L 1159 2969 
z
" transform="scale(0.015625)"/>
       <path id="DejaVuSans-65" d="M 3597 1894 
L 3597 1613 
L 953 1613 
Q 991 1019 1311 708 
Q 1631 397 2203 397 
Q 2534 397 2845 478 
Q 3156 559 3463 722 
L 3463 178 
Q 3153 47 2828 -22 
Q 2503 -91 2169 -91 
Q 1331 -91 842 396 
Q 353 884 353 1716 
Q 353 2575 817 3079 
Q 1281 3584 2069 3584 
Q 2775 3584 3186 3129 
Q 3597 2675 3597 1894 
z
M 3022 2063 
Q 3016 2534 2758 2815 
Q 2500 3097 2075 3097 
Q 1594 3097 1305 2825 
Q 1016 2553 972 2059 
L 3022 2063 
z
" transform="scale(0.015625)"/>
       <path id="DejaVuSans-6f" d="M 1959 3097 
Q 1497 3097 1228 2736 
Q 959 2375 959 1747 
Q 959 1119 1226 758 
Q 1494 397 1959 397 
Q 2419 397 2687 759 
Q 2956 1122 2956 1747 
Q 2956 2369 2687 2733 
Q 2419 3097 1959 3097 
z
M 1959 3584 
Q 2709 3584 3137 3096 
Q 3566 2609 3566 1747 
Q 3566 888 3137 398 
Q 2709 -91 1959 -91 
Q 1206 -91 779 398 
Q 353 888 353 1747 
Q 353 2609 779 3096 
Q 1206 3584 1959 3584 
z
" transform="scale(0.015625)"/>
       <path id="DejaVuSans-72" d="M 2631 2963 
Q 2534 3019 2420 3045 
Q 2306 3072 2169 3072 
Q 1681 3072 1420 2755 
Q 1159 2438 1159 1844 
L 1159 0 
L 581 0 
L 581 3500 
L 1159 3500 
L 1159 2956 
Q 1341 3275 1631 3429 
Q 1922 3584 2338 3584 
Q 2397 3584 2469 3576 
Q 2541 3569 2628 3553 
L 2631 2963 
z
" transform="scale(0.015625)"/>
       <path id="DejaVuSans-49" d="M 628 4666 
L 1259 4666 
L 1259 0 
L 628 0 
L 628 4666 
z
" transform="scale(0.015625)"/>
       <path id="DejaVuSans-53" d="M 3425 4513 
L 3425 3897 
Q 3066 4069 2747 4153 
Q 2428 4238 2131 4238 
Q 1616 4238 1336 4038 
Q 1056 3838 1056 3469 
Q 1056 3159 1242 3001 
Q 1428 2844 1947 2747 
L 2328 2669 
Q 3034 2534 3370 2195 
Q 3706 1856 3706 1288 
Q 3706 609 3251 259 
Q 2797 -91 1919 -91 
Q 1588 -91 1214 -16 
Q 841 59 441 206 
L 441 856 
Q 825 641 1194 531 
Q 1563 422 1919 422 
Q 2459 422 2753 634 
Q 3047 847 3047 1241 
Q 3047 1584 2836 1778 
Q 2625 1972 2144 2069 
L 1759 2144 
Q 1053 2284 737 2584 
Q 422 2884 422 3419 
Q 422 4038 858 4394 
Q 1294 4750 2059 4750 
Q 2388 4750 2728 4690 
Q 3069 4631 3425 4513 
z
" transform="scale(0.015625)"/>
       <path id="DejaVuSans-43" d="M 4122 4306 
L 4122 3641 
Q 3803 3938 3442 4084 
Q 3081 4231 2675 4231 
Q 1875 4231 1450 3742 
Q 1025 3253 1025 2328 
Q 1025 1406 1450 917 
Q 1875 428 2675 428 
Q 3081 428 3442 575 
Q 3803 722 4122 1019 
L 4122 359 
Q 3791 134 3420 21 
Q 3050 -91 2638 -91 
Q 1578 -91 968 557 
Q 359 1206 359 2328 
Q 359 3453 968 4101 
Q 1578 4750 2638 4750 
Q 3056 4750 3426 4639 
Q 3797 4528 4122 4306 
z
" transform="scale(0.015625)"/>
       <path id="DejaVuSans-4f" d="M 2522 4238 
Q 1834 4238 1429 3725 
Q 1025 3213 1025 2328 
Q 1025 1447 1429 934 
Q 1834 422 2522 422 
Q 3209 422 3611 934 
Q 4013 1447 4013 2328 
Q 4013 3213 3611 3725 
Q 3209 4238 2522 4238 
z
M 2522 4750 
Q 3503 4750 4090 4092 
Q 4678 3434 4678 2328 
Q 4678 1225 4090 567 
Q 3503 -91 2522 -91 
Q 1538 -91 948 565 
Q 359 1222 359 2328 
Q 359 3434 948 4092 
Q 1538 4750 2522 4750 
z
" transform="scale(0.015625)"/>
       <path id="DejaVuSans-63" d="M 3122 3366 
L 3122 2828 
Q 2878 2963 2633 3030 
Q 2388 3097 2138 3097 
Q 1578 3097 1268 2742 
Q 959 2388 959 1747 
Q 959 1106 1268 751 
Q 1578 397 2138 397 
Q 2388 397 2633 464 
Q 2878 531 3122 666 
L 3122 134 
Q 2881 22 2623 -34 
Q 2366 -91 2075 -91 
Q 1284 -91 818 406 
Q 353 903 353 1747 
Q 353 2603 823 3093 
Q 1294 3584 2113 3584 
Q 2378 3584 2631 3529 
Q 2884 3475 3122 3366 
z
" transform="scale(0.015625)"/>
       <path id="DejaVuSans-75" d="M 544 1381 
L 544 3500 
L 1119 3500 
L 1119 1403 
Q 1119 906 1312 657 
Q 1506 409 1894 409 
Q 2359 409 2629 706 
Q 2900 1003 2900 1516 
L 2900 3500 
L 3475 3500 
L 3475 0 
L 2900 0 
L 2900 538 
Q 2691 219 2414 64 
Q 2138 -91 1772 -91 
Q 1169 -91 856 284 
Q 544 659 544 1381 
z
M 1991 3584 
L 1991 3584 
z
" transform="scale(0.015625)"/>
       <path id="DejaVuSans-74" d="M 1172 4494 
L 1172 3500 
L 2356 3500 
L 2356 3053 
L 1172 3053 
L 1172 1153 
Q 1172 725 1289 603 
Q 1406 481 1766 481 
L 2356 481 
L 2356 0 
L 1766 0 
Q 1100 0 847 248 
Q 594 497 594 1153 
L 594 3053 
L 172 3053 
L 172 3500 
L 594 3500 
L 594 4494 
L 1172 4494 
z
" transform="scale(0.015625)"/>
       <path id="DejaVuSans-3a" d="M 750 794 
L 1409 794 
L 1409 0 
L 750 0 
L 750 794 
z
M 750 3309 
L 1409 3309 
L 1409 2516 
L 750 2516 
L 750 3309 
z
" transform="scale(0.015625)"/>
       <path id="DejaVuSans-Oblique-65" d="M 3078 2063 
Q 3088 2113 3092 2166 
Q 3097 2219 3097 2272 
Q 3097 2653 2873 2875 
Q 2650 3097 2266 3097 
Q 1838 3097 1509 2826 
Q 1181 2556 1013 2059 
L 3078 2063 
z
M 3578 1613 
L 903 1613 
Q 884 1494 878 1425 
Q 872 1356 872 1306 
Q 872 872 1139 634 
Q 1406 397 1894 397 
Q 2269 397 2603 481 
Q 2938 566 3225 728 
L 3116 159 
Q 2806 34 2476 -28 
Q 2147 -91 1806 -91 
Q 1078 -91 686 257 
Q 294 606 294 1247 
Q 294 1794 489 2264 
Q 684 2734 1063 3103 
Q 1306 3334 1642 3459 
Q 1978 3584 2356 3584 
Q 2950 3584 3301 3228 
Q 3653 2872 3653 2272 
Q 3653 2128 3634 1964 
Q 3616 1800 3578 1613 
z
" transform="scale(0.015625)"/>
       <path id="DejaVuSans-3d" d="M 678 2906 
L 4684 2906 
L 4684 2381 
L 678 2381 
L 678 2906 
z
M 678 1631 
L 4684 1631 
L 4684 1100 
L 678 1100 
L 678 1631 
z
" transform="scale(0.015625)"/>
      </defs>
      <use xlink:href="#DejaVuSans-4d" transform="translate(0 0.015625)"/>
      <use xlink:href="#DejaVuSans-66" transform="translate(86.279297 0.015625)"/>
      <use xlink:href="#DejaVuSans-20" transform="translate(121.484375 0.015625)"/>
      <use xlink:href="#DejaVuSans-62" transform="translate(153.271484 0.015625)"/>
      <use xlink:href="#DejaVuSans-65" transform="translate(216.748047 0.015625)"/>
      <use xlink:href="#DejaVuSans-66" transform="translate(278.271484 0.015625)"/>
      <use xlink:href="#DejaVuSans-6f" transform="translate(313.476562 0.015625)"/>
      <use xlink:href="#DejaVuSans-72" transform="translate(374.658203 0.015625)"/>
      <use xlink:href="#DejaVuSans-65" transform="translate(415.771484 0.015625)"/>
      <use xlink:href="#DejaVuSans-20" transform="translate(477.294922 0.015625)"/>
      <use xlink:href="#DejaVuSans-49" transform="translate(509.082031 0.015625)"/>
      <use xlink:href="#DejaVuSans-53" transform="translate(538.574219 0.015625)"/>
      <use xlink:href="#DejaVuSans-43" transform="translate(602.050781 0.015625)"/>
      <use xlink:href="#DejaVuSans-4f" transform="translate(671.875 0.015625)"/>
      <use xlink:href="#DejaVuSans-20" transform="translate(750.585938 0.015625)"/>
      <use xlink:href="#DejaVuSans-63" transform="translate(782.373047 0.015625)"/>
      <use xlink:href="#DejaVuSans-75" transform="translate(837.353516 0.015625)"/>
      <use xlink:href="#DejaVuSans-74" transform="translate(900.732422 0.015625)"/>
      <use xlink:href="#DejaVuSans-3a" transform="translate(939.941406 0.015625)"/>
      <use xlink:href="#DejaVuSans-20" transform="translate(973.632812 0.015625)"/>
      <use xlink:href="#DejaVuSans-Oblique-65" transform="translate(1005.419922 0.015625)"/>
      <use xlink:href="#DejaVuSans-3d" transform="translate(1066.943359 0.015625)"/>
      <use xlink:href="#DejaVuSans-30" transform="translate(1150.732422 0.015625)"/>
      <use xlink:href="#DejaVuSans-2e" transform="translate(1214.355469 0.015625)"/>
      <use xlink:href="#DejaVuSans-32" transform="translate(1240.642578 0.015625)"/>
     </g>
    </g>
    <g id="line2d_18">
     <path d="M 45.465625 34.976563 
L 55.465625 34.976563 
L 65.465625 34.976563 
" style="fill: none; stroke-dasharray: 2.22,0.96; stroke-dashoffset: 0; stroke: #ff0000; stroke-width: 0.6"/>
    </g>
    <g id="text_15">
     <!-- Mf ISCO $e$=0 -->
     <g transform="translate(73.465625 38.476563) scale(0.1 -0.1)">
      <use xlink:href="#DejaVuSans-4d" transform="translate(0 0.015625)"/>
      <use xlink:href="#DejaVuSans-66" transform="translate(86.279297 0.015625)"/>
      <use xlink:href="#DejaVuSans-20" transform="translate(121.484375 0.015625)"/>
      <use xlink:href="#DejaVuSans-49" transform="translate(153.271484 0.015625)"/>
      <use xlink:href="#DejaVuSans-53" transform="translate(182.763672 0.015625)"/>
      <use xlink:href="#DejaVuSans-43" transform="translate(246.240234 0.015625)"/>
      <use xlink:href="#DejaVuSans-4f" transform="translate(316.064453 0.015625)"/>
      <use xlink:href="#DejaVuSans-20" transform="translate(394.775391 0.015625)"/>
      <use xlink:href="#DejaVuSans-Oblique-65" transform="translate(426.5625 0.015625)"/>
      <use xlink:href="#DejaVuSans-3d" transform="translate(488.085938 0.015625)"/>
      <use xlink:href="#DejaVuSans-30" transform="translate(571.875 0.015625)"/>
     </g>
    </g>
    <g id="PathCollection_2">
     <g>
      <use xlink:href="#m25b096c0e4" x="55.465625" y="50.529688" style="fill: #ff0000; stroke: #ff0000"/>
     </g>
    </g>
    <g id="text_16">
     <!-- ISCO cut -->
     <g transform="translate(73.465625 53.154688) scale(0.1 -0.1)">
      <use xlink:href="#DejaVuSans-49"/>
      <use xlink:href="#DejaVuSans-53" transform="translate(29.492188 0)"/>
      <use xlink:href="#DejaVuSans-43" transform="translate(92.96875 0)"/>
      <use xlink:href="#DejaVuSans-4f" transform="translate(162.792969 0)"/>
      <use xlink:href="#DejaVuSans-20" transform="translate(241.503906 0)"/>
      <use xlink:href="#DejaVuSans-63" transform="translate(273.291016 0)"/>
      <use xlink:href="#DejaVuSans-75" transform="translate(328.271484 0)"/>
      <use xlink:href="#DejaVuSans-74" transform="translate(391.650391 0)"/>
     </g>
    </g>
    <g id="line2d_19">
     <path d="M 45.465625 64.332813 
L 55.465625 64.332813 
L 65.465625 64.332813 
" style="fill: none; stroke: #ff7f0e; stroke-width: 1.5; stroke-linecap: square"/>
    </g>
    <g id="text_17">
     <!-- Mf after ISCO cut: $e$=0.2  -->
     <g transform="translate(73.465625 67.832813) scale(0.1 -0.1)">
      <defs>
       <path id="DejaVuSans-61" d="M 2194 1759 
Q 1497 1759 1228 1600 
Q 959 1441 959 1056 
Q 959 750 1161 570 
Q 1363 391 1709 391 
Q 2188 391 2477 730 
Q 2766 1069 2766 1631 
L 2766 1759 
L 2194 1759 
z
M 3341 1997 
L 3341 0 
L 2766 0 
L 2766 531 
Q 2569 213 2275 61 
Q 1981 -91 1556 -91 
Q 1019 -91 701 211 
Q 384 513 384 1019 
Q 384 1609 779 1909 
Q 1175 2209 1959 2209 
L 2766 2209 
L 2766 2266 
Q 2766 2663 2505 2880 
Q 2244 3097 1772 3097 
Q 1472 3097 1187 3025 
Q 903 2953 641 2809 
L 641 3341 
Q 956 3463 1253 3523 
Q 1550 3584 1831 3584 
Q 2591 3584 2966 3190 
Q 3341 2797 3341 1997 
z
" transform="scale(0.015625)"/>
      </defs>
      <use xlink:href="#DejaVuSans-4d" transform="translate(0 0.015625)"/>
      <use xlink:href="#DejaVuSans-66" transform="translate(86.279297 0.015625)"/>
      <use xlink:href="#DejaVuSans-20" transform="translate(121.484375 0.015625)"/>
      <use xlink:href="#DejaVuSans-61" transform="translate(153.271484 0.015625)"/>
      <use xlink:href="#DejaVuSans-66" transform="translate(214.550781 0.015625)"/>
      <use xlink:href="#DejaVuSans-74" transform="translate(249.755859 0.015625)"/>
      <use xlink:href="#DejaVuSans-65" transform="translate(288.964844 0.015625)"/>
      <use xlink:href="#DejaVuSans-72" transform="translate(350.488281 0.015625)"/>
      <use xlink:href="#DejaVuSans-20" transform="translate(391.601562 0.015625)"/>
      <use xlink:href="#DejaVuSans-49" transform="translate(423.388672 0.015625)"/>
      <use xlink:href="#DejaVuSans-53" transform="translate(452.880859 0.015625)"/>
      <use xlink:href="#DejaVuSans-43" transform="translate(516.357422 0.015625)"/>
      <use xlink:href="#DejaVuSans-4f" transform="translate(586.181641 0.015625)"/>
      <use xlink:href="#DejaVuSans-20" transform="translate(664.892578 0.015625)"/>
      <use xlink:href="#DejaVuSans-63" transform="translate(696.679688 0.015625)"/>
      <use xlink:href="#DejaVuSans-75" transform="translate(751.660156 0.015625)"/>
      <use xlink:href="#DejaVuSans-74" transform="translate(815.039062 0.015625)"/>
      <use xlink:href="#DejaVuSans-3a" transform="translate(854.248047 0.015625)"/>
      <use xlink:href="#DejaVuSans-20" transform="translate(887.939453 0.015625)"/>
      <use xlink:href="#DejaVuSans-Oblique-65" transform="translate(919.726562 0.015625)"/>
      <use xlink:href="#DejaVuSans-3d" transform="translate(981.25 0.015625)"/>
      <use xlink:href="#DejaVuSans-30" transform="translate(1065.039062 0.015625)"/>
      <use xlink:href="#DejaVuSans-2e" transform="translate(1128.662109 0.015625)"/>
      <use xlink:href="#DejaVuSans-32" transform="translate(1154.949219 0.015625)"/>
      <use xlink:href="#DejaVuSans-20" transform="translate(1218.572266 0.015625)"/>
     </g>
    </g>
   </g>
  </g>
 </g>
 <defs>
  <clipPath id="p63701c9bc7">
   <rect x="36.465625" y="7.2" width="669.6" height="277.2"/>
  </clipPath>
 </defs>
</svg>
