<?xml version="1.0" encoding="utf-8" standalone="no"?>
<!DOCTYPE svg PUBLIC "-//W3C//DTD SVG 1.1//EN"
  "http://www.w3.org/Graphics/SVG/1.1/DTD/svg11.dtd">
<svg xmlns:xlink="http://www.w3.org/1999/xlink" width="713.265625pt" height="308.278125pt" viewBox="0 0 713.265625 308.278125" xmlns="http://www.w3.org/2000/svg" version="1.1">
 <metadata>
  <rdf:RDF xmlns:dc="http://purl.org/dc/elements/1.1/" xmlns:cc="http://creativecommons.org/ns#" xmlns:rdf="http://www.w3.org/1999/02/22-rdf-syntax-ns#">
   <cc:Work>
    <dc:type rdf:resource="http://purl.org/dc/dcmitype/StillImage"/>
    <dc:date>2025-08-07T13:31:41.355732</dc:date>
    <dc:format>image/svg+xml</dc:format>
    <dc:creator>
     <cc:Agent>
      <dc:title>Matplotlib v3.10.3, https://matplotlib.org/</dc:title>
     </cc:Agent>
    </dc:creator>
   </cc:Work>
  </rdf:RDF>
 </metadata>
 <defs>
  <style type="text/css">*{stroke-linejoin: round; stroke-linecap: butt}</style>
 </defs>
 <g id="figure_1">
  <g id="patch_1">
   <path d="M 0 308.278125 
L 713.265625 308.278125 
L 713.265625 0 
L 0 0 
z
" style="fill: #ffffff"/>
  </g>
  <g id="axes_1">
   <g id="patch_2">
    <path d="M 36.465625 284.4 
L 706.065625 284.4 
L 706.065625 7.2 
L 36.465625 7.2 
z
" style="fill: #ffffff"/>
   </g>
   <g id="PathCollection_1">
    <defs>
     <path id="m961e4a09bc" d="M 0 1.224745 
C 0.324806 1.224745 0.636353 1.095698 0.866025 0.866025 
C 1.095698 0.636353 1.224745 0.324806 1.224745 0 
C 1.224745 -0.324806 1.095698 -0.636353 0.866025 -0.866025 
C 0.636353 -1.095698 0.324806 -1.224745 0 -1.224745 
C -0.324806 -1.224745 -0.636353 -1.095698 -0.866025 -0.866025 
C -1.095698 -0.636353 -1.224745 -0.324806 -1.224745 0 
C -1.224745 0.324806 -1.095698 0.636353 -0.866025 0.866025 
C -0.636353 1.095698 -0.324806 1.224745 0 1.224745 
z
" style="stroke: #ff0000"/>
    </defs>
    <g clip-path="url(#pc494b4e088)">
     <use xlink:href="#m961e4a09bc" x="669.524032" y="178.261278" style="fill: #ff0000; stroke: #ff0000"/>
    </g>
   </g>
   <g id="matplotlib.axis_1">
    <g id="xtick_1">
     <g id="line2d_1">
      <defs>
       <path id="m12932fe933" d="M 0 0 
L 0 3.5 
" style="stroke: #000000; stroke-width: 0.8"/>
      </defs>
      <g>
       <use xlink:href="#m12932fe933" x="96.044213" y="284.4" style="stroke: #000000; stroke-width: 0.8"/>
      </g>
     </g>
     <g id="text_1">
      <!-- −8000 -->
      <g transform="translate(79.12937 298.998438) scale(0.1 -0.1)">
       <defs>
        <path id="DejaVuSans-2212" d="M 678 2272 
L 4684 2272 
L 4684 1741 
L 678 1741 
L 678 2272 
z
" transform="scale(0.015625)"/>
        <path id="DejaVuSans-38" d="M 2034 2216 
Q 1584 2216 1326 1975 
Q 1069 1734 1069 1313 
Q 1069 891 1326 650 
Q 1584 409 2034 409 
Q 2484 409 2743 651 
Q 3003 894 3003 1313 
Q 3003 1734 2745 1975 
Q 2488 2216 2034 2216 
z
M 1403 2484 
Q 997 2584 770 2862 
Q 544 3141 544 3541 
Q 544 4100 942 4425 
Q 1341 4750 2034 4750 
Q 2731 4750 3128 4425 
Q 3525 4100 3525 3541 
Q 3525 3141 3298 2862 
Q 3072 2584 2669 2484 
Q 3125 2378 3379 2068 
Q 3634 1759 3634 1313 
Q 3634 634 3220 271 
Q 2806 -91 2034 -91 
Q 1263 -91 848 271 
Q 434 634 434 1313 
Q 434 1759 690 2068 
Q 947 2378 1403 2484 
z
M 1172 3481 
Q 1172 3119 1398 2916 
Q 1625 2713 2034 2713 
Q 2441 2713 2670 2916 
Q 2900 3119 2900 3481 
Q 2900 3844 2670 4047 
Q 2441 4250 2034 4250 
Q 1625 4250 1398 4047 
Q 1172 3844 1172 3481 
z
" transform="scale(0.015625)"/>
        <path id="DejaVuSans-30" d="M 2034 4250 
Q 1547 4250 1301 3770 
Q 1056 3291 1056 2328 
Q 1056 1369 1301 889 
Q 1547 409 2034 409 
Q 2525 409 2770 889 
Q 3016 1369 3016 2328 
Q 3016 3291 2770 3770 
Q 2525 4250 2034 4250 
z
M 2034 4750 
Q 2819 4750 3233 4129 
Q 3647 3509 3647 2328 
Q 3647 1150 3233 529 
Q 2819 -91 2034 -91 
Q 1250 -91 836 529 
Q 422 1150 422 2328 
Q 422 3509 836 4129 
Q 1250 4750 2034 4750 
z
" transform="scale(0.015625)"/>
       </defs>
       <use xlink:href="#DejaVuSans-2212"/>
       <use xlink:href="#DejaVuSans-38" transform="translate(83.789062 0)"/>
       <use xlink:href="#DejaVuSans-30" transform="translate(147.412109 0)"/>
       <use xlink:href="#DejaVuSans-30" transform="translate(211.035156 0)"/>
       <use xlink:href="#DejaVuSans-30" transform="translate(274.658203 0)"/>
      </g>
     </g>
    </g>
    <g id="xtick_2">
     <g id="line2d_2">
      <g>
       <use xlink:href="#m12932fe933" x="240.940475" y="284.4" style="stroke: #000000; stroke-width: 0.8"/>
      </g>
     </g>
     <g id="text_2">
      <!-- −6000 -->
      <g transform="translate(224.025632 298.998438) scale(0.1 -0.1)">
       <defs>
        <path id="DejaVuSans-36" d="M 2113 2584 
Q 1688 2584 1439 2293 
Q 1191 2003 1191 1497 
Q 1191 994 1439 701 
Q 1688 409 2113 409 
Q 2538 409 2786 701 
Q 3034 994 3034 1497 
Q 3034 2003 2786 2293 
Q 2538 2584 2113 2584 
z
M 3366 4563 
L 3366 3988 
Q 3128 4100 2886 4159 
Q 2644 4219 2406 4219 
Q 1781 4219 1451 3797 
Q 1122 3375 1075 2522 
Q 1259 2794 1537 2939 
Q 1816 3084 2150 3084 
Q 2853 3084 3261 2657 
Q 3669 2231 3669 1497 
Q 3669 778 3244 343 
Q 2819 -91 2113 -91 
Q 1303 -91 875 529 
Q 447 1150 447 2328 
Q 447 3434 972 4092 
Q 1497 4750 2381 4750 
Q 2619 4750 2861 4703 
Q 3103 4656 3366 4563 
z
" transform="scale(0.015625)"/>
       </defs>
       <use xlink:href="#DejaVuSans-2212"/>
       <use xlink:href="#DejaVuSans-36" transform="translate(83.789062 0)"/>
       <use xlink:href="#DejaVuSans-30" transform="translate(147.412109 0)"/>
       <use xlink:href="#DejaVuSans-30" transform="translate(211.035156 0)"/>
       <use xlink:href="#DejaVuSans-30" transform="translate(274.658203 0)"/>
      </g>
     </g>
    </g>
    <g id="xtick_3">
     <g id="line2d_3">
      <g>
       <use xlink:href="#m12932fe933" x="385.836737" y="284.4" style="stroke: #000000; stroke-width: 0.8"/>
      </g>
     </g>
     <g id="text_3">
      <!-- −4000 -->
      <g transform="translate(368.921894 298.998438) scale(0.1 -0.1)">
       <defs>
        <path id="DejaVuSans-34" d="M 2419 4116 
L 825 1625 
L 2419 1625 
L 2419 4116 
z
M 2253 4666 
L 3047 4666 
L 3047 1625 
L 3713 1625 
L 3713 1100 
L 3047 1100 
L 3047 0 
L 2419 0 
L 2419 1100 
L 313 1100 
L 313 1709 
L 2253 4666 
z
" transform="scale(0.015625)"/>
       </defs>
       <use xlink:href="#DejaVuSans-2212"/>
       <use xlink:href="#DejaVuSans-34" transform="translate(83.789062 0)"/>
       <use xlink:href="#DejaVuSans-30" transform="translate(147.412109 0)"/>
       <use xlink:href="#DejaVuSans-30" transform="translate(211.035156 0)"/>
       <use xlink:href="#DejaVuSans-30" transform="translate(274.658203 0)"/>
      </g>
     </g>
    </g>
    <g id="xtick_4">
     <g id="line2d_4">
      <g>
       <use xlink:href="#m12932fe933" x="530.732999" y="284.4" style="stroke: #000000; stroke-width: 0.8"/>
      </g>
     </g>
     <g id="text_4">
      <!-- −2000 -->
      <g transform="translate(513.818156 298.998438) scale(0.1 -0.1)">
       <defs>
        <path id="DejaVuSans-32" d="M 1228 531 
L 3431 531 
L 3431 0 
L 469 0 
L 469 531 
Q 828 903 1448 1529 
Q 2069 2156 2228 2338 
Q 2531 2678 2651 2914 
Q 2772 3150 2772 3378 
Q 2772 3750 2511 3984 
Q 2250 4219 1831 4219 
Q 1534 4219 1204 4116 
Q 875 4013 500 3803 
L 500 4441 
Q 881 4594 1212 4672 
Q 1544 4750 1819 4750 
Q 2544 4750 2975 4387 
Q 3406 4025 3406 3419 
Q 3406 3131 3298 2873 
Q 3191 2616 2906 2266 
Q 2828 2175 2409 1742 
Q 1991 1309 1228 531 
z
" transform="scale(0.015625)"/>
       </defs>
       <use xlink:href="#DejaVuSans-2212"/>
       <use xlink:href="#DejaVuSans-32" transform="translate(83.789062 0)"/>
       <use xlink:href="#DejaVuSans-30" transform="translate(147.412109 0)"/>
       <use xlink:href="#DejaVuSans-30" transform="translate(211.035156 0)"/>
       <use xlink:href="#DejaVuSans-30" transform="translate(274.658203 0)"/>
      </g>
     </g>
    </g>
    <g id="xtick_5">
     <g id="line2d_5">
      <g>
       <use xlink:href="#m12932fe933" x="675.629261" y="284.4" style="stroke: #000000; stroke-width: 0.8"/>
      </g>
     </g>
     <g id="text_5">
      <!-- 0 -->
      <g transform="translate(672.448011 298.998438) scale(0.1 -0.1)">
       <use xlink:href="#DejaVuSans-30"/>
      </g>
     </g>
    </g>
   </g>
   <g id="matplotlib.axis_2">
    <g id="ytick_1">
     <g id="line2d_6">
      <defs>
       <path id="mc09273dba7" d="M 0 0 
L -3.5 0 
" style="stroke: #000000; stroke-width: 0.8"/>
      </defs>
      <g>
       <use xlink:href="#mc09273dba7" x="36.465625" y="279.057598" style="stroke: #000000; stroke-width: 0.8"/>
      </g>
     </g>
     <g id="text_6">
      <!-- 0.00 -->
      <g transform="translate(7.2 282.856816) scale(0.1 -0.1)">
       <defs>
        <path id="DejaVuSans-2e" d="M 684 794 
L 1344 794 
L 1344 0 
L 684 0 
L 684 794 
z
" transform="scale(0.015625)"/>
       </defs>
       <use xlink:href="#DejaVuSans-30"/>
       <use xlink:href="#DejaVuSans-2e" transform="translate(63.623047 0)"/>
       <use xlink:href="#DejaVuSans-30" transform="translate(95.410156 0)"/>
       <use xlink:href="#DejaVuSans-30" transform="translate(159.033203 0)"/>
      </g>
     </g>
    </g>
    <g id="ytick_2">
     <g id="line2d_7">
      <g>
       <use xlink:href="#mc09273dba7" x="36.465625" y="232.654243" style="stroke: #000000; stroke-width: 0.8"/>
      </g>
     </g>
     <g id="text_7">
      <!-- 0.01 -->
      <g transform="translate(7.2 236.453461) scale(0.1 -0.1)">
       <defs>
        <path id="DejaVuSans-31" d="M 794 531 
L 1825 531 
L 1825 4091 
L 703 3866 
L 703 4441 
L 1819 4666 
L 2450 4666 
L 2450 531 
L 3481 531 
L 3481 0 
L 794 0 
L 794 531 
z
" transform="scale(0.015625)"/>
       </defs>
       <use xlink:href="#DejaVuSans-30"/>
       <use xlink:href="#DejaVuSans-2e" transform="translate(63.623047 0)"/>
       <use xlink:href="#DejaVuSans-30" transform="translate(95.410156 0)"/>
       <use xlink:href="#DejaVuSans-31" transform="translate(159.033203 0)"/>
      </g>
     </g>
    </g>
    <g id="ytick_3">
     <g id="line2d_8">
      <g>
       <use xlink:href="#mc09273dba7" x="36.465625" y="186.250887" style="stroke: #000000; stroke-width: 0.8"/>
      </g>
     </g>
     <g id="text_8">
      <!-- 0.02 -->
      <g transform="translate(7.2 190.050106) scale(0.1 -0.1)">
       <use xlink:href="#DejaVuSans-30"/>
       <use xlink:href="#DejaVuSans-2e" transform="translate(63.623047 0)"/>
       <use xlink:href="#DejaVuSans-30" transform="translate(95.410156 0)"/>
       <use xlink:href="#DejaVuSans-32" transform="translate(159.033203 0)"/>
      </g>
     </g>
    </g>
    <g id="ytick_4">
     <g id="line2d_9">
      <g>
       <use xlink:href="#mc09273dba7" x="36.465625" y="139.847532" style="stroke: #000000; stroke-width: 0.8"/>
      </g>
     </g>
     <g id="text_9">
      <!-- 0.03 -->
      <g transform="translate(7.2 143.646751) scale(0.1 -0.1)">
       <defs>
        <path id="DejaVuSans-33" d="M 2597 2516 
Q 3050 2419 3304 2112 
Q 3559 1806 3559 1356 
Q 3559 666 3084 287 
Q 2609 -91 1734 -91 
Q 1441 -91 1130 -33 
Q 819 25 488 141 
L 488 750 
Q 750 597 1062 519 
Q 1375 441 1716 441 
Q 2309 441 2620 675 
Q 2931 909 2931 1356 
Q 2931 1769 2642 2001 
Q 2353 2234 1838 2234 
L 1294 2234 
L 1294 2753 
L 1863 2753 
Q 2328 2753 2575 2939 
Q 2822 3125 2822 3475 
Q 2822 3834 2567 4026 
Q 2313 4219 1838 4219 
Q 1578 4219 1281 4162 
Q 984 4106 628 3988 
L 628 4550 
Q 988 4650 1302 4700 
Q 1616 4750 1894 4750 
Q 2613 4750 3031 4423 
Q 3450 4097 3450 3541 
Q 3450 3153 3228 2886 
Q 3006 2619 2597 2516 
z
" transform="scale(0.015625)"/>
       </defs>
       <use xlink:href="#DejaVuSans-30"/>
       <use xlink:href="#DejaVuSans-2e" transform="translate(63.623047 0)"/>
       <use xlink:href="#DejaVuSans-30" transform="translate(95.410156 0)"/>
       <use xlink:href="#DejaVuSans-33" transform="translate(159.033203 0)"/>
      </g>
     </g>
    </g>
    <g id="ytick_5">
     <g id="line2d_10">
      <g>
       <use xlink:href="#mc09273dba7" x="36.465625" y="93.444177" style="stroke: #000000; stroke-width: 0.8"/>
      </g>
     </g>
     <g id="text_10">
      <!-- 0.04 -->
      <g transform="translate(7.2 97.243396) scale(0.1 -0.1)">
       <use xlink:href="#DejaVuSans-30"/>
       <use xlink:href="#DejaVuSans-2e" transform="translate(63.623047 0)"/>
       <use xlink:href="#DejaVuSans-30" transform="translate(95.410156 0)"/>
       <use xlink:href="#DejaVuSans-34" transform="translate(159.033203 0)"/>
      </g>
     </g>
    </g>
    <g id="ytick_6">
     <g id="line2d_11">
      <g>
       <use xlink:href="#mc09273dba7" x="36.465625" y="47.040822" style="stroke: #000000; stroke-width: 0.8"/>
      </g>
     </g>
     <g id="text_11">
      <!-- 0.05 -->
      <g transform="translate(7.2 50.840041) scale(0.1 -0.1)">
       <defs>
        <path id="DejaVuSans-35" d="M 691 4666 
L 3169 4666 
L 3169 4134 
L 1269 4134 
L 1269 2991 
Q 1406 3038 1543 3061 
Q 1681 3084 1819 3084 
Q 2600 3084 3056 2656 
Q 3513 2228 3513 1497 
Q 3513 744 3044 326 
Q 2575 -91 1722 -91 
Q 1428 -91 1123 -41 
Q 819 9 494 109 
L 494 744 
Q 775 591 1075 516 
Q 1375 441 1709 441 
Q 2250 441 2565 725 
Q 2881 1009 2881 1497 
Q 2881 1984 2565 2268 
Q 2250 2553 1709 2553 
Q 1456 2553 1204 2497 
Q 953 2441 691 2322 
L 691 4666 
z
" transform="scale(0.015625)"/>
       </defs>
       <use xlink:href="#DejaVuSans-30"/>
       <use xlink:href="#DejaVuSans-2e" transform="translate(63.623047 0)"/>
       <use xlink:href="#DejaVuSans-30" transform="translate(95.410156 0)"/>
       <use xlink:href="#DejaVuSans-35" transform="translate(159.033203 0)"/>
      </g>
     </g>
    </g>
   </g>
   <g id="line2d_12">
    <path d="M 66.901989 260.810377 
L 67.141409 260.529205 
L 67.859672 259.173807 
L 68.697644 257.06132 
L 69.894748 253.261809 
L 71.450983 248.316993 
L 72.169245 246.637479 
L 72.767797 245.728416 
L 73.246639 245.371664 
L 73.60577 245.331086 
L 73.964901 245.485232 
L 74.443742 245.983102 
L 75.042294 247.034126 
L 75.760557 248.8095 
L 76.95766 252.500063 
L 78.633606 257.577732 
L 79.591289 259.812972 
L 80.668682 261.750328 
L 84.738835 268.116542 
L 85.576808 268.996491 
L 86.29507 269.448253 
L 86.893622 269.577592 
L 87.492174 269.474571 
L 88.210436 269.085353 
L 89.886381 268.004002 
L 90.365223 267.976252 
L 90.844064 268.156944 
L 91.442616 268.64359 
L 92.75943 270.163608 
L 93.717113 271.072486 
L 94.435376 271.457877 
L 95.033927 271.56087 
L 95.75219 271.437985 
L 96.590162 271.034047 
L 98.266108 270.158439 
L 98.98437 270.099289 
L 99.702632 270.282445 
L 101.857419 271.027009 
L 102.575681 270.955865 
L 103.413654 270.627964 
L 105.20931 269.785834 
L 105.807862 269.770605 
L 106.406413 269.976349 
L 107.244386 270.559728 
L 108.680911 271.611856 
L 109.279462 271.791862 
L 109.878014 271.732384 
L 110.476566 271.420495 
L 111.194829 270.739407 
L 112.272222 269.300416 
L 113.349615 267.941621 
L 113.948167 267.531465 
L 114.427009 267.468502 
L 114.90585 267.637661 
L 115.624113 268.201292 
L 116.940927 269.301542 
L 117.539479 269.494143 
L 118.01832 269.440813 
L 118.616872 269.108995 
L 119.215424 268.506583 
L 120.053397 267.30079 
L 121.609631 264.519184 
L 123.046156 262.165471 
L 124.961522 259.189923 
L 125.799495 257.321999 
L 126.757178 254.559747 
L 129.390806 246.407822 
L 129.989358 245.290792 
L 130.468199 244.761106 
L 130.827331 244.594029 
L 131.186462 244.628743 
L 131.545593 244.862723 
L 132.024434 245.469401 
L 132.622986 246.649928 
L 133.460959 248.906881 
L 136.812849 258.739316 
L 138.009953 261.096374 
L 140.523871 265.36377 
L 141.720975 267.049353 
L 142.558948 267.879454 
L 143.27721 268.290337 
L 143.875762 268.404772 
L 144.594024 268.29505 
L 146.748811 267.700201 
L 147.347363 267.912739 
L 148.065625 268.449386 
L 150.340122 270.426901 
L 151.058384 270.681362 
L 151.776647 270.693587 
L 152.614619 270.462256 
L 154.529985 269.808701 
L 155.248248 269.832574 
L 156.205931 270.103128 
L 157.522745 270.467694 
L 158.360718 270.451635 
L 159.19869 270.209447 
L 161.233767 269.508813 
L 161.952029 269.588795 
L 162.790002 269.96235 
L 164.465947 270.809845 
L 165.064499 270.857343 
L 165.663051 270.689606 
L 166.261602 270.305001 
L 167.099575 269.4684 
L 168.895231 267.524442 
L 169.493783 267.232953 
L 170.092335 267.228189 
L 170.810597 267.521453 
L 172.247121 268.20855 
L 172.845673 268.210662 
L 173.444225 267.951799 
L 174.042777 267.430361 
L 174.761039 266.50356 
L 175.838433 264.702187 
L 178.711482 259.739785 
L 179.788875 257.663304 
L 180.626848 255.565011 
L 181.704241 252.221294 
L 183.619607 246.176069 
L 184.33787 244.65482 
L 184.816711 244.037154 
L 185.295553 243.776711 
L 185.654684 243.823431 
L 186.013815 244.074941 
L 186.492656 244.711787 
L 187.091208 245.935765 
L 187.929181 248.249039 
L 191.161361 257.874242 
L 192.358465 260.394445 
L 194.154121 263.633874 
L 195.470935 265.607748 
L 196.308907 266.519072 
L 197.02717 267.021297 
L 197.745432 267.257193 
L 198.583405 267.262354 
L 200.139639 267.184886 
L 200.857902 267.43678 
L 201.695874 268.014299 
L 203.61124 269.489214 
L 204.449213 269.794885 
L 205.167475 269.834401 
L 206.125158 269.653211 
L 207.681393 269.333889 
L 208.639076 269.417 
L 211.152994 269.844755 
L 212.110677 269.645925 
L 214.145754 269.095572 
L 214.864016 269.161421 
L 215.821699 269.489704 
L 217.018803 269.898148 
L 217.737065 269.908995 
L 218.335617 269.715533 
L 219.053879 269.241423 
L 220.131273 268.195796 
L 221.328376 267.101269 
L 222.046639 266.767154 
L 222.645191 266.723134 
L 223.602874 266.925206 
L 224.440846 267.053535 
L 225.039398 266.948616 
L 225.63795 266.614124 
L 226.356212 265.898194 
L 227.194185 264.694652 
L 228.630709 262.133534 
L 231.384048 256.84598 
L 232.341731 254.374829 
L 233.538835 250.568467 
L 235.09507 245.617324 
L 235.813332 243.980766 
L 236.411884 243.16042 
L 236.890726 242.914598 
L 237.249857 242.979053 
L 237.608988 243.253425 
L 238.087829 243.926591 
L 238.686381 245.19965 
L 239.524354 247.573068 
L 242.636824 256.995695 
L 243.953638 259.9026 
L 245.509873 262.785949 
L 246.587266 264.397236 
L 247.425239 265.324247 
L 248.263211 265.918483 
L 249.101184 266.211326 
L 251.495392 266.777962 
L 252.453075 267.40542 
L 254.24873 268.625739 
L 255.086703 268.902729 
L 255.924676 268.951912 
L 259.037146 268.851642 
L 261.072222 269.154326 
L 262.029905 269.032727 
L 264.543823 268.545591 
L 265.501506 268.698908 
L 267.057741 268.982404 
L 267.776003 268.869675 
L 268.494265 268.525368 
L 269.451948 267.767388 
L 271.127894 266.372538 
L 271.846156 266.064152 
L 272.684129 265.956001 
L 274.000943 265.825134 
L 274.719205 265.474116 
L 275.437467 264.815923 
L 276.27544 263.675292 
L 277.472544 261.570722 
L 279.747041 257.028163 
L 280.824434 254.406553 
L 281.901828 251.160145 
L 284.176325 243.997558 
L 284.774877 242.787867 
L 285.253718 242.202639 
L 285.612849 242.011204 
L 285.971981 242.038747 
L 286.331112 242.282894 
L 286.809953 242.927099 
L 287.408505 244.181451 
L 288.246478 246.554626 
L 291.478658 256.438883 
L 292.795472 259.413549 
L 294.112286 261.871894 
L 295.18968 263.438843 
L 296.027652 264.312751 
L 296.865625 264.886021 
L 297.943018 265.327319 
L 299.379543 265.933886 
L 300.696357 266.803576 
L 302.013171 267.619753 
L 302.970854 267.943255 
L 303.928537 268.02795 
L 306.562166 268.121769 
L 308.477532 268.35446 
L 309.554925 268.2308 
L 311.949133 267.846519 
L 314.822182 267.84718 
L 315.660154 267.428764 
L 316.737548 266.591532 
L 318.174072 265.500233 
L 319.131755 265.07983 
L 320.927411 264.427191 
L 321.645673 263.851982 
L 322.363936 262.991597 
L 323.321619 261.448238 
L 324.758143 258.619508 
L 326.314378 255.118302 
L 327.391771 252.166689 
L 328.828296 247.449773 
L 330.14511 243.350106 
L 330.863372 241.807856 
L 331.342214 241.204548 
L 331.701345 241.004843 
L 332.060476 241.029505 
L 332.419607 241.276274 
L 332.898449 241.931651 
L 333.497001 243.208854 
L 334.334973 245.619804 
L 337.567154 255.652482 
L 338.883968 258.695026 
L 340.081072 260.927751 
L 341.038755 262.305701 
L 341.996438 263.295403 
L 342.954121 263.96922 
L 346.306011 266.061173 
L 347.503115 266.70389 
L 348.460798 266.973497 
L 349.897323 267.102103 
L 351.812689 267.325307 
L 353.368923 267.447774 
L 354.566027 267.297685 
L 356.720814 266.985318 
L 358.875601 266.847406 
L 359.713574 266.51292 
L 360.671257 265.870717 
L 363.065464 264.127093 
L 365.100541 262.910506 
L 365.818803 262.160382 
L 366.656775 260.951386 
L 367.734169 258.947659 
L 369.170693 255.770647 
L 370.487508 252.33755 
L 371.684611 248.571361 
L 373.719688 242.046124 
L 374.43795 240.568987 
L 374.916792 240.028892 
L 375.275923 239.885511 
L 375.635054 239.972172 
L 375.994185 240.284227 
L 376.473026 241.026946 
L 377.071578 242.404278 
L 378.029261 245.313755 
L 380.66289 253.764173 
L 381.859993 256.778745 
L 383.057097 259.214506 
L 384.134491 260.894622 
L 385.092174 261.989354 
L 386.289277 262.985297 
L 389.521458 265.238487 
L 390.598851 265.708618 
L 391.795955 265.974888 
L 395.387266 266.413003 
L 396.70408 266.283456 
L 401.372785 265.363331 
L 402.330468 264.745836 
L 406.520331 261.416353 
L 407.358304 260.380391 
L 408.315987 258.780988 
L 409.513091 256.251183 
L 410.829905 252.948756 
L 412.146719 249.010994 
L 414.900058 240.239513 
L 415.49861 239.153813 
L 415.977451 238.713037 
L 416.336582 238.653643 
L 416.695713 238.82902 
L 417.174555 239.412527 
L 417.773107 240.639062 
L 418.61108 243.044457 
L 422.322101 254.703906 
L 423.519205 257.366642 
L 424.596598 259.222056 
L 425.673992 260.610254 
L 426.990806 261.889763 
L 428.906172 263.431681 
L 430.103276 264.153876 
L 431.30038 264.599651 
L 433.215746 265.001379 
L 434.891691 265.192361 
L 436.208505 265.097913 
L 439.320975 264.508859 
L 440.398368 264.113107 
L 441.356051 263.520199 
L 442.792576 262.32119 
L 445.186783 260.063004 
L 446.144467 258.781333 
L 447.10215 257.07569 
L 448.179543 254.672324 
L 449.496357 251.153951 
L 450.813171 246.983121 
L 453.207379 239.15548 
L 453.805931 237.9333 
L 454.284772 237.376781 
L 454.643903 237.233239 
L 455.003034 237.330948 
L 455.362166 237.66472 
L 455.841007 238.450144 
L 456.439559 239.894815 
L 457.397242 242.917927 
L 460.03087 251.631251 
L 461.227974 254.704215 
L 462.305368 256.893112 
L 463.382761 258.583012 
L 464.579865 260.027451 
L 466.016389 261.415394 
L 467.333203 262.400297 
L 468.530307 262.999513 
L 469.966832 263.435209 
L 471.642777 263.7197 
L 472.839881 263.716963 
L 474.396116 263.457344 
L 476.311482 262.936781 
L 477.388875 262.416366 
L 478.466269 261.620518 
L 480.022504 260.126696 
L 481.459028 258.490658 
L 482.416711 257.081904 
L 483.374394 255.261786 
L 484.451788 252.698974 
L 485.648891 249.284325 
L 487.085416 244.474864 
L 489.000782 238.020254 
L 489.719044 236.400324 
L 490.197886 235.781942 
L 490.557017 235.596222 
L 490.916148 235.657752 
L 491.275279 235.962879 
L 491.754121 236.723195 
L 492.352672 238.157516 
L 493.310355 241.20521 
L 496.063694 250.449878 
L 497.260798 253.511241 
L 498.338191 255.672949 
L 499.415585 257.363182 
L 500.612689 258.84501 
L 501.809792 260.01226 
L 503.006896 260.86779 
L 504.204 261.436939 
L 505.640524 261.855409 
L 506.837628 261.999321 
L 508.034732 261.917286 
L 509.471257 261.575859 
L 510.788071 261.064682 
L 511.865464 260.414043 
L 512.942858 259.488507 
L 514.259672 258.037989 
L 515.456775 256.427008 
L 516.534169 254.591283 
L 517.491852 252.524937 
L 518.569245 249.650127 
L 519.766349 245.79472 
L 522.878819 235.256498 
L 523.477371 234.14081 
L 523.956212 233.703816 
L 524.315343 233.665913 
L 524.674475 233.882566 
L 525.153316 234.549897 
L 525.751868 235.914096 
L 526.589841 238.535569 
L 529.70231 249.026007 
L 530.899414 252.087393 
L 531.976808 254.259501 
L 533.054201 255.960059 
L 534.251305 257.423958 
L 535.328698 258.404124 
L 536.406092 259.091579 
L 537.603195 259.574728 
L 538.680589 259.789094 
L 539.877693 259.788904 
L 541.074796 259.558031 
L 542.2719 259.104276 
L 543.349294 258.462408 
L 544.306977 257.644418 
L 545.38437 256.425737 
L 546.581474 254.716139 
L 547.658867 252.782921 
L 548.61655 250.628463 
L 549.693944 247.639556 
L 551.010758 243.243141 
L 553.883807 233.15492 
L 554.482359 231.912162 
L 554.9612 231.380865 
L 555.320331 231.281314 
L 555.679462 231.442896 
L 556.038594 231.857186 
L 556.517435 232.767947 
L 557.235697 234.753428 
L 558.432801 238.981007 
L 560.348167 245.679794 
L 561.545271 249.018991 
L 562.622664 251.402153 
L 563.700058 253.275755 
L 564.777451 254.712783 
L 565.854845 255.765598 
L 566.932238 256.485633 
L 568.009631 256.919779 
L 568.967314 257.077235 
L 569.924997 257.017758 
L 570.882681 256.751149 
L 571.960074 256.210315 
L 572.917757 255.484888 
L 573.87544 254.482325 
L 574.952833 252.995645 
L 576.030227 251.103337 
L 577.10762 248.717151 
L 578.185014 245.72767 
L 579.382117 241.687596 
L 582.734008 229.679207 
L 583.33256 228.615054 
L 583.691691 228.311508 
L 584.050822 228.276694 
L 584.409953 228.510631 
L 584.888795 229.217796 
L 585.487347 230.64985 
L 586.325319 233.376615 
L 589.557499 244.669938 
L 590.634893 247.404786 
L 591.712286 249.540741 
L 592.669969 250.988941 
L 593.627652 252.06042 
L 594.585335 252.799176 
L 595.543018 253.236879 
L 596.380991 253.382892 
L 597.218964 253.310443 
L 598.056936 253.023989 
L 598.894909 252.523005 
L 599.852592 251.665499 
L 600.810275 250.463129 
L 601.767958 248.880792 
L 602.725641 246.88481 
L 603.803034 244.073246 
L 604.880428 240.594519 
L 606.197242 235.527958 
L 608.352029 227.093244 
L 609.070291 225.201996 
L 609.549133 224.45853 
L 609.908264 224.215168 
L 610.267395 224.252407 
L 610.626526 224.565689 
L 611.105368 225.379363 
L 611.703919 226.931712 
L 612.661602 230.231578 
L 615.17552 239.343882 
L 616.252914 242.353284 
L 617.210597 244.45403 
L 618.16828 246.044291 
L 619.006253 247.040847 
L 619.844225 247.687012 
L 620.562487 247.992758 
L 621.28075 248.075362 
L 621.999012 247.937629 
L 622.717274 247.58044 
L 623.555247 246.880611 
L 624.39322 245.856437 
L 625.231192 244.482651 
L 626.188875 242.447566 
L 627.146558 239.868822 
L 628.223952 236.271129 
L 629.421055 231.461356 
L 631.934973 220.966885 
L 632.533525 219.311033 
L 633.012367 218.485561 
L 633.371498 218.196627 
L 633.730629 218.200752 
L 634.08976 218.492217 
L 634.568602 219.293719 
L 635.167154 220.849879 
L 636.124837 224.165155 
L 638.399334 232.363417 
L 639.476727 235.324701 
L 640.43441 237.278277 
L 641.272383 238.449379 
L 641.990645 239.081962 
L 642.589197 239.356518 
L 643.187749 239.405332 
L 643.786301 239.229682 
L 644.384853 238.828158 
L 645.103115 238.022688 
L 645.821377 236.872386 
L 646.65935 235.072864 
L 647.497323 232.753636 
L 648.455006 229.421828 
L 649.532399 224.836071 
L 651.447765 215.405844 
L 652.525158 210.668901 
L 653.243421 208.46197 
L 653.722262 207.586725 
L 654.081393 207.266322 
L 654.440524 207.24019 
L 654.799656 207.494854 
L 655.278497 208.223573 
L 655.877049 209.630819 
L 656.954442 212.928779 
L 658.390967 217.149607 
L 659.22894 219.074604 
L 659.827491 220.007185 
L 660.426043 220.539698 
L 660.904885 220.695214 
L 661.383726 220.616 
L 661.862568 220.293442 
L 662.46112 219.543042 
L 662.939961 218.500291 
L 663.777934 216.178655 
L 664.256775 214.466464 
L 665.453879 208.569382 
L 666.531273 201.608679 
L 667.728376 192.462512 
L 670.481715 171.065284 
L 672.277371 157.786539 
L 673.115343 149.121201 
L 673.594185 141.49442 
L 673.953316 131.927319 
L 674.432158 111.064747 
L 675.030709 71.074878 
L 675.629261 19.8 
L 675.629261 19.8 
" clip-path="url(#pc494b4e088)" style="fill: none; stroke: #1f77b4; stroke-width: 1.5; stroke-linecap: square"/>
   </g>
   <g id="line2d_13">
    <path d="M 36.465625 178.556077 
L 706.065625 178.556077 
" clip-path="url(#pc494b4e088)" style="fill: none; stroke-dasharray: 2.22,0.96; stroke-dashoffset: 0; stroke: #ff0000; stroke-width: 0.6"/>
   </g>
   <g id="line2d_14">
    <path d="M 66.901989 260.810377 
L 67.141409 260.529205 
L 67.859672 259.173807 
L 68.697644 257.06132 
L 69.894748 253.261809 
L 71.450983 248.316993 
L 72.169245 246.637479 
L 72.767797 245.728416 
L 73.246639 245.371664 
L 73.60577 245.331086 
L 73.964901 245.485232 
L 74.443742 245.983102 
L 75.042294 247.034126 
L 75.760557 248.8095 
L 76.95766 252.500063 
L 78.633606 257.577732 
L 79.591289 259.812972 
L 80.668682 261.750328 
L 84.738835 268.116542 
L 85.576808 268.996491 
L 86.29507 269.448253 
L 86.893622 269.577592 
L 87.492174 269.474571 
L 88.210436 269.085353 
L 89.886381 268.004002 
L 90.365223 267.976252 
L 90.844064 268.156944 
L 91.442616 268.64359 
L 92.75943 270.163608 
L 93.717113 271.072486 
L 94.435376 271.457877 
L 95.033927 271.56087 
L 95.75219 271.437985 
L 96.590162 271.034047 
L 98.266108 270.158439 
L 98.98437 270.099289 
L 99.702632 270.282445 
L 101.857419 271.027009 
L 102.575681 270.955865 
L 103.413654 270.627964 
L 105.20931 269.785834 
L 105.807862 269.770605 
L 106.406413 269.976349 
L 107.244386 270.559728 
L 108.680911 271.611856 
L 109.279462 271.791862 
L 109.878014 271.732384 
L 110.476566 271.420495 
L 111.194829 270.739407 
L 112.272222 269.300416 
L 113.349615 267.941621 
L 113.948167 267.531465 
L 114.427009 267.468502 
L 114.90585 267.637661 
L 115.624113 268.201292 
L 116.940927 269.301542 
L 117.539479 269.494143 
L 118.01832 269.440813 
L 118.616872 269.108995 
L 119.215424 268.506583 
L 120.053397 267.30079 
L 121.609631 264.519184 
L 123.046156 262.165471 
L 124.961522 259.189923 
L 125.799495 257.321999 
L 126.757178 254.559747 
L 129.390806 246.407822 
L 129.989358 245.290792 
L 130.468199 244.761106 
L 130.827331 244.594029 
L 131.186462 244.628743 
L 131.545593 244.862723 
L 132.024434 245.469401 
L 132.622986 246.649928 
L 133.460959 248.906881 
L 136.812849 258.739316 
L 138.009953 261.096374 
L 140.523871 265.36377 
L 141.720975 267.049353 
L 142.558948 267.879454 
L 143.27721 268.290337 
L 143.875762 268.404772 
L 144.594024 268.29505 
L 146.748811 267.700201 
L 147.347363 267.912739 
L 148.065625 268.449386 
L 150.340122 270.426901 
L 151.058384 270.681362 
L 151.776647 270.693587 
L 152.614619 270.462256 
L 154.529985 269.808701 
L 155.248248 269.832574 
L 156.205931 270.103128 
L 157.522745 270.467694 
L 158.360718 270.451635 
L 159.19869 270.209447 
L 161.233767 269.508813 
L 161.952029 269.588795 
L 162.790002 269.96235 
L 164.465947 270.809845 
L 165.064499 270.857343 
L 165.663051 270.689606 
L 166.261602 270.305001 
L 167.099575 269.4684 
L 168.895231 267.524442 
L 169.493783 267.232953 
L 170.092335 267.228189 
L 170.810597 267.521453 
L 172.247121 268.20855 
L 172.845673 268.210662 
L 173.444225 267.951799 
L 174.042777 267.430361 
L 174.761039 266.50356 
L 175.838433 264.702187 
L 178.711482 259.739785 
L 179.788875 257.663304 
L 180.626848 255.565011 
L 181.704241 252.221294 
L 183.619607 246.176069 
L 184.33787 244.65482 
L 184.816711 244.037154 
L 185.295553 243.776711 
L 185.654684 243.823431 
L 186.013815 244.074941 
L 186.492656 244.711787 
L 187.091208 245.935765 
L 187.929181 248.249039 
L 191.161361 257.874242 
L 192.358465 260.394445 
L 194.154121 263.633874 
L 195.470935 265.607748 
L 196.308907 266.519072 
L 197.02717 267.021297 
L 197.745432 267.257193 
L 198.583405 267.262354 
L 200.139639 267.184886 
L 200.857902 267.43678 
L 201.695874 268.014299 
L 203.61124 269.489214 
L 204.449213 269.794885 
L 205.167475 269.834401 
L 206.125158 269.653211 
L 207.681393 269.333889 
L 208.639076 269.417 
L 211.152994 269.844755 
L 212.110677 269.645925 
L 214.145754 269.095572 
L 214.864016 269.161421 
L 215.821699 269.489704 
L 217.018803 269.898148 
L 217.737065 269.908995 
L 218.335617 269.715533 
L 219.053879 269.241423 
L 220.131273 268.195796 
L 221.328376 267.101269 
L 222.046639 266.767154 
L 222.645191 266.723134 
L 223.602874 266.925206 
L 224.440846 267.053535 
L 225.039398 266.948616 
L 225.63795 266.614124 
L 226.356212 265.898194 
L 227.194185 264.694652 
L 228.630709 262.133534 
L 231.384048 256.84598 
L 232.341731 254.374829 
L 233.538835 250.568467 
L 235.09507 245.617324 
L 235.813332 243.980766 
L 236.411884 243.16042 
L 236.890726 242.914598 
L 237.249857 242.979053 
L 237.608988 243.253425 
L 238.087829 243.926591 
L 238.686381 245.19965 
L 239.524354 247.573068 
L 242.636824 256.995695 
L 243.953638 259.9026 
L 245.509873 262.785949 
L 246.587266 264.397236 
L 247.425239 265.324247 
L 248.263211 265.918483 
L 249.101184 266.211326 
L 251.495392 266.777962 
L 252.453075 267.40542 
L 254.24873 268.625739 
L 255.086703 268.902729 
L 255.924676 268.951912 
L 259.037146 268.851642 
L 261.072222 269.154326 
L 262.029905 269.032727 
L 264.543823 268.545591 
L 265.501506 268.698908 
L 267.057741 268.982404 
L 267.776003 268.869675 
L 268.494265 268.525368 
L 269.451948 267.767388 
L 271.127894 266.372538 
L 271.846156 266.064152 
L 272.684129 265.956001 
L 274.000943 265.825134 
L 274.719205 265.474116 
L 275.437467 264.815923 
L 276.27544 263.675292 
L 277.472544 261.570722 
L 279.747041 257.028163 
L 280.824434 254.406553 
L 281.901828 251.160145 
L 284.176325 243.997558 
L 284.774877 242.787867 
L 285.253718 242.202639 
L 285.612849 242.011204 
L 285.971981 242.038747 
L 286.331112 242.282894 
L 286.809953 242.927099 
L 287.408505 244.181451 
L 288.246478 246.554626 
L 291.478658 256.438883 
L 292.795472 259.413549 
L 294.112286 261.871894 
L 295.18968 263.438843 
L 296.027652 264.312751 
L 296.865625 264.886021 
L 297.943018 265.327319 
L 299.379543 265.933886 
L 300.696357 266.803576 
L 302.013171 267.619753 
L 302.970854 267.943255 
L 303.928537 268.02795 
L 306.562166 268.121769 
L 308.477532 268.35446 
L 309.554925 268.2308 
L 311.949133 267.846519 
L 314.822182 267.84718 
L 315.660154 267.428764 
L 316.737548 266.591532 
L 318.174072 265.500233 
L 319.131755 265.07983 
L 320.927411 264.427191 
L 321.645673 263.851982 
L 322.363936 262.991597 
L 323.321619 261.448238 
L 324.758143 258.619508 
L 326.314378 255.118302 
L 327.391771 252.166689 
L 328.828296 247.449773 
L 330.14511 243.350106 
L 330.863372 241.807856 
L 331.342214 241.204548 
L 331.701345 241.004843 
L 332.060476 241.029505 
L 332.419607 241.276274 
L 332.898449 241.931651 
L 333.497001 243.208854 
L 334.334973 245.619804 
L 337.567154 255.652482 
L 338.883968 258.695026 
L 340.081072 260.927751 
L 341.038755 262.305701 
L 341.996438 263.295403 
L 342.954121 263.96922 
L 346.306011 266.061173 
L 347.503115 266.70389 
L 348.460798 266.973497 
L 349.897323 267.102103 
L 351.812689 267.325307 
L 353.368923 267.447774 
L 354.566027 267.297685 
L 356.720814 266.985318 
L 358.875601 266.847406 
L 359.713574 266.51292 
L 360.671257 265.870717 
L 363.065464 264.127093 
L 365.100541 262.910506 
L 365.818803 262.160382 
L 366.656775 260.951386 
L 367.734169 258.947659 
L 369.170693 255.770647 
L 370.487508 252.33755 
L 371.684611 248.571361 
L 373.719688 242.046124 
L 374.43795 240.568987 
L 374.916792 240.028892 
L 375.275923 239.885511 
L 375.635054 239.972172 
L 375.994185 240.284227 
L 376.473026 241.026946 
L 377.071578 242.404278 
L 378.029261 245.313755 
L 380.66289 253.764173 
L 381.859993 256.778745 
L 383.057097 259.214506 
L 384.134491 260.894622 
L 385.092174 261.989354 
L 386.289277 262.985297 
L 389.521458 265.238487 
L 390.598851 265.708618 
L 391.795955 265.974888 
L 395.387266 266.413003 
L 396.70408 266.283456 
L 401.372785 265.363331 
L 402.330468 264.745836 
L 406.520331 261.416353 
L 407.358304 260.380391 
L 408.315987 258.780988 
L 409.513091 256.251183 
L 410.829905 252.948756 
L 412.146719 249.010994 
L 414.900058 240.239513 
L 415.49861 239.153813 
L 415.977451 238.713037 
L 416.336582 238.653643 
L 416.695713 238.82902 
L 417.174555 239.412527 
L 417.773107 240.639062 
L 418.61108 243.044457 
L 422.322101 254.703906 
L 423.519205 257.366642 
L 424.596598 259.222056 
L 425.673992 260.610254 
L 426.990806 261.889763 
L 428.906172 263.431681 
L 430.103276 264.153876 
L 431.30038 264.599651 
L 433.215746 265.001379 
L 434.891691 265.192361 
L 436.208505 265.097913 
L 439.320975 264.508859 
L 440.398368 264.113107 
L 441.356051 263.520199 
L 442.792576 262.32119 
L 445.186783 260.063004 
L 446.144467 258.781333 
L 447.10215 257.07569 
L 448.179543 254.672324 
L 449.496357 251.153951 
L 450.813171 246.983121 
L 453.207379 239.15548 
L 453.805931 237.9333 
L 454.284772 237.376781 
L 454.643903 237.233239 
L 455.003034 237.330948 
L 455.362166 237.66472 
L 455.841007 238.450144 
L 456.439559 239.894815 
L 457.397242 242.917927 
L 460.03087 251.631251 
L 461.227974 254.704215 
L 462.305368 256.893112 
L 463.382761 258.583012 
L 464.579865 260.027451 
L 466.016389 261.415394 
L 467.333203 262.400297 
L 468.530307 262.999513 
L 469.966832 263.435209 
L 471.642777 263.7197 
L 472.839881 263.716963 
L 474.396116 263.457344 
L 476.311482 262.936781 
L 477.388875 262.416366 
L 478.466269 261.620518 
L 480.022504 260.126696 
L 481.459028 258.490658 
L 482.416711 257.081904 
L 483.374394 255.261786 
L 484.451788 252.698974 
L 485.648891 249.284325 
L 487.085416 244.474864 
L 489.000782 238.020254 
L 489.719044 236.400324 
L 490.197886 235.781942 
L 490.557017 235.596222 
L 490.916148 235.657752 
L 491.275279 235.962879 
L 491.754121 236.723195 
L 492.352672 238.157516 
L 493.310355 241.20521 
L 496.063694 250.449878 
L 497.260798 253.511241 
L 498.338191 255.672949 
L 499.415585 257.363182 
L 500.612689 258.84501 
L 501.809792 260.01226 
L 503.006896 260.86779 
L 504.204 261.436939 
L 505.640524 261.855409 
L 506.837628 261.999321 
L 508.034732 261.917286 
L 509.471257 261.575859 
L 510.788071 261.064682 
L 511.865464 260.414043 
L 512.942858 259.488507 
L 514.259672 258.037989 
L 515.456775 256.427008 
L 516.534169 254.591283 
L 517.491852 252.524937 
L 518.569245 249.650127 
L 519.766349 245.79472 
L 522.878819 235.256498 
L 523.477371 234.14081 
L 523.956212 233.703816 
L 524.315343 233.665913 
L 524.674475 233.882566 
L 525.153316 234.549897 
L 525.751868 235.914096 
L 526.589841 238.535569 
L 529.70231 249.026007 
L 530.899414 252.087393 
L 531.976808 254.259501 
L 533.054201 255.960059 
L 534.251305 257.423958 
L 535.328698 258.404124 
L 536.406092 259.091579 
L 537.603195 259.574728 
L 538.680589 259.789094 
L 539.877693 259.788904 
L 541.074796 259.558031 
L 542.2719 259.104276 
L 543.349294 258.462408 
L 544.306977 257.644418 
L 545.38437 256.425737 
L 546.581474 254.716139 
L 547.658867 252.782921 
L 548.61655 250.628463 
L 549.693944 247.639556 
L 551.010758 243.243141 
L 553.883807 233.15492 
L 554.482359 231.912162 
L 554.9612 231.380865 
L 555.320331 231.281314 
L 555.679462 231.442896 
L 556.038594 231.857186 
L 556.517435 232.767947 
L 557.235697 234.753428 
L 558.432801 238.981007 
L 560.348167 245.679794 
L 561.545271 249.018991 
L 562.622664 251.402153 
L 563.700058 253.275755 
L 564.777451 254.712783 
L 565.854845 255.765598 
L 566.932238 256.485633 
L 568.009631 256.919779 
L 568.967314 257.077235 
L 569.924997 257.017758 
L 570.882681 256.751149 
L 571.960074 256.210315 
L 572.917757 255.484888 
L 573.87544 254.482325 
L 574.952833 252.995645 
L 576.030227 251.103337 
L 577.10762 248.717151 
L 578.185014 245.72767 
L 579.382117 241.687596 
L 582.734008 229.679207 
L 583.33256 228.615054 
L 583.691691 228.311508 
L 584.050822 228.276694 
L 584.409953 228.510631 
L 584.888795 229.217796 
L 585.487347 230.64985 
L 586.325319 233.376615 
L 589.557499 244.669938 
L 590.634893 247.404786 
L 591.712286 249.540741 
L 592.669969 250.988941 
L 593.627652 252.06042 
L 594.585335 252.799176 
L 595.543018 253.236879 
L 596.380991 253.382892 
L 597.218964 253.310443 
L 598.056936 253.023989 
L 598.894909 252.523005 
L 599.852592 251.665499 
L 600.810275 250.463129 
L 601.767958 248.880792 
L 602.725641 246.88481 
L 603.803034 244.073246 
L 604.880428 240.594519 
L 606.197242 235.527958 
L 608.352029 227.093244 
L 609.070291 225.201996 
L 609.549133 224.45853 
L 609.908264 224.215168 
L 610.267395 224.252407 
L 610.626526 224.565689 
L 611.105368 225.379363 
L 611.703919 226.931712 
L 612.661602 230.231578 
L 615.17552 239.343882 
L 616.252914 242.353284 
L 617.210597 244.45403 
L 618.16828 246.044291 
L 619.006253 247.040847 
L 619.844225 247.687012 
L 620.562487 247.992758 
L 621.28075 248.075362 
L 621.999012 247.937629 
L 622.717274 247.58044 
L 623.555247 246.880611 
L 624.39322 245.856437 
L 625.231192 244.482651 
L 626.188875 242.447566 
L 627.146558 239.868822 
L 628.223952 236.271129 
L 629.421055 231.461356 
L 631.934973 220.966885 
L 632.533525 219.311033 
L 633.012367 218.485561 
L 633.371498 218.196627 
L 633.730629 218.200752 
L 634.08976 218.492217 
L 634.568602 219.293719 
L 635.167154 220.849879 
L 636.124837 224.165155 
L 638.399334 232.363417 
L 639.476727 235.324701 
L 640.43441 237.278277 
L 641.272383 238.449379 
L 641.990645 239.081962 
L 642.589197 239.356518 
L 643.187749 239.405332 
L 643.786301 239.229682 
L 644.384853 238.828158 
L 645.103115 238.022688 
L 645.821377 236.872386 
L 646.65935 235.072864 
L 647.497323 232.753636 
L 648.455006 229.421828 
L 649.532399 224.836071 
L 651.447765 215.405844 
L 652.525158 210.668901 
L 653.243421 208.46197 
L 653.722262 207.586725 
L 654.081393 207.266322 
L 654.440524 207.24019 
L 654.799656 207.494854 
L 655.278497 208.223573 
L 655.877049 209.630819 
L 656.954442 212.928779 
L 658.390967 217.149607 
L 659.22894 219.074604 
L 659.827491 220.007185 
L 660.426043 220.539698 
L 660.904885 220.695214 
L 661.383726 220.616 
L 661.862568 220.293442 
L 662.46112 219.543042 
L 662.939961 218.500291 
L 663.777934 216.178655 
L 664.256775 214.466464 
L 665.453879 208.569382 
L 666.531273 201.608679 
L 667.728376 192.462512 
L 669.404322 179.125391 
L 669.404322 179.125391 
" clip-path="url(#pc494b4e088)" style="fill: none; stroke: #ff7f0e; stroke-width: 1.5; stroke-linecap: square"/>
   </g>
   <g id="patch_3">
    <path d="M 36.465625 284.4 
L 36.465625 7.2 
" style="fill: none; stroke: #000000; stroke-width: 0.8; stroke-linejoin: miter; stroke-linecap: square"/>
   </g>
   <g id="patch_4">
    <path d="M 706.065625 284.4 
L 706.065625 7.2 
" style="fill: none; stroke: #000000; stroke-width: 0.8; stroke-linejoin: miter; stroke-linecap: square"/>
   </g>
   <g id="patch_5">
    <path d="M 36.465625 284.4 
L 706.065625 284.4 
" style="fill: none; stroke: #000000; stroke-width: 0.8; stroke-linejoin: miter; stroke-linecap: square"/>
   </g>
   <g id="patch_6">
    <path d="M 36.465625 7.2 
L 706.065625 7.2 
" style="fill: none; stroke: #000000; stroke-width: 0.8; stroke-linejoin: miter; stroke-linecap: square"/>
   </g>
   <g id="legend_1">
    <g id="patch_7">
     <path d="M 43.465625 73.9125 
L 206.465625 73.9125 
Q 208.465625 73.9125 208.465625 71.9125 
L 208.465625 14.2 
Q 208.465625 12.2 206.465625 12.2 
L 43.465625 12.2 
Q 41.465625 12.2 41.465625 14.2 
L 41.465625 71.9125 
Q 41.465625 73.9125 43.465625 73.9125 
z
" style="fill: #ffffff; opacity: 0.8; stroke: #cccccc; stroke-linejoin: miter"/>
    </g>
    <g id="line2d_15">
     <path d="M 45.465625 20.298438 
L 55.465625 20.298438 
L 65.465625 20.298438 
" style="fill: none; stroke: #1f77b4; stroke-width: 1.5; stroke-linecap: square"/>
    </g>
    <g id="text_12">
     <!-- Mf before ISCO cut: $e$=0.3 -->
     <g transform="translate(73.465625 23.798438) scale(0.1 -0.1)">
      <defs>
       <path id="DejaVuSans-4d" d="M 628 4666 
L 1569 4666 
L 2759 1491 
L 3956 4666 
L 4897 4666 
L 4897 0 
L 4281 0 
L 4281 4097 
L 3078 897 
L 2444 897 
L 1241 4097 
L 1241 0 
L 628 0 
L 628 4666 
z
" transform="scale(0.015625)"/>
       <path id="DejaVuSans-66" d="M 2375 4863 
L 2375 4384 
L 1825 4384 
Q 1516 4384 1395 4259 
Q 1275 4134 1275 3809 
L 1275 3500 
L 2222 3500 
L 2222 3053 
L 1275 3053 
L 1275 0 
L 697 0 
L 697 3053 
L 147 3053 
L 147 3500 
L 697 3500 
L 697 3744 
Q 697 4328 969 4595 
Q 1241 4863 1831 4863 
L 2375 4863 
z
" transform="scale(0.015625)"/>
       <path id="DejaVuSans-20" transform="scale(0.015625)"/>
       <path id="DejaVuSans-62" d="M 3116 1747 
Q 3116 2381 2855 2742 
Q 2594 3103 2138 3103 
Q 1681 3103 1420 2742 
Q 1159 2381 1159 1747 
Q 1159 1113 1420 752 
Q 1681 391 2138 391 
Q 2594 391 2855 752 
Q 3116 1113 3116 1747 
z
M 1159 2969 
Q 1341 3281 1617 3432 
Q 1894 3584 2278 3584 
Q 2916 3584 3314 3078 
Q 3713 2572 3713 1747 
Q 3713 922 3314 415 
Q 2916 -91 2278 -91 
Q 1894 -91 1617 61 
Q 1341 213 1159 525 
L 1159 0 
L 581 0 
L 581 4863 
L 1159 4863 
L 1159 2969 
z
" transform="scale(0.015625)"/>
       <path id="DejaVuSans-65" d="M 3597 1894 
L 3597 1613 
L 953 1613 
Q 991 1019 1311 708 
Q 1631 397 2203 397 
Q 2534 397 2845 478 
Q 3156 559 3463 722 
L 3463 178 
Q 3153 47 2828 -22 
Q 2503 -91 2169 -91 
Q 1331 -91 842 396 
Q 353 884 353 1716 
Q 353 2575 817 3079 
Q 1281 3584 2069 3584 
Q 2775 3584 3186 3129 
Q 3597 2675 3597 1894 
z
M 3022 2063 
Q 3016 2534 2758 2815 
Q 2500 3097 2075 3097 
Q 1594 3097 1305 2825 
Q 1016 2553 972 2059 
L 3022 2063 
z
" transform="scale(0.015625)"/>
       <path id="DejaVuSans-6f" d="M 1959 3097 
Q 1497 3097 1228 2736 
Q 959 2375 959 1747 
Q 959 1119 1226 758 
Q 1494 397 1959 397 
Q 2419 397 2687 759 
Q 2956 1122 2956 1747 
Q 2956 2369 2687 2733 
Q 2419 3097 1959 3097 
z
M 1959 3584 
Q 2709 3584 3137 3096 
Q 3566 2609 3566 1747 
Q 3566 888 3137 398 
Q 2709 -91 1959 -91 
Q 1206 -91 779 398 
Q 353 888 353 1747 
Q 353 2609 779 3096 
Q 1206 3584 1959 3584 
z
" transform="scale(0.015625)"/>
       <path id="DejaVuSans-72" d="M 2631 2963 
Q 2534 3019 2420 3045 
Q 2306 3072 2169 3072 
Q 1681 3072 1420 2755 
Q 1159 2438 1159 1844 
L 1159 0 
L 581 0 
L 581 3500 
L 1159 3500 
L 1159 2956 
Q 1341 3275 1631 3429 
Q 1922 3584 2338 3584 
Q 2397 3584 2469 3576 
Q 2541 3569 2628 3553 
L 2631 2963 
z
" transform="scale(0.015625)"/>
       <path id="DejaVuSans-49" d="M 628 4666 
L 1259 4666 
L 1259 0 
L 628 0 
L 628 4666 
z
" transform="scale(0.015625)"/>
       <path id="DejaVuSans-53" d="M 3425 4513 
L 3425 3897 
Q 3066 4069 2747 4153 
Q 2428 4238 2131 4238 
Q 1616 4238 1336 4038 
Q 1056 3838 1056 3469 
Q 1056 3159 1242 3001 
Q 1428 2844 1947 2747 
L 2328 2669 
Q 3034 2534 3370 2195 
Q 3706 1856 3706 1288 
Q 3706 609 3251 259 
Q 2797 -91 1919 -91 
Q 1588 -91 1214 -16 
Q 841 59 441 206 
L 441 856 
Q 825 641 1194 531 
Q 1563 422 1919 422 
Q 2459 422 2753 634 
Q 3047 847 3047 1241 
Q 3047 1584 2836 1778 
Q 2625 1972 2144 2069 
L 1759 2144 
Q 1053 2284 737 2584 
Q 422 2884 422 3419 
Q 422 4038 858 4394 
Q 1294 4750 2059 4750 
Q 2388 4750 2728 4690 
Q 3069 4631 3425 4513 
z
" transform="scale(0.015625)"/>
       <path id="DejaVuSans-43" d="M 4122 4306 
L 4122 3641 
Q 3803 3938 3442 4084 
Q 3081 4231 2675 4231 
Q 1875 4231 1450 3742 
Q 1025 3253 1025 2328 
Q 1025 1406 1450 917 
Q 1875 428 2675 428 
Q 3081 428 3442 575 
Q 3803 722 4122 1019 
L 4122 359 
Q 3791 134 3420 21 
Q 3050 -91 2638 -91 
Q 1578 -91 968 557 
Q 359 1206 359 2328 
Q 359 3453 968 4101 
Q 1578 4750 2638 4750 
Q 3056 4750 3426 4639 
Q 3797 4528 4122 4306 
z
" transform="scale(0.015625)"/>
       <path id="DejaVuSans-4f" d="M 2522 4238 
Q 1834 4238 1429 3725 
Q 1025 3213 1025 2328 
Q 1025 1447 1429 934 
Q 1834 422 2522 422 
Q 3209 422 3611 934 
Q 4013 1447 4013 2328 
Q 4013 3213 3611 3725 
Q 3209 4238 2522 4238 
z
M 2522 4750 
Q 3503 4750 4090 4092 
Q 4678 3434 4678 2328 
Q 4678 1225 4090 567 
Q 3503 -91 2522 -91 
Q 1538 -91 948 565 
Q 359 1222 359 2328 
Q 359 3434 948 4092 
Q 1538 4750 2522 4750 
z
" transform="scale(0.015625)"/>
       <path id="DejaVuSans-63" d="M 3122 3366 
L 3122 2828 
Q 2878 2963 2633 3030 
Q 2388 3097 2138 3097 
Q 1578 3097 1268 2742 
Q 959 2388 959 1747 
Q 959 1106 1268 751 
Q 1578 397 2138 397 
Q 2388 397 2633 464 
Q 2878 531 3122 666 
L 3122 134 
Q 2881 22 2623 -34 
Q 2366 -91 2075 -91 
Q 1284 -91 818 406 
Q 353 903 353 1747 
Q 353 2603 823 3093 
Q 1294 3584 2113 3584 
Q 2378 3584 2631 3529 
Q 2884 3475 3122 3366 
z
" transform="scale(0.015625)"/>
       <path id="DejaVuSans-75" d="M 544 1381 
L 544 3500 
L 1119 3500 
L 1119 1403 
Q 1119 906 1312 657 
Q 1506 409 1894 409 
Q 2359 409 2629 706 
Q 2900 1003 2900 1516 
L 2900 3500 
L 3475 3500 
L 3475 0 
L 2900 0 
L 2900 538 
Q 2691 219 2414 64 
Q 2138 -91 1772 -91 
Q 1169 -91 856 284 
Q 544 659 544 1381 
z
M 1991 3584 
L 1991 3584 
z
" transform="scale(0.015625)"/>
       <path id="DejaVuSans-74" d="M 1172 4494 
L 1172 3500 
L 2356 3500 
L 2356 3053 
L 1172 3053 
L 1172 1153 
Q 1172 725 1289 603 
Q 1406 481 1766 481 
L 2356 481 
L 2356 0 
L 1766 0 
Q 1100 0 847 248 
Q 594 497 594 1153 
L 594 3053 
L 172 3053 
L 172 3500 
L 594 3500 
L 594 4494 
L 1172 4494 
z
" transform="scale(0.015625)"/>
       <path id="DejaVuSans-3a" d="M 750 794 
L 1409 794 
L 1409 0 
L 750 0 
L 750 794 
z
M 750 3309 
L 1409 3309 
L 1409 2516 
L 750 2516 
L 750 3309 
z
" transform="scale(0.015625)"/>
       <path id="DejaVuSans-Oblique-65" d="M 3078 2063 
Q 3088 2113 3092 2166 
Q 3097 2219 3097 2272 
Q 3097 2653 2873 2875 
Q 2650 3097 2266 3097 
Q 1838 3097 1509 2826 
Q 1181 2556 1013 2059 
L 3078 2063 
z
M 3578 1613 
L 903 1613 
Q 884 1494 878 1425 
Q 872 1356 872 1306 
Q 872 872 1139 634 
Q 1406 397 1894 397 
Q 2269 397 2603 481 
Q 2938 566 3225 728 
L 3116 159 
Q 2806 34 2476 -28 
Q 2147 -91 1806 -91 
Q 1078 -91 686 257 
Q 294 606 294 1247 
Q 294 1794 489 2264 
Q 684 2734 1063 3103 
Q 1306 3334 1642 3459 
Q 1978 3584 2356 3584 
Q 2950 3584 3301 3228 
Q 3653 2872 3653 2272 
Q 3653 2128 3634 1964 
Q 3616 1800 3578 1613 
z
" transform="scale(0.015625)"/>
       <path id="DejaVuSans-3d" d="M 678 2906 
L 4684 2906 
L 4684 2381 
L 678 2381 
L 678 2906 
z
M 678 1631 
L 4684 1631 
L 4684 1100 
L 678 1100 
L 678 1631 
z
" transform="scale(0.015625)"/>
      </defs>
      <use xlink:href="#DejaVuSans-4d" transform="translate(0 0.015625)"/>
      <use xlink:href="#DejaVuSans-66" transform="translate(86.279297 0.015625)"/>
      <use xlink:href="#DejaVuSans-20" transform="translate(121.484375 0.015625)"/>
      <use xlink:href="#DejaVuSans-62" transform="translate(153.271484 0.015625)"/>
      <use xlink:href="#DejaVuSans-65" transform="translate(216.748047 0.015625)"/>
      <use xlink:href="#DejaVuSans-66" transform="translate(278.271484 0.015625)"/>
      <use xlink:href="#DejaVuSans-6f" transform="translate(313.476562 0.015625)"/>
      <use xlink:href="#DejaVuSans-72" transform="translate(374.658203 0.015625)"/>
      <use xlink:href="#DejaVuSans-65" transform="translate(415.771484 0.015625)"/>
      <use xlink:href="#DejaVuSans-20" transform="translate(477.294922 0.015625)"/>
      <use xlink:href="#DejaVuSans-49" transform="translate(509.082031 0.015625)"/>
      <use xlink:href="#DejaVuSans-53" transform="translate(538.574219 0.015625)"/>
      <use xlink:href="#DejaVuSans-43" transform="translate(602.050781 0.015625)"/>
      <use xlink:href="#DejaVuSans-4f" transform="translate(671.875 0.015625)"/>
      <use xlink:href="#DejaVuSans-20" transform="translate(750.585938 0.015625)"/>
      <use xlink:href="#DejaVuSans-63" transform="translate(782.373047 0.015625)"/>
      <use xlink:href="#DejaVuSans-75" transform="translate(837.353516 0.015625)"/>
      <use xlink:href="#DejaVuSans-74" transform="translate(900.732422 0.015625)"/>
      <use xlink:href="#DejaVuSans-3a" transform="translate(939.941406 0.015625)"/>
      <use xlink:href="#DejaVuSans-20" transform="translate(973.632812 0.015625)"/>
      <use xlink:href="#DejaVuSans-Oblique-65" transform="translate(1005.419922 0.015625)"/>
      <use xlink:href="#DejaVuSans-3d" transform="translate(1066.943359 0.015625)"/>
      <use xlink:href="#DejaVuSans-30" transform="translate(1150.732422 0.015625)"/>
      <use xlink:href="#DejaVuSans-2e" transform="translate(1214.355469 0.015625)"/>
      <use xlink:href="#DejaVuSans-33" transform="translate(1246.142578 0.015625)"/>
     </g>
    </g>
    <g id="line2d_16">
     <path d="M 45.465625 34.976563 
L 55.465625 34.976563 
L 65.465625 34.976563 
" style="fill: none; stroke-dasharray: 2.22,0.96; stroke-dashoffset: 0; stroke: #ff0000; stroke-width: 0.6"/>
    </g>
    <g id="text_13">
     <!-- Mf ISCO $e$=0 -->
     <g transform="translate(73.465625 38.476563) scale(0.1 -0.1)">
      <use xlink:href="#DejaVuSans-4d" transform="translate(0 0.015625)"/>
      <use xlink:href="#DejaVuSans-66" transform="translate(86.279297 0.015625)"/>
      <use xlink:href="#DejaVuSans-20" transform="translate(121.484375 0.015625)"/>
      <use xlink:href="#DejaVuSans-49" transform="translate(153.271484 0.015625)"/>
      <use xlink:href="#DejaVuSans-53" transform="translate(182.763672 0.015625)"/>
      <use xlink:href="#DejaVuSans-43" transform="translate(246.240234 0.015625)"/>
      <use xlink:href="#DejaVuSans-4f" transform="translate(316.064453 0.015625)"/>
      <use xlink:href="#DejaVuSans-20" transform="translate(394.775391 0.015625)"/>
      <use xlink:href="#DejaVuSans-Oblique-65" transform="translate(426.5625 0.015625)"/>
      <use xlink:href="#DejaVuSans-3d" transform="translate(488.085938 0.015625)"/>
      <use xlink:href="#DejaVuSans-30" transform="translate(571.875 0.015625)"/>
     </g>
    </g>
    <g id="PathCollection_2">
     <g>
      <use xlink:href="#m961e4a09bc" x="55.465625" y="50.529688" style="fill: #ff0000; stroke: #ff0000"/>
     </g>
    </g>
    <g id="text_14">
     <!-- ISCO cut -->
     <g transform="translate(73.465625 53.154688) scale(0.1 -0.1)">
      <use xlink:href="#DejaVuSans-49"/>
      <use xlink:href="#DejaVuSans-53" transform="translate(29.492188 0)"/>
      <use xlink:href="#DejaVuSans-43" transform="translate(92.96875 0)"/>
      <use xlink:href="#DejaVuSans-4f" transform="translate(162.792969 0)"/>
      <use xlink:href="#DejaVuSans-20" transform="translate(241.503906 0)"/>
      <use xlink:href="#DejaVuSans-63" transform="translate(273.291016 0)"/>
      <use xlink:href="#DejaVuSans-75" transform="translate(328.271484 0)"/>
      <use xlink:href="#DejaVuSans-74" transform="translate(391.650391 0)"/>
     </g>
    </g>
    <g id="line2d_17">
     <path d="M 45.465625 64.332813 
L 55.465625 64.332813 
L 65.465625 64.332813 
" style="fill: none; stroke: #ff7f0e; stroke-width: 1.5; stroke-linecap: square"/>
    </g>
    <g id="text_15">
     <!-- Mf after ISCO cut: $e$=0.3  -->
     <g transform="translate(73.465625 67.832813) scale(0.1 -0.1)">
      <defs>
       <path id="DejaVuSans-61" d="M 2194 1759 
Q 1497 1759 1228 1600 
Q 959 1441 959 1056 
Q 959 750 1161 570 
Q 1363 391 1709 391 
Q 2188 391 2477 730 
Q 2766 1069 2766 1631 
L 2766 1759 
L 2194 1759 
z
M 3341 1997 
L 3341 0 
L 2766 0 
L 2766 531 
Q 2569 213 2275 61 
Q 1981 -91 1556 -91 
Q 1019 -91 701 211 
Q 384 513 384 1019 
Q 384 1609 779 1909 
Q 1175 2209 1959 2209 
L 2766 2209 
L 2766 2266 
Q 2766 2663 2505 2880 
Q 2244 3097 1772 3097 
Q 1472 3097 1187 3025 
Q 903 2953 641 2809 
L 641 3341 
Q 956 3463 1253 3523 
Q 1550 3584 1831 3584 
Q 2591 3584 2966 3190 
Q 3341 2797 3341 1997 
z
" transform="scale(0.015625)"/>
      </defs>
      <use xlink:href="#DejaVuSans-4d" transform="translate(0 0.015625)"/>
      <use xlink:href="#DejaVuSans-66" transform="translate(86.279297 0.015625)"/>
      <use xlink:href="#DejaVuSans-20" transform="translate(121.484375 0.015625)"/>
      <use xlink:href="#DejaVuSans-61" transform="translate(153.271484 0.015625)"/>
      <use xlink:href="#DejaVuSans-66" transform="translate(214.550781 0.015625)"/>
      <use xlink:href="#DejaVuSans-74" transform="translate(249.755859 0.015625)"/>
      <use xlink:href="#DejaVuSans-65" transform="translate(288.964844 0.015625)"/>
      <use xlink:href="#DejaVuSans-72" transform="translate(350.488281 0.015625)"/>
      <use xlink:href="#DejaVuSans-20" transform="translate(391.601562 0.015625)"/>
      <use xlink:href="#DejaVuSans-49" transform="translate(423.388672 0.015625)"/>
      <use xlink:href="#DejaVuSans-53" transform="translate(452.880859 0.015625)"/>
      <use xlink:href="#DejaVuSans-43" transform="translate(516.357422 0.015625)"/>
      <use xlink:href="#DejaVuSans-4f" transform="translate(586.181641 0.015625)"/>
      <use xlink:href="#DejaVuSans-20" transform="translate(664.892578 0.015625)"/>
      <use xlink:href="#DejaVuSans-63" transform="translate(696.679688 0.015625)"/>
      <use xlink:href="#DejaVuSans-75" transform="translate(751.660156 0.015625)"/>
      <use xlink:href="#DejaVuSans-74" transform="translate(815.039062 0.015625)"/>
      <use xlink:href="#DejaVuSans-3a" transform="translate(854.248047 0.015625)"/>
      <use xlink:href="#DejaVuSans-20" transform="translate(887.939453 0.015625)"/>
      <use xlink:href="#DejaVuSans-Oblique-65" transform="translate(919.726562 0.015625)"/>
      <use xlink:href="#DejaVuSans-3d" transform="translate(981.25 0.015625)"/>
      <use xlink:href="#DejaVuSans-30" transform="translate(1065.039062 0.015625)"/>
      <use xlink:href="#DejaVuSans-2e" transform="translate(1128.662109 0.015625)"/>
      <use xlink:href="#DejaVuSans-33" transform="translate(1160.449219 0.015625)"/>
      <use xlink:href="#DejaVuSans-20" transform="translate(1224.072266 0.015625)"/>
     </g>
    </g>
   </g>
  </g>
 </g>
 <defs>
  <clipPath id="pc494b4e088">
   <rect x="36.465625" y="7.2" width="669.6" height="277.2"/>
  </clipPath>
 </defs>
</svg>
