<?xml version="1.0" encoding="utf-8" standalone="no"?>
<!DOCTYPE svg PUBLIC "-//W3C//DTD SVG 1.1//EN"
  "http://www.w3.org/Graphics/SVG/1.1/DTD/svg11.dtd">
<svg xmlns:xlink="http://www.w3.org/1999/xlink" width="713.265625pt" height="308.278125pt" viewBox="0 0 713.265625 308.278125" xmlns="http://www.w3.org/2000/svg" version="1.1">
 <metadata>
  <rdf:RDF xmlns:dc="http://purl.org/dc/elements/1.1/" xmlns:cc="http://creativecommons.org/ns#" xmlns:rdf="http://www.w3.org/1999/02/22-rdf-syntax-ns#">
   <cc:Work>
    <dc:type rdf:resource="http://purl.org/dc/dcmitype/StillImage"/>
    <dc:date>2025-09-03T18:28:13.456573</dc:date>
    <dc:format>image/svg+xml</dc:format>
    <dc:creator>
     <cc:Agent>
      <dc:title>Matplotlib v3.10.5, https://matplotlib.org/</dc:title>
     </cc:Agent>
    </dc:creator>
   </cc:Work>
  </rdf:RDF>
 </metadata>
 <defs>
  <style type="text/css">*{stroke-linejoin: round; stroke-linecap: butt}</style>
 </defs>
 <g id="figure_1">
  <g id="patch_1">
   <path d="M 0 308.278125 
L 713.265625 308.278125 
L 713.265625 0 
L 0 0 
z
" style="fill: #ffffff"/>
  </g>
  <g id="axes_1">
   <g id="patch_2">
    <path d="M 36.465625 284.4 
L 706.065625 284.4 
L 706.065625 7.2 
L 36.465625 7.2 
z
" style="fill: #ffffff"/>
   </g>
   <g id="PathCollection_1">
    <defs>
     <path id="mf01d3ccaee" d="M 0 1.224745 
C 0.324806 1.224745 0.636353 1.095698 0.866025 0.866025 
C 1.095698 0.636353 1.224745 0.324806 1.224745 0 
C 1.224745 -0.324806 1.095698 -0.636353 0.866025 -0.866025 
C 0.636353 -1.095698 0.324806 -1.224745 0 -1.224745 
C -0.324806 -1.224745 -0.636353 -1.095698 -0.866025 -0.866025 
C -1.095698 -0.636353 -1.224745 -0.324806 -1.224745 0 
C -1.224745 0.324806 -1.095698 0.636353 -0.866025 0.866025 
C -0.636353 1.095698 -0.324806 1.224745 0 1.224745 
z
" style="stroke: #ff0000"/>
    </defs>
    <g clip-path="url(#p310878ba4a)">
     <use xlink:href="#mf01d3ccaee" x="672.285014" y="181.503991" style="fill: #ff0000; stroke: #ff0000"/>
    </g>
   </g>
   <g id="matplotlib.axis_1">
    <g id="xtick_1">
     <g id="line2d_1">
      <defs>
       <path id="ma23852a456" d="M 0 0 
L 0 3.5 
" style="stroke: #000000; stroke-width: 0.8"/>
      </defs>
      <g>
       <use xlink:href="#ma23852a456" x="45.99032" y="284.4" style="stroke: #000000; stroke-width: 0.8"/>
      </g>
     </g>
     <g id="text_1">
      <!-- −14000 -->
      <g transform="translate(25.894227 298.998438) scale(0.1 -0.1)">
       <defs>
        <path id="DejaVuSans-2212" d="M 678 2272 
L 4684 2272 
L 4684 1741 
L 678 1741 
L 678 2272 
z
" transform="scale(0.015625)"/>
        <path id="DejaVuSans-31" d="M 794 531 
L 1825 531 
L 1825 4091 
L 703 3866 
L 703 4441 
L 1819 4666 
L 2450 4666 
L 2450 531 
L 3481 531 
L 3481 0 
L 794 0 
L 794 531 
z
" transform="scale(0.015625)"/>
        <path id="DejaVuSans-34" d="M 2419 4116 
L 825 1625 
L 2419 1625 
L 2419 4116 
z
M 2253 4666 
L 3047 4666 
L 3047 1625 
L 3713 1625 
L 3713 1100 
L 3047 1100 
L 3047 0 
L 2419 0 
L 2419 1100 
L 313 1100 
L 313 1709 
L 2253 4666 
z
" transform="scale(0.015625)"/>
        <path id="DejaVuSans-30" d="M 2034 4250 
Q 1547 4250 1301 3770 
Q 1056 3291 1056 2328 
Q 1056 1369 1301 889 
Q 1547 409 2034 409 
Q 2525 409 2770 889 
Q 3016 1369 3016 2328 
Q 3016 3291 2770 3770 
Q 2525 4250 2034 4250 
z
M 2034 4750 
Q 2819 4750 3233 4129 
Q 3647 3509 3647 2328 
Q 3647 1150 3233 529 
Q 2819 -91 2034 -91 
Q 1250 -91 836 529 
Q 422 1150 422 2328 
Q 422 3509 836 4129 
Q 1250 4750 2034 4750 
z
" transform="scale(0.015625)"/>
       </defs>
       <use xlink:href="#DejaVuSans-2212"/>
       <use xlink:href="#DejaVuSans-31" transform="translate(83.789062 0)"/>
       <use xlink:href="#DejaVuSans-34" transform="translate(147.412109 0)"/>
       <use xlink:href="#DejaVuSans-30" transform="translate(211.035156 0)"/>
       <use xlink:href="#DejaVuSans-30" transform="translate(274.658203 0)"/>
       <use xlink:href="#DejaVuSans-30" transform="translate(338.28125 0)"/>
      </g>
     </g>
    </g>
    <g id="xtick_2">
     <g id="line2d_2">
      <g>
       <use xlink:href="#ma23852a456" x="135.938741" y="284.4" style="stroke: #000000; stroke-width: 0.8"/>
      </g>
     </g>
     <g id="text_2">
      <!-- −12000 -->
      <g transform="translate(115.842647 298.998438) scale(0.1 -0.1)">
       <defs>
        <path id="DejaVuSans-32" d="M 1228 531 
L 3431 531 
L 3431 0 
L 469 0 
L 469 531 
Q 828 903 1448 1529 
Q 2069 2156 2228 2338 
Q 2531 2678 2651 2914 
Q 2772 3150 2772 3378 
Q 2772 3750 2511 3984 
Q 2250 4219 1831 4219 
Q 1534 4219 1204 4116 
Q 875 4013 500 3803 
L 500 4441 
Q 881 4594 1212 4672 
Q 1544 4750 1819 4750 
Q 2544 4750 2975 4387 
Q 3406 4025 3406 3419 
Q 3406 3131 3298 2873 
Q 3191 2616 2906 2266 
Q 2828 2175 2409 1742 
Q 1991 1309 1228 531 
z
" transform="scale(0.015625)"/>
       </defs>
       <use xlink:href="#DejaVuSans-2212"/>
       <use xlink:href="#DejaVuSans-31" transform="translate(83.789062 0)"/>
       <use xlink:href="#DejaVuSans-32" transform="translate(147.412109 0)"/>
       <use xlink:href="#DejaVuSans-30" transform="translate(211.035156 0)"/>
       <use xlink:href="#DejaVuSans-30" transform="translate(274.658203 0)"/>
       <use xlink:href="#DejaVuSans-30" transform="translate(338.28125 0)"/>
      </g>
     </g>
    </g>
    <g id="xtick_3">
     <g id="line2d_3">
      <g>
       <use xlink:href="#ma23852a456" x="225.887161" y="284.4" style="stroke: #000000; stroke-width: 0.8"/>
      </g>
     </g>
     <g id="text_3">
      <!-- −10000 -->
      <g transform="translate(205.791067 298.998438) scale(0.1 -0.1)">
       <use xlink:href="#DejaVuSans-2212"/>
       <use xlink:href="#DejaVuSans-31" transform="translate(83.789062 0)"/>
       <use xlink:href="#DejaVuSans-30" transform="translate(147.412109 0)"/>
       <use xlink:href="#DejaVuSans-30" transform="translate(211.035156 0)"/>
       <use xlink:href="#DejaVuSans-30" transform="translate(274.658203 0)"/>
       <use xlink:href="#DejaVuSans-30" transform="translate(338.28125 0)"/>
      </g>
     </g>
    </g>
    <g id="xtick_4">
     <g id="line2d_4">
      <g>
       <use xlink:href="#ma23852a456" x="315.835581" y="284.4" style="stroke: #000000; stroke-width: 0.8"/>
      </g>
     </g>
     <g id="text_4">
      <!-- −8000 -->
      <g transform="translate(298.920737 298.998438) scale(0.1 -0.1)">
       <defs>
        <path id="DejaVuSans-38" d="M 2034 2216 
Q 1584 2216 1326 1975 
Q 1069 1734 1069 1313 
Q 1069 891 1326 650 
Q 1584 409 2034 409 
Q 2484 409 2743 651 
Q 3003 894 3003 1313 
Q 3003 1734 2745 1975 
Q 2488 2216 2034 2216 
z
M 1403 2484 
Q 997 2584 770 2862 
Q 544 3141 544 3541 
Q 544 4100 942 4425 
Q 1341 4750 2034 4750 
Q 2731 4750 3128 4425 
Q 3525 4100 3525 3541 
Q 3525 3141 3298 2862 
Q 3072 2584 2669 2484 
Q 3125 2378 3379 2068 
Q 3634 1759 3634 1313 
Q 3634 634 3220 271 
Q 2806 -91 2034 -91 
Q 1263 -91 848 271 
Q 434 634 434 1313 
Q 434 1759 690 2068 
Q 947 2378 1403 2484 
z
M 1172 3481 
Q 1172 3119 1398 2916 
Q 1625 2713 2034 2713 
Q 2441 2713 2670 2916 
Q 2900 3119 2900 3481 
Q 2900 3844 2670 4047 
Q 2441 4250 2034 4250 
Q 1625 4250 1398 4047 
Q 1172 3844 1172 3481 
z
" transform="scale(0.015625)"/>
       </defs>
       <use xlink:href="#DejaVuSans-2212"/>
       <use xlink:href="#DejaVuSans-38" transform="translate(83.789062 0)"/>
       <use xlink:href="#DejaVuSans-30" transform="translate(147.412109 0)"/>
       <use xlink:href="#DejaVuSans-30" transform="translate(211.035156 0)"/>
       <use xlink:href="#DejaVuSans-30" transform="translate(274.658203 0)"/>
      </g>
     </g>
    </g>
    <g id="xtick_5">
     <g id="line2d_5">
      <g>
       <use xlink:href="#ma23852a456" x="405.784001" y="284.4" style="stroke: #000000; stroke-width: 0.8"/>
      </g>
     </g>
     <g id="text_5">
      <!-- −6000 -->
      <g transform="translate(388.869157 298.998438) scale(0.1 -0.1)">
       <defs>
        <path id="DejaVuSans-36" d="M 2113 2584 
Q 1688 2584 1439 2293 
Q 1191 2003 1191 1497 
Q 1191 994 1439 701 
Q 1688 409 2113 409 
Q 2538 409 2786 701 
Q 3034 994 3034 1497 
Q 3034 2003 2786 2293 
Q 2538 2584 2113 2584 
z
M 3366 4563 
L 3366 3988 
Q 3128 4100 2886 4159 
Q 2644 4219 2406 4219 
Q 1781 4219 1451 3797 
Q 1122 3375 1075 2522 
Q 1259 2794 1537 2939 
Q 1816 3084 2150 3084 
Q 2853 3084 3261 2657 
Q 3669 2231 3669 1497 
Q 3669 778 3244 343 
Q 2819 -91 2113 -91 
Q 1303 -91 875 529 
Q 447 1150 447 2328 
Q 447 3434 972 4092 
Q 1497 4750 2381 4750 
Q 2619 4750 2861 4703 
Q 3103 4656 3366 4563 
z
" transform="scale(0.015625)"/>
       </defs>
       <use xlink:href="#DejaVuSans-2212"/>
       <use xlink:href="#DejaVuSans-36" transform="translate(83.789062 0)"/>
       <use xlink:href="#DejaVuSans-30" transform="translate(147.412109 0)"/>
       <use xlink:href="#DejaVuSans-30" transform="translate(211.035156 0)"/>
       <use xlink:href="#DejaVuSans-30" transform="translate(274.658203 0)"/>
      </g>
     </g>
    </g>
    <g id="xtick_6">
     <g id="line2d_6">
      <g>
       <use xlink:href="#ma23852a456" x="495.732421" y="284.4" style="stroke: #000000; stroke-width: 0.8"/>
      </g>
     </g>
     <g id="text_6">
      <!-- −4000 -->
      <g transform="translate(478.817577 298.998438) scale(0.1 -0.1)">
       <use xlink:href="#DejaVuSans-2212"/>
       <use xlink:href="#DejaVuSans-34" transform="translate(83.789062 0)"/>
       <use xlink:href="#DejaVuSans-30" transform="translate(147.412109 0)"/>
       <use xlink:href="#DejaVuSans-30" transform="translate(211.035156 0)"/>
       <use xlink:href="#DejaVuSans-30" transform="translate(274.658203 0)"/>
      </g>
     </g>
    </g>
    <g id="xtick_7">
     <g id="line2d_7">
      <g>
       <use xlink:href="#ma23852a456" x="585.680841" y="284.4" style="stroke: #000000; stroke-width: 0.8"/>
      </g>
     </g>
     <g id="text_7">
      <!-- −2000 -->
      <g transform="translate(568.765997 298.998438) scale(0.1 -0.1)">
       <use xlink:href="#DejaVuSans-2212"/>
       <use xlink:href="#DejaVuSans-32" transform="translate(83.789062 0)"/>
       <use xlink:href="#DejaVuSans-30" transform="translate(147.412109 0)"/>
       <use xlink:href="#DejaVuSans-30" transform="translate(211.035156 0)"/>
       <use xlink:href="#DejaVuSans-30" transform="translate(274.658203 0)"/>
      </g>
     </g>
    </g>
    <g id="xtick_8">
     <g id="line2d_8">
      <g>
       <use xlink:href="#ma23852a456" x="675.629261" y="284.4" style="stroke: #000000; stroke-width: 0.8"/>
      </g>
     </g>
     <g id="text_8">
      <!-- 0 -->
      <g transform="translate(672.448011 298.998438) scale(0.1 -0.1)">
       <use xlink:href="#DejaVuSans-30"/>
      </g>
     </g>
    </g>
   </g>
   <g id="matplotlib.axis_2">
    <g id="ytick_1">
     <g id="line2d_9">
      <defs>
       <path id="m8924c6d6be" d="M 0 0 
L -3.5 0 
" style="stroke: #000000; stroke-width: 0.8"/>
      </defs>
      <g>
       <use xlink:href="#m8924c6d6be" x="36.465625" y="284.068865" style="stroke: #000000; stroke-width: 0.8"/>
      </g>
     </g>
     <g id="text_9">
      <!-- 0.00 -->
      <g transform="translate(7.2 287.868084) scale(0.1 -0.1)">
       <defs>
        <path id="DejaVuSans-2e" d="M 684 794 
L 1344 794 
L 1344 0 
L 684 0 
L 684 794 
z
" transform="scale(0.015625)"/>
       </defs>
       <use xlink:href="#DejaVuSans-30"/>
       <use xlink:href="#DejaVuSans-2e" transform="translate(63.623047 0)"/>
       <use xlink:href="#DejaVuSans-30" transform="translate(95.410156 0)"/>
       <use xlink:href="#DejaVuSans-30" transform="translate(159.033203 0)"/>
      </g>
     </g>
    </g>
    <g id="ytick_2">
     <g id="line2d_10">
      <g>
       <use xlink:href="#m8924c6d6be" x="36.465625" y="236.800272" style="stroke: #000000; stroke-width: 0.8"/>
      </g>
     </g>
     <g id="text_10">
      <!-- 0.01 -->
      <g transform="translate(7.2 240.599491) scale(0.1 -0.1)">
       <use xlink:href="#DejaVuSans-30"/>
       <use xlink:href="#DejaVuSans-2e" transform="translate(63.623047 0)"/>
       <use xlink:href="#DejaVuSans-30" transform="translate(95.410156 0)"/>
       <use xlink:href="#DejaVuSans-31" transform="translate(159.033203 0)"/>
      </g>
     </g>
    </g>
    <g id="ytick_3">
     <g id="line2d_11">
      <g>
       <use xlink:href="#m8924c6d6be" x="36.465625" y="189.531678" style="stroke: #000000; stroke-width: 0.8"/>
      </g>
     </g>
     <g id="text_11">
      <!-- 0.02 -->
      <g transform="translate(7.2 193.330897) scale(0.1 -0.1)">
       <use xlink:href="#DejaVuSans-30"/>
       <use xlink:href="#DejaVuSans-2e" transform="translate(63.623047 0)"/>
       <use xlink:href="#DejaVuSans-30" transform="translate(95.410156 0)"/>
       <use xlink:href="#DejaVuSans-32" transform="translate(159.033203 0)"/>
      </g>
     </g>
    </g>
    <g id="ytick_4">
     <g id="line2d_12">
      <g>
       <use xlink:href="#m8924c6d6be" x="36.465625" y="142.263085" style="stroke: #000000; stroke-width: 0.8"/>
      </g>
     </g>
     <g id="text_12">
      <!-- 0.03 -->
      <g transform="translate(7.2 146.062304) scale(0.1 -0.1)">
       <defs>
        <path id="DejaVuSans-33" d="M 2597 2516 
Q 3050 2419 3304 2112 
Q 3559 1806 3559 1356 
Q 3559 666 3084 287 
Q 2609 -91 1734 -91 
Q 1441 -91 1130 -33 
Q 819 25 488 141 
L 488 750 
Q 750 597 1062 519 
Q 1375 441 1716 441 
Q 2309 441 2620 675 
Q 2931 909 2931 1356 
Q 2931 1769 2642 2001 
Q 2353 2234 1838 2234 
L 1294 2234 
L 1294 2753 
L 1863 2753 
Q 2328 2753 2575 2939 
Q 2822 3125 2822 3475 
Q 2822 3834 2567 4026 
Q 2313 4219 1838 4219 
Q 1578 4219 1281 4162 
Q 984 4106 628 3988 
L 628 4550 
Q 988 4650 1302 4700 
Q 1616 4750 1894 4750 
Q 2613 4750 3031 4423 
Q 3450 4097 3450 3541 
Q 3450 3153 3228 2886 
Q 3006 2619 2597 2516 
z
" transform="scale(0.015625)"/>
       </defs>
       <use xlink:href="#DejaVuSans-30"/>
       <use xlink:href="#DejaVuSans-2e" transform="translate(63.623047 0)"/>
       <use xlink:href="#DejaVuSans-30" transform="translate(95.410156 0)"/>
       <use xlink:href="#DejaVuSans-33" transform="translate(159.033203 0)"/>
      </g>
     </g>
    </g>
    <g id="ytick_5">
     <g id="line2d_13">
      <g>
       <use xlink:href="#m8924c6d6be" x="36.465625" y="94.994491" style="stroke: #000000; stroke-width: 0.8"/>
      </g>
     </g>
     <g id="text_13">
      <!-- 0.04 -->
      <g transform="translate(7.2 98.79371) scale(0.1 -0.1)">
       <use xlink:href="#DejaVuSans-30"/>
       <use xlink:href="#DejaVuSans-2e" transform="translate(63.623047 0)"/>
       <use xlink:href="#DejaVuSans-30" transform="translate(95.410156 0)"/>
       <use xlink:href="#DejaVuSans-34" transform="translate(159.033203 0)"/>
      </g>
     </g>
    </g>
    <g id="ytick_6">
     <g id="line2d_14">
      <g>
       <use xlink:href="#m8924c6d6be" x="36.465625" y="47.725898" style="stroke: #000000; stroke-width: 0.8"/>
      </g>
     </g>
     <g id="text_14">
      <!-- 0.05 -->
      <g transform="translate(7.2 51.525117) scale(0.1 -0.1)">
       <defs>
        <path id="DejaVuSans-35" d="M 691 4666 
L 3169 4666 
L 3169 4134 
L 1269 4134 
L 1269 2991 
Q 1406 3038 1543 3061 
Q 1681 3084 1819 3084 
Q 2600 3084 3056 2656 
Q 3513 2228 3513 1497 
Q 3513 744 3044 326 
Q 2575 -91 1722 -91 
Q 1428 -91 1123 -41 
Q 819 9 494 109 
L 494 744 
Q 775 591 1075 516 
Q 1375 441 1709 441 
Q 2250 441 2565 725 
Q 2881 1009 2881 1497 
Q 2881 1984 2565 2268 
Q 2250 2553 1709 2553 
Q 1456 2553 1204 2497 
Q 953 2441 691 2322 
L 691 4666 
z
" transform="scale(0.015625)"/>
       </defs>
       <use xlink:href="#DejaVuSans-30"/>
       <use xlink:href="#DejaVuSans-2e" transform="translate(63.623047 0)"/>
       <use xlink:href="#DejaVuSans-30" transform="translate(95.410156 0)"/>
       <use xlink:href="#DejaVuSans-35" transform="translate(159.033203 0)"/>
      </g>
     </g>
    </g>
   </g>
   <g id="line2d_15">
    <path d="M 66.901989 270.178776 
L 67.273572 269.977965 
L 68.908537 268.833502 
L 70.692135 267.292179 
L 74.333649 264.039576 
L 75.299764 263.531675 
L 76.117247 263.342344 
L 76.860413 263.383482 
L 77.677896 263.658066 
L 78.644011 264.246911 
L 79.907394 265.30824 
L 84.069123 269.012306 
L 85.704089 270.072632 
L 87.339054 270.861657 
L 88.974019 271.398051 
L 90.608984 271.705445 
L 92.318266 271.799051 
L 94.027548 271.664391 
L 95.662513 271.318279 
L 97.297478 270.740787 
L 98.858127 269.953803 
L 100.418775 268.920523 
L 102.053741 267.569875 
L 106.810003 263.41145 
L 107.701802 263.07716 
L 108.444968 263.01903 
L 109.188134 263.168681 
L 110.005617 263.554381 
L 111.046049 264.309534 
L 112.681014 265.820559 
L 115.282095 268.200097 
L 116.917061 269.387911 
L 118.477709 270.256409 
L 120.038358 270.877648 
L 121.673323 271.284522 
L 123.308288 271.462055 
L 124.943253 271.418183 
L 126.578219 271.153 
L 128.138867 270.681719 
L 129.699516 269.977217 
L 131.260164 269.022907 
L 132.820813 267.808205 
L 134.753045 265.998687 
L 137.279809 263.650565 
L 138.320241 262.995063 
L 139.137724 262.72293 
L 139.88089 262.693297 
L 140.624056 262.874649 
L 141.515855 263.343061 
L 142.630604 264.217855 
L 144.785786 266.288236 
L 146.792334 268.078533 
L 148.427299 269.236977 
L 149.987948 270.069232 
L 151.548596 270.647619 
L 153.109245 270.992499 
L 154.74421 271.120396 
L 156.379175 271.015138 
L 157.939824 270.694869 
L 159.500473 270.144966 
L 160.986805 269.389712 
L 162.547453 268.3389 
L 164.182418 266.95402 
L 168.864364 262.73671 
L 169.681847 262.40827 
L 170.425013 262.327606 
L 171.168179 262.463633 
L 171.985661 262.845704 
L 173.026094 263.611591 
L 174.586742 265.085903 
L 177.26214 267.597467 
L 178.897105 268.802712 
L 180.457754 269.669474 
L 181.944086 270.247375 
L 183.504734 270.613487 
L 185.065383 270.748999 
L 186.626032 270.659623 
L 188.18668 270.3435 
L 189.673012 269.818774 
L 191.159344 269.058342 
L 192.645676 268.049132 
L 194.206325 266.721536 
L 196.584456 264.348815 
L 198.219421 262.858251 
L 199.185537 262.249415 
L 200.00302 261.981854 
L 200.746186 261.96682 
L 201.489352 262.171138 
L 202.381151 262.674064 
L 203.4959 263.59424 
L 208.772379 268.360261 
L 210.258711 269.222981 
L 211.745043 269.831998 
L 213.231375 270.204163 
L 214.717707 270.354035 
L 216.204039 270.287297 
L 217.690371 270.002989 
L 219.176703 269.490212 
L 220.663035 268.731866 
L 222.149367 267.714824 
L 223.710015 266.369632 
L 226.01383 264.034483 
L 227.648795 262.505319 
L 228.614911 261.872161 
L 229.432393 261.586789 
L 230.175559 261.559996 
L 230.918725 261.758055 
L 231.736208 262.209503 
L 232.77664 263.052837 
L 234.708872 264.981694 
L 236.789737 266.94476 
L 238.350385 268.111849 
L 239.836717 268.94543 
L 241.323049 269.516428 
L 242.809381 269.841818 
L 244.295713 269.933991 
L 245.782045 269.796798 
L 247.268377 269.426438 
L 248.680393 268.845703 
L 250.092408 268.027361 
L 251.57874 266.900377 
L 253.213705 265.366483 
L 256.855219 261.812867 
L 257.747018 261.312861 
L 258.490184 261.126022 
L 259.23335 261.170369 
L 259.976516 261.440597 
L 260.868315 262.020829 
L 262.057381 263.093733 
L 266.144794 267.027721 
L 267.631126 268.046172 
L 269.043141 268.752521 
L 270.455157 269.21541 
L 271.867172 269.448824 
L 273.279188 269.460575 
L 274.691203 269.251911 
L 276.103218 268.816541 
L 277.515234 268.140598 
L 278.927249 267.211596 
L 280.413581 265.958629 
L 282.271496 264.067767 
L 284.649627 261.672683 
L 285.615743 261.006557 
L 286.433226 260.704025 
L 287.176392 260.672955 
L 287.919558 260.877961 
L 288.73704 261.348099 
L 289.777473 262.225622 
L 291.784021 264.297105 
L 293.716253 266.157503 
L 295.202585 267.290557 
L 296.6146 268.093652 
L 298.026615 268.636259 
L 299.438631 268.931976 
L 300.850646 268.990319 
L 302.188345 268.828975 
L 303.526044 268.452971 
L 304.863743 267.851583 
L 306.201441 267.013551 
L 307.613457 265.868367 
L 309.248422 264.24328 
L 312.444036 260.983281 
L 313.335835 260.421122 
L 314.079001 260.187733 
L 314.822167 260.196131 
L 315.565333 260.444762 
L 316.382816 260.961664 
L 317.497565 261.96252 
L 322.105194 266.451574 
L 323.517209 267.362256 
L 324.854908 267.968779 
L 326.192607 268.336164 
L 327.530306 268.474144 
L 328.868005 268.386805 
L 330.205703 268.072478 
L 331.543402 267.522481 
L 332.881101 266.725218 
L 334.293116 265.609803 
L 335.853765 264.074612 
L 339.495278 260.321632 
L 340.387078 259.807725 
L 341.130244 259.631419 
L 341.799093 259.687404 
L 342.542259 259.980851 
L 343.434058 260.60664 
L 344.623124 261.753096 
L 348.264637 265.463103 
L 349.676653 266.506192 
L 351.014351 267.223177 
L 352.35205 267.682261 
L 353.615432 267.888308 
L 354.878815 267.878463 
L 356.142197 267.653091 
L 357.405579 267.207031 
L 358.668961 266.530849 
L 360.00666 265.556607 
L 361.418675 264.248175 
L 363.350907 262.117172 
L 365.208822 260.147635 
L 366.174938 259.426143 
L 366.918104 259.115452 
L 367.586953 259.050549 
L 368.255803 259.195362 
L 368.998969 259.584144 
L 369.965084 260.375863 
L 371.451417 261.945797 
L 373.903864 264.512985 
L 375.31588 265.662982 
L 376.653579 266.468924 
L 377.916961 266.976463 
L 379.180343 267.245619 
L 380.443725 267.282248 
L 381.707107 267.087626 
L 382.97049 266.657626 
L 384.233872 265.983542 
L 385.497254 265.058921 
L 386.909269 263.737804 
L 388.767184 261.652832 
L 390.699416 259.545434 
L 391.665532 258.804058 
L 392.408698 258.485578 
L 393.077547 258.420671 
L 393.746397 258.572104 
L 394.489563 258.974679 
L 395.381362 259.718542 
L 396.793377 261.228875 
L 399.320142 263.925764 
L 400.732157 265.085275 
L 401.995539 265.84762 
L 403.258921 266.348411 
L 404.447987 266.586895 
L 405.637053 266.603923 
L 406.826118 266.400076 
L 408.015184 265.971729 
L 409.204249 265.311995 
L 410.467632 264.352955 
L 411.879647 262.979936 
L 413.811879 260.739137 
L 415.52116 258.850671 
L 416.487276 258.10018 
L 417.230442 257.786099 
L 417.899292 257.733892 
L 418.568141 257.904983 
L 419.311307 258.334596 
L 420.277423 259.187254 
L 421.912388 261.011842 
L 423.993253 263.249017 
L 425.330952 264.371582 
L 426.594334 265.148666 
L 427.783399 265.624901 
L 428.972465 265.85836 
L 430.087214 265.860019 
L 431.201963 265.651883 
L 432.391029 265.195209 
L 433.580094 264.490157 
L 434.843477 263.466417 
L 436.255492 262.009291 
L 440.417222 257.429238 
L 441.160388 257.059923 
L 441.829237 256.962935 
L 442.498086 257.098502 
L 443.241252 257.502874 
L 444.133052 258.271263 
L 445.545067 259.846032 
L 447.923198 262.488313 
L 449.260897 263.630299 
L 450.449963 264.370195 
L 451.639028 264.845245 
L 452.753777 265.052941 
L 453.868526 265.032426 
L 454.983275 264.78318 
L 456.098024 264.301898 
L 457.28709 263.528172 
L 458.550472 262.414005 
L 459.962487 260.850247 
L 463.455368 256.803852 
L 464.27285 256.291856 
L 464.9417 256.120898 
L 465.610549 256.19164 
L 466.279398 256.495071 
L 467.096881 257.133948 
L 468.21163 258.325051 
L 471.48156 262.00712 
L 472.744943 263.021183 
L 473.859692 263.651455 
L 474.974441 264.030462 
L 476.014873 264.159171 
L 477.055305 264.071849 
L 478.095738 263.767731 
L 479.210487 263.198037 
L 480.325236 262.373653 
L 481.588618 261.141199 
L 483.07495 259.356422 
L 485.676031 256.186997 
L 486.56783 255.488834 
L 487.23668 255.218702 
L 487.905529 255.196876 
L 488.574379 255.423664 
L 489.317545 255.935309 
L 490.28366 256.904194 
L 494.66834 261.728515 
L 495.783089 262.467491 
L 496.823521 262.912344 
L 497.863954 263.120256 
L 498.904386 263.092033 
L 499.944818 262.82688 
L 500.985251 262.321055 
L 502.1 261.510142 
L 503.289065 260.348367 
L 504.701081 258.632219 
L 507.599428 255.00253 
L 508.416911 254.379499 
L 509.08576 254.130307 
L 509.680293 254.128728 
L 510.349142 254.372166 
L 511.092308 254.911836 
L 512.058424 255.92332 
L 516.071521 260.494381 
L 517.18627 261.281272 
L 518.226702 261.750578 
L 519.192818 261.953857 
L 520.158934 261.932849 
L 521.125049 261.687013 
L 522.091165 261.215009 
L 523.131598 260.453321 
L 524.246347 259.354328 
L 525.584045 257.701053 
L 528.705343 253.676723 
L 529.448509 253.126106 
L 530.117358 252.897422 
L 530.711891 252.926364 
L 531.306424 253.169216 
L 532.04959 253.736509 
L 533.015705 254.79175 
L 536.657219 259.082727 
L 537.771968 259.917705 
L 538.738084 260.384253 
L 539.704199 260.607099 
L 540.595999 260.595315 
L 541.487798 260.374287 
L 542.453914 259.896308 
L 543.42003 259.166983 
L 544.460462 258.104213 
L 545.649528 256.557464 
L 548.547875 252.598903 
L 549.439674 251.810384 
L 550.108524 251.508284 
L 550.703056 251.496017 
L 551.297589 251.723986 
L 552.040755 252.290118 
L 553.081188 253.404597 
L 554.790469 255.59604 
L 556.202485 257.286272 
L 557.242917 258.19984 
L 558.209033 258.771346 
L 559.100832 259.053998 
L 559.992631 259.093336 
L 560.810114 258.91401 
L 561.701913 258.483383 
L 562.668029 257.749469 
L 563.708461 256.680561 
L 564.897527 255.131982 
L 568.241774 250.502746 
L 568.98494 249.977142 
L 569.579473 249.817707 
L 570.174006 249.903744 
L 570.768538 250.221833 
L 571.511704 250.891764 
L 572.552137 252.167938 
L 575.153218 255.478869 
L 576.19365 256.403959 
L 577.085449 256.92991 
L 577.902932 257.182332 
L 578.720415 257.21013 
L 579.537897 257.011074 
L 580.35538 256.584643 
L 581.247179 255.863407 
L 582.287611 254.702681 
L 583.550994 252.910184 
L 586.375024 248.718745 
L 587.11819 248.077595 
L 587.712723 247.835317 
L 588.232939 247.838464 
L 588.827472 248.082101 
L 589.496322 248.624029 
L 590.388121 249.663714 
L 593.658051 253.786115 
L 594.624167 254.511831 
L 595.44165 254.861862 
L 596.184816 254.96026 
L 596.927982 254.845367 
L 597.671148 254.515909 
L 598.48863 253.907541 
L 599.380429 252.959373 
L 600.420862 251.519091 
L 602.055827 248.798988 
L 603.467843 246.600172 
L 604.211009 245.794749 
L 604.805541 245.425655 
L 605.325758 245.331331 
L 605.845974 245.452957 
L 606.440507 245.835056 
L 607.183673 246.604402 
L 608.447055 248.31631 
L 610.08202 250.467482 
L 611.048136 251.390607 
L 611.865618 251.888258 
L 612.608784 252.093274 
L 613.35195 252.053249 
L 614.095116 251.764312 
L 614.838282 251.227176 
L 615.655765 250.357308 
L 616.621881 248.988693 
L 617.95958 246.64589 
L 619.743178 243.545968 
L 620.486344 242.655088 
L 621.080877 242.243316 
L 621.601093 242.132903 
L 622.121309 242.257135 
L 622.715842 242.658997 
L 623.459008 243.461989 
L 624.871023 245.417119 
L 626.208722 247.108152 
L 627.100521 247.890217 
L 627.843687 248.263207 
L 628.512537 248.360736 
L 629.181386 248.225591 
L 629.850236 247.834789 
L 630.593402 247.114502 
L 631.410884 246.001016 
L 632.451317 244.168041 
L 635.423981 238.600278 
L 636.09283 237.966235 
L 636.613046 237.763136 
L 637.133262 237.819926 
L 637.653479 238.115368 
L 638.322328 238.775898 
L 639.437077 240.261792 
L 640.700459 241.856144 
L 641.517942 242.588876 
L 642.186791 242.933707 
L 642.781324 243.020032 
L 643.375857 242.885779 
L 643.97039 242.517887 
L 644.639239 241.814292 
L 645.382405 240.701721 
L 646.348521 238.801624 
L 648.132119 234.611085 
L 649.172552 232.504773 
L 649.841401 231.604889 
L 650.361617 231.225779 
L 650.881833 231.133654 
L 651.40205 231.297269 
L 651.996582 231.74416 
L 653.037015 232.88673 
L 654.151764 234.037344 
L 654.820613 234.453793 
L 655.415146 234.576564 
L 655.935362 234.463085 
L 656.455578 234.114149 
L 657.050111 233.419819 
L 657.718961 232.275415 
L 658.536443 230.385081 
L 659.651192 227.097064 
L 661.732057 220.849005 
L 662.475223 219.380751 
L 663.144073 218.538316 
L 663.738605 218.126635 
L 664.779038 218.009612 
L 665.670837 217.784014 
L 666.116737 217.464066 
L 666.636953 216.778339 
L 667.380119 215.247215 
L 667.974652 213.658036 
L 669.386667 206.427425 
L 670.352783 199.544603 
L 671.318899 191.496061 
L 671.764798 187.302172 
L 672.656597 176.91012 
L 673.325447 166.649399 
L 673.91998 153.812305 
L 674.365879 139.442802 
L 674.737462 120.187396 
L 675.109045 88.914295 
L 675.480628 39.144454 
L 675.629261 19.8 
L 675.629261 19.8 
" clip-path="url(#p310878ba4a)" style="fill: none; stroke: #1f77b4; stroke-width: 1.5; stroke-linecap: square"/>
   </g>
   <g id="line2d_16">
    <path d="M 36.465625 181.69339 
L 706.065625 181.69339 
" clip-path="url(#p310878ba4a)" style="fill: none; stroke-dasharray: 2.22,0.96; stroke-dashoffset: 0; stroke: #ff0000; stroke-width: 0.6"/>
   </g>
   <g id="line2d_17">
    <path d="M 66.901989 270.178776 
L 67.273572 269.977965 
L 68.908537 268.833502 
L 70.692135 267.292179 
L 74.333649 264.039576 
L 75.299764 263.531675 
L 76.117247 263.342344 
L 76.860413 263.383482 
L 77.677896 263.658066 
L 78.644011 264.246911 
L 79.907394 265.30824 
L 84.069123 269.012306 
L 85.704089 270.072632 
L 87.339054 270.861657 
L 88.974019 271.398051 
L 90.608984 271.705445 
L 92.318266 271.799051 
L 94.027548 271.664391 
L 95.662513 271.318279 
L 97.297478 270.740787 
L 98.858127 269.953803 
L 100.418775 268.920523 
L 102.053741 267.569875 
L 106.810003 263.41145 
L 107.701802 263.07716 
L 108.444968 263.01903 
L 109.188134 263.168681 
L 110.005617 263.554381 
L 111.046049 264.309534 
L 112.681014 265.820559 
L 115.282095 268.200097 
L 116.917061 269.387911 
L 118.477709 270.256409 
L 120.038358 270.877648 
L 121.673323 271.284522 
L 123.308288 271.462055 
L 124.943253 271.418183 
L 126.578219 271.153 
L 128.138867 270.681719 
L 129.699516 269.977217 
L 131.260164 269.022907 
L 132.820813 267.808205 
L 134.753045 265.998687 
L 137.279809 263.650565 
L 138.320241 262.995063 
L 139.137724 262.72293 
L 139.88089 262.693297 
L 140.624056 262.874649 
L 141.515855 263.343061 
L 142.630604 264.217855 
L 144.785786 266.288236 
L 146.792334 268.078533 
L 148.427299 269.236977 
L 149.987948 270.069232 
L 151.548596 270.647619 
L 153.109245 270.992499 
L 154.74421 271.120396 
L 156.379175 271.015138 
L 157.939824 270.694869 
L 159.500473 270.144966 
L 160.986805 269.389712 
L 162.547453 268.3389 
L 164.182418 266.95402 
L 168.864364 262.73671 
L 169.681847 262.40827 
L 170.425013 262.327606 
L 171.168179 262.463633 
L 171.985661 262.845704 
L 173.026094 263.611591 
L 174.586742 265.085903 
L 177.26214 267.597467 
L 178.897105 268.802712 
L 180.457754 269.669474 
L 181.944086 270.247375 
L 183.504734 270.613487 
L 185.065383 270.748999 
L 186.626032 270.659623 
L 188.18668 270.3435 
L 189.673012 269.818774 
L 191.159344 269.058342 
L 192.645676 268.049132 
L 194.206325 266.721536 
L 196.584456 264.348815 
L 198.219421 262.858251 
L 199.185537 262.249415 
L 200.00302 261.981854 
L 200.746186 261.96682 
L 201.489352 262.171138 
L 202.381151 262.674064 
L 203.4959 263.59424 
L 208.772379 268.360261 
L 210.258711 269.222981 
L 211.745043 269.831998 
L 213.231375 270.204163 
L 214.717707 270.354035 
L 216.204039 270.287297 
L 217.690371 270.002989 
L 219.176703 269.490212 
L 220.663035 268.731866 
L 222.149367 267.714824 
L 223.710015 266.369632 
L 226.01383 264.034483 
L 227.648795 262.505319 
L 228.614911 261.872161 
L 229.432393 261.586789 
L 230.175559 261.559996 
L 230.918725 261.758055 
L 231.736208 262.209503 
L 232.77664 263.052837 
L 234.708872 264.981694 
L 236.789737 266.94476 
L 238.350385 268.111849 
L 239.836717 268.94543 
L 241.323049 269.516428 
L 242.809381 269.841818 
L 244.295713 269.933991 
L 245.782045 269.796798 
L 247.268377 269.426438 
L 248.680393 268.845703 
L 250.092408 268.027361 
L 251.57874 266.900377 
L 253.213705 265.366483 
L 256.855219 261.812867 
L 257.747018 261.312861 
L 258.490184 261.126022 
L 259.23335 261.170369 
L 259.976516 261.440597 
L 260.868315 262.020829 
L 262.057381 263.093733 
L 266.144794 267.027721 
L 267.631126 268.046172 
L 269.043141 268.752521 
L 270.455157 269.21541 
L 271.867172 269.448824 
L 273.279188 269.460575 
L 274.691203 269.251911 
L 276.103218 268.816541 
L 277.515234 268.140598 
L 278.927249 267.211596 
L 280.413581 265.958629 
L 282.271496 264.067767 
L 284.649627 261.672683 
L 285.615743 261.006557 
L 286.433226 260.704025 
L 287.176392 260.672955 
L 287.919558 260.877961 
L 288.73704 261.348099 
L 289.777473 262.225622 
L 291.784021 264.297105 
L 293.716253 266.157503 
L 295.202585 267.290557 
L 296.6146 268.093652 
L 298.026615 268.636259 
L 299.438631 268.931976 
L 300.850646 268.990319 
L 302.188345 268.828975 
L 303.526044 268.452971 
L 304.863743 267.851583 
L 306.201441 267.013551 
L 307.613457 265.868367 
L 309.248422 264.24328 
L 312.444036 260.983281 
L 313.335835 260.421122 
L 314.079001 260.187733 
L 314.822167 260.196131 
L 315.565333 260.444762 
L 316.382816 260.961664 
L 317.497565 261.96252 
L 322.105194 266.451574 
L 323.517209 267.362256 
L 324.854908 267.968779 
L 326.192607 268.336164 
L 327.530306 268.474144 
L 328.868005 268.386805 
L 330.205703 268.072478 
L 331.543402 267.522481 
L 332.881101 266.725218 
L 334.293116 265.609803 
L 335.853765 264.074612 
L 339.495278 260.321632 
L 340.387078 259.807725 
L 341.130244 259.631419 
L 341.799093 259.687404 
L 342.542259 259.980851 
L 343.434058 260.60664 
L 344.623124 261.753096 
L 348.264637 265.463103 
L 349.676653 266.506192 
L 351.014351 267.223177 
L 352.35205 267.682261 
L 353.615432 267.888308 
L 354.878815 267.878463 
L 356.142197 267.653091 
L 357.405579 267.207031 
L 358.668961 266.530849 
L 360.00666 265.556607 
L 361.418675 264.248175 
L 363.350907 262.117172 
L 365.208822 260.147635 
L 366.174938 259.426143 
L 366.918104 259.115452 
L 367.586953 259.050549 
L 368.255803 259.195362 
L 368.998969 259.584144 
L 369.965084 260.375863 
L 371.451417 261.945797 
L 373.903864 264.512985 
L 375.31588 265.662982 
L 376.653579 266.468924 
L 377.916961 266.976463 
L 379.180343 267.245619 
L 380.443725 267.282248 
L 381.707107 267.087626 
L 382.97049 266.657626 
L 384.233872 265.983542 
L 385.497254 265.058921 
L 386.909269 263.737804 
L 388.767184 261.652832 
L 390.699416 259.545434 
L 391.665532 258.804058 
L 392.408698 258.485578 
L 393.077547 258.420671 
L 393.746397 258.572104 
L 394.489563 258.974679 
L 395.381362 259.718542 
L 396.793377 261.228875 
L 399.320142 263.925764 
L 400.732157 265.085275 
L 401.995539 265.84762 
L 403.258921 266.348411 
L 404.447987 266.586895 
L 405.637053 266.603923 
L 406.826118 266.400076 
L 408.015184 265.971729 
L 409.204249 265.311995 
L 410.467632 264.352955 
L 411.879647 262.979936 
L 413.811879 260.739137 
L 415.52116 258.850671 
L 416.487276 258.10018 
L 417.230442 257.786099 
L 417.899292 257.733892 
L 418.568141 257.904983 
L 419.311307 258.334596 
L 420.277423 259.187254 
L 421.912388 261.011842 
L 423.993253 263.249017 
L 425.330952 264.371582 
L 426.594334 265.148666 
L 427.783399 265.624901 
L 428.972465 265.85836 
L 430.087214 265.860019 
L 431.201963 265.651883 
L 432.391029 265.195209 
L 433.580094 264.490157 
L 434.843477 263.466417 
L 436.255492 262.009291 
L 440.417222 257.429238 
L 441.160388 257.059923 
L 441.829237 256.962935 
L 442.498086 257.098502 
L 443.241252 257.502874 
L 444.133052 258.271263 
L 445.545067 259.846032 
L 447.923198 262.488313 
L 449.260897 263.630299 
L 450.449963 264.370195 
L 451.639028 264.845245 
L 452.753777 265.052941 
L 453.868526 265.032426 
L 454.983275 264.78318 
L 456.098024 264.301898 
L 457.28709 263.528172 
L 458.550472 262.414005 
L 459.962487 260.850247 
L 463.455368 256.803852 
L 464.27285 256.291856 
L 464.9417 256.120898 
L 465.610549 256.19164 
L 466.279398 256.495071 
L 467.096881 257.133948 
L 468.21163 258.325051 
L 471.48156 262.00712 
L 472.744943 263.021183 
L 473.859692 263.651455 
L 474.974441 264.030462 
L 476.014873 264.159171 
L 477.055305 264.071849 
L 478.095738 263.767731 
L 479.210487 263.198037 
L 480.325236 262.373653 
L 481.588618 261.141199 
L 483.07495 259.356422 
L 485.676031 256.186997 
L 486.56783 255.488834 
L 487.23668 255.218702 
L 487.905529 255.196876 
L 488.574379 255.423664 
L 489.317545 255.935309 
L 490.28366 256.904194 
L 494.66834 261.728515 
L 495.783089 262.467491 
L 496.823521 262.912344 
L 497.863954 263.120256 
L 498.904386 263.092033 
L 499.944818 262.82688 
L 500.985251 262.321055 
L 502.1 261.510142 
L 503.289065 260.348367 
L 504.701081 258.632219 
L 507.599428 255.00253 
L 508.416911 254.379499 
L 509.08576 254.130307 
L 509.680293 254.128728 
L 510.349142 254.372166 
L 511.092308 254.911836 
L 512.058424 255.92332 
L 516.071521 260.494381 
L 517.18627 261.281272 
L 518.226702 261.750578 
L 519.192818 261.953857 
L 520.158934 261.932849 
L 521.125049 261.687013 
L 522.091165 261.215009 
L 523.131598 260.453321 
L 524.246347 259.354328 
L 525.584045 257.701053 
L 528.705343 253.676723 
L 529.448509 253.126106 
L 530.117358 252.897422 
L 530.711891 252.926364 
L 531.306424 253.169216 
L 532.04959 253.736509 
L 533.015705 254.79175 
L 536.657219 259.082727 
L 537.771968 259.917705 
L 538.738084 260.384253 
L 539.704199 260.607099 
L 540.595999 260.595315 
L 541.487798 260.374287 
L 542.453914 259.896308 
L 543.42003 259.166983 
L 544.460462 258.104213 
L 545.649528 256.557464 
L 548.547875 252.598903 
L 549.439674 251.810384 
L 550.108524 251.508284 
L 550.703056 251.496017 
L 551.297589 251.723986 
L 552.040755 252.290118 
L 553.081188 253.404597 
L 554.790469 255.59604 
L 556.202485 257.286272 
L 557.242917 258.19984 
L 558.209033 258.771346 
L 559.100832 259.053998 
L 559.992631 259.093336 
L 560.810114 258.91401 
L 561.701913 258.483383 
L 562.668029 257.749469 
L 563.708461 256.680561 
L 564.897527 255.131982 
L 568.241774 250.502746 
L 568.98494 249.977142 
L 569.579473 249.817707 
L 570.174006 249.903744 
L 570.768538 250.221833 
L 571.511704 250.891764 
L 572.552137 252.167938 
L 575.153218 255.478869 
L 576.19365 256.403959 
L 577.085449 256.92991 
L 577.902932 257.182332 
L 578.720415 257.21013 
L 579.537897 257.011074 
L 580.35538 256.584643 
L 581.247179 255.863407 
L 582.287611 254.702681 
L 583.550994 252.910184 
L 586.375024 248.718745 
L 587.11819 248.077595 
L 587.712723 247.835317 
L 588.232939 247.838464 
L 588.827472 248.082101 
L 589.496322 248.624029 
L 590.388121 249.663714 
L 593.658051 253.786115 
L 594.624167 254.511831 
L 595.44165 254.861862 
L 596.184816 254.96026 
L 596.927982 254.845367 
L 597.671148 254.515909 
L 598.48863 253.907541 
L 599.380429 252.959373 
L 600.420862 251.519091 
L 602.055827 248.798988 
L 603.467843 246.600172 
L 604.211009 245.794749 
L 604.805541 245.425655 
L 605.325758 245.331331 
L 605.845974 245.452957 
L 606.440507 245.835056 
L 607.183673 246.604402 
L 608.447055 248.31631 
L 610.08202 250.467482 
L 611.048136 251.390607 
L 611.865618 251.888258 
L 612.608784 252.093274 
L 613.35195 252.053249 
L 614.095116 251.764312 
L 614.838282 251.227176 
L 615.655765 250.357308 
L 616.621881 248.988693 
L 617.95958 246.64589 
L 619.743178 243.545968 
L 620.486344 242.655088 
L 621.080877 242.243316 
L 621.601093 242.132903 
L 622.121309 242.257135 
L 622.715842 242.658997 
L 623.459008 243.461989 
L 624.871023 245.417119 
L 626.208722 247.108152 
L 627.100521 247.890217 
L 627.843687 248.263207 
L 628.512537 248.360736 
L 629.181386 248.225591 
L 629.850236 247.834789 
L 630.593402 247.114502 
L 631.410884 246.001016 
L 632.451317 244.168041 
L 635.423981 238.600278 
L 636.09283 237.966235 
L 636.613046 237.763136 
L 637.133262 237.819926 
L 637.653479 238.115368 
L 638.322328 238.775898 
L 639.437077 240.261792 
L 640.700459 241.856144 
L 641.517942 242.588876 
L 642.186791 242.933707 
L 642.781324 243.020032 
L 643.375857 242.885779 
L 643.97039 242.517887 
L 644.639239 241.814292 
L 645.382405 240.701721 
L 646.348521 238.801624 
L 648.132119 234.611085 
L 649.172552 232.504773 
L 649.841401 231.604889 
L 650.361617 231.225779 
L 650.881833 231.133654 
L 651.40205 231.297269 
L 651.996582 231.74416 
L 653.037015 232.88673 
L 654.151764 234.037344 
L 654.820613 234.453793 
L 655.415146 234.576564 
L 655.935362 234.463085 
L 656.455578 234.114149 
L 657.050111 233.419819 
L 657.718961 232.275415 
L 658.536443 230.385081 
L 659.651192 227.097064 
L 661.732057 220.849005 
L 662.475223 219.380751 
L 663.144073 218.538316 
L 663.738605 218.126635 
L 664.779038 218.009612 
L 665.670837 217.784014 
L 666.116737 217.464066 
L 666.636953 216.778339 
L 667.380119 215.247215 
L 667.974652 213.658036 
L 669.386667 206.427425 
L 670.352783 199.544603 
L 671.318899 191.496061 
L 671.764798 187.302172 
L 672.210698 182.361324 
L 672.210698 182.361324 
" clip-path="url(#p310878ba4a)" style="fill: none; stroke: #ff7f0e; stroke-width: 1.5; stroke-linecap: square"/>
   </g>
   <g id="patch_3">
    <path d="M 36.465625 284.4 
L 36.465625 7.2 
" style="fill: none; stroke: #000000; stroke-width: 0.8; stroke-linejoin: miter; stroke-linecap: square"/>
   </g>
   <g id="patch_4">
    <path d="M 706.065625 284.4 
L 706.065625 7.2 
" style="fill: none; stroke: #000000; stroke-width: 0.8; stroke-linejoin: miter; stroke-linecap: square"/>
   </g>
   <g id="patch_5">
    <path d="M 36.465625 284.4 
L 706.065625 284.4 
" style="fill: none; stroke: #000000; stroke-width: 0.8; stroke-linejoin: miter; stroke-linecap: square"/>
   </g>
   <g id="patch_6">
    <path d="M 36.465625 7.2 
L 706.065625 7.2 
" style="fill: none; stroke: #000000; stroke-width: 0.8; stroke-linejoin: miter; stroke-linecap: square"/>
   </g>
   <g id="legend_1">
    <g id="patch_7">
     <path d="M 43.465625 73.9125 
L 206.465625 73.9125 
Q 208.465625 73.9125 208.465625 71.9125 
L 208.465625 14.2 
Q 208.465625 12.2 206.465625 12.2 
L 43.465625 12.2 
Q 41.465625 12.2 41.465625 14.2 
L 41.465625 71.9125 
Q 41.465625 73.9125 43.465625 73.9125 
z
" style="fill: #ffffff; opacity: 0.8; stroke: #cccccc; stroke-linejoin: miter"/>
    </g>
    <g id="line2d_18">
     <path d="M 45.465625 20.298438 
L 55.465625 20.298438 
L 65.465625 20.298438 
" style="fill: none; stroke: #1f77b4; stroke-width: 1.5; stroke-linecap: square"/>
    </g>
    <g id="text_15">
     <!-- Mf before ISCO cut: $e$=0.1 -->
     <g transform="translate(73.465625 23.798438) scale(0.1 -0.1)">
      <defs>
       <path id="DejaVuSans-4d" d="M 628 4666 
L 1569 4666 
L 2759 1491 
L 3956 4666 
L 4897 4666 
L 4897 0 
L 4281 0 
L 4281 4097 
L 3078 897 
L 2444 897 
L 1241 4097 
L 1241 0 
L 628 0 
L 628 4666 
z
" transform="scale(0.015625)"/>
       <path id="DejaVuSans-66" d="M 2375 4863 
L 2375 4384 
L 1825 4384 
Q 1516 4384 1395 4259 
Q 1275 4134 1275 3809 
L 1275 3500 
L 2222 3500 
L 2222 3053 
L 1275 3053 
L 1275 0 
L 697 0 
L 697 3053 
L 147 3053 
L 147 3500 
L 697 3500 
L 697 3744 
Q 697 4328 969 4595 
Q 1241 4863 1831 4863 
L 2375 4863 
z
" transform="scale(0.015625)"/>
       <path id="DejaVuSans-20" transform="scale(0.015625)"/>
       <path id="DejaVuSans-62" d="M 3116 1747 
Q 3116 2381 2855 2742 
Q 2594 3103 2138 3103 
Q 1681 3103 1420 2742 
Q 1159 2381 1159 1747 
Q 1159 1113 1420 752 
Q 1681 391 2138 391 
Q 2594 391 2855 752 
Q 3116 1113 3116 1747 
z
M 1159 2969 
Q 1341 3281 1617 3432 
Q 1894 3584 2278 3584 
Q 2916 3584 3314 3078 
Q 3713 2572 3713 1747 
Q 3713 922 3314 415 
Q 2916 -91 2278 -91 
Q 1894 -91 1617 61 
Q 1341 213 1159 525 
L 1159 0 
L 581 0 
L 581 4863 
L 1159 4863 
L 1159 2969 
z
" transform="scale(0.015625)"/>
       <path id="DejaVuSans-65" d="M 3597 1894 
L 3597 1613 
L 953 1613 
Q 991 1019 1311 708 
Q 1631 397 2203 397 
Q 2534 397 2845 478 
Q 3156 559 3463 722 
L 3463 178 
Q 3153 47 2828 -22 
Q 2503 -91 2169 -91 
Q 1331 -91 842 396 
Q 353 884 353 1716 
Q 353 2575 817 3079 
Q 1281 3584 2069 3584 
Q 2775 3584 3186 3129 
Q 3597 2675 3597 1894 
z
M 3022 2063 
Q 3016 2534 2758 2815 
Q 2500 3097 2075 3097 
Q 1594 3097 1305 2825 
Q 1016 2553 972 2059 
L 3022 2063 
z
" transform="scale(0.015625)"/>
       <path id="DejaVuSans-6f" d="M 1959 3097 
Q 1497 3097 1228 2736 
Q 959 2375 959 1747 
Q 959 1119 1226 758 
Q 1494 397 1959 397 
Q 2419 397 2687 759 
Q 2956 1122 2956 1747 
Q 2956 2369 2687 2733 
Q 2419 3097 1959 3097 
z
M 1959 3584 
Q 2709 3584 3137 3096 
Q 3566 2609 3566 1747 
Q 3566 888 3137 398 
Q 2709 -91 1959 -91 
Q 1206 -91 779 398 
Q 353 888 353 1747 
Q 353 2609 779 3096 
Q 1206 3584 1959 3584 
z
" transform="scale(0.015625)"/>
       <path id="DejaVuSans-72" d="M 2631 2963 
Q 2534 3019 2420 3045 
Q 2306 3072 2169 3072 
Q 1681 3072 1420 2755 
Q 1159 2438 1159 1844 
L 1159 0 
L 581 0 
L 581 3500 
L 1159 3500 
L 1159 2956 
Q 1341 3275 1631 3429 
Q 1922 3584 2338 3584 
Q 2397 3584 2469 3576 
Q 2541 3569 2628 3553 
L 2631 2963 
z
" transform="scale(0.015625)"/>
       <path id="DejaVuSans-49" d="M 628 4666 
L 1259 4666 
L 1259 0 
L 628 0 
L 628 4666 
z
" transform="scale(0.015625)"/>
       <path id="DejaVuSans-53" d="M 3425 4513 
L 3425 3897 
Q 3066 4069 2747 4153 
Q 2428 4238 2131 4238 
Q 1616 4238 1336 4038 
Q 1056 3838 1056 3469 
Q 1056 3159 1242 3001 
Q 1428 2844 1947 2747 
L 2328 2669 
Q 3034 2534 3370 2195 
Q 3706 1856 3706 1288 
Q 3706 609 3251 259 
Q 2797 -91 1919 -91 
Q 1588 -91 1214 -16 
Q 841 59 441 206 
L 441 856 
Q 825 641 1194 531 
Q 1563 422 1919 422 
Q 2459 422 2753 634 
Q 3047 847 3047 1241 
Q 3047 1584 2836 1778 
Q 2625 1972 2144 2069 
L 1759 2144 
Q 1053 2284 737 2584 
Q 422 2884 422 3419 
Q 422 4038 858 4394 
Q 1294 4750 2059 4750 
Q 2388 4750 2728 4690 
Q 3069 4631 3425 4513 
z
" transform="scale(0.015625)"/>
       <path id="DejaVuSans-43" d="M 4122 4306 
L 4122 3641 
Q 3803 3938 3442 4084 
Q 3081 4231 2675 4231 
Q 1875 4231 1450 3742 
Q 1025 3253 1025 2328 
Q 1025 1406 1450 917 
Q 1875 428 2675 428 
Q 3081 428 3442 575 
Q 3803 722 4122 1019 
L 4122 359 
Q 3791 134 3420 21 
Q 3050 -91 2638 -91 
Q 1578 -91 968 557 
Q 359 1206 359 2328 
Q 359 3453 968 4101 
Q 1578 4750 2638 4750 
Q 3056 4750 3426 4639 
Q 3797 4528 4122 4306 
z
" transform="scale(0.015625)"/>
       <path id="DejaVuSans-4f" d="M 2522 4238 
Q 1834 4238 1429 3725 
Q 1025 3213 1025 2328 
Q 1025 1447 1429 934 
Q 1834 422 2522 422 
Q 3209 422 3611 934 
Q 4013 1447 4013 2328 
Q 4013 3213 3611 3725 
Q 3209 4238 2522 4238 
z
M 2522 4750 
Q 3503 4750 4090 4092 
Q 4678 3434 4678 2328 
Q 4678 1225 4090 567 
Q 3503 -91 2522 -91 
Q 1538 -91 948 565 
Q 359 1222 359 2328 
Q 359 3434 948 4092 
Q 1538 4750 2522 4750 
z
" transform="scale(0.015625)"/>
       <path id="DejaVuSans-63" d="M 3122 3366 
L 3122 2828 
Q 2878 2963 2633 3030 
Q 2388 3097 2138 3097 
Q 1578 3097 1268 2742 
Q 959 2388 959 1747 
Q 959 1106 1268 751 
Q 1578 397 2138 397 
Q 2388 397 2633 464 
Q 2878 531 3122 666 
L 3122 134 
Q 2881 22 2623 -34 
Q 2366 -91 2075 -91 
Q 1284 -91 818 406 
Q 353 903 353 1747 
Q 353 2603 823 3093 
Q 1294 3584 2113 3584 
Q 2378 3584 2631 3529 
Q 2884 3475 3122 3366 
z
" transform="scale(0.015625)"/>
       <path id="DejaVuSans-75" d="M 544 1381 
L 544 3500 
L 1119 3500 
L 1119 1403 
Q 1119 906 1312 657 
Q 1506 409 1894 409 
Q 2359 409 2629 706 
Q 2900 1003 2900 1516 
L 2900 3500 
L 3475 3500 
L 3475 0 
L 2900 0 
L 2900 538 
Q 2691 219 2414 64 
Q 2138 -91 1772 -91 
Q 1169 -91 856 284 
Q 544 659 544 1381 
z
M 1991 3584 
L 1991 3584 
z
" transform="scale(0.015625)"/>
       <path id="DejaVuSans-74" d="M 1172 4494 
L 1172 3500 
L 2356 3500 
L 2356 3053 
L 1172 3053 
L 1172 1153 
Q 1172 725 1289 603 
Q 1406 481 1766 481 
L 2356 481 
L 2356 0 
L 1766 0 
Q 1100 0 847 248 
Q 594 497 594 1153 
L 594 3053 
L 172 3053 
L 172 3500 
L 594 3500 
L 594 4494 
L 1172 4494 
z
" transform="scale(0.015625)"/>
       <path id="DejaVuSans-3a" d="M 750 794 
L 1409 794 
L 1409 0 
L 750 0 
L 750 794 
z
M 750 3309 
L 1409 3309 
L 1409 2516 
L 750 2516 
L 750 3309 
z
" transform="scale(0.015625)"/>
       <path id="DejaVuSans-Oblique-65" d="M 3078 2063 
Q 3088 2113 3092 2166 
Q 3097 2219 3097 2272 
Q 3097 2653 2873 2875 
Q 2650 3097 2266 3097 
Q 1838 3097 1509 2826 
Q 1181 2556 1013 2059 
L 3078 2063 
z
M 3578 1613 
L 903 1613 
Q 884 1494 878 1425 
Q 872 1356 872 1306 
Q 872 872 1139 634 
Q 1406 397 1894 397 
Q 2269 397 2603 481 
Q 2938 566 3225 728 
L 3116 159 
Q 2806 34 2476 -28 
Q 2147 -91 1806 -91 
Q 1078 -91 686 257 
Q 294 606 294 1247 
Q 294 1794 489 2264 
Q 684 2734 1063 3103 
Q 1306 3334 1642 3459 
Q 1978 3584 2356 3584 
Q 2950 3584 3301 3228 
Q 3653 2872 3653 2272 
Q 3653 2128 3634 1964 
Q 3616 1800 3578 1613 
z
" transform="scale(0.015625)"/>
       <path id="DejaVuSans-3d" d="M 678 2906 
L 4684 2906 
L 4684 2381 
L 678 2381 
L 678 2906 
z
M 678 1631 
L 4684 1631 
L 4684 1100 
L 678 1100 
L 678 1631 
z
" transform="scale(0.015625)"/>
      </defs>
      <use xlink:href="#DejaVuSans-4d" transform="translate(0 0.015625)"/>
      <use xlink:href="#DejaVuSans-66" transform="translate(86.279297 0.015625)"/>
      <use xlink:href="#DejaVuSans-20" transform="translate(121.484375 0.015625)"/>
      <use xlink:href="#DejaVuSans-62" transform="translate(153.271484 0.015625)"/>
      <use xlink:href="#DejaVuSans-65" transform="translate(216.748047 0.015625)"/>
      <use xlink:href="#DejaVuSans-66" transform="translate(278.271484 0.015625)"/>
      <use xlink:href="#DejaVuSans-6f" transform="translate(313.476562 0.015625)"/>
      <use xlink:href="#DejaVuSans-72" transform="translate(374.658203 0.015625)"/>
      <use xlink:href="#DejaVuSans-65" transform="translate(415.771484 0.015625)"/>
      <use xlink:href="#DejaVuSans-20" transform="translate(477.294922 0.015625)"/>
      <use xlink:href="#DejaVuSans-49" transform="translate(509.082031 0.015625)"/>
      <use xlink:href="#DejaVuSans-53" transform="translate(538.574219 0.015625)"/>
      <use xlink:href="#DejaVuSans-43" transform="translate(602.050781 0.015625)"/>
      <use xlink:href="#DejaVuSans-4f" transform="translate(671.875 0.015625)"/>
      <use xlink:href="#DejaVuSans-20" transform="translate(750.585938 0.015625)"/>
      <use xlink:href="#DejaVuSans-63" transform="translate(782.373047 0.015625)"/>
      <use xlink:href="#DejaVuSans-75" transform="translate(837.353516 0.015625)"/>
      <use xlink:href="#DejaVuSans-74" transform="translate(900.732422 0.015625)"/>
      <use xlink:href="#DejaVuSans-3a" transform="translate(939.941406 0.015625)"/>
      <use xlink:href="#DejaVuSans-20" transform="translate(973.632812 0.015625)"/>
      <use xlink:href="#DejaVuSans-Oblique-65" transform="translate(1005.419922 0.015625)"/>
      <use xlink:href="#DejaVuSans-3d" transform="translate(1066.943359 0.015625)"/>
      <use xlink:href="#DejaVuSans-30" transform="translate(1150.732422 0.015625)"/>
      <use xlink:href="#DejaVuSans-2e" transform="translate(1214.355469 0.015625)"/>
      <use xlink:href="#DejaVuSans-31" transform="translate(1246.142578 0.015625)"/>
     </g>
    </g>
    <g id="line2d_19">
     <path d="M 45.465625 34.976563 
L 55.465625 34.976563 
L 65.465625 34.976563 
" style="fill: none; stroke-dasharray: 2.22,0.96; stroke-dashoffset: 0; stroke: #ff0000; stroke-width: 0.6"/>
    </g>
    <g id="text_16">
     <!-- Mf ISCO $e$=0 -->
     <g transform="translate(73.465625 38.476563) scale(0.1 -0.1)">
      <use xlink:href="#DejaVuSans-4d" transform="translate(0 0.015625)"/>
      <use xlink:href="#DejaVuSans-66" transform="translate(86.279297 0.015625)"/>
      <use xlink:href="#DejaVuSans-20" transform="translate(121.484375 0.015625)"/>
      <use xlink:href="#DejaVuSans-49" transform="translate(153.271484 0.015625)"/>
      <use xlink:href="#DejaVuSans-53" transform="translate(182.763672 0.015625)"/>
      <use xlink:href="#DejaVuSans-43" transform="translate(246.240234 0.015625)"/>
      <use xlink:href="#DejaVuSans-4f" transform="translate(316.064453 0.015625)"/>
      <use xlink:href="#DejaVuSans-20" transform="translate(394.775391 0.015625)"/>
      <use xlink:href="#DejaVuSans-Oblique-65" transform="translate(426.5625 0.015625)"/>
      <use xlink:href="#DejaVuSans-3d" transform="translate(488.085938 0.015625)"/>
      <use xlink:href="#DejaVuSans-30" transform="translate(571.875 0.015625)"/>
     </g>
    </g>
    <g id="PathCollection_2">
     <g>
      <use xlink:href="#mf01d3ccaee" x="55.465625" y="50.529688" style="fill: #ff0000; stroke: #ff0000"/>
     </g>
    </g>
    <g id="text_17">
     <!-- ISCO cut -->
     <g transform="translate(73.465625 53.154688) scale(0.1 -0.1)">
      <use xlink:href="#DejaVuSans-49"/>
      <use xlink:href="#DejaVuSans-53" transform="translate(29.492188 0)"/>
      <use xlink:href="#DejaVuSans-43" transform="translate(92.96875 0)"/>
      <use xlink:href="#DejaVuSans-4f" transform="translate(162.792969 0)"/>
      <use xlink:href="#DejaVuSans-20" transform="translate(241.503906 0)"/>
      <use xlink:href="#DejaVuSans-63" transform="translate(273.291016 0)"/>
      <use xlink:href="#DejaVuSans-75" transform="translate(328.271484 0)"/>
      <use xlink:href="#DejaVuSans-74" transform="translate(391.650391 0)"/>
     </g>
    </g>
    <g id="line2d_20">
     <path d="M 45.465625 64.332813 
L 55.465625 64.332813 
L 65.465625 64.332813 
" style="fill: none; stroke: #ff7f0e; stroke-width: 1.5; stroke-linecap: square"/>
    </g>
    <g id="text_18">
     <!-- Mf after ISCO cut: $e$=0.1  -->
     <g transform="translate(73.465625 67.832813) scale(0.1 -0.1)">
      <defs>
       <path id="DejaVuSans-61" d="M 2194 1759 
Q 1497 1759 1228 1600 
Q 959 1441 959 1056 
Q 959 750 1161 570 
Q 1363 391 1709 391 
Q 2188 391 2477 730 
Q 2766 1069 2766 1631 
L 2766 1759 
L 2194 1759 
z
M 3341 1997 
L 3341 0 
L 2766 0 
L 2766 531 
Q 2569 213 2275 61 
Q 1981 -91 1556 -91 
Q 1019 -91 701 211 
Q 384 513 384 1019 
Q 384 1609 779 1909 
Q 1175 2209 1959 2209 
L 2766 2209 
L 2766 2266 
Q 2766 2663 2505 2880 
Q 2244 3097 1772 3097 
Q 1472 3097 1187 3025 
Q 903 2953 641 2809 
L 641 3341 
Q 956 3463 1253 3523 
Q 1550 3584 1831 3584 
Q 2591 3584 2966 3190 
Q 3341 2797 3341 1997 
z
" transform="scale(0.015625)"/>
      </defs>
      <use xlink:href="#DejaVuSans-4d" transform="translate(0 0.015625)"/>
      <use xlink:href="#DejaVuSans-66" transform="translate(86.279297 0.015625)"/>
      <use xlink:href="#DejaVuSans-20" transform="translate(121.484375 0.015625)"/>
      <use xlink:href="#DejaVuSans-61" transform="translate(153.271484 0.015625)"/>
      <use xlink:href="#DejaVuSans-66" transform="translate(214.550781 0.015625)"/>
      <use xlink:href="#DejaVuSans-74" transform="translate(249.755859 0.015625)"/>
      <use xlink:href="#DejaVuSans-65" transform="translate(288.964844 0.015625)"/>
      <use xlink:href="#DejaVuSans-72" transform="translate(350.488281 0.015625)"/>
      <use xlink:href="#DejaVuSans-20" transform="translate(391.601562 0.015625)"/>
      <use xlink:href="#DejaVuSans-49" transform="translate(423.388672 0.015625)"/>
      <use xlink:href="#DejaVuSans-53" transform="translate(452.880859 0.015625)"/>
      <use xlink:href="#DejaVuSans-43" transform="translate(516.357422 0.015625)"/>
      <use xlink:href="#DejaVuSans-4f" transform="translate(586.181641 0.015625)"/>
      <use xlink:href="#DejaVuSans-20" transform="translate(664.892578 0.015625)"/>
      <use xlink:href="#DejaVuSans-63" transform="translate(696.679688 0.015625)"/>
      <use xlink:href="#DejaVuSans-75" transform="translate(751.660156 0.015625)"/>
      <use xlink:href="#DejaVuSans-74" transform="translate(815.039062 0.015625)"/>
      <use xlink:href="#DejaVuSans-3a" transform="translate(854.248047 0.015625)"/>
      <use xlink:href="#DejaVuSans-20" transform="translate(887.939453 0.015625)"/>
      <use xlink:href="#DejaVuSans-Oblique-65" transform="translate(919.726562 0.015625)"/>
      <use xlink:href="#DejaVuSans-3d" transform="translate(981.25 0.015625)"/>
      <use xlink:href="#DejaVuSans-30" transform="translate(1065.039062 0.015625)"/>
      <use xlink:href="#DejaVuSans-2e" transform="translate(1128.662109 0.015625)"/>
      <use xlink:href="#DejaVuSans-31" transform="translate(1160.449219 0.015625)"/>
      <use xlink:href="#DejaVuSans-20" transform="translate(1224.072266 0.015625)"/>
     </g>
    </g>
   </g>
  </g>
 </g>
 <defs>
  <clipPath id="p310878ba4a">
   <rect x="36.465625" y="7.2" width="669.6" height="277.2"/>
  </clipPath>
 </defs>
</svg>
