<?xml version="1.0" encoding="utf-8" standalone="no"?>
<!DOCTYPE svg PUBLIC "-//W3C//DTD SVG 1.1//EN"
  "http://www.w3.org/Graphics/SVG/1.1/DTD/svg11.dtd">
<svg xmlns:xlink="http://www.w3.org/1999/xlink" width="713.265625pt" height="308.278125pt" viewBox="0 0 713.265625 308.278125" xmlns="http://www.w3.org/2000/svg" version="1.1">
 <metadata>
  <rdf:RDF xmlns:dc="http://purl.org/dc/elements/1.1/" xmlns:cc="http://creativecommons.org/ns#" xmlns:rdf="http://www.w3.org/1999/02/22-rdf-syntax-ns#">
   <cc:Work>
    <dc:type rdf:resource="http://purl.org/dc/dcmitype/StillImage"/>
    <dc:date>2025-07-30T11:58:54.565120</dc:date>
    <dc:format>image/svg+xml</dc:format>
    <dc:creator>
     <cc:Agent>
      <dc:title>Matplotlib v3.10.3, https://matplotlib.org/</dc:title>
     </cc:Agent>
    </dc:creator>
   </cc:Work>
  </rdf:RDF>
 </metadata>
 <defs>
  <style type="text/css">*{stroke-linejoin: round; stroke-linecap: butt}</style>
 </defs>
 <g id="figure_1">
  <g id="patch_1">
   <path d="M 0 308.278125 
L 713.265625 308.278125 
L 713.265625 0 
L 0 0 
z
" style="fill: #ffffff"/>
  </g>
  <g id="axes_1">
   <g id="patch_2">
    <path d="M 36.465625 284.4 
L 706.065625 284.4 
L 706.065625 7.2 
L 36.465625 7.2 
z
" style="fill: #ffffff"/>
   </g>
   <g id="PathCollection_1">
    <defs>
     <path id="m2d83f2d2e8" d="M 0 1.224745 
C 0.324806 1.224745 0.636353 1.095698 0.866025 0.866025 
C 1.095698 0.636353 1.224745 0.324806 1.224745 0 
C 1.224745 -0.324806 1.095698 -0.636353 0.866025 -0.866025 
C 0.636353 -1.095698 0.324806 -1.224745 0 -1.224745 
C -0.324806 -1.224745 -0.636353 -1.095698 -0.866025 -0.866025 
C -1.095698 -0.636353 -1.224745 -0.324806 -1.224745 0 
C -1.224745 0.324806 -1.095698 0.636353 -0.866025 0.866025 
C -0.636353 1.095698 -0.324806 1.224745 0 1.224745 
z
" style="stroke: #ff0000"/>
    </defs>
    <g clip-path="url(#pe07b12c0dd)">
     <use xlink:href="#m2d83f2d2e8" x="674.98521" y="170.658576" style="fill: #ff0000; stroke: #ff0000"/>
    </g>
   </g>
   <g id="matplotlib.axis_1">
    <g id="xtick_1">
     <g id="line2d_1">
      <defs>
       <path id="m5da1cffb67" d="M 0 0 
L 0 3.5 
" style="stroke: #000000; stroke-width: 0.8"/>
      </defs>
      <g>
       <use xlink:href="#m5da1cffb67" x="75.973127" y="284.4" style="stroke: #000000; stroke-width: 0.8"/>
      </g>
     </g>
     <g id="text_1">
      <!-- −60000 -->
      <g transform="translate(55.877033 298.998438) scale(0.1 -0.1)">
       <defs>
        <path id="DejaVuSans-2212" d="M 678 2272 
L 4684 2272 
L 4684 1741 
L 678 1741 
L 678 2272 
z
" transform="scale(0.015625)"/>
        <path id="DejaVuSans-36" d="M 2113 2584 
Q 1688 2584 1439 2293 
Q 1191 2003 1191 1497 
Q 1191 994 1439 701 
Q 1688 409 2113 409 
Q 2538 409 2786 701 
Q 3034 994 3034 1497 
Q 3034 2003 2786 2293 
Q 2538 2584 2113 2584 
z
M 3366 4563 
L 3366 3988 
Q 3128 4100 2886 4159 
Q 2644 4219 2406 4219 
Q 1781 4219 1451 3797 
Q 1122 3375 1075 2522 
Q 1259 2794 1537 2939 
Q 1816 3084 2150 3084 
Q 2853 3084 3261 2657 
Q 3669 2231 3669 1497 
Q 3669 778 3244 343 
Q 2819 -91 2113 -91 
Q 1303 -91 875 529 
Q 447 1150 447 2328 
Q 447 3434 972 4092 
Q 1497 4750 2381 4750 
Q 2619 4750 2861 4703 
Q 3103 4656 3366 4563 
z
" transform="scale(0.015625)"/>
        <path id="DejaVuSans-30" d="M 2034 4250 
Q 1547 4250 1301 3770 
Q 1056 3291 1056 2328 
Q 1056 1369 1301 889 
Q 1547 409 2034 409 
Q 2525 409 2770 889 
Q 3016 1369 3016 2328 
Q 3016 3291 2770 3770 
Q 2525 4250 2034 4250 
z
M 2034 4750 
Q 2819 4750 3233 4129 
Q 3647 3509 3647 2328 
Q 3647 1150 3233 529 
Q 2819 -91 2034 -91 
Q 1250 -91 836 529 
Q 422 1150 422 2328 
Q 422 3509 836 4129 
Q 1250 4750 2034 4750 
z
" transform="scale(0.015625)"/>
       </defs>
       <use xlink:href="#DejaVuSans-2212"/>
       <use xlink:href="#DejaVuSans-36" transform="translate(83.789062 0)"/>
       <use xlink:href="#DejaVuSans-30" transform="translate(147.412109 0)"/>
       <use xlink:href="#DejaVuSans-30" transform="translate(211.035156 0)"/>
       <use xlink:href="#DejaVuSans-30" transform="translate(274.658203 0)"/>
       <use xlink:href="#DejaVuSans-30" transform="translate(338.28125 0)"/>
      </g>
     </g>
    </g>
    <g id="xtick_2">
     <g id="line2d_2">
      <g>
       <use xlink:href="#m5da1cffb67" x="175.915816" y="284.4" style="stroke: #000000; stroke-width: 0.8"/>
      </g>
     </g>
     <g id="text_2">
      <!-- −50000 -->
      <g transform="translate(155.819722 298.998438) scale(0.1 -0.1)">
       <defs>
        <path id="DejaVuSans-35" d="M 691 4666 
L 3169 4666 
L 3169 4134 
L 1269 4134 
L 1269 2991 
Q 1406 3038 1543 3061 
Q 1681 3084 1819 3084 
Q 2600 3084 3056 2656 
Q 3513 2228 3513 1497 
Q 3513 744 3044 326 
Q 2575 -91 1722 -91 
Q 1428 -91 1123 -41 
Q 819 9 494 109 
L 494 744 
Q 775 591 1075 516 
Q 1375 441 1709 441 
Q 2250 441 2565 725 
Q 2881 1009 2881 1497 
Q 2881 1984 2565 2268 
Q 2250 2553 1709 2553 
Q 1456 2553 1204 2497 
Q 953 2441 691 2322 
L 691 4666 
z
" transform="scale(0.015625)"/>
       </defs>
       <use xlink:href="#DejaVuSans-2212"/>
       <use xlink:href="#DejaVuSans-35" transform="translate(83.789062 0)"/>
       <use xlink:href="#DejaVuSans-30" transform="translate(147.412109 0)"/>
       <use xlink:href="#DejaVuSans-30" transform="translate(211.035156 0)"/>
       <use xlink:href="#DejaVuSans-30" transform="translate(274.658203 0)"/>
       <use xlink:href="#DejaVuSans-30" transform="translate(338.28125 0)"/>
      </g>
     </g>
    </g>
    <g id="xtick_3">
     <g id="line2d_3">
      <g>
       <use xlink:href="#m5da1cffb67" x="275.858505" y="284.4" style="stroke: #000000; stroke-width: 0.8"/>
      </g>
     </g>
     <g id="text_3">
      <!-- −40000 -->
      <g transform="translate(255.762411 298.998438) scale(0.1 -0.1)">
       <defs>
        <path id="DejaVuSans-34" d="M 2419 4116 
L 825 1625 
L 2419 1625 
L 2419 4116 
z
M 2253 4666 
L 3047 4666 
L 3047 1625 
L 3713 1625 
L 3713 1100 
L 3047 1100 
L 3047 0 
L 2419 0 
L 2419 1100 
L 313 1100 
L 313 1709 
L 2253 4666 
z
" transform="scale(0.015625)"/>
       </defs>
       <use xlink:href="#DejaVuSans-2212"/>
       <use xlink:href="#DejaVuSans-34" transform="translate(83.789062 0)"/>
       <use xlink:href="#DejaVuSans-30" transform="translate(147.412109 0)"/>
       <use xlink:href="#DejaVuSans-30" transform="translate(211.035156 0)"/>
       <use xlink:href="#DejaVuSans-30" transform="translate(274.658203 0)"/>
       <use xlink:href="#DejaVuSans-30" transform="translate(338.28125 0)"/>
      </g>
     </g>
    </g>
    <g id="xtick_4">
     <g id="line2d_4">
      <g>
       <use xlink:href="#m5da1cffb67" x="375.801194" y="284.4" style="stroke: #000000; stroke-width: 0.8"/>
      </g>
     </g>
     <g id="text_4">
      <!-- −30000 -->
      <g transform="translate(355.7051 298.998438) scale(0.1 -0.1)">
       <defs>
        <path id="DejaVuSans-33" d="M 2597 2516 
Q 3050 2419 3304 2112 
Q 3559 1806 3559 1356 
Q 3559 666 3084 287 
Q 2609 -91 1734 -91 
Q 1441 -91 1130 -33 
Q 819 25 488 141 
L 488 750 
Q 750 597 1062 519 
Q 1375 441 1716 441 
Q 2309 441 2620 675 
Q 2931 909 2931 1356 
Q 2931 1769 2642 2001 
Q 2353 2234 1838 2234 
L 1294 2234 
L 1294 2753 
L 1863 2753 
Q 2328 2753 2575 2939 
Q 2822 3125 2822 3475 
Q 2822 3834 2567 4026 
Q 2313 4219 1838 4219 
Q 1578 4219 1281 4162 
Q 984 4106 628 3988 
L 628 4550 
Q 988 4650 1302 4700 
Q 1616 4750 1894 4750 
Q 2613 4750 3031 4423 
Q 3450 4097 3450 3541 
Q 3450 3153 3228 2886 
Q 3006 2619 2597 2516 
z
" transform="scale(0.015625)"/>
       </defs>
       <use xlink:href="#DejaVuSans-2212"/>
       <use xlink:href="#DejaVuSans-33" transform="translate(83.789062 0)"/>
       <use xlink:href="#DejaVuSans-30" transform="translate(147.412109 0)"/>
       <use xlink:href="#DejaVuSans-30" transform="translate(211.035156 0)"/>
       <use xlink:href="#DejaVuSans-30" transform="translate(274.658203 0)"/>
       <use xlink:href="#DejaVuSans-30" transform="translate(338.28125 0)"/>
      </g>
     </g>
    </g>
    <g id="xtick_5">
     <g id="line2d_5">
      <g>
       <use xlink:href="#m5da1cffb67" x="475.743883" y="284.4" style="stroke: #000000; stroke-width: 0.8"/>
      </g>
     </g>
     <g id="text_5">
      <!-- −20000 -->
      <g transform="translate(455.64779 298.998438) scale(0.1 -0.1)">
       <defs>
        <path id="DejaVuSans-32" d="M 1228 531 
L 3431 531 
L 3431 0 
L 469 0 
L 469 531 
Q 828 903 1448 1529 
Q 2069 2156 2228 2338 
Q 2531 2678 2651 2914 
Q 2772 3150 2772 3378 
Q 2772 3750 2511 3984 
Q 2250 4219 1831 4219 
Q 1534 4219 1204 4116 
Q 875 4013 500 3803 
L 500 4441 
Q 881 4594 1212 4672 
Q 1544 4750 1819 4750 
Q 2544 4750 2975 4387 
Q 3406 4025 3406 3419 
Q 3406 3131 3298 2873 
Q 3191 2616 2906 2266 
Q 2828 2175 2409 1742 
Q 1991 1309 1228 531 
z
" transform="scale(0.015625)"/>
       </defs>
       <use xlink:href="#DejaVuSans-2212"/>
       <use xlink:href="#DejaVuSans-32" transform="translate(83.789062 0)"/>
       <use xlink:href="#DejaVuSans-30" transform="translate(147.412109 0)"/>
       <use xlink:href="#DejaVuSans-30" transform="translate(211.035156 0)"/>
       <use xlink:href="#DejaVuSans-30" transform="translate(274.658203 0)"/>
       <use xlink:href="#DejaVuSans-30" transform="translate(338.28125 0)"/>
      </g>
     </g>
    </g>
    <g id="xtick_6">
     <g id="line2d_6">
      <g>
       <use xlink:href="#m5da1cffb67" x="575.686572" y="284.4" style="stroke: #000000; stroke-width: 0.8"/>
      </g>
     </g>
     <g id="text_6">
      <!-- −10000 -->
      <g transform="translate(555.590479 298.998438) scale(0.1 -0.1)">
       <defs>
        <path id="DejaVuSans-31" d="M 794 531 
L 1825 531 
L 1825 4091 
L 703 3866 
L 703 4441 
L 1819 4666 
L 2450 4666 
L 2450 531 
L 3481 531 
L 3481 0 
L 794 0 
L 794 531 
z
" transform="scale(0.015625)"/>
       </defs>
       <use xlink:href="#DejaVuSans-2212"/>
       <use xlink:href="#DejaVuSans-31" transform="translate(83.789062 0)"/>
       <use xlink:href="#DejaVuSans-30" transform="translate(147.412109 0)"/>
       <use xlink:href="#DejaVuSans-30" transform="translate(211.035156 0)"/>
       <use xlink:href="#DejaVuSans-30" transform="translate(274.658203 0)"/>
       <use xlink:href="#DejaVuSans-30" transform="translate(338.28125 0)"/>
      </g>
     </g>
    </g>
    <g id="xtick_7">
     <g id="line2d_7">
      <g>
       <use xlink:href="#m5da1cffb67" x="675.629261" y="284.4" style="stroke: #000000; stroke-width: 0.8"/>
      </g>
     </g>
     <g id="text_7">
      <!-- 0 -->
      <g transform="translate(672.448011 298.998438) scale(0.1 -0.1)">
       <use xlink:href="#DejaVuSans-30"/>
      </g>
     </g>
    </g>
   </g>
   <g id="matplotlib.axis_2">
    <g id="ytick_1">
     <g id="line2d_8">
      <defs>
       <path id="made139071e" d="M 0 0 
L -3.5 0 
" style="stroke: #000000; stroke-width: 0.8"/>
      </defs>
      <g>
       <use xlink:href="#made139071e" x="36.465625" y="278.581288" style="stroke: #000000; stroke-width: 0.8"/>
      </g>
     </g>
     <g id="text_8">
      <!-- 0.00 -->
      <g transform="translate(7.2 282.380507) scale(0.1 -0.1)">
       <defs>
        <path id="DejaVuSans-2e" d="M 684 794 
L 1344 794 
L 1344 0 
L 684 0 
L 684 794 
z
" transform="scale(0.015625)"/>
       </defs>
       <use xlink:href="#DejaVuSans-30"/>
       <use xlink:href="#DejaVuSans-2e" transform="translate(63.623047 0)"/>
       <use xlink:href="#DejaVuSans-30" transform="translate(95.410156 0)"/>
       <use xlink:href="#DejaVuSans-30" transform="translate(159.033203 0)"/>
      </g>
     </g>
    </g>
    <g id="ytick_2">
     <g id="line2d_9">
      <g>
       <use xlink:href="#made139071e" x="36.465625" y="229.913239" style="stroke: #000000; stroke-width: 0.8"/>
      </g>
     </g>
     <g id="text_9">
      <!-- 0.01 -->
      <g transform="translate(7.2 233.712458) scale(0.1 -0.1)">
       <use xlink:href="#DejaVuSans-30"/>
       <use xlink:href="#DejaVuSans-2e" transform="translate(63.623047 0)"/>
       <use xlink:href="#DejaVuSans-30" transform="translate(95.410156 0)"/>
       <use xlink:href="#DejaVuSans-31" transform="translate(159.033203 0)"/>
      </g>
     </g>
    </g>
    <g id="ytick_3">
     <g id="line2d_10">
      <g>
       <use xlink:href="#made139071e" x="36.465625" y="181.245191" style="stroke: #000000; stroke-width: 0.8"/>
      </g>
     </g>
     <g id="text_10">
      <!-- 0.02 -->
      <g transform="translate(7.2 185.044409) scale(0.1 -0.1)">
       <use xlink:href="#DejaVuSans-30"/>
       <use xlink:href="#DejaVuSans-2e" transform="translate(63.623047 0)"/>
       <use xlink:href="#DejaVuSans-30" transform="translate(95.410156 0)"/>
       <use xlink:href="#DejaVuSans-32" transform="translate(159.033203 0)"/>
      </g>
     </g>
    </g>
    <g id="ytick_4">
     <g id="line2d_11">
      <g>
       <use xlink:href="#made139071e" x="36.465625" y="132.577142" style="stroke: #000000; stroke-width: 0.8"/>
      </g>
     </g>
     <g id="text_11">
      <!-- 0.03 -->
      <g transform="translate(7.2 136.376361) scale(0.1 -0.1)">
       <use xlink:href="#DejaVuSans-30"/>
       <use xlink:href="#DejaVuSans-2e" transform="translate(63.623047 0)"/>
       <use xlink:href="#DejaVuSans-30" transform="translate(95.410156 0)"/>
       <use xlink:href="#DejaVuSans-33" transform="translate(159.033203 0)"/>
      </g>
     </g>
    </g>
    <g id="ytick_5">
     <g id="line2d_12">
      <g>
       <use xlink:href="#made139071e" x="36.465625" y="83.909093" style="stroke: #000000; stroke-width: 0.8"/>
      </g>
     </g>
     <g id="text_12">
      <!-- 0.04 -->
      <g transform="translate(7.2 87.708312) scale(0.1 -0.1)">
       <use xlink:href="#DejaVuSans-30"/>
       <use xlink:href="#DejaVuSans-2e" transform="translate(63.623047 0)"/>
       <use xlink:href="#DejaVuSans-30" transform="translate(95.410156 0)"/>
       <use xlink:href="#DejaVuSans-34" transform="translate(159.033203 0)"/>
      </g>
     </g>
    </g>
    <g id="ytick_6">
     <g id="line2d_13">
      <g>
       <use xlink:href="#made139071e" x="36.465625" y="35.241045" style="stroke: #000000; stroke-width: 0.8"/>
      </g>
     </g>
     <g id="text_13">
      <!-- 0.05 -->
      <g transform="translate(7.2 39.040264) scale(0.1 -0.1)">
       <use xlink:href="#DejaVuSans-30"/>
       <use xlink:href="#DejaVuSans-2e" transform="translate(63.623047 0)"/>
       <use xlink:href="#DejaVuSans-30" transform="translate(95.410156 0)"/>
       <use xlink:href="#DejaVuSans-35" transform="translate(159.033203 0)"/>
      </g>
     </g>
    </g>
   </g>
   <g id="line2d_14">
    <path d="M 66.901989 265.872508 
L 67.397412 265.866398 
L 67.744209 266.16577 
L 68.289175 267.007674 
L 70.122244 270.111677 
L 70.964464 270.973545 
L 71.757142 271.483119 
L 72.599363 271.752557 
L 73.441583 271.783579 
L 74.283804 271.579979 
L 75.02694 271.183686 
L 75.819618 270.493774 
L 76.562754 269.556735 
L 77.454516 268.022412 
L 78.593991 266.07053 
L 78.99033 265.765324 
L 79.287585 265.760567 
L 79.634381 266.000915 
L 80.080263 266.619971 
L 82.50784 270.525111 
L 83.300518 271.188382 
L 84.093196 271.572862 
L 84.935416 271.73097 
L 85.728095 271.658401 
L 86.520773 271.370927 
L 87.263908 270.866474 
L 88.056587 270.044018 
L 88.849265 268.866197 
L 90.781418 265.742105 
L 91.128214 265.680973 
L 91.475011 265.889539 
L 91.920893 266.482722 
L 92.961283 268.420363 
L 93.902588 269.906512 
L 94.695266 270.761189 
L 95.487944 271.309339 
L 96.280622 271.593903 
L 97.073301 271.656247 
L 97.865979 271.500457 
L 98.609114 271.144438 
L 99.35225 270.543133 
L 100.095386 269.665433 
L 100.888064 268.371343 
L 102.374336 265.823433 
L 102.770675 265.597084 
L 103.067929 265.660316 
L 103.414726 265.974364 
L 103.959692 266.839773 
L 105.693675 269.843493 
L 106.486353 270.699151 
L 107.279032 271.243909 
L 108.07171 271.522152 
L 108.864388 271.573693 
L 109.657066 271.402527 
L 110.400202 271.024724 
L 111.143338 270.395045 
L 111.886473 269.479575 
L 112.728694 268.050092 
L 114.016796 265.811629 
L 114.413135 265.533708 
L 114.710389 265.557021 
L 115.057186 265.832189 
L 115.55261 266.576494 
L 117.583848 270.029069 
L 118.376526 270.807923 
L 119.169204 271.281448 
L 119.961882 271.498577 
L 120.75456 271.485415 
L 121.547238 271.243981 
L 122.290374 270.78022 
L 123.03351 270.050444 
L 123.776646 269.009631 
L 124.767493 267.175106 
L 125.609714 265.775043 
L 126.006053 265.480503 
L 126.303307 265.491854 
L 126.650104 265.756212 
L 127.145528 266.493414 
L 129.226308 270.021219 
L 130.018986 270.781875 
L 130.811664 271.234233 
L 131.604342 271.42862 
L 132.39702 271.387839 
L 133.189698 271.112945 
L 133.932834 270.607732 
L 134.67597 269.828069 
L 135.419106 268.726064 
L 137.450344 265.41378 
L 137.747598 265.374137 
L 138.044852 265.539635 
L 138.441191 266.032566 
L 139.184327 267.405918 
L 140.274259 269.332439 
L 141.066938 270.300255 
L 141.859616 270.929371 
L 142.652294 271.265955 
L 143.444972 271.356102 
L 144.23765 271.206844 
L 144.980786 270.838279 
L 145.723922 270.205938 
L 146.467057 269.275115 
L 147.309278 267.818399 
L 148.59738 265.562672 
L 148.993719 265.30317 
L 149.290973 265.347126 
L 149.63777 265.649015 
L 150.133194 266.426397 
L 152.065347 269.775433 
L 152.858025 270.577278 
L 153.601161 271.035306 
L 154.393839 271.259 
L 155.136975 271.244512 
L 155.88011 271.01534 
L 156.623246 270.544178 
L 157.366382 269.792807 
L 158.109518 268.717733 
L 159.149908 266.742805 
L 159.893043 265.518561 
L 160.289383 265.226461 
L 160.586637 265.245744 
L 160.933434 265.52429 
L 161.428857 266.284841 
L 163.460095 269.79424 
L 164.252773 270.569431 
L 164.995909 271.001967 
L 165.739045 271.194147 
L 166.482181 271.164383 
L 167.225316 270.913544 
L 167.91891 270.452744 
L 168.662045 269.680497 
L 169.405181 268.576963 
L 170.643741 266.204317 
L 171.238249 265.344769 
L 171.585046 265.149832 
L 171.8823 265.209903 
L 172.229097 265.531982 
L 172.774063 266.427157 
L 174.458504 269.438144 
L 175.251183 270.315092 
L 175.994318 270.82585 
L 176.737454 271.078255 
L 177.48059 271.10236 
L 178.223726 270.901392 
L 178.917319 270.492957 
L 179.660455 269.779115 
L 180.40359 268.74089 
L 181.344896 266.973514 
L 182.236659 265.402768 
L 182.632998 265.071979 
L 182.930252 265.062989 
L 183.277049 265.315811 
L 183.72293 265.971077 
L 186.00188 269.849384 
L 186.745016 270.515205 
L 187.488151 270.895124 
L 188.231287 271.031861 
L 188.974423 270.936709 
L 189.717559 270.605057 
L 190.411152 270.046704 
L 191.154288 269.147852 
L 191.946966 267.804784 
L 193.433237 265.170554 
L 193.780034 264.972575 
L 194.077288 265.033777 
L 194.424085 265.361262 
L 194.969051 266.27007 
L 196.653492 269.309805 
L 197.446171 270.187054 
L 198.189306 270.689214 
L 198.932442 270.926101 
L 199.675578 270.923796 
L 200.418714 270.684331 
L 201.112307 270.223098 
L 201.855443 269.435706 
L 202.598579 268.304256 
L 204.580274 264.941214 
L 204.877528 264.887914 
L 205.174782 265.050272 
L 205.571122 265.554563 
L 206.314257 266.973894 
L 207.40419 268.950261 
L 208.196868 269.925938 
L 208.940004 270.504483 
L 209.683139 270.801078 
L 210.376733 270.85459 
L 211.070326 270.696827 
L 211.76392 270.316126 
L 212.457513 269.676596 
L 213.200649 268.669297 
L 214.042869 267.111491 
L 215.132802 265.12362 
L 215.529141 264.807795 
L 215.826395 264.81812 
L 216.173192 265.097824 
L 216.668616 265.877467 
L 218.650311 269.400608 
L 219.393447 270.15076 
L 220.136582 270.589825 
L 220.879718 270.762653 
L 221.573312 270.698599 
L 222.266905 270.415578 
L 222.960498 269.883631 
L 223.654092 269.070881 
L 224.397228 267.851955 
L 226.131211 264.807766 
L 226.478008 264.698558 
L 226.775262 264.843114 
L 227.171601 265.334658 
L 227.865194 266.658838 
L 229.004669 268.770389 
L 229.797347 269.761356 
L 230.540483 270.342468 
L 231.234077 270.620499 
L 231.92767 270.672258 
L 232.621263 270.501853 
L 233.314857 270.095725 
L 234.00845 269.417736 
L 234.751586 268.353817 
L 235.643349 266.634307 
L 236.584654 264.935726 
L 236.980993 264.625335 
L 237.278247 264.644938 
L 237.625044 264.938968 
L 238.120468 265.73945 
L 240.003078 269.159378 
L 240.746214 269.943771 
L 241.439808 270.381161 
L 242.133401 270.572624 
L 242.826994 270.53485 
L 243.520588 270.267693 
L 244.214181 269.744068 
L 244.907775 268.93027 
L 245.65091 267.701786 
L 247.384894 264.619303 
L 247.73169 264.511398 
L 248.028945 264.66129 
L 248.425284 265.163956 
L 249.118877 266.508485 
L 250.258352 268.633657 
L 251.05103 269.620525 
L 251.744623 270.159501 
L 252.438217 270.433957 
L 253.13181 270.470892 
L 253.825404 270.27398 
L 254.469455 269.867337 
L 255.163048 269.153864 
L 255.906184 268.03747 
L 256.897031 266.058786 
L 257.640167 264.746515 
L 258.036506 264.427931 
L 258.333761 264.445748 
L 258.680557 264.742862 
L 259.175981 265.554619 
L 261.058592 269.007062 
L 261.801727 269.787404 
L 262.495321 270.211792 
L 263.188914 270.381236 
L 263.832965 270.322888 
L 264.526559 270.025968 
L 265.17061 269.507192 
L 265.864203 268.654872 
L 266.607339 267.374575 
L 268.192695 264.472347 
L 268.539492 264.310866 
L 268.836746 264.41948 
L 269.183543 264.809869 
L 269.778051 265.907356 
L 271.115696 268.472843 
L 271.858831 269.413318 
L 272.552425 269.965272 
L 273.246018 270.240849 
L 273.890069 270.272898 
L 274.53412 270.092617 
L 275.178171 269.687062 
L 275.871765 268.964019 
L 276.565358 267.913591 
L 277.506663 266.02301 
L 278.299341 264.572055 
L 278.69568 264.233722 
L 278.992935 264.240318 
L 279.290189 264.472474 
L 279.73607 265.156439 
L 281.965478 269.139073 
L 282.659071 269.765022 
L 283.352665 270.099434 
L 283.996716 270.177498 
L 284.640767 270.037502 
L 285.284817 269.671127 
L 285.928868 269.048869 
L 286.622462 268.063188 
L 287.464682 266.43078 
L 288.505072 264.448866 
L 288.901412 264.120231 
L 289.198666 264.137801 
L 289.49592 264.382117 
L 289.941802 265.082306 
L 292.072124 268.95703 
L 292.765717 269.616858 
L 293.459311 269.975448 
L 294.103362 270.06867 
L 294.747413 269.93793 
L 295.391464 269.575738 
L 296.035515 268.952876 
L 296.729108 267.96089 
L 297.571329 266.315859 
L 298.611719 264.32911 
L 299.008058 264.009108 
L 299.305312 264.036712 
L 299.652109 264.354648 
L 300.147533 265.202958 
L 301.931059 268.578438 
L 302.674194 269.388122 
L 303.367788 269.814579 
L 304.011839 269.959705 
L 304.65589 269.874266 
L 305.299941 269.554561 
L 305.943992 268.974031 
L 306.637585 268.025885 
L 307.430263 266.522131 
L 308.61928 264.209439 
L 309.015619 263.896608 
L 309.312874 263.9331 
L 309.65967 264.263004 
L 310.155094 265.12642 
L 311.889078 268.442387 
L 312.632213 269.268286 
L 313.325807 269.702017 
L 313.969858 269.847165 
L 314.613909 269.755402 
L 315.25796 269.422425 
L 315.902011 268.821144 
L 316.595604 267.842543 
L 317.388282 266.302665 
L 318.527757 264.085744 
L 318.924096 263.779346 
L 319.221351 263.824161 
L 319.568147 264.165476 
L 320.063571 265.043539 
L 321.748012 268.299315 
L 322.441606 269.098548 
L 323.085657 269.539563 
L 323.729708 269.722805 
L 324.324216 269.675274 
L 324.968267 269.387738 
L 325.612318 268.831591 
L 326.305911 267.899426 
L 327.049047 266.503657 
L 328.386692 263.898731 
L 328.733488 263.657317 
L 329.030743 263.710319 
L 329.377539 264.062963 
L 329.872963 264.955713 
L 331.507862 268.151034 
L 332.201455 268.967664 
L 332.845506 269.417543 
L 333.489557 269.60261 
L 334.084066 269.550654 
L 334.678574 269.283709 
L 335.322625 268.730218 
L 335.966676 267.873455 
L 336.709812 266.493367 
L 338.096999 263.77118 
L 338.443796 263.53572 
L 338.74105 263.597112 
L 339.087847 263.961303 
L 339.58327 264.868916 
L 341.168627 268.0019 
L 341.86222 268.836024 
L 342.506271 269.294546 
L 343.150322 269.480936 
L 343.744831 269.423828 
L 344.339339 269.145251 
L 344.933848 268.626123 
L 345.577899 267.765593 
L 346.321035 266.374839 
L 347.708221 263.639066 
L 348.055018 263.410049 
L 348.352272 263.480347 
L 348.699069 263.856635 
L 349.244035 264.886182 
L 350.680764 267.772747 
L 351.374358 268.651588 
L 352.018409 269.141511 
L 352.612917 269.343131 
L 353.207426 269.31787 
L 353.801935 269.065706 
L 354.396443 268.569908 
L 355.040494 267.730323 
L 355.78363 266.355401 
L 357.269902 263.450075 
L 357.616698 263.275672 
L 357.913953 263.397518 
L 358.260749 263.827075 
L 358.855258 265.015905 
L 360.093817 267.534763 
L 360.787411 268.459558 
L 361.431462 268.981999 
L 362.02597 269.204685 
L 362.620479 269.193409 
L 363.214988 268.948818 
L 363.809496 268.455054 
L 364.453547 267.611254 
L 365.196683 266.224442 
L 366.633412 263.358239 
L 366.980209 263.146112 
L 367.277463 263.237965 
L 367.62426 263.642208 
L 368.169226 264.707974 
L 369.556413 267.532365 
L 370.250006 268.419041 
L 370.894057 268.902313 
L 371.488566 269.085537 
L 372.083074 269.028689 
L 372.677583 268.729926 
L 373.272092 268.169763 
L 373.916143 267.241988 
L 374.659278 265.760215 
L 375.848296 263.326253 
L 376.195092 263.031517 
L 376.492347 263.051036 
L 376.789601 263.320155 
L 377.235482 264.085408 
L 379.167635 267.874551 
L 379.811686 268.541303 
L 380.406195 268.871658 
L 381.000703 268.950155 
L 381.54567 268.805545 
L 382.140178 268.403577 
L 382.734687 267.723441 
L 383.42828 266.555843 
L 384.518213 264.140792 
L 385.112721 263.107171 
L 385.459518 262.872402 
L 385.756772 262.950812 
L 386.103569 263.34923 
L 386.648535 264.424576 
L 388.035722 267.290643 
L 388.729315 268.179311 
L 389.373366 268.649642 
L 389.967875 268.807582 
L 390.512841 268.728717 
L 391.057807 268.433424 
L 391.652316 267.845623 
L 392.296367 266.871767 
L 393.089045 265.215579 
L 394.129435 263.063176 
L 394.476232 262.749927 
L 394.773486 262.759279 
L 395.070741 263.025391 
L 395.516622 263.798343 
L 397.448775 267.634833 
L 398.092826 268.292878 
L 398.687335 268.60226 
L 399.232301 268.651988 
L 399.777267 268.48141 
L 400.322233 268.082457 
L 400.916742 267.364753 
L 401.610335 266.137013 
L 403.393861 262.641655 
L 403.691115 262.583659 
L 403.98837 262.790701 
L 404.384709 263.410861 
L 405.276472 265.418417 
L 406.118692 267.055616 
L 406.812286 267.937056 
L 407.406794 268.362487 
L 407.95176 268.506223 
L 408.496727 268.422403 
L 409.041693 268.10806 
L 409.636201 267.483114 
L 410.280252 266.45162 
L 411.122473 264.606243 
L 412.014236 262.764331 
L 412.361033 262.446656 
L 412.658287 262.45976 
L 412.955541 262.735886 
L 413.401423 263.530125 
L 415.284033 267.33749 
L 415.928084 268.00372 
L 416.522593 268.304656 
L 417.067559 268.332213 
L 417.612525 268.124736 
L 418.157491 267.672113 
L 418.752 266.877107 
L 419.445593 265.5448 
L 420.981407 262.396438 
L 421.278662 262.258336 
L 421.526374 262.353204 
L 421.87317 262.780031 
L 422.418137 263.909549 
L 423.706239 266.671519 
L 424.399832 267.595596 
L 424.99434 268.038877 
L 425.539307 268.183236 
L 426.084273 268.084999 
L 426.629239 267.740424 
L 427.223748 267.063966 
L 427.867799 265.958443 
L 428.809104 263.79397 
L 429.502697 262.41325 
L 429.849494 262.111715 
L 430.097206 262.123051 
L 430.39446 262.385598 
L 430.840342 263.178782 
L 432.722952 267.046552 
L 433.367003 267.707595 
L 433.91197 267.975279 
L 434.456936 267.990177 
L 434.95236 267.785931 
L 435.497326 267.311747 
L 436.091835 266.475934 
L 436.785428 265.081237 
L 438.172615 262.126761 
L 438.519411 261.921824 
L 438.767123 262.009918 
L 439.11392 262.437311 
L 439.658886 263.584905 
L 440.946988 266.387441 
L 441.591039 267.256537 
L 442.185548 267.705232 
L 442.730514 267.837921 
L 443.225938 267.733692 
L 443.770904 267.367534 
L 444.31587 266.721562 
L 444.959921 265.582293 
L 445.950769 263.245756 
L 446.59482 262.005233 
L 446.941617 261.749174 
L 447.189329 261.802634 
L 447.486583 262.117589 
L 447.932464 262.974515 
L 449.616905 266.564475 
L 450.260956 267.295483 
L 450.805923 267.601518 
L 451.301346 267.644409 
L 451.79677 267.465714 
L 452.341736 267.005067 
L 452.936245 266.167257 
L 453.629838 264.750015 
L 455.017025 261.750661 
L 455.31428 261.562778 
L 455.561991 261.627813 
L 455.859246 261.958706 
L 456.305127 262.837406 
L 457.890483 266.288937 
L 458.534534 267.065745 
L 459.079501 267.399083 
L 459.574925 267.458043 
L 460.070348 267.28766 
L 460.565772 266.881844 
L 461.110738 266.147962 
L 461.754789 264.888497 
L 463.340146 261.489963 
L 463.6374 261.368986 
L 463.885112 261.494094 
L 464.231909 261.978163 
L 464.826417 263.320063 
L 465.91635 265.762916 
L 466.560401 266.683481 
L 467.105367 267.122517 
L 467.600791 267.265609 
L 468.096215 267.171021 
L 468.591638 266.835918 
L 469.136605 266.175399 
L 469.780656 264.989071 
L 470.870588 262.335884 
L 471.415554 261.359935 
L 471.712809 261.170959 
L 471.960521 261.242295 
L 472.257775 261.587797 
L 472.753199 262.613264 
L 474.189928 265.827573 
L 474.784436 266.600844 
L 475.329403 266.977528 
L 475.824827 267.05739 
L 476.32025 266.890977 
L 476.815674 266.472639 
L 477.36064 265.706855 
L 478.004691 264.391274 
L 479.490963 261.110163 
L 479.788217 260.961497 
L 480.035929 261.070955 
L 480.382726 261.547626 
L 480.927692 262.78254 
L 482.067167 265.397422 
L 482.711218 266.318742 
L 483.256184 266.738376 
L 483.751608 266.846652 
L 484.197489 266.725722 
L 484.692913 266.344823 
L 485.237879 265.612451 
L 485.88193 264.321985 
L 487.467287 260.845454 
L 487.764541 260.751379 
L 488.012253 260.909791 
L 488.35905 261.446883 
L 489.003101 262.989662 
L 489.944406 265.144084 
L 490.588457 266.088788 
L 491.133423 266.516496 
L 491.628847 266.622074 
L 492.074728 266.490378 
L 492.570152 266.087945 
L 493.115119 265.320704 
L 493.75917 263.980005 
L 495.245441 260.649077 
L 495.542695 260.520793 
L 495.790407 260.655369 
L 496.137204 261.17188 
L 496.731713 262.586651 
L 497.772103 264.99673 
L 498.366611 265.864251 
L 498.911577 266.291857 
L 499.357459 266.389829 
L 499.80334 266.264683 
L 500.298764 265.86005 
L 500.84373 265.079515 
L 501.487781 263.711771 
L 502.924511 260.433165 
L 503.221765 260.284614 
L 503.469477 260.406707 
L 503.816274 260.915212 
L 504.410782 262.33806 
L 505.451172 264.774458 
L 506.045681 265.643462 
L 506.541105 266.037168 
L 506.986986 266.143064 
L 507.432868 266.016996 
L 507.878749 265.656022 
L 508.374173 264.970037 
L 508.968681 263.75349 
L 510.60358 260.099855 
L 510.851292 260.040186 
L 511.099004 260.207819 
L 511.445801 260.773252 
L 512.089852 262.380265 
L 513.031157 264.569538 
L 513.625666 265.429554 
L 514.121089 265.804745 
L 514.566971 265.884763 
L 515.012852 265.7233 
L 515.458734 265.316584 
L 516.0037 264.476331 
L 516.647751 263.019009 
L 517.886311 260.038546 
L 518.183565 259.791671 
L 518.431277 259.839021 
L 518.728531 260.188673 
L 519.174413 261.153328 
L 520.611142 264.567345 
L 521.156108 265.280745 
L 521.651532 265.593164 
L 522.097413 265.607411 
L 522.543295 265.369692 
L 523.038719 264.803507 
L 523.583685 263.807383 
L 524.32682 261.917512 
L 525.169041 259.884164 
L 525.515838 259.538298 
L 525.76355 259.569503 
L 526.060804 259.907575 
L 526.506685 260.871499 
L 527.943415 264.317218 
L 528.488381 265.025474 
L 528.983805 265.320746 
L 529.380144 265.322876 
L 529.776483 265.117513 
L 530.222364 264.634081 
L 530.76733 263.674499 
L 531.460924 261.935546 
L 532.402229 259.590892 
L 532.749026 259.240319 
L 532.996738 259.274218 
L 533.293992 259.621431 
L 533.739873 260.604803 
L 535.176603 264.072631 
L 535.721569 264.762439 
L 536.16745 265.016402 
L 536.563789 265.011677 
L 536.960128 264.790305 
L 537.40601 264.277975 
L 537.950976 263.26998 
L 538.694112 261.328439 
L 539.536332 259.25334 
L 539.883129 258.924677 
L 540.130841 258.982153 
L 540.428095 259.360695 
L 540.873977 260.383634 
L 542.211621 263.687797 
L 542.756587 264.420678 
L 543.202469 264.69683 
L 543.598808 264.701457 
L 543.995147 264.479781 
L 544.441028 263.955915 
L 544.985995 262.919753 
L 545.72913 260.933185 
L 546.521809 258.959145 
L 546.868605 258.617322 
L 547.116317 258.671522 
L 547.413571 259.053509 
L 547.859453 260.091878 
L 549.147555 263.33642 
L 549.692521 264.095107 
L 550.138403 264.37868 
L 550.534742 264.37886 
L 550.931081 264.14221 
L 551.376962 263.589244 
L 551.921928 262.50339 
L 552.714607 260.310085 
L 553.4082 258.613973 
L 553.754997 258.29009 
L 554.002709 258.365389 
L 554.299963 258.776433 
L 554.795387 259.990989 
L 555.934862 262.920108 
L 556.479828 263.727736 
L 556.925709 264.036752 
L 557.322048 264.047562 
L 557.718387 263.810138 
L 558.164269 263.243043 
L 558.709235 262.123637 
L 559.551456 259.731335 
L 560.145964 258.2827 
L 560.492761 257.941556 
L 560.740473 258.011562 
L 561.037727 258.424652 
L 561.533151 259.655635 
L 562.672626 262.605421 
L 563.217592 263.395011 
L 563.663473 263.673681 
L 564.059813 263.645034 
L 564.456152 263.356062 
L 564.902033 262.717202 
L 565.446999 261.499188 
L 567.032356 257.586966 
L 567.280067 257.572921 
L 567.527779 257.825977 
L 567.924118 258.672882 
L 569.509475 262.643836 
L 570.004899 263.172468 
L 570.401238 263.287639 
L 570.748034 263.164605 
L 571.144373 262.767105 
L 571.590255 261.992414 
L 572.184763 260.467153 
L 573.324238 257.392863 
L 573.621493 257.145821 
L 573.819662 257.203503 
L 574.067374 257.515911 
L 574.463713 258.438433 
L 575.900442 262.148705 
L 576.395866 262.734459 
L 576.792205 262.879866 
L 577.139002 262.771531 
L 577.535341 262.377665 
L 577.981222 261.591209 
L 578.575731 260.030667 
L 579.665663 257.015285 
L 579.962918 256.73845 
L 580.161087 256.78172 
L 580.408799 257.084689 
L 580.805138 258.011087 
L 582.241867 261.765651 
L 582.687749 262.298824 
L 583.084088 262.451835 
L 583.430885 262.337372 
L 583.827224 261.921929 
L 584.273105 261.094628 
L 584.867614 259.466897 
L 585.908004 256.555608 
L 586.205258 256.289611 
L 586.403428 256.347369 
L 586.65114 256.673374 
L 587.047479 257.636175 
L 588.385123 261.218238 
L 588.831005 261.789228 
L 589.227344 261.959023 
L 589.57414 261.84564 
L 589.920937 261.487407 
L 590.366818 260.670545 
L 590.961327 259.02711 
L 592.001717 256.052725 
L 592.298971 255.783738 
L 592.497141 255.84692 
L 592.744853 256.186667 
L 593.141192 257.179291 
L 594.429294 260.703069 
L 594.875175 261.287167 
L 595.221972 261.447873 
L 595.519226 261.379297 
L 595.866023 261.058277 
L 596.262362 260.376114 
L 596.807328 258.934011 
L 598.045888 255.413796 
L 598.2936 255.262337 
L 598.491769 255.368211 
L 598.789024 255.87084 
L 599.284448 257.290656 
L 600.225753 259.941215 
L 600.721177 260.691219 
L 601.067973 260.888152 
L 601.365228 260.838747 
L 601.712024 260.526134 
L 602.108363 259.836014 
L 602.65333 258.357725 
L 603.842347 254.874409 
L 604.090059 254.695632 
L 604.288228 254.787274 
L 604.53594 255.174972 
L 604.981822 256.403655 
L 606.022212 259.407646 
L 606.468093 260.088682 
L 606.81489 260.291121 
L 607.112144 260.232821 
L 607.458941 259.893962 
L 607.85528 259.154876 
L 608.400246 257.591756 
L 609.490179 254.296372 
L 609.737891 254.080459 
L 609.93606 254.150394 
L 610.183772 254.524242 
L 610.580111 255.601985 
L 611.719586 258.907863 
L 612.165467 259.517743 
L 612.512264 259.642069 
L 612.809518 259.501242 
L 613.156315 259.04903 
L 613.602197 258.028696 
L 614.246248 255.888348 
L 614.939841 253.765644 
L 615.237095 253.416664 
L 615.435265 253.460982 
L 615.682977 253.8174 
L 616.079316 254.898965 
L 617.218791 258.251131 
L 617.61513 258.797287 
L 617.912384 258.927072 
L 618.209638 258.812795 
L 618.556435 258.37168 
L 619.002316 257.336201 
L 619.646367 255.135776 
L 620.339961 252.988418 
L 620.637215 252.671231 
L 620.835385 252.749536 
L 621.083097 253.154591 
L 621.528978 254.470995 
L 622.470283 257.336497 
L 622.916165 258.011491 
L 623.213419 258.142166 
L 623.510673 258.011048 
L 623.85747 257.528419 
L 624.303351 256.412041 
L 625.046487 253.728222 
L 625.591453 252.123137 
L 625.839165 251.857248 
L 626.037335 251.917617 
L 626.285047 252.316142 
L 626.681386 253.482848 
L 627.672234 256.553544 
L 628.068573 257.14819 
L 628.365827 257.272524 
L 628.613539 257.16012 
L 628.910793 256.767101 
L 629.307132 255.823249 
L 629.901641 253.705529 
L 630.595234 251.342945 
L 630.892489 250.95185 
L 631.090658 251.006116 
L 631.33837 251.412212 
L 631.734709 252.61129 
L 632.676014 255.591689 
L 633.072353 256.18965 
L 633.369608 256.291953 
L 633.61732 256.144375 
L 633.914574 255.689309 
L 634.310913 254.636602 
L 635.004506 251.968636 
L 635.549473 250.22065 
L 635.797185 249.930904 
L 635.995354 249.999395 
L 636.243066 250.436423 
L 636.688948 251.870544 
L 637.481626 254.438972 
L 637.877965 255.081884 
L 638.175219 255.190276 
L 638.422931 255.02748 
L 638.720185 254.531039 
L 639.116524 253.392896 
L 640.503711 248.784754 
L 640.701881 248.828733 
L 640.949593 249.257394 
L 641.345932 250.533748 
L 642.188152 253.303094 
L 642.534949 253.844478 
L 642.782661 253.939658 
L 643.030373 253.783374 
L 643.327627 253.266404 
L 643.723966 252.060404 
L 645.06161 247.454451 
L 645.25978 247.51305 
L 645.507492 247.977121 
L 645.953373 249.504819 
L 646.696509 251.937705 
L 647.043306 252.439482 
L 647.291018 252.475484 
L 647.53873 252.234533 
L 647.835984 251.587276 
L 648.281865 249.969854 
L 649.272713 246.081688 
L 649.520425 245.896798 
L 649.718595 246.104547 
L 650.015849 246.901954 
L 651.155324 250.576875 
L 651.452578 250.799114 
L 651.650747 250.70327 
L 651.898459 250.303542 
L 652.245256 249.253121 
L 652.839765 246.53665 
L 653.384731 244.389071 
L 653.632443 244.060206 
L 653.78107 244.119643 
L 653.97924 244.477186 
L 654.375579 245.837162 
L 655.069172 248.244532 
L 655.415969 248.734107 
L 655.614138 248.722047 
L 655.86185 248.396436 
L 656.159104 247.564221 
L 656.654528 245.323165 
L 657.348122 242.21602 
L 657.595834 241.840702 
L 657.744461 241.890564 
L 657.94263 242.255435 
L 658.338969 243.651305 
L 658.98302 245.851586 
L 659.280275 246.235797 
L 659.478444 246.190501 
L 659.726156 245.781477 
L 660.02341 244.784583 
L 660.568377 241.950318 
L 661.113343 239.417281 
L 661.361055 239.030853 
L 661.509682 239.10167 
L 661.707851 239.511045 
L 662.153733 241.156503 
L 662.649157 242.742223 
L 662.896869 243.03495 
L 663.095038 242.957663 
L 663.34275 242.454601 
L 663.689547 241.029296 
L 664.829022 235.390632 
L 664.977649 235.367201 
L 665.175818 235.686834 
L 665.522615 236.854369 
L 666.067581 238.560692 
L 666.315293 238.745265 
L 666.46392 238.605997 
L 666.711632 237.926886 
L 667.058429 236.144206 
L 668.049277 230.290168 
L 668.247446 230.130829 
L 668.396073 230.310697 
L 668.74287 231.307266 
L 669.188751 232.419948 
L 669.386921 232.459655 
L 669.535548 232.21395 
L 669.78326 231.259412 
L 670.130057 228.907446 
L 671.071362 221.928298 
L 671.269532 221.613742 
L 671.418159 221.660805 
L 671.963125 222.034628 
L 672.161294 221.588766 
L 672.409006 220.250581 
L 672.755803 216.762834 
L 673.498939 205.982392 
L 674.489787 191.989671 
L 674.787041 182.020529 
L 675.084295 162.726664 
L 675.332007 129.72905 
L 675.530177 67.443555 
L 675.629261 19.8 
L 675.629261 19.8 
" clip-path="url(#pe07b12c0dd)" style="fill: none; stroke: #1f77b4; stroke-width: 1.5; stroke-linecap: square"/>
   </g>
   <g id="line2d_15">
    <path d="M 36.465625 173.174838 
L 706.065625 173.174838 
" clip-path="url(#pe07b12c0dd)" style="fill: none; stroke-dasharray: 2.22,0.96; stroke-dashoffset: 0; stroke: #ff0000; stroke-width: 0.6"/>
   </g>
   <g id="line2d_16">
    <path d="M 66.901989 265.872508 
L 67.397412 265.866398 
L 67.744209 266.16577 
L 68.289175 267.007674 
L 70.122244 270.111677 
L 70.964464 270.973545 
L 71.757142 271.483119 
L 72.599363 271.752557 
L 73.441583 271.783579 
L 74.283804 271.579979 
L 75.02694 271.183686 
L 75.819618 270.493774 
L 76.562754 269.556735 
L 77.454516 268.022412 
L 78.593991 266.07053 
L 78.99033 265.765324 
L 79.287585 265.760567 
L 79.634381 266.000915 
L 80.080263 266.619971 
L 82.50784 270.525111 
L 83.300518 271.188382 
L 84.093196 271.572862 
L 84.935416 271.73097 
L 85.728095 271.658401 
L 86.520773 271.370927 
L 87.263908 270.866474 
L 88.056587 270.044018 
L 88.849265 268.866197 
L 90.781418 265.742105 
L 91.128214 265.680973 
L 91.475011 265.889539 
L 91.920893 266.482722 
L 92.961283 268.420363 
L 93.902588 269.906512 
L 94.695266 270.761189 
L 95.487944 271.309339 
L 96.280622 271.593903 
L 97.073301 271.656247 
L 97.865979 271.500457 
L 98.609114 271.144438 
L 99.35225 270.543133 
L 100.095386 269.665433 
L 100.888064 268.371343 
L 102.374336 265.823433 
L 102.770675 265.597084 
L 103.067929 265.660316 
L 103.414726 265.974364 
L 103.959692 266.839773 
L 105.693675 269.843493 
L 106.486353 270.699151 
L 107.279032 271.243909 
L 108.07171 271.522152 
L 108.864388 271.573693 
L 109.657066 271.402527 
L 110.400202 271.024724 
L 111.143338 270.395045 
L 111.886473 269.479575 
L 112.728694 268.050092 
L 114.016796 265.811629 
L 114.413135 265.533708 
L 114.710389 265.557021 
L 115.057186 265.832189 
L 115.55261 266.576494 
L 117.583848 270.029069 
L 118.376526 270.807923 
L 119.169204 271.281448 
L 119.961882 271.498577 
L 120.75456 271.485415 
L 121.547238 271.243981 
L 122.290374 270.78022 
L 123.03351 270.050444 
L 123.776646 269.009631 
L 124.767493 267.175106 
L 125.609714 265.775043 
L 126.006053 265.480503 
L 126.303307 265.491854 
L 126.650104 265.756212 
L 127.145528 266.493414 
L 129.226308 270.021219 
L 130.018986 270.781875 
L 130.811664 271.234233 
L 131.604342 271.42862 
L 132.39702 271.387839 
L 133.189698 271.112945 
L 133.932834 270.607732 
L 134.67597 269.828069 
L 135.419106 268.726064 
L 137.450344 265.41378 
L 137.747598 265.374137 
L 138.044852 265.539635 
L 138.441191 266.032566 
L 139.184327 267.405918 
L 140.274259 269.332439 
L 141.066938 270.300255 
L 141.859616 270.929371 
L 142.652294 271.265955 
L 143.444972 271.356102 
L 144.23765 271.206844 
L 144.980786 270.838279 
L 145.723922 270.205938 
L 146.467057 269.275115 
L 147.309278 267.818399 
L 148.59738 265.562672 
L 148.993719 265.30317 
L 149.290973 265.347126 
L 149.63777 265.649015 
L 150.133194 266.426397 
L 152.065347 269.775433 
L 152.858025 270.577278 
L 153.601161 271.035306 
L 154.393839 271.259 
L 155.136975 271.244512 
L 155.88011 271.01534 
L 156.623246 270.544178 
L 157.366382 269.792807 
L 158.109518 268.717733 
L 159.149908 266.742805 
L 159.893043 265.518561 
L 160.289383 265.226461 
L 160.586637 265.245744 
L 160.933434 265.52429 
L 161.428857 266.284841 
L 163.460095 269.79424 
L 164.252773 270.569431 
L 164.995909 271.001967 
L 165.739045 271.194147 
L 166.482181 271.164383 
L 167.225316 270.913544 
L 167.91891 270.452744 
L 168.662045 269.680497 
L 169.405181 268.576963 
L 170.643741 266.204317 
L 171.238249 265.344769 
L 171.585046 265.149832 
L 171.8823 265.209903 
L 172.229097 265.531982 
L 172.774063 266.427157 
L 174.458504 269.438144 
L 175.251183 270.315092 
L 175.994318 270.82585 
L 176.737454 271.078255 
L 177.48059 271.10236 
L 178.223726 270.901392 
L 178.917319 270.492957 
L 179.660455 269.779115 
L 180.40359 268.74089 
L 181.344896 266.973514 
L 182.236659 265.402768 
L 182.632998 265.071979 
L 182.930252 265.062989 
L 183.277049 265.315811 
L 183.72293 265.971077 
L 186.00188 269.849384 
L 186.745016 270.515205 
L 187.488151 270.895124 
L 188.231287 271.031861 
L 188.974423 270.936709 
L 189.717559 270.605057 
L 190.411152 270.046704 
L 191.154288 269.147852 
L 191.946966 267.804784 
L 193.433237 265.170554 
L 193.780034 264.972575 
L 194.077288 265.033777 
L 194.424085 265.361262 
L 194.969051 266.27007 
L 196.653492 269.309805 
L 197.446171 270.187054 
L 198.189306 270.689214 
L 198.932442 270.926101 
L 199.675578 270.923796 
L 200.418714 270.684331 
L 201.112307 270.223098 
L 201.855443 269.435706 
L 202.598579 268.304256 
L 204.580274 264.941214 
L 204.877528 264.887914 
L 205.174782 265.050272 
L 205.571122 265.554563 
L 206.314257 266.973894 
L 207.40419 268.950261 
L 208.196868 269.925938 
L 208.940004 270.504483 
L 209.683139 270.801078 
L 210.376733 270.85459 
L 211.070326 270.696827 
L 211.76392 270.316126 
L 212.457513 269.676596 
L 213.200649 268.669297 
L 214.042869 267.111491 
L 215.132802 265.12362 
L 215.529141 264.807795 
L 215.826395 264.81812 
L 216.173192 265.097824 
L 216.668616 265.877467 
L 218.650311 269.400608 
L 219.393447 270.15076 
L 220.136582 270.589825 
L 220.879718 270.762653 
L 221.573312 270.698599 
L 222.266905 270.415578 
L 222.960498 269.883631 
L 223.654092 269.070881 
L 224.397228 267.851955 
L 226.131211 264.807766 
L 226.478008 264.698558 
L 226.775262 264.843114 
L 227.171601 265.334658 
L 227.865194 266.658838 
L 229.004669 268.770389 
L 229.797347 269.761356 
L 230.540483 270.342468 
L 231.234077 270.620499 
L 231.92767 270.672258 
L 232.621263 270.501853 
L 233.314857 270.095725 
L 234.00845 269.417736 
L 234.751586 268.353817 
L 235.643349 266.634307 
L 236.584654 264.935726 
L 236.980993 264.625335 
L 237.278247 264.644938 
L 237.625044 264.938968 
L 238.120468 265.73945 
L 240.003078 269.159378 
L 240.746214 269.943771 
L 241.439808 270.381161 
L 242.133401 270.572624 
L 242.826994 270.53485 
L 243.520588 270.267693 
L 244.214181 269.744068 
L 244.907775 268.93027 
L 245.65091 267.701786 
L 247.384894 264.619303 
L 247.73169 264.511398 
L 248.028945 264.66129 
L 248.425284 265.163956 
L 249.118877 266.508485 
L 250.258352 268.633657 
L 251.05103 269.620525 
L 251.744623 270.159501 
L 252.438217 270.433957 
L 253.13181 270.470892 
L 253.825404 270.27398 
L 254.469455 269.867337 
L 255.163048 269.153864 
L 255.906184 268.03747 
L 256.897031 266.058786 
L 257.640167 264.746515 
L 258.036506 264.427931 
L 258.333761 264.445748 
L 258.680557 264.742862 
L 259.175981 265.554619 
L 261.058592 269.007062 
L 261.801727 269.787404 
L 262.495321 270.211792 
L 263.188914 270.381236 
L 263.832965 270.322888 
L 264.526559 270.025968 
L 265.17061 269.507192 
L 265.864203 268.654872 
L 266.607339 267.374575 
L 268.192695 264.472347 
L 268.539492 264.310866 
L 268.836746 264.41948 
L 269.183543 264.809869 
L 269.778051 265.907356 
L 271.115696 268.472843 
L 271.858831 269.413318 
L 272.552425 269.965272 
L 273.246018 270.240849 
L 273.890069 270.272898 
L 274.53412 270.092617 
L 275.178171 269.687062 
L 275.871765 268.964019 
L 276.565358 267.913591 
L 277.506663 266.02301 
L 278.299341 264.572055 
L 278.69568 264.233722 
L 278.992935 264.240318 
L 279.290189 264.472474 
L 279.73607 265.156439 
L 281.965478 269.139073 
L 282.659071 269.765022 
L 283.352665 270.099434 
L 283.996716 270.177498 
L 284.640767 270.037502 
L 285.284817 269.671127 
L 285.928868 269.048869 
L 286.622462 268.063188 
L 287.464682 266.43078 
L 288.505072 264.448866 
L 288.901412 264.120231 
L 289.198666 264.137801 
L 289.49592 264.382117 
L 289.941802 265.082306 
L 292.072124 268.95703 
L 292.765717 269.616858 
L 293.459311 269.975448 
L 294.103362 270.06867 
L 294.747413 269.93793 
L 295.391464 269.575738 
L 296.035515 268.952876 
L 296.729108 267.96089 
L 297.571329 266.315859 
L 298.611719 264.32911 
L 299.008058 264.009108 
L 299.305312 264.036712 
L 299.652109 264.354648 
L 300.147533 265.202958 
L 301.931059 268.578438 
L 302.674194 269.388122 
L 303.367788 269.814579 
L 304.011839 269.959705 
L 304.65589 269.874266 
L 305.299941 269.554561 
L 305.943992 268.974031 
L 306.637585 268.025885 
L 307.430263 266.522131 
L 308.61928 264.209439 
L 309.015619 263.896608 
L 309.312874 263.9331 
L 309.65967 264.263004 
L 310.155094 265.12642 
L 311.889078 268.442387 
L 312.632213 269.268286 
L 313.325807 269.702017 
L 313.969858 269.847165 
L 314.613909 269.755402 
L 315.25796 269.422425 
L 315.902011 268.821144 
L 316.595604 267.842543 
L 317.388282 266.302665 
L 318.527757 264.085744 
L 318.924096 263.779346 
L 319.221351 263.824161 
L 319.568147 264.165476 
L 320.063571 265.043539 
L 321.748012 268.299315 
L 322.441606 269.098548 
L 323.085657 269.539563 
L 323.729708 269.722805 
L 324.324216 269.675274 
L 324.968267 269.387738 
L 325.612318 268.831591 
L 326.305911 267.899426 
L 327.049047 266.503657 
L 328.386692 263.898731 
L 328.733488 263.657317 
L 329.030743 263.710319 
L 329.377539 264.062963 
L 329.872963 264.955713 
L 331.507862 268.151034 
L 332.201455 268.967664 
L 332.845506 269.417543 
L 333.489557 269.60261 
L 334.084066 269.550654 
L 334.678574 269.283709 
L 335.322625 268.730218 
L 335.966676 267.873455 
L 336.709812 266.493367 
L 338.096999 263.77118 
L 338.443796 263.53572 
L 338.74105 263.597112 
L 339.087847 263.961303 
L 339.58327 264.868916 
L 341.168627 268.0019 
L 341.86222 268.836024 
L 342.506271 269.294546 
L 343.150322 269.480936 
L 343.744831 269.423828 
L 344.339339 269.145251 
L 344.933848 268.626123 
L 345.577899 267.765593 
L 346.321035 266.374839 
L 347.708221 263.639066 
L 348.055018 263.410049 
L 348.352272 263.480347 
L 348.699069 263.856635 
L 349.244035 264.886182 
L 350.680764 267.772747 
L 351.374358 268.651588 
L 352.018409 269.141511 
L 352.612917 269.343131 
L 353.207426 269.31787 
L 353.801935 269.065706 
L 354.396443 268.569908 
L 355.040494 267.730323 
L 355.78363 266.355401 
L 357.269902 263.450075 
L 357.616698 263.275672 
L 357.913953 263.397518 
L 358.260749 263.827075 
L 358.855258 265.015905 
L 360.093817 267.534763 
L 360.787411 268.459558 
L 361.431462 268.981999 
L 362.02597 269.204685 
L 362.620479 269.193409 
L 363.214988 268.948818 
L 363.809496 268.455054 
L 364.453547 267.611254 
L 365.196683 266.224442 
L 366.633412 263.358239 
L 366.980209 263.146112 
L 367.277463 263.237965 
L 367.62426 263.642208 
L 368.169226 264.707974 
L 369.556413 267.532365 
L 370.250006 268.419041 
L 370.894057 268.902313 
L 371.488566 269.085537 
L 372.083074 269.028689 
L 372.677583 268.729926 
L 373.272092 268.169763 
L 373.916143 267.241988 
L 374.659278 265.760215 
L 375.848296 263.326253 
L 376.195092 263.031517 
L 376.492347 263.051036 
L 376.789601 263.320155 
L 377.235482 264.085408 
L 379.167635 267.874551 
L 379.811686 268.541303 
L 380.406195 268.871658 
L 381.000703 268.950155 
L 381.54567 268.805545 
L 382.140178 268.403577 
L 382.734687 267.723441 
L 383.42828 266.555843 
L 384.518213 264.140792 
L 385.112721 263.107171 
L 385.459518 262.872402 
L 385.756772 262.950812 
L 386.103569 263.34923 
L 386.648535 264.424576 
L 388.035722 267.290643 
L 388.729315 268.179311 
L 389.373366 268.649642 
L 389.967875 268.807582 
L 390.512841 268.728717 
L 391.057807 268.433424 
L 391.652316 267.845623 
L 392.296367 266.871767 
L 393.089045 265.215579 
L 394.129435 263.063176 
L 394.476232 262.749927 
L 394.773486 262.759279 
L 395.070741 263.025391 
L 395.516622 263.798343 
L 397.448775 267.634833 
L 398.092826 268.292878 
L 398.687335 268.60226 
L 399.232301 268.651988 
L 399.777267 268.48141 
L 400.322233 268.082457 
L 400.916742 267.364753 
L 401.610335 266.137013 
L 403.393861 262.641655 
L 403.691115 262.583659 
L 403.98837 262.790701 
L 404.384709 263.410861 
L 405.276472 265.418417 
L 406.118692 267.055616 
L 406.812286 267.937056 
L 407.406794 268.362487 
L 407.95176 268.506223 
L 408.496727 268.422403 
L 409.041693 268.10806 
L 409.636201 267.483114 
L 410.280252 266.45162 
L 411.122473 264.606243 
L 412.014236 262.764331 
L 412.361033 262.446656 
L 412.658287 262.45976 
L 412.955541 262.735886 
L 413.401423 263.530125 
L 415.284033 267.33749 
L 415.928084 268.00372 
L 416.522593 268.304656 
L 417.067559 268.332213 
L 417.612525 268.124736 
L 418.157491 267.672113 
L 418.752 266.877107 
L 419.445593 265.5448 
L 420.981407 262.396438 
L 421.278662 262.258336 
L 421.526374 262.353204 
L 421.87317 262.780031 
L 422.418137 263.909549 
L 423.706239 266.671519 
L 424.399832 267.595596 
L 424.99434 268.038877 
L 425.539307 268.183236 
L 426.084273 268.084999 
L 426.629239 267.740424 
L 427.223748 267.063966 
L 427.867799 265.958443 
L 428.809104 263.79397 
L 429.502697 262.41325 
L 429.849494 262.111715 
L 430.097206 262.123051 
L 430.39446 262.385598 
L 430.840342 263.178782 
L 432.722952 267.046552 
L 433.367003 267.707595 
L 433.91197 267.975279 
L 434.456936 267.990177 
L 434.95236 267.785931 
L 435.497326 267.311747 
L 436.091835 266.475934 
L 436.785428 265.081237 
L 438.172615 262.126761 
L 438.519411 261.921824 
L 438.767123 262.009918 
L 439.11392 262.437311 
L 439.658886 263.584905 
L 440.946988 266.387441 
L 441.591039 267.256537 
L 442.185548 267.705232 
L 442.730514 267.837921 
L 443.225938 267.733692 
L 443.770904 267.367534 
L 444.31587 266.721562 
L 444.959921 265.582293 
L 445.950769 263.245756 
L 446.59482 262.005233 
L 446.941617 261.749174 
L 447.189329 261.802634 
L 447.486583 262.117589 
L 447.932464 262.974515 
L 449.616905 266.564475 
L 450.260956 267.295483 
L 450.805923 267.601518 
L 451.301346 267.644409 
L 451.79677 267.465714 
L 452.341736 267.005067 
L 452.936245 266.167257 
L 453.629838 264.750015 
L 455.017025 261.750661 
L 455.31428 261.562778 
L 455.561991 261.627813 
L 455.859246 261.958706 
L 456.305127 262.837406 
L 457.890483 266.288937 
L 458.534534 267.065745 
L 459.079501 267.399083 
L 459.574925 267.458043 
L 460.070348 267.28766 
L 460.565772 266.881844 
L 461.110738 266.147962 
L 461.754789 264.888497 
L 463.340146 261.489963 
L 463.6374 261.368986 
L 463.885112 261.494094 
L 464.231909 261.978163 
L 464.826417 263.320063 
L 465.91635 265.762916 
L 466.560401 266.683481 
L 467.105367 267.122517 
L 467.600791 267.265609 
L 468.096215 267.171021 
L 468.591638 266.835918 
L 469.136605 266.175399 
L 469.780656 264.989071 
L 470.870588 262.335884 
L 471.415554 261.359935 
L 471.712809 261.170959 
L 471.960521 261.242295 
L 472.257775 261.587797 
L 472.753199 262.613264 
L 474.189928 265.827573 
L 474.784436 266.600844 
L 475.329403 266.977528 
L 475.824827 267.05739 
L 476.32025 266.890977 
L 476.815674 266.472639 
L 477.36064 265.706855 
L 478.004691 264.391274 
L 479.490963 261.110163 
L 479.788217 260.961497 
L 480.035929 261.070955 
L 480.382726 261.547626 
L 480.927692 262.78254 
L 482.067167 265.397422 
L 482.711218 266.318742 
L 483.256184 266.738376 
L 483.751608 266.846652 
L 484.197489 266.725722 
L 484.692913 266.344823 
L 485.237879 265.612451 
L 485.88193 264.321985 
L 487.467287 260.845454 
L 487.764541 260.751379 
L 488.012253 260.909791 
L 488.35905 261.446883 
L 489.003101 262.989662 
L 489.944406 265.144084 
L 490.588457 266.088788 
L 491.133423 266.516496 
L 491.628847 266.622074 
L 492.074728 266.490378 
L 492.570152 266.087945 
L 493.115119 265.320704 
L 493.75917 263.980005 
L 495.245441 260.649077 
L 495.542695 260.520793 
L 495.790407 260.655369 
L 496.137204 261.17188 
L 496.731713 262.586651 
L 497.772103 264.99673 
L 498.366611 265.864251 
L 498.911577 266.291857 
L 499.357459 266.389829 
L 499.80334 266.264683 
L 500.298764 265.86005 
L 500.84373 265.079515 
L 501.487781 263.711771 
L 502.924511 260.433165 
L 503.221765 260.284614 
L 503.469477 260.406707 
L 503.816274 260.915212 
L 504.410782 262.33806 
L 505.451172 264.774458 
L 506.045681 265.643462 
L 506.541105 266.037168 
L 506.986986 266.143064 
L 507.432868 266.016996 
L 507.878749 265.656022 
L 508.374173 264.970037 
L 508.968681 263.75349 
L 510.60358 260.099855 
L 510.851292 260.040186 
L 511.099004 260.207819 
L 511.445801 260.773252 
L 512.089852 262.380265 
L 513.031157 264.569538 
L 513.625666 265.429554 
L 514.121089 265.804745 
L 514.566971 265.884763 
L 515.012852 265.7233 
L 515.458734 265.316584 
L 516.0037 264.476331 
L 516.647751 263.019009 
L 517.886311 260.038546 
L 518.183565 259.791671 
L 518.431277 259.839021 
L 518.728531 260.188673 
L 519.174413 261.153328 
L 520.611142 264.567345 
L 521.156108 265.280745 
L 521.651532 265.593164 
L 522.097413 265.607411 
L 522.543295 265.369692 
L 523.038719 264.803507 
L 523.583685 263.807383 
L 524.32682 261.917512 
L 525.169041 259.884164 
L 525.515838 259.538298 
L 525.76355 259.569503 
L 526.060804 259.907575 
L 526.506685 260.871499 
L 527.943415 264.317218 
L 528.488381 265.025474 
L 528.983805 265.320746 
L 529.380144 265.322876 
L 529.776483 265.117513 
L 530.222364 264.634081 
L 530.76733 263.674499 
L 531.460924 261.935546 
L 532.402229 259.590892 
L 532.749026 259.240319 
L 532.996738 259.274218 
L 533.293992 259.621431 
L 533.739873 260.604803 
L 535.176603 264.072631 
L 535.721569 264.762439 
L 536.16745 265.016402 
L 536.563789 265.011677 
L 536.960128 264.790305 
L 537.40601 264.277975 
L 537.950976 263.26998 
L 538.694112 261.328439 
L 539.536332 259.25334 
L 539.883129 258.924677 
L 540.130841 258.982153 
L 540.428095 259.360695 
L 540.873977 260.383634 
L 542.211621 263.687797 
L 542.756587 264.420678 
L 543.202469 264.69683 
L 543.598808 264.701457 
L 543.995147 264.479781 
L 544.441028 263.955915 
L 544.985995 262.919753 
L 545.72913 260.933185 
L 546.521809 258.959145 
L 546.868605 258.617322 
L 547.116317 258.671522 
L 547.413571 259.053509 
L 547.859453 260.091878 
L 549.147555 263.33642 
L 549.692521 264.095107 
L 550.138403 264.37868 
L 550.534742 264.37886 
L 550.931081 264.14221 
L 551.376962 263.589244 
L 551.921928 262.50339 
L 552.714607 260.310085 
L 553.4082 258.613973 
L 553.754997 258.29009 
L 554.002709 258.365389 
L 554.299963 258.776433 
L 554.795387 259.990989 
L 555.934862 262.920108 
L 556.479828 263.727736 
L 556.925709 264.036752 
L 557.322048 264.047562 
L 557.718387 263.810138 
L 558.164269 263.243043 
L 558.709235 262.123637 
L 559.551456 259.731335 
L 560.145964 258.2827 
L 560.492761 257.941556 
L 560.740473 258.011562 
L 561.037727 258.424652 
L 561.533151 259.655635 
L 562.672626 262.605421 
L 563.217592 263.395011 
L 563.663473 263.673681 
L 564.059813 263.645034 
L 564.456152 263.356062 
L 564.902033 262.717202 
L 565.446999 261.499188 
L 567.032356 257.586966 
L 567.280067 257.572921 
L 567.527779 257.825977 
L 567.924118 258.672882 
L 569.509475 262.643836 
L 570.004899 263.172468 
L 570.401238 263.287639 
L 570.748034 263.164605 
L 571.144373 262.767105 
L 571.590255 261.992414 
L 572.184763 260.467153 
L 573.324238 257.392863 
L 573.621493 257.145821 
L 573.819662 257.203503 
L 574.067374 257.515911 
L 574.463713 258.438433 
L 575.900442 262.148705 
L 576.395866 262.734459 
L 576.792205 262.879866 
L 577.139002 262.771531 
L 577.535341 262.377665 
L 577.981222 261.591209 
L 578.575731 260.030667 
L 579.665663 257.015285 
L 579.962918 256.73845 
L 580.161087 256.78172 
L 580.408799 257.084689 
L 580.805138 258.011087 
L 582.241867 261.765651 
L 582.687749 262.298824 
L 583.084088 262.451835 
L 583.430885 262.337372 
L 583.827224 261.921929 
L 584.273105 261.094628 
L 584.867614 259.466897 
L 585.908004 256.555608 
L 586.205258 256.289611 
L 586.403428 256.347369 
L 586.65114 256.673374 
L 587.047479 257.636175 
L 588.385123 261.218238 
L 588.831005 261.789228 
L 589.227344 261.959023 
L 589.57414 261.84564 
L 589.920937 261.487407 
L 590.366818 260.670545 
L 590.961327 259.02711 
L 592.001717 256.052725 
L 592.298971 255.783738 
L 592.497141 255.84692 
L 592.744853 256.186667 
L 593.141192 257.179291 
L 594.429294 260.703069 
L 594.875175 261.287167 
L 595.221972 261.447873 
L 595.519226 261.379297 
L 595.866023 261.058277 
L 596.262362 260.376114 
L 596.807328 258.934011 
L 598.045888 255.413796 
L 598.2936 255.262337 
L 598.491769 255.368211 
L 598.789024 255.87084 
L 599.284448 257.290656 
L 600.225753 259.941215 
L 600.721177 260.691219 
L 601.067973 260.888152 
L 601.365228 260.838747 
L 601.712024 260.526134 
L 602.108363 259.836014 
L 602.65333 258.357725 
L 603.842347 254.874409 
L 604.090059 254.695632 
L 604.288228 254.787274 
L 604.53594 255.174972 
L 604.981822 256.403655 
L 606.022212 259.407646 
L 606.468093 260.088682 
L 606.81489 260.291121 
L 607.112144 260.232821 
L 607.458941 259.893962 
L 607.85528 259.154876 
L 608.400246 257.591756 
L 609.490179 254.296372 
L 609.737891 254.080459 
L 609.93606 254.150394 
L 610.183772 254.524242 
L 610.580111 255.601985 
L 611.719586 258.907863 
L 612.165467 259.517743 
L 612.512264 259.642069 
L 612.809518 259.501242 
L 613.156315 259.04903 
L 613.602197 258.028696 
L 614.246248 255.888348 
L 614.939841 253.765644 
L 615.237095 253.416664 
L 615.435265 253.460982 
L 615.682977 253.8174 
L 616.079316 254.898965 
L 617.218791 258.251131 
L 617.61513 258.797287 
L 617.912384 258.927072 
L 618.209638 258.812795 
L 618.556435 258.37168 
L 619.002316 257.336201 
L 619.646367 255.135776 
L 620.339961 252.988418 
L 620.637215 252.671231 
L 620.835385 252.749536 
L 621.083097 253.154591 
L 621.528978 254.470995 
L 622.470283 257.336497 
L 622.916165 258.011491 
L 623.213419 258.142166 
L 623.510673 258.011048 
L 623.85747 257.528419 
L 624.303351 256.412041 
L 625.046487 253.728222 
L 625.591453 252.123137 
L 625.839165 251.857248 
L 626.037335 251.917617 
L 626.285047 252.316142 
L 626.681386 253.482848 
L 627.672234 256.553544 
L 628.068573 257.14819 
L 628.365827 257.272524 
L 628.613539 257.16012 
L 628.910793 256.767101 
L 629.307132 255.823249 
L 629.901641 253.705529 
L 630.595234 251.342945 
L 630.892489 250.95185 
L 631.090658 251.006116 
L 631.33837 251.412212 
L 631.734709 252.61129 
L 632.676014 255.591689 
L 633.072353 256.18965 
L 633.369608 256.291953 
L 633.61732 256.144375 
L 633.914574 255.689309 
L 634.310913 254.636602 
L 635.004506 251.968636 
L 635.549473 250.22065 
L 635.797185 249.930904 
L 635.995354 249.999395 
L 636.243066 250.436423 
L 636.688948 251.870544 
L 637.481626 254.438972 
L 637.877965 255.081884 
L 638.175219 255.190276 
L 638.422931 255.02748 
L 638.720185 254.531039 
L 639.116524 253.392896 
L 640.503711 248.784754 
L 640.701881 248.828733 
L 640.949593 249.257394 
L 641.345932 250.533748 
L 642.188152 253.303094 
L 642.534949 253.844478 
L 642.782661 253.939658 
L 643.030373 253.783374 
L 643.327627 253.266404 
L 643.723966 252.060404 
L 645.06161 247.454451 
L 645.25978 247.51305 
L 645.507492 247.977121 
L 645.953373 249.504819 
L 646.696509 251.937705 
L 647.043306 252.439482 
L 647.291018 252.475484 
L 647.53873 252.234533 
L 647.835984 251.587276 
L 648.281865 249.969854 
L 649.272713 246.081688 
L 649.520425 245.896798 
L 649.718595 246.104547 
L 650.015849 246.901954 
L 651.155324 250.576875 
L 651.452578 250.799114 
L 651.650747 250.70327 
L 651.898459 250.303542 
L 652.245256 249.253121 
L 652.839765 246.53665 
L 653.384731 244.389071 
L 653.632443 244.060206 
L 653.78107 244.119643 
L 653.97924 244.477186 
L 654.375579 245.837162 
L 655.069172 248.244532 
L 655.415969 248.734107 
L 655.614138 248.722047 
L 655.86185 248.396436 
L 656.159104 247.564221 
L 656.654528 245.323165 
L 657.348122 242.21602 
L 657.595834 241.840702 
L 657.744461 241.890564 
L 657.94263 242.255435 
L 658.338969 243.651305 
L 658.98302 245.851586 
L 659.280275 246.235797 
L 659.478444 246.190501 
L 659.726156 245.781477 
L 660.02341 244.784583 
L 660.568377 241.950318 
L 661.113343 239.417281 
L 661.361055 239.030853 
L 661.509682 239.10167 
L 661.707851 239.511045 
L 662.153733 241.156503 
L 662.649157 242.742223 
L 662.896869 243.03495 
L 663.095038 242.957663 
L 663.34275 242.454601 
L 663.689547 241.029296 
L 664.829022 235.390632 
L 664.977649 235.367201 
L 665.175818 235.686834 
L 665.522615 236.854369 
L 666.067581 238.560692 
L 666.315293 238.745265 
L 666.46392 238.605997 
L 666.711632 237.926886 
L 667.058429 236.144206 
L 668.049277 230.290168 
L 668.247446 230.130829 
L 668.396073 230.310697 
L 668.74287 231.307266 
L 669.188751 232.419948 
L 669.386921 232.459655 
L 669.535548 232.21395 
L 669.78326 231.259412 
L 670.130057 228.907446 
L 671.071362 221.928298 
L 671.269532 221.613742 
L 671.418159 221.660805 
L 671.963125 222.034628 
L 672.161294 221.588766 
L 672.409006 220.250581 
L 672.755803 216.762834 
L 673.498939 205.982392 
L 674.489787 191.989671 
L 674.787041 182.020529 
L 674.935668 173.981895 
L 674.935668 173.981895 
" clip-path="url(#pe07b12c0dd)" style="fill: none; stroke: #ff7f0e; stroke-width: 1.5; stroke-linecap: square"/>
   </g>
   <g id="patch_3">
    <path d="M 36.465625 284.4 
L 36.465625 7.2 
" style="fill: none; stroke: #000000; stroke-width: 0.8; stroke-linejoin: miter; stroke-linecap: square"/>
   </g>
   <g id="patch_4">
    <path d="M 706.065625 284.4 
L 706.065625 7.2 
" style="fill: none; stroke: #000000; stroke-width: 0.8; stroke-linejoin: miter; stroke-linecap: square"/>
   </g>
   <g id="patch_5">
    <path d="M 36.465625 284.4 
L 706.065625 284.4 
" style="fill: none; stroke: #000000; stroke-width: 0.8; stroke-linejoin: miter; stroke-linecap: square"/>
   </g>
   <g id="patch_6">
    <path d="M 36.465625 7.2 
L 706.065625 7.2 
" style="fill: none; stroke: #000000; stroke-width: 0.8; stroke-linejoin: miter; stroke-linecap: square"/>
   </g>
   <g id="legend_1">
    <g id="patch_7">
     <path d="M 43.465625 73.9125 
L 205.965625 73.9125 
Q 207.965625 73.9125 207.965625 71.9125 
L 207.965625 14.2 
Q 207.965625 12.2 205.965625 12.2 
L 43.465625 12.2 
Q 41.465625 12.2 41.465625 14.2 
L 41.465625 71.9125 
Q 41.465625 73.9125 43.465625 73.9125 
z
" style="fill: #ffffff; opacity: 0.8; stroke: #cccccc; stroke-linejoin: miter"/>
    </g>
    <g id="line2d_17">
     <path d="M 45.465625 20.298438 
L 55.465625 20.298438 
L 65.465625 20.298438 
" style="fill: none; stroke: #1f77b4; stroke-width: 1.5; stroke-linecap: square"/>
    </g>
    <g id="text_14">
     <!-- Mf before ISCO cut: $e$=0.2 -->
     <g transform="translate(73.465625 23.798438) scale(0.1 -0.1)">
      <defs>
       <path id="DejaVuSans-4d" d="M 628 4666 
L 1569 4666 
L 2759 1491 
L 3956 4666 
L 4897 4666 
L 4897 0 
L 4281 0 
L 4281 4097 
L 3078 897 
L 2444 897 
L 1241 4097 
L 1241 0 
L 628 0 
L 628 4666 
z
" transform="scale(0.015625)"/>
       <path id="DejaVuSans-66" d="M 2375 4863 
L 2375 4384 
L 1825 4384 
Q 1516 4384 1395 4259 
Q 1275 4134 1275 3809 
L 1275 3500 
L 2222 3500 
L 2222 3053 
L 1275 3053 
L 1275 0 
L 697 0 
L 697 3053 
L 147 3053 
L 147 3500 
L 697 3500 
L 697 3744 
Q 697 4328 969 4595 
Q 1241 4863 1831 4863 
L 2375 4863 
z
" transform="scale(0.015625)"/>
       <path id="DejaVuSans-20" transform="scale(0.015625)"/>
       <path id="DejaVuSans-62" d="M 3116 1747 
Q 3116 2381 2855 2742 
Q 2594 3103 2138 3103 
Q 1681 3103 1420 2742 
Q 1159 2381 1159 1747 
Q 1159 1113 1420 752 
Q 1681 391 2138 391 
Q 2594 391 2855 752 
Q 3116 1113 3116 1747 
z
M 1159 2969 
Q 1341 3281 1617 3432 
Q 1894 3584 2278 3584 
Q 2916 3584 3314 3078 
Q 3713 2572 3713 1747 
Q 3713 922 3314 415 
Q 2916 -91 2278 -91 
Q 1894 -91 1617 61 
Q 1341 213 1159 525 
L 1159 0 
L 581 0 
L 581 4863 
L 1159 4863 
L 1159 2969 
z
" transform="scale(0.015625)"/>
       <path id="DejaVuSans-65" d="M 3597 1894 
L 3597 1613 
L 953 1613 
Q 991 1019 1311 708 
Q 1631 397 2203 397 
Q 2534 397 2845 478 
Q 3156 559 3463 722 
L 3463 178 
Q 3153 47 2828 -22 
Q 2503 -91 2169 -91 
Q 1331 -91 842 396 
Q 353 884 353 1716 
Q 353 2575 817 3079 
Q 1281 3584 2069 3584 
Q 2775 3584 3186 3129 
Q 3597 2675 3597 1894 
z
M 3022 2063 
Q 3016 2534 2758 2815 
Q 2500 3097 2075 3097 
Q 1594 3097 1305 2825 
Q 1016 2553 972 2059 
L 3022 2063 
z
" transform="scale(0.015625)"/>
       <path id="DejaVuSans-6f" d="M 1959 3097 
Q 1497 3097 1228 2736 
Q 959 2375 959 1747 
Q 959 1119 1226 758 
Q 1494 397 1959 397 
Q 2419 397 2687 759 
Q 2956 1122 2956 1747 
Q 2956 2369 2687 2733 
Q 2419 3097 1959 3097 
z
M 1959 3584 
Q 2709 3584 3137 3096 
Q 3566 2609 3566 1747 
Q 3566 888 3137 398 
Q 2709 -91 1959 -91 
Q 1206 -91 779 398 
Q 353 888 353 1747 
Q 353 2609 779 3096 
Q 1206 3584 1959 3584 
z
" transform="scale(0.015625)"/>
       <path id="DejaVuSans-72" d="M 2631 2963 
Q 2534 3019 2420 3045 
Q 2306 3072 2169 3072 
Q 1681 3072 1420 2755 
Q 1159 2438 1159 1844 
L 1159 0 
L 581 0 
L 581 3500 
L 1159 3500 
L 1159 2956 
Q 1341 3275 1631 3429 
Q 1922 3584 2338 3584 
Q 2397 3584 2469 3576 
Q 2541 3569 2628 3553 
L 2631 2963 
z
" transform="scale(0.015625)"/>
       <path id="DejaVuSans-49" d="M 628 4666 
L 1259 4666 
L 1259 0 
L 628 0 
L 628 4666 
z
" transform="scale(0.015625)"/>
       <path id="DejaVuSans-53" d="M 3425 4513 
L 3425 3897 
Q 3066 4069 2747 4153 
Q 2428 4238 2131 4238 
Q 1616 4238 1336 4038 
Q 1056 3838 1056 3469 
Q 1056 3159 1242 3001 
Q 1428 2844 1947 2747 
L 2328 2669 
Q 3034 2534 3370 2195 
Q 3706 1856 3706 1288 
Q 3706 609 3251 259 
Q 2797 -91 1919 -91 
Q 1588 -91 1214 -16 
Q 841 59 441 206 
L 441 856 
Q 825 641 1194 531 
Q 1563 422 1919 422 
Q 2459 422 2753 634 
Q 3047 847 3047 1241 
Q 3047 1584 2836 1778 
Q 2625 1972 2144 2069 
L 1759 2144 
Q 1053 2284 737 2584 
Q 422 2884 422 3419 
Q 422 4038 858 4394 
Q 1294 4750 2059 4750 
Q 2388 4750 2728 4690 
Q 3069 4631 3425 4513 
z
" transform="scale(0.015625)"/>
       <path id="DejaVuSans-43" d="M 4122 4306 
L 4122 3641 
Q 3803 3938 3442 4084 
Q 3081 4231 2675 4231 
Q 1875 4231 1450 3742 
Q 1025 3253 1025 2328 
Q 1025 1406 1450 917 
Q 1875 428 2675 428 
Q 3081 428 3442 575 
Q 3803 722 4122 1019 
L 4122 359 
Q 3791 134 3420 21 
Q 3050 -91 2638 -91 
Q 1578 -91 968 557 
Q 359 1206 359 2328 
Q 359 3453 968 4101 
Q 1578 4750 2638 4750 
Q 3056 4750 3426 4639 
Q 3797 4528 4122 4306 
z
" transform="scale(0.015625)"/>
       <path id="DejaVuSans-4f" d="M 2522 4238 
Q 1834 4238 1429 3725 
Q 1025 3213 1025 2328 
Q 1025 1447 1429 934 
Q 1834 422 2522 422 
Q 3209 422 3611 934 
Q 4013 1447 4013 2328 
Q 4013 3213 3611 3725 
Q 3209 4238 2522 4238 
z
M 2522 4750 
Q 3503 4750 4090 4092 
Q 4678 3434 4678 2328 
Q 4678 1225 4090 567 
Q 3503 -91 2522 -91 
Q 1538 -91 948 565 
Q 359 1222 359 2328 
Q 359 3434 948 4092 
Q 1538 4750 2522 4750 
z
" transform="scale(0.015625)"/>
       <path id="DejaVuSans-63" d="M 3122 3366 
L 3122 2828 
Q 2878 2963 2633 3030 
Q 2388 3097 2138 3097 
Q 1578 3097 1268 2742 
Q 959 2388 959 1747 
Q 959 1106 1268 751 
Q 1578 397 2138 397 
Q 2388 397 2633 464 
Q 2878 531 3122 666 
L 3122 134 
Q 2881 22 2623 -34 
Q 2366 -91 2075 -91 
Q 1284 -91 818 406 
Q 353 903 353 1747 
Q 353 2603 823 3093 
Q 1294 3584 2113 3584 
Q 2378 3584 2631 3529 
Q 2884 3475 3122 3366 
z
" transform="scale(0.015625)"/>
       <path id="DejaVuSans-75" d="M 544 1381 
L 544 3500 
L 1119 3500 
L 1119 1403 
Q 1119 906 1312 657 
Q 1506 409 1894 409 
Q 2359 409 2629 706 
Q 2900 1003 2900 1516 
L 2900 3500 
L 3475 3500 
L 3475 0 
L 2900 0 
L 2900 538 
Q 2691 219 2414 64 
Q 2138 -91 1772 -91 
Q 1169 -91 856 284 
Q 544 659 544 1381 
z
M 1991 3584 
L 1991 3584 
z
" transform="scale(0.015625)"/>
       <path id="DejaVuSans-74" d="M 1172 4494 
L 1172 3500 
L 2356 3500 
L 2356 3053 
L 1172 3053 
L 1172 1153 
Q 1172 725 1289 603 
Q 1406 481 1766 481 
L 2356 481 
L 2356 0 
L 1766 0 
Q 1100 0 847 248 
Q 594 497 594 1153 
L 594 3053 
L 172 3053 
L 172 3500 
L 594 3500 
L 594 4494 
L 1172 4494 
z
" transform="scale(0.015625)"/>
       <path id="DejaVuSans-3a" d="M 750 794 
L 1409 794 
L 1409 0 
L 750 0 
L 750 794 
z
M 750 3309 
L 1409 3309 
L 1409 2516 
L 750 2516 
L 750 3309 
z
" transform="scale(0.015625)"/>
       <path id="DejaVuSans-Oblique-65" d="M 3078 2063 
Q 3088 2113 3092 2166 
Q 3097 2219 3097 2272 
Q 3097 2653 2873 2875 
Q 2650 3097 2266 3097 
Q 1838 3097 1509 2826 
Q 1181 2556 1013 2059 
L 3078 2063 
z
M 3578 1613 
L 903 1613 
Q 884 1494 878 1425 
Q 872 1356 872 1306 
Q 872 872 1139 634 
Q 1406 397 1894 397 
Q 2269 397 2603 481 
Q 2938 566 3225 728 
L 3116 159 
Q 2806 34 2476 -28 
Q 2147 -91 1806 -91 
Q 1078 -91 686 257 
Q 294 606 294 1247 
Q 294 1794 489 2264 
Q 684 2734 1063 3103 
Q 1306 3334 1642 3459 
Q 1978 3584 2356 3584 
Q 2950 3584 3301 3228 
Q 3653 2872 3653 2272 
Q 3653 2128 3634 1964 
Q 3616 1800 3578 1613 
z
" transform="scale(0.015625)"/>
       <path id="DejaVuSans-3d" d="M 678 2906 
L 4684 2906 
L 4684 2381 
L 678 2381 
L 678 2906 
z
M 678 1631 
L 4684 1631 
L 4684 1100 
L 678 1100 
L 678 1631 
z
" transform="scale(0.015625)"/>
      </defs>
      <use xlink:href="#DejaVuSans-4d" transform="translate(0 0.015625)"/>
      <use xlink:href="#DejaVuSans-66" transform="translate(86.279297 0.015625)"/>
      <use xlink:href="#DejaVuSans-20" transform="translate(121.484375 0.015625)"/>
      <use xlink:href="#DejaVuSans-62" transform="translate(153.271484 0.015625)"/>
      <use xlink:href="#DejaVuSans-65" transform="translate(216.748047 0.015625)"/>
      <use xlink:href="#DejaVuSans-66" transform="translate(278.271484 0.015625)"/>
      <use xlink:href="#DejaVuSans-6f" transform="translate(313.476562 0.015625)"/>
      <use xlink:href="#DejaVuSans-72" transform="translate(374.658203 0.015625)"/>
      <use xlink:href="#DejaVuSans-65" transform="translate(415.771484 0.015625)"/>
      <use xlink:href="#DejaVuSans-20" transform="translate(477.294922 0.015625)"/>
      <use xlink:href="#DejaVuSans-49" transform="translate(509.082031 0.015625)"/>
      <use xlink:href="#DejaVuSans-53" transform="translate(538.574219 0.015625)"/>
      <use xlink:href="#DejaVuSans-43" transform="translate(602.050781 0.015625)"/>
      <use xlink:href="#DejaVuSans-4f" transform="translate(671.875 0.015625)"/>
      <use xlink:href="#DejaVuSans-20" transform="translate(750.585938 0.015625)"/>
      <use xlink:href="#DejaVuSans-63" transform="translate(782.373047 0.015625)"/>
      <use xlink:href="#DejaVuSans-75" transform="translate(837.353516 0.015625)"/>
      <use xlink:href="#DejaVuSans-74" transform="translate(900.732422 0.015625)"/>
      <use xlink:href="#DejaVuSans-3a" transform="translate(939.941406 0.015625)"/>
      <use xlink:href="#DejaVuSans-20" transform="translate(973.632812 0.015625)"/>
      <use xlink:href="#DejaVuSans-Oblique-65" transform="translate(1005.419922 0.015625)"/>
      <use xlink:href="#DejaVuSans-3d" transform="translate(1066.943359 0.015625)"/>
      <use xlink:href="#DejaVuSans-30" transform="translate(1150.732422 0.015625)"/>
      <use xlink:href="#DejaVuSans-2e" transform="translate(1214.355469 0.015625)"/>
      <use xlink:href="#DejaVuSans-32" transform="translate(1240.642578 0.015625)"/>
     </g>
    </g>
    <g id="line2d_18">
     <path d="M 45.465625 34.976563 
L 55.465625 34.976563 
L 65.465625 34.976563 
" style="fill: none; stroke-dasharray: 2.22,0.96; stroke-dashoffset: 0; stroke: #ff0000; stroke-width: 0.6"/>
    </g>
    <g id="text_15">
     <!-- Mf ISCO $e$=0 -->
     <g transform="translate(73.465625 38.476563) scale(0.1 -0.1)">
      <use xlink:href="#DejaVuSans-4d" transform="translate(0 0.015625)"/>
      <use xlink:href="#DejaVuSans-66" transform="translate(86.279297 0.015625)"/>
      <use xlink:href="#DejaVuSans-20" transform="translate(121.484375 0.015625)"/>
      <use xlink:href="#DejaVuSans-49" transform="translate(153.271484 0.015625)"/>
      <use xlink:href="#DejaVuSans-53" transform="translate(182.763672 0.015625)"/>
      <use xlink:href="#DejaVuSans-43" transform="translate(246.240234 0.015625)"/>
      <use xlink:href="#DejaVuSans-4f" transform="translate(316.064453 0.015625)"/>
      <use xlink:href="#DejaVuSans-20" transform="translate(394.775391 0.015625)"/>
      <use xlink:href="#DejaVuSans-Oblique-65" transform="translate(426.5625 0.015625)"/>
      <use xlink:href="#DejaVuSans-3d" transform="translate(488.085938 0.015625)"/>
      <use xlink:href="#DejaVuSans-30" transform="translate(571.875 0.015625)"/>
     </g>
    </g>
    <g id="PathCollection_2">
     <g>
      <use xlink:href="#m2d83f2d2e8" x="55.465625" y="50.529688" style="fill: #ff0000; stroke: #ff0000"/>
     </g>
    </g>
    <g id="text_16">
     <!-- ISCO cut -->
     <g transform="translate(73.465625 53.154688) scale(0.1 -0.1)">
      <use xlink:href="#DejaVuSans-49"/>
      <use xlink:href="#DejaVuSans-53" transform="translate(29.492188 0)"/>
      <use xlink:href="#DejaVuSans-43" transform="translate(92.96875 0)"/>
      <use xlink:href="#DejaVuSans-4f" transform="translate(162.792969 0)"/>
      <use xlink:href="#DejaVuSans-20" transform="translate(241.503906 0)"/>
      <use xlink:href="#DejaVuSans-63" transform="translate(273.291016 0)"/>
      <use xlink:href="#DejaVuSans-75" transform="translate(328.271484 0)"/>
      <use xlink:href="#DejaVuSans-74" transform="translate(391.650391 0)"/>
     </g>
    </g>
    <g id="line2d_19">
     <path d="M 45.465625 64.332813 
L 55.465625 64.332813 
L 65.465625 64.332813 
" style="fill: none; stroke: #ff7f0e; stroke-width: 1.5; stroke-linecap: square"/>
    </g>
    <g id="text_17">
     <!-- Mf after ISCO cut: $e$=0.2  -->
     <g transform="translate(73.465625 67.832813) scale(0.1 -0.1)">
      <defs>
       <path id="DejaVuSans-61" d="M 2194 1759 
Q 1497 1759 1228 1600 
Q 959 1441 959 1056 
Q 959 750 1161 570 
Q 1363 391 1709 391 
Q 2188 391 2477 730 
Q 2766 1069 2766 1631 
L 2766 1759 
L 2194 1759 
z
M 3341 1997 
L 3341 0 
L 2766 0 
L 2766 531 
Q 2569 213 2275 61 
Q 1981 -91 1556 -91 
Q 1019 -91 701 211 
Q 384 513 384 1019 
Q 384 1609 779 1909 
Q 1175 2209 1959 2209 
L 2766 2209 
L 2766 2266 
Q 2766 2663 2505 2880 
Q 2244 3097 1772 3097 
Q 1472 3097 1187 3025 
Q 903 2953 641 2809 
L 641 3341 
Q 956 3463 1253 3523 
Q 1550 3584 1831 3584 
Q 2591 3584 2966 3190 
Q 3341 2797 3341 1997 
z
" transform="scale(0.015625)"/>
      </defs>
      <use xlink:href="#DejaVuSans-4d" transform="translate(0 0.015625)"/>
      <use xlink:href="#DejaVuSans-66" transform="translate(86.279297 0.015625)"/>
      <use xlink:href="#DejaVuSans-20" transform="translate(121.484375 0.015625)"/>
      <use xlink:href="#DejaVuSans-61" transform="translate(153.271484 0.015625)"/>
      <use xlink:href="#DejaVuSans-66" transform="translate(214.550781 0.015625)"/>
      <use xlink:href="#DejaVuSans-74" transform="translate(249.755859 0.015625)"/>
      <use xlink:href="#DejaVuSans-65" transform="translate(288.964844 0.015625)"/>
      <use xlink:href="#DejaVuSans-72" transform="translate(350.488281 0.015625)"/>
      <use xlink:href="#DejaVuSans-20" transform="translate(391.601562 0.015625)"/>
      <use xlink:href="#DejaVuSans-49" transform="translate(423.388672 0.015625)"/>
      <use xlink:href="#DejaVuSans-53" transform="translate(452.880859 0.015625)"/>
      <use xlink:href="#DejaVuSans-43" transform="translate(516.357422 0.015625)"/>
      <use xlink:href="#DejaVuSans-4f" transform="translate(586.181641 0.015625)"/>
      <use xlink:href="#DejaVuSans-20" transform="translate(664.892578 0.015625)"/>
      <use xlink:href="#DejaVuSans-63" transform="translate(696.679688 0.015625)"/>
      <use xlink:href="#DejaVuSans-75" transform="translate(751.660156 0.015625)"/>
      <use xlink:href="#DejaVuSans-74" transform="translate(815.039062 0.015625)"/>
      <use xlink:href="#DejaVuSans-3a" transform="translate(854.248047 0.015625)"/>
      <use xlink:href="#DejaVuSans-20" transform="translate(887.939453 0.015625)"/>
      <use xlink:href="#DejaVuSans-Oblique-65" transform="translate(919.726562 0.015625)"/>
      <use xlink:href="#DejaVuSans-3d" transform="translate(981.25 0.015625)"/>
      <use xlink:href="#DejaVuSans-30" transform="translate(1065.039062 0.015625)"/>
      <use xlink:href="#DejaVuSans-2e" transform="translate(1128.662109 0.015625)"/>
      <use xlink:href="#DejaVuSans-32" transform="translate(1154.949219 0.015625)"/>
      <use xlink:href="#DejaVuSans-20" transform="translate(1218.572266 0.015625)"/>
     </g>
    </g>
   </g>
  </g>
 </g>
 <defs>
  <clipPath id="pe07b12c0dd">
   <rect x="36.465625" y="7.2" width="669.6" height="277.2"/>
  </clipPath>
 </defs>
</svg>
