<?xml version="1.0" encoding="utf-8" standalone="no"?>
<!DOCTYPE svg PUBLIC "-//W3C//DTD SVG 1.1//EN"
  "http://www.w3.org/Graphics/SVG/1.1/DTD/svg11.dtd">
<svg xmlns:xlink="http://www.w3.org/1999/xlink" width="713.265625pt" height="308.278125pt" viewBox="0 0 713.265625 308.278125" xmlns="http://www.w3.org/2000/svg" version="1.1">
 <metadata>
  <rdf:RDF xmlns:dc="http://purl.org/dc/elements/1.1/" xmlns:cc="http://creativecommons.org/ns#" xmlns:rdf="http://www.w3.org/1999/02/22-rdf-syntax-ns#">
   <cc:Work>
    <dc:type rdf:resource="http://purl.org/dc/dcmitype/StillImage"/>
    <dc:date>2025-09-03T12:55:15.464621</dc:date>
    <dc:format>image/svg+xml</dc:format>
    <dc:creator>
     <cc:Agent>
      <dc:title>Matplotlib v3.10.5, https://matplotlib.org/</dc:title>
     </cc:Agent>
    </dc:creator>
   </cc:Work>
  </rdf:RDF>
 </metadata>
 <defs>
  <style type="text/css">*{stroke-linejoin: round; stroke-linecap: butt}</style>
 </defs>
 <g id="figure_1">
  <g id="patch_1">
   <path d="M 0 308.278125 
L 713.265625 308.278125 
L 713.265625 0 
L 0 0 
z
" style="fill: #ffffff"/>
  </g>
  <g id="axes_1">
   <g id="patch_2">
    <path d="M 36.465625 284.4 
L 706.065625 284.4 
L 706.065625 7.2 
L 36.465625 7.2 
z
" style="fill: #ffffff"/>
   </g>
   <g id="PathCollection_1">
    <defs>
     <path id="m8cba092201" d="M 0 1.224745 
C 0.324806 1.224745 0.636353 1.095698 0.866025 0.866025 
C 1.095698 0.636353 1.224745 0.324806 1.224745 0 
C 1.224745 -0.324806 1.095698 -0.636353 0.866025 -0.866025 
C 0.636353 -1.095698 0.324806 -1.224745 0 -1.224745 
C -0.324806 -1.224745 -0.636353 -1.095698 -0.866025 -0.866025 
C -1.095698 -0.636353 -1.224745 -0.324806 -1.224745 0 
C -1.224745 0.324806 -1.095698 0.636353 -0.866025 0.866025 
C -0.636353 1.095698 -0.324806 1.224745 0 1.224745 
z
" style="stroke: #ff0000"/>
    </defs>
    <g clip-path="url(#pd45cf13f90)">
     <use xlink:href="#m8cba092201" x="668.424552" y="178.755772" style="fill: #ff0000; stroke: #ff0000"/>
    </g>
   </g>
   <g id="matplotlib.axis_1">
    <g id="xtick_1">
     <g id="line2d_1">
      <defs>
       <path id="m537beba698" d="M 0 0 
L 0 3.5 
" style="stroke: #000000; stroke-width: 0.8"/>
      </defs>
      <g>
       <use xlink:href="#m537beba698" x="77.18733" y="284.4" style="stroke: #000000; stroke-width: 0.8"/>
      </g>
     </g>
     <g id="text_1">
      <!-- −7000 -->
      <g transform="translate(60.272486 298.998438) scale(0.1 -0.1)">
       <defs>
        <path id="DejaVuSans-2212" d="M 678 2272 
L 4684 2272 
L 4684 1741 
L 678 1741 
L 678 2272 
z
" transform="scale(0.015625)"/>
        <path id="DejaVuSans-37" d="M 525 4666 
L 3525 4666 
L 3525 4397 
L 1831 0 
L 1172 0 
L 2766 4134 
L 525 4134 
L 525 4666 
z
" transform="scale(0.015625)"/>
        <path id="DejaVuSans-30" d="M 2034 4250 
Q 1547 4250 1301 3770 
Q 1056 3291 1056 2328 
Q 1056 1369 1301 889 
Q 1547 409 2034 409 
Q 2525 409 2770 889 
Q 3016 1369 3016 2328 
Q 3016 3291 2770 3770 
Q 2525 4250 2034 4250 
z
M 2034 4750 
Q 2819 4750 3233 4129 
Q 3647 3509 3647 2328 
Q 3647 1150 3233 529 
Q 2819 -91 2034 -91 
Q 1250 -91 836 529 
Q 422 1150 422 2328 
Q 422 3509 836 4129 
Q 1250 4750 2034 4750 
z
" transform="scale(0.015625)"/>
       </defs>
       <use xlink:href="#DejaVuSans-2212"/>
       <use xlink:href="#DejaVuSans-37" transform="translate(83.789062 0)"/>
       <use xlink:href="#DejaVuSans-30" transform="translate(147.412109 0)"/>
       <use xlink:href="#DejaVuSans-30" transform="translate(211.035156 0)"/>
       <use xlink:href="#DejaVuSans-30" transform="translate(274.658203 0)"/>
      </g>
     </g>
    </g>
    <g id="xtick_2">
     <g id="line2d_2">
      <g>
       <use xlink:href="#m537beba698" x="162.679034" y="284.4" style="stroke: #000000; stroke-width: 0.8"/>
      </g>
     </g>
     <g id="text_2">
      <!-- −6000 -->
      <g transform="translate(145.764191 298.998438) scale(0.1 -0.1)">
       <defs>
        <path id="DejaVuSans-36" d="M 2113 2584 
Q 1688 2584 1439 2293 
Q 1191 2003 1191 1497 
Q 1191 994 1439 701 
Q 1688 409 2113 409 
Q 2538 409 2786 701 
Q 3034 994 3034 1497 
Q 3034 2003 2786 2293 
Q 2538 2584 2113 2584 
z
M 3366 4563 
L 3366 3988 
Q 3128 4100 2886 4159 
Q 2644 4219 2406 4219 
Q 1781 4219 1451 3797 
Q 1122 3375 1075 2522 
Q 1259 2794 1537 2939 
Q 1816 3084 2150 3084 
Q 2853 3084 3261 2657 
Q 3669 2231 3669 1497 
Q 3669 778 3244 343 
Q 2819 -91 2113 -91 
Q 1303 -91 875 529 
Q 447 1150 447 2328 
Q 447 3434 972 4092 
Q 1497 4750 2381 4750 
Q 2619 4750 2861 4703 
Q 3103 4656 3366 4563 
z
" transform="scale(0.015625)"/>
       </defs>
       <use xlink:href="#DejaVuSans-2212"/>
       <use xlink:href="#DejaVuSans-36" transform="translate(83.789062 0)"/>
       <use xlink:href="#DejaVuSans-30" transform="translate(147.412109 0)"/>
       <use xlink:href="#DejaVuSans-30" transform="translate(211.035156 0)"/>
       <use xlink:href="#DejaVuSans-30" transform="translate(274.658203 0)"/>
      </g>
     </g>
    </g>
    <g id="xtick_3">
     <g id="line2d_3">
      <g>
       <use xlink:href="#m537beba698" x="248.170739" y="284.4" style="stroke: #000000; stroke-width: 0.8"/>
      </g>
     </g>
     <g id="text_3">
      <!-- −5000 -->
      <g transform="translate(231.255895 298.998438) scale(0.1 -0.1)">
       <defs>
        <path id="DejaVuSans-35" d="M 691 4666 
L 3169 4666 
L 3169 4134 
L 1269 4134 
L 1269 2991 
Q 1406 3038 1543 3061 
Q 1681 3084 1819 3084 
Q 2600 3084 3056 2656 
Q 3513 2228 3513 1497 
Q 3513 744 3044 326 
Q 2575 -91 1722 -91 
Q 1428 -91 1123 -41 
Q 819 9 494 109 
L 494 744 
Q 775 591 1075 516 
Q 1375 441 1709 441 
Q 2250 441 2565 725 
Q 2881 1009 2881 1497 
Q 2881 1984 2565 2268 
Q 2250 2553 1709 2553 
Q 1456 2553 1204 2497 
Q 953 2441 691 2322 
L 691 4666 
z
" transform="scale(0.015625)"/>
       </defs>
       <use xlink:href="#DejaVuSans-2212"/>
       <use xlink:href="#DejaVuSans-35" transform="translate(83.789062 0)"/>
       <use xlink:href="#DejaVuSans-30" transform="translate(147.412109 0)"/>
       <use xlink:href="#DejaVuSans-30" transform="translate(211.035156 0)"/>
       <use xlink:href="#DejaVuSans-30" transform="translate(274.658203 0)"/>
      </g>
     </g>
    </g>
    <g id="xtick_4">
     <g id="line2d_4">
      <g>
       <use xlink:href="#m537beba698" x="333.662443" y="284.4" style="stroke: #000000; stroke-width: 0.8"/>
      </g>
     </g>
     <g id="text_4">
      <!-- −4000 -->
      <g transform="translate(316.7476 298.998438) scale(0.1 -0.1)">
       <defs>
        <path id="DejaVuSans-34" d="M 2419 4116 
L 825 1625 
L 2419 1625 
L 2419 4116 
z
M 2253 4666 
L 3047 4666 
L 3047 1625 
L 3713 1625 
L 3713 1100 
L 3047 1100 
L 3047 0 
L 2419 0 
L 2419 1100 
L 313 1100 
L 313 1709 
L 2253 4666 
z
" transform="scale(0.015625)"/>
       </defs>
       <use xlink:href="#DejaVuSans-2212"/>
       <use xlink:href="#DejaVuSans-34" transform="translate(83.789062 0)"/>
       <use xlink:href="#DejaVuSans-30" transform="translate(147.412109 0)"/>
       <use xlink:href="#DejaVuSans-30" transform="translate(211.035156 0)"/>
       <use xlink:href="#DejaVuSans-30" transform="translate(274.658203 0)"/>
      </g>
     </g>
    </g>
    <g id="xtick_5">
     <g id="line2d_5">
      <g>
       <use xlink:href="#m537beba698" x="419.154148" y="284.4" style="stroke: #000000; stroke-width: 0.8"/>
      </g>
     </g>
     <g id="text_5">
      <!-- −3000 -->
      <g transform="translate(402.239304 298.998438) scale(0.1 -0.1)">
       <defs>
        <path id="DejaVuSans-33" d="M 2597 2516 
Q 3050 2419 3304 2112 
Q 3559 1806 3559 1356 
Q 3559 666 3084 287 
Q 2609 -91 1734 -91 
Q 1441 -91 1130 -33 
Q 819 25 488 141 
L 488 750 
Q 750 597 1062 519 
Q 1375 441 1716 441 
Q 2309 441 2620 675 
Q 2931 909 2931 1356 
Q 2931 1769 2642 2001 
Q 2353 2234 1838 2234 
L 1294 2234 
L 1294 2753 
L 1863 2753 
Q 2328 2753 2575 2939 
Q 2822 3125 2822 3475 
Q 2822 3834 2567 4026 
Q 2313 4219 1838 4219 
Q 1578 4219 1281 4162 
Q 984 4106 628 3988 
L 628 4550 
Q 988 4650 1302 4700 
Q 1616 4750 1894 4750 
Q 2613 4750 3031 4423 
Q 3450 4097 3450 3541 
Q 3450 3153 3228 2886 
Q 3006 2619 2597 2516 
z
" transform="scale(0.015625)"/>
       </defs>
       <use xlink:href="#DejaVuSans-2212"/>
       <use xlink:href="#DejaVuSans-33" transform="translate(83.789062 0)"/>
       <use xlink:href="#DejaVuSans-30" transform="translate(147.412109 0)"/>
       <use xlink:href="#DejaVuSans-30" transform="translate(211.035156 0)"/>
       <use xlink:href="#DejaVuSans-30" transform="translate(274.658203 0)"/>
      </g>
     </g>
    </g>
    <g id="xtick_6">
     <g id="line2d_6">
      <g>
       <use xlink:href="#m537beba698" x="504.645852" y="284.4" style="stroke: #000000; stroke-width: 0.8"/>
      </g>
     </g>
     <g id="text_6">
      <!-- −2000 -->
      <g transform="translate(487.731009 298.998438) scale(0.1 -0.1)">
       <defs>
        <path id="DejaVuSans-32" d="M 1228 531 
L 3431 531 
L 3431 0 
L 469 0 
L 469 531 
Q 828 903 1448 1529 
Q 2069 2156 2228 2338 
Q 2531 2678 2651 2914 
Q 2772 3150 2772 3378 
Q 2772 3750 2511 3984 
Q 2250 4219 1831 4219 
Q 1534 4219 1204 4116 
Q 875 4013 500 3803 
L 500 4441 
Q 881 4594 1212 4672 
Q 1544 4750 1819 4750 
Q 2544 4750 2975 4387 
Q 3406 4025 3406 3419 
Q 3406 3131 3298 2873 
Q 3191 2616 2906 2266 
Q 2828 2175 2409 1742 
Q 1991 1309 1228 531 
z
" transform="scale(0.015625)"/>
       </defs>
       <use xlink:href="#DejaVuSans-2212"/>
       <use xlink:href="#DejaVuSans-32" transform="translate(83.789062 0)"/>
       <use xlink:href="#DejaVuSans-30" transform="translate(147.412109 0)"/>
       <use xlink:href="#DejaVuSans-30" transform="translate(211.035156 0)"/>
       <use xlink:href="#DejaVuSans-30" transform="translate(274.658203 0)"/>
      </g>
     </g>
    </g>
    <g id="xtick_7">
     <g id="line2d_7">
      <g>
       <use xlink:href="#m537beba698" x="590.137557" y="284.4" style="stroke: #000000; stroke-width: 0.8"/>
      </g>
     </g>
     <g id="text_7">
      <!-- −1000 -->
      <g transform="translate(573.222713 298.998438) scale(0.1 -0.1)">
       <defs>
        <path id="DejaVuSans-31" d="M 794 531 
L 1825 531 
L 1825 4091 
L 703 3866 
L 703 4441 
L 1819 4666 
L 2450 4666 
L 2450 531 
L 3481 531 
L 3481 0 
L 794 0 
L 794 531 
z
" transform="scale(0.015625)"/>
       </defs>
       <use xlink:href="#DejaVuSans-2212"/>
       <use xlink:href="#DejaVuSans-31" transform="translate(83.789062 0)"/>
       <use xlink:href="#DejaVuSans-30" transform="translate(147.412109 0)"/>
       <use xlink:href="#DejaVuSans-30" transform="translate(211.035156 0)"/>
       <use xlink:href="#DejaVuSans-30" transform="translate(274.658203 0)"/>
      </g>
     </g>
    </g>
    <g id="xtick_8">
     <g id="line2d_8">
      <g>
       <use xlink:href="#m537beba698" x="675.629261" y="284.4" style="stroke: #000000; stroke-width: 0.8"/>
      </g>
     </g>
     <g id="text_8">
      <!-- 0 -->
      <g transform="translate(672.448011 298.998438) scale(0.1 -0.1)">
       <use xlink:href="#DejaVuSans-30"/>
      </g>
     </g>
    </g>
   </g>
   <g id="matplotlib.axis_2">
    <g id="ytick_1">
     <g id="line2d_9">
      <defs>
       <path id="m1ad20856bc" d="M 0 0 
L -3.5 0 
" style="stroke: #000000; stroke-width: 0.8"/>
      </defs>
      <g>
       <use xlink:href="#m1ad20856bc" x="36.465625" y="280.020739" style="stroke: #000000; stroke-width: 0.8"/>
      </g>
     </g>
     <g id="text_9">
      <!-- 0.00 -->
      <g transform="translate(7.2 283.819958) scale(0.1 -0.1)">
       <defs>
        <path id="DejaVuSans-2e" d="M 684 794 
L 1344 794 
L 1344 0 
L 684 0 
L 684 794 
z
" transform="scale(0.015625)"/>
       </defs>
       <use xlink:href="#DejaVuSans-30"/>
       <use xlink:href="#DejaVuSans-2e" transform="translate(63.623047 0)"/>
       <use xlink:href="#DejaVuSans-30" transform="translate(95.410156 0)"/>
       <use xlink:href="#DejaVuSans-30" transform="translate(159.033203 0)"/>
      </g>
     </g>
    </g>
    <g id="ytick_2">
     <g id="line2d_10">
      <g>
       <use xlink:href="#m1ad20856bc" x="36.465625" y="233.430042" style="stroke: #000000; stroke-width: 0.8"/>
      </g>
     </g>
     <g id="text_10">
      <!-- 0.01 -->
      <g transform="translate(7.2 237.229261) scale(0.1 -0.1)">
       <use xlink:href="#DejaVuSans-30"/>
       <use xlink:href="#DejaVuSans-2e" transform="translate(63.623047 0)"/>
       <use xlink:href="#DejaVuSans-30" transform="translate(95.410156 0)"/>
       <use xlink:href="#DejaVuSans-31" transform="translate(159.033203 0)"/>
      </g>
     </g>
    </g>
    <g id="ytick_3">
     <g id="line2d_11">
      <g>
       <use xlink:href="#m1ad20856bc" x="36.465625" y="186.839345" style="stroke: #000000; stroke-width: 0.8"/>
      </g>
     </g>
     <g id="text_11">
      <!-- 0.02 -->
      <g transform="translate(7.2 190.638564) scale(0.1 -0.1)">
       <use xlink:href="#DejaVuSans-30"/>
       <use xlink:href="#DejaVuSans-2e" transform="translate(63.623047 0)"/>
       <use xlink:href="#DejaVuSans-30" transform="translate(95.410156 0)"/>
       <use xlink:href="#DejaVuSans-32" transform="translate(159.033203 0)"/>
      </g>
     </g>
    </g>
    <g id="ytick_4">
     <g id="line2d_12">
      <g>
       <use xlink:href="#m1ad20856bc" x="36.465625" y="140.248647" style="stroke: #000000; stroke-width: 0.8"/>
      </g>
     </g>
     <g id="text_12">
      <!-- 0.03 -->
      <g transform="translate(7.2 144.047866) scale(0.1 -0.1)">
       <use xlink:href="#DejaVuSans-30"/>
       <use xlink:href="#DejaVuSans-2e" transform="translate(63.623047 0)"/>
       <use xlink:href="#DejaVuSans-30" transform="translate(95.410156 0)"/>
       <use xlink:href="#DejaVuSans-33" transform="translate(159.033203 0)"/>
      </g>
     </g>
    </g>
    <g id="ytick_5">
     <g id="line2d_13">
      <g>
       <use xlink:href="#m1ad20856bc" x="36.465625" y="93.65795" style="stroke: #000000; stroke-width: 0.8"/>
      </g>
     </g>
     <g id="text_13">
      <!-- 0.04 -->
      <g transform="translate(7.2 97.457169) scale(0.1 -0.1)">
       <use xlink:href="#DejaVuSans-30"/>
       <use xlink:href="#DejaVuSans-2e" transform="translate(63.623047 0)"/>
       <use xlink:href="#DejaVuSans-30" transform="translate(95.410156 0)"/>
       <use xlink:href="#DejaVuSans-34" transform="translate(159.033203 0)"/>
      </g>
     </g>
    </g>
    <g id="ytick_6">
     <g id="line2d_14">
      <g>
       <use xlink:href="#m1ad20856bc" x="36.465625" y="47.067253" style="stroke: #000000; stroke-width: 0.8"/>
      </g>
     </g>
     <g id="text_14">
      <!-- 0.05 -->
      <g transform="translate(7.2 50.866472) scale(0.1 -0.1)">
       <use xlink:href="#DejaVuSans-30"/>
       <use xlink:href="#DejaVuSans-2e" transform="translate(63.623047 0)"/>
       <use xlink:href="#DejaVuSans-30" transform="translate(95.410156 0)"/>
       <use xlink:href="#DejaVuSans-35" transform="translate(159.033203 0)"/>
      </g>
     </g>
    </g>
   </g>
   <g id="line2d_15">
    <path d="M 66.901989 270.836641 
L 67.749601 270.572505 
L 68.738483 270.414725 
L 69.586096 270.533891 
L 70.574978 270.940767 
L 72.270203 271.702687 
L 72.976547 271.8 
L 73.682891 271.686307 
L 74.389235 271.35198 
L 75.236848 270.695382 
L 77.920955 268.318573 
L 78.627299 268.131975 
L 79.333643 268.224165 
L 80.322525 268.651269 
L 81.452675 269.111458 
L 82.159019 269.169663 
L 82.865363 268.972043 
L 83.571707 268.507459 
L 84.41932 267.634098 
L 85.549471 266.083275 
L 90.776416 258.027733 
L 91.765298 255.789464 
L 93.177986 251.912226 
L 94.873212 247.346979 
L 95.720824 245.691636 
L 96.2859 244.968799 
L 96.850975 244.5974 
L 97.274781 244.561061 
L 97.698588 244.732556 
L 98.263663 245.271602 
L 98.828738 246.133874 
L 99.676351 247.921322 
L 100.94777 251.275729 
L 102.925533 256.511245 
L 104.196953 259.21694 
L 105.609641 261.673367 
L 107.728673 264.882453 
L 109.000092 266.481737 
L 109.988974 267.409334 
L 110.836586 267.924775 
L 111.684199 268.171969 
L 112.673081 268.185839 
L 114.509575 268.107632 
L 115.357188 268.355323 
L 116.34607 268.930865 
L 118.747639 270.482074 
L 119.595252 270.734142 
L 120.442865 270.77977 
L 121.573015 270.602732 
L 123.40951 270.279678 
L 124.398392 270.336479 
L 127.647574 270.783258 
L 128.777724 270.561091 
L 130.896756 270.048407 
L 131.744369 270.07675 
L 132.87452 270.375034 
L 134.569745 270.855063 
L 135.417358 270.82882 
L 136.123702 270.600621 
L 136.971315 270.089152 
L 138.384003 268.892389 
L 139.514153 268.034571 
L 140.220497 267.725469 
L 140.926841 267.634102 
L 141.915723 267.775039 
L 143.187142 267.970321 
L 143.893486 267.870795 
L 144.59983 267.541826 
L 145.306174 266.972091 
L 146.153787 266.00638 
L 147.425206 264.169274 
L 151.098195 258.292642 
L 152.228346 255.96135 
L 153.358496 253.073292 
L 156.042603 245.871841 
L 156.748947 244.623584 
L 157.314023 243.995034 
L 157.737829 243.764049 
L 158.161635 243.74696 
L 158.585442 243.942886 
L 159.150517 244.520658 
L 159.856861 245.696334 
L 160.704474 247.624485 
L 162.258431 251.872874 
L 163.953656 256.270149 
L 165.225076 258.959142 
L 166.779032 261.700828 
L 168.332989 264.049057 
L 169.46314 265.431806 
L 170.452021 266.322713 
L 171.299634 266.819215 
L 172.288516 267.118429 
L 175.113892 267.68242 
L 176.244042 268.308728 
L 178.363074 269.538394 
L 179.351956 269.821172 
L 180.340838 269.874406 
L 184.013826 269.769944 
L 186.556665 270.074625 
L 187.686815 269.931944 
L 190.370923 269.463592 
L 191.501073 269.589009 
L 193.620105 269.902813 
L 194.467718 269.756786 
L 195.315331 269.378255 
L 196.445481 268.590448 
L 198.140707 267.36933 
L 198.98832 267.015606 
L 199.977201 266.871976 
L 201.813696 266.701293 
L 202.52004 266.393464 
L 203.226384 265.870425 
L 204.073996 264.962837 
L 205.204147 263.381838 
L 207.323179 259.924083 
L 209.018405 256.839676 
L 210.148555 254.298283 
L 211.561243 250.457483 
L 213.397737 245.473172 
L 214.24535 243.834713 
L 214.810426 243.145097 
L 215.234232 242.871223 
L 215.658038 242.816062 
L 216.081845 242.980165 
L 216.64692 243.526529 
L 217.211995 244.412294 
L 218.059608 246.252099 
L 219.331027 249.683394 
L 221.450059 255.360106 
L 222.862747 258.428046 
L 224.416704 261.22485 
L 225.829392 263.318591 
L 226.959543 264.60573 
L 227.948424 265.399012 
L 228.937306 265.904607 
L 230.915069 266.543018 
L 232.186488 267.125478 
L 235.153133 268.684599 
L 236.283284 268.915034 
L 237.695972 268.932972 
L 239.673735 268.984554 
L 242.781649 269.257678 
L 244.194337 269.047016 
L 246.030831 268.770964 
L 247.30225 268.815989 
L 249.138745 268.901712 
L 249.986358 268.727054 
L 250.975239 268.274586 
L 252.387927 267.312408 
L 253.800615 266.416927 
L 254.930766 265.990964 
L 257.049798 265.339865 
L 257.89741 264.767794 
L 258.745023 263.90971 
L 259.733905 262.579585 
L 261.146593 260.274967 
L 262.983087 256.888645 
L 264.254507 254.114607 
L 265.525926 250.774606 
L 267.927496 244.205045 
L 268.63384 242.854097 
L 269.198915 242.145786 
L 269.622721 241.862781 
L 270.046528 241.803746 
L 270.470334 241.969567 
L 270.89414 242.352736 
L 271.459216 243.174276 
L 272.16556 244.621055 
L 273.29571 247.574988 
L 275.979817 254.872332 
L 277.392505 257.95577 
L 278.805193 260.509434 
L 280.076613 262.361673 
L 281.206763 263.603222 
L 282.195645 264.3775 
L 283.467064 265.070063 
L 286.009902 266.386157 
L 287.987666 267.449596 
L 289.117816 267.807262 
L 290.389235 267.971478 
L 294.062224 268.307837 
L 295.474912 268.359907 
L 297.028869 268.168607 
L 299.147901 267.904711 
L 301.973277 267.731324 
L 302.962159 267.365662 
L 304.092309 266.696311 
L 306.635148 265.103481 
L 309.319255 263.711856 
L 310.166868 262.919514 
L 311.155749 261.660864 
L 312.427168 259.607762 
L 314.122394 256.380765 
L 315.535082 253.227192 
L 316.94777 249.451528 
L 319.208071 243.205031 
L 319.914415 241.811871 
L 320.47949 241.071426 
L 320.903297 240.768157 
L 321.327103 240.6937 
L 321.750909 240.849735 
L 322.174716 241.228929 
L 322.739791 242.05348 
L 323.446135 243.51433 
L 324.576286 246.503138 
L 327.401662 254.256833 
L 328.81435 257.348764 
L 330.085769 259.633544 
L 331.215919 261.260334 
L 332.34607 262.49862 
L 333.47622 263.409228 
L 335.595252 264.743421 
L 338.138091 266.204306 
L 339.40951 266.651018 
L 340.963467 266.918359 
L 345.201531 267.319149 
L 346.755488 267.154791 
L 349.722133 266.799427 
L 351.134821 266.574031 
L 352.264971 266.145293 
L 353.53639 265.379376 
L 358.622067 261.768174 
L 359.610949 260.53727 
L 360.741099 258.728845 
L 362.153787 256.00335 
L 363.566475 252.829036 
L 364.979163 249.092272 
L 367.663271 241.651063 
L 368.369615 240.341117 
L 368.93469 239.691877 
L 369.358496 239.468768 
L 369.782303 239.481594 
L 370.206109 239.728683 
L 370.771184 240.402164 
L 371.477528 241.724204 
L 372.46641 244.219354 
L 376.280668 254.61635 
L 377.552087 257.227869 
L 378.823506 259.323139 
L 379.953656 260.763449 
L 381.225076 261.993441 
L 383.06157 263.38909 
L 385.039333 264.648173 
L 386.310753 265.214604 
L 387.723441 265.594308 
L 390.407548 266.018743 
L 391.961505 266.097108 
L 393.515461 265.947907 
L 397.329719 265.272463 
L 398.45987 264.825843 
L 399.731289 264.053651 
L 402.556665 261.936995 
L 403.969353 260.674318 
L 404.958235 259.486738 
L 405.947116 257.967613 
L 407.218535 255.558286 
L 408.631223 252.376372 
L 410.043911 248.654669 
L 413.293094 239.69037 
L 413.999438 238.565821 
L 414.564513 238.102783 
L 414.98832 238.033845 
L 415.412126 238.206502 
L 415.835932 238.612458 
L 416.401008 239.485038 
L 417.107352 241.017074 
L 418.237502 244.120771 
L 420.921609 251.760459 
L 422.193029 254.694832 
L 423.464448 257.07732 
L 424.594598 258.752053 
L 425.866017 260.222562 
L 427.419974 261.638895 
L 429.1152 262.879473 
L 430.527888 263.625573 
L 431.940576 264.103701 
L 433.918339 264.509639 
L 435.613565 264.646789 
L 437.167522 264.525015 
L 439.569091 264.067097 
L 441.123048 263.580744 
L 442.253199 262.995921 
L 443.665887 261.976599 
L 445.64365 260.245589 
L 446.915069 258.892365 
L 448.04522 257.335871 
L 449.17537 255.346468 
L 450.446789 252.609354 
L 451.859477 249.015081 
L 453.554703 244.035003 
L 455.249928 239.176271 
L 456.097541 237.42234 
L 456.662616 236.694467 
L 457.086423 236.421367 
L 457.510229 236.395212 
L 457.934036 236.616152 
L 458.357842 237.073714 
L 458.922917 238.016093 
L 459.629261 239.629459 
L 460.759412 242.833626 
L 463.30225 250.213514 
L 464.573669 253.210096 
L 465.845089 255.628743 
L 466.975239 257.337 
L 468.246658 258.868526 
L 469.659346 260.225414 
L 471.072034 261.275273 
L 472.343454 261.952492 
L 473.756142 262.454908 
L 475.451367 262.811395 
L 476.864055 262.892505 
L 478.276743 262.751863 
L 479.971969 262.35626 
L 481.525926 261.770535 
L 482.797345 261.027643 
L 484.068764 260.010641 
L 485.622721 258.468344 
L 486.89414 256.933801 
L 488.024291 255.230668 
L 489.154441 253.099373 
L 490.42586 250.142624 
L 491.838548 246.229905 
L 495.370269 236.045608 
L 496.076613 234.910035 
L 496.641688 234.462972 
L 497.065494 234.424191 
L 497.489301 234.643041 
L 497.913107 235.108905 
L 498.478182 236.077317 
L 499.184526 237.743106 
L 500.455945 241.45998 
L 502.716246 248.092243 
L 503.987666 251.177247 
L 505.259085 253.693865 
L 506.530504 255.702929 
L 507.801923 257.295286 
L 509.073342 258.53402 
L 510.344762 259.454773 
L 511.616181 260.095209 
L 513.028869 260.537829 
L 514.300288 260.715294 
L 515.571707 260.675558 
L 516.984395 260.400269 
L 518.538352 259.860806 
L 519.668503 259.253508 
L 520.798653 258.401935 
L 522.070072 257.146302 
L 523.341492 255.587827 
L 524.471642 253.888997 
L 525.601792 251.786437 
L 526.731943 249.213327 
L 528.003362 245.773332 
L 529.839857 240.044407 
L 531.535082 234.948011 
L 532.382695 233.119033 
L 532.94777 232.365464 
L 533.371577 232.088836 
L 533.795383 232.073414 
L 534.219189 232.31879 
L 534.642996 232.812837 
L 535.208071 233.818183 
L 536.055684 235.9102 
L 537.468372 240.213479 
L 539.446135 246.119309 
L 540.717554 249.242975 
L 541.988974 251.762691 
L 543.260393 253.747744 
L 544.390543 255.133907 
L 545.520694 256.203823 
L 546.650844 256.989922 
L 547.780995 257.530808 
L 548.911145 257.852377 
L 550.041295 257.957381 
L 551.171446 257.845608 
L 552.442865 257.475661 
L 553.573015 256.927744 
L 554.703166 256.134091 
L 555.833316 255.052957 
L 556.963467 253.668525 
L 558.093617 251.960026 
L 559.223768 249.860905 
L 560.353918 247.288959 
L 561.625337 243.802233 
L 563.320563 238.37366 
L 565.298326 232.110284 
L 566.145939 230.185269 
L 566.711014 229.37912 
L 567.134821 229.071435 
L 567.558627 229.033486 
L 567.982433 229.265537 
L 568.40624 229.755394 
L 568.971315 230.768098 
L 569.677659 232.498993 
L 570.949078 236.368915 
L 573.209379 243.299363 
L 574.480798 246.47178 
L 575.610949 248.76024 
L 576.741099 250.58405 
L 577.87125 251.989681 
L 579.0014 253.022407 
L 580.13155 253.725551 
L 581.120432 254.094883 
L 582.109314 254.242347 
L 583.098195 254.170378 
L 584.087077 253.883503 
L 585.075959 253.381205 
L 586.06484 252.64666 
L 587.053722 251.650999 
L 588.183872 250.161281 
L 589.314023 248.266336 
L 590.444173 245.915439 
L 591.574323 243.046736 
L 592.845743 239.193601 
L 594.964775 231.859117 
L 596.236194 227.85427 
L 596.942538 226.209337 
L 597.507613 225.346971 
L 597.93142 225.008299 
L 598.355226 224.949376 
L 598.779032 225.170349 
L 599.202839 225.658708 
L 599.767914 226.682214 
L 600.474258 228.437856 
L 601.745677 232.363739 
L 604.005978 239.373227 
L 605.277397 242.54568 
L 606.407548 244.787194 
L 607.396429 246.318596 
L 608.385311 247.478001 
L 609.374193 248.292458 
L 610.221806 248.714381 
L 611.069418 248.908466 
L 611.917031 248.880162 
L 612.764644 248.631332 
L 613.612257 248.161029 
L 614.45987 247.461408 
L 615.448751 246.334617 
L 616.437633 244.844894 
L 617.426514 242.969941 
L 618.556665 240.309438 
L 619.686815 237.061276 
L 621.099503 232.231169 
L 624.066148 221.719715 
L 624.772492 220.048324 
L 625.337567 219.215505 
L 625.761374 218.921561 
L 626.18518 218.922098 
L 626.608987 219.211271 
L 627.032793 219.770149 
L 627.597868 220.881852 
L 628.445481 223.142048 
L 630.423244 229.443057 
L 631.835932 233.503699 
L 632.966083 236.105908 
L 633.954964 237.855955 
L 634.802577 238.964156 
L 635.65019 239.711179 
L 636.356534 240.0772 
L 637.062878 240.215196 
L 637.769222 240.127403 
L 638.475566 239.813879 
L 639.18191 239.272104 
L 640.029523 238.291835 
L 640.877136 236.956031 
L 641.866017 234.92611 
L 642.854899 232.364055 
L 643.985049 228.748972 
L 645.256469 223.882741 
L 648.505651 210.923361 
L 649.211995 209.139492 
L 649.77707 208.258165 
L 650.200877 207.945324 
L 650.624683 207.929028 
L 651.04849 208.187513 
L 651.613565 208.911715 
L 652.319909 210.297656 
L 653.30879 212.811638 
L 655.145285 217.60407 
L 656.134167 219.553083 
L 656.840511 220.564078 
L 657.546855 221.196021 
L 658.11193 221.419022 
L 658.677005 221.377766 
L 659.24208 221.093179 
L 659.807155 220.576209 
L 660.513499 219.599384 
L 660.937306 218.687447 
L 662.067456 215.591946 
L 662.632531 213.585953 
L 663.903951 207.82711 
L 665.17537 200.545049 
L 666.164252 194.016832 
L 670.261047 167.368223 
L 671.673735 158.18821 
L 672.23881 153.64115 
L 672.945154 146.272461 
L 673.368961 139.159615 
L 673.792767 128.008668 
L 674.357842 104.538313 
L 674.922917 71.141538 
L 675.629261 19.8 
L 675.629261 19.8 
" clip-path="url(#pd45cf13f90)" style="fill: none; stroke: #1f77b4; stroke-width: 1.5; stroke-linecap: square"/>
   </g>
   <g id="line2d_16">
    <path d="M 36.465625 179.113468 
L 706.065625 179.113468 
" clip-path="url(#pd45cf13f90)" style="fill: none; stroke-dasharray: 2.22,0.96; stroke-dashoffset: 0; stroke: #ff0000; stroke-width: 0.6"/>
   </g>
   <g id="line2d_17">
    <path d="M 66.901989 270.836641 
L 67.749601 270.572505 
L 68.738483 270.414725 
L 69.586096 270.533891 
L 70.574978 270.940767 
L 72.270203 271.702687 
L 72.976547 271.8 
L 73.682891 271.686307 
L 74.389235 271.35198 
L 75.236848 270.695382 
L 77.920955 268.318573 
L 78.627299 268.131975 
L 79.333643 268.224165 
L 80.322525 268.651269 
L 81.452675 269.111458 
L 82.159019 269.169663 
L 82.865363 268.972043 
L 83.571707 268.507459 
L 84.41932 267.634098 
L 85.549471 266.083275 
L 90.776416 258.027733 
L 91.765298 255.789464 
L 93.177986 251.912226 
L 94.873212 247.346979 
L 95.720824 245.691636 
L 96.2859 244.968799 
L 96.850975 244.5974 
L 97.274781 244.561061 
L 97.698588 244.732556 
L 98.263663 245.271602 
L 98.828738 246.133874 
L 99.676351 247.921322 
L 100.94777 251.275729 
L 102.925533 256.511245 
L 104.196953 259.21694 
L 105.609641 261.673367 
L 107.728673 264.882453 
L 109.000092 266.481737 
L 109.988974 267.409334 
L 110.836586 267.924775 
L 111.684199 268.171969 
L 112.673081 268.185839 
L 114.509575 268.107632 
L 115.357188 268.355323 
L 116.34607 268.930865 
L 118.747639 270.482074 
L 119.595252 270.734142 
L 120.442865 270.77977 
L 121.573015 270.602732 
L 123.40951 270.279678 
L 124.398392 270.336479 
L 127.647574 270.783258 
L 128.777724 270.561091 
L 130.896756 270.048407 
L 131.744369 270.07675 
L 132.87452 270.375034 
L 134.569745 270.855063 
L 135.417358 270.82882 
L 136.123702 270.600621 
L 136.971315 270.089152 
L 138.384003 268.892389 
L 139.514153 268.034571 
L 140.220497 267.725469 
L 140.926841 267.634102 
L 141.915723 267.775039 
L 143.187142 267.970321 
L 143.893486 267.870795 
L 144.59983 267.541826 
L 145.306174 266.972091 
L 146.153787 266.00638 
L 147.425206 264.169274 
L 151.098195 258.292642 
L 152.228346 255.96135 
L 153.358496 253.073292 
L 156.042603 245.871841 
L 156.748947 244.623584 
L 157.314023 243.995034 
L 157.737829 243.764049 
L 158.161635 243.74696 
L 158.585442 243.942886 
L 159.150517 244.520658 
L 159.856861 245.696334 
L 160.704474 247.624485 
L 162.258431 251.872874 
L 163.953656 256.270149 
L 165.225076 258.959142 
L 166.779032 261.700828 
L 168.332989 264.049057 
L 169.46314 265.431806 
L 170.452021 266.322713 
L 171.299634 266.819215 
L 172.288516 267.118429 
L 175.113892 267.68242 
L 176.244042 268.308728 
L 178.363074 269.538394 
L 179.351956 269.821172 
L 180.340838 269.874406 
L 184.013826 269.769944 
L 186.556665 270.074625 
L 187.686815 269.931944 
L 190.370923 269.463592 
L 191.501073 269.589009 
L 193.620105 269.902813 
L 194.467718 269.756786 
L 195.315331 269.378255 
L 196.445481 268.590448 
L 198.140707 267.36933 
L 198.98832 267.015606 
L 199.977201 266.871976 
L 201.813696 266.701293 
L 202.52004 266.393464 
L 203.226384 265.870425 
L 204.073996 264.962837 
L 205.204147 263.381838 
L 207.323179 259.924083 
L 209.018405 256.839676 
L 210.148555 254.298283 
L 211.561243 250.457483 
L 213.397737 245.473172 
L 214.24535 243.834713 
L 214.810426 243.145097 
L 215.234232 242.871223 
L 215.658038 242.816062 
L 216.081845 242.980165 
L 216.64692 243.526529 
L 217.211995 244.412294 
L 218.059608 246.252099 
L 219.331027 249.683394 
L 221.450059 255.360106 
L 222.862747 258.428046 
L 224.416704 261.22485 
L 225.829392 263.318591 
L 226.959543 264.60573 
L 227.948424 265.399012 
L 228.937306 265.904607 
L 230.915069 266.543018 
L 232.186488 267.125478 
L 235.153133 268.684599 
L 236.283284 268.915034 
L 237.695972 268.932972 
L 239.673735 268.984554 
L 242.781649 269.257678 
L 244.194337 269.047016 
L 246.030831 268.770964 
L 247.30225 268.815989 
L 249.138745 268.901712 
L 249.986358 268.727054 
L 250.975239 268.274586 
L 252.387927 267.312408 
L 253.800615 266.416927 
L 254.930766 265.990964 
L 257.049798 265.339865 
L 257.89741 264.767794 
L 258.745023 263.90971 
L 259.733905 262.579585 
L 261.146593 260.274967 
L 262.983087 256.888645 
L 264.254507 254.114607 
L 265.525926 250.774606 
L 267.927496 244.205045 
L 268.63384 242.854097 
L 269.198915 242.145786 
L 269.622721 241.862781 
L 270.046528 241.803746 
L 270.470334 241.969567 
L 270.89414 242.352736 
L 271.459216 243.174276 
L 272.16556 244.621055 
L 273.29571 247.574988 
L 275.979817 254.872332 
L 277.392505 257.95577 
L 278.805193 260.509434 
L 280.076613 262.361673 
L 281.206763 263.603222 
L 282.195645 264.3775 
L 283.467064 265.070063 
L 286.009902 266.386157 
L 287.987666 267.449596 
L 289.117816 267.807262 
L 290.389235 267.971478 
L 294.062224 268.307837 
L 295.474912 268.359907 
L 297.028869 268.168607 
L 299.147901 267.904711 
L 301.973277 267.731324 
L 302.962159 267.365662 
L 304.092309 266.696311 
L 306.635148 265.103481 
L 309.319255 263.711856 
L 310.166868 262.919514 
L 311.155749 261.660864 
L 312.427168 259.607762 
L 314.122394 256.380765 
L 315.535082 253.227192 
L 316.94777 249.451528 
L 319.208071 243.205031 
L 319.914415 241.811871 
L 320.47949 241.071426 
L 320.903297 240.768157 
L 321.327103 240.6937 
L 321.750909 240.849735 
L 322.174716 241.228929 
L 322.739791 242.05348 
L 323.446135 243.51433 
L 324.576286 246.503138 
L 327.401662 254.256833 
L 328.81435 257.348764 
L 330.085769 259.633544 
L 331.215919 261.260334 
L 332.34607 262.49862 
L 333.47622 263.409228 
L 335.595252 264.743421 
L 338.138091 266.204306 
L 339.40951 266.651018 
L 340.963467 266.918359 
L 345.201531 267.319149 
L 346.755488 267.154791 
L 349.722133 266.799427 
L 351.134821 266.574031 
L 352.264971 266.145293 
L 353.53639 265.379376 
L 358.622067 261.768174 
L 359.610949 260.53727 
L 360.741099 258.728845 
L 362.153787 256.00335 
L 363.566475 252.829036 
L 364.979163 249.092272 
L 367.663271 241.651063 
L 368.369615 240.341117 
L 368.93469 239.691877 
L 369.358496 239.468768 
L 369.782303 239.481594 
L 370.206109 239.728683 
L 370.771184 240.402164 
L 371.477528 241.724204 
L 372.46641 244.219354 
L 376.280668 254.61635 
L 377.552087 257.227869 
L 378.823506 259.323139 
L 379.953656 260.763449 
L 381.225076 261.993441 
L 383.06157 263.38909 
L 385.039333 264.648173 
L 386.310753 265.214604 
L 387.723441 265.594308 
L 390.407548 266.018743 
L 391.961505 266.097108 
L 393.515461 265.947907 
L 397.329719 265.272463 
L 398.45987 264.825843 
L 399.731289 264.053651 
L 402.556665 261.936995 
L 403.969353 260.674318 
L 404.958235 259.486738 
L 405.947116 257.967613 
L 407.218535 255.558286 
L 408.631223 252.376372 
L 410.043911 248.654669 
L 413.293094 239.69037 
L 413.999438 238.565821 
L 414.564513 238.102783 
L 414.98832 238.033845 
L 415.412126 238.206502 
L 415.835932 238.612458 
L 416.401008 239.485038 
L 417.107352 241.017074 
L 418.237502 244.120771 
L 420.921609 251.760459 
L 422.193029 254.694832 
L 423.464448 257.07732 
L 424.594598 258.752053 
L 425.866017 260.222562 
L 427.419974 261.638895 
L 429.1152 262.879473 
L 430.527888 263.625573 
L 431.940576 264.103701 
L 433.918339 264.509639 
L 435.613565 264.646789 
L 437.167522 264.525015 
L 439.569091 264.067097 
L 441.123048 263.580744 
L 442.253199 262.995921 
L 443.665887 261.976599 
L 445.64365 260.245589 
L 446.915069 258.892365 
L 448.04522 257.335871 
L 449.17537 255.346468 
L 450.446789 252.609354 
L 451.859477 249.015081 
L 453.554703 244.035003 
L 455.249928 239.176271 
L 456.097541 237.42234 
L 456.662616 236.694467 
L 457.086423 236.421367 
L 457.510229 236.395212 
L 457.934036 236.616152 
L 458.357842 237.073714 
L 458.922917 238.016093 
L 459.629261 239.629459 
L 460.759412 242.833626 
L 463.30225 250.213514 
L 464.573669 253.210096 
L 465.845089 255.628743 
L 466.975239 257.337 
L 468.246658 258.868526 
L 469.659346 260.225414 
L 471.072034 261.275273 
L 472.343454 261.952492 
L 473.756142 262.454908 
L 475.451367 262.811395 
L 476.864055 262.892505 
L 478.276743 262.751863 
L 479.971969 262.35626 
L 481.525926 261.770535 
L 482.797345 261.027643 
L 484.068764 260.010641 
L 485.622721 258.468344 
L 486.89414 256.933801 
L 488.024291 255.230668 
L 489.154441 253.099373 
L 490.42586 250.142624 
L 491.838548 246.229905 
L 495.370269 236.045608 
L 496.076613 234.910035 
L 496.641688 234.462972 
L 497.065494 234.424191 
L 497.489301 234.643041 
L 497.913107 235.108905 
L 498.478182 236.077317 
L 499.184526 237.743106 
L 500.455945 241.45998 
L 502.716246 248.092243 
L 503.987666 251.177247 
L 505.259085 253.693865 
L 506.530504 255.702929 
L 507.801923 257.295286 
L 509.073342 258.53402 
L 510.344762 259.454773 
L 511.616181 260.095209 
L 513.028869 260.537829 
L 514.300288 260.715294 
L 515.571707 260.675558 
L 516.984395 260.400269 
L 518.538352 259.860806 
L 519.668503 259.253508 
L 520.798653 258.401935 
L 522.070072 257.146302 
L 523.341492 255.587827 
L 524.471642 253.888997 
L 525.601792 251.786437 
L 526.731943 249.213327 
L 528.003362 245.773332 
L 529.839857 240.044407 
L 531.535082 234.948011 
L 532.382695 233.119033 
L 532.94777 232.365464 
L 533.371577 232.088836 
L 533.795383 232.073414 
L 534.219189 232.31879 
L 534.642996 232.812837 
L 535.208071 233.818183 
L 536.055684 235.9102 
L 537.468372 240.213479 
L 539.446135 246.119309 
L 540.717554 249.242975 
L 541.988974 251.762691 
L 543.260393 253.747744 
L 544.390543 255.133907 
L 545.520694 256.203823 
L 546.650844 256.989922 
L 547.780995 257.530808 
L 548.911145 257.852377 
L 550.041295 257.957381 
L 551.171446 257.845608 
L 552.442865 257.475661 
L 553.573015 256.927744 
L 554.703166 256.134091 
L 555.833316 255.052957 
L 556.963467 253.668525 
L 558.093617 251.960026 
L 559.223768 249.860905 
L 560.353918 247.288959 
L 561.625337 243.802233 
L 563.320563 238.37366 
L 565.298326 232.110284 
L 566.145939 230.185269 
L 566.711014 229.37912 
L 567.134821 229.071435 
L 567.558627 229.033486 
L 567.982433 229.265537 
L 568.40624 229.755394 
L 568.971315 230.768098 
L 569.677659 232.498993 
L 570.949078 236.368915 
L 573.209379 243.299363 
L 574.480798 246.47178 
L 575.610949 248.76024 
L 576.741099 250.58405 
L 577.87125 251.989681 
L 579.0014 253.022407 
L 580.13155 253.725551 
L 581.120432 254.094883 
L 582.109314 254.242347 
L 583.098195 254.170378 
L 584.087077 253.883503 
L 585.075959 253.381205 
L 586.06484 252.64666 
L 587.053722 251.650999 
L 588.183872 250.161281 
L 589.314023 248.266336 
L 590.444173 245.915439 
L 591.574323 243.046736 
L 592.845743 239.193601 
L 594.964775 231.859117 
L 596.236194 227.85427 
L 596.942538 226.209337 
L 597.507613 225.346971 
L 597.93142 225.008299 
L 598.355226 224.949376 
L 598.779032 225.170349 
L 599.202839 225.658708 
L 599.767914 226.682214 
L 600.474258 228.437856 
L 601.745677 232.363739 
L 604.005978 239.373227 
L 605.277397 242.54568 
L 606.407548 244.787194 
L 607.396429 246.318596 
L 608.385311 247.478001 
L 609.374193 248.292458 
L 610.221806 248.714381 
L 611.069418 248.908466 
L 611.917031 248.880162 
L 612.764644 248.631332 
L 613.612257 248.161029 
L 614.45987 247.461408 
L 615.448751 246.334617 
L 616.437633 244.844894 
L 617.426514 242.969941 
L 618.556665 240.309438 
L 619.686815 237.061276 
L 621.099503 232.231169 
L 624.066148 221.719715 
L 624.772492 220.048324 
L 625.337567 219.215505 
L 625.761374 218.921561 
L 626.18518 218.922098 
L 626.608987 219.211271 
L 627.032793 219.770149 
L 627.597868 220.881852 
L 628.445481 223.142048 
L 630.423244 229.443057 
L 631.835932 233.503699 
L 632.966083 236.105908 
L 633.954964 237.855955 
L 634.802577 238.964156 
L 635.65019 239.711179 
L 636.356534 240.0772 
L 637.062878 240.215196 
L 637.769222 240.127403 
L 638.475566 239.813879 
L 639.18191 239.272104 
L 640.029523 238.291835 
L 640.877136 236.956031 
L 641.866017 234.92611 
L 642.854899 232.364055 
L 643.985049 228.748972 
L 645.256469 223.882741 
L 648.505651 210.923361 
L 649.211995 209.139492 
L 649.77707 208.258165 
L 650.200877 207.945324 
L 650.624683 207.929028 
L 651.04849 208.187513 
L 651.613565 208.911715 
L 652.319909 210.297656 
L 653.30879 212.811638 
L 655.145285 217.60407 
L 656.134167 219.553083 
L 656.840511 220.564078 
L 657.546855 221.196021 
L 658.11193 221.419022 
L 658.677005 221.377766 
L 659.24208 221.093179 
L 659.807155 220.576209 
L 660.513499 219.599384 
L 660.937306 218.687447 
L 662.067456 215.591946 
L 662.632531 213.585953 
L 663.903951 207.82711 
L 665.17537 200.545049 
L 666.164252 194.016832 
L 668.283284 179.75691 
L 668.283284 179.75691 
" clip-path="url(#pd45cf13f90)" style="fill: none; stroke: #ff7f0e; stroke-width: 1.5; stroke-linecap: square"/>
   </g>
   <g id="patch_3">
    <path d="M 36.465625 284.4 
L 36.465625 7.2 
" style="fill: none; stroke: #000000; stroke-width: 0.8; stroke-linejoin: miter; stroke-linecap: square"/>
   </g>
   <g id="patch_4">
    <path d="M 706.065625 284.4 
L 706.065625 7.2 
" style="fill: none; stroke: #000000; stroke-width: 0.8; stroke-linejoin: miter; stroke-linecap: square"/>
   </g>
   <g id="patch_5">
    <path d="M 36.465625 284.4 
L 706.065625 284.4 
" style="fill: none; stroke: #000000; stroke-width: 0.8; stroke-linejoin: miter; stroke-linecap: square"/>
   </g>
   <g id="patch_6">
    <path d="M 36.465625 7.2 
L 706.065625 7.2 
" style="fill: none; stroke: #000000; stroke-width: 0.8; stroke-linejoin: miter; stroke-linecap: square"/>
   </g>
   <g id="legend_1">
    <g id="patch_7">
     <path d="M 43.465625 73.9125 
L 206.465625 73.9125 
Q 208.465625 73.9125 208.465625 71.9125 
L 208.465625 14.2 
Q 208.465625 12.2 206.465625 12.2 
L 43.465625 12.2 
Q 41.465625 12.2 41.465625 14.2 
L 41.465625 71.9125 
Q 41.465625 73.9125 43.465625 73.9125 
z
" style="fill: #ffffff; opacity: 0.8; stroke: #cccccc; stroke-linejoin: miter"/>
    </g>
    <g id="line2d_18">
     <path d="M 45.465625 20.298438 
L 55.465625 20.298438 
L 65.465625 20.298438 
" style="fill: none; stroke: #1f77b4; stroke-width: 1.5; stroke-linecap: square"/>
    </g>
    <g id="text_15">
     <!-- Mf before ISCO cut: $e$=0.3 -->
     <g transform="translate(73.465625 23.798438) scale(0.1 -0.1)">
      <defs>
       <path id="DejaVuSans-4d" d="M 628 4666 
L 1569 4666 
L 2759 1491 
L 3956 4666 
L 4897 4666 
L 4897 0 
L 4281 0 
L 4281 4097 
L 3078 897 
L 2444 897 
L 1241 4097 
L 1241 0 
L 628 0 
L 628 4666 
z
" transform="scale(0.015625)"/>
       <path id="DejaVuSans-66" d="M 2375 4863 
L 2375 4384 
L 1825 4384 
Q 1516 4384 1395 4259 
Q 1275 4134 1275 3809 
L 1275 3500 
L 2222 3500 
L 2222 3053 
L 1275 3053 
L 1275 0 
L 697 0 
L 697 3053 
L 147 3053 
L 147 3500 
L 697 3500 
L 697 3744 
Q 697 4328 969 4595 
Q 1241 4863 1831 4863 
L 2375 4863 
z
" transform="scale(0.015625)"/>
       <path id="DejaVuSans-20" transform="scale(0.015625)"/>
       <path id="DejaVuSans-62" d="M 3116 1747 
Q 3116 2381 2855 2742 
Q 2594 3103 2138 3103 
Q 1681 3103 1420 2742 
Q 1159 2381 1159 1747 
Q 1159 1113 1420 752 
Q 1681 391 2138 391 
Q 2594 391 2855 752 
Q 3116 1113 3116 1747 
z
M 1159 2969 
Q 1341 3281 1617 3432 
Q 1894 3584 2278 3584 
Q 2916 3584 3314 3078 
Q 3713 2572 3713 1747 
Q 3713 922 3314 415 
Q 2916 -91 2278 -91 
Q 1894 -91 1617 61 
Q 1341 213 1159 525 
L 1159 0 
L 581 0 
L 581 4863 
L 1159 4863 
L 1159 2969 
z
" transform="scale(0.015625)"/>
       <path id="DejaVuSans-65" d="M 3597 1894 
L 3597 1613 
L 953 1613 
Q 991 1019 1311 708 
Q 1631 397 2203 397 
Q 2534 397 2845 478 
Q 3156 559 3463 722 
L 3463 178 
Q 3153 47 2828 -22 
Q 2503 -91 2169 -91 
Q 1331 -91 842 396 
Q 353 884 353 1716 
Q 353 2575 817 3079 
Q 1281 3584 2069 3584 
Q 2775 3584 3186 3129 
Q 3597 2675 3597 1894 
z
M 3022 2063 
Q 3016 2534 2758 2815 
Q 2500 3097 2075 3097 
Q 1594 3097 1305 2825 
Q 1016 2553 972 2059 
L 3022 2063 
z
" transform="scale(0.015625)"/>
       <path id="DejaVuSans-6f" d="M 1959 3097 
Q 1497 3097 1228 2736 
Q 959 2375 959 1747 
Q 959 1119 1226 758 
Q 1494 397 1959 397 
Q 2419 397 2687 759 
Q 2956 1122 2956 1747 
Q 2956 2369 2687 2733 
Q 2419 3097 1959 3097 
z
M 1959 3584 
Q 2709 3584 3137 3096 
Q 3566 2609 3566 1747 
Q 3566 888 3137 398 
Q 2709 -91 1959 -91 
Q 1206 -91 779 398 
Q 353 888 353 1747 
Q 353 2609 779 3096 
Q 1206 3584 1959 3584 
z
" transform="scale(0.015625)"/>
       <path id="DejaVuSans-72" d="M 2631 2963 
Q 2534 3019 2420 3045 
Q 2306 3072 2169 3072 
Q 1681 3072 1420 2755 
Q 1159 2438 1159 1844 
L 1159 0 
L 581 0 
L 581 3500 
L 1159 3500 
L 1159 2956 
Q 1341 3275 1631 3429 
Q 1922 3584 2338 3584 
Q 2397 3584 2469 3576 
Q 2541 3569 2628 3553 
L 2631 2963 
z
" transform="scale(0.015625)"/>
       <path id="DejaVuSans-49" d="M 628 4666 
L 1259 4666 
L 1259 0 
L 628 0 
L 628 4666 
z
" transform="scale(0.015625)"/>
       <path id="DejaVuSans-53" d="M 3425 4513 
L 3425 3897 
Q 3066 4069 2747 4153 
Q 2428 4238 2131 4238 
Q 1616 4238 1336 4038 
Q 1056 3838 1056 3469 
Q 1056 3159 1242 3001 
Q 1428 2844 1947 2747 
L 2328 2669 
Q 3034 2534 3370 2195 
Q 3706 1856 3706 1288 
Q 3706 609 3251 259 
Q 2797 -91 1919 -91 
Q 1588 -91 1214 -16 
Q 841 59 441 206 
L 441 856 
Q 825 641 1194 531 
Q 1563 422 1919 422 
Q 2459 422 2753 634 
Q 3047 847 3047 1241 
Q 3047 1584 2836 1778 
Q 2625 1972 2144 2069 
L 1759 2144 
Q 1053 2284 737 2584 
Q 422 2884 422 3419 
Q 422 4038 858 4394 
Q 1294 4750 2059 4750 
Q 2388 4750 2728 4690 
Q 3069 4631 3425 4513 
z
" transform="scale(0.015625)"/>
       <path id="DejaVuSans-43" d="M 4122 4306 
L 4122 3641 
Q 3803 3938 3442 4084 
Q 3081 4231 2675 4231 
Q 1875 4231 1450 3742 
Q 1025 3253 1025 2328 
Q 1025 1406 1450 917 
Q 1875 428 2675 428 
Q 3081 428 3442 575 
Q 3803 722 4122 1019 
L 4122 359 
Q 3791 134 3420 21 
Q 3050 -91 2638 -91 
Q 1578 -91 968 557 
Q 359 1206 359 2328 
Q 359 3453 968 4101 
Q 1578 4750 2638 4750 
Q 3056 4750 3426 4639 
Q 3797 4528 4122 4306 
z
" transform="scale(0.015625)"/>
       <path id="DejaVuSans-4f" d="M 2522 4238 
Q 1834 4238 1429 3725 
Q 1025 3213 1025 2328 
Q 1025 1447 1429 934 
Q 1834 422 2522 422 
Q 3209 422 3611 934 
Q 4013 1447 4013 2328 
Q 4013 3213 3611 3725 
Q 3209 4238 2522 4238 
z
M 2522 4750 
Q 3503 4750 4090 4092 
Q 4678 3434 4678 2328 
Q 4678 1225 4090 567 
Q 3503 -91 2522 -91 
Q 1538 -91 948 565 
Q 359 1222 359 2328 
Q 359 3434 948 4092 
Q 1538 4750 2522 4750 
z
" transform="scale(0.015625)"/>
       <path id="DejaVuSans-63" d="M 3122 3366 
L 3122 2828 
Q 2878 2963 2633 3030 
Q 2388 3097 2138 3097 
Q 1578 3097 1268 2742 
Q 959 2388 959 1747 
Q 959 1106 1268 751 
Q 1578 397 2138 397 
Q 2388 397 2633 464 
Q 2878 531 3122 666 
L 3122 134 
Q 2881 22 2623 -34 
Q 2366 -91 2075 -91 
Q 1284 -91 818 406 
Q 353 903 353 1747 
Q 353 2603 823 3093 
Q 1294 3584 2113 3584 
Q 2378 3584 2631 3529 
Q 2884 3475 3122 3366 
z
" transform="scale(0.015625)"/>
       <path id="DejaVuSans-75" d="M 544 1381 
L 544 3500 
L 1119 3500 
L 1119 1403 
Q 1119 906 1312 657 
Q 1506 409 1894 409 
Q 2359 409 2629 706 
Q 2900 1003 2900 1516 
L 2900 3500 
L 3475 3500 
L 3475 0 
L 2900 0 
L 2900 538 
Q 2691 219 2414 64 
Q 2138 -91 1772 -91 
Q 1169 -91 856 284 
Q 544 659 544 1381 
z
M 1991 3584 
L 1991 3584 
z
" transform="scale(0.015625)"/>
       <path id="DejaVuSans-74" d="M 1172 4494 
L 1172 3500 
L 2356 3500 
L 2356 3053 
L 1172 3053 
L 1172 1153 
Q 1172 725 1289 603 
Q 1406 481 1766 481 
L 2356 481 
L 2356 0 
L 1766 0 
Q 1100 0 847 248 
Q 594 497 594 1153 
L 594 3053 
L 172 3053 
L 172 3500 
L 594 3500 
L 594 4494 
L 1172 4494 
z
" transform="scale(0.015625)"/>
       <path id="DejaVuSans-3a" d="M 750 794 
L 1409 794 
L 1409 0 
L 750 0 
L 750 794 
z
M 750 3309 
L 1409 3309 
L 1409 2516 
L 750 2516 
L 750 3309 
z
" transform="scale(0.015625)"/>
       <path id="DejaVuSans-Oblique-65" d="M 3078 2063 
Q 3088 2113 3092 2166 
Q 3097 2219 3097 2272 
Q 3097 2653 2873 2875 
Q 2650 3097 2266 3097 
Q 1838 3097 1509 2826 
Q 1181 2556 1013 2059 
L 3078 2063 
z
M 3578 1613 
L 903 1613 
Q 884 1494 878 1425 
Q 872 1356 872 1306 
Q 872 872 1139 634 
Q 1406 397 1894 397 
Q 2269 397 2603 481 
Q 2938 566 3225 728 
L 3116 159 
Q 2806 34 2476 -28 
Q 2147 -91 1806 -91 
Q 1078 -91 686 257 
Q 294 606 294 1247 
Q 294 1794 489 2264 
Q 684 2734 1063 3103 
Q 1306 3334 1642 3459 
Q 1978 3584 2356 3584 
Q 2950 3584 3301 3228 
Q 3653 2872 3653 2272 
Q 3653 2128 3634 1964 
Q 3616 1800 3578 1613 
z
" transform="scale(0.015625)"/>
       <path id="DejaVuSans-3d" d="M 678 2906 
L 4684 2906 
L 4684 2381 
L 678 2381 
L 678 2906 
z
M 678 1631 
L 4684 1631 
L 4684 1100 
L 678 1100 
L 678 1631 
z
" transform="scale(0.015625)"/>
      </defs>
      <use xlink:href="#DejaVuSans-4d" transform="translate(0 0.015625)"/>
      <use xlink:href="#DejaVuSans-66" transform="translate(86.279297 0.015625)"/>
      <use xlink:href="#DejaVuSans-20" transform="translate(121.484375 0.015625)"/>
      <use xlink:href="#DejaVuSans-62" transform="translate(153.271484 0.015625)"/>
      <use xlink:href="#DejaVuSans-65" transform="translate(216.748047 0.015625)"/>
      <use xlink:href="#DejaVuSans-66" transform="translate(278.271484 0.015625)"/>
      <use xlink:href="#DejaVuSans-6f" transform="translate(313.476562 0.015625)"/>
      <use xlink:href="#DejaVuSans-72" transform="translate(374.658203 0.015625)"/>
      <use xlink:href="#DejaVuSans-65" transform="translate(415.771484 0.015625)"/>
      <use xlink:href="#DejaVuSans-20" transform="translate(477.294922 0.015625)"/>
      <use xlink:href="#DejaVuSans-49" transform="translate(509.082031 0.015625)"/>
      <use xlink:href="#DejaVuSans-53" transform="translate(538.574219 0.015625)"/>
      <use xlink:href="#DejaVuSans-43" transform="translate(602.050781 0.015625)"/>
      <use xlink:href="#DejaVuSans-4f" transform="translate(671.875 0.015625)"/>
      <use xlink:href="#DejaVuSans-20" transform="translate(750.585938 0.015625)"/>
      <use xlink:href="#DejaVuSans-63" transform="translate(782.373047 0.015625)"/>
      <use xlink:href="#DejaVuSans-75" transform="translate(837.353516 0.015625)"/>
      <use xlink:href="#DejaVuSans-74" transform="translate(900.732422 0.015625)"/>
      <use xlink:href="#DejaVuSans-3a" transform="translate(939.941406 0.015625)"/>
      <use xlink:href="#DejaVuSans-20" transform="translate(973.632812 0.015625)"/>
      <use xlink:href="#DejaVuSans-Oblique-65" transform="translate(1005.419922 0.015625)"/>
      <use xlink:href="#DejaVuSans-3d" transform="translate(1066.943359 0.015625)"/>
      <use xlink:href="#DejaVuSans-30" transform="translate(1150.732422 0.015625)"/>
      <use xlink:href="#DejaVuSans-2e" transform="translate(1214.355469 0.015625)"/>
      <use xlink:href="#DejaVuSans-33" transform="translate(1246.142578 0.015625)"/>
     </g>
    </g>
    <g id="line2d_19">
     <path d="M 45.465625 34.976563 
L 55.465625 34.976563 
L 65.465625 34.976563 
" style="fill: none; stroke-dasharray: 2.22,0.96; stroke-dashoffset: 0; stroke: #ff0000; stroke-width: 0.6"/>
    </g>
    <g id="text_16">
     <!-- Mf ISCO $e$=0 -->
     <g transform="translate(73.465625 38.476563) scale(0.1 -0.1)">
      <use xlink:href="#DejaVuSans-4d" transform="translate(0 0.015625)"/>
      <use xlink:href="#DejaVuSans-66" transform="translate(86.279297 0.015625)"/>
      <use xlink:href="#DejaVuSans-20" transform="translate(121.484375 0.015625)"/>
      <use xlink:href="#DejaVuSans-49" transform="translate(153.271484 0.015625)"/>
      <use xlink:href="#DejaVuSans-53" transform="translate(182.763672 0.015625)"/>
      <use xlink:href="#DejaVuSans-43" transform="translate(246.240234 0.015625)"/>
      <use xlink:href="#DejaVuSans-4f" transform="translate(316.064453 0.015625)"/>
      <use xlink:href="#DejaVuSans-20" transform="translate(394.775391 0.015625)"/>
      <use xlink:href="#DejaVuSans-Oblique-65" transform="translate(426.5625 0.015625)"/>
      <use xlink:href="#DejaVuSans-3d" transform="translate(488.085938 0.015625)"/>
      <use xlink:href="#DejaVuSans-30" transform="translate(571.875 0.015625)"/>
     </g>
    </g>
    <g id="PathCollection_2">
     <g>
      <use xlink:href="#m8cba092201" x="55.465625" y="50.529688" style="fill: #ff0000; stroke: #ff0000"/>
     </g>
    </g>
    <g id="text_17">
     <!-- ISCO cut -->
     <g transform="translate(73.465625 53.154688) scale(0.1 -0.1)">
      <use xlink:href="#DejaVuSans-49"/>
      <use xlink:href="#DejaVuSans-53" transform="translate(29.492188 0)"/>
      <use xlink:href="#DejaVuSans-43" transform="translate(92.96875 0)"/>
      <use xlink:href="#DejaVuSans-4f" transform="translate(162.792969 0)"/>
      <use xlink:href="#DejaVuSans-20" transform="translate(241.503906 0)"/>
      <use xlink:href="#DejaVuSans-63" transform="translate(273.291016 0)"/>
      <use xlink:href="#DejaVuSans-75" transform="translate(328.271484 0)"/>
      <use xlink:href="#DejaVuSans-74" transform="translate(391.650391 0)"/>
     </g>
    </g>
    <g id="line2d_20">
     <path d="M 45.465625 64.332813 
L 55.465625 64.332813 
L 65.465625 64.332813 
" style="fill: none; stroke: #ff7f0e; stroke-width: 1.5; stroke-linecap: square"/>
    </g>
    <g id="text_18">
     <!-- Mf after ISCO cut: $e$=0.3  -->
     <g transform="translate(73.465625 67.832813) scale(0.1 -0.1)">
      <defs>
       <path id="DejaVuSans-61" d="M 2194 1759 
Q 1497 1759 1228 1600 
Q 959 1441 959 1056 
Q 959 750 1161 570 
Q 1363 391 1709 391 
Q 2188 391 2477 730 
Q 2766 1069 2766 1631 
L 2766 1759 
L 2194 1759 
z
M 3341 1997 
L 3341 0 
L 2766 0 
L 2766 531 
Q 2569 213 2275 61 
Q 1981 -91 1556 -91 
Q 1019 -91 701 211 
Q 384 513 384 1019 
Q 384 1609 779 1909 
Q 1175 2209 1959 2209 
L 2766 2209 
L 2766 2266 
Q 2766 2663 2505 2880 
Q 2244 3097 1772 3097 
Q 1472 3097 1187 3025 
Q 903 2953 641 2809 
L 641 3341 
Q 956 3463 1253 3523 
Q 1550 3584 1831 3584 
Q 2591 3584 2966 3190 
Q 3341 2797 3341 1997 
z
" transform="scale(0.015625)"/>
      </defs>
      <use xlink:href="#DejaVuSans-4d" transform="translate(0 0.015625)"/>
      <use xlink:href="#DejaVuSans-66" transform="translate(86.279297 0.015625)"/>
      <use xlink:href="#DejaVuSans-20" transform="translate(121.484375 0.015625)"/>
      <use xlink:href="#DejaVuSans-61" transform="translate(153.271484 0.015625)"/>
      <use xlink:href="#DejaVuSans-66" transform="translate(214.550781 0.015625)"/>
      <use xlink:href="#DejaVuSans-74" transform="translate(249.755859 0.015625)"/>
      <use xlink:href="#DejaVuSans-65" transform="translate(288.964844 0.015625)"/>
      <use xlink:href="#DejaVuSans-72" transform="translate(350.488281 0.015625)"/>
      <use xlink:href="#DejaVuSans-20" transform="translate(391.601562 0.015625)"/>
      <use xlink:href="#DejaVuSans-49" transform="translate(423.388672 0.015625)"/>
      <use xlink:href="#DejaVuSans-53" transform="translate(452.880859 0.015625)"/>
      <use xlink:href="#DejaVuSans-43" transform="translate(516.357422 0.015625)"/>
      <use xlink:href="#DejaVuSans-4f" transform="translate(586.181641 0.015625)"/>
      <use xlink:href="#DejaVuSans-20" transform="translate(664.892578 0.015625)"/>
      <use xlink:href="#DejaVuSans-63" transform="translate(696.679688 0.015625)"/>
      <use xlink:href="#DejaVuSans-75" transform="translate(751.660156 0.015625)"/>
      <use xlink:href="#DejaVuSans-74" transform="translate(815.039062 0.015625)"/>
      <use xlink:href="#DejaVuSans-3a" transform="translate(854.248047 0.015625)"/>
      <use xlink:href="#DejaVuSans-20" transform="translate(887.939453 0.015625)"/>
      <use xlink:href="#DejaVuSans-Oblique-65" transform="translate(919.726562 0.015625)"/>
      <use xlink:href="#DejaVuSans-3d" transform="translate(981.25 0.015625)"/>
      <use xlink:href="#DejaVuSans-30" transform="translate(1065.039062 0.015625)"/>
      <use xlink:href="#DejaVuSans-2e" transform="translate(1128.662109 0.015625)"/>
      <use xlink:href="#DejaVuSans-33" transform="translate(1160.449219 0.015625)"/>
      <use xlink:href="#DejaVuSans-20" transform="translate(1224.072266 0.015625)"/>
     </g>
    </g>
   </g>
  </g>
 </g>
 <defs>
  <clipPath id="pd45cf13f90">
   <rect x="36.465625" y="7.2" width="669.6" height="277.2"/>
  </clipPath>
 </defs>
</svg>
